G04 #@! TF.GenerationSoftware,KiCad,Pcbnew,(5.1.5)-3*
G04 #@! TF.CreationDate,2020-08-25T02:26:37-03:00*
G04 #@! TF.ProjectId,Gate_Driver_V2,47617465-5f44-4726-9976-65725f56322e,rev?*
G04 #@! TF.SameCoordinates,Original*
G04 #@! TF.FileFunction,Soldermask,Top*
G04 #@! TF.FilePolarity,Negative*
%FSLAX46Y46*%
G04 Gerber Fmt 4.6, Leading zero omitted, Abs format (unit mm)*
G04 Created by KiCad (PCBNEW (5.1.5)-3) date 2020-08-25 02:26:37*
%MOMM*%
%LPD*%
G04 APERTURE LIST*
%ADD10C,5.000000*%
%ADD11O,1.600000X1.600000*%
%ADD12C,1.600000*%
%ADD13C,9.000000*%
%ADD14R,1.000000X1.000000*%
%ADD15O,1.800000X1.800000*%
%ADD16R,1.800000X1.800000*%
%ADD17C,1.440000*%
%ADD18C,0.100000*%
%ADD19O,1.000000X1.000000*%
%ADD20C,1.800000*%
%ADD21R,1.600000X1.600000*%
%ADD22O,4.500000X2.500000*%
%ADD23R,4.500000X2.500000*%
G04 APERTURE END LIST*
D10*
X182275000Y-75250000D03*
X189400000Y-100625000D03*
X190200000Y-54950000D03*
X183350000Y-40800000D03*
D11*
X145150000Y-60920000D03*
D12*
X145150000Y-53300000D03*
D11*
X153850000Y-62890000D03*
D12*
X153850000Y-47650000D03*
D11*
X168800000Y-62880000D03*
D12*
X168800000Y-47640000D03*
D13*
X164500000Y-31200000D03*
D10*
X182350000Y-97550000D03*
X189450000Y-83350000D03*
X189500000Y-35550000D03*
X183600000Y-60250000D03*
D11*
X167750000Y-90530000D03*
D12*
X167750000Y-98150000D03*
D11*
X171350000Y-50780000D03*
D12*
X171350000Y-58400000D03*
D11*
X133680000Y-49850000D03*
D12*
X141300000Y-49850000D03*
D11*
X133810000Y-47850000D03*
D12*
X149050000Y-47850000D03*
D14*
X134050000Y-79750000D03*
X129900000Y-79750000D03*
D15*
X145870000Y-81050000D03*
D16*
X138250000Y-81050000D03*
D11*
X138590000Y-87700000D03*
D12*
X123350000Y-87700000D03*
D11*
X104960000Y-94250000D03*
D12*
X120200000Y-94250000D03*
D11*
X132100000Y-105940000D03*
D12*
X132100000Y-90700000D03*
D17*
X104420000Y-78250000D03*
X106960000Y-78250000D03*
X109500000Y-78250000D03*
D12*
X138850000Y-40350000D03*
X138850000Y-32850000D03*
D14*
X97700000Y-78475000D03*
D11*
X48820000Y-80200000D03*
D12*
X41200000Y-80200000D03*
D11*
X74600000Y-71000000D03*
D12*
X74600000Y-78620000D03*
D11*
X48820000Y-74800000D03*
D12*
X41200000Y-74800000D03*
D11*
X77600000Y-76020000D03*
D12*
X77600000Y-68400000D03*
D11*
X77620000Y-63600000D03*
D12*
X70000000Y-63600000D03*
D14*
X87600000Y-72200000D03*
X93200000Y-72200000D03*
X89200000Y-75600000D03*
X93600000Y-75600000D03*
X57000000Y-47800000D03*
X57000000Y-89000000D03*
D18*
G36*
X94251977Y-78155662D02*
G01*
X94265325Y-78157642D01*
X94278414Y-78160921D01*
X94291119Y-78165467D01*
X94303317Y-78171236D01*
X94314891Y-78178173D01*
X94325729Y-78186211D01*
X94335727Y-78195273D01*
X94344789Y-78205271D01*
X94352827Y-78216109D01*
X94359764Y-78227683D01*
X94365533Y-78239881D01*
X94370079Y-78252586D01*
X94373358Y-78265675D01*
X94375338Y-78279023D01*
X94376000Y-78292500D01*
X94376000Y-78567500D01*
X94375338Y-78580977D01*
X94373358Y-78594325D01*
X94370079Y-78607414D01*
X94365533Y-78620119D01*
X94359764Y-78632317D01*
X94352827Y-78643891D01*
X94344789Y-78654729D01*
X94335727Y-78664727D01*
X94325729Y-78673789D01*
X94314891Y-78681827D01*
X94303317Y-78688764D01*
X94291119Y-78694533D01*
X94278414Y-78699079D01*
X94265325Y-78702358D01*
X94251977Y-78704338D01*
X94238500Y-78705000D01*
X92513500Y-78705000D01*
X92500023Y-78704338D01*
X92486675Y-78702358D01*
X92473586Y-78699079D01*
X92460881Y-78694533D01*
X92448683Y-78688764D01*
X92437109Y-78681827D01*
X92426271Y-78673789D01*
X92416273Y-78664727D01*
X92407211Y-78654729D01*
X92399173Y-78643891D01*
X92392236Y-78632317D01*
X92386467Y-78620119D01*
X92381921Y-78607414D01*
X92378642Y-78594325D01*
X92376662Y-78580977D01*
X92376000Y-78567500D01*
X92376000Y-78292500D01*
X92376662Y-78279023D01*
X92378642Y-78265675D01*
X92381921Y-78252586D01*
X92386467Y-78239881D01*
X92392236Y-78227683D01*
X92399173Y-78216109D01*
X92407211Y-78205271D01*
X92416273Y-78195273D01*
X92426271Y-78186211D01*
X92437109Y-78178173D01*
X92448683Y-78171236D01*
X92460881Y-78165467D01*
X92473586Y-78160921D01*
X92486675Y-78157642D01*
X92500023Y-78155662D01*
X92513500Y-78155000D01*
X94238500Y-78155000D01*
X94251977Y-78155662D01*
G37*
G36*
X94251977Y-79425662D02*
G01*
X94265325Y-79427642D01*
X94278414Y-79430921D01*
X94291119Y-79435467D01*
X94303317Y-79441236D01*
X94314891Y-79448173D01*
X94325729Y-79456211D01*
X94335727Y-79465273D01*
X94344789Y-79475271D01*
X94352827Y-79486109D01*
X94359764Y-79497683D01*
X94365533Y-79509881D01*
X94370079Y-79522586D01*
X94373358Y-79535675D01*
X94375338Y-79549023D01*
X94376000Y-79562500D01*
X94376000Y-79837500D01*
X94375338Y-79850977D01*
X94373358Y-79864325D01*
X94370079Y-79877414D01*
X94365533Y-79890119D01*
X94359764Y-79902317D01*
X94352827Y-79913891D01*
X94344789Y-79924729D01*
X94335727Y-79934727D01*
X94325729Y-79943789D01*
X94314891Y-79951827D01*
X94303317Y-79958764D01*
X94291119Y-79964533D01*
X94278414Y-79969079D01*
X94265325Y-79972358D01*
X94251977Y-79974338D01*
X94238500Y-79975000D01*
X92513500Y-79975000D01*
X92500023Y-79974338D01*
X92486675Y-79972358D01*
X92473586Y-79969079D01*
X92460881Y-79964533D01*
X92448683Y-79958764D01*
X92437109Y-79951827D01*
X92426271Y-79943789D01*
X92416273Y-79934727D01*
X92407211Y-79924729D01*
X92399173Y-79913891D01*
X92392236Y-79902317D01*
X92386467Y-79890119D01*
X92381921Y-79877414D01*
X92378642Y-79864325D01*
X92376662Y-79850977D01*
X92376000Y-79837500D01*
X92376000Y-79562500D01*
X92376662Y-79549023D01*
X92378642Y-79535675D01*
X92381921Y-79522586D01*
X92386467Y-79509881D01*
X92392236Y-79497683D01*
X92399173Y-79486109D01*
X92407211Y-79475271D01*
X92416273Y-79465273D01*
X92426271Y-79456211D01*
X92437109Y-79448173D01*
X92448683Y-79441236D01*
X92460881Y-79435467D01*
X92473586Y-79430921D01*
X92486675Y-79427642D01*
X92500023Y-79425662D01*
X92513500Y-79425000D01*
X94238500Y-79425000D01*
X94251977Y-79425662D01*
G37*
G36*
X94251977Y-80695662D02*
G01*
X94265325Y-80697642D01*
X94278414Y-80700921D01*
X94291119Y-80705467D01*
X94303317Y-80711236D01*
X94314891Y-80718173D01*
X94325729Y-80726211D01*
X94335727Y-80735273D01*
X94344789Y-80745271D01*
X94352827Y-80756109D01*
X94359764Y-80767683D01*
X94365533Y-80779881D01*
X94370079Y-80792586D01*
X94373358Y-80805675D01*
X94375338Y-80819023D01*
X94376000Y-80832500D01*
X94376000Y-81107500D01*
X94375338Y-81120977D01*
X94373358Y-81134325D01*
X94370079Y-81147414D01*
X94365533Y-81160119D01*
X94359764Y-81172317D01*
X94352827Y-81183891D01*
X94344789Y-81194729D01*
X94335727Y-81204727D01*
X94325729Y-81213789D01*
X94314891Y-81221827D01*
X94303317Y-81228764D01*
X94291119Y-81234533D01*
X94278414Y-81239079D01*
X94265325Y-81242358D01*
X94251977Y-81244338D01*
X94238500Y-81245000D01*
X92513500Y-81245000D01*
X92500023Y-81244338D01*
X92486675Y-81242358D01*
X92473586Y-81239079D01*
X92460881Y-81234533D01*
X92448683Y-81228764D01*
X92437109Y-81221827D01*
X92426271Y-81213789D01*
X92416273Y-81204727D01*
X92407211Y-81194729D01*
X92399173Y-81183891D01*
X92392236Y-81172317D01*
X92386467Y-81160119D01*
X92381921Y-81147414D01*
X92378642Y-81134325D01*
X92376662Y-81120977D01*
X92376000Y-81107500D01*
X92376000Y-80832500D01*
X92376662Y-80819023D01*
X92378642Y-80805675D01*
X92381921Y-80792586D01*
X92386467Y-80779881D01*
X92392236Y-80767683D01*
X92399173Y-80756109D01*
X92407211Y-80745271D01*
X92416273Y-80735273D01*
X92426271Y-80726211D01*
X92437109Y-80718173D01*
X92448683Y-80711236D01*
X92460881Y-80705467D01*
X92473586Y-80700921D01*
X92486675Y-80697642D01*
X92500023Y-80695662D01*
X92513500Y-80695000D01*
X94238500Y-80695000D01*
X94251977Y-80695662D01*
G37*
G36*
X94251977Y-81965662D02*
G01*
X94265325Y-81967642D01*
X94278414Y-81970921D01*
X94291119Y-81975467D01*
X94303317Y-81981236D01*
X94314891Y-81988173D01*
X94325729Y-81996211D01*
X94335727Y-82005273D01*
X94344789Y-82015271D01*
X94352827Y-82026109D01*
X94359764Y-82037683D01*
X94365533Y-82049881D01*
X94370079Y-82062586D01*
X94373358Y-82075675D01*
X94375338Y-82089023D01*
X94376000Y-82102500D01*
X94376000Y-82377500D01*
X94375338Y-82390977D01*
X94373358Y-82404325D01*
X94370079Y-82417414D01*
X94365533Y-82430119D01*
X94359764Y-82442317D01*
X94352827Y-82453891D01*
X94344789Y-82464729D01*
X94335727Y-82474727D01*
X94325729Y-82483789D01*
X94314891Y-82491827D01*
X94303317Y-82498764D01*
X94291119Y-82504533D01*
X94278414Y-82509079D01*
X94265325Y-82512358D01*
X94251977Y-82514338D01*
X94238500Y-82515000D01*
X92513500Y-82515000D01*
X92500023Y-82514338D01*
X92486675Y-82512358D01*
X92473586Y-82509079D01*
X92460881Y-82504533D01*
X92448683Y-82498764D01*
X92437109Y-82491827D01*
X92426271Y-82483789D01*
X92416273Y-82474727D01*
X92407211Y-82464729D01*
X92399173Y-82453891D01*
X92392236Y-82442317D01*
X92386467Y-82430119D01*
X92381921Y-82417414D01*
X92378642Y-82404325D01*
X92376662Y-82390977D01*
X92376000Y-82377500D01*
X92376000Y-82102500D01*
X92376662Y-82089023D01*
X92378642Y-82075675D01*
X92381921Y-82062586D01*
X92386467Y-82049881D01*
X92392236Y-82037683D01*
X92399173Y-82026109D01*
X92407211Y-82015271D01*
X92416273Y-82005273D01*
X92426271Y-81996211D01*
X92437109Y-81988173D01*
X92448683Y-81981236D01*
X92460881Y-81975467D01*
X92473586Y-81970921D01*
X92486675Y-81967642D01*
X92500023Y-81965662D01*
X92513500Y-81965000D01*
X94238500Y-81965000D01*
X94251977Y-81965662D01*
G37*
G36*
X94251977Y-83235662D02*
G01*
X94265325Y-83237642D01*
X94278414Y-83240921D01*
X94291119Y-83245467D01*
X94303317Y-83251236D01*
X94314891Y-83258173D01*
X94325729Y-83266211D01*
X94335727Y-83275273D01*
X94344789Y-83285271D01*
X94352827Y-83296109D01*
X94359764Y-83307683D01*
X94365533Y-83319881D01*
X94370079Y-83332586D01*
X94373358Y-83345675D01*
X94375338Y-83359023D01*
X94376000Y-83372500D01*
X94376000Y-83647500D01*
X94375338Y-83660977D01*
X94373358Y-83674325D01*
X94370079Y-83687414D01*
X94365533Y-83700119D01*
X94359764Y-83712317D01*
X94352827Y-83723891D01*
X94344789Y-83734729D01*
X94335727Y-83744727D01*
X94325729Y-83753789D01*
X94314891Y-83761827D01*
X94303317Y-83768764D01*
X94291119Y-83774533D01*
X94278414Y-83779079D01*
X94265325Y-83782358D01*
X94251977Y-83784338D01*
X94238500Y-83785000D01*
X92513500Y-83785000D01*
X92500023Y-83784338D01*
X92486675Y-83782358D01*
X92473586Y-83779079D01*
X92460881Y-83774533D01*
X92448683Y-83768764D01*
X92437109Y-83761827D01*
X92426271Y-83753789D01*
X92416273Y-83744727D01*
X92407211Y-83734729D01*
X92399173Y-83723891D01*
X92392236Y-83712317D01*
X92386467Y-83700119D01*
X92381921Y-83687414D01*
X92378642Y-83674325D01*
X92376662Y-83660977D01*
X92376000Y-83647500D01*
X92376000Y-83372500D01*
X92376662Y-83359023D01*
X92378642Y-83345675D01*
X92381921Y-83332586D01*
X92386467Y-83319881D01*
X92392236Y-83307683D01*
X92399173Y-83296109D01*
X92407211Y-83285271D01*
X92416273Y-83275273D01*
X92426271Y-83266211D01*
X92437109Y-83258173D01*
X92448683Y-83251236D01*
X92460881Y-83245467D01*
X92473586Y-83240921D01*
X92486675Y-83237642D01*
X92500023Y-83235662D01*
X92513500Y-83235000D01*
X94238500Y-83235000D01*
X94251977Y-83235662D01*
G37*
G36*
X94251977Y-84505662D02*
G01*
X94265325Y-84507642D01*
X94278414Y-84510921D01*
X94291119Y-84515467D01*
X94303317Y-84521236D01*
X94314891Y-84528173D01*
X94325729Y-84536211D01*
X94335727Y-84545273D01*
X94344789Y-84555271D01*
X94352827Y-84566109D01*
X94359764Y-84577683D01*
X94365533Y-84589881D01*
X94370079Y-84602586D01*
X94373358Y-84615675D01*
X94375338Y-84629023D01*
X94376000Y-84642500D01*
X94376000Y-84917500D01*
X94375338Y-84930977D01*
X94373358Y-84944325D01*
X94370079Y-84957414D01*
X94365533Y-84970119D01*
X94359764Y-84982317D01*
X94352827Y-84993891D01*
X94344789Y-85004729D01*
X94335727Y-85014727D01*
X94325729Y-85023789D01*
X94314891Y-85031827D01*
X94303317Y-85038764D01*
X94291119Y-85044533D01*
X94278414Y-85049079D01*
X94265325Y-85052358D01*
X94251977Y-85054338D01*
X94238500Y-85055000D01*
X92513500Y-85055000D01*
X92500023Y-85054338D01*
X92486675Y-85052358D01*
X92473586Y-85049079D01*
X92460881Y-85044533D01*
X92448683Y-85038764D01*
X92437109Y-85031827D01*
X92426271Y-85023789D01*
X92416273Y-85014727D01*
X92407211Y-85004729D01*
X92399173Y-84993891D01*
X92392236Y-84982317D01*
X92386467Y-84970119D01*
X92381921Y-84957414D01*
X92378642Y-84944325D01*
X92376662Y-84930977D01*
X92376000Y-84917500D01*
X92376000Y-84642500D01*
X92376662Y-84629023D01*
X92378642Y-84615675D01*
X92381921Y-84602586D01*
X92386467Y-84589881D01*
X92392236Y-84577683D01*
X92399173Y-84566109D01*
X92407211Y-84555271D01*
X92416273Y-84545273D01*
X92426271Y-84536211D01*
X92437109Y-84528173D01*
X92448683Y-84521236D01*
X92460881Y-84515467D01*
X92473586Y-84510921D01*
X92486675Y-84507642D01*
X92500023Y-84505662D01*
X92513500Y-84505000D01*
X94238500Y-84505000D01*
X94251977Y-84505662D01*
G37*
G36*
X94251977Y-85775662D02*
G01*
X94265325Y-85777642D01*
X94278414Y-85780921D01*
X94291119Y-85785467D01*
X94303317Y-85791236D01*
X94314891Y-85798173D01*
X94325729Y-85806211D01*
X94335727Y-85815273D01*
X94344789Y-85825271D01*
X94352827Y-85836109D01*
X94359764Y-85847683D01*
X94365533Y-85859881D01*
X94370079Y-85872586D01*
X94373358Y-85885675D01*
X94375338Y-85899023D01*
X94376000Y-85912500D01*
X94376000Y-86187500D01*
X94375338Y-86200977D01*
X94373358Y-86214325D01*
X94370079Y-86227414D01*
X94365533Y-86240119D01*
X94359764Y-86252317D01*
X94352827Y-86263891D01*
X94344789Y-86274729D01*
X94335727Y-86284727D01*
X94325729Y-86293789D01*
X94314891Y-86301827D01*
X94303317Y-86308764D01*
X94291119Y-86314533D01*
X94278414Y-86319079D01*
X94265325Y-86322358D01*
X94251977Y-86324338D01*
X94238500Y-86325000D01*
X92513500Y-86325000D01*
X92500023Y-86324338D01*
X92486675Y-86322358D01*
X92473586Y-86319079D01*
X92460881Y-86314533D01*
X92448683Y-86308764D01*
X92437109Y-86301827D01*
X92426271Y-86293789D01*
X92416273Y-86284727D01*
X92407211Y-86274729D01*
X92399173Y-86263891D01*
X92392236Y-86252317D01*
X92386467Y-86240119D01*
X92381921Y-86227414D01*
X92378642Y-86214325D01*
X92376662Y-86200977D01*
X92376000Y-86187500D01*
X92376000Y-85912500D01*
X92376662Y-85899023D01*
X92378642Y-85885675D01*
X92381921Y-85872586D01*
X92386467Y-85859881D01*
X92392236Y-85847683D01*
X92399173Y-85836109D01*
X92407211Y-85825271D01*
X92416273Y-85815273D01*
X92426271Y-85806211D01*
X92437109Y-85798173D01*
X92448683Y-85791236D01*
X92460881Y-85785467D01*
X92473586Y-85780921D01*
X92486675Y-85777642D01*
X92500023Y-85775662D01*
X92513500Y-85775000D01*
X94238500Y-85775000D01*
X94251977Y-85775662D01*
G37*
G36*
X94251977Y-87045662D02*
G01*
X94265325Y-87047642D01*
X94278414Y-87050921D01*
X94291119Y-87055467D01*
X94303317Y-87061236D01*
X94314891Y-87068173D01*
X94325729Y-87076211D01*
X94335727Y-87085273D01*
X94344789Y-87095271D01*
X94352827Y-87106109D01*
X94359764Y-87117683D01*
X94365533Y-87129881D01*
X94370079Y-87142586D01*
X94373358Y-87155675D01*
X94375338Y-87169023D01*
X94376000Y-87182500D01*
X94376000Y-87457500D01*
X94375338Y-87470977D01*
X94373358Y-87484325D01*
X94370079Y-87497414D01*
X94365533Y-87510119D01*
X94359764Y-87522317D01*
X94352827Y-87533891D01*
X94344789Y-87544729D01*
X94335727Y-87554727D01*
X94325729Y-87563789D01*
X94314891Y-87571827D01*
X94303317Y-87578764D01*
X94291119Y-87584533D01*
X94278414Y-87589079D01*
X94265325Y-87592358D01*
X94251977Y-87594338D01*
X94238500Y-87595000D01*
X92513500Y-87595000D01*
X92500023Y-87594338D01*
X92486675Y-87592358D01*
X92473586Y-87589079D01*
X92460881Y-87584533D01*
X92448683Y-87578764D01*
X92437109Y-87571827D01*
X92426271Y-87563789D01*
X92416273Y-87554727D01*
X92407211Y-87544729D01*
X92399173Y-87533891D01*
X92392236Y-87522317D01*
X92386467Y-87510119D01*
X92381921Y-87497414D01*
X92378642Y-87484325D01*
X92376662Y-87470977D01*
X92376000Y-87457500D01*
X92376000Y-87182500D01*
X92376662Y-87169023D01*
X92378642Y-87155675D01*
X92381921Y-87142586D01*
X92386467Y-87129881D01*
X92392236Y-87117683D01*
X92399173Y-87106109D01*
X92407211Y-87095271D01*
X92416273Y-87085273D01*
X92426271Y-87076211D01*
X92437109Y-87068173D01*
X92448683Y-87061236D01*
X92460881Y-87055467D01*
X92473586Y-87050921D01*
X92486675Y-87047642D01*
X92500023Y-87045662D01*
X92513500Y-87045000D01*
X94238500Y-87045000D01*
X94251977Y-87045662D01*
G37*
G36*
X94251977Y-88315662D02*
G01*
X94265325Y-88317642D01*
X94278414Y-88320921D01*
X94291119Y-88325467D01*
X94303317Y-88331236D01*
X94314891Y-88338173D01*
X94325729Y-88346211D01*
X94335727Y-88355273D01*
X94344789Y-88365271D01*
X94352827Y-88376109D01*
X94359764Y-88387683D01*
X94365533Y-88399881D01*
X94370079Y-88412586D01*
X94373358Y-88425675D01*
X94375338Y-88439023D01*
X94376000Y-88452500D01*
X94376000Y-88727500D01*
X94375338Y-88740977D01*
X94373358Y-88754325D01*
X94370079Y-88767414D01*
X94365533Y-88780119D01*
X94359764Y-88792317D01*
X94352827Y-88803891D01*
X94344789Y-88814729D01*
X94335727Y-88824727D01*
X94325729Y-88833789D01*
X94314891Y-88841827D01*
X94303317Y-88848764D01*
X94291119Y-88854533D01*
X94278414Y-88859079D01*
X94265325Y-88862358D01*
X94251977Y-88864338D01*
X94238500Y-88865000D01*
X92513500Y-88865000D01*
X92500023Y-88864338D01*
X92486675Y-88862358D01*
X92473586Y-88859079D01*
X92460881Y-88854533D01*
X92448683Y-88848764D01*
X92437109Y-88841827D01*
X92426271Y-88833789D01*
X92416273Y-88824727D01*
X92407211Y-88814729D01*
X92399173Y-88803891D01*
X92392236Y-88792317D01*
X92386467Y-88780119D01*
X92381921Y-88767414D01*
X92378642Y-88754325D01*
X92376662Y-88740977D01*
X92376000Y-88727500D01*
X92376000Y-88452500D01*
X92376662Y-88439023D01*
X92378642Y-88425675D01*
X92381921Y-88412586D01*
X92386467Y-88399881D01*
X92392236Y-88387683D01*
X92399173Y-88376109D01*
X92407211Y-88365271D01*
X92416273Y-88355273D01*
X92426271Y-88346211D01*
X92437109Y-88338173D01*
X92448683Y-88331236D01*
X92460881Y-88325467D01*
X92473586Y-88320921D01*
X92486675Y-88317642D01*
X92500023Y-88315662D01*
X92513500Y-88315000D01*
X94238500Y-88315000D01*
X94251977Y-88315662D01*
G37*
G36*
X94251977Y-89585662D02*
G01*
X94265325Y-89587642D01*
X94278414Y-89590921D01*
X94291119Y-89595467D01*
X94303317Y-89601236D01*
X94314891Y-89608173D01*
X94325729Y-89616211D01*
X94335727Y-89625273D01*
X94344789Y-89635271D01*
X94352827Y-89646109D01*
X94359764Y-89657683D01*
X94365533Y-89669881D01*
X94370079Y-89682586D01*
X94373358Y-89695675D01*
X94375338Y-89709023D01*
X94376000Y-89722500D01*
X94376000Y-89997500D01*
X94375338Y-90010977D01*
X94373358Y-90024325D01*
X94370079Y-90037414D01*
X94365533Y-90050119D01*
X94359764Y-90062317D01*
X94352827Y-90073891D01*
X94344789Y-90084729D01*
X94335727Y-90094727D01*
X94325729Y-90103789D01*
X94314891Y-90111827D01*
X94303317Y-90118764D01*
X94291119Y-90124533D01*
X94278414Y-90129079D01*
X94265325Y-90132358D01*
X94251977Y-90134338D01*
X94238500Y-90135000D01*
X92513500Y-90135000D01*
X92500023Y-90134338D01*
X92486675Y-90132358D01*
X92473586Y-90129079D01*
X92460881Y-90124533D01*
X92448683Y-90118764D01*
X92437109Y-90111827D01*
X92426271Y-90103789D01*
X92416273Y-90094727D01*
X92407211Y-90084729D01*
X92399173Y-90073891D01*
X92392236Y-90062317D01*
X92386467Y-90050119D01*
X92381921Y-90037414D01*
X92378642Y-90024325D01*
X92376662Y-90010977D01*
X92376000Y-89997500D01*
X92376000Y-89722500D01*
X92376662Y-89709023D01*
X92378642Y-89695675D01*
X92381921Y-89682586D01*
X92386467Y-89669881D01*
X92392236Y-89657683D01*
X92399173Y-89646109D01*
X92407211Y-89635271D01*
X92416273Y-89625273D01*
X92426271Y-89616211D01*
X92437109Y-89608173D01*
X92448683Y-89601236D01*
X92460881Y-89595467D01*
X92473586Y-89590921D01*
X92486675Y-89587642D01*
X92500023Y-89585662D01*
X92513500Y-89585000D01*
X94238500Y-89585000D01*
X94251977Y-89585662D01*
G37*
G36*
X94251977Y-90855662D02*
G01*
X94265325Y-90857642D01*
X94278414Y-90860921D01*
X94291119Y-90865467D01*
X94303317Y-90871236D01*
X94314891Y-90878173D01*
X94325729Y-90886211D01*
X94335727Y-90895273D01*
X94344789Y-90905271D01*
X94352827Y-90916109D01*
X94359764Y-90927683D01*
X94365533Y-90939881D01*
X94370079Y-90952586D01*
X94373358Y-90965675D01*
X94375338Y-90979023D01*
X94376000Y-90992500D01*
X94376000Y-91267500D01*
X94375338Y-91280977D01*
X94373358Y-91294325D01*
X94370079Y-91307414D01*
X94365533Y-91320119D01*
X94359764Y-91332317D01*
X94352827Y-91343891D01*
X94344789Y-91354729D01*
X94335727Y-91364727D01*
X94325729Y-91373789D01*
X94314891Y-91381827D01*
X94303317Y-91388764D01*
X94291119Y-91394533D01*
X94278414Y-91399079D01*
X94265325Y-91402358D01*
X94251977Y-91404338D01*
X94238500Y-91405000D01*
X92513500Y-91405000D01*
X92500023Y-91404338D01*
X92486675Y-91402358D01*
X92473586Y-91399079D01*
X92460881Y-91394533D01*
X92448683Y-91388764D01*
X92437109Y-91381827D01*
X92426271Y-91373789D01*
X92416273Y-91364727D01*
X92407211Y-91354729D01*
X92399173Y-91343891D01*
X92392236Y-91332317D01*
X92386467Y-91320119D01*
X92381921Y-91307414D01*
X92378642Y-91294325D01*
X92376662Y-91280977D01*
X92376000Y-91267500D01*
X92376000Y-90992500D01*
X92376662Y-90979023D01*
X92378642Y-90965675D01*
X92381921Y-90952586D01*
X92386467Y-90939881D01*
X92392236Y-90927683D01*
X92399173Y-90916109D01*
X92407211Y-90905271D01*
X92416273Y-90895273D01*
X92426271Y-90886211D01*
X92437109Y-90878173D01*
X92448683Y-90871236D01*
X92460881Y-90865467D01*
X92473586Y-90860921D01*
X92486675Y-90857642D01*
X92500023Y-90855662D01*
X92513500Y-90855000D01*
X94238500Y-90855000D01*
X94251977Y-90855662D01*
G37*
G36*
X94251977Y-92125662D02*
G01*
X94265325Y-92127642D01*
X94278414Y-92130921D01*
X94291119Y-92135467D01*
X94303317Y-92141236D01*
X94314891Y-92148173D01*
X94325729Y-92156211D01*
X94335727Y-92165273D01*
X94344789Y-92175271D01*
X94352827Y-92186109D01*
X94359764Y-92197683D01*
X94365533Y-92209881D01*
X94370079Y-92222586D01*
X94373358Y-92235675D01*
X94375338Y-92249023D01*
X94376000Y-92262500D01*
X94376000Y-92537500D01*
X94375338Y-92550977D01*
X94373358Y-92564325D01*
X94370079Y-92577414D01*
X94365533Y-92590119D01*
X94359764Y-92602317D01*
X94352827Y-92613891D01*
X94344789Y-92624729D01*
X94335727Y-92634727D01*
X94325729Y-92643789D01*
X94314891Y-92651827D01*
X94303317Y-92658764D01*
X94291119Y-92664533D01*
X94278414Y-92669079D01*
X94265325Y-92672358D01*
X94251977Y-92674338D01*
X94238500Y-92675000D01*
X92513500Y-92675000D01*
X92500023Y-92674338D01*
X92486675Y-92672358D01*
X92473586Y-92669079D01*
X92460881Y-92664533D01*
X92448683Y-92658764D01*
X92437109Y-92651827D01*
X92426271Y-92643789D01*
X92416273Y-92634727D01*
X92407211Y-92624729D01*
X92399173Y-92613891D01*
X92392236Y-92602317D01*
X92386467Y-92590119D01*
X92381921Y-92577414D01*
X92378642Y-92564325D01*
X92376662Y-92550977D01*
X92376000Y-92537500D01*
X92376000Y-92262500D01*
X92376662Y-92249023D01*
X92378642Y-92235675D01*
X92381921Y-92222586D01*
X92386467Y-92209881D01*
X92392236Y-92197683D01*
X92399173Y-92186109D01*
X92407211Y-92175271D01*
X92416273Y-92165273D01*
X92426271Y-92156211D01*
X92437109Y-92148173D01*
X92448683Y-92141236D01*
X92460881Y-92135467D01*
X92473586Y-92130921D01*
X92486675Y-92127642D01*
X92500023Y-92125662D01*
X92513500Y-92125000D01*
X94238500Y-92125000D01*
X94251977Y-92125662D01*
G37*
G36*
X84951977Y-92125662D02*
G01*
X84965325Y-92127642D01*
X84978414Y-92130921D01*
X84991119Y-92135467D01*
X85003317Y-92141236D01*
X85014891Y-92148173D01*
X85025729Y-92156211D01*
X85035727Y-92165273D01*
X85044789Y-92175271D01*
X85052827Y-92186109D01*
X85059764Y-92197683D01*
X85065533Y-92209881D01*
X85070079Y-92222586D01*
X85073358Y-92235675D01*
X85075338Y-92249023D01*
X85076000Y-92262500D01*
X85076000Y-92537500D01*
X85075338Y-92550977D01*
X85073358Y-92564325D01*
X85070079Y-92577414D01*
X85065533Y-92590119D01*
X85059764Y-92602317D01*
X85052827Y-92613891D01*
X85044789Y-92624729D01*
X85035727Y-92634727D01*
X85025729Y-92643789D01*
X85014891Y-92651827D01*
X85003317Y-92658764D01*
X84991119Y-92664533D01*
X84978414Y-92669079D01*
X84965325Y-92672358D01*
X84951977Y-92674338D01*
X84938500Y-92675000D01*
X83213500Y-92675000D01*
X83200023Y-92674338D01*
X83186675Y-92672358D01*
X83173586Y-92669079D01*
X83160881Y-92664533D01*
X83148683Y-92658764D01*
X83137109Y-92651827D01*
X83126271Y-92643789D01*
X83116273Y-92634727D01*
X83107211Y-92624729D01*
X83099173Y-92613891D01*
X83092236Y-92602317D01*
X83086467Y-92590119D01*
X83081921Y-92577414D01*
X83078642Y-92564325D01*
X83076662Y-92550977D01*
X83076000Y-92537500D01*
X83076000Y-92262500D01*
X83076662Y-92249023D01*
X83078642Y-92235675D01*
X83081921Y-92222586D01*
X83086467Y-92209881D01*
X83092236Y-92197683D01*
X83099173Y-92186109D01*
X83107211Y-92175271D01*
X83116273Y-92165273D01*
X83126271Y-92156211D01*
X83137109Y-92148173D01*
X83148683Y-92141236D01*
X83160881Y-92135467D01*
X83173586Y-92130921D01*
X83186675Y-92127642D01*
X83200023Y-92125662D01*
X83213500Y-92125000D01*
X84938500Y-92125000D01*
X84951977Y-92125662D01*
G37*
G36*
X84951977Y-90855662D02*
G01*
X84965325Y-90857642D01*
X84978414Y-90860921D01*
X84991119Y-90865467D01*
X85003317Y-90871236D01*
X85014891Y-90878173D01*
X85025729Y-90886211D01*
X85035727Y-90895273D01*
X85044789Y-90905271D01*
X85052827Y-90916109D01*
X85059764Y-90927683D01*
X85065533Y-90939881D01*
X85070079Y-90952586D01*
X85073358Y-90965675D01*
X85075338Y-90979023D01*
X85076000Y-90992500D01*
X85076000Y-91267500D01*
X85075338Y-91280977D01*
X85073358Y-91294325D01*
X85070079Y-91307414D01*
X85065533Y-91320119D01*
X85059764Y-91332317D01*
X85052827Y-91343891D01*
X85044789Y-91354729D01*
X85035727Y-91364727D01*
X85025729Y-91373789D01*
X85014891Y-91381827D01*
X85003317Y-91388764D01*
X84991119Y-91394533D01*
X84978414Y-91399079D01*
X84965325Y-91402358D01*
X84951977Y-91404338D01*
X84938500Y-91405000D01*
X83213500Y-91405000D01*
X83200023Y-91404338D01*
X83186675Y-91402358D01*
X83173586Y-91399079D01*
X83160881Y-91394533D01*
X83148683Y-91388764D01*
X83137109Y-91381827D01*
X83126271Y-91373789D01*
X83116273Y-91364727D01*
X83107211Y-91354729D01*
X83099173Y-91343891D01*
X83092236Y-91332317D01*
X83086467Y-91320119D01*
X83081921Y-91307414D01*
X83078642Y-91294325D01*
X83076662Y-91280977D01*
X83076000Y-91267500D01*
X83076000Y-90992500D01*
X83076662Y-90979023D01*
X83078642Y-90965675D01*
X83081921Y-90952586D01*
X83086467Y-90939881D01*
X83092236Y-90927683D01*
X83099173Y-90916109D01*
X83107211Y-90905271D01*
X83116273Y-90895273D01*
X83126271Y-90886211D01*
X83137109Y-90878173D01*
X83148683Y-90871236D01*
X83160881Y-90865467D01*
X83173586Y-90860921D01*
X83186675Y-90857642D01*
X83200023Y-90855662D01*
X83213500Y-90855000D01*
X84938500Y-90855000D01*
X84951977Y-90855662D01*
G37*
G36*
X84951977Y-89585662D02*
G01*
X84965325Y-89587642D01*
X84978414Y-89590921D01*
X84991119Y-89595467D01*
X85003317Y-89601236D01*
X85014891Y-89608173D01*
X85025729Y-89616211D01*
X85035727Y-89625273D01*
X85044789Y-89635271D01*
X85052827Y-89646109D01*
X85059764Y-89657683D01*
X85065533Y-89669881D01*
X85070079Y-89682586D01*
X85073358Y-89695675D01*
X85075338Y-89709023D01*
X85076000Y-89722500D01*
X85076000Y-89997500D01*
X85075338Y-90010977D01*
X85073358Y-90024325D01*
X85070079Y-90037414D01*
X85065533Y-90050119D01*
X85059764Y-90062317D01*
X85052827Y-90073891D01*
X85044789Y-90084729D01*
X85035727Y-90094727D01*
X85025729Y-90103789D01*
X85014891Y-90111827D01*
X85003317Y-90118764D01*
X84991119Y-90124533D01*
X84978414Y-90129079D01*
X84965325Y-90132358D01*
X84951977Y-90134338D01*
X84938500Y-90135000D01*
X83213500Y-90135000D01*
X83200023Y-90134338D01*
X83186675Y-90132358D01*
X83173586Y-90129079D01*
X83160881Y-90124533D01*
X83148683Y-90118764D01*
X83137109Y-90111827D01*
X83126271Y-90103789D01*
X83116273Y-90094727D01*
X83107211Y-90084729D01*
X83099173Y-90073891D01*
X83092236Y-90062317D01*
X83086467Y-90050119D01*
X83081921Y-90037414D01*
X83078642Y-90024325D01*
X83076662Y-90010977D01*
X83076000Y-89997500D01*
X83076000Y-89722500D01*
X83076662Y-89709023D01*
X83078642Y-89695675D01*
X83081921Y-89682586D01*
X83086467Y-89669881D01*
X83092236Y-89657683D01*
X83099173Y-89646109D01*
X83107211Y-89635271D01*
X83116273Y-89625273D01*
X83126271Y-89616211D01*
X83137109Y-89608173D01*
X83148683Y-89601236D01*
X83160881Y-89595467D01*
X83173586Y-89590921D01*
X83186675Y-89587642D01*
X83200023Y-89585662D01*
X83213500Y-89585000D01*
X84938500Y-89585000D01*
X84951977Y-89585662D01*
G37*
G36*
X84951977Y-88315662D02*
G01*
X84965325Y-88317642D01*
X84978414Y-88320921D01*
X84991119Y-88325467D01*
X85003317Y-88331236D01*
X85014891Y-88338173D01*
X85025729Y-88346211D01*
X85035727Y-88355273D01*
X85044789Y-88365271D01*
X85052827Y-88376109D01*
X85059764Y-88387683D01*
X85065533Y-88399881D01*
X85070079Y-88412586D01*
X85073358Y-88425675D01*
X85075338Y-88439023D01*
X85076000Y-88452500D01*
X85076000Y-88727500D01*
X85075338Y-88740977D01*
X85073358Y-88754325D01*
X85070079Y-88767414D01*
X85065533Y-88780119D01*
X85059764Y-88792317D01*
X85052827Y-88803891D01*
X85044789Y-88814729D01*
X85035727Y-88824727D01*
X85025729Y-88833789D01*
X85014891Y-88841827D01*
X85003317Y-88848764D01*
X84991119Y-88854533D01*
X84978414Y-88859079D01*
X84965325Y-88862358D01*
X84951977Y-88864338D01*
X84938500Y-88865000D01*
X83213500Y-88865000D01*
X83200023Y-88864338D01*
X83186675Y-88862358D01*
X83173586Y-88859079D01*
X83160881Y-88854533D01*
X83148683Y-88848764D01*
X83137109Y-88841827D01*
X83126271Y-88833789D01*
X83116273Y-88824727D01*
X83107211Y-88814729D01*
X83099173Y-88803891D01*
X83092236Y-88792317D01*
X83086467Y-88780119D01*
X83081921Y-88767414D01*
X83078642Y-88754325D01*
X83076662Y-88740977D01*
X83076000Y-88727500D01*
X83076000Y-88452500D01*
X83076662Y-88439023D01*
X83078642Y-88425675D01*
X83081921Y-88412586D01*
X83086467Y-88399881D01*
X83092236Y-88387683D01*
X83099173Y-88376109D01*
X83107211Y-88365271D01*
X83116273Y-88355273D01*
X83126271Y-88346211D01*
X83137109Y-88338173D01*
X83148683Y-88331236D01*
X83160881Y-88325467D01*
X83173586Y-88320921D01*
X83186675Y-88317642D01*
X83200023Y-88315662D01*
X83213500Y-88315000D01*
X84938500Y-88315000D01*
X84951977Y-88315662D01*
G37*
G36*
X84951977Y-87045662D02*
G01*
X84965325Y-87047642D01*
X84978414Y-87050921D01*
X84991119Y-87055467D01*
X85003317Y-87061236D01*
X85014891Y-87068173D01*
X85025729Y-87076211D01*
X85035727Y-87085273D01*
X85044789Y-87095271D01*
X85052827Y-87106109D01*
X85059764Y-87117683D01*
X85065533Y-87129881D01*
X85070079Y-87142586D01*
X85073358Y-87155675D01*
X85075338Y-87169023D01*
X85076000Y-87182500D01*
X85076000Y-87457500D01*
X85075338Y-87470977D01*
X85073358Y-87484325D01*
X85070079Y-87497414D01*
X85065533Y-87510119D01*
X85059764Y-87522317D01*
X85052827Y-87533891D01*
X85044789Y-87544729D01*
X85035727Y-87554727D01*
X85025729Y-87563789D01*
X85014891Y-87571827D01*
X85003317Y-87578764D01*
X84991119Y-87584533D01*
X84978414Y-87589079D01*
X84965325Y-87592358D01*
X84951977Y-87594338D01*
X84938500Y-87595000D01*
X83213500Y-87595000D01*
X83200023Y-87594338D01*
X83186675Y-87592358D01*
X83173586Y-87589079D01*
X83160881Y-87584533D01*
X83148683Y-87578764D01*
X83137109Y-87571827D01*
X83126271Y-87563789D01*
X83116273Y-87554727D01*
X83107211Y-87544729D01*
X83099173Y-87533891D01*
X83092236Y-87522317D01*
X83086467Y-87510119D01*
X83081921Y-87497414D01*
X83078642Y-87484325D01*
X83076662Y-87470977D01*
X83076000Y-87457500D01*
X83076000Y-87182500D01*
X83076662Y-87169023D01*
X83078642Y-87155675D01*
X83081921Y-87142586D01*
X83086467Y-87129881D01*
X83092236Y-87117683D01*
X83099173Y-87106109D01*
X83107211Y-87095271D01*
X83116273Y-87085273D01*
X83126271Y-87076211D01*
X83137109Y-87068173D01*
X83148683Y-87061236D01*
X83160881Y-87055467D01*
X83173586Y-87050921D01*
X83186675Y-87047642D01*
X83200023Y-87045662D01*
X83213500Y-87045000D01*
X84938500Y-87045000D01*
X84951977Y-87045662D01*
G37*
G36*
X84951977Y-85775662D02*
G01*
X84965325Y-85777642D01*
X84978414Y-85780921D01*
X84991119Y-85785467D01*
X85003317Y-85791236D01*
X85014891Y-85798173D01*
X85025729Y-85806211D01*
X85035727Y-85815273D01*
X85044789Y-85825271D01*
X85052827Y-85836109D01*
X85059764Y-85847683D01*
X85065533Y-85859881D01*
X85070079Y-85872586D01*
X85073358Y-85885675D01*
X85075338Y-85899023D01*
X85076000Y-85912500D01*
X85076000Y-86187500D01*
X85075338Y-86200977D01*
X85073358Y-86214325D01*
X85070079Y-86227414D01*
X85065533Y-86240119D01*
X85059764Y-86252317D01*
X85052827Y-86263891D01*
X85044789Y-86274729D01*
X85035727Y-86284727D01*
X85025729Y-86293789D01*
X85014891Y-86301827D01*
X85003317Y-86308764D01*
X84991119Y-86314533D01*
X84978414Y-86319079D01*
X84965325Y-86322358D01*
X84951977Y-86324338D01*
X84938500Y-86325000D01*
X83213500Y-86325000D01*
X83200023Y-86324338D01*
X83186675Y-86322358D01*
X83173586Y-86319079D01*
X83160881Y-86314533D01*
X83148683Y-86308764D01*
X83137109Y-86301827D01*
X83126271Y-86293789D01*
X83116273Y-86284727D01*
X83107211Y-86274729D01*
X83099173Y-86263891D01*
X83092236Y-86252317D01*
X83086467Y-86240119D01*
X83081921Y-86227414D01*
X83078642Y-86214325D01*
X83076662Y-86200977D01*
X83076000Y-86187500D01*
X83076000Y-85912500D01*
X83076662Y-85899023D01*
X83078642Y-85885675D01*
X83081921Y-85872586D01*
X83086467Y-85859881D01*
X83092236Y-85847683D01*
X83099173Y-85836109D01*
X83107211Y-85825271D01*
X83116273Y-85815273D01*
X83126271Y-85806211D01*
X83137109Y-85798173D01*
X83148683Y-85791236D01*
X83160881Y-85785467D01*
X83173586Y-85780921D01*
X83186675Y-85777642D01*
X83200023Y-85775662D01*
X83213500Y-85775000D01*
X84938500Y-85775000D01*
X84951977Y-85775662D01*
G37*
G36*
X84951977Y-84505662D02*
G01*
X84965325Y-84507642D01*
X84978414Y-84510921D01*
X84991119Y-84515467D01*
X85003317Y-84521236D01*
X85014891Y-84528173D01*
X85025729Y-84536211D01*
X85035727Y-84545273D01*
X85044789Y-84555271D01*
X85052827Y-84566109D01*
X85059764Y-84577683D01*
X85065533Y-84589881D01*
X85070079Y-84602586D01*
X85073358Y-84615675D01*
X85075338Y-84629023D01*
X85076000Y-84642500D01*
X85076000Y-84917500D01*
X85075338Y-84930977D01*
X85073358Y-84944325D01*
X85070079Y-84957414D01*
X85065533Y-84970119D01*
X85059764Y-84982317D01*
X85052827Y-84993891D01*
X85044789Y-85004729D01*
X85035727Y-85014727D01*
X85025729Y-85023789D01*
X85014891Y-85031827D01*
X85003317Y-85038764D01*
X84991119Y-85044533D01*
X84978414Y-85049079D01*
X84965325Y-85052358D01*
X84951977Y-85054338D01*
X84938500Y-85055000D01*
X83213500Y-85055000D01*
X83200023Y-85054338D01*
X83186675Y-85052358D01*
X83173586Y-85049079D01*
X83160881Y-85044533D01*
X83148683Y-85038764D01*
X83137109Y-85031827D01*
X83126271Y-85023789D01*
X83116273Y-85014727D01*
X83107211Y-85004729D01*
X83099173Y-84993891D01*
X83092236Y-84982317D01*
X83086467Y-84970119D01*
X83081921Y-84957414D01*
X83078642Y-84944325D01*
X83076662Y-84930977D01*
X83076000Y-84917500D01*
X83076000Y-84642500D01*
X83076662Y-84629023D01*
X83078642Y-84615675D01*
X83081921Y-84602586D01*
X83086467Y-84589881D01*
X83092236Y-84577683D01*
X83099173Y-84566109D01*
X83107211Y-84555271D01*
X83116273Y-84545273D01*
X83126271Y-84536211D01*
X83137109Y-84528173D01*
X83148683Y-84521236D01*
X83160881Y-84515467D01*
X83173586Y-84510921D01*
X83186675Y-84507642D01*
X83200023Y-84505662D01*
X83213500Y-84505000D01*
X84938500Y-84505000D01*
X84951977Y-84505662D01*
G37*
G36*
X84951977Y-83235662D02*
G01*
X84965325Y-83237642D01*
X84978414Y-83240921D01*
X84991119Y-83245467D01*
X85003317Y-83251236D01*
X85014891Y-83258173D01*
X85025729Y-83266211D01*
X85035727Y-83275273D01*
X85044789Y-83285271D01*
X85052827Y-83296109D01*
X85059764Y-83307683D01*
X85065533Y-83319881D01*
X85070079Y-83332586D01*
X85073358Y-83345675D01*
X85075338Y-83359023D01*
X85076000Y-83372500D01*
X85076000Y-83647500D01*
X85075338Y-83660977D01*
X85073358Y-83674325D01*
X85070079Y-83687414D01*
X85065533Y-83700119D01*
X85059764Y-83712317D01*
X85052827Y-83723891D01*
X85044789Y-83734729D01*
X85035727Y-83744727D01*
X85025729Y-83753789D01*
X85014891Y-83761827D01*
X85003317Y-83768764D01*
X84991119Y-83774533D01*
X84978414Y-83779079D01*
X84965325Y-83782358D01*
X84951977Y-83784338D01*
X84938500Y-83785000D01*
X83213500Y-83785000D01*
X83200023Y-83784338D01*
X83186675Y-83782358D01*
X83173586Y-83779079D01*
X83160881Y-83774533D01*
X83148683Y-83768764D01*
X83137109Y-83761827D01*
X83126271Y-83753789D01*
X83116273Y-83744727D01*
X83107211Y-83734729D01*
X83099173Y-83723891D01*
X83092236Y-83712317D01*
X83086467Y-83700119D01*
X83081921Y-83687414D01*
X83078642Y-83674325D01*
X83076662Y-83660977D01*
X83076000Y-83647500D01*
X83076000Y-83372500D01*
X83076662Y-83359023D01*
X83078642Y-83345675D01*
X83081921Y-83332586D01*
X83086467Y-83319881D01*
X83092236Y-83307683D01*
X83099173Y-83296109D01*
X83107211Y-83285271D01*
X83116273Y-83275273D01*
X83126271Y-83266211D01*
X83137109Y-83258173D01*
X83148683Y-83251236D01*
X83160881Y-83245467D01*
X83173586Y-83240921D01*
X83186675Y-83237642D01*
X83200023Y-83235662D01*
X83213500Y-83235000D01*
X84938500Y-83235000D01*
X84951977Y-83235662D01*
G37*
G36*
X84951977Y-81965662D02*
G01*
X84965325Y-81967642D01*
X84978414Y-81970921D01*
X84991119Y-81975467D01*
X85003317Y-81981236D01*
X85014891Y-81988173D01*
X85025729Y-81996211D01*
X85035727Y-82005273D01*
X85044789Y-82015271D01*
X85052827Y-82026109D01*
X85059764Y-82037683D01*
X85065533Y-82049881D01*
X85070079Y-82062586D01*
X85073358Y-82075675D01*
X85075338Y-82089023D01*
X85076000Y-82102500D01*
X85076000Y-82377500D01*
X85075338Y-82390977D01*
X85073358Y-82404325D01*
X85070079Y-82417414D01*
X85065533Y-82430119D01*
X85059764Y-82442317D01*
X85052827Y-82453891D01*
X85044789Y-82464729D01*
X85035727Y-82474727D01*
X85025729Y-82483789D01*
X85014891Y-82491827D01*
X85003317Y-82498764D01*
X84991119Y-82504533D01*
X84978414Y-82509079D01*
X84965325Y-82512358D01*
X84951977Y-82514338D01*
X84938500Y-82515000D01*
X83213500Y-82515000D01*
X83200023Y-82514338D01*
X83186675Y-82512358D01*
X83173586Y-82509079D01*
X83160881Y-82504533D01*
X83148683Y-82498764D01*
X83137109Y-82491827D01*
X83126271Y-82483789D01*
X83116273Y-82474727D01*
X83107211Y-82464729D01*
X83099173Y-82453891D01*
X83092236Y-82442317D01*
X83086467Y-82430119D01*
X83081921Y-82417414D01*
X83078642Y-82404325D01*
X83076662Y-82390977D01*
X83076000Y-82377500D01*
X83076000Y-82102500D01*
X83076662Y-82089023D01*
X83078642Y-82075675D01*
X83081921Y-82062586D01*
X83086467Y-82049881D01*
X83092236Y-82037683D01*
X83099173Y-82026109D01*
X83107211Y-82015271D01*
X83116273Y-82005273D01*
X83126271Y-81996211D01*
X83137109Y-81988173D01*
X83148683Y-81981236D01*
X83160881Y-81975467D01*
X83173586Y-81970921D01*
X83186675Y-81967642D01*
X83200023Y-81965662D01*
X83213500Y-81965000D01*
X84938500Y-81965000D01*
X84951977Y-81965662D01*
G37*
G36*
X84951977Y-80695662D02*
G01*
X84965325Y-80697642D01*
X84978414Y-80700921D01*
X84991119Y-80705467D01*
X85003317Y-80711236D01*
X85014891Y-80718173D01*
X85025729Y-80726211D01*
X85035727Y-80735273D01*
X85044789Y-80745271D01*
X85052827Y-80756109D01*
X85059764Y-80767683D01*
X85065533Y-80779881D01*
X85070079Y-80792586D01*
X85073358Y-80805675D01*
X85075338Y-80819023D01*
X85076000Y-80832500D01*
X85076000Y-81107500D01*
X85075338Y-81120977D01*
X85073358Y-81134325D01*
X85070079Y-81147414D01*
X85065533Y-81160119D01*
X85059764Y-81172317D01*
X85052827Y-81183891D01*
X85044789Y-81194729D01*
X85035727Y-81204727D01*
X85025729Y-81213789D01*
X85014891Y-81221827D01*
X85003317Y-81228764D01*
X84991119Y-81234533D01*
X84978414Y-81239079D01*
X84965325Y-81242358D01*
X84951977Y-81244338D01*
X84938500Y-81245000D01*
X83213500Y-81245000D01*
X83200023Y-81244338D01*
X83186675Y-81242358D01*
X83173586Y-81239079D01*
X83160881Y-81234533D01*
X83148683Y-81228764D01*
X83137109Y-81221827D01*
X83126271Y-81213789D01*
X83116273Y-81204727D01*
X83107211Y-81194729D01*
X83099173Y-81183891D01*
X83092236Y-81172317D01*
X83086467Y-81160119D01*
X83081921Y-81147414D01*
X83078642Y-81134325D01*
X83076662Y-81120977D01*
X83076000Y-81107500D01*
X83076000Y-80832500D01*
X83076662Y-80819023D01*
X83078642Y-80805675D01*
X83081921Y-80792586D01*
X83086467Y-80779881D01*
X83092236Y-80767683D01*
X83099173Y-80756109D01*
X83107211Y-80745271D01*
X83116273Y-80735273D01*
X83126271Y-80726211D01*
X83137109Y-80718173D01*
X83148683Y-80711236D01*
X83160881Y-80705467D01*
X83173586Y-80700921D01*
X83186675Y-80697642D01*
X83200023Y-80695662D01*
X83213500Y-80695000D01*
X84938500Y-80695000D01*
X84951977Y-80695662D01*
G37*
G36*
X84951977Y-79425662D02*
G01*
X84965325Y-79427642D01*
X84978414Y-79430921D01*
X84991119Y-79435467D01*
X85003317Y-79441236D01*
X85014891Y-79448173D01*
X85025729Y-79456211D01*
X85035727Y-79465273D01*
X85044789Y-79475271D01*
X85052827Y-79486109D01*
X85059764Y-79497683D01*
X85065533Y-79509881D01*
X85070079Y-79522586D01*
X85073358Y-79535675D01*
X85075338Y-79549023D01*
X85076000Y-79562500D01*
X85076000Y-79837500D01*
X85075338Y-79850977D01*
X85073358Y-79864325D01*
X85070079Y-79877414D01*
X85065533Y-79890119D01*
X85059764Y-79902317D01*
X85052827Y-79913891D01*
X85044789Y-79924729D01*
X85035727Y-79934727D01*
X85025729Y-79943789D01*
X85014891Y-79951827D01*
X85003317Y-79958764D01*
X84991119Y-79964533D01*
X84978414Y-79969079D01*
X84965325Y-79972358D01*
X84951977Y-79974338D01*
X84938500Y-79975000D01*
X83213500Y-79975000D01*
X83200023Y-79974338D01*
X83186675Y-79972358D01*
X83173586Y-79969079D01*
X83160881Y-79964533D01*
X83148683Y-79958764D01*
X83137109Y-79951827D01*
X83126271Y-79943789D01*
X83116273Y-79934727D01*
X83107211Y-79924729D01*
X83099173Y-79913891D01*
X83092236Y-79902317D01*
X83086467Y-79890119D01*
X83081921Y-79877414D01*
X83078642Y-79864325D01*
X83076662Y-79850977D01*
X83076000Y-79837500D01*
X83076000Y-79562500D01*
X83076662Y-79549023D01*
X83078642Y-79535675D01*
X83081921Y-79522586D01*
X83086467Y-79509881D01*
X83092236Y-79497683D01*
X83099173Y-79486109D01*
X83107211Y-79475271D01*
X83116273Y-79465273D01*
X83126271Y-79456211D01*
X83137109Y-79448173D01*
X83148683Y-79441236D01*
X83160881Y-79435467D01*
X83173586Y-79430921D01*
X83186675Y-79427642D01*
X83200023Y-79425662D01*
X83213500Y-79425000D01*
X84938500Y-79425000D01*
X84951977Y-79425662D01*
G37*
G36*
X84951977Y-78155662D02*
G01*
X84965325Y-78157642D01*
X84978414Y-78160921D01*
X84991119Y-78165467D01*
X85003317Y-78171236D01*
X85014891Y-78178173D01*
X85025729Y-78186211D01*
X85035727Y-78195273D01*
X85044789Y-78205271D01*
X85052827Y-78216109D01*
X85059764Y-78227683D01*
X85065533Y-78239881D01*
X85070079Y-78252586D01*
X85073358Y-78265675D01*
X85075338Y-78279023D01*
X85076000Y-78292500D01*
X85076000Y-78567500D01*
X85075338Y-78580977D01*
X85073358Y-78594325D01*
X85070079Y-78607414D01*
X85065533Y-78620119D01*
X85059764Y-78632317D01*
X85052827Y-78643891D01*
X85044789Y-78654729D01*
X85035727Y-78664727D01*
X85025729Y-78673789D01*
X85014891Y-78681827D01*
X85003317Y-78688764D01*
X84991119Y-78694533D01*
X84978414Y-78699079D01*
X84965325Y-78702358D01*
X84951977Y-78704338D01*
X84938500Y-78705000D01*
X83213500Y-78705000D01*
X83200023Y-78704338D01*
X83186675Y-78702358D01*
X83173586Y-78699079D01*
X83160881Y-78694533D01*
X83148683Y-78688764D01*
X83137109Y-78681827D01*
X83126271Y-78673789D01*
X83116273Y-78664727D01*
X83107211Y-78654729D01*
X83099173Y-78643891D01*
X83092236Y-78632317D01*
X83086467Y-78620119D01*
X83081921Y-78607414D01*
X83078642Y-78594325D01*
X83076662Y-78580977D01*
X83076000Y-78567500D01*
X83076000Y-78292500D01*
X83076662Y-78279023D01*
X83078642Y-78265675D01*
X83081921Y-78252586D01*
X83086467Y-78239881D01*
X83092236Y-78227683D01*
X83099173Y-78216109D01*
X83107211Y-78205271D01*
X83116273Y-78195273D01*
X83126271Y-78186211D01*
X83137109Y-78178173D01*
X83148683Y-78171236D01*
X83160881Y-78165467D01*
X83173586Y-78160921D01*
X83186675Y-78157642D01*
X83200023Y-78155662D01*
X83213500Y-78155000D01*
X84938500Y-78155000D01*
X84951977Y-78155662D01*
G37*
D11*
X71875000Y-77480000D03*
D12*
X71875000Y-85100000D03*
D11*
X66300000Y-81305000D03*
D12*
X66300000Y-88925000D03*
X70825000Y-58300000D03*
D11*
X78445000Y-58300000D03*
X70900000Y-56370000D03*
D12*
X70900000Y-48750000D03*
D11*
X81445000Y-58900000D03*
D12*
X73825000Y-58900000D03*
D11*
X66950000Y-57795000D03*
D12*
X66950000Y-50175000D03*
D11*
X45955000Y-58225000D03*
D12*
X53575000Y-58225000D03*
D11*
X70830000Y-60175000D03*
D12*
X78450000Y-60175000D03*
D11*
X73480000Y-53850000D03*
D12*
X81100000Y-53850000D03*
D11*
X73480000Y-47750000D03*
D12*
X81100000Y-47750000D03*
D19*
X96000000Y-104920000D03*
D14*
X96000000Y-103650000D03*
D19*
X96250000Y-69195000D03*
D14*
X96250000Y-67925000D03*
D20*
X30635000Y-95325000D03*
D16*
X33175000Y-95325000D03*
D11*
X58030000Y-70750000D03*
D12*
X65650000Y-70750000D03*
D11*
X30850000Y-64680000D03*
D12*
X30850000Y-72300000D03*
D11*
X52600000Y-48630000D03*
D12*
X52600000Y-56250000D03*
D19*
X53925000Y-53925000D03*
D14*
X52655000Y-53925000D03*
D11*
X37130000Y-43150000D03*
D12*
X44750000Y-43150000D03*
D11*
X34930000Y-44500000D03*
D12*
X42550000Y-44500000D03*
D11*
X32580000Y-54050000D03*
D12*
X40200000Y-54050000D03*
D11*
X75090000Y-66200000D03*
D12*
X59850000Y-66200000D03*
D11*
X74759000Y-85149000D03*
D12*
X59519000Y-85149000D03*
D19*
X36025000Y-71530000D03*
X36025000Y-70260000D03*
X36025000Y-68990000D03*
X36025000Y-67720000D03*
D14*
X36025000Y-66450000D03*
D19*
X26036000Y-54691777D03*
X27306000Y-54691777D03*
X26036000Y-55961777D03*
X27306000Y-55961777D03*
X26036000Y-57231777D03*
X27306000Y-57231777D03*
X26036000Y-58501777D03*
X27306000Y-58501777D03*
X26036000Y-59771777D03*
X27306000Y-59771777D03*
X26036000Y-61041777D03*
X27306000Y-61041777D03*
X26036000Y-62311777D03*
D14*
X27306000Y-62311777D03*
D12*
X34570000Y-32200000D03*
X34570000Y-39700000D03*
X112250000Y-107300000D03*
D21*
X112250000Y-102300000D03*
D12*
X108375000Y-71375000D03*
D21*
X108375000Y-66375000D03*
D12*
X51175000Y-103400000D03*
D21*
X51175000Y-98400000D03*
D12*
X119300000Y-83550000D03*
X126800000Y-83550000D03*
X118800000Y-107100000D03*
X118800000Y-99600000D03*
X106000000Y-105000000D03*
X106000000Y-97500000D03*
X119250000Y-78250000D03*
X111750000Y-78250000D03*
X120275000Y-48225000D03*
X112775000Y-48225000D03*
X139750000Y-106750000D03*
X139750000Y-99250000D03*
X119925000Y-72425000D03*
X119925000Y-64925000D03*
X131200000Y-32900000D03*
X131200000Y-40400000D03*
X115200000Y-72550000D03*
X115200000Y-65050000D03*
X124250000Y-72425000D03*
X124250000Y-64925000D03*
X53600000Y-32125000D03*
X53600000Y-39625000D03*
X60380000Y-32150000D03*
X60380000Y-39650000D03*
X47225000Y-32200000D03*
X47225000Y-39700000D03*
X72275000Y-32350000D03*
X72275000Y-39850000D03*
X74775000Y-103400000D03*
X74775000Y-95900000D03*
X68525000Y-103400000D03*
X68525000Y-95900000D03*
X41050000Y-32175000D03*
X41050000Y-39675000D03*
X61975000Y-103400000D03*
X61975000Y-95900000D03*
D19*
X97700000Y-84855000D03*
D14*
X97700000Y-86125000D03*
X97700000Y-88575000D03*
X99600000Y-46575000D03*
D19*
X99325000Y-57680000D03*
D14*
X99325000Y-58950000D03*
X99500000Y-61575000D03*
D11*
X153050000Y-107990000D03*
D12*
X153050000Y-92750000D03*
D11*
X164350000Y-107990000D03*
D12*
X164350000Y-92750000D03*
D11*
X160550000Y-107990000D03*
D12*
X160550000Y-92750000D03*
D11*
X165790000Y-81000000D03*
D12*
X150550000Y-81000000D03*
D11*
X135850000Y-105940000D03*
D12*
X135850000Y-90700000D03*
D11*
X156800000Y-107990000D03*
D12*
X156800000Y-92750000D03*
D11*
X127500000Y-90860000D03*
D12*
X127500000Y-106100000D03*
D11*
X123800000Y-107240000D03*
D12*
X123800000Y-92000000D03*
D11*
X157566000Y-62880000D03*
D12*
X157566000Y-47640000D03*
D11*
X144450000Y-64800000D03*
D12*
X129210000Y-64800000D03*
D11*
X165088000Y-62880000D03*
D12*
X165088000Y-47640000D03*
D11*
X129310000Y-70650000D03*
D12*
X144550000Y-70650000D03*
D11*
X122900000Y-29360000D03*
D12*
X122900000Y-44600000D03*
D11*
X118000000Y-29310000D03*
D12*
X118000000Y-44550000D03*
D11*
X161122000Y-62880000D03*
D12*
X161122000Y-47640000D03*
D11*
X126775000Y-44640000D03*
D12*
X126775000Y-29400000D03*
D17*
X117830000Y-53525000D03*
X115290000Y-53525000D03*
X112750000Y-53525000D03*
D11*
X39640000Y-83350000D03*
D12*
X24400000Y-83350000D03*
D11*
X75140000Y-55450000D03*
D12*
X59900000Y-55450000D03*
D11*
X74759000Y-91134000D03*
D12*
X59519000Y-91134000D03*
D11*
X39465000Y-89950000D03*
D12*
X24225000Y-89950000D03*
D18*
G36*
X94351977Y-51106662D02*
G01*
X94365325Y-51108642D01*
X94378414Y-51111921D01*
X94391119Y-51116467D01*
X94403317Y-51122236D01*
X94414891Y-51129173D01*
X94425729Y-51137211D01*
X94435727Y-51146273D01*
X94444789Y-51156271D01*
X94452827Y-51167109D01*
X94459764Y-51178683D01*
X94465533Y-51190881D01*
X94470079Y-51203586D01*
X94473358Y-51216675D01*
X94475338Y-51230023D01*
X94476000Y-51243500D01*
X94476000Y-51518500D01*
X94475338Y-51531977D01*
X94473358Y-51545325D01*
X94470079Y-51558414D01*
X94465533Y-51571119D01*
X94459764Y-51583317D01*
X94452827Y-51594891D01*
X94444789Y-51605729D01*
X94435727Y-51615727D01*
X94425729Y-51624789D01*
X94414891Y-51632827D01*
X94403317Y-51639764D01*
X94391119Y-51645533D01*
X94378414Y-51650079D01*
X94365325Y-51653358D01*
X94351977Y-51655338D01*
X94338500Y-51656000D01*
X92613500Y-51656000D01*
X92600023Y-51655338D01*
X92586675Y-51653358D01*
X92573586Y-51650079D01*
X92560881Y-51645533D01*
X92548683Y-51639764D01*
X92537109Y-51632827D01*
X92526271Y-51624789D01*
X92516273Y-51615727D01*
X92507211Y-51605729D01*
X92499173Y-51594891D01*
X92492236Y-51583317D01*
X92486467Y-51571119D01*
X92481921Y-51558414D01*
X92478642Y-51545325D01*
X92476662Y-51531977D01*
X92476000Y-51518500D01*
X92476000Y-51243500D01*
X92476662Y-51230023D01*
X92478642Y-51216675D01*
X92481921Y-51203586D01*
X92486467Y-51190881D01*
X92492236Y-51178683D01*
X92499173Y-51167109D01*
X92507211Y-51156271D01*
X92516273Y-51146273D01*
X92526271Y-51137211D01*
X92537109Y-51129173D01*
X92548683Y-51122236D01*
X92560881Y-51116467D01*
X92573586Y-51111921D01*
X92586675Y-51108642D01*
X92600023Y-51106662D01*
X92613500Y-51106000D01*
X94338500Y-51106000D01*
X94351977Y-51106662D01*
G37*
G36*
X94351977Y-52376662D02*
G01*
X94365325Y-52378642D01*
X94378414Y-52381921D01*
X94391119Y-52386467D01*
X94403317Y-52392236D01*
X94414891Y-52399173D01*
X94425729Y-52407211D01*
X94435727Y-52416273D01*
X94444789Y-52426271D01*
X94452827Y-52437109D01*
X94459764Y-52448683D01*
X94465533Y-52460881D01*
X94470079Y-52473586D01*
X94473358Y-52486675D01*
X94475338Y-52500023D01*
X94476000Y-52513500D01*
X94476000Y-52788500D01*
X94475338Y-52801977D01*
X94473358Y-52815325D01*
X94470079Y-52828414D01*
X94465533Y-52841119D01*
X94459764Y-52853317D01*
X94452827Y-52864891D01*
X94444789Y-52875729D01*
X94435727Y-52885727D01*
X94425729Y-52894789D01*
X94414891Y-52902827D01*
X94403317Y-52909764D01*
X94391119Y-52915533D01*
X94378414Y-52920079D01*
X94365325Y-52923358D01*
X94351977Y-52925338D01*
X94338500Y-52926000D01*
X92613500Y-52926000D01*
X92600023Y-52925338D01*
X92586675Y-52923358D01*
X92573586Y-52920079D01*
X92560881Y-52915533D01*
X92548683Y-52909764D01*
X92537109Y-52902827D01*
X92526271Y-52894789D01*
X92516273Y-52885727D01*
X92507211Y-52875729D01*
X92499173Y-52864891D01*
X92492236Y-52853317D01*
X92486467Y-52841119D01*
X92481921Y-52828414D01*
X92478642Y-52815325D01*
X92476662Y-52801977D01*
X92476000Y-52788500D01*
X92476000Y-52513500D01*
X92476662Y-52500023D01*
X92478642Y-52486675D01*
X92481921Y-52473586D01*
X92486467Y-52460881D01*
X92492236Y-52448683D01*
X92499173Y-52437109D01*
X92507211Y-52426271D01*
X92516273Y-52416273D01*
X92526271Y-52407211D01*
X92537109Y-52399173D01*
X92548683Y-52392236D01*
X92560881Y-52386467D01*
X92573586Y-52381921D01*
X92586675Y-52378642D01*
X92600023Y-52376662D01*
X92613500Y-52376000D01*
X94338500Y-52376000D01*
X94351977Y-52376662D01*
G37*
G36*
X94351977Y-53646662D02*
G01*
X94365325Y-53648642D01*
X94378414Y-53651921D01*
X94391119Y-53656467D01*
X94403317Y-53662236D01*
X94414891Y-53669173D01*
X94425729Y-53677211D01*
X94435727Y-53686273D01*
X94444789Y-53696271D01*
X94452827Y-53707109D01*
X94459764Y-53718683D01*
X94465533Y-53730881D01*
X94470079Y-53743586D01*
X94473358Y-53756675D01*
X94475338Y-53770023D01*
X94476000Y-53783500D01*
X94476000Y-54058500D01*
X94475338Y-54071977D01*
X94473358Y-54085325D01*
X94470079Y-54098414D01*
X94465533Y-54111119D01*
X94459764Y-54123317D01*
X94452827Y-54134891D01*
X94444789Y-54145729D01*
X94435727Y-54155727D01*
X94425729Y-54164789D01*
X94414891Y-54172827D01*
X94403317Y-54179764D01*
X94391119Y-54185533D01*
X94378414Y-54190079D01*
X94365325Y-54193358D01*
X94351977Y-54195338D01*
X94338500Y-54196000D01*
X92613500Y-54196000D01*
X92600023Y-54195338D01*
X92586675Y-54193358D01*
X92573586Y-54190079D01*
X92560881Y-54185533D01*
X92548683Y-54179764D01*
X92537109Y-54172827D01*
X92526271Y-54164789D01*
X92516273Y-54155727D01*
X92507211Y-54145729D01*
X92499173Y-54134891D01*
X92492236Y-54123317D01*
X92486467Y-54111119D01*
X92481921Y-54098414D01*
X92478642Y-54085325D01*
X92476662Y-54071977D01*
X92476000Y-54058500D01*
X92476000Y-53783500D01*
X92476662Y-53770023D01*
X92478642Y-53756675D01*
X92481921Y-53743586D01*
X92486467Y-53730881D01*
X92492236Y-53718683D01*
X92499173Y-53707109D01*
X92507211Y-53696271D01*
X92516273Y-53686273D01*
X92526271Y-53677211D01*
X92537109Y-53669173D01*
X92548683Y-53662236D01*
X92560881Y-53656467D01*
X92573586Y-53651921D01*
X92586675Y-53648642D01*
X92600023Y-53646662D01*
X92613500Y-53646000D01*
X94338500Y-53646000D01*
X94351977Y-53646662D01*
G37*
G36*
X94351977Y-54916662D02*
G01*
X94365325Y-54918642D01*
X94378414Y-54921921D01*
X94391119Y-54926467D01*
X94403317Y-54932236D01*
X94414891Y-54939173D01*
X94425729Y-54947211D01*
X94435727Y-54956273D01*
X94444789Y-54966271D01*
X94452827Y-54977109D01*
X94459764Y-54988683D01*
X94465533Y-55000881D01*
X94470079Y-55013586D01*
X94473358Y-55026675D01*
X94475338Y-55040023D01*
X94476000Y-55053500D01*
X94476000Y-55328500D01*
X94475338Y-55341977D01*
X94473358Y-55355325D01*
X94470079Y-55368414D01*
X94465533Y-55381119D01*
X94459764Y-55393317D01*
X94452827Y-55404891D01*
X94444789Y-55415729D01*
X94435727Y-55425727D01*
X94425729Y-55434789D01*
X94414891Y-55442827D01*
X94403317Y-55449764D01*
X94391119Y-55455533D01*
X94378414Y-55460079D01*
X94365325Y-55463358D01*
X94351977Y-55465338D01*
X94338500Y-55466000D01*
X92613500Y-55466000D01*
X92600023Y-55465338D01*
X92586675Y-55463358D01*
X92573586Y-55460079D01*
X92560881Y-55455533D01*
X92548683Y-55449764D01*
X92537109Y-55442827D01*
X92526271Y-55434789D01*
X92516273Y-55425727D01*
X92507211Y-55415729D01*
X92499173Y-55404891D01*
X92492236Y-55393317D01*
X92486467Y-55381119D01*
X92481921Y-55368414D01*
X92478642Y-55355325D01*
X92476662Y-55341977D01*
X92476000Y-55328500D01*
X92476000Y-55053500D01*
X92476662Y-55040023D01*
X92478642Y-55026675D01*
X92481921Y-55013586D01*
X92486467Y-55000881D01*
X92492236Y-54988683D01*
X92499173Y-54977109D01*
X92507211Y-54966271D01*
X92516273Y-54956273D01*
X92526271Y-54947211D01*
X92537109Y-54939173D01*
X92548683Y-54932236D01*
X92560881Y-54926467D01*
X92573586Y-54921921D01*
X92586675Y-54918642D01*
X92600023Y-54916662D01*
X92613500Y-54916000D01*
X94338500Y-54916000D01*
X94351977Y-54916662D01*
G37*
G36*
X94351977Y-56186662D02*
G01*
X94365325Y-56188642D01*
X94378414Y-56191921D01*
X94391119Y-56196467D01*
X94403317Y-56202236D01*
X94414891Y-56209173D01*
X94425729Y-56217211D01*
X94435727Y-56226273D01*
X94444789Y-56236271D01*
X94452827Y-56247109D01*
X94459764Y-56258683D01*
X94465533Y-56270881D01*
X94470079Y-56283586D01*
X94473358Y-56296675D01*
X94475338Y-56310023D01*
X94476000Y-56323500D01*
X94476000Y-56598500D01*
X94475338Y-56611977D01*
X94473358Y-56625325D01*
X94470079Y-56638414D01*
X94465533Y-56651119D01*
X94459764Y-56663317D01*
X94452827Y-56674891D01*
X94444789Y-56685729D01*
X94435727Y-56695727D01*
X94425729Y-56704789D01*
X94414891Y-56712827D01*
X94403317Y-56719764D01*
X94391119Y-56725533D01*
X94378414Y-56730079D01*
X94365325Y-56733358D01*
X94351977Y-56735338D01*
X94338500Y-56736000D01*
X92613500Y-56736000D01*
X92600023Y-56735338D01*
X92586675Y-56733358D01*
X92573586Y-56730079D01*
X92560881Y-56725533D01*
X92548683Y-56719764D01*
X92537109Y-56712827D01*
X92526271Y-56704789D01*
X92516273Y-56695727D01*
X92507211Y-56685729D01*
X92499173Y-56674891D01*
X92492236Y-56663317D01*
X92486467Y-56651119D01*
X92481921Y-56638414D01*
X92478642Y-56625325D01*
X92476662Y-56611977D01*
X92476000Y-56598500D01*
X92476000Y-56323500D01*
X92476662Y-56310023D01*
X92478642Y-56296675D01*
X92481921Y-56283586D01*
X92486467Y-56270881D01*
X92492236Y-56258683D01*
X92499173Y-56247109D01*
X92507211Y-56236271D01*
X92516273Y-56226273D01*
X92526271Y-56217211D01*
X92537109Y-56209173D01*
X92548683Y-56202236D01*
X92560881Y-56196467D01*
X92573586Y-56191921D01*
X92586675Y-56188642D01*
X92600023Y-56186662D01*
X92613500Y-56186000D01*
X94338500Y-56186000D01*
X94351977Y-56186662D01*
G37*
G36*
X94351977Y-57456662D02*
G01*
X94365325Y-57458642D01*
X94378414Y-57461921D01*
X94391119Y-57466467D01*
X94403317Y-57472236D01*
X94414891Y-57479173D01*
X94425729Y-57487211D01*
X94435727Y-57496273D01*
X94444789Y-57506271D01*
X94452827Y-57517109D01*
X94459764Y-57528683D01*
X94465533Y-57540881D01*
X94470079Y-57553586D01*
X94473358Y-57566675D01*
X94475338Y-57580023D01*
X94476000Y-57593500D01*
X94476000Y-57868500D01*
X94475338Y-57881977D01*
X94473358Y-57895325D01*
X94470079Y-57908414D01*
X94465533Y-57921119D01*
X94459764Y-57933317D01*
X94452827Y-57944891D01*
X94444789Y-57955729D01*
X94435727Y-57965727D01*
X94425729Y-57974789D01*
X94414891Y-57982827D01*
X94403317Y-57989764D01*
X94391119Y-57995533D01*
X94378414Y-58000079D01*
X94365325Y-58003358D01*
X94351977Y-58005338D01*
X94338500Y-58006000D01*
X92613500Y-58006000D01*
X92600023Y-58005338D01*
X92586675Y-58003358D01*
X92573586Y-58000079D01*
X92560881Y-57995533D01*
X92548683Y-57989764D01*
X92537109Y-57982827D01*
X92526271Y-57974789D01*
X92516273Y-57965727D01*
X92507211Y-57955729D01*
X92499173Y-57944891D01*
X92492236Y-57933317D01*
X92486467Y-57921119D01*
X92481921Y-57908414D01*
X92478642Y-57895325D01*
X92476662Y-57881977D01*
X92476000Y-57868500D01*
X92476000Y-57593500D01*
X92476662Y-57580023D01*
X92478642Y-57566675D01*
X92481921Y-57553586D01*
X92486467Y-57540881D01*
X92492236Y-57528683D01*
X92499173Y-57517109D01*
X92507211Y-57506271D01*
X92516273Y-57496273D01*
X92526271Y-57487211D01*
X92537109Y-57479173D01*
X92548683Y-57472236D01*
X92560881Y-57466467D01*
X92573586Y-57461921D01*
X92586675Y-57458642D01*
X92600023Y-57456662D01*
X92613500Y-57456000D01*
X94338500Y-57456000D01*
X94351977Y-57456662D01*
G37*
G36*
X94351977Y-58726662D02*
G01*
X94365325Y-58728642D01*
X94378414Y-58731921D01*
X94391119Y-58736467D01*
X94403317Y-58742236D01*
X94414891Y-58749173D01*
X94425729Y-58757211D01*
X94435727Y-58766273D01*
X94444789Y-58776271D01*
X94452827Y-58787109D01*
X94459764Y-58798683D01*
X94465533Y-58810881D01*
X94470079Y-58823586D01*
X94473358Y-58836675D01*
X94475338Y-58850023D01*
X94476000Y-58863500D01*
X94476000Y-59138500D01*
X94475338Y-59151977D01*
X94473358Y-59165325D01*
X94470079Y-59178414D01*
X94465533Y-59191119D01*
X94459764Y-59203317D01*
X94452827Y-59214891D01*
X94444789Y-59225729D01*
X94435727Y-59235727D01*
X94425729Y-59244789D01*
X94414891Y-59252827D01*
X94403317Y-59259764D01*
X94391119Y-59265533D01*
X94378414Y-59270079D01*
X94365325Y-59273358D01*
X94351977Y-59275338D01*
X94338500Y-59276000D01*
X92613500Y-59276000D01*
X92600023Y-59275338D01*
X92586675Y-59273358D01*
X92573586Y-59270079D01*
X92560881Y-59265533D01*
X92548683Y-59259764D01*
X92537109Y-59252827D01*
X92526271Y-59244789D01*
X92516273Y-59235727D01*
X92507211Y-59225729D01*
X92499173Y-59214891D01*
X92492236Y-59203317D01*
X92486467Y-59191119D01*
X92481921Y-59178414D01*
X92478642Y-59165325D01*
X92476662Y-59151977D01*
X92476000Y-59138500D01*
X92476000Y-58863500D01*
X92476662Y-58850023D01*
X92478642Y-58836675D01*
X92481921Y-58823586D01*
X92486467Y-58810881D01*
X92492236Y-58798683D01*
X92499173Y-58787109D01*
X92507211Y-58776271D01*
X92516273Y-58766273D01*
X92526271Y-58757211D01*
X92537109Y-58749173D01*
X92548683Y-58742236D01*
X92560881Y-58736467D01*
X92573586Y-58731921D01*
X92586675Y-58728642D01*
X92600023Y-58726662D01*
X92613500Y-58726000D01*
X94338500Y-58726000D01*
X94351977Y-58726662D01*
G37*
G36*
X94351977Y-59996662D02*
G01*
X94365325Y-59998642D01*
X94378414Y-60001921D01*
X94391119Y-60006467D01*
X94403317Y-60012236D01*
X94414891Y-60019173D01*
X94425729Y-60027211D01*
X94435727Y-60036273D01*
X94444789Y-60046271D01*
X94452827Y-60057109D01*
X94459764Y-60068683D01*
X94465533Y-60080881D01*
X94470079Y-60093586D01*
X94473358Y-60106675D01*
X94475338Y-60120023D01*
X94476000Y-60133500D01*
X94476000Y-60408500D01*
X94475338Y-60421977D01*
X94473358Y-60435325D01*
X94470079Y-60448414D01*
X94465533Y-60461119D01*
X94459764Y-60473317D01*
X94452827Y-60484891D01*
X94444789Y-60495729D01*
X94435727Y-60505727D01*
X94425729Y-60514789D01*
X94414891Y-60522827D01*
X94403317Y-60529764D01*
X94391119Y-60535533D01*
X94378414Y-60540079D01*
X94365325Y-60543358D01*
X94351977Y-60545338D01*
X94338500Y-60546000D01*
X92613500Y-60546000D01*
X92600023Y-60545338D01*
X92586675Y-60543358D01*
X92573586Y-60540079D01*
X92560881Y-60535533D01*
X92548683Y-60529764D01*
X92537109Y-60522827D01*
X92526271Y-60514789D01*
X92516273Y-60505727D01*
X92507211Y-60495729D01*
X92499173Y-60484891D01*
X92492236Y-60473317D01*
X92486467Y-60461119D01*
X92481921Y-60448414D01*
X92478642Y-60435325D01*
X92476662Y-60421977D01*
X92476000Y-60408500D01*
X92476000Y-60133500D01*
X92476662Y-60120023D01*
X92478642Y-60106675D01*
X92481921Y-60093586D01*
X92486467Y-60080881D01*
X92492236Y-60068683D01*
X92499173Y-60057109D01*
X92507211Y-60046271D01*
X92516273Y-60036273D01*
X92526271Y-60027211D01*
X92537109Y-60019173D01*
X92548683Y-60012236D01*
X92560881Y-60006467D01*
X92573586Y-60001921D01*
X92586675Y-59998642D01*
X92600023Y-59996662D01*
X92613500Y-59996000D01*
X94338500Y-59996000D01*
X94351977Y-59996662D01*
G37*
G36*
X94351977Y-61266662D02*
G01*
X94365325Y-61268642D01*
X94378414Y-61271921D01*
X94391119Y-61276467D01*
X94403317Y-61282236D01*
X94414891Y-61289173D01*
X94425729Y-61297211D01*
X94435727Y-61306273D01*
X94444789Y-61316271D01*
X94452827Y-61327109D01*
X94459764Y-61338683D01*
X94465533Y-61350881D01*
X94470079Y-61363586D01*
X94473358Y-61376675D01*
X94475338Y-61390023D01*
X94476000Y-61403500D01*
X94476000Y-61678500D01*
X94475338Y-61691977D01*
X94473358Y-61705325D01*
X94470079Y-61718414D01*
X94465533Y-61731119D01*
X94459764Y-61743317D01*
X94452827Y-61754891D01*
X94444789Y-61765729D01*
X94435727Y-61775727D01*
X94425729Y-61784789D01*
X94414891Y-61792827D01*
X94403317Y-61799764D01*
X94391119Y-61805533D01*
X94378414Y-61810079D01*
X94365325Y-61813358D01*
X94351977Y-61815338D01*
X94338500Y-61816000D01*
X92613500Y-61816000D01*
X92600023Y-61815338D01*
X92586675Y-61813358D01*
X92573586Y-61810079D01*
X92560881Y-61805533D01*
X92548683Y-61799764D01*
X92537109Y-61792827D01*
X92526271Y-61784789D01*
X92516273Y-61775727D01*
X92507211Y-61765729D01*
X92499173Y-61754891D01*
X92492236Y-61743317D01*
X92486467Y-61731119D01*
X92481921Y-61718414D01*
X92478642Y-61705325D01*
X92476662Y-61691977D01*
X92476000Y-61678500D01*
X92476000Y-61403500D01*
X92476662Y-61390023D01*
X92478642Y-61376675D01*
X92481921Y-61363586D01*
X92486467Y-61350881D01*
X92492236Y-61338683D01*
X92499173Y-61327109D01*
X92507211Y-61316271D01*
X92516273Y-61306273D01*
X92526271Y-61297211D01*
X92537109Y-61289173D01*
X92548683Y-61282236D01*
X92560881Y-61276467D01*
X92573586Y-61271921D01*
X92586675Y-61268642D01*
X92600023Y-61266662D01*
X92613500Y-61266000D01*
X94338500Y-61266000D01*
X94351977Y-61266662D01*
G37*
G36*
X94351977Y-62536662D02*
G01*
X94365325Y-62538642D01*
X94378414Y-62541921D01*
X94391119Y-62546467D01*
X94403317Y-62552236D01*
X94414891Y-62559173D01*
X94425729Y-62567211D01*
X94435727Y-62576273D01*
X94444789Y-62586271D01*
X94452827Y-62597109D01*
X94459764Y-62608683D01*
X94465533Y-62620881D01*
X94470079Y-62633586D01*
X94473358Y-62646675D01*
X94475338Y-62660023D01*
X94476000Y-62673500D01*
X94476000Y-62948500D01*
X94475338Y-62961977D01*
X94473358Y-62975325D01*
X94470079Y-62988414D01*
X94465533Y-63001119D01*
X94459764Y-63013317D01*
X94452827Y-63024891D01*
X94444789Y-63035729D01*
X94435727Y-63045727D01*
X94425729Y-63054789D01*
X94414891Y-63062827D01*
X94403317Y-63069764D01*
X94391119Y-63075533D01*
X94378414Y-63080079D01*
X94365325Y-63083358D01*
X94351977Y-63085338D01*
X94338500Y-63086000D01*
X92613500Y-63086000D01*
X92600023Y-63085338D01*
X92586675Y-63083358D01*
X92573586Y-63080079D01*
X92560881Y-63075533D01*
X92548683Y-63069764D01*
X92537109Y-63062827D01*
X92526271Y-63054789D01*
X92516273Y-63045727D01*
X92507211Y-63035729D01*
X92499173Y-63024891D01*
X92492236Y-63013317D01*
X92486467Y-63001119D01*
X92481921Y-62988414D01*
X92478642Y-62975325D01*
X92476662Y-62961977D01*
X92476000Y-62948500D01*
X92476000Y-62673500D01*
X92476662Y-62660023D01*
X92478642Y-62646675D01*
X92481921Y-62633586D01*
X92486467Y-62620881D01*
X92492236Y-62608683D01*
X92499173Y-62597109D01*
X92507211Y-62586271D01*
X92516273Y-62576273D01*
X92526271Y-62567211D01*
X92537109Y-62559173D01*
X92548683Y-62552236D01*
X92560881Y-62546467D01*
X92573586Y-62541921D01*
X92586675Y-62538642D01*
X92600023Y-62536662D01*
X92613500Y-62536000D01*
X94338500Y-62536000D01*
X94351977Y-62536662D01*
G37*
G36*
X94351977Y-63806662D02*
G01*
X94365325Y-63808642D01*
X94378414Y-63811921D01*
X94391119Y-63816467D01*
X94403317Y-63822236D01*
X94414891Y-63829173D01*
X94425729Y-63837211D01*
X94435727Y-63846273D01*
X94444789Y-63856271D01*
X94452827Y-63867109D01*
X94459764Y-63878683D01*
X94465533Y-63890881D01*
X94470079Y-63903586D01*
X94473358Y-63916675D01*
X94475338Y-63930023D01*
X94476000Y-63943500D01*
X94476000Y-64218500D01*
X94475338Y-64231977D01*
X94473358Y-64245325D01*
X94470079Y-64258414D01*
X94465533Y-64271119D01*
X94459764Y-64283317D01*
X94452827Y-64294891D01*
X94444789Y-64305729D01*
X94435727Y-64315727D01*
X94425729Y-64324789D01*
X94414891Y-64332827D01*
X94403317Y-64339764D01*
X94391119Y-64345533D01*
X94378414Y-64350079D01*
X94365325Y-64353358D01*
X94351977Y-64355338D01*
X94338500Y-64356000D01*
X92613500Y-64356000D01*
X92600023Y-64355338D01*
X92586675Y-64353358D01*
X92573586Y-64350079D01*
X92560881Y-64345533D01*
X92548683Y-64339764D01*
X92537109Y-64332827D01*
X92526271Y-64324789D01*
X92516273Y-64315727D01*
X92507211Y-64305729D01*
X92499173Y-64294891D01*
X92492236Y-64283317D01*
X92486467Y-64271119D01*
X92481921Y-64258414D01*
X92478642Y-64245325D01*
X92476662Y-64231977D01*
X92476000Y-64218500D01*
X92476000Y-63943500D01*
X92476662Y-63930023D01*
X92478642Y-63916675D01*
X92481921Y-63903586D01*
X92486467Y-63890881D01*
X92492236Y-63878683D01*
X92499173Y-63867109D01*
X92507211Y-63856271D01*
X92516273Y-63846273D01*
X92526271Y-63837211D01*
X92537109Y-63829173D01*
X92548683Y-63822236D01*
X92560881Y-63816467D01*
X92573586Y-63811921D01*
X92586675Y-63808642D01*
X92600023Y-63806662D01*
X92613500Y-63806000D01*
X94338500Y-63806000D01*
X94351977Y-63806662D01*
G37*
G36*
X94351977Y-65076662D02*
G01*
X94365325Y-65078642D01*
X94378414Y-65081921D01*
X94391119Y-65086467D01*
X94403317Y-65092236D01*
X94414891Y-65099173D01*
X94425729Y-65107211D01*
X94435727Y-65116273D01*
X94444789Y-65126271D01*
X94452827Y-65137109D01*
X94459764Y-65148683D01*
X94465533Y-65160881D01*
X94470079Y-65173586D01*
X94473358Y-65186675D01*
X94475338Y-65200023D01*
X94476000Y-65213500D01*
X94476000Y-65488500D01*
X94475338Y-65501977D01*
X94473358Y-65515325D01*
X94470079Y-65528414D01*
X94465533Y-65541119D01*
X94459764Y-65553317D01*
X94452827Y-65564891D01*
X94444789Y-65575729D01*
X94435727Y-65585727D01*
X94425729Y-65594789D01*
X94414891Y-65602827D01*
X94403317Y-65609764D01*
X94391119Y-65615533D01*
X94378414Y-65620079D01*
X94365325Y-65623358D01*
X94351977Y-65625338D01*
X94338500Y-65626000D01*
X92613500Y-65626000D01*
X92600023Y-65625338D01*
X92586675Y-65623358D01*
X92573586Y-65620079D01*
X92560881Y-65615533D01*
X92548683Y-65609764D01*
X92537109Y-65602827D01*
X92526271Y-65594789D01*
X92516273Y-65585727D01*
X92507211Y-65575729D01*
X92499173Y-65564891D01*
X92492236Y-65553317D01*
X92486467Y-65541119D01*
X92481921Y-65528414D01*
X92478642Y-65515325D01*
X92476662Y-65501977D01*
X92476000Y-65488500D01*
X92476000Y-65213500D01*
X92476662Y-65200023D01*
X92478642Y-65186675D01*
X92481921Y-65173586D01*
X92486467Y-65160881D01*
X92492236Y-65148683D01*
X92499173Y-65137109D01*
X92507211Y-65126271D01*
X92516273Y-65116273D01*
X92526271Y-65107211D01*
X92537109Y-65099173D01*
X92548683Y-65092236D01*
X92560881Y-65086467D01*
X92573586Y-65081921D01*
X92586675Y-65078642D01*
X92600023Y-65076662D01*
X92613500Y-65076000D01*
X94338500Y-65076000D01*
X94351977Y-65076662D01*
G37*
G36*
X85051977Y-65076662D02*
G01*
X85065325Y-65078642D01*
X85078414Y-65081921D01*
X85091119Y-65086467D01*
X85103317Y-65092236D01*
X85114891Y-65099173D01*
X85125729Y-65107211D01*
X85135727Y-65116273D01*
X85144789Y-65126271D01*
X85152827Y-65137109D01*
X85159764Y-65148683D01*
X85165533Y-65160881D01*
X85170079Y-65173586D01*
X85173358Y-65186675D01*
X85175338Y-65200023D01*
X85176000Y-65213500D01*
X85176000Y-65488500D01*
X85175338Y-65501977D01*
X85173358Y-65515325D01*
X85170079Y-65528414D01*
X85165533Y-65541119D01*
X85159764Y-65553317D01*
X85152827Y-65564891D01*
X85144789Y-65575729D01*
X85135727Y-65585727D01*
X85125729Y-65594789D01*
X85114891Y-65602827D01*
X85103317Y-65609764D01*
X85091119Y-65615533D01*
X85078414Y-65620079D01*
X85065325Y-65623358D01*
X85051977Y-65625338D01*
X85038500Y-65626000D01*
X83313500Y-65626000D01*
X83300023Y-65625338D01*
X83286675Y-65623358D01*
X83273586Y-65620079D01*
X83260881Y-65615533D01*
X83248683Y-65609764D01*
X83237109Y-65602827D01*
X83226271Y-65594789D01*
X83216273Y-65585727D01*
X83207211Y-65575729D01*
X83199173Y-65564891D01*
X83192236Y-65553317D01*
X83186467Y-65541119D01*
X83181921Y-65528414D01*
X83178642Y-65515325D01*
X83176662Y-65501977D01*
X83176000Y-65488500D01*
X83176000Y-65213500D01*
X83176662Y-65200023D01*
X83178642Y-65186675D01*
X83181921Y-65173586D01*
X83186467Y-65160881D01*
X83192236Y-65148683D01*
X83199173Y-65137109D01*
X83207211Y-65126271D01*
X83216273Y-65116273D01*
X83226271Y-65107211D01*
X83237109Y-65099173D01*
X83248683Y-65092236D01*
X83260881Y-65086467D01*
X83273586Y-65081921D01*
X83286675Y-65078642D01*
X83300023Y-65076662D01*
X83313500Y-65076000D01*
X85038500Y-65076000D01*
X85051977Y-65076662D01*
G37*
G36*
X85051977Y-63806662D02*
G01*
X85065325Y-63808642D01*
X85078414Y-63811921D01*
X85091119Y-63816467D01*
X85103317Y-63822236D01*
X85114891Y-63829173D01*
X85125729Y-63837211D01*
X85135727Y-63846273D01*
X85144789Y-63856271D01*
X85152827Y-63867109D01*
X85159764Y-63878683D01*
X85165533Y-63890881D01*
X85170079Y-63903586D01*
X85173358Y-63916675D01*
X85175338Y-63930023D01*
X85176000Y-63943500D01*
X85176000Y-64218500D01*
X85175338Y-64231977D01*
X85173358Y-64245325D01*
X85170079Y-64258414D01*
X85165533Y-64271119D01*
X85159764Y-64283317D01*
X85152827Y-64294891D01*
X85144789Y-64305729D01*
X85135727Y-64315727D01*
X85125729Y-64324789D01*
X85114891Y-64332827D01*
X85103317Y-64339764D01*
X85091119Y-64345533D01*
X85078414Y-64350079D01*
X85065325Y-64353358D01*
X85051977Y-64355338D01*
X85038500Y-64356000D01*
X83313500Y-64356000D01*
X83300023Y-64355338D01*
X83286675Y-64353358D01*
X83273586Y-64350079D01*
X83260881Y-64345533D01*
X83248683Y-64339764D01*
X83237109Y-64332827D01*
X83226271Y-64324789D01*
X83216273Y-64315727D01*
X83207211Y-64305729D01*
X83199173Y-64294891D01*
X83192236Y-64283317D01*
X83186467Y-64271119D01*
X83181921Y-64258414D01*
X83178642Y-64245325D01*
X83176662Y-64231977D01*
X83176000Y-64218500D01*
X83176000Y-63943500D01*
X83176662Y-63930023D01*
X83178642Y-63916675D01*
X83181921Y-63903586D01*
X83186467Y-63890881D01*
X83192236Y-63878683D01*
X83199173Y-63867109D01*
X83207211Y-63856271D01*
X83216273Y-63846273D01*
X83226271Y-63837211D01*
X83237109Y-63829173D01*
X83248683Y-63822236D01*
X83260881Y-63816467D01*
X83273586Y-63811921D01*
X83286675Y-63808642D01*
X83300023Y-63806662D01*
X83313500Y-63806000D01*
X85038500Y-63806000D01*
X85051977Y-63806662D01*
G37*
G36*
X85051977Y-62536662D02*
G01*
X85065325Y-62538642D01*
X85078414Y-62541921D01*
X85091119Y-62546467D01*
X85103317Y-62552236D01*
X85114891Y-62559173D01*
X85125729Y-62567211D01*
X85135727Y-62576273D01*
X85144789Y-62586271D01*
X85152827Y-62597109D01*
X85159764Y-62608683D01*
X85165533Y-62620881D01*
X85170079Y-62633586D01*
X85173358Y-62646675D01*
X85175338Y-62660023D01*
X85176000Y-62673500D01*
X85176000Y-62948500D01*
X85175338Y-62961977D01*
X85173358Y-62975325D01*
X85170079Y-62988414D01*
X85165533Y-63001119D01*
X85159764Y-63013317D01*
X85152827Y-63024891D01*
X85144789Y-63035729D01*
X85135727Y-63045727D01*
X85125729Y-63054789D01*
X85114891Y-63062827D01*
X85103317Y-63069764D01*
X85091119Y-63075533D01*
X85078414Y-63080079D01*
X85065325Y-63083358D01*
X85051977Y-63085338D01*
X85038500Y-63086000D01*
X83313500Y-63086000D01*
X83300023Y-63085338D01*
X83286675Y-63083358D01*
X83273586Y-63080079D01*
X83260881Y-63075533D01*
X83248683Y-63069764D01*
X83237109Y-63062827D01*
X83226271Y-63054789D01*
X83216273Y-63045727D01*
X83207211Y-63035729D01*
X83199173Y-63024891D01*
X83192236Y-63013317D01*
X83186467Y-63001119D01*
X83181921Y-62988414D01*
X83178642Y-62975325D01*
X83176662Y-62961977D01*
X83176000Y-62948500D01*
X83176000Y-62673500D01*
X83176662Y-62660023D01*
X83178642Y-62646675D01*
X83181921Y-62633586D01*
X83186467Y-62620881D01*
X83192236Y-62608683D01*
X83199173Y-62597109D01*
X83207211Y-62586271D01*
X83216273Y-62576273D01*
X83226271Y-62567211D01*
X83237109Y-62559173D01*
X83248683Y-62552236D01*
X83260881Y-62546467D01*
X83273586Y-62541921D01*
X83286675Y-62538642D01*
X83300023Y-62536662D01*
X83313500Y-62536000D01*
X85038500Y-62536000D01*
X85051977Y-62536662D01*
G37*
G36*
X85051977Y-61266662D02*
G01*
X85065325Y-61268642D01*
X85078414Y-61271921D01*
X85091119Y-61276467D01*
X85103317Y-61282236D01*
X85114891Y-61289173D01*
X85125729Y-61297211D01*
X85135727Y-61306273D01*
X85144789Y-61316271D01*
X85152827Y-61327109D01*
X85159764Y-61338683D01*
X85165533Y-61350881D01*
X85170079Y-61363586D01*
X85173358Y-61376675D01*
X85175338Y-61390023D01*
X85176000Y-61403500D01*
X85176000Y-61678500D01*
X85175338Y-61691977D01*
X85173358Y-61705325D01*
X85170079Y-61718414D01*
X85165533Y-61731119D01*
X85159764Y-61743317D01*
X85152827Y-61754891D01*
X85144789Y-61765729D01*
X85135727Y-61775727D01*
X85125729Y-61784789D01*
X85114891Y-61792827D01*
X85103317Y-61799764D01*
X85091119Y-61805533D01*
X85078414Y-61810079D01*
X85065325Y-61813358D01*
X85051977Y-61815338D01*
X85038500Y-61816000D01*
X83313500Y-61816000D01*
X83300023Y-61815338D01*
X83286675Y-61813358D01*
X83273586Y-61810079D01*
X83260881Y-61805533D01*
X83248683Y-61799764D01*
X83237109Y-61792827D01*
X83226271Y-61784789D01*
X83216273Y-61775727D01*
X83207211Y-61765729D01*
X83199173Y-61754891D01*
X83192236Y-61743317D01*
X83186467Y-61731119D01*
X83181921Y-61718414D01*
X83178642Y-61705325D01*
X83176662Y-61691977D01*
X83176000Y-61678500D01*
X83176000Y-61403500D01*
X83176662Y-61390023D01*
X83178642Y-61376675D01*
X83181921Y-61363586D01*
X83186467Y-61350881D01*
X83192236Y-61338683D01*
X83199173Y-61327109D01*
X83207211Y-61316271D01*
X83216273Y-61306273D01*
X83226271Y-61297211D01*
X83237109Y-61289173D01*
X83248683Y-61282236D01*
X83260881Y-61276467D01*
X83273586Y-61271921D01*
X83286675Y-61268642D01*
X83300023Y-61266662D01*
X83313500Y-61266000D01*
X85038500Y-61266000D01*
X85051977Y-61266662D01*
G37*
G36*
X85051977Y-59996662D02*
G01*
X85065325Y-59998642D01*
X85078414Y-60001921D01*
X85091119Y-60006467D01*
X85103317Y-60012236D01*
X85114891Y-60019173D01*
X85125729Y-60027211D01*
X85135727Y-60036273D01*
X85144789Y-60046271D01*
X85152827Y-60057109D01*
X85159764Y-60068683D01*
X85165533Y-60080881D01*
X85170079Y-60093586D01*
X85173358Y-60106675D01*
X85175338Y-60120023D01*
X85176000Y-60133500D01*
X85176000Y-60408500D01*
X85175338Y-60421977D01*
X85173358Y-60435325D01*
X85170079Y-60448414D01*
X85165533Y-60461119D01*
X85159764Y-60473317D01*
X85152827Y-60484891D01*
X85144789Y-60495729D01*
X85135727Y-60505727D01*
X85125729Y-60514789D01*
X85114891Y-60522827D01*
X85103317Y-60529764D01*
X85091119Y-60535533D01*
X85078414Y-60540079D01*
X85065325Y-60543358D01*
X85051977Y-60545338D01*
X85038500Y-60546000D01*
X83313500Y-60546000D01*
X83300023Y-60545338D01*
X83286675Y-60543358D01*
X83273586Y-60540079D01*
X83260881Y-60535533D01*
X83248683Y-60529764D01*
X83237109Y-60522827D01*
X83226271Y-60514789D01*
X83216273Y-60505727D01*
X83207211Y-60495729D01*
X83199173Y-60484891D01*
X83192236Y-60473317D01*
X83186467Y-60461119D01*
X83181921Y-60448414D01*
X83178642Y-60435325D01*
X83176662Y-60421977D01*
X83176000Y-60408500D01*
X83176000Y-60133500D01*
X83176662Y-60120023D01*
X83178642Y-60106675D01*
X83181921Y-60093586D01*
X83186467Y-60080881D01*
X83192236Y-60068683D01*
X83199173Y-60057109D01*
X83207211Y-60046271D01*
X83216273Y-60036273D01*
X83226271Y-60027211D01*
X83237109Y-60019173D01*
X83248683Y-60012236D01*
X83260881Y-60006467D01*
X83273586Y-60001921D01*
X83286675Y-59998642D01*
X83300023Y-59996662D01*
X83313500Y-59996000D01*
X85038500Y-59996000D01*
X85051977Y-59996662D01*
G37*
G36*
X85051977Y-58726662D02*
G01*
X85065325Y-58728642D01*
X85078414Y-58731921D01*
X85091119Y-58736467D01*
X85103317Y-58742236D01*
X85114891Y-58749173D01*
X85125729Y-58757211D01*
X85135727Y-58766273D01*
X85144789Y-58776271D01*
X85152827Y-58787109D01*
X85159764Y-58798683D01*
X85165533Y-58810881D01*
X85170079Y-58823586D01*
X85173358Y-58836675D01*
X85175338Y-58850023D01*
X85176000Y-58863500D01*
X85176000Y-59138500D01*
X85175338Y-59151977D01*
X85173358Y-59165325D01*
X85170079Y-59178414D01*
X85165533Y-59191119D01*
X85159764Y-59203317D01*
X85152827Y-59214891D01*
X85144789Y-59225729D01*
X85135727Y-59235727D01*
X85125729Y-59244789D01*
X85114891Y-59252827D01*
X85103317Y-59259764D01*
X85091119Y-59265533D01*
X85078414Y-59270079D01*
X85065325Y-59273358D01*
X85051977Y-59275338D01*
X85038500Y-59276000D01*
X83313500Y-59276000D01*
X83300023Y-59275338D01*
X83286675Y-59273358D01*
X83273586Y-59270079D01*
X83260881Y-59265533D01*
X83248683Y-59259764D01*
X83237109Y-59252827D01*
X83226271Y-59244789D01*
X83216273Y-59235727D01*
X83207211Y-59225729D01*
X83199173Y-59214891D01*
X83192236Y-59203317D01*
X83186467Y-59191119D01*
X83181921Y-59178414D01*
X83178642Y-59165325D01*
X83176662Y-59151977D01*
X83176000Y-59138500D01*
X83176000Y-58863500D01*
X83176662Y-58850023D01*
X83178642Y-58836675D01*
X83181921Y-58823586D01*
X83186467Y-58810881D01*
X83192236Y-58798683D01*
X83199173Y-58787109D01*
X83207211Y-58776271D01*
X83216273Y-58766273D01*
X83226271Y-58757211D01*
X83237109Y-58749173D01*
X83248683Y-58742236D01*
X83260881Y-58736467D01*
X83273586Y-58731921D01*
X83286675Y-58728642D01*
X83300023Y-58726662D01*
X83313500Y-58726000D01*
X85038500Y-58726000D01*
X85051977Y-58726662D01*
G37*
G36*
X85051977Y-57456662D02*
G01*
X85065325Y-57458642D01*
X85078414Y-57461921D01*
X85091119Y-57466467D01*
X85103317Y-57472236D01*
X85114891Y-57479173D01*
X85125729Y-57487211D01*
X85135727Y-57496273D01*
X85144789Y-57506271D01*
X85152827Y-57517109D01*
X85159764Y-57528683D01*
X85165533Y-57540881D01*
X85170079Y-57553586D01*
X85173358Y-57566675D01*
X85175338Y-57580023D01*
X85176000Y-57593500D01*
X85176000Y-57868500D01*
X85175338Y-57881977D01*
X85173358Y-57895325D01*
X85170079Y-57908414D01*
X85165533Y-57921119D01*
X85159764Y-57933317D01*
X85152827Y-57944891D01*
X85144789Y-57955729D01*
X85135727Y-57965727D01*
X85125729Y-57974789D01*
X85114891Y-57982827D01*
X85103317Y-57989764D01*
X85091119Y-57995533D01*
X85078414Y-58000079D01*
X85065325Y-58003358D01*
X85051977Y-58005338D01*
X85038500Y-58006000D01*
X83313500Y-58006000D01*
X83300023Y-58005338D01*
X83286675Y-58003358D01*
X83273586Y-58000079D01*
X83260881Y-57995533D01*
X83248683Y-57989764D01*
X83237109Y-57982827D01*
X83226271Y-57974789D01*
X83216273Y-57965727D01*
X83207211Y-57955729D01*
X83199173Y-57944891D01*
X83192236Y-57933317D01*
X83186467Y-57921119D01*
X83181921Y-57908414D01*
X83178642Y-57895325D01*
X83176662Y-57881977D01*
X83176000Y-57868500D01*
X83176000Y-57593500D01*
X83176662Y-57580023D01*
X83178642Y-57566675D01*
X83181921Y-57553586D01*
X83186467Y-57540881D01*
X83192236Y-57528683D01*
X83199173Y-57517109D01*
X83207211Y-57506271D01*
X83216273Y-57496273D01*
X83226271Y-57487211D01*
X83237109Y-57479173D01*
X83248683Y-57472236D01*
X83260881Y-57466467D01*
X83273586Y-57461921D01*
X83286675Y-57458642D01*
X83300023Y-57456662D01*
X83313500Y-57456000D01*
X85038500Y-57456000D01*
X85051977Y-57456662D01*
G37*
G36*
X85051977Y-56186662D02*
G01*
X85065325Y-56188642D01*
X85078414Y-56191921D01*
X85091119Y-56196467D01*
X85103317Y-56202236D01*
X85114891Y-56209173D01*
X85125729Y-56217211D01*
X85135727Y-56226273D01*
X85144789Y-56236271D01*
X85152827Y-56247109D01*
X85159764Y-56258683D01*
X85165533Y-56270881D01*
X85170079Y-56283586D01*
X85173358Y-56296675D01*
X85175338Y-56310023D01*
X85176000Y-56323500D01*
X85176000Y-56598500D01*
X85175338Y-56611977D01*
X85173358Y-56625325D01*
X85170079Y-56638414D01*
X85165533Y-56651119D01*
X85159764Y-56663317D01*
X85152827Y-56674891D01*
X85144789Y-56685729D01*
X85135727Y-56695727D01*
X85125729Y-56704789D01*
X85114891Y-56712827D01*
X85103317Y-56719764D01*
X85091119Y-56725533D01*
X85078414Y-56730079D01*
X85065325Y-56733358D01*
X85051977Y-56735338D01*
X85038500Y-56736000D01*
X83313500Y-56736000D01*
X83300023Y-56735338D01*
X83286675Y-56733358D01*
X83273586Y-56730079D01*
X83260881Y-56725533D01*
X83248683Y-56719764D01*
X83237109Y-56712827D01*
X83226271Y-56704789D01*
X83216273Y-56695727D01*
X83207211Y-56685729D01*
X83199173Y-56674891D01*
X83192236Y-56663317D01*
X83186467Y-56651119D01*
X83181921Y-56638414D01*
X83178642Y-56625325D01*
X83176662Y-56611977D01*
X83176000Y-56598500D01*
X83176000Y-56323500D01*
X83176662Y-56310023D01*
X83178642Y-56296675D01*
X83181921Y-56283586D01*
X83186467Y-56270881D01*
X83192236Y-56258683D01*
X83199173Y-56247109D01*
X83207211Y-56236271D01*
X83216273Y-56226273D01*
X83226271Y-56217211D01*
X83237109Y-56209173D01*
X83248683Y-56202236D01*
X83260881Y-56196467D01*
X83273586Y-56191921D01*
X83286675Y-56188642D01*
X83300023Y-56186662D01*
X83313500Y-56186000D01*
X85038500Y-56186000D01*
X85051977Y-56186662D01*
G37*
G36*
X85051977Y-54916662D02*
G01*
X85065325Y-54918642D01*
X85078414Y-54921921D01*
X85091119Y-54926467D01*
X85103317Y-54932236D01*
X85114891Y-54939173D01*
X85125729Y-54947211D01*
X85135727Y-54956273D01*
X85144789Y-54966271D01*
X85152827Y-54977109D01*
X85159764Y-54988683D01*
X85165533Y-55000881D01*
X85170079Y-55013586D01*
X85173358Y-55026675D01*
X85175338Y-55040023D01*
X85176000Y-55053500D01*
X85176000Y-55328500D01*
X85175338Y-55341977D01*
X85173358Y-55355325D01*
X85170079Y-55368414D01*
X85165533Y-55381119D01*
X85159764Y-55393317D01*
X85152827Y-55404891D01*
X85144789Y-55415729D01*
X85135727Y-55425727D01*
X85125729Y-55434789D01*
X85114891Y-55442827D01*
X85103317Y-55449764D01*
X85091119Y-55455533D01*
X85078414Y-55460079D01*
X85065325Y-55463358D01*
X85051977Y-55465338D01*
X85038500Y-55466000D01*
X83313500Y-55466000D01*
X83300023Y-55465338D01*
X83286675Y-55463358D01*
X83273586Y-55460079D01*
X83260881Y-55455533D01*
X83248683Y-55449764D01*
X83237109Y-55442827D01*
X83226271Y-55434789D01*
X83216273Y-55425727D01*
X83207211Y-55415729D01*
X83199173Y-55404891D01*
X83192236Y-55393317D01*
X83186467Y-55381119D01*
X83181921Y-55368414D01*
X83178642Y-55355325D01*
X83176662Y-55341977D01*
X83176000Y-55328500D01*
X83176000Y-55053500D01*
X83176662Y-55040023D01*
X83178642Y-55026675D01*
X83181921Y-55013586D01*
X83186467Y-55000881D01*
X83192236Y-54988683D01*
X83199173Y-54977109D01*
X83207211Y-54966271D01*
X83216273Y-54956273D01*
X83226271Y-54947211D01*
X83237109Y-54939173D01*
X83248683Y-54932236D01*
X83260881Y-54926467D01*
X83273586Y-54921921D01*
X83286675Y-54918642D01*
X83300023Y-54916662D01*
X83313500Y-54916000D01*
X85038500Y-54916000D01*
X85051977Y-54916662D01*
G37*
G36*
X85051977Y-53646662D02*
G01*
X85065325Y-53648642D01*
X85078414Y-53651921D01*
X85091119Y-53656467D01*
X85103317Y-53662236D01*
X85114891Y-53669173D01*
X85125729Y-53677211D01*
X85135727Y-53686273D01*
X85144789Y-53696271D01*
X85152827Y-53707109D01*
X85159764Y-53718683D01*
X85165533Y-53730881D01*
X85170079Y-53743586D01*
X85173358Y-53756675D01*
X85175338Y-53770023D01*
X85176000Y-53783500D01*
X85176000Y-54058500D01*
X85175338Y-54071977D01*
X85173358Y-54085325D01*
X85170079Y-54098414D01*
X85165533Y-54111119D01*
X85159764Y-54123317D01*
X85152827Y-54134891D01*
X85144789Y-54145729D01*
X85135727Y-54155727D01*
X85125729Y-54164789D01*
X85114891Y-54172827D01*
X85103317Y-54179764D01*
X85091119Y-54185533D01*
X85078414Y-54190079D01*
X85065325Y-54193358D01*
X85051977Y-54195338D01*
X85038500Y-54196000D01*
X83313500Y-54196000D01*
X83300023Y-54195338D01*
X83286675Y-54193358D01*
X83273586Y-54190079D01*
X83260881Y-54185533D01*
X83248683Y-54179764D01*
X83237109Y-54172827D01*
X83226271Y-54164789D01*
X83216273Y-54155727D01*
X83207211Y-54145729D01*
X83199173Y-54134891D01*
X83192236Y-54123317D01*
X83186467Y-54111119D01*
X83181921Y-54098414D01*
X83178642Y-54085325D01*
X83176662Y-54071977D01*
X83176000Y-54058500D01*
X83176000Y-53783500D01*
X83176662Y-53770023D01*
X83178642Y-53756675D01*
X83181921Y-53743586D01*
X83186467Y-53730881D01*
X83192236Y-53718683D01*
X83199173Y-53707109D01*
X83207211Y-53696271D01*
X83216273Y-53686273D01*
X83226271Y-53677211D01*
X83237109Y-53669173D01*
X83248683Y-53662236D01*
X83260881Y-53656467D01*
X83273586Y-53651921D01*
X83286675Y-53648642D01*
X83300023Y-53646662D01*
X83313500Y-53646000D01*
X85038500Y-53646000D01*
X85051977Y-53646662D01*
G37*
G36*
X85051977Y-52376662D02*
G01*
X85065325Y-52378642D01*
X85078414Y-52381921D01*
X85091119Y-52386467D01*
X85103317Y-52392236D01*
X85114891Y-52399173D01*
X85125729Y-52407211D01*
X85135727Y-52416273D01*
X85144789Y-52426271D01*
X85152827Y-52437109D01*
X85159764Y-52448683D01*
X85165533Y-52460881D01*
X85170079Y-52473586D01*
X85173358Y-52486675D01*
X85175338Y-52500023D01*
X85176000Y-52513500D01*
X85176000Y-52788500D01*
X85175338Y-52801977D01*
X85173358Y-52815325D01*
X85170079Y-52828414D01*
X85165533Y-52841119D01*
X85159764Y-52853317D01*
X85152827Y-52864891D01*
X85144789Y-52875729D01*
X85135727Y-52885727D01*
X85125729Y-52894789D01*
X85114891Y-52902827D01*
X85103317Y-52909764D01*
X85091119Y-52915533D01*
X85078414Y-52920079D01*
X85065325Y-52923358D01*
X85051977Y-52925338D01*
X85038500Y-52926000D01*
X83313500Y-52926000D01*
X83300023Y-52925338D01*
X83286675Y-52923358D01*
X83273586Y-52920079D01*
X83260881Y-52915533D01*
X83248683Y-52909764D01*
X83237109Y-52902827D01*
X83226271Y-52894789D01*
X83216273Y-52885727D01*
X83207211Y-52875729D01*
X83199173Y-52864891D01*
X83192236Y-52853317D01*
X83186467Y-52841119D01*
X83181921Y-52828414D01*
X83178642Y-52815325D01*
X83176662Y-52801977D01*
X83176000Y-52788500D01*
X83176000Y-52513500D01*
X83176662Y-52500023D01*
X83178642Y-52486675D01*
X83181921Y-52473586D01*
X83186467Y-52460881D01*
X83192236Y-52448683D01*
X83199173Y-52437109D01*
X83207211Y-52426271D01*
X83216273Y-52416273D01*
X83226271Y-52407211D01*
X83237109Y-52399173D01*
X83248683Y-52392236D01*
X83260881Y-52386467D01*
X83273586Y-52381921D01*
X83286675Y-52378642D01*
X83300023Y-52376662D01*
X83313500Y-52376000D01*
X85038500Y-52376000D01*
X85051977Y-52376662D01*
G37*
G36*
X85051977Y-51106662D02*
G01*
X85065325Y-51108642D01*
X85078414Y-51111921D01*
X85091119Y-51116467D01*
X85103317Y-51122236D01*
X85114891Y-51129173D01*
X85125729Y-51137211D01*
X85135727Y-51146273D01*
X85144789Y-51156271D01*
X85152827Y-51167109D01*
X85159764Y-51178683D01*
X85165533Y-51190881D01*
X85170079Y-51203586D01*
X85173358Y-51216675D01*
X85175338Y-51230023D01*
X85176000Y-51243500D01*
X85176000Y-51518500D01*
X85175338Y-51531977D01*
X85173358Y-51545325D01*
X85170079Y-51558414D01*
X85165533Y-51571119D01*
X85159764Y-51583317D01*
X85152827Y-51594891D01*
X85144789Y-51605729D01*
X85135727Y-51615727D01*
X85125729Y-51624789D01*
X85114891Y-51632827D01*
X85103317Y-51639764D01*
X85091119Y-51645533D01*
X85078414Y-51650079D01*
X85065325Y-51653358D01*
X85051977Y-51655338D01*
X85038500Y-51656000D01*
X83313500Y-51656000D01*
X83300023Y-51655338D01*
X83286675Y-51653358D01*
X83273586Y-51650079D01*
X83260881Y-51645533D01*
X83248683Y-51639764D01*
X83237109Y-51632827D01*
X83226271Y-51624789D01*
X83216273Y-51615727D01*
X83207211Y-51605729D01*
X83199173Y-51594891D01*
X83192236Y-51583317D01*
X83186467Y-51571119D01*
X83181921Y-51558414D01*
X83178642Y-51545325D01*
X83176662Y-51531977D01*
X83176000Y-51518500D01*
X83176000Y-51243500D01*
X83176662Y-51230023D01*
X83178642Y-51216675D01*
X83181921Y-51203586D01*
X83186467Y-51190881D01*
X83192236Y-51178683D01*
X83199173Y-51167109D01*
X83207211Y-51156271D01*
X83216273Y-51146273D01*
X83226271Y-51137211D01*
X83237109Y-51129173D01*
X83248683Y-51122236D01*
X83260881Y-51116467D01*
X83273586Y-51111921D01*
X83286675Y-51108642D01*
X83300023Y-51106662D01*
X83313500Y-51106000D01*
X85038500Y-51106000D01*
X85051977Y-51106662D01*
G37*
D19*
X101775000Y-69215000D03*
X101775000Y-67945000D03*
D14*
X101775000Y-66675000D03*
D19*
X102375000Y-104940000D03*
X102375000Y-103670000D03*
D14*
X102375000Y-102400000D03*
D19*
X38630000Y-47650000D03*
X37360000Y-47650000D03*
X36090000Y-47650000D03*
X34820000Y-47650000D03*
D14*
X33550000Y-47650000D03*
D19*
X36000000Y-57220000D03*
X36000000Y-58490000D03*
X36000000Y-59760000D03*
X36000000Y-61030000D03*
D14*
X36000000Y-62300000D03*
D15*
X156970000Y-74050000D03*
D16*
X149350000Y-74050000D03*
D15*
X119470000Y-87750000D03*
D16*
X111850000Y-87750000D03*
D15*
X125905000Y-55400000D03*
D16*
X133525000Y-55400000D03*
D15*
X123025000Y-48180000D03*
D16*
X123025000Y-55800000D03*
D19*
X55680000Y-46300000D03*
D14*
X56950000Y-46300000D03*
D19*
X24200000Y-94455000D03*
D14*
X24200000Y-95725000D03*
D19*
X149700000Y-98780000D03*
D14*
X149700000Y-100050000D03*
D19*
X150770000Y-55250000D03*
D14*
X149500000Y-55250000D03*
D19*
X43520000Y-57100000D03*
D14*
X42250000Y-57100000D03*
D19*
X43520000Y-53950000D03*
D14*
X42250000Y-53950000D03*
D19*
X47145000Y-53925000D03*
D14*
X45875000Y-53925000D03*
D19*
X49130000Y-53925000D03*
D14*
X50400000Y-53925000D03*
D19*
X51770000Y-81750000D03*
D14*
X50500000Y-81750000D03*
D19*
X51795000Y-84900000D03*
D14*
X50525000Y-84900000D03*
D19*
X45900000Y-59775000D03*
D14*
X47170000Y-59775000D03*
D19*
X43500000Y-59775000D03*
D14*
X42230000Y-59775000D03*
D19*
X99375000Y-69190000D03*
X99375000Y-67920000D03*
D14*
X99375000Y-66650000D03*
D19*
X24280662Y-103429000D03*
X24280662Y-102159000D03*
X24280662Y-100889000D03*
D14*
X24280662Y-99619000D03*
D19*
X99200000Y-104940000D03*
X99200000Y-103670000D03*
D14*
X99200000Y-102400000D03*
D17*
X116890000Y-83575000D03*
X114350000Y-83575000D03*
X111810000Y-83575000D03*
X104420000Y-83450000D03*
X106960000Y-83450000D03*
X109500000Y-83450000D03*
X110550000Y-48225000D03*
X108010000Y-48225000D03*
X105470000Y-48225000D03*
X105460000Y-53375000D03*
X108000000Y-53375000D03*
X110540000Y-53375000D03*
D22*
X175870000Y-97647000D03*
X175870000Y-103097000D03*
D23*
X175870000Y-108547000D03*
D22*
X175950000Y-77850000D03*
X175950000Y-83300000D03*
D23*
X175950000Y-88750000D03*
D22*
X176500000Y-54725000D03*
X176500000Y-60175000D03*
D23*
X176500000Y-65625000D03*
D22*
X176316000Y-35549000D03*
X176316000Y-40999000D03*
D23*
X176316000Y-46449000D03*
D13*
X185650000Y-109950000D03*
D20*
X33315000Y-78550000D03*
D16*
X30775000Y-78550000D03*
D15*
X149400000Y-70270000D03*
D16*
X149400000Y-62650000D03*
D15*
X145770000Y-76750000D03*
D16*
X138150000Y-76750000D03*
D15*
X148430000Y-84400000D03*
D16*
X156050000Y-84400000D03*
D15*
X145920000Y-84400000D03*
D16*
X138300000Y-84400000D03*
D15*
X142405000Y-33075000D03*
D16*
X150025000Y-33075000D03*
D15*
X144980000Y-43250000D03*
D16*
X152600000Y-43250000D03*
X131200000Y-29750000D03*
D15*
X138820000Y-29750000D03*
X142355000Y-37225000D03*
D16*
X149975000Y-37225000D03*
D13*
X190250000Y-68100000D03*
M02*
