M48
; DRILL file {KiCad (5.1.5)-3} date 9/18/2020 3:55:21 AM
; FORMAT={-:-/ absolute / inch / decimal}
; #@! TF.CreationDate,2020-09-18T03:55:21-03:00
; #@! TF.GenerationSoftware,Kicad,Pcbnew,(5.1.5)-3
; #@! TF.FileFunction,Plated,1,2,PTH
FMAT,2
INCH
T1C0.0315
T2C0.0394
T3C0.0433
T4C0.0591
T5C0.1260
%
G90
G05
T1
X6.2079Y-2.5609
X6.2079Y-2.6609
X6.2079Y-2.7609
T2
X6.0433Y-2.7598
X6.4277Y-2.6393
X6.7323Y-3.0886
X7.0468Y-2.6393
T3
X6.2055Y-3.3189
X6.3055Y-3.3189
X6.4055Y-3.3189
X6.9024Y-3.3287
X7.0024Y-3.3287
X7.1024Y-3.3287
T4
X6.212Y-2.1654
X6.212Y-2.3819
X6.3774Y-2.1654
X6.3774Y-2.3819
X6.9291Y-2.1654
X6.9291Y-2.3819
X7.0945Y-2.1654
X7.0945Y-2.3819
T5
X7.5197Y-3.3858
X5.8661Y-3.3858
X5.8661Y-1.7323
X7.5197Y-1.7323
T0
M30
