G04 #@! TF.GenerationSoftware,KiCad,Pcbnew,(5.1.5)-3*
G04 #@! TF.CreationDate,2020-09-18T03:55:18-03:00*
G04 #@! TF.ProjectId,Pre charge & discharge,50726520-6368-4617-9267-652026206469,rev?*
G04 #@! TF.SameCoordinates,Original*
G04 #@! TF.FileFunction,Soldermask,Top*
G04 #@! TF.FilePolarity,Negative*
%FSLAX46Y46*%
G04 Gerber Fmt 4.6, Leading zero omitted, Abs format (unit mm)*
G04 Created by KiCad (PCBNEW (5.1.5)-3) date 2020-09-18 03:55:18*
%MOMM*%
%LPD*%
G04 APERTURE LIST*
%ADD10C,0.100000*%
G04 APERTURE END LIST*
D10*
G36*
X191817021Y-83306640D02*
G01*
X192269697Y-83494145D01*
X192326771Y-83517786D01*
X192785534Y-83824321D01*
X193175679Y-84214466D01*
X193464551Y-84646795D01*
X193482215Y-84673231D01*
X193693360Y-85182979D01*
X193801000Y-85724124D01*
X193801000Y-86275876D01*
X193693360Y-86817021D01*
X193482215Y-87326769D01*
X193482214Y-87326771D01*
X193175679Y-87785534D01*
X192785534Y-88175679D01*
X192326771Y-88482214D01*
X192326770Y-88482215D01*
X192326769Y-88482215D01*
X191817021Y-88693360D01*
X191275876Y-88801000D01*
X190724124Y-88801000D01*
X190182979Y-88693360D01*
X189673231Y-88482215D01*
X189673230Y-88482215D01*
X189673229Y-88482214D01*
X189214466Y-88175679D01*
X188824321Y-87785534D01*
X188517786Y-87326771D01*
X188517785Y-87326769D01*
X188306640Y-86817021D01*
X188199000Y-86275876D01*
X188199000Y-85724124D01*
X188306640Y-85182979D01*
X188517785Y-84673231D01*
X188535449Y-84646795D01*
X188824321Y-84214466D01*
X189214466Y-83824321D01*
X189673229Y-83517786D01*
X189730303Y-83494145D01*
X190182979Y-83306640D01*
X190724124Y-83199000D01*
X191275876Y-83199000D01*
X191817021Y-83306640D01*
G37*
G36*
X149817021Y-83306640D02*
G01*
X150269697Y-83494145D01*
X150326771Y-83517786D01*
X150785534Y-83824321D01*
X151175679Y-84214466D01*
X151464551Y-84646795D01*
X151482215Y-84673231D01*
X151693360Y-85182979D01*
X151801000Y-85724124D01*
X151801000Y-86275876D01*
X151693360Y-86817021D01*
X151482215Y-87326769D01*
X151482214Y-87326771D01*
X151175679Y-87785534D01*
X150785534Y-88175679D01*
X150326771Y-88482214D01*
X150326770Y-88482215D01*
X150326769Y-88482215D01*
X149817021Y-88693360D01*
X149275876Y-88801000D01*
X148724124Y-88801000D01*
X148182979Y-88693360D01*
X147673231Y-88482215D01*
X147673230Y-88482215D01*
X147673229Y-88482214D01*
X147214466Y-88175679D01*
X146824321Y-87785534D01*
X146517786Y-87326771D01*
X146517785Y-87326769D01*
X146306640Y-86817021D01*
X146199000Y-86275876D01*
X146199000Y-85724124D01*
X146306640Y-85182979D01*
X146517785Y-84673231D01*
X146535449Y-84646795D01*
X146824321Y-84214466D01*
X147214466Y-83824321D01*
X147673229Y-83517786D01*
X147730303Y-83494145D01*
X148182979Y-83306640D01*
X148724124Y-83199000D01*
X149275876Y-83199000D01*
X149817021Y-83306640D01*
G37*
G36*
X178056720Y-83513520D02*
G01*
X178245881Y-83570901D01*
X178420212Y-83664083D01*
X178573015Y-83789485D01*
X178698417Y-83942288D01*
X178742182Y-84024167D01*
X178791598Y-84116617D01*
X178791599Y-84116620D01*
X178848980Y-84305781D01*
X178863500Y-84453207D01*
X178863500Y-84646794D01*
X178848980Y-84794220D01*
X178791599Y-84983381D01*
X178698417Y-85157712D01*
X178573015Y-85310515D01*
X178420212Y-85435917D01*
X178338333Y-85479682D01*
X178245883Y-85529098D01*
X178245880Y-85529099D01*
X178056719Y-85586480D01*
X177860000Y-85605855D01*
X177663280Y-85586480D01*
X177474119Y-85529099D01*
X177299788Y-85435917D01*
X177146985Y-85310515D01*
X177021583Y-85157712D01*
X176969630Y-85060515D01*
X176928402Y-84983383D01*
X176905448Y-84907712D01*
X176871020Y-84794219D01*
X176856500Y-84646793D01*
X176856500Y-84453206D01*
X176871020Y-84305780D01*
X176928401Y-84116619D01*
X177021583Y-83942288D01*
X177146985Y-83789485D01*
X177299788Y-83664083D01*
X177474120Y-83570901D01*
X177663281Y-83513520D01*
X177860000Y-83494145D01*
X178056720Y-83513520D01*
G37*
G36*
X175516720Y-83513520D02*
G01*
X175705881Y-83570901D01*
X175880212Y-83664083D01*
X176033015Y-83789485D01*
X176158417Y-83942288D01*
X176202182Y-84024167D01*
X176251598Y-84116617D01*
X176251599Y-84116620D01*
X176308980Y-84305781D01*
X176323500Y-84453207D01*
X176323500Y-84646794D01*
X176308980Y-84794220D01*
X176251599Y-84983381D01*
X176158417Y-85157712D01*
X176033015Y-85310515D01*
X175880212Y-85435917D01*
X175798333Y-85479682D01*
X175705883Y-85529098D01*
X175705880Y-85529099D01*
X175516719Y-85586480D01*
X175320000Y-85605855D01*
X175123280Y-85586480D01*
X174934119Y-85529099D01*
X174759788Y-85435917D01*
X174606985Y-85310515D01*
X174481583Y-85157712D01*
X174429630Y-85060515D01*
X174388402Y-84983383D01*
X174365448Y-84907712D01*
X174331020Y-84794219D01*
X174316500Y-84646793D01*
X174316500Y-84453206D01*
X174331020Y-84305780D01*
X174388401Y-84116619D01*
X174481583Y-83942288D01*
X174606985Y-83789485D01*
X174759788Y-83664083D01*
X174934120Y-83570901D01*
X175123281Y-83513520D01*
X175320000Y-83494145D01*
X175516720Y-83513520D01*
G37*
G36*
X181403500Y-85601000D02*
G01*
X179396500Y-85601000D01*
X179396500Y-83499000D01*
X181403500Y-83499000D01*
X181403500Y-85601000D01*
G37*
G36*
X157816720Y-83263520D02*
G01*
X158005881Y-83320901D01*
X158180212Y-83414083D01*
X158333015Y-83539485D01*
X158458417Y-83692288D01*
X158502182Y-83774167D01*
X158551598Y-83866617D01*
X158551599Y-83866620D01*
X158608980Y-84055781D01*
X158623500Y-84203207D01*
X158623500Y-84396794D01*
X158608980Y-84544220D01*
X158551599Y-84733381D01*
X158458417Y-84907712D01*
X158333015Y-85060515D01*
X158180212Y-85185917D01*
X158098333Y-85229682D01*
X158005883Y-85279098D01*
X158005880Y-85279099D01*
X157816719Y-85336480D01*
X157620000Y-85355855D01*
X157423280Y-85336480D01*
X157234119Y-85279099D01*
X157059788Y-85185917D01*
X156906985Y-85060515D01*
X156781583Y-84907712D01*
X156737818Y-84825833D01*
X156688402Y-84733383D01*
X156662136Y-84646794D01*
X156631020Y-84544219D01*
X156616500Y-84396793D01*
X156616500Y-84203206D01*
X156631020Y-84055780D01*
X156688401Y-83866619D01*
X156781583Y-83692288D01*
X156906985Y-83539485D01*
X157059788Y-83414083D01*
X157234120Y-83320901D01*
X157423281Y-83263520D01*
X157620000Y-83244145D01*
X157816720Y-83263520D01*
G37*
G36*
X160356720Y-83263520D02*
G01*
X160545881Y-83320901D01*
X160720212Y-83414083D01*
X160873015Y-83539485D01*
X160998417Y-83692288D01*
X161042182Y-83774167D01*
X161091598Y-83866617D01*
X161091599Y-83866620D01*
X161148980Y-84055781D01*
X161163500Y-84203207D01*
X161163500Y-84396794D01*
X161148980Y-84544220D01*
X161091599Y-84733381D01*
X160998417Y-84907712D01*
X160873015Y-85060515D01*
X160720212Y-85185917D01*
X160638333Y-85229682D01*
X160545883Y-85279098D01*
X160545880Y-85279099D01*
X160356719Y-85336480D01*
X160160000Y-85355855D01*
X159963280Y-85336480D01*
X159774119Y-85279099D01*
X159599788Y-85185917D01*
X159446985Y-85060515D01*
X159321583Y-84907712D01*
X159277818Y-84825833D01*
X159228402Y-84733383D01*
X159202136Y-84646794D01*
X159171020Y-84544219D01*
X159156500Y-84396793D01*
X159156500Y-84203206D01*
X159171020Y-84055780D01*
X159228401Y-83866619D01*
X159321583Y-83692288D01*
X159446985Y-83539485D01*
X159599788Y-83414083D01*
X159774120Y-83320901D01*
X159963281Y-83263520D01*
X160160000Y-83244145D01*
X160356720Y-83263520D01*
G37*
G36*
X163703500Y-85351000D02*
G01*
X161696500Y-85351000D01*
X161696500Y-83249000D01*
X163703500Y-83249000D01*
X163703500Y-85351000D01*
G37*
G36*
X177534468Y-78403565D02*
G01*
X177573138Y-78415296D01*
X177608777Y-78434346D01*
X177640017Y-78459983D01*
X177665654Y-78491223D01*
X177684704Y-78526862D01*
X177696435Y-78565532D01*
X177701000Y-78611888D01*
X177701000Y-79688112D01*
X177696435Y-79734468D01*
X177684704Y-79773138D01*
X177665654Y-79808777D01*
X177640017Y-79840017D01*
X177608777Y-79865654D01*
X177573138Y-79884704D01*
X177534468Y-79896435D01*
X177488112Y-79901000D01*
X176836888Y-79901000D01*
X176790532Y-79896435D01*
X176751862Y-79884704D01*
X176716223Y-79865654D01*
X176684983Y-79840017D01*
X176659346Y-79808777D01*
X176640296Y-79773138D01*
X176628565Y-79734468D01*
X176624000Y-79688112D01*
X176624000Y-78611888D01*
X176628565Y-78565532D01*
X176640296Y-78526862D01*
X176659346Y-78491223D01*
X176684983Y-78459983D01*
X176716223Y-78434346D01*
X176751862Y-78415296D01*
X176790532Y-78403565D01*
X176836888Y-78399000D01*
X177488112Y-78399000D01*
X177534468Y-78403565D01*
G37*
G36*
X179409468Y-78403565D02*
G01*
X179448138Y-78415296D01*
X179483777Y-78434346D01*
X179515017Y-78459983D01*
X179540654Y-78491223D01*
X179559704Y-78526862D01*
X179571435Y-78565532D01*
X179576000Y-78611888D01*
X179576000Y-79688112D01*
X179571435Y-79734468D01*
X179559704Y-79773138D01*
X179540654Y-79808777D01*
X179515017Y-79840017D01*
X179483777Y-79865654D01*
X179448138Y-79884704D01*
X179409468Y-79896435D01*
X179363112Y-79901000D01*
X178711888Y-79901000D01*
X178665532Y-79896435D01*
X178626862Y-79884704D01*
X178591223Y-79865654D01*
X178559983Y-79840017D01*
X178534346Y-79808777D01*
X178515296Y-79773138D01*
X178503565Y-79734468D01*
X178499000Y-79688112D01*
X178499000Y-78611888D01*
X178503565Y-78565532D01*
X178515296Y-78526862D01*
X178534346Y-78491223D01*
X178559983Y-78459983D01*
X178591223Y-78434346D01*
X178626862Y-78415296D01*
X178665532Y-78403565D01*
X178711888Y-78399000D01*
X179363112Y-78399000D01*
X179409468Y-78403565D01*
G37*
G36*
X161521934Y-75602671D02*
G01*
X161551877Y-75611754D01*
X161579465Y-75626500D01*
X161603651Y-75646349D01*
X161623500Y-75670535D01*
X161638246Y-75698123D01*
X161647329Y-75728066D01*
X161651000Y-75765340D01*
X161651000Y-78034660D01*
X161647329Y-78071934D01*
X161638246Y-78101877D01*
X161623500Y-78129465D01*
X161603651Y-78153651D01*
X161579465Y-78173500D01*
X161551877Y-78188246D01*
X161521934Y-78197329D01*
X161484660Y-78201000D01*
X158215340Y-78201000D01*
X158178066Y-78197329D01*
X158148123Y-78188246D01*
X158120535Y-78173500D01*
X158096349Y-78153651D01*
X158076500Y-78129465D01*
X158061754Y-78101877D01*
X158052671Y-78071934D01*
X158049000Y-78034660D01*
X158049000Y-75765340D01*
X158052671Y-75728066D01*
X158061754Y-75698123D01*
X158076500Y-75670535D01*
X158096349Y-75646349D01*
X158120535Y-75626500D01*
X158148123Y-75611754D01*
X158178066Y-75602671D01*
X158215340Y-75599000D01*
X161484660Y-75599000D01*
X161521934Y-75602671D01*
G37*
G36*
X155021934Y-75602671D02*
G01*
X155051877Y-75611754D01*
X155079465Y-75626500D01*
X155103651Y-75646349D01*
X155123500Y-75670535D01*
X155138246Y-75698123D01*
X155147329Y-75728066D01*
X155151000Y-75765340D01*
X155151000Y-78034660D01*
X155147329Y-78071934D01*
X155138246Y-78101877D01*
X155123500Y-78129465D01*
X155103651Y-78153651D01*
X155079465Y-78173500D01*
X155051877Y-78188246D01*
X155021934Y-78197329D01*
X154984660Y-78201000D01*
X151715340Y-78201000D01*
X151678066Y-78197329D01*
X151648123Y-78188246D01*
X151620535Y-78173500D01*
X151596349Y-78153651D01*
X151576500Y-78129465D01*
X151561754Y-78101877D01*
X151552671Y-78071934D01*
X151549000Y-78034660D01*
X151549000Y-75765340D01*
X151552671Y-75728066D01*
X151561754Y-75698123D01*
X151576500Y-75670535D01*
X151596349Y-75646349D01*
X151620535Y-75626500D01*
X151648123Y-75611754D01*
X151678066Y-75602671D01*
X151715340Y-75599000D01*
X154984660Y-75599000D01*
X155021934Y-75602671D01*
G37*
G36*
X177484468Y-76253565D02*
G01*
X177523138Y-76265296D01*
X177558777Y-76284346D01*
X177590017Y-76309983D01*
X177615654Y-76341223D01*
X177634704Y-76376862D01*
X177646435Y-76415532D01*
X177651000Y-76461888D01*
X177651000Y-77538112D01*
X177646435Y-77584468D01*
X177634704Y-77623138D01*
X177615654Y-77658777D01*
X177590017Y-77690017D01*
X177558777Y-77715654D01*
X177523138Y-77734704D01*
X177484468Y-77746435D01*
X177438112Y-77751000D01*
X176786888Y-77751000D01*
X176740532Y-77746435D01*
X176701862Y-77734704D01*
X176666223Y-77715654D01*
X176634983Y-77690017D01*
X176609346Y-77658777D01*
X176590296Y-77623138D01*
X176578565Y-77584468D01*
X176574000Y-77538112D01*
X176574000Y-76461888D01*
X176578565Y-76415532D01*
X176590296Y-76376862D01*
X176609346Y-76341223D01*
X176634983Y-76309983D01*
X176666223Y-76284346D01*
X176701862Y-76265296D01*
X176740532Y-76253565D01*
X176786888Y-76249000D01*
X177438112Y-76249000D01*
X177484468Y-76253565D01*
G37*
G36*
X179359468Y-76253565D02*
G01*
X179398138Y-76265296D01*
X179433777Y-76284346D01*
X179465017Y-76309983D01*
X179490654Y-76341223D01*
X179509704Y-76376862D01*
X179521435Y-76415532D01*
X179526000Y-76461888D01*
X179526000Y-77538112D01*
X179521435Y-77584468D01*
X179509704Y-77623138D01*
X179490654Y-77658777D01*
X179465017Y-77690017D01*
X179433777Y-77715654D01*
X179398138Y-77734704D01*
X179359468Y-77746435D01*
X179313112Y-77751000D01*
X178661888Y-77751000D01*
X178615532Y-77746435D01*
X178576862Y-77734704D01*
X178541223Y-77715654D01*
X178509983Y-77690017D01*
X178484346Y-77658777D01*
X178465296Y-77623138D01*
X178453565Y-77584468D01*
X178449000Y-77538112D01*
X178449000Y-76461888D01*
X178453565Y-76415532D01*
X178465296Y-76376862D01*
X178484346Y-76341223D01*
X178509983Y-76309983D01*
X178541223Y-76284346D01*
X178576862Y-76265296D01*
X178615532Y-76253565D01*
X178661888Y-76249000D01*
X179313112Y-76249000D01*
X179359468Y-76253565D01*
G37*
G36*
X163634468Y-75803565D02*
G01*
X163673138Y-75815296D01*
X163708777Y-75834346D01*
X163740017Y-75859983D01*
X163765654Y-75891223D01*
X163784704Y-75926862D01*
X163796435Y-75965532D01*
X163801000Y-76011888D01*
X163801000Y-77088112D01*
X163796435Y-77134468D01*
X163784704Y-77173138D01*
X163765654Y-77208777D01*
X163740017Y-77240017D01*
X163708777Y-77265654D01*
X163673138Y-77284704D01*
X163634468Y-77296435D01*
X163588112Y-77301000D01*
X162936888Y-77301000D01*
X162890532Y-77296435D01*
X162851862Y-77284704D01*
X162816223Y-77265654D01*
X162784983Y-77240017D01*
X162759346Y-77208777D01*
X162740296Y-77173138D01*
X162728565Y-77134468D01*
X162724000Y-77088112D01*
X162724000Y-76011888D01*
X162728565Y-75965532D01*
X162740296Y-75926862D01*
X162759346Y-75891223D01*
X162784983Y-75859983D01*
X162816223Y-75834346D01*
X162851862Y-75815296D01*
X162890532Y-75803565D01*
X162936888Y-75799000D01*
X163588112Y-75799000D01*
X163634468Y-75803565D01*
G37*
G36*
X165509468Y-75803565D02*
G01*
X165548138Y-75815296D01*
X165583777Y-75834346D01*
X165615017Y-75859983D01*
X165640654Y-75891223D01*
X165659704Y-75926862D01*
X165671435Y-75965532D01*
X165676000Y-76011888D01*
X165676000Y-77088112D01*
X165671435Y-77134468D01*
X165659704Y-77173138D01*
X165640654Y-77208777D01*
X165615017Y-77240017D01*
X165583777Y-77265654D01*
X165548138Y-77284704D01*
X165509468Y-77296435D01*
X165463112Y-77301000D01*
X164811888Y-77301000D01*
X164765532Y-77296435D01*
X164726862Y-77284704D01*
X164691223Y-77265654D01*
X164659983Y-77240017D01*
X164634346Y-77208777D01*
X164615296Y-77173138D01*
X164603565Y-77134468D01*
X164599000Y-77088112D01*
X164599000Y-76011888D01*
X164603565Y-75965532D01*
X164615296Y-75926862D01*
X164634346Y-75891223D01*
X164659983Y-75859983D01*
X164691223Y-75834346D01*
X164726862Y-75815296D01*
X164765532Y-75803565D01*
X164811888Y-75799000D01*
X165463112Y-75799000D01*
X165509468Y-75803565D01*
G37*
G36*
X177484468Y-73853565D02*
G01*
X177523138Y-73865296D01*
X177558777Y-73884346D01*
X177590017Y-73909983D01*
X177615654Y-73941223D01*
X177634704Y-73976862D01*
X177646435Y-74015532D01*
X177651000Y-74061888D01*
X177651000Y-75138112D01*
X177646435Y-75184468D01*
X177634704Y-75223138D01*
X177615654Y-75258777D01*
X177590017Y-75290017D01*
X177558777Y-75315654D01*
X177523138Y-75334704D01*
X177484468Y-75346435D01*
X177438112Y-75351000D01*
X176786888Y-75351000D01*
X176740532Y-75346435D01*
X176701862Y-75334704D01*
X176666223Y-75315654D01*
X176634983Y-75290017D01*
X176609346Y-75258777D01*
X176590296Y-75223138D01*
X176578565Y-75184468D01*
X176574000Y-75138112D01*
X176574000Y-74061888D01*
X176578565Y-74015532D01*
X176590296Y-73976862D01*
X176609346Y-73941223D01*
X176634983Y-73909983D01*
X176666223Y-73884346D01*
X176701862Y-73865296D01*
X176740532Y-73853565D01*
X176786888Y-73849000D01*
X177438112Y-73849000D01*
X177484468Y-73853565D01*
G37*
G36*
X179359468Y-73853565D02*
G01*
X179398138Y-73865296D01*
X179433777Y-73884346D01*
X179465017Y-73909983D01*
X179490654Y-73941223D01*
X179509704Y-73976862D01*
X179521435Y-74015532D01*
X179526000Y-74061888D01*
X179526000Y-75138112D01*
X179521435Y-75184468D01*
X179509704Y-75223138D01*
X179490654Y-75258777D01*
X179465017Y-75290017D01*
X179433777Y-75315654D01*
X179398138Y-75334704D01*
X179359468Y-75346435D01*
X179313112Y-75351000D01*
X178661888Y-75351000D01*
X178615532Y-75346435D01*
X178576862Y-75334704D01*
X178541223Y-75315654D01*
X178509983Y-75290017D01*
X178484346Y-75258777D01*
X178465296Y-75223138D01*
X178453565Y-75184468D01*
X178449000Y-75138112D01*
X178449000Y-74061888D01*
X178453565Y-74015532D01*
X178465296Y-73976862D01*
X178484346Y-73941223D01*
X178509983Y-73909983D01*
X178541223Y-73884346D01*
X178576862Y-73865296D01*
X178615532Y-73853565D01*
X178661888Y-73849000D01*
X179313112Y-73849000D01*
X179359468Y-73853565D01*
G37*
G36*
X174709928Y-74606764D02*
G01*
X174731009Y-74613160D01*
X174750445Y-74623548D01*
X174767476Y-74637524D01*
X174781452Y-74654555D01*
X174791840Y-74673991D01*
X174798236Y-74695072D01*
X174801000Y-74723140D01*
X174801000Y-75186860D01*
X174798236Y-75214928D01*
X174791840Y-75236009D01*
X174781452Y-75255445D01*
X174767476Y-75272476D01*
X174750445Y-75286452D01*
X174731009Y-75296840D01*
X174709928Y-75303236D01*
X174681860Y-75306000D01*
X172868140Y-75306000D01*
X172840072Y-75303236D01*
X172818991Y-75296840D01*
X172799555Y-75286452D01*
X172782524Y-75272476D01*
X172768548Y-75255445D01*
X172758160Y-75236009D01*
X172751764Y-75214928D01*
X172749000Y-75186860D01*
X172749000Y-74723140D01*
X172751764Y-74695072D01*
X172758160Y-74673991D01*
X172768548Y-74654555D01*
X172782524Y-74637524D01*
X172799555Y-74623548D01*
X172818991Y-74613160D01*
X172840072Y-74606764D01*
X172868140Y-74604000D01*
X174681860Y-74604000D01*
X174709928Y-74606764D01*
G37*
G36*
X169759928Y-74606764D02*
G01*
X169781009Y-74613160D01*
X169800445Y-74623548D01*
X169817476Y-74637524D01*
X169831452Y-74654555D01*
X169841840Y-74673991D01*
X169848236Y-74695072D01*
X169851000Y-74723140D01*
X169851000Y-75186860D01*
X169848236Y-75214928D01*
X169841840Y-75236009D01*
X169831452Y-75255445D01*
X169817476Y-75272476D01*
X169800445Y-75286452D01*
X169781009Y-75296840D01*
X169759928Y-75303236D01*
X169731860Y-75306000D01*
X167918140Y-75306000D01*
X167890072Y-75303236D01*
X167868991Y-75296840D01*
X167849555Y-75286452D01*
X167832524Y-75272476D01*
X167818548Y-75255445D01*
X167808160Y-75236009D01*
X167801764Y-75214928D01*
X167799000Y-75186860D01*
X167799000Y-74723140D01*
X167801764Y-74695072D01*
X167808160Y-74673991D01*
X167818548Y-74654555D01*
X167832524Y-74637524D01*
X167849555Y-74623548D01*
X167868991Y-74613160D01*
X167890072Y-74606764D01*
X167918140Y-74604000D01*
X169731860Y-74604000D01*
X169759928Y-74606764D01*
G37*
G36*
X169759928Y-73336764D02*
G01*
X169781009Y-73343160D01*
X169800445Y-73353548D01*
X169817476Y-73367524D01*
X169831452Y-73384555D01*
X169841840Y-73403991D01*
X169848236Y-73425072D01*
X169851000Y-73453140D01*
X169851000Y-73916860D01*
X169848236Y-73944928D01*
X169841840Y-73966009D01*
X169831452Y-73985445D01*
X169817476Y-74002476D01*
X169800445Y-74016452D01*
X169781009Y-74026840D01*
X169759928Y-74033236D01*
X169731860Y-74036000D01*
X167918140Y-74036000D01*
X167890072Y-74033236D01*
X167868991Y-74026840D01*
X167849555Y-74016452D01*
X167832524Y-74002476D01*
X167818548Y-73985445D01*
X167808160Y-73966009D01*
X167801764Y-73944928D01*
X167799000Y-73916860D01*
X167799000Y-73453140D01*
X167801764Y-73425072D01*
X167808160Y-73403991D01*
X167818548Y-73384555D01*
X167832524Y-73367524D01*
X167849555Y-73353548D01*
X167868991Y-73343160D01*
X167890072Y-73336764D01*
X167918140Y-73334000D01*
X169731860Y-73334000D01*
X169759928Y-73336764D01*
G37*
G36*
X174709928Y-73336764D02*
G01*
X174731009Y-73343160D01*
X174750445Y-73353548D01*
X174767476Y-73367524D01*
X174781452Y-73384555D01*
X174791840Y-73403991D01*
X174798236Y-73425072D01*
X174801000Y-73453140D01*
X174801000Y-73916860D01*
X174798236Y-73944928D01*
X174791840Y-73966009D01*
X174781452Y-73985445D01*
X174767476Y-74002476D01*
X174750445Y-74016452D01*
X174731009Y-74026840D01*
X174709928Y-74033236D01*
X174681860Y-74036000D01*
X172868140Y-74036000D01*
X172840072Y-74033236D01*
X172818991Y-74026840D01*
X172799555Y-74016452D01*
X172782524Y-74002476D01*
X172768548Y-73985445D01*
X172758160Y-73966009D01*
X172751764Y-73944928D01*
X172749000Y-73916860D01*
X172749000Y-73453140D01*
X172751764Y-73425072D01*
X172758160Y-73403991D01*
X172768548Y-73384555D01*
X172782524Y-73367524D01*
X172799555Y-73353548D01*
X172818991Y-73343160D01*
X172840072Y-73336764D01*
X172868140Y-73334000D01*
X174681860Y-73334000D01*
X174709928Y-73336764D01*
G37*
G36*
X163634468Y-71603565D02*
G01*
X163673138Y-71615296D01*
X163708777Y-71634346D01*
X163740017Y-71659983D01*
X163765654Y-71691223D01*
X163784704Y-71726862D01*
X163796435Y-71765532D01*
X163801000Y-71811888D01*
X163801000Y-72888112D01*
X163796435Y-72934468D01*
X163784704Y-72973138D01*
X163765654Y-73008777D01*
X163740017Y-73040017D01*
X163708777Y-73065654D01*
X163673138Y-73084704D01*
X163634468Y-73096435D01*
X163588112Y-73101000D01*
X162936888Y-73101000D01*
X162890532Y-73096435D01*
X162851862Y-73084704D01*
X162816223Y-73065654D01*
X162784983Y-73040017D01*
X162759346Y-73008777D01*
X162740296Y-72973138D01*
X162728565Y-72934468D01*
X162724000Y-72888112D01*
X162724000Y-71811888D01*
X162728565Y-71765532D01*
X162740296Y-71726862D01*
X162759346Y-71691223D01*
X162784983Y-71659983D01*
X162816223Y-71634346D01*
X162851862Y-71615296D01*
X162890532Y-71603565D01*
X162936888Y-71599000D01*
X163588112Y-71599000D01*
X163634468Y-71603565D01*
G37*
G36*
X165509468Y-71603565D02*
G01*
X165548138Y-71615296D01*
X165583777Y-71634346D01*
X165615017Y-71659983D01*
X165640654Y-71691223D01*
X165659704Y-71726862D01*
X165671435Y-71765532D01*
X165676000Y-71811888D01*
X165676000Y-72888112D01*
X165671435Y-72934468D01*
X165659704Y-72973138D01*
X165640654Y-73008777D01*
X165615017Y-73040017D01*
X165583777Y-73065654D01*
X165548138Y-73084704D01*
X165509468Y-73096435D01*
X165463112Y-73101000D01*
X164811888Y-73101000D01*
X164765532Y-73096435D01*
X164726862Y-73084704D01*
X164691223Y-73065654D01*
X164659983Y-73040017D01*
X164634346Y-73008777D01*
X164615296Y-72973138D01*
X164603565Y-72934468D01*
X164599000Y-72888112D01*
X164599000Y-71811888D01*
X164603565Y-71765532D01*
X164615296Y-71726862D01*
X164634346Y-71691223D01*
X164659983Y-71659983D01*
X164691223Y-71634346D01*
X164726862Y-71615296D01*
X164765532Y-71603565D01*
X164811888Y-71599000D01*
X165463112Y-71599000D01*
X165509468Y-71603565D01*
G37*
G36*
X177471968Y-71503565D02*
G01*
X177510638Y-71515296D01*
X177546277Y-71534346D01*
X177577517Y-71559983D01*
X177603154Y-71591223D01*
X177622204Y-71626862D01*
X177633935Y-71665532D01*
X177638500Y-71711888D01*
X177638500Y-72788112D01*
X177633935Y-72834468D01*
X177622204Y-72873138D01*
X177603154Y-72908777D01*
X177577517Y-72940017D01*
X177546277Y-72965654D01*
X177510638Y-72984704D01*
X177471968Y-72996435D01*
X177425612Y-73001000D01*
X176774388Y-73001000D01*
X176728032Y-72996435D01*
X176689362Y-72984704D01*
X176653723Y-72965654D01*
X176622483Y-72940017D01*
X176596846Y-72908777D01*
X176577796Y-72873138D01*
X176566065Y-72834468D01*
X176561500Y-72788112D01*
X176561500Y-71711888D01*
X176566065Y-71665532D01*
X176577796Y-71626862D01*
X176596846Y-71591223D01*
X176622483Y-71559983D01*
X176653723Y-71534346D01*
X176689362Y-71515296D01*
X176728032Y-71503565D01*
X176774388Y-71499000D01*
X177425612Y-71499000D01*
X177471968Y-71503565D01*
G37*
G36*
X179346968Y-71503565D02*
G01*
X179385638Y-71515296D01*
X179421277Y-71534346D01*
X179452517Y-71559983D01*
X179478154Y-71591223D01*
X179497204Y-71626862D01*
X179508935Y-71665532D01*
X179513500Y-71711888D01*
X179513500Y-72788112D01*
X179508935Y-72834468D01*
X179497204Y-72873138D01*
X179478154Y-72908777D01*
X179452517Y-72940017D01*
X179421277Y-72965654D01*
X179385638Y-72984704D01*
X179346968Y-72996435D01*
X179300612Y-73001000D01*
X178649388Y-73001000D01*
X178603032Y-72996435D01*
X178564362Y-72984704D01*
X178528723Y-72965654D01*
X178497483Y-72940017D01*
X178471846Y-72908777D01*
X178452796Y-72873138D01*
X178441065Y-72834468D01*
X178436500Y-72788112D01*
X178436500Y-71711888D01*
X178441065Y-71665532D01*
X178452796Y-71626862D01*
X178471846Y-71591223D01*
X178497483Y-71559983D01*
X178528723Y-71534346D01*
X178564362Y-71515296D01*
X178603032Y-71503565D01*
X178649388Y-71499000D01*
X179300612Y-71499000D01*
X179346968Y-71503565D01*
G37*
G36*
X174709928Y-72066764D02*
G01*
X174731009Y-72073160D01*
X174750445Y-72083548D01*
X174767476Y-72097524D01*
X174781452Y-72114555D01*
X174791840Y-72133991D01*
X174798236Y-72155072D01*
X174801000Y-72183140D01*
X174801000Y-72646860D01*
X174798236Y-72674928D01*
X174791840Y-72696009D01*
X174781452Y-72715445D01*
X174767476Y-72732476D01*
X174750445Y-72746452D01*
X174731009Y-72756840D01*
X174709928Y-72763236D01*
X174681860Y-72766000D01*
X172868140Y-72766000D01*
X172840072Y-72763236D01*
X172818991Y-72756840D01*
X172799555Y-72746452D01*
X172782524Y-72732476D01*
X172768548Y-72715445D01*
X172758160Y-72696009D01*
X172751764Y-72674928D01*
X172749000Y-72646860D01*
X172749000Y-72183140D01*
X172751764Y-72155072D01*
X172758160Y-72133991D01*
X172768548Y-72114555D01*
X172782524Y-72097524D01*
X172799555Y-72083548D01*
X172818991Y-72073160D01*
X172840072Y-72066764D01*
X172868140Y-72064000D01*
X174681860Y-72064000D01*
X174709928Y-72066764D01*
G37*
G36*
X169759928Y-72066764D02*
G01*
X169781009Y-72073160D01*
X169800445Y-72083548D01*
X169817476Y-72097524D01*
X169831452Y-72114555D01*
X169841840Y-72133991D01*
X169848236Y-72155072D01*
X169851000Y-72183140D01*
X169851000Y-72646860D01*
X169848236Y-72674928D01*
X169841840Y-72696009D01*
X169831452Y-72715445D01*
X169817476Y-72732476D01*
X169800445Y-72746452D01*
X169781009Y-72756840D01*
X169759928Y-72763236D01*
X169731860Y-72766000D01*
X167918140Y-72766000D01*
X167890072Y-72763236D01*
X167868991Y-72756840D01*
X167849555Y-72746452D01*
X167832524Y-72732476D01*
X167818548Y-72715445D01*
X167808160Y-72696009D01*
X167801764Y-72674928D01*
X167799000Y-72646860D01*
X167799000Y-72183140D01*
X167801764Y-72155072D01*
X167808160Y-72133991D01*
X167818548Y-72114555D01*
X167832524Y-72097524D01*
X167849555Y-72083548D01*
X167868991Y-72073160D01*
X167890072Y-72066764D01*
X167918140Y-72064000D01*
X169731860Y-72064000D01*
X169759928Y-72066764D01*
G37*
G36*
X174709928Y-70796764D02*
G01*
X174731009Y-70803160D01*
X174750445Y-70813548D01*
X174767476Y-70827524D01*
X174781452Y-70844555D01*
X174791840Y-70863991D01*
X174798236Y-70885072D01*
X174801000Y-70913140D01*
X174801000Y-71376860D01*
X174798236Y-71404928D01*
X174791840Y-71426009D01*
X174781452Y-71445445D01*
X174767476Y-71462476D01*
X174750445Y-71476452D01*
X174731009Y-71486840D01*
X174709928Y-71493236D01*
X174681860Y-71496000D01*
X172868140Y-71496000D01*
X172840072Y-71493236D01*
X172818991Y-71486840D01*
X172799555Y-71476452D01*
X172782524Y-71462476D01*
X172768548Y-71445445D01*
X172758160Y-71426009D01*
X172751764Y-71404928D01*
X172749000Y-71376860D01*
X172749000Y-70913140D01*
X172751764Y-70885072D01*
X172758160Y-70863991D01*
X172768548Y-70844555D01*
X172782524Y-70827524D01*
X172799555Y-70813548D01*
X172818991Y-70803160D01*
X172840072Y-70796764D01*
X172868140Y-70794000D01*
X174681860Y-70794000D01*
X174709928Y-70796764D01*
G37*
G36*
X169759928Y-70796764D02*
G01*
X169781009Y-70803160D01*
X169800445Y-70813548D01*
X169817476Y-70827524D01*
X169831452Y-70844555D01*
X169841840Y-70863991D01*
X169848236Y-70885072D01*
X169851000Y-70913140D01*
X169851000Y-71376860D01*
X169848236Y-71404928D01*
X169841840Y-71426009D01*
X169831452Y-71445445D01*
X169817476Y-71462476D01*
X169800445Y-71476452D01*
X169781009Y-71486840D01*
X169759928Y-71493236D01*
X169731860Y-71496000D01*
X167918140Y-71496000D01*
X167890072Y-71493236D01*
X167868991Y-71486840D01*
X167849555Y-71476452D01*
X167832524Y-71462476D01*
X167818548Y-71445445D01*
X167808160Y-71426009D01*
X167801764Y-71404928D01*
X167799000Y-71376860D01*
X167799000Y-70913140D01*
X167801764Y-70885072D01*
X167808160Y-70863991D01*
X167818548Y-70844555D01*
X167832524Y-70827524D01*
X167849555Y-70813548D01*
X167868991Y-70803160D01*
X167890072Y-70796764D01*
X167918140Y-70794000D01*
X169731860Y-70794000D01*
X169759928Y-70796764D01*
G37*
G36*
X165509468Y-69503565D02*
G01*
X165548138Y-69515296D01*
X165583777Y-69534346D01*
X165615017Y-69559983D01*
X165640654Y-69591223D01*
X165659704Y-69626862D01*
X165671435Y-69665532D01*
X165676000Y-69711888D01*
X165676000Y-70788112D01*
X165671435Y-70834468D01*
X165659704Y-70873138D01*
X165640654Y-70908777D01*
X165615017Y-70940017D01*
X165583777Y-70965654D01*
X165548138Y-70984704D01*
X165509468Y-70996435D01*
X165463112Y-71001000D01*
X164811888Y-71001000D01*
X164765532Y-70996435D01*
X164726862Y-70984704D01*
X164691223Y-70965654D01*
X164659983Y-70940017D01*
X164634346Y-70908777D01*
X164615296Y-70873138D01*
X164603565Y-70834468D01*
X164599000Y-70788112D01*
X164599000Y-69711888D01*
X164603565Y-69665532D01*
X164615296Y-69626862D01*
X164634346Y-69591223D01*
X164659983Y-69559983D01*
X164691223Y-69534346D01*
X164726862Y-69515296D01*
X164765532Y-69503565D01*
X164811888Y-69499000D01*
X165463112Y-69499000D01*
X165509468Y-69503565D01*
G37*
G36*
X163634468Y-69503565D02*
G01*
X163673138Y-69515296D01*
X163708777Y-69534346D01*
X163740017Y-69559983D01*
X163765654Y-69591223D01*
X163784704Y-69626862D01*
X163796435Y-69665532D01*
X163801000Y-69711888D01*
X163801000Y-70788112D01*
X163796435Y-70834468D01*
X163784704Y-70873138D01*
X163765654Y-70908777D01*
X163740017Y-70940017D01*
X163708777Y-70965654D01*
X163673138Y-70984704D01*
X163634468Y-70996435D01*
X163588112Y-71001000D01*
X162936888Y-71001000D01*
X162890532Y-70996435D01*
X162851862Y-70984704D01*
X162816223Y-70965654D01*
X162784983Y-70940017D01*
X162759346Y-70908777D01*
X162740296Y-70873138D01*
X162728565Y-70834468D01*
X162724000Y-70788112D01*
X162724000Y-69711888D01*
X162728565Y-69665532D01*
X162740296Y-69626862D01*
X162759346Y-69591223D01*
X162784983Y-69559983D01*
X162816223Y-69534346D01*
X162851862Y-69515296D01*
X162890532Y-69503565D01*
X162936888Y-69499000D01*
X163588112Y-69499000D01*
X163634468Y-69503565D01*
G37*
G36*
X157805589Y-69364876D02*
G01*
X157904893Y-69384629D01*
X158045206Y-69442748D01*
X158171484Y-69527125D01*
X158278875Y-69634516D01*
X158363252Y-69760794D01*
X158421371Y-69901107D01*
X158451000Y-70050063D01*
X158451000Y-70201937D01*
X158421371Y-70350893D01*
X158363252Y-70491206D01*
X158278875Y-70617484D01*
X158171484Y-70724875D01*
X158045206Y-70809252D01*
X157904893Y-70867371D01*
X157815903Y-70885072D01*
X157755938Y-70897000D01*
X157604062Y-70897000D01*
X157544097Y-70885072D01*
X157455107Y-70867371D01*
X157314794Y-70809252D01*
X157188516Y-70724875D01*
X157081125Y-70617484D01*
X156996748Y-70491206D01*
X156938629Y-70350893D01*
X156909000Y-70201937D01*
X156909000Y-70050063D01*
X156938629Y-69901107D01*
X156996748Y-69760794D01*
X157081125Y-69634516D01*
X157188516Y-69527125D01*
X157314794Y-69442748D01*
X157455107Y-69384629D01*
X157554411Y-69364876D01*
X157604062Y-69355000D01*
X157755938Y-69355000D01*
X157805589Y-69364876D01*
G37*
G36*
X177471968Y-69053565D02*
G01*
X177510638Y-69065296D01*
X177546277Y-69084346D01*
X177577517Y-69109983D01*
X177603154Y-69141223D01*
X177622204Y-69176862D01*
X177633935Y-69215532D01*
X177638500Y-69261888D01*
X177638500Y-70338112D01*
X177633935Y-70384468D01*
X177622204Y-70423138D01*
X177603154Y-70458777D01*
X177577517Y-70490017D01*
X177546277Y-70515654D01*
X177510638Y-70534704D01*
X177471968Y-70546435D01*
X177425612Y-70551000D01*
X176774388Y-70551000D01*
X176728032Y-70546435D01*
X176689362Y-70534704D01*
X176653723Y-70515654D01*
X176622483Y-70490017D01*
X176596846Y-70458777D01*
X176577796Y-70423138D01*
X176566065Y-70384468D01*
X176561500Y-70338112D01*
X176561500Y-69261888D01*
X176566065Y-69215532D01*
X176577796Y-69176862D01*
X176596846Y-69141223D01*
X176622483Y-69109983D01*
X176653723Y-69084346D01*
X176689362Y-69065296D01*
X176728032Y-69053565D01*
X176774388Y-69049000D01*
X177425612Y-69049000D01*
X177471968Y-69053565D01*
G37*
G36*
X179346968Y-69053565D02*
G01*
X179385638Y-69065296D01*
X179421277Y-69084346D01*
X179452517Y-69109983D01*
X179478154Y-69141223D01*
X179497204Y-69176862D01*
X179508935Y-69215532D01*
X179513500Y-69261888D01*
X179513500Y-70338112D01*
X179508935Y-70384468D01*
X179497204Y-70423138D01*
X179478154Y-70458777D01*
X179452517Y-70490017D01*
X179421277Y-70515654D01*
X179385638Y-70534704D01*
X179346968Y-70546435D01*
X179300612Y-70551000D01*
X178649388Y-70551000D01*
X178603032Y-70546435D01*
X178564362Y-70534704D01*
X178528723Y-70515654D01*
X178497483Y-70490017D01*
X178471846Y-70458777D01*
X178452796Y-70423138D01*
X178441065Y-70384468D01*
X178436500Y-70338112D01*
X178436500Y-69261888D01*
X178441065Y-69215532D01*
X178452796Y-69176862D01*
X178471846Y-69141223D01*
X178497483Y-69109983D01*
X178528723Y-69084346D01*
X178564362Y-69065296D01*
X178603032Y-69053565D01*
X178649388Y-69049000D01*
X179300612Y-69049000D01*
X179346968Y-69053565D01*
G37*
G36*
X157805589Y-66824876D02*
G01*
X157904893Y-66844629D01*
X158045206Y-66902748D01*
X158171484Y-66987125D01*
X158278875Y-67094516D01*
X158363252Y-67220794D01*
X158421371Y-67361107D01*
X158451000Y-67510063D01*
X158451000Y-67661937D01*
X158421371Y-67810893D01*
X158363252Y-67951206D01*
X158278875Y-68077484D01*
X158171484Y-68184875D01*
X158045206Y-68269252D01*
X157904893Y-68327371D01*
X157805589Y-68347124D01*
X157755938Y-68357000D01*
X157604062Y-68357000D01*
X157554411Y-68347124D01*
X157455107Y-68327371D01*
X157314794Y-68269252D01*
X157188516Y-68184875D01*
X157081125Y-68077484D01*
X156996748Y-67951206D01*
X156938629Y-67810893D01*
X156909000Y-67661937D01*
X156909000Y-67510063D01*
X156938629Y-67361107D01*
X156996748Y-67220794D01*
X157081125Y-67094516D01*
X157188516Y-66987125D01*
X157314794Y-66902748D01*
X157455107Y-66844629D01*
X157554411Y-66824876D01*
X157604062Y-66815000D01*
X157755938Y-66815000D01*
X157805589Y-66824876D01*
G37*
G36*
X154376000Y-67526000D02*
G01*
X152524000Y-67526000D01*
X152524000Y-66174000D01*
X154376000Y-66174000D01*
X154376000Y-67526000D01*
G37*
G36*
X157805589Y-64284876D02*
G01*
X157904893Y-64304629D01*
X158045206Y-64362748D01*
X158171484Y-64447125D01*
X158278875Y-64554516D01*
X158363252Y-64680794D01*
X158421371Y-64821107D01*
X158451000Y-64970063D01*
X158451000Y-65121937D01*
X158421371Y-65270893D01*
X158363252Y-65411206D01*
X158278875Y-65537484D01*
X158171484Y-65644875D01*
X158045206Y-65729252D01*
X157904893Y-65787371D01*
X157805589Y-65807124D01*
X157755938Y-65817000D01*
X157604062Y-65817000D01*
X157554411Y-65807124D01*
X157455107Y-65787371D01*
X157314794Y-65729252D01*
X157188516Y-65644875D01*
X157081125Y-65537484D01*
X156996748Y-65411206D01*
X156938629Y-65270893D01*
X156909000Y-65121937D01*
X156909000Y-64970063D01*
X156938629Y-64821107D01*
X156996748Y-64680794D01*
X157081125Y-64554516D01*
X157188516Y-64447125D01*
X157314794Y-64362748D01*
X157455107Y-64304629D01*
X157554411Y-64284876D01*
X157604062Y-64275000D01*
X157755938Y-64275000D01*
X157805589Y-64284876D01*
G37*
G36*
X154376000Y-64726000D02*
G01*
X152524000Y-64726000D01*
X152524000Y-63374000D01*
X154376000Y-63374000D01*
X154376000Y-64726000D01*
G37*
G36*
X162288585Y-58978802D02*
G01*
X162438410Y-59008604D01*
X162720674Y-59125521D01*
X162974705Y-59295259D01*
X163190741Y-59511295D01*
X163360479Y-59765326D01*
X163477396Y-60047590D01*
X163537000Y-60347240D01*
X163537000Y-60652760D01*
X163477396Y-60952410D01*
X163360479Y-61234674D01*
X163190741Y-61488705D01*
X162974705Y-61704741D01*
X162720674Y-61874479D01*
X162438410Y-61991396D01*
X162288585Y-62021198D01*
X162138761Y-62051000D01*
X161833239Y-62051000D01*
X161683415Y-62021198D01*
X161533590Y-61991396D01*
X161251326Y-61874479D01*
X160997295Y-61704741D01*
X160781259Y-61488705D01*
X160611521Y-61234674D01*
X160494604Y-60952410D01*
X160435000Y-60652760D01*
X160435000Y-60347240D01*
X160494604Y-60047590D01*
X160611521Y-59765326D01*
X160781259Y-59511295D01*
X160997295Y-59295259D01*
X161251326Y-59125521D01*
X161533590Y-59008604D01*
X161683415Y-58978802D01*
X161833239Y-58949000D01*
X162138761Y-58949000D01*
X162288585Y-58978802D01*
G37*
G36*
X158088585Y-58978802D02*
G01*
X158238410Y-59008604D01*
X158520674Y-59125521D01*
X158774705Y-59295259D01*
X158990741Y-59511295D01*
X159160479Y-59765326D01*
X159277396Y-60047590D01*
X159337000Y-60347240D01*
X159337000Y-60652760D01*
X159277396Y-60952410D01*
X159160479Y-61234674D01*
X158990741Y-61488705D01*
X158774705Y-61704741D01*
X158520674Y-61874479D01*
X158238410Y-61991396D01*
X158088585Y-62021198D01*
X157938761Y-62051000D01*
X157633239Y-62051000D01*
X157483415Y-62021198D01*
X157333590Y-61991396D01*
X157051326Y-61874479D01*
X156797295Y-61704741D01*
X156581259Y-61488705D01*
X156411521Y-61234674D01*
X156294604Y-60952410D01*
X156235000Y-60652760D01*
X156235000Y-60347240D01*
X156294604Y-60047590D01*
X156411521Y-59765326D01*
X156581259Y-59511295D01*
X156797295Y-59295259D01*
X157051326Y-59125521D01*
X157333590Y-59008604D01*
X157483415Y-58978802D01*
X157633239Y-58949000D01*
X157938761Y-58949000D01*
X158088585Y-58978802D01*
G37*
G36*
X176302585Y-58978802D02*
G01*
X176452410Y-59008604D01*
X176734674Y-59125521D01*
X176988705Y-59295259D01*
X177204741Y-59511295D01*
X177374479Y-59765326D01*
X177491396Y-60047590D01*
X177551000Y-60347240D01*
X177551000Y-60652760D01*
X177491396Y-60952410D01*
X177374479Y-61234674D01*
X177204741Y-61488705D01*
X176988705Y-61704741D01*
X176734674Y-61874479D01*
X176452410Y-61991396D01*
X176302585Y-62021198D01*
X176152761Y-62051000D01*
X175847239Y-62051000D01*
X175697415Y-62021198D01*
X175547590Y-61991396D01*
X175265326Y-61874479D01*
X175011295Y-61704741D01*
X174795259Y-61488705D01*
X174625521Y-61234674D01*
X174508604Y-60952410D01*
X174449000Y-60652760D01*
X174449000Y-60347240D01*
X174508604Y-60047590D01*
X174625521Y-59765326D01*
X174795259Y-59511295D01*
X175011295Y-59295259D01*
X175265326Y-59125521D01*
X175547590Y-59008604D01*
X175697415Y-58978802D01*
X175847239Y-58949000D01*
X176152761Y-58949000D01*
X176302585Y-58978802D01*
G37*
G36*
X180502585Y-58978802D02*
G01*
X180652410Y-59008604D01*
X180934674Y-59125521D01*
X181188705Y-59295259D01*
X181404741Y-59511295D01*
X181574479Y-59765326D01*
X181691396Y-60047590D01*
X181751000Y-60347240D01*
X181751000Y-60652760D01*
X181691396Y-60952410D01*
X181574479Y-61234674D01*
X181404741Y-61488705D01*
X181188705Y-61704741D01*
X180934674Y-61874479D01*
X180652410Y-61991396D01*
X180502585Y-62021198D01*
X180352761Y-62051000D01*
X180047239Y-62051000D01*
X179897415Y-62021198D01*
X179747590Y-61991396D01*
X179465326Y-61874479D01*
X179211295Y-61704741D01*
X178995259Y-61488705D01*
X178825521Y-61234674D01*
X178708604Y-60952410D01*
X178649000Y-60652760D01*
X178649000Y-60347240D01*
X178708604Y-60047590D01*
X178825521Y-59765326D01*
X178995259Y-59511295D01*
X179211295Y-59295259D01*
X179465326Y-59125521D01*
X179747590Y-59008604D01*
X179897415Y-58978802D01*
X180047239Y-58949000D01*
X180352761Y-58949000D01*
X180502585Y-58978802D01*
G37*
G36*
X159254029Y-53451571D02*
G01*
X159273223Y-53457394D01*
X159290918Y-53466852D01*
X159306423Y-53479577D01*
X159319148Y-53495082D01*
X159328606Y-53512777D01*
X159334429Y-53531971D01*
X159337000Y-53558077D01*
X159337000Y-56441923D01*
X159334429Y-56468029D01*
X159328606Y-56487223D01*
X159319148Y-56504918D01*
X159306423Y-56520423D01*
X159290918Y-56533148D01*
X159273223Y-56542606D01*
X159254029Y-56548429D01*
X159227923Y-56551000D01*
X156344077Y-56551000D01*
X156317971Y-56548429D01*
X156298777Y-56542606D01*
X156281082Y-56533148D01*
X156265577Y-56520423D01*
X156252852Y-56504918D01*
X156243394Y-56487223D01*
X156237571Y-56468029D01*
X156235000Y-56441923D01*
X156235000Y-53558077D01*
X156237571Y-53531971D01*
X156243394Y-53512777D01*
X156252852Y-53495082D01*
X156265577Y-53479577D01*
X156281082Y-53466852D01*
X156298777Y-53457394D01*
X156317971Y-53451571D01*
X156344077Y-53449000D01*
X159227923Y-53449000D01*
X159254029Y-53451571D01*
G37*
G36*
X177468029Y-53451571D02*
G01*
X177487223Y-53457394D01*
X177504918Y-53466852D01*
X177520423Y-53479577D01*
X177533148Y-53495082D01*
X177542606Y-53512777D01*
X177548429Y-53531971D01*
X177551000Y-53558077D01*
X177551000Y-56441923D01*
X177548429Y-56468029D01*
X177542606Y-56487223D01*
X177533148Y-56504918D01*
X177520423Y-56520423D01*
X177504918Y-56533148D01*
X177487223Y-56542606D01*
X177468029Y-56548429D01*
X177441923Y-56551000D01*
X174558077Y-56551000D01*
X174531971Y-56548429D01*
X174512777Y-56542606D01*
X174495082Y-56533148D01*
X174479577Y-56520423D01*
X174466852Y-56504918D01*
X174457394Y-56487223D01*
X174451571Y-56468029D01*
X174449000Y-56441923D01*
X174449000Y-53558077D01*
X174451571Y-53531971D01*
X174457394Y-53512777D01*
X174466852Y-53495082D01*
X174479577Y-53479577D01*
X174495082Y-53466852D01*
X174512777Y-53457394D01*
X174531971Y-53451571D01*
X174558077Y-53449000D01*
X177441923Y-53449000D01*
X177468029Y-53451571D01*
G37*
G36*
X180502585Y-53478802D02*
G01*
X180652410Y-53508604D01*
X180934674Y-53625521D01*
X181188705Y-53795259D01*
X181404741Y-54011295D01*
X181574479Y-54265326D01*
X181691396Y-54547590D01*
X181751000Y-54847240D01*
X181751000Y-55152760D01*
X181691396Y-55452410D01*
X181574479Y-55734674D01*
X181404741Y-55988705D01*
X181188705Y-56204741D01*
X180934674Y-56374479D01*
X180652410Y-56491396D01*
X180584430Y-56504918D01*
X180352761Y-56551000D01*
X180047239Y-56551000D01*
X179815570Y-56504918D01*
X179747590Y-56491396D01*
X179465326Y-56374479D01*
X179211295Y-56204741D01*
X178995259Y-55988705D01*
X178825521Y-55734674D01*
X178708604Y-55452410D01*
X178649000Y-55152760D01*
X178649000Y-54847240D01*
X178708604Y-54547590D01*
X178825521Y-54265326D01*
X178995259Y-54011295D01*
X179211295Y-53795259D01*
X179465326Y-53625521D01*
X179747590Y-53508604D01*
X179897415Y-53478802D01*
X180047239Y-53449000D01*
X180352761Y-53449000D01*
X180502585Y-53478802D01*
G37*
G36*
X162288585Y-53478802D02*
G01*
X162438410Y-53508604D01*
X162720674Y-53625521D01*
X162974705Y-53795259D01*
X163190741Y-54011295D01*
X163360479Y-54265326D01*
X163477396Y-54547590D01*
X163537000Y-54847240D01*
X163537000Y-55152760D01*
X163477396Y-55452410D01*
X163360479Y-55734674D01*
X163190741Y-55988705D01*
X162974705Y-56204741D01*
X162720674Y-56374479D01*
X162438410Y-56491396D01*
X162370430Y-56504918D01*
X162138761Y-56551000D01*
X161833239Y-56551000D01*
X161601570Y-56504918D01*
X161533590Y-56491396D01*
X161251326Y-56374479D01*
X160997295Y-56204741D01*
X160781259Y-55988705D01*
X160611521Y-55734674D01*
X160494604Y-55452410D01*
X160435000Y-55152760D01*
X160435000Y-54847240D01*
X160494604Y-54547590D01*
X160611521Y-54265326D01*
X160781259Y-54011295D01*
X160997295Y-53795259D01*
X161251326Y-53625521D01*
X161533590Y-53508604D01*
X161683415Y-53478802D01*
X161833239Y-53449000D01*
X162138761Y-53449000D01*
X162288585Y-53478802D01*
G37*
G36*
X178386885Y-46175679D02*
G01*
X178552410Y-46208604D01*
X178834674Y-46325521D01*
X179088705Y-46495259D01*
X179304741Y-46711295D01*
X179474479Y-46965326D01*
X179591396Y-47247590D01*
X179651000Y-47547240D01*
X179651000Y-47852760D01*
X179591396Y-48152410D01*
X179474479Y-48434674D01*
X179304741Y-48688705D01*
X179088705Y-48904741D01*
X178834674Y-49074479D01*
X178552410Y-49191396D01*
X178402585Y-49221198D01*
X178252761Y-49251000D01*
X177947239Y-49251000D01*
X177797415Y-49221198D01*
X177647590Y-49191396D01*
X177365326Y-49074479D01*
X177111295Y-48904741D01*
X176895259Y-48688705D01*
X176725521Y-48434674D01*
X176608604Y-48152410D01*
X176549000Y-47852760D01*
X176549000Y-47547240D01*
X176608604Y-47247590D01*
X176725521Y-46965326D01*
X176895259Y-46711295D01*
X177111295Y-46495259D01*
X177365326Y-46325521D01*
X177647590Y-46208604D01*
X177813115Y-46175679D01*
X177947239Y-46149000D01*
X178252761Y-46149000D01*
X178386885Y-46175679D01*
G37*
G36*
X160172885Y-46175679D02*
G01*
X160338410Y-46208604D01*
X160620674Y-46325521D01*
X160874705Y-46495259D01*
X161090741Y-46711295D01*
X161260479Y-46965326D01*
X161377396Y-47247590D01*
X161437000Y-47547240D01*
X161437000Y-47852760D01*
X161377396Y-48152410D01*
X161260479Y-48434674D01*
X161090741Y-48688705D01*
X160874705Y-48904741D01*
X160620674Y-49074479D01*
X160338410Y-49191396D01*
X160188585Y-49221198D01*
X160038761Y-49251000D01*
X159733239Y-49251000D01*
X159583415Y-49221198D01*
X159433590Y-49191396D01*
X159151326Y-49074479D01*
X158897295Y-48904741D01*
X158681259Y-48688705D01*
X158511521Y-48434674D01*
X158394604Y-48152410D01*
X158335000Y-47852760D01*
X158335000Y-47547240D01*
X158394604Y-47247590D01*
X158511521Y-46965326D01*
X158681259Y-46711295D01*
X158897295Y-46495259D01*
X159151326Y-46325521D01*
X159433590Y-46208604D01*
X159599115Y-46175679D01*
X159733239Y-46149000D01*
X160038761Y-46149000D01*
X160172885Y-46175679D01*
G37*
G36*
X191817021Y-41306640D02*
G01*
X192326769Y-41517785D01*
X192326771Y-41517786D01*
X192785534Y-41824321D01*
X193175679Y-42214466D01*
X193482214Y-42673229D01*
X193482215Y-42673231D01*
X193693360Y-43182979D01*
X193801000Y-43724124D01*
X193801000Y-44275876D01*
X193693360Y-44817021D01*
X193482215Y-45326769D01*
X193482214Y-45326771D01*
X193175679Y-45785534D01*
X192785534Y-46175679D01*
X192326771Y-46482214D01*
X192326770Y-46482215D01*
X192326769Y-46482215D01*
X191817021Y-46693360D01*
X191275876Y-46801000D01*
X190724124Y-46801000D01*
X190182979Y-46693360D01*
X189673231Y-46482215D01*
X189673230Y-46482215D01*
X189673229Y-46482214D01*
X189214466Y-46175679D01*
X188824321Y-45785534D01*
X188517786Y-45326771D01*
X188517785Y-45326769D01*
X188306640Y-44817021D01*
X188199000Y-44275876D01*
X188199000Y-43724124D01*
X188306640Y-43182979D01*
X188517785Y-42673231D01*
X188517786Y-42673229D01*
X188824321Y-42214466D01*
X189214466Y-41824321D01*
X189673229Y-41517786D01*
X189673231Y-41517785D01*
X190182979Y-41306640D01*
X190724124Y-41199000D01*
X191275876Y-41199000D01*
X191817021Y-41306640D01*
G37*
G36*
X149817021Y-41306640D02*
G01*
X150326769Y-41517785D01*
X150326771Y-41517786D01*
X150785534Y-41824321D01*
X151175679Y-42214466D01*
X151482214Y-42673229D01*
X151482215Y-42673231D01*
X151693360Y-43182979D01*
X151801000Y-43724124D01*
X151801000Y-44275876D01*
X151693360Y-44817021D01*
X151482215Y-45326769D01*
X151482214Y-45326771D01*
X151175679Y-45785534D01*
X150785534Y-46175679D01*
X150326771Y-46482214D01*
X150326770Y-46482215D01*
X150326769Y-46482215D01*
X149817021Y-46693360D01*
X149275876Y-46801000D01*
X148724124Y-46801000D01*
X148182979Y-46693360D01*
X147673231Y-46482215D01*
X147673230Y-46482215D01*
X147673229Y-46482214D01*
X147214466Y-46175679D01*
X146824321Y-45785534D01*
X146517786Y-45326771D01*
X146517785Y-45326769D01*
X146306640Y-44817021D01*
X146199000Y-44275876D01*
X146199000Y-43724124D01*
X146306640Y-43182979D01*
X146517785Y-42673231D01*
X146517786Y-42673229D01*
X146824321Y-42214466D01*
X147214466Y-41824321D01*
X147673229Y-41517786D01*
X147673231Y-41517785D01*
X148182979Y-41306640D01*
X148724124Y-41199000D01*
X149275876Y-41199000D01*
X149817021Y-41306640D01*
G37*
M02*
