G04 #@! TF.GenerationSoftware,KiCad,Pcbnew,(5.1.5)-3*
G04 #@! TF.CreationDate,2020-09-18T03:55:18-03:00*
G04 #@! TF.ProjectId,Pre charge & discharge,50726520-6368-4617-9267-652026206469,rev?*
G04 #@! TF.SameCoordinates,Original*
G04 #@! TF.FileFunction,Copper,L2,Bot*
G04 #@! TF.FilePolarity,Positive*
%FSLAX46Y46*%
G04 Gerber Fmt 4.6, Leading zero omitted, Abs format (unit mm)*
G04 Created by KiCad (PCBNEW (5.1.5)-3) date 2020-09-18 03:55:18*
%MOMM*%
%LPD*%
G04 APERTURE LIST*
%ADD10C,5.500000*%
%ADD11C,0.100000*%
%ADD12C,3.000000*%
%ADD13O,1.905000X2.000000*%
%ADD14R,1.905000X2.000000*%
%ADD15C,1.440000*%
%ADD16C,1.500000*%
%ADD17C,1.000000*%
%ADD18C,0.800000*%
%ADD19C,0.254000*%
G04 APERTURE END LIST*
D10*
X191000000Y-44000000D03*
X149000000Y-44000000D03*
X149000000Y-86000000D03*
X191000000Y-86000000D03*
G04 #@! TA.AperFunction,ComponentPad*
D11*
G36*
X159101995Y-53500982D02*
G01*
X159121798Y-53503920D01*
X159141218Y-53508784D01*
X159160067Y-53515529D01*
X159178165Y-53524088D01*
X159195336Y-53534380D01*
X159211416Y-53546306D01*
X159226250Y-53559750D01*
X159239694Y-53574584D01*
X159251620Y-53590664D01*
X159261912Y-53607835D01*
X159270471Y-53625933D01*
X159277216Y-53644782D01*
X159282080Y-53664202D01*
X159285018Y-53684005D01*
X159286000Y-53704000D01*
X159286000Y-56296000D01*
X159285018Y-56315995D01*
X159282080Y-56335798D01*
X159277216Y-56355218D01*
X159270471Y-56374067D01*
X159261912Y-56392165D01*
X159251620Y-56409336D01*
X159239694Y-56425416D01*
X159226250Y-56440250D01*
X159211416Y-56453694D01*
X159195336Y-56465620D01*
X159178165Y-56475912D01*
X159160067Y-56484471D01*
X159141218Y-56491216D01*
X159121798Y-56496080D01*
X159101995Y-56499018D01*
X159082000Y-56500000D01*
X156490000Y-56500000D01*
X156470005Y-56499018D01*
X156450202Y-56496080D01*
X156430782Y-56491216D01*
X156411933Y-56484471D01*
X156393835Y-56475912D01*
X156376664Y-56465620D01*
X156360584Y-56453694D01*
X156345750Y-56440250D01*
X156332306Y-56425416D01*
X156320380Y-56409336D01*
X156310088Y-56392165D01*
X156301529Y-56374067D01*
X156294784Y-56355218D01*
X156289920Y-56335798D01*
X156286982Y-56315995D01*
X156286000Y-56296000D01*
X156286000Y-53704000D01*
X156286982Y-53684005D01*
X156289920Y-53664202D01*
X156294784Y-53644782D01*
X156301529Y-53625933D01*
X156310088Y-53607835D01*
X156320380Y-53590664D01*
X156332306Y-53574584D01*
X156345750Y-53559750D01*
X156360584Y-53546306D01*
X156376664Y-53534380D01*
X156393835Y-53524088D01*
X156411933Y-53515529D01*
X156430782Y-53508784D01*
X156450202Y-53503920D01*
X156470005Y-53500982D01*
X156490000Y-53500000D01*
X159082000Y-53500000D01*
X159101995Y-53500982D01*
G37*
G04 #@! TD.AperFunction*
D12*
X161986000Y-55000000D03*
X157786000Y-60500000D03*
X161986000Y-60500000D03*
D13*
X175320000Y-84550000D03*
X177860000Y-84550000D03*
D14*
X180400000Y-84550000D03*
X162700000Y-84300000D03*
D13*
X160160000Y-84300000D03*
X157620000Y-84300000D03*
D15*
X157680000Y-70126000D03*
X157680000Y-67586000D03*
X157680000Y-65046000D03*
D12*
X180200000Y-60500000D03*
X176000000Y-60500000D03*
X180200000Y-55000000D03*
G04 #@! TA.AperFunction,ComponentPad*
D11*
G36*
X177315995Y-53500982D02*
G01*
X177335798Y-53503920D01*
X177355218Y-53508784D01*
X177374067Y-53515529D01*
X177392165Y-53524088D01*
X177409336Y-53534380D01*
X177425416Y-53546306D01*
X177440250Y-53559750D01*
X177453694Y-53574584D01*
X177465620Y-53590664D01*
X177475912Y-53607835D01*
X177484471Y-53625933D01*
X177491216Y-53644782D01*
X177496080Y-53664202D01*
X177499018Y-53684005D01*
X177500000Y-53704000D01*
X177500000Y-56296000D01*
X177499018Y-56315995D01*
X177496080Y-56335798D01*
X177491216Y-56355218D01*
X177484471Y-56374067D01*
X177475912Y-56392165D01*
X177465620Y-56409336D01*
X177453694Y-56425416D01*
X177440250Y-56440250D01*
X177425416Y-56453694D01*
X177409336Y-56465620D01*
X177392165Y-56475912D01*
X177374067Y-56484471D01*
X177355218Y-56491216D01*
X177335798Y-56496080D01*
X177315995Y-56499018D01*
X177296000Y-56500000D01*
X174704000Y-56500000D01*
X174684005Y-56499018D01*
X174664202Y-56496080D01*
X174644782Y-56491216D01*
X174625933Y-56484471D01*
X174607835Y-56475912D01*
X174590664Y-56465620D01*
X174574584Y-56453694D01*
X174559750Y-56440250D01*
X174546306Y-56425416D01*
X174534380Y-56409336D01*
X174524088Y-56392165D01*
X174515529Y-56374067D01*
X174508784Y-56355218D01*
X174503920Y-56335798D01*
X174500982Y-56315995D01*
X174500000Y-56296000D01*
X174500000Y-53704000D01*
X174500982Y-53684005D01*
X174503920Y-53664202D01*
X174508784Y-53644782D01*
X174515529Y-53625933D01*
X174524088Y-53607835D01*
X174534380Y-53590664D01*
X174546306Y-53574584D01*
X174559750Y-53559750D01*
X174574584Y-53546306D01*
X174590664Y-53534380D01*
X174607835Y-53524088D01*
X174625933Y-53515529D01*
X174644782Y-53508784D01*
X174664202Y-53503920D01*
X174684005Y-53500982D01*
X174704000Y-53500000D01*
X177296000Y-53500000D01*
X177315995Y-53500982D01*
G37*
G04 #@! TD.AperFunction*
D16*
X153500000Y-70100000D03*
X171000000Y-78450000D03*
X163262500Y-67037500D03*
X178987500Y-67037500D03*
D17*
X176000000Y-53500000D02*
X177450000Y-52050000D01*
X176000000Y-55000000D02*
X176000000Y-53500000D01*
X177860000Y-82550000D02*
X177860000Y-84550000D01*
X178760000Y-81650000D02*
X177860000Y-82550000D01*
X183950000Y-81650000D02*
X178760000Y-81650000D01*
X184860000Y-53400000D02*
X184860000Y-80740000D01*
X184860000Y-80740000D02*
X183950000Y-81650000D01*
X183510000Y-52050000D02*
X184860000Y-53400000D01*
X177450000Y-52050000D02*
X183510000Y-52050000D01*
X157680000Y-67586000D02*
X157680000Y-65046000D01*
X157680000Y-67586000D02*
X154464000Y-67586000D01*
X154464000Y-67586000D02*
X153450000Y-68600000D01*
X180200000Y-62621320D02*
X180200000Y-60500000D01*
X179171320Y-63650000D02*
X180200000Y-62621320D01*
X157680000Y-64027767D02*
X158057767Y-63650000D01*
X158057767Y-63650000D02*
X179171320Y-63650000D01*
X157680000Y-65046000D02*
X157680000Y-64027767D01*
X153450000Y-68600000D02*
X153450000Y-70150000D01*
X161986000Y-60500000D02*
X161986000Y-55000000D01*
X164107320Y-60500000D02*
X176000000Y-60500000D01*
X161986000Y-60500000D02*
X164107320Y-60500000D01*
D18*
X171000000Y-78450000D02*
X171000000Y-78450000D01*
D17*
X157680000Y-77680000D02*
X157680000Y-70126000D01*
X171000000Y-78450000D02*
X158450000Y-78450000D01*
X158450000Y-78450000D02*
X157680000Y-77680000D01*
X183300000Y-55950000D02*
X182350000Y-55000000D01*
X160160000Y-80840000D02*
X160850000Y-80150000D01*
X182350000Y-55000000D02*
X180200000Y-55000000D01*
X160160000Y-84300000D02*
X160160000Y-80840000D01*
X181470000Y-80150000D02*
X183300000Y-78320000D01*
X160850000Y-80150000D02*
X181470000Y-80150000D01*
X183300000Y-78320000D02*
X183300000Y-55950000D01*
D18*
X178987500Y-67037500D02*
X178987500Y-67037500D01*
D17*
X178987500Y-67037500D02*
X163262500Y-67037500D01*
X157380000Y-60906000D02*
X157786000Y-60500000D01*
X157280000Y-61006000D02*
X157786000Y-60500000D01*
X157680000Y-60606000D02*
X157786000Y-60500000D01*
X157786000Y-60500000D02*
X157786000Y-55000000D01*
D19*
G36*
X188370698Y-41842188D02*
G01*
X188000252Y-42396601D01*
X187745083Y-43012632D01*
X187615000Y-43666607D01*
X187615000Y-44333393D01*
X187745083Y-44987368D01*
X188000252Y-45603399D01*
X188370698Y-46157812D01*
X188842188Y-46629302D01*
X189396601Y-46999748D01*
X190012632Y-47254917D01*
X190666607Y-47385000D01*
X191333393Y-47385000D01*
X191987368Y-47254917D01*
X192603399Y-46999748D01*
X193157812Y-46629302D01*
X193367767Y-46419347D01*
X193328275Y-83541161D01*
X193157812Y-83370698D01*
X192603399Y-83000252D01*
X191987368Y-82745083D01*
X191333393Y-82615000D01*
X190666607Y-82615000D01*
X190012632Y-82745083D01*
X189396601Y-83000252D01*
X188842188Y-83370698D01*
X188370698Y-83842188D01*
X188000252Y-84396601D01*
X187745083Y-85012632D01*
X187615000Y-85666607D01*
X187615000Y-86333393D01*
X187745083Y-86987368D01*
X188000252Y-87603399D01*
X188370698Y-88157812D01*
X188585886Y-88373000D01*
X151414114Y-88373000D01*
X151629302Y-88157812D01*
X151999748Y-87603399D01*
X152254917Y-86987368D01*
X152385000Y-86333393D01*
X152385000Y-85666607D01*
X152254917Y-85012632D01*
X152114594Y-84673863D01*
X156067622Y-84673863D01*
X156161121Y-84970446D01*
X156310684Y-85243089D01*
X156510563Y-85481315D01*
X156753077Y-85675969D01*
X157028906Y-85819571D01*
X157247020Y-85890563D01*
X157493000Y-85770594D01*
X157493000Y-84427000D01*
X156194430Y-84427000D01*
X156067622Y-84673863D01*
X152114594Y-84673863D01*
X151999748Y-84396601D01*
X151685395Y-83926137D01*
X156067622Y-83926137D01*
X156194430Y-84173000D01*
X157493000Y-84173000D01*
X157493000Y-82829406D01*
X157247020Y-82709437D01*
X157028906Y-82780429D01*
X156753077Y-82924031D01*
X156510563Y-83118685D01*
X156310684Y-83356911D01*
X156161121Y-83629554D01*
X156067622Y-83926137D01*
X151685395Y-83926137D01*
X151629302Y-83842188D01*
X151157812Y-83370698D01*
X150603399Y-83000252D01*
X149987368Y-82745083D01*
X149333393Y-82615000D01*
X148666607Y-82615000D01*
X148012632Y-82745083D01*
X147396601Y-83000252D01*
X146842188Y-83370698D01*
X146627000Y-83585886D01*
X146627000Y-69963589D01*
X152115000Y-69963589D01*
X152115000Y-70236411D01*
X152168225Y-70503989D01*
X152272629Y-70756043D01*
X152424201Y-70982886D01*
X152617114Y-71175799D01*
X152843957Y-71327371D01*
X153096011Y-71431775D01*
X153363589Y-71485000D01*
X153636411Y-71485000D01*
X153903989Y-71431775D01*
X154156043Y-71327371D01*
X154382886Y-71175799D01*
X154575799Y-70982886D01*
X154727371Y-70756043D01*
X154831775Y-70503989D01*
X154885000Y-70236411D01*
X154885000Y-69963589D01*
X154831775Y-69696011D01*
X154727371Y-69443957D01*
X154585000Y-69230884D01*
X154585000Y-69070132D01*
X154934132Y-68721000D01*
X156939713Y-68721000D01*
X157038167Y-68786785D01*
X157205266Y-68856000D01*
X157038167Y-68925215D01*
X156816238Y-69073503D01*
X156627503Y-69262238D01*
X156479215Y-69484167D01*
X156377072Y-69730761D01*
X156325000Y-69992544D01*
X156325000Y-70259456D01*
X156377072Y-70521239D01*
X156479215Y-70767833D01*
X156545001Y-70866289D01*
X156545000Y-77624248D01*
X156539509Y-77680000D01*
X156545000Y-77735751D01*
X156561423Y-77902498D01*
X156626324Y-78116446D01*
X156731716Y-78313623D01*
X156873551Y-78486449D01*
X156916864Y-78521995D01*
X157608008Y-79213140D01*
X157643551Y-79256449D01*
X157816377Y-79398284D01*
X158013553Y-79503676D01*
X158227501Y-79568577D01*
X158394248Y-79585000D01*
X158394257Y-79585000D01*
X158449999Y-79590490D01*
X158505741Y-79585000D01*
X159809869Y-79585000D01*
X159396860Y-79998009D01*
X159353552Y-80033551D01*
X159211717Y-80206377D01*
X159159775Y-80303554D01*
X159106324Y-80403554D01*
X159041423Y-80617502D01*
X159019509Y-80840000D01*
X159025001Y-80895761D01*
X159025000Y-83133111D01*
X158884837Y-83303899D01*
X158729437Y-83118685D01*
X158486923Y-82924031D01*
X158211094Y-82780429D01*
X157992980Y-82709437D01*
X157747000Y-82829406D01*
X157747000Y-84173000D01*
X157767000Y-84173000D01*
X157767000Y-84427000D01*
X157747000Y-84427000D01*
X157747000Y-85770594D01*
X157992980Y-85890563D01*
X158211094Y-85819571D01*
X158486923Y-85675969D01*
X158729437Y-85481315D01*
X158884838Y-85296100D01*
X159032037Y-85475463D01*
X159273765Y-85673845D01*
X159549551Y-85821255D01*
X159848796Y-85912030D01*
X160160000Y-85942681D01*
X160471203Y-85912030D01*
X160770448Y-85821255D01*
X161046234Y-85673845D01*
X161172095Y-85570553D01*
X161216963Y-85654494D01*
X161296315Y-85751185D01*
X161393006Y-85830537D01*
X161503320Y-85889502D01*
X161623018Y-85925812D01*
X161747500Y-85938072D01*
X163652500Y-85938072D01*
X163776982Y-85925812D01*
X163896680Y-85889502D01*
X164006994Y-85830537D01*
X164103685Y-85751185D01*
X164183037Y-85654494D01*
X164242002Y-85544180D01*
X164278312Y-85424482D01*
X164290572Y-85300000D01*
X164290572Y-84923863D01*
X173767622Y-84923863D01*
X173861121Y-85220446D01*
X174010684Y-85493089D01*
X174210563Y-85731315D01*
X174453077Y-85925969D01*
X174728906Y-86069571D01*
X174947020Y-86140563D01*
X175193000Y-86020594D01*
X175193000Y-84677000D01*
X173894430Y-84677000D01*
X173767622Y-84923863D01*
X164290572Y-84923863D01*
X164290572Y-84176137D01*
X173767622Y-84176137D01*
X173894430Y-84423000D01*
X175193000Y-84423000D01*
X175193000Y-83079406D01*
X174947020Y-82959437D01*
X174728906Y-83030429D01*
X174453077Y-83174031D01*
X174210563Y-83368685D01*
X174010684Y-83606911D01*
X173861121Y-83879554D01*
X173767622Y-84176137D01*
X164290572Y-84176137D01*
X164290572Y-83300000D01*
X164278312Y-83175518D01*
X164242002Y-83055820D01*
X164183037Y-82945506D01*
X164103685Y-82848815D01*
X164006994Y-82769463D01*
X163896680Y-82710498D01*
X163776982Y-82674188D01*
X163652500Y-82661928D01*
X161747500Y-82661928D01*
X161623018Y-82674188D01*
X161503320Y-82710498D01*
X161393006Y-82769463D01*
X161296315Y-82848815D01*
X161295000Y-82850417D01*
X161295000Y-81310131D01*
X161320131Y-81285000D01*
X177519868Y-81285000D01*
X177096864Y-81708005D01*
X177053551Y-81743551D01*
X176911716Y-81916377D01*
X176820813Y-82086447D01*
X176806324Y-82113554D01*
X176741423Y-82327502D01*
X176719509Y-82550000D01*
X176725000Y-82605752D01*
X176725000Y-83383111D01*
X176584837Y-83553899D01*
X176429437Y-83368685D01*
X176186923Y-83174031D01*
X175911094Y-83030429D01*
X175692980Y-82959437D01*
X175447000Y-83079406D01*
X175447000Y-84423000D01*
X175467000Y-84423000D01*
X175467000Y-84677000D01*
X175447000Y-84677000D01*
X175447000Y-86020594D01*
X175692980Y-86140563D01*
X175911094Y-86069571D01*
X176186923Y-85925969D01*
X176429437Y-85731315D01*
X176584838Y-85546100D01*
X176732037Y-85725463D01*
X176973765Y-85923845D01*
X177249551Y-86071255D01*
X177548796Y-86162030D01*
X177860000Y-86192681D01*
X178171203Y-86162030D01*
X178470448Y-86071255D01*
X178746234Y-85923845D01*
X178872095Y-85820553D01*
X178916963Y-85904494D01*
X178996315Y-86001185D01*
X179093006Y-86080537D01*
X179203320Y-86139502D01*
X179323018Y-86175812D01*
X179447500Y-86188072D01*
X181352500Y-86188072D01*
X181476982Y-86175812D01*
X181596680Y-86139502D01*
X181706994Y-86080537D01*
X181803685Y-86001185D01*
X181883037Y-85904494D01*
X181942002Y-85794180D01*
X181978312Y-85674482D01*
X181990572Y-85550000D01*
X181990572Y-83550000D01*
X181978312Y-83425518D01*
X181942002Y-83305820D01*
X181883037Y-83195506D01*
X181803685Y-83098815D01*
X181706994Y-83019463D01*
X181596680Y-82960498D01*
X181476982Y-82924188D01*
X181352500Y-82911928D01*
X179447500Y-82911928D01*
X179323018Y-82924188D01*
X179203320Y-82960498D01*
X179093006Y-83019463D01*
X178996315Y-83098815D01*
X178995000Y-83100417D01*
X178995000Y-83020131D01*
X179230132Y-82785000D01*
X183894249Y-82785000D01*
X183950000Y-82790491D01*
X184005751Y-82785000D01*
X184005752Y-82785000D01*
X184172499Y-82768577D01*
X184386447Y-82703676D01*
X184583623Y-82598284D01*
X184756449Y-82456449D01*
X184791995Y-82413136D01*
X185623140Y-81581992D01*
X185666449Y-81546449D01*
X185808284Y-81373623D01*
X185913676Y-81176447D01*
X185978577Y-80962499D01*
X185995000Y-80795752D01*
X185995000Y-80795743D01*
X186000490Y-80740001D01*
X185995000Y-80684259D01*
X185995000Y-53455741D01*
X186000490Y-53399999D01*
X185995000Y-53344257D01*
X185995000Y-53344248D01*
X185978577Y-53177501D01*
X185913676Y-52963553D01*
X185808284Y-52766377D01*
X185666449Y-52593551D01*
X185623140Y-52558008D01*
X184351996Y-51286865D01*
X184316449Y-51243551D01*
X184143623Y-51101716D01*
X183946447Y-50996324D01*
X183732499Y-50931423D01*
X183565752Y-50915000D01*
X183565751Y-50915000D01*
X183510000Y-50909509D01*
X183454249Y-50915000D01*
X177505752Y-50915000D01*
X177450000Y-50909509D01*
X177227501Y-50931423D01*
X177013553Y-50996324D01*
X176816377Y-51101716D01*
X176686856Y-51208011D01*
X176686855Y-51208012D01*
X176643551Y-51243551D01*
X176608013Y-51286854D01*
X175236860Y-52658009D01*
X175193552Y-52693551D01*
X175055368Y-52861928D01*
X174704000Y-52861928D01*
X174539720Y-52878108D01*
X174381753Y-52926027D01*
X174236170Y-53003843D01*
X174108565Y-53108565D01*
X174003843Y-53236170D01*
X173926027Y-53381753D01*
X173878108Y-53539720D01*
X173861928Y-53704000D01*
X173861928Y-56296000D01*
X173878108Y-56460280D01*
X173926027Y-56618247D01*
X174003843Y-56763830D01*
X174108565Y-56891435D01*
X174236170Y-56996157D01*
X174381753Y-57073973D01*
X174539720Y-57121892D01*
X174704000Y-57138072D01*
X177296000Y-57138072D01*
X177460280Y-57121892D01*
X177618247Y-57073973D01*
X177763830Y-56996157D01*
X177891435Y-56891435D01*
X177996157Y-56763830D01*
X178073973Y-56618247D01*
X178121892Y-56460280D01*
X178138072Y-56296000D01*
X178138072Y-55577636D01*
X178147047Y-55622756D01*
X178307988Y-56011302D01*
X178541637Y-56360983D01*
X178839017Y-56658363D01*
X179188698Y-56892012D01*
X179577244Y-57052953D01*
X179989721Y-57135000D01*
X180410279Y-57135000D01*
X180822756Y-57052953D01*
X181211302Y-56892012D01*
X181560983Y-56658363D01*
X181858363Y-56360983D01*
X181957493Y-56212624D01*
X182165001Y-56420133D01*
X182165001Y-59664909D01*
X182092012Y-59488698D01*
X181858363Y-59139017D01*
X181560983Y-58841637D01*
X181211302Y-58607988D01*
X180822756Y-58447047D01*
X180410279Y-58365000D01*
X179989721Y-58365000D01*
X179577244Y-58447047D01*
X179188698Y-58607988D01*
X178839017Y-58841637D01*
X178541637Y-59139017D01*
X178307988Y-59488698D01*
X178147047Y-59877244D01*
X178102595Y-60100721D01*
X178095334Y-60039549D01*
X177965243Y-59639617D01*
X177807214Y-59343962D01*
X177491653Y-59187952D01*
X176179605Y-60500000D01*
X177491653Y-61812048D01*
X177807214Y-61656038D01*
X177998020Y-61281255D01*
X178103844Y-60905560D01*
X178147047Y-61122756D01*
X178307988Y-61511302D01*
X178541637Y-61860983D01*
X178839017Y-62158363D01*
X178970183Y-62246005D01*
X178701189Y-62515000D01*
X176707418Y-62515000D01*
X176860383Y-62465243D01*
X177156038Y-62307214D01*
X177312048Y-61991653D01*
X176000000Y-60679605D01*
X174687952Y-61991653D01*
X174843962Y-62307214D01*
X175218745Y-62498020D01*
X175279027Y-62515000D01*
X162693418Y-62515000D01*
X162846383Y-62465243D01*
X163142038Y-62307214D01*
X163298048Y-61991653D01*
X161986000Y-60679605D01*
X160673952Y-61991653D01*
X160829962Y-62307214D01*
X161204745Y-62498020D01*
X161265027Y-62515000D01*
X158500383Y-62515000D01*
X158797302Y-62392012D01*
X159146983Y-62158363D01*
X159444363Y-61860983D01*
X159678012Y-61511302D01*
X159838953Y-61122756D01*
X159883405Y-60899279D01*
X159890666Y-60960451D01*
X160020757Y-61360383D01*
X160178786Y-61656038D01*
X160494347Y-61812048D01*
X161806395Y-60500000D01*
X162165605Y-60500000D01*
X163477653Y-61812048D01*
X163793214Y-61656038D01*
X163984020Y-61281255D01*
X164098044Y-60876449D01*
X164124189Y-60542824D01*
X173855098Y-60542824D01*
X173904666Y-60960451D01*
X174034757Y-61360383D01*
X174192786Y-61656038D01*
X174508347Y-61812048D01*
X175820395Y-60500000D01*
X174508347Y-59187952D01*
X174192786Y-59343962D01*
X174001980Y-59718745D01*
X173887956Y-60123551D01*
X173855098Y-60542824D01*
X164124189Y-60542824D01*
X164130902Y-60457176D01*
X164081334Y-60039549D01*
X163951243Y-59639617D01*
X163793214Y-59343962D01*
X163477653Y-59187952D01*
X162165605Y-60500000D01*
X161806395Y-60500000D01*
X160494347Y-59187952D01*
X160178786Y-59343962D01*
X159987980Y-59718745D01*
X159882156Y-60094440D01*
X159838953Y-59877244D01*
X159678012Y-59488698D01*
X159444363Y-59139017D01*
X159313693Y-59008347D01*
X160673952Y-59008347D01*
X161986000Y-60320395D01*
X163298048Y-59008347D01*
X174687952Y-59008347D01*
X176000000Y-60320395D01*
X177312048Y-59008347D01*
X177156038Y-58692786D01*
X176781255Y-58501980D01*
X176376449Y-58387956D01*
X175957176Y-58355098D01*
X175539549Y-58404666D01*
X175139617Y-58534757D01*
X174843962Y-58692786D01*
X174687952Y-59008347D01*
X163298048Y-59008347D01*
X163142038Y-58692786D01*
X162767255Y-58501980D01*
X162362449Y-58387956D01*
X161943176Y-58355098D01*
X161525549Y-58404666D01*
X161125617Y-58534757D01*
X160829962Y-58692786D01*
X160673952Y-59008347D01*
X159313693Y-59008347D01*
X159146983Y-58841637D01*
X158921000Y-58690640D01*
X158921000Y-57138072D01*
X159082000Y-57138072D01*
X159246280Y-57121892D01*
X159404247Y-57073973D01*
X159549830Y-56996157D01*
X159677435Y-56891435D01*
X159782157Y-56763830D01*
X159859973Y-56618247D01*
X159898375Y-56491653D01*
X160673952Y-56491653D01*
X160829962Y-56807214D01*
X161204745Y-56998020D01*
X161609551Y-57112044D01*
X162028824Y-57144902D01*
X162446451Y-57095334D01*
X162846383Y-56965243D01*
X163142038Y-56807214D01*
X163298048Y-56491653D01*
X161986000Y-55179605D01*
X160673952Y-56491653D01*
X159898375Y-56491653D01*
X159907892Y-56460280D01*
X159924072Y-56296000D01*
X159924072Y-55563149D01*
X160020757Y-55860383D01*
X160178786Y-56156038D01*
X160494347Y-56312048D01*
X161806395Y-55000000D01*
X162165605Y-55000000D01*
X163477653Y-56312048D01*
X163793214Y-56156038D01*
X163984020Y-55781255D01*
X164098044Y-55376449D01*
X164130902Y-54957176D01*
X164081334Y-54539549D01*
X163951243Y-54139617D01*
X163793214Y-53843962D01*
X163477653Y-53687952D01*
X162165605Y-55000000D01*
X161806395Y-55000000D01*
X160494347Y-53687952D01*
X160178786Y-53843962D01*
X159987980Y-54218745D01*
X159924072Y-54445630D01*
X159924072Y-53704000D01*
X159907892Y-53539720D01*
X159898376Y-53508347D01*
X160673952Y-53508347D01*
X161986000Y-54820395D01*
X163298048Y-53508347D01*
X163142038Y-53192786D01*
X162767255Y-53001980D01*
X162362449Y-52887956D01*
X161943176Y-52855098D01*
X161525549Y-52904666D01*
X161125617Y-53034757D01*
X160829962Y-53192786D01*
X160673952Y-53508347D01*
X159898376Y-53508347D01*
X159859973Y-53381753D01*
X159782157Y-53236170D01*
X159677435Y-53108565D01*
X159549830Y-53003843D01*
X159404247Y-52926027D01*
X159246280Y-52878108D01*
X159082000Y-52861928D01*
X156490000Y-52861928D01*
X156325720Y-52878108D01*
X156167753Y-52926027D01*
X156022170Y-53003843D01*
X155894565Y-53108565D01*
X155789843Y-53236170D01*
X155712027Y-53381753D01*
X155664108Y-53539720D01*
X155647928Y-53704000D01*
X155647928Y-56296000D01*
X155664108Y-56460280D01*
X155712027Y-56618247D01*
X155789843Y-56763830D01*
X155894565Y-56891435D01*
X156022170Y-56996157D01*
X156167753Y-57073973D01*
X156325720Y-57121892D01*
X156490000Y-57138072D01*
X156651001Y-57138072D01*
X156651000Y-58690640D01*
X156425017Y-58841637D01*
X156127637Y-59139017D01*
X155893988Y-59488698D01*
X155733047Y-59877244D01*
X155651000Y-60289721D01*
X155651000Y-60710279D01*
X155733047Y-61122756D01*
X155893988Y-61511302D01*
X156127637Y-61860983D01*
X156425017Y-62158363D01*
X156774698Y-62392012D01*
X157163244Y-62552953D01*
X157556219Y-62631121D01*
X157424144Y-62701716D01*
X157251318Y-62843551D01*
X157215771Y-62886865D01*
X156916860Y-63185776D01*
X156873552Y-63221318D01*
X156731717Y-63394144D01*
X156626324Y-63591320D01*
X156561423Y-63805268D01*
X156554801Y-63872499D01*
X156539509Y-64027767D01*
X156545000Y-64083518D01*
X156545000Y-64305713D01*
X156479215Y-64404167D01*
X156377072Y-64650761D01*
X156325000Y-64912544D01*
X156325000Y-65179456D01*
X156377072Y-65441239D01*
X156479215Y-65687833D01*
X156545001Y-65786288D01*
X156545000Y-66451000D01*
X154519752Y-66451000D01*
X154464000Y-66445509D01*
X154241501Y-66467423D01*
X154027553Y-66532324D01*
X153830377Y-66637716D01*
X153700856Y-66744011D01*
X153700854Y-66744013D01*
X153657551Y-66779551D01*
X153622013Y-66822855D01*
X152686864Y-67758005D01*
X152643551Y-67793551D01*
X152501716Y-67966377D01*
X152396325Y-68163553D01*
X152396324Y-68163554D01*
X152331423Y-68377502D01*
X152309509Y-68600000D01*
X152315000Y-68655751D01*
X152315000Y-69380544D01*
X152272629Y-69443957D01*
X152168225Y-69696011D01*
X152115000Y-69963589D01*
X146627000Y-69963589D01*
X146627000Y-47489721D01*
X157751000Y-47489721D01*
X157751000Y-47910279D01*
X157833047Y-48322756D01*
X157993988Y-48711302D01*
X158227637Y-49060983D01*
X158525017Y-49358363D01*
X158874698Y-49592012D01*
X159263244Y-49752953D01*
X159675721Y-49835000D01*
X160096279Y-49835000D01*
X160508756Y-49752953D01*
X160897302Y-49592012D01*
X161246983Y-49358363D01*
X161544363Y-49060983D01*
X161778012Y-48711302D01*
X161938953Y-48322756D01*
X162021000Y-47910279D01*
X162021000Y-47489721D01*
X175965000Y-47489721D01*
X175965000Y-47910279D01*
X176047047Y-48322756D01*
X176207988Y-48711302D01*
X176441637Y-49060983D01*
X176739017Y-49358363D01*
X177088698Y-49592012D01*
X177477244Y-49752953D01*
X177889721Y-49835000D01*
X178310279Y-49835000D01*
X178722756Y-49752953D01*
X179111302Y-49592012D01*
X179460983Y-49358363D01*
X179758363Y-49060983D01*
X179992012Y-48711302D01*
X180152953Y-48322756D01*
X180235000Y-47910279D01*
X180235000Y-47489721D01*
X180152953Y-47077244D01*
X179992012Y-46688698D01*
X179758363Y-46339017D01*
X179460983Y-46041637D01*
X179111302Y-45807988D01*
X178722756Y-45647047D01*
X178310279Y-45565000D01*
X177889721Y-45565000D01*
X177477244Y-45647047D01*
X177088698Y-45807988D01*
X176739017Y-46041637D01*
X176441637Y-46339017D01*
X176207988Y-46688698D01*
X176047047Y-47077244D01*
X175965000Y-47489721D01*
X162021000Y-47489721D01*
X161938953Y-47077244D01*
X161778012Y-46688698D01*
X161544363Y-46339017D01*
X161246983Y-46041637D01*
X160897302Y-45807988D01*
X160508756Y-45647047D01*
X160096279Y-45565000D01*
X159675721Y-45565000D01*
X159263244Y-45647047D01*
X158874698Y-45807988D01*
X158525017Y-46041637D01*
X158227637Y-46339017D01*
X157993988Y-46688698D01*
X157833047Y-47077244D01*
X157751000Y-47489721D01*
X146627000Y-47489721D01*
X146627000Y-46414114D01*
X146842188Y-46629302D01*
X147396601Y-46999748D01*
X148012632Y-47254917D01*
X148666607Y-47385000D01*
X149333393Y-47385000D01*
X149987368Y-47254917D01*
X150603399Y-46999748D01*
X151157812Y-46629302D01*
X151629302Y-46157812D01*
X151999748Y-45603399D01*
X152254917Y-44987368D01*
X152385000Y-44333393D01*
X152385000Y-43666607D01*
X152254917Y-43012632D01*
X151999748Y-42396601D01*
X151629302Y-41842188D01*
X151414114Y-41627000D01*
X188585886Y-41627000D01*
X188370698Y-41842188D01*
G37*
X188370698Y-41842188D02*
X188000252Y-42396601D01*
X187745083Y-43012632D01*
X187615000Y-43666607D01*
X187615000Y-44333393D01*
X187745083Y-44987368D01*
X188000252Y-45603399D01*
X188370698Y-46157812D01*
X188842188Y-46629302D01*
X189396601Y-46999748D01*
X190012632Y-47254917D01*
X190666607Y-47385000D01*
X191333393Y-47385000D01*
X191987368Y-47254917D01*
X192603399Y-46999748D01*
X193157812Y-46629302D01*
X193367767Y-46419347D01*
X193328275Y-83541161D01*
X193157812Y-83370698D01*
X192603399Y-83000252D01*
X191987368Y-82745083D01*
X191333393Y-82615000D01*
X190666607Y-82615000D01*
X190012632Y-82745083D01*
X189396601Y-83000252D01*
X188842188Y-83370698D01*
X188370698Y-83842188D01*
X188000252Y-84396601D01*
X187745083Y-85012632D01*
X187615000Y-85666607D01*
X187615000Y-86333393D01*
X187745083Y-86987368D01*
X188000252Y-87603399D01*
X188370698Y-88157812D01*
X188585886Y-88373000D01*
X151414114Y-88373000D01*
X151629302Y-88157812D01*
X151999748Y-87603399D01*
X152254917Y-86987368D01*
X152385000Y-86333393D01*
X152385000Y-85666607D01*
X152254917Y-85012632D01*
X152114594Y-84673863D01*
X156067622Y-84673863D01*
X156161121Y-84970446D01*
X156310684Y-85243089D01*
X156510563Y-85481315D01*
X156753077Y-85675969D01*
X157028906Y-85819571D01*
X157247020Y-85890563D01*
X157493000Y-85770594D01*
X157493000Y-84427000D01*
X156194430Y-84427000D01*
X156067622Y-84673863D01*
X152114594Y-84673863D01*
X151999748Y-84396601D01*
X151685395Y-83926137D01*
X156067622Y-83926137D01*
X156194430Y-84173000D01*
X157493000Y-84173000D01*
X157493000Y-82829406D01*
X157247020Y-82709437D01*
X157028906Y-82780429D01*
X156753077Y-82924031D01*
X156510563Y-83118685D01*
X156310684Y-83356911D01*
X156161121Y-83629554D01*
X156067622Y-83926137D01*
X151685395Y-83926137D01*
X151629302Y-83842188D01*
X151157812Y-83370698D01*
X150603399Y-83000252D01*
X149987368Y-82745083D01*
X149333393Y-82615000D01*
X148666607Y-82615000D01*
X148012632Y-82745083D01*
X147396601Y-83000252D01*
X146842188Y-83370698D01*
X146627000Y-83585886D01*
X146627000Y-69963589D01*
X152115000Y-69963589D01*
X152115000Y-70236411D01*
X152168225Y-70503989D01*
X152272629Y-70756043D01*
X152424201Y-70982886D01*
X152617114Y-71175799D01*
X152843957Y-71327371D01*
X153096011Y-71431775D01*
X153363589Y-71485000D01*
X153636411Y-71485000D01*
X153903989Y-71431775D01*
X154156043Y-71327371D01*
X154382886Y-71175799D01*
X154575799Y-70982886D01*
X154727371Y-70756043D01*
X154831775Y-70503989D01*
X154885000Y-70236411D01*
X154885000Y-69963589D01*
X154831775Y-69696011D01*
X154727371Y-69443957D01*
X154585000Y-69230884D01*
X154585000Y-69070132D01*
X154934132Y-68721000D01*
X156939713Y-68721000D01*
X157038167Y-68786785D01*
X157205266Y-68856000D01*
X157038167Y-68925215D01*
X156816238Y-69073503D01*
X156627503Y-69262238D01*
X156479215Y-69484167D01*
X156377072Y-69730761D01*
X156325000Y-69992544D01*
X156325000Y-70259456D01*
X156377072Y-70521239D01*
X156479215Y-70767833D01*
X156545001Y-70866289D01*
X156545000Y-77624248D01*
X156539509Y-77680000D01*
X156545000Y-77735751D01*
X156561423Y-77902498D01*
X156626324Y-78116446D01*
X156731716Y-78313623D01*
X156873551Y-78486449D01*
X156916864Y-78521995D01*
X157608008Y-79213140D01*
X157643551Y-79256449D01*
X157816377Y-79398284D01*
X158013553Y-79503676D01*
X158227501Y-79568577D01*
X158394248Y-79585000D01*
X158394257Y-79585000D01*
X158449999Y-79590490D01*
X158505741Y-79585000D01*
X159809869Y-79585000D01*
X159396860Y-79998009D01*
X159353552Y-80033551D01*
X159211717Y-80206377D01*
X159159775Y-80303554D01*
X159106324Y-80403554D01*
X159041423Y-80617502D01*
X159019509Y-80840000D01*
X159025001Y-80895761D01*
X159025000Y-83133111D01*
X158884837Y-83303899D01*
X158729437Y-83118685D01*
X158486923Y-82924031D01*
X158211094Y-82780429D01*
X157992980Y-82709437D01*
X157747000Y-82829406D01*
X157747000Y-84173000D01*
X157767000Y-84173000D01*
X157767000Y-84427000D01*
X157747000Y-84427000D01*
X157747000Y-85770594D01*
X157992980Y-85890563D01*
X158211094Y-85819571D01*
X158486923Y-85675969D01*
X158729437Y-85481315D01*
X158884838Y-85296100D01*
X159032037Y-85475463D01*
X159273765Y-85673845D01*
X159549551Y-85821255D01*
X159848796Y-85912030D01*
X160160000Y-85942681D01*
X160471203Y-85912030D01*
X160770448Y-85821255D01*
X161046234Y-85673845D01*
X161172095Y-85570553D01*
X161216963Y-85654494D01*
X161296315Y-85751185D01*
X161393006Y-85830537D01*
X161503320Y-85889502D01*
X161623018Y-85925812D01*
X161747500Y-85938072D01*
X163652500Y-85938072D01*
X163776982Y-85925812D01*
X163896680Y-85889502D01*
X164006994Y-85830537D01*
X164103685Y-85751185D01*
X164183037Y-85654494D01*
X164242002Y-85544180D01*
X164278312Y-85424482D01*
X164290572Y-85300000D01*
X164290572Y-84923863D01*
X173767622Y-84923863D01*
X173861121Y-85220446D01*
X174010684Y-85493089D01*
X174210563Y-85731315D01*
X174453077Y-85925969D01*
X174728906Y-86069571D01*
X174947020Y-86140563D01*
X175193000Y-86020594D01*
X175193000Y-84677000D01*
X173894430Y-84677000D01*
X173767622Y-84923863D01*
X164290572Y-84923863D01*
X164290572Y-84176137D01*
X173767622Y-84176137D01*
X173894430Y-84423000D01*
X175193000Y-84423000D01*
X175193000Y-83079406D01*
X174947020Y-82959437D01*
X174728906Y-83030429D01*
X174453077Y-83174031D01*
X174210563Y-83368685D01*
X174010684Y-83606911D01*
X173861121Y-83879554D01*
X173767622Y-84176137D01*
X164290572Y-84176137D01*
X164290572Y-83300000D01*
X164278312Y-83175518D01*
X164242002Y-83055820D01*
X164183037Y-82945506D01*
X164103685Y-82848815D01*
X164006994Y-82769463D01*
X163896680Y-82710498D01*
X163776982Y-82674188D01*
X163652500Y-82661928D01*
X161747500Y-82661928D01*
X161623018Y-82674188D01*
X161503320Y-82710498D01*
X161393006Y-82769463D01*
X161296315Y-82848815D01*
X161295000Y-82850417D01*
X161295000Y-81310131D01*
X161320131Y-81285000D01*
X177519868Y-81285000D01*
X177096864Y-81708005D01*
X177053551Y-81743551D01*
X176911716Y-81916377D01*
X176820813Y-82086447D01*
X176806324Y-82113554D01*
X176741423Y-82327502D01*
X176719509Y-82550000D01*
X176725000Y-82605752D01*
X176725000Y-83383111D01*
X176584837Y-83553899D01*
X176429437Y-83368685D01*
X176186923Y-83174031D01*
X175911094Y-83030429D01*
X175692980Y-82959437D01*
X175447000Y-83079406D01*
X175447000Y-84423000D01*
X175467000Y-84423000D01*
X175467000Y-84677000D01*
X175447000Y-84677000D01*
X175447000Y-86020594D01*
X175692980Y-86140563D01*
X175911094Y-86069571D01*
X176186923Y-85925969D01*
X176429437Y-85731315D01*
X176584838Y-85546100D01*
X176732037Y-85725463D01*
X176973765Y-85923845D01*
X177249551Y-86071255D01*
X177548796Y-86162030D01*
X177860000Y-86192681D01*
X178171203Y-86162030D01*
X178470448Y-86071255D01*
X178746234Y-85923845D01*
X178872095Y-85820553D01*
X178916963Y-85904494D01*
X178996315Y-86001185D01*
X179093006Y-86080537D01*
X179203320Y-86139502D01*
X179323018Y-86175812D01*
X179447500Y-86188072D01*
X181352500Y-86188072D01*
X181476982Y-86175812D01*
X181596680Y-86139502D01*
X181706994Y-86080537D01*
X181803685Y-86001185D01*
X181883037Y-85904494D01*
X181942002Y-85794180D01*
X181978312Y-85674482D01*
X181990572Y-85550000D01*
X181990572Y-83550000D01*
X181978312Y-83425518D01*
X181942002Y-83305820D01*
X181883037Y-83195506D01*
X181803685Y-83098815D01*
X181706994Y-83019463D01*
X181596680Y-82960498D01*
X181476982Y-82924188D01*
X181352500Y-82911928D01*
X179447500Y-82911928D01*
X179323018Y-82924188D01*
X179203320Y-82960498D01*
X179093006Y-83019463D01*
X178996315Y-83098815D01*
X178995000Y-83100417D01*
X178995000Y-83020131D01*
X179230132Y-82785000D01*
X183894249Y-82785000D01*
X183950000Y-82790491D01*
X184005751Y-82785000D01*
X184005752Y-82785000D01*
X184172499Y-82768577D01*
X184386447Y-82703676D01*
X184583623Y-82598284D01*
X184756449Y-82456449D01*
X184791995Y-82413136D01*
X185623140Y-81581992D01*
X185666449Y-81546449D01*
X185808284Y-81373623D01*
X185913676Y-81176447D01*
X185978577Y-80962499D01*
X185995000Y-80795752D01*
X185995000Y-80795743D01*
X186000490Y-80740001D01*
X185995000Y-80684259D01*
X185995000Y-53455741D01*
X186000490Y-53399999D01*
X185995000Y-53344257D01*
X185995000Y-53344248D01*
X185978577Y-53177501D01*
X185913676Y-52963553D01*
X185808284Y-52766377D01*
X185666449Y-52593551D01*
X185623140Y-52558008D01*
X184351996Y-51286865D01*
X184316449Y-51243551D01*
X184143623Y-51101716D01*
X183946447Y-50996324D01*
X183732499Y-50931423D01*
X183565752Y-50915000D01*
X183565751Y-50915000D01*
X183510000Y-50909509D01*
X183454249Y-50915000D01*
X177505752Y-50915000D01*
X177450000Y-50909509D01*
X177227501Y-50931423D01*
X177013553Y-50996324D01*
X176816377Y-51101716D01*
X176686856Y-51208011D01*
X176686855Y-51208012D01*
X176643551Y-51243551D01*
X176608013Y-51286854D01*
X175236860Y-52658009D01*
X175193552Y-52693551D01*
X175055368Y-52861928D01*
X174704000Y-52861928D01*
X174539720Y-52878108D01*
X174381753Y-52926027D01*
X174236170Y-53003843D01*
X174108565Y-53108565D01*
X174003843Y-53236170D01*
X173926027Y-53381753D01*
X173878108Y-53539720D01*
X173861928Y-53704000D01*
X173861928Y-56296000D01*
X173878108Y-56460280D01*
X173926027Y-56618247D01*
X174003843Y-56763830D01*
X174108565Y-56891435D01*
X174236170Y-56996157D01*
X174381753Y-57073973D01*
X174539720Y-57121892D01*
X174704000Y-57138072D01*
X177296000Y-57138072D01*
X177460280Y-57121892D01*
X177618247Y-57073973D01*
X177763830Y-56996157D01*
X177891435Y-56891435D01*
X177996157Y-56763830D01*
X178073973Y-56618247D01*
X178121892Y-56460280D01*
X178138072Y-56296000D01*
X178138072Y-55577636D01*
X178147047Y-55622756D01*
X178307988Y-56011302D01*
X178541637Y-56360983D01*
X178839017Y-56658363D01*
X179188698Y-56892012D01*
X179577244Y-57052953D01*
X179989721Y-57135000D01*
X180410279Y-57135000D01*
X180822756Y-57052953D01*
X181211302Y-56892012D01*
X181560983Y-56658363D01*
X181858363Y-56360983D01*
X181957493Y-56212624D01*
X182165001Y-56420133D01*
X182165001Y-59664909D01*
X182092012Y-59488698D01*
X181858363Y-59139017D01*
X181560983Y-58841637D01*
X181211302Y-58607988D01*
X180822756Y-58447047D01*
X180410279Y-58365000D01*
X179989721Y-58365000D01*
X179577244Y-58447047D01*
X179188698Y-58607988D01*
X178839017Y-58841637D01*
X178541637Y-59139017D01*
X178307988Y-59488698D01*
X178147047Y-59877244D01*
X178102595Y-60100721D01*
X178095334Y-60039549D01*
X177965243Y-59639617D01*
X177807214Y-59343962D01*
X177491653Y-59187952D01*
X176179605Y-60500000D01*
X177491653Y-61812048D01*
X177807214Y-61656038D01*
X177998020Y-61281255D01*
X178103844Y-60905560D01*
X178147047Y-61122756D01*
X178307988Y-61511302D01*
X178541637Y-61860983D01*
X178839017Y-62158363D01*
X178970183Y-62246005D01*
X178701189Y-62515000D01*
X176707418Y-62515000D01*
X176860383Y-62465243D01*
X177156038Y-62307214D01*
X177312048Y-61991653D01*
X176000000Y-60679605D01*
X174687952Y-61991653D01*
X174843962Y-62307214D01*
X175218745Y-62498020D01*
X175279027Y-62515000D01*
X162693418Y-62515000D01*
X162846383Y-62465243D01*
X163142038Y-62307214D01*
X163298048Y-61991653D01*
X161986000Y-60679605D01*
X160673952Y-61991653D01*
X160829962Y-62307214D01*
X161204745Y-62498020D01*
X161265027Y-62515000D01*
X158500383Y-62515000D01*
X158797302Y-62392012D01*
X159146983Y-62158363D01*
X159444363Y-61860983D01*
X159678012Y-61511302D01*
X159838953Y-61122756D01*
X159883405Y-60899279D01*
X159890666Y-60960451D01*
X160020757Y-61360383D01*
X160178786Y-61656038D01*
X160494347Y-61812048D01*
X161806395Y-60500000D01*
X162165605Y-60500000D01*
X163477653Y-61812048D01*
X163793214Y-61656038D01*
X163984020Y-61281255D01*
X164098044Y-60876449D01*
X164124189Y-60542824D01*
X173855098Y-60542824D01*
X173904666Y-60960451D01*
X174034757Y-61360383D01*
X174192786Y-61656038D01*
X174508347Y-61812048D01*
X175820395Y-60500000D01*
X174508347Y-59187952D01*
X174192786Y-59343962D01*
X174001980Y-59718745D01*
X173887956Y-60123551D01*
X173855098Y-60542824D01*
X164124189Y-60542824D01*
X164130902Y-60457176D01*
X164081334Y-60039549D01*
X163951243Y-59639617D01*
X163793214Y-59343962D01*
X163477653Y-59187952D01*
X162165605Y-60500000D01*
X161806395Y-60500000D01*
X160494347Y-59187952D01*
X160178786Y-59343962D01*
X159987980Y-59718745D01*
X159882156Y-60094440D01*
X159838953Y-59877244D01*
X159678012Y-59488698D01*
X159444363Y-59139017D01*
X159313693Y-59008347D01*
X160673952Y-59008347D01*
X161986000Y-60320395D01*
X163298048Y-59008347D01*
X174687952Y-59008347D01*
X176000000Y-60320395D01*
X177312048Y-59008347D01*
X177156038Y-58692786D01*
X176781255Y-58501980D01*
X176376449Y-58387956D01*
X175957176Y-58355098D01*
X175539549Y-58404666D01*
X175139617Y-58534757D01*
X174843962Y-58692786D01*
X174687952Y-59008347D01*
X163298048Y-59008347D01*
X163142038Y-58692786D01*
X162767255Y-58501980D01*
X162362449Y-58387956D01*
X161943176Y-58355098D01*
X161525549Y-58404666D01*
X161125617Y-58534757D01*
X160829962Y-58692786D01*
X160673952Y-59008347D01*
X159313693Y-59008347D01*
X159146983Y-58841637D01*
X158921000Y-58690640D01*
X158921000Y-57138072D01*
X159082000Y-57138072D01*
X159246280Y-57121892D01*
X159404247Y-57073973D01*
X159549830Y-56996157D01*
X159677435Y-56891435D01*
X159782157Y-56763830D01*
X159859973Y-56618247D01*
X159898375Y-56491653D01*
X160673952Y-56491653D01*
X160829962Y-56807214D01*
X161204745Y-56998020D01*
X161609551Y-57112044D01*
X162028824Y-57144902D01*
X162446451Y-57095334D01*
X162846383Y-56965243D01*
X163142038Y-56807214D01*
X163298048Y-56491653D01*
X161986000Y-55179605D01*
X160673952Y-56491653D01*
X159898375Y-56491653D01*
X159907892Y-56460280D01*
X159924072Y-56296000D01*
X159924072Y-55563149D01*
X160020757Y-55860383D01*
X160178786Y-56156038D01*
X160494347Y-56312048D01*
X161806395Y-55000000D01*
X162165605Y-55000000D01*
X163477653Y-56312048D01*
X163793214Y-56156038D01*
X163984020Y-55781255D01*
X164098044Y-55376449D01*
X164130902Y-54957176D01*
X164081334Y-54539549D01*
X163951243Y-54139617D01*
X163793214Y-53843962D01*
X163477653Y-53687952D01*
X162165605Y-55000000D01*
X161806395Y-55000000D01*
X160494347Y-53687952D01*
X160178786Y-53843962D01*
X159987980Y-54218745D01*
X159924072Y-54445630D01*
X159924072Y-53704000D01*
X159907892Y-53539720D01*
X159898376Y-53508347D01*
X160673952Y-53508347D01*
X161986000Y-54820395D01*
X163298048Y-53508347D01*
X163142038Y-53192786D01*
X162767255Y-53001980D01*
X162362449Y-52887956D01*
X161943176Y-52855098D01*
X161525549Y-52904666D01*
X161125617Y-53034757D01*
X160829962Y-53192786D01*
X160673952Y-53508347D01*
X159898376Y-53508347D01*
X159859973Y-53381753D01*
X159782157Y-53236170D01*
X159677435Y-53108565D01*
X159549830Y-53003843D01*
X159404247Y-52926027D01*
X159246280Y-52878108D01*
X159082000Y-52861928D01*
X156490000Y-52861928D01*
X156325720Y-52878108D01*
X156167753Y-52926027D01*
X156022170Y-53003843D01*
X155894565Y-53108565D01*
X155789843Y-53236170D01*
X155712027Y-53381753D01*
X155664108Y-53539720D01*
X155647928Y-53704000D01*
X155647928Y-56296000D01*
X155664108Y-56460280D01*
X155712027Y-56618247D01*
X155789843Y-56763830D01*
X155894565Y-56891435D01*
X156022170Y-56996157D01*
X156167753Y-57073973D01*
X156325720Y-57121892D01*
X156490000Y-57138072D01*
X156651001Y-57138072D01*
X156651000Y-58690640D01*
X156425017Y-58841637D01*
X156127637Y-59139017D01*
X155893988Y-59488698D01*
X155733047Y-59877244D01*
X155651000Y-60289721D01*
X155651000Y-60710279D01*
X155733047Y-61122756D01*
X155893988Y-61511302D01*
X156127637Y-61860983D01*
X156425017Y-62158363D01*
X156774698Y-62392012D01*
X157163244Y-62552953D01*
X157556219Y-62631121D01*
X157424144Y-62701716D01*
X157251318Y-62843551D01*
X157215771Y-62886865D01*
X156916860Y-63185776D01*
X156873552Y-63221318D01*
X156731717Y-63394144D01*
X156626324Y-63591320D01*
X156561423Y-63805268D01*
X156554801Y-63872499D01*
X156539509Y-64027767D01*
X156545000Y-64083518D01*
X156545000Y-64305713D01*
X156479215Y-64404167D01*
X156377072Y-64650761D01*
X156325000Y-64912544D01*
X156325000Y-65179456D01*
X156377072Y-65441239D01*
X156479215Y-65687833D01*
X156545001Y-65786288D01*
X156545000Y-66451000D01*
X154519752Y-66451000D01*
X154464000Y-66445509D01*
X154241501Y-66467423D01*
X154027553Y-66532324D01*
X153830377Y-66637716D01*
X153700856Y-66744011D01*
X153700854Y-66744013D01*
X153657551Y-66779551D01*
X153622013Y-66822855D01*
X152686864Y-67758005D01*
X152643551Y-67793551D01*
X152501716Y-67966377D01*
X152396325Y-68163553D01*
X152396324Y-68163554D01*
X152331423Y-68377502D01*
X152309509Y-68600000D01*
X152315000Y-68655751D01*
X152315000Y-69380544D01*
X152272629Y-69443957D01*
X152168225Y-69696011D01*
X152115000Y-69963589D01*
X146627000Y-69963589D01*
X146627000Y-47489721D01*
X157751000Y-47489721D01*
X157751000Y-47910279D01*
X157833047Y-48322756D01*
X157993988Y-48711302D01*
X158227637Y-49060983D01*
X158525017Y-49358363D01*
X158874698Y-49592012D01*
X159263244Y-49752953D01*
X159675721Y-49835000D01*
X160096279Y-49835000D01*
X160508756Y-49752953D01*
X160897302Y-49592012D01*
X161246983Y-49358363D01*
X161544363Y-49060983D01*
X161778012Y-48711302D01*
X161938953Y-48322756D01*
X162021000Y-47910279D01*
X162021000Y-47489721D01*
X175965000Y-47489721D01*
X175965000Y-47910279D01*
X176047047Y-48322756D01*
X176207988Y-48711302D01*
X176441637Y-49060983D01*
X176739017Y-49358363D01*
X177088698Y-49592012D01*
X177477244Y-49752953D01*
X177889721Y-49835000D01*
X178310279Y-49835000D01*
X178722756Y-49752953D01*
X179111302Y-49592012D01*
X179460983Y-49358363D01*
X179758363Y-49060983D01*
X179992012Y-48711302D01*
X180152953Y-48322756D01*
X180235000Y-47910279D01*
X180235000Y-47489721D01*
X180152953Y-47077244D01*
X179992012Y-46688698D01*
X179758363Y-46339017D01*
X179460983Y-46041637D01*
X179111302Y-45807988D01*
X178722756Y-45647047D01*
X178310279Y-45565000D01*
X177889721Y-45565000D01*
X177477244Y-45647047D01*
X177088698Y-45807988D01*
X176739017Y-46041637D01*
X176441637Y-46339017D01*
X176207988Y-46688698D01*
X176047047Y-47077244D01*
X175965000Y-47489721D01*
X162021000Y-47489721D01*
X161938953Y-47077244D01*
X161778012Y-46688698D01*
X161544363Y-46339017D01*
X161246983Y-46041637D01*
X160897302Y-45807988D01*
X160508756Y-45647047D01*
X160096279Y-45565000D01*
X159675721Y-45565000D01*
X159263244Y-45647047D01*
X158874698Y-45807988D01*
X158525017Y-46041637D01*
X158227637Y-46339017D01*
X157993988Y-46688698D01*
X157833047Y-47077244D01*
X157751000Y-47489721D01*
X146627000Y-47489721D01*
X146627000Y-46414114D01*
X146842188Y-46629302D01*
X147396601Y-46999748D01*
X148012632Y-47254917D01*
X148666607Y-47385000D01*
X149333393Y-47385000D01*
X149987368Y-47254917D01*
X150603399Y-46999748D01*
X151157812Y-46629302D01*
X151629302Y-46157812D01*
X151999748Y-45603399D01*
X152254917Y-44987368D01*
X152385000Y-44333393D01*
X152385000Y-43666607D01*
X152254917Y-43012632D01*
X151999748Y-42396601D01*
X151629302Y-41842188D01*
X151414114Y-41627000D01*
X188585886Y-41627000D01*
X188370698Y-41842188D01*
M02*
