G04 #@! TF.GenerationSoftware,KiCad,Pcbnew,(5.1.5)-3*
G04 #@! TF.CreationDate,2020-09-18T03:55:18-03:00*
G04 #@! TF.ProjectId,Pre charge & discharge,50726520-6368-4617-9267-652026206469,rev?*
G04 #@! TF.SameCoordinates,Original*
G04 #@! TF.FileFunction,Copper,L1,Top*
G04 #@! TF.FilePolarity,Positive*
%FSLAX46Y46*%
G04 Gerber Fmt 4.6, Leading zero omitted, Abs format (unit mm)*
G04 Created by KiCad (PCBNEW (5.1.5)-3) date 2020-09-18 03:55:18*
%MOMM*%
%LPD*%
G04 APERTURE LIST*
%ADD10C,0.100000*%
%ADD11C,5.500000*%
%ADD12C,3.000000*%
%ADD13O,1.905000X2.000000*%
%ADD14R,1.905000X2.000000*%
%ADD15C,1.440000*%
%ADD16C,1.500000*%
%ADD17C,1.000000*%
%ADD18C,0.800000*%
%ADD19C,0.254000*%
G04 APERTURE END LIST*
G04 #@! TA.AperFunction,SMDPad,CuDef*
D10*
G36*
X152575000Y-63425000D02*
G01*
X154325000Y-63425000D01*
X154325000Y-64675000D01*
X152575000Y-64675000D01*
X152575000Y-63425000D01*
G37*
G04 #@! TD.AperFunction*
G04 #@! TA.AperFunction,SMDPad,CuDef*
G36*
X152575000Y-66225000D02*
G01*
X154325000Y-66225000D01*
X154325000Y-67475000D01*
X152575000Y-67475000D01*
X152575000Y-66225000D01*
G37*
G04 #@! TD.AperFunction*
D11*
X191000000Y-44000000D03*
X149000000Y-44000000D03*
X149000000Y-86000000D03*
X191000000Y-86000000D03*
G04 #@! TA.AperFunction,ComponentPad*
D10*
G36*
X159101995Y-53500982D02*
G01*
X159121798Y-53503920D01*
X159141218Y-53508784D01*
X159160067Y-53515529D01*
X159178165Y-53524088D01*
X159195336Y-53534380D01*
X159211416Y-53546306D01*
X159226250Y-53559750D01*
X159239694Y-53574584D01*
X159251620Y-53590664D01*
X159261912Y-53607835D01*
X159270471Y-53625933D01*
X159277216Y-53644782D01*
X159282080Y-53664202D01*
X159285018Y-53684005D01*
X159286000Y-53704000D01*
X159286000Y-56296000D01*
X159285018Y-56315995D01*
X159282080Y-56335798D01*
X159277216Y-56355218D01*
X159270471Y-56374067D01*
X159261912Y-56392165D01*
X159251620Y-56409336D01*
X159239694Y-56425416D01*
X159226250Y-56440250D01*
X159211416Y-56453694D01*
X159195336Y-56465620D01*
X159178165Y-56475912D01*
X159160067Y-56484471D01*
X159141218Y-56491216D01*
X159121798Y-56496080D01*
X159101995Y-56499018D01*
X159082000Y-56500000D01*
X156490000Y-56500000D01*
X156470005Y-56499018D01*
X156450202Y-56496080D01*
X156430782Y-56491216D01*
X156411933Y-56484471D01*
X156393835Y-56475912D01*
X156376664Y-56465620D01*
X156360584Y-56453694D01*
X156345750Y-56440250D01*
X156332306Y-56425416D01*
X156320380Y-56409336D01*
X156310088Y-56392165D01*
X156301529Y-56374067D01*
X156294784Y-56355218D01*
X156289920Y-56335798D01*
X156286982Y-56315995D01*
X156286000Y-56296000D01*
X156286000Y-53704000D01*
X156286982Y-53684005D01*
X156289920Y-53664202D01*
X156294784Y-53644782D01*
X156301529Y-53625933D01*
X156310088Y-53607835D01*
X156320380Y-53590664D01*
X156332306Y-53574584D01*
X156345750Y-53559750D01*
X156360584Y-53546306D01*
X156376664Y-53534380D01*
X156393835Y-53524088D01*
X156411933Y-53515529D01*
X156430782Y-53508784D01*
X156450202Y-53503920D01*
X156470005Y-53500982D01*
X156490000Y-53500000D01*
X159082000Y-53500000D01*
X159101995Y-53500982D01*
G37*
G04 #@! TD.AperFunction*
D12*
X161986000Y-55000000D03*
X157786000Y-60500000D03*
X161986000Y-60500000D03*
D13*
X175320000Y-84550000D03*
X177860000Y-84550000D03*
D14*
X180400000Y-84550000D03*
X162700000Y-84300000D03*
D13*
X160160000Y-84300000D03*
X157620000Y-84300000D03*
G04 #@! TA.AperFunction,SMDPad,CuDef*
D10*
G36*
X163530142Y-71651174D02*
G01*
X163553803Y-71654684D01*
X163577007Y-71660496D01*
X163599529Y-71668554D01*
X163621153Y-71678782D01*
X163641670Y-71691079D01*
X163660883Y-71705329D01*
X163678607Y-71721393D01*
X163694671Y-71739117D01*
X163708921Y-71758330D01*
X163721218Y-71778847D01*
X163731446Y-71800471D01*
X163739504Y-71822993D01*
X163745316Y-71846197D01*
X163748826Y-71869858D01*
X163750000Y-71893750D01*
X163750000Y-72806250D01*
X163748826Y-72830142D01*
X163745316Y-72853803D01*
X163739504Y-72877007D01*
X163731446Y-72899529D01*
X163721218Y-72921153D01*
X163708921Y-72941670D01*
X163694671Y-72960883D01*
X163678607Y-72978607D01*
X163660883Y-72994671D01*
X163641670Y-73008921D01*
X163621153Y-73021218D01*
X163599529Y-73031446D01*
X163577007Y-73039504D01*
X163553803Y-73045316D01*
X163530142Y-73048826D01*
X163506250Y-73050000D01*
X163018750Y-73050000D01*
X162994858Y-73048826D01*
X162971197Y-73045316D01*
X162947993Y-73039504D01*
X162925471Y-73031446D01*
X162903847Y-73021218D01*
X162883330Y-73008921D01*
X162864117Y-72994671D01*
X162846393Y-72978607D01*
X162830329Y-72960883D01*
X162816079Y-72941670D01*
X162803782Y-72921153D01*
X162793554Y-72899529D01*
X162785496Y-72877007D01*
X162779684Y-72853803D01*
X162776174Y-72830142D01*
X162775000Y-72806250D01*
X162775000Y-71893750D01*
X162776174Y-71869858D01*
X162779684Y-71846197D01*
X162785496Y-71822993D01*
X162793554Y-71800471D01*
X162803782Y-71778847D01*
X162816079Y-71758330D01*
X162830329Y-71739117D01*
X162846393Y-71721393D01*
X162864117Y-71705329D01*
X162883330Y-71691079D01*
X162903847Y-71678782D01*
X162925471Y-71668554D01*
X162947993Y-71660496D01*
X162971197Y-71654684D01*
X162994858Y-71651174D01*
X163018750Y-71650000D01*
X163506250Y-71650000D01*
X163530142Y-71651174D01*
G37*
G04 #@! TD.AperFunction*
G04 #@! TA.AperFunction,SMDPad,CuDef*
G36*
X165405142Y-71651174D02*
G01*
X165428803Y-71654684D01*
X165452007Y-71660496D01*
X165474529Y-71668554D01*
X165496153Y-71678782D01*
X165516670Y-71691079D01*
X165535883Y-71705329D01*
X165553607Y-71721393D01*
X165569671Y-71739117D01*
X165583921Y-71758330D01*
X165596218Y-71778847D01*
X165606446Y-71800471D01*
X165614504Y-71822993D01*
X165620316Y-71846197D01*
X165623826Y-71869858D01*
X165625000Y-71893750D01*
X165625000Y-72806250D01*
X165623826Y-72830142D01*
X165620316Y-72853803D01*
X165614504Y-72877007D01*
X165606446Y-72899529D01*
X165596218Y-72921153D01*
X165583921Y-72941670D01*
X165569671Y-72960883D01*
X165553607Y-72978607D01*
X165535883Y-72994671D01*
X165516670Y-73008921D01*
X165496153Y-73021218D01*
X165474529Y-73031446D01*
X165452007Y-73039504D01*
X165428803Y-73045316D01*
X165405142Y-73048826D01*
X165381250Y-73050000D01*
X164893750Y-73050000D01*
X164869858Y-73048826D01*
X164846197Y-73045316D01*
X164822993Y-73039504D01*
X164800471Y-73031446D01*
X164778847Y-73021218D01*
X164758330Y-73008921D01*
X164739117Y-72994671D01*
X164721393Y-72978607D01*
X164705329Y-72960883D01*
X164691079Y-72941670D01*
X164678782Y-72921153D01*
X164668554Y-72899529D01*
X164660496Y-72877007D01*
X164654684Y-72853803D01*
X164651174Y-72830142D01*
X164650000Y-72806250D01*
X164650000Y-71893750D01*
X164651174Y-71869858D01*
X164654684Y-71846197D01*
X164660496Y-71822993D01*
X164668554Y-71800471D01*
X164678782Y-71778847D01*
X164691079Y-71758330D01*
X164705329Y-71739117D01*
X164721393Y-71721393D01*
X164739117Y-71705329D01*
X164758330Y-71691079D01*
X164778847Y-71678782D01*
X164800471Y-71668554D01*
X164822993Y-71660496D01*
X164846197Y-71654684D01*
X164869858Y-71651174D01*
X164893750Y-71650000D01*
X165381250Y-71650000D01*
X165405142Y-71651174D01*
G37*
G04 #@! TD.AperFunction*
G04 #@! TA.AperFunction,SMDPad,CuDef*
G36*
X163530142Y-69551174D02*
G01*
X163553803Y-69554684D01*
X163577007Y-69560496D01*
X163599529Y-69568554D01*
X163621153Y-69578782D01*
X163641670Y-69591079D01*
X163660883Y-69605329D01*
X163678607Y-69621393D01*
X163694671Y-69639117D01*
X163708921Y-69658330D01*
X163721218Y-69678847D01*
X163731446Y-69700471D01*
X163739504Y-69722993D01*
X163745316Y-69746197D01*
X163748826Y-69769858D01*
X163750000Y-69793750D01*
X163750000Y-70706250D01*
X163748826Y-70730142D01*
X163745316Y-70753803D01*
X163739504Y-70777007D01*
X163731446Y-70799529D01*
X163721218Y-70821153D01*
X163708921Y-70841670D01*
X163694671Y-70860883D01*
X163678607Y-70878607D01*
X163660883Y-70894671D01*
X163641670Y-70908921D01*
X163621153Y-70921218D01*
X163599529Y-70931446D01*
X163577007Y-70939504D01*
X163553803Y-70945316D01*
X163530142Y-70948826D01*
X163506250Y-70950000D01*
X163018750Y-70950000D01*
X162994858Y-70948826D01*
X162971197Y-70945316D01*
X162947993Y-70939504D01*
X162925471Y-70931446D01*
X162903847Y-70921218D01*
X162883330Y-70908921D01*
X162864117Y-70894671D01*
X162846393Y-70878607D01*
X162830329Y-70860883D01*
X162816079Y-70841670D01*
X162803782Y-70821153D01*
X162793554Y-70799529D01*
X162785496Y-70777007D01*
X162779684Y-70753803D01*
X162776174Y-70730142D01*
X162775000Y-70706250D01*
X162775000Y-69793750D01*
X162776174Y-69769858D01*
X162779684Y-69746197D01*
X162785496Y-69722993D01*
X162793554Y-69700471D01*
X162803782Y-69678847D01*
X162816079Y-69658330D01*
X162830329Y-69639117D01*
X162846393Y-69621393D01*
X162864117Y-69605329D01*
X162883330Y-69591079D01*
X162903847Y-69578782D01*
X162925471Y-69568554D01*
X162947993Y-69560496D01*
X162971197Y-69554684D01*
X162994858Y-69551174D01*
X163018750Y-69550000D01*
X163506250Y-69550000D01*
X163530142Y-69551174D01*
G37*
G04 #@! TD.AperFunction*
G04 #@! TA.AperFunction,SMDPad,CuDef*
G36*
X165405142Y-69551174D02*
G01*
X165428803Y-69554684D01*
X165452007Y-69560496D01*
X165474529Y-69568554D01*
X165496153Y-69578782D01*
X165516670Y-69591079D01*
X165535883Y-69605329D01*
X165553607Y-69621393D01*
X165569671Y-69639117D01*
X165583921Y-69658330D01*
X165596218Y-69678847D01*
X165606446Y-69700471D01*
X165614504Y-69722993D01*
X165620316Y-69746197D01*
X165623826Y-69769858D01*
X165625000Y-69793750D01*
X165625000Y-70706250D01*
X165623826Y-70730142D01*
X165620316Y-70753803D01*
X165614504Y-70777007D01*
X165606446Y-70799529D01*
X165596218Y-70821153D01*
X165583921Y-70841670D01*
X165569671Y-70860883D01*
X165553607Y-70878607D01*
X165535883Y-70894671D01*
X165516670Y-70908921D01*
X165496153Y-70921218D01*
X165474529Y-70931446D01*
X165452007Y-70939504D01*
X165428803Y-70945316D01*
X165405142Y-70948826D01*
X165381250Y-70950000D01*
X164893750Y-70950000D01*
X164869858Y-70948826D01*
X164846197Y-70945316D01*
X164822993Y-70939504D01*
X164800471Y-70931446D01*
X164778847Y-70921218D01*
X164758330Y-70908921D01*
X164739117Y-70894671D01*
X164721393Y-70878607D01*
X164705329Y-70860883D01*
X164691079Y-70841670D01*
X164678782Y-70821153D01*
X164668554Y-70799529D01*
X164660496Y-70777007D01*
X164654684Y-70753803D01*
X164651174Y-70730142D01*
X164650000Y-70706250D01*
X164650000Y-69793750D01*
X164651174Y-69769858D01*
X164654684Y-69746197D01*
X164660496Y-69722993D01*
X164668554Y-69700471D01*
X164678782Y-69678847D01*
X164691079Y-69658330D01*
X164705329Y-69639117D01*
X164721393Y-69621393D01*
X164739117Y-69605329D01*
X164758330Y-69591079D01*
X164778847Y-69578782D01*
X164800471Y-69568554D01*
X164822993Y-69560496D01*
X164846197Y-69554684D01*
X164869858Y-69551174D01*
X164893750Y-69550000D01*
X165381250Y-69550000D01*
X165405142Y-69551174D01*
G37*
G04 #@! TD.AperFunction*
G04 #@! TA.AperFunction,SMDPad,CuDef*
G36*
X177367642Y-71551174D02*
G01*
X177391303Y-71554684D01*
X177414507Y-71560496D01*
X177437029Y-71568554D01*
X177458653Y-71578782D01*
X177479170Y-71591079D01*
X177498383Y-71605329D01*
X177516107Y-71621393D01*
X177532171Y-71639117D01*
X177546421Y-71658330D01*
X177558718Y-71678847D01*
X177568946Y-71700471D01*
X177577004Y-71722993D01*
X177582816Y-71746197D01*
X177586326Y-71769858D01*
X177587500Y-71793750D01*
X177587500Y-72706250D01*
X177586326Y-72730142D01*
X177582816Y-72753803D01*
X177577004Y-72777007D01*
X177568946Y-72799529D01*
X177558718Y-72821153D01*
X177546421Y-72841670D01*
X177532171Y-72860883D01*
X177516107Y-72878607D01*
X177498383Y-72894671D01*
X177479170Y-72908921D01*
X177458653Y-72921218D01*
X177437029Y-72931446D01*
X177414507Y-72939504D01*
X177391303Y-72945316D01*
X177367642Y-72948826D01*
X177343750Y-72950000D01*
X176856250Y-72950000D01*
X176832358Y-72948826D01*
X176808697Y-72945316D01*
X176785493Y-72939504D01*
X176762971Y-72931446D01*
X176741347Y-72921218D01*
X176720830Y-72908921D01*
X176701617Y-72894671D01*
X176683893Y-72878607D01*
X176667829Y-72860883D01*
X176653579Y-72841670D01*
X176641282Y-72821153D01*
X176631054Y-72799529D01*
X176622996Y-72777007D01*
X176617184Y-72753803D01*
X176613674Y-72730142D01*
X176612500Y-72706250D01*
X176612500Y-71793750D01*
X176613674Y-71769858D01*
X176617184Y-71746197D01*
X176622996Y-71722993D01*
X176631054Y-71700471D01*
X176641282Y-71678847D01*
X176653579Y-71658330D01*
X176667829Y-71639117D01*
X176683893Y-71621393D01*
X176701617Y-71605329D01*
X176720830Y-71591079D01*
X176741347Y-71578782D01*
X176762971Y-71568554D01*
X176785493Y-71560496D01*
X176808697Y-71554684D01*
X176832358Y-71551174D01*
X176856250Y-71550000D01*
X177343750Y-71550000D01*
X177367642Y-71551174D01*
G37*
G04 #@! TD.AperFunction*
G04 #@! TA.AperFunction,SMDPad,CuDef*
G36*
X179242642Y-71551174D02*
G01*
X179266303Y-71554684D01*
X179289507Y-71560496D01*
X179312029Y-71568554D01*
X179333653Y-71578782D01*
X179354170Y-71591079D01*
X179373383Y-71605329D01*
X179391107Y-71621393D01*
X179407171Y-71639117D01*
X179421421Y-71658330D01*
X179433718Y-71678847D01*
X179443946Y-71700471D01*
X179452004Y-71722993D01*
X179457816Y-71746197D01*
X179461326Y-71769858D01*
X179462500Y-71793750D01*
X179462500Y-72706250D01*
X179461326Y-72730142D01*
X179457816Y-72753803D01*
X179452004Y-72777007D01*
X179443946Y-72799529D01*
X179433718Y-72821153D01*
X179421421Y-72841670D01*
X179407171Y-72860883D01*
X179391107Y-72878607D01*
X179373383Y-72894671D01*
X179354170Y-72908921D01*
X179333653Y-72921218D01*
X179312029Y-72931446D01*
X179289507Y-72939504D01*
X179266303Y-72945316D01*
X179242642Y-72948826D01*
X179218750Y-72950000D01*
X178731250Y-72950000D01*
X178707358Y-72948826D01*
X178683697Y-72945316D01*
X178660493Y-72939504D01*
X178637971Y-72931446D01*
X178616347Y-72921218D01*
X178595830Y-72908921D01*
X178576617Y-72894671D01*
X178558893Y-72878607D01*
X178542829Y-72860883D01*
X178528579Y-72841670D01*
X178516282Y-72821153D01*
X178506054Y-72799529D01*
X178497996Y-72777007D01*
X178492184Y-72753803D01*
X178488674Y-72730142D01*
X178487500Y-72706250D01*
X178487500Y-71793750D01*
X178488674Y-71769858D01*
X178492184Y-71746197D01*
X178497996Y-71722993D01*
X178506054Y-71700471D01*
X178516282Y-71678847D01*
X178528579Y-71658330D01*
X178542829Y-71639117D01*
X178558893Y-71621393D01*
X178576617Y-71605329D01*
X178595830Y-71591079D01*
X178616347Y-71578782D01*
X178637971Y-71568554D01*
X178660493Y-71560496D01*
X178683697Y-71554684D01*
X178707358Y-71551174D01*
X178731250Y-71550000D01*
X179218750Y-71550000D01*
X179242642Y-71551174D01*
G37*
G04 #@! TD.AperFunction*
G04 #@! TA.AperFunction,SMDPad,CuDef*
G36*
X177367642Y-69101174D02*
G01*
X177391303Y-69104684D01*
X177414507Y-69110496D01*
X177437029Y-69118554D01*
X177458653Y-69128782D01*
X177479170Y-69141079D01*
X177498383Y-69155329D01*
X177516107Y-69171393D01*
X177532171Y-69189117D01*
X177546421Y-69208330D01*
X177558718Y-69228847D01*
X177568946Y-69250471D01*
X177577004Y-69272993D01*
X177582816Y-69296197D01*
X177586326Y-69319858D01*
X177587500Y-69343750D01*
X177587500Y-70256250D01*
X177586326Y-70280142D01*
X177582816Y-70303803D01*
X177577004Y-70327007D01*
X177568946Y-70349529D01*
X177558718Y-70371153D01*
X177546421Y-70391670D01*
X177532171Y-70410883D01*
X177516107Y-70428607D01*
X177498383Y-70444671D01*
X177479170Y-70458921D01*
X177458653Y-70471218D01*
X177437029Y-70481446D01*
X177414507Y-70489504D01*
X177391303Y-70495316D01*
X177367642Y-70498826D01*
X177343750Y-70500000D01*
X176856250Y-70500000D01*
X176832358Y-70498826D01*
X176808697Y-70495316D01*
X176785493Y-70489504D01*
X176762971Y-70481446D01*
X176741347Y-70471218D01*
X176720830Y-70458921D01*
X176701617Y-70444671D01*
X176683893Y-70428607D01*
X176667829Y-70410883D01*
X176653579Y-70391670D01*
X176641282Y-70371153D01*
X176631054Y-70349529D01*
X176622996Y-70327007D01*
X176617184Y-70303803D01*
X176613674Y-70280142D01*
X176612500Y-70256250D01*
X176612500Y-69343750D01*
X176613674Y-69319858D01*
X176617184Y-69296197D01*
X176622996Y-69272993D01*
X176631054Y-69250471D01*
X176641282Y-69228847D01*
X176653579Y-69208330D01*
X176667829Y-69189117D01*
X176683893Y-69171393D01*
X176701617Y-69155329D01*
X176720830Y-69141079D01*
X176741347Y-69128782D01*
X176762971Y-69118554D01*
X176785493Y-69110496D01*
X176808697Y-69104684D01*
X176832358Y-69101174D01*
X176856250Y-69100000D01*
X177343750Y-69100000D01*
X177367642Y-69101174D01*
G37*
G04 #@! TD.AperFunction*
G04 #@! TA.AperFunction,SMDPad,CuDef*
G36*
X179242642Y-69101174D02*
G01*
X179266303Y-69104684D01*
X179289507Y-69110496D01*
X179312029Y-69118554D01*
X179333653Y-69128782D01*
X179354170Y-69141079D01*
X179373383Y-69155329D01*
X179391107Y-69171393D01*
X179407171Y-69189117D01*
X179421421Y-69208330D01*
X179433718Y-69228847D01*
X179443946Y-69250471D01*
X179452004Y-69272993D01*
X179457816Y-69296197D01*
X179461326Y-69319858D01*
X179462500Y-69343750D01*
X179462500Y-70256250D01*
X179461326Y-70280142D01*
X179457816Y-70303803D01*
X179452004Y-70327007D01*
X179443946Y-70349529D01*
X179433718Y-70371153D01*
X179421421Y-70391670D01*
X179407171Y-70410883D01*
X179391107Y-70428607D01*
X179373383Y-70444671D01*
X179354170Y-70458921D01*
X179333653Y-70471218D01*
X179312029Y-70481446D01*
X179289507Y-70489504D01*
X179266303Y-70495316D01*
X179242642Y-70498826D01*
X179218750Y-70500000D01*
X178731250Y-70500000D01*
X178707358Y-70498826D01*
X178683697Y-70495316D01*
X178660493Y-70489504D01*
X178637971Y-70481446D01*
X178616347Y-70471218D01*
X178595830Y-70458921D01*
X178576617Y-70444671D01*
X178558893Y-70428607D01*
X178542829Y-70410883D01*
X178528579Y-70391670D01*
X178516282Y-70371153D01*
X178506054Y-70349529D01*
X178497996Y-70327007D01*
X178492184Y-70303803D01*
X178488674Y-70280142D01*
X178487500Y-70256250D01*
X178487500Y-69343750D01*
X178488674Y-69319858D01*
X178492184Y-69296197D01*
X178497996Y-69272993D01*
X178506054Y-69250471D01*
X178516282Y-69228847D01*
X178528579Y-69208330D01*
X178542829Y-69189117D01*
X178558893Y-69171393D01*
X178576617Y-69155329D01*
X178595830Y-69141079D01*
X178616347Y-69128782D01*
X178637971Y-69118554D01*
X178660493Y-69110496D01*
X178683697Y-69104684D01*
X178707358Y-69101174D01*
X178731250Y-69100000D01*
X179218750Y-69100000D01*
X179242642Y-69101174D01*
G37*
G04 #@! TD.AperFunction*
G04 #@! TA.AperFunction,SMDPad,CuDef*
G36*
X179255142Y-73901174D02*
G01*
X179278803Y-73904684D01*
X179302007Y-73910496D01*
X179324529Y-73918554D01*
X179346153Y-73928782D01*
X179366670Y-73941079D01*
X179385883Y-73955329D01*
X179403607Y-73971393D01*
X179419671Y-73989117D01*
X179433921Y-74008330D01*
X179446218Y-74028847D01*
X179456446Y-74050471D01*
X179464504Y-74072993D01*
X179470316Y-74096197D01*
X179473826Y-74119858D01*
X179475000Y-74143750D01*
X179475000Y-75056250D01*
X179473826Y-75080142D01*
X179470316Y-75103803D01*
X179464504Y-75127007D01*
X179456446Y-75149529D01*
X179446218Y-75171153D01*
X179433921Y-75191670D01*
X179419671Y-75210883D01*
X179403607Y-75228607D01*
X179385883Y-75244671D01*
X179366670Y-75258921D01*
X179346153Y-75271218D01*
X179324529Y-75281446D01*
X179302007Y-75289504D01*
X179278803Y-75295316D01*
X179255142Y-75298826D01*
X179231250Y-75300000D01*
X178743750Y-75300000D01*
X178719858Y-75298826D01*
X178696197Y-75295316D01*
X178672993Y-75289504D01*
X178650471Y-75281446D01*
X178628847Y-75271218D01*
X178608330Y-75258921D01*
X178589117Y-75244671D01*
X178571393Y-75228607D01*
X178555329Y-75210883D01*
X178541079Y-75191670D01*
X178528782Y-75171153D01*
X178518554Y-75149529D01*
X178510496Y-75127007D01*
X178504684Y-75103803D01*
X178501174Y-75080142D01*
X178500000Y-75056250D01*
X178500000Y-74143750D01*
X178501174Y-74119858D01*
X178504684Y-74096197D01*
X178510496Y-74072993D01*
X178518554Y-74050471D01*
X178528782Y-74028847D01*
X178541079Y-74008330D01*
X178555329Y-73989117D01*
X178571393Y-73971393D01*
X178589117Y-73955329D01*
X178608330Y-73941079D01*
X178628847Y-73928782D01*
X178650471Y-73918554D01*
X178672993Y-73910496D01*
X178696197Y-73904684D01*
X178719858Y-73901174D01*
X178743750Y-73900000D01*
X179231250Y-73900000D01*
X179255142Y-73901174D01*
G37*
G04 #@! TD.AperFunction*
G04 #@! TA.AperFunction,SMDPad,CuDef*
G36*
X177380142Y-73901174D02*
G01*
X177403803Y-73904684D01*
X177427007Y-73910496D01*
X177449529Y-73918554D01*
X177471153Y-73928782D01*
X177491670Y-73941079D01*
X177510883Y-73955329D01*
X177528607Y-73971393D01*
X177544671Y-73989117D01*
X177558921Y-74008330D01*
X177571218Y-74028847D01*
X177581446Y-74050471D01*
X177589504Y-74072993D01*
X177595316Y-74096197D01*
X177598826Y-74119858D01*
X177600000Y-74143750D01*
X177600000Y-75056250D01*
X177598826Y-75080142D01*
X177595316Y-75103803D01*
X177589504Y-75127007D01*
X177581446Y-75149529D01*
X177571218Y-75171153D01*
X177558921Y-75191670D01*
X177544671Y-75210883D01*
X177528607Y-75228607D01*
X177510883Y-75244671D01*
X177491670Y-75258921D01*
X177471153Y-75271218D01*
X177449529Y-75281446D01*
X177427007Y-75289504D01*
X177403803Y-75295316D01*
X177380142Y-75298826D01*
X177356250Y-75300000D01*
X176868750Y-75300000D01*
X176844858Y-75298826D01*
X176821197Y-75295316D01*
X176797993Y-75289504D01*
X176775471Y-75281446D01*
X176753847Y-75271218D01*
X176733330Y-75258921D01*
X176714117Y-75244671D01*
X176696393Y-75228607D01*
X176680329Y-75210883D01*
X176666079Y-75191670D01*
X176653782Y-75171153D01*
X176643554Y-75149529D01*
X176635496Y-75127007D01*
X176629684Y-75103803D01*
X176626174Y-75080142D01*
X176625000Y-75056250D01*
X176625000Y-74143750D01*
X176626174Y-74119858D01*
X176629684Y-74096197D01*
X176635496Y-74072993D01*
X176643554Y-74050471D01*
X176653782Y-74028847D01*
X176666079Y-74008330D01*
X176680329Y-73989117D01*
X176696393Y-73971393D01*
X176714117Y-73955329D01*
X176733330Y-73941079D01*
X176753847Y-73928782D01*
X176775471Y-73918554D01*
X176797993Y-73910496D01*
X176821197Y-73904684D01*
X176844858Y-73901174D01*
X176868750Y-73900000D01*
X177356250Y-73900000D01*
X177380142Y-73901174D01*
G37*
G04 #@! TD.AperFunction*
G04 #@! TA.AperFunction,SMDPad,CuDef*
G36*
X177380142Y-76301174D02*
G01*
X177403803Y-76304684D01*
X177427007Y-76310496D01*
X177449529Y-76318554D01*
X177471153Y-76328782D01*
X177491670Y-76341079D01*
X177510883Y-76355329D01*
X177528607Y-76371393D01*
X177544671Y-76389117D01*
X177558921Y-76408330D01*
X177571218Y-76428847D01*
X177581446Y-76450471D01*
X177589504Y-76472993D01*
X177595316Y-76496197D01*
X177598826Y-76519858D01*
X177600000Y-76543750D01*
X177600000Y-77456250D01*
X177598826Y-77480142D01*
X177595316Y-77503803D01*
X177589504Y-77527007D01*
X177581446Y-77549529D01*
X177571218Y-77571153D01*
X177558921Y-77591670D01*
X177544671Y-77610883D01*
X177528607Y-77628607D01*
X177510883Y-77644671D01*
X177491670Y-77658921D01*
X177471153Y-77671218D01*
X177449529Y-77681446D01*
X177427007Y-77689504D01*
X177403803Y-77695316D01*
X177380142Y-77698826D01*
X177356250Y-77700000D01*
X176868750Y-77700000D01*
X176844858Y-77698826D01*
X176821197Y-77695316D01*
X176797993Y-77689504D01*
X176775471Y-77681446D01*
X176753847Y-77671218D01*
X176733330Y-77658921D01*
X176714117Y-77644671D01*
X176696393Y-77628607D01*
X176680329Y-77610883D01*
X176666079Y-77591670D01*
X176653782Y-77571153D01*
X176643554Y-77549529D01*
X176635496Y-77527007D01*
X176629684Y-77503803D01*
X176626174Y-77480142D01*
X176625000Y-77456250D01*
X176625000Y-76543750D01*
X176626174Y-76519858D01*
X176629684Y-76496197D01*
X176635496Y-76472993D01*
X176643554Y-76450471D01*
X176653782Y-76428847D01*
X176666079Y-76408330D01*
X176680329Y-76389117D01*
X176696393Y-76371393D01*
X176714117Y-76355329D01*
X176733330Y-76341079D01*
X176753847Y-76328782D01*
X176775471Y-76318554D01*
X176797993Y-76310496D01*
X176821197Y-76304684D01*
X176844858Y-76301174D01*
X176868750Y-76300000D01*
X177356250Y-76300000D01*
X177380142Y-76301174D01*
G37*
G04 #@! TD.AperFunction*
G04 #@! TA.AperFunction,SMDPad,CuDef*
G36*
X179255142Y-76301174D02*
G01*
X179278803Y-76304684D01*
X179302007Y-76310496D01*
X179324529Y-76318554D01*
X179346153Y-76328782D01*
X179366670Y-76341079D01*
X179385883Y-76355329D01*
X179403607Y-76371393D01*
X179419671Y-76389117D01*
X179433921Y-76408330D01*
X179446218Y-76428847D01*
X179456446Y-76450471D01*
X179464504Y-76472993D01*
X179470316Y-76496197D01*
X179473826Y-76519858D01*
X179475000Y-76543750D01*
X179475000Y-77456250D01*
X179473826Y-77480142D01*
X179470316Y-77503803D01*
X179464504Y-77527007D01*
X179456446Y-77549529D01*
X179446218Y-77571153D01*
X179433921Y-77591670D01*
X179419671Y-77610883D01*
X179403607Y-77628607D01*
X179385883Y-77644671D01*
X179366670Y-77658921D01*
X179346153Y-77671218D01*
X179324529Y-77681446D01*
X179302007Y-77689504D01*
X179278803Y-77695316D01*
X179255142Y-77698826D01*
X179231250Y-77700000D01*
X178743750Y-77700000D01*
X178719858Y-77698826D01*
X178696197Y-77695316D01*
X178672993Y-77689504D01*
X178650471Y-77681446D01*
X178628847Y-77671218D01*
X178608330Y-77658921D01*
X178589117Y-77644671D01*
X178571393Y-77628607D01*
X178555329Y-77610883D01*
X178541079Y-77591670D01*
X178528782Y-77571153D01*
X178518554Y-77549529D01*
X178510496Y-77527007D01*
X178504684Y-77503803D01*
X178501174Y-77480142D01*
X178500000Y-77456250D01*
X178500000Y-76543750D01*
X178501174Y-76519858D01*
X178504684Y-76496197D01*
X178510496Y-76472993D01*
X178518554Y-76450471D01*
X178528782Y-76428847D01*
X178541079Y-76408330D01*
X178555329Y-76389117D01*
X178571393Y-76371393D01*
X178589117Y-76355329D01*
X178608330Y-76341079D01*
X178628847Y-76328782D01*
X178650471Y-76318554D01*
X178672993Y-76310496D01*
X178696197Y-76304684D01*
X178719858Y-76301174D01*
X178743750Y-76300000D01*
X179231250Y-76300000D01*
X179255142Y-76301174D01*
G37*
G04 #@! TD.AperFunction*
G04 #@! TA.AperFunction,SMDPad,CuDef*
G36*
X177430142Y-78451174D02*
G01*
X177453803Y-78454684D01*
X177477007Y-78460496D01*
X177499529Y-78468554D01*
X177521153Y-78478782D01*
X177541670Y-78491079D01*
X177560883Y-78505329D01*
X177578607Y-78521393D01*
X177594671Y-78539117D01*
X177608921Y-78558330D01*
X177621218Y-78578847D01*
X177631446Y-78600471D01*
X177639504Y-78622993D01*
X177645316Y-78646197D01*
X177648826Y-78669858D01*
X177650000Y-78693750D01*
X177650000Y-79606250D01*
X177648826Y-79630142D01*
X177645316Y-79653803D01*
X177639504Y-79677007D01*
X177631446Y-79699529D01*
X177621218Y-79721153D01*
X177608921Y-79741670D01*
X177594671Y-79760883D01*
X177578607Y-79778607D01*
X177560883Y-79794671D01*
X177541670Y-79808921D01*
X177521153Y-79821218D01*
X177499529Y-79831446D01*
X177477007Y-79839504D01*
X177453803Y-79845316D01*
X177430142Y-79848826D01*
X177406250Y-79850000D01*
X176918750Y-79850000D01*
X176894858Y-79848826D01*
X176871197Y-79845316D01*
X176847993Y-79839504D01*
X176825471Y-79831446D01*
X176803847Y-79821218D01*
X176783330Y-79808921D01*
X176764117Y-79794671D01*
X176746393Y-79778607D01*
X176730329Y-79760883D01*
X176716079Y-79741670D01*
X176703782Y-79721153D01*
X176693554Y-79699529D01*
X176685496Y-79677007D01*
X176679684Y-79653803D01*
X176676174Y-79630142D01*
X176675000Y-79606250D01*
X176675000Y-78693750D01*
X176676174Y-78669858D01*
X176679684Y-78646197D01*
X176685496Y-78622993D01*
X176693554Y-78600471D01*
X176703782Y-78578847D01*
X176716079Y-78558330D01*
X176730329Y-78539117D01*
X176746393Y-78521393D01*
X176764117Y-78505329D01*
X176783330Y-78491079D01*
X176803847Y-78478782D01*
X176825471Y-78468554D01*
X176847993Y-78460496D01*
X176871197Y-78454684D01*
X176894858Y-78451174D01*
X176918750Y-78450000D01*
X177406250Y-78450000D01*
X177430142Y-78451174D01*
G37*
G04 #@! TD.AperFunction*
G04 #@! TA.AperFunction,SMDPad,CuDef*
G36*
X179305142Y-78451174D02*
G01*
X179328803Y-78454684D01*
X179352007Y-78460496D01*
X179374529Y-78468554D01*
X179396153Y-78478782D01*
X179416670Y-78491079D01*
X179435883Y-78505329D01*
X179453607Y-78521393D01*
X179469671Y-78539117D01*
X179483921Y-78558330D01*
X179496218Y-78578847D01*
X179506446Y-78600471D01*
X179514504Y-78622993D01*
X179520316Y-78646197D01*
X179523826Y-78669858D01*
X179525000Y-78693750D01*
X179525000Y-79606250D01*
X179523826Y-79630142D01*
X179520316Y-79653803D01*
X179514504Y-79677007D01*
X179506446Y-79699529D01*
X179496218Y-79721153D01*
X179483921Y-79741670D01*
X179469671Y-79760883D01*
X179453607Y-79778607D01*
X179435883Y-79794671D01*
X179416670Y-79808921D01*
X179396153Y-79821218D01*
X179374529Y-79831446D01*
X179352007Y-79839504D01*
X179328803Y-79845316D01*
X179305142Y-79848826D01*
X179281250Y-79850000D01*
X178793750Y-79850000D01*
X178769858Y-79848826D01*
X178746197Y-79845316D01*
X178722993Y-79839504D01*
X178700471Y-79831446D01*
X178678847Y-79821218D01*
X178658330Y-79808921D01*
X178639117Y-79794671D01*
X178621393Y-79778607D01*
X178605329Y-79760883D01*
X178591079Y-79741670D01*
X178578782Y-79721153D01*
X178568554Y-79699529D01*
X178560496Y-79677007D01*
X178554684Y-79653803D01*
X178551174Y-79630142D01*
X178550000Y-79606250D01*
X178550000Y-78693750D01*
X178551174Y-78669858D01*
X178554684Y-78646197D01*
X178560496Y-78622993D01*
X178568554Y-78600471D01*
X178578782Y-78578847D01*
X178591079Y-78558330D01*
X178605329Y-78539117D01*
X178621393Y-78521393D01*
X178639117Y-78505329D01*
X178658330Y-78491079D01*
X178678847Y-78478782D01*
X178700471Y-78468554D01*
X178722993Y-78460496D01*
X178746197Y-78454684D01*
X178769858Y-78451174D01*
X178793750Y-78450000D01*
X179281250Y-78450000D01*
X179305142Y-78451174D01*
G37*
G04 #@! TD.AperFunction*
G04 #@! TA.AperFunction,SMDPad,CuDef*
G36*
X163530142Y-75851174D02*
G01*
X163553803Y-75854684D01*
X163577007Y-75860496D01*
X163599529Y-75868554D01*
X163621153Y-75878782D01*
X163641670Y-75891079D01*
X163660883Y-75905329D01*
X163678607Y-75921393D01*
X163694671Y-75939117D01*
X163708921Y-75958330D01*
X163721218Y-75978847D01*
X163731446Y-76000471D01*
X163739504Y-76022993D01*
X163745316Y-76046197D01*
X163748826Y-76069858D01*
X163750000Y-76093750D01*
X163750000Y-77006250D01*
X163748826Y-77030142D01*
X163745316Y-77053803D01*
X163739504Y-77077007D01*
X163731446Y-77099529D01*
X163721218Y-77121153D01*
X163708921Y-77141670D01*
X163694671Y-77160883D01*
X163678607Y-77178607D01*
X163660883Y-77194671D01*
X163641670Y-77208921D01*
X163621153Y-77221218D01*
X163599529Y-77231446D01*
X163577007Y-77239504D01*
X163553803Y-77245316D01*
X163530142Y-77248826D01*
X163506250Y-77250000D01*
X163018750Y-77250000D01*
X162994858Y-77248826D01*
X162971197Y-77245316D01*
X162947993Y-77239504D01*
X162925471Y-77231446D01*
X162903847Y-77221218D01*
X162883330Y-77208921D01*
X162864117Y-77194671D01*
X162846393Y-77178607D01*
X162830329Y-77160883D01*
X162816079Y-77141670D01*
X162803782Y-77121153D01*
X162793554Y-77099529D01*
X162785496Y-77077007D01*
X162779684Y-77053803D01*
X162776174Y-77030142D01*
X162775000Y-77006250D01*
X162775000Y-76093750D01*
X162776174Y-76069858D01*
X162779684Y-76046197D01*
X162785496Y-76022993D01*
X162793554Y-76000471D01*
X162803782Y-75978847D01*
X162816079Y-75958330D01*
X162830329Y-75939117D01*
X162846393Y-75921393D01*
X162864117Y-75905329D01*
X162883330Y-75891079D01*
X162903847Y-75878782D01*
X162925471Y-75868554D01*
X162947993Y-75860496D01*
X162971197Y-75854684D01*
X162994858Y-75851174D01*
X163018750Y-75850000D01*
X163506250Y-75850000D01*
X163530142Y-75851174D01*
G37*
G04 #@! TD.AperFunction*
G04 #@! TA.AperFunction,SMDPad,CuDef*
G36*
X165405142Y-75851174D02*
G01*
X165428803Y-75854684D01*
X165452007Y-75860496D01*
X165474529Y-75868554D01*
X165496153Y-75878782D01*
X165516670Y-75891079D01*
X165535883Y-75905329D01*
X165553607Y-75921393D01*
X165569671Y-75939117D01*
X165583921Y-75958330D01*
X165596218Y-75978847D01*
X165606446Y-76000471D01*
X165614504Y-76022993D01*
X165620316Y-76046197D01*
X165623826Y-76069858D01*
X165625000Y-76093750D01*
X165625000Y-77006250D01*
X165623826Y-77030142D01*
X165620316Y-77053803D01*
X165614504Y-77077007D01*
X165606446Y-77099529D01*
X165596218Y-77121153D01*
X165583921Y-77141670D01*
X165569671Y-77160883D01*
X165553607Y-77178607D01*
X165535883Y-77194671D01*
X165516670Y-77208921D01*
X165496153Y-77221218D01*
X165474529Y-77231446D01*
X165452007Y-77239504D01*
X165428803Y-77245316D01*
X165405142Y-77248826D01*
X165381250Y-77250000D01*
X164893750Y-77250000D01*
X164869858Y-77248826D01*
X164846197Y-77245316D01*
X164822993Y-77239504D01*
X164800471Y-77231446D01*
X164778847Y-77221218D01*
X164758330Y-77208921D01*
X164739117Y-77194671D01*
X164721393Y-77178607D01*
X164705329Y-77160883D01*
X164691079Y-77141670D01*
X164678782Y-77121153D01*
X164668554Y-77099529D01*
X164660496Y-77077007D01*
X164654684Y-77053803D01*
X164651174Y-77030142D01*
X164650000Y-77006250D01*
X164650000Y-76093750D01*
X164651174Y-76069858D01*
X164654684Y-76046197D01*
X164660496Y-76022993D01*
X164668554Y-76000471D01*
X164678782Y-75978847D01*
X164691079Y-75958330D01*
X164705329Y-75939117D01*
X164721393Y-75921393D01*
X164739117Y-75905329D01*
X164758330Y-75891079D01*
X164778847Y-75878782D01*
X164800471Y-75868554D01*
X164822993Y-75860496D01*
X164846197Y-75854684D01*
X164869858Y-75851174D01*
X164893750Y-75850000D01*
X165381250Y-75850000D01*
X165405142Y-75851174D01*
G37*
G04 #@! TD.AperFunction*
D15*
X157680000Y-70126000D03*
X157680000Y-67586000D03*
X157680000Y-65046000D03*
G04 #@! TA.AperFunction,SMDPad,CuDef*
D10*
G36*
X174614703Y-74655722D02*
G01*
X174629264Y-74657882D01*
X174643543Y-74661459D01*
X174657403Y-74666418D01*
X174670710Y-74672712D01*
X174683336Y-74680280D01*
X174695159Y-74689048D01*
X174706066Y-74698934D01*
X174715952Y-74709841D01*
X174724720Y-74721664D01*
X174732288Y-74734290D01*
X174738582Y-74747597D01*
X174743541Y-74761457D01*
X174747118Y-74775736D01*
X174749278Y-74790297D01*
X174750000Y-74805000D01*
X174750000Y-75105000D01*
X174749278Y-75119703D01*
X174747118Y-75134264D01*
X174743541Y-75148543D01*
X174738582Y-75162403D01*
X174732288Y-75175710D01*
X174724720Y-75188336D01*
X174715952Y-75200159D01*
X174706066Y-75211066D01*
X174695159Y-75220952D01*
X174683336Y-75229720D01*
X174670710Y-75237288D01*
X174657403Y-75243582D01*
X174643543Y-75248541D01*
X174629264Y-75252118D01*
X174614703Y-75254278D01*
X174600000Y-75255000D01*
X172950000Y-75255000D01*
X172935297Y-75254278D01*
X172920736Y-75252118D01*
X172906457Y-75248541D01*
X172892597Y-75243582D01*
X172879290Y-75237288D01*
X172866664Y-75229720D01*
X172854841Y-75220952D01*
X172843934Y-75211066D01*
X172834048Y-75200159D01*
X172825280Y-75188336D01*
X172817712Y-75175710D01*
X172811418Y-75162403D01*
X172806459Y-75148543D01*
X172802882Y-75134264D01*
X172800722Y-75119703D01*
X172800000Y-75105000D01*
X172800000Y-74805000D01*
X172800722Y-74790297D01*
X172802882Y-74775736D01*
X172806459Y-74761457D01*
X172811418Y-74747597D01*
X172817712Y-74734290D01*
X172825280Y-74721664D01*
X172834048Y-74709841D01*
X172843934Y-74698934D01*
X172854841Y-74689048D01*
X172866664Y-74680280D01*
X172879290Y-74672712D01*
X172892597Y-74666418D01*
X172906457Y-74661459D01*
X172920736Y-74657882D01*
X172935297Y-74655722D01*
X172950000Y-74655000D01*
X174600000Y-74655000D01*
X174614703Y-74655722D01*
G37*
G04 #@! TD.AperFunction*
G04 #@! TA.AperFunction,SMDPad,CuDef*
G36*
X174614703Y-73385722D02*
G01*
X174629264Y-73387882D01*
X174643543Y-73391459D01*
X174657403Y-73396418D01*
X174670710Y-73402712D01*
X174683336Y-73410280D01*
X174695159Y-73419048D01*
X174706066Y-73428934D01*
X174715952Y-73439841D01*
X174724720Y-73451664D01*
X174732288Y-73464290D01*
X174738582Y-73477597D01*
X174743541Y-73491457D01*
X174747118Y-73505736D01*
X174749278Y-73520297D01*
X174750000Y-73535000D01*
X174750000Y-73835000D01*
X174749278Y-73849703D01*
X174747118Y-73864264D01*
X174743541Y-73878543D01*
X174738582Y-73892403D01*
X174732288Y-73905710D01*
X174724720Y-73918336D01*
X174715952Y-73930159D01*
X174706066Y-73941066D01*
X174695159Y-73950952D01*
X174683336Y-73959720D01*
X174670710Y-73967288D01*
X174657403Y-73973582D01*
X174643543Y-73978541D01*
X174629264Y-73982118D01*
X174614703Y-73984278D01*
X174600000Y-73985000D01*
X172950000Y-73985000D01*
X172935297Y-73984278D01*
X172920736Y-73982118D01*
X172906457Y-73978541D01*
X172892597Y-73973582D01*
X172879290Y-73967288D01*
X172866664Y-73959720D01*
X172854841Y-73950952D01*
X172843934Y-73941066D01*
X172834048Y-73930159D01*
X172825280Y-73918336D01*
X172817712Y-73905710D01*
X172811418Y-73892403D01*
X172806459Y-73878543D01*
X172802882Y-73864264D01*
X172800722Y-73849703D01*
X172800000Y-73835000D01*
X172800000Y-73535000D01*
X172800722Y-73520297D01*
X172802882Y-73505736D01*
X172806459Y-73491457D01*
X172811418Y-73477597D01*
X172817712Y-73464290D01*
X172825280Y-73451664D01*
X172834048Y-73439841D01*
X172843934Y-73428934D01*
X172854841Y-73419048D01*
X172866664Y-73410280D01*
X172879290Y-73402712D01*
X172892597Y-73396418D01*
X172906457Y-73391459D01*
X172920736Y-73387882D01*
X172935297Y-73385722D01*
X172950000Y-73385000D01*
X174600000Y-73385000D01*
X174614703Y-73385722D01*
G37*
G04 #@! TD.AperFunction*
G04 #@! TA.AperFunction,SMDPad,CuDef*
G36*
X174614703Y-72115722D02*
G01*
X174629264Y-72117882D01*
X174643543Y-72121459D01*
X174657403Y-72126418D01*
X174670710Y-72132712D01*
X174683336Y-72140280D01*
X174695159Y-72149048D01*
X174706066Y-72158934D01*
X174715952Y-72169841D01*
X174724720Y-72181664D01*
X174732288Y-72194290D01*
X174738582Y-72207597D01*
X174743541Y-72221457D01*
X174747118Y-72235736D01*
X174749278Y-72250297D01*
X174750000Y-72265000D01*
X174750000Y-72565000D01*
X174749278Y-72579703D01*
X174747118Y-72594264D01*
X174743541Y-72608543D01*
X174738582Y-72622403D01*
X174732288Y-72635710D01*
X174724720Y-72648336D01*
X174715952Y-72660159D01*
X174706066Y-72671066D01*
X174695159Y-72680952D01*
X174683336Y-72689720D01*
X174670710Y-72697288D01*
X174657403Y-72703582D01*
X174643543Y-72708541D01*
X174629264Y-72712118D01*
X174614703Y-72714278D01*
X174600000Y-72715000D01*
X172950000Y-72715000D01*
X172935297Y-72714278D01*
X172920736Y-72712118D01*
X172906457Y-72708541D01*
X172892597Y-72703582D01*
X172879290Y-72697288D01*
X172866664Y-72689720D01*
X172854841Y-72680952D01*
X172843934Y-72671066D01*
X172834048Y-72660159D01*
X172825280Y-72648336D01*
X172817712Y-72635710D01*
X172811418Y-72622403D01*
X172806459Y-72608543D01*
X172802882Y-72594264D01*
X172800722Y-72579703D01*
X172800000Y-72565000D01*
X172800000Y-72265000D01*
X172800722Y-72250297D01*
X172802882Y-72235736D01*
X172806459Y-72221457D01*
X172811418Y-72207597D01*
X172817712Y-72194290D01*
X172825280Y-72181664D01*
X172834048Y-72169841D01*
X172843934Y-72158934D01*
X172854841Y-72149048D01*
X172866664Y-72140280D01*
X172879290Y-72132712D01*
X172892597Y-72126418D01*
X172906457Y-72121459D01*
X172920736Y-72117882D01*
X172935297Y-72115722D01*
X172950000Y-72115000D01*
X174600000Y-72115000D01*
X174614703Y-72115722D01*
G37*
G04 #@! TD.AperFunction*
G04 #@! TA.AperFunction,SMDPad,CuDef*
G36*
X174614703Y-70845722D02*
G01*
X174629264Y-70847882D01*
X174643543Y-70851459D01*
X174657403Y-70856418D01*
X174670710Y-70862712D01*
X174683336Y-70870280D01*
X174695159Y-70879048D01*
X174706066Y-70888934D01*
X174715952Y-70899841D01*
X174724720Y-70911664D01*
X174732288Y-70924290D01*
X174738582Y-70937597D01*
X174743541Y-70951457D01*
X174747118Y-70965736D01*
X174749278Y-70980297D01*
X174750000Y-70995000D01*
X174750000Y-71295000D01*
X174749278Y-71309703D01*
X174747118Y-71324264D01*
X174743541Y-71338543D01*
X174738582Y-71352403D01*
X174732288Y-71365710D01*
X174724720Y-71378336D01*
X174715952Y-71390159D01*
X174706066Y-71401066D01*
X174695159Y-71410952D01*
X174683336Y-71419720D01*
X174670710Y-71427288D01*
X174657403Y-71433582D01*
X174643543Y-71438541D01*
X174629264Y-71442118D01*
X174614703Y-71444278D01*
X174600000Y-71445000D01*
X172950000Y-71445000D01*
X172935297Y-71444278D01*
X172920736Y-71442118D01*
X172906457Y-71438541D01*
X172892597Y-71433582D01*
X172879290Y-71427288D01*
X172866664Y-71419720D01*
X172854841Y-71410952D01*
X172843934Y-71401066D01*
X172834048Y-71390159D01*
X172825280Y-71378336D01*
X172817712Y-71365710D01*
X172811418Y-71352403D01*
X172806459Y-71338543D01*
X172802882Y-71324264D01*
X172800722Y-71309703D01*
X172800000Y-71295000D01*
X172800000Y-70995000D01*
X172800722Y-70980297D01*
X172802882Y-70965736D01*
X172806459Y-70951457D01*
X172811418Y-70937597D01*
X172817712Y-70924290D01*
X172825280Y-70911664D01*
X172834048Y-70899841D01*
X172843934Y-70888934D01*
X172854841Y-70879048D01*
X172866664Y-70870280D01*
X172879290Y-70862712D01*
X172892597Y-70856418D01*
X172906457Y-70851459D01*
X172920736Y-70847882D01*
X172935297Y-70845722D01*
X172950000Y-70845000D01*
X174600000Y-70845000D01*
X174614703Y-70845722D01*
G37*
G04 #@! TD.AperFunction*
G04 #@! TA.AperFunction,SMDPad,CuDef*
G36*
X169664703Y-70845722D02*
G01*
X169679264Y-70847882D01*
X169693543Y-70851459D01*
X169707403Y-70856418D01*
X169720710Y-70862712D01*
X169733336Y-70870280D01*
X169745159Y-70879048D01*
X169756066Y-70888934D01*
X169765952Y-70899841D01*
X169774720Y-70911664D01*
X169782288Y-70924290D01*
X169788582Y-70937597D01*
X169793541Y-70951457D01*
X169797118Y-70965736D01*
X169799278Y-70980297D01*
X169800000Y-70995000D01*
X169800000Y-71295000D01*
X169799278Y-71309703D01*
X169797118Y-71324264D01*
X169793541Y-71338543D01*
X169788582Y-71352403D01*
X169782288Y-71365710D01*
X169774720Y-71378336D01*
X169765952Y-71390159D01*
X169756066Y-71401066D01*
X169745159Y-71410952D01*
X169733336Y-71419720D01*
X169720710Y-71427288D01*
X169707403Y-71433582D01*
X169693543Y-71438541D01*
X169679264Y-71442118D01*
X169664703Y-71444278D01*
X169650000Y-71445000D01*
X168000000Y-71445000D01*
X167985297Y-71444278D01*
X167970736Y-71442118D01*
X167956457Y-71438541D01*
X167942597Y-71433582D01*
X167929290Y-71427288D01*
X167916664Y-71419720D01*
X167904841Y-71410952D01*
X167893934Y-71401066D01*
X167884048Y-71390159D01*
X167875280Y-71378336D01*
X167867712Y-71365710D01*
X167861418Y-71352403D01*
X167856459Y-71338543D01*
X167852882Y-71324264D01*
X167850722Y-71309703D01*
X167850000Y-71295000D01*
X167850000Y-70995000D01*
X167850722Y-70980297D01*
X167852882Y-70965736D01*
X167856459Y-70951457D01*
X167861418Y-70937597D01*
X167867712Y-70924290D01*
X167875280Y-70911664D01*
X167884048Y-70899841D01*
X167893934Y-70888934D01*
X167904841Y-70879048D01*
X167916664Y-70870280D01*
X167929290Y-70862712D01*
X167942597Y-70856418D01*
X167956457Y-70851459D01*
X167970736Y-70847882D01*
X167985297Y-70845722D01*
X168000000Y-70845000D01*
X169650000Y-70845000D01*
X169664703Y-70845722D01*
G37*
G04 #@! TD.AperFunction*
G04 #@! TA.AperFunction,SMDPad,CuDef*
G36*
X169664703Y-72115722D02*
G01*
X169679264Y-72117882D01*
X169693543Y-72121459D01*
X169707403Y-72126418D01*
X169720710Y-72132712D01*
X169733336Y-72140280D01*
X169745159Y-72149048D01*
X169756066Y-72158934D01*
X169765952Y-72169841D01*
X169774720Y-72181664D01*
X169782288Y-72194290D01*
X169788582Y-72207597D01*
X169793541Y-72221457D01*
X169797118Y-72235736D01*
X169799278Y-72250297D01*
X169800000Y-72265000D01*
X169800000Y-72565000D01*
X169799278Y-72579703D01*
X169797118Y-72594264D01*
X169793541Y-72608543D01*
X169788582Y-72622403D01*
X169782288Y-72635710D01*
X169774720Y-72648336D01*
X169765952Y-72660159D01*
X169756066Y-72671066D01*
X169745159Y-72680952D01*
X169733336Y-72689720D01*
X169720710Y-72697288D01*
X169707403Y-72703582D01*
X169693543Y-72708541D01*
X169679264Y-72712118D01*
X169664703Y-72714278D01*
X169650000Y-72715000D01*
X168000000Y-72715000D01*
X167985297Y-72714278D01*
X167970736Y-72712118D01*
X167956457Y-72708541D01*
X167942597Y-72703582D01*
X167929290Y-72697288D01*
X167916664Y-72689720D01*
X167904841Y-72680952D01*
X167893934Y-72671066D01*
X167884048Y-72660159D01*
X167875280Y-72648336D01*
X167867712Y-72635710D01*
X167861418Y-72622403D01*
X167856459Y-72608543D01*
X167852882Y-72594264D01*
X167850722Y-72579703D01*
X167850000Y-72565000D01*
X167850000Y-72265000D01*
X167850722Y-72250297D01*
X167852882Y-72235736D01*
X167856459Y-72221457D01*
X167861418Y-72207597D01*
X167867712Y-72194290D01*
X167875280Y-72181664D01*
X167884048Y-72169841D01*
X167893934Y-72158934D01*
X167904841Y-72149048D01*
X167916664Y-72140280D01*
X167929290Y-72132712D01*
X167942597Y-72126418D01*
X167956457Y-72121459D01*
X167970736Y-72117882D01*
X167985297Y-72115722D01*
X168000000Y-72115000D01*
X169650000Y-72115000D01*
X169664703Y-72115722D01*
G37*
G04 #@! TD.AperFunction*
G04 #@! TA.AperFunction,SMDPad,CuDef*
G36*
X169664703Y-73385722D02*
G01*
X169679264Y-73387882D01*
X169693543Y-73391459D01*
X169707403Y-73396418D01*
X169720710Y-73402712D01*
X169733336Y-73410280D01*
X169745159Y-73419048D01*
X169756066Y-73428934D01*
X169765952Y-73439841D01*
X169774720Y-73451664D01*
X169782288Y-73464290D01*
X169788582Y-73477597D01*
X169793541Y-73491457D01*
X169797118Y-73505736D01*
X169799278Y-73520297D01*
X169800000Y-73535000D01*
X169800000Y-73835000D01*
X169799278Y-73849703D01*
X169797118Y-73864264D01*
X169793541Y-73878543D01*
X169788582Y-73892403D01*
X169782288Y-73905710D01*
X169774720Y-73918336D01*
X169765952Y-73930159D01*
X169756066Y-73941066D01*
X169745159Y-73950952D01*
X169733336Y-73959720D01*
X169720710Y-73967288D01*
X169707403Y-73973582D01*
X169693543Y-73978541D01*
X169679264Y-73982118D01*
X169664703Y-73984278D01*
X169650000Y-73985000D01*
X168000000Y-73985000D01*
X167985297Y-73984278D01*
X167970736Y-73982118D01*
X167956457Y-73978541D01*
X167942597Y-73973582D01*
X167929290Y-73967288D01*
X167916664Y-73959720D01*
X167904841Y-73950952D01*
X167893934Y-73941066D01*
X167884048Y-73930159D01*
X167875280Y-73918336D01*
X167867712Y-73905710D01*
X167861418Y-73892403D01*
X167856459Y-73878543D01*
X167852882Y-73864264D01*
X167850722Y-73849703D01*
X167850000Y-73835000D01*
X167850000Y-73535000D01*
X167850722Y-73520297D01*
X167852882Y-73505736D01*
X167856459Y-73491457D01*
X167861418Y-73477597D01*
X167867712Y-73464290D01*
X167875280Y-73451664D01*
X167884048Y-73439841D01*
X167893934Y-73428934D01*
X167904841Y-73419048D01*
X167916664Y-73410280D01*
X167929290Y-73402712D01*
X167942597Y-73396418D01*
X167956457Y-73391459D01*
X167970736Y-73387882D01*
X167985297Y-73385722D01*
X168000000Y-73385000D01*
X169650000Y-73385000D01*
X169664703Y-73385722D01*
G37*
G04 #@! TD.AperFunction*
G04 #@! TA.AperFunction,SMDPad,CuDef*
G36*
X169664703Y-74655722D02*
G01*
X169679264Y-74657882D01*
X169693543Y-74661459D01*
X169707403Y-74666418D01*
X169720710Y-74672712D01*
X169733336Y-74680280D01*
X169745159Y-74689048D01*
X169756066Y-74698934D01*
X169765952Y-74709841D01*
X169774720Y-74721664D01*
X169782288Y-74734290D01*
X169788582Y-74747597D01*
X169793541Y-74761457D01*
X169797118Y-74775736D01*
X169799278Y-74790297D01*
X169800000Y-74805000D01*
X169800000Y-75105000D01*
X169799278Y-75119703D01*
X169797118Y-75134264D01*
X169793541Y-75148543D01*
X169788582Y-75162403D01*
X169782288Y-75175710D01*
X169774720Y-75188336D01*
X169765952Y-75200159D01*
X169756066Y-75211066D01*
X169745159Y-75220952D01*
X169733336Y-75229720D01*
X169720710Y-75237288D01*
X169707403Y-75243582D01*
X169693543Y-75248541D01*
X169679264Y-75252118D01*
X169664703Y-75254278D01*
X169650000Y-75255000D01*
X168000000Y-75255000D01*
X167985297Y-75254278D01*
X167970736Y-75252118D01*
X167956457Y-75248541D01*
X167942597Y-75243582D01*
X167929290Y-75237288D01*
X167916664Y-75229720D01*
X167904841Y-75220952D01*
X167893934Y-75211066D01*
X167884048Y-75200159D01*
X167875280Y-75188336D01*
X167867712Y-75175710D01*
X167861418Y-75162403D01*
X167856459Y-75148543D01*
X167852882Y-75134264D01*
X167850722Y-75119703D01*
X167850000Y-75105000D01*
X167850000Y-74805000D01*
X167850722Y-74790297D01*
X167852882Y-74775736D01*
X167856459Y-74761457D01*
X167861418Y-74747597D01*
X167867712Y-74734290D01*
X167875280Y-74721664D01*
X167884048Y-74709841D01*
X167893934Y-74698934D01*
X167904841Y-74689048D01*
X167916664Y-74680280D01*
X167929290Y-74672712D01*
X167942597Y-74666418D01*
X167956457Y-74661459D01*
X167970736Y-74657882D01*
X167985297Y-74655722D01*
X168000000Y-74655000D01*
X169650000Y-74655000D01*
X169664703Y-74655722D01*
G37*
G04 #@! TD.AperFunction*
D12*
X180200000Y-60500000D03*
X176000000Y-60500000D03*
X180200000Y-55000000D03*
G04 #@! TA.AperFunction,ComponentPad*
D10*
G36*
X177315995Y-53500982D02*
G01*
X177335798Y-53503920D01*
X177355218Y-53508784D01*
X177374067Y-53515529D01*
X177392165Y-53524088D01*
X177409336Y-53534380D01*
X177425416Y-53546306D01*
X177440250Y-53559750D01*
X177453694Y-53574584D01*
X177465620Y-53590664D01*
X177475912Y-53607835D01*
X177484471Y-53625933D01*
X177491216Y-53644782D01*
X177496080Y-53664202D01*
X177499018Y-53684005D01*
X177500000Y-53704000D01*
X177500000Y-56296000D01*
X177499018Y-56315995D01*
X177496080Y-56335798D01*
X177491216Y-56355218D01*
X177484471Y-56374067D01*
X177475912Y-56392165D01*
X177465620Y-56409336D01*
X177453694Y-56425416D01*
X177440250Y-56440250D01*
X177425416Y-56453694D01*
X177409336Y-56465620D01*
X177392165Y-56475912D01*
X177374067Y-56484471D01*
X177355218Y-56491216D01*
X177335798Y-56496080D01*
X177315995Y-56499018D01*
X177296000Y-56500000D01*
X174704000Y-56500000D01*
X174684005Y-56499018D01*
X174664202Y-56496080D01*
X174644782Y-56491216D01*
X174625933Y-56484471D01*
X174607835Y-56475912D01*
X174590664Y-56465620D01*
X174574584Y-56453694D01*
X174559750Y-56440250D01*
X174546306Y-56425416D01*
X174534380Y-56409336D01*
X174524088Y-56392165D01*
X174515529Y-56374067D01*
X174508784Y-56355218D01*
X174503920Y-56335798D01*
X174500982Y-56315995D01*
X174500000Y-56296000D01*
X174500000Y-53704000D01*
X174500982Y-53684005D01*
X174503920Y-53664202D01*
X174508784Y-53644782D01*
X174515529Y-53625933D01*
X174524088Y-53607835D01*
X174534380Y-53590664D01*
X174546306Y-53574584D01*
X174559750Y-53559750D01*
X174574584Y-53546306D01*
X174590664Y-53534380D01*
X174607835Y-53524088D01*
X174625933Y-53515529D01*
X174644782Y-53508784D01*
X174664202Y-53503920D01*
X174684005Y-53500982D01*
X174704000Y-53500000D01*
X177296000Y-53500000D01*
X177315995Y-53500982D01*
G37*
G04 #@! TD.AperFunction*
G04 #@! TA.AperFunction,SMDPad,CuDef*
G36*
X161374504Y-75651204D02*
G01*
X161398773Y-75654804D01*
X161422571Y-75660765D01*
X161445671Y-75669030D01*
X161467849Y-75679520D01*
X161488893Y-75692133D01*
X161508598Y-75706747D01*
X161526777Y-75723223D01*
X161543253Y-75741402D01*
X161557867Y-75761107D01*
X161570480Y-75782151D01*
X161580970Y-75804329D01*
X161589235Y-75827429D01*
X161595196Y-75851227D01*
X161598796Y-75875496D01*
X161600000Y-75900000D01*
X161600000Y-77900000D01*
X161598796Y-77924504D01*
X161595196Y-77948773D01*
X161589235Y-77972571D01*
X161580970Y-77995671D01*
X161570480Y-78017849D01*
X161557867Y-78038893D01*
X161543253Y-78058598D01*
X161526777Y-78076777D01*
X161508598Y-78093253D01*
X161488893Y-78107867D01*
X161467849Y-78120480D01*
X161445671Y-78130970D01*
X161422571Y-78139235D01*
X161398773Y-78145196D01*
X161374504Y-78148796D01*
X161350000Y-78150000D01*
X158350000Y-78150000D01*
X158325496Y-78148796D01*
X158301227Y-78145196D01*
X158277429Y-78139235D01*
X158254329Y-78130970D01*
X158232151Y-78120480D01*
X158211107Y-78107867D01*
X158191402Y-78093253D01*
X158173223Y-78076777D01*
X158156747Y-78058598D01*
X158142133Y-78038893D01*
X158129520Y-78017849D01*
X158119030Y-77995671D01*
X158110765Y-77972571D01*
X158104804Y-77948773D01*
X158101204Y-77924504D01*
X158100000Y-77900000D01*
X158100000Y-75900000D01*
X158101204Y-75875496D01*
X158104804Y-75851227D01*
X158110765Y-75827429D01*
X158119030Y-75804329D01*
X158129520Y-75782151D01*
X158142133Y-75761107D01*
X158156747Y-75741402D01*
X158173223Y-75723223D01*
X158191402Y-75706747D01*
X158211107Y-75692133D01*
X158232151Y-75679520D01*
X158254329Y-75669030D01*
X158277429Y-75660765D01*
X158301227Y-75654804D01*
X158325496Y-75651204D01*
X158350000Y-75650000D01*
X161350000Y-75650000D01*
X161374504Y-75651204D01*
G37*
G04 #@! TD.AperFunction*
G04 #@! TA.AperFunction,SMDPad,CuDef*
G36*
X154874504Y-75651204D02*
G01*
X154898773Y-75654804D01*
X154922571Y-75660765D01*
X154945671Y-75669030D01*
X154967849Y-75679520D01*
X154988893Y-75692133D01*
X155008598Y-75706747D01*
X155026777Y-75723223D01*
X155043253Y-75741402D01*
X155057867Y-75761107D01*
X155070480Y-75782151D01*
X155080970Y-75804329D01*
X155089235Y-75827429D01*
X155095196Y-75851227D01*
X155098796Y-75875496D01*
X155100000Y-75900000D01*
X155100000Y-77900000D01*
X155098796Y-77924504D01*
X155095196Y-77948773D01*
X155089235Y-77972571D01*
X155080970Y-77995671D01*
X155070480Y-78017849D01*
X155057867Y-78038893D01*
X155043253Y-78058598D01*
X155026777Y-78076777D01*
X155008598Y-78093253D01*
X154988893Y-78107867D01*
X154967849Y-78120480D01*
X154945671Y-78130970D01*
X154922571Y-78139235D01*
X154898773Y-78145196D01*
X154874504Y-78148796D01*
X154850000Y-78150000D01*
X151850000Y-78150000D01*
X151825496Y-78148796D01*
X151801227Y-78145196D01*
X151777429Y-78139235D01*
X151754329Y-78130970D01*
X151732151Y-78120480D01*
X151711107Y-78107867D01*
X151691402Y-78093253D01*
X151673223Y-78076777D01*
X151656747Y-78058598D01*
X151642133Y-78038893D01*
X151629520Y-78017849D01*
X151619030Y-77995671D01*
X151610765Y-77972571D01*
X151604804Y-77948773D01*
X151601204Y-77924504D01*
X151600000Y-77900000D01*
X151600000Y-75900000D01*
X151601204Y-75875496D01*
X151604804Y-75851227D01*
X151610765Y-75827429D01*
X151619030Y-75804329D01*
X151629520Y-75782151D01*
X151642133Y-75761107D01*
X151656747Y-75741402D01*
X151673223Y-75723223D01*
X151691402Y-75706747D01*
X151711107Y-75692133D01*
X151732151Y-75679520D01*
X151754329Y-75669030D01*
X151777429Y-75660765D01*
X151801227Y-75654804D01*
X151825496Y-75651204D01*
X151850000Y-75650000D01*
X154850000Y-75650000D01*
X154874504Y-75651204D01*
G37*
G04 #@! TD.AperFunction*
D16*
X153500000Y-70100000D03*
X171000000Y-78450000D03*
X163262500Y-67037500D03*
X178987500Y-67037500D03*
D17*
X150550000Y-81300000D02*
X150100000Y-80850000D01*
X150100000Y-67950000D02*
X151200000Y-66850000D01*
X153250000Y-81850000D02*
X152700000Y-81300000D01*
X168825000Y-74955000D02*
X168825000Y-86175000D01*
X152700000Y-81300000D02*
X150550000Y-81300000D01*
X167650000Y-87350000D02*
X153950000Y-87350000D01*
X150100000Y-80850000D02*
X150100000Y-67950000D01*
X168825000Y-86175000D02*
X167650000Y-87350000D01*
X153250000Y-86650000D02*
X153250000Y-81850000D01*
X151200000Y-66850000D02*
X153450000Y-66850000D01*
X153950000Y-87350000D02*
X153250000Y-86650000D01*
X153450000Y-70050000D02*
X153500000Y-70100000D01*
X153450000Y-66850000D02*
X153450000Y-70050000D01*
X154689340Y-72350000D02*
X162775000Y-72350000D01*
X153500000Y-71160660D02*
X154689340Y-72350000D01*
X162775000Y-72350000D02*
X163262500Y-72350000D01*
X153500000Y-70100000D02*
X153500000Y-71160660D01*
D18*
X178975000Y-74587500D02*
X178987500Y-74600000D01*
D17*
X167172500Y-72415000D02*
X168825000Y-72415000D01*
X165137500Y-74450000D02*
X167172500Y-72415000D01*
X171000000Y-72620000D02*
X171190000Y-72430000D01*
X168825000Y-72415000D02*
X171190000Y-72430000D01*
X171000000Y-78450000D02*
X171000000Y-72620000D01*
X171190000Y-72430000D02*
X173775000Y-72415000D01*
X161050000Y-74450000D02*
X165137500Y-74450000D01*
X159850000Y-75650000D02*
X161050000Y-74450000D01*
X159850000Y-76900000D02*
X159850000Y-75650000D01*
X163262500Y-83737500D02*
X162700000Y-84300000D01*
X163262500Y-76550000D02*
X163262500Y-83737500D01*
X168825000Y-71145000D02*
X165175000Y-71145000D01*
X165137500Y-72350000D02*
X165140000Y-71180000D01*
X165175000Y-71145000D02*
X165140000Y-71180000D01*
X165140000Y-71180000D02*
X165137500Y-70250000D01*
X175665000Y-73685000D02*
X177100000Y-72250000D01*
X173775000Y-73685000D02*
X175665000Y-73685000D01*
X177100000Y-72250000D02*
X177100000Y-69800000D01*
X180400000Y-80512500D02*
X179037500Y-79150000D01*
X180400000Y-84550000D02*
X180400000Y-80512500D01*
X178987500Y-69787500D02*
X178975000Y-69800000D01*
D18*
X163262500Y-67037500D02*
X163262500Y-67037500D01*
D17*
X163262500Y-70250000D02*
X163262500Y-67037500D01*
X178975000Y-67050000D02*
X178987500Y-67037500D01*
X178975000Y-69800000D02*
X178975000Y-67050000D01*
X177112500Y-77000000D02*
X177112500Y-74600000D01*
X178489473Y-73063347D02*
X178489473Y-72735527D01*
X178489473Y-72735527D02*
X178975000Y-72250000D01*
X177112500Y-74440320D02*
X178489473Y-73063347D01*
X177112500Y-74600000D02*
X177112500Y-74440320D01*
X173775000Y-74955000D02*
X173775000Y-78475000D01*
X174450000Y-79150000D02*
X177162500Y-79150000D01*
X173775000Y-78475000D02*
X174450000Y-79150000D01*
X165137500Y-76550000D02*
X166150000Y-76550000D01*
X166150000Y-76550000D02*
X166700000Y-76000000D01*
X167850000Y-73685000D02*
X168825000Y-73685000D01*
X166700000Y-74835000D02*
X167850000Y-73685000D01*
X166700000Y-76000000D02*
X166700000Y-74835000D01*
X153450000Y-64050000D02*
X153450000Y-61750000D01*
X154700000Y-60500000D02*
X157786000Y-60500000D01*
X153450000Y-61750000D02*
X154700000Y-60500000D01*
D19*
G36*
X188370698Y-41842188D02*
G01*
X188000252Y-42396601D01*
X187745083Y-43012632D01*
X187615000Y-43666607D01*
X187615000Y-44333393D01*
X187745083Y-44987368D01*
X188000252Y-45603399D01*
X188370698Y-46157812D01*
X188842188Y-46629302D01*
X189396601Y-46999748D01*
X190012632Y-47254917D01*
X190666607Y-47385000D01*
X191333393Y-47385000D01*
X191987368Y-47254917D01*
X192603399Y-46999748D01*
X193157812Y-46629302D01*
X193373000Y-46414114D01*
X193373000Y-83585886D01*
X193157812Y-83370698D01*
X192603399Y-83000252D01*
X191987368Y-82745083D01*
X191333393Y-82615000D01*
X190666607Y-82615000D01*
X190012632Y-82745083D01*
X189396601Y-83000252D01*
X188842188Y-83370698D01*
X188370698Y-83842188D01*
X188000252Y-84396601D01*
X187745083Y-85012632D01*
X187615000Y-85666607D01*
X187615000Y-86333393D01*
X187745083Y-86987368D01*
X188000252Y-87603399D01*
X188370698Y-88157812D01*
X188585886Y-88373000D01*
X168143838Y-88373000D01*
X168283623Y-88298284D01*
X168456449Y-88156449D01*
X168491996Y-88113136D01*
X169588140Y-87016992D01*
X169631449Y-86981449D01*
X169773284Y-86808623D01*
X169878676Y-86611447D01*
X169943577Y-86397499D01*
X169960000Y-86230752D01*
X169965491Y-86175000D01*
X169960000Y-86119249D01*
X169960000Y-84923863D01*
X173767622Y-84923863D01*
X173861121Y-85220446D01*
X174010684Y-85493089D01*
X174210563Y-85731315D01*
X174453077Y-85925969D01*
X174728906Y-86069571D01*
X174947020Y-86140563D01*
X175193000Y-86020594D01*
X175193000Y-84677000D01*
X173894430Y-84677000D01*
X173767622Y-84923863D01*
X169960000Y-84923863D01*
X169960000Y-84176137D01*
X173767622Y-84176137D01*
X173894430Y-84423000D01*
X175193000Y-84423000D01*
X175193000Y-83079406D01*
X174947020Y-82959437D01*
X174728906Y-83030429D01*
X174453077Y-83174031D01*
X174210563Y-83368685D01*
X174010684Y-83606911D01*
X173861121Y-83879554D01*
X173767622Y-84176137D01*
X169960000Y-84176137D01*
X169960000Y-79368685D01*
X170117114Y-79525799D01*
X170343957Y-79677371D01*
X170596011Y-79781775D01*
X170863589Y-79835000D01*
X171136411Y-79835000D01*
X171403989Y-79781775D01*
X171656043Y-79677371D01*
X171882886Y-79525799D01*
X172075799Y-79332886D01*
X172227371Y-79106043D01*
X172331775Y-78853989D01*
X172385000Y-78586411D01*
X172385000Y-78313589D01*
X172331775Y-78046011D01*
X172227371Y-77793957D01*
X172135000Y-77655714D01*
X172135000Y-73559535D01*
X172161928Y-73559379D01*
X172161928Y-73835000D01*
X172177071Y-73988745D01*
X172221916Y-74136582D01*
X172294742Y-74272829D01*
X172333454Y-74320000D01*
X172294742Y-74367171D01*
X172221916Y-74503418D01*
X172177071Y-74651255D01*
X172161928Y-74805000D01*
X172161928Y-75105000D01*
X172177071Y-75258745D01*
X172221916Y-75406582D01*
X172294742Y-75542829D01*
X172392749Y-75662251D01*
X172512171Y-75760258D01*
X172640000Y-75828585D01*
X172640001Y-78419239D01*
X172634509Y-78475000D01*
X172656423Y-78697498D01*
X172721324Y-78911446D01*
X172770384Y-79003230D01*
X172826717Y-79108623D01*
X172968552Y-79281449D01*
X173011860Y-79316991D01*
X173608004Y-79913135D01*
X173643551Y-79956449D01*
X173816377Y-80098284D01*
X174013553Y-80203676D01*
X174177705Y-80253471D01*
X174227500Y-80268577D01*
X174449999Y-80290491D01*
X174505751Y-80285000D01*
X176362479Y-80285000D01*
X176428836Y-80339458D01*
X176581291Y-80420947D01*
X176746715Y-80471128D01*
X176918750Y-80488072D01*
X177406250Y-80488072D01*
X177578285Y-80471128D01*
X177743709Y-80420947D01*
X177896164Y-80339458D01*
X178029792Y-80229792D01*
X178100000Y-80144244D01*
X178170208Y-80229792D01*
X178303836Y-80339458D01*
X178456291Y-80420947D01*
X178621715Y-80471128D01*
X178767894Y-80485525D01*
X179265001Y-80982633D01*
X179265000Y-82941787D01*
X179203320Y-82960498D01*
X179093006Y-83019463D01*
X178996315Y-83098815D01*
X178916963Y-83195506D01*
X178872095Y-83279446D01*
X178746235Y-83176155D01*
X178470449Y-83028745D01*
X178171204Y-82937970D01*
X177860000Y-82907319D01*
X177548797Y-82937970D01*
X177249552Y-83028745D01*
X176973766Y-83176155D01*
X176732037Y-83374537D01*
X176584837Y-83553899D01*
X176429437Y-83368685D01*
X176186923Y-83174031D01*
X175911094Y-83030429D01*
X175692980Y-82959437D01*
X175447000Y-83079406D01*
X175447000Y-84423000D01*
X175467000Y-84423000D01*
X175467000Y-84677000D01*
X175447000Y-84677000D01*
X175447000Y-86020594D01*
X175692980Y-86140563D01*
X175911094Y-86069571D01*
X176186923Y-85925969D01*
X176429437Y-85731315D01*
X176584838Y-85546100D01*
X176732037Y-85725463D01*
X176973765Y-85923845D01*
X177249551Y-86071255D01*
X177548796Y-86162030D01*
X177860000Y-86192681D01*
X178171203Y-86162030D01*
X178470448Y-86071255D01*
X178746234Y-85923845D01*
X178872095Y-85820553D01*
X178916963Y-85904494D01*
X178996315Y-86001185D01*
X179093006Y-86080537D01*
X179203320Y-86139502D01*
X179323018Y-86175812D01*
X179447500Y-86188072D01*
X181352500Y-86188072D01*
X181476982Y-86175812D01*
X181596680Y-86139502D01*
X181706994Y-86080537D01*
X181803685Y-86001185D01*
X181883037Y-85904494D01*
X181942002Y-85794180D01*
X181978312Y-85674482D01*
X181990572Y-85550000D01*
X181990572Y-83550000D01*
X181978312Y-83425518D01*
X181942002Y-83305820D01*
X181883037Y-83195506D01*
X181803685Y-83098815D01*
X181706994Y-83019463D01*
X181596680Y-82960498D01*
X181535000Y-82941788D01*
X181535000Y-80568251D01*
X181540491Y-80512500D01*
X181518577Y-80290001D01*
X181453676Y-80076053D01*
X181436304Y-80043552D01*
X181348284Y-79878877D01*
X181206449Y-79706051D01*
X181163140Y-79670508D01*
X180160525Y-78667894D01*
X180146128Y-78521715D01*
X180095947Y-78356291D01*
X180014458Y-78203836D01*
X179948717Y-78123730D01*
X180005537Y-78054494D01*
X180064502Y-77944180D01*
X180100812Y-77824482D01*
X180113072Y-77700000D01*
X180110000Y-77285750D01*
X179951250Y-77127000D01*
X179114500Y-77127000D01*
X179114500Y-77147000D01*
X178860500Y-77147000D01*
X178860500Y-77127000D01*
X178840500Y-77127000D01*
X178840500Y-76873000D01*
X178860500Y-76873000D01*
X178860500Y-75823750D01*
X178836750Y-75800000D01*
X178860500Y-75776250D01*
X178860500Y-74727000D01*
X179114500Y-74727000D01*
X179114500Y-75776250D01*
X179138250Y-75800000D01*
X179114500Y-75823750D01*
X179114500Y-76873000D01*
X179951250Y-76873000D01*
X180110000Y-76714250D01*
X180113072Y-76300000D01*
X180100812Y-76175518D01*
X180064502Y-76055820D01*
X180005537Y-75945506D01*
X179926185Y-75848815D01*
X179866704Y-75800000D01*
X179926185Y-75751185D01*
X180005537Y-75654494D01*
X180064502Y-75544180D01*
X180100812Y-75424482D01*
X180113072Y-75300000D01*
X180110000Y-74885750D01*
X179951250Y-74727000D01*
X179114500Y-74727000D01*
X178860500Y-74727000D01*
X178840500Y-74727000D01*
X178840500Y-74473000D01*
X178860500Y-74473000D01*
X178860500Y-74453000D01*
X179114500Y-74453000D01*
X179114500Y-74473000D01*
X179951250Y-74473000D01*
X180110000Y-74314250D01*
X180113072Y-73900000D01*
X180100812Y-73775518D01*
X180064502Y-73655820D01*
X180005537Y-73545506D01*
X179926185Y-73448815D01*
X179829494Y-73369463D01*
X179807971Y-73357959D01*
X179842292Y-73329792D01*
X179951958Y-73196164D01*
X180033447Y-73043709D01*
X180083628Y-72878285D01*
X180100572Y-72706250D01*
X180100572Y-72401477D01*
X180115491Y-72250000D01*
X180100572Y-72098523D01*
X180100572Y-71793750D01*
X180083628Y-71621715D01*
X180033447Y-71456291D01*
X179951958Y-71303836D01*
X179842292Y-71170208D01*
X179708664Y-71060542D01*
X179642170Y-71025000D01*
X179708664Y-70989458D01*
X179842292Y-70879792D01*
X179951958Y-70746164D01*
X180033447Y-70593709D01*
X180083628Y-70428285D01*
X180100572Y-70256250D01*
X180100572Y-70028145D01*
X180106077Y-70009998D01*
X180127991Y-69787500D01*
X180110000Y-69604832D01*
X180110000Y-67850493D01*
X180214871Y-67693543D01*
X180319275Y-67441489D01*
X180372500Y-67173911D01*
X180372500Y-66901089D01*
X180319275Y-66633511D01*
X180214871Y-66381457D01*
X180063299Y-66154614D01*
X179870386Y-65961701D01*
X179643543Y-65810129D01*
X179391489Y-65705725D01*
X179123911Y-65652500D01*
X178851089Y-65652500D01*
X178583511Y-65705725D01*
X178331457Y-65810129D01*
X178104614Y-65961701D01*
X177911701Y-66154614D01*
X177760129Y-66381457D01*
X177655725Y-66633511D01*
X177602500Y-66901089D01*
X177602500Y-67173911D01*
X177655725Y-67441489D01*
X177760129Y-67693543D01*
X177840001Y-67813079D01*
X177840000Y-68615742D01*
X177833664Y-68610542D01*
X177681209Y-68529053D01*
X177515785Y-68478872D01*
X177343750Y-68461928D01*
X176856250Y-68461928D01*
X176684215Y-68478872D01*
X176518791Y-68529053D01*
X176366336Y-68610542D01*
X176232708Y-68720208D01*
X176123042Y-68853836D01*
X176041553Y-69006291D01*
X175991372Y-69171715D01*
X175974428Y-69343750D01*
X175974428Y-69648533D01*
X175965001Y-69744248D01*
X175965000Y-71779868D01*
X175388072Y-72356797D01*
X175388072Y-72265000D01*
X175372929Y-72111255D01*
X175328084Y-71963418D01*
X175256270Y-71829064D01*
X175280537Y-71799494D01*
X175339502Y-71689180D01*
X175375812Y-71569482D01*
X175388072Y-71445000D01*
X175385000Y-71430750D01*
X175226250Y-71272000D01*
X173902000Y-71272000D01*
X173902000Y-71286906D01*
X173824165Y-71279696D01*
X173648000Y-71280718D01*
X173648000Y-71272000D01*
X172323750Y-71272000D01*
X172307252Y-71288498D01*
X171242470Y-71294677D01*
X171190000Y-71289509D01*
X171137834Y-71294647D01*
X170438072Y-71290209D01*
X170438072Y-70995000D01*
X170423298Y-70845000D01*
X172161928Y-70845000D01*
X172165000Y-70859250D01*
X172323750Y-71018000D01*
X173648000Y-71018000D01*
X173648000Y-70368750D01*
X173902000Y-70368750D01*
X173902000Y-71018000D01*
X175226250Y-71018000D01*
X175385000Y-70859250D01*
X175388072Y-70845000D01*
X175375812Y-70720518D01*
X175339502Y-70600820D01*
X175280537Y-70490506D01*
X175201185Y-70393815D01*
X175104494Y-70314463D01*
X174994180Y-70255498D01*
X174874482Y-70219188D01*
X174750000Y-70206928D01*
X174060750Y-70210000D01*
X173902000Y-70368750D01*
X173648000Y-70368750D01*
X173489250Y-70210000D01*
X172800000Y-70206928D01*
X172675518Y-70219188D01*
X172555820Y-70255498D01*
X172445506Y-70314463D01*
X172348815Y-70393815D01*
X172269463Y-70490506D01*
X172210498Y-70600820D01*
X172174188Y-70720518D01*
X172161928Y-70845000D01*
X170423298Y-70845000D01*
X170422929Y-70841255D01*
X170378084Y-70693418D01*
X170305258Y-70557171D01*
X170207251Y-70437749D01*
X170087829Y-70339742D01*
X169951582Y-70266916D01*
X169803745Y-70222071D01*
X169650000Y-70206928D01*
X169471066Y-70206928D01*
X169458623Y-70196716D01*
X169261447Y-70091324D01*
X169047499Y-70026423D01*
X168880752Y-70010000D01*
X166263072Y-70010000D01*
X166263072Y-69793750D01*
X166246128Y-69621715D01*
X166195947Y-69456291D01*
X166114458Y-69303836D01*
X166004792Y-69170208D01*
X165871164Y-69060542D01*
X165718709Y-68979053D01*
X165553285Y-68928872D01*
X165381250Y-68911928D01*
X164893750Y-68911928D01*
X164721715Y-68928872D01*
X164556291Y-68979053D01*
X164403836Y-69060542D01*
X164397500Y-69065742D01*
X164397500Y-67831786D01*
X164489871Y-67693543D01*
X164594275Y-67441489D01*
X164647500Y-67173911D01*
X164647500Y-66901089D01*
X164594275Y-66633511D01*
X164489871Y-66381457D01*
X164338299Y-66154614D01*
X164145386Y-65961701D01*
X163918543Y-65810129D01*
X163666489Y-65705725D01*
X163398911Y-65652500D01*
X163126089Y-65652500D01*
X162858511Y-65705725D01*
X162606457Y-65810129D01*
X162379614Y-65961701D01*
X162186701Y-66154614D01*
X162035129Y-66381457D01*
X161930725Y-66633511D01*
X161877500Y-66901089D01*
X161877500Y-67173911D01*
X161930725Y-67441489D01*
X162035129Y-67693543D01*
X162127501Y-67831787D01*
X162127500Y-70305751D01*
X162136928Y-70401476D01*
X162136928Y-70706250D01*
X162153872Y-70878285D01*
X162204053Y-71043709D01*
X162285542Y-71196164D01*
X162301000Y-71215000D01*
X158489131Y-71215000D01*
X158543762Y-71178497D01*
X158732497Y-70989762D01*
X158880785Y-70767833D01*
X158982928Y-70521239D01*
X159035000Y-70259456D01*
X159035000Y-69992544D01*
X158982928Y-69730761D01*
X158880785Y-69484167D01*
X158732497Y-69262238D01*
X158543762Y-69073503D01*
X158321833Y-68925215D01*
X158154734Y-68856000D01*
X158321833Y-68786785D01*
X158543762Y-68638497D01*
X158732497Y-68449762D01*
X158880785Y-68227833D01*
X158982928Y-67981239D01*
X159035000Y-67719456D01*
X159035000Y-67452544D01*
X158982928Y-67190761D01*
X158880785Y-66944167D01*
X158732497Y-66722238D01*
X158543762Y-66533503D01*
X158321833Y-66385215D01*
X158154734Y-66316000D01*
X158321833Y-66246785D01*
X158543762Y-66098497D01*
X158732497Y-65909762D01*
X158880785Y-65687833D01*
X158982928Y-65441239D01*
X159035000Y-65179456D01*
X159035000Y-64912544D01*
X158982928Y-64650761D01*
X158880785Y-64404167D01*
X158732497Y-64182238D01*
X158543762Y-63993503D01*
X158321833Y-63845215D01*
X158075239Y-63743072D01*
X157813456Y-63691000D01*
X157546544Y-63691000D01*
X157284761Y-63743072D01*
X157038167Y-63845215D01*
X156816238Y-63993503D01*
X156627503Y-64182238D01*
X156479215Y-64404167D01*
X156377072Y-64650761D01*
X156325000Y-64912544D01*
X156325000Y-65179456D01*
X156377072Y-65441239D01*
X156479215Y-65687833D01*
X156627503Y-65909762D01*
X156816238Y-66098497D01*
X157038167Y-66246785D01*
X157205266Y-66316000D01*
X157038167Y-66385215D01*
X156816238Y-66533503D01*
X156627503Y-66722238D01*
X156479215Y-66944167D01*
X156377072Y-67190761D01*
X156325000Y-67452544D01*
X156325000Y-67719456D01*
X156377072Y-67981239D01*
X156479215Y-68227833D01*
X156627503Y-68449762D01*
X156816238Y-68638497D01*
X157038167Y-68786785D01*
X157205266Y-68856000D01*
X157038167Y-68925215D01*
X156816238Y-69073503D01*
X156627503Y-69262238D01*
X156479215Y-69484167D01*
X156377072Y-69730761D01*
X156325000Y-69992544D01*
X156325000Y-70259456D01*
X156377072Y-70521239D01*
X156479215Y-70767833D01*
X156627503Y-70989762D01*
X156816238Y-71178497D01*
X156870869Y-71215000D01*
X155159472Y-71215000D01*
X154716614Y-70772142D01*
X154727371Y-70756043D01*
X154831775Y-70503989D01*
X154885000Y-70236411D01*
X154885000Y-69963589D01*
X154831775Y-69696011D01*
X154727371Y-69443957D01*
X154585000Y-69230884D01*
X154585000Y-68056046D01*
X154679494Y-68005537D01*
X154776185Y-67926185D01*
X154855537Y-67829494D01*
X154914502Y-67719180D01*
X154950812Y-67599482D01*
X154963072Y-67475000D01*
X154963072Y-66225000D01*
X154950812Y-66100518D01*
X154914502Y-65980820D01*
X154855537Y-65870506D01*
X154776185Y-65773815D01*
X154679494Y-65694463D01*
X154569180Y-65635498D01*
X154449482Y-65599188D01*
X154325000Y-65586928D01*
X152575000Y-65586928D01*
X152450518Y-65599188D01*
X152330820Y-65635498D01*
X152220506Y-65694463D01*
X152195482Y-65715000D01*
X151255751Y-65715000D01*
X151200000Y-65709509D01*
X151144248Y-65715000D01*
X150977501Y-65731423D01*
X150763553Y-65796324D01*
X150566377Y-65901716D01*
X150393551Y-66043551D01*
X150358008Y-66086860D01*
X149336860Y-67108009D01*
X149293552Y-67143551D01*
X149151717Y-67316377D01*
X149095384Y-67421770D01*
X149046324Y-67513554D01*
X148981423Y-67727502D01*
X148959509Y-67950000D01*
X148965001Y-68005761D01*
X148965000Y-80794248D01*
X148959509Y-80850000D01*
X148965000Y-80905751D01*
X148981423Y-81072498D01*
X149046324Y-81286446D01*
X149151716Y-81483623D01*
X149293551Y-81656449D01*
X149336865Y-81691996D01*
X149708004Y-82063135D01*
X149743551Y-82106449D01*
X149916377Y-82248284D01*
X150113553Y-82353676D01*
X150327501Y-82418577D01*
X150549999Y-82440491D01*
X150605751Y-82435000D01*
X152115001Y-82435000D01*
X152115000Y-84674844D01*
X151999748Y-84396601D01*
X151629302Y-83842188D01*
X151157812Y-83370698D01*
X150603399Y-83000252D01*
X149987368Y-82745083D01*
X149333393Y-82615000D01*
X148666607Y-82615000D01*
X148012632Y-82745083D01*
X147396601Y-83000252D01*
X146842188Y-83370698D01*
X146627000Y-83585886D01*
X146627000Y-63425000D01*
X151936928Y-63425000D01*
X151936928Y-64675000D01*
X151949188Y-64799482D01*
X151985498Y-64919180D01*
X152044463Y-65029494D01*
X152123815Y-65126185D01*
X152220506Y-65205537D01*
X152330820Y-65264502D01*
X152450518Y-65300812D01*
X152575000Y-65313072D01*
X154325000Y-65313072D01*
X154449482Y-65300812D01*
X154569180Y-65264502D01*
X154679494Y-65205537D01*
X154776185Y-65126185D01*
X154855537Y-65029494D01*
X154914502Y-64919180D01*
X154950812Y-64799482D01*
X154963072Y-64675000D01*
X154963072Y-63425000D01*
X154950812Y-63300518D01*
X154914502Y-63180820D01*
X154855537Y-63070506D01*
X154776185Y-62973815D01*
X154679494Y-62894463D01*
X154585000Y-62843954D01*
X154585000Y-62220131D01*
X155170132Y-61635000D01*
X155976640Y-61635000D01*
X156127637Y-61860983D01*
X156425017Y-62158363D01*
X156774698Y-62392012D01*
X157163244Y-62552953D01*
X157575721Y-62635000D01*
X157996279Y-62635000D01*
X158408756Y-62552953D01*
X158797302Y-62392012D01*
X159146983Y-62158363D01*
X159313693Y-61991653D01*
X160673952Y-61991653D01*
X160829962Y-62307214D01*
X161204745Y-62498020D01*
X161609551Y-62612044D01*
X162028824Y-62644902D01*
X162446451Y-62595334D01*
X162846383Y-62465243D01*
X163142038Y-62307214D01*
X163298048Y-61991653D01*
X174687952Y-61991653D01*
X174843962Y-62307214D01*
X175218745Y-62498020D01*
X175623551Y-62612044D01*
X176042824Y-62644902D01*
X176460451Y-62595334D01*
X176860383Y-62465243D01*
X177156038Y-62307214D01*
X177312048Y-61991653D01*
X176000000Y-60679605D01*
X174687952Y-61991653D01*
X163298048Y-61991653D01*
X161986000Y-60679605D01*
X160673952Y-61991653D01*
X159313693Y-61991653D01*
X159444363Y-61860983D01*
X159678012Y-61511302D01*
X159838953Y-61122756D01*
X159883405Y-60899279D01*
X159890666Y-60960451D01*
X160020757Y-61360383D01*
X160178786Y-61656038D01*
X160494347Y-61812048D01*
X161806395Y-60500000D01*
X162165605Y-60500000D01*
X163477653Y-61812048D01*
X163793214Y-61656038D01*
X163984020Y-61281255D01*
X164098044Y-60876449D01*
X164124189Y-60542824D01*
X173855098Y-60542824D01*
X173904666Y-60960451D01*
X174034757Y-61360383D01*
X174192786Y-61656038D01*
X174508347Y-61812048D01*
X175820395Y-60500000D01*
X176179605Y-60500000D01*
X177491653Y-61812048D01*
X177807214Y-61656038D01*
X177998020Y-61281255D01*
X178103844Y-60905560D01*
X178147047Y-61122756D01*
X178307988Y-61511302D01*
X178541637Y-61860983D01*
X178839017Y-62158363D01*
X179188698Y-62392012D01*
X179577244Y-62552953D01*
X179989721Y-62635000D01*
X180410279Y-62635000D01*
X180822756Y-62552953D01*
X181211302Y-62392012D01*
X181560983Y-62158363D01*
X181858363Y-61860983D01*
X182092012Y-61511302D01*
X182252953Y-61122756D01*
X182335000Y-60710279D01*
X182335000Y-60289721D01*
X182252953Y-59877244D01*
X182092012Y-59488698D01*
X181858363Y-59139017D01*
X181560983Y-58841637D01*
X181211302Y-58607988D01*
X180822756Y-58447047D01*
X180410279Y-58365000D01*
X179989721Y-58365000D01*
X179577244Y-58447047D01*
X179188698Y-58607988D01*
X178839017Y-58841637D01*
X178541637Y-59139017D01*
X178307988Y-59488698D01*
X178147047Y-59877244D01*
X178102595Y-60100721D01*
X178095334Y-60039549D01*
X177965243Y-59639617D01*
X177807214Y-59343962D01*
X177491653Y-59187952D01*
X176179605Y-60500000D01*
X175820395Y-60500000D01*
X174508347Y-59187952D01*
X174192786Y-59343962D01*
X174001980Y-59718745D01*
X173887956Y-60123551D01*
X173855098Y-60542824D01*
X164124189Y-60542824D01*
X164130902Y-60457176D01*
X164081334Y-60039549D01*
X163951243Y-59639617D01*
X163793214Y-59343962D01*
X163477653Y-59187952D01*
X162165605Y-60500000D01*
X161806395Y-60500000D01*
X160494347Y-59187952D01*
X160178786Y-59343962D01*
X159987980Y-59718745D01*
X159882156Y-60094440D01*
X159838953Y-59877244D01*
X159678012Y-59488698D01*
X159444363Y-59139017D01*
X159313693Y-59008347D01*
X160673952Y-59008347D01*
X161986000Y-60320395D01*
X163298048Y-59008347D01*
X174687952Y-59008347D01*
X176000000Y-60320395D01*
X177312048Y-59008347D01*
X177156038Y-58692786D01*
X176781255Y-58501980D01*
X176376449Y-58387956D01*
X175957176Y-58355098D01*
X175539549Y-58404666D01*
X175139617Y-58534757D01*
X174843962Y-58692786D01*
X174687952Y-59008347D01*
X163298048Y-59008347D01*
X163142038Y-58692786D01*
X162767255Y-58501980D01*
X162362449Y-58387956D01*
X161943176Y-58355098D01*
X161525549Y-58404666D01*
X161125617Y-58534757D01*
X160829962Y-58692786D01*
X160673952Y-59008347D01*
X159313693Y-59008347D01*
X159146983Y-58841637D01*
X158797302Y-58607988D01*
X158408756Y-58447047D01*
X157996279Y-58365000D01*
X157575721Y-58365000D01*
X157163244Y-58447047D01*
X156774698Y-58607988D01*
X156425017Y-58841637D01*
X156127637Y-59139017D01*
X155976640Y-59365000D01*
X154755751Y-59365000D01*
X154700000Y-59359509D01*
X154644248Y-59365000D01*
X154477501Y-59381423D01*
X154263553Y-59446324D01*
X154066377Y-59551716D01*
X153893551Y-59693551D01*
X153858008Y-59736860D01*
X152686860Y-60908009D01*
X152643552Y-60943551D01*
X152501717Y-61116377D01*
X152492499Y-61133623D01*
X152396324Y-61313554D01*
X152331423Y-61527502D01*
X152309509Y-61750000D01*
X152315001Y-61805761D01*
X152315001Y-62843954D01*
X152220506Y-62894463D01*
X152123815Y-62973815D01*
X152044463Y-63070506D01*
X151985498Y-63180820D01*
X151949188Y-63300518D01*
X151936928Y-63425000D01*
X146627000Y-63425000D01*
X146627000Y-53704000D01*
X155647928Y-53704000D01*
X155647928Y-56296000D01*
X155664108Y-56460280D01*
X155712027Y-56618247D01*
X155789843Y-56763830D01*
X155894565Y-56891435D01*
X156022170Y-56996157D01*
X156167753Y-57073973D01*
X156325720Y-57121892D01*
X156490000Y-57138072D01*
X159082000Y-57138072D01*
X159246280Y-57121892D01*
X159404247Y-57073973D01*
X159549830Y-56996157D01*
X159677435Y-56891435D01*
X159782157Y-56763830D01*
X159859973Y-56618247D01*
X159898375Y-56491653D01*
X160673952Y-56491653D01*
X160829962Y-56807214D01*
X161204745Y-56998020D01*
X161609551Y-57112044D01*
X162028824Y-57144902D01*
X162446451Y-57095334D01*
X162846383Y-56965243D01*
X163142038Y-56807214D01*
X163298048Y-56491653D01*
X161986000Y-55179605D01*
X160673952Y-56491653D01*
X159898375Y-56491653D01*
X159907892Y-56460280D01*
X159924072Y-56296000D01*
X159924072Y-55563149D01*
X160020757Y-55860383D01*
X160178786Y-56156038D01*
X160494347Y-56312048D01*
X161806395Y-55000000D01*
X162165605Y-55000000D01*
X163477653Y-56312048D01*
X163793214Y-56156038D01*
X163984020Y-55781255D01*
X164098044Y-55376449D01*
X164130902Y-54957176D01*
X164081334Y-54539549D01*
X163951243Y-54139617D01*
X163793214Y-53843962D01*
X163510114Y-53704000D01*
X173861928Y-53704000D01*
X173861928Y-56296000D01*
X173878108Y-56460280D01*
X173926027Y-56618247D01*
X174003843Y-56763830D01*
X174108565Y-56891435D01*
X174236170Y-56996157D01*
X174381753Y-57073973D01*
X174539720Y-57121892D01*
X174704000Y-57138072D01*
X177296000Y-57138072D01*
X177460280Y-57121892D01*
X177618247Y-57073973D01*
X177763830Y-56996157D01*
X177891435Y-56891435D01*
X177996157Y-56763830D01*
X178073973Y-56618247D01*
X178121892Y-56460280D01*
X178138072Y-56296000D01*
X178138072Y-55577636D01*
X178147047Y-55622756D01*
X178307988Y-56011302D01*
X178541637Y-56360983D01*
X178839017Y-56658363D01*
X179188698Y-56892012D01*
X179577244Y-57052953D01*
X179989721Y-57135000D01*
X180410279Y-57135000D01*
X180822756Y-57052953D01*
X181211302Y-56892012D01*
X181560983Y-56658363D01*
X181858363Y-56360983D01*
X182092012Y-56011302D01*
X182252953Y-55622756D01*
X182335000Y-55210279D01*
X182335000Y-54789721D01*
X182252953Y-54377244D01*
X182092012Y-53988698D01*
X181858363Y-53639017D01*
X181560983Y-53341637D01*
X181211302Y-53107988D01*
X180822756Y-52947047D01*
X180410279Y-52865000D01*
X179989721Y-52865000D01*
X179577244Y-52947047D01*
X179188698Y-53107988D01*
X178839017Y-53341637D01*
X178541637Y-53639017D01*
X178307988Y-53988698D01*
X178147047Y-54377244D01*
X178138072Y-54422364D01*
X178138072Y-53704000D01*
X178121892Y-53539720D01*
X178073973Y-53381753D01*
X177996157Y-53236170D01*
X177891435Y-53108565D01*
X177763830Y-53003843D01*
X177618247Y-52926027D01*
X177460280Y-52878108D01*
X177296000Y-52861928D01*
X174704000Y-52861928D01*
X174539720Y-52878108D01*
X174381753Y-52926027D01*
X174236170Y-53003843D01*
X174108565Y-53108565D01*
X174003843Y-53236170D01*
X173926027Y-53381753D01*
X173878108Y-53539720D01*
X173861928Y-53704000D01*
X163510114Y-53704000D01*
X163477653Y-53687952D01*
X162165605Y-55000000D01*
X161806395Y-55000000D01*
X160494347Y-53687952D01*
X160178786Y-53843962D01*
X159987980Y-54218745D01*
X159924072Y-54445630D01*
X159924072Y-53704000D01*
X159907892Y-53539720D01*
X159898376Y-53508347D01*
X160673952Y-53508347D01*
X161986000Y-54820395D01*
X163298048Y-53508347D01*
X163142038Y-53192786D01*
X162767255Y-53001980D01*
X162362449Y-52887956D01*
X161943176Y-52855098D01*
X161525549Y-52904666D01*
X161125617Y-53034757D01*
X160829962Y-53192786D01*
X160673952Y-53508347D01*
X159898376Y-53508347D01*
X159859973Y-53381753D01*
X159782157Y-53236170D01*
X159677435Y-53108565D01*
X159549830Y-53003843D01*
X159404247Y-52926027D01*
X159246280Y-52878108D01*
X159082000Y-52861928D01*
X156490000Y-52861928D01*
X156325720Y-52878108D01*
X156167753Y-52926027D01*
X156022170Y-53003843D01*
X155894565Y-53108565D01*
X155789843Y-53236170D01*
X155712027Y-53381753D01*
X155664108Y-53539720D01*
X155647928Y-53704000D01*
X146627000Y-53704000D01*
X146627000Y-47489721D01*
X157751000Y-47489721D01*
X157751000Y-47910279D01*
X157833047Y-48322756D01*
X157993988Y-48711302D01*
X158227637Y-49060983D01*
X158525017Y-49358363D01*
X158874698Y-49592012D01*
X159263244Y-49752953D01*
X159675721Y-49835000D01*
X160096279Y-49835000D01*
X160508756Y-49752953D01*
X160897302Y-49592012D01*
X161246983Y-49358363D01*
X161544363Y-49060983D01*
X161778012Y-48711302D01*
X161938953Y-48322756D01*
X162021000Y-47910279D01*
X162021000Y-47489721D01*
X175965000Y-47489721D01*
X175965000Y-47910279D01*
X176047047Y-48322756D01*
X176207988Y-48711302D01*
X176441637Y-49060983D01*
X176739017Y-49358363D01*
X177088698Y-49592012D01*
X177477244Y-49752953D01*
X177889721Y-49835000D01*
X178310279Y-49835000D01*
X178722756Y-49752953D01*
X179111302Y-49592012D01*
X179460983Y-49358363D01*
X179758363Y-49060983D01*
X179992012Y-48711302D01*
X180152953Y-48322756D01*
X180235000Y-47910279D01*
X180235000Y-47489721D01*
X180152953Y-47077244D01*
X179992012Y-46688698D01*
X179758363Y-46339017D01*
X179460983Y-46041637D01*
X179111302Y-45807988D01*
X178722756Y-45647047D01*
X178310279Y-45565000D01*
X177889721Y-45565000D01*
X177477244Y-45647047D01*
X177088698Y-45807988D01*
X176739017Y-46041637D01*
X176441637Y-46339017D01*
X176207988Y-46688698D01*
X176047047Y-47077244D01*
X175965000Y-47489721D01*
X162021000Y-47489721D01*
X161938953Y-47077244D01*
X161778012Y-46688698D01*
X161544363Y-46339017D01*
X161246983Y-46041637D01*
X160897302Y-45807988D01*
X160508756Y-45647047D01*
X160096279Y-45565000D01*
X159675721Y-45565000D01*
X159263244Y-45647047D01*
X158874698Y-45807988D01*
X158525017Y-46041637D01*
X158227637Y-46339017D01*
X157993988Y-46688698D01*
X157833047Y-47077244D01*
X157751000Y-47489721D01*
X146627000Y-47489721D01*
X146627000Y-46414114D01*
X146842188Y-46629302D01*
X147396601Y-46999748D01*
X148012632Y-47254917D01*
X148666607Y-47385000D01*
X149333393Y-47385000D01*
X149987368Y-47254917D01*
X150603399Y-46999748D01*
X151157812Y-46629302D01*
X151629302Y-46157812D01*
X151999748Y-45603399D01*
X152254917Y-44987368D01*
X152385000Y-44333393D01*
X152385000Y-43666607D01*
X152254917Y-43012632D01*
X151999748Y-42396601D01*
X151629302Y-41842188D01*
X151408892Y-41621778D01*
X188630706Y-41582180D01*
X188370698Y-41842188D01*
G37*
X188370698Y-41842188D02*
X188000252Y-42396601D01*
X187745083Y-43012632D01*
X187615000Y-43666607D01*
X187615000Y-44333393D01*
X187745083Y-44987368D01*
X188000252Y-45603399D01*
X188370698Y-46157812D01*
X188842188Y-46629302D01*
X189396601Y-46999748D01*
X190012632Y-47254917D01*
X190666607Y-47385000D01*
X191333393Y-47385000D01*
X191987368Y-47254917D01*
X192603399Y-46999748D01*
X193157812Y-46629302D01*
X193373000Y-46414114D01*
X193373000Y-83585886D01*
X193157812Y-83370698D01*
X192603399Y-83000252D01*
X191987368Y-82745083D01*
X191333393Y-82615000D01*
X190666607Y-82615000D01*
X190012632Y-82745083D01*
X189396601Y-83000252D01*
X188842188Y-83370698D01*
X188370698Y-83842188D01*
X188000252Y-84396601D01*
X187745083Y-85012632D01*
X187615000Y-85666607D01*
X187615000Y-86333393D01*
X187745083Y-86987368D01*
X188000252Y-87603399D01*
X188370698Y-88157812D01*
X188585886Y-88373000D01*
X168143838Y-88373000D01*
X168283623Y-88298284D01*
X168456449Y-88156449D01*
X168491996Y-88113136D01*
X169588140Y-87016992D01*
X169631449Y-86981449D01*
X169773284Y-86808623D01*
X169878676Y-86611447D01*
X169943577Y-86397499D01*
X169960000Y-86230752D01*
X169965491Y-86175000D01*
X169960000Y-86119249D01*
X169960000Y-84923863D01*
X173767622Y-84923863D01*
X173861121Y-85220446D01*
X174010684Y-85493089D01*
X174210563Y-85731315D01*
X174453077Y-85925969D01*
X174728906Y-86069571D01*
X174947020Y-86140563D01*
X175193000Y-86020594D01*
X175193000Y-84677000D01*
X173894430Y-84677000D01*
X173767622Y-84923863D01*
X169960000Y-84923863D01*
X169960000Y-84176137D01*
X173767622Y-84176137D01*
X173894430Y-84423000D01*
X175193000Y-84423000D01*
X175193000Y-83079406D01*
X174947020Y-82959437D01*
X174728906Y-83030429D01*
X174453077Y-83174031D01*
X174210563Y-83368685D01*
X174010684Y-83606911D01*
X173861121Y-83879554D01*
X173767622Y-84176137D01*
X169960000Y-84176137D01*
X169960000Y-79368685D01*
X170117114Y-79525799D01*
X170343957Y-79677371D01*
X170596011Y-79781775D01*
X170863589Y-79835000D01*
X171136411Y-79835000D01*
X171403989Y-79781775D01*
X171656043Y-79677371D01*
X171882886Y-79525799D01*
X172075799Y-79332886D01*
X172227371Y-79106043D01*
X172331775Y-78853989D01*
X172385000Y-78586411D01*
X172385000Y-78313589D01*
X172331775Y-78046011D01*
X172227371Y-77793957D01*
X172135000Y-77655714D01*
X172135000Y-73559535D01*
X172161928Y-73559379D01*
X172161928Y-73835000D01*
X172177071Y-73988745D01*
X172221916Y-74136582D01*
X172294742Y-74272829D01*
X172333454Y-74320000D01*
X172294742Y-74367171D01*
X172221916Y-74503418D01*
X172177071Y-74651255D01*
X172161928Y-74805000D01*
X172161928Y-75105000D01*
X172177071Y-75258745D01*
X172221916Y-75406582D01*
X172294742Y-75542829D01*
X172392749Y-75662251D01*
X172512171Y-75760258D01*
X172640000Y-75828585D01*
X172640001Y-78419239D01*
X172634509Y-78475000D01*
X172656423Y-78697498D01*
X172721324Y-78911446D01*
X172770384Y-79003230D01*
X172826717Y-79108623D01*
X172968552Y-79281449D01*
X173011860Y-79316991D01*
X173608004Y-79913135D01*
X173643551Y-79956449D01*
X173816377Y-80098284D01*
X174013553Y-80203676D01*
X174177705Y-80253471D01*
X174227500Y-80268577D01*
X174449999Y-80290491D01*
X174505751Y-80285000D01*
X176362479Y-80285000D01*
X176428836Y-80339458D01*
X176581291Y-80420947D01*
X176746715Y-80471128D01*
X176918750Y-80488072D01*
X177406250Y-80488072D01*
X177578285Y-80471128D01*
X177743709Y-80420947D01*
X177896164Y-80339458D01*
X178029792Y-80229792D01*
X178100000Y-80144244D01*
X178170208Y-80229792D01*
X178303836Y-80339458D01*
X178456291Y-80420947D01*
X178621715Y-80471128D01*
X178767894Y-80485525D01*
X179265001Y-80982633D01*
X179265000Y-82941787D01*
X179203320Y-82960498D01*
X179093006Y-83019463D01*
X178996315Y-83098815D01*
X178916963Y-83195506D01*
X178872095Y-83279446D01*
X178746235Y-83176155D01*
X178470449Y-83028745D01*
X178171204Y-82937970D01*
X177860000Y-82907319D01*
X177548797Y-82937970D01*
X177249552Y-83028745D01*
X176973766Y-83176155D01*
X176732037Y-83374537D01*
X176584837Y-83553899D01*
X176429437Y-83368685D01*
X176186923Y-83174031D01*
X175911094Y-83030429D01*
X175692980Y-82959437D01*
X175447000Y-83079406D01*
X175447000Y-84423000D01*
X175467000Y-84423000D01*
X175467000Y-84677000D01*
X175447000Y-84677000D01*
X175447000Y-86020594D01*
X175692980Y-86140563D01*
X175911094Y-86069571D01*
X176186923Y-85925969D01*
X176429437Y-85731315D01*
X176584838Y-85546100D01*
X176732037Y-85725463D01*
X176973765Y-85923845D01*
X177249551Y-86071255D01*
X177548796Y-86162030D01*
X177860000Y-86192681D01*
X178171203Y-86162030D01*
X178470448Y-86071255D01*
X178746234Y-85923845D01*
X178872095Y-85820553D01*
X178916963Y-85904494D01*
X178996315Y-86001185D01*
X179093006Y-86080537D01*
X179203320Y-86139502D01*
X179323018Y-86175812D01*
X179447500Y-86188072D01*
X181352500Y-86188072D01*
X181476982Y-86175812D01*
X181596680Y-86139502D01*
X181706994Y-86080537D01*
X181803685Y-86001185D01*
X181883037Y-85904494D01*
X181942002Y-85794180D01*
X181978312Y-85674482D01*
X181990572Y-85550000D01*
X181990572Y-83550000D01*
X181978312Y-83425518D01*
X181942002Y-83305820D01*
X181883037Y-83195506D01*
X181803685Y-83098815D01*
X181706994Y-83019463D01*
X181596680Y-82960498D01*
X181535000Y-82941788D01*
X181535000Y-80568251D01*
X181540491Y-80512500D01*
X181518577Y-80290001D01*
X181453676Y-80076053D01*
X181436304Y-80043552D01*
X181348284Y-79878877D01*
X181206449Y-79706051D01*
X181163140Y-79670508D01*
X180160525Y-78667894D01*
X180146128Y-78521715D01*
X180095947Y-78356291D01*
X180014458Y-78203836D01*
X179948717Y-78123730D01*
X180005537Y-78054494D01*
X180064502Y-77944180D01*
X180100812Y-77824482D01*
X180113072Y-77700000D01*
X180110000Y-77285750D01*
X179951250Y-77127000D01*
X179114500Y-77127000D01*
X179114500Y-77147000D01*
X178860500Y-77147000D01*
X178860500Y-77127000D01*
X178840500Y-77127000D01*
X178840500Y-76873000D01*
X178860500Y-76873000D01*
X178860500Y-75823750D01*
X178836750Y-75800000D01*
X178860500Y-75776250D01*
X178860500Y-74727000D01*
X179114500Y-74727000D01*
X179114500Y-75776250D01*
X179138250Y-75800000D01*
X179114500Y-75823750D01*
X179114500Y-76873000D01*
X179951250Y-76873000D01*
X180110000Y-76714250D01*
X180113072Y-76300000D01*
X180100812Y-76175518D01*
X180064502Y-76055820D01*
X180005537Y-75945506D01*
X179926185Y-75848815D01*
X179866704Y-75800000D01*
X179926185Y-75751185D01*
X180005537Y-75654494D01*
X180064502Y-75544180D01*
X180100812Y-75424482D01*
X180113072Y-75300000D01*
X180110000Y-74885750D01*
X179951250Y-74727000D01*
X179114500Y-74727000D01*
X178860500Y-74727000D01*
X178840500Y-74727000D01*
X178840500Y-74473000D01*
X178860500Y-74473000D01*
X178860500Y-74453000D01*
X179114500Y-74453000D01*
X179114500Y-74473000D01*
X179951250Y-74473000D01*
X180110000Y-74314250D01*
X180113072Y-73900000D01*
X180100812Y-73775518D01*
X180064502Y-73655820D01*
X180005537Y-73545506D01*
X179926185Y-73448815D01*
X179829494Y-73369463D01*
X179807971Y-73357959D01*
X179842292Y-73329792D01*
X179951958Y-73196164D01*
X180033447Y-73043709D01*
X180083628Y-72878285D01*
X180100572Y-72706250D01*
X180100572Y-72401477D01*
X180115491Y-72250000D01*
X180100572Y-72098523D01*
X180100572Y-71793750D01*
X180083628Y-71621715D01*
X180033447Y-71456291D01*
X179951958Y-71303836D01*
X179842292Y-71170208D01*
X179708664Y-71060542D01*
X179642170Y-71025000D01*
X179708664Y-70989458D01*
X179842292Y-70879792D01*
X179951958Y-70746164D01*
X180033447Y-70593709D01*
X180083628Y-70428285D01*
X180100572Y-70256250D01*
X180100572Y-70028145D01*
X180106077Y-70009998D01*
X180127991Y-69787500D01*
X180110000Y-69604832D01*
X180110000Y-67850493D01*
X180214871Y-67693543D01*
X180319275Y-67441489D01*
X180372500Y-67173911D01*
X180372500Y-66901089D01*
X180319275Y-66633511D01*
X180214871Y-66381457D01*
X180063299Y-66154614D01*
X179870386Y-65961701D01*
X179643543Y-65810129D01*
X179391489Y-65705725D01*
X179123911Y-65652500D01*
X178851089Y-65652500D01*
X178583511Y-65705725D01*
X178331457Y-65810129D01*
X178104614Y-65961701D01*
X177911701Y-66154614D01*
X177760129Y-66381457D01*
X177655725Y-66633511D01*
X177602500Y-66901089D01*
X177602500Y-67173911D01*
X177655725Y-67441489D01*
X177760129Y-67693543D01*
X177840001Y-67813079D01*
X177840000Y-68615742D01*
X177833664Y-68610542D01*
X177681209Y-68529053D01*
X177515785Y-68478872D01*
X177343750Y-68461928D01*
X176856250Y-68461928D01*
X176684215Y-68478872D01*
X176518791Y-68529053D01*
X176366336Y-68610542D01*
X176232708Y-68720208D01*
X176123042Y-68853836D01*
X176041553Y-69006291D01*
X175991372Y-69171715D01*
X175974428Y-69343750D01*
X175974428Y-69648533D01*
X175965001Y-69744248D01*
X175965000Y-71779868D01*
X175388072Y-72356797D01*
X175388072Y-72265000D01*
X175372929Y-72111255D01*
X175328084Y-71963418D01*
X175256270Y-71829064D01*
X175280537Y-71799494D01*
X175339502Y-71689180D01*
X175375812Y-71569482D01*
X175388072Y-71445000D01*
X175385000Y-71430750D01*
X175226250Y-71272000D01*
X173902000Y-71272000D01*
X173902000Y-71286906D01*
X173824165Y-71279696D01*
X173648000Y-71280718D01*
X173648000Y-71272000D01*
X172323750Y-71272000D01*
X172307252Y-71288498D01*
X171242470Y-71294677D01*
X171190000Y-71289509D01*
X171137834Y-71294647D01*
X170438072Y-71290209D01*
X170438072Y-70995000D01*
X170423298Y-70845000D01*
X172161928Y-70845000D01*
X172165000Y-70859250D01*
X172323750Y-71018000D01*
X173648000Y-71018000D01*
X173648000Y-70368750D01*
X173902000Y-70368750D01*
X173902000Y-71018000D01*
X175226250Y-71018000D01*
X175385000Y-70859250D01*
X175388072Y-70845000D01*
X175375812Y-70720518D01*
X175339502Y-70600820D01*
X175280537Y-70490506D01*
X175201185Y-70393815D01*
X175104494Y-70314463D01*
X174994180Y-70255498D01*
X174874482Y-70219188D01*
X174750000Y-70206928D01*
X174060750Y-70210000D01*
X173902000Y-70368750D01*
X173648000Y-70368750D01*
X173489250Y-70210000D01*
X172800000Y-70206928D01*
X172675518Y-70219188D01*
X172555820Y-70255498D01*
X172445506Y-70314463D01*
X172348815Y-70393815D01*
X172269463Y-70490506D01*
X172210498Y-70600820D01*
X172174188Y-70720518D01*
X172161928Y-70845000D01*
X170423298Y-70845000D01*
X170422929Y-70841255D01*
X170378084Y-70693418D01*
X170305258Y-70557171D01*
X170207251Y-70437749D01*
X170087829Y-70339742D01*
X169951582Y-70266916D01*
X169803745Y-70222071D01*
X169650000Y-70206928D01*
X169471066Y-70206928D01*
X169458623Y-70196716D01*
X169261447Y-70091324D01*
X169047499Y-70026423D01*
X168880752Y-70010000D01*
X166263072Y-70010000D01*
X166263072Y-69793750D01*
X166246128Y-69621715D01*
X166195947Y-69456291D01*
X166114458Y-69303836D01*
X166004792Y-69170208D01*
X165871164Y-69060542D01*
X165718709Y-68979053D01*
X165553285Y-68928872D01*
X165381250Y-68911928D01*
X164893750Y-68911928D01*
X164721715Y-68928872D01*
X164556291Y-68979053D01*
X164403836Y-69060542D01*
X164397500Y-69065742D01*
X164397500Y-67831786D01*
X164489871Y-67693543D01*
X164594275Y-67441489D01*
X164647500Y-67173911D01*
X164647500Y-66901089D01*
X164594275Y-66633511D01*
X164489871Y-66381457D01*
X164338299Y-66154614D01*
X164145386Y-65961701D01*
X163918543Y-65810129D01*
X163666489Y-65705725D01*
X163398911Y-65652500D01*
X163126089Y-65652500D01*
X162858511Y-65705725D01*
X162606457Y-65810129D01*
X162379614Y-65961701D01*
X162186701Y-66154614D01*
X162035129Y-66381457D01*
X161930725Y-66633511D01*
X161877500Y-66901089D01*
X161877500Y-67173911D01*
X161930725Y-67441489D01*
X162035129Y-67693543D01*
X162127501Y-67831787D01*
X162127500Y-70305751D01*
X162136928Y-70401476D01*
X162136928Y-70706250D01*
X162153872Y-70878285D01*
X162204053Y-71043709D01*
X162285542Y-71196164D01*
X162301000Y-71215000D01*
X158489131Y-71215000D01*
X158543762Y-71178497D01*
X158732497Y-70989762D01*
X158880785Y-70767833D01*
X158982928Y-70521239D01*
X159035000Y-70259456D01*
X159035000Y-69992544D01*
X158982928Y-69730761D01*
X158880785Y-69484167D01*
X158732497Y-69262238D01*
X158543762Y-69073503D01*
X158321833Y-68925215D01*
X158154734Y-68856000D01*
X158321833Y-68786785D01*
X158543762Y-68638497D01*
X158732497Y-68449762D01*
X158880785Y-68227833D01*
X158982928Y-67981239D01*
X159035000Y-67719456D01*
X159035000Y-67452544D01*
X158982928Y-67190761D01*
X158880785Y-66944167D01*
X158732497Y-66722238D01*
X158543762Y-66533503D01*
X158321833Y-66385215D01*
X158154734Y-66316000D01*
X158321833Y-66246785D01*
X158543762Y-66098497D01*
X158732497Y-65909762D01*
X158880785Y-65687833D01*
X158982928Y-65441239D01*
X159035000Y-65179456D01*
X159035000Y-64912544D01*
X158982928Y-64650761D01*
X158880785Y-64404167D01*
X158732497Y-64182238D01*
X158543762Y-63993503D01*
X158321833Y-63845215D01*
X158075239Y-63743072D01*
X157813456Y-63691000D01*
X157546544Y-63691000D01*
X157284761Y-63743072D01*
X157038167Y-63845215D01*
X156816238Y-63993503D01*
X156627503Y-64182238D01*
X156479215Y-64404167D01*
X156377072Y-64650761D01*
X156325000Y-64912544D01*
X156325000Y-65179456D01*
X156377072Y-65441239D01*
X156479215Y-65687833D01*
X156627503Y-65909762D01*
X156816238Y-66098497D01*
X157038167Y-66246785D01*
X157205266Y-66316000D01*
X157038167Y-66385215D01*
X156816238Y-66533503D01*
X156627503Y-66722238D01*
X156479215Y-66944167D01*
X156377072Y-67190761D01*
X156325000Y-67452544D01*
X156325000Y-67719456D01*
X156377072Y-67981239D01*
X156479215Y-68227833D01*
X156627503Y-68449762D01*
X156816238Y-68638497D01*
X157038167Y-68786785D01*
X157205266Y-68856000D01*
X157038167Y-68925215D01*
X156816238Y-69073503D01*
X156627503Y-69262238D01*
X156479215Y-69484167D01*
X156377072Y-69730761D01*
X156325000Y-69992544D01*
X156325000Y-70259456D01*
X156377072Y-70521239D01*
X156479215Y-70767833D01*
X156627503Y-70989762D01*
X156816238Y-71178497D01*
X156870869Y-71215000D01*
X155159472Y-71215000D01*
X154716614Y-70772142D01*
X154727371Y-70756043D01*
X154831775Y-70503989D01*
X154885000Y-70236411D01*
X154885000Y-69963589D01*
X154831775Y-69696011D01*
X154727371Y-69443957D01*
X154585000Y-69230884D01*
X154585000Y-68056046D01*
X154679494Y-68005537D01*
X154776185Y-67926185D01*
X154855537Y-67829494D01*
X154914502Y-67719180D01*
X154950812Y-67599482D01*
X154963072Y-67475000D01*
X154963072Y-66225000D01*
X154950812Y-66100518D01*
X154914502Y-65980820D01*
X154855537Y-65870506D01*
X154776185Y-65773815D01*
X154679494Y-65694463D01*
X154569180Y-65635498D01*
X154449482Y-65599188D01*
X154325000Y-65586928D01*
X152575000Y-65586928D01*
X152450518Y-65599188D01*
X152330820Y-65635498D01*
X152220506Y-65694463D01*
X152195482Y-65715000D01*
X151255751Y-65715000D01*
X151200000Y-65709509D01*
X151144248Y-65715000D01*
X150977501Y-65731423D01*
X150763553Y-65796324D01*
X150566377Y-65901716D01*
X150393551Y-66043551D01*
X150358008Y-66086860D01*
X149336860Y-67108009D01*
X149293552Y-67143551D01*
X149151717Y-67316377D01*
X149095384Y-67421770D01*
X149046324Y-67513554D01*
X148981423Y-67727502D01*
X148959509Y-67950000D01*
X148965001Y-68005761D01*
X148965000Y-80794248D01*
X148959509Y-80850000D01*
X148965000Y-80905751D01*
X148981423Y-81072498D01*
X149046324Y-81286446D01*
X149151716Y-81483623D01*
X149293551Y-81656449D01*
X149336865Y-81691996D01*
X149708004Y-82063135D01*
X149743551Y-82106449D01*
X149916377Y-82248284D01*
X150113553Y-82353676D01*
X150327501Y-82418577D01*
X150549999Y-82440491D01*
X150605751Y-82435000D01*
X152115001Y-82435000D01*
X152115000Y-84674844D01*
X151999748Y-84396601D01*
X151629302Y-83842188D01*
X151157812Y-83370698D01*
X150603399Y-83000252D01*
X149987368Y-82745083D01*
X149333393Y-82615000D01*
X148666607Y-82615000D01*
X148012632Y-82745083D01*
X147396601Y-83000252D01*
X146842188Y-83370698D01*
X146627000Y-83585886D01*
X146627000Y-63425000D01*
X151936928Y-63425000D01*
X151936928Y-64675000D01*
X151949188Y-64799482D01*
X151985498Y-64919180D01*
X152044463Y-65029494D01*
X152123815Y-65126185D01*
X152220506Y-65205537D01*
X152330820Y-65264502D01*
X152450518Y-65300812D01*
X152575000Y-65313072D01*
X154325000Y-65313072D01*
X154449482Y-65300812D01*
X154569180Y-65264502D01*
X154679494Y-65205537D01*
X154776185Y-65126185D01*
X154855537Y-65029494D01*
X154914502Y-64919180D01*
X154950812Y-64799482D01*
X154963072Y-64675000D01*
X154963072Y-63425000D01*
X154950812Y-63300518D01*
X154914502Y-63180820D01*
X154855537Y-63070506D01*
X154776185Y-62973815D01*
X154679494Y-62894463D01*
X154585000Y-62843954D01*
X154585000Y-62220131D01*
X155170132Y-61635000D01*
X155976640Y-61635000D01*
X156127637Y-61860983D01*
X156425017Y-62158363D01*
X156774698Y-62392012D01*
X157163244Y-62552953D01*
X157575721Y-62635000D01*
X157996279Y-62635000D01*
X158408756Y-62552953D01*
X158797302Y-62392012D01*
X159146983Y-62158363D01*
X159313693Y-61991653D01*
X160673952Y-61991653D01*
X160829962Y-62307214D01*
X161204745Y-62498020D01*
X161609551Y-62612044D01*
X162028824Y-62644902D01*
X162446451Y-62595334D01*
X162846383Y-62465243D01*
X163142038Y-62307214D01*
X163298048Y-61991653D01*
X174687952Y-61991653D01*
X174843962Y-62307214D01*
X175218745Y-62498020D01*
X175623551Y-62612044D01*
X176042824Y-62644902D01*
X176460451Y-62595334D01*
X176860383Y-62465243D01*
X177156038Y-62307214D01*
X177312048Y-61991653D01*
X176000000Y-60679605D01*
X174687952Y-61991653D01*
X163298048Y-61991653D01*
X161986000Y-60679605D01*
X160673952Y-61991653D01*
X159313693Y-61991653D01*
X159444363Y-61860983D01*
X159678012Y-61511302D01*
X159838953Y-61122756D01*
X159883405Y-60899279D01*
X159890666Y-60960451D01*
X160020757Y-61360383D01*
X160178786Y-61656038D01*
X160494347Y-61812048D01*
X161806395Y-60500000D01*
X162165605Y-60500000D01*
X163477653Y-61812048D01*
X163793214Y-61656038D01*
X163984020Y-61281255D01*
X164098044Y-60876449D01*
X164124189Y-60542824D01*
X173855098Y-60542824D01*
X173904666Y-60960451D01*
X174034757Y-61360383D01*
X174192786Y-61656038D01*
X174508347Y-61812048D01*
X175820395Y-60500000D01*
X176179605Y-60500000D01*
X177491653Y-61812048D01*
X177807214Y-61656038D01*
X177998020Y-61281255D01*
X178103844Y-60905560D01*
X178147047Y-61122756D01*
X178307988Y-61511302D01*
X178541637Y-61860983D01*
X178839017Y-62158363D01*
X179188698Y-62392012D01*
X179577244Y-62552953D01*
X179989721Y-62635000D01*
X180410279Y-62635000D01*
X180822756Y-62552953D01*
X181211302Y-62392012D01*
X181560983Y-62158363D01*
X181858363Y-61860983D01*
X182092012Y-61511302D01*
X182252953Y-61122756D01*
X182335000Y-60710279D01*
X182335000Y-60289721D01*
X182252953Y-59877244D01*
X182092012Y-59488698D01*
X181858363Y-59139017D01*
X181560983Y-58841637D01*
X181211302Y-58607988D01*
X180822756Y-58447047D01*
X180410279Y-58365000D01*
X179989721Y-58365000D01*
X179577244Y-58447047D01*
X179188698Y-58607988D01*
X178839017Y-58841637D01*
X178541637Y-59139017D01*
X178307988Y-59488698D01*
X178147047Y-59877244D01*
X178102595Y-60100721D01*
X178095334Y-60039549D01*
X177965243Y-59639617D01*
X177807214Y-59343962D01*
X177491653Y-59187952D01*
X176179605Y-60500000D01*
X175820395Y-60500000D01*
X174508347Y-59187952D01*
X174192786Y-59343962D01*
X174001980Y-59718745D01*
X173887956Y-60123551D01*
X173855098Y-60542824D01*
X164124189Y-60542824D01*
X164130902Y-60457176D01*
X164081334Y-60039549D01*
X163951243Y-59639617D01*
X163793214Y-59343962D01*
X163477653Y-59187952D01*
X162165605Y-60500000D01*
X161806395Y-60500000D01*
X160494347Y-59187952D01*
X160178786Y-59343962D01*
X159987980Y-59718745D01*
X159882156Y-60094440D01*
X159838953Y-59877244D01*
X159678012Y-59488698D01*
X159444363Y-59139017D01*
X159313693Y-59008347D01*
X160673952Y-59008347D01*
X161986000Y-60320395D01*
X163298048Y-59008347D01*
X174687952Y-59008347D01*
X176000000Y-60320395D01*
X177312048Y-59008347D01*
X177156038Y-58692786D01*
X176781255Y-58501980D01*
X176376449Y-58387956D01*
X175957176Y-58355098D01*
X175539549Y-58404666D01*
X175139617Y-58534757D01*
X174843962Y-58692786D01*
X174687952Y-59008347D01*
X163298048Y-59008347D01*
X163142038Y-58692786D01*
X162767255Y-58501980D01*
X162362449Y-58387956D01*
X161943176Y-58355098D01*
X161525549Y-58404666D01*
X161125617Y-58534757D01*
X160829962Y-58692786D01*
X160673952Y-59008347D01*
X159313693Y-59008347D01*
X159146983Y-58841637D01*
X158797302Y-58607988D01*
X158408756Y-58447047D01*
X157996279Y-58365000D01*
X157575721Y-58365000D01*
X157163244Y-58447047D01*
X156774698Y-58607988D01*
X156425017Y-58841637D01*
X156127637Y-59139017D01*
X155976640Y-59365000D01*
X154755751Y-59365000D01*
X154700000Y-59359509D01*
X154644248Y-59365000D01*
X154477501Y-59381423D01*
X154263553Y-59446324D01*
X154066377Y-59551716D01*
X153893551Y-59693551D01*
X153858008Y-59736860D01*
X152686860Y-60908009D01*
X152643552Y-60943551D01*
X152501717Y-61116377D01*
X152492499Y-61133623D01*
X152396324Y-61313554D01*
X152331423Y-61527502D01*
X152309509Y-61750000D01*
X152315001Y-61805761D01*
X152315001Y-62843954D01*
X152220506Y-62894463D01*
X152123815Y-62973815D01*
X152044463Y-63070506D01*
X151985498Y-63180820D01*
X151949188Y-63300518D01*
X151936928Y-63425000D01*
X146627000Y-63425000D01*
X146627000Y-53704000D01*
X155647928Y-53704000D01*
X155647928Y-56296000D01*
X155664108Y-56460280D01*
X155712027Y-56618247D01*
X155789843Y-56763830D01*
X155894565Y-56891435D01*
X156022170Y-56996157D01*
X156167753Y-57073973D01*
X156325720Y-57121892D01*
X156490000Y-57138072D01*
X159082000Y-57138072D01*
X159246280Y-57121892D01*
X159404247Y-57073973D01*
X159549830Y-56996157D01*
X159677435Y-56891435D01*
X159782157Y-56763830D01*
X159859973Y-56618247D01*
X159898375Y-56491653D01*
X160673952Y-56491653D01*
X160829962Y-56807214D01*
X161204745Y-56998020D01*
X161609551Y-57112044D01*
X162028824Y-57144902D01*
X162446451Y-57095334D01*
X162846383Y-56965243D01*
X163142038Y-56807214D01*
X163298048Y-56491653D01*
X161986000Y-55179605D01*
X160673952Y-56491653D01*
X159898375Y-56491653D01*
X159907892Y-56460280D01*
X159924072Y-56296000D01*
X159924072Y-55563149D01*
X160020757Y-55860383D01*
X160178786Y-56156038D01*
X160494347Y-56312048D01*
X161806395Y-55000000D01*
X162165605Y-55000000D01*
X163477653Y-56312048D01*
X163793214Y-56156038D01*
X163984020Y-55781255D01*
X164098044Y-55376449D01*
X164130902Y-54957176D01*
X164081334Y-54539549D01*
X163951243Y-54139617D01*
X163793214Y-53843962D01*
X163510114Y-53704000D01*
X173861928Y-53704000D01*
X173861928Y-56296000D01*
X173878108Y-56460280D01*
X173926027Y-56618247D01*
X174003843Y-56763830D01*
X174108565Y-56891435D01*
X174236170Y-56996157D01*
X174381753Y-57073973D01*
X174539720Y-57121892D01*
X174704000Y-57138072D01*
X177296000Y-57138072D01*
X177460280Y-57121892D01*
X177618247Y-57073973D01*
X177763830Y-56996157D01*
X177891435Y-56891435D01*
X177996157Y-56763830D01*
X178073973Y-56618247D01*
X178121892Y-56460280D01*
X178138072Y-56296000D01*
X178138072Y-55577636D01*
X178147047Y-55622756D01*
X178307988Y-56011302D01*
X178541637Y-56360983D01*
X178839017Y-56658363D01*
X179188698Y-56892012D01*
X179577244Y-57052953D01*
X179989721Y-57135000D01*
X180410279Y-57135000D01*
X180822756Y-57052953D01*
X181211302Y-56892012D01*
X181560983Y-56658363D01*
X181858363Y-56360983D01*
X182092012Y-56011302D01*
X182252953Y-55622756D01*
X182335000Y-55210279D01*
X182335000Y-54789721D01*
X182252953Y-54377244D01*
X182092012Y-53988698D01*
X181858363Y-53639017D01*
X181560983Y-53341637D01*
X181211302Y-53107988D01*
X180822756Y-52947047D01*
X180410279Y-52865000D01*
X179989721Y-52865000D01*
X179577244Y-52947047D01*
X179188698Y-53107988D01*
X178839017Y-53341637D01*
X178541637Y-53639017D01*
X178307988Y-53988698D01*
X178147047Y-54377244D01*
X178138072Y-54422364D01*
X178138072Y-53704000D01*
X178121892Y-53539720D01*
X178073973Y-53381753D01*
X177996157Y-53236170D01*
X177891435Y-53108565D01*
X177763830Y-53003843D01*
X177618247Y-52926027D01*
X177460280Y-52878108D01*
X177296000Y-52861928D01*
X174704000Y-52861928D01*
X174539720Y-52878108D01*
X174381753Y-52926027D01*
X174236170Y-53003843D01*
X174108565Y-53108565D01*
X174003843Y-53236170D01*
X173926027Y-53381753D01*
X173878108Y-53539720D01*
X173861928Y-53704000D01*
X163510114Y-53704000D01*
X163477653Y-53687952D01*
X162165605Y-55000000D01*
X161806395Y-55000000D01*
X160494347Y-53687952D01*
X160178786Y-53843962D01*
X159987980Y-54218745D01*
X159924072Y-54445630D01*
X159924072Y-53704000D01*
X159907892Y-53539720D01*
X159898376Y-53508347D01*
X160673952Y-53508347D01*
X161986000Y-54820395D01*
X163298048Y-53508347D01*
X163142038Y-53192786D01*
X162767255Y-53001980D01*
X162362449Y-52887956D01*
X161943176Y-52855098D01*
X161525549Y-52904666D01*
X161125617Y-53034757D01*
X160829962Y-53192786D01*
X160673952Y-53508347D01*
X159898376Y-53508347D01*
X159859973Y-53381753D01*
X159782157Y-53236170D01*
X159677435Y-53108565D01*
X159549830Y-53003843D01*
X159404247Y-52926027D01*
X159246280Y-52878108D01*
X159082000Y-52861928D01*
X156490000Y-52861928D01*
X156325720Y-52878108D01*
X156167753Y-52926027D01*
X156022170Y-53003843D01*
X155894565Y-53108565D01*
X155789843Y-53236170D01*
X155712027Y-53381753D01*
X155664108Y-53539720D01*
X155647928Y-53704000D01*
X146627000Y-53704000D01*
X146627000Y-47489721D01*
X157751000Y-47489721D01*
X157751000Y-47910279D01*
X157833047Y-48322756D01*
X157993988Y-48711302D01*
X158227637Y-49060983D01*
X158525017Y-49358363D01*
X158874698Y-49592012D01*
X159263244Y-49752953D01*
X159675721Y-49835000D01*
X160096279Y-49835000D01*
X160508756Y-49752953D01*
X160897302Y-49592012D01*
X161246983Y-49358363D01*
X161544363Y-49060983D01*
X161778012Y-48711302D01*
X161938953Y-48322756D01*
X162021000Y-47910279D01*
X162021000Y-47489721D01*
X175965000Y-47489721D01*
X175965000Y-47910279D01*
X176047047Y-48322756D01*
X176207988Y-48711302D01*
X176441637Y-49060983D01*
X176739017Y-49358363D01*
X177088698Y-49592012D01*
X177477244Y-49752953D01*
X177889721Y-49835000D01*
X178310279Y-49835000D01*
X178722756Y-49752953D01*
X179111302Y-49592012D01*
X179460983Y-49358363D01*
X179758363Y-49060983D01*
X179992012Y-48711302D01*
X180152953Y-48322756D01*
X180235000Y-47910279D01*
X180235000Y-47489721D01*
X180152953Y-47077244D01*
X179992012Y-46688698D01*
X179758363Y-46339017D01*
X179460983Y-46041637D01*
X179111302Y-45807988D01*
X178722756Y-45647047D01*
X178310279Y-45565000D01*
X177889721Y-45565000D01*
X177477244Y-45647047D01*
X177088698Y-45807988D01*
X176739017Y-46041637D01*
X176441637Y-46339017D01*
X176207988Y-46688698D01*
X176047047Y-47077244D01*
X175965000Y-47489721D01*
X162021000Y-47489721D01*
X161938953Y-47077244D01*
X161778012Y-46688698D01*
X161544363Y-46339017D01*
X161246983Y-46041637D01*
X160897302Y-45807988D01*
X160508756Y-45647047D01*
X160096279Y-45565000D01*
X159675721Y-45565000D01*
X159263244Y-45647047D01*
X158874698Y-45807988D01*
X158525017Y-46041637D01*
X158227637Y-46339017D01*
X157993988Y-46688698D01*
X157833047Y-47077244D01*
X157751000Y-47489721D01*
X146627000Y-47489721D01*
X146627000Y-46414114D01*
X146842188Y-46629302D01*
X147396601Y-46999748D01*
X148012632Y-47254917D01*
X148666607Y-47385000D01*
X149333393Y-47385000D01*
X149987368Y-47254917D01*
X150603399Y-46999748D01*
X151157812Y-46629302D01*
X151629302Y-46157812D01*
X151999748Y-45603399D01*
X152254917Y-44987368D01*
X152385000Y-44333393D01*
X152385000Y-43666607D01*
X152254917Y-43012632D01*
X151999748Y-42396601D01*
X151629302Y-41842188D01*
X151408892Y-41621778D01*
X188630706Y-41582180D01*
X188370698Y-41842188D01*
G36*
X152220506Y-68005537D02*
G01*
X152315000Y-68056046D01*
X152315001Y-69380543D01*
X152272629Y-69443957D01*
X152168225Y-69696011D01*
X152115000Y-69963589D01*
X152115000Y-70236411D01*
X152168225Y-70503989D01*
X152272629Y-70756043D01*
X152365000Y-70894286D01*
X152365000Y-71104909D01*
X152359509Y-71160660D01*
X152365000Y-71216411D01*
X152365000Y-71216412D01*
X152381423Y-71383159D01*
X152446324Y-71597107D01*
X152551717Y-71794283D01*
X152693552Y-71967109D01*
X152736860Y-72002651D01*
X153847348Y-73113140D01*
X153882891Y-73156449D01*
X154055717Y-73298284D01*
X154252893Y-73403676D01*
X154466841Y-73468577D01*
X154689340Y-73490491D01*
X154745092Y-73485000D01*
X160447651Y-73485000D01*
X160416377Y-73501716D01*
X160243551Y-73643551D01*
X160208011Y-73686857D01*
X159086860Y-74808009D01*
X159043552Y-74843551D01*
X158905368Y-75011928D01*
X158350000Y-75011928D01*
X158176746Y-75028992D01*
X158010150Y-75079528D01*
X157856614Y-75161595D01*
X157722038Y-75272038D01*
X157611595Y-75406614D01*
X157529528Y-75560150D01*
X157478992Y-75726746D01*
X157461928Y-75900000D01*
X157461928Y-77900000D01*
X157478992Y-78073254D01*
X157529528Y-78239850D01*
X157611595Y-78393386D01*
X157722038Y-78527962D01*
X157856614Y-78638405D01*
X158010150Y-78720472D01*
X158176746Y-78771008D01*
X158350000Y-78788072D01*
X161350000Y-78788072D01*
X161523254Y-78771008D01*
X161689850Y-78720472D01*
X161843386Y-78638405D01*
X161977962Y-78527962D01*
X162088405Y-78393386D01*
X162127500Y-78320244D01*
X162127501Y-82661928D01*
X161747500Y-82661928D01*
X161623018Y-82674188D01*
X161503320Y-82710498D01*
X161393006Y-82769463D01*
X161296315Y-82848815D01*
X161216963Y-82945506D01*
X161172095Y-83029446D01*
X161046235Y-82926155D01*
X160770449Y-82778745D01*
X160471204Y-82687970D01*
X160160000Y-82657319D01*
X159848797Y-82687970D01*
X159549552Y-82778745D01*
X159273766Y-82926155D01*
X159032037Y-83124537D01*
X158884837Y-83303899D01*
X158729437Y-83118685D01*
X158486923Y-82924031D01*
X158211094Y-82780429D01*
X157992980Y-82709437D01*
X157747000Y-82829406D01*
X157747000Y-84173000D01*
X157767000Y-84173000D01*
X157767000Y-84427000D01*
X157747000Y-84427000D01*
X157747000Y-85770594D01*
X157992980Y-85890563D01*
X158211094Y-85819571D01*
X158486923Y-85675969D01*
X158729437Y-85481315D01*
X158884838Y-85296100D01*
X159032037Y-85475463D01*
X159273765Y-85673845D01*
X159549551Y-85821255D01*
X159848796Y-85912030D01*
X160160000Y-85942681D01*
X160471203Y-85912030D01*
X160770448Y-85821255D01*
X161046234Y-85673845D01*
X161172095Y-85570553D01*
X161216963Y-85654494D01*
X161296315Y-85751185D01*
X161393006Y-85830537D01*
X161503320Y-85889502D01*
X161623018Y-85925812D01*
X161747500Y-85938072D01*
X163652500Y-85938072D01*
X163776982Y-85925812D01*
X163896680Y-85889502D01*
X164006994Y-85830537D01*
X164103685Y-85751185D01*
X164183037Y-85654494D01*
X164242002Y-85544180D01*
X164278312Y-85424482D01*
X164290572Y-85300000D01*
X164290572Y-84221849D01*
X164316176Y-84173947D01*
X164381077Y-83959999D01*
X164397500Y-83793252D01*
X164402991Y-83737501D01*
X164397500Y-83681749D01*
X164397500Y-77734258D01*
X164403836Y-77739458D01*
X164556291Y-77820947D01*
X164721715Y-77871128D01*
X164893750Y-77888072D01*
X165381250Y-77888072D01*
X165553285Y-77871128D01*
X165718709Y-77820947D01*
X165871164Y-77739458D01*
X165937521Y-77685000D01*
X166094249Y-77685000D01*
X166150000Y-77690491D01*
X166205751Y-77685000D01*
X166205752Y-77685000D01*
X166372499Y-77668577D01*
X166586447Y-77603676D01*
X166783623Y-77498284D01*
X166956449Y-77356449D01*
X166991996Y-77313135D01*
X167463135Y-76841996D01*
X167506449Y-76806449D01*
X167648284Y-76633623D01*
X167690000Y-76555577D01*
X167690001Y-85704867D01*
X167179869Y-86215000D01*
X154420131Y-86215000D01*
X154385000Y-86179869D01*
X154385000Y-84673863D01*
X156067622Y-84673863D01*
X156161121Y-84970446D01*
X156310684Y-85243089D01*
X156510563Y-85481315D01*
X156753077Y-85675969D01*
X157028906Y-85819571D01*
X157247020Y-85890563D01*
X157493000Y-85770594D01*
X157493000Y-84427000D01*
X156194430Y-84427000D01*
X156067622Y-84673863D01*
X154385000Y-84673863D01*
X154385000Y-83926137D01*
X156067622Y-83926137D01*
X156194430Y-84173000D01*
X157493000Y-84173000D01*
X157493000Y-82829406D01*
X157247020Y-82709437D01*
X157028906Y-82780429D01*
X156753077Y-82924031D01*
X156510563Y-83118685D01*
X156310684Y-83356911D01*
X156161121Y-83629554D01*
X156067622Y-83926137D01*
X154385000Y-83926137D01*
X154385000Y-81905741D01*
X154390490Y-81849999D01*
X154385000Y-81794257D01*
X154385000Y-81794248D01*
X154368577Y-81627501D01*
X154303676Y-81413553D01*
X154198284Y-81216377D01*
X154056449Y-81043551D01*
X154013135Y-81008004D01*
X153541996Y-80536865D01*
X153506449Y-80493551D01*
X153333623Y-80351716D01*
X153136447Y-80246324D01*
X152922499Y-80181423D01*
X152755752Y-80165000D01*
X152755751Y-80165000D01*
X152700000Y-80159509D01*
X152644249Y-80165000D01*
X151235000Y-80165000D01*
X151235000Y-78671915D01*
X151245506Y-78680537D01*
X151355820Y-78739502D01*
X151475518Y-78775812D01*
X151600000Y-78788072D01*
X153064250Y-78785000D01*
X153223000Y-78626250D01*
X153223000Y-77027000D01*
X153477000Y-77027000D01*
X153477000Y-78626250D01*
X153635750Y-78785000D01*
X155100000Y-78788072D01*
X155224482Y-78775812D01*
X155344180Y-78739502D01*
X155454494Y-78680537D01*
X155551185Y-78601185D01*
X155630537Y-78504494D01*
X155689502Y-78394180D01*
X155725812Y-78274482D01*
X155738072Y-78150000D01*
X155735000Y-77185750D01*
X155576250Y-77027000D01*
X153477000Y-77027000D01*
X153223000Y-77027000D01*
X153203000Y-77027000D01*
X153203000Y-76773000D01*
X153223000Y-76773000D01*
X153223000Y-75173750D01*
X153477000Y-75173750D01*
X153477000Y-76773000D01*
X155576250Y-76773000D01*
X155735000Y-76614250D01*
X155738072Y-75650000D01*
X155725812Y-75525518D01*
X155689502Y-75405820D01*
X155630537Y-75295506D01*
X155551185Y-75198815D01*
X155454494Y-75119463D01*
X155344180Y-75060498D01*
X155224482Y-75024188D01*
X155100000Y-75011928D01*
X153635750Y-75015000D01*
X153477000Y-75173750D01*
X153223000Y-75173750D01*
X153064250Y-75015000D01*
X151600000Y-75011928D01*
X151475518Y-75024188D01*
X151355820Y-75060498D01*
X151245506Y-75119463D01*
X151235000Y-75128085D01*
X151235000Y-68420131D01*
X151670132Y-67985000D01*
X152195482Y-67985000D01*
X152220506Y-68005537D01*
G37*
X152220506Y-68005537D02*
X152315000Y-68056046D01*
X152315001Y-69380543D01*
X152272629Y-69443957D01*
X152168225Y-69696011D01*
X152115000Y-69963589D01*
X152115000Y-70236411D01*
X152168225Y-70503989D01*
X152272629Y-70756043D01*
X152365000Y-70894286D01*
X152365000Y-71104909D01*
X152359509Y-71160660D01*
X152365000Y-71216411D01*
X152365000Y-71216412D01*
X152381423Y-71383159D01*
X152446324Y-71597107D01*
X152551717Y-71794283D01*
X152693552Y-71967109D01*
X152736860Y-72002651D01*
X153847348Y-73113140D01*
X153882891Y-73156449D01*
X154055717Y-73298284D01*
X154252893Y-73403676D01*
X154466841Y-73468577D01*
X154689340Y-73490491D01*
X154745092Y-73485000D01*
X160447651Y-73485000D01*
X160416377Y-73501716D01*
X160243551Y-73643551D01*
X160208011Y-73686857D01*
X159086860Y-74808009D01*
X159043552Y-74843551D01*
X158905368Y-75011928D01*
X158350000Y-75011928D01*
X158176746Y-75028992D01*
X158010150Y-75079528D01*
X157856614Y-75161595D01*
X157722038Y-75272038D01*
X157611595Y-75406614D01*
X157529528Y-75560150D01*
X157478992Y-75726746D01*
X157461928Y-75900000D01*
X157461928Y-77900000D01*
X157478992Y-78073254D01*
X157529528Y-78239850D01*
X157611595Y-78393386D01*
X157722038Y-78527962D01*
X157856614Y-78638405D01*
X158010150Y-78720472D01*
X158176746Y-78771008D01*
X158350000Y-78788072D01*
X161350000Y-78788072D01*
X161523254Y-78771008D01*
X161689850Y-78720472D01*
X161843386Y-78638405D01*
X161977962Y-78527962D01*
X162088405Y-78393386D01*
X162127500Y-78320244D01*
X162127501Y-82661928D01*
X161747500Y-82661928D01*
X161623018Y-82674188D01*
X161503320Y-82710498D01*
X161393006Y-82769463D01*
X161296315Y-82848815D01*
X161216963Y-82945506D01*
X161172095Y-83029446D01*
X161046235Y-82926155D01*
X160770449Y-82778745D01*
X160471204Y-82687970D01*
X160160000Y-82657319D01*
X159848797Y-82687970D01*
X159549552Y-82778745D01*
X159273766Y-82926155D01*
X159032037Y-83124537D01*
X158884837Y-83303899D01*
X158729437Y-83118685D01*
X158486923Y-82924031D01*
X158211094Y-82780429D01*
X157992980Y-82709437D01*
X157747000Y-82829406D01*
X157747000Y-84173000D01*
X157767000Y-84173000D01*
X157767000Y-84427000D01*
X157747000Y-84427000D01*
X157747000Y-85770594D01*
X157992980Y-85890563D01*
X158211094Y-85819571D01*
X158486923Y-85675969D01*
X158729437Y-85481315D01*
X158884838Y-85296100D01*
X159032037Y-85475463D01*
X159273765Y-85673845D01*
X159549551Y-85821255D01*
X159848796Y-85912030D01*
X160160000Y-85942681D01*
X160471203Y-85912030D01*
X160770448Y-85821255D01*
X161046234Y-85673845D01*
X161172095Y-85570553D01*
X161216963Y-85654494D01*
X161296315Y-85751185D01*
X161393006Y-85830537D01*
X161503320Y-85889502D01*
X161623018Y-85925812D01*
X161747500Y-85938072D01*
X163652500Y-85938072D01*
X163776982Y-85925812D01*
X163896680Y-85889502D01*
X164006994Y-85830537D01*
X164103685Y-85751185D01*
X164183037Y-85654494D01*
X164242002Y-85544180D01*
X164278312Y-85424482D01*
X164290572Y-85300000D01*
X164290572Y-84221849D01*
X164316176Y-84173947D01*
X164381077Y-83959999D01*
X164397500Y-83793252D01*
X164402991Y-83737501D01*
X164397500Y-83681749D01*
X164397500Y-77734258D01*
X164403836Y-77739458D01*
X164556291Y-77820947D01*
X164721715Y-77871128D01*
X164893750Y-77888072D01*
X165381250Y-77888072D01*
X165553285Y-77871128D01*
X165718709Y-77820947D01*
X165871164Y-77739458D01*
X165937521Y-77685000D01*
X166094249Y-77685000D01*
X166150000Y-77690491D01*
X166205751Y-77685000D01*
X166205752Y-77685000D01*
X166372499Y-77668577D01*
X166586447Y-77603676D01*
X166783623Y-77498284D01*
X166956449Y-77356449D01*
X166991996Y-77313135D01*
X167463135Y-76841996D01*
X167506449Y-76806449D01*
X167648284Y-76633623D01*
X167690000Y-76555577D01*
X167690001Y-85704867D01*
X167179869Y-86215000D01*
X154420131Y-86215000D01*
X154385000Y-86179869D01*
X154385000Y-84673863D01*
X156067622Y-84673863D01*
X156161121Y-84970446D01*
X156310684Y-85243089D01*
X156510563Y-85481315D01*
X156753077Y-85675969D01*
X157028906Y-85819571D01*
X157247020Y-85890563D01*
X157493000Y-85770594D01*
X157493000Y-84427000D01*
X156194430Y-84427000D01*
X156067622Y-84673863D01*
X154385000Y-84673863D01*
X154385000Y-83926137D01*
X156067622Y-83926137D01*
X156194430Y-84173000D01*
X157493000Y-84173000D01*
X157493000Y-82829406D01*
X157247020Y-82709437D01*
X157028906Y-82780429D01*
X156753077Y-82924031D01*
X156510563Y-83118685D01*
X156310684Y-83356911D01*
X156161121Y-83629554D01*
X156067622Y-83926137D01*
X154385000Y-83926137D01*
X154385000Y-81905741D01*
X154390490Y-81849999D01*
X154385000Y-81794257D01*
X154385000Y-81794248D01*
X154368577Y-81627501D01*
X154303676Y-81413553D01*
X154198284Y-81216377D01*
X154056449Y-81043551D01*
X154013135Y-81008004D01*
X153541996Y-80536865D01*
X153506449Y-80493551D01*
X153333623Y-80351716D01*
X153136447Y-80246324D01*
X152922499Y-80181423D01*
X152755752Y-80165000D01*
X152755751Y-80165000D01*
X152700000Y-80159509D01*
X152644249Y-80165000D01*
X151235000Y-80165000D01*
X151235000Y-78671915D01*
X151245506Y-78680537D01*
X151355820Y-78739502D01*
X151475518Y-78775812D01*
X151600000Y-78788072D01*
X153064250Y-78785000D01*
X153223000Y-78626250D01*
X153223000Y-77027000D01*
X153477000Y-77027000D01*
X153477000Y-78626250D01*
X153635750Y-78785000D01*
X155100000Y-78788072D01*
X155224482Y-78775812D01*
X155344180Y-78739502D01*
X155454494Y-78680537D01*
X155551185Y-78601185D01*
X155630537Y-78504494D01*
X155689502Y-78394180D01*
X155725812Y-78274482D01*
X155738072Y-78150000D01*
X155735000Y-77185750D01*
X155576250Y-77027000D01*
X153477000Y-77027000D01*
X153223000Y-77027000D01*
X153203000Y-77027000D01*
X153203000Y-76773000D01*
X153223000Y-76773000D01*
X153223000Y-75173750D01*
X153477000Y-75173750D01*
X153477000Y-76773000D01*
X155576250Y-76773000D01*
X155735000Y-76614250D01*
X155738072Y-75650000D01*
X155725812Y-75525518D01*
X155689502Y-75405820D01*
X155630537Y-75295506D01*
X155551185Y-75198815D01*
X155454494Y-75119463D01*
X155344180Y-75060498D01*
X155224482Y-75024188D01*
X155100000Y-75011928D01*
X153635750Y-75015000D01*
X153477000Y-75173750D01*
X153223000Y-75173750D01*
X153064250Y-75015000D01*
X151600000Y-75011928D01*
X151475518Y-75024188D01*
X151355820Y-75060498D01*
X151245506Y-75119463D01*
X151235000Y-75128085D01*
X151235000Y-68420131D01*
X151670132Y-67985000D01*
X152195482Y-67985000D01*
X152220506Y-68005537D01*
M02*
