G04 #@! TF.GenerationSoftware,KiCad,Pcbnew,(5.1.5)-3*
G04 #@! TF.CreationDate,2020-09-18T03:55:18-03:00*
G04 #@! TF.ProjectId,Pre charge & discharge,50726520-6368-4617-9267-652026206469,rev?*
G04 #@! TF.SameCoordinates,Original*
G04 #@! TF.FileFunction,Legend,Top*
G04 #@! TF.FilePolarity,Positive*
%FSLAX46Y46*%
G04 Gerber Fmt 4.6, Leading zero omitted, Abs format (unit mm)*
G04 Created by KiCad (PCBNEW (5.1.5)-3) date 2020-09-18 03:55:18*
%MOMM*%
%LPD*%
G04 APERTURE LIST*
%ADD10C,0.150000*%
%ADD11C,0.010000*%
%ADD12C,0.120000*%
G04 APERTURE END LIST*
D10*
X152728571Y-55302380D02*
X152157142Y-55302380D01*
X152442857Y-55302380D02*
X152442857Y-54302380D01*
X152347619Y-54445238D01*
X152252380Y-54540476D01*
X152157142Y-54588095D01*
X153109523Y-54397619D02*
X153157142Y-54350000D01*
X153252380Y-54302380D01*
X153490476Y-54302380D01*
X153585714Y-54350000D01*
X153633333Y-54397619D01*
X153680952Y-54492857D01*
X153680952Y-54588095D01*
X153633333Y-54730952D01*
X153061904Y-55302380D01*
X153680952Y-55302380D01*
X154014285Y-54635714D02*
X154252380Y-55302380D01*
X154490476Y-54635714D01*
X165688095Y-54500000D02*
X165592857Y-54452380D01*
X165450000Y-54452380D01*
X165307142Y-54500000D01*
X165211904Y-54595238D01*
X165164285Y-54690476D01*
X165116666Y-54880952D01*
X165116666Y-55023809D01*
X165164285Y-55214285D01*
X165211904Y-55309523D01*
X165307142Y-55404761D01*
X165450000Y-55452380D01*
X165545238Y-55452380D01*
X165688095Y-55404761D01*
X165735714Y-55357142D01*
X165735714Y-55023809D01*
X165545238Y-55023809D01*
X166164285Y-55452380D02*
X166164285Y-54452380D01*
X166735714Y-55452380D01*
X166735714Y-54452380D01*
X167211904Y-55452380D02*
X167211904Y-54452380D01*
X167450000Y-54452380D01*
X167592857Y-54500000D01*
X167688095Y-54595238D01*
X167735714Y-54690476D01*
X167783333Y-54880952D01*
X167783333Y-55023809D01*
X167735714Y-55214285D01*
X167688095Y-55309523D01*
X167592857Y-55404761D01*
X167450000Y-55452380D01*
X167211904Y-55452380D01*
X184028571Y-60902380D02*
X183457142Y-60902380D01*
X183742857Y-60902380D02*
X183742857Y-59902380D01*
X183647619Y-60045238D01*
X183552380Y-60140476D01*
X183457142Y-60188095D01*
X184409523Y-59997619D02*
X184457142Y-59950000D01*
X184552380Y-59902380D01*
X184790476Y-59902380D01*
X184885714Y-59950000D01*
X184933333Y-59997619D01*
X184980952Y-60092857D01*
X184980952Y-60188095D01*
X184933333Y-60330952D01*
X184361904Y-60902380D01*
X184980952Y-60902380D01*
X185314285Y-60235714D02*
X185552380Y-60902380D01*
X185790476Y-60235714D01*
X184007142Y-55452380D02*
X183673809Y-54976190D01*
X183435714Y-55452380D02*
X183435714Y-54452380D01*
X183816666Y-54452380D01*
X183911904Y-54500000D01*
X183959523Y-54547619D01*
X184007142Y-54642857D01*
X184007142Y-54785714D01*
X183959523Y-54880952D01*
X183911904Y-54928571D01*
X183816666Y-54976190D01*
X183435714Y-54976190D01*
X184435714Y-55452380D02*
X184435714Y-54452380D01*
X185007142Y-55452380D01*
X185007142Y-54452380D01*
X185435714Y-55166666D02*
X185911904Y-55166666D01*
X185340476Y-55452380D02*
X185673809Y-54452380D01*
X186007142Y-55452380D01*
X170623809Y-55166666D02*
X171100000Y-55166666D01*
X170528571Y-55452380D02*
X170861904Y-54452380D01*
X171195238Y-55452380D01*
X171528571Y-55452380D02*
X171528571Y-54452380D01*
X172576190Y-55452380D02*
X172242857Y-54976190D01*
X172004761Y-55452380D02*
X172004761Y-54452380D01*
X172385714Y-54452380D01*
X172480952Y-54500000D01*
X172528571Y-54547619D01*
X172576190Y-54642857D01*
X172576190Y-54785714D01*
X172528571Y-54880952D01*
X172480952Y-54928571D01*
X172385714Y-54976190D01*
X172004761Y-54976190D01*
X170888095Y-60000000D02*
X170792857Y-59952380D01*
X170650000Y-59952380D01*
X170507142Y-60000000D01*
X170411904Y-60095238D01*
X170364285Y-60190476D01*
X170316666Y-60380952D01*
X170316666Y-60523809D01*
X170364285Y-60714285D01*
X170411904Y-60809523D01*
X170507142Y-60904761D01*
X170650000Y-60952380D01*
X170745238Y-60952380D01*
X170888095Y-60904761D01*
X170935714Y-60857142D01*
X170935714Y-60523809D01*
X170745238Y-60523809D01*
X171364285Y-60952380D02*
X171364285Y-59952380D01*
X171935714Y-60952380D01*
X171935714Y-59952380D01*
X172411904Y-60952380D02*
X172411904Y-59952380D01*
X172650000Y-59952380D01*
X172792857Y-60000000D01*
X172888095Y-60095238D01*
X172935714Y-60190476D01*
X172983333Y-60380952D01*
X172983333Y-60523809D01*
X172935714Y-60714285D01*
X172888095Y-60809523D01*
X172792857Y-60904761D01*
X172650000Y-60952380D01*
X172411904Y-60952380D01*
X149852380Y-59059523D02*
X148852380Y-59059523D01*
X148852380Y-58678571D01*
X148900000Y-58583333D01*
X148947619Y-58535714D01*
X149042857Y-58488095D01*
X149185714Y-58488095D01*
X149280952Y-58535714D01*
X149328571Y-58583333D01*
X149376190Y-58678571D01*
X149376190Y-59059523D01*
X149852380Y-57916666D02*
X149804761Y-58011904D01*
X149757142Y-58059523D01*
X149661904Y-58107142D01*
X149376190Y-58107142D01*
X149280952Y-58059523D01*
X149233333Y-58011904D01*
X149185714Y-57916666D01*
X149185714Y-57773809D01*
X149233333Y-57678571D01*
X149280952Y-57630952D01*
X149376190Y-57583333D01*
X149661904Y-57583333D01*
X149757142Y-57630952D01*
X149804761Y-57678571D01*
X149852380Y-57773809D01*
X149852380Y-57916666D01*
X149185714Y-57250000D02*
X149852380Y-57059523D01*
X149376190Y-56869047D01*
X149852380Y-56678571D01*
X149185714Y-56488095D01*
X149804761Y-55726190D02*
X149852380Y-55821428D01*
X149852380Y-56011904D01*
X149804761Y-56107142D01*
X149709523Y-56154761D01*
X149328571Y-56154761D01*
X149233333Y-56107142D01*
X149185714Y-56011904D01*
X149185714Y-55821428D01*
X149233333Y-55726190D01*
X149328571Y-55678571D01*
X149423809Y-55678571D01*
X149519047Y-56154761D01*
X149852380Y-55250000D02*
X149185714Y-55250000D01*
X149376190Y-55250000D02*
X149280952Y-55202380D01*
X149233333Y-55154761D01*
X149185714Y-55059523D01*
X149185714Y-54964285D01*
X148852380Y-54773809D02*
X148852380Y-54202380D01*
X149852380Y-54488095D02*
X148852380Y-54488095D01*
X149852380Y-53869047D02*
X149185714Y-53869047D01*
X149376190Y-53869047D02*
X149280952Y-53821428D01*
X149233333Y-53773809D01*
X149185714Y-53678571D01*
X149185714Y-53583333D01*
X149852380Y-52821428D02*
X149328571Y-52821428D01*
X149233333Y-52869047D01*
X149185714Y-52964285D01*
X149185714Y-53154761D01*
X149233333Y-53250000D01*
X149804761Y-52821428D02*
X149852380Y-52916666D01*
X149852380Y-53154761D01*
X149804761Y-53250000D01*
X149709523Y-53297619D01*
X149614285Y-53297619D01*
X149519047Y-53250000D01*
X149471428Y-53154761D01*
X149471428Y-52916666D01*
X149423809Y-52821428D01*
X149852380Y-52345238D02*
X149185714Y-52345238D01*
X148852380Y-52345238D02*
X148900000Y-52392857D01*
X148947619Y-52345238D01*
X148900000Y-52297619D01*
X148852380Y-52345238D01*
X148947619Y-52345238D01*
X149185714Y-51869047D02*
X149852380Y-51869047D01*
X149280952Y-51869047D02*
X149233333Y-51821428D01*
X149185714Y-51726190D01*
X149185714Y-51583333D01*
X149233333Y-51488095D01*
X149328571Y-51440476D01*
X149852380Y-51440476D01*
X149702380Y-79335714D02*
X148702380Y-79335714D01*
X148702380Y-78954761D01*
X148750000Y-78859523D01*
X148797619Y-78811904D01*
X148892857Y-78764285D01*
X149035714Y-78764285D01*
X149130952Y-78811904D01*
X149178571Y-78859523D01*
X149226190Y-78954761D01*
X149226190Y-79335714D01*
X149702380Y-78335714D02*
X149035714Y-78335714D01*
X149226190Y-78335714D02*
X149130952Y-78288095D01*
X149083333Y-78240476D01*
X149035714Y-78145238D01*
X149035714Y-78050000D01*
X149654761Y-77335714D02*
X149702380Y-77430952D01*
X149702380Y-77621428D01*
X149654761Y-77716666D01*
X149559523Y-77764285D01*
X149178571Y-77764285D01*
X149083333Y-77716666D01*
X149035714Y-77621428D01*
X149035714Y-77430952D01*
X149083333Y-77335714D01*
X149178571Y-77288095D01*
X149273809Y-77288095D01*
X149369047Y-77764285D01*
X149607142Y-76288095D02*
X149654761Y-76335714D01*
X149702380Y-76478571D01*
X149702380Y-76573809D01*
X149654761Y-76716666D01*
X149559523Y-76811904D01*
X149464285Y-76859523D01*
X149273809Y-76907142D01*
X149130952Y-76907142D01*
X148940476Y-76859523D01*
X148845238Y-76811904D01*
X148750000Y-76716666D01*
X148702380Y-76573809D01*
X148702380Y-76478571D01*
X148750000Y-76335714D01*
X148797619Y-76288095D01*
X149702380Y-75859523D02*
X148702380Y-75859523D01*
X149702380Y-75430952D02*
X149178571Y-75430952D01*
X149083333Y-75478571D01*
X149035714Y-75573809D01*
X149035714Y-75716666D01*
X149083333Y-75811904D01*
X149130952Y-75859523D01*
X149702380Y-74526190D02*
X149178571Y-74526190D01*
X149083333Y-74573809D01*
X149035714Y-74669047D01*
X149035714Y-74859523D01*
X149083333Y-74954761D01*
X149654761Y-74526190D02*
X149702380Y-74621428D01*
X149702380Y-74859523D01*
X149654761Y-74954761D01*
X149559523Y-75002380D01*
X149464285Y-75002380D01*
X149369047Y-74954761D01*
X149321428Y-74859523D01*
X149321428Y-74621428D01*
X149273809Y-74526190D01*
X149702380Y-74050000D02*
X149035714Y-74050000D01*
X149226190Y-74050000D02*
X149130952Y-74002380D01*
X149083333Y-73954761D01*
X149035714Y-73859523D01*
X149035714Y-73764285D01*
X149035714Y-73002380D02*
X149845238Y-73002380D01*
X149940476Y-73050000D01*
X149988095Y-73097619D01*
X150035714Y-73192857D01*
X150035714Y-73335714D01*
X149988095Y-73430952D01*
X149654761Y-73002380D02*
X149702380Y-73097619D01*
X149702380Y-73288095D01*
X149654761Y-73383333D01*
X149607142Y-73430952D01*
X149511904Y-73478571D01*
X149226190Y-73478571D01*
X149130952Y-73430952D01*
X149083333Y-73383333D01*
X149035714Y-73288095D01*
X149035714Y-73097619D01*
X149083333Y-73002380D01*
X149654761Y-72145238D02*
X149702380Y-72240476D01*
X149702380Y-72430952D01*
X149654761Y-72526190D01*
X149559523Y-72573809D01*
X149178571Y-72573809D01*
X149083333Y-72526190D01*
X149035714Y-72430952D01*
X149035714Y-72240476D01*
X149083333Y-72145238D01*
X149178571Y-72097619D01*
X149273809Y-72097619D01*
X149369047Y-72573809D01*
X148654761Y-70954761D02*
X149940476Y-71811904D01*
X149702380Y-70621428D02*
X148702380Y-70621428D01*
X148702380Y-70383333D01*
X148750000Y-70240476D01*
X148845238Y-70145238D01*
X148940476Y-70097619D01*
X149130952Y-70050000D01*
X149273809Y-70050000D01*
X149464285Y-70097619D01*
X149559523Y-70145238D01*
X149654761Y-70240476D01*
X149702380Y-70383333D01*
X149702380Y-70621428D01*
X149702380Y-69621428D02*
X149035714Y-69621428D01*
X148702380Y-69621428D02*
X148750000Y-69669047D01*
X148797619Y-69621428D01*
X148750000Y-69573809D01*
X148702380Y-69621428D01*
X148797619Y-69621428D01*
X149654761Y-69192857D02*
X149702380Y-69097619D01*
X149702380Y-68907142D01*
X149654761Y-68811904D01*
X149559523Y-68764285D01*
X149511904Y-68764285D01*
X149416666Y-68811904D01*
X149369047Y-68907142D01*
X149369047Y-69050000D01*
X149321428Y-69145238D01*
X149226190Y-69192857D01*
X149178571Y-69192857D01*
X149083333Y-69145238D01*
X149035714Y-69050000D01*
X149035714Y-68907142D01*
X149083333Y-68811904D01*
X149654761Y-67907142D02*
X149702380Y-68002380D01*
X149702380Y-68192857D01*
X149654761Y-68288095D01*
X149607142Y-68335714D01*
X149511904Y-68383333D01*
X149226190Y-68383333D01*
X149130952Y-68335714D01*
X149083333Y-68288095D01*
X149035714Y-68192857D01*
X149035714Y-68002380D01*
X149083333Y-67907142D01*
X149702380Y-67478571D02*
X148702380Y-67478571D01*
X149702380Y-67050000D02*
X149178571Y-67050000D01*
X149083333Y-67097619D01*
X149035714Y-67192857D01*
X149035714Y-67335714D01*
X149083333Y-67430952D01*
X149130952Y-67478571D01*
X149702380Y-66145238D02*
X149178571Y-66145238D01*
X149083333Y-66192857D01*
X149035714Y-66288095D01*
X149035714Y-66478571D01*
X149083333Y-66573809D01*
X149654761Y-66145238D02*
X149702380Y-66240476D01*
X149702380Y-66478571D01*
X149654761Y-66573809D01*
X149559523Y-66621428D01*
X149464285Y-66621428D01*
X149369047Y-66573809D01*
X149321428Y-66478571D01*
X149321428Y-66240476D01*
X149273809Y-66145238D01*
X149702380Y-65669047D02*
X149035714Y-65669047D01*
X149226190Y-65669047D02*
X149130952Y-65621428D01*
X149083333Y-65573809D01*
X149035714Y-65478571D01*
X149035714Y-65383333D01*
X149035714Y-64621428D02*
X149845238Y-64621428D01*
X149940476Y-64669047D01*
X149988095Y-64716666D01*
X150035714Y-64811904D01*
X150035714Y-64954761D01*
X149988095Y-65050000D01*
X149654761Y-64621428D02*
X149702380Y-64716666D01*
X149702380Y-64907142D01*
X149654761Y-65002380D01*
X149607142Y-65050000D01*
X149511904Y-65097619D01*
X149226190Y-65097619D01*
X149130952Y-65050000D01*
X149083333Y-65002380D01*
X149035714Y-64907142D01*
X149035714Y-64716666D01*
X149083333Y-64621428D01*
X149654761Y-63764285D02*
X149702380Y-63859523D01*
X149702380Y-64050000D01*
X149654761Y-64145238D01*
X149559523Y-64192857D01*
X149178571Y-64192857D01*
X149083333Y-64145238D01*
X149035714Y-64050000D01*
X149035714Y-63859523D01*
X149083333Y-63764285D01*
X149178571Y-63716666D01*
X149273809Y-63716666D01*
X149369047Y-64192857D01*
X151002380Y-64552380D02*
X151002380Y-64457142D01*
X151050000Y-64361904D01*
X151097619Y-64314285D01*
X151192857Y-64266666D01*
X151383333Y-64219047D01*
X151621428Y-64219047D01*
X151811904Y-64266666D01*
X151907142Y-64314285D01*
X151954761Y-64361904D01*
X152002380Y-64457142D01*
X152002380Y-64552380D01*
X151954761Y-64647619D01*
X151907142Y-64695238D01*
X151811904Y-64742857D01*
X151621428Y-64790476D01*
X151383333Y-64790476D01*
X151192857Y-64742857D01*
X151097619Y-64695238D01*
X151050000Y-64647619D01*
X151002380Y-64552380D01*
X152002380Y-63742857D02*
X152002380Y-63552380D01*
X151954761Y-63457142D01*
X151907142Y-63409523D01*
X151764285Y-63314285D01*
X151573809Y-63266666D01*
X151192857Y-63266666D01*
X151097619Y-63314285D01*
X151050000Y-63361904D01*
X151002380Y-63457142D01*
X151002380Y-63647619D01*
X151050000Y-63742857D01*
X151097619Y-63790476D01*
X151192857Y-63838095D01*
X151430952Y-63838095D01*
X151526190Y-63790476D01*
X151573809Y-63742857D01*
X151621428Y-63647619D01*
X151621428Y-63457142D01*
X151573809Y-63361904D01*
X151526190Y-63314285D01*
X151430952Y-63266666D01*
X150954761Y-62123809D02*
X152240476Y-62980952D01*
X151097619Y-61838095D02*
X151050000Y-61790476D01*
X151002380Y-61695238D01*
X151002380Y-61457142D01*
X151050000Y-61361904D01*
X151097619Y-61314285D01*
X151192857Y-61266666D01*
X151288095Y-61266666D01*
X151430952Y-61314285D01*
X152002380Y-61885714D01*
X152002380Y-61266666D01*
X151002380Y-60647619D02*
X151002380Y-60552380D01*
X151050000Y-60457142D01*
X151097619Y-60409523D01*
X151192857Y-60361904D01*
X151383333Y-60314285D01*
X151621428Y-60314285D01*
X151811904Y-60361904D01*
X151907142Y-60409523D01*
X151954761Y-60457142D01*
X152002380Y-60552380D01*
X152002380Y-60647619D01*
X151954761Y-60742857D01*
X151907142Y-60790476D01*
X151811904Y-60838095D01*
X151621428Y-60885714D01*
X151383333Y-60885714D01*
X151192857Y-60838095D01*
X151097619Y-60790476D01*
X151050000Y-60742857D01*
X151002380Y-60647619D01*
X151097619Y-59933333D02*
X151050000Y-59885714D01*
X151002380Y-59790476D01*
X151002380Y-59552380D01*
X151050000Y-59457142D01*
X151097619Y-59409523D01*
X151192857Y-59361904D01*
X151288095Y-59361904D01*
X151430952Y-59409523D01*
X152002380Y-59980952D01*
X152002380Y-59361904D01*
X151002380Y-58742857D02*
X151002380Y-58647619D01*
X151050000Y-58552380D01*
X151097619Y-58504761D01*
X151192857Y-58457142D01*
X151383333Y-58409523D01*
X151621428Y-58409523D01*
X151811904Y-58457142D01*
X151907142Y-58504761D01*
X151954761Y-58552380D01*
X152002380Y-58647619D01*
X152002380Y-58742857D01*
X151954761Y-58838095D01*
X151907142Y-58885714D01*
X151811904Y-58933333D01*
X151621428Y-58980952D01*
X151383333Y-58980952D01*
X151192857Y-58933333D01*
X151097619Y-58885714D01*
X151050000Y-58838095D01*
X151002380Y-58742857D01*
D11*
G36*
X185117634Y-75779029D02*
G01*
X185128027Y-75747450D01*
X185143037Y-75721551D01*
X185162017Y-75706723D01*
X185190213Y-75699348D01*
X185229438Y-75699609D01*
X185281502Y-75707686D01*
X185348218Y-75723764D01*
X185431397Y-75748023D01*
X185443400Y-75751752D01*
X185605960Y-75802542D01*
X185608970Y-75875939D01*
X185610041Y-75913734D01*
X185608837Y-75935043D01*
X185604559Y-75943647D01*
X185596405Y-75943326D01*
X185594813Y-75942748D01*
X185566480Y-75932911D01*
X185526348Y-75920314D01*
X185478801Y-75906183D01*
X185428224Y-75891742D01*
X185379001Y-75878218D01*
X185335518Y-75866837D01*
X185302158Y-75858823D01*
X185283307Y-75855404D01*
X185282219Y-75855360D01*
X185250372Y-75863029D01*
X185231600Y-75883806D01*
X185227050Y-75914343D01*
X185237874Y-75951296D01*
X185244868Y-75964087D01*
X185257372Y-75981735D01*
X185273179Y-75996822D01*
X185295235Y-76010785D01*
X185326483Y-76025062D01*
X185369867Y-76041090D01*
X185428331Y-76060305D01*
X185466637Y-76072335D01*
X185605960Y-76115677D01*
X185608970Y-76189986D01*
X185609845Y-76228812D01*
X185608192Y-76250780D01*
X185603475Y-76259252D01*
X185597970Y-76258919D01*
X185565177Y-76247296D01*
X185521670Y-76233203D01*
X185471851Y-76217913D01*
X185420124Y-76202700D01*
X185370894Y-76188837D01*
X185328563Y-76177597D01*
X185297535Y-76170252D01*
X185283557Y-76168028D01*
X185252045Y-76174075D01*
X185233145Y-76191964D01*
X185226284Y-76218075D01*
X185230890Y-76248789D01*
X185246389Y-76280485D01*
X185272210Y-76309544D01*
X185307779Y-76332346D01*
X185309686Y-76333205D01*
X185336254Y-76343523D01*
X185376946Y-76357612D01*
X185426346Y-76373663D01*
X185479039Y-76389868D01*
X185482135Y-76390790D01*
X185611040Y-76429114D01*
X185611040Y-76574477D01*
X185445940Y-76523683D01*
X185384775Y-76504849D01*
X185324379Y-76486222D01*
X185269997Y-76469423D01*
X185226877Y-76456071D01*
X185209720Y-76450740D01*
X185138600Y-76428591D01*
X185135626Y-76355921D01*
X185132653Y-76283250D01*
X185166039Y-76292825D01*
X185189311Y-76299268D01*
X185202049Y-76302355D01*
X185202511Y-76302400D01*
X185198695Y-76295298D01*
X185185531Y-76277205D01*
X185175530Y-76264300D01*
X185148818Y-76222112D01*
X185128802Y-76174419D01*
X185117845Y-76128244D01*
X185117861Y-76092777D01*
X185129622Y-76058930D01*
X185148998Y-76029897D01*
X185171458Y-76011411D01*
X185185057Y-76007760D01*
X185200035Y-76005853D01*
X185202527Y-75998086D01*
X185191837Y-75981391D01*
X185174430Y-75960797D01*
X185149837Y-75923380D01*
X185130366Y-75876387D01*
X185118494Y-75827743D01*
X185116698Y-75785371D01*
X185117634Y-75779029D01*
G37*
X185117634Y-75779029D02*
X185128027Y-75747450D01*
X185143037Y-75721551D01*
X185162017Y-75706723D01*
X185190213Y-75699348D01*
X185229438Y-75699609D01*
X185281502Y-75707686D01*
X185348218Y-75723764D01*
X185431397Y-75748023D01*
X185443400Y-75751752D01*
X185605960Y-75802542D01*
X185608970Y-75875939D01*
X185610041Y-75913734D01*
X185608837Y-75935043D01*
X185604559Y-75943647D01*
X185596405Y-75943326D01*
X185594813Y-75942748D01*
X185566480Y-75932911D01*
X185526348Y-75920314D01*
X185478801Y-75906183D01*
X185428224Y-75891742D01*
X185379001Y-75878218D01*
X185335518Y-75866837D01*
X185302158Y-75858823D01*
X185283307Y-75855404D01*
X185282219Y-75855360D01*
X185250372Y-75863029D01*
X185231600Y-75883806D01*
X185227050Y-75914343D01*
X185237874Y-75951296D01*
X185244868Y-75964087D01*
X185257372Y-75981735D01*
X185273179Y-75996822D01*
X185295235Y-76010785D01*
X185326483Y-76025062D01*
X185369867Y-76041090D01*
X185428331Y-76060305D01*
X185466637Y-76072335D01*
X185605960Y-76115677D01*
X185608970Y-76189986D01*
X185609845Y-76228812D01*
X185608192Y-76250780D01*
X185603475Y-76259252D01*
X185597970Y-76258919D01*
X185565177Y-76247296D01*
X185521670Y-76233203D01*
X185471851Y-76217913D01*
X185420124Y-76202700D01*
X185370894Y-76188837D01*
X185328563Y-76177597D01*
X185297535Y-76170252D01*
X185283557Y-76168028D01*
X185252045Y-76174075D01*
X185233145Y-76191964D01*
X185226284Y-76218075D01*
X185230890Y-76248789D01*
X185246389Y-76280485D01*
X185272210Y-76309544D01*
X185307779Y-76332346D01*
X185309686Y-76333205D01*
X185336254Y-76343523D01*
X185376946Y-76357612D01*
X185426346Y-76373663D01*
X185479039Y-76389868D01*
X185482135Y-76390790D01*
X185611040Y-76429114D01*
X185611040Y-76574477D01*
X185445940Y-76523683D01*
X185384775Y-76504849D01*
X185324379Y-76486222D01*
X185269997Y-76469423D01*
X185226877Y-76456071D01*
X185209720Y-76450740D01*
X185138600Y-76428591D01*
X185135626Y-76355921D01*
X185132653Y-76283250D01*
X185166039Y-76292825D01*
X185189311Y-76299268D01*
X185202049Y-76302355D01*
X185202511Y-76302400D01*
X185198695Y-76295298D01*
X185185531Y-76277205D01*
X185175530Y-76264300D01*
X185148818Y-76222112D01*
X185128802Y-76174419D01*
X185117845Y-76128244D01*
X185117861Y-76092777D01*
X185129622Y-76058930D01*
X185148998Y-76029897D01*
X185171458Y-76011411D01*
X185185057Y-76007760D01*
X185200035Y-76005853D01*
X185202527Y-75998086D01*
X185191837Y-75981391D01*
X185174430Y-75960797D01*
X185149837Y-75923380D01*
X185130366Y-75876387D01*
X185118494Y-75827743D01*
X185116698Y-75785371D01*
X185117634Y-75779029D01*
G36*
X184930412Y-77524013D02*
G01*
X184930783Y-77461147D01*
X184931569Y-77414240D01*
X184932907Y-77381112D01*
X184934937Y-77359582D01*
X184937794Y-77347469D01*
X184941617Y-77342594D01*
X184946544Y-77342776D01*
X184946868Y-77342897D01*
X184966696Y-77349240D01*
X184996535Y-77357521D01*
X185007828Y-77360430D01*
X185052240Y-77371613D01*
X185052240Y-77569619D01*
X185105580Y-77586290D01*
X185130892Y-77594185D01*
X185171972Y-77606981D01*
X185225181Y-77623545D01*
X185286881Y-77642743D01*
X185353436Y-77663446D01*
X185382440Y-77672465D01*
X185605960Y-77741970D01*
X185608961Y-77815497D01*
X185610051Y-77853360D01*
X185608871Y-77874866D01*
X185604549Y-77883932D01*
X185596211Y-77884472D01*
X185593721Y-77883828D01*
X185569284Y-77876614D01*
X185529449Y-77864569D01*
X185478211Y-77848922D01*
X185419568Y-77830903D01*
X185357516Y-77811743D01*
X185296050Y-77792671D01*
X185239169Y-77774918D01*
X185205885Y-77764459D01*
X185157543Y-77749538D01*
X185115545Y-77737182D01*
X185084032Y-77728564D01*
X185067140Y-77724860D01*
X185066185Y-77724800D01*
X185059241Y-77729512D01*
X185054919Y-77745706D01*
X185052747Y-77776472D01*
X185052240Y-77816240D01*
X185051548Y-77856509D01*
X185049695Y-77887729D01*
X185047014Y-77905369D01*
X185045512Y-77907680D01*
X185032825Y-77904847D01*
X185007211Y-77897543D01*
X184984552Y-77890585D01*
X184930319Y-77873490D01*
X184930319Y-77605018D01*
X184930412Y-77524013D01*
G37*
X184930412Y-77524013D02*
X184930783Y-77461147D01*
X184931569Y-77414240D01*
X184932907Y-77381112D01*
X184934937Y-77359582D01*
X184937794Y-77347469D01*
X184941617Y-77342594D01*
X184946544Y-77342776D01*
X184946868Y-77342897D01*
X184966696Y-77349240D01*
X184996535Y-77357521D01*
X185007828Y-77360430D01*
X185052240Y-77371613D01*
X185052240Y-77569619D01*
X185105580Y-77586290D01*
X185130892Y-77594185D01*
X185171972Y-77606981D01*
X185225181Y-77623545D01*
X185286881Y-77642743D01*
X185353436Y-77663446D01*
X185382440Y-77672465D01*
X185605960Y-77741970D01*
X185608961Y-77815497D01*
X185610051Y-77853360D01*
X185608871Y-77874866D01*
X185604549Y-77883932D01*
X185596211Y-77884472D01*
X185593721Y-77883828D01*
X185569284Y-77876614D01*
X185529449Y-77864569D01*
X185478211Y-77848922D01*
X185419568Y-77830903D01*
X185357516Y-77811743D01*
X185296050Y-77792671D01*
X185239169Y-77774918D01*
X185205885Y-77764459D01*
X185157543Y-77749538D01*
X185115545Y-77737182D01*
X185084032Y-77728564D01*
X185067140Y-77724860D01*
X185066185Y-77724800D01*
X185059241Y-77729512D01*
X185054919Y-77745706D01*
X185052747Y-77776472D01*
X185052240Y-77816240D01*
X185051548Y-77856509D01*
X185049695Y-77887729D01*
X185047014Y-77905369D01*
X185045512Y-77907680D01*
X185032825Y-77904847D01*
X185007211Y-77897543D01*
X184984552Y-77890585D01*
X184930319Y-77873490D01*
X184930319Y-77605018D01*
X184930412Y-77524013D01*
G36*
X185120225Y-76651299D02*
G01*
X185135491Y-76601912D01*
X185163146Y-76566632D01*
X185201636Y-76547066D01*
X185220503Y-76543253D01*
X185241262Y-76542353D01*
X185266780Y-76544950D01*
X185299922Y-76551628D01*
X185343555Y-76562972D01*
X185400544Y-76579566D01*
X185473754Y-76601993D01*
X185478960Y-76603610D01*
X185605960Y-76643079D01*
X185608964Y-76711500D01*
X185609807Y-76745783D01*
X185609149Y-76770332D01*
X185607133Y-76779917D01*
X185607085Y-76779920D01*
X185594983Y-76776688D01*
X185576141Y-76770012D01*
X185557284Y-76764254D01*
X185550080Y-76764635D01*
X185555453Y-76774745D01*
X185569309Y-76796048D01*
X185582628Y-76815344D01*
X185603144Y-76849131D01*
X185614190Y-76882490D01*
X185619171Y-76924861D01*
X185620289Y-76962938D01*
X185616770Y-76988208D01*
X185607179Y-77007930D01*
X185601125Y-77016140D01*
X185584682Y-77033176D01*
X185565462Y-77041453D01*
X185535654Y-77043878D01*
X185526482Y-77043913D01*
X185478825Y-77036356D01*
X185478825Y-76901840D01*
X185506320Y-76894112D01*
X185521616Y-76873253D01*
X185524205Y-76842757D01*
X185513578Y-76806115D01*
X185496997Y-76777227D01*
X185460166Y-76741998D01*
X185405806Y-76716271D01*
X185399822Y-76714357D01*
X185383049Y-76711562D01*
X185379892Y-76721627D01*
X185381488Y-76730850D01*
X185385768Y-76755204D01*
X185390833Y-76789075D01*
X185392859Y-76804056D01*
X185405913Y-76851009D01*
X185429956Y-76883782D01*
X185463140Y-76900273D01*
X185478825Y-76901840D01*
X185478825Y-77036356D01*
X185464993Y-77034162D01*
X185411164Y-77005846D01*
X185366463Y-76959753D01*
X185364387Y-76956844D01*
X185347820Y-76928392D01*
X185335266Y-76893814D01*
X185324871Y-76847367D01*
X185320201Y-76819770D01*
X185311346Y-76764028D01*
X185304696Y-76725261D01*
X185299184Y-76700390D01*
X185293744Y-76686336D01*
X185287309Y-76680019D01*
X185278812Y-76678360D01*
X185271212Y-76678320D01*
X185241938Y-76686822D01*
X185223067Y-76710936D01*
X185215016Y-76748583D01*
X185218199Y-76797678D01*
X185233034Y-76856140D01*
X185234713Y-76861092D01*
X185244690Y-76891347D01*
X185250779Y-76912487D01*
X185251756Y-76919070D01*
X185239837Y-76918962D01*
X185216984Y-76912348D01*
X185190331Y-76902018D01*
X185167015Y-76890758D01*
X185154172Y-76881356D01*
X185153841Y-76880823D01*
X185147966Y-76864387D01*
X185139593Y-76834005D01*
X185130337Y-76795633D01*
X185128446Y-76787181D01*
X185117744Y-76713490D01*
X185120225Y-76651299D01*
G37*
X185120225Y-76651299D02*
X185135491Y-76601912D01*
X185163146Y-76566632D01*
X185201636Y-76547066D01*
X185220503Y-76543253D01*
X185241262Y-76542353D01*
X185266780Y-76544950D01*
X185299922Y-76551628D01*
X185343555Y-76562972D01*
X185400544Y-76579566D01*
X185473754Y-76601993D01*
X185478960Y-76603610D01*
X185605960Y-76643079D01*
X185608964Y-76711500D01*
X185609807Y-76745783D01*
X185609149Y-76770332D01*
X185607133Y-76779917D01*
X185607085Y-76779920D01*
X185594983Y-76776688D01*
X185576141Y-76770012D01*
X185557284Y-76764254D01*
X185550080Y-76764635D01*
X185555453Y-76774745D01*
X185569309Y-76796048D01*
X185582628Y-76815344D01*
X185603144Y-76849131D01*
X185614190Y-76882490D01*
X185619171Y-76924861D01*
X185620289Y-76962938D01*
X185616770Y-76988208D01*
X185607179Y-77007930D01*
X185601125Y-77016140D01*
X185584682Y-77033176D01*
X185565462Y-77041453D01*
X185535654Y-77043878D01*
X185526482Y-77043913D01*
X185478825Y-77036356D01*
X185478825Y-76901840D01*
X185506320Y-76894112D01*
X185521616Y-76873253D01*
X185524205Y-76842757D01*
X185513578Y-76806115D01*
X185496997Y-76777227D01*
X185460166Y-76741998D01*
X185405806Y-76716271D01*
X185399822Y-76714357D01*
X185383049Y-76711562D01*
X185379892Y-76721627D01*
X185381488Y-76730850D01*
X185385768Y-76755204D01*
X185390833Y-76789075D01*
X185392859Y-76804056D01*
X185405913Y-76851009D01*
X185429956Y-76883782D01*
X185463140Y-76900273D01*
X185478825Y-76901840D01*
X185478825Y-77036356D01*
X185464993Y-77034162D01*
X185411164Y-77005846D01*
X185366463Y-76959753D01*
X185364387Y-76956844D01*
X185347820Y-76928392D01*
X185335266Y-76893814D01*
X185324871Y-76847367D01*
X185320201Y-76819770D01*
X185311346Y-76764028D01*
X185304696Y-76725261D01*
X185299184Y-76700390D01*
X185293744Y-76686336D01*
X185287309Y-76680019D01*
X185278812Y-76678360D01*
X185271212Y-76678320D01*
X185241938Y-76686822D01*
X185223067Y-76710936D01*
X185215016Y-76748583D01*
X185218199Y-76797678D01*
X185233034Y-76856140D01*
X185234713Y-76861092D01*
X185244690Y-76891347D01*
X185250779Y-76912487D01*
X185251756Y-76919070D01*
X185239837Y-76918962D01*
X185216984Y-76912348D01*
X185190331Y-76902018D01*
X185167015Y-76890758D01*
X185154172Y-76881356D01*
X185153841Y-76880823D01*
X185147966Y-76864387D01*
X185139593Y-76834005D01*
X185130337Y-76795633D01*
X185128446Y-76787181D01*
X185117744Y-76713490D01*
X185120225Y-76651299D01*
G36*
X185119190Y-77113415D02*
G01*
X185138639Y-77054169D01*
X185139062Y-77053346D01*
X185166403Y-77021518D01*
X185207486Y-77001230D01*
X185258879Y-76993164D01*
X185317147Y-76998002D01*
X185360056Y-77009389D01*
X185407332Y-77025498D01*
X185412920Y-77343800D01*
X185447383Y-77343800D01*
X185482639Y-77335784D01*
X185506522Y-77311498D01*
X185519260Y-77270586D01*
X185521638Y-77228762D01*
X185518391Y-77187991D01*
X185510997Y-77149067D01*
X185505014Y-77130440D01*
X185489250Y-77092710D01*
X185517125Y-77099629D01*
X185558795Y-77112893D01*
X185585131Y-77130184D01*
X185601117Y-77155716D01*
X185607682Y-77176240D01*
X185617634Y-77232100D01*
X185620796Y-77292129D01*
X185617375Y-77349609D01*
X185607579Y-77397823D01*
X185600232Y-77416606D01*
X185570251Y-77456249D01*
X185528072Y-77480883D01*
X185475440Y-77490279D01*
X185414100Y-77484209D01*
X185345799Y-77462444D01*
X185324035Y-77452736D01*
X185303633Y-77440356D01*
X185303633Y-77308247D01*
X185316697Y-77304056D01*
X185323769Y-77281922D01*
X185326401Y-77240893D01*
X185326560Y-77221629D01*
X185326283Y-77179586D01*
X185324586Y-77153330D01*
X185320170Y-77138325D01*
X185311733Y-77130038D01*
X185298620Y-77124184D01*
X185264021Y-77119062D01*
X185237253Y-77131796D01*
X185220706Y-77160665D01*
X185216804Y-77183113D01*
X185216826Y-77209701D01*
X185223864Y-77230621D01*
X185241317Y-77253644D01*
X185253331Y-77266609D01*
X185283027Y-77295447D01*
X185303633Y-77308247D01*
X185303633Y-77440356D01*
X185258498Y-77412965D01*
X185203684Y-77362519D01*
X185160970Y-77304369D01*
X185131732Y-77241488D01*
X185117346Y-77176846D01*
X185119190Y-77113415D01*
G37*
X185119190Y-77113415D02*
X185138639Y-77054169D01*
X185139062Y-77053346D01*
X185166403Y-77021518D01*
X185207486Y-77001230D01*
X185258879Y-76993164D01*
X185317147Y-76998002D01*
X185360056Y-77009389D01*
X185407332Y-77025498D01*
X185412920Y-77343800D01*
X185447383Y-77343800D01*
X185482639Y-77335784D01*
X185506522Y-77311498D01*
X185519260Y-77270586D01*
X185521638Y-77228762D01*
X185518391Y-77187991D01*
X185510997Y-77149067D01*
X185505014Y-77130440D01*
X185489250Y-77092710D01*
X185517125Y-77099629D01*
X185558795Y-77112893D01*
X185585131Y-77130184D01*
X185601117Y-77155716D01*
X185607682Y-77176240D01*
X185617634Y-77232100D01*
X185620796Y-77292129D01*
X185617375Y-77349609D01*
X185607579Y-77397823D01*
X185600232Y-77416606D01*
X185570251Y-77456249D01*
X185528072Y-77480883D01*
X185475440Y-77490279D01*
X185414100Y-77484209D01*
X185345799Y-77462444D01*
X185324035Y-77452736D01*
X185303633Y-77440356D01*
X185303633Y-77308247D01*
X185316697Y-77304056D01*
X185323769Y-77281922D01*
X185326401Y-77240893D01*
X185326560Y-77221629D01*
X185326283Y-77179586D01*
X185324586Y-77153330D01*
X185320170Y-77138325D01*
X185311733Y-77130038D01*
X185298620Y-77124184D01*
X185264021Y-77119062D01*
X185237253Y-77131796D01*
X185220706Y-77160665D01*
X185216804Y-77183113D01*
X185216826Y-77209701D01*
X185223864Y-77230621D01*
X185241317Y-77253644D01*
X185253331Y-77266609D01*
X185283027Y-77295447D01*
X185303633Y-77308247D01*
X185303633Y-77440356D01*
X185258498Y-77412965D01*
X185203684Y-77362519D01*
X185160970Y-77304369D01*
X185131732Y-77241488D01*
X185117346Y-77176846D01*
X185119190Y-77113415D01*
G36*
X185703236Y-80845983D02*
G01*
X185703992Y-80574680D01*
X185727174Y-80640720D01*
X185775570Y-80756526D01*
X185839491Y-80875096D01*
X185915736Y-80991302D01*
X186001105Y-81100014D01*
X186042426Y-81145954D01*
X186129965Y-81238945D01*
X186061002Y-81218858D01*
X186020526Y-81207196D01*
X185968719Y-81192447D01*
X185913832Y-81176954D01*
X185885360Y-81168976D01*
X185837118Y-81155474D01*
X185792105Y-81142825D01*
X185756418Y-81132746D01*
X185740580Y-81128233D01*
X185702480Y-81117285D01*
X185703236Y-80845983D01*
G37*
X185703236Y-80845983D02*
X185703992Y-80574680D01*
X185727174Y-80640720D01*
X185775570Y-80756526D01*
X185839491Y-80875096D01*
X185915736Y-80991302D01*
X186001105Y-81100014D01*
X186042426Y-81145954D01*
X186129965Y-81238945D01*
X186061002Y-81218858D01*
X186020526Y-81207196D01*
X185968719Y-81192447D01*
X185913832Y-81176954D01*
X185885360Y-81168976D01*
X185837118Y-81155474D01*
X185792105Y-81142825D01*
X185756418Y-81132746D01*
X185740580Y-81128233D01*
X185702480Y-81117285D01*
X185703236Y-80845983D01*
G36*
X186082238Y-80318935D02*
G01*
X186097198Y-80253857D01*
X186125775Y-80203490D01*
X186168201Y-80167444D01*
X186224708Y-80145330D01*
X186232804Y-80143519D01*
X186262386Y-80138253D01*
X186289683Y-80136131D01*
X186319880Y-80137455D01*
X186358157Y-80142528D01*
X186409698Y-80151651D01*
X186426380Y-80154814D01*
X186484800Y-80165977D01*
X186484800Y-80520189D01*
X186484683Y-80616544D01*
X186484286Y-80694392D01*
X186483537Y-80755540D01*
X186482366Y-80801802D01*
X186480700Y-80834985D01*
X186478469Y-80856902D01*
X186475601Y-80869362D01*
X186472025Y-80874176D01*
X186470863Y-80874400D01*
X186451515Y-80868087D01*
X186420714Y-80850930D01*
X186382178Y-80825607D01*
X186339623Y-80794794D01*
X186296768Y-80761170D01*
X186257328Y-80727411D01*
X186228595Y-80699919D01*
X186162386Y-80621178D01*
X186115928Y-80541208D01*
X186088651Y-80458852D01*
X186080663Y-80399111D01*
X186082238Y-80318935D01*
G37*
X186082238Y-80318935D02*
X186097198Y-80253857D01*
X186125775Y-80203490D01*
X186168201Y-80167444D01*
X186224708Y-80145330D01*
X186232804Y-80143519D01*
X186262386Y-80138253D01*
X186289683Y-80136131D01*
X186319880Y-80137455D01*
X186358157Y-80142528D01*
X186409698Y-80151651D01*
X186426380Y-80154814D01*
X186484800Y-80165977D01*
X186484800Y-80520189D01*
X186484683Y-80616544D01*
X186484286Y-80694392D01*
X186483537Y-80755540D01*
X186482366Y-80801802D01*
X186480700Y-80834985D01*
X186478469Y-80856902D01*
X186475601Y-80869362D01*
X186472025Y-80874176D01*
X186470863Y-80874400D01*
X186451515Y-80868087D01*
X186420714Y-80850930D01*
X186382178Y-80825607D01*
X186339623Y-80794794D01*
X186296768Y-80761170D01*
X186257328Y-80727411D01*
X186228595Y-80699919D01*
X186162386Y-80621178D01*
X186115928Y-80541208D01*
X186088651Y-80458852D01*
X186080663Y-80399111D01*
X186082238Y-80318935D01*
G36*
X186050640Y-77517674D02*
G01*
X186057028Y-77453438D01*
X186070099Y-77402063D01*
X186090661Y-77360142D01*
X186113681Y-77330428D01*
X186148005Y-77293000D01*
X186237662Y-77293000D01*
X186284657Y-77293865D01*
X186319367Y-77297546D01*
X186349792Y-77305677D01*
X186383935Y-77319891D01*
X186395184Y-77325152D01*
X186466979Y-77366115D01*
X186524835Y-77415279D01*
X186569653Y-77474430D01*
X186602335Y-77545351D01*
X186623780Y-77629827D01*
X186634891Y-77729644D01*
X186636998Y-77804225D01*
X186636906Y-77848353D01*
X186635790Y-77875718D01*
X186632730Y-77889880D01*
X186626809Y-77894394D01*
X186617108Y-77892820D01*
X186614340Y-77891999D01*
X186595474Y-77886192D01*
X186562335Y-77875876D01*
X186520031Y-77862647D01*
X186484800Y-77851594D01*
X186428991Y-77834169D01*
X186363269Y-77813811D01*
X186297169Y-77793468D01*
X186256200Y-77780942D01*
X186205141Y-77765350D01*
X186157249Y-77750654D01*
X186118024Y-77738547D01*
X186093640Y-77730933D01*
X186053000Y-77718062D01*
X186050126Y-77598180D01*
X186050640Y-77517674D01*
G37*
X186050640Y-77517674D02*
X186057028Y-77453438D01*
X186070099Y-77402063D01*
X186090661Y-77360142D01*
X186113681Y-77330428D01*
X186148005Y-77293000D01*
X186237662Y-77293000D01*
X186284657Y-77293865D01*
X186319367Y-77297546D01*
X186349792Y-77305677D01*
X186383935Y-77319891D01*
X186395184Y-77325152D01*
X186466979Y-77366115D01*
X186524835Y-77415279D01*
X186569653Y-77474430D01*
X186602335Y-77545351D01*
X186623780Y-77629827D01*
X186634891Y-77729644D01*
X186636998Y-77804225D01*
X186636906Y-77848353D01*
X186635790Y-77875718D01*
X186632730Y-77889880D01*
X186626809Y-77894394D01*
X186617108Y-77892820D01*
X186614340Y-77891999D01*
X186595474Y-77886192D01*
X186562335Y-77875876D01*
X186520031Y-77862647D01*
X186484800Y-77851594D01*
X186428991Y-77834169D01*
X186363269Y-77813811D01*
X186297169Y-77793468D01*
X186256200Y-77780942D01*
X186205141Y-77765350D01*
X186157249Y-77750654D01*
X186118024Y-77738547D01*
X186093640Y-77730933D01*
X186053000Y-77718062D01*
X186050126Y-77598180D01*
X186050640Y-77517674D01*
G36*
X186672760Y-74443120D02*
G01*
X186677840Y-74448200D01*
X186672760Y-74453280D01*
X186667680Y-74448200D01*
X186672760Y-74443120D01*
G37*
X186672760Y-74443120D02*
X186677840Y-74448200D01*
X186672760Y-74453280D01*
X186667680Y-74448200D01*
X186672760Y-74443120D01*
G36*
X186522711Y-72632987D02*
G01*
X186544567Y-72586005D01*
X186580187Y-72553464D01*
X186628912Y-72535774D01*
X186690082Y-72533350D01*
X186754620Y-72544407D01*
X186799760Y-72555773D01*
X186799760Y-73051915D01*
X186776900Y-73040047D01*
X186729783Y-73011479D01*
X186679383Y-72974275D01*
X186632225Y-72933757D01*
X186594837Y-72895245D01*
X186586498Y-72884871D01*
X186544400Y-72817516D01*
X186521125Y-72750861D01*
X186515280Y-72693997D01*
X186522711Y-72632987D01*
G37*
X186522711Y-72632987D02*
X186544567Y-72586005D01*
X186580187Y-72553464D01*
X186628912Y-72535774D01*
X186690082Y-72533350D01*
X186754620Y-72544407D01*
X186799760Y-72555773D01*
X186799760Y-73051915D01*
X186776900Y-73040047D01*
X186729783Y-73011479D01*
X186679383Y-72974275D01*
X186632225Y-72933757D01*
X186594837Y-72895245D01*
X186586498Y-72884871D01*
X186544400Y-72817516D01*
X186521125Y-72750861D01*
X186515280Y-72693997D01*
X186522711Y-72632987D01*
G36*
X187292520Y-74168800D02*
G01*
X187297600Y-74173880D01*
X187292520Y-74178960D01*
X187287440Y-74173880D01*
X187292520Y-74168800D01*
G37*
X187292520Y-74168800D02*
X187297600Y-74173880D01*
X187292520Y-74178960D01*
X187287440Y-74173880D01*
X187292520Y-74168800D01*
G36*
X187280666Y-75066267D02*
G01*
X187292724Y-75065051D01*
X187294213Y-75066267D01*
X187292818Y-75072307D01*
X187287440Y-75073040D01*
X187279077Y-75069323D01*
X187280666Y-75066267D01*
G37*
X187280666Y-75066267D02*
X187292724Y-75065051D01*
X187294213Y-75066267D01*
X187292818Y-75072307D01*
X187287440Y-75073040D01*
X187279077Y-75069323D01*
X187280666Y-75066267D01*
G36*
X186560707Y-76100774D02*
G01*
X186580779Y-76042248D01*
X186614420Y-75998834D01*
X186661609Y-75970542D01*
X186722328Y-75957384D01*
X186796557Y-75959371D01*
X186884274Y-75976514D01*
X186903452Y-75981767D01*
X187019112Y-76021645D01*
X187116514Y-76069936D01*
X187195574Y-76126575D01*
X187256212Y-76191499D01*
X187298346Y-76264644D01*
X187311776Y-76301990D01*
X187323595Y-76362290D01*
X187326519Y-76427564D01*
X187320337Y-76487979D01*
X187316142Y-76505600D01*
X187291439Y-76558515D01*
X187252242Y-76598501D01*
X187200640Y-76624378D01*
X187138717Y-76634965D01*
X187091317Y-76632771D01*
X186977554Y-76611322D01*
X186874555Y-76577686D01*
X186783601Y-76532955D01*
X186705972Y-76478222D01*
X186642948Y-76414579D01*
X186595810Y-76343119D01*
X186565837Y-76264935D01*
X186554311Y-76181120D01*
X186554224Y-76174401D01*
X186560707Y-76100774D01*
G37*
X186560707Y-76100774D02*
X186580779Y-76042248D01*
X186614420Y-75998834D01*
X186661609Y-75970542D01*
X186722328Y-75957384D01*
X186796557Y-75959371D01*
X186884274Y-75976514D01*
X186903452Y-75981767D01*
X187019112Y-76021645D01*
X187116514Y-76069936D01*
X187195574Y-76126575D01*
X187256212Y-76191499D01*
X187298346Y-76264644D01*
X187311776Y-76301990D01*
X187323595Y-76362290D01*
X187326519Y-76427564D01*
X187320337Y-76487979D01*
X187316142Y-76505600D01*
X187291439Y-76558515D01*
X187252242Y-76598501D01*
X187200640Y-76624378D01*
X187138717Y-76634965D01*
X187091317Y-76632771D01*
X186977554Y-76611322D01*
X186874555Y-76577686D01*
X186783601Y-76532955D01*
X186705972Y-76478222D01*
X186642948Y-76414579D01*
X186595810Y-76343119D01*
X186565837Y-76264935D01*
X186554311Y-76181120D01*
X186554224Y-76174401D01*
X186560707Y-76100774D01*
G36*
X186701145Y-74457744D02*
G01*
X186725028Y-74461291D01*
X186738929Y-74463935D01*
X186757159Y-74466171D01*
X186792871Y-74469306D01*
X186843252Y-74473166D01*
X186905491Y-74477580D01*
X186976777Y-74482375D01*
X187054299Y-74487379D01*
X187135246Y-74492419D01*
X187216806Y-74497323D01*
X187296169Y-74501918D01*
X187370523Y-74506032D01*
X187437058Y-74509493D01*
X187492961Y-74512129D01*
X187535422Y-74513766D01*
X187559220Y-74514244D01*
X187592240Y-74514240D01*
X187592240Y-74737760D01*
X187591973Y-74802693D01*
X187591228Y-74860210D01*
X187590083Y-74907411D01*
X187588619Y-74941398D01*
X187586915Y-74959269D01*
X187586091Y-74961280D01*
X187575727Y-74956266D01*
X187549034Y-74941686D01*
X187507222Y-74918233D01*
X187451501Y-74886600D01*
X187383082Y-74847480D01*
X187303175Y-74801566D01*
X187212991Y-74749552D01*
X187113740Y-74692131D01*
X187006634Y-74629995D01*
X186947080Y-74595379D01*
X186892601Y-74564173D01*
X186839939Y-74534869D01*
X186793369Y-74509786D01*
X186757167Y-74491240D01*
X186741030Y-74483706D01*
X186712735Y-74470890D01*
X186694475Y-74461319D01*
X186690359Y-74457694D01*
X186701145Y-74457744D01*
G37*
X186701145Y-74457744D02*
X186725028Y-74461291D01*
X186738929Y-74463935D01*
X186757159Y-74466171D01*
X186792871Y-74469306D01*
X186843252Y-74473166D01*
X186905491Y-74477580D01*
X186976777Y-74482375D01*
X187054299Y-74487379D01*
X187135246Y-74492419D01*
X187216806Y-74497323D01*
X187296169Y-74501918D01*
X187370523Y-74506032D01*
X187437058Y-74509493D01*
X187492961Y-74512129D01*
X187535422Y-74513766D01*
X187559220Y-74514244D01*
X187592240Y-74514240D01*
X187592240Y-74737760D01*
X187591973Y-74802693D01*
X187591228Y-74860210D01*
X187590083Y-74907411D01*
X187588619Y-74941398D01*
X187586915Y-74959269D01*
X187586091Y-74961280D01*
X187575727Y-74956266D01*
X187549034Y-74941686D01*
X187507222Y-74918233D01*
X187451501Y-74886600D01*
X187383082Y-74847480D01*
X187303175Y-74801566D01*
X187212991Y-74749552D01*
X187113740Y-74692131D01*
X187006634Y-74629995D01*
X186947080Y-74595379D01*
X186892601Y-74564173D01*
X186839939Y-74534869D01*
X186793369Y-74509786D01*
X186757167Y-74491240D01*
X186741030Y-74483706D01*
X186712735Y-74470890D01*
X186694475Y-74461319D01*
X186690359Y-74457694D01*
X186701145Y-74457744D01*
G36*
X187592240Y-70622960D02*
G01*
X187592240Y-71889864D01*
X187467780Y-71851735D01*
X187417435Y-71836316D01*
X187353371Y-71816703D01*
X187281299Y-71794642D01*
X187206932Y-71771884D01*
X187140120Y-71751441D01*
X187046521Y-71722083D01*
X186969830Y-71696149D01*
X186907194Y-71672312D01*
X186855763Y-71649248D01*
X186812686Y-71625630D01*
X186775112Y-71600133D01*
X186740192Y-71571432D01*
X186726892Y-71559286D01*
X186670394Y-71498336D01*
X186632192Y-71436873D01*
X186610527Y-71371104D01*
X186603640Y-71297239D01*
X186603651Y-71293520D01*
X186606983Y-71238714D01*
X186615508Y-71193263D01*
X186620909Y-71177422D01*
X186629545Y-71151280D01*
X186631250Y-71133222D01*
X186629813Y-71130045D01*
X186617480Y-71124259D01*
X186589779Y-71114195D01*
X186550326Y-71100960D01*
X186502737Y-71085657D01*
X186450625Y-71069393D01*
X186397608Y-71053272D01*
X186347299Y-71038400D01*
X186303315Y-71025882D01*
X186269270Y-71016822D01*
X186248779Y-71012326D01*
X186244508Y-71012265D01*
X186238850Y-71028015D01*
X186235146Y-71058269D01*
X186233538Y-71097292D01*
X186234169Y-71139348D01*
X186237184Y-71178702D01*
X186239888Y-71197000D01*
X186266471Y-71285094D01*
X186312834Y-71368898D01*
X186378858Y-71448218D01*
X186425079Y-71491211D01*
X186452686Y-71515423D01*
X186472596Y-71534036D01*
X186481241Y-71543683D01*
X186481291Y-71544255D01*
X186471148Y-71542469D01*
X186445637Y-71535595D01*
X186408736Y-71524756D01*
X186369270Y-71512602D01*
X186316482Y-71496902D01*
X186280925Y-71488483D01*
X186260983Y-71487029D01*
X186255299Y-71490324D01*
X186254015Y-71503795D01*
X186253145Y-71534286D01*
X186252719Y-71578501D01*
X186252765Y-71633143D01*
X186253312Y-71694916D01*
X186253437Y-71704448D01*
X186256200Y-71906523D01*
X186296840Y-71919158D01*
X186347516Y-71934876D01*
X186413966Y-71955429D01*
X186492537Y-71979692D01*
X186579577Y-72006538D01*
X186671433Y-72034843D01*
X186764453Y-72063480D01*
X186854984Y-72091325D01*
X186939373Y-72117251D01*
X187002960Y-72136759D01*
X187082690Y-72161277D01*
X187168363Y-72187753D01*
X187254031Y-72214342D01*
X187333749Y-72239196D01*
X187401571Y-72260470D01*
X187416980Y-72265331D01*
X187592239Y-72320713D01*
X187591252Y-72454817D01*
X187590763Y-72508769D01*
X187589968Y-72544686D01*
X187588472Y-72564850D01*
X187585877Y-72571545D01*
X187581787Y-72567054D01*
X187575806Y-72553661D01*
X187574593Y-72550714D01*
X187565863Y-72532088D01*
X187554960Y-72518919D01*
X187537375Y-72508387D01*
X187508599Y-72497669D01*
X187471440Y-72486143D01*
X187423022Y-72471341D01*
X187373706Y-72455925D01*
X187332695Y-72442778D01*
X187325860Y-72440529D01*
X187293320Y-72430243D01*
X187268366Y-72423259D01*
X187258171Y-72421280D01*
X187257441Y-72429918D01*
X187263533Y-72453052D01*
X187275234Y-72486512D01*
X187282522Y-72505100D01*
X187313285Y-72593870D01*
X187334880Y-72683691D01*
X187347395Y-72771922D01*
X187350916Y-72855918D01*
X187345531Y-72933035D01*
X187331325Y-73000631D01*
X187308385Y-73056060D01*
X187276799Y-73096679D01*
X187262754Y-73107547D01*
X187213944Y-73128963D01*
X187155336Y-73137916D01*
X187112180Y-73136014D01*
X187063920Y-73129863D01*
X187063920Y-72685491D01*
X187063919Y-72241119D01*
X186960676Y-72208391D01*
X186878935Y-72183707D01*
X186810581Y-72166246D01*
X186750365Y-72155131D01*
X186693041Y-72149481D01*
X186633359Y-72148419D01*
X186606720Y-72149115D01*
X186534661Y-72154528D01*
X186476568Y-72166230D01*
X186426546Y-72186219D01*
X186378700Y-72216490D01*
X186356437Y-72233894D01*
X186313623Y-72280232D01*
X186277138Y-72342138D01*
X186248996Y-72415323D01*
X186231210Y-72495499D01*
X186230232Y-72502560D01*
X186223850Y-72627959D01*
X186237308Y-72753771D01*
X186270220Y-72878458D01*
X186322202Y-73000482D01*
X186379704Y-73098866D01*
X186418021Y-73150441D01*
X186467416Y-73207722D01*
X186522480Y-73265096D01*
X186577809Y-73316950D01*
X186627996Y-73357671D01*
X186631138Y-73359931D01*
X186740026Y-73427807D01*
X186857352Y-73483356D01*
X186978816Y-73525110D01*
X187100119Y-73551603D01*
X187216962Y-73561367D01*
X187221400Y-73561389D01*
X187316784Y-73554548D01*
X187398936Y-73533144D01*
X187469562Y-73496388D01*
X187530372Y-73443490D01*
X187563101Y-73403336D01*
X187592240Y-73363112D01*
X187592240Y-73704996D01*
X187592093Y-73786043D01*
X187591675Y-73860230D01*
X187591023Y-73925211D01*
X187590171Y-73978642D01*
X187589154Y-74018179D01*
X187588008Y-74041475D01*
X187587097Y-74046880D01*
X187577575Y-74041832D01*
X187552397Y-74027386D01*
X187513333Y-74004593D01*
X187462154Y-73974503D01*
X187400633Y-73938167D01*
X187330541Y-73896634D01*
X187253649Y-73850956D01*
X187171728Y-73802182D01*
X187086550Y-73751363D01*
X186999886Y-73699548D01*
X186913508Y-73647789D01*
X186875960Y-73625249D01*
X186758311Y-73554710D01*
X186650907Y-73490562D01*
X186554641Y-73433331D01*
X186470408Y-73383541D01*
X186399103Y-73341717D01*
X186341619Y-73308383D01*
X186298852Y-73284064D01*
X186271695Y-73269286D01*
X186261160Y-73264560D01*
X186257111Y-73274661D01*
X186254403Y-73304815D01*
X186253046Y-73354799D01*
X186253048Y-73424390D01*
X186253440Y-73458252D01*
X186256200Y-73651943D01*
X186383200Y-73718375D01*
X186420721Y-73737842D01*
X186473580Y-73765033D01*
X186538971Y-73798517D01*
X186614091Y-73836865D01*
X186696137Y-73878644D01*
X186782303Y-73922424D01*
X186869786Y-73966775D01*
X186891200Y-73977614D01*
X186971495Y-74018330D01*
X187045152Y-74055837D01*
X187110418Y-74089233D01*
X187165543Y-74117614D01*
X187208776Y-74140076D01*
X187238364Y-74155716D01*
X187252559Y-74163631D01*
X187253085Y-74164337D01*
X187231934Y-74160208D01*
X187191999Y-74155070D01*
X187134784Y-74149043D01*
X187061793Y-74142252D01*
X186974531Y-74134819D01*
X186874502Y-74126867D01*
X186763211Y-74118519D01*
X186642161Y-74109897D01*
X186512858Y-74101124D01*
X186376804Y-74092323D01*
X186350180Y-74090649D01*
X186251119Y-74084451D01*
X186251203Y-74286646D01*
X186251287Y-74488840D01*
X186289303Y-74509760D01*
X186305675Y-74518978D01*
X186337748Y-74537227D01*
X186383607Y-74563409D01*
X186441336Y-74596430D01*
X186509020Y-74635192D01*
X186584744Y-74678599D01*
X186666592Y-74725556D01*
X186748960Y-74772846D01*
X186835398Y-74822400D01*
X186918011Y-74869585D01*
X186994809Y-74913279D01*
X187063807Y-74952359D01*
X187123018Y-74985702D01*
X187170455Y-75012187D01*
X187204132Y-75030691D01*
X187221400Y-75039771D01*
X187244200Y-75051951D01*
X187252748Y-75058894D01*
X187246800Y-75059319D01*
X187223081Y-75054718D01*
X187197729Y-75050475D01*
X187167992Y-75046271D01*
X187131120Y-75041788D01*
X187084362Y-75036706D01*
X187024965Y-75030706D01*
X186950179Y-75023471D01*
X186881040Y-75016919D01*
X186799448Y-75009168D01*
X186715679Y-75001100D01*
X186634571Y-74993190D01*
X186560964Y-74985911D01*
X186499696Y-74979738D01*
X186469560Y-74976624D01*
X186414407Y-74971106D01*
X186363283Y-74966478D01*
X186321192Y-74963159D01*
X186293143Y-74961568D01*
X186289220Y-74961492D01*
X186251120Y-74961280D01*
X186251120Y-75386267D01*
X186324780Y-75391770D01*
X186351367Y-75393263D01*
X186395567Y-75395159D01*
X186454679Y-75397367D01*
X186526003Y-75399795D01*
X186606837Y-75402353D01*
X186694480Y-75404948D01*
X186786232Y-75407491D01*
X186804840Y-75407985D01*
X186903409Y-75410622D01*
X187003846Y-75413378D01*
X187102425Y-75416148D01*
X187195423Y-75418823D01*
X187279116Y-75421298D01*
X187349780Y-75423464D01*
X187401740Y-75425148D01*
X187592240Y-75431600D01*
X187592231Y-75788260D01*
X187592223Y-76144920D01*
X187562304Y-76081677D01*
X187495581Y-75964101D01*
X187412122Y-75856947D01*
X187313275Y-75761369D01*
X187200385Y-75678518D01*
X187074800Y-75609547D01*
X186953718Y-75560864D01*
X186835195Y-75528074D01*
X186724976Y-75512595D01*
X186623729Y-75514146D01*
X186532123Y-75532448D01*
X186450828Y-75567220D01*
X186380514Y-75618181D01*
X186321849Y-75685052D01*
X186275503Y-75767551D01*
X186244017Y-75858158D01*
X186236308Y-75900897D01*
X186230944Y-75958368D01*
X186227974Y-76025112D01*
X186227447Y-76095671D01*
X186229414Y-76164587D01*
X186233923Y-76226400D01*
X186240284Y-76271920D01*
X186271851Y-76391026D01*
X186319873Y-76509921D01*
X186381510Y-76622032D01*
X186409865Y-76664241D01*
X186450097Y-76714503D01*
X186501323Y-76769467D01*
X186557943Y-76823762D01*
X186614354Y-76872019D01*
X186664955Y-76908866D01*
X186665128Y-76908976D01*
X186752723Y-76958279D01*
X186851276Y-77002339D01*
X186954372Y-77038875D01*
X187055599Y-77065601D01*
X187145200Y-77079922D01*
X187236815Y-77080290D01*
X187325195Y-77064602D01*
X187407101Y-77034219D01*
X187479294Y-76990504D01*
X187538536Y-76934821D01*
X187560935Y-76904978D01*
X187592240Y-76857717D01*
X187592240Y-77524939D01*
X187592160Y-77639324D01*
X187591929Y-77747515D01*
X187591561Y-77847833D01*
X187591069Y-77938601D01*
X187590467Y-78018139D01*
X187589768Y-78084769D01*
X187588987Y-78136812D01*
X187588136Y-78172590D01*
X187587229Y-78190424D01*
X187586839Y-78192160D01*
X187575040Y-78189220D01*
X187549900Y-78181587D01*
X187523339Y-78173030D01*
X187494057Y-78163594D01*
X187449979Y-78149650D01*
X187395737Y-78132651D01*
X187335959Y-78114049D01*
X187292520Y-78100612D01*
X187230311Y-78081372D01*
X187169077Y-78062352D01*
X187113844Y-78045117D01*
X187069637Y-78031235D01*
X187048680Y-78024587D01*
X186977560Y-78001850D01*
X186971266Y-77835385D01*
X186968128Y-77760097D01*
X186964747Y-77700598D01*
X186960562Y-77652362D01*
X186955016Y-77610860D01*
X186947549Y-77571565D01*
X186937602Y-77529949D01*
X186930021Y-77501280D01*
X186883342Y-77363440D01*
X186821663Y-77238980D01*
X186745371Y-77128321D01*
X186654857Y-77031883D01*
X186550510Y-76950084D01*
X186432719Y-76883343D01*
X186312080Y-76835363D01*
X186268003Y-76822050D01*
X186229080Y-76813521D01*
X186187951Y-76808720D01*
X186137258Y-76806593D01*
X186108880Y-76806223D01*
X186056943Y-76806198D01*
X186019867Y-76807640D01*
X185992202Y-76811402D01*
X185968497Y-76818339D01*
X185943301Y-76829306D01*
X185934528Y-76833563D01*
X185867739Y-76877428D01*
X185812558Y-76937776D01*
X185768897Y-77014733D01*
X185736667Y-77108422D01*
X185735601Y-77112570D01*
X185731271Y-77131827D01*
X185727704Y-77153658D01*
X185724828Y-77180136D01*
X185722569Y-77213330D01*
X185720856Y-77255312D01*
X185719616Y-77308152D01*
X185718776Y-77373923D01*
X185718263Y-77454694D01*
X185718006Y-77552537D01*
X185717946Y-77616525D01*
X185717720Y-78051809D01*
X185890440Y-78105676D01*
X185951293Y-78124615D01*
X186026107Y-78147840D01*
X186109423Y-78173657D01*
X186195779Y-78200376D01*
X186279716Y-78226305D01*
X186317160Y-78237856D01*
X186396731Y-78262398D01*
X186480119Y-78288133D01*
X186562181Y-78313472D01*
X186637773Y-78336827D01*
X186701753Y-78356611D01*
X186728640Y-78364932D01*
X186784582Y-78382238D01*
X186854802Y-78403936D01*
X186934156Y-78428439D01*
X187017502Y-78454158D01*
X187099694Y-78479505D01*
X187140120Y-78491965D01*
X187215024Y-78515056D01*
X187289449Y-78538016D01*
X187359345Y-78559596D01*
X187420666Y-78578545D01*
X187469364Y-78593613D01*
X187493180Y-78600997D01*
X187592240Y-78631759D01*
X187592084Y-79384780D01*
X187591953Y-79506084D01*
X187591624Y-79621003D01*
X187591114Y-79727993D01*
X187590439Y-79825510D01*
X187589617Y-79912008D01*
X187588666Y-79985942D01*
X187587601Y-80045769D01*
X187586441Y-80089943D01*
X187585202Y-80116920D01*
X187583902Y-80125155D01*
X187583873Y-80125115D01*
X187572414Y-80118654D01*
X187545145Y-80107657D01*
X187505424Y-80093203D01*
X187456607Y-80076366D01*
X187402051Y-80058224D01*
X187345112Y-80039853D01*
X187289149Y-80022329D01*
X187237518Y-80006728D01*
X187193576Y-79994128D01*
X187160679Y-79985604D01*
X187142185Y-79982234D01*
X187139507Y-79982626D01*
X187140468Y-79994127D01*
X187149129Y-80017548D01*
X187158605Y-80037730D01*
X187201471Y-80136392D01*
X187235710Y-80243896D01*
X187260911Y-80356430D01*
X187276663Y-80470180D01*
X187282555Y-80581332D01*
X187278176Y-80686073D01*
X187263117Y-80780589D01*
X187245116Y-80841007D01*
X187215766Y-80897625D01*
X187175031Y-80945845D01*
X187127305Y-80981171D01*
X187094538Y-80995113D01*
X187051282Y-81003518D01*
X187041060Y-81004314D01*
X187041060Y-79441512D01*
X187041638Y-79431806D01*
X187042166Y-79404036D01*
X187042628Y-79360459D01*
X187043010Y-79303332D01*
X187043295Y-79234911D01*
X187043470Y-79157452D01*
X187043518Y-79073540D01*
X187043436Y-78705240D01*
X186913978Y-78666367D01*
X186864338Y-78651486D01*
X186820643Y-78638434D01*
X186787150Y-78628479D01*
X186768121Y-78622891D01*
X186766612Y-78622461D01*
X186761933Y-78622111D01*
X186758173Y-78625234D01*
X186755251Y-78633743D01*
X186753086Y-78649546D01*
X186751600Y-78674556D01*
X186750710Y-78710683D01*
X186750338Y-78759836D01*
X186750401Y-78823928D01*
X186750821Y-78904867D01*
X186751372Y-78984786D01*
X186754040Y-79352142D01*
X186896280Y-79396663D01*
X186946550Y-79412368D01*
X186989373Y-79425688D01*
X187021280Y-79435551D01*
X187038800Y-79440880D01*
X187041060Y-79441512D01*
X187041060Y-81004314D01*
X186997468Y-81007713D01*
X186942475Y-81007408D01*
X186895682Y-81002317D01*
X186890979Y-81001352D01*
X186860720Y-80994706D01*
X186860720Y-79718879D01*
X186761660Y-79687605D01*
X186657005Y-79655257D01*
X186569848Y-79629858D01*
X186498739Y-79611013D01*
X186442232Y-79598327D01*
X186420465Y-79594405D01*
X186363943Y-79587965D01*
X186297825Y-79584707D01*
X186228228Y-79584533D01*
X186161269Y-79587342D01*
X186103064Y-79593036D01*
X186064626Y-79600176D01*
X185969655Y-79634429D01*
X185885370Y-79684776D01*
X185813671Y-79749697D01*
X185756460Y-79827673D01*
X185738871Y-79860500D01*
X185702818Y-79934600D01*
X185702480Y-70622960D01*
X187592240Y-70622960D01*
G37*
X187592240Y-70622960D02*
X187592240Y-71889864D01*
X187467780Y-71851735D01*
X187417435Y-71836316D01*
X187353371Y-71816703D01*
X187281299Y-71794642D01*
X187206932Y-71771884D01*
X187140120Y-71751441D01*
X187046521Y-71722083D01*
X186969830Y-71696149D01*
X186907194Y-71672312D01*
X186855763Y-71649248D01*
X186812686Y-71625630D01*
X186775112Y-71600133D01*
X186740192Y-71571432D01*
X186726892Y-71559286D01*
X186670394Y-71498336D01*
X186632192Y-71436873D01*
X186610527Y-71371104D01*
X186603640Y-71297239D01*
X186603651Y-71293520D01*
X186606983Y-71238714D01*
X186615508Y-71193263D01*
X186620909Y-71177422D01*
X186629545Y-71151280D01*
X186631250Y-71133222D01*
X186629813Y-71130045D01*
X186617480Y-71124259D01*
X186589779Y-71114195D01*
X186550326Y-71100960D01*
X186502737Y-71085657D01*
X186450625Y-71069393D01*
X186397608Y-71053272D01*
X186347299Y-71038400D01*
X186303315Y-71025882D01*
X186269270Y-71016822D01*
X186248779Y-71012326D01*
X186244508Y-71012265D01*
X186238850Y-71028015D01*
X186235146Y-71058269D01*
X186233538Y-71097292D01*
X186234169Y-71139348D01*
X186237184Y-71178702D01*
X186239888Y-71197000D01*
X186266471Y-71285094D01*
X186312834Y-71368898D01*
X186378858Y-71448218D01*
X186425079Y-71491211D01*
X186452686Y-71515423D01*
X186472596Y-71534036D01*
X186481241Y-71543683D01*
X186481291Y-71544255D01*
X186471148Y-71542469D01*
X186445637Y-71535595D01*
X186408736Y-71524756D01*
X186369270Y-71512602D01*
X186316482Y-71496902D01*
X186280925Y-71488483D01*
X186260983Y-71487029D01*
X186255299Y-71490324D01*
X186254015Y-71503795D01*
X186253145Y-71534286D01*
X186252719Y-71578501D01*
X186252765Y-71633143D01*
X186253312Y-71694916D01*
X186253437Y-71704448D01*
X186256200Y-71906523D01*
X186296840Y-71919158D01*
X186347516Y-71934876D01*
X186413966Y-71955429D01*
X186492537Y-71979692D01*
X186579577Y-72006538D01*
X186671433Y-72034843D01*
X186764453Y-72063480D01*
X186854984Y-72091325D01*
X186939373Y-72117251D01*
X187002960Y-72136759D01*
X187082690Y-72161277D01*
X187168363Y-72187753D01*
X187254031Y-72214342D01*
X187333749Y-72239196D01*
X187401571Y-72260470D01*
X187416980Y-72265331D01*
X187592239Y-72320713D01*
X187591252Y-72454817D01*
X187590763Y-72508769D01*
X187589968Y-72544686D01*
X187588472Y-72564850D01*
X187585877Y-72571545D01*
X187581787Y-72567054D01*
X187575806Y-72553661D01*
X187574593Y-72550714D01*
X187565863Y-72532088D01*
X187554960Y-72518919D01*
X187537375Y-72508387D01*
X187508599Y-72497669D01*
X187471440Y-72486143D01*
X187423022Y-72471341D01*
X187373706Y-72455925D01*
X187332695Y-72442778D01*
X187325860Y-72440529D01*
X187293320Y-72430243D01*
X187268366Y-72423259D01*
X187258171Y-72421280D01*
X187257441Y-72429918D01*
X187263533Y-72453052D01*
X187275234Y-72486512D01*
X187282522Y-72505100D01*
X187313285Y-72593870D01*
X187334880Y-72683691D01*
X187347395Y-72771922D01*
X187350916Y-72855918D01*
X187345531Y-72933035D01*
X187331325Y-73000631D01*
X187308385Y-73056060D01*
X187276799Y-73096679D01*
X187262754Y-73107547D01*
X187213944Y-73128963D01*
X187155336Y-73137916D01*
X187112180Y-73136014D01*
X187063920Y-73129863D01*
X187063920Y-72685491D01*
X187063919Y-72241119D01*
X186960676Y-72208391D01*
X186878935Y-72183707D01*
X186810581Y-72166246D01*
X186750365Y-72155131D01*
X186693041Y-72149481D01*
X186633359Y-72148419D01*
X186606720Y-72149115D01*
X186534661Y-72154528D01*
X186476568Y-72166230D01*
X186426546Y-72186219D01*
X186378700Y-72216490D01*
X186356437Y-72233894D01*
X186313623Y-72280232D01*
X186277138Y-72342138D01*
X186248996Y-72415323D01*
X186231210Y-72495499D01*
X186230232Y-72502560D01*
X186223850Y-72627959D01*
X186237308Y-72753771D01*
X186270220Y-72878458D01*
X186322202Y-73000482D01*
X186379704Y-73098866D01*
X186418021Y-73150441D01*
X186467416Y-73207722D01*
X186522480Y-73265096D01*
X186577809Y-73316950D01*
X186627996Y-73357671D01*
X186631138Y-73359931D01*
X186740026Y-73427807D01*
X186857352Y-73483356D01*
X186978816Y-73525110D01*
X187100119Y-73551603D01*
X187216962Y-73561367D01*
X187221400Y-73561389D01*
X187316784Y-73554548D01*
X187398936Y-73533144D01*
X187469562Y-73496388D01*
X187530372Y-73443490D01*
X187563101Y-73403336D01*
X187592240Y-73363112D01*
X187592240Y-73704996D01*
X187592093Y-73786043D01*
X187591675Y-73860230D01*
X187591023Y-73925211D01*
X187590171Y-73978642D01*
X187589154Y-74018179D01*
X187588008Y-74041475D01*
X187587097Y-74046880D01*
X187577575Y-74041832D01*
X187552397Y-74027386D01*
X187513333Y-74004593D01*
X187462154Y-73974503D01*
X187400633Y-73938167D01*
X187330541Y-73896634D01*
X187253649Y-73850956D01*
X187171728Y-73802182D01*
X187086550Y-73751363D01*
X186999886Y-73699548D01*
X186913508Y-73647789D01*
X186875960Y-73625249D01*
X186758311Y-73554710D01*
X186650907Y-73490562D01*
X186554641Y-73433331D01*
X186470408Y-73383541D01*
X186399103Y-73341717D01*
X186341619Y-73308383D01*
X186298852Y-73284064D01*
X186271695Y-73269286D01*
X186261160Y-73264560D01*
X186257111Y-73274661D01*
X186254403Y-73304815D01*
X186253046Y-73354799D01*
X186253048Y-73424390D01*
X186253440Y-73458252D01*
X186256200Y-73651943D01*
X186383200Y-73718375D01*
X186420721Y-73737842D01*
X186473580Y-73765033D01*
X186538971Y-73798517D01*
X186614091Y-73836865D01*
X186696137Y-73878644D01*
X186782303Y-73922424D01*
X186869786Y-73966775D01*
X186891200Y-73977614D01*
X186971495Y-74018330D01*
X187045152Y-74055837D01*
X187110418Y-74089233D01*
X187165543Y-74117614D01*
X187208776Y-74140076D01*
X187238364Y-74155716D01*
X187252559Y-74163631D01*
X187253085Y-74164337D01*
X187231934Y-74160208D01*
X187191999Y-74155070D01*
X187134784Y-74149043D01*
X187061793Y-74142252D01*
X186974531Y-74134819D01*
X186874502Y-74126867D01*
X186763211Y-74118519D01*
X186642161Y-74109897D01*
X186512858Y-74101124D01*
X186376804Y-74092323D01*
X186350180Y-74090649D01*
X186251119Y-74084451D01*
X186251203Y-74286646D01*
X186251287Y-74488840D01*
X186289303Y-74509760D01*
X186305675Y-74518978D01*
X186337748Y-74537227D01*
X186383607Y-74563409D01*
X186441336Y-74596430D01*
X186509020Y-74635192D01*
X186584744Y-74678599D01*
X186666592Y-74725556D01*
X186748960Y-74772846D01*
X186835398Y-74822400D01*
X186918011Y-74869585D01*
X186994809Y-74913279D01*
X187063807Y-74952359D01*
X187123018Y-74985702D01*
X187170455Y-75012187D01*
X187204132Y-75030691D01*
X187221400Y-75039771D01*
X187244200Y-75051951D01*
X187252748Y-75058894D01*
X187246800Y-75059319D01*
X187223081Y-75054718D01*
X187197729Y-75050475D01*
X187167992Y-75046271D01*
X187131120Y-75041788D01*
X187084362Y-75036706D01*
X187024965Y-75030706D01*
X186950179Y-75023471D01*
X186881040Y-75016919D01*
X186799448Y-75009168D01*
X186715679Y-75001100D01*
X186634571Y-74993190D01*
X186560964Y-74985911D01*
X186499696Y-74979738D01*
X186469560Y-74976624D01*
X186414407Y-74971106D01*
X186363283Y-74966478D01*
X186321192Y-74963159D01*
X186293143Y-74961568D01*
X186289220Y-74961492D01*
X186251120Y-74961280D01*
X186251120Y-75386267D01*
X186324780Y-75391770D01*
X186351367Y-75393263D01*
X186395567Y-75395159D01*
X186454679Y-75397367D01*
X186526003Y-75399795D01*
X186606837Y-75402353D01*
X186694480Y-75404948D01*
X186786232Y-75407491D01*
X186804840Y-75407985D01*
X186903409Y-75410622D01*
X187003846Y-75413378D01*
X187102425Y-75416148D01*
X187195423Y-75418823D01*
X187279116Y-75421298D01*
X187349780Y-75423464D01*
X187401740Y-75425148D01*
X187592240Y-75431600D01*
X187592231Y-75788260D01*
X187592223Y-76144920D01*
X187562304Y-76081677D01*
X187495581Y-75964101D01*
X187412122Y-75856947D01*
X187313275Y-75761369D01*
X187200385Y-75678518D01*
X187074800Y-75609547D01*
X186953718Y-75560864D01*
X186835195Y-75528074D01*
X186724976Y-75512595D01*
X186623729Y-75514146D01*
X186532123Y-75532448D01*
X186450828Y-75567220D01*
X186380514Y-75618181D01*
X186321849Y-75685052D01*
X186275503Y-75767551D01*
X186244017Y-75858158D01*
X186236308Y-75900897D01*
X186230944Y-75958368D01*
X186227974Y-76025112D01*
X186227447Y-76095671D01*
X186229414Y-76164587D01*
X186233923Y-76226400D01*
X186240284Y-76271920D01*
X186271851Y-76391026D01*
X186319873Y-76509921D01*
X186381510Y-76622032D01*
X186409865Y-76664241D01*
X186450097Y-76714503D01*
X186501323Y-76769467D01*
X186557943Y-76823762D01*
X186614354Y-76872019D01*
X186664955Y-76908866D01*
X186665128Y-76908976D01*
X186752723Y-76958279D01*
X186851276Y-77002339D01*
X186954372Y-77038875D01*
X187055599Y-77065601D01*
X187145200Y-77079922D01*
X187236815Y-77080290D01*
X187325195Y-77064602D01*
X187407101Y-77034219D01*
X187479294Y-76990504D01*
X187538536Y-76934821D01*
X187560935Y-76904978D01*
X187592240Y-76857717D01*
X187592240Y-77524939D01*
X187592160Y-77639324D01*
X187591929Y-77747515D01*
X187591561Y-77847833D01*
X187591069Y-77938601D01*
X187590467Y-78018139D01*
X187589768Y-78084769D01*
X187588987Y-78136812D01*
X187588136Y-78172590D01*
X187587229Y-78190424D01*
X187586839Y-78192160D01*
X187575040Y-78189220D01*
X187549900Y-78181587D01*
X187523339Y-78173030D01*
X187494057Y-78163594D01*
X187449979Y-78149650D01*
X187395737Y-78132651D01*
X187335959Y-78114049D01*
X187292520Y-78100612D01*
X187230311Y-78081372D01*
X187169077Y-78062352D01*
X187113844Y-78045117D01*
X187069637Y-78031235D01*
X187048680Y-78024587D01*
X186977560Y-78001850D01*
X186971266Y-77835385D01*
X186968128Y-77760097D01*
X186964747Y-77700598D01*
X186960562Y-77652362D01*
X186955016Y-77610860D01*
X186947549Y-77571565D01*
X186937602Y-77529949D01*
X186930021Y-77501280D01*
X186883342Y-77363440D01*
X186821663Y-77238980D01*
X186745371Y-77128321D01*
X186654857Y-77031883D01*
X186550510Y-76950084D01*
X186432719Y-76883343D01*
X186312080Y-76835363D01*
X186268003Y-76822050D01*
X186229080Y-76813521D01*
X186187951Y-76808720D01*
X186137258Y-76806593D01*
X186108880Y-76806223D01*
X186056943Y-76806198D01*
X186019867Y-76807640D01*
X185992202Y-76811402D01*
X185968497Y-76818339D01*
X185943301Y-76829306D01*
X185934528Y-76833563D01*
X185867739Y-76877428D01*
X185812558Y-76937776D01*
X185768897Y-77014733D01*
X185736667Y-77108422D01*
X185735601Y-77112570D01*
X185731271Y-77131827D01*
X185727704Y-77153658D01*
X185724828Y-77180136D01*
X185722569Y-77213330D01*
X185720856Y-77255312D01*
X185719616Y-77308152D01*
X185718776Y-77373923D01*
X185718263Y-77454694D01*
X185718006Y-77552537D01*
X185717946Y-77616525D01*
X185717720Y-78051809D01*
X185890440Y-78105676D01*
X185951293Y-78124615D01*
X186026107Y-78147840D01*
X186109423Y-78173657D01*
X186195779Y-78200376D01*
X186279716Y-78226305D01*
X186317160Y-78237856D01*
X186396731Y-78262398D01*
X186480119Y-78288133D01*
X186562181Y-78313472D01*
X186637773Y-78336827D01*
X186701753Y-78356611D01*
X186728640Y-78364932D01*
X186784582Y-78382238D01*
X186854802Y-78403936D01*
X186934156Y-78428439D01*
X187017502Y-78454158D01*
X187099694Y-78479505D01*
X187140120Y-78491965D01*
X187215024Y-78515056D01*
X187289449Y-78538016D01*
X187359345Y-78559596D01*
X187420666Y-78578545D01*
X187469364Y-78593613D01*
X187493180Y-78600997D01*
X187592240Y-78631759D01*
X187592084Y-79384780D01*
X187591953Y-79506084D01*
X187591624Y-79621003D01*
X187591114Y-79727993D01*
X187590439Y-79825510D01*
X187589617Y-79912008D01*
X187588666Y-79985942D01*
X187587601Y-80045769D01*
X187586441Y-80089943D01*
X187585202Y-80116920D01*
X187583902Y-80125155D01*
X187583873Y-80125115D01*
X187572414Y-80118654D01*
X187545145Y-80107657D01*
X187505424Y-80093203D01*
X187456607Y-80076366D01*
X187402051Y-80058224D01*
X187345112Y-80039853D01*
X187289149Y-80022329D01*
X187237518Y-80006728D01*
X187193576Y-79994128D01*
X187160679Y-79985604D01*
X187142185Y-79982234D01*
X187139507Y-79982626D01*
X187140468Y-79994127D01*
X187149129Y-80017548D01*
X187158605Y-80037730D01*
X187201471Y-80136392D01*
X187235710Y-80243896D01*
X187260911Y-80356430D01*
X187276663Y-80470180D01*
X187282555Y-80581332D01*
X187278176Y-80686073D01*
X187263117Y-80780589D01*
X187245116Y-80841007D01*
X187215766Y-80897625D01*
X187175031Y-80945845D01*
X187127305Y-80981171D01*
X187094538Y-80995113D01*
X187051282Y-81003518D01*
X187041060Y-81004314D01*
X187041060Y-79441512D01*
X187041638Y-79431806D01*
X187042166Y-79404036D01*
X187042628Y-79360459D01*
X187043010Y-79303332D01*
X187043295Y-79234911D01*
X187043470Y-79157452D01*
X187043518Y-79073540D01*
X187043436Y-78705240D01*
X186913978Y-78666367D01*
X186864338Y-78651486D01*
X186820643Y-78638434D01*
X186787150Y-78628479D01*
X186768121Y-78622891D01*
X186766612Y-78622461D01*
X186761933Y-78622111D01*
X186758173Y-78625234D01*
X186755251Y-78633743D01*
X186753086Y-78649546D01*
X186751600Y-78674556D01*
X186750710Y-78710683D01*
X186750338Y-78759836D01*
X186750401Y-78823928D01*
X186750821Y-78904867D01*
X186751372Y-78984786D01*
X186754040Y-79352142D01*
X186896280Y-79396663D01*
X186946550Y-79412368D01*
X186989373Y-79425688D01*
X187021280Y-79435551D01*
X187038800Y-79440880D01*
X187041060Y-79441512D01*
X187041060Y-81004314D01*
X186997468Y-81007713D01*
X186942475Y-81007408D01*
X186895682Y-81002317D01*
X186890979Y-81001352D01*
X186860720Y-80994706D01*
X186860720Y-79718879D01*
X186761660Y-79687605D01*
X186657005Y-79655257D01*
X186569848Y-79629858D01*
X186498739Y-79611013D01*
X186442232Y-79598327D01*
X186420465Y-79594405D01*
X186363943Y-79587965D01*
X186297825Y-79584707D01*
X186228228Y-79584533D01*
X186161269Y-79587342D01*
X186103064Y-79593036D01*
X186064626Y-79600176D01*
X185969655Y-79634429D01*
X185885370Y-79684776D01*
X185813671Y-79749697D01*
X185756460Y-79827673D01*
X185738871Y-79860500D01*
X185702818Y-79934600D01*
X185702480Y-70622960D01*
X187592240Y-70622960D01*
G36*
X187366563Y-81576259D02*
G01*
X187383743Y-81564298D01*
X187409074Y-81550310D01*
X187443225Y-81529137D01*
X187483285Y-81498710D01*
X187521614Y-81464924D01*
X187528454Y-81458228D01*
X187592240Y-81394442D01*
X187592240Y-81644240D01*
X187483306Y-81615016D01*
X187438375Y-81602894D01*
X187400444Y-81592534D01*
X187373980Y-81585164D01*
X187363926Y-81582199D01*
X187366563Y-81576259D01*
G37*
X187366563Y-81576259D02*
X187383743Y-81564298D01*
X187409074Y-81550310D01*
X187443225Y-81529137D01*
X187483285Y-81498710D01*
X187521614Y-81464924D01*
X187528454Y-81458228D01*
X187592240Y-81394442D01*
X187592240Y-81644240D01*
X187483306Y-81615016D01*
X187438375Y-81602894D01*
X187400444Y-81592534D01*
X187373980Y-81585164D01*
X187363926Y-81582199D01*
X187366563Y-81576259D01*
G36*
X187777501Y-74818104D02*
G01*
X187790943Y-74767192D01*
X187816466Y-74726285D01*
X187836080Y-74709229D01*
X187878719Y-74691753D01*
X187927020Y-74690691D01*
X187977617Y-74704251D01*
X188027143Y-74730643D01*
X188072233Y-74768076D01*
X188109520Y-74814759D01*
X188135516Y-74868541D01*
X188146539Y-74917399D01*
X188150064Y-74971725D01*
X188146073Y-75023141D01*
X188135976Y-75060140D01*
X188110813Y-75094965D01*
X188072917Y-75120859D01*
X188029379Y-75133354D01*
X188018960Y-75133863D01*
X187973203Y-75125883D01*
X187923197Y-75104475D01*
X187875805Y-75073227D01*
X187842906Y-75041847D01*
X187808843Y-74990892D01*
X187786533Y-74933952D01*
X187776058Y-74875023D01*
X187777501Y-74818104D01*
G37*
X187777501Y-74818104D02*
X187790943Y-74767192D01*
X187816466Y-74726285D01*
X187836080Y-74709229D01*
X187878719Y-74691753D01*
X187927020Y-74690691D01*
X187977617Y-74704251D01*
X188027143Y-74730643D01*
X188072233Y-74768076D01*
X188109520Y-74814759D01*
X188135516Y-74868541D01*
X188146539Y-74917399D01*
X188150064Y-74971725D01*
X188146073Y-75023141D01*
X188135976Y-75060140D01*
X188110813Y-75094965D01*
X188072917Y-75120859D01*
X188029379Y-75133354D01*
X188018960Y-75133863D01*
X187973203Y-75125883D01*
X187923197Y-75104475D01*
X187875805Y-75073227D01*
X187842906Y-75041847D01*
X187808843Y-74990892D01*
X187786533Y-74933952D01*
X187776058Y-74875023D01*
X187777501Y-74818104D01*
G36*
X188331972Y-73816175D02*
G01*
X188341869Y-73758482D01*
X188360087Y-73712358D01*
X188387924Y-73673841D01*
X188405057Y-73656913D01*
X188447253Y-73627301D01*
X188497704Y-73608205D01*
X188557976Y-73599647D01*
X188629633Y-73601644D01*
X188714241Y-73614217D01*
X188813365Y-73637386D01*
X188902880Y-73663167D01*
X188966348Y-73682651D01*
X189043461Y-73706329D01*
X189128439Y-73732426D01*
X189215503Y-73759167D01*
X189298874Y-73784778D01*
X189326971Y-73793410D01*
X189573262Y-73869080D01*
X189573440Y-74238502D01*
X189545500Y-74230129D01*
X189526261Y-74224267D01*
X189491744Y-74213660D01*
X189446077Y-74199577D01*
X189393389Y-74183293D01*
X189365160Y-74174555D01*
X189300778Y-74154626D01*
X189231965Y-74133342D01*
X189166142Y-74112999D01*
X189110731Y-74095890D01*
X189101000Y-74092889D01*
X189044987Y-74075607D01*
X188985406Y-74057211D01*
X188931109Y-74040436D01*
X188904895Y-74032331D01*
X188823636Y-74012286D01*
X188754170Y-74005778D01*
X188697395Y-74012650D01*
X188654209Y-74032742D01*
X188625511Y-74065895D01*
X188618176Y-74083116D01*
X188610378Y-74130576D01*
X188613159Y-74185773D01*
X188625606Y-74239690D01*
X188636798Y-74266634D01*
X188661109Y-74302727D01*
X188697349Y-74343093D01*
X188739638Y-74382219D01*
X188782096Y-74414595D01*
X188813972Y-74432709D01*
X188833618Y-74440082D01*
X188870161Y-74452578D01*
X188921063Y-74469375D01*
X188983789Y-74489653D01*
X189055803Y-74512592D01*
X189134570Y-74537370D01*
X189207680Y-74560115D01*
X189288401Y-74585158D01*
X189362984Y-74608418D01*
X189429200Y-74629190D01*
X189484824Y-74646771D01*
X189527629Y-74660457D01*
X189555387Y-74669545D01*
X189565820Y-74673294D01*
X189568266Y-74684483D01*
X189570387Y-74712665D01*
X189572046Y-74754515D01*
X189573107Y-74806707D01*
X189573440Y-74859961D01*
X189573127Y-74927611D01*
X189572087Y-74977077D01*
X189570169Y-75010483D01*
X189567220Y-75029959D01*
X189563088Y-75037629D01*
X189560740Y-75037776D01*
X189547928Y-75033789D01*
X189518400Y-75024700D01*
X189474871Y-75011342D01*
X189420059Y-74994548D01*
X189356681Y-74975151D01*
X189294040Y-74955997D01*
X189219677Y-74933232D01*
X189146327Y-74910707D01*
X189077910Y-74889634D01*
X189018351Y-74871222D01*
X188971571Y-74856680D01*
X188948600Y-74849473D01*
X188900116Y-74834269D01*
X188840643Y-74815789D01*
X188778638Y-74796654D01*
X188735240Y-74783351D01*
X188673921Y-74764549D01*
X188603013Y-74742688D01*
X188532316Y-74720793D01*
X188483780Y-74705689D01*
X188354240Y-74665257D01*
X188354240Y-74483069D01*
X188354642Y-74424766D01*
X188355760Y-74374190D01*
X188357459Y-74334554D01*
X188359605Y-74309069D01*
X188361860Y-74300882D01*
X188374477Y-74303715D01*
X188401411Y-74311258D01*
X188437609Y-74322076D01*
X188450760Y-74326129D01*
X188489132Y-74337750D01*
X188520134Y-74346586D01*
X188538606Y-74351187D01*
X188541050Y-74351528D01*
X188539297Y-74344950D01*
X188526162Y-74327516D01*
X188504447Y-74302920D01*
X188503143Y-74301522D01*
X188432246Y-74215226D01*
X188380614Y-74127636D01*
X188347223Y-74036330D01*
X188331051Y-73938884D01*
X188329104Y-73889400D01*
X188331972Y-73816175D01*
G37*
X188331972Y-73816175D02*
X188341869Y-73758482D01*
X188360087Y-73712358D01*
X188387924Y-73673841D01*
X188405057Y-73656913D01*
X188447253Y-73627301D01*
X188497704Y-73608205D01*
X188557976Y-73599647D01*
X188629633Y-73601644D01*
X188714241Y-73614217D01*
X188813365Y-73637386D01*
X188902880Y-73663167D01*
X188966348Y-73682651D01*
X189043461Y-73706329D01*
X189128439Y-73732426D01*
X189215503Y-73759167D01*
X189298874Y-73784778D01*
X189326971Y-73793410D01*
X189573262Y-73869080D01*
X189573440Y-74238502D01*
X189545500Y-74230129D01*
X189526261Y-74224267D01*
X189491744Y-74213660D01*
X189446077Y-74199577D01*
X189393389Y-74183293D01*
X189365160Y-74174555D01*
X189300778Y-74154626D01*
X189231965Y-74133342D01*
X189166142Y-74112999D01*
X189110731Y-74095890D01*
X189101000Y-74092889D01*
X189044987Y-74075607D01*
X188985406Y-74057211D01*
X188931109Y-74040436D01*
X188904895Y-74032331D01*
X188823636Y-74012286D01*
X188754170Y-74005778D01*
X188697395Y-74012650D01*
X188654209Y-74032742D01*
X188625511Y-74065895D01*
X188618176Y-74083116D01*
X188610378Y-74130576D01*
X188613159Y-74185773D01*
X188625606Y-74239690D01*
X188636798Y-74266634D01*
X188661109Y-74302727D01*
X188697349Y-74343093D01*
X188739638Y-74382219D01*
X188782096Y-74414595D01*
X188813972Y-74432709D01*
X188833618Y-74440082D01*
X188870161Y-74452578D01*
X188921063Y-74469375D01*
X188983789Y-74489653D01*
X189055803Y-74512592D01*
X189134570Y-74537370D01*
X189207680Y-74560115D01*
X189288401Y-74585158D01*
X189362984Y-74608418D01*
X189429200Y-74629190D01*
X189484824Y-74646771D01*
X189527629Y-74660457D01*
X189555387Y-74669545D01*
X189565820Y-74673294D01*
X189568266Y-74684483D01*
X189570387Y-74712665D01*
X189572046Y-74754515D01*
X189573107Y-74806707D01*
X189573440Y-74859961D01*
X189573127Y-74927611D01*
X189572087Y-74977077D01*
X189570169Y-75010483D01*
X189567220Y-75029959D01*
X189563088Y-75037629D01*
X189560740Y-75037776D01*
X189547928Y-75033789D01*
X189518400Y-75024700D01*
X189474871Y-75011342D01*
X189420059Y-74994548D01*
X189356681Y-74975151D01*
X189294040Y-74955997D01*
X189219677Y-74933232D01*
X189146327Y-74910707D01*
X189077910Y-74889634D01*
X189018351Y-74871222D01*
X188971571Y-74856680D01*
X188948600Y-74849473D01*
X188900116Y-74834269D01*
X188840643Y-74815789D01*
X188778638Y-74796654D01*
X188735240Y-74783351D01*
X188673921Y-74764549D01*
X188603013Y-74742688D01*
X188532316Y-74720793D01*
X188483780Y-74705689D01*
X188354240Y-74665257D01*
X188354240Y-74483069D01*
X188354642Y-74424766D01*
X188355760Y-74374190D01*
X188357459Y-74334554D01*
X188359605Y-74309069D01*
X188361860Y-74300882D01*
X188374477Y-74303715D01*
X188401411Y-74311258D01*
X188437609Y-74322076D01*
X188450760Y-74326129D01*
X188489132Y-74337750D01*
X188520134Y-74346586D01*
X188538606Y-74351187D01*
X188541050Y-74351528D01*
X188539297Y-74344950D01*
X188526162Y-74327516D01*
X188504447Y-74302920D01*
X188503143Y-74301522D01*
X188432246Y-74215226D01*
X188380614Y-74127636D01*
X188347223Y-74036330D01*
X188331051Y-73938884D01*
X188329104Y-73889400D01*
X188331972Y-73816175D01*
G36*
X188432980Y-74874977D02*
G01*
X188466325Y-74884847D01*
X188505673Y-74896681D01*
X188552888Y-74911052D01*
X188609835Y-74928537D01*
X188678380Y-74949708D01*
X188760388Y-74975142D01*
X188857724Y-75005413D01*
X188972253Y-75041096D01*
X188994320Y-75047976D01*
X189061746Y-75068948D01*
X189126497Y-75088990D01*
X189184721Y-75106917D01*
X189232570Y-75121544D01*
X189266191Y-75131688D01*
X189273720Y-75133912D01*
X189308484Y-75144290D01*
X189355936Y-75158745D01*
X189409391Y-75175229D01*
X189454060Y-75189151D01*
X189573440Y-75226570D01*
X189573440Y-75408885D01*
X189572992Y-75467210D01*
X189571748Y-75517808D01*
X189569858Y-75557469D01*
X189567470Y-75582983D01*
X189564957Y-75591200D01*
X189552451Y-75588327D01*
X189524697Y-75580505D01*
X189485816Y-75568934D01*
X189440497Y-75554990D01*
X189379397Y-75535958D01*
X189310580Y-75514592D01*
X189244627Y-75494175D01*
X189212760Y-75484339D01*
X189165879Y-75469873D01*
X189105245Y-75451133D01*
X189036513Y-75429869D01*
X188965336Y-75407830D01*
X188907960Y-75390049D01*
X188831555Y-75366418D01*
X188745716Y-75339962D01*
X188658420Y-75313134D01*
X188577646Y-75288389D01*
X188534708Y-75275280D01*
X188354496Y-75220360D01*
X188354240Y-74851886D01*
X188432980Y-74874977D01*
G37*
X188432980Y-74874977D02*
X188466325Y-74884847D01*
X188505673Y-74896681D01*
X188552888Y-74911052D01*
X188609835Y-74928537D01*
X188678380Y-74949708D01*
X188760388Y-74975142D01*
X188857724Y-75005413D01*
X188972253Y-75041096D01*
X188994320Y-75047976D01*
X189061746Y-75068948D01*
X189126497Y-75088990D01*
X189184721Y-75106917D01*
X189232570Y-75121544D01*
X189266191Y-75131688D01*
X189273720Y-75133912D01*
X189308484Y-75144290D01*
X189355936Y-75158745D01*
X189409391Y-75175229D01*
X189454060Y-75189151D01*
X189573440Y-75226570D01*
X189573440Y-75408885D01*
X189572992Y-75467210D01*
X189571748Y-75517808D01*
X189569858Y-75557469D01*
X189567470Y-75582983D01*
X189564957Y-75591200D01*
X189552451Y-75588327D01*
X189524697Y-75580505D01*
X189485816Y-75568934D01*
X189440497Y-75554990D01*
X189379397Y-75535958D01*
X189310580Y-75514592D01*
X189244627Y-75494175D01*
X189212760Y-75484339D01*
X189165879Y-75469873D01*
X189105245Y-75451133D01*
X189036513Y-75429869D01*
X188965336Y-75407830D01*
X188907960Y-75390049D01*
X188831555Y-75366418D01*
X188745716Y-75339962D01*
X188658420Y-75313134D01*
X188577646Y-75288389D01*
X188534708Y-75275280D01*
X188354496Y-75220360D01*
X188354240Y-74851886D01*
X188432980Y-74874977D01*
G36*
X187871713Y-78297605D02*
G01*
X187871862Y-78188670D01*
X187872418Y-78097813D01*
X187873604Y-78022793D01*
X187875645Y-77961368D01*
X187878767Y-77911297D01*
X187883194Y-77870339D01*
X187889152Y-77836252D01*
X187896864Y-77806796D01*
X187906556Y-77779729D01*
X187918453Y-77752810D01*
X187928423Y-77732435D01*
X187969486Y-77669718D01*
X188021230Y-77624192D01*
X188083744Y-77595821D01*
X188157118Y-77584573D01*
X188241439Y-77590411D01*
X188276827Y-77597204D01*
X188383452Y-77631096D01*
X188482053Y-77682862D01*
X188571262Y-77751180D01*
X188649711Y-77834724D01*
X188716034Y-77932172D01*
X188768862Y-78042200D01*
X188786200Y-78090324D01*
X188796889Y-78120709D01*
X188804374Y-78134250D01*
X188810850Y-78133693D01*
X188815561Y-78127063D01*
X188857823Y-78072092D01*
X188915064Y-78027292D01*
X188927547Y-78019859D01*
X188946542Y-78011100D01*
X188981127Y-77997213D01*
X189028416Y-77979212D01*
X189085523Y-77958110D01*
X189149563Y-77934921D01*
X189217649Y-77910659D01*
X189286894Y-77886338D01*
X189354413Y-77862970D01*
X189417320Y-77841570D01*
X189472729Y-77823151D01*
X189517753Y-77808728D01*
X189549506Y-77799313D01*
X189565103Y-77795921D01*
X189565143Y-77795920D01*
X189567585Y-77805590D01*
X189569743Y-77832638D01*
X189571504Y-77874124D01*
X189572756Y-77927106D01*
X189573386Y-77988644D01*
X189573440Y-78013259D01*
X189573440Y-78230598D01*
X189545500Y-78237208D01*
X189519371Y-78244040D01*
X189477897Y-78255642D01*
X189425152Y-78270808D01*
X189365213Y-78288335D01*
X189302154Y-78307017D01*
X189240053Y-78325650D01*
X189182984Y-78343029D01*
X189135023Y-78357949D01*
X189111160Y-78365596D01*
X189041641Y-78390497D01*
X188989892Y-78415149D01*
X188953542Y-78441996D01*
X188930219Y-78473480D01*
X188917552Y-78512046D01*
X188913169Y-78560138D01*
X188913077Y-78569718D01*
X188913040Y-78637396D01*
X189001940Y-78664650D01*
X189039254Y-78676104D01*
X189081606Y-78689134D01*
X189131375Y-78704475D01*
X189190942Y-78722861D01*
X189262686Y-78745028D01*
X189348988Y-78771709D01*
X189452227Y-78803640D01*
X189456600Y-78804993D01*
X189568360Y-78839564D01*
X189571126Y-79029699D01*
X189573893Y-79219834D01*
X189550806Y-79212825D01*
X189531080Y-79206761D01*
X189497731Y-79196436D01*
X189456536Y-79183638D01*
X189436280Y-79177332D01*
X189387797Y-79162303D01*
X189328326Y-79143976D01*
X189266321Y-79124952D01*
X189222920Y-79111694D01*
X189164605Y-79093835D01*
X189102432Y-79074649D01*
X189044858Y-79056755D01*
X189009560Y-79045684D01*
X188960127Y-79030176D01*
X188900168Y-79011499D01*
X188838589Y-78992422D01*
X188801280Y-78980926D01*
X188746878Y-78964190D01*
X188680731Y-78943815D01*
X188618371Y-78924587D01*
X188618371Y-78545089D01*
X188623915Y-78542311D01*
X188627183Y-78531910D01*
X188628573Y-78510838D01*
X188628483Y-78476051D01*
X188627311Y-78424503D01*
X188627041Y-78414149D01*
X188625255Y-78357733D01*
X188622797Y-78316757D01*
X188618837Y-78286340D01*
X188612545Y-78261603D01*
X188603089Y-78237666D01*
X188593613Y-78217690D01*
X188548654Y-78146018D01*
X188491808Y-78087587D01*
X188425757Y-78044334D01*
X188353180Y-78018196D01*
X188308520Y-78011597D01*
X188271388Y-78010318D01*
X188246634Y-78013991D01*
X188226594Y-78024209D01*
X188218343Y-78030359D01*
X188193054Y-78054449D01*
X188174707Y-78083143D01*
X188162340Y-78119887D01*
X188154990Y-78168129D01*
X188151693Y-78231314D01*
X188151263Y-78270509D01*
X188151040Y-78404737D01*
X188189140Y-78415019D01*
X188208190Y-78420514D01*
X188242856Y-78430841D01*
X188289337Y-78444843D01*
X188343832Y-78461362D01*
X188402540Y-78479240D01*
X188461659Y-78497318D01*
X188517389Y-78514439D01*
X188565928Y-78529444D01*
X188603477Y-78541176D01*
X188610151Y-78543287D01*
X188618371Y-78545089D01*
X188618371Y-78924587D01*
X188610506Y-78922161D01*
X188543869Y-78901594D01*
X188532040Y-78897940D01*
X188468297Y-78878285D01*
X188392594Y-78855001D01*
X188312407Y-78830384D01*
X188235212Y-78806730D01*
X188196760Y-78794969D01*
X188133134Y-78775442D01*
X188070735Y-78756144D01*
X188014335Y-78738560D01*
X187968708Y-78724179D01*
X187942760Y-78715845D01*
X187871640Y-78692609D01*
X187871713Y-78297605D01*
G37*
X187871713Y-78297605D02*
X187871862Y-78188670D01*
X187872418Y-78097813D01*
X187873604Y-78022793D01*
X187875645Y-77961368D01*
X187878767Y-77911297D01*
X187883194Y-77870339D01*
X187889152Y-77836252D01*
X187896864Y-77806796D01*
X187906556Y-77779729D01*
X187918453Y-77752810D01*
X187928423Y-77732435D01*
X187969486Y-77669718D01*
X188021230Y-77624192D01*
X188083744Y-77595821D01*
X188157118Y-77584573D01*
X188241439Y-77590411D01*
X188276827Y-77597204D01*
X188383452Y-77631096D01*
X188482053Y-77682862D01*
X188571262Y-77751180D01*
X188649711Y-77834724D01*
X188716034Y-77932172D01*
X188768862Y-78042200D01*
X188786200Y-78090324D01*
X188796889Y-78120709D01*
X188804374Y-78134250D01*
X188810850Y-78133693D01*
X188815561Y-78127063D01*
X188857823Y-78072092D01*
X188915064Y-78027292D01*
X188927547Y-78019859D01*
X188946542Y-78011100D01*
X188981127Y-77997213D01*
X189028416Y-77979212D01*
X189085523Y-77958110D01*
X189149563Y-77934921D01*
X189217649Y-77910659D01*
X189286894Y-77886338D01*
X189354413Y-77862970D01*
X189417320Y-77841570D01*
X189472729Y-77823151D01*
X189517753Y-77808728D01*
X189549506Y-77799313D01*
X189565103Y-77795921D01*
X189565143Y-77795920D01*
X189567585Y-77805590D01*
X189569743Y-77832638D01*
X189571504Y-77874124D01*
X189572756Y-77927106D01*
X189573386Y-77988644D01*
X189573440Y-78013259D01*
X189573440Y-78230598D01*
X189545500Y-78237208D01*
X189519371Y-78244040D01*
X189477897Y-78255642D01*
X189425152Y-78270808D01*
X189365213Y-78288335D01*
X189302154Y-78307017D01*
X189240053Y-78325650D01*
X189182984Y-78343029D01*
X189135023Y-78357949D01*
X189111160Y-78365596D01*
X189041641Y-78390497D01*
X188989892Y-78415149D01*
X188953542Y-78441996D01*
X188930219Y-78473480D01*
X188917552Y-78512046D01*
X188913169Y-78560138D01*
X188913077Y-78569718D01*
X188913040Y-78637396D01*
X189001940Y-78664650D01*
X189039254Y-78676104D01*
X189081606Y-78689134D01*
X189131375Y-78704475D01*
X189190942Y-78722861D01*
X189262686Y-78745028D01*
X189348988Y-78771709D01*
X189452227Y-78803640D01*
X189456600Y-78804993D01*
X189568360Y-78839564D01*
X189571126Y-79029699D01*
X189573893Y-79219834D01*
X189550806Y-79212825D01*
X189531080Y-79206761D01*
X189497731Y-79196436D01*
X189456536Y-79183638D01*
X189436280Y-79177332D01*
X189387797Y-79162303D01*
X189328326Y-79143976D01*
X189266321Y-79124952D01*
X189222920Y-79111694D01*
X189164605Y-79093835D01*
X189102432Y-79074649D01*
X189044858Y-79056755D01*
X189009560Y-79045684D01*
X188960127Y-79030176D01*
X188900168Y-79011499D01*
X188838589Y-78992422D01*
X188801280Y-78980926D01*
X188746878Y-78964190D01*
X188680731Y-78943815D01*
X188618371Y-78924587D01*
X188618371Y-78545089D01*
X188623915Y-78542311D01*
X188627183Y-78531910D01*
X188628573Y-78510838D01*
X188628483Y-78476051D01*
X188627311Y-78424503D01*
X188627041Y-78414149D01*
X188625255Y-78357733D01*
X188622797Y-78316757D01*
X188618837Y-78286340D01*
X188612545Y-78261603D01*
X188603089Y-78237666D01*
X188593613Y-78217690D01*
X188548654Y-78146018D01*
X188491808Y-78087587D01*
X188425757Y-78044334D01*
X188353180Y-78018196D01*
X188308520Y-78011597D01*
X188271388Y-78010318D01*
X188246634Y-78013991D01*
X188226594Y-78024209D01*
X188218343Y-78030359D01*
X188193054Y-78054449D01*
X188174707Y-78083143D01*
X188162340Y-78119887D01*
X188154990Y-78168129D01*
X188151693Y-78231314D01*
X188151263Y-78270509D01*
X188151040Y-78404737D01*
X188189140Y-78415019D01*
X188208190Y-78420514D01*
X188242856Y-78430841D01*
X188289337Y-78444843D01*
X188343832Y-78461362D01*
X188402540Y-78479240D01*
X188461659Y-78497318D01*
X188517389Y-78514439D01*
X188565928Y-78529444D01*
X188603477Y-78541176D01*
X188610151Y-78543287D01*
X188618371Y-78545089D01*
X188618371Y-78924587D01*
X188610506Y-78922161D01*
X188543869Y-78901594D01*
X188532040Y-78897940D01*
X188468297Y-78878285D01*
X188392594Y-78855001D01*
X188312407Y-78830384D01*
X188235212Y-78806730D01*
X188196760Y-78794969D01*
X188133134Y-78775442D01*
X188070735Y-78756144D01*
X188014335Y-78738560D01*
X187968708Y-78724179D01*
X187942760Y-78715845D01*
X187871640Y-78692609D01*
X187871713Y-78297605D01*
G36*
X188329398Y-75530110D02*
G01*
X188339708Y-75451572D01*
X188357079Y-75386653D01*
X188359570Y-75380177D01*
X188375462Y-75340460D01*
X188516540Y-75383190D01*
X188568069Y-75398883D01*
X188613458Y-75412865D01*
X188648751Y-75423907D01*
X188669996Y-75430778D01*
X188673497Y-75432014D01*
X188681769Y-75438218D01*
X188679665Y-75450037D01*
X188666117Y-75472369D01*
X188663999Y-75475504D01*
X188630560Y-75542145D01*
X188612443Y-75618587D01*
X188609704Y-75701220D01*
X188622402Y-75786433D01*
X188650592Y-75870616D01*
X188657535Y-75885840D01*
X188696433Y-75949908D01*
X188747438Y-76007431D01*
X188807723Y-76057304D01*
X188874464Y-76098423D01*
X188944836Y-76129686D01*
X189016015Y-76149987D01*
X189085174Y-76158223D01*
X189149490Y-76153291D01*
X189206136Y-76134086D01*
X189238290Y-76112772D01*
X189271521Y-76079204D01*
X189294026Y-76041383D01*
X189307382Y-75994886D01*
X189313165Y-75935285D01*
X189313714Y-75901080D01*
X189312883Y-75850587D01*
X189309587Y-75812078D01*
X189302276Y-75777239D01*
X189289400Y-75737754D01*
X189277251Y-75705500D01*
X189262490Y-75665970D01*
X189251730Y-75634640D01*
X189246290Y-75615514D01*
X189246271Y-75611520D01*
X189257385Y-75614289D01*
X189284329Y-75621897D01*
X189323486Y-75633299D01*
X189371236Y-75647449D01*
X189390691Y-75653271D01*
X189529826Y-75695021D01*
X189551351Y-75757411D01*
X189575156Y-75846264D01*
X189590533Y-75947238D01*
X189596823Y-76053674D01*
X189593364Y-76158917D01*
X189592308Y-76170679D01*
X189574447Y-76268777D01*
X189541625Y-76353569D01*
X189494833Y-76424333D01*
X189435064Y-76480347D01*
X189363310Y-76520889D01*
X189280562Y-76545239D01*
X189187814Y-76552673D01*
X189086057Y-76542471D01*
X189082159Y-76541751D01*
X188950319Y-76507214D01*
X188827168Y-76455421D01*
X188714161Y-76387695D01*
X188612749Y-76305359D01*
X188524386Y-76209735D01*
X188450524Y-76102148D01*
X188392616Y-75983919D01*
X188358895Y-75883090D01*
X188340897Y-75798757D01*
X188329986Y-75708570D01*
X188326155Y-75617399D01*
X188329398Y-75530110D01*
G37*
X188329398Y-75530110D02*
X188339708Y-75451572D01*
X188357079Y-75386653D01*
X188359570Y-75380177D01*
X188375462Y-75340460D01*
X188516540Y-75383190D01*
X188568069Y-75398883D01*
X188613458Y-75412865D01*
X188648751Y-75423907D01*
X188669996Y-75430778D01*
X188673497Y-75432014D01*
X188681769Y-75438218D01*
X188679665Y-75450037D01*
X188666117Y-75472369D01*
X188663999Y-75475504D01*
X188630560Y-75542145D01*
X188612443Y-75618587D01*
X188609704Y-75701220D01*
X188622402Y-75786433D01*
X188650592Y-75870616D01*
X188657535Y-75885840D01*
X188696433Y-75949908D01*
X188747438Y-76007431D01*
X188807723Y-76057304D01*
X188874464Y-76098423D01*
X188944836Y-76129686D01*
X189016015Y-76149987D01*
X189085174Y-76158223D01*
X189149490Y-76153291D01*
X189206136Y-76134086D01*
X189238290Y-76112772D01*
X189271521Y-76079204D01*
X189294026Y-76041383D01*
X189307382Y-75994886D01*
X189313165Y-75935285D01*
X189313714Y-75901080D01*
X189312883Y-75850587D01*
X189309587Y-75812078D01*
X189302276Y-75777239D01*
X189289400Y-75737754D01*
X189277251Y-75705500D01*
X189262490Y-75665970D01*
X189251730Y-75634640D01*
X189246290Y-75615514D01*
X189246271Y-75611520D01*
X189257385Y-75614289D01*
X189284329Y-75621897D01*
X189323486Y-75633299D01*
X189371236Y-75647449D01*
X189390691Y-75653271D01*
X189529826Y-75695021D01*
X189551351Y-75757411D01*
X189575156Y-75846264D01*
X189590533Y-75947238D01*
X189596823Y-76053674D01*
X189593364Y-76158917D01*
X189592308Y-76170679D01*
X189574447Y-76268777D01*
X189541625Y-76353569D01*
X189494833Y-76424333D01*
X189435064Y-76480347D01*
X189363310Y-76520889D01*
X189280562Y-76545239D01*
X189187814Y-76552673D01*
X189086057Y-76542471D01*
X189082159Y-76541751D01*
X188950319Y-76507214D01*
X188827168Y-76455421D01*
X188714161Y-76387695D01*
X188612749Y-76305359D01*
X188524386Y-76209735D01*
X188450524Y-76102148D01*
X188392616Y-75983919D01*
X188358895Y-75883090D01*
X188340897Y-75798757D01*
X188329986Y-75708570D01*
X188326155Y-75617399D01*
X188329398Y-75530110D01*
G36*
X188329807Y-76872904D02*
G01*
X188331401Y-76828480D01*
X188335018Y-76793738D01*
X188341255Y-76763368D01*
X188350711Y-76732060D01*
X188352899Y-76725631D01*
X188385245Y-76654217D01*
X188427702Y-76600006D01*
X188481446Y-76561951D01*
X188547651Y-76539004D01*
X188566168Y-76535525D01*
X188590555Y-76531916D01*
X188613776Y-76529582D01*
X188637537Y-76528924D01*
X188663543Y-76530342D01*
X188693503Y-76534235D01*
X188729122Y-76541004D01*
X188772106Y-76551048D01*
X188824162Y-76564769D01*
X188886997Y-76582565D01*
X188962316Y-76604838D01*
X189051827Y-76631986D01*
X189157236Y-76664411D01*
X189280248Y-76702513D01*
X189286013Y-76704302D01*
X189357326Y-76726371D01*
X189422198Y-76746337D01*
X189478131Y-76763441D01*
X189522630Y-76776921D01*
X189553196Y-76786018D01*
X189567332Y-76789973D01*
X189567953Y-76790080D01*
X189569734Y-76799697D01*
X189571274Y-76826371D01*
X189572471Y-76866842D01*
X189573224Y-76917849D01*
X189573440Y-76966801D01*
X189573440Y-77143522D01*
X189496852Y-77119201D01*
X189459470Y-77107711D01*
X189429330Y-77099148D01*
X189411859Y-77095036D01*
X189410233Y-77094880D01*
X189411761Y-77101931D01*
X189424325Y-77120794D01*
X189445524Y-77148040D01*
X189457403Y-77162310D01*
X189507003Y-77228974D01*
X189547126Y-77299429D01*
X189575257Y-77368573D01*
X189588606Y-77428605D01*
X189592604Y-77464241D01*
X189596191Y-77494077D01*
X189597829Y-77506360D01*
X189598200Y-77527221D01*
X189596037Y-77560003D01*
X189593025Y-77587640D01*
X189584533Y-77639598D01*
X189572819Y-77678200D01*
X189555109Y-77710407D01*
X189533007Y-77738252D01*
X189492147Y-77773882D01*
X189442814Y-77795617D01*
X189381817Y-77804500D01*
X189332310Y-77803747D01*
X189238709Y-77788010D01*
X189234249Y-77786329D01*
X189234249Y-77440097D01*
X189269478Y-77431773D01*
X189303296Y-77410177D01*
X189327187Y-77381073D01*
X189329802Y-77375417D01*
X189337769Y-77337531D01*
X189337606Y-77289157D01*
X189329536Y-77238329D01*
X189325603Y-77223793D01*
X189299491Y-77165320D01*
X189258764Y-77108090D01*
X189208436Y-77058598D01*
X189184349Y-77040819D01*
X189155416Y-77024047D01*
X189119264Y-77006481D01*
X189080707Y-76990015D01*
X189044554Y-76976542D01*
X189015618Y-76967954D01*
X188998710Y-76966144D01*
X188996839Y-76967054D01*
X188995154Y-76979855D01*
X188996734Y-77008418D01*
X189000953Y-77048561D01*
X189007183Y-77096100D01*
X189014799Y-77146854D01*
X189023172Y-77196641D01*
X189031677Y-77241277D01*
X189039687Y-77276582D01*
X189046446Y-77298080D01*
X189079175Y-77353015D01*
X189122526Y-77396882D01*
X189172653Y-77426773D01*
X189225708Y-77439778D01*
X189234249Y-77440097D01*
X189234249Y-77786329D01*
X189148732Y-77754085D01*
X189065583Y-77704102D01*
X188992464Y-77640188D01*
X188932579Y-77564473D01*
X188908071Y-77521816D01*
X188878703Y-77451710D01*
X188852914Y-77365823D01*
X188831830Y-77268543D01*
X188816774Y-77166000D01*
X188809941Y-77108020D01*
X188802728Y-77050438D01*
X188795977Y-76999768D01*
X188790529Y-76962523D01*
X188790347Y-76961385D01*
X188783944Y-76925298D01*
X188777447Y-76904429D01*
X188768059Y-76893858D01*
X188752984Y-76888664D01*
X188748481Y-76887725D01*
X188690652Y-76882715D01*
X188644988Y-76893614D01*
X188610571Y-76920783D01*
X188593032Y-76948926D01*
X188584934Y-76969594D01*
X188580195Y-76993084D01*
X188578404Y-77024305D01*
X188579153Y-77068166D01*
X188580488Y-77099234D01*
X188596601Y-77227171D01*
X188631995Y-77352738D01*
X188674365Y-77450648D01*
X188688502Y-77479772D01*
X188693403Y-77494664D01*
X188689684Y-77498864D01*
X188682517Y-77497410D01*
X188665866Y-77492261D01*
X188634431Y-77482495D01*
X188592828Y-77469548D01*
X188548991Y-77455890D01*
X188503912Y-77441924D01*
X188466494Y-77430497D01*
X188440659Y-77422794D01*
X188430341Y-77420000D01*
X188423664Y-77410704D01*
X188413396Y-77385165D01*
X188400643Y-77346913D01*
X188386512Y-77299474D01*
X188372111Y-77246377D01*
X188358583Y-77191310D01*
X188345427Y-77130107D01*
X188336885Y-77076958D01*
X188332026Y-77023535D01*
X188329920Y-76961514D01*
X188329638Y-76932320D01*
X188329807Y-76872904D01*
G37*
X188329807Y-76872904D02*
X188331401Y-76828480D01*
X188335018Y-76793738D01*
X188341255Y-76763368D01*
X188350711Y-76732060D01*
X188352899Y-76725631D01*
X188385245Y-76654217D01*
X188427702Y-76600006D01*
X188481446Y-76561951D01*
X188547651Y-76539004D01*
X188566168Y-76535525D01*
X188590555Y-76531916D01*
X188613776Y-76529582D01*
X188637537Y-76528924D01*
X188663543Y-76530342D01*
X188693503Y-76534235D01*
X188729122Y-76541004D01*
X188772106Y-76551048D01*
X188824162Y-76564769D01*
X188886997Y-76582565D01*
X188962316Y-76604838D01*
X189051827Y-76631986D01*
X189157236Y-76664411D01*
X189280248Y-76702513D01*
X189286013Y-76704302D01*
X189357326Y-76726371D01*
X189422198Y-76746337D01*
X189478131Y-76763441D01*
X189522630Y-76776921D01*
X189553196Y-76786018D01*
X189567332Y-76789973D01*
X189567953Y-76790080D01*
X189569734Y-76799697D01*
X189571274Y-76826371D01*
X189572471Y-76866842D01*
X189573224Y-76917849D01*
X189573440Y-76966801D01*
X189573440Y-77143522D01*
X189496852Y-77119201D01*
X189459470Y-77107711D01*
X189429330Y-77099148D01*
X189411859Y-77095036D01*
X189410233Y-77094880D01*
X189411761Y-77101931D01*
X189424325Y-77120794D01*
X189445524Y-77148040D01*
X189457403Y-77162310D01*
X189507003Y-77228974D01*
X189547126Y-77299429D01*
X189575257Y-77368573D01*
X189588606Y-77428605D01*
X189592604Y-77464241D01*
X189596191Y-77494077D01*
X189597829Y-77506360D01*
X189598200Y-77527221D01*
X189596037Y-77560003D01*
X189593025Y-77587640D01*
X189584533Y-77639598D01*
X189572819Y-77678200D01*
X189555109Y-77710407D01*
X189533007Y-77738252D01*
X189492147Y-77773882D01*
X189442814Y-77795617D01*
X189381817Y-77804500D01*
X189332310Y-77803747D01*
X189238709Y-77788010D01*
X189234249Y-77786329D01*
X189234249Y-77440097D01*
X189269478Y-77431773D01*
X189303296Y-77410177D01*
X189327187Y-77381073D01*
X189329802Y-77375417D01*
X189337769Y-77337531D01*
X189337606Y-77289157D01*
X189329536Y-77238329D01*
X189325603Y-77223793D01*
X189299491Y-77165320D01*
X189258764Y-77108090D01*
X189208436Y-77058598D01*
X189184349Y-77040819D01*
X189155416Y-77024047D01*
X189119264Y-77006481D01*
X189080707Y-76990015D01*
X189044554Y-76976542D01*
X189015618Y-76967954D01*
X188998710Y-76966144D01*
X188996839Y-76967054D01*
X188995154Y-76979855D01*
X188996734Y-77008418D01*
X189000953Y-77048561D01*
X189007183Y-77096100D01*
X189014799Y-77146854D01*
X189023172Y-77196641D01*
X189031677Y-77241277D01*
X189039687Y-77276582D01*
X189046446Y-77298080D01*
X189079175Y-77353015D01*
X189122526Y-77396882D01*
X189172653Y-77426773D01*
X189225708Y-77439778D01*
X189234249Y-77440097D01*
X189234249Y-77786329D01*
X189148732Y-77754085D01*
X189065583Y-77704102D01*
X188992464Y-77640188D01*
X188932579Y-77564473D01*
X188908071Y-77521816D01*
X188878703Y-77451710D01*
X188852914Y-77365823D01*
X188831830Y-77268543D01*
X188816774Y-77166000D01*
X188809941Y-77108020D01*
X188802728Y-77050438D01*
X188795977Y-76999768D01*
X188790529Y-76962523D01*
X188790347Y-76961385D01*
X188783944Y-76925298D01*
X188777447Y-76904429D01*
X188768059Y-76893858D01*
X188752984Y-76888664D01*
X188748481Y-76887725D01*
X188690652Y-76882715D01*
X188644988Y-76893614D01*
X188610571Y-76920783D01*
X188593032Y-76948926D01*
X188584934Y-76969594D01*
X188580195Y-76993084D01*
X188578404Y-77024305D01*
X188579153Y-77068166D01*
X188580488Y-77099234D01*
X188596601Y-77227171D01*
X188631995Y-77352738D01*
X188674365Y-77450648D01*
X188688502Y-77479772D01*
X188693403Y-77494664D01*
X188689684Y-77498864D01*
X188682517Y-77497410D01*
X188665866Y-77492261D01*
X188634431Y-77482495D01*
X188592828Y-77469548D01*
X188548991Y-77455890D01*
X188503912Y-77441924D01*
X188466494Y-77430497D01*
X188440659Y-77422794D01*
X188430341Y-77420000D01*
X188423664Y-77410704D01*
X188413396Y-77385165D01*
X188400643Y-77346913D01*
X188386512Y-77299474D01*
X188372111Y-77246377D01*
X188358583Y-77191310D01*
X188345427Y-77130107D01*
X188336885Y-77076958D01*
X188332026Y-77023535D01*
X188329920Y-76961514D01*
X188329638Y-76932320D01*
X188329807Y-76872904D01*
G36*
X188329494Y-72797755D02*
G01*
X188331393Y-72762542D01*
X188336032Y-72735681D01*
X188344493Y-72711193D01*
X188357860Y-72683097D01*
X188359609Y-72679660D01*
X188382839Y-72640084D01*
X188408387Y-72612065D01*
X188443668Y-72587488D01*
X188443964Y-72587310D01*
X188470546Y-72569967D01*
X188486813Y-72556510D01*
X188489394Y-72550331D01*
X188475979Y-72545240D01*
X188449028Y-72536783D01*
X188417740Y-72527742D01*
X188354240Y-72510043D01*
X188354240Y-72137858D01*
X188382180Y-72147121D01*
X188397226Y-72151880D01*
X188429707Y-72161989D01*
X188477633Y-72176835D01*
X188539015Y-72195804D01*
X188611862Y-72218281D01*
X188694186Y-72243651D01*
X188783996Y-72271302D01*
X188879303Y-72300617D01*
X188892720Y-72304741D01*
X188991229Y-72335071D01*
X189086637Y-72364533D01*
X189176618Y-72392405D01*
X189258846Y-72417961D01*
X189330996Y-72440478D01*
X189390741Y-72459231D01*
X189435756Y-72473495D01*
X189463714Y-72482547D01*
X189464088Y-72482672D01*
X189600872Y-72537751D01*
X189723103Y-72606899D01*
X189830568Y-72689894D01*
X189923050Y-72786511D01*
X190000336Y-72896526D01*
X190062211Y-73019716D01*
X190107632Y-73152800D01*
X190117987Y-73193687D01*
X190125495Y-73231747D01*
X190130718Y-73272030D01*
X190134220Y-73319588D01*
X190136561Y-73379471D01*
X190137614Y-73422040D01*
X190138354Y-73483286D01*
X190137996Y-73541120D01*
X190136646Y-73590903D01*
X190134411Y-73627993D01*
X190132562Y-73642947D01*
X190124392Y-73679238D01*
X190112283Y-73723543D01*
X190102006Y-73756579D01*
X190080228Y-73822024D01*
X190037654Y-73808870D01*
X190010295Y-73800481D01*
X189969541Y-73788062D01*
X189921449Y-73773455D01*
X189883320Y-73761905D01*
X189838890Y-73748363D01*
X189802236Y-73737003D01*
X189777353Y-73729076D01*
X189768286Y-73725886D01*
X189771181Y-73716870D01*
X189782268Y-73696571D01*
X189789558Y-73684620D01*
X189827947Y-73608118D01*
X189855440Y-73521151D01*
X189870668Y-73430416D01*
X189872263Y-73342609D01*
X189867606Y-73302391D01*
X189840994Y-73194365D01*
X189799807Y-73100425D01*
X189743718Y-73020173D01*
X189672402Y-72953212D01*
X189585535Y-72899143D01*
X189512709Y-72867801D01*
X189462833Y-72850240D01*
X189430240Y-72840763D01*
X189413481Y-72839582D01*
X189411107Y-72846908D01*
X189421667Y-72862953D01*
X189435594Y-72879059D01*
X189504484Y-72968556D01*
X189554287Y-73063136D01*
X189584590Y-73161925D01*
X189592019Y-73209931D01*
X189595660Y-73311195D01*
X189583892Y-73399536D01*
X189557266Y-73474610D01*
X189516333Y-73536071D01*
X189461644Y-73583572D01*
X189393752Y-73616768D01*
X189313206Y-73635312D01*
X189220559Y-73638861D01*
X189143616Y-73630152D01*
X189143616Y-73242147D01*
X189204241Y-73231275D01*
X189228387Y-73221380D01*
X189271096Y-73189193D01*
X189300560Y-73144430D01*
X189316039Y-73090529D01*
X189316792Y-73030931D01*
X189302081Y-72969073D01*
X189289084Y-72939142D01*
X189246562Y-72870679D01*
X189192303Y-72812483D01*
X189124165Y-72762939D01*
X189040006Y-72720433D01*
X188958596Y-72690045D01*
X188905073Y-72673179D01*
X188864457Y-72662663D01*
X188830752Y-72657394D01*
X188797959Y-72656268D01*
X188778744Y-72656983D01*
X188725764Y-72663770D01*
X188685778Y-72679658D01*
X188652317Y-72707917D01*
X188634267Y-72730030D01*
X188620139Y-72762238D01*
X188613100Y-72807297D01*
X188613096Y-72859033D01*
X188620075Y-72911273D01*
X188633981Y-72957845D01*
X188636303Y-72963179D01*
X188671311Y-73020294D01*
X188720987Y-73073911D01*
X188782055Y-73122601D01*
X188851239Y-73164936D01*
X188925263Y-73199486D01*
X189000851Y-73224824D01*
X189074727Y-73239520D01*
X189143616Y-73242147D01*
X189143616Y-73630152D01*
X189116362Y-73627066D01*
X189001165Y-73599584D01*
X188980690Y-73593377D01*
X188848976Y-73543488D01*
X188728730Y-73480125D01*
X188621315Y-73404503D01*
X188528091Y-73317837D01*
X188450420Y-73221341D01*
X188389663Y-73116232D01*
X188357612Y-73037255D01*
X188343806Y-72992667D01*
X188335285Y-72953120D01*
X188330852Y-72910594D01*
X188329310Y-72857065D01*
X188329253Y-72847300D01*
X188329494Y-72797755D01*
G37*
X188329494Y-72797755D02*
X188331393Y-72762542D01*
X188336032Y-72735681D01*
X188344493Y-72711193D01*
X188357860Y-72683097D01*
X188359609Y-72679660D01*
X188382839Y-72640084D01*
X188408387Y-72612065D01*
X188443668Y-72587488D01*
X188443964Y-72587310D01*
X188470546Y-72569967D01*
X188486813Y-72556510D01*
X188489394Y-72550331D01*
X188475979Y-72545240D01*
X188449028Y-72536783D01*
X188417740Y-72527742D01*
X188354240Y-72510043D01*
X188354240Y-72137858D01*
X188382180Y-72147121D01*
X188397226Y-72151880D01*
X188429707Y-72161989D01*
X188477633Y-72176835D01*
X188539015Y-72195804D01*
X188611862Y-72218281D01*
X188694186Y-72243651D01*
X188783996Y-72271302D01*
X188879303Y-72300617D01*
X188892720Y-72304741D01*
X188991229Y-72335071D01*
X189086637Y-72364533D01*
X189176618Y-72392405D01*
X189258846Y-72417961D01*
X189330996Y-72440478D01*
X189390741Y-72459231D01*
X189435756Y-72473495D01*
X189463714Y-72482547D01*
X189464088Y-72482672D01*
X189600872Y-72537751D01*
X189723103Y-72606899D01*
X189830568Y-72689894D01*
X189923050Y-72786511D01*
X190000336Y-72896526D01*
X190062211Y-73019716D01*
X190107632Y-73152800D01*
X190117987Y-73193687D01*
X190125495Y-73231747D01*
X190130718Y-73272030D01*
X190134220Y-73319588D01*
X190136561Y-73379471D01*
X190137614Y-73422040D01*
X190138354Y-73483286D01*
X190137996Y-73541120D01*
X190136646Y-73590903D01*
X190134411Y-73627993D01*
X190132562Y-73642947D01*
X190124392Y-73679238D01*
X190112283Y-73723543D01*
X190102006Y-73756579D01*
X190080228Y-73822024D01*
X190037654Y-73808870D01*
X190010295Y-73800481D01*
X189969541Y-73788062D01*
X189921449Y-73773455D01*
X189883320Y-73761905D01*
X189838890Y-73748363D01*
X189802236Y-73737003D01*
X189777353Y-73729076D01*
X189768286Y-73725886D01*
X189771181Y-73716870D01*
X189782268Y-73696571D01*
X189789558Y-73684620D01*
X189827947Y-73608118D01*
X189855440Y-73521151D01*
X189870668Y-73430416D01*
X189872263Y-73342609D01*
X189867606Y-73302391D01*
X189840994Y-73194365D01*
X189799807Y-73100425D01*
X189743718Y-73020173D01*
X189672402Y-72953212D01*
X189585535Y-72899143D01*
X189512709Y-72867801D01*
X189462833Y-72850240D01*
X189430240Y-72840763D01*
X189413481Y-72839582D01*
X189411107Y-72846908D01*
X189421667Y-72862953D01*
X189435594Y-72879059D01*
X189504484Y-72968556D01*
X189554287Y-73063136D01*
X189584590Y-73161925D01*
X189592019Y-73209931D01*
X189595660Y-73311195D01*
X189583892Y-73399536D01*
X189557266Y-73474610D01*
X189516333Y-73536071D01*
X189461644Y-73583572D01*
X189393752Y-73616768D01*
X189313206Y-73635312D01*
X189220559Y-73638861D01*
X189143616Y-73630152D01*
X189143616Y-73242147D01*
X189204241Y-73231275D01*
X189228387Y-73221380D01*
X189271096Y-73189193D01*
X189300560Y-73144430D01*
X189316039Y-73090529D01*
X189316792Y-73030931D01*
X189302081Y-72969073D01*
X189289084Y-72939142D01*
X189246562Y-72870679D01*
X189192303Y-72812483D01*
X189124165Y-72762939D01*
X189040006Y-72720433D01*
X188958596Y-72690045D01*
X188905073Y-72673179D01*
X188864457Y-72662663D01*
X188830752Y-72657394D01*
X188797959Y-72656268D01*
X188778744Y-72656983D01*
X188725764Y-72663770D01*
X188685778Y-72679658D01*
X188652317Y-72707917D01*
X188634267Y-72730030D01*
X188620139Y-72762238D01*
X188613100Y-72807297D01*
X188613096Y-72859033D01*
X188620075Y-72911273D01*
X188633981Y-72957845D01*
X188636303Y-72963179D01*
X188671311Y-73020294D01*
X188720987Y-73073911D01*
X188782055Y-73122601D01*
X188851239Y-73164936D01*
X188925263Y-73199486D01*
X189000851Y-73224824D01*
X189074727Y-73239520D01*
X189143616Y-73242147D01*
X189143616Y-73630152D01*
X189116362Y-73627066D01*
X189001165Y-73599584D01*
X188980690Y-73593377D01*
X188848976Y-73543488D01*
X188728730Y-73480125D01*
X188621315Y-73404503D01*
X188528091Y-73317837D01*
X188450420Y-73221341D01*
X188389663Y-73116232D01*
X188357612Y-73037255D01*
X188343806Y-72992667D01*
X188335285Y-72953120D01*
X188330852Y-72910594D01*
X188329310Y-72857065D01*
X188329253Y-72847300D01*
X188329494Y-72797755D01*
G36*
X184989740Y-64399670D02*
G01*
X185014325Y-64403774D01*
X185049877Y-64410708D01*
X185069460Y-64414796D01*
X185154540Y-64428853D01*
X185248901Y-64437611D01*
X185345730Y-64440880D01*
X185438213Y-64438470D01*
X185519535Y-64430193D01*
X185534348Y-64427729D01*
X185633787Y-64402888D01*
X185720068Y-64366993D01*
X185791751Y-64320972D01*
X185847397Y-64265757D01*
X185885566Y-64202277D01*
X185886481Y-64200124D01*
X185903245Y-64160153D01*
X185920842Y-64118154D01*
X185925328Y-64107440D01*
X185938036Y-64076338D01*
X185954921Y-64034029D01*
X185972890Y-63988283D01*
X185977910Y-63975360D01*
X186007384Y-63907201D01*
X186042724Y-63838072D01*
X186081184Y-63772513D01*
X186120014Y-63715066D01*
X186156467Y-63670271D01*
X186171719Y-63655129D01*
X186237247Y-63604237D01*
X186305328Y-63568928D01*
X186380507Y-63547565D01*
X186467332Y-63538512D01*
X186497161Y-63537949D01*
X186555028Y-63538870D01*
X186593587Y-63542128D01*
X186613745Y-63547996D01*
X186616410Y-63556745D01*
X186602487Y-63568649D01*
X186601489Y-63569260D01*
X186574010Y-63589726D01*
X186538897Y-63621092D01*
X186501161Y-63658351D01*
X186465813Y-63696495D01*
X186437864Y-63730519D01*
X186432166Y-63738451D01*
X186410195Y-63772739D01*
X186393575Y-63805680D01*
X186381079Y-63841638D01*
X186371480Y-63884978D01*
X186363552Y-63940063D01*
X186356363Y-64008158D01*
X186345549Y-64105252D01*
X186332946Y-64185931D01*
X186317738Y-64254079D01*
X186299108Y-64313578D01*
X186284365Y-64350399D01*
X186242577Y-64430300D01*
X186188116Y-64510555D01*
X186125211Y-64586075D01*
X186058093Y-64651769D01*
X185992494Y-64701590D01*
X185960329Y-64720545D01*
X185924626Y-64739103D01*
X185889772Y-64755328D01*
X185860153Y-64767285D01*
X185840156Y-64773037D01*
X185834000Y-64771528D01*
X185827611Y-64771992D01*
X185817198Y-64779296D01*
X185797780Y-64786427D01*
X185762515Y-64791175D01*
X185715728Y-64793605D01*
X185661745Y-64793782D01*
X185604891Y-64791771D01*
X185549492Y-64787635D01*
X185499872Y-64781440D01*
X185463160Y-64774008D01*
X185349612Y-64735215D01*
X185245214Y-64681705D01*
X185152980Y-64615301D01*
X185079267Y-64541812D01*
X185055818Y-64512585D01*
X185031130Y-64479427D01*
X185008371Y-64446916D01*
X184990708Y-64419628D01*
X184981310Y-64402140D01*
X184980560Y-64399176D01*
X184989740Y-64399670D01*
G37*
X184989740Y-64399670D02*
X185014325Y-64403774D01*
X185049877Y-64410708D01*
X185069460Y-64414796D01*
X185154540Y-64428853D01*
X185248901Y-64437611D01*
X185345730Y-64440880D01*
X185438213Y-64438470D01*
X185519535Y-64430193D01*
X185534348Y-64427729D01*
X185633787Y-64402888D01*
X185720068Y-64366993D01*
X185791751Y-64320972D01*
X185847397Y-64265757D01*
X185885566Y-64202277D01*
X185886481Y-64200124D01*
X185903245Y-64160153D01*
X185920842Y-64118154D01*
X185925328Y-64107440D01*
X185938036Y-64076338D01*
X185954921Y-64034029D01*
X185972890Y-63988283D01*
X185977910Y-63975360D01*
X186007384Y-63907201D01*
X186042724Y-63838072D01*
X186081184Y-63772513D01*
X186120014Y-63715066D01*
X186156467Y-63670271D01*
X186171719Y-63655129D01*
X186237247Y-63604237D01*
X186305328Y-63568928D01*
X186380507Y-63547565D01*
X186467332Y-63538512D01*
X186497161Y-63537949D01*
X186555028Y-63538870D01*
X186593587Y-63542128D01*
X186613745Y-63547996D01*
X186616410Y-63556745D01*
X186602487Y-63568649D01*
X186601489Y-63569260D01*
X186574010Y-63589726D01*
X186538897Y-63621092D01*
X186501161Y-63658351D01*
X186465813Y-63696495D01*
X186437864Y-63730519D01*
X186432166Y-63738451D01*
X186410195Y-63772739D01*
X186393575Y-63805680D01*
X186381079Y-63841638D01*
X186371480Y-63884978D01*
X186363552Y-63940063D01*
X186356363Y-64008158D01*
X186345549Y-64105252D01*
X186332946Y-64185931D01*
X186317738Y-64254079D01*
X186299108Y-64313578D01*
X186284365Y-64350399D01*
X186242577Y-64430300D01*
X186188116Y-64510555D01*
X186125211Y-64586075D01*
X186058093Y-64651769D01*
X185992494Y-64701590D01*
X185960329Y-64720545D01*
X185924626Y-64739103D01*
X185889772Y-64755328D01*
X185860153Y-64767285D01*
X185840156Y-64773037D01*
X185834000Y-64771528D01*
X185827611Y-64771992D01*
X185817198Y-64779296D01*
X185797780Y-64786427D01*
X185762515Y-64791175D01*
X185715728Y-64793605D01*
X185661745Y-64793782D01*
X185604891Y-64791771D01*
X185549492Y-64787635D01*
X185499872Y-64781440D01*
X185463160Y-64774008D01*
X185349612Y-64735215D01*
X185245214Y-64681705D01*
X185152980Y-64615301D01*
X185079267Y-64541812D01*
X185055818Y-64512585D01*
X185031130Y-64479427D01*
X185008371Y-64446916D01*
X184990708Y-64419628D01*
X184981310Y-64402140D01*
X184980560Y-64399176D01*
X184989740Y-64399670D01*
G36*
X183975096Y-63170656D02*
G01*
X183988665Y-63057977D01*
X184012224Y-62951485D01*
X184033806Y-62885459D01*
X184051917Y-62837747D01*
X184080200Y-62896014D01*
X184125823Y-62984434D01*
X184170742Y-63058675D01*
X184218844Y-63124356D01*
X184274012Y-63187094D01*
X184299666Y-63213360D01*
X184347157Y-63258341D01*
X184395054Y-63299459D01*
X184438221Y-63332457D01*
X184462400Y-63348174D01*
X184557437Y-63396005D01*
X184657610Y-63433264D01*
X184758513Y-63458900D01*
X184855743Y-63471863D01*
X184944895Y-63471101D01*
X184966603Y-63468466D01*
X185074821Y-63444700D01*
X185174643Y-63406065D01*
X185269329Y-63350913D01*
X185362139Y-63277598D01*
X185384347Y-63257256D01*
X185487987Y-63169621D01*
X185595789Y-63098717D01*
X185713426Y-63041012D01*
X185763301Y-63021282D01*
X185812247Y-63005422D01*
X185868452Y-62990866D01*
X185924959Y-62979101D01*
X185974807Y-62971612D01*
X186004844Y-62969697D01*
X186070044Y-62976325D01*
X186144627Y-62994188D01*
X186222734Y-63021081D01*
X186298508Y-63054802D01*
X186366090Y-63093146D01*
X186402645Y-63119341D01*
X186485716Y-63197847D01*
X186555283Y-63288430D01*
X186608345Y-63387068D01*
X186616012Y-63405621D01*
X186637404Y-63459893D01*
X186604002Y-63453167D01*
X186490203Y-63440201D01*
X186378766Y-63447228D01*
X186271037Y-63473946D01*
X186168365Y-63520055D01*
X186095939Y-63566848D01*
X186039502Y-63614353D01*
X185978824Y-63675575D01*
X185918192Y-63745786D01*
X185861891Y-63820257D01*
X185848210Y-63840151D01*
X185763990Y-63950450D01*
X185670448Y-64043974D01*
X185566111Y-64121704D01*
X185449505Y-64184618D01*
X185319157Y-64233696D01*
X185214240Y-64261401D01*
X185165603Y-64271360D01*
X185120429Y-64278200D01*
X185072807Y-64282444D01*
X185016828Y-64284615D01*
X184946581Y-64285237D01*
X184945000Y-64285238D01*
X184881336Y-64284939D01*
X184833604Y-64283739D01*
X184797421Y-64281183D01*
X184768404Y-64276819D01*
X184742170Y-64270193D01*
X184716400Y-64261593D01*
X184631786Y-64225003D01*
X184541584Y-64174970D01*
X184451193Y-64115143D01*
X184366013Y-64049172D01*
X184291443Y-63980706D01*
X184274440Y-63962925D01*
X184197602Y-63875597D01*
X184135668Y-63794367D01*
X184086106Y-63714891D01*
X184046384Y-63632827D01*
X184013973Y-63543833D01*
X183997772Y-63488240D01*
X183979306Y-63391545D01*
X183971862Y-63283765D01*
X183975096Y-63170656D01*
G37*
X183975096Y-63170656D02*
X183988665Y-63057977D01*
X184012224Y-62951485D01*
X184033806Y-62885459D01*
X184051917Y-62837747D01*
X184080200Y-62896014D01*
X184125823Y-62984434D01*
X184170742Y-63058675D01*
X184218844Y-63124356D01*
X184274012Y-63187094D01*
X184299666Y-63213360D01*
X184347157Y-63258341D01*
X184395054Y-63299459D01*
X184438221Y-63332457D01*
X184462400Y-63348174D01*
X184557437Y-63396005D01*
X184657610Y-63433264D01*
X184758513Y-63458900D01*
X184855743Y-63471863D01*
X184944895Y-63471101D01*
X184966603Y-63468466D01*
X185074821Y-63444700D01*
X185174643Y-63406065D01*
X185269329Y-63350913D01*
X185362139Y-63277598D01*
X185384347Y-63257256D01*
X185487987Y-63169621D01*
X185595789Y-63098717D01*
X185713426Y-63041012D01*
X185763301Y-63021282D01*
X185812247Y-63005422D01*
X185868452Y-62990866D01*
X185924959Y-62979101D01*
X185974807Y-62971612D01*
X186004844Y-62969697D01*
X186070044Y-62976325D01*
X186144627Y-62994188D01*
X186222734Y-63021081D01*
X186298508Y-63054802D01*
X186366090Y-63093146D01*
X186402645Y-63119341D01*
X186485716Y-63197847D01*
X186555283Y-63288430D01*
X186608345Y-63387068D01*
X186616012Y-63405621D01*
X186637404Y-63459893D01*
X186604002Y-63453167D01*
X186490203Y-63440201D01*
X186378766Y-63447228D01*
X186271037Y-63473946D01*
X186168365Y-63520055D01*
X186095939Y-63566848D01*
X186039502Y-63614353D01*
X185978824Y-63675575D01*
X185918192Y-63745786D01*
X185861891Y-63820257D01*
X185848210Y-63840151D01*
X185763990Y-63950450D01*
X185670448Y-64043974D01*
X185566111Y-64121704D01*
X185449505Y-64184618D01*
X185319157Y-64233696D01*
X185214240Y-64261401D01*
X185165603Y-64271360D01*
X185120429Y-64278200D01*
X185072807Y-64282444D01*
X185016828Y-64284615D01*
X184946581Y-64285237D01*
X184945000Y-64285238D01*
X184881336Y-64284939D01*
X184833604Y-64283739D01*
X184797421Y-64281183D01*
X184768404Y-64276819D01*
X184742170Y-64270193D01*
X184716400Y-64261593D01*
X184631786Y-64225003D01*
X184541584Y-64174970D01*
X184451193Y-64115143D01*
X184366013Y-64049172D01*
X184291443Y-63980706D01*
X184274440Y-63962925D01*
X184197602Y-63875597D01*
X184135668Y-63794367D01*
X184086106Y-63714891D01*
X184046384Y-63632827D01*
X184013973Y-63543833D01*
X183997772Y-63488240D01*
X183979306Y-63391545D01*
X183971862Y-63283765D01*
X183975096Y-63170656D01*
G36*
X184636066Y-62425960D02*
G01*
X184662335Y-62476760D01*
X184700317Y-62540753D01*
X184740231Y-62587809D01*
X184785175Y-62621277D01*
X184805884Y-62631898D01*
X184838148Y-62645160D01*
X184866843Y-62652101D01*
X184900210Y-62653984D01*
X184939876Y-62652469D01*
X184987618Y-62647701D01*
X185030155Y-62638132D01*
X185070752Y-62621928D01*
X185112673Y-62597257D01*
X185159181Y-62562286D01*
X185213540Y-62515184D01*
X185258421Y-62473626D01*
X185333158Y-62406240D01*
X185399753Y-62353650D01*
X185461808Y-62314071D01*
X185522930Y-62285718D01*
X185586721Y-62266808D01*
X185656787Y-62255555D01*
X185707000Y-62251524D01*
X185839049Y-62253933D01*
X185966957Y-62275815D01*
X186089050Y-62316533D01*
X186203654Y-62375453D01*
X186309095Y-62451940D01*
X186361268Y-62499957D01*
X186407056Y-62547113D01*
X186442266Y-62587802D01*
X186471839Y-62628671D01*
X186500718Y-62676370D01*
X186523958Y-62718871D01*
X186576646Y-62835509D01*
X186615875Y-62963125D01*
X186642237Y-63103879D01*
X186651048Y-63182880D01*
X186656892Y-63248920D01*
X186624836Y-63193040D01*
X186559142Y-63092502D01*
X186485008Y-63004001D01*
X186404755Y-62929764D01*
X186320698Y-62872014D01*
X186259013Y-62841849D01*
X186233167Y-62829296D01*
X186218619Y-62818063D01*
X186217403Y-62813232D01*
X186216724Y-62808397D01*
X186212856Y-62810226D01*
X186198352Y-62811435D01*
X186170092Y-62808528D01*
X186134075Y-62802134D01*
X186132546Y-62801812D01*
X186032955Y-62787405D01*
X185937765Y-62788152D01*
X185844200Y-62804725D01*
X185749484Y-62837793D01*
X185650839Y-62888027D01*
X185573504Y-62936764D01*
X185493755Y-62988650D01*
X185425384Y-63028210D01*
X185364787Y-63056846D01*
X185308364Y-63075963D01*
X185252512Y-63086963D01*
X185193628Y-63091251D01*
X185176517Y-63091440D01*
X185080918Y-63081712D01*
X184990154Y-63053773D01*
X184905958Y-63009498D01*
X184830063Y-62950759D01*
X184764203Y-62879427D01*
X184710111Y-62797376D01*
X184669521Y-62706478D01*
X184644164Y-62608606D01*
X184635767Y-62507240D01*
X184636066Y-62425960D01*
G37*
X184636066Y-62425960D02*
X184662335Y-62476760D01*
X184700317Y-62540753D01*
X184740231Y-62587809D01*
X184785175Y-62621277D01*
X184805884Y-62631898D01*
X184838148Y-62645160D01*
X184866843Y-62652101D01*
X184900210Y-62653984D01*
X184939876Y-62652469D01*
X184987618Y-62647701D01*
X185030155Y-62638132D01*
X185070752Y-62621928D01*
X185112673Y-62597257D01*
X185159181Y-62562286D01*
X185213540Y-62515184D01*
X185258421Y-62473626D01*
X185333158Y-62406240D01*
X185399753Y-62353650D01*
X185461808Y-62314071D01*
X185522930Y-62285718D01*
X185586721Y-62266808D01*
X185656787Y-62255555D01*
X185707000Y-62251524D01*
X185839049Y-62253933D01*
X185966957Y-62275815D01*
X186089050Y-62316533D01*
X186203654Y-62375453D01*
X186309095Y-62451940D01*
X186361268Y-62499957D01*
X186407056Y-62547113D01*
X186442266Y-62587802D01*
X186471839Y-62628671D01*
X186500718Y-62676370D01*
X186523958Y-62718871D01*
X186576646Y-62835509D01*
X186615875Y-62963125D01*
X186642237Y-63103879D01*
X186651048Y-63182880D01*
X186656892Y-63248920D01*
X186624836Y-63193040D01*
X186559142Y-63092502D01*
X186485008Y-63004001D01*
X186404755Y-62929764D01*
X186320698Y-62872014D01*
X186259013Y-62841849D01*
X186233167Y-62829296D01*
X186218619Y-62818063D01*
X186217403Y-62813232D01*
X186216724Y-62808397D01*
X186212856Y-62810226D01*
X186198352Y-62811435D01*
X186170092Y-62808528D01*
X186134075Y-62802134D01*
X186132546Y-62801812D01*
X186032955Y-62787405D01*
X185937765Y-62788152D01*
X185844200Y-62804725D01*
X185749484Y-62837793D01*
X185650839Y-62888027D01*
X185573504Y-62936764D01*
X185493755Y-62988650D01*
X185425384Y-63028210D01*
X185364787Y-63056846D01*
X185308364Y-63075963D01*
X185252512Y-63086963D01*
X185193628Y-63091251D01*
X185176517Y-63091440D01*
X185080918Y-63081712D01*
X184990154Y-63053773D01*
X184905958Y-63009498D01*
X184830063Y-62950759D01*
X184764203Y-62879427D01*
X184710111Y-62797376D01*
X184669521Y-62706478D01*
X184644164Y-62608606D01*
X184635767Y-62507240D01*
X184636066Y-62425960D01*
G36*
X186709254Y-63118772D02*
G01*
X186709430Y-62928706D01*
X186709704Y-62748656D01*
X186710076Y-62582956D01*
X186710241Y-62525021D01*
X186712840Y-61674120D01*
X186752467Y-61780800D01*
X186839623Y-62028995D01*
X186912147Y-62265313D01*
X186970478Y-62491508D01*
X187015056Y-62709332D01*
X187046319Y-62920539D01*
X187052844Y-62979680D01*
X187056715Y-63028271D01*
X187060267Y-63092560D01*
X187063387Y-63167925D01*
X187065965Y-63249744D01*
X187067890Y-63333397D01*
X187069049Y-63414262D01*
X187069333Y-63487718D01*
X187068629Y-63549144D01*
X187067403Y-63584200D01*
X187048089Y-63814261D01*
X187013465Y-64048959D01*
X186963030Y-64291515D01*
X186946841Y-64357958D01*
X186921424Y-64453689D01*
X186890824Y-64559938D01*
X186856877Y-64670890D01*
X186821423Y-64780732D01*
X186786300Y-64883647D01*
X186753346Y-64973820D01*
X186746574Y-64991360D01*
X186712840Y-65077720D01*
X186710241Y-64226821D01*
X186709833Y-64067665D01*
X186709522Y-63892524D01*
X186709309Y-63705730D01*
X186709193Y-63511618D01*
X186709174Y-63314521D01*
X186709254Y-63118772D01*
G37*
X186709254Y-63118772D02*
X186709430Y-62928706D01*
X186709704Y-62748656D01*
X186710076Y-62582956D01*
X186710241Y-62525021D01*
X186712840Y-61674120D01*
X186752467Y-61780800D01*
X186839623Y-62028995D01*
X186912147Y-62265313D01*
X186970478Y-62491508D01*
X187015056Y-62709332D01*
X187046319Y-62920539D01*
X187052844Y-62979680D01*
X187056715Y-63028271D01*
X187060267Y-63092560D01*
X187063387Y-63167925D01*
X187065965Y-63249744D01*
X187067890Y-63333397D01*
X187069049Y-63414262D01*
X187069333Y-63487718D01*
X187068629Y-63549144D01*
X187067403Y-63584200D01*
X187048089Y-63814261D01*
X187013465Y-64048959D01*
X186963030Y-64291515D01*
X186946841Y-64357958D01*
X186921424Y-64453689D01*
X186890824Y-64559938D01*
X186856877Y-64670890D01*
X186821423Y-64780732D01*
X186786300Y-64883647D01*
X186753346Y-64973820D01*
X186746574Y-64991360D01*
X186712840Y-65077720D01*
X186710241Y-64226821D01*
X186709833Y-64067665D01*
X186709522Y-63892524D01*
X186709309Y-63705730D01*
X186709193Y-63511618D01*
X186709174Y-63314521D01*
X186709254Y-63118772D01*
G36*
X187156841Y-63025089D02*
G01*
X187165689Y-63001335D01*
X187185427Y-62977544D01*
X187189344Y-62973584D01*
X187216833Y-62950433D01*
X187243018Y-62940484D01*
X187263004Y-62939078D01*
X187312002Y-62947824D01*
X187350826Y-62971607D01*
X187377061Y-63006901D01*
X187388295Y-63050180D01*
X187382112Y-63097919D01*
X187378522Y-63107817D01*
X187354851Y-63141049D01*
X187317765Y-63163805D01*
X187272891Y-63172700D01*
X187270623Y-63172720D01*
X187235937Y-63168868D01*
X187207127Y-63154422D01*
X187190713Y-63141188D01*
X187168636Y-63119360D01*
X187158067Y-63098889D01*
X187154912Y-63070397D01*
X187154800Y-63058892D01*
X187156841Y-63025089D01*
G37*
X187156841Y-63025089D02*
X187165689Y-63001335D01*
X187185427Y-62977544D01*
X187189344Y-62973584D01*
X187216833Y-62950433D01*
X187243018Y-62940484D01*
X187263004Y-62939078D01*
X187312002Y-62947824D01*
X187350826Y-62971607D01*
X187377061Y-63006901D01*
X187388295Y-63050180D01*
X187382112Y-63097919D01*
X187378522Y-63107817D01*
X187354851Y-63141049D01*
X187317765Y-63163805D01*
X187272891Y-63172700D01*
X187270623Y-63172720D01*
X187235937Y-63168868D01*
X187207127Y-63154422D01*
X187190713Y-63141188D01*
X187168636Y-63119360D01*
X187158067Y-63098889D01*
X187154912Y-63070397D01*
X187154800Y-63058892D01*
X187156841Y-63025089D01*
G36*
X187157381Y-63343257D02*
G01*
X187167726Y-63318545D01*
X187185235Y-63297848D01*
X187225315Y-63269647D01*
X187269578Y-63259886D01*
X187313931Y-63268445D01*
X187354284Y-63295206D01*
X187361741Y-63302986D01*
X187379405Y-63336163D01*
X187385704Y-63377927D01*
X187380137Y-63419692D01*
X187369918Y-63442770D01*
X187338503Y-63475561D01*
X187298335Y-63493161D01*
X187254601Y-63495163D01*
X187212487Y-63481163D01*
X187182740Y-63457393D01*
X187163926Y-63431193D01*
X187155922Y-63402113D01*
X187154800Y-63377689D01*
X187157381Y-63343257D01*
G37*
X187157381Y-63343257D02*
X187167726Y-63318545D01*
X187185235Y-63297848D01*
X187225315Y-63269647D01*
X187269578Y-63259886D01*
X187313931Y-63268445D01*
X187354284Y-63295206D01*
X187361741Y-63302986D01*
X187379405Y-63336163D01*
X187385704Y-63377927D01*
X187380137Y-63419692D01*
X187369918Y-63442770D01*
X187338503Y-63475561D01*
X187298335Y-63493161D01*
X187254601Y-63495163D01*
X187212487Y-63481163D01*
X187182740Y-63457393D01*
X187163926Y-63431193D01*
X187155922Y-63402113D01*
X187154800Y-63377689D01*
X187157381Y-63343257D01*
G36*
X187160988Y-63656287D02*
G01*
X187183689Y-63619406D01*
X187217041Y-63593534D01*
X187257006Y-63580993D01*
X187299546Y-63584107D01*
X187331914Y-63598895D01*
X187367973Y-63633063D01*
X187386497Y-63674138D01*
X187386937Y-63718261D01*
X187368743Y-63761575D01*
X187357223Y-63776572D01*
X187318750Y-63808292D01*
X187276762Y-63820072D01*
X187231686Y-63811815D01*
X187222422Y-63807791D01*
X187181990Y-63779228D01*
X187158931Y-63740131D01*
X187152976Y-63701853D01*
X187160988Y-63656287D01*
G37*
X187160988Y-63656287D02*
X187183689Y-63619406D01*
X187217041Y-63593534D01*
X187257006Y-63580993D01*
X187299546Y-63584107D01*
X187331914Y-63598895D01*
X187367973Y-63633063D01*
X187386497Y-63674138D01*
X187386937Y-63718261D01*
X187368743Y-63761575D01*
X187357223Y-63776572D01*
X187318750Y-63808292D01*
X187276762Y-63820072D01*
X187231686Y-63811815D01*
X187222422Y-63807791D01*
X187181990Y-63779228D01*
X187158931Y-63740131D01*
X187152976Y-63701853D01*
X187160988Y-63656287D01*
G36*
X187510440Y-63591820D02*
G01*
X187510555Y-63463188D01*
X187510906Y-63353139D01*
X187511534Y-63259940D01*
X187512480Y-63181857D01*
X187513783Y-63117155D01*
X187515485Y-63064099D01*
X187517626Y-63020954D01*
X187520247Y-62985986D01*
X187523388Y-62957461D01*
X187525640Y-62942094D01*
X187554603Y-62809303D01*
X187595966Y-62692460D01*
X187649985Y-62591223D01*
X187716919Y-62505246D01*
X187797024Y-62434187D01*
X187890558Y-62377699D01*
X187973263Y-62343444D01*
X188010291Y-62331610D01*
X188044585Y-62323310D01*
X188081710Y-62317745D01*
X188127234Y-62314113D01*
X188186722Y-62311614D01*
X188196605Y-62311305D01*
X188257732Y-62309899D01*
X188304153Y-62310255D01*
X188341441Y-62312819D01*
X188375168Y-62318039D01*
X188410907Y-62326361D01*
X188422495Y-62329433D01*
X188495969Y-62354697D01*
X188566291Y-62388830D01*
X188626638Y-62428259D01*
X188651638Y-62449503D01*
X188692650Y-62496183D01*
X188729506Y-62552226D01*
X188757870Y-62610209D01*
X188772101Y-62655658D01*
X188780785Y-62690648D01*
X188789262Y-62708070D01*
X188798844Y-62710616D01*
X188798905Y-62710593D01*
X188813081Y-62702946D01*
X188839856Y-62686719D01*
X188874901Y-62664580D01*
X188900954Y-62647703D01*
X188935381Y-62625171D01*
X188975423Y-62598950D01*
X189022639Y-62568017D01*
X189078587Y-62531351D01*
X189144824Y-62487932D01*
X189222908Y-62436737D01*
X189314398Y-62376746D01*
X189420852Y-62306938D01*
X189456040Y-62283862D01*
X189510720Y-62247930D01*
X189560082Y-62215355D01*
X189601436Y-62187924D01*
X189632092Y-62167421D01*
X189649361Y-62155634D01*
X189651730Y-62153910D01*
X189654906Y-62154972D01*
X189657484Y-62164615D01*
X189659498Y-62184336D01*
X189660985Y-62215632D01*
X189661981Y-62260004D01*
X189662521Y-62318947D01*
X189662641Y-62393961D01*
X189662378Y-62486544D01*
X189661890Y-62578402D01*
X189659240Y-63012914D01*
X189557640Y-63067249D01*
X189520345Y-63087117D01*
X189468819Y-63114456D01*
X189406816Y-63147281D01*
X189338088Y-63183605D01*
X189266389Y-63221443D01*
X189209750Y-63251292D01*
X189145219Y-63285543D01*
X189086997Y-63316954D01*
X189037397Y-63344238D01*
X188998727Y-63366105D01*
X188973298Y-63381270D01*
X188963420Y-63388445D01*
X188963370Y-63388620D01*
X188973122Y-63390405D01*
X189000879Y-63392042D01*
X189044326Y-63393479D01*
X189101148Y-63394667D01*
X189169029Y-63395556D01*
X189245655Y-63396095D01*
X189313800Y-63396240D01*
X189664320Y-63396240D01*
X189664320Y-64148080D01*
X188485760Y-64148080D01*
X188485760Y-63396240D01*
X188485760Y-63296462D01*
X188485127Y-63247663D01*
X188482464Y-63212782D01*
X188476618Y-63185437D01*
X188466439Y-63159246D01*
X188457820Y-63141522D01*
X188423762Y-63092325D01*
X188379236Y-63059847D01*
X188322836Y-63043280D01*
X188282880Y-63040640D01*
X188219527Y-63045145D01*
X188170435Y-63059517D01*
X188131448Y-63085042D01*
X188127477Y-63088700D01*
X188101787Y-63116245D01*
X188083910Y-63144795D01*
X188072250Y-63179119D01*
X188065208Y-63223986D01*
X188061190Y-63284163D01*
X188061067Y-63287020D01*
X188056429Y-63396240D01*
X188485760Y-63396240D01*
X188485760Y-64148080D01*
X187510400Y-64148080D01*
X187510440Y-63591820D01*
G37*
X187510440Y-63591820D02*
X187510555Y-63463188D01*
X187510906Y-63353139D01*
X187511534Y-63259940D01*
X187512480Y-63181857D01*
X187513783Y-63117155D01*
X187515485Y-63064099D01*
X187517626Y-63020954D01*
X187520247Y-62985986D01*
X187523388Y-62957461D01*
X187525640Y-62942094D01*
X187554603Y-62809303D01*
X187595966Y-62692460D01*
X187649985Y-62591223D01*
X187716919Y-62505246D01*
X187797024Y-62434187D01*
X187890558Y-62377699D01*
X187973263Y-62343444D01*
X188010291Y-62331610D01*
X188044585Y-62323310D01*
X188081710Y-62317745D01*
X188127234Y-62314113D01*
X188186722Y-62311614D01*
X188196605Y-62311305D01*
X188257732Y-62309899D01*
X188304153Y-62310255D01*
X188341441Y-62312819D01*
X188375168Y-62318039D01*
X188410907Y-62326361D01*
X188422495Y-62329433D01*
X188495969Y-62354697D01*
X188566291Y-62388830D01*
X188626638Y-62428259D01*
X188651638Y-62449503D01*
X188692650Y-62496183D01*
X188729506Y-62552226D01*
X188757870Y-62610209D01*
X188772101Y-62655658D01*
X188780785Y-62690648D01*
X188789262Y-62708070D01*
X188798844Y-62710616D01*
X188798905Y-62710593D01*
X188813081Y-62702946D01*
X188839856Y-62686719D01*
X188874901Y-62664580D01*
X188900954Y-62647703D01*
X188935381Y-62625171D01*
X188975423Y-62598950D01*
X189022639Y-62568017D01*
X189078587Y-62531351D01*
X189144824Y-62487932D01*
X189222908Y-62436737D01*
X189314398Y-62376746D01*
X189420852Y-62306938D01*
X189456040Y-62283862D01*
X189510720Y-62247930D01*
X189560082Y-62215355D01*
X189601436Y-62187924D01*
X189632092Y-62167421D01*
X189649361Y-62155634D01*
X189651730Y-62153910D01*
X189654906Y-62154972D01*
X189657484Y-62164615D01*
X189659498Y-62184336D01*
X189660985Y-62215632D01*
X189661981Y-62260004D01*
X189662521Y-62318947D01*
X189662641Y-62393961D01*
X189662378Y-62486544D01*
X189661890Y-62578402D01*
X189659240Y-63012914D01*
X189557640Y-63067249D01*
X189520345Y-63087117D01*
X189468819Y-63114456D01*
X189406816Y-63147281D01*
X189338088Y-63183605D01*
X189266389Y-63221443D01*
X189209750Y-63251292D01*
X189145219Y-63285543D01*
X189086997Y-63316954D01*
X189037397Y-63344238D01*
X188998727Y-63366105D01*
X188973298Y-63381270D01*
X188963420Y-63388445D01*
X188963370Y-63388620D01*
X188973122Y-63390405D01*
X189000879Y-63392042D01*
X189044326Y-63393479D01*
X189101148Y-63394667D01*
X189169029Y-63395556D01*
X189245655Y-63396095D01*
X189313800Y-63396240D01*
X189664320Y-63396240D01*
X189664320Y-64148080D01*
X188485760Y-64148080D01*
X188485760Y-63396240D01*
X188485760Y-63296462D01*
X188485127Y-63247663D01*
X188482464Y-63212782D01*
X188476618Y-63185437D01*
X188466439Y-63159246D01*
X188457820Y-63141522D01*
X188423762Y-63092325D01*
X188379236Y-63059847D01*
X188322836Y-63043280D01*
X188282880Y-63040640D01*
X188219527Y-63045145D01*
X188170435Y-63059517D01*
X188131448Y-63085042D01*
X188127477Y-63088700D01*
X188101787Y-63116245D01*
X188083910Y-63144795D01*
X188072250Y-63179119D01*
X188065208Y-63223986D01*
X188061190Y-63284163D01*
X188061067Y-63287020D01*
X188056429Y-63396240D01*
X188485760Y-63396240D01*
X188485760Y-64148080D01*
X187510400Y-64148080D01*
X187510440Y-63591820D01*
G36*
X188089520Y-64463040D02*
G01*
X188089520Y-65133600D01*
X188343217Y-65133600D01*
X188345908Y-64831340D01*
X188348600Y-64529080D01*
X188620380Y-64526375D01*
X188892160Y-64523669D01*
X188892160Y-65133600D01*
X189664320Y-65133600D01*
X189664320Y-65905760D01*
X187510400Y-65905760D01*
X187510400Y-64463040D01*
X188089520Y-64463040D01*
G37*
X188089520Y-64463040D02*
X188089520Y-65133600D01*
X188343217Y-65133600D01*
X188345908Y-64831340D01*
X188348600Y-64529080D01*
X188620380Y-64526375D01*
X188892160Y-64523669D01*
X188892160Y-65133600D01*
X189664320Y-65133600D01*
X189664320Y-65905760D01*
X187510400Y-65905760D01*
X187510400Y-64463040D01*
X188089520Y-64463040D01*
G36*
X187474944Y-58269424D02*
G01*
X187501087Y-58131777D01*
X187515583Y-58077480D01*
X187529469Y-58033716D01*
X187547636Y-57982190D01*
X187568363Y-57927195D01*
X187589926Y-57873025D01*
X187610604Y-57823972D01*
X187628675Y-57784329D01*
X187642416Y-57758389D01*
X187645334Y-57754059D01*
X187650508Y-57749869D01*
X187659342Y-57748562D01*
X187673905Y-57750843D01*
X187696270Y-57757414D01*
X187728505Y-57768979D01*
X187772683Y-57786242D01*
X187830874Y-57809908D01*
X187905148Y-57840679D01*
X187926960Y-57849767D01*
X187996366Y-57878858D01*
X188059687Y-57905684D01*
X188114483Y-57929186D01*
X188158312Y-57948309D01*
X188188734Y-57961996D01*
X188203309Y-57969190D01*
X188204111Y-57969760D01*
X188204000Y-57982072D01*
X188193041Y-58001573D01*
X188191759Y-58003240D01*
X188168772Y-58038089D01*
X188142745Y-58086336D01*
X188116433Y-58141904D01*
X188092589Y-58198713D01*
X188073969Y-58250687D01*
X188065122Y-58282686D01*
X188051374Y-58365504D01*
X188049100Y-58436611D01*
X188057931Y-58494810D01*
X188077500Y-58538909D01*
X188107439Y-58567711D01*
X188147380Y-58580022D01*
X188156813Y-58580400D01*
X188183283Y-58577637D01*
X188205889Y-58568044D01*
X188225636Y-58549667D01*
X188243528Y-58520555D01*
X188260569Y-58478752D01*
X188277762Y-58422307D01*
X188296111Y-58349264D01*
X188312198Y-58278023D01*
X188330710Y-58197308D01*
X188347793Y-58132641D01*
X188364887Y-58079956D01*
X188383433Y-58035183D01*
X188404871Y-57994255D01*
X188423323Y-57964239D01*
X188488869Y-57881039D01*
X188567851Y-57811873D01*
X188657803Y-57758531D01*
X188756255Y-57722801D01*
X188756466Y-57722746D01*
X188821509Y-57711510D01*
X188898326Y-57707006D01*
X188979547Y-57709155D01*
X189057800Y-57717875D01*
X189101266Y-57726469D01*
X189148093Y-57738207D01*
X189185142Y-57749361D01*
X189218158Y-57762416D01*
X189252887Y-57779857D01*
X189295073Y-57804168D01*
X189330528Y-57825635D01*
X189426477Y-57896002D01*
X189510296Y-57981984D01*
X189581308Y-58082410D01*
X189638833Y-58196108D01*
X189682192Y-58321908D01*
X189710707Y-58458637D01*
X189714754Y-58488694D01*
X189720654Y-58555500D01*
X189723376Y-58628335D01*
X189722793Y-58698558D01*
X189718779Y-58757530D01*
X189718702Y-58758200D01*
X189698464Y-58897861D01*
X189670694Y-59025815D01*
X189633422Y-59148765D01*
X189584679Y-59273413D01*
X189536647Y-59377737D01*
X189516271Y-59417484D01*
X189497978Y-59449306D01*
X189484086Y-59469386D01*
X189477892Y-59474446D01*
X189463340Y-59470779D01*
X189435677Y-59461130D01*
X189400491Y-59447467D01*
X189395080Y-59445263D01*
X189363759Y-59432408D01*
X189317771Y-59413511D01*
X189261239Y-59390267D01*
X189198285Y-59364370D01*
X189133032Y-59337516D01*
X189120760Y-59332463D01*
X189059937Y-59307449D01*
X189004758Y-59284799D01*
X188958242Y-59265752D01*
X188923408Y-59251542D01*
X188903275Y-59243405D01*
X188900247Y-59242215D01*
X188893452Y-59236943D01*
X188893718Y-59226484D01*
X188902322Y-59207554D01*
X188920545Y-59176872D01*
X188934025Y-59155530D01*
X188996642Y-59048282D01*
X189045399Y-58945162D01*
X189079783Y-58847853D01*
X189099284Y-58758037D01*
X189103389Y-58677397D01*
X189095886Y-58623236D01*
X189077709Y-58573960D01*
X189050295Y-58542170D01*
X189012259Y-58526613D01*
X188986981Y-58524520D01*
X188962881Y-58525557D01*
X188942977Y-58530058D01*
X188926178Y-58540113D01*
X188911395Y-58557809D01*
X188897534Y-58585235D01*
X188883507Y-58624479D01*
X188868222Y-58677629D01*
X188850587Y-58746774D01*
X188833061Y-58819160D01*
X188797176Y-58943578D01*
X188753148Y-59050004D01*
X188700401Y-59139305D01*
X188638360Y-59212349D01*
X188566450Y-59270002D01*
X188513910Y-59299746D01*
X188439225Y-59332064D01*
X188370464Y-59351912D01*
X188299282Y-59361289D01*
X188250986Y-59362720D01*
X188123688Y-59353257D01*
X188004210Y-59325296D01*
X187893552Y-59279482D01*
X187792717Y-59216459D01*
X187702707Y-59136873D01*
X187624521Y-59041367D01*
X187559163Y-58930587D01*
X187550017Y-58911603D01*
X187508029Y-58800554D01*
X187479388Y-58677438D01*
X187464234Y-58545628D01*
X187462706Y-58408499D01*
X187474944Y-58269424D01*
G37*
X187474944Y-58269424D02*
X187501087Y-58131777D01*
X187515583Y-58077480D01*
X187529469Y-58033716D01*
X187547636Y-57982190D01*
X187568363Y-57927195D01*
X187589926Y-57873025D01*
X187610604Y-57823972D01*
X187628675Y-57784329D01*
X187642416Y-57758389D01*
X187645334Y-57754059D01*
X187650508Y-57749869D01*
X187659342Y-57748562D01*
X187673905Y-57750843D01*
X187696270Y-57757414D01*
X187728505Y-57768979D01*
X187772683Y-57786242D01*
X187830874Y-57809908D01*
X187905148Y-57840679D01*
X187926960Y-57849767D01*
X187996366Y-57878858D01*
X188059687Y-57905684D01*
X188114483Y-57929186D01*
X188158312Y-57948309D01*
X188188734Y-57961996D01*
X188203309Y-57969190D01*
X188204111Y-57969760D01*
X188204000Y-57982072D01*
X188193041Y-58001573D01*
X188191759Y-58003240D01*
X188168772Y-58038089D01*
X188142745Y-58086336D01*
X188116433Y-58141904D01*
X188092589Y-58198713D01*
X188073969Y-58250687D01*
X188065122Y-58282686D01*
X188051374Y-58365504D01*
X188049100Y-58436611D01*
X188057931Y-58494810D01*
X188077500Y-58538909D01*
X188107439Y-58567711D01*
X188147380Y-58580022D01*
X188156813Y-58580400D01*
X188183283Y-58577637D01*
X188205889Y-58568044D01*
X188225636Y-58549667D01*
X188243528Y-58520555D01*
X188260569Y-58478752D01*
X188277762Y-58422307D01*
X188296111Y-58349264D01*
X188312198Y-58278023D01*
X188330710Y-58197308D01*
X188347793Y-58132641D01*
X188364887Y-58079956D01*
X188383433Y-58035183D01*
X188404871Y-57994255D01*
X188423323Y-57964239D01*
X188488869Y-57881039D01*
X188567851Y-57811873D01*
X188657803Y-57758531D01*
X188756255Y-57722801D01*
X188756466Y-57722746D01*
X188821509Y-57711510D01*
X188898326Y-57707006D01*
X188979547Y-57709155D01*
X189057800Y-57717875D01*
X189101266Y-57726469D01*
X189148093Y-57738207D01*
X189185142Y-57749361D01*
X189218158Y-57762416D01*
X189252887Y-57779857D01*
X189295073Y-57804168D01*
X189330528Y-57825635D01*
X189426477Y-57896002D01*
X189510296Y-57981984D01*
X189581308Y-58082410D01*
X189638833Y-58196108D01*
X189682192Y-58321908D01*
X189710707Y-58458637D01*
X189714754Y-58488694D01*
X189720654Y-58555500D01*
X189723376Y-58628335D01*
X189722793Y-58698558D01*
X189718779Y-58757530D01*
X189718702Y-58758200D01*
X189698464Y-58897861D01*
X189670694Y-59025815D01*
X189633422Y-59148765D01*
X189584679Y-59273413D01*
X189536647Y-59377737D01*
X189516271Y-59417484D01*
X189497978Y-59449306D01*
X189484086Y-59469386D01*
X189477892Y-59474446D01*
X189463340Y-59470779D01*
X189435677Y-59461130D01*
X189400491Y-59447467D01*
X189395080Y-59445263D01*
X189363759Y-59432408D01*
X189317771Y-59413511D01*
X189261239Y-59390267D01*
X189198285Y-59364370D01*
X189133032Y-59337516D01*
X189120760Y-59332463D01*
X189059937Y-59307449D01*
X189004758Y-59284799D01*
X188958242Y-59265752D01*
X188923408Y-59251542D01*
X188903275Y-59243405D01*
X188900247Y-59242215D01*
X188893452Y-59236943D01*
X188893718Y-59226484D01*
X188902322Y-59207554D01*
X188920545Y-59176872D01*
X188934025Y-59155530D01*
X188996642Y-59048282D01*
X189045399Y-58945162D01*
X189079783Y-58847853D01*
X189099284Y-58758037D01*
X189103389Y-58677397D01*
X189095886Y-58623236D01*
X189077709Y-58573960D01*
X189050295Y-58542170D01*
X189012259Y-58526613D01*
X188986981Y-58524520D01*
X188962881Y-58525557D01*
X188942977Y-58530058D01*
X188926178Y-58540113D01*
X188911395Y-58557809D01*
X188897534Y-58585235D01*
X188883507Y-58624479D01*
X188868222Y-58677629D01*
X188850587Y-58746774D01*
X188833061Y-58819160D01*
X188797176Y-58943578D01*
X188753148Y-59050004D01*
X188700401Y-59139305D01*
X188638360Y-59212349D01*
X188566450Y-59270002D01*
X188513910Y-59299746D01*
X188439225Y-59332064D01*
X188370464Y-59351912D01*
X188299282Y-59361289D01*
X188250986Y-59362720D01*
X188123688Y-59353257D01*
X188004210Y-59325296D01*
X187893552Y-59279482D01*
X187792717Y-59216459D01*
X187702707Y-59136873D01*
X187624521Y-59041367D01*
X187559163Y-58930587D01*
X187550017Y-58911603D01*
X187508029Y-58800554D01*
X187479388Y-58677438D01*
X187464234Y-58545628D01*
X187462706Y-58408499D01*
X187474944Y-58269424D01*
G36*
X187467467Y-60736671D02*
G01*
X187473632Y-60647037D01*
X187485302Y-60566744D01*
X187503583Y-60490436D01*
X187529581Y-60412758D01*
X187564404Y-60328354D01*
X187577780Y-60298637D01*
X187620863Y-60219220D01*
X187677651Y-60136610D01*
X187743610Y-60056563D01*
X187814204Y-59984840D01*
X187848326Y-59955123D01*
X187906826Y-59908459D01*
X187955406Y-59872540D01*
X187992813Y-59848194D01*
X188017788Y-59836247D01*
X188028428Y-59836583D01*
X188034340Y-59848476D01*
X188045909Y-59876374D01*
X188061913Y-59917161D01*
X188081131Y-59967721D01*
X188102342Y-60024939D01*
X188103536Y-60028200D01*
X188129587Y-60099248D01*
X188158096Y-60176737D01*
X188186455Y-60253593D01*
X188212054Y-60322742D01*
X188225182Y-60358068D01*
X188279921Y-60505056D01*
X188216739Y-60566348D01*
X188166298Y-60623272D01*
X188133184Y-60681509D01*
X188115123Y-60746463D01*
X188109840Y-60820680D01*
X188118682Y-60907201D01*
X188144799Y-60983571D01*
X188187575Y-61049276D01*
X188246393Y-61103801D01*
X188320637Y-61146629D01*
X188409692Y-61177247D01*
X188512942Y-61195138D01*
X188561960Y-61198811D01*
X188671258Y-61196971D01*
X188769922Y-61180879D01*
X188856757Y-61151126D01*
X188930570Y-61108301D01*
X188990165Y-61052996D01*
X189034350Y-60985802D01*
X189046051Y-60959335D01*
X189058392Y-60921471D01*
X189065624Y-60880907D01*
X189068840Y-60830379D01*
X189069250Y-60805440D01*
X189068939Y-60757495D01*
X189066348Y-60723064D01*
X189060247Y-60695366D01*
X189049403Y-60667623D01*
X189041029Y-60650002D01*
X189012967Y-60605656D01*
X188978459Y-60570349D01*
X188941838Y-60547753D01*
X188912681Y-60541280D01*
X188905109Y-60542168D01*
X188899672Y-60546752D01*
X188896017Y-60557913D01*
X188893791Y-60578533D01*
X188892641Y-60611494D01*
X188892216Y-60659676D01*
X188892160Y-60708920D01*
X188892160Y-60876560D01*
X188383997Y-60876560D01*
X188386618Y-60279660D01*
X188389240Y-59682760D01*
X188506080Y-59679577D01*
X188658689Y-59683073D01*
X188806231Y-59701536D01*
X188945406Y-59734338D01*
X189072918Y-59780850D01*
X189098177Y-59792430D01*
X189223767Y-59863216D01*
X189337051Y-59949267D01*
X189437289Y-60049142D01*
X189523743Y-60161399D01*
X189595674Y-60284599D01*
X189652341Y-60417298D01*
X189693005Y-60558055D01*
X189716927Y-60705430D01*
X189723368Y-60857981D01*
X189714222Y-60993400D01*
X189687106Y-61141459D01*
X189642434Y-61281626D01*
X189581372Y-61412656D01*
X189505089Y-61533305D01*
X189414752Y-61642328D01*
X189311528Y-61738479D01*
X189196585Y-61820515D01*
X189071090Y-61887190D01*
X188936210Y-61937259D01*
X188799871Y-61968403D01*
X188655666Y-61983100D01*
X188510855Y-61981245D01*
X188368384Y-61963450D01*
X188231205Y-61930329D01*
X188102266Y-61882494D01*
X187984516Y-61820558D01*
X187937120Y-61789075D01*
X187821745Y-61696361D01*
X187723155Y-61594207D01*
X187640360Y-61481136D01*
X187572367Y-61355671D01*
X187518186Y-61216337D01*
X187492004Y-61125892D01*
X187482294Y-61086090D01*
X187475298Y-61050823D01*
X187470579Y-61015364D01*
X187467702Y-60974989D01*
X187466229Y-60924973D01*
X187465725Y-60860590D01*
X187465698Y-60841000D01*
X187467467Y-60736671D01*
G37*
X187467467Y-60736671D02*
X187473632Y-60647037D01*
X187485302Y-60566744D01*
X187503583Y-60490436D01*
X187529581Y-60412758D01*
X187564404Y-60328354D01*
X187577780Y-60298637D01*
X187620863Y-60219220D01*
X187677651Y-60136610D01*
X187743610Y-60056563D01*
X187814204Y-59984840D01*
X187848326Y-59955123D01*
X187906826Y-59908459D01*
X187955406Y-59872540D01*
X187992813Y-59848194D01*
X188017788Y-59836247D01*
X188028428Y-59836583D01*
X188034340Y-59848476D01*
X188045909Y-59876374D01*
X188061913Y-59917161D01*
X188081131Y-59967721D01*
X188102342Y-60024939D01*
X188103536Y-60028200D01*
X188129587Y-60099248D01*
X188158096Y-60176737D01*
X188186455Y-60253593D01*
X188212054Y-60322742D01*
X188225182Y-60358068D01*
X188279921Y-60505056D01*
X188216739Y-60566348D01*
X188166298Y-60623272D01*
X188133184Y-60681509D01*
X188115123Y-60746463D01*
X188109840Y-60820680D01*
X188118682Y-60907201D01*
X188144799Y-60983571D01*
X188187575Y-61049276D01*
X188246393Y-61103801D01*
X188320637Y-61146629D01*
X188409692Y-61177247D01*
X188512942Y-61195138D01*
X188561960Y-61198811D01*
X188671258Y-61196971D01*
X188769922Y-61180879D01*
X188856757Y-61151126D01*
X188930570Y-61108301D01*
X188990165Y-61052996D01*
X189034350Y-60985802D01*
X189046051Y-60959335D01*
X189058392Y-60921471D01*
X189065624Y-60880907D01*
X189068840Y-60830379D01*
X189069250Y-60805440D01*
X189068939Y-60757495D01*
X189066348Y-60723064D01*
X189060247Y-60695366D01*
X189049403Y-60667623D01*
X189041029Y-60650002D01*
X189012967Y-60605656D01*
X188978459Y-60570349D01*
X188941838Y-60547753D01*
X188912681Y-60541280D01*
X188905109Y-60542168D01*
X188899672Y-60546752D01*
X188896017Y-60557913D01*
X188893791Y-60578533D01*
X188892641Y-60611494D01*
X188892216Y-60659676D01*
X188892160Y-60708920D01*
X188892160Y-60876560D01*
X188383997Y-60876560D01*
X188386618Y-60279660D01*
X188389240Y-59682760D01*
X188506080Y-59679577D01*
X188658689Y-59683073D01*
X188806231Y-59701536D01*
X188945406Y-59734338D01*
X189072918Y-59780850D01*
X189098177Y-59792430D01*
X189223767Y-59863216D01*
X189337051Y-59949267D01*
X189437289Y-60049142D01*
X189523743Y-60161399D01*
X189595674Y-60284599D01*
X189652341Y-60417298D01*
X189693005Y-60558055D01*
X189716927Y-60705430D01*
X189723368Y-60857981D01*
X189714222Y-60993400D01*
X189687106Y-61141459D01*
X189642434Y-61281626D01*
X189581372Y-61412656D01*
X189505089Y-61533305D01*
X189414752Y-61642328D01*
X189311528Y-61738479D01*
X189196585Y-61820515D01*
X189071090Y-61887190D01*
X188936210Y-61937259D01*
X188799871Y-61968403D01*
X188655666Y-61983100D01*
X188510855Y-61981245D01*
X188368384Y-61963450D01*
X188231205Y-61930329D01*
X188102266Y-61882494D01*
X187984516Y-61820558D01*
X187937120Y-61789075D01*
X187821745Y-61696361D01*
X187723155Y-61594207D01*
X187640360Y-61481136D01*
X187572367Y-61355671D01*
X187518186Y-61216337D01*
X187492004Y-61125892D01*
X187482294Y-61086090D01*
X187475298Y-61050823D01*
X187470579Y-61015364D01*
X187467702Y-60974989D01*
X187466229Y-60924973D01*
X187465725Y-60860590D01*
X187465698Y-60841000D01*
X187467467Y-60736671D01*
G36*
X188168665Y-67500880D02*
G01*
X188304286Y-67500821D01*
X188421123Y-67500620D01*
X188520710Y-67500244D01*
X188604582Y-67499660D01*
X188674275Y-67498836D01*
X188731323Y-67497737D01*
X188777261Y-67496331D01*
X188813625Y-67494585D01*
X188841949Y-67492466D01*
X188863769Y-67489939D01*
X188880619Y-67486973D01*
X188887485Y-67485360D01*
X188948738Y-67464503D01*
X188992578Y-67436432D01*
X189021395Y-67398489D01*
X189037577Y-67348019D01*
X189041988Y-67313569D01*
X189041020Y-67243158D01*
X189025122Y-67186065D01*
X188993470Y-67140975D01*
X188945238Y-67106580D01*
X188899923Y-67087747D01*
X188887693Y-67084169D01*
X188873065Y-67081078D01*
X188854484Y-67078428D01*
X188830399Y-67076172D01*
X188799255Y-67074264D01*
X188759499Y-67072659D01*
X188709579Y-67071310D01*
X188647941Y-67070172D01*
X188573031Y-67069198D01*
X188483297Y-67068343D01*
X188377185Y-67067561D01*
X188253143Y-67066806D01*
X188178420Y-67066394D01*
X187510400Y-67062807D01*
X187510400Y-66290265D01*
X188213980Y-66294355D01*
X188353394Y-66295211D01*
X188474090Y-66296072D01*
X188577671Y-66296984D01*
X188665738Y-66297989D01*
X188739894Y-66299134D01*
X188801741Y-66300463D01*
X188852881Y-66302019D01*
X188894917Y-66303848D01*
X188929450Y-66305995D01*
X188958083Y-66308503D01*
X188982417Y-66311417D01*
X189004056Y-66314783D01*
X189014080Y-66316594D01*
X189120243Y-66341116D01*
X189211438Y-66372969D01*
X189292417Y-66414585D01*
X189367932Y-66468397D01*
X189441056Y-66535147D01*
X189526079Y-66632220D01*
X189594294Y-66736884D01*
X189647426Y-66852222D01*
X189684057Y-66968792D01*
X189705394Y-67073399D01*
X189718765Y-67185941D01*
X189723523Y-67298096D01*
X189719025Y-67401545D01*
X189718219Y-67409440D01*
X189695378Y-67549610D01*
X189658238Y-67681876D01*
X189607786Y-67804240D01*
X189545007Y-67914702D01*
X189470888Y-68011264D01*
X189386415Y-68091926D01*
X189378395Y-68098293D01*
X189321374Y-68140420D01*
X189270300Y-68171846D01*
X189217383Y-68196841D01*
X189160420Y-68217813D01*
X189129056Y-68228000D01*
X189098735Y-68236854D01*
X189067837Y-68244468D01*
X189034739Y-68250935D01*
X188997820Y-68256348D01*
X188955459Y-68260800D01*
X188906034Y-68264384D01*
X188847924Y-68267192D01*
X188779508Y-68269319D01*
X188699163Y-68270856D01*
X188605269Y-68271898D01*
X188496204Y-68272536D01*
X188370347Y-68272865D01*
X188226075Y-68272976D01*
X188198740Y-68272981D01*
X187510400Y-68273040D01*
X187510400Y-67500880D01*
X188168665Y-67500880D01*
G37*
X188168665Y-67500880D02*
X188304286Y-67500821D01*
X188421123Y-67500620D01*
X188520710Y-67500244D01*
X188604582Y-67499660D01*
X188674275Y-67498836D01*
X188731323Y-67497737D01*
X188777261Y-67496331D01*
X188813625Y-67494585D01*
X188841949Y-67492466D01*
X188863769Y-67489939D01*
X188880619Y-67486973D01*
X188887485Y-67485360D01*
X188948738Y-67464503D01*
X188992578Y-67436432D01*
X189021395Y-67398489D01*
X189037577Y-67348019D01*
X189041988Y-67313569D01*
X189041020Y-67243158D01*
X189025122Y-67186065D01*
X188993470Y-67140975D01*
X188945238Y-67106580D01*
X188899923Y-67087747D01*
X188887693Y-67084169D01*
X188873065Y-67081078D01*
X188854484Y-67078428D01*
X188830399Y-67076172D01*
X188799255Y-67074264D01*
X188759499Y-67072659D01*
X188709579Y-67071310D01*
X188647941Y-67070172D01*
X188573031Y-67069198D01*
X188483297Y-67068343D01*
X188377185Y-67067561D01*
X188253143Y-67066806D01*
X188178420Y-67066394D01*
X187510400Y-67062807D01*
X187510400Y-66290265D01*
X188213980Y-66294355D01*
X188353394Y-66295211D01*
X188474090Y-66296072D01*
X188577671Y-66296984D01*
X188665738Y-66297989D01*
X188739894Y-66299134D01*
X188801741Y-66300463D01*
X188852881Y-66302019D01*
X188894917Y-66303848D01*
X188929450Y-66305995D01*
X188958083Y-66308503D01*
X188982417Y-66311417D01*
X189004056Y-66314783D01*
X189014080Y-66316594D01*
X189120243Y-66341116D01*
X189211438Y-66372969D01*
X189292417Y-66414585D01*
X189367932Y-66468397D01*
X189441056Y-66535147D01*
X189526079Y-66632220D01*
X189594294Y-66736884D01*
X189647426Y-66852222D01*
X189684057Y-66968792D01*
X189705394Y-67073399D01*
X189718765Y-67185941D01*
X189723523Y-67298096D01*
X189719025Y-67401545D01*
X189718219Y-67409440D01*
X189695378Y-67549610D01*
X189658238Y-67681876D01*
X189607786Y-67804240D01*
X189545007Y-67914702D01*
X189470888Y-68011264D01*
X189386415Y-68091926D01*
X189378395Y-68098293D01*
X189321374Y-68140420D01*
X189270300Y-68171846D01*
X189217383Y-68196841D01*
X189160420Y-68217813D01*
X189129056Y-68228000D01*
X189098735Y-68236854D01*
X189067837Y-68244468D01*
X189034739Y-68250935D01*
X188997820Y-68256348D01*
X188955459Y-68260800D01*
X188906034Y-68264384D01*
X188847924Y-68267192D01*
X188779508Y-68269319D01*
X188699163Y-68270856D01*
X188605269Y-68271898D01*
X188496204Y-68272536D01*
X188370347Y-68272865D01*
X188226075Y-68272976D01*
X188198740Y-68272981D01*
X187510400Y-68273040D01*
X187510400Y-67500880D01*
X188168665Y-67500880D01*
D12*
X154360000Y-64847936D02*
X154360000Y-66052064D01*
X152540000Y-64847936D02*
X152540000Y-66052064D01*
X161646000Y-47700000D02*
G75*
G03X161646000Y-47700000I-1760000J0D01*
G01*
X164686000Y-40200000D02*
X155086000Y-40200000D01*
X155086000Y-40200000D02*
X155086000Y-62850000D01*
X164686000Y-40200000D02*
X164686000Y-62850000D01*
X155086000Y-53000000D02*
X164686000Y-53000000D01*
X155086000Y-62850000D02*
X164686000Y-62850000D01*
X176009000Y-87820000D02*
X176009000Y-86310000D01*
X179710000Y-87820000D02*
X179710000Y-86310000D01*
X182980000Y-86310000D02*
X172740000Y-86310000D01*
X172740000Y-87820000D02*
X172740000Y-83179000D01*
X182980000Y-87820000D02*
X182980000Y-83179000D01*
X182980000Y-83179000D02*
X172740000Y-83179000D01*
X182980000Y-87820000D02*
X172740000Y-87820000D01*
X165280000Y-87570000D02*
X155040000Y-87570000D01*
X165280000Y-82929000D02*
X155040000Y-82929000D01*
X165280000Y-87570000D02*
X165280000Y-82929000D01*
X155040000Y-87570000D02*
X155040000Y-82929000D01*
X165280000Y-86060000D02*
X155040000Y-86060000D01*
X162010000Y-87570000D02*
X162010000Y-86060000D01*
X158309000Y-87570000D02*
X158309000Y-86060000D01*
X163941422Y-71640000D02*
X164458578Y-71640000D01*
X163941422Y-73060000D02*
X164458578Y-73060000D01*
X164458578Y-69540000D02*
X163941422Y-69540000D01*
X164458578Y-70960000D02*
X163941422Y-70960000D01*
X177778922Y-71540000D02*
X178296078Y-71540000D01*
X177778922Y-72960000D02*
X178296078Y-72960000D01*
X178296078Y-69090000D02*
X177778922Y-69090000D01*
X178296078Y-70510000D02*
X177778922Y-70510000D01*
X177791422Y-75310000D02*
X178308578Y-75310000D01*
X177791422Y-73890000D02*
X178308578Y-73890000D01*
X177791422Y-76290000D02*
X178308578Y-76290000D01*
X177791422Y-77710000D02*
X178308578Y-77710000D01*
X178358578Y-78440000D02*
X177841422Y-78440000D01*
X178358578Y-79860000D02*
X177841422Y-79860000D01*
X163941422Y-75840000D02*
X164458578Y-75840000D01*
X163941422Y-77260000D02*
X164458578Y-77260000D01*
X158176000Y-64111000D02*
X160140000Y-64111000D01*
X155400000Y-64111000D02*
X157186000Y-64111000D01*
X158176000Y-71061000D02*
X160140000Y-71061000D01*
X155400000Y-71061000D02*
X157186000Y-71061000D01*
X160140000Y-71061000D02*
X160140000Y-64111000D01*
X155400000Y-71061000D02*
X155400000Y-64111000D01*
X171300000Y-70490000D02*
X169350000Y-70490000D01*
X171300000Y-70490000D02*
X173250000Y-70490000D01*
X171300000Y-75610000D02*
X169350000Y-75610000D01*
X171300000Y-75610000D02*
X174750000Y-75610000D01*
X173300000Y-62850000D02*
X182900000Y-62850000D01*
X173300000Y-53000000D02*
X182900000Y-53000000D01*
X182900000Y-40200000D02*
X182900000Y-62850000D01*
X173300000Y-40200000D02*
X173300000Y-62850000D01*
X182900000Y-40200000D02*
X173300000Y-40200000D01*
X179860000Y-47700000D02*
G75*
G03X179860000Y-47700000I-1760000J0D01*
G01*
X152340000Y-72640000D02*
X152340000Y-75390000D01*
X152340000Y-81160000D02*
X152340000Y-78410000D01*
X159795563Y-81160000D02*
X152340000Y-81160000D01*
X159795563Y-72640000D02*
X152340000Y-72640000D01*
X160860000Y-73704437D02*
X160860000Y-75390000D01*
X160860000Y-80095563D02*
X160860000Y-78410000D01*
X160860000Y-80095563D02*
X159795563Y-81160000D01*
X160860000Y-73704437D02*
X159795563Y-72640000D01*
X162100000Y-79410000D02*
X161100000Y-79410000D01*
X161600000Y-79910000D02*
X161600000Y-78910000D01*
D10*
X153378571Y-61084333D02*
X153378571Y-61417666D01*
X153902380Y-61417666D02*
X152902380Y-61417666D01*
X152902380Y-60941476D01*
X153902380Y-60036714D02*
X153902380Y-60608142D01*
X153902380Y-60322428D02*
X152902380Y-60322428D01*
X153045238Y-60417666D01*
X153140476Y-60512904D01*
X153188095Y-60608142D01*
X159566666Y-63452380D02*
X159566666Y-64166666D01*
X159519047Y-64309523D01*
X159423809Y-64404761D01*
X159280952Y-64452380D01*
X159185714Y-64452380D01*
X160566666Y-64452380D02*
X159995238Y-64452380D01*
X160280952Y-64452380D02*
X160280952Y-63452380D01*
X160185714Y-63595238D01*
X160090476Y-63690476D01*
X159995238Y-63738095D01*
X177764761Y-82747619D02*
X177669523Y-82700000D01*
X177574285Y-82604761D01*
X177431428Y-82461904D01*
X177336190Y-82414285D01*
X177240952Y-82414285D01*
X177288571Y-82652380D02*
X177193333Y-82604761D01*
X177098095Y-82509523D01*
X177050476Y-82319047D01*
X177050476Y-81985714D01*
X177098095Y-81795238D01*
X177193333Y-81700000D01*
X177288571Y-81652380D01*
X177479047Y-81652380D01*
X177574285Y-81700000D01*
X177669523Y-81795238D01*
X177717142Y-81985714D01*
X177717142Y-82319047D01*
X177669523Y-82509523D01*
X177574285Y-82604761D01*
X177479047Y-82652380D01*
X177288571Y-82652380D01*
X178669523Y-82652380D02*
X178098095Y-82652380D01*
X178383809Y-82652380D02*
X178383809Y-81652380D01*
X178288571Y-81795238D01*
X178193333Y-81890476D01*
X178098095Y-81938095D01*
X160064761Y-82447619D02*
X159969523Y-82400000D01*
X159874285Y-82304761D01*
X159731428Y-82161904D01*
X159636190Y-82114285D01*
X159540952Y-82114285D01*
X159588571Y-82352380D02*
X159493333Y-82304761D01*
X159398095Y-82209523D01*
X159350476Y-82019047D01*
X159350476Y-81685714D01*
X159398095Y-81495238D01*
X159493333Y-81400000D01*
X159588571Y-81352380D01*
X159779047Y-81352380D01*
X159874285Y-81400000D01*
X159969523Y-81495238D01*
X160017142Y-81685714D01*
X160017142Y-82019047D01*
X159969523Y-82209523D01*
X159874285Y-82304761D01*
X159779047Y-82352380D01*
X159588571Y-82352380D01*
X160398095Y-81447619D02*
X160445714Y-81400000D01*
X160540952Y-81352380D01*
X160779047Y-81352380D01*
X160874285Y-81400000D01*
X160921904Y-81447619D01*
X160969523Y-81542857D01*
X160969523Y-81638095D01*
X160921904Y-81780952D01*
X160350476Y-82352380D01*
X160969523Y-82352380D01*
X161133333Y-70652380D02*
X160800000Y-70176190D01*
X160561904Y-70652380D02*
X160561904Y-69652380D01*
X160942857Y-69652380D01*
X161038095Y-69700000D01*
X161085714Y-69747619D01*
X161133333Y-69842857D01*
X161133333Y-69985714D01*
X161085714Y-70080952D01*
X161038095Y-70128571D01*
X160942857Y-70176190D01*
X160561904Y-70176190D01*
X162085714Y-70652380D02*
X161514285Y-70652380D01*
X161800000Y-70652380D02*
X161800000Y-69652380D01*
X161704761Y-69795238D01*
X161609523Y-69890476D01*
X161514285Y-69938095D01*
X161183333Y-72702380D02*
X160850000Y-72226190D01*
X160611904Y-72702380D02*
X160611904Y-71702380D01*
X160992857Y-71702380D01*
X161088095Y-71750000D01*
X161135714Y-71797619D01*
X161183333Y-71892857D01*
X161183333Y-72035714D01*
X161135714Y-72130952D01*
X161088095Y-72178571D01*
X160992857Y-72226190D01*
X160611904Y-72226190D01*
X161564285Y-71797619D02*
X161611904Y-71750000D01*
X161707142Y-71702380D01*
X161945238Y-71702380D01*
X162040476Y-71750000D01*
X162088095Y-71797619D01*
X162135714Y-71892857D01*
X162135714Y-71988095D01*
X162088095Y-72130952D01*
X161516666Y-72702380D01*
X162135714Y-72702380D01*
X180583333Y-70252380D02*
X180250000Y-69776190D01*
X180011904Y-70252380D02*
X180011904Y-69252380D01*
X180392857Y-69252380D01*
X180488095Y-69300000D01*
X180535714Y-69347619D01*
X180583333Y-69442857D01*
X180583333Y-69585714D01*
X180535714Y-69680952D01*
X180488095Y-69728571D01*
X180392857Y-69776190D01*
X180011904Y-69776190D01*
X180916666Y-69252380D02*
X181535714Y-69252380D01*
X181202380Y-69633333D01*
X181345238Y-69633333D01*
X181440476Y-69680952D01*
X181488095Y-69728571D01*
X181535714Y-69823809D01*
X181535714Y-70061904D01*
X181488095Y-70157142D01*
X181440476Y-70204761D01*
X181345238Y-70252380D01*
X181059523Y-70252380D01*
X180964285Y-70204761D01*
X180916666Y-70157142D01*
X180683333Y-72752380D02*
X180350000Y-72276190D01*
X180111904Y-72752380D02*
X180111904Y-71752380D01*
X180492857Y-71752380D01*
X180588095Y-71800000D01*
X180635714Y-71847619D01*
X180683333Y-71942857D01*
X180683333Y-72085714D01*
X180635714Y-72180952D01*
X180588095Y-72228571D01*
X180492857Y-72276190D01*
X180111904Y-72276190D01*
X181540476Y-72085714D02*
X181540476Y-72752380D01*
X181302380Y-71704761D02*
X181064285Y-72419047D01*
X181683333Y-72419047D01*
X180733333Y-75052380D02*
X180400000Y-74576190D01*
X180161904Y-75052380D02*
X180161904Y-74052380D01*
X180542857Y-74052380D01*
X180638095Y-74100000D01*
X180685714Y-74147619D01*
X180733333Y-74242857D01*
X180733333Y-74385714D01*
X180685714Y-74480952D01*
X180638095Y-74528571D01*
X180542857Y-74576190D01*
X180161904Y-74576190D01*
X181638095Y-74052380D02*
X181161904Y-74052380D01*
X181114285Y-74528571D01*
X181161904Y-74480952D01*
X181257142Y-74433333D01*
X181495238Y-74433333D01*
X181590476Y-74480952D01*
X181638095Y-74528571D01*
X181685714Y-74623809D01*
X181685714Y-74861904D01*
X181638095Y-74957142D01*
X181590476Y-75004761D01*
X181495238Y-75052380D01*
X181257142Y-75052380D01*
X181161904Y-75004761D01*
X181114285Y-74957142D01*
X180733333Y-77402380D02*
X180400000Y-76926190D01*
X180161904Y-77402380D02*
X180161904Y-76402380D01*
X180542857Y-76402380D01*
X180638095Y-76450000D01*
X180685714Y-76497619D01*
X180733333Y-76592857D01*
X180733333Y-76735714D01*
X180685714Y-76830952D01*
X180638095Y-76878571D01*
X180542857Y-76926190D01*
X180161904Y-76926190D01*
X181590476Y-76402380D02*
X181400000Y-76402380D01*
X181304761Y-76450000D01*
X181257142Y-76497619D01*
X181161904Y-76640476D01*
X181114285Y-76830952D01*
X181114285Y-77211904D01*
X181161904Y-77307142D01*
X181209523Y-77354761D01*
X181304761Y-77402380D01*
X181495238Y-77402380D01*
X181590476Y-77354761D01*
X181638095Y-77307142D01*
X181685714Y-77211904D01*
X181685714Y-76973809D01*
X181638095Y-76878571D01*
X181590476Y-76830952D01*
X181495238Y-76783333D01*
X181304761Y-76783333D01*
X181209523Y-76830952D01*
X181161904Y-76878571D01*
X181114285Y-76973809D01*
X180733333Y-79652380D02*
X180400000Y-79176190D01*
X180161904Y-79652380D02*
X180161904Y-78652380D01*
X180542857Y-78652380D01*
X180638095Y-78700000D01*
X180685714Y-78747619D01*
X180733333Y-78842857D01*
X180733333Y-78985714D01*
X180685714Y-79080952D01*
X180638095Y-79128571D01*
X180542857Y-79176190D01*
X180161904Y-79176190D01*
X181066666Y-78652380D02*
X181733333Y-78652380D01*
X181304761Y-79652380D01*
X161233333Y-77002380D02*
X160900000Y-76526190D01*
X160661904Y-77002380D02*
X160661904Y-76002380D01*
X161042857Y-76002380D01*
X161138095Y-76050000D01*
X161185714Y-76097619D01*
X161233333Y-76192857D01*
X161233333Y-76335714D01*
X161185714Y-76430952D01*
X161138095Y-76478571D01*
X161042857Y-76526190D01*
X160661904Y-76526190D01*
X161804761Y-76430952D02*
X161709523Y-76383333D01*
X161661904Y-76335714D01*
X161614285Y-76240476D01*
X161614285Y-76192857D01*
X161661904Y-76097619D01*
X161709523Y-76050000D01*
X161804761Y-76002380D01*
X161995238Y-76002380D01*
X162090476Y-76050000D01*
X162138095Y-76097619D01*
X162185714Y-76192857D01*
X162185714Y-76240476D01*
X162138095Y-76335714D01*
X162090476Y-76383333D01*
X161995238Y-76430952D01*
X161804761Y-76430952D01*
X161709523Y-76478571D01*
X161661904Y-76526190D01*
X161614285Y-76621428D01*
X161614285Y-76811904D01*
X161661904Y-76907142D01*
X161709523Y-76954761D01*
X161804761Y-77002380D01*
X161995238Y-77002380D01*
X162090476Y-76954761D01*
X162138095Y-76907142D01*
X162185714Y-76811904D01*
X162185714Y-76621428D01*
X162138095Y-76526190D01*
X162090476Y-76478571D01*
X161995238Y-76430952D01*
X157204761Y-72552380D02*
X156871428Y-72076190D01*
X156633333Y-72552380D02*
X156633333Y-71552380D01*
X157014285Y-71552380D01*
X157109523Y-71600000D01*
X157157142Y-71647619D01*
X157204761Y-71742857D01*
X157204761Y-71885714D01*
X157157142Y-71980952D01*
X157109523Y-72028571D01*
X157014285Y-72076190D01*
X156633333Y-72076190D01*
X157490476Y-71552380D02*
X157823809Y-72552380D01*
X158157142Y-71552380D01*
X159014285Y-72552380D02*
X158442857Y-72552380D01*
X158728571Y-72552380D02*
X158728571Y-71552380D01*
X158633333Y-71695238D01*
X158538095Y-71790476D01*
X158442857Y-71838095D01*
X170538095Y-75902380D02*
X170538095Y-76711904D01*
X170585714Y-76807142D01*
X170633333Y-76854761D01*
X170728571Y-76902380D01*
X170919047Y-76902380D01*
X171014285Y-76854761D01*
X171061904Y-76807142D01*
X171109523Y-76711904D01*
X171109523Y-75902380D01*
X172109523Y-76902380D02*
X171538095Y-76902380D01*
X171823809Y-76902380D02*
X171823809Y-75902380D01*
X171728571Y-76045238D01*
X171633333Y-76140476D01*
X171538095Y-76188095D01*
X177746666Y-63252380D02*
X177746666Y-63966666D01*
X177699047Y-64109523D01*
X177603809Y-64204761D01*
X177460952Y-64252380D01*
X177365714Y-64252380D01*
X178175238Y-63347619D02*
X178222857Y-63300000D01*
X178318095Y-63252380D01*
X178556190Y-63252380D01*
X178651428Y-63300000D01*
X178699047Y-63347619D01*
X178746666Y-63442857D01*
X178746666Y-63538095D01*
X178699047Y-63680952D01*
X178127619Y-64252380D01*
X178746666Y-64252380D01*
X156433333Y-82457142D02*
X156385714Y-82504761D01*
X156242857Y-82552380D01*
X156147619Y-82552380D01*
X156004761Y-82504761D01*
X155909523Y-82409523D01*
X155861904Y-82314285D01*
X155814285Y-82123809D01*
X155814285Y-81980952D01*
X155861904Y-81790476D01*
X155909523Y-81695238D01*
X156004761Y-81600000D01*
X156147619Y-81552380D01*
X156242857Y-81552380D01*
X156385714Y-81600000D01*
X156433333Y-81647619D01*
X157385714Y-82552380D02*
X156814285Y-82552380D01*
X157100000Y-82552380D02*
X157100000Y-81552380D01*
X157004761Y-81695238D01*
X156909523Y-81790476D01*
X156814285Y-81838095D01*
M02*
