G04 #@! TF.GenerationSoftware,KiCad,Pcbnew,(5.1.5)-3*
G04 #@! TF.CreationDate,2020-09-18T03:55:18-03:00*
G04 #@! TF.ProjectId,Pre charge & discharge,50726520-6368-4617-9267-652026206469,rev?*
G04 #@! TF.SameCoordinates,Original*
G04 #@! TF.FileFunction,Paste,Top*
G04 #@! TF.FilePolarity,Positive*
%FSLAX46Y46*%
G04 Gerber Fmt 4.6, Leading zero omitted, Abs format (unit mm)*
G04 Created by KiCad (PCBNEW (5.1.5)-3) date 2020-09-18 03:55:18*
%MOMM*%
%LPD*%
G04 APERTURE LIST*
%ADD10C,0.100000*%
G04 APERTURE END LIST*
D10*
G36*
X152575000Y-63425000D02*
G01*
X154325000Y-63425000D01*
X154325000Y-64675000D01*
X152575000Y-64675000D01*
X152575000Y-63425000D01*
G37*
G36*
X152575000Y-66225000D02*
G01*
X154325000Y-66225000D01*
X154325000Y-67475000D01*
X152575000Y-67475000D01*
X152575000Y-66225000D01*
G37*
G36*
X163530142Y-71651174D02*
G01*
X163553803Y-71654684D01*
X163577007Y-71660496D01*
X163599529Y-71668554D01*
X163621153Y-71678782D01*
X163641670Y-71691079D01*
X163660883Y-71705329D01*
X163678607Y-71721393D01*
X163694671Y-71739117D01*
X163708921Y-71758330D01*
X163721218Y-71778847D01*
X163731446Y-71800471D01*
X163739504Y-71822993D01*
X163745316Y-71846197D01*
X163748826Y-71869858D01*
X163750000Y-71893750D01*
X163750000Y-72806250D01*
X163748826Y-72830142D01*
X163745316Y-72853803D01*
X163739504Y-72877007D01*
X163731446Y-72899529D01*
X163721218Y-72921153D01*
X163708921Y-72941670D01*
X163694671Y-72960883D01*
X163678607Y-72978607D01*
X163660883Y-72994671D01*
X163641670Y-73008921D01*
X163621153Y-73021218D01*
X163599529Y-73031446D01*
X163577007Y-73039504D01*
X163553803Y-73045316D01*
X163530142Y-73048826D01*
X163506250Y-73050000D01*
X163018750Y-73050000D01*
X162994858Y-73048826D01*
X162971197Y-73045316D01*
X162947993Y-73039504D01*
X162925471Y-73031446D01*
X162903847Y-73021218D01*
X162883330Y-73008921D01*
X162864117Y-72994671D01*
X162846393Y-72978607D01*
X162830329Y-72960883D01*
X162816079Y-72941670D01*
X162803782Y-72921153D01*
X162793554Y-72899529D01*
X162785496Y-72877007D01*
X162779684Y-72853803D01*
X162776174Y-72830142D01*
X162775000Y-72806250D01*
X162775000Y-71893750D01*
X162776174Y-71869858D01*
X162779684Y-71846197D01*
X162785496Y-71822993D01*
X162793554Y-71800471D01*
X162803782Y-71778847D01*
X162816079Y-71758330D01*
X162830329Y-71739117D01*
X162846393Y-71721393D01*
X162864117Y-71705329D01*
X162883330Y-71691079D01*
X162903847Y-71678782D01*
X162925471Y-71668554D01*
X162947993Y-71660496D01*
X162971197Y-71654684D01*
X162994858Y-71651174D01*
X163018750Y-71650000D01*
X163506250Y-71650000D01*
X163530142Y-71651174D01*
G37*
G36*
X165405142Y-71651174D02*
G01*
X165428803Y-71654684D01*
X165452007Y-71660496D01*
X165474529Y-71668554D01*
X165496153Y-71678782D01*
X165516670Y-71691079D01*
X165535883Y-71705329D01*
X165553607Y-71721393D01*
X165569671Y-71739117D01*
X165583921Y-71758330D01*
X165596218Y-71778847D01*
X165606446Y-71800471D01*
X165614504Y-71822993D01*
X165620316Y-71846197D01*
X165623826Y-71869858D01*
X165625000Y-71893750D01*
X165625000Y-72806250D01*
X165623826Y-72830142D01*
X165620316Y-72853803D01*
X165614504Y-72877007D01*
X165606446Y-72899529D01*
X165596218Y-72921153D01*
X165583921Y-72941670D01*
X165569671Y-72960883D01*
X165553607Y-72978607D01*
X165535883Y-72994671D01*
X165516670Y-73008921D01*
X165496153Y-73021218D01*
X165474529Y-73031446D01*
X165452007Y-73039504D01*
X165428803Y-73045316D01*
X165405142Y-73048826D01*
X165381250Y-73050000D01*
X164893750Y-73050000D01*
X164869858Y-73048826D01*
X164846197Y-73045316D01*
X164822993Y-73039504D01*
X164800471Y-73031446D01*
X164778847Y-73021218D01*
X164758330Y-73008921D01*
X164739117Y-72994671D01*
X164721393Y-72978607D01*
X164705329Y-72960883D01*
X164691079Y-72941670D01*
X164678782Y-72921153D01*
X164668554Y-72899529D01*
X164660496Y-72877007D01*
X164654684Y-72853803D01*
X164651174Y-72830142D01*
X164650000Y-72806250D01*
X164650000Y-71893750D01*
X164651174Y-71869858D01*
X164654684Y-71846197D01*
X164660496Y-71822993D01*
X164668554Y-71800471D01*
X164678782Y-71778847D01*
X164691079Y-71758330D01*
X164705329Y-71739117D01*
X164721393Y-71721393D01*
X164739117Y-71705329D01*
X164758330Y-71691079D01*
X164778847Y-71678782D01*
X164800471Y-71668554D01*
X164822993Y-71660496D01*
X164846197Y-71654684D01*
X164869858Y-71651174D01*
X164893750Y-71650000D01*
X165381250Y-71650000D01*
X165405142Y-71651174D01*
G37*
G36*
X163530142Y-69551174D02*
G01*
X163553803Y-69554684D01*
X163577007Y-69560496D01*
X163599529Y-69568554D01*
X163621153Y-69578782D01*
X163641670Y-69591079D01*
X163660883Y-69605329D01*
X163678607Y-69621393D01*
X163694671Y-69639117D01*
X163708921Y-69658330D01*
X163721218Y-69678847D01*
X163731446Y-69700471D01*
X163739504Y-69722993D01*
X163745316Y-69746197D01*
X163748826Y-69769858D01*
X163750000Y-69793750D01*
X163750000Y-70706250D01*
X163748826Y-70730142D01*
X163745316Y-70753803D01*
X163739504Y-70777007D01*
X163731446Y-70799529D01*
X163721218Y-70821153D01*
X163708921Y-70841670D01*
X163694671Y-70860883D01*
X163678607Y-70878607D01*
X163660883Y-70894671D01*
X163641670Y-70908921D01*
X163621153Y-70921218D01*
X163599529Y-70931446D01*
X163577007Y-70939504D01*
X163553803Y-70945316D01*
X163530142Y-70948826D01*
X163506250Y-70950000D01*
X163018750Y-70950000D01*
X162994858Y-70948826D01*
X162971197Y-70945316D01*
X162947993Y-70939504D01*
X162925471Y-70931446D01*
X162903847Y-70921218D01*
X162883330Y-70908921D01*
X162864117Y-70894671D01*
X162846393Y-70878607D01*
X162830329Y-70860883D01*
X162816079Y-70841670D01*
X162803782Y-70821153D01*
X162793554Y-70799529D01*
X162785496Y-70777007D01*
X162779684Y-70753803D01*
X162776174Y-70730142D01*
X162775000Y-70706250D01*
X162775000Y-69793750D01*
X162776174Y-69769858D01*
X162779684Y-69746197D01*
X162785496Y-69722993D01*
X162793554Y-69700471D01*
X162803782Y-69678847D01*
X162816079Y-69658330D01*
X162830329Y-69639117D01*
X162846393Y-69621393D01*
X162864117Y-69605329D01*
X162883330Y-69591079D01*
X162903847Y-69578782D01*
X162925471Y-69568554D01*
X162947993Y-69560496D01*
X162971197Y-69554684D01*
X162994858Y-69551174D01*
X163018750Y-69550000D01*
X163506250Y-69550000D01*
X163530142Y-69551174D01*
G37*
G36*
X165405142Y-69551174D02*
G01*
X165428803Y-69554684D01*
X165452007Y-69560496D01*
X165474529Y-69568554D01*
X165496153Y-69578782D01*
X165516670Y-69591079D01*
X165535883Y-69605329D01*
X165553607Y-69621393D01*
X165569671Y-69639117D01*
X165583921Y-69658330D01*
X165596218Y-69678847D01*
X165606446Y-69700471D01*
X165614504Y-69722993D01*
X165620316Y-69746197D01*
X165623826Y-69769858D01*
X165625000Y-69793750D01*
X165625000Y-70706250D01*
X165623826Y-70730142D01*
X165620316Y-70753803D01*
X165614504Y-70777007D01*
X165606446Y-70799529D01*
X165596218Y-70821153D01*
X165583921Y-70841670D01*
X165569671Y-70860883D01*
X165553607Y-70878607D01*
X165535883Y-70894671D01*
X165516670Y-70908921D01*
X165496153Y-70921218D01*
X165474529Y-70931446D01*
X165452007Y-70939504D01*
X165428803Y-70945316D01*
X165405142Y-70948826D01*
X165381250Y-70950000D01*
X164893750Y-70950000D01*
X164869858Y-70948826D01*
X164846197Y-70945316D01*
X164822993Y-70939504D01*
X164800471Y-70931446D01*
X164778847Y-70921218D01*
X164758330Y-70908921D01*
X164739117Y-70894671D01*
X164721393Y-70878607D01*
X164705329Y-70860883D01*
X164691079Y-70841670D01*
X164678782Y-70821153D01*
X164668554Y-70799529D01*
X164660496Y-70777007D01*
X164654684Y-70753803D01*
X164651174Y-70730142D01*
X164650000Y-70706250D01*
X164650000Y-69793750D01*
X164651174Y-69769858D01*
X164654684Y-69746197D01*
X164660496Y-69722993D01*
X164668554Y-69700471D01*
X164678782Y-69678847D01*
X164691079Y-69658330D01*
X164705329Y-69639117D01*
X164721393Y-69621393D01*
X164739117Y-69605329D01*
X164758330Y-69591079D01*
X164778847Y-69578782D01*
X164800471Y-69568554D01*
X164822993Y-69560496D01*
X164846197Y-69554684D01*
X164869858Y-69551174D01*
X164893750Y-69550000D01*
X165381250Y-69550000D01*
X165405142Y-69551174D01*
G37*
G36*
X177367642Y-71551174D02*
G01*
X177391303Y-71554684D01*
X177414507Y-71560496D01*
X177437029Y-71568554D01*
X177458653Y-71578782D01*
X177479170Y-71591079D01*
X177498383Y-71605329D01*
X177516107Y-71621393D01*
X177532171Y-71639117D01*
X177546421Y-71658330D01*
X177558718Y-71678847D01*
X177568946Y-71700471D01*
X177577004Y-71722993D01*
X177582816Y-71746197D01*
X177586326Y-71769858D01*
X177587500Y-71793750D01*
X177587500Y-72706250D01*
X177586326Y-72730142D01*
X177582816Y-72753803D01*
X177577004Y-72777007D01*
X177568946Y-72799529D01*
X177558718Y-72821153D01*
X177546421Y-72841670D01*
X177532171Y-72860883D01*
X177516107Y-72878607D01*
X177498383Y-72894671D01*
X177479170Y-72908921D01*
X177458653Y-72921218D01*
X177437029Y-72931446D01*
X177414507Y-72939504D01*
X177391303Y-72945316D01*
X177367642Y-72948826D01*
X177343750Y-72950000D01*
X176856250Y-72950000D01*
X176832358Y-72948826D01*
X176808697Y-72945316D01*
X176785493Y-72939504D01*
X176762971Y-72931446D01*
X176741347Y-72921218D01*
X176720830Y-72908921D01*
X176701617Y-72894671D01*
X176683893Y-72878607D01*
X176667829Y-72860883D01*
X176653579Y-72841670D01*
X176641282Y-72821153D01*
X176631054Y-72799529D01*
X176622996Y-72777007D01*
X176617184Y-72753803D01*
X176613674Y-72730142D01*
X176612500Y-72706250D01*
X176612500Y-71793750D01*
X176613674Y-71769858D01*
X176617184Y-71746197D01*
X176622996Y-71722993D01*
X176631054Y-71700471D01*
X176641282Y-71678847D01*
X176653579Y-71658330D01*
X176667829Y-71639117D01*
X176683893Y-71621393D01*
X176701617Y-71605329D01*
X176720830Y-71591079D01*
X176741347Y-71578782D01*
X176762971Y-71568554D01*
X176785493Y-71560496D01*
X176808697Y-71554684D01*
X176832358Y-71551174D01*
X176856250Y-71550000D01*
X177343750Y-71550000D01*
X177367642Y-71551174D01*
G37*
G36*
X179242642Y-71551174D02*
G01*
X179266303Y-71554684D01*
X179289507Y-71560496D01*
X179312029Y-71568554D01*
X179333653Y-71578782D01*
X179354170Y-71591079D01*
X179373383Y-71605329D01*
X179391107Y-71621393D01*
X179407171Y-71639117D01*
X179421421Y-71658330D01*
X179433718Y-71678847D01*
X179443946Y-71700471D01*
X179452004Y-71722993D01*
X179457816Y-71746197D01*
X179461326Y-71769858D01*
X179462500Y-71793750D01*
X179462500Y-72706250D01*
X179461326Y-72730142D01*
X179457816Y-72753803D01*
X179452004Y-72777007D01*
X179443946Y-72799529D01*
X179433718Y-72821153D01*
X179421421Y-72841670D01*
X179407171Y-72860883D01*
X179391107Y-72878607D01*
X179373383Y-72894671D01*
X179354170Y-72908921D01*
X179333653Y-72921218D01*
X179312029Y-72931446D01*
X179289507Y-72939504D01*
X179266303Y-72945316D01*
X179242642Y-72948826D01*
X179218750Y-72950000D01*
X178731250Y-72950000D01*
X178707358Y-72948826D01*
X178683697Y-72945316D01*
X178660493Y-72939504D01*
X178637971Y-72931446D01*
X178616347Y-72921218D01*
X178595830Y-72908921D01*
X178576617Y-72894671D01*
X178558893Y-72878607D01*
X178542829Y-72860883D01*
X178528579Y-72841670D01*
X178516282Y-72821153D01*
X178506054Y-72799529D01*
X178497996Y-72777007D01*
X178492184Y-72753803D01*
X178488674Y-72730142D01*
X178487500Y-72706250D01*
X178487500Y-71793750D01*
X178488674Y-71769858D01*
X178492184Y-71746197D01*
X178497996Y-71722993D01*
X178506054Y-71700471D01*
X178516282Y-71678847D01*
X178528579Y-71658330D01*
X178542829Y-71639117D01*
X178558893Y-71621393D01*
X178576617Y-71605329D01*
X178595830Y-71591079D01*
X178616347Y-71578782D01*
X178637971Y-71568554D01*
X178660493Y-71560496D01*
X178683697Y-71554684D01*
X178707358Y-71551174D01*
X178731250Y-71550000D01*
X179218750Y-71550000D01*
X179242642Y-71551174D01*
G37*
G36*
X177367642Y-69101174D02*
G01*
X177391303Y-69104684D01*
X177414507Y-69110496D01*
X177437029Y-69118554D01*
X177458653Y-69128782D01*
X177479170Y-69141079D01*
X177498383Y-69155329D01*
X177516107Y-69171393D01*
X177532171Y-69189117D01*
X177546421Y-69208330D01*
X177558718Y-69228847D01*
X177568946Y-69250471D01*
X177577004Y-69272993D01*
X177582816Y-69296197D01*
X177586326Y-69319858D01*
X177587500Y-69343750D01*
X177587500Y-70256250D01*
X177586326Y-70280142D01*
X177582816Y-70303803D01*
X177577004Y-70327007D01*
X177568946Y-70349529D01*
X177558718Y-70371153D01*
X177546421Y-70391670D01*
X177532171Y-70410883D01*
X177516107Y-70428607D01*
X177498383Y-70444671D01*
X177479170Y-70458921D01*
X177458653Y-70471218D01*
X177437029Y-70481446D01*
X177414507Y-70489504D01*
X177391303Y-70495316D01*
X177367642Y-70498826D01*
X177343750Y-70500000D01*
X176856250Y-70500000D01*
X176832358Y-70498826D01*
X176808697Y-70495316D01*
X176785493Y-70489504D01*
X176762971Y-70481446D01*
X176741347Y-70471218D01*
X176720830Y-70458921D01*
X176701617Y-70444671D01*
X176683893Y-70428607D01*
X176667829Y-70410883D01*
X176653579Y-70391670D01*
X176641282Y-70371153D01*
X176631054Y-70349529D01*
X176622996Y-70327007D01*
X176617184Y-70303803D01*
X176613674Y-70280142D01*
X176612500Y-70256250D01*
X176612500Y-69343750D01*
X176613674Y-69319858D01*
X176617184Y-69296197D01*
X176622996Y-69272993D01*
X176631054Y-69250471D01*
X176641282Y-69228847D01*
X176653579Y-69208330D01*
X176667829Y-69189117D01*
X176683893Y-69171393D01*
X176701617Y-69155329D01*
X176720830Y-69141079D01*
X176741347Y-69128782D01*
X176762971Y-69118554D01*
X176785493Y-69110496D01*
X176808697Y-69104684D01*
X176832358Y-69101174D01*
X176856250Y-69100000D01*
X177343750Y-69100000D01*
X177367642Y-69101174D01*
G37*
G36*
X179242642Y-69101174D02*
G01*
X179266303Y-69104684D01*
X179289507Y-69110496D01*
X179312029Y-69118554D01*
X179333653Y-69128782D01*
X179354170Y-69141079D01*
X179373383Y-69155329D01*
X179391107Y-69171393D01*
X179407171Y-69189117D01*
X179421421Y-69208330D01*
X179433718Y-69228847D01*
X179443946Y-69250471D01*
X179452004Y-69272993D01*
X179457816Y-69296197D01*
X179461326Y-69319858D01*
X179462500Y-69343750D01*
X179462500Y-70256250D01*
X179461326Y-70280142D01*
X179457816Y-70303803D01*
X179452004Y-70327007D01*
X179443946Y-70349529D01*
X179433718Y-70371153D01*
X179421421Y-70391670D01*
X179407171Y-70410883D01*
X179391107Y-70428607D01*
X179373383Y-70444671D01*
X179354170Y-70458921D01*
X179333653Y-70471218D01*
X179312029Y-70481446D01*
X179289507Y-70489504D01*
X179266303Y-70495316D01*
X179242642Y-70498826D01*
X179218750Y-70500000D01*
X178731250Y-70500000D01*
X178707358Y-70498826D01*
X178683697Y-70495316D01*
X178660493Y-70489504D01*
X178637971Y-70481446D01*
X178616347Y-70471218D01*
X178595830Y-70458921D01*
X178576617Y-70444671D01*
X178558893Y-70428607D01*
X178542829Y-70410883D01*
X178528579Y-70391670D01*
X178516282Y-70371153D01*
X178506054Y-70349529D01*
X178497996Y-70327007D01*
X178492184Y-70303803D01*
X178488674Y-70280142D01*
X178487500Y-70256250D01*
X178487500Y-69343750D01*
X178488674Y-69319858D01*
X178492184Y-69296197D01*
X178497996Y-69272993D01*
X178506054Y-69250471D01*
X178516282Y-69228847D01*
X178528579Y-69208330D01*
X178542829Y-69189117D01*
X178558893Y-69171393D01*
X178576617Y-69155329D01*
X178595830Y-69141079D01*
X178616347Y-69128782D01*
X178637971Y-69118554D01*
X178660493Y-69110496D01*
X178683697Y-69104684D01*
X178707358Y-69101174D01*
X178731250Y-69100000D01*
X179218750Y-69100000D01*
X179242642Y-69101174D01*
G37*
G36*
X179255142Y-73901174D02*
G01*
X179278803Y-73904684D01*
X179302007Y-73910496D01*
X179324529Y-73918554D01*
X179346153Y-73928782D01*
X179366670Y-73941079D01*
X179385883Y-73955329D01*
X179403607Y-73971393D01*
X179419671Y-73989117D01*
X179433921Y-74008330D01*
X179446218Y-74028847D01*
X179456446Y-74050471D01*
X179464504Y-74072993D01*
X179470316Y-74096197D01*
X179473826Y-74119858D01*
X179475000Y-74143750D01*
X179475000Y-75056250D01*
X179473826Y-75080142D01*
X179470316Y-75103803D01*
X179464504Y-75127007D01*
X179456446Y-75149529D01*
X179446218Y-75171153D01*
X179433921Y-75191670D01*
X179419671Y-75210883D01*
X179403607Y-75228607D01*
X179385883Y-75244671D01*
X179366670Y-75258921D01*
X179346153Y-75271218D01*
X179324529Y-75281446D01*
X179302007Y-75289504D01*
X179278803Y-75295316D01*
X179255142Y-75298826D01*
X179231250Y-75300000D01*
X178743750Y-75300000D01*
X178719858Y-75298826D01*
X178696197Y-75295316D01*
X178672993Y-75289504D01*
X178650471Y-75281446D01*
X178628847Y-75271218D01*
X178608330Y-75258921D01*
X178589117Y-75244671D01*
X178571393Y-75228607D01*
X178555329Y-75210883D01*
X178541079Y-75191670D01*
X178528782Y-75171153D01*
X178518554Y-75149529D01*
X178510496Y-75127007D01*
X178504684Y-75103803D01*
X178501174Y-75080142D01*
X178500000Y-75056250D01*
X178500000Y-74143750D01*
X178501174Y-74119858D01*
X178504684Y-74096197D01*
X178510496Y-74072993D01*
X178518554Y-74050471D01*
X178528782Y-74028847D01*
X178541079Y-74008330D01*
X178555329Y-73989117D01*
X178571393Y-73971393D01*
X178589117Y-73955329D01*
X178608330Y-73941079D01*
X178628847Y-73928782D01*
X178650471Y-73918554D01*
X178672993Y-73910496D01*
X178696197Y-73904684D01*
X178719858Y-73901174D01*
X178743750Y-73900000D01*
X179231250Y-73900000D01*
X179255142Y-73901174D01*
G37*
G36*
X177380142Y-73901174D02*
G01*
X177403803Y-73904684D01*
X177427007Y-73910496D01*
X177449529Y-73918554D01*
X177471153Y-73928782D01*
X177491670Y-73941079D01*
X177510883Y-73955329D01*
X177528607Y-73971393D01*
X177544671Y-73989117D01*
X177558921Y-74008330D01*
X177571218Y-74028847D01*
X177581446Y-74050471D01*
X177589504Y-74072993D01*
X177595316Y-74096197D01*
X177598826Y-74119858D01*
X177600000Y-74143750D01*
X177600000Y-75056250D01*
X177598826Y-75080142D01*
X177595316Y-75103803D01*
X177589504Y-75127007D01*
X177581446Y-75149529D01*
X177571218Y-75171153D01*
X177558921Y-75191670D01*
X177544671Y-75210883D01*
X177528607Y-75228607D01*
X177510883Y-75244671D01*
X177491670Y-75258921D01*
X177471153Y-75271218D01*
X177449529Y-75281446D01*
X177427007Y-75289504D01*
X177403803Y-75295316D01*
X177380142Y-75298826D01*
X177356250Y-75300000D01*
X176868750Y-75300000D01*
X176844858Y-75298826D01*
X176821197Y-75295316D01*
X176797993Y-75289504D01*
X176775471Y-75281446D01*
X176753847Y-75271218D01*
X176733330Y-75258921D01*
X176714117Y-75244671D01*
X176696393Y-75228607D01*
X176680329Y-75210883D01*
X176666079Y-75191670D01*
X176653782Y-75171153D01*
X176643554Y-75149529D01*
X176635496Y-75127007D01*
X176629684Y-75103803D01*
X176626174Y-75080142D01*
X176625000Y-75056250D01*
X176625000Y-74143750D01*
X176626174Y-74119858D01*
X176629684Y-74096197D01*
X176635496Y-74072993D01*
X176643554Y-74050471D01*
X176653782Y-74028847D01*
X176666079Y-74008330D01*
X176680329Y-73989117D01*
X176696393Y-73971393D01*
X176714117Y-73955329D01*
X176733330Y-73941079D01*
X176753847Y-73928782D01*
X176775471Y-73918554D01*
X176797993Y-73910496D01*
X176821197Y-73904684D01*
X176844858Y-73901174D01*
X176868750Y-73900000D01*
X177356250Y-73900000D01*
X177380142Y-73901174D01*
G37*
G36*
X177380142Y-76301174D02*
G01*
X177403803Y-76304684D01*
X177427007Y-76310496D01*
X177449529Y-76318554D01*
X177471153Y-76328782D01*
X177491670Y-76341079D01*
X177510883Y-76355329D01*
X177528607Y-76371393D01*
X177544671Y-76389117D01*
X177558921Y-76408330D01*
X177571218Y-76428847D01*
X177581446Y-76450471D01*
X177589504Y-76472993D01*
X177595316Y-76496197D01*
X177598826Y-76519858D01*
X177600000Y-76543750D01*
X177600000Y-77456250D01*
X177598826Y-77480142D01*
X177595316Y-77503803D01*
X177589504Y-77527007D01*
X177581446Y-77549529D01*
X177571218Y-77571153D01*
X177558921Y-77591670D01*
X177544671Y-77610883D01*
X177528607Y-77628607D01*
X177510883Y-77644671D01*
X177491670Y-77658921D01*
X177471153Y-77671218D01*
X177449529Y-77681446D01*
X177427007Y-77689504D01*
X177403803Y-77695316D01*
X177380142Y-77698826D01*
X177356250Y-77700000D01*
X176868750Y-77700000D01*
X176844858Y-77698826D01*
X176821197Y-77695316D01*
X176797993Y-77689504D01*
X176775471Y-77681446D01*
X176753847Y-77671218D01*
X176733330Y-77658921D01*
X176714117Y-77644671D01*
X176696393Y-77628607D01*
X176680329Y-77610883D01*
X176666079Y-77591670D01*
X176653782Y-77571153D01*
X176643554Y-77549529D01*
X176635496Y-77527007D01*
X176629684Y-77503803D01*
X176626174Y-77480142D01*
X176625000Y-77456250D01*
X176625000Y-76543750D01*
X176626174Y-76519858D01*
X176629684Y-76496197D01*
X176635496Y-76472993D01*
X176643554Y-76450471D01*
X176653782Y-76428847D01*
X176666079Y-76408330D01*
X176680329Y-76389117D01*
X176696393Y-76371393D01*
X176714117Y-76355329D01*
X176733330Y-76341079D01*
X176753847Y-76328782D01*
X176775471Y-76318554D01*
X176797993Y-76310496D01*
X176821197Y-76304684D01*
X176844858Y-76301174D01*
X176868750Y-76300000D01*
X177356250Y-76300000D01*
X177380142Y-76301174D01*
G37*
G36*
X179255142Y-76301174D02*
G01*
X179278803Y-76304684D01*
X179302007Y-76310496D01*
X179324529Y-76318554D01*
X179346153Y-76328782D01*
X179366670Y-76341079D01*
X179385883Y-76355329D01*
X179403607Y-76371393D01*
X179419671Y-76389117D01*
X179433921Y-76408330D01*
X179446218Y-76428847D01*
X179456446Y-76450471D01*
X179464504Y-76472993D01*
X179470316Y-76496197D01*
X179473826Y-76519858D01*
X179475000Y-76543750D01*
X179475000Y-77456250D01*
X179473826Y-77480142D01*
X179470316Y-77503803D01*
X179464504Y-77527007D01*
X179456446Y-77549529D01*
X179446218Y-77571153D01*
X179433921Y-77591670D01*
X179419671Y-77610883D01*
X179403607Y-77628607D01*
X179385883Y-77644671D01*
X179366670Y-77658921D01*
X179346153Y-77671218D01*
X179324529Y-77681446D01*
X179302007Y-77689504D01*
X179278803Y-77695316D01*
X179255142Y-77698826D01*
X179231250Y-77700000D01*
X178743750Y-77700000D01*
X178719858Y-77698826D01*
X178696197Y-77695316D01*
X178672993Y-77689504D01*
X178650471Y-77681446D01*
X178628847Y-77671218D01*
X178608330Y-77658921D01*
X178589117Y-77644671D01*
X178571393Y-77628607D01*
X178555329Y-77610883D01*
X178541079Y-77591670D01*
X178528782Y-77571153D01*
X178518554Y-77549529D01*
X178510496Y-77527007D01*
X178504684Y-77503803D01*
X178501174Y-77480142D01*
X178500000Y-77456250D01*
X178500000Y-76543750D01*
X178501174Y-76519858D01*
X178504684Y-76496197D01*
X178510496Y-76472993D01*
X178518554Y-76450471D01*
X178528782Y-76428847D01*
X178541079Y-76408330D01*
X178555329Y-76389117D01*
X178571393Y-76371393D01*
X178589117Y-76355329D01*
X178608330Y-76341079D01*
X178628847Y-76328782D01*
X178650471Y-76318554D01*
X178672993Y-76310496D01*
X178696197Y-76304684D01*
X178719858Y-76301174D01*
X178743750Y-76300000D01*
X179231250Y-76300000D01*
X179255142Y-76301174D01*
G37*
G36*
X177430142Y-78451174D02*
G01*
X177453803Y-78454684D01*
X177477007Y-78460496D01*
X177499529Y-78468554D01*
X177521153Y-78478782D01*
X177541670Y-78491079D01*
X177560883Y-78505329D01*
X177578607Y-78521393D01*
X177594671Y-78539117D01*
X177608921Y-78558330D01*
X177621218Y-78578847D01*
X177631446Y-78600471D01*
X177639504Y-78622993D01*
X177645316Y-78646197D01*
X177648826Y-78669858D01*
X177650000Y-78693750D01*
X177650000Y-79606250D01*
X177648826Y-79630142D01*
X177645316Y-79653803D01*
X177639504Y-79677007D01*
X177631446Y-79699529D01*
X177621218Y-79721153D01*
X177608921Y-79741670D01*
X177594671Y-79760883D01*
X177578607Y-79778607D01*
X177560883Y-79794671D01*
X177541670Y-79808921D01*
X177521153Y-79821218D01*
X177499529Y-79831446D01*
X177477007Y-79839504D01*
X177453803Y-79845316D01*
X177430142Y-79848826D01*
X177406250Y-79850000D01*
X176918750Y-79850000D01*
X176894858Y-79848826D01*
X176871197Y-79845316D01*
X176847993Y-79839504D01*
X176825471Y-79831446D01*
X176803847Y-79821218D01*
X176783330Y-79808921D01*
X176764117Y-79794671D01*
X176746393Y-79778607D01*
X176730329Y-79760883D01*
X176716079Y-79741670D01*
X176703782Y-79721153D01*
X176693554Y-79699529D01*
X176685496Y-79677007D01*
X176679684Y-79653803D01*
X176676174Y-79630142D01*
X176675000Y-79606250D01*
X176675000Y-78693750D01*
X176676174Y-78669858D01*
X176679684Y-78646197D01*
X176685496Y-78622993D01*
X176693554Y-78600471D01*
X176703782Y-78578847D01*
X176716079Y-78558330D01*
X176730329Y-78539117D01*
X176746393Y-78521393D01*
X176764117Y-78505329D01*
X176783330Y-78491079D01*
X176803847Y-78478782D01*
X176825471Y-78468554D01*
X176847993Y-78460496D01*
X176871197Y-78454684D01*
X176894858Y-78451174D01*
X176918750Y-78450000D01*
X177406250Y-78450000D01*
X177430142Y-78451174D01*
G37*
G36*
X179305142Y-78451174D02*
G01*
X179328803Y-78454684D01*
X179352007Y-78460496D01*
X179374529Y-78468554D01*
X179396153Y-78478782D01*
X179416670Y-78491079D01*
X179435883Y-78505329D01*
X179453607Y-78521393D01*
X179469671Y-78539117D01*
X179483921Y-78558330D01*
X179496218Y-78578847D01*
X179506446Y-78600471D01*
X179514504Y-78622993D01*
X179520316Y-78646197D01*
X179523826Y-78669858D01*
X179525000Y-78693750D01*
X179525000Y-79606250D01*
X179523826Y-79630142D01*
X179520316Y-79653803D01*
X179514504Y-79677007D01*
X179506446Y-79699529D01*
X179496218Y-79721153D01*
X179483921Y-79741670D01*
X179469671Y-79760883D01*
X179453607Y-79778607D01*
X179435883Y-79794671D01*
X179416670Y-79808921D01*
X179396153Y-79821218D01*
X179374529Y-79831446D01*
X179352007Y-79839504D01*
X179328803Y-79845316D01*
X179305142Y-79848826D01*
X179281250Y-79850000D01*
X178793750Y-79850000D01*
X178769858Y-79848826D01*
X178746197Y-79845316D01*
X178722993Y-79839504D01*
X178700471Y-79831446D01*
X178678847Y-79821218D01*
X178658330Y-79808921D01*
X178639117Y-79794671D01*
X178621393Y-79778607D01*
X178605329Y-79760883D01*
X178591079Y-79741670D01*
X178578782Y-79721153D01*
X178568554Y-79699529D01*
X178560496Y-79677007D01*
X178554684Y-79653803D01*
X178551174Y-79630142D01*
X178550000Y-79606250D01*
X178550000Y-78693750D01*
X178551174Y-78669858D01*
X178554684Y-78646197D01*
X178560496Y-78622993D01*
X178568554Y-78600471D01*
X178578782Y-78578847D01*
X178591079Y-78558330D01*
X178605329Y-78539117D01*
X178621393Y-78521393D01*
X178639117Y-78505329D01*
X178658330Y-78491079D01*
X178678847Y-78478782D01*
X178700471Y-78468554D01*
X178722993Y-78460496D01*
X178746197Y-78454684D01*
X178769858Y-78451174D01*
X178793750Y-78450000D01*
X179281250Y-78450000D01*
X179305142Y-78451174D01*
G37*
G36*
X163530142Y-75851174D02*
G01*
X163553803Y-75854684D01*
X163577007Y-75860496D01*
X163599529Y-75868554D01*
X163621153Y-75878782D01*
X163641670Y-75891079D01*
X163660883Y-75905329D01*
X163678607Y-75921393D01*
X163694671Y-75939117D01*
X163708921Y-75958330D01*
X163721218Y-75978847D01*
X163731446Y-76000471D01*
X163739504Y-76022993D01*
X163745316Y-76046197D01*
X163748826Y-76069858D01*
X163750000Y-76093750D01*
X163750000Y-77006250D01*
X163748826Y-77030142D01*
X163745316Y-77053803D01*
X163739504Y-77077007D01*
X163731446Y-77099529D01*
X163721218Y-77121153D01*
X163708921Y-77141670D01*
X163694671Y-77160883D01*
X163678607Y-77178607D01*
X163660883Y-77194671D01*
X163641670Y-77208921D01*
X163621153Y-77221218D01*
X163599529Y-77231446D01*
X163577007Y-77239504D01*
X163553803Y-77245316D01*
X163530142Y-77248826D01*
X163506250Y-77250000D01*
X163018750Y-77250000D01*
X162994858Y-77248826D01*
X162971197Y-77245316D01*
X162947993Y-77239504D01*
X162925471Y-77231446D01*
X162903847Y-77221218D01*
X162883330Y-77208921D01*
X162864117Y-77194671D01*
X162846393Y-77178607D01*
X162830329Y-77160883D01*
X162816079Y-77141670D01*
X162803782Y-77121153D01*
X162793554Y-77099529D01*
X162785496Y-77077007D01*
X162779684Y-77053803D01*
X162776174Y-77030142D01*
X162775000Y-77006250D01*
X162775000Y-76093750D01*
X162776174Y-76069858D01*
X162779684Y-76046197D01*
X162785496Y-76022993D01*
X162793554Y-76000471D01*
X162803782Y-75978847D01*
X162816079Y-75958330D01*
X162830329Y-75939117D01*
X162846393Y-75921393D01*
X162864117Y-75905329D01*
X162883330Y-75891079D01*
X162903847Y-75878782D01*
X162925471Y-75868554D01*
X162947993Y-75860496D01*
X162971197Y-75854684D01*
X162994858Y-75851174D01*
X163018750Y-75850000D01*
X163506250Y-75850000D01*
X163530142Y-75851174D01*
G37*
G36*
X165405142Y-75851174D02*
G01*
X165428803Y-75854684D01*
X165452007Y-75860496D01*
X165474529Y-75868554D01*
X165496153Y-75878782D01*
X165516670Y-75891079D01*
X165535883Y-75905329D01*
X165553607Y-75921393D01*
X165569671Y-75939117D01*
X165583921Y-75958330D01*
X165596218Y-75978847D01*
X165606446Y-76000471D01*
X165614504Y-76022993D01*
X165620316Y-76046197D01*
X165623826Y-76069858D01*
X165625000Y-76093750D01*
X165625000Y-77006250D01*
X165623826Y-77030142D01*
X165620316Y-77053803D01*
X165614504Y-77077007D01*
X165606446Y-77099529D01*
X165596218Y-77121153D01*
X165583921Y-77141670D01*
X165569671Y-77160883D01*
X165553607Y-77178607D01*
X165535883Y-77194671D01*
X165516670Y-77208921D01*
X165496153Y-77221218D01*
X165474529Y-77231446D01*
X165452007Y-77239504D01*
X165428803Y-77245316D01*
X165405142Y-77248826D01*
X165381250Y-77250000D01*
X164893750Y-77250000D01*
X164869858Y-77248826D01*
X164846197Y-77245316D01*
X164822993Y-77239504D01*
X164800471Y-77231446D01*
X164778847Y-77221218D01*
X164758330Y-77208921D01*
X164739117Y-77194671D01*
X164721393Y-77178607D01*
X164705329Y-77160883D01*
X164691079Y-77141670D01*
X164678782Y-77121153D01*
X164668554Y-77099529D01*
X164660496Y-77077007D01*
X164654684Y-77053803D01*
X164651174Y-77030142D01*
X164650000Y-77006250D01*
X164650000Y-76093750D01*
X164651174Y-76069858D01*
X164654684Y-76046197D01*
X164660496Y-76022993D01*
X164668554Y-76000471D01*
X164678782Y-75978847D01*
X164691079Y-75958330D01*
X164705329Y-75939117D01*
X164721393Y-75921393D01*
X164739117Y-75905329D01*
X164758330Y-75891079D01*
X164778847Y-75878782D01*
X164800471Y-75868554D01*
X164822993Y-75860496D01*
X164846197Y-75854684D01*
X164869858Y-75851174D01*
X164893750Y-75850000D01*
X165381250Y-75850000D01*
X165405142Y-75851174D01*
G37*
G36*
X174614703Y-74655722D02*
G01*
X174629264Y-74657882D01*
X174643543Y-74661459D01*
X174657403Y-74666418D01*
X174670710Y-74672712D01*
X174683336Y-74680280D01*
X174695159Y-74689048D01*
X174706066Y-74698934D01*
X174715952Y-74709841D01*
X174724720Y-74721664D01*
X174732288Y-74734290D01*
X174738582Y-74747597D01*
X174743541Y-74761457D01*
X174747118Y-74775736D01*
X174749278Y-74790297D01*
X174750000Y-74805000D01*
X174750000Y-75105000D01*
X174749278Y-75119703D01*
X174747118Y-75134264D01*
X174743541Y-75148543D01*
X174738582Y-75162403D01*
X174732288Y-75175710D01*
X174724720Y-75188336D01*
X174715952Y-75200159D01*
X174706066Y-75211066D01*
X174695159Y-75220952D01*
X174683336Y-75229720D01*
X174670710Y-75237288D01*
X174657403Y-75243582D01*
X174643543Y-75248541D01*
X174629264Y-75252118D01*
X174614703Y-75254278D01*
X174600000Y-75255000D01*
X172950000Y-75255000D01*
X172935297Y-75254278D01*
X172920736Y-75252118D01*
X172906457Y-75248541D01*
X172892597Y-75243582D01*
X172879290Y-75237288D01*
X172866664Y-75229720D01*
X172854841Y-75220952D01*
X172843934Y-75211066D01*
X172834048Y-75200159D01*
X172825280Y-75188336D01*
X172817712Y-75175710D01*
X172811418Y-75162403D01*
X172806459Y-75148543D01*
X172802882Y-75134264D01*
X172800722Y-75119703D01*
X172800000Y-75105000D01*
X172800000Y-74805000D01*
X172800722Y-74790297D01*
X172802882Y-74775736D01*
X172806459Y-74761457D01*
X172811418Y-74747597D01*
X172817712Y-74734290D01*
X172825280Y-74721664D01*
X172834048Y-74709841D01*
X172843934Y-74698934D01*
X172854841Y-74689048D01*
X172866664Y-74680280D01*
X172879290Y-74672712D01*
X172892597Y-74666418D01*
X172906457Y-74661459D01*
X172920736Y-74657882D01*
X172935297Y-74655722D01*
X172950000Y-74655000D01*
X174600000Y-74655000D01*
X174614703Y-74655722D01*
G37*
G36*
X174614703Y-73385722D02*
G01*
X174629264Y-73387882D01*
X174643543Y-73391459D01*
X174657403Y-73396418D01*
X174670710Y-73402712D01*
X174683336Y-73410280D01*
X174695159Y-73419048D01*
X174706066Y-73428934D01*
X174715952Y-73439841D01*
X174724720Y-73451664D01*
X174732288Y-73464290D01*
X174738582Y-73477597D01*
X174743541Y-73491457D01*
X174747118Y-73505736D01*
X174749278Y-73520297D01*
X174750000Y-73535000D01*
X174750000Y-73835000D01*
X174749278Y-73849703D01*
X174747118Y-73864264D01*
X174743541Y-73878543D01*
X174738582Y-73892403D01*
X174732288Y-73905710D01*
X174724720Y-73918336D01*
X174715952Y-73930159D01*
X174706066Y-73941066D01*
X174695159Y-73950952D01*
X174683336Y-73959720D01*
X174670710Y-73967288D01*
X174657403Y-73973582D01*
X174643543Y-73978541D01*
X174629264Y-73982118D01*
X174614703Y-73984278D01*
X174600000Y-73985000D01*
X172950000Y-73985000D01*
X172935297Y-73984278D01*
X172920736Y-73982118D01*
X172906457Y-73978541D01*
X172892597Y-73973582D01*
X172879290Y-73967288D01*
X172866664Y-73959720D01*
X172854841Y-73950952D01*
X172843934Y-73941066D01*
X172834048Y-73930159D01*
X172825280Y-73918336D01*
X172817712Y-73905710D01*
X172811418Y-73892403D01*
X172806459Y-73878543D01*
X172802882Y-73864264D01*
X172800722Y-73849703D01*
X172800000Y-73835000D01*
X172800000Y-73535000D01*
X172800722Y-73520297D01*
X172802882Y-73505736D01*
X172806459Y-73491457D01*
X172811418Y-73477597D01*
X172817712Y-73464290D01*
X172825280Y-73451664D01*
X172834048Y-73439841D01*
X172843934Y-73428934D01*
X172854841Y-73419048D01*
X172866664Y-73410280D01*
X172879290Y-73402712D01*
X172892597Y-73396418D01*
X172906457Y-73391459D01*
X172920736Y-73387882D01*
X172935297Y-73385722D01*
X172950000Y-73385000D01*
X174600000Y-73385000D01*
X174614703Y-73385722D01*
G37*
G36*
X174614703Y-72115722D02*
G01*
X174629264Y-72117882D01*
X174643543Y-72121459D01*
X174657403Y-72126418D01*
X174670710Y-72132712D01*
X174683336Y-72140280D01*
X174695159Y-72149048D01*
X174706066Y-72158934D01*
X174715952Y-72169841D01*
X174724720Y-72181664D01*
X174732288Y-72194290D01*
X174738582Y-72207597D01*
X174743541Y-72221457D01*
X174747118Y-72235736D01*
X174749278Y-72250297D01*
X174750000Y-72265000D01*
X174750000Y-72565000D01*
X174749278Y-72579703D01*
X174747118Y-72594264D01*
X174743541Y-72608543D01*
X174738582Y-72622403D01*
X174732288Y-72635710D01*
X174724720Y-72648336D01*
X174715952Y-72660159D01*
X174706066Y-72671066D01*
X174695159Y-72680952D01*
X174683336Y-72689720D01*
X174670710Y-72697288D01*
X174657403Y-72703582D01*
X174643543Y-72708541D01*
X174629264Y-72712118D01*
X174614703Y-72714278D01*
X174600000Y-72715000D01*
X172950000Y-72715000D01*
X172935297Y-72714278D01*
X172920736Y-72712118D01*
X172906457Y-72708541D01*
X172892597Y-72703582D01*
X172879290Y-72697288D01*
X172866664Y-72689720D01*
X172854841Y-72680952D01*
X172843934Y-72671066D01*
X172834048Y-72660159D01*
X172825280Y-72648336D01*
X172817712Y-72635710D01*
X172811418Y-72622403D01*
X172806459Y-72608543D01*
X172802882Y-72594264D01*
X172800722Y-72579703D01*
X172800000Y-72565000D01*
X172800000Y-72265000D01*
X172800722Y-72250297D01*
X172802882Y-72235736D01*
X172806459Y-72221457D01*
X172811418Y-72207597D01*
X172817712Y-72194290D01*
X172825280Y-72181664D01*
X172834048Y-72169841D01*
X172843934Y-72158934D01*
X172854841Y-72149048D01*
X172866664Y-72140280D01*
X172879290Y-72132712D01*
X172892597Y-72126418D01*
X172906457Y-72121459D01*
X172920736Y-72117882D01*
X172935297Y-72115722D01*
X172950000Y-72115000D01*
X174600000Y-72115000D01*
X174614703Y-72115722D01*
G37*
G36*
X174614703Y-70845722D02*
G01*
X174629264Y-70847882D01*
X174643543Y-70851459D01*
X174657403Y-70856418D01*
X174670710Y-70862712D01*
X174683336Y-70870280D01*
X174695159Y-70879048D01*
X174706066Y-70888934D01*
X174715952Y-70899841D01*
X174724720Y-70911664D01*
X174732288Y-70924290D01*
X174738582Y-70937597D01*
X174743541Y-70951457D01*
X174747118Y-70965736D01*
X174749278Y-70980297D01*
X174750000Y-70995000D01*
X174750000Y-71295000D01*
X174749278Y-71309703D01*
X174747118Y-71324264D01*
X174743541Y-71338543D01*
X174738582Y-71352403D01*
X174732288Y-71365710D01*
X174724720Y-71378336D01*
X174715952Y-71390159D01*
X174706066Y-71401066D01*
X174695159Y-71410952D01*
X174683336Y-71419720D01*
X174670710Y-71427288D01*
X174657403Y-71433582D01*
X174643543Y-71438541D01*
X174629264Y-71442118D01*
X174614703Y-71444278D01*
X174600000Y-71445000D01*
X172950000Y-71445000D01*
X172935297Y-71444278D01*
X172920736Y-71442118D01*
X172906457Y-71438541D01*
X172892597Y-71433582D01*
X172879290Y-71427288D01*
X172866664Y-71419720D01*
X172854841Y-71410952D01*
X172843934Y-71401066D01*
X172834048Y-71390159D01*
X172825280Y-71378336D01*
X172817712Y-71365710D01*
X172811418Y-71352403D01*
X172806459Y-71338543D01*
X172802882Y-71324264D01*
X172800722Y-71309703D01*
X172800000Y-71295000D01*
X172800000Y-70995000D01*
X172800722Y-70980297D01*
X172802882Y-70965736D01*
X172806459Y-70951457D01*
X172811418Y-70937597D01*
X172817712Y-70924290D01*
X172825280Y-70911664D01*
X172834048Y-70899841D01*
X172843934Y-70888934D01*
X172854841Y-70879048D01*
X172866664Y-70870280D01*
X172879290Y-70862712D01*
X172892597Y-70856418D01*
X172906457Y-70851459D01*
X172920736Y-70847882D01*
X172935297Y-70845722D01*
X172950000Y-70845000D01*
X174600000Y-70845000D01*
X174614703Y-70845722D01*
G37*
G36*
X169664703Y-70845722D02*
G01*
X169679264Y-70847882D01*
X169693543Y-70851459D01*
X169707403Y-70856418D01*
X169720710Y-70862712D01*
X169733336Y-70870280D01*
X169745159Y-70879048D01*
X169756066Y-70888934D01*
X169765952Y-70899841D01*
X169774720Y-70911664D01*
X169782288Y-70924290D01*
X169788582Y-70937597D01*
X169793541Y-70951457D01*
X169797118Y-70965736D01*
X169799278Y-70980297D01*
X169800000Y-70995000D01*
X169800000Y-71295000D01*
X169799278Y-71309703D01*
X169797118Y-71324264D01*
X169793541Y-71338543D01*
X169788582Y-71352403D01*
X169782288Y-71365710D01*
X169774720Y-71378336D01*
X169765952Y-71390159D01*
X169756066Y-71401066D01*
X169745159Y-71410952D01*
X169733336Y-71419720D01*
X169720710Y-71427288D01*
X169707403Y-71433582D01*
X169693543Y-71438541D01*
X169679264Y-71442118D01*
X169664703Y-71444278D01*
X169650000Y-71445000D01*
X168000000Y-71445000D01*
X167985297Y-71444278D01*
X167970736Y-71442118D01*
X167956457Y-71438541D01*
X167942597Y-71433582D01*
X167929290Y-71427288D01*
X167916664Y-71419720D01*
X167904841Y-71410952D01*
X167893934Y-71401066D01*
X167884048Y-71390159D01*
X167875280Y-71378336D01*
X167867712Y-71365710D01*
X167861418Y-71352403D01*
X167856459Y-71338543D01*
X167852882Y-71324264D01*
X167850722Y-71309703D01*
X167850000Y-71295000D01*
X167850000Y-70995000D01*
X167850722Y-70980297D01*
X167852882Y-70965736D01*
X167856459Y-70951457D01*
X167861418Y-70937597D01*
X167867712Y-70924290D01*
X167875280Y-70911664D01*
X167884048Y-70899841D01*
X167893934Y-70888934D01*
X167904841Y-70879048D01*
X167916664Y-70870280D01*
X167929290Y-70862712D01*
X167942597Y-70856418D01*
X167956457Y-70851459D01*
X167970736Y-70847882D01*
X167985297Y-70845722D01*
X168000000Y-70845000D01*
X169650000Y-70845000D01*
X169664703Y-70845722D01*
G37*
G36*
X169664703Y-72115722D02*
G01*
X169679264Y-72117882D01*
X169693543Y-72121459D01*
X169707403Y-72126418D01*
X169720710Y-72132712D01*
X169733336Y-72140280D01*
X169745159Y-72149048D01*
X169756066Y-72158934D01*
X169765952Y-72169841D01*
X169774720Y-72181664D01*
X169782288Y-72194290D01*
X169788582Y-72207597D01*
X169793541Y-72221457D01*
X169797118Y-72235736D01*
X169799278Y-72250297D01*
X169800000Y-72265000D01*
X169800000Y-72565000D01*
X169799278Y-72579703D01*
X169797118Y-72594264D01*
X169793541Y-72608543D01*
X169788582Y-72622403D01*
X169782288Y-72635710D01*
X169774720Y-72648336D01*
X169765952Y-72660159D01*
X169756066Y-72671066D01*
X169745159Y-72680952D01*
X169733336Y-72689720D01*
X169720710Y-72697288D01*
X169707403Y-72703582D01*
X169693543Y-72708541D01*
X169679264Y-72712118D01*
X169664703Y-72714278D01*
X169650000Y-72715000D01*
X168000000Y-72715000D01*
X167985297Y-72714278D01*
X167970736Y-72712118D01*
X167956457Y-72708541D01*
X167942597Y-72703582D01*
X167929290Y-72697288D01*
X167916664Y-72689720D01*
X167904841Y-72680952D01*
X167893934Y-72671066D01*
X167884048Y-72660159D01*
X167875280Y-72648336D01*
X167867712Y-72635710D01*
X167861418Y-72622403D01*
X167856459Y-72608543D01*
X167852882Y-72594264D01*
X167850722Y-72579703D01*
X167850000Y-72565000D01*
X167850000Y-72265000D01*
X167850722Y-72250297D01*
X167852882Y-72235736D01*
X167856459Y-72221457D01*
X167861418Y-72207597D01*
X167867712Y-72194290D01*
X167875280Y-72181664D01*
X167884048Y-72169841D01*
X167893934Y-72158934D01*
X167904841Y-72149048D01*
X167916664Y-72140280D01*
X167929290Y-72132712D01*
X167942597Y-72126418D01*
X167956457Y-72121459D01*
X167970736Y-72117882D01*
X167985297Y-72115722D01*
X168000000Y-72115000D01*
X169650000Y-72115000D01*
X169664703Y-72115722D01*
G37*
G36*
X169664703Y-73385722D02*
G01*
X169679264Y-73387882D01*
X169693543Y-73391459D01*
X169707403Y-73396418D01*
X169720710Y-73402712D01*
X169733336Y-73410280D01*
X169745159Y-73419048D01*
X169756066Y-73428934D01*
X169765952Y-73439841D01*
X169774720Y-73451664D01*
X169782288Y-73464290D01*
X169788582Y-73477597D01*
X169793541Y-73491457D01*
X169797118Y-73505736D01*
X169799278Y-73520297D01*
X169800000Y-73535000D01*
X169800000Y-73835000D01*
X169799278Y-73849703D01*
X169797118Y-73864264D01*
X169793541Y-73878543D01*
X169788582Y-73892403D01*
X169782288Y-73905710D01*
X169774720Y-73918336D01*
X169765952Y-73930159D01*
X169756066Y-73941066D01*
X169745159Y-73950952D01*
X169733336Y-73959720D01*
X169720710Y-73967288D01*
X169707403Y-73973582D01*
X169693543Y-73978541D01*
X169679264Y-73982118D01*
X169664703Y-73984278D01*
X169650000Y-73985000D01*
X168000000Y-73985000D01*
X167985297Y-73984278D01*
X167970736Y-73982118D01*
X167956457Y-73978541D01*
X167942597Y-73973582D01*
X167929290Y-73967288D01*
X167916664Y-73959720D01*
X167904841Y-73950952D01*
X167893934Y-73941066D01*
X167884048Y-73930159D01*
X167875280Y-73918336D01*
X167867712Y-73905710D01*
X167861418Y-73892403D01*
X167856459Y-73878543D01*
X167852882Y-73864264D01*
X167850722Y-73849703D01*
X167850000Y-73835000D01*
X167850000Y-73535000D01*
X167850722Y-73520297D01*
X167852882Y-73505736D01*
X167856459Y-73491457D01*
X167861418Y-73477597D01*
X167867712Y-73464290D01*
X167875280Y-73451664D01*
X167884048Y-73439841D01*
X167893934Y-73428934D01*
X167904841Y-73419048D01*
X167916664Y-73410280D01*
X167929290Y-73402712D01*
X167942597Y-73396418D01*
X167956457Y-73391459D01*
X167970736Y-73387882D01*
X167985297Y-73385722D01*
X168000000Y-73385000D01*
X169650000Y-73385000D01*
X169664703Y-73385722D01*
G37*
G36*
X169664703Y-74655722D02*
G01*
X169679264Y-74657882D01*
X169693543Y-74661459D01*
X169707403Y-74666418D01*
X169720710Y-74672712D01*
X169733336Y-74680280D01*
X169745159Y-74689048D01*
X169756066Y-74698934D01*
X169765952Y-74709841D01*
X169774720Y-74721664D01*
X169782288Y-74734290D01*
X169788582Y-74747597D01*
X169793541Y-74761457D01*
X169797118Y-74775736D01*
X169799278Y-74790297D01*
X169800000Y-74805000D01*
X169800000Y-75105000D01*
X169799278Y-75119703D01*
X169797118Y-75134264D01*
X169793541Y-75148543D01*
X169788582Y-75162403D01*
X169782288Y-75175710D01*
X169774720Y-75188336D01*
X169765952Y-75200159D01*
X169756066Y-75211066D01*
X169745159Y-75220952D01*
X169733336Y-75229720D01*
X169720710Y-75237288D01*
X169707403Y-75243582D01*
X169693543Y-75248541D01*
X169679264Y-75252118D01*
X169664703Y-75254278D01*
X169650000Y-75255000D01*
X168000000Y-75255000D01*
X167985297Y-75254278D01*
X167970736Y-75252118D01*
X167956457Y-75248541D01*
X167942597Y-75243582D01*
X167929290Y-75237288D01*
X167916664Y-75229720D01*
X167904841Y-75220952D01*
X167893934Y-75211066D01*
X167884048Y-75200159D01*
X167875280Y-75188336D01*
X167867712Y-75175710D01*
X167861418Y-75162403D01*
X167856459Y-75148543D01*
X167852882Y-75134264D01*
X167850722Y-75119703D01*
X167850000Y-75105000D01*
X167850000Y-74805000D01*
X167850722Y-74790297D01*
X167852882Y-74775736D01*
X167856459Y-74761457D01*
X167861418Y-74747597D01*
X167867712Y-74734290D01*
X167875280Y-74721664D01*
X167884048Y-74709841D01*
X167893934Y-74698934D01*
X167904841Y-74689048D01*
X167916664Y-74680280D01*
X167929290Y-74672712D01*
X167942597Y-74666418D01*
X167956457Y-74661459D01*
X167970736Y-74657882D01*
X167985297Y-74655722D01*
X168000000Y-74655000D01*
X169650000Y-74655000D01*
X169664703Y-74655722D01*
G37*
G36*
X161374504Y-75651204D02*
G01*
X161398773Y-75654804D01*
X161422571Y-75660765D01*
X161445671Y-75669030D01*
X161467849Y-75679520D01*
X161488893Y-75692133D01*
X161508598Y-75706747D01*
X161526777Y-75723223D01*
X161543253Y-75741402D01*
X161557867Y-75761107D01*
X161570480Y-75782151D01*
X161580970Y-75804329D01*
X161589235Y-75827429D01*
X161595196Y-75851227D01*
X161598796Y-75875496D01*
X161600000Y-75900000D01*
X161600000Y-77900000D01*
X161598796Y-77924504D01*
X161595196Y-77948773D01*
X161589235Y-77972571D01*
X161580970Y-77995671D01*
X161570480Y-78017849D01*
X161557867Y-78038893D01*
X161543253Y-78058598D01*
X161526777Y-78076777D01*
X161508598Y-78093253D01*
X161488893Y-78107867D01*
X161467849Y-78120480D01*
X161445671Y-78130970D01*
X161422571Y-78139235D01*
X161398773Y-78145196D01*
X161374504Y-78148796D01*
X161350000Y-78150000D01*
X158350000Y-78150000D01*
X158325496Y-78148796D01*
X158301227Y-78145196D01*
X158277429Y-78139235D01*
X158254329Y-78130970D01*
X158232151Y-78120480D01*
X158211107Y-78107867D01*
X158191402Y-78093253D01*
X158173223Y-78076777D01*
X158156747Y-78058598D01*
X158142133Y-78038893D01*
X158129520Y-78017849D01*
X158119030Y-77995671D01*
X158110765Y-77972571D01*
X158104804Y-77948773D01*
X158101204Y-77924504D01*
X158100000Y-77900000D01*
X158100000Y-75900000D01*
X158101204Y-75875496D01*
X158104804Y-75851227D01*
X158110765Y-75827429D01*
X158119030Y-75804329D01*
X158129520Y-75782151D01*
X158142133Y-75761107D01*
X158156747Y-75741402D01*
X158173223Y-75723223D01*
X158191402Y-75706747D01*
X158211107Y-75692133D01*
X158232151Y-75679520D01*
X158254329Y-75669030D01*
X158277429Y-75660765D01*
X158301227Y-75654804D01*
X158325496Y-75651204D01*
X158350000Y-75650000D01*
X161350000Y-75650000D01*
X161374504Y-75651204D01*
G37*
G36*
X154874504Y-75651204D02*
G01*
X154898773Y-75654804D01*
X154922571Y-75660765D01*
X154945671Y-75669030D01*
X154967849Y-75679520D01*
X154988893Y-75692133D01*
X155008598Y-75706747D01*
X155026777Y-75723223D01*
X155043253Y-75741402D01*
X155057867Y-75761107D01*
X155070480Y-75782151D01*
X155080970Y-75804329D01*
X155089235Y-75827429D01*
X155095196Y-75851227D01*
X155098796Y-75875496D01*
X155100000Y-75900000D01*
X155100000Y-77900000D01*
X155098796Y-77924504D01*
X155095196Y-77948773D01*
X155089235Y-77972571D01*
X155080970Y-77995671D01*
X155070480Y-78017849D01*
X155057867Y-78038893D01*
X155043253Y-78058598D01*
X155026777Y-78076777D01*
X155008598Y-78093253D01*
X154988893Y-78107867D01*
X154967849Y-78120480D01*
X154945671Y-78130970D01*
X154922571Y-78139235D01*
X154898773Y-78145196D01*
X154874504Y-78148796D01*
X154850000Y-78150000D01*
X151850000Y-78150000D01*
X151825496Y-78148796D01*
X151801227Y-78145196D01*
X151777429Y-78139235D01*
X151754329Y-78130970D01*
X151732151Y-78120480D01*
X151711107Y-78107867D01*
X151691402Y-78093253D01*
X151673223Y-78076777D01*
X151656747Y-78058598D01*
X151642133Y-78038893D01*
X151629520Y-78017849D01*
X151619030Y-77995671D01*
X151610765Y-77972571D01*
X151604804Y-77948773D01*
X151601204Y-77924504D01*
X151600000Y-77900000D01*
X151600000Y-75900000D01*
X151601204Y-75875496D01*
X151604804Y-75851227D01*
X151610765Y-75827429D01*
X151619030Y-75804329D01*
X151629520Y-75782151D01*
X151642133Y-75761107D01*
X151656747Y-75741402D01*
X151673223Y-75723223D01*
X151691402Y-75706747D01*
X151711107Y-75692133D01*
X151732151Y-75679520D01*
X151754329Y-75669030D01*
X151777429Y-75660765D01*
X151801227Y-75654804D01*
X151825496Y-75651204D01*
X151850000Y-75650000D01*
X154850000Y-75650000D01*
X154874504Y-75651204D01*
G37*
M02*
