G04 #@! TF.GenerationSoftware,KiCad,Pcbnew,(5.1.5)-3*
G04 #@! TF.CreationDate,2020-09-18T03:11:52-03:00*
G04 #@! TF.ProjectId,AIL,41494c2e-6b69-4636-9164-5f7063625858,rev?*
G04 #@! TF.SameCoordinates,Original*
G04 #@! TF.FileFunction,Legend,Bot*
G04 #@! TF.FilePolarity,Positive*
%FSLAX46Y46*%
G04 Gerber Fmt 4.6, Leading zero omitted, Abs format (unit mm)*
G04 Created by KiCad (PCBNEW (5.1.5)-3) date 2020-09-18 03:11:52*
%MOMM*%
%LPD*%
G04 APERTURE LIST*
%ADD10C,0.225000*%
%ADD11C,0.300000*%
%ADD12C,0.100000*%
G04 APERTURE END LIST*
D10*
X157370273Y-99722190D02*
X156827416Y-99722190D01*
X157098845Y-100672190D02*
X157098845Y-99722190D01*
X156510750Y-100174571D02*
X156194083Y-100174571D01*
X156058369Y-100672190D02*
X156510750Y-100672190D01*
X156510750Y-99722190D01*
X156058369Y-99722190D01*
X155696464Y-100626952D02*
X155560750Y-100672190D01*
X155334559Y-100672190D01*
X155244083Y-100626952D01*
X155198845Y-100581714D01*
X155153607Y-100491238D01*
X155153607Y-100400762D01*
X155198845Y-100310286D01*
X155244083Y-100265048D01*
X155334559Y-100219809D01*
X155515511Y-100174571D01*
X155605988Y-100129333D01*
X155651226Y-100084095D01*
X155696464Y-99993619D01*
X155696464Y-99903143D01*
X155651226Y-99812667D01*
X155605988Y-99767429D01*
X155515511Y-99722190D01*
X155289321Y-99722190D01*
X155153607Y-99767429D01*
X154882178Y-99722190D02*
X154339321Y-99722190D01*
X154610750Y-100672190D02*
X154610750Y-99722190D01*
X154022654Y-100174571D02*
X153705988Y-100174571D01*
X153570273Y-100672190D02*
X154022654Y-100672190D01*
X154022654Y-99722190D01*
X153570273Y-99722190D01*
X153163130Y-100672190D02*
X153163130Y-99722190D01*
X152936940Y-99722190D01*
X152801226Y-99767429D01*
X152710750Y-99857905D01*
X152665511Y-99948381D01*
X152620273Y-100129333D01*
X152620273Y-100265048D01*
X152665511Y-100446000D01*
X152710750Y-100536476D01*
X152801226Y-100626952D01*
X152936940Y-100672190D01*
X153163130Y-100672190D01*
D11*
X143450428Y-126447857D02*
X143021857Y-125305000D01*
X142593285Y-126447857D01*
X142450428Y-122733571D02*
X142450428Y-123447857D01*
X143950428Y-123447857D01*
X142521857Y-121662142D02*
X142450428Y-121805000D01*
X142450428Y-122090714D01*
X142521857Y-122233571D01*
X142664714Y-122305000D01*
X143236142Y-122305000D01*
X143379000Y-122233571D01*
X143450428Y-122090714D01*
X143450428Y-121805000D01*
X143379000Y-121662142D01*
X143236142Y-121590714D01*
X143093285Y-121590714D01*
X142950428Y-122305000D01*
X142450428Y-120733571D02*
X142521857Y-120876428D01*
X142593285Y-120947857D01*
X142736142Y-121019285D01*
X143164714Y-121019285D01*
X143307571Y-120947857D01*
X143379000Y-120876428D01*
X143450428Y-120733571D01*
X143450428Y-120519285D01*
X143379000Y-120376428D01*
X143307571Y-120305000D01*
X143164714Y-120233571D01*
X142736142Y-120233571D01*
X142593285Y-120305000D01*
X142521857Y-120376428D01*
X142450428Y-120519285D01*
X142450428Y-120733571D01*
X143450428Y-119590714D02*
X142450428Y-119590714D01*
X143307571Y-119590714D02*
X143379000Y-119519285D01*
X143450428Y-119376428D01*
X143450428Y-119162142D01*
X143379000Y-119019285D01*
X143236142Y-118947857D01*
X142450428Y-118947857D01*
X142450428Y-117590714D02*
X143236142Y-117590714D01*
X143379000Y-117662142D01*
X143450428Y-117805000D01*
X143450428Y-118090714D01*
X143379000Y-118233571D01*
X142521857Y-117590714D02*
X142450428Y-117733571D01*
X142450428Y-118090714D01*
X142521857Y-118233571D01*
X142664714Y-118305000D01*
X142807571Y-118305000D01*
X142950428Y-118233571D01*
X143021857Y-118090714D01*
X143021857Y-117733571D01*
X143093285Y-117590714D01*
X142450428Y-116876428D02*
X143450428Y-116876428D01*
X143164714Y-116876428D02*
X143307571Y-116805000D01*
X143379000Y-116733571D01*
X143450428Y-116590714D01*
X143450428Y-116447857D01*
X142450428Y-115305000D02*
X143950428Y-115305000D01*
X142521857Y-115305000D02*
X142450428Y-115447857D01*
X142450428Y-115733571D01*
X142521857Y-115876428D01*
X142593285Y-115947857D01*
X142736142Y-116019285D01*
X143164714Y-116019285D01*
X143307571Y-115947857D01*
X143379000Y-115876428D01*
X143450428Y-115733571D01*
X143450428Y-115447857D01*
X143379000Y-115305000D01*
X142450428Y-114376428D02*
X142521857Y-114519285D01*
X142593285Y-114590714D01*
X142736142Y-114662142D01*
X143164714Y-114662142D01*
X143307571Y-114590714D01*
X143379000Y-114519285D01*
X143450428Y-114376428D01*
X143450428Y-114162142D01*
X143379000Y-114019285D01*
X143307571Y-113947857D01*
X143164714Y-113876428D01*
X142736142Y-113876428D01*
X142593285Y-113947857D01*
X142521857Y-114019285D01*
X142450428Y-114162142D01*
X142450428Y-114376428D01*
X142450428Y-112090714D02*
X143950428Y-112090714D01*
X142879000Y-111590714D01*
X143950428Y-111090714D01*
X142450428Y-111090714D01*
X142450428Y-110162142D02*
X142521857Y-110305000D01*
X142593285Y-110376428D01*
X142736142Y-110447857D01*
X143164714Y-110447857D01*
X143307571Y-110376428D01*
X143379000Y-110305000D01*
X143450428Y-110162142D01*
X143450428Y-109947857D01*
X143379000Y-109805000D01*
X143307571Y-109733571D01*
X143164714Y-109662142D01*
X142736142Y-109662142D01*
X142593285Y-109733571D01*
X142521857Y-109805000D01*
X142450428Y-109947857D01*
X142450428Y-110162142D01*
X143450428Y-109233571D02*
X143450428Y-108662142D01*
X143950428Y-109019285D02*
X142664714Y-109019285D01*
X142521857Y-108947857D01*
X142450428Y-108805000D01*
X142450428Y-108662142D01*
X143450428Y-108376428D02*
X143450428Y-107805000D01*
X143950428Y-108162142D02*
X142664714Y-108162142D01*
X142521857Y-108090714D01*
X142450428Y-107947857D01*
X142450428Y-107805000D01*
X142450428Y-106662142D02*
X143236142Y-106662142D01*
X143379000Y-106733571D01*
X143450428Y-106876428D01*
X143450428Y-107162142D01*
X143379000Y-107305000D01*
X142521857Y-106662142D02*
X142450428Y-106805000D01*
X142450428Y-107162142D01*
X142521857Y-107305000D01*
X142664714Y-107376428D01*
X142807571Y-107376428D01*
X142950428Y-107305000D01*
X143021857Y-107162142D01*
X143021857Y-106805000D01*
X143093285Y-106662142D01*
D10*
X157370273Y-105437190D02*
X156827416Y-105437190D01*
X157098845Y-106387190D02*
X157098845Y-105437190D01*
X156510750Y-105889571D02*
X156194083Y-105889571D01*
X156058369Y-106387190D02*
X156510750Y-106387190D01*
X156510750Y-105437190D01*
X156058369Y-105437190D01*
X155696464Y-106341952D02*
X155560750Y-106387190D01*
X155334559Y-106387190D01*
X155244083Y-106341952D01*
X155198845Y-106296714D01*
X155153607Y-106206238D01*
X155153607Y-106115762D01*
X155198845Y-106025286D01*
X155244083Y-105980048D01*
X155334559Y-105934809D01*
X155515511Y-105889571D01*
X155605988Y-105844333D01*
X155651226Y-105799095D01*
X155696464Y-105708619D01*
X155696464Y-105618143D01*
X155651226Y-105527667D01*
X155605988Y-105482429D01*
X155515511Y-105437190D01*
X155289321Y-105437190D01*
X155153607Y-105482429D01*
X154882178Y-105437190D02*
X154339321Y-105437190D01*
X154610750Y-106387190D02*
X154610750Y-105437190D01*
X154022654Y-105889571D02*
X153705988Y-105889571D01*
X153570273Y-106387190D02*
X154022654Y-106387190D01*
X154022654Y-105437190D01*
X153570273Y-105437190D01*
X153163130Y-106387190D02*
X153163130Y-105437190D01*
X152936940Y-105437190D01*
X152801226Y-105482429D01*
X152710750Y-105572905D01*
X152665511Y-105663381D01*
X152620273Y-105844333D01*
X152620273Y-105980048D01*
X152665511Y-106161000D01*
X152710750Y-106251476D01*
X152801226Y-106341952D01*
X152936940Y-106387190D01*
X153163130Y-106387190D01*
D11*
X145736428Y-126447857D02*
X145307857Y-125305000D01*
X144879285Y-126447857D01*
X145165000Y-123519285D02*
X145165000Y-122805000D01*
X144736428Y-123662142D02*
X146236428Y-123162142D01*
X144736428Y-122662142D01*
X144736428Y-122162142D02*
X146236428Y-122162142D01*
X144736428Y-120733571D02*
X144736428Y-121447857D01*
X146236428Y-121447857D01*
X148022428Y-126447857D02*
X147593857Y-125305000D01*
X147165285Y-126447857D01*
X147022428Y-122590714D02*
X147736714Y-123090714D01*
X147022428Y-123447857D02*
X148522428Y-123447857D01*
X148522428Y-122876428D01*
X148451000Y-122733571D01*
X148379571Y-122662142D01*
X148236714Y-122590714D01*
X148022428Y-122590714D01*
X147879571Y-122662142D01*
X147808142Y-122733571D01*
X147736714Y-122876428D01*
X147736714Y-123447857D01*
X147093857Y-121376428D02*
X147022428Y-121519285D01*
X147022428Y-121805000D01*
X147093857Y-121947857D01*
X147236714Y-122019285D01*
X147808142Y-122019285D01*
X147951000Y-121947857D01*
X148022428Y-121805000D01*
X148022428Y-121519285D01*
X147951000Y-121376428D01*
X147808142Y-121305000D01*
X147665285Y-121305000D01*
X147522428Y-122019285D01*
X148022428Y-120805000D02*
X147022428Y-120447857D01*
X148022428Y-120090714D01*
X147165285Y-119519285D02*
X147093857Y-119447857D01*
X147022428Y-119519285D01*
X147093857Y-119590714D01*
X147165285Y-119519285D01*
X147022428Y-119519285D01*
X147451000Y-117733571D02*
X147451000Y-117019285D01*
X147022428Y-117876428D02*
X148522428Y-117376428D01*
X147022428Y-116876428D01*
X146522428Y-114876428D02*
X148665285Y-114876428D01*
X147022428Y-111876428D02*
X147022428Y-112733571D01*
X147022428Y-112305000D02*
X148522428Y-112305000D01*
X148308142Y-112447857D01*
X148165285Y-112590714D01*
X148093857Y-112733571D01*
X147879571Y-111019285D02*
X147951000Y-111162142D01*
X148022428Y-111233571D01*
X148165285Y-111305000D01*
X148236714Y-111305000D01*
X148379571Y-111233571D01*
X148451000Y-111162142D01*
X148522428Y-111019285D01*
X148522428Y-110733571D01*
X148451000Y-110590714D01*
X148379571Y-110519285D01*
X148236714Y-110447857D01*
X148165285Y-110447857D01*
X148022428Y-110519285D01*
X147951000Y-110590714D01*
X147879571Y-110733571D01*
X147879571Y-111019285D01*
X147808142Y-111162142D01*
X147736714Y-111233571D01*
X147593857Y-111305000D01*
X147308142Y-111305000D01*
X147165285Y-111233571D01*
X147093857Y-111162142D01*
X147022428Y-111019285D01*
X147022428Y-110733571D01*
X147093857Y-110590714D01*
X147165285Y-110519285D01*
X147308142Y-110447857D01*
X147593857Y-110447857D01*
X147736714Y-110519285D01*
X147808142Y-110590714D01*
X147879571Y-110733571D01*
X147165285Y-109805000D02*
X147093857Y-109733571D01*
X147022428Y-109805000D01*
X147093857Y-109876428D01*
X147165285Y-109805000D01*
X147022428Y-109805000D01*
X148522428Y-108805000D02*
X148522428Y-108662142D01*
X148451000Y-108519285D01*
X148379571Y-108447857D01*
X148236714Y-108376428D01*
X147951000Y-108305000D01*
X147593857Y-108305000D01*
X147308142Y-108376428D01*
X147165285Y-108447857D01*
X147093857Y-108519285D01*
X147022428Y-108662142D01*
X147022428Y-108805000D01*
X147093857Y-108947857D01*
X147165285Y-109019285D01*
X147308142Y-109090714D01*
X147593857Y-109162142D01*
X147951000Y-109162142D01*
X148236714Y-109090714D01*
X148379571Y-109019285D01*
X148451000Y-108947857D01*
X148522428Y-108805000D01*
X147022428Y-107590714D02*
X147022428Y-107305000D01*
X147093857Y-107162142D01*
X147165285Y-107090714D01*
X147379571Y-106947857D01*
X147665285Y-106876428D01*
X148236714Y-106876428D01*
X148379571Y-106947857D01*
X148451000Y-107019285D01*
X148522428Y-107162142D01*
X148522428Y-107447857D01*
X148451000Y-107590714D01*
X148379571Y-107662142D01*
X148236714Y-107733571D01*
X147879571Y-107733571D01*
X147736714Y-107662142D01*
X147665285Y-107590714D01*
X147593857Y-107447857D01*
X147593857Y-107162142D01*
X147665285Y-107019285D01*
X147736714Y-106947857D01*
X147879571Y-106876428D01*
X147165285Y-106233571D02*
X147093857Y-106162142D01*
X147022428Y-106233571D01*
X147093857Y-106305000D01*
X147165285Y-106233571D01*
X147022428Y-106233571D01*
X148379571Y-105590714D02*
X148451000Y-105519285D01*
X148522428Y-105376428D01*
X148522428Y-105019285D01*
X148451000Y-104876428D01*
X148379571Y-104805000D01*
X148236714Y-104733571D01*
X148093857Y-104733571D01*
X147879571Y-104805000D01*
X147022428Y-105662142D01*
X147022428Y-104733571D01*
X148522428Y-103805000D02*
X148522428Y-103662142D01*
X148451000Y-103519285D01*
X148379571Y-103447857D01*
X148236714Y-103376428D01*
X147951000Y-103305000D01*
X147593857Y-103305000D01*
X147308142Y-103376428D01*
X147165285Y-103447857D01*
X147093857Y-103519285D01*
X147022428Y-103662142D01*
X147022428Y-103805000D01*
X147093857Y-103947857D01*
X147165285Y-104019285D01*
X147308142Y-104090714D01*
X147593857Y-104162142D01*
X147951000Y-104162142D01*
X148236714Y-104090714D01*
X148379571Y-104019285D01*
X148451000Y-103947857D01*
X148522428Y-103805000D01*
X148379571Y-102733571D02*
X148451000Y-102662142D01*
X148522428Y-102519285D01*
X148522428Y-102162142D01*
X148451000Y-102019285D01*
X148379571Y-101947857D01*
X148236714Y-101876428D01*
X148093857Y-101876428D01*
X147879571Y-101947857D01*
X147022428Y-102805000D01*
X147022428Y-101876428D01*
X148522428Y-100947857D02*
X148522428Y-100805000D01*
X148451000Y-100662142D01*
X148379571Y-100590714D01*
X148236714Y-100519285D01*
X147951000Y-100447857D01*
X147593857Y-100447857D01*
X147308142Y-100519285D01*
X147165285Y-100590714D01*
X147093857Y-100662142D01*
X147022428Y-100805000D01*
X147022428Y-100947857D01*
X147093857Y-101090714D01*
X147165285Y-101162142D01*
X147308142Y-101233571D01*
X147593857Y-101305000D01*
X147951000Y-101305000D01*
X148236714Y-101233571D01*
X148379571Y-101162142D01*
X148451000Y-101090714D01*
X148522428Y-100947857D01*
X150308428Y-126447857D02*
X149879857Y-125305000D01*
X149451285Y-126447857D01*
X149379857Y-122876428D02*
X149308428Y-123019285D01*
X149308428Y-123305000D01*
X149379857Y-123447857D01*
X149522714Y-123519285D01*
X150094142Y-123519285D01*
X150237000Y-123447857D01*
X150308428Y-123305000D01*
X150308428Y-123019285D01*
X150237000Y-122876428D01*
X150094142Y-122805000D01*
X149951285Y-122805000D01*
X149808428Y-123519285D01*
X149879857Y-122162142D02*
X149879857Y-121019285D01*
X149308428Y-120305000D02*
X150808428Y-120305000D01*
X150808428Y-119733571D01*
X150737000Y-119590714D01*
X150665571Y-119519285D01*
X150522714Y-119447857D01*
X150308428Y-119447857D01*
X150165571Y-119519285D01*
X150094142Y-119590714D01*
X150022714Y-119733571D01*
X150022714Y-120305000D01*
X149308428Y-118590714D02*
X149379857Y-118733571D01*
X149451285Y-118805000D01*
X149594142Y-118876428D01*
X150022714Y-118876428D01*
X150165571Y-118805000D01*
X150237000Y-118733571D01*
X150308428Y-118590714D01*
X150308428Y-118376428D01*
X150237000Y-118233571D01*
X150165571Y-118162142D01*
X150022714Y-118090714D01*
X149594142Y-118090714D01*
X149451285Y-118162142D01*
X149379857Y-118233571D01*
X149308428Y-118376428D01*
X149308428Y-118590714D01*
X150308428Y-117590714D02*
X149308428Y-117305000D01*
X150022714Y-117019285D01*
X149308428Y-116733571D01*
X150308428Y-116447857D01*
X149379857Y-115305000D02*
X149308428Y-115447857D01*
X149308428Y-115733571D01*
X149379857Y-115876428D01*
X149522714Y-115947857D01*
X150094142Y-115947857D01*
X150237000Y-115876428D01*
X150308428Y-115733571D01*
X150308428Y-115447857D01*
X150237000Y-115305000D01*
X150094142Y-115233571D01*
X149951285Y-115233571D01*
X149808428Y-115947857D01*
X149308428Y-114590714D02*
X150308428Y-114590714D01*
X150022714Y-114590714D02*
X150165571Y-114519285D01*
X150237000Y-114447857D01*
X150308428Y-114305000D01*
X150308428Y-114162142D01*
X150808428Y-112519285D02*
X149594142Y-112519285D01*
X149451285Y-112447857D01*
X149379857Y-112376428D01*
X149308428Y-112233571D01*
X149308428Y-111947857D01*
X149379857Y-111805000D01*
X149451285Y-111733571D01*
X149594142Y-111662142D01*
X150808428Y-111662142D01*
X150094142Y-110447857D02*
X150094142Y-110947857D01*
X149308428Y-110947857D02*
X150808428Y-110947857D01*
X150808428Y-110233571D01*
X149308428Y-108805000D02*
X150022714Y-109305000D01*
X149308428Y-109662142D02*
X150808428Y-109662142D01*
X150808428Y-109090714D01*
X150737000Y-108947857D01*
X150665571Y-108876428D01*
X150522714Y-108805000D01*
X150308428Y-108805000D01*
X150165571Y-108876428D01*
X150094142Y-108947857D01*
X150022714Y-109090714D01*
X150022714Y-109662142D01*
X150737000Y-107376428D02*
X150808428Y-107519285D01*
X150808428Y-107733571D01*
X150737000Y-107947857D01*
X150594142Y-108090714D01*
X150451285Y-108162142D01*
X150165571Y-108233571D01*
X149951285Y-108233571D01*
X149665571Y-108162142D01*
X149522714Y-108090714D01*
X149379857Y-107947857D01*
X149308428Y-107733571D01*
X149308428Y-107590714D01*
X149379857Y-107376428D01*
X149451285Y-107305000D01*
X149951285Y-107305000D01*
X149951285Y-107590714D01*
X149379857Y-106733571D02*
X149308428Y-106519285D01*
X149308428Y-106162142D01*
X149379857Y-106019285D01*
X149451285Y-105947857D01*
X149594142Y-105876428D01*
X149737000Y-105876428D01*
X149879857Y-105947857D01*
X149951285Y-106019285D01*
X150022714Y-106162142D01*
X150094142Y-106447857D01*
X150165571Y-106590714D01*
X150237000Y-106662142D01*
X150379857Y-106733571D01*
X150522714Y-106733571D01*
X150665571Y-106662142D01*
X150737000Y-106590714D01*
X150808428Y-106447857D01*
X150808428Y-106090714D01*
X150737000Y-105876428D01*
D12*
G36*
X157607000Y-127127000D02*
G01*
X152527000Y-127127000D01*
X152527000Y-101473000D01*
X157607000Y-101473000D01*
X157607000Y-127127000D01*
G37*
X157607000Y-127127000D02*
X152527000Y-127127000D01*
X152527000Y-101473000D01*
X157607000Y-101473000D01*
X157607000Y-127127000D01*
M02*
