G04 #@! TF.GenerationSoftware,KiCad,Pcbnew,(5.1.5)-3*
G04 #@! TF.CreationDate,2020-09-18T03:11:52-03:00*
G04 #@! TF.ProjectId,AIL,41494c2e-6b69-4636-9164-5f7063625858,rev?*
G04 #@! TF.SameCoordinates,Original*
G04 #@! TF.FileFunction,Copper,L2,Bot*
G04 #@! TF.FilePolarity,Positive*
%FSLAX46Y46*%
G04 Gerber Fmt 4.6, Leading zero omitted, Abs format (unit mm)*
G04 Created by KiCad (PCBNEW (5.1.5)-3) date 2020-09-18 03:11:52*
%MOMM*%
%LPD*%
G04 APERTURE LIST*
%ADD10O,2.400000X2.400000*%
%ADD11C,2.400000*%
%ADD12R,1.600000X1.600000*%
%ADD13O,1.600000X1.600000*%
%ADD14C,0.800000*%
%ADD15C,6.400000*%
%ADD16R,3.000000X3.000000*%
%ADD17C,3.000000*%
%ADD18C,2.500000*%
%ADD19C,1.000000*%
%ADD20C,0.250000*%
G04 APERTURE END LIST*
D10*
X135597900Y-127894080D03*
D11*
X160997900Y-127894080D03*
D10*
X87127080Y-108549440D03*
D11*
X112527080Y-108549440D03*
X87078081Y-93180841D03*
D10*
X112478081Y-93180841D03*
D11*
X87116481Y-116104041D03*
D10*
X112516481Y-116104041D03*
X87076280Y-100777040D03*
D11*
X112476280Y-100777040D03*
X135597900Y-120832880D03*
D10*
X160997900Y-120832880D03*
X135597900Y-113771680D03*
D11*
X160997900Y-113771680D03*
X135597900Y-106608880D03*
D10*
X160997900Y-106608880D03*
D11*
X160997900Y-99598480D03*
D10*
X135597900Y-99598480D03*
X160997900Y-92588080D03*
D11*
X135597900Y-92588080D03*
D12*
X117589300Y-92054680D03*
D13*
X127749300Y-94594680D03*
X117589300Y-94594680D03*
X127749300Y-92054680D03*
D14*
X169337056Y-127842944D03*
X167640000Y-127140000D03*
X165942944Y-127842944D03*
X165240000Y-129540000D03*
X165942944Y-131237056D03*
X167640000Y-131940000D03*
X169337056Y-131237056D03*
X170040000Y-129540000D03*
D15*
X167640000Y-129540000D03*
X167640000Y-91440000D03*
D14*
X170040000Y-91440000D03*
X169337056Y-93137056D03*
X167640000Y-93840000D03*
X165942944Y-93137056D03*
X165240000Y-91440000D03*
X165942944Y-89742944D03*
X167640000Y-89040000D03*
X169337056Y-89742944D03*
X72834836Y-127736264D03*
X71137780Y-127033320D03*
X69440724Y-127736264D03*
X68737780Y-129433320D03*
X69440724Y-131130376D03*
X71137780Y-131833320D03*
X72834836Y-131130376D03*
X73537780Y-129433320D03*
D15*
X71137780Y-129433320D03*
X71120000Y-91440000D03*
D14*
X73520000Y-91440000D03*
X72817056Y-93137056D03*
X71120000Y-93840000D03*
X69422944Y-93137056D03*
X68720000Y-91440000D03*
X69422944Y-89742944D03*
X71120000Y-89040000D03*
X72817056Y-89742944D03*
D16*
X71272400Y-98907600D03*
D17*
X71272400Y-104034600D03*
D18*
X67970400Y-98907600D03*
X67970400Y-104038400D03*
X121208800Y-132283200D03*
X116078000Y-132283200D03*
D17*
X121205000Y-128981200D03*
D16*
X116078000Y-128981200D03*
D14*
X125577600Y-109321596D03*
X131445000Y-114363500D03*
D19*
X127000000Y-89509600D02*
X125577600Y-90932000D01*
X125577600Y-108755911D02*
X125577600Y-109321596D01*
X135597900Y-92588080D02*
X132519420Y-89509600D01*
X132519420Y-89509600D02*
X127000000Y-89509600D01*
X125577600Y-90932000D02*
X125577600Y-108755911D01*
X112527080Y-116093442D02*
X112516481Y-116104041D01*
X112527080Y-108549440D02*
X112527080Y-116093442D01*
X87078081Y-100775239D02*
X87076280Y-100777040D01*
X87078081Y-93180841D02*
X87078081Y-100775239D01*
D20*
X131445000Y-114363500D02*
X131445000Y-94170500D01*
X129329180Y-92054680D02*
X127749300Y-92054680D01*
X131445000Y-94170500D02*
X129329180Y-92054680D01*
D19*
X160997900Y-120832880D02*
X160997900Y-127894080D01*
X135597900Y-113771680D02*
X135597900Y-120832880D01*
X160997900Y-106608880D02*
X160997900Y-113771680D01*
X135597900Y-99598480D02*
X135597900Y-106608880D01*
X160997900Y-92588080D02*
X160997900Y-99598480D01*
X135450580Y-127894080D02*
X135597900Y-127894080D01*
X135514080Y-127894080D02*
X135597900Y-127894080D01*
X101917500Y-120840500D02*
X128460500Y-120840500D01*
X128460500Y-120840500D02*
X135514080Y-127894080D01*
X87127080Y-108549440D02*
X89626440Y-108549440D01*
X89626440Y-108549440D02*
X101917500Y-120840500D01*
M02*
