M48
; DRILL file {KiCad (5.1.5)-3} date 9/18/2020 3:11:55 AM
; FORMAT={-:-/ absolute / inch / decimal}
; #@! TF.CreationDate,2020-09-18T03:11:55-03:00
; #@! TF.GenerationSoftware,Kicad,Pcbnew,(5.1.5)-3
; #@! TF.FileFunction,Plated,1,2,PTH
FMAT,2
INCH
T1C0.0157
T2C0.0197
T3C0.0315
T4C0.0472
T5C0.0512
T6C0.0709
T7C0.1260
%
G90
G05
T1
X4.944Y-4.304
X5.175Y-4.5025
T2
X6.5055Y-5.1
X6.5332Y-5.0332
X6.5332Y-5.1668
X6.6Y-5.0055
X6.6Y-5.1945
X6.6668Y-5.0332
X6.6668Y-5.1668
X6.6945Y-5.1
X2.7062Y-5.0958
X2.7339Y-5.029
X2.7339Y-5.1626
X2.8007Y-5.0013
X2.8007Y-5.1903
X2.8675Y-5.029
X2.8675Y-5.1626
X2.8952Y-5.0958
X2.7055Y-3.6
X2.7332Y-3.5332
X2.7332Y-3.6668
X2.8Y-3.5055
X2.8Y-3.6945
X2.8668Y-3.5332
X2.8668Y-3.6668
X2.8945Y-3.6
X6.5055Y-3.6
X6.5332Y-3.5332
X6.5332Y-3.6668
X6.6Y-3.5055
X6.6Y-3.6945
X6.6668Y-3.5332
X6.6668Y-3.6668
X6.6945Y-3.6
T3
X4.6295Y-3.6242
X4.6295Y-3.7242
X5.0295Y-3.6242
X5.0295Y-3.7242
T4
X3.4283Y-3.6685
X4.4283Y-3.6685
X3.4298Y-4.571
X4.4298Y-4.571
X5.3385Y-3.9212
X6.3385Y-3.9212
X5.3385Y-3.6452
X6.3385Y-3.6452
X5.3385Y-4.7572
X6.3385Y-4.7572
X3.4282Y-3.9676
X4.4282Y-3.9676
X5.3385Y-4.1972
X6.3385Y-4.1972
X5.3385Y-5.0352
X6.3385Y-5.0352
X3.4302Y-4.2736
X4.4302Y-4.2736
X5.3385Y-4.4792
X6.3385Y-4.4792
T5
X4.57Y-5.078
X4.7719Y-5.078
X2.806Y-3.894
X2.806Y-4.0959
T6
X4.57Y-5.208
X4.772Y-5.208
X2.676Y-3.894
X2.676Y-4.096
T7
X6.6Y-5.1
X2.8007Y-5.0958
X2.8Y-3.6
X6.6Y-3.6
T0
M30
