G04 #@! TF.GenerationSoftware,KiCad,Pcbnew,(5.1.5)-3*
G04 #@! TF.CreationDate,2020-09-18T03:11:52-03:00*
G04 #@! TF.ProjectId,AIL,41494c2e-6b69-4636-9164-5f7063625858,rev?*
G04 #@! TF.SameCoordinates,Original*
G04 #@! TF.FileFunction,Paste,Top*
G04 #@! TF.FilePolarity,Positive*
%FSLAX46Y46*%
G04 Gerber Fmt 4.6, Leading zero omitted, Abs format (unit mm)*
G04 Created by KiCad (PCBNEW (5.1.5)-3) date 2020-09-18 03:11:52*
%MOMM*%
%LPD*%
G04 APERTURE LIST*
%ADD10C,0.100000*%
%ADD11R,0.900000X0.800000*%
G04 APERTURE END LIST*
D10*
G36*
X81206422Y-114385414D02*
G01*
X81230083Y-114388924D01*
X81253287Y-114394736D01*
X81275809Y-114402794D01*
X81297433Y-114413022D01*
X81317950Y-114425319D01*
X81337163Y-114439569D01*
X81354887Y-114455633D01*
X81370951Y-114473357D01*
X81385201Y-114492570D01*
X81397498Y-114513087D01*
X81407726Y-114534711D01*
X81415784Y-114557233D01*
X81421596Y-114580437D01*
X81425106Y-114604098D01*
X81426280Y-114627990D01*
X81426280Y-115115490D01*
X81425106Y-115139382D01*
X81421596Y-115163043D01*
X81415784Y-115186247D01*
X81407726Y-115208769D01*
X81397498Y-115230393D01*
X81385201Y-115250910D01*
X81370951Y-115270123D01*
X81354887Y-115287847D01*
X81337163Y-115303911D01*
X81317950Y-115318161D01*
X81297433Y-115330458D01*
X81275809Y-115340686D01*
X81253287Y-115348744D01*
X81230083Y-115354556D01*
X81206422Y-115358066D01*
X81182530Y-115359240D01*
X80270030Y-115359240D01*
X80246138Y-115358066D01*
X80222477Y-115354556D01*
X80199273Y-115348744D01*
X80176751Y-115340686D01*
X80155127Y-115330458D01*
X80134610Y-115318161D01*
X80115397Y-115303911D01*
X80097673Y-115287847D01*
X80081609Y-115270123D01*
X80067359Y-115250910D01*
X80055062Y-115230393D01*
X80044834Y-115208769D01*
X80036776Y-115186247D01*
X80030964Y-115163043D01*
X80027454Y-115139382D01*
X80026280Y-115115490D01*
X80026280Y-114627990D01*
X80027454Y-114604098D01*
X80030964Y-114580437D01*
X80036776Y-114557233D01*
X80044834Y-114534711D01*
X80055062Y-114513087D01*
X80067359Y-114492570D01*
X80081609Y-114473357D01*
X80097673Y-114455633D01*
X80115397Y-114439569D01*
X80134610Y-114425319D01*
X80155127Y-114413022D01*
X80176751Y-114402794D01*
X80199273Y-114394736D01*
X80222477Y-114388924D01*
X80246138Y-114385414D01*
X80270030Y-114384240D01*
X81182530Y-114384240D01*
X81206422Y-114385414D01*
G37*
G36*
X81206422Y-112510414D02*
G01*
X81230083Y-112513924D01*
X81253287Y-112519736D01*
X81275809Y-112527794D01*
X81297433Y-112538022D01*
X81317950Y-112550319D01*
X81337163Y-112564569D01*
X81354887Y-112580633D01*
X81370951Y-112598357D01*
X81385201Y-112617570D01*
X81397498Y-112638087D01*
X81407726Y-112659711D01*
X81415784Y-112682233D01*
X81421596Y-112705437D01*
X81425106Y-112729098D01*
X81426280Y-112752990D01*
X81426280Y-113240490D01*
X81425106Y-113264382D01*
X81421596Y-113288043D01*
X81415784Y-113311247D01*
X81407726Y-113333769D01*
X81397498Y-113355393D01*
X81385201Y-113375910D01*
X81370951Y-113395123D01*
X81354887Y-113412847D01*
X81337163Y-113428911D01*
X81317950Y-113443161D01*
X81297433Y-113455458D01*
X81275809Y-113465686D01*
X81253287Y-113473744D01*
X81230083Y-113479556D01*
X81206422Y-113483066D01*
X81182530Y-113484240D01*
X80270030Y-113484240D01*
X80246138Y-113483066D01*
X80222477Y-113479556D01*
X80199273Y-113473744D01*
X80176751Y-113465686D01*
X80155127Y-113455458D01*
X80134610Y-113443161D01*
X80115397Y-113428911D01*
X80097673Y-113412847D01*
X80081609Y-113395123D01*
X80067359Y-113375910D01*
X80055062Y-113355393D01*
X80044834Y-113333769D01*
X80036776Y-113311247D01*
X80030964Y-113288043D01*
X80027454Y-113264382D01*
X80026280Y-113240490D01*
X80026280Y-112752990D01*
X80027454Y-112729098D01*
X80030964Y-112705437D01*
X80036776Y-112682233D01*
X80044834Y-112659711D01*
X80055062Y-112638087D01*
X80067359Y-112617570D01*
X80081609Y-112598357D01*
X80097673Y-112580633D01*
X80115397Y-112564569D01*
X80134610Y-112550319D01*
X80155127Y-112538022D01*
X80176751Y-112527794D01*
X80199273Y-112519736D01*
X80222477Y-112513924D01*
X80246138Y-112510414D01*
X80270030Y-112509240D01*
X81182530Y-112509240D01*
X81206422Y-112510414D01*
G37*
G36*
X81335120Y-103590120D02*
G01*
X81335120Y-105340120D01*
X80085120Y-105340120D01*
X80085120Y-103590120D01*
X81335120Y-103590120D01*
G37*
G36*
X84135120Y-103590120D02*
G01*
X84135120Y-105340120D01*
X82885120Y-105340120D01*
X82885120Y-103590120D01*
X84135120Y-103590120D01*
G37*
G36*
X84051760Y-98027520D02*
G01*
X84051760Y-99777520D01*
X82801760Y-99777520D01*
X82801760Y-98027520D01*
X84051760Y-98027520D01*
G37*
G36*
X81251760Y-98027520D02*
G01*
X81251760Y-99777520D01*
X80001760Y-99777520D01*
X80001760Y-98027520D01*
X81251760Y-98027520D01*
G37*
D11*
X130133340Y-94660680D03*
X132133340Y-93710680D03*
X132133340Y-95610680D03*
D10*
G36*
X129570005Y-117173204D02*
G01*
X129594273Y-117176804D01*
X129618072Y-117182765D01*
X129641171Y-117191030D01*
X129663350Y-117201520D01*
X129684393Y-117214132D01*
X129704099Y-117228747D01*
X129722277Y-117245223D01*
X129738753Y-117263401D01*
X129753368Y-117283107D01*
X129765980Y-117304150D01*
X129776470Y-117326329D01*
X129784735Y-117349428D01*
X129790696Y-117373227D01*
X129794296Y-117397495D01*
X129795500Y-117421999D01*
X129795500Y-118072001D01*
X129794296Y-118096505D01*
X129790696Y-118120773D01*
X129784735Y-118144572D01*
X129776470Y-118167671D01*
X129765980Y-118189850D01*
X129753368Y-118210893D01*
X129738753Y-118230599D01*
X129722277Y-118248777D01*
X129704099Y-118265253D01*
X129684393Y-118279868D01*
X129663350Y-118292480D01*
X129641171Y-118302970D01*
X129618072Y-118311235D01*
X129594273Y-118317196D01*
X129570005Y-118320796D01*
X129545501Y-118322000D01*
X128645499Y-118322000D01*
X128620995Y-118320796D01*
X128596727Y-118317196D01*
X128572928Y-118311235D01*
X128549829Y-118302970D01*
X128527650Y-118292480D01*
X128506607Y-118279868D01*
X128486901Y-118265253D01*
X128468723Y-118248777D01*
X128452247Y-118230599D01*
X128437632Y-118210893D01*
X128425020Y-118189850D01*
X128414530Y-118167671D01*
X128406265Y-118144572D01*
X128400304Y-118120773D01*
X128396704Y-118096505D01*
X128395500Y-118072001D01*
X128395500Y-117421999D01*
X128396704Y-117397495D01*
X128400304Y-117373227D01*
X128406265Y-117349428D01*
X128414530Y-117326329D01*
X128425020Y-117304150D01*
X128437632Y-117283107D01*
X128452247Y-117263401D01*
X128468723Y-117245223D01*
X128486901Y-117228747D01*
X128506607Y-117214132D01*
X128527650Y-117201520D01*
X128549829Y-117191030D01*
X128572928Y-117182765D01*
X128596727Y-117176804D01*
X128620995Y-117173204D01*
X128645499Y-117172000D01*
X129545501Y-117172000D01*
X129570005Y-117173204D01*
G37*
G36*
X129570005Y-115123204D02*
G01*
X129594273Y-115126804D01*
X129618072Y-115132765D01*
X129641171Y-115141030D01*
X129663350Y-115151520D01*
X129684393Y-115164132D01*
X129704099Y-115178747D01*
X129722277Y-115195223D01*
X129738753Y-115213401D01*
X129753368Y-115233107D01*
X129765980Y-115254150D01*
X129776470Y-115276329D01*
X129784735Y-115299428D01*
X129790696Y-115323227D01*
X129794296Y-115347495D01*
X129795500Y-115371999D01*
X129795500Y-116022001D01*
X129794296Y-116046505D01*
X129790696Y-116070773D01*
X129784735Y-116094572D01*
X129776470Y-116117671D01*
X129765980Y-116139850D01*
X129753368Y-116160893D01*
X129738753Y-116180599D01*
X129722277Y-116198777D01*
X129704099Y-116215253D01*
X129684393Y-116229868D01*
X129663350Y-116242480D01*
X129641171Y-116252970D01*
X129618072Y-116261235D01*
X129594273Y-116267196D01*
X129570005Y-116270796D01*
X129545501Y-116272000D01*
X128645499Y-116272000D01*
X128620995Y-116270796D01*
X128596727Y-116267196D01*
X128572928Y-116261235D01*
X128549829Y-116252970D01*
X128527650Y-116242480D01*
X128506607Y-116229868D01*
X128486901Y-116215253D01*
X128468723Y-116198777D01*
X128452247Y-116180599D01*
X128437632Y-116160893D01*
X128425020Y-116139850D01*
X128414530Y-116117671D01*
X128406265Y-116094572D01*
X128400304Y-116070773D01*
X128396704Y-116046505D01*
X128395500Y-116022001D01*
X128395500Y-115371999D01*
X128396704Y-115347495D01*
X128400304Y-115323227D01*
X128406265Y-115299428D01*
X128414530Y-115276329D01*
X128425020Y-115254150D01*
X128437632Y-115233107D01*
X128452247Y-115213401D01*
X128468723Y-115195223D01*
X128486901Y-115178747D01*
X128506607Y-115164132D01*
X128527650Y-115151520D01*
X128549829Y-115141030D01*
X128572928Y-115132765D01*
X128596727Y-115126804D01*
X128620995Y-115123204D01*
X128645499Y-115122000D01*
X129545501Y-115122000D01*
X129570005Y-115123204D01*
G37*
G36*
X132490465Y-89410244D02*
G01*
X132514733Y-89413844D01*
X132538532Y-89419805D01*
X132561631Y-89428070D01*
X132583810Y-89438560D01*
X132604853Y-89451172D01*
X132624559Y-89465787D01*
X132642737Y-89482263D01*
X132659213Y-89500441D01*
X132673828Y-89520147D01*
X132686440Y-89541190D01*
X132696930Y-89563369D01*
X132705195Y-89586468D01*
X132711156Y-89610267D01*
X132714756Y-89634535D01*
X132715960Y-89659039D01*
X132715960Y-90559041D01*
X132714756Y-90583545D01*
X132711156Y-90607813D01*
X132705195Y-90631612D01*
X132696930Y-90654711D01*
X132686440Y-90676890D01*
X132673828Y-90697933D01*
X132659213Y-90717639D01*
X132642737Y-90735817D01*
X132624559Y-90752293D01*
X132604853Y-90766908D01*
X132583810Y-90779520D01*
X132561631Y-90790010D01*
X132538532Y-90798275D01*
X132514733Y-90804236D01*
X132490465Y-90807836D01*
X132465961Y-90809040D01*
X131815959Y-90809040D01*
X131791455Y-90807836D01*
X131767187Y-90804236D01*
X131743388Y-90798275D01*
X131720289Y-90790010D01*
X131698110Y-90779520D01*
X131677067Y-90766908D01*
X131657361Y-90752293D01*
X131639183Y-90735817D01*
X131622707Y-90717639D01*
X131608092Y-90697933D01*
X131595480Y-90676890D01*
X131584990Y-90654711D01*
X131576725Y-90631612D01*
X131570764Y-90607813D01*
X131567164Y-90583545D01*
X131565960Y-90559041D01*
X131565960Y-89659039D01*
X131567164Y-89634535D01*
X131570764Y-89610267D01*
X131576725Y-89586468D01*
X131584990Y-89563369D01*
X131595480Y-89541190D01*
X131608092Y-89520147D01*
X131622707Y-89500441D01*
X131639183Y-89482263D01*
X131657361Y-89465787D01*
X131677067Y-89451172D01*
X131698110Y-89438560D01*
X131720289Y-89428070D01*
X131743388Y-89419805D01*
X131767187Y-89413844D01*
X131791455Y-89410244D01*
X131815959Y-89409040D01*
X132465961Y-89409040D01*
X132490465Y-89410244D01*
G37*
G36*
X130440465Y-89410244D02*
G01*
X130464733Y-89413844D01*
X130488532Y-89419805D01*
X130511631Y-89428070D01*
X130533810Y-89438560D01*
X130554853Y-89451172D01*
X130574559Y-89465787D01*
X130592737Y-89482263D01*
X130609213Y-89500441D01*
X130623828Y-89520147D01*
X130636440Y-89541190D01*
X130646930Y-89563369D01*
X130655195Y-89586468D01*
X130661156Y-89610267D01*
X130664756Y-89634535D01*
X130665960Y-89659039D01*
X130665960Y-90559041D01*
X130664756Y-90583545D01*
X130661156Y-90607813D01*
X130655195Y-90631612D01*
X130646930Y-90654711D01*
X130636440Y-90676890D01*
X130623828Y-90697933D01*
X130609213Y-90717639D01*
X130592737Y-90735817D01*
X130574559Y-90752293D01*
X130554853Y-90766908D01*
X130533810Y-90779520D01*
X130511631Y-90790010D01*
X130488532Y-90798275D01*
X130464733Y-90804236D01*
X130440465Y-90807836D01*
X130415961Y-90809040D01*
X129765959Y-90809040D01*
X129741455Y-90807836D01*
X129717187Y-90804236D01*
X129693388Y-90798275D01*
X129670289Y-90790010D01*
X129648110Y-90779520D01*
X129627067Y-90766908D01*
X129607361Y-90752293D01*
X129589183Y-90735817D01*
X129572707Y-90717639D01*
X129558092Y-90697933D01*
X129545480Y-90676890D01*
X129534990Y-90654711D01*
X129526725Y-90631612D01*
X129520764Y-90607813D01*
X129517164Y-90583545D01*
X129515960Y-90559041D01*
X129515960Y-89659039D01*
X129517164Y-89634535D01*
X129520764Y-89610267D01*
X129526725Y-89586468D01*
X129534990Y-89563369D01*
X129545480Y-89541190D01*
X129558092Y-89520147D01*
X129572707Y-89500441D01*
X129589183Y-89482263D01*
X129607361Y-89465787D01*
X129627067Y-89451172D01*
X129648110Y-89438560D01*
X129670289Y-89428070D01*
X129693388Y-89419805D01*
X129717187Y-89413844D01*
X129741455Y-89410244D01*
X129765959Y-89409040D01*
X130415961Y-89409040D01*
X130440465Y-89410244D01*
G37*
G36*
X127474505Y-115114204D02*
G01*
X127498773Y-115117804D01*
X127522572Y-115123765D01*
X127545671Y-115132030D01*
X127567850Y-115142520D01*
X127588893Y-115155132D01*
X127608599Y-115169747D01*
X127626777Y-115186223D01*
X127643253Y-115204401D01*
X127657868Y-115224107D01*
X127670480Y-115245150D01*
X127680970Y-115267329D01*
X127689235Y-115290428D01*
X127695196Y-115314227D01*
X127698796Y-115338495D01*
X127700000Y-115362999D01*
X127700000Y-116013001D01*
X127698796Y-116037505D01*
X127695196Y-116061773D01*
X127689235Y-116085572D01*
X127680970Y-116108671D01*
X127670480Y-116130850D01*
X127657868Y-116151893D01*
X127643253Y-116171599D01*
X127626777Y-116189777D01*
X127608599Y-116206253D01*
X127588893Y-116220868D01*
X127567850Y-116233480D01*
X127545671Y-116243970D01*
X127522572Y-116252235D01*
X127498773Y-116258196D01*
X127474505Y-116261796D01*
X127450001Y-116263000D01*
X126549999Y-116263000D01*
X126525495Y-116261796D01*
X126501227Y-116258196D01*
X126477428Y-116252235D01*
X126454329Y-116243970D01*
X126432150Y-116233480D01*
X126411107Y-116220868D01*
X126391401Y-116206253D01*
X126373223Y-116189777D01*
X126356747Y-116171599D01*
X126342132Y-116151893D01*
X126329520Y-116130850D01*
X126319030Y-116108671D01*
X126310765Y-116085572D01*
X126304804Y-116061773D01*
X126301204Y-116037505D01*
X126300000Y-116013001D01*
X126300000Y-115362999D01*
X126301204Y-115338495D01*
X126304804Y-115314227D01*
X126310765Y-115290428D01*
X126319030Y-115267329D01*
X126329520Y-115245150D01*
X126342132Y-115224107D01*
X126356747Y-115204401D01*
X126373223Y-115186223D01*
X126391401Y-115169747D01*
X126411107Y-115155132D01*
X126432150Y-115142520D01*
X126454329Y-115132030D01*
X126477428Y-115123765D01*
X126501227Y-115117804D01*
X126525495Y-115114204D01*
X126549999Y-115113000D01*
X127450001Y-115113000D01*
X127474505Y-115114204D01*
G37*
G36*
X127474505Y-117164204D02*
G01*
X127498773Y-117167804D01*
X127522572Y-117173765D01*
X127545671Y-117182030D01*
X127567850Y-117192520D01*
X127588893Y-117205132D01*
X127608599Y-117219747D01*
X127626777Y-117236223D01*
X127643253Y-117254401D01*
X127657868Y-117274107D01*
X127670480Y-117295150D01*
X127680970Y-117317329D01*
X127689235Y-117340428D01*
X127695196Y-117364227D01*
X127698796Y-117388495D01*
X127700000Y-117412999D01*
X127700000Y-118063001D01*
X127698796Y-118087505D01*
X127695196Y-118111773D01*
X127689235Y-118135572D01*
X127680970Y-118158671D01*
X127670480Y-118180850D01*
X127657868Y-118201893D01*
X127643253Y-118221599D01*
X127626777Y-118239777D01*
X127608599Y-118256253D01*
X127588893Y-118270868D01*
X127567850Y-118283480D01*
X127545671Y-118293970D01*
X127522572Y-118302235D01*
X127498773Y-118308196D01*
X127474505Y-118311796D01*
X127450001Y-118313000D01*
X126549999Y-118313000D01*
X126525495Y-118311796D01*
X126501227Y-118308196D01*
X126477428Y-118302235D01*
X126454329Y-118293970D01*
X126432150Y-118283480D01*
X126411107Y-118270868D01*
X126391401Y-118256253D01*
X126373223Y-118239777D01*
X126356747Y-118221599D01*
X126342132Y-118201893D01*
X126329520Y-118180850D01*
X126319030Y-118158671D01*
X126310765Y-118135572D01*
X126304804Y-118111773D01*
X126301204Y-118087505D01*
X126300000Y-118063001D01*
X126300000Y-117412999D01*
X126301204Y-117388495D01*
X126304804Y-117364227D01*
X126310765Y-117340428D01*
X126319030Y-117317329D01*
X126329520Y-117295150D01*
X126342132Y-117274107D01*
X126356747Y-117254401D01*
X126373223Y-117236223D01*
X126391401Y-117219747D01*
X126411107Y-117205132D01*
X126432150Y-117192520D01*
X126454329Y-117182030D01*
X126477428Y-117173765D01*
X126501227Y-117167804D01*
X126525495Y-117164204D01*
X126549999Y-117163000D01*
X127450001Y-117163000D01*
X127474505Y-117164204D01*
G37*
G36*
X127474505Y-121110204D02*
G01*
X127498773Y-121113804D01*
X127522572Y-121119765D01*
X127545671Y-121128030D01*
X127567850Y-121138520D01*
X127588893Y-121151132D01*
X127608599Y-121165747D01*
X127626777Y-121182223D01*
X127643253Y-121200401D01*
X127657868Y-121220107D01*
X127670480Y-121241150D01*
X127680970Y-121263329D01*
X127689235Y-121286428D01*
X127695196Y-121310227D01*
X127698796Y-121334495D01*
X127700000Y-121358999D01*
X127700000Y-122009001D01*
X127698796Y-122033505D01*
X127695196Y-122057773D01*
X127689235Y-122081572D01*
X127680970Y-122104671D01*
X127670480Y-122126850D01*
X127657868Y-122147893D01*
X127643253Y-122167599D01*
X127626777Y-122185777D01*
X127608599Y-122202253D01*
X127588893Y-122216868D01*
X127567850Y-122229480D01*
X127545671Y-122239970D01*
X127522572Y-122248235D01*
X127498773Y-122254196D01*
X127474505Y-122257796D01*
X127450001Y-122259000D01*
X126549999Y-122259000D01*
X126525495Y-122257796D01*
X126501227Y-122254196D01*
X126477428Y-122248235D01*
X126454329Y-122239970D01*
X126432150Y-122229480D01*
X126411107Y-122216868D01*
X126391401Y-122202253D01*
X126373223Y-122185777D01*
X126356747Y-122167599D01*
X126342132Y-122147893D01*
X126329520Y-122126850D01*
X126319030Y-122104671D01*
X126310765Y-122081572D01*
X126304804Y-122057773D01*
X126301204Y-122033505D01*
X126300000Y-122009001D01*
X126300000Y-121358999D01*
X126301204Y-121334495D01*
X126304804Y-121310227D01*
X126310765Y-121286428D01*
X126319030Y-121263329D01*
X126329520Y-121241150D01*
X126342132Y-121220107D01*
X126356747Y-121200401D01*
X126373223Y-121182223D01*
X126391401Y-121165747D01*
X126411107Y-121151132D01*
X126432150Y-121138520D01*
X126454329Y-121128030D01*
X126477428Y-121119765D01*
X126501227Y-121113804D01*
X126525495Y-121110204D01*
X126549999Y-121109000D01*
X127450001Y-121109000D01*
X127474505Y-121110204D01*
G37*
G36*
X127474505Y-119060204D02*
G01*
X127498773Y-119063804D01*
X127522572Y-119069765D01*
X127545671Y-119078030D01*
X127567850Y-119088520D01*
X127588893Y-119101132D01*
X127608599Y-119115747D01*
X127626777Y-119132223D01*
X127643253Y-119150401D01*
X127657868Y-119170107D01*
X127670480Y-119191150D01*
X127680970Y-119213329D01*
X127689235Y-119236428D01*
X127695196Y-119260227D01*
X127698796Y-119284495D01*
X127700000Y-119308999D01*
X127700000Y-119959001D01*
X127698796Y-119983505D01*
X127695196Y-120007773D01*
X127689235Y-120031572D01*
X127680970Y-120054671D01*
X127670480Y-120076850D01*
X127657868Y-120097893D01*
X127643253Y-120117599D01*
X127626777Y-120135777D01*
X127608599Y-120152253D01*
X127588893Y-120166868D01*
X127567850Y-120179480D01*
X127545671Y-120189970D01*
X127522572Y-120198235D01*
X127498773Y-120204196D01*
X127474505Y-120207796D01*
X127450001Y-120209000D01*
X126549999Y-120209000D01*
X126525495Y-120207796D01*
X126501227Y-120204196D01*
X126477428Y-120198235D01*
X126454329Y-120189970D01*
X126432150Y-120179480D01*
X126411107Y-120166868D01*
X126391401Y-120152253D01*
X126373223Y-120135777D01*
X126356747Y-120117599D01*
X126342132Y-120097893D01*
X126329520Y-120076850D01*
X126319030Y-120054671D01*
X126310765Y-120031572D01*
X126304804Y-120007773D01*
X126301204Y-119983505D01*
X126300000Y-119959001D01*
X126300000Y-119308999D01*
X126301204Y-119284495D01*
X126304804Y-119260227D01*
X126310765Y-119236428D01*
X126319030Y-119213329D01*
X126329520Y-119191150D01*
X126342132Y-119170107D01*
X126356747Y-119150401D01*
X126373223Y-119132223D01*
X126391401Y-119115747D01*
X126411107Y-119101132D01*
X126432150Y-119088520D01*
X126454329Y-119078030D01*
X126477428Y-119069765D01*
X126501227Y-119063804D01*
X126525495Y-119060204D01*
X126549999Y-119059000D01*
X127450001Y-119059000D01*
X127474505Y-119060204D01*
G37*
G36*
X127474505Y-125936204D02*
G01*
X127498773Y-125939804D01*
X127522572Y-125945765D01*
X127545671Y-125954030D01*
X127567850Y-125964520D01*
X127588893Y-125977132D01*
X127608599Y-125991747D01*
X127626777Y-126008223D01*
X127643253Y-126026401D01*
X127657868Y-126046107D01*
X127670480Y-126067150D01*
X127680970Y-126089329D01*
X127689235Y-126112428D01*
X127695196Y-126136227D01*
X127698796Y-126160495D01*
X127700000Y-126184999D01*
X127700000Y-126835001D01*
X127698796Y-126859505D01*
X127695196Y-126883773D01*
X127689235Y-126907572D01*
X127680970Y-126930671D01*
X127670480Y-126952850D01*
X127657868Y-126973893D01*
X127643253Y-126993599D01*
X127626777Y-127011777D01*
X127608599Y-127028253D01*
X127588893Y-127042868D01*
X127567850Y-127055480D01*
X127545671Y-127065970D01*
X127522572Y-127074235D01*
X127498773Y-127080196D01*
X127474505Y-127083796D01*
X127450001Y-127085000D01*
X126549999Y-127085000D01*
X126525495Y-127083796D01*
X126501227Y-127080196D01*
X126477428Y-127074235D01*
X126454329Y-127065970D01*
X126432150Y-127055480D01*
X126411107Y-127042868D01*
X126391401Y-127028253D01*
X126373223Y-127011777D01*
X126356747Y-126993599D01*
X126342132Y-126973893D01*
X126329520Y-126952850D01*
X126319030Y-126930671D01*
X126310765Y-126907572D01*
X126304804Y-126883773D01*
X126301204Y-126859505D01*
X126300000Y-126835001D01*
X126300000Y-126184999D01*
X126301204Y-126160495D01*
X126304804Y-126136227D01*
X126310765Y-126112428D01*
X126319030Y-126089329D01*
X126329520Y-126067150D01*
X126342132Y-126046107D01*
X126356747Y-126026401D01*
X126373223Y-126008223D01*
X126391401Y-125991747D01*
X126411107Y-125977132D01*
X126432150Y-125964520D01*
X126454329Y-125954030D01*
X126477428Y-125945765D01*
X126501227Y-125939804D01*
X126525495Y-125936204D01*
X126549999Y-125935000D01*
X127450001Y-125935000D01*
X127474505Y-125936204D01*
G37*
G36*
X127474505Y-123886204D02*
G01*
X127498773Y-123889804D01*
X127522572Y-123895765D01*
X127545671Y-123904030D01*
X127567850Y-123914520D01*
X127588893Y-123927132D01*
X127608599Y-123941747D01*
X127626777Y-123958223D01*
X127643253Y-123976401D01*
X127657868Y-123996107D01*
X127670480Y-124017150D01*
X127680970Y-124039329D01*
X127689235Y-124062428D01*
X127695196Y-124086227D01*
X127698796Y-124110495D01*
X127700000Y-124134999D01*
X127700000Y-124785001D01*
X127698796Y-124809505D01*
X127695196Y-124833773D01*
X127689235Y-124857572D01*
X127680970Y-124880671D01*
X127670480Y-124902850D01*
X127657868Y-124923893D01*
X127643253Y-124943599D01*
X127626777Y-124961777D01*
X127608599Y-124978253D01*
X127588893Y-124992868D01*
X127567850Y-125005480D01*
X127545671Y-125015970D01*
X127522572Y-125024235D01*
X127498773Y-125030196D01*
X127474505Y-125033796D01*
X127450001Y-125035000D01*
X126549999Y-125035000D01*
X126525495Y-125033796D01*
X126501227Y-125030196D01*
X126477428Y-125024235D01*
X126454329Y-125015970D01*
X126432150Y-125005480D01*
X126411107Y-124992868D01*
X126391401Y-124978253D01*
X126373223Y-124961777D01*
X126356747Y-124943599D01*
X126342132Y-124923893D01*
X126329520Y-124902850D01*
X126319030Y-124880671D01*
X126310765Y-124857572D01*
X126304804Y-124833773D01*
X126301204Y-124809505D01*
X126300000Y-124785001D01*
X126300000Y-124134999D01*
X126301204Y-124110495D01*
X126304804Y-124086227D01*
X126310765Y-124062428D01*
X126319030Y-124039329D01*
X126329520Y-124017150D01*
X126342132Y-123996107D01*
X126356747Y-123976401D01*
X126373223Y-123958223D01*
X126391401Y-123941747D01*
X126411107Y-123927132D01*
X126432150Y-123914520D01*
X126454329Y-123904030D01*
X126477428Y-123895765D01*
X126501227Y-123889804D01*
X126525495Y-123886204D01*
X126549999Y-123885000D01*
X127450001Y-123885000D01*
X127474505Y-123886204D01*
G37*
G36*
X125315505Y-117155204D02*
G01*
X125339773Y-117158804D01*
X125363572Y-117164765D01*
X125386671Y-117173030D01*
X125408850Y-117183520D01*
X125429893Y-117196132D01*
X125449599Y-117210747D01*
X125467777Y-117227223D01*
X125484253Y-117245401D01*
X125498868Y-117265107D01*
X125511480Y-117286150D01*
X125521970Y-117308329D01*
X125530235Y-117331428D01*
X125536196Y-117355227D01*
X125539796Y-117379495D01*
X125541000Y-117403999D01*
X125541000Y-118054001D01*
X125539796Y-118078505D01*
X125536196Y-118102773D01*
X125530235Y-118126572D01*
X125521970Y-118149671D01*
X125511480Y-118171850D01*
X125498868Y-118192893D01*
X125484253Y-118212599D01*
X125467777Y-118230777D01*
X125449599Y-118247253D01*
X125429893Y-118261868D01*
X125408850Y-118274480D01*
X125386671Y-118284970D01*
X125363572Y-118293235D01*
X125339773Y-118299196D01*
X125315505Y-118302796D01*
X125291001Y-118304000D01*
X124390999Y-118304000D01*
X124366495Y-118302796D01*
X124342227Y-118299196D01*
X124318428Y-118293235D01*
X124295329Y-118284970D01*
X124273150Y-118274480D01*
X124252107Y-118261868D01*
X124232401Y-118247253D01*
X124214223Y-118230777D01*
X124197747Y-118212599D01*
X124183132Y-118192893D01*
X124170520Y-118171850D01*
X124160030Y-118149671D01*
X124151765Y-118126572D01*
X124145804Y-118102773D01*
X124142204Y-118078505D01*
X124141000Y-118054001D01*
X124141000Y-117403999D01*
X124142204Y-117379495D01*
X124145804Y-117355227D01*
X124151765Y-117331428D01*
X124160030Y-117308329D01*
X124170520Y-117286150D01*
X124183132Y-117265107D01*
X124197747Y-117245401D01*
X124214223Y-117227223D01*
X124232401Y-117210747D01*
X124252107Y-117196132D01*
X124273150Y-117183520D01*
X124295329Y-117173030D01*
X124318428Y-117164765D01*
X124342227Y-117158804D01*
X124366495Y-117155204D01*
X124390999Y-117154000D01*
X125291001Y-117154000D01*
X125315505Y-117155204D01*
G37*
G36*
X125315505Y-115105204D02*
G01*
X125339773Y-115108804D01*
X125363572Y-115114765D01*
X125386671Y-115123030D01*
X125408850Y-115133520D01*
X125429893Y-115146132D01*
X125449599Y-115160747D01*
X125467777Y-115177223D01*
X125484253Y-115195401D01*
X125498868Y-115215107D01*
X125511480Y-115236150D01*
X125521970Y-115258329D01*
X125530235Y-115281428D01*
X125536196Y-115305227D01*
X125539796Y-115329495D01*
X125541000Y-115353999D01*
X125541000Y-116004001D01*
X125539796Y-116028505D01*
X125536196Y-116052773D01*
X125530235Y-116076572D01*
X125521970Y-116099671D01*
X125511480Y-116121850D01*
X125498868Y-116142893D01*
X125484253Y-116162599D01*
X125467777Y-116180777D01*
X125449599Y-116197253D01*
X125429893Y-116211868D01*
X125408850Y-116224480D01*
X125386671Y-116234970D01*
X125363572Y-116243235D01*
X125339773Y-116249196D01*
X125315505Y-116252796D01*
X125291001Y-116254000D01*
X124390999Y-116254000D01*
X124366495Y-116252796D01*
X124342227Y-116249196D01*
X124318428Y-116243235D01*
X124295329Y-116234970D01*
X124273150Y-116224480D01*
X124252107Y-116211868D01*
X124232401Y-116197253D01*
X124214223Y-116180777D01*
X124197747Y-116162599D01*
X124183132Y-116142893D01*
X124170520Y-116121850D01*
X124160030Y-116099671D01*
X124151765Y-116076572D01*
X124145804Y-116052773D01*
X124142204Y-116028505D01*
X124141000Y-116004001D01*
X124141000Y-115353999D01*
X124142204Y-115329495D01*
X124145804Y-115305227D01*
X124151765Y-115281428D01*
X124160030Y-115258329D01*
X124170520Y-115236150D01*
X124183132Y-115215107D01*
X124197747Y-115195401D01*
X124214223Y-115177223D01*
X124232401Y-115160747D01*
X124252107Y-115146132D01*
X124273150Y-115133520D01*
X124295329Y-115123030D01*
X124318428Y-115114765D01*
X124342227Y-115108804D01*
X124366495Y-115105204D01*
X124390999Y-115104000D01*
X125291001Y-115104000D01*
X125315505Y-115105204D01*
G37*
G36*
X125315505Y-119060204D02*
G01*
X125339773Y-119063804D01*
X125363572Y-119069765D01*
X125386671Y-119078030D01*
X125408850Y-119088520D01*
X125429893Y-119101132D01*
X125449599Y-119115747D01*
X125467777Y-119132223D01*
X125484253Y-119150401D01*
X125498868Y-119170107D01*
X125511480Y-119191150D01*
X125521970Y-119213329D01*
X125530235Y-119236428D01*
X125536196Y-119260227D01*
X125539796Y-119284495D01*
X125541000Y-119308999D01*
X125541000Y-119959001D01*
X125539796Y-119983505D01*
X125536196Y-120007773D01*
X125530235Y-120031572D01*
X125521970Y-120054671D01*
X125511480Y-120076850D01*
X125498868Y-120097893D01*
X125484253Y-120117599D01*
X125467777Y-120135777D01*
X125449599Y-120152253D01*
X125429893Y-120166868D01*
X125408850Y-120179480D01*
X125386671Y-120189970D01*
X125363572Y-120198235D01*
X125339773Y-120204196D01*
X125315505Y-120207796D01*
X125291001Y-120209000D01*
X124390999Y-120209000D01*
X124366495Y-120207796D01*
X124342227Y-120204196D01*
X124318428Y-120198235D01*
X124295329Y-120189970D01*
X124273150Y-120179480D01*
X124252107Y-120166868D01*
X124232401Y-120152253D01*
X124214223Y-120135777D01*
X124197747Y-120117599D01*
X124183132Y-120097893D01*
X124170520Y-120076850D01*
X124160030Y-120054671D01*
X124151765Y-120031572D01*
X124145804Y-120007773D01*
X124142204Y-119983505D01*
X124141000Y-119959001D01*
X124141000Y-119308999D01*
X124142204Y-119284495D01*
X124145804Y-119260227D01*
X124151765Y-119236428D01*
X124160030Y-119213329D01*
X124170520Y-119191150D01*
X124183132Y-119170107D01*
X124197747Y-119150401D01*
X124214223Y-119132223D01*
X124232401Y-119115747D01*
X124252107Y-119101132D01*
X124273150Y-119088520D01*
X124295329Y-119078030D01*
X124318428Y-119069765D01*
X124342227Y-119063804D01*
X124366495Y-119060204D01*
X124390999Y-119059000D01*
X125291001Y-119059000D01*
X125315505Y-119060204D01*
G37*
G36*
X125315505Y-121110204D02*
G01*
X125339773Y-121113804D01*
X125363572Y-121119765D01*
X125386671Y-121128030D01*
X125408850Y-121138520D01*
X125429893Y-121151132D01*
X125449599Y-121165747D01*
X125467777Y-121182223D01*
X125484253Y-121200401D01*
X125498868Y-121220107D01*
X125511480Y-121241150D01*
X125521970Y-121263329D01*
X125530235Y-121286428D01*
X125536196Y-121310227D01*
X125539796Y-121334495D01*
X125541000Y-121358999D01*
X125541000Y-122009001D01*
X125539796Y-122033505D01*
X125536196Y-122057773D01*
X125530235Y-122081572D01*
X125521970Y-122104671D01*
X125511480Y-122126850D01*
X125498868Y-122147893D01*
X125484253Y-122167599D01*
X125467777Y-122185777D01*
X125449599Y-122202253D01*
X125429893Y-122216868D01*
X125408850Y-122229480D01*
X125386671Y-122239970D01*
X125363572Y-122248235D01*
X125339773Y-122254196D01*
X125315505Y-122257796D01*
X125291001Y-122259000D01*
X124390999Y-122259000D01*
X124366495Y-122257796D01*
X124342227Y-122254196D01*
X124318428Y-122248235D01*
X124295329Y-122239970D01*
X124273150Y-122229480D01*
X124252107Y-122216868D01*
X124232401Y-122202253D01*
X124214223Y-122185777D01*
X124197747Y-122167599D01*
X124183132Y-122147893D01*
X124170520Y-122126850D01*
X124160030Y-122104671D01*
X124151765Y-122081572D01*
X124145804Y-122057773D01*
X124142204Y-122033505D01*
X124141000Y-122009001D01*
X124141000Y-121358999D01*
X124142204Y-121334495D01*
X124145804Y-121310227D01*
X124151765Y-121286428D01*
X124160030Y-121263329D01*
X124170520Y-121241150D01*
X124183132Y-121220107D01*
X124197747Y-121200401D01*
X124214223Y-121182223D01*
X124232401Y-121165747D01*
X124252107Y-121151132D01*
X124273150Y-121138520D01*
X124295329Y-121128030D01*
X124318428Y-121119765D01*
X124342227Y-121113804D01*
X124366495Y-121110204D01*
X124390999Y-121109000D01*
X125291001Y-121109000D01*
X125315505Y-121110204D01*
G37*
G36*
X73160504Y-117833204D02*
G01*
X73184773Y-117836804D01*
X73208571Y-117842765D01*
X73231671Y-117851030D01*
X73253849Y-117861520D01*
X73274893Y-117874133D01*
X73294598Y-117888747D01*
X73312777Y-117905223D01*
X73329253Y-117923402D01*
X73343867Y-117943107D01*
X73356480Y-117964151D01*
X73366970Y-117986329D01*
X73375235Y-118009429D01*
X73381196Y-118033227D01*
X73384796Y-118057496D01*
X73386000Y-118082000D01*
X73386000Y-121082000D01*
X73384796Y-121106504D01*
X73381196Y-121130773D01*
X73375235Y-121154571D01*
X73366970Y-121177671D01*
X73356480Y-121199849D01*
X73343867Y-121220893D01*
X73329253Y-121240598D01*
X73312777Y-121258777D01*
X73294598Y-121275253D01*
X73274893Y-121289867D01*
X73253849Y-121302480D01*
X73231671Y-121312970D01*
X73208571Y-121321235D01*
X73184773Y-121327196D01*
X73160504Y-121330796D01*
X73136000Y-121332000D01*
X71136000Y-121332000D01*
X71111496Y-121330796D01*
X71087227Y-121327196D01*
X71063429Y-121321235D01*
X71040329Y-121312970D01*
X71018151Y-121302480D01*
X70997107Y-121289867D01*
X70977402Y-121275253D01*
X70959223Y-121258777D01*
X70942747Y-121240598D01*
X70928133Y-121220893D01*
X70915520Y-121199849D01*
X70905030Y-121177671D01*
X70896765Y-121154571D01*
X70890804Y-121130773D01*
X70887204Y-121106504D01*
X70886000Y-121082000D01*
X70886000Y-118082000D01*
X70887204Y-118057496D01*
X70890804Y-118033227D01*
X70896765Y-118009429D01*
X70905030Y-117986329D01*
X70915520Y-117964151D01*
X70928133Y-117943107D01*
X70942747Y-117923402D01*
X70959223Y-117905223D01*
X70977402Y-117888747D01*
X70997107Y-117874133D01*
X71018151Y-117861520D01*
X71040329Y-117851030D01*
X71063429Y-117842765D01*
X71087227Y-117836804D01*
X71111496Y-117833204D01*
X71136000Y-117832000D01*
X73136000Y-117832000D01*
X73160504Y-117833204D01*
G37*
G36*
X73160504Y-111333204D02*
G01*
X73184773Y-111336804D01*
X73208571Y-111342765D01*
X73231671Y-111351030D01*
X73253849Y-111361520D01*
X73274893Y-111374133D01*
X73294598Y-111388747D01*
X73312777Y-111405223D01*
X73329253Y-111423402D01*
X73343867Y-111443107D01*
X73356480Y-111464151D01*
X73366970Y-111486329D01*
X73375235Y-111509429D01*
X73381196Y-111533227D01*
X73384796Y-111557496D01*
X73386000Y-111582000D01*
X73386000Y-114582000D01*
X73384796Y-114606504D01*
X73381196Y-114630773D01*
X73375235Y-114654571D01*
X73366970Y-114677671D01*
X73356480Y-114699849D01*
X73343867Y-114720893D01*
X73329253Y-114740598D01*
X73312777Y-114758777D01*
X73294598Y-114775253D01*
X73274893Y-114789867D01*
X73253849Y-114802480D01*
X73231671Y-114812970D01*
X73208571Y-114821235D01*
X73184773Y-114827196D01*
X73160504Y-114830796D01*
X73136000Y-114832000D01*
X71136000Y-114832000D01*
X71111496Y-114830796D01*
X71087227Y-114827196D01*
X71063429Y-114821235D01*
X71040329Y-114812970D01*
X71018151Y-114802480D01*
X70997107Y-114789867D01*
X70977402Y-114775253D01*
X70959223Y-114758777D01*
X70942747Y-114740598D01*
X70928133Y-114720893D01*
X70915520Y-114699849D01*
X70905030Y-114677671D01*
X70896765Y-114654571D01*
X70890804Y-114630773D01*
X70887204Y-114606504D01*
X70886000Y-114582000D01*
X70886000Y-111582000D01*
X70887204Y-111557496D01*
X70890804Y-111533227D01*
X70896765Y-111509429D01*
X70905030Y-111486329D01*
X70915520Y-111464151D01*
X70928133Y-111443107D01*
X70942747Y-111423402D01*
X70959223Y-111405223D01*
X70977402Y-111388747D01*
X70997107Y-111374133D01*
X71018151Y-111361520D01*
X71040329Y-111351030D01*
X71063429Y-111342765D01*
X71087227Y-111336804D01*
X71111496Y-111333204D01*
X71136000Y-111332000D01*
X73136000Y-111332000D01*
X73160504Y-111333204D01*
G37*
M02*
