G04 #@! TF.GenerationSoftware,KiCad,Pcbnew,(5.1.5)-3*
G04 #@! TF.CreationDate,2020-09-18T03:11:52-03:00*
G04 #@! TF.ProjectId,AIL,41494c2e-6b69-4636-9164-5f7063625858,rev?*
G04 #@! TF.SameCoordinates,Original*
G04 #@! TF.FileFunction,Legend,Top*
G04 #@! TF.FilePolarity,Positive*
%FSLAX46Y46*%
G04 Gerber Fmt 4.6, Leading zero omitted, Abs format (unit mm)*
G04 Created by KiCad (PCBNEW (5.1.5)-3) date 2020-09-18 03:11:52*
%MOMM*%
%LPD*%
G04 APERTURE LIST*
%ADD10C,0.300000*%
%ADD11C,0.120000*%
%ADD12C,0.100000*%
%ADD13C,0.010000*%
%ADD14C,0.150000*%
G04 APERTURE END LIST*
D10*
X111402857Y-129790000D02*
X112117142Y-129790000D01*
X111260000Y-130218571D02*
X111760000Y-128718571D01*
X112260000Y-130218571D01*
X125337142Y-130218571D02*
X125337142Y-128718571D01*
X126194285Y-130218571D02*
X125551428Y-129361428D01*
X126194285Y-128718571D02*
X125337142Y-129575714D01*
X76767428Y-107148571D02*
X76767428Y-108005714D01*
X75267428Y-107577142D02*
X76767428Y-107577142D01*
X75338857Y-108434285D02*
X75267428Y-108648571D01*
X75267428Y-109005714D01*
X75338857Y-109148571D01*
X75410285Y-109220000D01*
X75553142Y-109291428D01*
X75696000Y-109291428D01*
X75838857Y-109220000D01*
X75910285Y-109148571D01*
X75981714Y-109005714D01*
X76053142Y-108720000D01*
X76124571Y-108577142D01*
X76196000Y-108505714D01*
X76338857Y-108434285D01*
X76481714Y-108434285D01*
X76624571Y-108505714D01*
X76696000Y-108577142D01*
X76767428Y-108720000D01*
X76767428Y-109077142D01*
X76696000Y-109291428D01*
X75838857Y-109934285D02*
X75838857Y-111077142D01*
X75267428Y-110505714D02*
X76410285Y-110505714D01*
X76767428Y-91654571D02*
X76767428Y-92511714D01*
X75267428Y-92083142D02*
X76767428Y-92083142D01*
X75338857Y-92940285D02*
X75267428Y-93154571D01*
X75267428Y-93511714D01*
X75338857Y-93654571D01*
X75410285Y-93726000D01*
X75553142Y-93797428D01*
X75696000Y-93797428D01*
X75838857Y-93726000D01*
X75910285Y-93654571D01*
X75981714Y-93511714D01*
X76053142Y-93226000D01*
X76124571Y-93083142D01*
X76196000Y-93011714D01*
X76338857Y-92940285D01*
X76481714Y-92940285D01*
X76624571Y-93011714D01*
X76696000Y-93083142D01*
X76767428Y-93226000D01*
X76767428Y-93583142D01*
X76696000Y-93797428D01*
X75838857Y-94440285D02*
X75838857Y-95583142D01*
D11*
X137037900Y-127894080D02*
X139677900Y-127894080D01*
X159557900Y-127894080D02*
X156917900Y-127894080D01*
X139677900Y-131014080D02*
X156917900Y-131014080D01*
X139677900Y-124774080D02*
X139677900Y-131014080D01*
X156917900Y-124774080D02*
X139677900Y-124774080D01*
X156917900Y-131014080D02*
X156917900Y-124774080D01*
X80016280Y-114192818D02*
X80016280Y-113675662D01*
X81436280Y-114192818D02*
X81436280Y-113675662D01*
X82712184Y-103555120D02*
X81508056Y-103555120D01*
X82712184Y-105375120D02*
X81508056Y-105375120D01*
X82628824Y-99812520D02*
X81424696Y-99812520D01*
X82628824Y-97992520D02*
X81424696Y-97992520D01*
X130373340Y-93080680D02*
X131833340Y-93080680D01*
X130373340Y-96240680D02*
X132533340Y-96240680D01*
X130373340Y-96240680D02*
X130373340Y-95310680D01*
X130373340Y-93080680D02*
X130373340Y-94010680D01*
X88567080Y-108549440D02*
X91207080Y-108549440D01*
X111087080Y-108549440D02*
X108447080Y-108549440D01*
X91207080Y-111669440D02*
X108447080Y-111669440D01*
X91207080Y-105429440D02*
X91207080Y-111669440D01*
X108447080Y-105429440D02*
X91207080Y-105429440D01*
X108447080Y-111669440D02*
X108447080Y-105429440D01*
X91158081Y-90060841D02*
X91158081Y-96300841D01*
X91158081Y-96300841D02*
X108398081Y-96300841D01*
X108398081Y-96300841D02*
X108398081Y-90060841D01*
X108398081Y-90060841D02*
X91158081Y-90060841D01*
X88518081Y-93180841D02*
X91158081Y-93180841D01*
X111038081Y-93180841D02*
X108398081Y-93180841D01*
X91196481Y-112984041D02*
X91196481Y-119224041D01*
X91196481Y-119224041D02*
X108436481Y-119224041D01*
X108436481Y-119224041D02*
X108436481Y-112984041D01*
X108436481Y-112984041D02*
X91196481Y-112984041D01*
X88556481Y-116104041D02*
X91196481Y-116104041D01*
X111076481Y-116104041D02*
X108436481Y-116104041D01*
X88516280Y-100777040D02*
X91156280Y-100777040D01*
X111036280Y-100777040D02*
X108396280Y-100777040D01*
X91156280Y-103897040D02*
X108396280Y-103897040D01*
X91156280Y-97657040D02*
X91156280Y-103897040D01*
X108396280Y-97657040D02*
X91156280Y-97657040D01*
X108396280Y-103897040D02*
X108396280Y-97657040D01*
X128385500Y-116460748D02*
X128385500Y-116983252D01*
X129805500Y-116460748D02*
X129805500Y-116983252D01*
X131377212Y-90819040D02*
X130854708Y-90819040D01*
X131377212Y-89399040D02*
X130854708Y-89399040D01*
X139677900Y-117712880D02*
X139677900Y-123952880D01*
X139677900Y-123952880D02*
X156917900Y-123952880D01*
X156917900Y-123952880D02*
X156917900Y-117712880D01*
X156917900Y-117712880D02*
X139677900Y-117712880D01*
X137037900Y-120832880D02*
X139677900Y-120832880D01*
X159557900Y-120832880D02*
X156917900Y-120832880D01*
X137037900Y-113771680D02*
X139677900Y-113771680D01*
X159557900Y-113771680D02*
X156917900Y-113771680D01*
X139677900Y-116891680D02*
X156917900Y-116891680D01*
X139677900Y-110651680D02*
X139677900Y-116891680D01*
X156917900Y-110651680D02*
X139677900Y-110651680D01*
X156917900Y-116891680D02*
X156917900Y-110651680D01*
X139677900Y-103488880D02*
X139677900Y-109728880D01*
X139677900Y-109728880D02*
X156917900Y-109728880D01*
X156917900Y-109728880D02*
X156917900Y-103488880D01*
X156917900Y-103488880D02*
X139677900Y-103488880D01*
X137037900Y-106608880D02*
X139677900Y-106608880D01*
X159557900Y-106608880D02*
X156917900Y-106608880D01*
X156917900Y-102718480D02*
X156917900Y-96478480D01*
X156917900Y-96478480D02*
X139677900Y-96478480D01*
X139677900Y-96478480D02*
X139677900Y-102718480D01*
X139677900Y-102718480D02*
X156917900Y-102718480D01*
X159557900Y-99598480D02*
X156917900Y-99598480D01*
X137037900Y-99598480D02*
X139677900Y-99598480D01*
X159557900Y-92588080D02*
X156917900Y-92588080D01*
X137037900Y-92588080D02*
X139677900Y-92588080D01*
X156917900Y-89468080D02*
X139677900Y-89468080D01*
X156917900Y-95708080D02*
X156917900Y-89468080D01*
X139677900Y-95708080D02*
X156917900Y-95708080D01*
X139677900Y-89468080D02*
X139677900Y-95708080D01*
X127710000Y-116451748D02*
X127710000Y-116974252D01*
X126290000Y-116451748D02*
X126290000Y-116974252D01*
X126290000Y-120397748D02*
X126290000Y-120920252D01*
X127710000Y-120397748D02*
X127710000Y-120920252D01*
X123669300Y-90724680D02*
G75*
G02X121669300Y-90724680I-1000000J0D01*
G01*
X121669300Y-90724680D02*
X119434300Y-90724680D01*
X119434300Y-90724680D02*
X119434300Y-95924680D01*
X119434300Y-95924680D02*
X125904300Y-95924680D01*
X125904300Y-95924680D02*
X125904300Y-90724680D01*
X125904300Y-90724680D02*
X123669300Y-90724680D01*
X126040000Y-124485000D02*
X126040000Y-127345000D01*
X126040000Y-127345000D02*
X127960000Y-127345000D01*
X127960000Y-127345000D02*
X127960000Y-124485000D01*
D12*
G36*
X127508000Y-125231000D02*
G01*
X127000000Y-125739000D01*
X126492000Y-125231000D01*
X127508000Y-125231000D01*
G37*
X127508000Y-125231000D02*
X127000000Y-125739000D01*
X126492000Y-125231000D01*
X127508000Y-125231000D01*
D11*
X124131000Y-116442748D02*
X124131000Y-116965252D01*
X125551000Y-116442748D02*
X125551000Y-116965252D01*
X125551000Y-120397748D02*
X125551000Y-120920252D01*
X124131000Y-120397748D02*
X124131000Y-120920252D01*
X82165420Y-119771160D02*
G75*
G03X82165420Y-119771160I-700000J0D01*
G01*
X82119700Y-109161580D02*
G75*
G03X82119700Y-109161580I-700000J0D01*
G01*
D13*
G36*
X101697284Y-124678557D02*
G01*
X101770229Y-124702877D01*
X101820623Y-124751148D01*
X101825353Y-124760007D01*
X101836827Y-124789500D01*
X101841785Y-124822544D01*
X101839063Y-124865527D01*
X101827498Y-124924833D01*
X101805924Y-125006850D01*
X101773180Y-125117961D01*
X101740952Y-125223058D01*
X101677146Y-125429433D01*
X101572956Y-125429433D01*
X101513116Y-125426343D01*
X101475437Y-125418455D01*
X101468766Y-125412513D01*
X101474783Y-125386257D01*
X101490982Y-125329254D01*
X101514582Y-125251060D01*
X101531892Y-125195555D01*
X101569410Y-125068383D01*
X101590086Y-124975036D01*
X101594073Y-124910565D01*
X101581524Y-124870021D01*
X101552593Y-124848456D01*
X101542695Y-124845419D01*
X101482782Y-124843465D01*
X101428521Y-124871252D01*
X101377940Y-124931527D01*
X101329069Y-125027033D01*
X101279938Y-125160514D01*
X101252557Y-125249516D01*
X101203039Y-125418850D01*
X101089760Y-125425342D01*
X101022607Y-125426719D01*
X100990561Y-125419968D01*
X100986760Y-125404175D01*
X100996667Y-125373551D01*
X101015618Y-125311804D01*
X101040729Y-125228428D01*
X101064346Y-125149035D01*
X101097262Y-125027950D01*
X101113038Y-124941006D01*
X101111259Y-124883451D01*
X101091508Y-124850536D01*
X101053368Y-124837510D01*
X101036959Y-124836766D01*
X100982386Y-124845557D01*
X100935875Y-124875204D01*
X100893975Y-124930623D01*
X100853236Y-125016728D01*
X100810207Y-125138434D01*
X100798075Y-125176979D01*
X100720075Y-125429433D01*
X100618171Y-125429433D01*
X100555368Y-125426648D01*
X100524723Y-125415832D01*
X100516284Y-125393298D01*
X100516266Y-125391658D01*
X100523046Y-125351850D01*
X100540564Y-125288288D01*
X100558254Y-125234418D01*
X100584950Y-125154749D01*
X100616832Y-125054224D01*
X100647612Y-124952737D01*
X100651699Y-124938818D01*
X100682154Y-124834625D01*
X100704764Y-124764207D01*
X100724446Y-124720974D01*
X100746114Y-124698336D01*
X100774683Y-124689702D01*
X100815069Y-124688484D01*
X100838325Y-124688599D01*
X100900636Y-124689763D01*
X100930045Y-124697113D01*
X100935985Y-124716444D01*
X100930049Y-124744935D01*
X100922164Y-124783492D01*
X100932807Y-124787536D01*
X100964796Y-124765889D01*
X101046058Y-124719917D01*
X101132622Y-124691717D01*
X101216017Y-124681300D01*
X101287771Y-124688680D01*
X101339410Y-124713870D01*
X101362463Y-124756883D01*
X101362933Y-124765275D01*
X101375124Y-124791574D01*
X101408419Y-124785224D01*
X101452867Y-124751735D01*
X101527629Y-124702743D01*
X101612759Y-124678431D01*
X101697284Y-124678557D01*
G37*
X101697284Y-124678557D02*
X101770229Y-124702877D01*
X101820623Y-124751148D01*
X101825353Y-124760007D01*
X101836827Y-124789500D01*
X101841785Y-124822544D01*
X101839063Y-124865527D01*
X101827498Y-124924833D01*
X101805924Y-125006850D01*
X101773180Y-125117961D01*
X101740952Y-125223058D01*
X101677146Y-125429433D01*
X101572956Y-125429433D01*
X101513116Y-125426343D01*
X101475437Y-125418455D01*
X101468766Y-125412513D01*
X101474783Y-125386257D01*
X101490982Y-125329254D01*
X101514582Y-125251060D01*
X101531892Y-125195555D01*
X101569410Y-125068383D01*
X101590086Y-124975036D01*
X101594073Y-124910565D01*
X101581524Y-124870021D01*
X101552593Y-124848456D01*
X101542695Y-124845419D01*
X101482782Y-124843465D01*
X101428521Y-124871252D01*
X101377940Y-124931527D01*
X101329069Y-125027033D01*
X101279938Y-125160514D01*
X101252557Y-125249516D01*
X101203039Y-125418850D01*
X101089760Y-125425342D01*
X101022607Y-125426719D01*
X100990561Y-125419968D01*
X100986760Y-125404175D01*
X100996667Y-125373551D01*
X101015618Y-125311804D01*
X101040729Y-125228428D01*
X101064346Y-125149035D01*
X101097262Y-125027950D01*
X101113038Y-124941006D01*
X101111259Y-124883451D01*
X101091508Y-124850536D01*
X101053368Y-124837510D01*
X101036959Y-124836766D01*
X100982386Y-124845557D01*
X100935875Y-124875204D01*
X100893975Y-124930623D01*
X100853236Y-125016728D01*
X100810207Y-125138434D01*
X100798075Y-125176979D01*
X100720075Y-125429433D01*
X100618171Y-125429433D01*
X100555368Y-125426648D01*
X100524723Y-125415832D01*
X100516284Y-125393298D01*
X100516266Y-125391658D01*
X100523046Y-125351850D01*
X100540564Y-125288288D01*
X100558254Y-125234418D01*
X100584950Y-125154749D01*
X100616832Y-125054224D01*
X100647612Y-124952737D01*
X100651699Y-124938818D01*
X100682154Y-124834625D01*
X100704764Y-124764207D01*
X100724446Y-124720974D01*
X100746114Y-124698336D01*
X100774683Y-124689702D01*
X100815069Y-124688484D01*
X100838325Y-124688599D01*
X100900636Y-124689763D01*
X100930045Y-124697113D01*
X100935985Y-124716444D01*
X100930049Y-124744935D01*
X100922164Y-124783492D01*
X100932807Y-124787536D01*
X100964796Y-124765889D01*
X101046058Y-124719917D01*
X101132622Y-124691717D01*
X101216017Y-124681300D01*
X101287771Y-124688680D01*
X101339410Y-124713870D01*
X101362463Y-124756883D01*
X101362933Y-124765275D01*
X101375124Y-124791574D01*
X101408419Y-124785224D01*
X101452867Y-124751735D01*
X101527629Y-124702743D01*
X101612759Y-124678431D01*
X101697284Y-124678557D01*
G36*
X99064958Y-124392571D02*
G01*
X99170259Y-124393778D01*
X99243613Y-124396325D01*
X99290211Y-124400649D01*
X99315246Y-124407188D01*
X99323910Y-124416379D01*
X99322524Y-124425983D01*
X99307034Y-124473432D01*
X99296798Y-124510649D01*
X99286961Y-124537475D01*
X99267621Y-124552754D01*
X99228680Y-124559708D01*
X99160042Y-124561557D01*
X99137058Y-124561600D01*
X99087488Y-124560897D01*
X99048821Y-124561859D01*
X99018173Y-124569089D01*
X98992659Y-124587189D01*
X98969398Y-124620763D01*
X98945504Y-124674415D01*
X98918094Y-124752747D01*
X98884285Y-124860363D01*
X98841194Y-125001866D01*
X98822143Y-125064308D01*
X98710439Y-125429433D01*
X98595088Y-125429433D01*
X98529296Y-125427835D01*
X98497232Y-125420946D01*
X98490346Y-125405628D01*
X98494223Y-125392391D01*
X98506827Y-125355643D01*
X98528778Y-125287188D01*
X98557515Y-125195425D01*
X98590474Y-125088751D01*
X98625096Y-124975565D01*
X98658817Y-124864264D01*
X98689076Y-124763247D01*
X98713312Y-124680912D01*
X98728963Y-124625657D01*
X98733119Y-124609225D01*
X98735950Y-124583819D01*
X98725045Y-124569555D01*
X98691659Y-124563228D01*
X98627048Y-124561634D01*
X98603150Y-124561600D01*
X98532384Y-124559115D01*
X98482031Y-124552605D01*
X98463100Y-124543591D01*
X98469535Y-124512721D01*
X98485146Y-124462365D01*
X98486337Y-124458925D01*
X98509574Y-124392266D01*
X98922518Y-124392266D01*
X99064958Y-124392571D01*
G37*
X99064958Y-124392571D02*
X99170259Y-124393778D01*
X99243613Y-124396325D01*
X99290211Y-124400649D01*
X99315246Y-124407188D01*
X99323910Y-124416379D01*
X99322524Y-124425983D01*
X99307034Y-124473432D01*
X99296798Y-124510649D01*
X99286961Y-124537475D01*
X99267621Y-124552754D01*
X99228680Y-124559708D01*
X99160042Y-124561557D01*
X99137058Y-124561600D01*
X99087488Y-124560897D01*
X99048821Y-124561859D01*
X99018173Y-124569089D01*
X98992659Y-124587189D01*
X98969398Y-124620763D01*
X98945504Y-124674415D01*
X98918094Y-124752747D01*
X98884285Y-124860363D01*
X98841194Y-125001866D01*
X98822143Y-125064308D01*
X98710439Y-125429433D01*
X98595088Y-125429433D01*
X98529296Y-125427835D01*
X98497232Y-125420946D01*
X98490346Y-125405628D01*
X98494223Y-125392391D01*
X98506827Y-125355643D01*
X98528778Y-125287188D01*
X98557515Y-125195425D01*
X98590474Y-125088751D01*
X98625096Y-124975565D01*
X98658817Y-124864264D01*
X98689076Y-124763247D01*
X98713312Y-124680912D01*
X98728963Y-124625657D01*
X98733119Y-124609225D01*
X98735950Y-124583819D01*
X98725045Y-124569555D01*
X98691659Y-124563228D01*
X98627048Y-124561634D01*
X98603150Y-124561600D01*
X98532384Y-124559115D01*
X98482031Y-124552605D01*
X98463100Y-124543591D01*
X98469535Y-124512721D01*
X98485146Y-124462365D01*
X98486337Y-124458925D01*
X98509574Y-124392266D01*
X98922518Y-124392266D01*
X99064958Y-124392571D01*
G36*
X100367876Y-124684387D02*
G01*
X100445356Y-124699311D01*
X100477436Y-124713767D01*
X100509625Y-124738417D01*
X100531503Y-124767173D01*
X100542708Y-124805409D01*
X100542877Y-124858498D01*
X100531647Y-124931813D01*
X100508655Y-125030726D01*
X100473539Y-125160612D01*
X100439118Y-125281266D01*
X100399418Y-125418850D01*
X100299092Y-125425301D01*
X100237911Y-125426992D01*
X100208084Y-125419323D01*
X100199026Y-125398690D01*
X100198766Y-125391138D01*
X100196228Y-125368821D01*
X100182366Y-125363772D01*
X100147811Y-125376882D01*
X100099929Y-125400562D01*
X99998130Y-125440131D01*
X99911502Y-125445670D01*
X99844690Y-125424974D01*
X99796557Y-125381760D01*
X99777652Y-125319071D01*
X99785200Y-125245139D01*
X99795635Y-125219421D01*
X99993614Y-125219421D01*
X100008586Y-125263733D01*
X100019678Y-125273906D01*
X100072807Y-125290141D01*
X100138792Y-125281739D01*
X100194870Y-125253431D01*
X100225755Y-125217090D01*
X100257492Y-125163557D01*
X100279416Y-125112326D01*
X100283433Y-125091567D01*
X100265506Y-125079911D01*
X100220538Y-125079418D01*
X100161745Y-125088166D01*
X100102346Y-125104230D01*
X100057497Y-125124452D01*
X100010938Y-125168960D01*
X99993614Y-125219421D01*
X99795635Y-125219421D01*
X99816422Y-125168195D01*
X99868542Y-125096472D01*
X99938782Y-125038201D01*
X99982866Y-125015394D01*
X100045065Y-124996097D01*
X100128861Y-124978421D01*
X100197015Y-124968543D01*
X100286905Y-124952651D01*
X100336137Y-124928714D01*
X100345813Y-124895619D01*
X100317036Y-124852256D01*
X100314728Y-124849919D01*
X100255613Y-124820450D01*
X100168833Y-124821485D01*
X100071126Y-124847576D01*
X100016337Y-124865527D01*
X99981846Y-124874207D01*
X99976401Y-124874034D01*
X99978517Y-124852127D01*
X99989171Y-124806209D01*
X99990483Y-124801301D01*
X100015715Y-124748574D01*
X100064470Y-124716385D01*
X100085083Y-124708864D01*
X100173445Y-124688984D01*
X100272474Y-124680885D01*
X100367876Y-124684387D01*
G37*
X100367876Y-124684387D02*
X100445356Y-124699311D01*
X100477436Y-124713767D01*
X100509625Y-124738417D01*
X100531503Y-124767173D01*
X100542708Y-124805409D01*
X100542877Y-124858498D01*
X100531647Y-124931813D01*
X100508655Y-125030726D01*
X100473539Y-125160612D01*
X100439118Y-125281266D01*
X100399418Y-125418850D01*
X100299092Y-125425301D01*
X100237911Y-125426992D01*
X100208084Y-125419323D01*
X100199026Y-125398690D01*
X100198766Y-125391138D01*
X100196228Y-125368821D01*
X100182366Y-125363772D01*
X100147811Y-125376882D01*
X100099929Y-125400562D01*
X99998130Y-125440131D01*
X99911502Y-125445670D01*
X99844690Y-125424974D01*
X99796557Y-125381760D01*
X99777652Y-125319071D01*
X99785200Y-125245139D01*
X99795635Y-125219421D01*
X99993614Y-125219421D01*
X100008586Y-125263733D01*
X100019678Y-125273906D01*
X100072807Y-125290141D01*
X100138792Y-125281739D01*
X100194870Y-125253431D01*
X100225755Y-125217090D01*
X100257492Y-125163557D01*
X100279416Y-125112326D01*
X100283433Y-125091567D01*
X100265506Y-125079911D01*
X100220538Y-125079418D01*
X100161745Y-125088166D01*
X100102346Y-125104230D01*
X100057497Y-125124452D01*
X100010938Y-125168960D01*
X99993614Y-125219421D01*
X99795635Y-125219421D01*
X99816422Y-125168195D01*
X99868542Y-125096472D01*
X99938782Y-125038201D01*
X99982866Y-125015394D01*
X100045065Y-124996097D01*
X100128861Y-124978421D01*
X100197015Y-124968543D01*
X100286905Y-124952651D01*
X100336137Y-124928714D01*
X100345813Y-124895619D01*
X100317036Y-124852256D01*
X100314728Y-124849919D01*
X100255613Y-124820450D01*
X100168833Y-124821485D01*
X100071126Y-124847576D01*
X100016337Y-124865527D01*
X99981846Y-124874207D01*
X99976401Y-124874034D01*
X99978517Y-124852127D01*
X99989171Y-124806209D01*
X99990483Y-124801301D01*
X100015715Y-124748574D01*
X100064470Y-124716385D01*
X100085083Y-124708864D01*
X100173445Y-124688984D01*
X100272474Y-124680885D01*
X100367876Y-124684387D01*
G36*
X99713308Y-124688970D02*
G01*
X99792285Y-124723603D01*
X99839111Y-124779237D01*
X99856813Y-124861070D01*
X99854123Y-124930895D01*
X99844128Y-125014127D01*
X99829504Y-125070666D01*
X99802854Y-125105673D01*
X99756780Y-125124307D01*
X99683888Y-125131728D01*
X99576779Y-125133097D01*
X99564271Y-125133100D01*
X99468742Y-125134897D01*
X99390211Y-125139776D01*
X99337734Y-125146966D01*
X99320620Y-125153829D01*
X99319235Y-125191402D01*
X99345201Y-125235802D01*
X99388975Y-125273098D01*
X99408941Y-125282759D01*
X99477977Y-125292829D01*
X99571696Y-125283617D01*
X99634159Y-125273766D01*
X99676870Y-125269913D01*
X99687679Y-125271232D01*
X99687146Y-125294239D01*
X99675523Y-125338152D01*
X99652004Y-125380537D01*
X99607738Y-125408053D01*
X99562193Y-125422438D01*
X99418234Y-125446548D01*
X99295213Y-125437974D01*
X99225394Y-125413525D01*
X99148565Y-125354490D01*
X99107074Y-125272732D01*
X99101172Y-125169211D01*
X99130265Y-125047256D01*
X99166996Y-124973605D01*
X99373266Y-124973605D01*
X99392562Y-124979417D01*
X99442978Y-124983503D01*
X99508585Y-124984933D01*
X99587162Y-124982419D01*
X99632769Y-124973453D01*
X99654546Y-124955900D01*
X99657232Y-124950201D01*
X99663434Y-124890137D01*
X99636824Y-124846161D01*
X99585693Y-124824232D01*
X99518332Y-124830312D01*
X99499738Y-124836985D01*
X99451730Y-124867440D01*
X99406557Y-124911943D01*
X99377546Y-124956096D01*
X99373266Y-124973605D01*
X99166996Y-124973605D01*
X99193246Y-124920971D01*
X99281761Y-124816470D01*
X99388858Y-124738026D01*
X99507581Y-124689913D01*
X99630979Y-124676402D01*
X99713308Y-124688970D01*
G37*
X99713308Y-124688970D02*
X99792285Y-124723603D01*
X99839111Y-124779237D01*
X99856813Y-124861070D01*
X99854123Y-124930895D01*
X99844128Y-125014127D01*
X99829504Y-125070666D01*
X99802854Y-125105673D01*
X99756780Y-125124307D01*
X99683888Y-125131728D01*
X99576779Y-125133097D01*
X99564271Y-125133100D01*
X99468742Y-125134897D01*
X99390211Y-125139776D01*
X99337734Y-125146966D01*
X99320620Y-125153829D01*
X99319235Y-125191402D01*
X99345201Y-125235802D01*
X99388975Y-125273098D01*
X99408941Y-125282759D01*
X99477977Y-125292829D01*
X99571696Y-125283617D01*
X99634159Y-125273766D01*
X99676870Y-125269913D01*
X99687679Y-125271232D01*
X99687146Y-125294239D01*
X99675523Y-125338152D01*
X99652004Y-125380537D01*
X99607738Y-125408053D01*
X99562193Y-125422438D01*
X99418234Y-125446548D01*
X99295213Y-125437974D01*
X99225394Y-125413525D01*
X99148565Y-125354490D01*
X99107074Y-125272732D01*
X99101172Y-125169211D01*
X99130265Y-125047256D01*
X99166996Y-124973605D01*
X99373266Y-124973605D01*
X99392562Y-124979417D01*
X99442978Y-124983503D01*
X99508585Y-124984933D01*
X99587162Y-124982419D01*
X99632769Y-124973453D01*
X99654546Y-124955900D01*
X99657232Y-124950201D01*
X99663434Y-124890137D01*
X99636824Y-124846161D01*
X99585693Y-124824232D01*
X99518332Y-124830312D01*
X99499738Y-124836985D01*
X99451730Y-124867440D01*
X99406557Y-124911943D01*
X99377546Y-124956096D01*
X99373266Y-124973605D01*
X99166996Y-124973605D01*
X99193246Y-124920971D01*
X99281761Y-124816470D01*
X99388858Y-124738026D01*
X99507581Y-124689913D01*
X99630979Y-124676402D01*
X99713308Y-124688970D01*
G36*
X94122449Y-125667010D02*
G01*
X93877615Y-125797415D01*
X93658718Y-125949608D01*
X93490994Y-126095067D01*
X93425809Y-126153722D01*
X93383701Y-126185017D01*
X93367018Y-126187320D01*
X93367656Y-126180850D01*
X93378626Y-126142265D01*
X93397715Y-126074689D01*
X93421600Y-125989891D01*
X93433375Y-125948016D01*
X93460788Y-125851282D01*
X93487440Y-125758615D01*
X93508840Y-125685580D01*
X93514380Y-125667140D01*
X93541850Y-125576763D01*
X93939077Y-125571890D01*
X94336304Y-125567016D01*
X94122449Y-125667010D01*
G37*
X94122449Y-125667010D02*
X93877615Y-125797415D01*
X93658718Y-125949608D01*
X93490994Y-126095067D01*
X93425809Y-126153722D01*
X93383701Y-126185017D01*
X93367018Y-126187320D01*
X93367656Y-126180850D01*
X93378626Y-126142265D01*
X93397715Y-126074689D01*
X93421600Y-125989891D01*
X93433375Y-125948016D01*
X93460788Y-125851282D01*
X93487440Y-125758615D01*
X93508840Y-125685580D01*
X93514380Y-125667140D01*
X93541850Y-125576763D01*
X93939077Y-125571890D01*
X94336304Y-125567016D01*
X94122449Y-125667010D01*
G36*
X94804947Y-126156309D02*
G01*
X94905287Y-126196886D01*
X94980487Y-126262561D01*
X94992755Y-126280117D01*
X95015350Y-126322334D01*
X95027367Y-126367383D01*
X95030669Y-126428275D01*
X95027119Y-126518020D01*
X95027031Y-126519516D01*
X95023709Y-126592708D01*
X95020208Y-126649663D01*
X95011742Y-126692400D01*
X94993526Y-126722937D01*
X94960774Y-126743292D01*
X94908700Y-126755483D01*
X94832518Y-126761528D01*
X94727442Y-126763444D01*
X94588687Y-126763251D01*
X94449752Y-126762933D01*
X94303924Y-126762260D01*
X94173128Y-126760365D01*
X94062985Y-126757436D01*
X93979120Y-126753660D01*
X93927155Y-126749223D01*
X93912266Y-126745048D01*
X93923076Y-126719571D01*
X93951487Y-126669545D01*
X93991475Y-126605543D01*
X93993666Y-126602173D01*
X94090032Y-126475289D01*
X94204569Y-126358059D01*
X94326071Y-126260760D01*
X94435110Y-126197343D01*
X94561655Y-126155320D01*
X94687669Y-126142048D01*
X94804947Y-126156309D01*
G37*
X94804947Y-126156309D02*
X94905287Y-126196886D01*
X94980487Y-126262561D01*
X94992755Y-126280117D01*
X95015350Y-126322334D01*
X95027367Y-126367383D01*
X95030669Y-126428275D01*
X95027119Y-126518020D01*
X95027031Y-126519516D01*
X95023709Y-126592708D01*
X95020208Y-126649663D01*
X95011742Y-126692400D01*
X94993526Y-126722937D01*
X94960774Y-126743292D01*
X94908700Y-126755483D01*
X94832518Y-126761528D01*
X94727442Y-126763444D01*
X94588687Y-126763251D01*
X94449752Y-126762933D01*
X94303924Y-126762260D01*
X94173128Y-126760365D01*
X94062985Y-126757436D01*
X93979120Y-126753660D01*
X93927155Y-126749223D01*
X93912266Y-126745048D01*
X93923076Y-126719571D01*
X93951487Y-126669545D01*
X93991475Y-126605543D01*
X93993666Y-126602173D01*
X94090032Y-126475289D01*
X94204569Y-126358059D01*
X94326071Y-126260760D01*
X94435110Y-126197343D01*
X94561655Y-126155320D01*
X94687669Y-126142048D01*
X94804947Y-126156309D01*
G36*
X98949190Y-126106884D02*
G01*
X99087644Y-126110577D01*
X99191804Y-126122670D01*
X99269189Y-126144965D01*
X99327322Y-126179263D01*
X99353671Y-126203744D01*
X99383459Y-126242802D01*
X99398915Y-126288313D01*
X99404138Y-126355279D01*
X99404295Y-126388985D01*
X99399420Y-126473233D01*
X99382170Y-126544912D01*
X99346998Y-126624281D01*
X99332040Y-126652772D01*
X99247082Y-126780070D01*
X99144448Y-126872639D01*
X99016042Y-126936987D01*
X98953616Y-126956848D01*
X98884666Y-126971641D01*
X98800221Y-126983523D01*
X98709961Y-126991974D01*
X98623565Y-126996476D01*
X98550715Y-126996509D01*
X98501089Y-126991554D01*
X98484266Y-126982015D01*
X98490187Y-126958557D01*
X98506741Y-126900759D01*
X98532117Y-126814743D01*
X98564502Y-126706632D01*
X98602085Y-126582548D01*
X98615815Y-126537515D01*
X98747365Y-126106766D01*
X98949190Y-126106884D01*
G37*
X98949190Y-126106884D02*
X99087644Y-126110577D01*
X99191804Y-126122670D01*
X99269189Y-126144965D01*
X99327322Y-126179263D01*
X99353671Y-126203744D01*
X99383459Y-126242802D01*
X99398915Y-126288313D01*
X99404138Y-126355279D01*
X99404295Y-126388985D01*
X99399420Y-126473233D01*
X99382170Y-126544912D01*
X99346998Y-126624281D01*
X99332040Y-126652772D01*
X99247082Y-126780070D01*
X99144448Y-126872639D01*
X99016042Y-126936987D01*
X98953616Y-126956848D01*
X98884666Y-126971641D01*
X98800221Y-126983523D01*
X98709961Y-126991974D01*
X98623565Y-126996476D01*
X98550715Y-126996509D01*
X98501089Y-126991554D01*
X98484266Y-126982015D01*
X98490187Y-126958557D01*
X98506741Y-126900759D01*
X98532117Y-126814743D01*
X98564502Y-126706632D01*
X98602085Y-126582548D01*
X98615815Y-126537515D01*
X98747365Y-126106766D01*
X98949190Y-126106884D01*
G36*
X106523350Y-126819970D02*
G01*
X106572628Y-126832349D01*
X106612013Y-126859445D01*
X106624941Y-126871820D01*
X106657653Y-126911259D01*
X106673976Y-126955233D01*
X106678832Y-127019863D01*
X106678760Y-127048148D01*
X106678271Y-127118915D01*
X106674968Y-127170899D01*
X106663188Y-127206981D01*
X106637271Y-127230045D01*
X106591553Y-127242973D01*
X106520374Y-127248647D01*
X106418071Y-127249951D01*
X106282756Y-127249766D01*
X106163091Y-127249134D01*
X106059619Y-127247382D01*
X105979128Y-127244723D01*
X105928406Y-127241371D01*
X105913766Y-127238132D01*
X105926873Y-127199039D01*
X105961405Y-127139727D01*
X106010180Y-127071179D01*
X106066016Y-127004379D01*
X106068068Y-127002145D01*
X106175304Y-126904554D01*
X106285196Y-126844885D01*
X106406039Y-126819105D01*
X106448096Y-126817355D01*
X106523350Y-126819970D01*
G37*
X106523350Y-126819970D02*
X106572628Y-126832349D01*
X106612013Y-126859445D01*
X106624941Y-126871820D01*
X106657653Y-126911259D01*
X106673976Y-126955233D01*
X106678832Y-127019863D01*
X106678760Y-127048148D01*
X106678271Y-127118915D01*
X106674968Y-127170899D01*
X106663188Y-127206981D01*
X106637271Y-127230045D01*
X106591553Y-127242973D01*
X106520374Y-127248647D01*
X106418071Y-127249951D01*
X106282756Y-127249766D01*
X106163091Y-127249134D01*
X106059619Y-127247382D01*
X105979128Y-127244723D01*
X105928406Y-127241371D01*
X105913766Y-127238132D01*
X105926873Y-127199039D01*
X105961405Y-127139727D01*
X106010180Y-127071179D01*
X106066016Y-127004379D01*
X106068068Y-127002145D01*
X106175304Y-126904554D01*
X106285196Y-126844885D01*
X106406039Y-126819105D01*
X106448096Y-126817355D01*
X106523350Y-126819970D01*
G36*
X101200416Y-126877923D02*
G01*
X101306688Y-126911105D01*
X101383074Y-126973586D01*
X101428762Y-127064258D01*
X101442942Y-127182012D01*
X101424804Y-127325742D01*
X101417421Y-127356747D01*
X101350350Y-127565207D01*
X101264912Y-127736871D01*
X101161548Y-127871260D01*
X101040701Y-127967896D01*
X100902813Y-128026300D01*
X100781262Y-128045137D01*
X100705104Y-128046779D01*
X100641117Y-128044200D01*
X100611516Y-128039836D01*
X100519507Y-127994627D01*
X100455984Y-127919733D01*
X100421383Y-127817176D01*
X100416142Y-127688978D01*
X100440696Y-127537159D01*
X100476754Y-127415272D01*
X100554450Y-127238544D01*
X100653529Y-127094285D01*
X100771869Y-126984444D01*
X100907347Y-126910969D01*
X101057842Y-126875810D01*
X101065067Y-126875148D01*
X101200416Y-126877923D01*
G37*
X101200416Y-126877923D02*
X101306688Y-126911105D01*
X101383074Y-126973586D01*
X101428762Y-127064258D01*
X101442942Y-127182012D01*
X101424804Y-127325742D01*
X101417421Y-127356747D01*
X101350350Y-127565207D01*
X101264912Y-127736871D01*
X101161548Y-127871260D01*
X101040701Y-127967896D01*
X100902813Y-128026300D01*
X100781262Y-128045137D01*
X100705104Y-128046779D01*
X100641117Y-128044200D01*
X100611516Y-128039836D01*
X100519507Y-127994627D01*
X100455984Y-127919733D01*
X100421383Y-127817176D01*
X100416142Y-127688978D01*
X100440696Y-127537159D01*
X100476754Y-127415272D01*
X100554450Y-127238544D01*
X100653529Y-127094285D01*
X100771869Y-126984444D01*
X100907347Y-126910969D01*
X101057842Y-126875810D01*
X101065067Y-126875148D01*
X101200416Y-126877923D01*
G36*
X108634690Y-126947260D02*
G01*
X108707771Y-126957781D01*
X108757745Y-126976500D01*
X108764510Y-126981955D01*
X108766392Y-126995531D01*
X108760977Y-127028696D01*
X108747178Y-127085607D01*
X108723907Y-127170422D01*
X108690076Y-127287297D01*
X108644637Y-127440266D01*
X108617484Y-127531908D01*
X108590071Y-127625890D01*
X108573504Y-127683683D01*
X108559305Y-127733606D01*
X108541514Y-127795637D01*
X108518555Y-127875224D01*
X108488852Y-127977812D01*
X108450832Y-128108851D01*
X108402918Y-128273787D01*
X108389870Y-128318683D01*
X108352956Y-128445683D01*
X108010200Y-128451506D01*
X107896024Y-128452505D01*
X107799144Y-128451546D01*
X107726338Y-128448847D01*
X107684387Y-128444621D01*
X107676977Y-128440923D01*
X107685614Y-128416918D01*
X107704836Y-128358144D01*
X107732834Y-128270309D01*
X107767800Y-128159121D01*
X107807923Y-128030290D01*
X107839825Y-127927100D01*
X107900208Y-127734321D01*
X107951923Y-127577421D01*
X107997215Y-127451371D01*
X108038327Y-127351148D01*
X108077505Y-127271724D01*
X108116990Y-127208074D01*
X108159029Y-127155173D01*
X108205320Y-127108495D01*
X108275428Y-127046885D01*
X108332502Y-127007230D01*
X108392530Y-126980665D01*
X108471498Y-126958323D01*
X108479809Y-126956282D01*
X108553652Y-126946306D01*
X108634690Y-126947260D01*
G37*
X108634690Y-126947260D02*
X108707771Y-126957781D01*
X108757745Y-126976500D01*
X108764510Y-126981955D01*
X108766392Y-126995531D01*
X108760977Y-127028696D01*
X108747178Y-127085607D01*
X108723907Y-127170422D01*
X108690076Y-127287297D01*
X108644637Y-127440266D01*
X108617484Y-127531908D01*
X108590071Y-127625890D01*
X108573504Y-127683683D01*
X108559305Y-127733606D01*
X108541514Y-127795637D01*
X108518555Y-127875224D01*
X108488852Y-127977812D01*
X108450832Y-128108851D01*
X108402918Y-128273787D01*
X108389870Y-128318683D01*
X108352956Y-128445683D01*
X108010200Y-128451506D01*
X107896024Y-128452505D01*
X107799144Y-128451546D01*
X107726338Y-128448847D01*
X107684387Y-128444621D01*
X107676977Y-128440923D01*
X107685614Y-128416918D01*
X107704836Y-128358144D01*
X107732834Y-128270309D01*
X107767800Y-128159121D01*
X107807923Y-128030290D01*
X107839825Y-127927100D01*
X107900208Y-127734321D01*
X107951923Y-127577421D01*
X107997215Y-127451371D01*
X108038327Y-127351148D01*
X108077505Y-127271724D01*
X108116990Y-127208074D01*
X108159029Y-127155173D01*
X108205320Y-127108495D01*
X108275428Y-127046885D01*
X108332502Y-127007230D01*
X108392530Y-126980665D01*
X108471498Y-126958323D01*
X108479809Y-126956282D01*
X108553652Y-126946306D01*
X108634690Y-126947260D01*
G36*
X103727090Y-127174156D02*
G01*
X103726841Y-127175683D01*
X103722328Y-127215805D01*
X103716228Y-127290682D01*
X103709066Y-127392789D01*
X103701362Y-127514601D01*
X103693639Y-127648591D01*
X103692305Y-127673100D01*
X103684356Y-127818128D01*
X103676277Y-127961441D01*
X103668653Y-128092960D01*
X103662068Y-128202602D01*
X103657106Y-128280286D01*
X103657014Y-128281641D01*
X103645133Y-128456266D01*
X103308366Y-128456266D01*
X103194359Y-128455463D01*
X103096863Y-128453244D01*
X103022983Y-128449895D01*
X102979821Y-128445702D01*
X102971600Y-128442732D01*
X102981893Y-128418837D01*
X103008603Y-128370610D01*
X103038300Y-128321024D01*
X103190295Y-128063710D01*
X103213508Y-128022350D01*
X103233721Y-127987222D01*
X103269975Y-127925236D01*
X103316680Y-127845923D01*
X103356311Y-127778933D01*
X103417954Y-127673895D01*
X103489856Y-127549771D01*
X103561685Y-127424466D01*
X103606738Y-127345016D01*
X103660290Y-127252932D01*
X103699164Y-127192402D01*
X103721913Y-127165463D01*
X103727090Y-127174156D01*
G37*
X103727090Y-127174156D02*
X103726841Y-127175683D01*
X103722328Y-127215805D01*
X103716228Y-127290682D01*
X103709066Y-127392789D01*
X103701362Y-127514601D01*
X103693639Y-127648591D01*
X103692305Y-127673100D01*
X103684356Y-127818128D01*
X103676277Y-127961441D01*
X103668653Y-128092960D01*
X103662068Y-128202602D01*
X103657106Y-128280286D01*
X103657014Y-128281641D01*
X103645133Y-128456266D01*
X103308366Y-128456266D01*
X103194359Y-128455463D01*
X103096863Y-128453244D01*
X103022983Y-128449895D01*
X102979821Y-128445702D01*
X102971600Y-128442732D01*
X102981893Y-128418837D01*
X103008603Y-128370610D01*
X103038300Y-128321024D01*
X103190295Y-128063710D01*
X103213508Y-128022350D01*
X103233721Y-127987222D01*
X103269975Y-127925236D01*
X103316680Y-127845923D01*
X103356311Y-127778933D01*
X103417954Y-127673895D01*
X103489856Y-127549771D01*
X103561685Y-127424466D01*
X103606738Y-127345016D01*
X103660290Y-127252932D01*
X103699164Y-127192402D01*
X103721913Y-127165463D01*
X103727090Y-127174156D01*
G36*
X99468030Y-125564284D02*
G01*
X99529918Y-125567822D01*
X99566675Y-125568743D01*
X99643784Y-125569640D01*
X99759261Y-125570509D01*
X99911126Y-125571347D01*
X100097394Y-125572150D01*
X100316085Y-125572914D01*
X100565216Y-125573634D01*
X100842805Y-125574307D01*
X101146869Y-125574930D01*
X101475427Y-125575497D01*
X101826496Y-125576005D01*
X102198094Y-125576450D01*
X102588239Y-125576828D01*
X102994948Y-125577136D01*
X103416240Y-125577369D01*
X103850132Y-125577523D01*
X104294641Y-125577595D01*
X104444038Y-125577600D01*
X109190922Y-125577600D01*
X109170598Y-125635808D01*
X109157878Y-125675393D01*
X109135803Y-125747340D01*
X109106872Y-125843368D01*
X109073586Y-125955199D01*
X109050729Y-126032683D01*
X108951183Y-126371350D01*
X108811034Y-126383407D01*
X108641980Y-126418021D01*
X108488048Y-126491795D01*
X108348077Y-126605311D01*
X108329740Y-126624184D01*
X108272275Y-126682485D01*
X108238108Y-126708716D01*
X108225343Y-126701109D01*
X108232085Y-126657895D01*
X108256440Y-126577306D01*
X108261847Y-126560818D01*
X108281803Y-126493037D01*
X108292546Y-126441515D01*
X108292348Y-126419949D01*
X108268575Y-126413955D01*
X108210276Y-126408900D01*
X108125259Y-126405203D01*
X108021329Y-126403279D01*
X107976755Y-126403099D01*
X107857144Y-126403404D01*
X107772776Y-126404990D01*
X107716565Y-126408865D01*
X107681419Y-126416038D01*
X107660253Y-126427516D01*
X107645976Y-126444307D01*
X107641856Y-126450724D01*
X107614722Y-126508052D01*
X107597900Y-126561850D01*
X107587025Y-126602700D01*
X107566280Y-126674514D01*
X107538529Y-126767882D01*
X107506635Y-126873393D01*
X107473463Y-126981639D01*
X107441877Y-127083210D01*
X107414741Y-127168697D01*
X107394950Y-127228600D01*
X107381422Y-127270372D01*
X107359192Y-127341689D01*
X107331670Y-127431533D01*
X107309811Y-127503766D01*
X107268673Y-127639629D01*
X107225009Y-127782431D01*
X107180964Y-127925302D01*
X107138681Y-128061370D01*
X107100302Y-128183764D01*
X107067973Y-128285613D01*
X107043836Y-128360044D01*
X107030834Y-128398058D01*
X107019206Y-128425454D01*
X107003026Y-128442465D01*
X106973292Y-128451471D01*
X106921006Y-128454852D01*
X106837168Y-128454985D01*
X106816073Y-128454834D01*
X106726029Y-128453149D01*
X106673985Y-128449275D01*
X106655636Y-128442526D01*
X106666676Y-128432216D01*
X106668497Y-128431315D01*
X106703887Y-128398206D01*
X106737016Y-128342214D01*
X106745352Y-128321622D01*
X106780844Y-128218284D01*
X106811749Y-128121431D01*
X106835735Y-128039125D01*
X106850474Y-127979424D01*
X106853634Y-127950389D01*
X106853011Y-127949222D01*
X106829206Y-127950042D01*
X106783315Y-127964656D01*
X106775500Y-127967811D01*
X106558964Y-128038229D01*
X106332248Y-128076636D01*
X106220683Y-128082597D01*
X106061068Y-128073844D01*
X105937053Y-128043027D01*
X105847693Y-127989451D01*
X105792043Y-127912420D01*
X105769158Y-127811236D01*
X105769772Y-127750475D01*
X105776183Y-127662516D01*
X106456466Y-127656934D01*
X107136750Y-127651353D01*
X107173125Y-127540518D01*
X107238389Y-127315993D01*
X107276393Y-127120949D01*
X107287021Y-126952378D01*
X107270154Y-126807274D01*
X107225676Y-126682631D01*
X107153470Y-126575441D01*
X107134663Y-126554752D01*
X107018681Y-126462761D01*
X106877983Y-126400078D01*
X106717898Y-126366186D01*
X106543756Y-126360573D01*
X106360888Y-126382724D01*
X106174624Y-126432124D01*
X105990294Y-126508260D01*
X105813228Y-126610617D01*
X105702100Y-126692966D01*
X105521920Y-126867037D01*
X105368883Y-127073153D01*
X105242718Y-127311709D01*
X105187196Y-127449939D01*
X105158832Y-127533401D01*
X105140388Y-127605785D01*
X105129641Y-127681338D01*
X105124369Y-127774308D01*
X105122676Y-127863600D01*
X105122357Y-127972558D01*
X105125196Y-128049788D01*
X105132686Y-128105864D01*
X105146318Y-128151358D01*
X105167582Y-128196842D01*
X105170433Y-128202266D01*
X105217784Y-128275272D01*
X105279106Y-128349547D01*
X105306247Y-128376891D01*
X105391643Y-128456266D01*
X104878872Y-128456266D01*
X104737207Y-128455643D01*
X104611274Y-128453891D01*
X104506699Y-128451189D01*
X104429104Y-128447712D01*
X104384113Y-128443639D01*
X104375088Y-128440391D01*
X104391486Y-128412419D01*
X104426921Y-128352643D01*
X104478693Y-128265588D01*
X104544101Y-128155777D01*
X104620446Y-128027734D01*
X104705027Y-127885982D01*
X104795144Y-127735045D01*
X104888096Y-127579446D01*
X104981185Y-127423709D01*
X105071709Y-127272358D01*
X105156968Y-127129916D01*
X105234263Y-127000906D01*
X105249380Y-126975694D01*
X105330513Y-126839286D01*
X105403482Y-126714450D01*
X105465685Y-126605808D01*
X105514521Y-126517986D01*
X105547390Y-126455608D01*
X105561690Y-126423298D01*
X105561922Y-126420069D01*
X105536166Y-126411440D01*
X105477816Y-126405672D01*
X105396508Y-126402612D01*
X105301872Y-126402107D01*
X105203542Y-126404002D01*
X105111152Y-126408144D01*
X105034333Y-126414381D01*
X104982720Y-126422557D01*
X104966575Y-126429558D01*
X104952593Y-126453849D01*
X104921812Y-126511674D01*
X104876442Y-126598742D01*
X104818694Y-126710763D01*
X104750779Y-126843445D01*
X104674907Y-126992497D01*
X104593289Y-127153628D01*
X104579469Y-127180988D01*
X104497909Y-127342129D01*
X104422413Y-127490551D01*
X104355068Y-127622206D01*
X104297962Y-127733043D01*
X104253185Y-127819012D01*
X104222824Y-127876064D01*
X104208968Y-127900149D01*
X104208362Y-127900655D01*
X104208013Y-127878705D01*
X104211308Y-127824366D01*
X104217594Y-127747359D01*
X104221515Y-127704850D01*
X104232333Y-127582986D01*
X104244652Y-127430108D01*
X104257664Y-127257469D01*
X104270564Y-127076327D01*
X104282546Y-126897935D01*
X104292802Y-126733549D01*
X104299205Y-126620058D01*
X104310649Y-126403100D01*
X104002509Y-126403100D01*
X103694368Y-126403099D01*
X103287050Y-127117475D01*
X103195572Y-127277634D01*
X103109703Y-127427443D01*
X103031916Y-127562627D01*
X102964681Y-127678913D01*
X102910470Y-127772029D01*
X102871757Y-127837702D01*
X102851012Y-127871658D01*
X102849297Y-127874183D01*
X102828190Y-127901307D01*
X102824781Y-127893166D01*
X102831570Y-127860559D01*
X102837316Y-127823270D01*
X102846129Y-127750964D01*
X102857227Y-127650782D01*
X102869827Y-127529865D01*
X102883147Y-127395353D01*
X102887248Y-127352559D01*
X102901412Y-127205925D01*
X102915731Y-127061871D01*
X102929229Y-126929928D01*
X102940929Y-126819623D01*
X102949852Y-126740486D01*
X102950910Y-126731738D01*
X102960981Y-126639403D01*
X102968342Y-126552515D01*
X102971560Y-126488306D01*
X102971600Y-126483030D01*
X102971600Y-126403100D01*
X102320440Y-126403100D01*
X102307778Y-126577725D01*
X102303724Y-126648998D01*
X102299223Y-126754150D01*
X102294563Y-126884732D01*
X102290032Y-127032297D01*
X102285919Y-127188395D01*
X102283795Y-127281516D01*
X102279927Y-127450752D01*
X102275454Y-127627624D01*
X102270691Y-127800783D01*
X102265957Y-127958877D01*
X102261569Y-128090558D01*
X102259974Y-128133475D01*
X102247476Y-128456266D01*
X101715246Y-128455883D01*
X101183016Y-128455499D01*
X101297367Y-128392468D01*
X101515540Y-128250210D01*
X101700664Y-128081816D01*
X101853869Y-127886124D01*
X101944920Y-127727923D01*
X102028930Y-127543210D01*
X102084897Y-127375835D01*
X102115874Y-127214407D01*
X102124933Y-127055891D01*
X102123306Y-126960827D01*
X102116089Y-126891961D01*
X102099773Y-126833206D01*
X102070851Y-126768478D01*
X102055831Y-126738977D01*
X101963688Y-126605348D01*
X101840821Y-126500427D01*
X101687922Y-126424549D01*
X101505686Y-126378052D01*
X101294807Y-126361273D01*
X101276825Y-126361224D01*
X101025057Y-126381550D01*
X100784391Y-126439556D01*
X100558968Y-126532756D01*
X100352928Y-126658663D01*
X100170410Y-126814793D01*
X100015553Y-126998659D01*
X99903046Y-127186215D01*
X99813791Y-127394421D01*
X99756427Y-127595433D01*
X99730774Y-127785719D01*
X99736651Y-127961747D01*
X99773877Y-128119985D01*
X99842273Y-128256899D01*
X99941656Y-128368958D01*
X99964452Y-128387475D01*
X100053890Y-128456266D01*
X99046828Y-128456266D01*
X98808148Y-128456083D01*
X98608623Y-128455473D01*
X98445080Y-128454349D01*
X98314342Y-128452621D01*
X98213234Y-128450201D01*
X98138580Y-128446999D01*
X98087206Y-128442927D01*
X98055934Y-128437895D01*
X98041591Y-128431816D01*
X98039766Y-128428081D01*
X98045897Y-128393721D01*
X98062372Y-128329189D01*
X98086312Y-128244530D01*
X98114842Y-128149789D01*
X98145083Y-128055010D01*
X98155992Y-128022350D01*
X98175141Y-127963153D01*
X98201464Y-127878310D01*
X98230330Y-127782830D01*
X98240912Y-127747183D01*
X98266260Y-127661377D01*
X98287369Y-127590041D01*
X98301155Y-127543589D01*
X98304370Y-127532843D01*
X98328973Y-127521609D01*
X98394883Y-127511834D01*
X98501093Y-127503627D01*
X98636055Y-127497463D01*
X98811789Y-127488217D01*
X98956394Y-127472731D01*
X99080905Y-127448583D01*
X99196354Y-127413350D01*
X99313775Y-127364611D01*
X99375125Y-127335188D01*
X99576513Y-127217034D01*
X99748792Y-127074980D01*
X99897758Y-126903397D01*
X100025633Y-126703111D01*
X100082433Y-126570429D01*
X100122817Y-126412376D01*
X100143368Y-126243867D01*
X100145264Y-126180850D01*
X100144209Y-126085301D01*
X100138505Y-126018489D01*
X100125396Y-125966859D01*
X100102129Y-125916857D01*
X100085786Y-125888165D01*
X100007472Y-125788668D01*
X99899042Y-125707698D01*
X99757598Y-125643763D01*
X99580241Y-125595366D01*
X99483366Y-125577517D01*
X99426540Y-125568095D01*
X99403530Y-125563064D01*
X99416604Y-125561951D01*
X99468030Y-125564284D01*
G37*
X99468030Y-125564284D02*
X99529918Y-125567822D01*
X99566675Y-125568743D01*
X99643784Y-125569640D01*
X99759261Y-125570509D01*
X99911126Y-125571347D01*
X100097394Y-125572150D01*
X100316085Y-125572914D01*
X100565216Y-125573634D01*
X100842805Y-125574307D01*
X101146869Y-125574930D01*
X101475427Y-125575497D01*
X101826496Y-125576005D01*
X102198094Y-125576450D01*
X102588239Y-125576828D01*
X102994948Y-125577136D01*
X103416240Y-125577369D01*
X103850132Y-125577523D01*
X104294641Y-125577595D01*
X104444038Y-125577600D01*
X109190922Y-125577600D01*
X109170598Y-125635808D01*
X109157878Y-125675393D01*
X109135803Y-125747340D01*
X109106872Y-125843368D01*
X109073586Y-125955199D01*
X109050729Y-126032683D01*
X108951183Y-126371350D01*
X108811034Y-126383407D01*
X108641980Y-126418021D01*
X108488048Y-126491795D01*
X108348077Y-126605311D01*
X108329740Y-126624184D01*
X108272275Y-126682485D01*
X108238108Y-126708716D01*
X108225343Y-126701109D01*
X108232085Y-126657895D01*
X108256440Y-126577306D01*
X108261847Y-126560818D01*
X108281803Y-126493037D01*
X108292546Y-126441515D01*
X108292348Y-126419949D01*
X108268575Y-126413955D01*
X108210276Y-126408900D01*
X108125259Y-126405203D01*
X108021329Y-126403279D01*
X107976755Y-126403099D01*
X107857144Y-126403404D01*
X107772776Y-126404990D01*
X107716565Y-126408865D01*
X107681419Y-126416038D01*
X107660253Y-126427516D01*
X107645976Y-126444307D01*
X107641856Y-126450724D01*
X107614722Y-126508052D01*
X107597900Y-126561850D01*
X107587025Y-126602700D01*
X107566280Y-126674514D01*
X107538529Y-126767882D01*
X107506635Y-126873393D01*
X107473463Y-126981639D01*
X107441877Y-127083210D01*
X107414741Y-127168697D01*
X107394950Y-127228600D01*
X107381422Y-127270372D01*
X107359192Y-127341689D01*
X107331670Y-127431533D01*
X107309811Y-127503766D01*
X107268673Y-127639629D01*
X107225009Y-127782431D01*
X107180964Y-127925302D01*
X107138681Y-128061370D01*
X107100302Y-128183764D01*
X107067973Y-128285613D01*
X107043836Y-128360044D01*
X107030834Y-128398058D01*
X107019206Y-128425454D01*
X107003026Y-128442465D01*
X106973292Y-128451471D01*
X106921006Y-128454852D01*
X106837168Y-128454985D01*
X106816073Y-128454834D01*
X106726029Y-128453149D01*
X106673985Y-128449275D01*
X106655636Y-128442526D01*
X106666676Y-128432216D01*
X106668497Y-128431315D01*
X106703887Y-128398206D01*
X106737016Y-128342214D01*
X106745352Y-128321622D01*
X106780844Y-128218284D01*
X106811749Y-128121431D01*
X106835735Y-128039125D01*
X106850474Y-127979424D01*
X106853634Y-127950389D01*
X106853011Y-127949222D01*
X106829206Y-127950042D01*
X106783315Y-127964656D01*
X106775500Y-127967811D01*
X106558964Y-128038229D01*
X106332248Y-128076636D01*
X106220683Y-128082597D01*
X106061068Y-128073844D01*
X105937053Y-128043027D01*
X105847693Y-127989451D01*
X105792043Y-127912420D01*
X105769158Y-127811236D01*
X105769772Y-127750475D01*
X105776183Y-127662516D01*
X106456466Y-127656934D01*
X107136750Y-127651353D01*
X107173125Y-127540518D01*
X107238389Y-127315993D01*
X107276393Y-127120949D01*
X107287021Y-126952378D01*
X107270154Y-126807274D01*
X107225676Y-126682631D01*
X107153470Y-126575441D01*
X107134663Y-126554752D01*
X107018681Y-126462761D01*
X106877983Y-126400078D01*
X106717898Y-126366186D01*
X106543756Y-126360573D01*
X106360888Y-126382724D01*
X106174624Y-126432124D01*
X105990294Y-126508260D01*
X105813228Y-126610617D01*
X105702100Y-126692966D01*
X105521920Y-126867037D01*
X105368883Y-127073153D01*
X105242718Y-127311709D01*
X105187196Y-127449939D01*
X105158832Y-127533401D01*
X105140388Y-127605785D01*
X105129641Y-127681338D01*
X105124369Y-127774308D01*
X105122676Y-127863600D01*
X105122357Y-127972558D01*
X105125196Y-128049788D01*
X105132686Y-128105864D01*
X105146318Y-128151358D01*
X105167582Y-128196842D01*
X105170433Y-128202266D01*
X105217784Y-128275272D01*
X105279106Y-128349547D01*
X105306247Y-128376891D01*
X105391643Y-128456266D01*
X104878872Y-128456266D01*
X104737207Y-128455643D01*
X104611274Y-128453891D01*
X104506699Y-128451189D01*
X104429104Y-128447712D01*
X104384113Y-128443639D01*
X104375088Y-128440391D01*
X104391486Y-128412419D01*
X104426921Y-128352643D01*
X104478693Y-128265588D01*
X104544101Y-128155777D01*
X104620446Y-128027734D01*
X104705027Y-127885982D01*
X104795144Y-127735045D01*
X104888096Y-127579446D01*
X104981185Y-127423709D01*
X105071709Y-127272358D01*
X105156968Y-127129916D01*
X105234263Y-127000906D01*
X105249380Y-126975694D01*
X105330513Y-126839286D01*
X105403482Y-126714450D01*
X105465685Y-126605808D01*
X105514521Y-126517986D01*
X105547390Y-126455608D01*
X105561690Y-126423298D01*
X105561922Y-126420069D01*
X105536166Y-126411440D01*
X105477816Y-126405672D01*
X105396508Y-126402612D01*
X105301872Y-126402107D01*
X105203542Y-126404002D01*
X105111152Y-126408144D01*
X105034333Y-126414381D01*
X104982720Y-126422557D01*
X104966575Y-126429558D01*
X104952593Y-126453849D01*
X104921812Y-126511674D01*
X104876442Y-126598742D01*
X104818694Y-126710763D01*
X104750779Y-126843445D01*
X104674907Y-126992497D01*
X104593289Y-127153628D01*
X104579469Y-127180988D01*
X104497909Y-127342129D01*
X104422413Y-127490551D01*
X104355068Y-127622206D01*
X104297962Y-127733043D01*
X104253185Y-127819012D01*
X104222824Y-127876064D01*
X104208968Y-127900149D01*
X104208362Y-127900655D01*
X104208013Y-127878705D01*
X104211308Y-127824366D01*
X104217594Y-127747359D01*
X104221515Y-127704850D01*
X104232333Y-127582986D01*
X104244652Y-127430108D01*
X104257664Y-127257469D01*
X104270564Y-127076327D01*
X104282546Y-126897935D01*
X104292802Y-126733549D01*
X104299205Y-126620058D01*
X104310649Y-126403100D01*
X104002509Y-126403100D01*
X103694368Y-126403099D01*
X103287050Y-127117475D01*
X103195572Y-127277634D01*
X103109703Y-127427443D01*
X103031916Y-127562627D01*
X102964681Y-127678913D01*
X102910470Y-127772029D01*
X102871757Y-127837702D01*
X102851012Y-127871658D01*
X102849297Y-127874183D01*
X102828190Y-127901307D01*
X102824781Y-127893166D01*
X102831570Y-127860559D01*
X102837316Y-127823270D01*
X102846129Y-127750964D01*
X102857227Y-127650782D01*
X102869827Y-127529865D01*
X102883147Y-127395353D01*
X102887248Y-127352559D01*
X102901412Y-127205925D01*
X102915731Y-127061871D01*
X102929229Y-126929928D01*
X102940929Y-126819623D01*
X102949852Y-126740486D01*
X102950910Y-126731738D01*
X102960981Y-126639403D01*
X102968342Y-126552515D01*
X102971560Y-126488306D01*
X102971600Y-126483030D01*
X102971600Y-126403100D01*
X102320440Y-126403100D01*
X102307778Y-126577725D01*
X102303724Y-126648998D01*
X102299223Y-126754150D01*
X102294563Y-126884732D01*
X102290032Y-127032297D01*
X102285919Y-127188395D01*
X102283795Y-127281516D01*
X102279927Y-127450752D01*
X102275454Y-127627624D01*
X102270691Y-127800783D01*
X102265957Y-127958877D01*
X102261569Y-128090558D01*
X102259974Y-128133475D01*
X102247476Y-128456266D01*
X101715246Y-128455883D01*
X101183016Y-128455499D01*
X101297367Y-128392468D01*
X101515540Y-128250210D01*
X101700664Y-128081816D01*
X101853869Y-127886124D01*
X101944920Y-127727923D01*
X102028930Y-127543210D01*
X102084897Y-127375835D01*
X102115874Y-127214407D01*
X102124933Y-127055891D01*
X102123306Y-126960827D01*
X102116089Y-126891961D01*
X102099773Y-126833206D01*
X102070851Y-126768478D01*
X102055831Y-126738977D01*
X101963688Y-126605348D01*
X101840821Y-126500427D01*
X101687922Y-126424549D01*
X101505686Y-126378052D01*
X101294807Y-126361273D01*
X101276825Y-126361224D01*
X101025057Y-126381550D01*
X100784391Y-126439556D01*
X100558968Y-126532756D01*
X100352928Y-126658663D01*
X100170410Y-126814793D01*
X100015553Y-126998659D01*
X99903046Y-127186215D01*
X99813791Y-127394421D01*
X99756427Y-127595433D01*
X99730774Y-127785719D01*
X99736651Y-127961747D01*
X99773877Y-128119985D01*
X99842273Y-128256899D01*
X99941656Y-128368958D01*
X99964452Y-128387475D01*
X100053890Y-128456266D01*
X99046828Y-128456266D01*
X98808148Y-128456083D01*
X98608623Y-128455473D01*
X98445080Y-128454349D01*
X98314342Y-128452621D01*
X98213234Y-128450201D01*
X98138580Y-128446999D01*
X98087206Y-128442927D01*
X98055934Y-128437895D01*
X98041591Y-128431816D01*
X98039766Y-128428081D01*
X98045897Y-128393721D01*
X98062372Y-128329189D01*
X98086312Y-128244530D01*
X98114842Y-128149789D01*
X98145083Y-128055010D01*
X98155992Y-128022350D01*
X98175141Y-127963153D01*
X98201464Y-127878310D01*
X98230330Y-127782830D01*
X98240912Y-127747183D01*
X98266260Y-127661377D01*
X98287369Y-127590041D01*
X98301155Y-127543589D01*
X98304370Y-127532843D01*
X98328973Y-127521609D01*
X98394883Y-127511834D01*
X98501093Y-127503627D01*
X98636055Y-127497463D01*
X98811789Y-127488217D01*
X98956394Y-127472731D01*
X99080905Y-127448583D01*
X99196354Y-127413350D01*
X99313775Y-127364611D01*
X99375125Y-127335188D01*
X99576513Y-127217034D01*
X99748792Y-127074980D01*
X99897758Y-126903397D01*
X100025633Y-126703111D01*
X100082433Y-126570429D01*
X100122817Y-126412376D01*
X100143368Y-126243867D01*
X100145264Y-126180850D01*
X100144209Y-126085301D01*
X100138505Y-126018489D01*
X100125396Y-125966859D01*
X100102129Y-125916857D01*
X100085786Y-125888165D01*
X100007472Y-125788668D01*
X99899042Y-125707698D01*
X99757598Y-125643763D01*
X99580241Y-125595366D01*
X99483366Y-125577517D01*
X99426540Y-125568095D01*
X99403530Y-125563064D01*
X99416604Y-125561951D01*
X99468030Y-125564284D01*
G36*
X96798303Y-125572890D02*
G01*
X97039378Y-125573994D01*
X97267769Y-125575246D01*
X97479991Y-125576613D01*
X97672559Y-125578064D01*
X97841989Y-125579565D01*
X97984795Y-125581086D01*
X98097492Y-125582593D01*
X98176597Y-125584054D01*
X98218623Y-125585436D01*
X98224654Y-125586099D01*
X98220256Y-125607256D01*
X98204546Y-125664346D01*
X98178854Y-125752903D01*
X98144510Y-125868457D01*
X98102842Y-126006541D01*
X98055180Y-126162686D01*
X98002853Y-126332425D01*
X97996537Y-126352808D01*
X97941402Y-126530628D01*
X97888524Y-126701171D01*
X97839622Y-126858887D01*
X97796419Y-126998230D01*
X97760632Y-127113651D01*
X97733983Y-127199601D01*
X97718431Y-127249766D01*
X97688616Y-127346854D01*
X97656926Y-127451445D01*
X97638113Y-127514350D01*
X97615360Y-127589926D01*
X97582348Y-127698019D01*
X97541508Y-127830756D01*
X97495267Y-127980266D01*
X97446056Y-128138677D01*
X97396304Y-128298118D01*
X97389869Y-128318683D01*
X97350117Y-128445683D01*
X96203572Y-128451156D01*
X95057026Y-128456630D01*
X95086788Y-128398240D01*
X95105086Y-128353905D01*
X95131020Y-128280243D01*
X95160707Y-128188661D01*
X95182351Y-128117600D01*
X95211302Y-128021532D01*
X95237897Y-127936343D01*
X95258698Y-127872876D01*
X95268395Y-127846138D01*
X95280768Y-127795173D01*
X95263518Y-127774443D01*
X95216638Y-127783947D01*
X95186406Y-127797815D01*
X95064348Y-127849458D01*
X94913444Y-127897211D01*
X94747179Y-127937481D01*
X94579039Y-127966674D01*
X94529692Y-127972797D01*
X94331952Y-127983984D01*
X94156134Y-127972069D01*
X94005699Y-127938069D01*
X93884106Y-127883001D01*
X93794815Y-127807883D01*
X93753724Y-127744630D01*
X93715435Y-127629115D01*
X93712453Y-127598739D01*
X96120590Y-127598739D01*
X96123178Y-127607973D01*
X96148497Y-127615813D01*
X96209160Y-127622112D01*
X96298207Y-127626892D01*
X96408678Y-127630176D01*
X96533613Y-127631987D01*
X96666051Y-127632348D01*
X96799032Y-127631283D01*
X96925596Y-127628814D01*
X97038783Y-127624964D01*
X97131632Y-127619757D01*
X97197183Y-127613216D01*
X97228477Y-127605363D01*
X97229620Y-127604308D01*
X97244170Y-127573662D01*
X97266394Y-127513903D01*
X97292568Y-127436690D01*
X97318969Y-127353679D01*
X97341873Y-127276530D01*
X97357557Y-127216899D01*
X97362433Y-127188459D01*
X97346740Y-127180647D01*
X97298298Y-127174521D01*
X97215064Y-127169995D01*
X97094995Y-127166984D01*
X96936047Y-127165402D01*
X96804414Y-127165100D01*
X96246395Y-127165100D01*
X96209759Y-127286808D01*
X96183146Y-127371988D01*
X96155192Y-127456584D01*
X96141108Y-127496848D01*
X96124523Y-127555483D01*
X96120590Y-127598739D01*
X93712453Y-127598739D01*
X93703653Y-127509129D01*
X93714601Y-127423540D01*
X93732739Y-127353896D01*
X94676958Y-127355156D01*
X94873797Y-127355135D01*
X95058228Y-127354571D01*
X95225803Y-127353517D01*
X95372078Y-127352025D01*
X95492604Y-127350149D01*
X95582934Y-127347942D01*
X95638623Y-127345456D01*
X95654842Y-127343497D01*
X95671813Y-127326732D01*
X95693159Y-127285877D01*
X95720072Y-127217617D01*
X95753743Y-127118637D01*
X95795365Y-126985621D01*
X95846130Y-126815255D01*
X95852150Y-126794683D01*
X95872367Y-126702499D01*
X95884706Y-126587454D01*
X95890002Y-126440984D01*
X95890307Y-126403100D01*
X95891350Y-126138516D01*
X95810901Y-125977406D01*
X95751946Y-125868964D01*
X95693563Y-125788159D01*
X95623916Y-125722153D01*
X95531169Y-125658111D01*
X95497735Y-125637759D01*
X95379286Y-125567016D01*
X96798303Y-125572890D01*
G37*
X96798303Y-125572890D02*
X97039378Y-125573994D01*
X97267769Y-125575246D01*
X97479991Y-125576613D01*
X97672559Y-125578064D01*
X97841989Y-125579565D01*
X97984795Y-125581086D01*
X98097492Y-125582593D01*
X98176597Y-125584054D01*
X98218623Y-125585436D01*
X98224654Y-125586099D01*
X98220256Y-125607256D01*
X98204546Y-125664346D01*
X98178854Y-125752903D01*
X98144510Y-125868457D01*
X98102842Y-126006541D01*
X98055180Y-126162686D01*
X98002853Y-126332425D01*
X97996537Y-126352808D01*
X97941402Y-126530628D01*
X97888524Y-126701171D01*
X97839622Y-126858887D01*
X97796419Y-126998230D01*
X97760632Y-127113651D01*
X97733983Y-127199601D01*
X97718431Y-127249766D01*
X97688616Y-127346854D01*
X97656926Y-127451445D01*
X97638113Y-127514350D01*
X97615360Y-127589926D01*
X97582348Y-127698019D01*
X97541508Y-127830756D01*
X97495267Y-127980266D01*
X97446056Y-128138677D01*
X97396304Y-128298118D01*
X97389869Y-128318683D01*
X97350117Y-128445683D01*
X96203572Y-128451156D01*
X95057026Y-128456630D01*
X95086788Y-128398240D01*
X95105086Y-128353905D01*
X95131020Y-128280243D01*
X95160707Y-128188661D01*
X95182351Y-128117600D01*
X95211302Y-128021532D01*
X95237897Y-127936343D01*
X95258698Y-127872876D01*
X95268395Y-127846138D01*
X95280768Y-127795173D01*
X95263518Y-127774443D01*
X95216638Y-127783947D01*
X95186406Y-127797815D01*
X95064348Y-127849458D01*
X94913444Y-127897211D01*
X94747179Y-127937481D01*
X94579039Y-127966674D01*
X94529692Y-127972797D01*
X94331952Y-127983984D01*
X94156134Y-127972069D01*
X94005699Y-127938069D01*
X93884106Y-127883001D01*
X93794815Y-127807883D01*
X93753724Y-127744630D01*
X93715435Y-127629115D01*
X93712453Y-127598739D01*
X96120590Y-127598739D01*
X96123178Y-127607973D01*
X96148497Y-127615813D01*
X96209160Y-127622112D01*
X96298207Y-127626892D01*
X96408678Y-127630176D01*
X96533613Y-127631987D01*
X96666051Y-127632348D01*
X96799032Y-127631283D01*
X96925596Y-127628814D01*
X97038783Y-127624964D01*
X97131632Y-127619757D01*
X97197183Y-127613216D01*
X97228477Y-127605363D01*
X97229620Y-127604308D01*
X97244170Y-127573662D01*
X97266394Y-127513903D01*
X97292568Y-127436690D01*
X97318969Y-127353679D01*
X97341873Y-127276530D01*
X97357557Y-127216899D01*
X97362433Y-127188459D01*
X97346740Y-127180647D01*
X97298298Y-127174521D01*
X97215064Y-127169995D01*
X97094995Y-127166984D01*
X96936047Y-127165402D01*
X96804414Y-127165100D01*
X96246395Y-127165100D01*
X96209759Y-127286808D01*
X96183146Y-127371988D01*
X96155192Y-127456584D01*
X96141108Y-127496848D01*
X96124523Y-127555483D01*
X96120590Y-127598739D01*
X93712453Y-127598739D01*
X93703653Y-127509129D01*
X93714601Y-127423540D01*
X93732739Y-127353896D01*
X94676958Y-127355156D01*
X94873797Y-127355135D01*
X95058228Y-127354571D01*
X95225803Y-127353517D01*
X95372078Y-127352025D01*
X95492604Y-127350149D01*
X95582934Y-127347942D01*
X95638623Y-127345456D01*
X95654842Y-127343497D01*
X95671813Y-127326732D01*
X95693159Y-127285877D01*
X95720072Y-127217617D01*
X95753743Y-127118637D01*
X95795365Y-126985621D01*
X95846130Y-126815255D01*
X95852150Y-126794683D01*
X95872367Y-126702499D01*
X95884706Y-126587454D01*
X95890002Y-126440984D01*
X95890307Y-126403100D01*
X95891350Y-126138516D01*
X95810901Y-125977406D01*
X95751946Y-125868964D01*
X95693563Y-125788159D01*
X95623916Y-125722153D01*
X95531169Y-125658111D01*
X95497735Y-125637759D01*
X95379286Y-125567016D01*
X96798303Y-125572890D01*
G36*
X92866170Y-128156716D02*
G01*
X92894977Y-128205821D01*
X92943716Y-128270764D01*
X93002041Y-128337801D01*
X93004289Y-128340186D01*
X93114074Y-128456266D01*
X92742808Y-128456266D01*
X92755645Y-128392081D01*
X92768891Y-128335261D01*
X92789026Y-128258735D01*
X92803159Y-128208612D01*
X92837836Y-128089328D01*
X92866170Y-128156716D01*
G37*
X92866170Y-128156716D02*
X92894977Y-128205821D01*
X92943716Y-128270764D01*
X93002041Y-128337801D01*
X93004289Y-128340186D01*
X93114074Y-128456266D01*
X92742808Y-128456266D01*
X92755645Y-128392081D01*
X92768891Y-128335261D01*
X92789026Y-128258735D01*
X92803159Y-128208612D01*
X92837836Y-128089328D01*
X92866170Y-128156716D01*
G36*
X103232420Y-128745127D02*
G01*
X103310490Y-128784398D01*
X103362095Y-128847459D01*
X103382474Y-128930792D01*
X103371741Y-129014733D01*
X103324554Y-129115370D01*
X103248033Y-129200662D01*
X103151314Y-129265930D01*
X103043535Y-129306495D01*
X102933831Y-129317675D01*
X102831340Y-129294792D01*
X102827932Y-129293288D01*
X102757997Y-129242940D01*
X102720018Y-129174290D01*
X102711706Y-129093928D01*
X102730773Y-129008440D01*
X102774930Y-128924416D01*
X102841890Y-128848441D01*
X102929363Y-128787105D01*
X103015945Y-128752022D01*
X103132651Y-128733163D01*
X103232420Y-128745127D01*
G37*
X103232420Y-128745127D02*
X103310490Y-128784398D01*
X103362095Y-128847459D01*
X103382474Y-128930792D01*
X103371741Y-129014733D01*
X103324554Y-129115370D01*
X103248033Y-129200662D01*
X103151314Y-129265930D01*
X103043535Y-129306495D01*
X102933831Y-129317675D01*
X102831340Y-129294792D01*
X102827932Y-129293288D01*
X102757997Y-129242940D01*
X102720018Y-129174290D01*
X102711706Y-129093928D01*
X102730773Y-129008440D01*
X102774930Y-128924416D01*
X102841890Y-128848441D01*
X102929363Y-128787105D01*
X103015945Y-128752022D01*
X103132651Y-128733163D01*
X103232420Y-128745127D01*
G36*
X104802269Y-129604068D02*
G01*
X104907072Y-129647026D01*
X104981873Y-129714723D01*
X105030620Y-129810096D01*
X105046157Y-129867663D01*
X105055734Y-129940934D01*
X105054427Y-130025990D01*
X105041281Y-130127963D01*
X105015342Y-130251987D01*
X104975653Y-130403195D01*
X104921261Y-130586719D01*
X104899182Y-130657600D01*
X104855819Y-130795654D01*
X104810080Y-130941595D01*
X104766343Y-131081442D01*
X104728981Y-131201211D01*
X104715371Y-131244975D01*
X104641414Y-131483100D01*
X104367423Y-131483100D01*
X104250920Y-131482960D01*
X104171217Y-131480276D01*
X104122790Y-131471655D01*
X104100113Y-131453700D01*
X104097664Y-131423018D01*
X104109916Y-131376213D01*
X104123836Y-131333412D01*
X104139182Y-131285418D01*
X104161107Y-131215674D01*
X104190643Y-131120851D01*
X104228821Y-130997624D01*
X104276674Y-130842665D01*
X104335233Y-130652645D01*
X104378026Y-130513632D01*
X104418188Y-130351948D01*
X104429595Y-130221269D01*
X104412231Y-130121514D01*
X104366080Y-130052603D01*
X104291126Y-130014458D01*
X104275803Y-130011080D01*
X104167633Y-130009188D01*
X104060903Y-130045715D01*
X103952292Y-130122059D01*
X103904442Y-130167215D01*
X103859790Y-130213328D01*
X103825693Y-130253366D01*
X103798212Y-130295345D01*
X103773405Y-130347281D01*
X103747332Y-130417190D01*
X103716054Y-130513089D01*
X103684214Y-130615266D01*
X103647397Y-130733653D01*
X103612697Y-130844334D01*
X103583031Y-130938065D01*
X103561319Y-131005601D01*
X103553898Y-131028016D01*
X103534379Y-131087690D01*
X103507513Y-131172542D01*
X103478148Y-131267209D01*
X103468763Y-131297891D01*
X103412339Y-131483100D01*
X103139053Y-131483100D01*
X103016407Y-131481789D01*
X102932411Y-131477638D01*
X102883455Y-131470316D01*
X102865930Y-131459491D01*
X102865766Y-131458086D01*
X102871675Y-131432070D01*
X102888093Y-131372177D01*
X102913061Y-131284984D01*
X102944618Y-131177070D01*
X102980803Y-131055012D01*
X103019656Y-130925387D01*
X103059216Y-130794773D01*
X103097522Y-130669749D01*
X103132615Y-130556891D01*
X103161138Y-130467100D01*
X103184965Y-130391729D01*
X103215344Y-130293555D01*
X103246787Y-130190360D01*
X103255877Y-130160183D01*
X103284954Y-130064652D01*
X103313203Y-129974089D01*
X103335930Y-129903468D01*
X103342128Y-129885016D01*
X103367384Y-129805790D01*
X103391460Y-129721791D01*
X103394461Y-129710391D01*
X103417731Y-129620433D01*
X103990452Y-129620433D01*
X103975056Y-129668058D01*
X103939621Y-129781400D01*
X103919214Y-129855786D01*
X103913689Y-129891778D01*
X103916023Y-129895600D01*
X103936956Y-129883206D01*
X103980149Y-129851009D01*
X104026135Y-129814210D01*
X104187711Y-129699245D01*
X104346467Y-129623855D01*
X104507791Y-129586085D01*
X104663515Y-129582911D01*
X104802269Y-129604068D01*
G37*
X104802269Y-129604068D02*
X104907072Y-129647026D01*
X104981873Y-129714723D01*
X105030620Y-129810096D01*
X105046157Y-129867663D01*
X105055734Y-129940934D01*
X105054427Y-130025990D01*
X105041281Y-130127963D01*
X105015342Y-130251987D01*
X104975653Y-130403195D01*
X104921261Y-130586719D01*
X104899182Y-130657600D01*
X104855819Y-130795654D01*
X104810080Y-130941595D01*
X104766343Y-131081442D01*
X104728981Y-131201211D01*
X104715371Y-131244975D01*
X104641414Y-131483100D01*
X104367423Y-131483100D01*
X104250920Y-131482960D01*
X104171217Y-131480276D01*
X104122790Y-131471655D01*
X104100113Y-131453700D01*
X104097664Y-131423018D01*
X104109916Y-131376213D01*
X104123836Y-131333412D01*
X104139182Y-131285418D01*
X104161107Y-131215674D01*
X104190643Y-131120851D01*
X104228821Y-130997624D01*
X104276674Y-130842665D01*
X104335233Y-130652645D01*
X104378026Y-130513632D01*
X104418188Y-130351948D01*
X104429595Y-130221269D01*
X104412231Y-130121514D01*
X104366080Y-130052603D01*
X104291126Y-130014458D01*
X104275803Y-130011080D01*
X104167633Y-130009188D01*
X104060903Y-130045715D01*
X103952292Y-130122059D01*
X103904442Y-130167215D01*
X103859790Y-130213328D01*
X103825693Y-130253366D01*
X103798212Y-130295345D01*
X103773405Y-130347281D01*
X103747332Y-130417190D01*
X103716054Y-130513089D01*
X103684214Y-130615266D01*
X103647397Y-130733653D01*
X103612697Y-130844334D01*
X103583031Y-130938065D01*
X103561319Y-131005601D01*
X103553898Y-131028016D01*
X103534379Y-131087690D01*
X103507513Y-131172542D01*
X103478148Y-131267209D01*
X103468763Y-131297891D01*
X103412339Y-131483100D01*
X103139053Y-131483100D01*
X103016407Y-131481789D01*
X102932411Y-131477638D01*
X102883455Y-131470316D01*
X102865930Y-131459491D01*
X102865766Y-131458086D01*
X102871675Y-131432070D01*
X102888093Y-131372177D01*
X102913061Y-131284984D01*
X102944618Y-131177070D01*
X102980803Y-131055012D01*
X103019656Y-130925387D01*
X103059216Y-130794773D01*
X103097522Y-130669749D01*
X103132615Y-130556891D01*
X103161138Y-130467100D01*
X103184965Y-130391729D01*
X103215344Y-130293555D01*
X103246787Y-130190360D01*
X103255877Y-130160183D01*
X103284954Y-130064652D01*
X103313203Y-129974089D01*
X103335930Y-129903468D01*
X103342128Y-129885016D01*
X103367384Y-129805790D01*
X103391460Y-129721791D01*
X103394461Y-129710391D01*
X103417731Y-129620433D01*
X103990452Y-129620433D01*
X103975056Y-129668058D01*
X103939621Y-129781400D01*
X103919214Y-129855786D01*
X103913689Y-129891778D01*
X103916023Y-129895600D01*
X103936956Y-129883206D01*
X103980149Y-129851009D01*
X104026135Y-129814210D01*
X104187711Y-129699245D01*
X104346467Y-129623855D01*
X104507791Y-129586085D01*
X104663515Y-129582911D01*
X104802269Y-129604068D01*
G36*
X102972412Y-129620839D02*
G01*
X103051322Y-129622618D01*
X103100407Y-129626615D01*
X103125921Y-129633671D01*
X103134115Y-129644630D01*
X103132187Y-129657475D01*
X103101831Y-129754654D01*
X103062540Y-129880783D01*
X103017885Y-130024368D01*
X102971439Y-130173914D01*
X102926773Y-130317927D01*
X102887459Y-130444914D01*
X102883872Y-130456516D01*
X102849759Y-130566373D01*
X102817527Y-130669260D01*
X102790543Y-130754495D01*
X102772170Y-130811396D01*
X102770525Y-130816350D01*
X102753856Y-130867644D01*
X102727899Y-130949197D01*
X102695872Y-131050827D01*
X102660996Y-131162350D01*
X102651750Y-131192058D01*
X102561269Y-131483100D01*
X102290184Y-131483100D01*
X102178628Y-131482671D01*
X102102641Y-131480721D01*
X102055465Y-131476254D01*
X102030340Y-131468274D01*
X102020507Y-131455787D01*
X102019100Y-131443174D01*
X102025531Y-131404490D01*
X102042519Y-131338988D01*
X102066606Y-131259799D01*
X102070673Y-131247383D01*
X102090817Y-131184916D01*
X102121013Y-131089188D01*
X102159009Y-130967444D01*
X102202551Y-130826927D01*
X102249385Y-130674883D01*
X102293583Y-130530600D01*
X102339979Y-130379171D01*
X102383812Y-130236972D01*
X102423138Y-130110242D01*
X102456012Y-130005223D01*
X102480491Y-129928155D01*
X102494628Y-129885281D01*
X102494721Y-129885016D01*
X102520477Y-129805768D01*
X102544798Y-129721752D01*
X102547794Y-129710391D01*
X102571065Y-129620433D01*
X102857425Y-129620433D01*
X102972412Y-129620839D01*
G37*
X102972412Y-129620839D02*
X103051322Y-129622618D01*
X103100407Y-129626615D01*
X103125921Y-129633671D01*
X103134115Y-129644630D01*
X103132187Y-129657475D01*
X103101831Y-129754654D01*
X103062540Y-129880783D01*
X103017885Y-130024368D01*
X102971439Y-130173914D01*
X102926773Y-130317927D01*
X102887459Y-130444914D01*
X102883872Y-130456516D01*
X102849759Y-130566373D01*
X102817527Y-130669260D01*
X102790543Y-130754495D01*
X102772170Y-130811396D01*
X102770525Y-130816350D01*
X102753856Y-130867644D01*
X102727899Y-130949197D01*
X102695872Y-131050827D01*
X102660996Y-131162350D01*
X102651750Y-131192058D01*
X102561269Y-131483100D01*
X102290184Y-131483100D01*
X102178628Y-131482671D01*
X102102641Y-131480721D01*
X102055465Y-131476254D01*
X102030340Y-131468274D01*
X102020507Y-131455787D01*
X102019100Y-131443174D01*
X102025531Y-131404490D01*
X102042519Y-131338988D01*
X102066606Y-131259799D01*
X102070673Y-131247383D01*
X102090817Y-131184916D01*
X102121013Y-131089188D01*
X102159009Y-130967444D01*
X102202551Y-130826927D01*
X102249385Y-130674883D01*
X102293583Y-130530600D01*
X102339979Y-130379171D01*
X102383812Y-130236972D01*
X102423138Y-130110242D01*
X102456012Y-130005223D01*
X102480491Y-129928155D01*
X102494628Y-129885281D01*
X102494721Y-129885016D01*
X102520477Y-129805768D01*
X102544798Y-129721752D01*
X102547794Y-129710391D01*
X102571065Y-129620433D01*
X102857425Y-129620433D01*
X102972412Y-129620839D01*
G36*
X97889349Y-128884592D02*
G01*
X98093357Y-128887515D01*
X98260026Y-128891610D01*
X98394348Y-128897680D01*
X98501318Y-128906527D01*
X98585927Y-128918956D01*
X98653168Y-128935769D01*
X98708035Y-128957770D01*
X98755520Y-128985762D01*
X98800615Y-129020548D01*
X98815801Y-129033636D01*
X98893304Y-129121332D01*
X98936561Y-129222486D01*
X98949933Y-129346620D01*
X98929365Y-129523168D01*
X98870029Y-129693964D01*
X98775473Y-129854408D01*
X98649246Y-129999900D01*
X98494897Y-130125841D01*
X98315975Y-130227631D01*
X98247532Y-130256966D01*
X98184982Y-130282452D01*
X98140555Y-130302117D01*
X98126493Y-130309825D01*
X98135331Y-130326970D01*
X98168185Y-130357752D01*
X98174133Y-130362518D01*
X98219510Y-130408411D01*
X98267279Y-130471641D01*
X98283267Y-130497083D01*
X98308677Y-130548880D01*
X98341293Y-130627899D01*
X98378959Y-130727534D01*
X98419519Y-130841179D01*
X98460817Y-130962226D01*
X98500697Y-131084071D01*
X98537002Y-131200106D01*
X98567576Y-131303725D01*
X98590263Y-131388321D01*
X98602907Y-131447289D01*
X98603351Y-131474023D01*
X98602375Y-131474796D01*
X98573224Y-131477811D01*
X98510061Y-131479599D01*
X98421189Y-131480068D01*
X98314913Y-131479129D01*
X98273363Y-131478415D01*
X97969156Y-131472516D01*
X97932172Y-131356100D01*
X97910659Y-131286268D01*
X97881931Y-131190134D01*
X97850271Y-131082136D01*
X97828555Y-131006850D01*
X97777690Y-130839682D01*
X97731275Y-130710462D01*
X97687639Y-130615248D01*
X97645109Y-130550099D01*
X97626358Y-130529981D01*
X97590043Y-130504095D01*
X97543860Y-130492395D01*
X97473193Y-130491644D01*
X97456780Y-130492420D01*
X97334027Y-130498850D01*
X97307333Y-130583516D01*
X97291208Y-130635124D01*
X97265842Y-130716846D01*
X97234440Y-130818336D01*
X97200207Y-130929246D01*
X97192599Y-130953933D01*
X97156846Y-131069353D01*
X97121826Y-131181312D01*
X97091221Y-131278107D01*
X97068715Y-131348035D01*
X97066061Y-131356100D01*
X97027564Y-131472516D01*
X96752120Y-131478411D01*
X96648732Y-131479414D01*
X96561619Y-131477970D01*
X96498973Y-131474383D01*
X96468987Y-131468959D01*
X96467700Y-131467828D01*
X96470975Y-131443463D01*
X96485355Y-131385151D01*
X96509067Y-131299269D01*
X96540341Y-131192198D01*
X96577405Y-131070316D01*
X96583967Y-131049183D01*
X96629618Y-130902452D01*
X96677644Y-130747843D01*
X96724092Y-130598099D01*
X96765009Y-130465961D01*
X96790814Y-130382433D01*
X96830668Y-130253351D01*
X96877025Y-130103426D01*
X96906906Y-130006897D01*
X97492510Y-130006897D01*
X97508162Y-130030978D01*
X97551459Y-130041264D01*
X97628416Y-130043572D01*
X97674641Y-130043559D01*
X97778725Y-130040906D01*
X97856034Y-130031455D01*
X97921923Y-130012564D01*
X97967845Y-129993066D01*
X98100648Y-129912380D01*
X98201074Y-129810866D01*
X98266221Y-129692573D01*
X98293188Y-129561544D01*
X98293766Y-129538683D01*
X98283450Y-129454518D01*
X98249936Y-129391260D01*
X98189379Y-129346737D01*
X98097935Y-129318773D01*
X97971757Y-129305196D01*
X97876901Y-129303051D01*
X97703452Y-129302933D01*
X97627085Y-129551641D01*
X97594178Y-129658306D01*
X97562637Y-129759664D01*
X97536252Y-129843577D01*
X97520075Y-129894078D01*
X97498486Y-129963204D01*
X97492510Y-130006897D01*
X96906906Y-130006897D01*
X96923826Y-129952242D01*
X96961067Y-129832100D01*
X97003410Y-129694751D01*
X97050822Y-129539585D01*
X97097135Y-129386852D01*
X97131894Y-129271183D01*
X97164344Y-129164126D01*
X97194654Y-129067016D01*
X97219745Y-128989523D01*
X97236541Y-128941316D01*
X97238376Y-128936665D01*
X97262682Y-128877315D01*
X97889349Y-128884592D01*
G37*
X97889349Y-128884592D02*
X98093357Y-128887515D01*
X98260026Y-128891610D01*
X98394348Y-128897680D01*
X98501318Y-128906527D01*
X98585927Y-128918956D01*
X98653168Y-128935769D01*
X98708035Y-128957770D01*
X98755520Y-128985762D01*
X98800615Y-129020548D01*
X98815801Y-129033636D01*
X98893304Y-129121332D01*
X98936561Y-129222486D01*
X98949933Y-129346620D01*
X98929365Y-129523168D01*
X98870029Y-129693964D01*
X98775473Y-129854408D01*
X98649246Y-129999900D01*
X98494897Y-130125841D01*
X98315975Y-130227631D01*
X98247532Y-130256966D01*
X98184982Y-130282452D01*
X98140555Y-130302117D01*
X98126493Y-130309825D01*
X98135331Y-130326970D01*
X98168185Y-130357752D01*
X98174133Y-130362518D01*
X98219510Y-130408411D01*
X98267279Y-130471641D01*
X98283267Y-130497083D01*
X98308677Y-130548880D01*
X98341293Y-130627899D01*
X98378959Y-130727534D01*
X98419519Y-130841179D01*
X98460817Y-130962226D01*
X98500697Y-131084071D01*
X98537002Y-131200106D01*
X98567576Y-131303725D01*
X98590263Y-131388321D01*
X98602907Y-131447289D01*
X98603351Y-131474023D01*
X98602375Y-131474796D01*
X98573224Y-131477811D01*
X98510061Y-131479599D01*
X98421189Y-131480068D01*
X98314913Y-131479129D01*
X98273363Y-131478415D01*
X97969156Y-131472516D01*
X97932172Y-131356100D01*
X97910659Y-131286268D01*
X97881931Y-131190134D01*
X97850271Y-131082136D01*
X97828555Y-131006850D01*
X97777690Y-130839682D01*
X97731275Y-130710462D01*
X97687639Y-130615248D01*
X97645109Y-130550099D01*
X97626358Y-130529981D01*
X97590043Y-130504095D01*
X97543860Y-130492395D01*
X97473193Y-130491644D01*
X97456780Y-130492420D01*
X97334027Y-130498850D01*
X97307333Y-130583516D01*
X97291208Y-130635124D01*
X97265842Y-130716846D01*
X97234440Y-130818336D01*
X97200207Y-130929246D01*
X97192599Y-130953933D01*
X97156846Y-131069353D01*
X97121826Y-131181312D01*
X97091221Y-131278107D01*
X97068715Y-131348035D01*
X97066061Y-131356100D01*
X97027564Y-131472516D01*
X96752120Y-131478411D01*
X96648732Y-131479414D01*
X96561619Y-131477970D01*
X96498973Y-131474383D01*
X96468987Y-131468959D01*
X96467700Y-131467828D01*
X96470975Y-131443463D01*
X96485355Y-131385151D01*
X96509067Y-131299269D01*
X96540341Y-131192198D01*
X96577405Y-131070316D01*
X96583967Y-131049183D01*
X96629618Y-130902452D01*
X96677644Y-130747843D01*
X96724092Y-130598099D01*
X96765009Y-130465961D01*
X96790814Y-130382433D01*
X96830668Y-130253351D01*
X96877025Y-130103426D01*
X96906906Y-130006897D01*
X97492510Y-130006897D01*
X97508162Y-130030978D01*
X97551459Y-130041264D01*
X97628416Y-130043572D01*
X97674641Y-130043559D01*
X97778725Y-130040906D01*
X97856034Y-130031455D01*
X97921923Y-130012564D01*
X97967845Y-129993066D01*
X98100648Y-129912380D01*
X98201074Y-129810866D01*
X98266221Y-129692573D01*
X98293188Y-129561544D01*
X98293766Y-129538683D01*
X98283450Y-129454518D01*
X98249936Y-129391260D01*
X98189379Y-129346737D01*
X98097935Y-129318773D01*
X97971757Y-129305196D01*
X97876901Y-129303051D01*
X97703452Y-129302933D01*
X97627085Y-129551641D01*
X97594178Y-129658306D01*
X97562637Y-129759664D01*
X97536252Y-129843577D01*
X97520075Y-129894078D01*
X97498486Y-129963204D01*
X97492510Y-130006897D01*
X96906906Y-130006897D01*
X96923826Y-129952242D01*
X96961067Y-129832100D01*
X97003410Y-129694751D01*
X97050822Y-129539585D01*
X97097135Y-129386852D01*
X97131894Y-129271183D01*
X97164344Y-129164126D01*
X97194654Y-129067016D01*
X97219745Y-128989523D01*
X97236541Y-128941316D01*
X97238376Y-128936665D01*
X97262682Y-128877315D01*
X97889349Y-128884592D01*
G36*
X102052244Y-129582503D02*
G01*
X102152738Y-129593158D01*
X102246182Y-129608582D01*
X102321676Y-129626893D01*
X102368320Y-129646212D01*
X102373919Y-129650697D01*
X102371857Y-129672794D01*
X102360203Y-129725238D01*
X102341696Y-129798206D01*
X102319077Y-129881870D01*
X102295086Y-129966407D01*
X102272464Y-130041991D01*
X102253951Y-130098796D01*
X102242287Y-130126997D01*
X102240680Y-130128433D01*
X102221364Y-130118948D01*
X102176282Y-130094461D01*
X102132891Y-130070225D01*
X102009024Y-130023423D01*
X101869405Y-130009509D01*
X101723128Y-130027098D01*
X101579288Y-130074802D01*
X101446979Y-130151236D01*
X101409898Y-130180403D01*
X101319315Y-130277159D01*
X101239769Y-130399647D01*
X101177651Y-130534621D01*
X101139351Y-130668837D01*
X101130100Y-130760403D01*
X101149924Y-130869830D01*
X101204584Y-130967885D01*
X101286860Y-131042503D01*
X101305332Y-131053202D01*
X101392276Y-131081111D01*
X101504930Y-131090768D01*
X101631039Y-131082652D01*
X101758349Y-131057243D01*
X101833891Y-131032482D01*
X101902947Y-131008100D01*
X101953662Y-130994835D01*
X101976372Y-130995128D01*
X101976766Y-130996421D01*
X101970159Y-131025813D01*
X101953139Y-131080987D01*
X101937181Y-131127764D01*
X101909285Y-131210395D01*
X101883326Y-131293344D01*
X101873589Y-131327111D01*
X101857119Y-131374465D01*
X101832835Y-131409147D01*
X101792917Y-131435826D01*
X101729545Y-131459174D01*
X101634899Y-131483860D01*
X101595766Y-131493028D01*
X101447319Y-131516403D01*
X101285141Y-131523789D01*
X101125201Y-131515494D01*
X100983473Y-131491830D01*
X100942329Y-131480356D01*
X100800006Y-131415673D01*
X100686807Y-131320598D01*
X100601957Y-131194322D01*
X100556537Y-131078926D01*
X100509513Y-130924107D01*
X100554753Y-130722061D01*
X100620679Y-130495419D01*
X100712471Y-130296856D01*
X100834734Y-130117844D01*
X100949635Y-129990850D01*
X101137436Y-129831131D01*
X101341328Y-129710518D01*
X101561801Y-129628812D01*
X101799343Y-129585810D01*
X101955600Y-129578499D01*
X102052244Y-129582503D01*
G37*
X102052244Y-129582503D02*
X102152738Y-129593158D01*
X102246182Y-129608582D01*
X102321676Y-129626893D01*
X102368320Y-129646212D01*
X102373919Y-129650697D01*
X102371857Y-129672794D01*
X102360203Y-129725238D01*
X102341696Y-129798206D01*
X102319077Y-129881870D01*
X102295086Y-129966407D01*
X102272464Y-130041991D01*
X102253951Y-130098796D01*
X102242287Y-130126997D01*
X102240680Y-130128433D01*
X102221364Y-130118948D01*
X102176282Y-130094461D01*
X102132891Y-130070225D01*
X102009024Y-130023423D01*
X101869405Y-130009509D01*
X101723128Y-130027098D01*
X101579288Y-130074802D01*
X101446979Y-130151236D01*
X101409898Y-130180403D01*
X101319315Y-130277159D01*
X101239769Y-130399647D01*
X101177651Y-130534621D01*
X101139351Y-130668837D01*
X101130100Y-130760403D01*
X101149924Y-130869830D01*
X101204584Y-130967885D01*
X101286860Y-131042503D01*
X101305332Y-131053202D01*
X101392276Y-131081111D01*
X101504930Y-131090768D01*
X101631039Y-131082652D01*
X101758349Y-131057243D01*
X101833891Y-131032482D01*
X101902947Y-131008100D01*
X101953662Y-130994835D01*
X101976372Y-130995128D01*
X101976766Y-130996421D01*
X101970159Y-131025813D01*
X101953139Y-131080987D01*
X101937181Y-131127764D01*
X101909285Y-131210395D01*
X101883326Y-131293344D01*
X101873589Y-131327111D01*
X101857119Y-131374465D01*
X101832835Y-131409147D01*
X101792917Y-131435826D01*
X101729545Y-131459174D01*
X101634899Y-131483860D01*
X101595766Y-131493028D01*
X101447319Y-131516403D01*
X101285141Y-131523789D01*
X101125201Y-131515494D01*
X100983473Y-131491830D01*
X100942329Y-131480356D01*
X100800006Y-131415673D01*
X100686807Y-131320598D01*
X100601957Y-131194322D01*
X100556537Y-131078926D01*
X100509513Y-130924107D01*
X100554753Y-130722061D01*
X100620679Y-130495419D01*
X100712471Y-130296856D01*
X100834734Y-130117844D01*
X100949635Y-129990850D01*
X101137436Y-129831131D01*
X101341328Y-129710518D01*
X101561801Y-129628812D01*
X101799343Y-129585810D01*
X101955600Y-129578499D01*
X102052244Y-129582503D01*
G36*
X100132620Y-129590757D02*
G01*
X100279918Y-129627641D01*
X100398636Y-129687115D01*
X100485293Y-129767546D01*
X100528932Y-129845191D01*
X100551264Y-129945436D01*
X100555292Y-130073083D01*
X100541750Y-130217722D01*
X100511367Y-130368942D01*
X100486006Y-130456516D01*
X100452708Y-130559205D01*
X100423404Y-130650858D01*
X100394200Y-130743906D01*
X100361198Y-130850780D01*
X100320502Y-130983908D01*
X100313512Y-131006850D01*
X100281131Y-131111938D01*
X100246820Y-131221352D01*
X100216810Y-131315265D01*
X100210403Y-131334933D01*
X100165321Y-131472516D01*
X99906877Y-131478459D01*
X99794076Y-131480931D01*
X99717954Y-131479745D01*
X99672854Y-131471173D01*
X99653121Y-131451490D01*
X99653101Y-131416969D01*
X99667137Y-131363883D01*
X99678111Y-131327714D01*
X99694284Y-131261859D01*
X99691377Y-131233326D01*
X99668786Y-131241346D01*
X99635838Y-131273897D01*
X99526107Y-131368855D01*
X99391377Y-131443535D01*
X99242102Y-131495093D01*
X99088735Y-131520688D01*
X98941730Y-131517477D01*
X98834456Y-131491793D01*
X98730315Y-131437436D01*
X98660243Y-131361566D01*
X98622670Y-131261306D01*
X98616025Y-131133775D01*
X98619052Y-131096908D01*
X98648019Y-130968608D01*
X99182845Y-130968608D01*
X99192657Y-131043083D01*
X99225561Y-131090718D01*
X99286523Y-131114806D01*
X99380508Y-131118641D01*
X99406633Y-131117056D01*
X99512744Y-131100433D01*
X99598810Y-131064492D01*
X99622850Y-131049593D01*
X99688679Y-130998549D01*
X99748260Y-130940382D01*
X99763596Y-130921945D01*
X99797082Y-130869345D01*
X99833871Y-130798719D01*
X99867802Y-130723696D01*
X99892710Y-130657907D01*
X99902433Y-130614983D01*
X99902433Y-130614887D01*
X99888425Y-130605403D01*
X99844310Y-130603876D01*
X99766947Y-130610530D01*
X99653195Y-130625587D01*
X99565934Y-130638786D01*
X99416009Y-130675146D01*
X99303230Y-130731677D01*
X99227461Y-130808497D01*
X99188568Y-130905721D01*
X99182845Y-130968608D01*
X98648019Y-130968608D01*
X98653973Y-130942238D01*
X98722172Y-130790719D01*
X98816245Y-130657208D01*
X98861716Y-130610052D01*
X98953032Y-130532621D01*
X99047270Y-130471359D01*
X99152258Y-130423355D01*
X99275819Y-130385693D01*
X99425778Y-130355461D01*
X99609962Y-130329744D01*
X99616683Y-130328942D01*
X99753101Y-130312651D01*
X99853341Y-130299749D01*
X99923242Y-130288456D01*
X99968641Y-130276992D01*
X99995378Y-130263574D01*
X100009290Y-130246423D01*
X100016217Y-130223758D01*
X100019582Y-130206053D01*
X100021000Y-130112471D01*
X99987009Y-130040870D01*
X99918927Y-129992176D01*
X99818072Y-129967314D01*
X99685761Y-129967211D01*
X99680291Y-129967693D01*
X99484310Y-129996537D01*
X99310337Y-130047284D01*
X99204547Y-130092477D01*
X99142675Y-130120545D01*
X99098150Y-130137843D01*
X99082248Y-130140804D01*
X99083935Y-130118478D01*
X99095502Y-130083543D01*
X99111531Y-130038721D01*
X99134812Y-129967993D01*
X99160526Y-129886032D01*
X99162541Y-129879438D01*
X99189118Y-129798635D01*
X99211670Y-129749892D01*
X99235814Y-129724051D01*
X99264887Y-129712478D01*
X99314429Y-129696983D01*
X99341516Y-129683706D01*
X99377967Y-129669149D01*
X99446659Y-129651660D01*
X99537752Y-129632917D01*
X99641405Y-129614600D01*
X99747778Y-129598390D01*
X99847032Y-129585965D01*
X99929325Y-129579006D01*
X99960222Y-129578100D01*
X100132620Y-129590757D01*
G37*
X100132620Y-129590757D02*
X100279918Y-129627641D01*
X100398636Y-129687115D01*
X100485293Y-129767546D01*
X100528932Y-129845191D01*
X100551264Y-129945436D01*
X100555292Y-130073083D01*
X100541750Y-130217722D01*
X100511367Y-130368942D01*
X100486006Y-130456516D01*
X100452708Y-130559205D01*
X100423404Y-130650858D01*
X100394200Y-130743906D01*
X100361198Y-130850780D01*
X100320502Y-130983908D01*
X100313512Y-131006850D01*
X100281131Y-131111938D01*
X100246820Y-131221352D01*
X100216810Y-131315265D01*
X100210403Y-131334933D01*
X100165321Y-131472516D01*
X99906877Y-131478459D01*
X99794076Y-131480931D01*
X99717954Y-131479745D01*
X99672854Y-131471173D01*
X99653121Y-131451490D01*
X99653101Y-131416969D01*
X99667137Y-131363883D01*
X99678111Y-131327714D01*
X99694284Y-131261859D01*
X99691377Y-131233326D01*
X99668786Y-131241346D01*
X99635838Y-131273897D01*
X99526107Y-131368855D01*
X99391377Y-131443535D01*
X99242102Y-131495093D01*
X99088735Y-131520688D01*
X98941730Y-131517477D01*
X98834456Y-131491793D01*
X98730315Y-131437436D01*
X98660243Y-131361566D01*
X98622670Y-131261306D01*
X98616025Y-131133775D01*
X98619052Y-131096908D01*
X98648019Y-130968608D01*
X99182845Y-130968608D01*
X99192657Y-131043083D01*
X99225561Y-131090718D01*
X99286523Y-131114806D01*
X99380508Y-131118641D01*
X99406633Y-131117056D01*
X99512744Y-131100433D01*
X99598810Y-131064492D01*
X99622850Y-131049593D01*
X99688679Y-130998549D01*
X99748260Y-130940382D01*
X99763596Y-130921945D01*
X99797082Y-130869345D01*
X99833871Y-130798719D01*
X99867802Y-130723696D01*
X99892710Y-130657907D01*
X99902433Y-130614983D01*
X99902433Y-130614887D01*
X99888425Y-130605403D01*
X99844310Y-130603876D01*
X99766947Y-130610530D01*
X99653195Y-130625587D01*
X99565934Y-130638786D01*
X99416009Y-130675146D01*
X99303230Y-130731677D01*
X99227461Y-130808497D01*
X99188568Y-130905721D01*
X99182845Y-130968608D01*
X98648019Y-130968608D01*
X98653973Y-130942238D01*
X98722172Y-130790719D01*
X98816245Y-130657208D01*
X98861716Y-130610052D01*
X98953032Y-130532621D01*
X99047270Y-130471359D01*
X99152258Y-130423355D01*
X99275819Y-130385693D01*
X99425778Y-130355461D01*
X99609962Y-130329744D01*
X99616683Y-130328942D01*
X99753101Y-130312651D01*
X99853341Y-130299749D01*
X99923242Y-130288456D01*
X99968641Y-130276992D01*
X99995378Y-130263574D01*
X100009290Y-130246423D01*
X100016217Y-130223758D01*
X100019582Y-130206053D01*
X100021000Y-130112471D01*
X99987009Y-130040870D01*
X99918927Y-129992176D01*
X99818072Y-129967314D01*
X99685761Y-129967211D01*
X99680291Y-129967693D01*
X99484310Y-129996537D01*
X99310337Y-130047284D01*
X99204547Y-130092477D01*
X99142675Y-130120545D01*
X99098150Y-130137843D01*
X99082248Y-130140804D01*
X99083935Y-130118478D01*
X99095502Y-130083543D01*
X99111531Y-130038721D01*
X99134812Y-129967993D01*
X99160526Y-129886032D01*
X99162541Y-129879438D01*
X99189118Y-129798635D01*
X99211670Y-129749892D01*
X99235814Y-129724051D01*
X99264887Y-129712478D01*
X99314429Y-129696983D01*
X99341516Y-129683706D01*
X99377967Y-129669149D01*
X99446659Y-129651660D01*
X99537752Y-129632917D01*
X99641405Y-129614600D01*
X99747778Y-129598390D01*
X99847032Y-129585965D01*
X99929325Y-129579006D01*
X99960222Y-129578100D01*
X100132620Y-129590757D01*
G36*
X106280718Y-129581981D02*
G01*
X106408544Y-129609555D01*
X106514006Y-129662110D01*
X106590640Y-129738125D01*
X106600052Y-129752792D01*
X106631477Y-129802134D01*
X106650669Y-129818916D01*
X106665268Y-129807953D01*
X106671154Y-129797605D01*
X106690456Y-129748538D01*
X106706694Y-129689225D01*
X106721463Y-129620433D01*
X107007796Y-129620433D01*
X107127808Y-129621341D01*
X107210394Y-129624376D01*
X107260431Y-129630005D01*
X107282795Y-129638693D01*
X107284579Y-129646891D01*
X107276049Y-129673742D01*
X107257089Y-129735327D01*
X107229465Y-129825844D01*
X107194945Y-129939489D01*
X107155296Y-130070459D01*
X107121814Y-130181350D01*
X107078897Y-130322959D01*
X107039160Y-130452787D01*
X107004483Y-130564789D01*
X106976748Y-130652922D01*
X106957835Y-130711142D01*
X106950513Y-130731683D01*
X106930529Y-130786813D01*
X106918701Y-130826933D01*
X106886266Y-130942958D01*
X106845937Y-131073618D01*
X106801219Y-131208796D01*
X106755615Y-131338371D01*
X106712631Y-131452224D01*
X106675768Y-131540236D01*
X106661336Y-131570219D01*
X106530620Y-131779172D01*
X106371157Y-131957277D01*
X106183797Y-132103953D01*
X105969391Y-132218619D01*
X105728789Y-132300695D01*
X105534113Y-132340147D01*
X105414860Y-132356990D01*
X105322648Y-132366154D01*
X105242883Y-132367606D01*
X105160968Y-132361317D01*
X105062310Y-132347255D01*
X105012515Y-132339049D01*
X104923837Y-132322627D01*
X104844497Y-132305275D01*
X104789334Y-132290295D01*
X104782758Y-132287969D01*
X104757355Y-132277589D01*
X104741273Y-132264759D01*
X104735023Y-132242841D01*
X104739114Y-132205199D01*
X104754054Y-132145194D01*
X104780353Y-132056190D01*
X104807284Y-131968220D01*
X104862993Y-131786590D01*
X104985750Y-131847932D01*
X105158963Y-131913166D01*
X105338396Y-131941782D01*
X105517256Y-131934759D01*
X105688752Y-131893078D01*
X105846090Y-131817720D01*
X105982478Y-131709664D01*
X105988884Y-131703155D01*
X106081476Y-131584850D01*
X106158691Y-131441029D01*
X106206695Y-131306700D01*
X106217576Y-131268090D01*
X106221234Y-131246088D01*
X106212138Y-131242363D01*
X106184752Y-131258587D01*
X106133543Y-131296429D01*
X106062816Y-131350120D01*
X105942010Y-131423035D01*
X105801322Y-131478309D01*
X105652710Y-131513358D01*
X105508129Y-131525599D01*
X105379537Y-131512449D01*
X105349324Y-131504278D01*
X105216289Y-131446063D01*
X105116650Y-131364646D01*
X105048782Y-131257609D01*
X105011061Y-131122536D01*
X105001483Y-130986908D01*
X105002967Y-130879719D01*
X105009321Y-130796621D01*
X105015603Y-130762454D01*
X105603126Y-130762454D01*
X105609815Y-130883434D01*
X105648297Y-130979926D01*
X105714042Y-131049185D01*
X105802519Y-131088466D01*
X105909198Y-131095022D01*
X106029548Y-131066109D01*
X106073366Y-131047432D01*
X106198408Y-130965029D01*
X106305615Y-130845634D01*
X106393641Y-130691245D01*
X106461138Y-130503861D01*
X106474671Y-130451995D01*
X106497596Y-130322108D01*
X106494807Y-130219736D01*
X106465351Y-130138059D01*
X106423394Y-130084471D01*
X106340429Y-130029294D01*
X106241509Y-130008053D01*
X106133350Y-130018931D01*
X106022664Y-130060110D01*
X105916165Y-130129774D01*
X105820565Y-130226104D01*
X105799770Y-130253291D01*
X105732810Y-130363691D01*
X105673620Y-130494349D01*
X105628648Y-130628563D01*
X105604345Y-130749632D01*
X105603126Y-130762454D01*
X105015603Y-130762454D01*
X105023392Y-130720101D01*
X105048032Y-130632643D01*
X105070310Y-130563911D01*
X105165461Y-130331516D01*
X105286944Y-130124349D01*
X105431812Y-129945494D01*
X105597122Y-129798032D01*
X105779928Y-129685044D01*
X105977286Y-129609614D01*
X105983825Y-129607851D01*
X106136990Y-129580906D01*
X106280718Y-129581981D01*
G37*
X106280718Y-129581981D02*
X106408544Y-129609555D01*
X106514006Y-129662110D01*
X106590640Y-129738125D01*
X106600052Y-129752792D01*
X106631477Y-129802134D01*
X106650669Y-129818916D01*
X106665268Y-129807953D01*
X106671154Y-129797605D01*
X106690456Y-129748538D01*
X106706694Y-129689225D01*
X106721463Y-129620433D01*
X107007796Y-129620433D01*
X107127808Y-129621341D01*
X107210394Y-129624376D01*
X107260431Y-129630005D01*
X107282795Y-129638693D01*
X107284579Y-129646891D01*
X107276049Y-129673742D01*
X107257089Y-129735327D01*
X107229465Y-129825844D01*
X107194945Y-129939489D01*
X107155296Y-130070459D01*
X107121814Y-130181350D01*
X107078897Y-130322959D01*
X107039160Y-130452787D01*
X107004483Y-130564789D01*
X106976748Y-130652922D01*
X106957835Y-130711142D01*
X106950513Y-130731683D01*
X106930529Y-130786813D01*
X106918701Y-130826933D01*
X106886266Y-130942958D01*
X106845937Y-131073618D01*
X106801219Y-131208796D01*
X106755615Y-131338371D01*
X106712631Y-131452224D01*
X106675768Y-131540236D01*
X106661336Y-131570219D01*
X106530620Y-131779172D01*
X106371157Y-131957277D01*
X106183797Y-132103953D01*
X105969391Y-132218619D01*
X105728789Y-132300695D01*
X105534113Y-132340147D01*
X105414860Y-132356990D01*
X105322648Y-132366154D01*
X105242883Y-132367606D01*
X105160968Y-132361317D01*
X105062310Y-132347255D01*
X105012515Y-132339049D01*
X104923837Y-132322627D01*
X104844497Y-132305275D01*
X104789334Y-132290295D01*
X104782758Y-132287969D01*
X104757355Y-132277589D01*
X104741273Y-132264759D01*
X104735023Y-132242841D01*
X104739114Y-132205199D01*
X104754054Y-132145194D01*
X104780353Y-132056190D01*
X104807284Y-131968220D01*
X104862993Y-131786590D01*
X104985750Y-131847932D01*
X105158963Y-131913166D01*
X105338396Y-131941782D01*
X105517256Y-131934759D01*
X105688752Y-131893078D01*
X105846090Y-131817720D01*
X105982478Y-131709664D01*
X105988884Y-131703155D01*
X106081476Y-131584850D01*
X106158691Y-131441029D01*
X106206695Y-131306700D01*
X106217576Y-131268090D01*
X106221234Y-131246088D01*
X106212138Y-131242363D01*
X106184752Y-131258587D01*
X106133543Y-131296429D01*
X106062816Y-131350120D01*
X105942010Y-131423035D01*
X105801322Y-131478309D01*
X105652710Y-131513358D01*
X105508129Y-131525599D01*
X105379537Y-131512449D01*
X105349324Y-131504278D01*
X105216289Y-131446063D01*
X105116650Y-131364646D01*
X105048782Y-131257609D01*
X105011061Y-131122536D01*
X105001483Y-130986908D01*
X105002967Y-130879719D01*
X105009321Y-130796621D01*
X105015603Y-130762454D01*
X105603126Y-130762454D01*
X105609815Y-130883434D01*
X105648297Y-130979926D01*
X105714042Y-131049185D01*
X105802519Y-131088466D01*
X105909198Y-131095022D01*
X106029548Y-131066109D01*
X106073366Y-131047432D01*
X106198408Y-130965029D01*
X106305615Y-130845634D01*
X106393641Y-130691245D01*
X106461138Y-130503861D01*
X106474671Y-130451995D01*
X106497596Y-130322108D01*
X106494807Y-130219736D01*
X106465351Y-130138059D01*
X106423394Y-130084471D01*
X106340429Y-130029294D01*
X106241509Y-130008053D01*
X106133350Y-130018931D01*
X106022664Y-130060110D01*
X105916165Y-130129774D01*
X105820565Y-130226104D01*
X105799770Y-130253291D01*
X105732810Y-130363691D01*
X105673620Y-130494349D01*
X105628648Y-130628563D01*
X105604345Y-130749632D01*
X105603126Y-130762454D01*
X105015603Y-130762454D01*
X105023392Y-130720101D01*
X105048032Y-130632643D01*
X105070310Y-130563911D01*
X105165461Y-130331516D01*
X105286944Y-130124349D01*
X105431812Y-129945494D01*
X105597122Y-129798032D01*
X105779928Y-129685044D01*
X105977286Y-129609614D01*
X105983825Y-129607851D01*
X106136990Y-129580906D01*
X106280718Y-129581981D01*
G36*
X77825600Y-128775126D02*
G01*
X77826941Y-129112180D01*
X77831339Y-129374783D01*
X77839356Y-129573114D01*
X77851554Y-129717352D01*
X77868495Y-129817675D01*
X77886311Y-129874286D01*
X77978064Y-130002385D01*
X78113880Y-130059204D01*
X78272890Y-130046849D01*
X78340642Y-130020817D01*
X78393900Y-129974473D01*
X78434340Y-129898549D01*
X78463637Y-129783780D01*
X78483469Y-129620899D01*
X78495510Y-129400640D01*
X78501438Y-129113737D01*
X78502934Y-128775126D01*
X78502934Y-127821266D01*
X79610768Y-127821266D01*
X79595678Y-128953683D01*
X79590843Y-129294289D01*
X79585853Y-129561466D01*
X79579744Y-129766446D01*
X79571554Y-129920463D01*
X79560321Y-130034750D01*
X79545082Y-130120540D01*
X79524875Y-130189068D01*
X79498737Y-130251564D01*
X79481380Y-130287648D01*
X79310982Y-130541385D01*
X79079583Y-130746373D01*
X78798582Y-130897755D01*
X78479382Y-130990674D01*
X78133380Y-131020273D01*
X77827653Y-130992181D01*
X77562198Y-130916695D01*
X77308309Y-130791345D01*
X77091471Y-130631154D01*
X76954423Y-130477507D01*
X76887761Y-130367328D01*
X76834865Y-130244473D01*
X76794279Y-130098189D01*
X76764551Y-129917727D01*
X76744226Y-129692335D01*
X76731849Y-129411262D01*
X76725966Y-129063758D01*
X76724934Y-128780882D01*
X76724934Y-127821266D01*
X77825600Y-127821266D01*
X77825600Y-128775126D01*
G37*
X77825600Y-128775126D02*
X77826941Y-129112180D01*
X77831339Y-129374783D01*
X77839356Y-129573114D01*
X77851554Y-129717352D01*
X77868495Y-129817675D01*
X77886311Y-129874286D01*
X77978064Y-130002385D01*
X78113880Y-130059204D01*
X78272890Y-130046849D01*
X78340642Y-130020817D01*
X78393900Y-129974473D01*
X78434340Y-129898549D01*
X78463637Y-129783780D01*
X78483469Y-129620899D01*
X78495510Y-129400640D01*
X78501438Y-129113737D01*
X78502934Y-128775126D01*
X78502934Y-127821266D01*
X79610768Y-127821266D01*
X79595678Y-128953683D01*
X79590843Y-129294289D01*
X79585853Y-129561466D01*
X79579744Y-129766446D01*
X79571554Y-129920463D01*
X79560321Y-130034750D01*
X79545082Y-130120540D01*
X79524875Y-130189068D01*
X79498737Y-130251564D01*
X79481380Y-130287648D01*
X79310982Y-130541385D01*
X79079583Y-130746373D01*
X78798582Y-130897755D01*
X78479382Y-130990674D01*
X78133380Y-131020273D01*
X77827653Y-130992181D01*
X77562198Y-130916695D01*
X77308309Y-130791345D01*
X77091471Y-130631154D01*
X76954423Y-130477507D01*
X76887761Y-130367328D01*
X76834865Y-130244473D01*
X76794279Y-130098189D01*
X76764551Y-129917727D01*
X76744226Y-129692335D01*
X76731849Y-129411262D01*
X76725966Y-129063758D01*
X76724934Y-128780882D01*
X76724934Y-127821266D01*
X77825600Y-127821266D01*
X77825600Y-128775126D01*
G36*
X87792491Y-127768867D02*
G01*
X88153785Y-127854498D01*
X88348239Y-127933932D01*
X88463392Y-128002728D01*
X88598524Y-128104424D01*
X88736679Y-128223330D01*
X88860898Y-128343756D01*
X88954222Y-128450010D01*
X88999692Y-128526401D01*
X89001600Y-128538449D01*
X88964223Y-128564891D01*
X88862432Y-128612529D01*
X88711741Y-128674623D01*
X88527662Y-128744434D01*
X88526222Y-128744960D01*
X88324736Y-128817742D01*
X88186911Y-128863764D01*
X88097025Y-128885711D01*
X88039357Y-128886270D01*
X87998187Y-128868128D01*
X87965305Y-128840812D01*
X87777456Y-128713123D01*
X87588766Y-128669889D01*
X87399951Y-128711192D01*
X87303944Y-128764763D01*
X87169548Y-128881353D01*
X87084961Y-129025632D01*
X87042313Y-129216366D01*
X87033100Y-129410646D01*
X87048199Y-129638060D01*
X87099854Y-129805557D01*
X87197602Y-129933459D01*
X87321150Y-130024462D01*
X87475732Y-130086948D01*
X87638670Y-130102392D01*
X87789887Y-130075652D01*
X87909305Y-130011587D01*
X87976846Y-129915055D01*
X87984952Y-129863850D01*
X87948028Y-129829329D01*
X87833656Y-129812762D01*
X87752767Y-129810933D01*
X87519934Y-129810933D01*
X87519934Y-129089513D01*
X89234434Y-129112433D01*
X89249625Y-129218266D01*
X89249782Y-129341279D01*
X89228725Y-129516353D01*
X89191858Y-129715176D01*
X89144588Y-129909436D01*
X89092317Y-130070821D01*
X89082091Y-130095841D01*
X88982567Y-130267874D01*
X88832994Y-130455947D01*
X88656982Y-130634353D01*
X88478139Y-130777380D01*
X88425781Y-130810535D01*
X88278720Y-130877408D01*
X88083019Y-130941451D01*
X87871943Y-130994097D01*
X87678760Y-131026779D01*
X87562267Y-131032916D01*
X87460237Y-131023672D01*
X87315136Y-131004641D01*
X87223600Y-130990531D01*
X86883979Y-130893425D01*
X86576932Y-130723991D01*
X86313931Y-130491897D01*
X86106446Y-130206809D01*
X85989253Y-129950266D01*
X85926464Y-129675037D01*
X85910909Y-129365581D01*
X85941098Y-129054484D01*
X86015542Y-128774335D01*
X86046357Y-128701035D01*
X86234865Y-128390972D01*
X86478331Y-128138140D01*
X86766291Y-127946027D01*
X87088280Y-127818119D01*
X87433835Y-127757903D01*
X87792491Y-127768867D01*
G37*
X87792491Y-127768867D02*
X88153785Y-127854498D01*
X88348239Y-127933932D01*
X88463392Y-128002728D01*
X88598524Y-128104424D01*
X88736679Y-128223330D01*
X88860898Y-128343756D01*
X88954222Y-128450010D01*
X88999692Y-128526401D01*
X89001600Y-128538449D01*
X88964223Y-128564891D01*
X88862432Y-128612529D01*
X88711741Y-128674623D01*
X88527662Y-128744434D01*
X88526222Y-128744960D01*
X88324736Y-128817742D01*
X88186911Y-128863764D01*
X88097025Y-128885711D01*
X88039357Y-128886270D01*
X87998187Y-128868128D01*
X87965305Y-128840812D01*
X87777456Y-128713123D01*
X87588766Y-128669889D01*
X87399951Y-128711192D01*
X87303944Y-128764763D01*
X87169548Y-128881353D01*
X87084961Y-129025632D01*
X87042313Y-129216366D01*
X87033100Y-129410646D01*
X87048199Y-129638060D01*
X87099854Y-129805557D01*
X87197602Y-129933459D01*
X87321150Y-130024462D01*
X87475732Y-130086948D01*
X87638670Y-130102392D01*
X87789887Y-130075652D01*
X87909305Y-130011587D01*
X87976846Y-129915055D01*
X87984952Y-129863850D01*
X87948028Y-129829329D01*
X87833656Y-129812762D01*
X87752767Y-129810933D01*
X87519934Y-129810933D01*
X87519934Y-129089513D01*
X89234434Y-129112433D01*
X89249625Y-129218266D01*
X89249782Y-129341279D01*
X89228725Y-129516353D01*
X89191858Y-129715176D01*
X89144588Y-129909436D01*
X89092317Y-130070821D01*
X89082091Y-130095841D01*
X88982567Y-130267874D01*
X88832994Y-130455947D01*
X88656982Y-130634353D01*
X88478139Y-130777380D01*
X88425781Y-130810535D01*
X88278720Y-130877408D01*
X88083019Y-130941451D01*
X87871943Y-130994097D01*
X87678760Y-131026779D01*
X87562267Y-131032916D01*
X87460237Y-131023672D01*
X87315136Y-131004641D01*
X87223600Y-130990531D01*
X86883979Y-130893425D01*
X86576932Y-130723991D01*
X86313931Y-130491897D01*
X86106446Y-130206809D01*
X85989253Y-129950266D01*
X85926464Y-129675037D01*
X85910909Y-129365581D01*
X85941098Y-129054484D01*
X86015542Y-128774335D01*
X86046357Y-128701035D01*
X86234865Y-128390972D01*
X86478331Y-128138140D01*
X86766291Y-127946027D01*
X87088280Y-127818119D01*
X87433835Y-127757903D01*
X87792491Y-127768867D01*
G36*
X91288442Y-127772442D02*
G01*
X91449363Y-127807157D01*
X91622543Y-127854590D01*
X91788529Y-127908047D01*
X91927870Y-127960834D01*
X92021112Y-128006258D01*
X92049600Y-128034373D01*
X92034323Y-128087827D01*
X91994345Y-128193855D01*
X91938446Y-128331812D01*
X91875405Y-128481050D01*
X91814003Y-128620925D01*
X91763018Y-128730789D01*
X91731231Y-128789995D01*
X91726180Y-128794933D01*
X91680568Y-128777409D01*
X91587350Y-128733230D01*
X91540049Y-128709475D01*
X91353718Y-128634408D01*
X91175043Y-128597277D01*
X91019157Y-128596879D01*
X90901195Y-128632005D01*
X90836291Y-128701452D01*
X90829948Y-128766047D01*
X90845909Y-128810239D01*
X90887935Y-128849902D01*
X90967790Y-128890043D01*
X91097243Y-128935671D01*
X91288059Y-128991793D01*
X91489385Y-129046697D01*
X91679295Y-129130306D01*
X91860845Y-129265591D01*
X92001113Y-129426408D01*
X92030596Y-129476448D01*
X92088579Y-129669896D01*
X92093683Y-129901127D01*
X92051139Y-130146348D01*
X91966176Y-130381762D01*
X91844024Y-130583575D01*
X91769204Y-130665789D01*
X91567332Y-130807849D01*
X91309622Y-130919551D01*
X91021611Y-130993927D01*
X90728832Y-131024008D01*
X90504434Y-131010930D01*
X90332384Y-130975747D01*
X90133567Y-130920165D01*
X89931654Y-130852517D01*
X89750320Y-130781136D01*
X89613237Y-130714356D01*
X89560596Y-130678698D01*
X89569577Y-130637475D01*
X89604614Y-130539131D01*
X89657352Y-130403904D01*
X89719437Y-130252033D01*
X89782515Y-130103753D01*
X89838231Y-129979305D01*
X89878232Y-129898925D01*
X89889590Y-129881730D01*
X89940531Y-129882729D01*
X90040839Y-129919956D01*
X90155997Y-129978431D01*
X90357074Y-130072117D01*
X90551331Y-130127477D01*
X90720166Y-130141688D01*
X90844976Y-130111921D01*
X90877458Y-130088028D01*
X90944488Y-129997291D01*
X90943502Y-129920839D01*
X90870003Y-129853692D01*
X90719496Y-129790868D01*
X90570473Y-129747974D01*
X90296807Y-129664979D01*
X90093149Y-129571489D01*
X89944841Y-129457401D01*
X89837226Y-129312612D01*
X89786381Y-129207493D01*
X89730038Y-128970225D01*
X89740313Y-128711466D01*
X89811921Y-128454428D01*
X89939576Y-128222321D01*
X90036556Y-128108919D01*
X90249038Y-127951681D01*
X90515381Y-127835894D01*
X90812465Y-127767773D01*
X91117164Y-127753533D01*
X91288442Y-127772442D01*
G37*
X91288442Y-127772442D02*
X91449363Y-127807157D01*
X91622543Y-127854590D01*
X91788529Y-127908047D01*
X91927870Y-127960834D01*
X92021112Y-128006258D01*
X92049600Y-128034373D01*
X92034323Y-128087827D01*
X91994345Y-128193855D01*
X91938446Y-128331812D01*
X91875405Y-128481050D01*
X91814003Y-128620925D01*
X91763018Y-128730789D01*
X91731231Y-128789995D01*
X91726180Y-128794933D01*
X91680568Y-128777409D01*
X91587350Y-128733230D01*
X91540049Y-128709475D01*
X91353718Y-128634408D01*
X91175043Y-128597277D01*
X91019157Y-128596879D01*
X90901195Y-128632005D01*
X90836291Y-128701452D01*
X90829948Y-128766047D01*
X90845909Y-128810239D01*
X90887935Y-128849902D01*
X90967790Y-128890043D01*
X91097243Y-128935671D01*
X91288059Y-128991793D01*
X91489385Y-129046697D01*
X91679295Y-129130306D01*
X91860845Y-129265591D01*
X92001113Y-129426408D01*
X92030596Y-129476448D01*
X92088579Y-129669896D01*
X92093683Y-129901127D01*
X92051139Y-130146348D01*
X91966176Y-130381762D01*
X91844024Y-130583575D01*
X91769204Y-130665789D01*
X91567332Y-130807849D01*
X91309622Y-130919551D01*
X91021611Y-130993927D01*
X90728832Y-131024008D01*
X90504434Y-131010930D01*
X90332384Y-130975747D01*
X90133567Y-130920165D01*
X89931654Y-130852517D01*
X89750320Y-130781136D01*
X89613237Y-130714356D01*
X89560596Y-130678698D01*
X89569577Y-130637475D01*
X89604614Y-130539131D01*
X89657352Y-130403904D01*
X89719437Y-130252033D01*
X89782515Y-130103753D01*
X89838231Y-129979305D01*
X89878232Y-129898925D01*
X89889590Y-129881730D01*
X89940531Y-129882729D01*
X90040839Y-129919956D01*
X90155997Y-129978431D01*
X90357074Y-130072117D01*
X90551331Y-130127477D01*
X90720166Y-130141688D01*
X90844976Y-130111921D01*
X90877458Y-130088028D01*
X90944488Y-129997291D01*
X90943502Y-129920839D01*
X90870003Y-129853692D01*
X90719496Y-129790868D01*
X90570473Y-129747974D01*
X90296807Y-129664979D01*
X90093149Y-129571489D01*
X89944841Y-129457401D01*
X89837226Y-129312612D01*
X89786381Y-129207493D01*
X89730038Y-128970225D01*
X89740313Y-128711466D01*
X89811921Y-128454428D01*
X89939576Y-128222321D01*
X90036556Y-128108919D01*
X90249038Y-127951681D01*
X90515381Y-127835894D01*
X90812465Y-127767773D01*
X91117164Y-127753533D01*
X91288442Y-127772442D01*
G36*
X82270600Y-128667933D02*
G01*
X81296934Y-128667933D01*
X81296934Y-129048933D01*
X82185934Y-129048933D01*
X82185934Y-129810933D01*
X81296934Y-129810933D01*
X81296934Y-130953933D01*
X80196267Y-130953933D01*
X80196267Y-127821266D01*
X82270600Y-127821266D01*
X82270600Y-128667933D01*
G37*
X82270600Y-128667933D02*
X81296934Y-128667933D01*
X81296934Y-129048933D01*
X82185934Y-129048933D01*
X82185934Y-129810933D01*
X81296934Y-129810933D01*
X81296934Y-130953933D01*
X80196267Y-130953933D01*
X80196267Y-127821266D01*
X82270600Y-127821266D01*
X82270600Y-128667933D01*
G36*
X83572350Y-127821769D02*
G01*
X83935732Y-127825005D01*
X84227291Y-127835624D01*
X84459705Y-127855712D01*
X84645653Y-127887361D01*
X84797813Y-127932657D01*
X84928863Y-127993691D01*
X85038621Y-128063368D01*
X85162670Y-128174765D01*
X85268741Y-128308956D01*
X85291566Y-128348205D01*
X85361385Y-128548837D01*
X85394983Y-128789264D01*
X85388948Y-129031233D01*
X85364257Y-129163591D01*
X85288538Y-129333696D01*
X85168762Y-129484537D01*
X85027273Y-129592105D01*
X84932207Y-129627862D01*
X84845765Y-129650150D01*
X84810600Y-129668940D01*
X84832610Y-129708073D01*
X84893649Y-129806180D01*
X84986228Y-129951491D01*
X85102858Y-130132236D01*
X85212767Y-130301045D01*
X85343726Y-130502450D01*
X85456848Y-130678387D01*
X85544640Y-130817039D01*
X85599608Y-130906589D01*
X85614934Y-130935162D01*
X85575103Y-130941852D01*
X85465622Y-130947485D01*
X85301503Y-130951598D01*
X85097759Y-130953721D01*
X85011684Y-130953910D01*
X84408434Y-130953887D01*
X83858100Y-129931087D01*
X83834328Y-130953933D01*
X82736267Y-130953933D01*
X82736267Y-129260600D01*
X83836934Y-129260600D01*
X83966717Y-129260600D01*
X84093833Y-129244430D01*
X84188967Y-129211929D01*
X84285609Y-129145158D01*
X84331895Y-129058098D01*
X84344277Y-128919603D01*
X84344285Y-128917911D01*
X84313421Y-128764663D01*
X84216799Y-128660491D01*
X84050663Y-128601773D01*
X84009553Y-128595271D01*
X83836934Y-128572118D01*
X83836934Y-129260600D01*
X82736267Y-129260600D01*
X82736267Y-127821266D01*
X83572350Y-127821769D01*
G37*
X83572350Y-127821769D02*
X83935732Y-127825005D01*
X84227291Y-127835624D01*
X84459705Y-127855712D01*
X84645653Y-127887361D01*
X84797813Y-127932657D01*
X84928863Y-127993691D01*
X85038621Y-128063368D01*
X85162670Y-128174765D01*
X85268741Y-128308956D01*
X85291566Y-128348205D01*
X85361385Y-128548837D01*
X85394983Y-128789264D01*
X85388948Y-129031233D01*
X85364257Y-129163591D01*
X85288538Y-129333696D01*
X85168762Y-129484537D01*
X85027273Y-129592105D01*
X84932207Y-129627862D01*
X84845765Y-129650150D01*
X84810600Y-129668940D01*
X84832610Y-129708073D01*
X84893649Y-129806180D01*
X84986228Y-129951491D01*
X85102858Y-130132236D01*
X85212767Y-130301045D01*
X85343726Y-130502450D01*
X85456848Y-130678387D01*
X85544640Y-130817039D01*
X85599608Y-130906589D01*
X85614934Y-130935162D01*
X85575103Y-130941852D01*
X85465622Y-130947485D01*
X85301503Y-130951598D01*
X85097759Y-130953721D01*
X85011684Y-130953910D01*
X84408434Y-130953887D01*
X83858100Y-129931087D01*
X83834328Y-130953933D01*
X82736267Y-130953933D01*
X82736267Y-129260600D01*
X83836934Y-129260600D01*
X83966717Y-129260600D01*
X84093833Y-129244430D01*
X84188967Y-129211929D01*
X84285609Y-129145158D01*
X84331895Y-129058098D01*
X84344277Y-128919603D01*
X84344285Y-128917911D01*
X84313421Y-128764663D01*
X84216799Y-128660491D01*
X84050663Y-128601773D01*
X84009553Y-128595271D01*
X83836934Y-128572118D01*
X83836934Y-129260600D01*
X82736267Y-129260600D01*
X82736267Y-127821266D01*
X83572350Y-127821769D01*
G36*
X83415972Y-127319829D02*
G01*
X83491457Y-127347963D01*
X83517980Y-127420673D01*
X83519434Y-127461433D01*
X83506370Y-127554470D01*
X83451612Y-127593660D01*
X83405864Y-127601553D01*
X83297043Y-127585506D01*
X83248754Y-127533318D01*
X83232570Y-127432473D01*
X83282459Y-127352783D01*
X83379864Y-127317940D01*
X83415972Y-127319829D01*
G37*
X83415972Y-127319829D02*
X83491457Y-127347963D01*
X83517980Y-127420673D01*
X83519434Y-127461433D01*
X83506370Y-127554470D01*
X83451612Y-127593660D01*
X83405864Y-127601553D01*
X83297043Y-127585506D01*
X83248754Y-127533318D01*
X83232570Y-127432473D01*
X83282459Y-127352783D01*
X83379864Y-127317940D01*
X83415972Y-127319829D01*
G36*
X83948237Y-127344988D02*
G01*
X83981243Y-127394651D01*
X83985100Y-127461433D01*
X83972198Y-127554261D01*
X83917341Y-127593460D01*
X83868443Y-127601851D01*
X83764873Y-127590545D01*
X83727279Y-127551407D01*
X83710469Y-127432050D01*
X83762295Y-127356742D01*
X83858680Y-127334433D01*
X83948237Y-127344988D01*
G37*
X83948237Y-127344988D02*
X83981243Y-127394651D01*
X83985100Y-127461433D01*
X83972198Y-127554261D01*
X83917341Y-127593460D01*
X83868443Y-127601851D01*
X83764873Y-127590545D01*
X83727279Y-127551407D01*
X83710469Y-127432050D01*
X83762295Y-127356742D01*
X83858680Y-127334433D01*
X83948237Y-127344988D01*
G36*
X84413904Y-127344988D02*
G01*
X84446910Y-127394651D01*
X84450767Y-127461433D01*
X84437864Y-127554261D01*
X84383007Y-127593460D01*
X84334109Y-127601851D01*
X84230540Y-127590545D01*
X84192946Y-127551407D01*
X84176136Y-127432050D01*
X84227962Y-127356742D01*
X84324347Y-127334433D01*
X84413904Y-127344988D01*
G37*
X84413904Y-127344988D02*
X84446910Y-127394651D01*
X84450767Y-127461433D01*
X84437864Y-127554261D01*
X84383007Y-127593460D01*
X84334109Y-127601851D01*
X84230540Y-127590545D01*
X84192946Y-127551407D01*
X84176136Y-127432050D01*
X84227962Y-127356742D01*
X84324347Y-127334433D01*
X84413904Y-127344988D01*
G36*
X83858100Y-126685456D02*
G01*
X86228767Y-126686344D01*
X85804745Y-126827372D01*
X85173210Y-127003651D01*
X84536421Y-127116553D01*
X83912043Y-127163819D01*
X83326807Y-127144060D01*
X83032173Y-127104108D01*
X82690658Y-127038278D01*
X82333342Y-126953713D01*
X81991303Y-126857558D01*
X81783767Y-126789361D01*
X81487434Y-126684568D01*
X83858100Y-126685456D01*
G37*
X83858100Y-126685456D02*
X86228767Y-126686344D01*
X85804745Y-126827372D01*
X85173210Y-127003651D01*
X84536421Y-127116553D01*
X83912043Y-127163819D01*
X83326807Y-127144060D01*
X83032173Y-127104108D01*
X82690658Y-127038278D01*
X82333342Y-126953713D01*
X81991303Y-126857558D01*
X81783767Y-126789361D01*
X81487434Y-126684568D01*
X83858100Y-126685456D01*
G36*
X85176162Y-123638060D02*
G01*
X85158704Y-123663684D01*
X85097785Y-123703827D01*
X84963458Y-123828052D01*
X84905028Y-123982693D01*
X84922090Y-124161472D01*
X85014240Y-124358109D01*
X85151277Y-124534573D01*
X85325277Y-124749259D01*
X85432483Y-124945728D01*
X85481982Y-125143323D01*
X85487934Y-125251056D01*
X85447730Y-125558920D01*
X85333388Y-125842717D01*
X85154311Y-126092144D01*
X84919900Y-126296896D01*
X84639558Y-126446668D01*
X84322687Y-126531155D01*
X84319508Y-126531615D01*
X84112100Y-126561382D01*
X84286454Y-126433088D01*
X84508438Y-126225410D01*
X84651809Y-125986485D01*
X84717016Y-125715353D01*
X84717195Y-125515131D01*
X84694383Y-125373297D01*
X84643734Y-125233663D01*
X84554091Y-125068826D01*
X84500680Y-124983217D01*
X84400850Y-124820404D01*
X84341159Y-124699231D01*
X84311759Y-124593004D01*
X84302805Y-124475026D01*
X84302600Y-124446173D01*
X84314166Y-124291280D01*
X84343594Y-124152391D01*
X84363938Y-124100115D01*
X84496408Y-123922846D01*
X84683188Y-123774713D01*
X84897427Y-123672176D01*
X85112273Y-123631699D01*
X85128100Y-123631629D01*
X85176162Y-123638060D01*
G37*
X85176162Y-123638060D02*
X85158704Y-123663684D01*
X85097785Y-123703827D01*
X84963458Y-123828052D01*
X84905028Y-123982693D01*
X84922090Y-124161472D01*
X85014240Y-124358109D01*
X85151277Y-124534573D01*
X85325277Y-124749259D01*
X85432483Y-124945728D01*
X85481982Y-125143323D01*
X85487934Y-125251056D01*
X85447730Y-125558920D01*
X85333388Y-125842717D01*
X85154311Y-126092144D01*
X84919900Y-126296896D01*
X84639558Y-126446668D01*
X84322687Y-126531155D01*
X84319508Y-126531615D01*
X84112100Y-126561382D01*
X84286454Y-126433088D01*
X84508438Y-126225410D01*
X84651809Y-125986485D01*
X84717016Y-125715353D01*
X84717195Y-125515131D01*
X84694383Y-125373297D01*
X84643734Y-125233663D01*
X84554091Y-125068826D01*
X84500680Y-124983217D01*
X84400850Y-124820404D01*
X84341159Y-124699231D01*
X84311759Y-124593004D01*
X84302805Y-124475026D01*
X84302600Y-124446173D01*
X84314166Y-124291280D01*
X84343594Y-124152391D01*
X84363938Y-124100115D01*
X84496408Y-123922846D01*
X84683188Y-123774713D01*
X84897427Y-123672176D01*
X85112273Y-123631699D01*
X85128100Y-123631629D01*
X85176162Y-123638060D01*
G36*
X82314716Y-124219707D02*
G01*
X82321473Y-124324610D01*
X82321752Y-124476534D01*
X82319168Y-124565250D01*
X82320332Y-124857597D01*
X82354719Y-125082941D01*
X82430190Y-125255058D01*
X82554607Y-125387725D01*
X82735832Y-125494717D01*
X82884434Y-125555775D01*
X83185788Y-125694127D01*
X83410140Y-125857941D01*
X83556014Y-126045473D01*
X83621936Y-126254980D01*
X83618355Y-126423279D01*
X83605821Y-126479258D01*
X83580697Y-126482735D01*
X83525312Y-126428922D01*
X83488874Y-126388194D01*
X83352394Y-126261408D01*
X83196872Y-126178802D01*
X82996907Y-126129139D01*
X82865611Y-126112470D01*
X82546573Y-126047083D01*
X82274177Y-125916214D01*
X82080227Y-125759878D01*
X81913890Y-125552055D01*
X81823395Y-125321299D01*
X81807162Y-125060024D01*
X81863613Y-124760643D01*
X81868612Y-124743537D01*
X81920987Y-124621631D01*
X82003751Y-124484652D01*
X82101202Y-124352982D01*
X82197638Y-124247003D01*
X82277358Y-124187097D01*
X82302303Y-124180578D01*
X82314716Y-124219707D01*
G37*
X82314716Y-124219707D02*
X82321473Y-124324610D01*
X82321752Y-124476534D01*
X82319168Y-124565250D01*
X82320332Y-124857597D01*
X82354719Y-125082941D01*
X82430190Y-125255058D01*
X82554607Y-125387725D01*
X82735832Y-125494717D01*
X82884434Y-125555775D01*
X83185788Y-125694127D01*
X83410140Y-125857941D01*
X83556014Y-126045473D01*
X83621936Y-126254980D01*
X83618355Y-126423279D01*
X83605821Y-126479258D01*
X83580697Y-126482735D01*
X83525312Y-126428922D01*
X83488874Y-126388194D01*
X83352394Y-126261408D01*
X83196872Y-126178802D01*
X82996907Y-126129139D01*
X82865611Y-126112470D01*
X82546573Y-126047083D01*
X82274177Y-125916214D01*
X82080227Y-125759878D01*
X81913890Y-125552055D01*
X81823395Y-125321299D01*
X81807162Y-125060024D01*
X81863613Y-124760643D01*
X81868612Y-124743537D01*
X81920987Y-124621631D01*
X82003751Y-124484652D01*
X82101202Y-124352982D01*
X82197638Y-124247003D01*
X82277358Y-124187097D01*
X82302303Y-124180578D01*
X82314716Y-124219707D01*
G36*
X84122793Y-122692659D02*
G01*
X84289939Y-122706220D01*
X84431591Y-122727530D01*
X84527104Y-122753596D01*
X84556600Y-122777694D01*
X84522907Y-122813996D01*
X84438744Y-122869414D01*
X84404801Y-122888429D01*
X84244642Y-123002088D01*
X84077493Y-123164918D01*
X83926095Y-123350553D01*
X83813191Y-123532629D01*
X83777925Y-123615138D01*
X83717003Y-123865548D01*
X83716527Y-124098905D01*
X83780243Y-124329895D01*
X83911899Y-124573203D01*
X84080509Y-124801272D01*
X84277393Y-125091868D01*
X84392823Y-125376099D01*
X84426515Y-125651070D01*
X84378186Y-125913883D01*
X84247553Y-126161643D01*
X84217423Y-126201697D01*
X84134618Y-126288301D01*
X84025253Y-126380233D01*
X83914763Y-126458495D01*
X83828580Y-126504091D01*
X83806067Y-126508933D01*
X83786028Y-126470662D01*
X83771761Y-126372070D01*
X83767389Y-126279305D01*
X83747490Y-126088974D01*
X83688038Y-125916237D01*
X83580593Y-125749258D01*
X83416715Y-125576200D01*
X83187963Y-125385226D01*
X83062777Y-125291145D01*
X82889252Y-125119015D01*
X82740679Y-124886525D01*
X82625642Y-124616388D01*
X82552728Y-124331312D01*
X82530519Y-124054009D01*
X82542674Y-123915236D01*
X82625914Y-123644480D01*
X82778778Y-123384094D01*
X82986264Y-123147131D01*
X83233372Y-122946648D01*
X83505099Y-122795697D01*
X83786445Y-122707333D01*
X83950801Y-122689843D01*
X84122793Y-122692659D01*
G37*
X84122793Y-122692659D02*
X84289939Y-122706220D01*
X84431591Y-122727530D01*
X84527104Y-122753596D01*
X84556600Y-122777694D01*
X84522907Y-122813996D01*
X84438744Y-122869414D01*
X84404801Y-122888429D01*
X84244642Y-123002088D01*
X84077493Y-123164918D01*
X83926095Y-123350553D01*
X83813191Y-123532629D01*
X83777925Y-123615138D01*
X83717003Y-123865548D01*
X83716527Y-124098905D01*
X83780243Y-124329895D01*
X83911899Y-124573203D01*
X84080509Y-124801272D01*
X84277393Y-125091868D01*
X84392823Y-125376099D01*
X84426515Y-125651070D01*
X84378186Y-125913883D01*
X84247553Y-126161643D01*
X84217423Y-126201697D01*
X84134618Y-126288301D01*
X84025253Y-126380233D01*
X83914763Y-126458495D01*
X83828580Y-126504091D01*
X83806067Y-126508933D01*
X83786028Y-126470662D01*
X83771761Y-126372070D01*
X83767389Y-126279305D01*
X83747490Y-126088974D01*
X83688038Y-125916237D01*
X83580593Y-125749258D01*
X83416715Y-125576200D01*
X83187963Y-125385226D01*
X83062777Y-125291145D01*
X82889252Y-125119015D01*
X82740679Y-124886525D01*
X82625642Y-124616388D01*
X82552728Y-124331312D01*
X82530519Y-124054009D01*
X82542674Y-123915236D01*
X82625914Y-123644480D01*
X82778778Y-123384094D01*
X82986264Y-123147131D01*
X83233372Y-122946648D01*
X83505099Y-122795697D01*
X83786445Y-122707333D01*
X83950801Y-122689843D01*
X84122793Y-122692659D01*
D11*
X76396000Y-112072000D02*
X73646000Y-112072000D01*
X67876000Y-112072000D02*
X70626000Y-112072000D01*
X67876000Y-119527563D02*
X67876000Y-112072000D01*
X76396000Y-119527563D02*
X76396000Y-112072000D01*
X75331563Y-120592000D02*
X73646000Y-120592000D01*
X68940437Y-120592000D02*
X70626000Y-120592000D01*
X68940437Y-120592000D02*
X67876000Y-119527563D01*
X75331563Y-120592000D02*
X76396000Y-119527563D01*
X69626000Y-121832000D02*
X69626000Y-120832000D01*
X69126000Y-121332000D02*
X70126000Y-121332000D01*
X121770800Y-106860000D02*
X124710800Y-106860000D01*
X124710800Y-106860000D02*
X124710800Y-101420000D01*
X124710800Y-101420000D02*
X121770800Y-101420000D01*
X121770800Y-101420000D02*
X121770800Y-106860000D01*
X123240800Y-107950000D02*
X123240800Y-106860000D01*
X123240800Y-100330000D02*
X123240800Y-101420000D01*
X121770800Y-105960000D02*
X124710800Y-105960000D01*
D12*
G36*
X123748800Y-103886000D02*
G01*
X123240800Y-104648000D01*
X122732800Y-103886000D01*
X123748800Y-103886000D01*
G37*
X123748800Y-103886000D02*
X123240800Y-104648000D01*
X122732800Y-103886000D01*
X123748800Y-103886000D01*
D11*
X121770800Y-105664000D02*
X124710800Y-105664000D01*
X116386000Y-105816400D02*
X119326000Y-105816400D01*
D12*
G36*
X118364000Y-104038400D02*
G01*
X117856000Y-104800400D01*
X117348000Y-104038400D01*
X118364000Y-104038400D01*
G37*
X118364000Y-104038400D02*
X117856000Y-104800400D01*
X117348000Y-104038400D01*
X118364000Y-104038400D01*
D11*
X116386000Y-106112400D02*
X119326000Y-106112400D01*
X117856000Y-100482400D02*
X117856000Y-101572400D01*
X117856000Y-108102400D02*
X117856000Y-107012400D01*
X116386000Y-101572400D02*
X116386000Y-107012400D01*
X119326000Y-101572400D02*
X116386000Y-101572400D01*
X119326000Y-107012400D02*
X119326000Y-101572400D01*
X116386000Y-107012400D02*
X119326000Y-107012400D01*
X127206400Y-106910800D02*
X130146400Y-106910800D01*
X130146400Y-106910800D02*
X130146400Y-101470800D01*
X130146400Y-101470800D02*
X127206400Y-101470800D01*
X127206400Y-101470800D02*
X127206400Y-106910800D01*
X128676400Y-108000800D02*
X128676400Y-106910800D01*
X128676400Y-100380800D02*
X128676400Y-101470800D01*
X127206400Y-106010800D02*
X130146400Y-106010800D01*
D12*
G36*
X129184400Y-103936800D02*
G01*
X128676400Y-104698800D01*
X128168400Y-103936800D01*
X129184400Y-103936800D01*
G37*
X129184400Y-103936800D02*
X128676400Y-104698800D01*
X128168400Y-103936800D01*
X129184400Y-103936800D01*
D11*
X127206400Y-105714800D02*
X130146400Y-105714800D01*
X69737644Y-99590918D02*
G75*
G02X69592400Y-98907600I1534756J683318D01*
G01*
X71955442Y-100443026D02*
G75*
G02X70588400Y-100442600I-683042J1535426D01*
G01*
X72807826Y-98224558D02*
G75*
G02X72807400Y-99591600I-1535426J-683042D01*
G01*
X70589358Y-97372174D02*
G75*
G02X71956400Y-97372600I683042J-1535426D01*
G01*
X69592147Y-98936405D02*
G75*
G02X69737400Y-98223600I1680253J28805D01*
G01*
X72952400Y-104034600D02*
G75*
G03X72952400Y-104034600I-1680000J0D01*
G01*
X68672400Y-96347600D02*
X68672400Y-97764600D01*
X73573400Y-96347600D02*
X73573400Y-106467600D01*
X76533400Y-96347600D02*
X76533400Y-106467600D01*
X66612400Y-96347600D02*
X66612400Y-106467600D01*
X76533400Y-96347600D02*
X66612400Y-96347600D01*
X76533400Y-106467600D02*
X66612400Y-106467600D01*
X72341400Y-105309600D02*
X72295400Y-105262600D01*
X70033400Y-103000600D02*
X69998400Y-102965600D01*
X72547400Y-105104600D02*
X72511400Y-105069600D01*
X70249400Y-102807600D02*
X70203400Y-102760600D01*
X67112400Y-96107600D02*
X66372400Y-96107600D01*
X66372400Y-96107600D02*
X66372400Y-96607600D01*
X68672400Y-100030600D02*
X68672400Y-102844600D01*
X68672400Y-105130600D02*
X68672400Y-106400600D01*
X67208400Y-96347600D02*
X67208400Y-97764600D01*
X67208400Y-100030600D02*
X67208400Y-102844600D01*
X67208400Y-105130600D02*
X67208400Y-106400600D01*
X122301000Y-133045200D02*
X123571000Y-133045200D01*
X117201000Y-133045200D02*
X120015000Y-133045200D01*
X113518000Y-133045200D02*
X114935000Y-133045200D01*
X122301000Y-131581200D02*
X123571000Y-131581200D01*
X117201000Y-131581200D02*
X120015000Y-131581200D01*
X113278000Y-133881200D02*
X113778000Y-133881200D01*
X113278000Y-133141200D02*
X113278000Y-133881200D01*
X119978000Y-130004200D02*
X119931000Y-130050200D01*
X122275000Y-127706200D02*
X122240000Y-127742200D01*
X120171000Y-130220200D02*
X120136000Y-130255200D01*
X122480000Y-127912200D02*
X122433000Y-127958200D01*
X123638000Y-123720200D02*
X123638000Y-133641200D01*
X113518000Y-123720200D02*
X113518000Y-133641200D01*
X113518000Y-133641200D02*
X123638000Y-133641200D01*
X113518000Y-123720200D02*
X123638000Y-123720200D01*
X113518000Y-126680200D02*
X123638000Y-126680200D01*
X113518000Y-131581200D02*
X114935000Y-131581200D01*
X122885000Y-128981200D02*
G75*
G03X122885000Y-128981200I-1680000J0D01*
G01*
X116106805Y-130661453D02*
G75*
G02X115394000Y-130516200I-28805J1680253D01*
G01*
X114542574Y-129664242D02*
G75*
G02X114543000Y-128297200I1535426J683042D01*
G01*
X115394958Y-127445774D02*
G75*
G02X116762000Y-127446200I683042J-1535426D01*
G01*
X117613426Y-128298158D02*
G75*
G02X117613000Y-129665200I-1535426J-683042D01*
G01*
X116761318Y-130515956D02*
G75*
G02X116078000Y-130661200I-683318J1534756D01*
G01*
D14*
X148169333Y-130500380D02*
X147836000Y-130024190D01*
X147597904Y-130500380D02*
X147597904Y-129500380D01*
X147978857Y-129500380D01*
X148074095Y-129548000D01*
X148121714Y-129595619D01*
X148169333Y-129690857D01*
X148169333Y-129833714D01*
X148121714Y-129928952D01*
X148074095Y-129976571D01*
X147978857Y-130024190D01*
X147597904Y-130024190D01*
X148502666Y-129500380D02*
X149169333Y-129500380D01*
X148740761Y-130500380D01*
X79534022Y-114095826D02*
X79581641Y-114143445D01*
X79629260Y-114286302D01*
X79629260Y-114381540D01*
X79581641Y-114524398D01*
X79486403Y-114619636D01*
X79391165Y-114667255D01*
X79200689Y-114714874D01*
X79057832Y-114714874D01*
X78867356Y-114667255D01*
X78772118Y-114619636D01*
X78676880Y-114524398D01*
X78629260Y-114381540D01*
X78629260Y-114286302D01*
X78676880Y-114143445D01*
X78724499Y-114095826D01*
X79629260Y-113143445D02*
X79629260Y-113714874D01*
X79629260Y-113429160D02*
X78629260Y-113429160D01*
X78772118Y-113524398D01*
X78867356Y-113619636D01*
X78914975Y-113714874D01*
X81776786Y-106213691D02*
X81443453Y-106213691D01*
X81443453Y-106737500D02*
X81443453Y-105737500D01*
X81919643Y-105737500D01*
X82824405Y-106737500D02*
X82252977Y-106737500D01*
X82538691Y-106737500D02*
X82538691Y-105737500D01*
X82443453Y-105880358D01*
X82348215Y-105975596D01*
X82252977Y-106023215D01*
X81693426Y-100651091D02*
X81360093Y-100651091D01*
X81360093Y-101174900D02*
X81360093Y-100174900D01*
X81836283Y-100174900D01*
X82169617Y-100270139D02*
X82217236Y-100222520D01*
X82312474Y-100174900D01*
X82550569Y-100174900D01*
X82645807Y-100222520D01*
X82693426Y-100270139D01*
X82741045Y-100365377D01*
X82741045Y-100460615D01*
X82693426Y-100603472D01*
X82121998Y-101174900D01*
X82741045Y-101174900D01*
X131038101Y-97708299D02*
X130942863Y-97660680D01*
X130847625Y-97565441D01*
X130704768Y-97422584D01*
X130609530Y-97374965D01*
X130514292Y-97374965D01*
X130561911Y-97613060D02*
X130466673Y-97565441D01*
X130371435Y-97470203D01*
X130323816Y-97279727D01*
X130323816Y-96946394D01*
X130371435Y-96755918D01*
X130466673Y-96660680D01*
X130561911Y-96613060D01*
X130752387Y-96613060D01*
X130847625Y-96660680D01*
X130942863Y-96755918D01*
X130990482Y-96946394D01*
X130990482Y-97279727D01*
X130942863Y-97470203D01*
X130847625Y-97565441D01*
X130752387Y-97613060D01*
X130561911Y-97613060D01*
X131942863Y-97613060D02*
X131371435Y-97613060D01*
X131657149Y-97613060D02*
X131657149Y-96613060D01*
X131561911Y-96755918D01*
X131466673Y-96851156D01*
X131371435Y-96898775D01*
X99845833Y-111259880D02*
X99512500Y-110783690D01*
X99274404Y-111259880D02*
X99274404Y-110259880D01*
X99655357Y-110259880D01*
X99750595Y-110307500D01*
X99798214Y-110355119D01*
X99845833Y-110450357D01*
X99845833Y-110593214D01*
X99798214Y-110688452D01*
X99750595Y-110736071D01*
X99655357Y-110783690D01*
X99274404Y-110783690D01*
X100798214Y-111259880D02*
X100226785Y-111259880D01*
X100512500Y-111259880D02*
X100512500Y-110259880D01*
X100417261Y-110402738D01*
X100322023Y-110497976D01*
X100226785Y-110545595D01*
X99655333Y-95765880D02*
X99322000Y-95289690D01*
X99083904Y-95765880D02*
X99083904Y-94765880D01*
X99464857Y-94765880D01*
X99560095Y-94813500D01*
X99607714Y-94861119D01*
X99655333Y-94956357D01*
X99655333Y-95099214D01*
X99607714Y-95194452D01*
X99560095Y-95242071D01*
X99464857Y-95289690D01*
X99083904Y-95289690D01*
X100036285Y-94861119D02*
X100083904Y-94813500D01*
X100179142Y-94765880D01*
X100417238Y-94765880D01*
X100512476Y-94813500D01*
X100560095Y-94861119D01*
X100607714Y-94956357D01*
X100607714Y-95051595D01*
X100560095Y-95194452D01*
X99988666Y-95765880D01*
X100607714Y-95765880D01*
X99782333Y-118625880D02*
X99449000Y-118149690D01*
X99210904Y-118625880D02*
X99210904Y-117625880D01*
X99591857Y-117625880D01*
X99687095Y-117673500D01*
X99734714Y-117721119D01*
X99782333Y-117816357D01*
X99782333Y-117959214D01*
X99734714Y-118054452D01*
X99687095Y-118102071D01*
X99591857Y-118149690D01*
X99210904Y-118149690D01*
X100115666Y-117625880D02*
X100734714Y-117625880D01*
X100401380Y-118006833D01*
X100544238Y-118006833D01*
X100639476Y-118054452D01*
X100687095Y-118102071D01*
X100734714Y-118197309D01*
X100734714Y-118435404D01*
X100687095Y-118530642D01*
X100639476Y-118578261D01*
X100544238Y-118625880D01*
X100258523Y-118625880D01*
X100163285Y-118578261D01*
X100115666Y-118530642D01*
X99655333Y-103449380D02*
X99322000Y-102973190D01*
X99083904Y-103449380D02*
X99083904Y-102449380D01*
X99464857Y-102449380D01*
X99560095Y-102497000D01*
X99607714Y-102544619D01*
X99655333Y-102639857D01*
X99655333Y-102782714D01*
X99607714Y-102877952D01*
X99560095Y-102925571D01*
X99464857Y-102973190D01*
X99083904Y-102973190D01*
X100512476Y-102782714D02*
X100512476Y-103449380D01*
X100274380Y-102401761D02*
X100036285Y-103116047D01*
X100655333Y-103116047D01*
X129535180Y-114034866D02*
X129058990Y-114368200D01*
X129535180Y-114606295D02*
X128535180Y-114606295D01*
X128535180Y-114225342D01*
X128582800Y-114130104D01*
X128630419Y-114082485D01*
X128725657Y-114034866D01*
X128868514Y-114034866D01*
X128963752Y-114082485D01*
X129011371Y-114130104D01*
X129058990Y-114225342D01*
X129058990Y-114606295D01*
X128535180Y-113130104D02*
X128535180Y-113606295D01*
X129011371Y-113653914D01*
X128963752Y-113606295D01*
X128916133Y-113511057D01*
X128916133Y-113272961D01*
X128963752Y-113177723D01*
X129011371Y-113130104D01*
X129106609Y-113082485D01*
X129344704Y-113082485D01*
X129439942Y-113130104D01*
X129487561Y-113177723D01*
X129535180Y-113272961D01*
X129535180Y-113511057D01*
X129487561Y-113606295D01*
X129439942Y-113653914D01*
X130833833Y-88907880D02*
X130500500Y-88431690D01*
X130262404Y-88907880D02*
X130262404Y-87907880D01*
X130643357Y-87907880D01*
X130738595Y-87955500D01*
X130786214Y-88003119D01*
X130833833Y-88098357D01*
X130833833Y-88241214D01*
X130786214Y-88336452D01*
X130738595Y-88384071D01*
X130643357Y-88431690D01*
X130262404Y-88431690D01*
X131690976Y-87907880D02*
X131500500Y-87907880D01*
X131405261Y-87955500D01*
X131357642Y-88003119D01*
X131262404Y-88145976D01*
X131214785Y-88336452D01*
X131214785Y-88717404D01*
X131262404Y-88812642D01*
X131310023Y-88860261D01*
X131405261Y-88907880D01*
X131595738Y-88907880D01*
X131690976Y-88860261D01*
X131738595Y-88812642D01*
X131786214Y-88717404D01*
X131786214Y-88479309D01*
X131738595Y-88384071D01*
X131690976Y-88336452D01*
X131595738Y-88288833D01*
X131405261Y-88288833D01*
X131310023Y-88336452D01*
X131262404Y-88384071D01*
X131214785Y-88479309D01*
X148042333Y-123197880D02*
X147709000Y-122721690D01*
X147470904Y-123197880D02*
X147470904Y-122197880D01*
X147851857Y-122197880D01*
X147947095Y-122245500D01*
X147994714Y-122293119D01*
X148042333Y-122388357D01*
X148042333Y-122531214D01*
X147994714Y-122626452D01*
X147947095Y-122674071D01*
X147851857Y-122721690D01*
X147470904Y-122721690D01*
X148613761Y-122626452D02*
X148518523Y-122578833D01*
X148470904Y-122531214D01*
X148423285Y-122435976D01*
X148423285Y-122388357D01*
X148470904Y-122293119D01*
X148518523Y-122245500D01*
X148613761Y-122197880D01*
X148804238Y-122197880D01*
X148899476Y-122245500D01*
X148947095Y-122293119D01*
X148994714Y-122388357D01*
X148994714Y-122435976D01*
X148947095Y-122531214D01*
X148899476Y-122578833D01*
X148804238Y-122626452D01*
X148613761Y-122626452D01*
X148518523Y-122674071D01*
X148470904Y-122721690D01*
X148423285Y-122816928D01*
X148423285Y-123007404D01*
X148470904Y-123102642D01*
X148518523Y-123150261D01*
X148613761Y-123197880D01*
X148804238Y-123197880D01*
X148899476Y-123150261D01*
X148947095Y-123102642D01*
X148994714Y-123007404D01*
X148994714Y-122816928D01*
X148947095Y-122721690D01*
X148899476Y-122674071D01*
X148804238Y-122626452D01*
X148042333Y-116149380D02*
X147709000Y-115673190D01*
X147470904Y-116149380D02*
X147470904Y-115149380D01*
X147851857Y-115149380D01*
X147947095Y-115197000D01*
X147994714Y-115244619D01*
X148042333Y-115339857D01*
X148042333Y-115482714D01*
X147994714Y-115577952D01*
X147947095Y-115625571D01*
X147851857Y-115673190D01*
X147470904Y-115673190D01*
X148518523Y-116149380D02*
X148709000Y-116149380D01*
X148804238Y-116101761D01*
X148851857Y-116054142D01*
X148947095Y-115911285D01*
X148994714Y-115720809D01*
X148994714Y-115339857D01*
X148947095Y-115244619D01*
X148899476Y-115197000D01*
X148804238Y-115149380D01*
X148613761Y-115149380D01*
X148518523Y-115197000D01*
X148470904Y-115244619D01*
X148423285Y-115339857D01*
X148423285Y-115577952D01*
X148470904Y-115673190D01*
X148518523Y-115720809D01*
X148613761Y-115768428D01*
X148804238Y-115768428D01*
X148899476Y-115720809D01*
X148947095Y-115673190D01*
X148994714Y-115577952D01*
X147439142Y-108973880D02*
X147105809Y-108497690D01*
X146867714Y-108973880D02*
X146867714Y-107973880D01*
X147248666Y-107973880D01*
X147343904Y-108021500D01*
X147391523Y-108069119D01*
X147439142Y-108164357D01*
X147439142Y-108307214D01*
X147391523Y-108402452D01*
X147343904Y-108450071D01*
X147248666Y-108497690D01*
X146867714Y-108497690D01*
X148391523Y-108973880D02*
X147820095Y-108973880D01*
X148105809Y-108973880D02*
X148105809Y-107973880D01*
X148010571Y-108116738D01*
X147915333Y-108211976D01*
X147820095Y-108259595D01*
X149010571Y-107973880D02*
X149105809Y-107973880D01*
X149201047Y-108021500D01*
X149248666Y-108069119D01*
X149296285Y-108164357D01*
X149343904Y-108354833D01*
X149343904Y-108592928D01*
X149296285Y-108783404D01*
X149248666Y-108878642D01*
X149201047Y-108926261D01*
X149105809Y-108973880D01*
X149010571Y-108973880D01*
X148915333Y-108926261D01*
X148867714Y-108878642D01*
X148820095Y-108783404D01*
X148772476Y-108592928D01*
X148772476Y-108354833D01*
X148820095Y-108164357D01*
X148867714Y-108069119D01*
X148915333Y-108021500D01*
X149010571Y-107973880D01*
X147629642Y-101925380D02*
X147296309Y-101449190D01*
X147058214Y-101925380D02*
X147058214Y-100925380D01*
X147439166Y-100925380D01*
X147534404Y-100973000D01*
X147582023Y-101020619D01*
X147629642Y-101115857D01*
X147629642Y-101258714D01*
X147582023Y-101353952D01*
X147534404Y-101401571D01*
X147439166Y-101449190D01*
X147058214Y-101449190D01*
X148582023Y-101925380D02*
X148010595Y-101925380D01*
X148296309Y-101925380D02*
X148296309Y-100925380D01*
X148201071Y-101068238D01*
X148105833Y-101163476D01*
X148010595Y-101211095D01*
X149534404Y-101925380D02*
X148962976Y-101925380D01*
X149248690Y-101925380D02*
X149248690Y-100925380D01*
X149153452Y-101068238D01*
X149058214Y-101163476D01*
X148962976Y-101211095D01*
X147566142Y-95003880D02*
X147232809Y-94527690D01*
X146994714Y-95003880D02*
X146994714Y-94003880D01*
X147375666Y-94003880D01*
X147470904Y-94051500D01*
X147518523Y-94099119D01*
X147566142Y-94194357D01*
X147566142Y-94337214D01*
X147518523Y-94432452D01*
X147470904Y-94480071D01*
X147375666Y-94527690D01*
X146994714Y-94527690D01*
X148518523Y-95003880D02*
X147947095Y-95003880D01*
X148232809Y-95003880D02*
X148232809Y-94003880D01*
X148137571Y-94146738D01*
X148042333Y-94241976D01*
X147947095Y-94289595D01*
X148899476Y-94099119D02*
X148947095Y-94051500D01*
X149042333Y-94003880D01*
X149280428Y-94003880D01*
X149375666Y-94051500D01*
X149423285Y-94099119D01*
X149470904Y-94194357D01*
X149470904Y-94289595D01*
X149423285Y-94432452D01*
X148851857Y-95003880D01*
X149470904Y-95003880D01*
X127452380Y-114053857D02*
X126976190Y-114387190D01*
X127452380Y-114625285D02*
X126452380Y-114625285D01*
X126452380Y-114244333D01*
X126500000Y-114149095D01*
X126547619Y-114101476D01*
X126642857Y-114053857D01*
X126785714Y-114053857D01*
X126880952Y-114101476D01*
X126928571Y-114149095D01*
X126976190Y-114244333D01*
X126976190Y-114625285D01*
X127452380Y-113101476D02*
X127452380Y-113672904D01*
X127452380Y-113387190D02*
X126452380Y-113387190D01*
X126595238Y-113482428D01*
X126690476Y-113577666D01*
X126738095Y-113672904D01*
X126452380Y-112768142D02*
X126452380Y-112149095D01*
X126833333Y-112482428D01*
X126833333Y-112339571D01*
X126880952Y-112244333D01*
X126928571Y-112196714D01*
X127023809Y-112149095D01*
X127261904Y-112149095D01*
X127357142Y-112196714D01*
X127404761Y-112244333D01*
X127452380Y-112339571D01*
X127452380Y-112625285D01*
X127404761Y-112720523D01*
X127357142Y-112768142D01*
X129281180Y-121267457D02*
X128804990Y-121600790D01*
X129281180Y-121838885D02*
X128281180Y-121838885D01*
X128281180Y-121457933D01*
X128328800Y-121362695D01*
X128376419Y-121315076D01*
X128471657Y-121267457D01*
X128614514Y-121267457D01*
X128709752Y-121315076D01*
X128757371Y-121362695D01*
X128804990Y-121457933D01*
X128804990Y-121838885D01*
X129281180Y-120315076D02*
X129281180Y-120886504D01*
X129281180Y-120600790D02*
X128281180Y-120600790D01*
X128424038Y-120696028D01*
X128519276Y-120791266D01*
X128566895Y-120886504D01*
X128614514Y-119457933D02*
X129281180Y-119457933D01*
X128233561Y-119696028D02*
X128947847Y-119934123D01*
X128947847Y-119315076D01*
X121907395Y-89177060D02*
X121907395Y-89986584D01*
X121955014Y-90081822D01*
X122002633Y-90129441D01*
X122097871Y-90177060D01*
X122288347Y-90177060D01*
X122383585Y-90129441D01*
X122431204Y-90081822D01*
X122478823Y-89986584D01*
X122478823Y-89177060D01*
X123478823Y-90177060D02*
X122907395Y-90177060D01*
X123193109Y-90177060D02*
X123193109Y-89177060D01*
X123097871Y-89319918D01*
X123002633Y-89415156D01*
X122907395Y-89462775D01*
X125674380Y-126214095D02*
X124674380Y-126214095D01*
X124674380Y-125976000D01*
X124722000Y-125833142D01*
X124817238Y-125737904D01*
X124912476Y-125690285D01*
X125102952Y-125642666D01*
X125245809Y-125642666D01*
X125436285Y-125690285D01*
X125531523Y-125737904D01*
X125626761Y-125833142D01*
X125674380Y-125976000D01*
X125674380Y-126214095D01*
X125007714Y-124785523D02*
X125674380Y-124785523D01*
X124626761Y-125023619D02*
X125341047Y-125261714D01*
X125341047Y-124642666D01*
X125267980Y-114028457D02*
X124791790Y-114361790D01*
X125267980Y-114599885D02*
X124267980Y-114599885D01*
X124267980Y-114218933D01*
X124315600Y-114123695D01*
X124363219Y-114076076D01*
X124458457Y-114028457D01*
X124601314Y-114028457D01*
X124696552Y-114076076D01*
X124744171Y-114123695D01*
X124791790Y-114218933D01*
X124791790Y-114599885D01*
X125267980Y-113076076D02*
X125267980Y-113647504D01*
X125267980Y-113361790D02*
X124267980Y-113361790D01*
X124410838Y-113457028D01*
X124506076Y-113552266D01*
X124553695Y-113647504D01*
X124267980Y-112171314D02*
X124267980Y-112647504D01*
X124744171Y-112695123D01*
X124696552Y-112647504D01*
X124648933Y-112552266D01*
X124648933Y-112314171D01*
X124696552Y-112218933D01*
X124744171Y-112171314D01*
X124839409Y-112123695D01*
X125077504Y-112123695D01*
X125172742Y-112171314D01*
X125220361Y-112218933D01*
X125267980Y-112314171D01*
X125267980Y-112552266D01*
X125220361Y-112647504D01*
X125172742Y-112695123D01*
X123591580Y-121318257D02*
X123115390Y-121651590D01*
X123591580Y-121889685D02*
X122591580Y-121889685D01*
X122591580Y-121508733D01*
X122639200Y-121413495D01*
X122686819Y-121365876D01*
X122782057Y-121318257D01*
X122924914Y-121318257D01*
X123020152Y-121365876D01*
X123067771Y-121413495D01*
X123115390Y-121508733D01*
X123115390Y-121889685D01*
X123591580Y-120365876D02*
X123591580Y-120937304D01*
X123591580Y-120651590D02*
X122591580Y-120651590D01*
X122734438Y-120746828D01*
X122829676Y-120842066D01*
X122877295Y-120937304D01*
X122591580Y-119508733D02*
X122591580Y-119699209D01*
X122639200Y-119794447D01*
X122686819Y-119842066D01*
X122829676Y-119937304D01*
X123020152Y-119984923D01*
X123401104Y-119984923D01*
X123496342Y-119937304D01*
X123543961Y-119889685D01*
X123591580Y-119794447D01*
X123591580Y-119603971D01*
X123543961Y-119508733D01*
X123496342Y-119461114D01*
X123401104Y-119413495D01*
X123163009Y-119413495D01*
X123067771Y-119461114D01*
X123020152Y-119508733D01*
X122972533Y-119603971D01*
X122972533Y-119794447D01*
X123020152Y-119889685D01*
X123067771Y-119937304D01*
X123163009Y-119984923D01*
X166878095Y-125792380D02*
X166878095Y-124792380D01*
X166878095Y-125268571D02*
X167449523Y-125268571D01*
X167449523Y-125792380D02*
X167449523Y-124792380D01*
X168449523Y-125792380D02*
X167878095Y-125792380D01*
X168163809Y-125792380D02*
X168163809Y-124792380D01*
X168068571Y-124935238D01*
X167973333Y-125030476D01*
X167878095Y-125078095D01*
X166751095Y-96146880D02*
X166751095Y-95146880D01*
X166751095Y-95623071D02*
X167322523Y-95623071D01*
X167322523Y-96146880D02*
X167322523Y-95146880D01*
X167751095Y-95242119D02*
X167798714Y-95194500D01*
X167893952Y-95146880D01*
X168132047Y-95146880D01*
X168227285Y-95194500D01*
X168274904Y-95242119D01*
X168322523Y-95337357D01*
X168322523Y-95432595D01*
X168274904Y-95575452D01*
X167703476Y-96146880D01*
X168322523Y-96146880D01*
X70431755Y-125443240D02*
X70431755Y-124443240D01*
X70431755Y-124919431D02*
X71003183Y-124919431D01*
X71003183Y-125443240D02*
X71003183Y-124443240D01*
X71384136Y-124443240D02*
X72003183Y-124443240D01*
X71669850Y-124824193D01*
X71812707Y-124824193D01*
X71907945Y-124871812D01*
X71955564Y-124919431D01*
X72003183Y-125014669D01*
X72003183Y-125252764D01*
X71955564Y-125348002D01*
X71907945Y-125395621D01*
X71812707Y-125443240D01*
X71526993Y-125443240D01*
X71431755Y-125395621D01*
X71384136Y-125348002D01*
X73916635Y-88793580D02*
X73916635Y-87793580D01*
X73916635Y-88269771D02*
X74488063Y-88269771D01*
X74488063Y-88793580D02*
X74488063Y-87793580D01*
X75392825Y-88126914D02*
X75392825Y-88793580D01*
X75154730Y-87745961D02*
X74916635Y-88460247D01*
X75535682Y-88460247D01*
X79703515Y-118445588D02*
X80465420Y-118445588D01*
X80084467Y-118826540D02*
X80084467Y-118064636D01*
X80893991Y-117921779D02*
X80941610Y-117874160D01*
X81036848Y-117826540D01*
X81274943Y-117826540D01*
X81370181Y-117874160D01*
X81417800Y-117921779D01*
X81465420Y-118017017D01*
X81465420Y-118112255D01*
X81417800Y-118255112D01*
X80846372Y-118826540D01*
X81465420Y-118826540D01*
X82084467Y-117826540D02*
X82179705Y-117826540D01*
X82274943Y-117874160D01*
X82322562Y-117921779D01*
X82370181Y-118017017D01*
X82417800Y-118207493D01*
X82417800Y-118445588D01*
X82370181Y-118636064D01*
X82322562Y-118731302D01*
X82274943Y-118778921D01*
X82179705Y-118826540D01*
X82084467Y-118826540D01*
X81989229Y-118778921D01*
X81941610Y-118731302D01*
X81893991Y-118636064D01*
X81846372Y-118445588D01*
X81846372Y-118207493D01*
X81893991Y-118017017D01*
X81941610Y-117921779D01*
X81989229Y-117874160D01*
X82084467Y-117826540D01*
X82703515Y-117826540D02*
X83036848Y-118826540D01*
X83370181Y-117826540D01*
X80657795Y-107264580D02*
X80562557Y-107216960D01*
X80419700Y-107216960D01*
X80276842Y-107264580D01*
X80181604Y-107359818D01*
X80133985Y-107455056D01*
X80086366Y-107645532D01*
X80086366Y-107788389D01*
X80133985Y-107978865D01*
X80181604Y-108074103D01*
X80276842Y-108169341D01*
X80419700Y-108216960D01*
X80514938Y-108216960D01*
X80657795Y-108169341D01*
X80705414Y-108121722D01*
X80705414Y-107788389D01*
X80514938Y-107788389D01*
X81133985Y-108216960D02*
X81133985Y-107216960D01*
X81705414Y-108216960D01*
X81705414Y-107216960D01*
X82181604Y-108216960D02*
X82181604Y-107216960D01*
X82419700Y-107216960D01*
X82562557Y-107264580D01*
X82657795Y-107359818D01*
X82705414Y-107455056D01*
X82753033Y-107645532D01*
X82753033Y-107788389D01*
X82705414Y-107978865D01*
X82657795Y-108074103D01*
X82562557Y-108169341D01*
X82419700Y-108216960D01*
X82181604Y-108216960D01*
X75271333Y-122277142D02*
X75223714Y-122324761D01*
X75080857Y-122372380D01*
X74985619Y-122372380D01*
X74842761Y-122324761D01*
X74747523Y-122229523D01*
X74699904Y-122134285D01*
X74652285Y-121943809D01*
X74652285Y-121800952D01*
X74699904Y-121610476D01*
X74747523Y-121515238D01*
X74842761Y-121420000D01*
X74985619Y-121372380D01*
X75080857Y-121372380D01*
X75223714Y-121420000D01*
X75271333Y-121467619D01*
X75652285Y-121467619D02*
X75699904Y-121420000D01*
X75795142Y-121372380D01*
X76033238Y-121372380D01*
X76128476Y-121420000D01*
X76176095Y-121467619D01*
X76223714Y-121562857D01*
X76223714Y-121658095D01*
X76176095Y-121800952D01*
X75604666Y-122372380D01*
X76223714Y-122372380D01*
X121223180Y-104878095D02*
X120223180Y-104878095D01*
X120223180Y-104640000D01*
X120270800Y-104497142D01*
X120366038Y-104401904D01*
X120461276Y-104354285D01*
X120651752Y-104306666D01*
X120794609Y-104306666D01*
X120985085Y-104354285D01*
X121080323Y-104401904D01*
X121175561Y-104497142D01*
X121223180Y-104640000D01*
X121223180Y-104878095D01*
X121223180Y-103354285D02*
X121223180Y-103925714D01*
X121223180Y-103640000D02*
X120223180Y-103640000D01*
X120366038Y-103735238D01*
X120461276Y-103830476D01*
X120508895Y-103925714D01*
X115838380Y-105030495D02*
X114838380Y-105030495D01*
X114838380Y-104792400D01*
X114886000Y-104649542D01*
X114981238Y-104554304D01*
X115076476Y-104506685D01*
X115266952Y-104459066D01*
X115409809Y-104459066D01*
X115600285Y-104506685D01*
X115695523Y-104554304D01*
X115790761Y-104649542D01*
X115838380Y-104792400D01*
X115838380Y-105030495D01*
X114933619Y-104078114D02*
X114886000Y-104030495D01*
X114838380Y-103935257D01*
X114838380Y-103697161D01*
X114886000Y-103601923D01*
X114933619Y-103554304D01*
X115028857Y-103506685D01*
X115124095Y-103506685D01*
X115266952Y-103554304D01*
X115838380Y-104125733D01*
X115838380Y-103506685D01*
X126658780Y-104928895D02*
X125658780Y-104928895D01*
X125658780Y-104690800D01*
X125706400Y-104547942D01*
X125801638Y-104452704D01*
X125896876Y-104405085D01*
X126087352Y-104357466D01*
X126230209Y-104357466D01*
X126420685Y-104405085D01*
X126515923Y-104452704D01*
X126611161Y-104547942D01*
X126658780Y-104690800D01*
X126658780Y-104928895D01*
X125658780Y-104024133D02*
X125658780Y-103405085D01*
X126039733Y-103738419D01*
X126039733Y-103595561D01*
X126087352Y-103500323D01*
X126134971Y-103452704D01*
X126230209Y-103405085D01*
X126468304Y-103405085D01*
X126563542Y-103452704D01*
X126611161Y-103500323D01*
X126658780Y-103595561D01*
X126658780Y-103881276D01*
X126611161Y-103976514D01*
X126563542Y-104024133D01*
X74382380Y-101780933D02*
X75096666Y-101780933D01*
X75239523Y-101828552D01*
X75334761Y-101923790D01*
X75382380Y-102066647D01*
X75382380Y-102161885D01*
X75382380Y-100780933D02*
X75382380Y-101352361D01*
X75382380Y-101066647D02*
X74382380Y-101066647D01*
X74525238Y-101161885D01*
X74620476Y-101257123D01*
X74668095Y-101352361D01*
X118538666Y-124572780D02*
X118538666Y-125287066D01*
X118491047Y-125429923D01*
X118395809Y-125525161D01*
X118252952Y-125572780D01*
X118157714Y-125572780D01*
X118967238Y-124668019D02*
X119014857Y-124620400D01*
X119110095Y-124572780D01*
X119348190Y-124572780D01*
X119443428Y-124620400D01*
X119491047Y-124668019D01*
X119538666Y-124763257D01*
X119538666Y-124858495D01*
X119491047Y-125001352D01*
X118919619Y-125572780D01*
X119538666Y-125572780D01*
M02*
