M48
; DRILL file {KiCad (5.1.5)-3} date 9/18/2020 3:17:52 AM
; FORMAT={-:-/ absolute / inch / decimal}
; #@! TF.CreationDate,2020-09-18T03:17:52-03:00
; #@! TF.GenerationSoftware,Kicad,Pcbnew,(5.1.5)-3
; #@! TF.FileFunction,Plated,1,2,PTH
FMAT,2
INCH
T1C0.0157
T2C0.0197
T3C0.0394
T4C0.0512
T5C0.0709
T6C0.1260
T7C0.1378
%
G90
G05
T1
X3.52Y-6.179
X3.5306Y-3.4654
X3.6235Y-3.9085
X3.7652Y-5.5367
X3.7665Y-5.7555
X3.9595Y-3.49
X4.12Y-3.1395
X4.1605Y-5.6585
X4.276Y-5.537
X4.3578Y-6.1864
X4.6716Y-5.3562
X4.7586Y-5.4436
X4.81Y-4.12
X4.85Y-5.37
X4.89Y-4.04
X4.9Y-5.13
X5.0014Y-4.0652
X5.07Y-5.5
X5.1Y-5.57
X5.1364Y-4.066
X5.2Y-4.75
X5.2345Y-3.32
X5.26Y-4.48
X5.26Y-5.8
X5.27Y-5.06
X5.36Y-4.67
X5.43Y-4.88
X5.49Y-5.68
X5.49Y-5.96
X5.572Y-3.322
X5.683Y-3.252
T2
X6.2008Y-6.4174
X6.2284Y-6.3505
X6.2284Y-6.4842
X6.2952Y-6.3229
X6.2952Y-6.5118
X6.3621Y-6.3505
X6.3621Y-6.4842
X6.3897Y-6.4174
X2.6696Y-2.8872
X2.6973Y-2.8204
X2.6973Y-2.954
X2.7641Y-2.7927
X2.7641Y-2.9817
X2.831Y-2.8204
X2.831Y-2.954
X2.8586Y-2.8872
X6.1982Y-2.8906
X6.2258Y-2.8237
X6.2258Y-2.9574
X6.2926Y-2.7961
X6.2926Y-2.985
X6.3595Y-2.8237
X6.3595Y-2.9574
X6.3871Y-2.8906
X2.6735Y-6.4157
X2.7012Y-6.3489
X2.7012Y-6.4825
X2.768Y-6.3212
X2.768Y-6.5102
X2.8348Y-6.3489
X2.8348Y-6.4825
X2.8625Y-6.4157
T3
X2.861Y-5.045
X2.862Y-4.349
X2.961Y-5.045
X2.962Y-4.349
X3.061Y-5.045
X3.062Y-4.349
X3.161Y-5.045
X3.162Y-4.349
X3.261Y-5.045
X3.262Y-4.349
X3.361Y-5.045
X3.362Y-4.349
X3.461Y-5.045
X3.462Y-4.349
X3.561Y-5.045
X3.562Y-4.349
X3.661Y-5.045
X3.662Y-4.349
X3.761Y-5.045
X3.762Y-4.349
X3.861Y-5.045
X3.862Y-4.349
X3.961Y-5.045
X3.962Y-4.349
X4.061Y-5.045
X4.062Y-4.349
X4.161Y-5.045
X4.162Y-4.349
X4.261Y-5.045
X4.262Y-4.349
X4.361Y-5.045
X4.362Y-4.349
X4.461Y-5.045
X4.462Y-4.349
X4.561Y-5.045
X4.562Y-4.349
X4.661Y-5.045
X4.662Y-4.349
X4.761Y-5.045
X4.762Y-4.349
X5.7833Y-3.4394
X5.7833Y-3.9118
T4
X5.7698Y-2.8961
X5.9717Y-2.8961
X5.1278Y-6.417
X5.3278Y-6.417
X5.5278Y-6.417
X5.7278Y-6.417
X3.922Y-2.891
X4.122Y-2.891
X4.322Y-2.891
X4.522Y-2.891
X3.08Y-2.891
X3.28Y-2.891
X3.48Y-2.891
X3.68Y-2.891
X3.9595Y-6.4175
X4.1595Y-6.4175
X4.3595Y-6.4175
X4.5595Y-6.4175
X5.2431Y-2.8964
X5.445Y-2.8964
X3.1175Y-6.4185
X3.3175Y-6.4185
X3.5175Y-6.4185
X3.7175Y-6.4185
X5.3011Y-3.9138
X5.303Y-3.4394
X5.8601Y-3.6775
T5
X5.1278Y-6.542
X5.3278Y-6.542
X5.5278Y-6.542
X5.7278Y-6.542
X3.922Y-2.766
X4.122Y-2.766
X4.322Y-2.766
X4.522Y-2.766
X5.7135Y-5.48
X5.7135Y-5.6454
X5.7135Y-5.8107
X5.7135Y-5.9761
X5.93Y-5.48
X5.93Y-5.6454
X5.93Y-5.8107
X5.93Y-5.9761
X3.08Y-2.766
X3.28Y-2.766
X3.48Y-2.766
X3.68Y-2.766
X3.9595Y-6.5425
X4.1595Y-6.5425
X4.3595Y-6.5425
X4.5595Y-6.5425
X5.245Y-2.7664
X5.445Y-2.7664
X3.1175Y-6.5435
X3.3175Y-6.5435
X3.5175Y-6.5435
X3.7175Y-6.5435
X5.7717Y-2.7661
X5.9717Y-2.7661
T6
X2.768Y-6.4157
X6.2952Y-6.4174
X2.7641Y-2.8872
X6.2926Y-2.8906
T7
X6.367Y-4.6488
T0
M30
