G04 #@! TF.GenerationSoftware,KiCad,Pcbnew,(5.1.5)-3*
G04 #@! TF.CreationDate,2020-09-18T03:17:50-03:00*
G04 #@! TF.ProjectId,Diferencial,44696665-7265-46e6-9369-616c2e6b6963,rev?*
G04 #@! TF.SameCoordinates,Original*
G04 #@! TF.FileFunction,Soldermask,Bot*
G04 #@! TF.FilePolarity,Negative*
%FSLAX46Y46*%
G04 Gerber Fmt 4.6, Leading zero omitted, Abs format (unit mm)*
G04 Created by KiCad (PCBNEW (5.1.5)-3) date 2020-09-18 03:17:50*
%MOMM*%
%LPD*%
G04 APERTURE LIST*
%ADD10C,0.100000*%
G04 APERTURE END LIST*
D10*
G36*
X84643987Y-164953896D02*
G01*
X84880753Y-165051968D01*
X84880755Y-165051969D01*
X85093839Y-165194347D01*
X85275053Y-165375561D01*
X85400461Y-165563247D01*
X85417432Y-165588647D01*
X85515504Y-165825413D01*
X85565500Y-166076761D01*
X85565500Y-166333039D01*
X85515504Y-166584387D01*
X85433213Y-166783055D01*
X85417431Y-166821155D01*
X85275053Y-167034239D01*
X85093839Y-167215453D01*
X84880755Y-167357831D01*
X84880754Y-167357832D01*
X84880753Y-167357832D01*
X84643987Y-167455904D01*
X84392639Y-167505900D01*
X84136361Y-167505900D01*
X83885013Y-167455904D01*
X83648247Y-167357832D01*
X83648246Y-167357832D01*
X83648245Y-167357831D01*
X83435161Y-167215453D01*
X83253947Y-167034239D01*
X83111569Y-166821155D01*
X83095787Y-166783055D01*
X83013496Y-166584387D01*
X82963500Y-166333039D01*
X82963500Y-166076761D01*
X83013496Y-165825413D01*
X83111568Y-165588647D01*
X83128540Y-165563247D01*
X83253947Y-165375561D01*
X83435161Y-165194347D01*
X83648245Y-165051969D01*
X83648247Y-165051968D01*
X83885013Y-164953896D01*
X84136361Y-164903900D01*
X84392639Y-164903900D01*
X84643987Y-164953896D01*
G37*
G36*
X79563987Y-164953896D02*
G01*
X79800753Y-165051968D01*
X79800755Y-165051969D01*
X80013839Y-165194347D01*
X80195053Y-165375561D01*
X80320461Y-165563247D01*
X80337432Y-165588647D01*
X80435504Y-165825413D01*
X80485500Y-166076761D01*
X80485500Y-166333039D01*
X80435504Y-166584387D01*
X80353213Y-166783055D01*
X80337431Y-166821155D01*
X80195053Y-167034239D01*
X80013839Y-167215453D01*
X79800755Y-167357831D01*
X79800754Y-167357832D01*
X79800753Y-167357832D01*
X79563987Y-167455904D01*
X79312639Y-167505900D01*
X79056361Y-167505900D01*
X78805013Y-167455904D01*
X78568247Y-167357832D01*
X78568246Y-167357832D01*
X78568245Y-167357831D01*
X78355161Y-167215453D01*
X78173947Y-167034239D01*
X78031569Y-166821155D01*
X78015787Y-166783055D01*
X77933496Y-166584387D01*
X77883500Y-166333039D01*
X77883500Y-166076761D01*
X77933496Y-165825413D01*
X78031568Y-165588647D01*
X78048540Y-165563247D01*
X78173947Y-165375561D01*
X78355161Y-165194347D01*
X78568245Y-165051969D01*
X78568247Y-165051968D01*
X78805013Y-164953896D01*
X79056361Y-164903900D01*
X79312639Y-164903900D01*
X79563987Y-164953896D01*
G37*
G36*
X94803987Y-164953896D02*
G01*
X95040753Y-165051968D01*
X95040755Y-165051969D01*
X95253839Y-165194347D01*
X95435053Y-165375561D01*
X95560461Y-165563247D01*
X95577432Y-165588647D01*
X95675504Y-165825413D01*
X95725500Y-166076761D01*
X95725500Y-166333039D01*
X95675504Y-166584387D01*
X95593213Y-166783055D01*
X95577431Y-166821155D01*
X95435053Y-167034239D01*
X95253839Y-167215453D01*
X95040755Y-167357831D01*
X95040754Y-167357832D01*
X95040753Y-167357832D01*
X94803987Y-167455904D01*
X94552639Y-167505900D01*
X94296361Y-167505900D01*
X94045013Y-167455904D01*
X93808247Y-167357832D01*
X93808246Y-167357832D01*
X93808245Y-167357831D01*
X93595161Y-167215453D01*
X93413947Y-167034239D01*
X93271569Y-166821155D01*
X93255787Y-166783055D01*
X93173496Y-166584387D01*
X93123500Y-166333039D01*
X93123500Y-166076761D01*
X93173496Y-165825413D01*
X93271568Y-165588647D01*
X93288540Y-165563247D01*
X93413947Y-165375561D01*
X93595161Y-165194347D01*
X93808245Y-165051969D01*
X93808247Y-165051968D01*
X94045013Y-164953896D01*
X94296361Y-164903900D01*
X94552639Y-164903900D01*
X94803987Y-164953896D01*
G37*
G36*
X89723987Y-164953896D02*
G01*
X89960753Y-165051968D01*
X89960755Y-165051969D01*
X90173839Y-165194347D01*
X90355053Y-165375561D01*
X90480461Y-165563247D01*
X90497432Y-165588647D01*
X90595504Y-165825413D01*
X90645500Y-166076761D01*
X90645500Y-166333039D01*
X90595504Y-166584387D01*
X90513213Y-166783055D01*
X90497431Y-166821155D01*
X90355053Y-167034239D01*
X90173839Y-167215453D01*
X89960755Y-167357831D01*
X89960754Y-167357832D01*
X89960753Y-167357832D01*
X89723987Y-167455904D01*
X89472639Y-167505900D01*
X89216361Y-167505900D01*
X88965013Y-167455904D01*
X88728247Y-167357832D01*
X88728246Y-167357832D01*
X88728245Y-167357831D01*
X88515161Y-167215453D01*
X88333947Y-167034239D01*
X88191569Y-166821155D01*
X88175787Y-166783055D01*
X88093496Y-166584387D01*
X88043500Y-166333039D01*
X88043500Y-166076761D01*
X88093496Y-165825413D01*
X88191568Y-165588647D01*
X88208540Y-165563247D01*
X88333947Y-165375561D01*
X88515161Y-165194347D01*
X88728245Y-165051969D01*
X88728247Y-165051968D01*
X88965013Y-164953896D01*
X89216361Y-164903900D01*
X89472639Y-164903900D01*
X89723987Y-164953896D01*
G37*
G36*
X111110787Y-164928496D02*
G01*
X111347553Y-165026568D01*
X111347555Y-165026569D01*
X111417481Y-165073292D01*
X111560639Y-165168947D01*
X111741853Y-165350161D01*
X111884232Y-165563247D01*
X111982304Y-165800013D01*
X112032300Y-166051361D01*
X112032300Y-166307639D01*
X111982304Y-166558987D01*
X111889492Y-166783055D01*
X111884231Y-166795755D01*
X111741853Y-167008839D01*
X111560639Y-167190053D01*
X111347555Y-167332431D01*
X111347554Y-167332432D01*
X111347553Y-167332432D01*
X111110787Y-167430504D01*
X110859439Y-167480500D01*
X110603161Y-167480500D01*
X110351813Y-167430504D01*
X110115047Y-167332432D01*
X110115046Y-167332432D01*
X110115045Y-167332431D01*
X109901961Y-167190053D01*
X109720747Y-167008839D01*
X109578369Y-166795755D01*
X109573108Y-166783055D01*
X109480296Y-166558987D01*
X109430300Y-166307639D01*
X109430300Y-166051361D01*
X109480296Y-165800013D01*
X109578368Y-165563247D01*
X109720747Y-165350161D01*
X109901961Y-165168947D01*
X110045119Y-165073292D01*
X110115045Y-165026569D01*
X110115047Y-165026568D01*
X110351813Y-164928496D01*
X110603161Y-164878500D01*
X110859439Y-164878500D01*
X111110787Y-164928496D01*
G37*
G36*
X116190787Y-164928496D02*
G01*
X116427553Y-165026568D01*
X116427555Y-165026569D01*
X116497481Y-165073292D01*
X116640639Y-165168947D01*
X116821853Y-165350161D01*
X116964232Y-165563247D01*
X117062304Y-165800013D01*
X117112300Y-166051361D01*
X117112300Y-166307639D01*
X117062304Y-166558987D01*
X116969492Y-166783055D01*
X116964231Y-166795755D01*
X116821853Y-167008839D01*
X116640639Y-167190053D01*
X116427555Y-167332431D01*
X116427554Y-167332432D01*
X116427553Y-167332432D01*
X116190787Y-167430504D01*
X115939439Y-167480500D01*
X115683161Y-167480500D01*
X115431813Y-167430504D01*
X115195047Y-167332432D01*
X115195046Y-167332432D01*
X115195045Y-167332431D01*
X114981961Y-167190053D01*
X114800747Y-167008839D01*
X114658369Y-166795755D01*
X114653108Y-166783055D01*
X114560296Y-166558987D01*
X114510300Y-166307639D01*
X114510300Y-166051361D01*
X114560296Y-165800013D01*
X114658368Y-165563247D01*
X114800747Y-165350161D01*
X114981961Y-165168947D01*
X115125119Y-165073292D01*
X115195045Y-165026569D01*
X115195047Y-165026568D01*
X115431813Y-164928496D01*
X115683161Y-164878500D01*
X115939439Y-164878500D01*
X116190787Y-164928496D01*
G37*
G36*
X106030787Y-164928496D02*
G01*
X106267553Y-165026568D01*
X106267555Y-165026569D01*
X106337481Y-165073292D01*
X106480639Y-165168947D01*
X106661853Y-165350161D01*
X106804232Y-165563247D01*
X106902304Y-165800013D01*
X106952300Y-166051361D01*
X106952300Y-166307639D01*
X106902304Y-166558987D01*
X106809492Y-166783055D01*
X106804231Y-166795755D01*
X106661853Y-167008839D01*
X106480639Y-167190053D01*
X106267555Y-167332431D01*
X106267554Y-167332432D01*
X106267553Y-167332432D01*
X106030787Y-167430504D01*
X105779439Y-167480500D01*
X105523161Y-167480500D01*
X105271813Y-167430504D01*
X105035047Y-167332432D01*
X105035046Y-167332432D01*
X105035045Y-167332431D01*
X104821961Y-167190053D01*
X104640747Y-167008839D01*
X104498369Y-166795755D01*
X104493108Y-166783055D01*
X104400296Y-166558987D01*
X104350300Y-166307639D01*
X104350300Y-166051361D01*
X104400296Y-165800013D01*
X104498368Y-165563247D01*
X104640747Y-165350161D01*
X104821961Y-165168947D01*
X104965119Y-165073292D01*
X105035045Y-165026569D01*
X105035047Y-165026568D01*
X105271813Y-164928496D01*
X105523161Y-164878500D01*
X105779439Y-164878500D01*
X106030787Y-164928496D01*
G37*
G36*
X100950787Y-164928496D02*
G01*
X101187553Y-165026568D01*
X101187555Y-165026569D01*
X101257481Y-165073292D01*
X101400639Y-165168947D01*
X101581853Y-165350161D01*
X101724232Y-165563247D01*
X101822304Y-165800013D01*
X101872300Y-166051361D01*
X101872300Y-166307639D01*
X101822304Y-166558987D01*
X101729492Y-166783055D01*
X101724231Y-166795755D01*
X101581853Y-167008839D01*
X101400639Y-167190053D01*
X101187555Y-167332431D01*
X101187554Y-167332432D01*
X101187553Y-167332432D01*
X100950787Y-167430504D01*
X100699439Y-167480500D01*
X100443161Y-167480500D01*
X100191813Y-167430504D01*
X99955047Y-167332432D01*
X99955046Y-167332432D01*
X99955045Y-167332431D01*
X99741961Y-167190053D01*
X99560747Y-167008839D01*
X99418369Y-166795755D01*
X99413108Y-166783055D01*
X99320296Y-166558987D01*
X99270300Y-166307639D01*
X99270300Y-166051361D01*
X99320296Y-165800013D01*
X99418368Y-165563247D01*
X99560747Y-165350161D01*
X99741961Y-165168947D01*
X99885119Y-165073292D01*
X99955045Y-165026569D01*
X99955047Y-165026568D01*
X100191813Y-164928496D01*
X100443161Y-164878500D01*
X100699439Y-164878500D01*
X100950787Y-164928496D01*
G37*
G36*
X130625607Y-164915796D02*
G01*
X130851311Y-165009286D01*
X130862375Y-165013869D01*
X131075459Y-165156247D01*
X131256673Y-165337461D01*
X131386962Y-165532452D01*
X131399052Y-165550547D01*
X131497124Y-165787313D01*
X131547120Y-166038661D01*
X131547120Y-166294939D01*
X131497124Y-166546287D01*
X131399052Y-166783053D01*
X131399051Y-166783055D01*
X131256673Y-166996139D01*
X131075459Y-167177353D01*
X130862375Y-167319731D01*
X130862374Y-167319732D01*
X130862373Y-167319732D01*
X130625607Y-167417804D01*
X130374259Y-167467800D01*
X130117981Y-167467800D01*
X129866633Y-167417804D01*
X129629867Y-167319732D01*
X129629866Y-167319732D01*
X129629865Y-167319731D01*
X129416781Y-167177353D01*
X129235567Y-166996139D01*
X129093189Y-166783055D01*
X129093188Y-166783053D01*
X128995116Y-166546287D01*
X128945120Y-166294939D01*
X128945120Y-166038661D01*
X128995116Y-165787313D01*
X129093188Y-165550547D01*
X129105279Y-165532452D01*
X129235567Y-165337461D01*
X129416781Y-165156247D01*
X129629865Y-165013869D01*
X129640929Y-165009286D01*
X129866633Y-164915796D01*
X130117981Y-164865800D01*
X130374259Y-164865800D01*
X130625607Y-164915796D01*
G37*
G36*
X135705607Y-164915796D02*
G01*
X135931311Y-165009286D01*
X135942375Y-165013869D01*
X136155459Y-165156247D01*
X136336673Y-165337461D01*
X136466962Y-165532452D01*
X136479052Y-165550547D01*
X136577124Y-165787313D01*
X136627120Y-166038661D01*
X136627120Y-166294939D01*
X136577124Y-166546287D01*
X136479052Y-166783053D01*
X136479051Y-166783055D01*
X136336673Y-166996139D01*
X136155459Y-167177353D01*
X135942375Y-167319731D01*
X135942374Y-167319732D01*
X135942373Y-167319732D01*
X135705607Y-167417804D01*
X135454259Y-167467800D01*
X135197981Y-167467800D01*
X134946633Y-167417804D01*
X134709867Y-167319732D01*
X134709866Y-167319732D01*
X134709865Y-167319731D01*
X134496781Y-167177353D01*
X134315567Y-166996139D01*
X134173189Y-166783055D01*
X134173188Y-166783053D01*
X134075116Y-166546287D01*
X134025120Y-166294939D01*
X134025120Y-166038661D01*
X134075116Y-165787313D01*
X134173188Y-165550547D01*
X134185279Y-165532452D01*
X134315567Y-165337461D01*
X134496781Y-165156247D01*
X134709865Y-165013869D01*
X134720929Y-165009286D01*
X134946633Y-164915796D01*
X135197981Y-164865800D01*
X135454259Y-164865800D01*
X135705607Y-164915796D01*
G37*
G36*
X140785607Y-164915796D02*
G01*
X141011311Y-165009286D01*
X141022375Y-165013869D01*
X141235459Y-165156247D01*
X141416673Y-165337461D01*
X141546962Y-165532452D01*
X141559052Y-165550547D01*
X141657124Y-165787313D01*
X141707120Y-166038661D01*
X141707120Y-166294939D01*
X141657124Y-166546287D01*
X141559052Y-166783053D01*
X141559051Y-166783055D01*
X141416673Y-166996139D01*
X141235459Y-167177353D01*
X141022375Y-167319731D01*
X141022374Y-167319732D01*
X141022373Y-167319732D01*
X140785607Y-167417804D01*
X140534259Y-167467800D01*
X140277981Y-167467800D01*
X140026633Y-167417804D01*
X139789867Y-167319732D01*
X139789866Y-167319732D01*
X139789865Y-167319731D01*
X139576781Y-167177353D01*
X139395567Y-166996139D01*
X139253189Y-166783055D01*
X139253188Y-166783053D01*
X139155116Y-166546287D01*
X139105120Y-166294939D01*
X139105120Y-166038661D01*
X139155116Y-165787313D01*
X139253188Y-165550547D01*
X139265279Y-165532452D01*
X139395567Y-165337461D01*
X139576781Y-165156247D01*
X139789865Y-165013869D01*
X139800929Y-165009286D01*
X140026633Y-164915796D01*
X140277981Y-164865800D01*
X140534259Y-164865800D01*
X140785607Y-164915796D01*
G37*
G36*
X145865607Y-164915796D02*
G01*
X146091311Y-165009286D01*
X146102375Y-165013869D01*
X146315459Y-165156247D01*
X146496673Y-165337461D01*
X146626962Y-165532452D01*
X146639052Y-165550547D01*
X146737124Y-165787313D01*
X146787120Y-166038661D01*
X146787120Y-166294939D01*
X146737124Y-166546287D01*
X146639052Y-166783053D01*
X146639051Y-166783055D01*
X146496673Y-166996139D01*
X146315459Y-167177353D01*
X146102375Y-167319731D01*
X146102374Y-167319732D01*
X146102373Y-167319732D01*
X145865607Y-167417804D01*
X145614259Y-167467800D01*
X145357981Y-167467800D01*
X145106633Y-167417804D01*
X144869867Y-167319732D01*
X144869866Y-167319732D01*
X144869865Y-167319731D01*
X144656781Y-167177353D01*
X144475567Y-166996139D01*
X144333189Y-166783055D01*
X144333188Y-166783053D01*
X144235116Y-166546287D01*
X144185120Y-166294939D01*
X144185120Y-166038661D01*
X144235116Y-165787313D01*
X144333188Y-165550547D01*
X144345279Y-165532452D01*
X144475567Y-165337461D01*
X144656781Y-165156247D01*
X144869865Y-165013869D01*
X144880929Y-165009286D01*
X145106633Y-164915796D01*
X145357981Y-164865800D01*
X145614259Y-164865800D01*
X145865607Y-164915796D01*
G37*
G36*
X160533539Y-159812367D02*
G01*
X160847582Y-159874834D01*
X161439226Y-160119901D01*
X161971692Y-160475684D01*
X162424516Y-160928508D01*
X162780299Y-161460974D01*
X163025366Y-162052618D01*
X163048454Y-162168688D01*
X163150300Y-162680703D01*
X163150300Y-163321097D01*
X163088510Y-163631737D01*
X163025366Y-163949182D01*
X162780299Y-164540826D01*
X162529751Y-164915797D01*
X162424517Y-165073291D01*
X161971691Y-165526117D01*
X161916125Y-165563245D01*
X161439226Y-165881899D01*
X160847582Y-166126966D01*
X160533539Y-166189433D01*
X160219497Y-166251900D01*
X159579103Y-166251900D01*
X159265061Y-166189433D01*
X158951018Y-166126966D01*
X158359374Y-165881899D01*
X157882475Y-165563245D01*
X157826909Y-165526117D01*
X157374083Y-165073291D01*
X157268849Y-164915797D01*
X157018301Y-164540826D01*
X156773234Y-163949182D01*
X156710090Y-163631737D01*
X156648300Y-163321097D01*
X156648300Y-162680703D01*
X156750146Y-162168688D01*
X156773234Y-162052618D01*
X157018301Y-161460974D01*
X157374084Y-160928508D01*
X157826908Y-160475684D01*
X158359374Y-160119901D01*
X158951018Y-159874834D01*
X159265061Y-159812367D01*
X159579103Y-159749900D01*
X160219497Y-159749900D01*
X160533539Y-159812367D01*
G37*
G36*
X70940639Y-159771067D02*
G01*
X71254682Y-159833534D01*
X71846326Y-160078601D01*
X72103719Y-160250586D01*
X72378791Y-160434383D01*
X72831617Y-160887209D01*
X72874384Y-160951214D01*
X73187399Y-161419674D01*
X73432466Y-162011318D01*
X73432466Y-162011319D01*
X73557400Y-162639403D01*
X73557400Y-163279797D01*
X73528722Y-163423972D01*
X73432466Y-163907882D01*
X73187399Y-164499526D01*
X72909256Y-164915796D01*
X72835241Y-165026568D01*
X72831616Y-165031992D01*
X72378792Y-165484816D01*
X71846326Y-165840599D01*
X71254682Y-166085666D01*
X70940639Y-166148133D01*
X70626597Y-166210600D01*
X69986203Y-166210600D01*
X69672161Y-166148133D01*
X69358118Y-166085666D01*
X68766474Y-165840599D01*
X68234008Y-165484816D01*
X67781184Y-165031992D01*
X67777560Y-165026568D01*
X67703544Y-164915796D01*
X67425401Y-164499526D01*
X67180334Y-163907882D01*
X67084078Y-163423972D01*
X67055400Y-163279797D01*
X67055400Y-162639403D01*
X67180334Y-162011319D01*
X67180334Y-162011318D01*
X67425401Y-161419674D01*
X67738416Y-160951214D01*
X67781183Y-160887209D01*
X68234009Y-160434383D01*
X68509081Y-160250586D01*
X68766474Y-160078601D01*
X69358118Y-159833534D01*
X69672161Y-159771067D01*
X69986203Y-159708600D01*
X70626597Y-159708600D01*
X70940639Y-159771067D01*
G37*
G36*
X80535500Y-164380900D02*
G01*
X77833500Y-164380900D01*
X77833500Y-161678900D01*
X80535500Y-161678900D01*
X80535500Y-164380900D01*
G37*
G36*
X84658572Y-161730818D02*
G01*
X84843116Y-161807258D01*
X84904439Y-161832659D01*
X85015828Y-161907087D01*
X85087699Y-161955110D01*
X85125712Y-161980510D01*
X85313890Y-162168688D01*
X85436285Y-162351863D01*
X85461742Y-162389963D01*
X85563582Y-162635828D01*
X85615500Y-162896837D01*
X85615500Y-163162963D01*
X85563582Y-163423972D01*
X85461742Y-163669837D01*
X85339349Y-163853011D01*
X85313890Y-163891112D01*
X85125712Y-164079290D01*
X84904439Y-164227141D01*
X84904438Y-164227142D01*
X84904437Y-164227142D01*
X84658572Y-164328982D01*
X84397563Y-164380900D01*
X84131437Y-164380900D01*
X83870428Y-164328982D01*
X83624563Y-164227142D01*
X83624562Y-164227142D01*
X83624561Y-164227141D01*
X83403288Y-164079290D01*
X83215110Y-163891112D01*
X83189652Y-163853011D01*
X83067258Y-163669837D01*
X82965418Y-163423972D01*
X82913500Y-163162963D01*
X82913500Y-162896837D01*
X82965418Y-162635828D01*
X83067258Y-162389963D01*
X83092716Y-162351863D01*
X83215110Y-162168688D01*
X83403288Y-161980510D01*
X83441302Y-161955110D01*
X83513172Y-161907087D01*
X83624561Y-161832659D01*
X83685885Y-161807258D01*
X83870428Y-161730818D01*
X84131437Y-161678900D01*
X84397563Y-161678900D01*
X84658572Y-161730818D01*
G37*
G36*
X89738572Y-161730818D02*
G01*
X89923116Y-161807258D01*
X89984439Y-161832659D01*
X90095828Y-161907087D01*
X90167699Y-161955110D01*
X90205712Y-161980510D01*
X90393890Y-162168688D01*
X90516285Y-162351863D01*
X90541742Y-162389963D01*
X90643582Y-162635828D01*
X90695500Y-162896837D01*
X90695500Y-163162963D01*
X90643582Y-163423972D01*
X90541742Y-163669837D01*
X90419349Y-163853011D01*
X90393890Y-163891112D01*
X90205712Y-164079290D01*
X89984439Y-164227141D01*
X89984438Y-164227142D01*
X89984437Y-164227142D01*
X89738572Y-164328982D01*
X89477563Y-164380900D01*
X89211437Y-164380900D01*
X88950428Y-164328982D01*
X88704563Y-164227142D01*
X88704562Y-164227142D01*
X88704561Y-164227141D01*
X88483288Y-164079290D01*
X88295110Y-163891112D01*
X88269652Y-163853011D01*
X88147258Y-163669837D01*
X88045418Y-163423972D01*
X87993500Y-163162963D01*
X87993500Y-162896837D01*
X88045418Y-162635828D01*
X88147258Y-162389963D01*
X88172716Y-162351863D01*
X88295110Y-162168688D01*
X88483288Y-161980510D01*
X88521302Y-161955110D01*
X88593172Y-161907087D01*
X88704561Y-161832659D01*
X88765885Y-161807258D01*
X88950428Y-161730818D01*
X89211437Y-161678900D01*
X89477563Y-161678900D01*
X89738572Y-161730818D01*
G37*
G36*
X94818572Y-161730818D02*
G01*
X95003116Y-161807258D01*
X95064439Y-161832659D01*
X95175828Y-161907087D01*
X95247699Y-161955110D01*
X95285712Y-161980510D01*
X95473890Y-162168688D01*
X95596285Y-162351863D01*
X95621742Y-162389963D01*
X95723582Y-162635828D01*
X95775500Y-162896837D01*
X95775500Y-163162963D01*
X95723582Y-163423972D01*
X95621742Y-163669837D01*
X95499349Y-163853011D01*
X95473890Y-163891112D01*
X95285712Y-164079290D01*
X95064439Y-164227141D01*
X95064438Y-164227142D01*
X95064437Y-164227142D01*
X94818572Y-164328982D01*
X94557563Y-164380900D01*
X94291437Y-164380900D01*
X94030428Y-164328982D01*
X93784563Y-164227142D01*
X93784562Y-164227142D01*
X93784561Y-164227141D01*
X93563288Y-164079290D01*
X93375110Y-163891112D01*
X93349652Y-163853011D01*
X93227258Y-163669837D01*
X93125418Y-163423972D01*
X93073500Y-163162963D01*
X93073500Y-162896837D01*
X93125418Y-162635828D01*
X93227258Y-162389963D01*
X93252716Y-162351863D01*
X93375110Y-162168688D01*
X93563288Y-161980510D01*
X93601302Y-161955110D01*
X93673172Y-161907087D01*
X93784561Y-161832659D01*
X93845885Y-161807258D01*
X94030428Y-161730818D01*
X94291437Y-161678900D01*
X94557563Y-161678900D01*
X94818572Y-161730818D01*
G37*
G36*
X101922300Y-164355500D02*
G01*
X99220300Y-164355500D01*
X99220300Y-161653500D01*
X101922300Y-161653500D01*
X101922300Y-164355500D01*
G37*
G36*
X106045372Y-161705418D02*
G01*
X106260579Y-161794559D01*
X106291239Y-161807259D01*
X106402628Y-161881687D01*
X106512511Y-161955109D01*
X106700691Y-162143289D01*
X106848542Y-162364563D01*
X106950382Y-162610428D01*
X107002300Y-162871437D01*
X107002300Y-163137563D01*
X106950382Y-163398572D01*
X106848542Y-163644437D01*
X106700691Y-163865711D01*
X106512511Y-164053891D01*
X106474497Y-164079291D01*
X106291239Y-164201741D01*
X106291238Y-164201742D01*
X106291237Y-164201742D01*
X106045372Y-164303582D01*
X105784363Y-164355500D01*
X105518237Y-164355500D01*
X105257228Y-164303582D01*
X105011363Y-164201742D01*
X105011362Y-164201742D01*
X105011361Y-164201741D01*
X104828103Y-164079291D01*
X104790089Y-164053891D01*
X104601909Y-163865711D01*
X104454058Y-163644437D01*
X104352218Y-163398572D01*
X104300300Y-163137563D01*
X104300300Y-162871437D01*
X104352218Y-162610428D01*
X104454058Y-162364563D01*
X104601909Y-162143289D01*
X104790089Y-161955109D01*
X104899972Y-161881687D01*
X105011361Y-161807259D01*
X105042022Y-161794559D01*
X105257228Y-161705418D01*
X105518237Y-161653500D01*
X105784363Y-161653500D01*
X106045372Y-161705418D01*
G37*
G36*
X111125372Y-161705418D02*
G01*
X111340579Y-161794559D01*
X111371239Y-161807259D01*
X111482628Y-161881687D01*
X111592511Y-161955109D01*
X111780691Y-162143289D01*
X111928542Y-162364563D01*
X112030382Y-162610428D01*
X112082300Y-162871437D01*
X112082300Y-163137563D01*
X112030382Y-163398572D01*
X111928542Y-163644437D01*
X111780691Y-163865711D01*
X111592511Y-164053891D01*
X111554497Y-164079291D01*
X111371239Y-164201741D01*
X111371238Y-164201742D01*
X111371237Y-164201742D01*
X111125372Y-164303582D01*
X110864363Y-164355500D01*
X110598237Y-164355500D01*
X110337228Y-164303582D01*
X110091363Y-164201742D01*
X110091362Y-164201742D01*
X110091361Y-164201741D01*
X109908103Y-164079291D01*
X109870089Y-164053891D01*
X109681909Y-163865711D01*
X109534058Y-163644437D01*
X109432218Y-163398572D01*
X109380300Y-163137563D01*
X109380300Y-162871437D01*
X109432218Y-162610428D01*
X109534058Y-162364563D01*
X109681909Y-162143289D01*
X109870089Y-161955109D01*
X109979972Y-161881687D01*
X110091361Y-161807259D01*
X110122022Y-161794559D01*
X110337228Y-161705418D01*
X110598237Y-161653500D01*
X110864363Y-161653500D01*
X111125372Y-161705418D01*
G37*
G36*
X116205372Y-161705418D02*
G01*
X116420579Y-161794559D01*
X116451239Y-161807259D01*
X116562628Y-161881687D01*
X116672511Y-161955109D01*
X116860691Y-162143289D01*
X117008542Y-162364563D01*
X117110382Y-162610428D01*
X117162300Y-162871437D01*
X117162300Y-163137563D01*
X117110382Y-163398572D01*
X117008542Y-163644437D01*
X116860691Y-163865711D01*
X116672511Y-164053891D01*
X116634497Y-164079291D01*
X116451239Y-164201741D01*
X116451238Y-164201742D01*
X116451237Y-164201742D01*
X116205372Y-164303582D01*
X115944363Y-164355500D01*
X115678237Y-164355500D01*
X115417228Y-164303582D01*
X115171363Y-164201742D01*
X115171362Y-164201742D01*
X115171361Y-164201741D01*
X114988103Y-164079291D01*
X114950089Y-164053891D01*
X114761909Y-163865711D01*
X114614058Y-163644437D01*
X114512218Y-163398572D01*
X114460300Y-163137563D01*
X114460300Y-162871437D01*
X114512218Y-162610428D01*
X114614058Y-162364563D01*
X114761909Y-162143289D01*
X114950089Y-161955109D01*
X115059972Y-161881687D01*
X115171361Y-161807259D01*
X115202022Y-161794559D01*
X115417228Y-161705418D01*
X115678237Y-161653500D01*
X115944363Y-161653500D01*
X116205372Y-161705418D01*
G37*
G36*
X135566843Y-161662215D02*
G01*
X135720192Y-161692718D01*
X135966059Y-161794559D01*
X136023078Y-161832658D01*
X136187331Y-161942409D01*
X136375511Y-162130589D01*
X136523362Y-162351863D01*
X136625202Y-162597728D01*
X136677120Y-162858737D01*
X136677120Y-163124863D01*
X136669541Y-163162963D01*
X136625202Y-163385872D01*
X136523361Y-163631739D01*
X136497903Y-163669839D01*
X136375511Y-163853011D01*
X136187331Y-164041191D01*
X136168324Y-164053891D01*
X135966059Y-164189041D01*
X135966058Y-164189042D01*
X135966057Y-164189042D01*
X135720192Y-164290882D01*
X135459183Y-164342800D01*
X135193057Y-164342800D01*
X134932048Y-164290882D01*
X134686183Y-164189042D01*
X134686182Y-164189042D01*
X134686181Y-164189041D01*
X134483916Y-164053891D01*
X134464909Y-164041191D01*
X134276729Y-163853011D01*
X134154337Y-163669839D01*
X134128879Y-163631739D01*
X134027038Y-163385872D01*
X133982699Y-163162963D01*
X133975120Y-163124863D01*
X133975120Y-162858737D01*
X134027038Y-162597728D01*
X134128878Y-162351863D01*
X134276729Y-162130589D01*
X134464909Y-161942409D01*
X134629162Y-161832658D01*
X134686181Y-161794559D01*
X134932048Y-161692718D01*
X135085397Y-161662215D01*
X135193057Y-161640800D01*
X135459183Y-161640800D01*
X135566843Y-161662215D01*
G37*
G36*
X131597120Y-164342800D02*
G01*
X128895120Y-164342800D01*
X128895120Y-161640800D01*
X131597120Y-161640800D01*
X131597120Y-164342800D01*
G37*
G36*
X145726843Y-161662215D02*
G01*
X145880192Y-161692718D01*
X146126059Y-161794559D01*
X146183078Y-161832658D01*
X146347331Y-161942409D01*
X146535511Y-162130589D01*
X146683362Y-162351863D01*
X146785202Y-162597728D01*
X146837120Y-162858737D01*
X146837120Y-163124863D01*
X146829541Y-163162963D01*
X146785202Y-163385872D01*
X146683361Y-163631739D01*
X146657903Y-163669839D01*
X146535511Y-163853011D01*
X146347331Y-164041191D01*
X146328324Y-164053891D01*
X146126059Y-164189041D01*
X146126058Y-164189042D01*
X146126057Y-164189042D01*
X145880192Y-164290882D01*
X145619183Y-164342800D01*
X145353057Y-164342800D01*
X145092048Y-164290882D01*
X144846183Y-164189042D01*
X144846182Y-164189042D01*
X144846181Y-164189041D01*
X144643916Y-164053891D01*
X144624909Y-164041191D01*
X144436729Y-163853011D01*
X144314337Y-163669839D01*
X144288879Y-163631739D01*
X144187038Y-163385872D01*
X144142699Y-163162963D01*
X144135120Y-163124863D01*
X144135120Y-162858737D01*
X144187038Y-162597728D01*
X144288878Y-162351863D01*
X144436729Y-162130589D01*
X144624909Y-161942409D01*
X144789162Y-161832658D01*
X144846181Y-161794559D01*
X145092048Y-161692718D01*
X145245397Y-161662215D01*
X145353057Y-161640800D01*
X145619183Y-161640800D01*
X145726843Y-161662215D01*
G37*
G36*
X140646843Y-161662215D02*
G01*
X140800192Y-161692718D01*
X141046059Y-161794559D01*
X141103078Y-161832658D01*
X141267331Y-161942409D01*
X141455511Y-162130589D01*
X141603362Y-162351863D01*
X141705202Y-162597728D01*
X141757120Y-162858737D01*
X141757120Y-163124863D01*
X141749541Y-163162963D01*
X141705202Y-163385872D01*
X141603361Y-163631739D01*
X141577903Y-163669839D01*
X141455511Y-163853011D01*
X141267331Y-164041191D01*
X141248324Y-164053891D01*
X141046059Y-164189041D01*
X141046058Y-164189042D01*
X141046057Y-164189042D01*
X140800192Y-164290882D01*
X140539183Y-164342800D01*
X140273057Y-164342800D01*
X140012048Y-164290882D01*
X139766183Y-164189042D01*
X139766182Y-164189042D01*
X139766181Y-164189041D01*
X139563916Y-164053891D01*
X139544909Y-164041191D01*
X139356729Y-163853011D01*
X139234337Y-163669839D01*
X139208879Y-163631739D01*
X139107038Y-163385872D01*
X139062699Y-163162963D01*
X139055120Y-163124863D01*
X139055120Y-162858737D01*
X139107038Y-162597728D01*
X139208878Y-162351863D01*
X139356729Y-162130589D01*
X139544909Y-161942409D01*
X139709162Y-161832658D01*
X139766181Y-161794559D01*
X140012048Y-161692718D01*
X140165397Y-161662215D01*
X140273057Y-161640800D01*
X140539183Y-161640800D01*
X140646843Y-161662215D01*
G37*
G36*
X145793731Y-150401136D02*
G01*
X145896644Y-150411272D01*
X146092017Y-150470538D01*
X146160737Y-150491384D01*
X146390202Y-150614036D01*
X146404120Y-150621475D01*
X146459691Y-150667082D01*
X146617450Y-150796550D01*
X146746918Y-150954309D01*
X146792525Y-151009880D01*
X146792526Y-151009882D01*
X146922616Y-151253263D01*
X146922617Y-151253267D01*
X147002728Y-151517356D01*
X147029778Y-151792000D01*
X147002728Y-152066644D01*
X146943462Y-152262017D01*
X146922616Y-152330737D01*
X146799964Y-152560202D01*
X146792525Y-152574120D01*
X146746918Y-152629691D01*
X146617450Y-152787450D01*
X146459691Y-152916918D01*
X146404120Y-152962525D01*
X146404118Y-152962526D01*
X146160737Y-153092616D01*
X146092017Y-153113462D01*
X145896644Y-153172728D01*
X145793731Y-153182864D01*
X145690820Y-153193000D01*
X144553180Y-153193000D01*
X144450269Y-153182864D01*
X144347356Y-153172728D01*
X144151983Y-153113462D01*
X144083263Y-153092616D01*
X143839882Y-152962526D01*
X143839880Y-152962525D01*
X143784309Y-152916918D01*
X143626550Y-152787450D01*
X143497082Y-152629691D01*
X143451475Y-152574120D01*
X143444036Y-152560202D01*
X143321384Y-152330737D01*
X143300538Y-152262017D01*
X143241272Y-152066644D01*
X143214222Y-151792000D01*
X143241272Y-151517356D01*
X143321383Y-151253267D01*
X143321384Y-151253263D01*
X143451474Y-151009882D01*
X143451475Y-151009880D01*
X143497082Y-150954309D01*
X143626550Y-150796550D01*
X143784309Y-150667082D01*
X143839880Y-150621475D01*
X143853798Y-150614036D01*
X144083263Y-150491384D01*
X144151983Y-150470538D01*
X144347356Y-150411272D01*
X144450269Y-150401136D01*
X144553180Y-150391000D01*
X145690820Y-150391000D01*
X145793731Y-150401136D01*
G37*
G36*
X151293731Y-150401136D02*
G01*
X151396644Y-150411272D01*
X151592017Y-150470538D01*
X151660737Y-150491384D01*
X151890202Y-150614036D01*
X151904120Y-150621475D01*
X151959691Y-150667082D01*
X152117450Y-150796550D01*
X152246918Y-150954309D01*
X152292525Y-151009880D01*
X152292526Y-151009882D01*
X152422616Y-151253263D01*
X152422617Y-151253267D01*
X152502728Y-151517356D01*
X152529778Y-151792000D01*
X152502728Y-152066644D01*
X152443462Y-152262017D01*
X152422616Y-152330737D01*
X152299964Y-152560202D01*
X152292525Y-152574120D01*
X152246918Y-152629691D01*
X152117450Y-152787450D01*
X151959691Y-152916918D01*
X151904120Y-152962525D01*
X151904118Y-152962526D01*
X151660737Y-153092616D01*
X151592017Y-153113462D01*
X151396644Y-153172728D01*
X151293731Y-153182864D01*
X151190820Y-153193000D01*
X150053180Y-153193000D01*
X149950269Y-153182864D01*
X149847356Y-153172728D01*
X149651983Y-153113462D01*
X149583263Y-153092616D01*
X149339882Y-152962526D01*
X149339880Y-152962525D01*
X149284309Y-152916918D01*
X149126550Y-152787450D01*
X148997082Y-152629691D01*
X148951475Y-152574120D01*
X148944036Y-152560202D01*
X148821384Y-152330737D01*
X148800538Y-152262017D01*
X148741272Y-152066644D01*
X148714222Y-151792000D01*
X148741272Y-151517356D01*
X148821383Y-151253267D01*
X148821384Y-151253263D01*
X148951474Y-151009882D01*
X148951475Y-151009880D01*
X148997082Y-150954309D01*
X149126550Y-150796550D01*
X149284309Y-150667082D01*
X149339880Y-150621475D01*
X149353798Y-150614036D01*
X149583263Y-150491384D01*
X149651983Y-150470538D01*
X149847356Y-150411272D01*
X149950269Y-150401136D01*
X150053180Y-150391000D01*
X151190820Y-150391000D01*
X151293731Y-150401136D01*
G37*
G36*
X145793731Y-146201136D02*
G01*
X145896644Y-146211272D01*
X146092017Y-146270538D01*
X146160737Y-146291384D01*
X146390202Y-146414036D01*
X146404120Y-146421475D01*
X146459691Y-146467082D01*
X146617450Y-146596550D01*
X146746918Y-146754309D01*
X146792525Y-146809880D01*
X146792526Y-146809882D01*
X146922616Y-147053263D01*
X146922617Y-147053267D01*
X147002728Y-147317356D01*
X147029778Y-147592000D01*
X147002728Y-147866644D01*
X146943462Y-148062017D01*
X146922616Y-148130737D01*
X146799964Y-148360202D01*
X146792525Y-148374120D01*
X146746918Y-148429691D01*
X146617450Y-148587450D01*
X146459691Y-148716918D01*
X146404120Y-148762525D01*
X146404118Y-148762526D01*
X146160737Y-148892616D01*
X146092017Y-148913462D01*
X145896644Y-148972728D01*
X145793731Y-148982864D01*
X145690820Y-148993000D01*
X144553180Y-148993000D01*
X144450269Y-148982864D01*
X144347356Y-148972728D01*
X144151983Y-148913462D01*
X144083263Y-148892616D01*
X143839882Y-148762526D01*
X143839880Y-148762525D01*
X143784309Y-148716918D01*
X143626550Y-148587450D01*
X143497082Y-148429691D01*
X143451475Y-148374120D01*
X143444036Y-148360202D01*
X143321384Y-148130737D01*
X143300538Y-148062017D01*
X143241272Y-147866644D01*
X143214222Y-147592000D01*
X143241272Y-147317356D01*
X143321383Y-147053267D01*
X143321384Y-147053263D01*
X143451474Y-146809882D01*
X143451475Y-146809880D01*
X143497082Y-146754309D01*
X143626550Y-146596550D01*
X143784309Y-146467082D01*
X143839880Y-146421475D01*
X143853798Y-146414036D01*
X144083263Y-146291384D01*
X144151983Y-146270538D01*
X144347356Y-146211272D01*
X144450269Y-146201136D01*
X144553180Y-146191000D01*
X145690820Y-146191000D01*
X145793731Y-146201136D01*
G37*
G36*
X151293731Y-146201136D02*
G01*
X151396644Y-146211272D01*
X151592017Y-146270538D01*
X151660737Y-146291384D01*
X151890202Y-146414036D01*
X151904120Y-146421475D01*
X151959691Y-146467082D01*
X152117450Y-146596550D01*
X152246918Y-146754309D01*
X152292525Y-146809880D01*
X152292526Y-146809882D01*
X152422616Y-147053263D01*
X152422617Y-147053267D01*
X152502728Y-147317356D01*
X152529778Y-147592000D01*
X152502728Y-147866644D01*
X152443462Y-148062017D01*
X152422616Y-148130737D01*
X152299964Y-148360202D01*
X152292525Y-148374120D01*
X152246918Y-148429691D01*
X152117450Y-148587450D01*
X151959691Y-148716918D01*
X151904120Y-148762525D01*
X151904118Y-148762526D01*
X151660737Y-148892616D01*
X151592017Y-148913462D01*
X151396644Y-148972728D01*
X151293731Y-148982864D01*
X151190820Y-148993000D01*
X150053180Y-148993000D01*
X149950269Y-148982864D01*
X149847356Y-148972728D01*
X149651983Y-148913462D01*
X149583263Y-148892616D01*
X149339882Y-148762526D01*
X149339880Y-148762525D01*
X149284309Y-148716918D01*
X149126550Y-148587450D01*
X148997082Y-148429691D01*
X148951475Y-148374120D01*
X148944036Y-148360202D01*
X148821384Y-148130737D01*
X148800538Y-148062017D01*
X148741272Y-147866644D01*
X148714222Y-147592000D01*
X148741272Y-147317356D01*
X148821383Y-147053267D01*
X148821384Y-147053263D01*
X148951474Y-146809882D01*
X148951475Y-146809880D01*
X148997082Y-146754309D01*
X149126550Y-146596550D01*
X149284309Y-146467082D01*
X149339880Y-146421475D01*
X149353798Y-146414036D01*
X149583263Y-146291384D01*
X149651983Y-146270538D01*
X149847356Y-146211272D01*
X149950269Y-146201136D01*
X150053180Y-146191000D01*
X151190820Y-146191000D01*
X151293731Y-146201136D01*
G37*
G36*
X151293731Y-142001136D02*
G01*
X151396644Y-142011272D01*
X151592017Y-142070538D01*
X151660737Y-142091384D01*
X151890202Y-142214036D01*
X151904120Y-142221475D01*
X151959691Y-142267082D01*
X152117450Y-142396550D01*
X152246918Y-142554309D01*
X152292525Y-142609880D01*
X152292526Y-142609882D01*
X152422616Y-142853263D01*
X152422617Y-142853267D01*
X152502728Y-143117356D01*
X152529778Y-143392000D01*
X152502728Y-143666644D01*
X152443462Y-143862017D01*
X152422616Y-143930737D01*
X152299964Y-144160202D01*
X152292525Y-144174120D01*
X152246918Y-144229691D01*
X152117450Y-144387450D01*
X151959691Y-144516918D01*
X151904120Y-144562525D01*
X151904118Y-144562526D01*
X151660737Y-144692616D01*
X151592017Y-144713462D01*
X151396644Y-144772728D01*
X151293731Y-144782864D01*
X151190820Y-144793000D01*
X150053180Y-144793000D01*
X149950269Y-144782864D01*
X149847356Y-144772728D01*
X149651983Y-144713462D01*
X149583263Y-144692616D01*
X149339882Y-144562526D01*
X149339880Y-144562525D01*
X149284309Y-144516918D01*
X149126550Y-144387450D01*
X148997082Y-144229691D01*
X148951475Y-144174120D01*
X148944036Y-144160202D01*
X148821384Y-143930737D01*
X148800538Y-143862017D01*
X148741272Y-143666644D01*
X148714222Y-143392000D01*
X148741272Y-143117356D01*
X148821383Y-142853267D01*
X148821384Y-142853263D01*
X148951474Y-142609882D01*
X148951475Y-142609880D01*
X148997082Y-142554309D01*
X149126550Y-142396550D01*
X149284309Y-142267082D01*
X149339880Y-142221475D01*
X149353798Y-142214036D01*
X149583263Y-142091384D01*
X149651983Y-142070538D01*
X149847356Y-142011272D01*
X149950269Y-142001136D01*
X150053180Y-141991000D01*
X151190820Y-141991000D01*
X151293731Y-142001136D01*
G37*
G36*
X145793731Y-142001136D02*
G01*
X145896644Y-142011272D01*
X146092017Y-142070538D01*
X146160737Y-142091384D01*
X146390202Y-142214036D01*
X146404120Y-142221475D01*
X146459691Y-142267082D01*
X146617450Y-142396550D01*
X146746918Y-142554309D01*
X146792525Y-142609880D01*
X146792526Y-142609882D01*
X146922616Y-142853263D01*
X146922617Y-142853267D01*
X147002728Y-143117356D01*
X147029778Y-143392000D01*
X147002728Y-143666644D01*
X146943462Y-143862017D01*
X146922616Y-143930737D01*
X146799964Y-144160202D01*
X146792525Y-144174120D01*
X146746918Y-144229691D01*
X146617450Y-144387450D01*
X146459691Y-144516918D01*
X146404120Y-144562525D01*
X146404118Y-144562526D01*
X146160737Y-144692616D01*
X146092017Y-144713462D01*
X145896644Y-144772728D01*
X145793731Y-144782864D01*
X145690820Y-144793000D01*
X144553180Y-144793000D01*
X144450269Y-144782864D01*
X144347356Y-144772728D01*
X144151983Y-144713462D01*
X144083263Y-144692616D01*
X143839882Y-144562526D01*
X143839880Y-144562525D01*
X143784309Y-144516918D01*
X143626550Y-144387450D01*
X143497082Y-144229691D01*
X143451475Y-144174120D01*
X143444036Y-144160202D01*
X143321384Y-143930737D01*
X143300538Y-143862017D01*
X143241272Y-143666644D01*
X143214222Y-143392000D01*
X143241272Y-143117356D01*
X143321383Y-142853267D01*
X143321384Y-142853263D01*
X143451474Y-142609882D01*
X143451475Y-142609880D01*
X143497082Y-142554309D01*
X143626550Y-142396550D01*
X143784309Y-142267082D01*
X143839880Y-142221475D01*
X143853798Y-142214036D01*
X144083263Y-142091384D01*
X144151983Y-142070538D01*
X144347356Y-142011272D01*
X144450269Y-142001136D01*
X144553180Y-141991000D01*
X145690820Y-141991000D01*
X145793731Y-142001136D01*
G37*
G36*
X152396031Y-137794621D02*
G01*
X152425486Y-137803556D01*
X152452623Y-137818062D01*
X152476414Y-137837586D01*
X152495938Y-137861377D01*
X152510444Y-137888514D01*
X152519379Y-137917969D01*
X152523000Y-137954734D01*
X152523000Y-140429266D01*
X152519379Y-140466031D01*
X152510444Y-140495486D01*
X152495938Y-140522623D01*
X152476414Y-140546414D01*
X152452623Y-140565938D01*
X152425486Y-140580444D01*
X152396031Y-140589379D01*
X152359266Y-140593000D01*
X148884734Y-140593000D01*
X148847969Y-140589379D01*
X148818514Y-140580444D01*
X148791377Y-140565938D01*
X148767586Y-140546414D01*
X148748062Y-140522623D01*
X148733556Y-140495486D01*
X148724621Y-140466031D01*
X148721000Y-140429266D01*
X148721000Y-137954734D01*
X148724621Y-137917969D01*
X148733556Y-137888514D01*
X148748062Y-137861377D01*
X148767586Y-137837586D01*
X148791377Y-137818062D01*
X148818514Y-137803556D01*
X148847969Y-137794621D01*
X148884734Y-137791000D01*
X152359266Y-137791000D01*
X152396031Y-137794621D01*
G37*
G36*
X145793731Y-137801136D02*
G01*
X145896644Y-137811272D01*
X146092017Y-137870538D01*
X146160737Y-137891384D01*
X146363625Y-137999830D01*
X146404120Y-138021475D01*
X146459691Y-138067082D01*
X146617450Y-138196550D01*
X146746918Y-138354309D01*
X146792525Y-138409880D01*
X146792526Y-138409882D01*
X146922616Y-138653263D01*
X146922617Y-138653267D01*
X147002728Y-138917356D01*
X147029778Y-139192000D01*
X147002728Y-139466644D01*
X146943462Y-139662017D01*
X146922616Y-139730737D01*
X146799964Y-139960202D01*
X146792525Y-139974120D01*
X146746918Y-140029691D01*
X146617450Y-140187450D01*
X146459691Y-140316918D01*
X146404120Y-140362525D01*
X146404118Y-140362526D01*
X146160737Y-140492616D01*
X146092017Y-140513462D01*
X145896644Y-140572728D01*
X145793731Y-140582864D01*
X145690820Y-140593000D01*
X144553180Y-140593000D01*
X144450269Y-140582864D01*
X144347356Y-140572728D01*
X144151983Y-140513462D01*
X144083263Y-140492616D01*
X143839882Y-140362526D01*
X143839880Y-140362525D01*
X143784309Y-140316918D01*
X143626550Y-140187450D01*
X143497082Y-140029691D01*
X143451475Y-139974120D01*
X143444036Y-139960202D01*
X143321384Y-139730737D01*
X143300538Y-139662017D01*
X143241272Y-139466644D01*
X143214222Y-139192000D01*
X143241272Y-138917356D01*
X143321383Y-138653267D01*
X143321384Y-138653263D01*
X143451474Y-138409882D01*
X143451475Y-138409880D01*
X143497082Y-138354309D01*
X143626550Y-138196550D01*
X143784309Y-138067082D01*
X143839880Y-138021475D01*
X143880375Y-137999830D01*
X144083263Y-137891384D01*
X144151983Y-137870538D01*
X144347356Y-137811272D01*
X144450269Y-137801136D01*
X144553180Y-137791000D01*
X145690820Y-137791000D01*
X145793731Y-137801136D01*
G37*
G36*
X98182912Y-127246927D02*
G01*
X98332212Y-127276624D01*
X98496184Y-127344544D01*
X98643754Y-127443147D01*
X98769253Y-127568646D01*
X98867856Y-127716216D01*
X98935776Y-127880188D01*
X98970400Y-128054259D01*
X98970400Y-128231741D01*
X98935776Y-128405812D01*
X98867856Y-128569784D01*
X98769253Y-128717354D01*
X98643754Y-128842853D01*
X98496184Y-128941456D01*
X98332212Y-129009376D01*
X98182912Y-129039073D01*
X98158142Y-129044000D01*
X97980658Y-129044000D01*
X97955888Y-129039073D01*
X97806588Y-129009376D01*
X97642616Y-128941456D01*
X97495046Y-128842853D01*
X97369547Y-128717354D01*
X97270944Y-128569784D01*
X97203024Y-128405812D01*
X97168400Y-128231741D01*
X97168400Y-128054259D01*
X97203024Y-127880188D01*
X97270944Y-127716216D01*
X97369547Y-127568646D01*
X97495046Y-127443147D01*
X97642616Y-127344544D01*
X97806588Y-127276624D01*
X97955888Y-127246927D01*
X97980658Y-127242000D01*
X98158142Y-127242000D01*
X98182912Y-127246927D01*
G37*
G36*
X95642912Y-127246927D02*
G01*
X95792212Y-127276624D01*
X95956184Y-127344544D01*
X96103754Y-127443147D01*
X96229253Y-127568646D01*
X96327856Y-127716216D01*
X96395776Y-127880188D01*
X96430400Y-128054259D01*
X96430400Y-128231741D01*
X96395776Y-128405812D01*
X96327856Y-128569784D01*
X96229253Y-128717354D01*
X96103754Y-128842853D01*
X95956184Y-128941456D01*
X95792212Y-129009376D01*
X95642912Y-129039073D01*
X95618142Y-129044000D01*
X95440658Y-129044000D01*
X95415888Y-129039073D01*
X95266588Y-129009376D01*
X95102616Y-128941456D01*
X94955046Y-128842853D01*
X94829547Y-128717354D01*
X94730944Y-128569784D01*
X94663024Y-128405812D01*
X94628400Y-128231741D01*
X94628400Y-128054259D01*
X94663024Y-127880188D01*
X94730944Y-127716216D01*
X94829547Y-127568646D01*
X94955046Y-127443147D01*
X95102616Y-127344544D01*
X95266588Y-127276624D01*
X95415888Y-127246927D01*
X95440658Y-127242000D01*
X95618142Y-127242000D01*
X95642912Y-127246927D01*
G37*
G36*
X90562912Y-127246927D02*
G01*
X90712212Y-127276624D01*
X90876184Y-127344544D01*
X91023754Y-127443147D01*
X91149253Y-127568646D01*
X91247856Y-127716216D01*
X91315776Y-127880188D01*
X91350400Y-128054259D01*
X91350400Y-128231741D01*
X91315776Y-128405812D01*
X91247856Y-128569784D01*
X91149253Y-128717354D01*
X91023754Y-128842853D01*
X90876184Y-128941456D01*
X90712212Y-129009376D01*
X90562912Y-129039073D01*
X90538142Y-129044000D01*
X90360658Y-129044000D01*
X90335888Y-129039073D01*
X90186588Y-129009376D01*
X90022616Y-128941456D01*
X89875046Y-128842853D01*
X89749547Y-128717354D01*
X89650944Y-128569784D01*
X89583024Y-128405812D01*
X89548400Y-128231741D01*
X89548400Y-128054259D01*
X89583024Y-127880188D01*
X89650944Y-127716216D01*
X89749547Y-127568646D01*
X89875046Y-127443147D01*
X90022616Y-127344544D01*
X90186588Y-127276624D01*
X90335888Y-127246927D01*
X90360658Y-127242000D01*
X90538142Y-127242000D01*
X90562912Y-127246927D01*
G37*
G36*
X73570400Y-129044000D02*
G01*
X71768400Y-129044000D01*
X71768400Y-127242000D01*
X73570400Y-127242000D01*
X73570400Y-129044000D01*
G37*
G36*
X75322912Y-127246927D02*
G01*
X75472212Y-127276624D01*
X75636184Y-127344544D01*
X75783754Y-127443147D01*
X75909253Y-127568646D01*
X76007856Y-127716216D01*
X76075776Y-127880188D01*
X76110400Y-128054259D01*
X76110400Y-128231741D01*
X76075776Y-128405812D01*
X76007856Y-128569784D01*
X75909253Y-128717354D01*
X75783754Y-128842853D01*
X75636184Y-128941456D01*
X75472212Y-129009376D01*
X75322912Y-129039073D01*
X75298142Y-129044000D01*
X75120658Y-129044000D01*
X75095888Y-129039073D01*
X74946588Y-129009376D01*
X74782616Y-128941456D01*
X74635046Y-128842853D01*
X74509547Y-128717354D01*
X74410944Y-128569784D01*
X74343024Y-128405812D01*
X74308400Y-128231741D01*
X74308400Y-128054259D01*
X74343024Y-127880188D01*
X74410944Y-127716216D01*
X74509547Y-127568646D01*
X74635046Y-127443147D01*
X74782616Y-127344544D01*
X74946588Y-127276624D01*
X75095888Y-127246927D01*
X75120658Y-127242000D01*
X75298142Y-127242000D01*
X75322912Y-127246927D01*
G37*
G36*
X77862912Y-127246927D02*
G01*
X78012212Y-127276624D01*
X78176184Y-127344544D01*
X78323754Y-127443147D01*
X78449253Y-127568646D01*
X78547856Y-127716216D01*
X78615776Y-127880188D01*
X78650400Y-128054259D01*
X78650400Y-128231741D01*
X78615776Y-128405812D01*
X78547856Y-128569784D01*
X78449253Y-128717354D01*
X78323754Y-128842853D01*
X78176184Y-128941456D01*
X78012212Y-129009376D01*
X77862912Y-129039073D01*
X77838142Y-129044000D01*
X77660658Y-129044000D01*
X77635888Y-129039073D01*
X77486588Y-129009376D01*
X77322616Y-128941456D01*
X77175046Y-128842853D01*
X77049547Y-128717354D01*
X76950944Y-128569784D01*
X76883024Y-128405812D01*
X76848400Y-128231741D01*
X76848400Y-128054259D01*
X76883024Y-127880188D01*
X76950944Y-127716216D01*
X77049547Y-127568646D01*
X77175046Y-127443147D01*
X77322616Y-127344544D01*
X77486588Y-127276624D01*
X77635888Y-127246927D01*
X77660658Y-127242000D01*
X77838142Y-127242000D01*
X77862912Y-127246927D01*
G37*
G36*
X80402912Y-127246927D02*
G01*
X80552212Y-127276624D01*
X80716184Y-127344544D01*
X80863754Y-127443147D01*
X80989253Y-127568646D01*
X81087856Y-127716216D01*
X81155776Y-127880188D01*
X81190400Y-128054259D01*
X81190400Y-128231741D01*
X81155776Y-128405812D01*
X81087856Y-128569784D01*
X80989253Y-128717354D01*
X80863754Y-128842853D01*
X80716184Y-128941456D01*
X80552212Y-129009376D01*
X80402912Y-129039073D01*
X80378142Y-129044000D01*
X80200658Y-129044000D01*
X80175888Y-129039073D01*
X80026588Y-129009376D01*
X79862616Y-128941456D01*
X79715046Y-128842853D01*
X79589547Y-128717354D01*
X79490944Y-128569784D01*
X79423024Y-128405812D01*
X79388400Y-128231741D01*
X79388400Y-128054259D01*
X79423024Y-127880188D01*
X79490944Y-127716216D01*
X79589547Y-127568646D01*
X79715046Y-127443147D01*
X79862616Y-127344544D01*
X80026588Y-127276624D01*
X80175888Y-127246927D01*
X80200658Y-127242000D01*
X80378142Y-127242000D01*
X80402912Y-127246927D01*
G37*
G36*
X93102912Y-127246927D02*
G01*
X93252212Y-127276624D01*
X93416184Y-127344544D01*
X93563754Y-127443147D01*
X93689253Y-127568646D01*
X93787856Y-127716216D01*
X93855776Y-127880188D01*
X93890400Y-128054259D01*
X93890400Y-128231741D01*
X93855776Y-128405812D01*
X93787856Y-128569784D01*
X93689253Y-128717354D01*
X93563754Y-128842853D01*
X93416184Y-128941456D01*
X93252212Y-129009376D01*
X93102912Y-129039073D01*
X93078142Y-129044000D01*
X92900658Y-129044000D01*
X92875888Y-129039073D01*
X92726588Y-129009376D01*
X92562616Y-128941456D01*
X92415046Y-128842853D01*
X92289547Y-128717354D01*
X92190944Y-128569784D01*
X92123024Y-128405812D01*
X92088400Y-128231741D01*
X92088400Y-128054259D01*
X92123024Y-127880188D01*
X92190944Y-127716216D01*
X92289547Y-127568646D01*
X92415046Y-127443147D01*
X92562616Y-127344544D01*
X92726588Y-127276624D01*
X92875888Y-127246927D01*
X92900658Y-127242000D01*
X93078142Y-127242000D01*
X93102912Y-127246927D01*
G37*
G36*
X85482912Y-127246927D02*
G01*
X85632212Y-127276624D01*
X85796184Y-127344544D01*
X85943754Y-127443147D01*
X86069253Y-127568646D01*
X86167856Y-127716216D01*
X86235776Y-127880188D01*
X86270400Y-128054259D01*
X86270400Y-128231741D01*
X86235776Y-128405812D01*
X86167856Y-128569784D01*
X86069253Y-128717354D01*
X85943754Y-128842853D01*
X85796184Y-128941456D01*
X85632212Y-129009376D01*
X85482912Y-129039073D01*
X85458142Y-129044000D01*
X85280658Y-129044000D01*
X85255888Y-129039073D01*
X85106588Y-129009376D01*
X84942616Y-128941456D01*
X84795046Y-128842853D01*
X84669547Y-128717354D01*
X84570944Y-128569784D01*
X84503024Y-128405812D01*
X84468400Y-128231741D01*
X84468400Y-128054259D01*
X84503024Y-127880188D01*
X84570944Y-127716216D01*
X84669547Y-127568646D01*
X84795046Y-127443147D01*
X84942616Y-127344544D01*
X85106588Y-127276624D01*
X85255888Y-127246927D01*
X85280658Y-127242000D01*
X85458142Y-127242000D01*
X85482912Y-127246927D01*
G37*
G36*
X88022912Y-127246927D02*
G01*
X88172212Y-127276624D01*
X88336184Y-127344544D01*
X88483754Y-127443147D01*
X88609253Y-127568646D01*
X88707856Y-127716216D01*
X88775776Y-127880188D01*
X88810400Y-128054259D01*
X88810400Y-128231741D01*
X88775776Y-128405812D01*
X88707856Y-128569784D01*
X88609253Y-128717354D01*
X88483754Y-128842853D01*
X88336184Y-128941456D01*
X88172212Y-129009376D01*
X88022912Y-129039073D01*
X87998142Y-129044000D01*
X87820658Y-129044000D01*
X87795888Y-129039073D01*
X87646588Y-129009376D01*
X87482616Y-128941456D01*
X87335046Y-128842853D01*
X87209547Y-128717354D01*
X87110944Y-128569784D01*
X87043024Y-128405812D01*
X87008400Y-128231741D01*
X87008400Y-128054259D01*
X87043024Y-127880188D01*
X87110944Y-127716216D01*
X87209547Y-127568646D01*
X87335046Y-127443147D01*
X87482616Y-127344544D01*
X87646588Y-127276624D01*
X87795888Y-127246927D01*
X87820658Y-127242000D01*
X87998142Y-127242000D01*
X88022912Y-127246927D01*
G37*
G36*
X103262912Y-127246927D02*
G01*
X103412212Y-127276624D01*
X103576184Y-127344544D01*
X103723754Y-127443147D01*
X103849253Y-127568646D01*
X103947856Y-127716216D01*
X104015776Y-127880188D01*
X104050400Y-128054259D01*
X104050400Y-128231741D01*
X104015776Y-128405812D01*
X103947856Y-128569784D01*
X103849253Y-128717354D01*
X103723754Y-128842853D01*
X103576184Y-128941456D01*
X103412212Y-129009376D01*
X103262912Y-129039073D01*
X103238142Y-129044000D01*
X103060658Y-129044000D01*
X103035888Y-129039073D01*
X102886588Y-129009376D01*
X102722616Y-128941456D01*
X102575046Y-128842853D01*
X102449547Y-128717354D01*
X102350944Y-128569784D01*
X102283024Y-128405812D01*
X102248400Y-128231741D01*
X102248400Y-128054259D01*
X102283024Y-127880188D01*
X102350944Y-127716216D01*
X102449547Y-127568646D01*
X102575046Y-127443147D01*
X102722616Y-127344544D01*
X102886588Y-127276624D01*
X103035888Y-127246927D01*
X103060658Y-127242000D01*
X103238142Y-127242000D01*
X103262912Y-127246927D01*
G37*
G36*
X100722912Y-127246927D02*
G01*
X100872212Y-127276624D01*
X101036184Y-127344544D01*
X101183754Y-127443147D01*
X101309253Y-127568646D01*
X101407856Y-127716216D01*
X101475776Y-127880188D01*
X101510400Y-128054259D01*
X101510400Y-128231741D01*
X101475776Y-128405812D01*
X101407856Y-128569784D01*
X101309253Y-128717354D01*
X101183754Y-128842853D01*
X101036184Y-128941456D01*
X100872212Y-129009376D01*
X100722912Y-129039073D01*
X100698142Y-129044000D01*
X100520658Y-129044000D01*
X100495888Y-129039073D01*
X100346588Y-129009376D01*
X100182616Y-128941456D01*
X100035046Y-128842853D01*
X99909547Y-128717354D01*
X99810944Y-128569784D01*
X99743024Y-128405812D01*
X99708400Y-128231741D01*
X99708400Y-128054259D01*
X99743024Y-127880188D01*
X99810944Y-127716216D01*
X99909547Y-127568646D01*
X100035046Y-127443147D01*
X100182616Y-127344544D01*
X100346588Y-127276624D01*
X100495888Y-127246927D01*
X100520658Y-127242000D01*
X100698142Y-127242000D01*
X100722912Y-127246927D01*
G37*
G36*
X82942912Y-127246927D02*
G01*
X83092212Y-127276624D01*
X83256184Y-127344544D01*
X83403754Y-127443147D01*
X83529253Y-127568646D01*
X83627856Y-127716216D01*
X83695776Y-127880188D01*
X83730400Y-128054259D01*
X83730400Y-128231741D01*
X83695776Y-128405812D01*
X83627856Y-128569784D01*
X83529253Y-128717354D01*
X83403754Y-128842853D01*
X83256184Y-128941456D01*
X83092212Y-129009376D01*
X82942912Y-129039073D01*
X82918142Y-129044000D01*
X82740658Y-129044000D01*
X82715888Y-129039073D01*
X82566588Y-129009376D01*
X82402616Y-128941456D01*
X82255046Y-128842853D01*
X82129547Y-128717354D01*
X82030944Y-128569784D01*
X81963024Y-128405812D01*
X81928400Y-128231741D01*
X81928400Y-128054259D01*
X81963024Y-127880188D01*
X82030944Y-127716216D01*
X82129547Y-127568646D01*
X82255046Y-127443147D01*
X82402616Y-127344544D01*
X82566588Y-127276624D01*
X82715888Y-127246927D01*
X82740658Y-127242000D01*
X82918142Y-127242000D01*
X82942912Y-127246927D01*
G37*
G36*
X118502912Y-127246927D02*
G01*
X118652212Y-127276624D01*
X118816184Y-127344544D01*
X118963754Y-127443147D01*
X119089253Y-127568646D01*
X119187856Y-127716216D01*
X119255776Y-127880188D01*
X119290400Y-128054259D01*
X119290400Y-128231741D01*
X119255776Y-128405812D01*
X119187856Y-128569784D01*
X119089253Y-128717354D01*
X118963754Y-128842853D01*
X118816184Y-128941456D01*
X118652212Y-129009376D01*
X118502912Y-129039073D01*
X118478142Y-129044000D01*
X118300658Y-129044000D01*
X118275888Y-129039073D01*
X118126588Y-129009376D01*
X117962616Y-128941456D01*
X117815046Y-128842853D01*
X117689547Y-128717354D01*
X117590944Y-128569784D01*
X117523024Y-128405812D01*
X117488400Y-128231741D01*
X117488400Y-128054259D01*
X117523024Y-127880188D01*
X117590944Y-127716216D01*
X117689547Y-127568646D01*
X117815046Y-127443147D01*
X117962616Y-127344544D01*
X118126588Y-127276624D01*
X118275888Y-127246927D01*
X118300658Y-127242000D01*
X118478142Y-127242000D01*
X118502912Y-127246927D01*
G37*
G36*
X121042912Y-127246927D02*
G01*
X121192212Y-127276624D01*
X121356184Y-127344544D01*
X121503754Y-127443147D01*
X121629253Y-127568646D01*
X121727856Y-127716216D01*
X121795776Y-127880188D01*
X121830400Y-128054259D01*
X121830400Y-128231741D01*
X121795776Y-128405812D01*
X121727856Y-128569784D01*
X121629253Y-128717354D01*
X121503754Y-128842853D01*
X121356184Y-128941456D01*
X121192212Y-129009376D01*
X121042912Y-129039073D01*
X121018142Y-129044000D01*
X120840658Y-129044000D01*
X120815888Y-129039073D01*
X120666588Y-129009376D01*
X120502616Y-128941456D01*
X120355046Y-128842853D01*
X120229547Y-128717354D01*
X120130944Y-128569784D01*
X120063024Y-128405812D01*
X120028400Y-128231741D01*
X120028400Y-128054259D01*
X120063024Y-127880188D01*
X120130944Y-127716216D01*
X120229547Y-127568646D01*
X120355046Y-127443147D01*
X120502616Y-127344544D01*
X120666588Y-127276624D01*
X120815888Y-127246927D01*
X120840658Y-127242000D01*
X121018142Y-127242000D01*
X121042912Y-127246927D01*
G37*
G36*
X115962912Y-127246927D02*
G01*
X116112212Y-127276624D01*
X116276184Y-127344544D01*
X116423754Y-127443147D01*
X116549253Y-127568646D01*
X116647856Y-127716216D01*
X116715776Y-127880188D01*
X116750400Y-128054259D01*
X116750400Y-128231741D01*
X116715776Y-128405812D01*
X116647856Y-128569784D01*
X116549253Y-128717354D01*
X116423754Y-128842853D01*
X116276184Y-128941456D01*
X116112212Y-129009376D01*
X115962912Y-129039073D01*
X115938142Y-129044000D01*
X115760658Y-129044000D01*
X115735888Y-129039073D01*
X115586588Y-129009376D01*
X115422616Y-128941456D01*
X115275046Y-128842853D01*
X115149547Y-128717354D01*
X115050944Y-128569784D01*
X114983024Y-128405812D01*
X114948400Y-128231741D01*
X114948400Y-128054259D01*
X114983024Y-127880188D01*
X115050944Y-127716216D01*
X115149547Y-127568646D01*
X115275046Y-127443147D01*
X115422616Y-127344544D01*
X115586588Y-127276624D01*
X115735888Y-127246927D01*
X115760658Y-127242000D01*
X115938142Y-127242000D01*
X115962912Y-127246927D01*
G37*
G36*
X110882912Y-127246927D02*
G01*
X111032212Y-127276624D01*
X111196184Y-127344544D01*
X111343754Y-127443147D01*
X111469253Y-127568646D01*
X111567856Y-127716216D01*
X111635776Y-127880188D01*
X111670400Y-128054259D01*
X111670400Y-128231741D01*
X111635776Y-128405812D01*
X111567856Y-128569784D01*
X111469253Y-128717354D01*
X111343754Y-128842853D01*
X111196184Y-128941456D01*
X111032212Y-129009376D01*
X110882912Y-129039073D01*
X110858142Y-129044000D01*
X110680658Y-129044000D01*
X110655888Y-129039073D01*
X110506588Y-129009376D01*
X110342616Y-128941456D01*
X110195046Y-128842853D01*
X110069547Y-128717354D01*
X109970944Y-128569784D01*
X109903024Y-128405812D01*
X109868400Y-128231741D01*
X109868400Y-128054259D01*
X109903024Y-127880188D01*
X109970944Y-127716216D01*
X110069547Y-127568646D01*
X110195046Y-127443147D01*
X110342616Y-127344544D01*
X110506588Y-127276624D01*
X110655888Y-127246927D01*
X110680658Y-127242000D01*
X110858142Y-127242000D01*
X110882912Y-127246927D01*
G37*
G36*
X108342912Y-127246927D02*
G01*
X108492212Y-127276624D01*
X108656184Y-127344544D01*
X108803754Y-127443147D01*
X108929253Y-127568646D01*
X109027856Y-127716216D01*
X109095776Y-127880188D01*
X109130400Y-128054259D01*
X109130400Y-128231741D01*
X109095776Y-128405812D01*
X109027856Y-128569784D01*
X108929253Y-128717354D01*
X108803754Y-128842853D01*
X108656184Y-128941456D01*
X108492212Y-129009376D01*
X108342912Y-129039073D01*
X108318142Y-129044000D01*
X108140658Y-129044000D01*
X108115888Y-129039073D01*
X107966588Y-129009376D01*
X107802616Y-128941456D01*
X107655046Y-128842853D01*
X107529547Y-128717354D01*
X107430944Y-128569784D01*
X107363024Y-128405812D01*
X107328400Y-128231741D01*
X107328400Y-128054259D01*
X107363024Y-127880188D01*
X107430944Y-127716216D01*
X107529547Y-127568646D01*
X107655046Y-127443147D01*
X107802616Y-127344544D01*
X107966588Y-127276624D01*
X108115888Y-127246927D01*
X108140658Y-127242000D01*
X108318142Y-127242000D01*
X108342912Y-127246927D01*
G37*
G36*
X105802912Y-127246927D02*
G01*
X105952212Y-127276624D01*
X106116184Y-127344544D01*
X106263754Y-127443147D01*
X106389253Y-127568646D01*
X106487856Y-127716216D01*
X106555776Y-127880188D01*
X106590400Y-128054259D01*
X106590400Y-128231741D01*
X106555776Y-128405812D01*
X106487856Y-128569784D01*
X106389253Y-128717354D01*
X106263754Y-128842853D01*
X106116184Y-128941456D01*
X105952212Y-129009376D01*
X105802912Y-129039073D01*
X105778142Y-129044000D01*
X105600658Y-129044000D01*
X105575888Y-129039073D01*
X105426588Y-129009376D01*
X105262616Y-128941456D01*
X105115046Y-128842853D01*
X104989547Y-128717354D01*
X104890944Y-128569784D01*
X104823024Y-128405812D01*
X104788400Y-128231741D01*
X104788400Y-128054259D01*
X104823024Y-127880188D01*
X104890944Y-127716216D01*
X104989547Y-127568646D01*
X105115046Y-127443147D01*
X105262616Y-127344544D01*
X105426588Y-127276624D01*
X105575888Y-127246927D01*
X105600658Y-127242000D01*
X105778142Y-127242000D01*
X105802912Y-127246927D01*
G37*
G36*
X113422912Y-127246927D02*
G01*
X113572212Y-127276624D01*
X113736184Y-127344544D01*
X113883754Y-127443147D01*
X114009253Y-127568646D01*
X114107856Y-127716216D01*
X114175776Y-127880188D01*
X114210400Y-128054259D01*
X114210400Y-128231741D01*
X114175776Y-128405812D01*
X114107856Y-128569784D01*
X114009253Y-128717354D01*
X113883754Y-128842853D01*
X113736184Y-128941456D01*
X113572212Y-129009376D01*
X113422912Y-129039073D01*
X113398142Y-129044000D01*
X113220658Y-129044000D01*
X113195888Y-129039073D01*
X113046588Y-129009376D01*
X112882616Y-128941456D01*
X112735046Y-128842853D01*
X112609547Y-128717354D01*
X112510944Y-128569784D01*
X112443024Y-128405812D01*
X112408400Y-128231741D01*
X112408400Y-128054259D01*
X112443024Y-127880188D01*
X112510944Y-127716216D01*
X112609547Y-127568646D01*
X112735046Y-127443147D01*
X112882616Y-127344544D01*
X113046588Y-127276624D01*
X113195888Y-127246927D01*
X113220658Y-127242000D01*
X113398142Y-127242000D01*
X113422912Y-127246927D01*
G37*
G36*
X162404616Y-114646771D02*
G01*
X162742712Y-114714023D01*
X163379672Y-114977860D01*
X163952920Y-115360892D01*
X164440428Y-115848400D01*
X164823460Y-116421648D01*
X165087297Y-117058608D01*
X165221800Y-117734800D01*
X165221800Y-118424240D01*
X165087297Y-119100432D01*
X164823460Y-119737392D01*
X164440428Y-120310640D01*
X163952920Y-120798148D01*
X163379672Y-121181180D01*
X162742712Y-121445017D01*
X162404616Y-121512268D01*
X162066521Y-121579520D01*
X161377079Y-121579520D01*
X161038984Y-121512268D01*
X160700888Y-121445017D01*
X160063928Y-121181180D01*
X159490680Y-120798148D01*
X159003172Y-120310640D01*
X158620140Y-119737392D01*
X158356303Y-119100432D01*
X158221800Y-118424240D01*
X158221800Y-117734800D01*
X158356303Y-117058608D01*
X158620140Y-116421648D01*
X159003172Y-115848400D01*
X159490680Y-115360892D01*
X160063928Y-114977860D01*
X160700888Y-114714023D01*
X161038984Y-114646771D01*
X161377079Y-114579520D01*
X162066521Y-114579520D01*
X162404616Y-114646771D01*
G37*
G36*
X90588312Y-109568527D02*
G01*
X90737612Y-109598224D01*
X90901584Y-109666144D01*
X91049154Y-109764747D01*
X91174653Y-109890246D01*
X91273256Y-110037816D01*
X91341176Y-110201788D01*
X91375800Y-110375859D01*
X91375800Y-110553341D01*
X91341176Y-110727412D01*
X91273256Y-110891384D01*
X91174653Y-111038954D01*
X91049154Y-111164453D01*
X90901584Y-111263056D01*
X90737612Y-111330976D01*
X90588312Y-111360673D01*
X90563542Y-111365600D01*
X90386058Y-111365600D01*
X90361288Y-111360673D01*
X90211988Y-111330976D01*
X90048016Y-111263056D01*
X89900446Y-111164453D01*
X89774947Y-111038954D01*
X89676344Y-110891384D01*
X89608424Y-110727412D01*
X89573800Y-110553341D01*
X89573800Y-110375859D01*
X89608424Y-110201788D01*
X89676344Y-110037816D01*
X89774947Y-109890246D01*
X89900446Y-109764747D01*
X90048016Y-109666144D01*
X90211988Y-109598224D01*
X90361288Y-109568527D01*
X90386058Y-109563600D01*
X90563542Y-109563600D01*
X90588312Y-109568527D01*
G37*
G36*
X72808312Y-109568527D02*
G01*
X72957612Y-109598224D01*
X73121584Y-109666144D01*
X73269154Y-109764747D01*
X73394653Y-109890246D01*
X73493256Y-110037816D01*
X73561176Y-110201788D01*
X73595800Y-110375859D01*
X73595800Y-110553341D01*
X73561176Y-110727412D01*
X73493256Y-110891384D01*
X73394653Y-111038954D01*
X73269154Y-111164453D01*
X73121584Y-111263056D01*
X72957612Y-111330976D01*
X72808312Y-111360673D01*
X72783542Y-111365600D01*
X72606058Y-111365600D01*
X72581288Y-111360673D01*
X72431988Y-111330976D01*
X72268016Y-111263056D01*
X72120446Y-111164453D01*
X71994947Y-111038954D01*
X71896344Y-110891384D01*
X71828424Y-110727412D01*
X71793800Y-110553341D01*
X71793800Y-110375859D01*
X71828424Y-110201788D01*
X71896344Y-110037816D01*
X71994947Y-109890246D01*
X72120446Y-109764747D01*
X72268016Y-109666144D01*
X72431988Y-109598224D01*
X72581288Y-109568527D01*
X72606058Y-109563600D01*
X72783542Y-109563600D01*
X72808312Y-109568527D01*
G37*
G36*
X100748312Y-109568527D02*
G01*
X100897612Y-109598224D01*
X101061584Y-109666144D01*
X101209154Y-109764747D01*
X101334653Y-109890246D01*
X101433256Y-110037816D01*
X101501176Y-110201788D01*
X101535800Y-110375859D01*
X101535800Y-110553341D01*
X101501176Y-110727412D01*
X101433256Y-110891384D01*
X101334653Y-111038954D01*
X101209154Y-111164453D01*
X101061584Y-111263056D01*
X100897612Y-111330976D01*
X100748312Y-111360673D01*
X100723542Y-111365600D01*
X100546058Y-111365600D01*
X100521288Y-111360673D01*
X100371988Y-111330976D01*
X100208016Y-111263056D01*
X100060446Y-111164453D01*
X99934947Y-111038954D01*
X99836344Y-110891384D01*
X99768424Y-110727412D01*
X99733800Y-110553341D01*
X99733800Y-110375859D01*
X99768424Y-110201788D01*
X99836344Y-110037816D01*
X99934947Y-109890246D01*
X100060446Y-109764747D01*
X100208016Y-109666144D01*
X100371988Y-109598224D01*
X100521288Y-109568527D01*
X100546058Y-109563600D01*
X100723542Y-109563600D01*
X100748312Y-109568527D01*
G37*
G36*
X105828312Y-109568527D02*
G01*
X105977612Y-109598224D01*
X106141584Y-109666144D01*
X106289154Y-109764747D01*
X106414653Y-109890246D01*
X106513256Y-110037816D01*
X106581176Y-110201788D01*
X106615800Y-110375859D01*
X106615800Y-110553341D01*
X106581176Y-110727412D01*
X106513256Y-110891384D01*
X106414653Y-111038954D01*
X106289154Y-111164453D01*
X106141584Y-111263056D01*
X105977612Y-111330976D01*
X105828312Y-111360673D01*
X105803542Y-111365600D01*
X105626058Y-111365600D01*
X105601288Y-111360673D01*
X105451988Y-111330976D01*
X105288016Y-111263056D01*
X105140446Y-111164453D01*
X105014947Y-111038954D01*
X104916344Y-110891384D01*
X104848424Y-110727412D01*
X104813800Y-110553341D01*
X104813800Y-110375859D01*
X104848424Y-110201788D01*
X104916344Y-110037816D01*
X105014947Y-109890246D01*
X105140446Y-109764747D01*
X105288016Y-109666144D01*
X105451988Y-109598224D01*
X105601288Y-109568527D01*
X105626058Y-109563600D01*
X105803542Y-109563600D01*
X105828312Y-109568527D01*
G37*
G36*
X115988312Y-109568527D02*
G01*
X116137612Y-109598224D01*
X116301584Y-109666144D01*
X116449154Y-109764747D01*
X116574653Y-109890246D01*
X116673256Y-110037816D01*
X116741176Y-110201788D01*
X116775800Y-110375859D01*
X116775800Y-110553341D01*
X116741176Y-110727412D01*
X116673256Y-110891384D01*
X116574653Y-111038954D01*
X116449154Y-111164453D01*
X116301584Y-111263056D01*
X116137612Y-111330976D01*
X115988312Y-111360673D01*
X115963542Y-111365600D01*
X115786058Y-111365600D01*
X115761288Y-111360673D01*
X115611988Y-111330976D01*
X115448016Y-111263056D01*
X115300446Y-111164453D01*
X115174947Y-111038954D01*
X115076344Y-110891384D01*
X115008424Y-110727412D01*
X114973800Y-110553341D01*
X114973800Y-110375859D01*
X115008424Y-110201788D01*
X115076344Y-110037816D01*
X115174947Y-109890246D01*
X115300446Y-109764747D01*
X115448016Y-109666144D01*
X115611988Y-109598224D01*
X115761288Y-109568527D01*
X115786058Y-109563600D01*
X115963542Y-109563600D01*
X115988312Y-109568527D01*
G37*
G36*
X121068312Y-109568527D02*
G01*
X121217612Y-109598224D01*
X121381584Y-109666144D01*
X121529154Y-109764747D01*
X121654653Y-109890246D01*
X121753256Y-110037816D01*
X121821176Y-110201788D01*
X121855800Y-110375859D01*
X121855800Y-110553341D01*
X121821176Y-110727412D01*
X121753256Y-110891384D01*
X121654653Y-111038954D01*
X121529154Y-111164453D01*
X121381584Y-111263056D01*
X121217612Y-111330976D01*
X121068312Y-111360673D01*
X121043542Y-111365600D01*
X120866058Y-111365600D01*
X120841288Y-111360673D01*
X120691988Y-111330976D01*
X120528016Y-111263056D01*
X120380446Y-111164453D01*
X120254947Y-111038954D01*
X120156344Y-110891384D01*
X120088424Y-110727412D01*
X120053800Y-110553341D01*
X120053800Y-110375859D01*
X120088424Y-110201788D01*
X120156344Y-110037816D01*
X120254947Y-109890246D01*
X120380446Y-109764747D01*
X120528016Y-109666144D01*
X120691988Y-109598224D01*
X120841288Y-109568527D01*
X120866058Y-109563600D01*
X121043542Y-109563600D01*
X121068312Y-109568527D01*
G37*
G36*
X108368312Y-109568527D02*
G01*
X108517612Y-109598224D01*
X108681584Y-109666144D01*
X108829154Y-109764747D01*
X108954653Y-109890246D01*
X109053256Y-110037816D01*
X109121176Y-110201788D01*
X109155800Y-110375859D01*
X109155800Y-110553341D01*
X109121176Y-110727412D01*
X109053256Y-110891384D01*
X108954653Y-111038954D01*
X108829154Y-111164453D01*
X108681584Y-111263056D01*
X108517612Y-111330976D01*
X108368312Y-111360673D01*
X108343542Y-111365600D01*
X108166058Y-111365600D01*
X108141288Y-111360673D01*
X107991988Y-111330976D01*
X107828016Y-111263056D01*
X107680446Y-111164453D01*
X107554947Y-111038954D01*
X107456344Y-110891384D01*
X107388424Y-110727412D01*
X107353800Y-110553341D01*
X107353800Y-110375859D01*
X107388424Y-110201788D01*
X107456344Y-110037816D01*
X107554947Y-109890246D01*
X107680446Y-109764747D01*
X107828016Y-109666144D01*
X107991988Y-109598224D01*
X108141288Y-109568527D01*
X108166058Y-109563600D01*
X108343542Y-109563600D01*
X108368312Y-109568527D01*
G37*
G36*
X110908312Y-109568527D02*
G01*
X111057612Y-109598224D01*
X111221584Y-109666144D01*
X111369154Y-109764747D01*
X111494653Y-109890246D01*
X111593256Y-110037816D01*
X111661176Y-110201788D01*
X111695800Y-110375859D01*
X111695800Y-110553341D01*
X111661176Y-110727412D01*
X111593256Y-110891384D01*
X111494653Y-111038954D01*
X111369154Y-111164453D01*
X111221584Y-111263056D01*
X111057612Y-111330976D01*
X110908312Y-111360673D01*
X110883542Y-111365600D01*
X110706058Y-111365600D01*
X110681288Y-111360673D01*
X110531988Y-111330976D01*
X110368016Y-111263056D01*
X110220446Y-111164453D01*
X110094947Y-111038954D01*
X109996344Y-110891384D01*
X109928424Y-110727412D01*
X109893800Y-110553341D01*
X109893800Y-110375859D01*
X109928424Y-110201788D01*
X109996344Y-110037816D01*
X110094947Y-109890246D01*
X110220446Y-109764747D01*
X110368016Y-109666144D01*
X110531988Y-109598224D01*
X110681288Y-109568527D01*
X110706058Y-109563600D01*
X110883542Y-109563600D01*
X110908312Y-109568527D01*
G37*
G36*
X88048312Y-109568527D02*
G01*
X88197612Y-109598224D01*
X88361584Y-109666144D01*
X88509154Y-109764747D01*
X88634653Y-109890246D01*
X88733256Y-110037816D01*
X88801176Y-110201788D01*
X88835800Y-110375859D01*
X88835800Y-110553341D01*
X88801176Y-110727412D01*
X88733256Y-110891384D01*
X88634653Y-111038954D01*
X88509154Y-111164453D01*
X88361584Y-111263056D01*
X88197612Y-111330976D01*
X88048312Y-111360673D01*
X88023542Y-111365600D01*
X87846058Y-111365600D01*
X87821288Y-111360673D01*
X87671988Y-111330976D01*
X87508016Y-111263056D01*
X87360446Y-111164453D01*
X87234947Y-111038954D01*
X87136344Y-110891384D01*
X87068424Y-110727412D01*
X87033800Y-110553341D01*
X87033800Y-110375859D01*
X87068424Y-110201788D01*
X87136344Y-110037816D01*
X87234947Y-109890246D01*
X87360446Y-109764747D01*
X87508016Y-109666144D01*
X87671988Y-109598224D01*
X87821288Y-109568527D01*
X87846058Y-109563600D01*
X88023542Y-109563600D01*
X88048312Y-109568527D01*
G37*
G36*
X95668312Y-109568527D02*
G01*
X95817612Y-109598224D01*
X95981584Y-109666144D01*
X96129154Y-109764747D01*
X96254653Y-109890246D01*
X96353256Y-110037816D01*
X96421176Y-110201788D01*
X96455800Y-110375859D01*
X96455800Y-110553341D01*
X96421176Y-110727412D01*
X96353256Y-110891384D01*
X96254653Y-111038954D01*
X96129154Y-111164453D01*
X95981584Y-111263056D01*
X95817612Y-111330976D01*
X95668312Y-111360673D01*
X95643542Y-111365600D01*
X95466058Y-111365600D01*
X95441288Y-111360673D01*
X95291988Y-111330976D01*
X95128016Y-111263056D01*
X94980446Y-111164453D01*
X94854947Y-111038954D01*
X94756344Y-110891384D01*
X94688424Y-110727412D01*
X94653800Y-110553341D01*
X94653800Y-110375859D01*
X94688424Y-110201788D01*
X94756344Y-110037816D01*
X94854947Y-109890246D01*
X94980446Y-109764747D01*
X95128016Y-109666144D01*
X95291988Y-109598224D01*
X95441288Y-109568527D01*
X95466058Y-109563600D01*
X95643542Y-109563600D01*
X95668312Y-109568527D01*
G37*
G36*
X80428312Y-109568527D02*
G01*
X80577612Y-109598224D01*
X80741584Y-109666144D01*
X80889154Y-109764747D01*
X81014653Y-109890246D01*
X81113256Y-110037816D01*
X81181176Y-110201788D01*
X81215800Y-110375859D01*
X81215800Y-110553341D01*
X81181176Y-110727412D01*
X81113256Y-110891384D01*
X81014653Y-111038954D01*
X80889154Y-111164453D01*
X80741584Y-111263056D01*
X80577612Y-111330976D01*
X80428312Y-111360673D01*
X80403542Y-111365600D01*
X80226058Y-111365600D01*
X80201288Y-111360673D01*
X80051988Y-111330976D01*
X79888016Y-111263056D01*
X79740446Y-111164453D01*
X79614947Y-111038954D01*
X79516344Y-110891384D01*
X79448424Y-110727412D01*
X79413800Y-110553341D01*
X79413800Y-110375859D01*
X79448424Y-110201788D01*
X79516344Y-110037816D01*
X79614947Y-109890246D01*
X79740446Y-109764747D01*
X79888016Y-109666144D01*
X80051988Y-109598224D01*
X80201288Y-109568527D01*
X80226058Y-109563600D01*
X80403542Y-109563600D01*
X80428312Y-109568527D01*
G37*
G36*
X118528312Y-109568527D02*
G01*
X118677612Y-109598224D01*
X118841584Y-109666144D01*
X118989154Y-109764747D01*
X119114653Y-109890246D01*
X119213256Y-110037816D01*
X119281176Y-110201788D01*
X119315800Y-110375859D01*
X119315800Y-110553341D01*
X119281176Y-110727412D01*
X119213256Y-110891384D01*
X119114653Y-111038954D01*
X118989154Y-111164453D01*
X118841584Y-111263056D01*
X118677612Y-111330976D01*
X118528312Y-111360673D01*
X118503542Y-111365600D01*
X118326058Y-111365600D01*
X118301288Y-111360673D01*
X118151988Y-111330976D01*
X117988016Y-111263056D01*
X117840446Y-111164453D01*
X117714947Y-111038954D01*
X117616344Y-110891384D01*
X117548424Y-110727412D01*
X117513800Y-110553341D01*
X117513800Y-110375859D01*
X117548424Y-110201788D01*
X117616344Y-110037816D01*
X117714947Y-109890246D01*
X117840446Y-109764747D01*
X117988016Y-109666144D01*
X118151988Y-109598224D01*
X118301288Y-109568527D01*
X118326058Y-109563600D01*
X118503542Y-109563600D01*
X118528312Y-109568527D01*
G37*
G36*
X113448312Y-109568527D02*
G01*
X113597612Y-109598224D01*
X113761584Y-109666144D01*
X113909154Y-109764747D01*
X114034653Y-109890246D01*
X114133256Y-110037816D01*
X114201176Y-110201788D01*
X114235800Y-110375859D01*
X114235800Y-110553341D01*
X114201176Y-110727412D01*
X114133256Y-110891384D01*
X114034653Y-111038954D01*
X113909154Y-111164453D01*
X113761584Y-111263056D01*
X113597612Y-111330976D01*
X113448312Y-111360673D01*
X113423542Y-111365600D01*
X113246058Y-111365600D01*
X113221288Y-111360673D01*
X113071988Y-111330976D01*
X112908016Y-111263056D01*
X112760446Y-111164453D01*
X112634947Y-111038954D01*
X112536344Y-110891384D01*
X112468424Y-110727412D01*
X112433800Y-110553341D01*
X112433800Y-110375859D01*
X112468424Y-110201788D01*
X112536344Y-110037816D01*
X112634947Y-109890246D01*
X112760446Y-109764747D01*
X112908016Y-109666144D01*
X113071988Y-109598224D01*
X113221288Y-109568527D01*
X113246058Y-109563600D01*
X113423542Y-109563600D01*
X113448312Y-109568527D01*
G37*
G36*
X98208312Y-109568527D02*
G01*
X98357612Y-109598224D01*
X98521584Y-109666144D01*
X98669154Y-109764747D01*
X98794653Y-109890246D01*
X98893256Y-110037816D01*
X98961176Y-110201788D01*
X98995800Y-110375859D01*
X98995800Y-110553341D01*
X98961176Y-110727412D01*
X98893256Y-110891384D01*
X98794653Y-111038954D01*
X98669154Y-111164453D01*
X98521584Y-111263056D01*
X98357612Y-111330976D01*
X98208312Y-111360673D01*
X98183542Y-111365600D01*
X98006058Y-111365600D01*
X97981288Y-111360673D01*
X97831988Y-111330976D01*
X97668016Y-111263056D01*
X97520446Y-111164453D01*
X97394947Y-111038954D01*
X97296344Y-110891384D01*
X97228424Y-110727412D01*
X97193800Y-110553341D01*
X97193800Y-110375859D01*
X97228424Y-110201788D01*
X97296344Y-110037816D01*
X97394947Y-109890246D01*
X97520446Y-109764747D01*
X97668016Y-109666144D01*
X97831988Y-109598224D01*
X97981288Y-109568527D01*
X98006058Y-109563600D01*
X98183542Y-109563600D01*
X98208312Y-109568527D01*
G37*
G36*
X75348312Y-109568527D02*
G01*
X75497612Y-109598224D01*
X75661584Y-109666144D01*
X75809154Y-109764747D01*
X75934653Y-109890246D01*
X76033256Y-110037816D01*
X76101176Y-110201788D01*
X76135800Y-110375859D01*
X76135800Y-110553341D01*
X76101176Y-110727412D01*
X76033256Y-110891384D01*
X75934653Y-111038954D01*
X75809154Y-111164453D01*
X75661584Y-111263056D01*
X75497612Y-111330976D01*
X75348312Y-111360673D01*
X75323542Y-111365600D01*
X75146058Y-111365600D01*
X75121288Y-111360673D01*
X74971988Y-111330976D01*
X74808016Y-111263056D01*
X74660446Y-111164453D01*
X74534947Y-111038954D01*
X74436344Y-110891384D01*
X74368424Y-110727412D01*
X74333800Y-110553341D01*
X74333800Y-110375859D01*
X74368424Y-110201788D01*
X74436344Y-110037816D01*
X74534947Y-109890246D01*
X74660446Y-109764747D01*
X74808016Y-109666144D01*
X74971988Y-109598224D01*
X75121288Y-109568527D01*
X75146058Y-109563600D01*
X75323542Y-109563600D01*
X75348312Y-109568527D01*
G37*
G36*
X77888312Y-109568527D02*
G01*
X78037612Y-109598224D01*
X78201584Y-109666144D01*
X78349154Y-109764747D01*
X78474653Y-109890246D01*
X78573256Y-110037816D01*
X78641176Y-110201788D01*
X78675800Y-110375859D01*
X78675800Y-110553341D01*
X78641176Y-110727412D01*
X78573256Y-110891384D01*
X78474653Y-111038954D01*
X78349154Y-111164453D01*
X78201584Y-111263056D01*
X78037612Y-111330976D01*
X77888312Y-111360673D01*
X77863542Y-111365600D01*
X77686058Y-111365600D01*
X77661288Y-111360673D01*
X77511988Y-111330976D01*
X77348016Y-111263056D01*
X77200446Y-111164453D01*
X77074947Y-111038954D01*
X76976344Y-110891384D01*
X76908424Y-110727412D01*
X76873800Y-110553341D01*
X76873800Y-110375859D01*
X76908424Y-110201788D01*
X76976344Y-110037816D01*
X77074947Y-109890246D01*
X77200446Y-109764747D01*
X77348016Y-109666144D01*
X77511988Y-109598224D01*
X77661288Y-109568527D01*
X77686058Y-109563600D01*
X77863542Y-109563600D01*
X77888312Y-109568527D01*
G37*
G36*
X93128312Y-109568527D02*
G01*
X93277612Y-109598224D01*
X93441584Y-109666144D01*
X93589154Y-109764747D01*
X93714653Y-109890246D01*
X93813256Y-110037816D01*
X93881176Y-110201788D01*
X93915800Y-110375859D01*
X93915800Y-110553341D01*
X93881176Y-110727412D01*
X93813256Y-110891384D01*
X93714653Y-111038954D01*
X93589154Y-111164453D01*
X93441584Y-111263056D01*
X93277612Y-111330976D01*
X93128312Y-111360673D01*
X93103542Y-111365600D01*
X92926058Y-111365600D01*
X92901288Y-111360673D01*
X92751988Y-111330976D01*
X92588016Y-111263056D01*
X92440446Y-111164453D01*
X92314947Y-111038954D01*
X92216344Y-110891384D01*
X92148424Y-110727412D01*
X92113800Y-110553341D01*
X92113800Y-110375859D01*
X92148424Y-110201788D01*
X92216344Y-110037816D01*
X92314947Y-109890246D01*
X92440446Y-109764747D01*
X92588016Y-109666144D01*
X92751988Y-109598224D01*
X92901288Y-109568527D01*
X92926058Y-109563600D01*
X93103542Y-109563600D01*
X93128312Y-109568527D01*
G37*
G36*
X82968312Y-109568527D02*
G01*
X83117612Y-109598224D01*
X83281584Y-109666144D01*
X83429154Y-109764747D01*
X83554653Y-109890246D01*
X83653256Y-110037816D01*
X83721176Y-110201788D01*
X83755800Y-110375859D01*
X83755800Y-110553341D01*
X83721176Y-110727412D01*
X83653256Y-110891384D01*
X83554653Y-111038954D01*
X83429154Y-111164453D01*
X83281584Y-111263056D01*
X83117612Y-111330976D01*
X82968312Y-111360673D01*
X82943542Y-111365600D01*
X82766058Y-111365600D01*
X82741288Y-111360673D01*
X82591988Y-111330976D01*
X82428016Y-111263056D01*
X82280446Y-111164453D01*
X82154947Y-111038954D01*
X82056344Y-110891384D01*
X81988424Y-110727412D01*
X81953800Y-110553341D01*
X81953800Y-110375859D01*
X81988424Y-110201788D01*
X82056344Y-110037816D01*
X82154947Y-109890246D01*
X82280446Y-109764747D01*
X82428016Y-109666144D01*
X82591988Y-109598224D01*
X82741288Y-109568527D01*
X82766058Y-109563600D01*
X82943542Y-109563600D01*
X82968312Y-109568527D01*
G37*
G36*
X85508312Y-109568527D02*
G01*
X85657612Y-109598224D01*
X85821584Y-109666144D01*
X85969154Y-109764747D01*
X86094653Y-109890246D01*
X86193256Y-110037816D01*
X86261176Y-110201788D01*
X86295800Y-110375859D01*
X86295800Y-110553341D01*
X86261176Y-110727412D01*
X86193256Y-110891384D01*
X86094653Y-111038954D01*
X85969154Y-111164453D01*
X85821584Y-111263056D01*
X85657612Y-111330976D01*
X85508312Y-111360673D01*
X85483542Y-111365600D01*
X85306058Y-111365600D01*
X85281288Y-111360673D01*
X85131988Y-111330976D01*
X84968016Y-111263056D01*
X84820446Y-111164453D01*
X84694947Y-111038954D01*
X84596344Y-110891384D01*
X84528424Y-110727412D01*
X84493800Y-110553341D01*
X84493800Y-110375859D01*
X84528424Y-110201788D01*
X84596344Y-110037816D01*
X84694947Y-109890246D01*
X84820446Y-109764747D01*
X84968016Y-109666144D01*
X85131988Y-109598224D01*
X85281288Y-109568527D01*
X85306058Y-109563600D01*
X85483542Y-109563600D01*
X85508312Y-109568527D01*
G37*
G36*
X103288312Y-109568527D02*
G01*
X103437612Y-109598224D01*
X103601584Y-109666144D01*
X103749154Y-109764747D01*
X103874653Y-109890246D01*
X103973256Y-110037816D01*
X104041176Y-110201788D01*
X104075800Y-110375859D01*
X104075800Y-110553341D01*
X104041176Y-110727412D01*
X103973256Y-110891384D01*
X103874653Y-111038954D01*
X103749154Y-111164453D01*
X103601584Y-111263056D01*
X103437612Y-111330976D01*
X103288312Y-111360673D01*
X103263542Y-111365600D01*
X103086058Y-111365600D01*
X103061288Y-111360673D01*
X102911988Y-111330976D01*
X102748016Y-111263056D01*
X102600446Y-111164453D01*
X102474947Y-111038954D01*
X102376344Y-110891384D01*
X102308424Y-110727412D01*
X102273800Y-110553341D01*
X102273800Y-110375859D01*
X102308424Y-110201788D01*
X102376344Y-110037816D01*
X102474947Y-109890246D01*
X102600446Y-109764747D01*
X102748016Y-109666144D01*
X102911988Y-109598224D01*
X103061288Y-109568527D01*
X103086058Y-109563600D01*
X103263542Y-109563600D01*
X103288312Y-109568527D01*
G37*
G36*
X134949285Y-97888502D02*
G01*
X135099110Y-97918304D01*
X135381374Y-98035221D01*
X135635405Y-98204959D01*
X135851441Y-98420995D01*
X136021179Y-98675026D01*
X136138096Y-98957290D01*
X136197700Y-99256940D01*
X136197700Y-99562460D01*
X136138096Y-99862110D01*
X136021179Y-100144374D01*
X135851441Y-100398405D01*
X135635405Y-100614441D01*
X135381374Y-100784179D01*
X135099110Y-100901096D01*
X134949285Y-100930898D01*
X134799461Y-100960700D01*
X134493939Y-100960700D01*
X134344115Y-100930898D01*
X134194290Y-100901096D01*
X133912026Y-100784179D01*
X133657995Y-100614441D01*
X133441959Y-100398405D01*
X133272221Y-100144374D01*
X133155304Y-99862110D01*
X133095700Y-99562460D01*
X133095700Y-99256940D01*
X133155304Y-98957290D01*
X133272221Y-98675026D01*
X133441959Y-98420995D01*
X133657995Y-98204959D01*
X133912026Y-98035221D01*
X134194290Y-97918304D01*
X134344115Y-97888502D01*
X134493939Y-97858700D01*
X134799461Y-97858700D01*
X134949285Y-97888502D01*
G37*
G36*
X147276187Y-98108696D02*
G01*
X147508588Y-98204960D01*
X147512955Y-98206769D01*
X147726039Y-98349147D01*
X147907253Y-98530361D01*
X148049632Y-98743447D01*
X148147704Y-98980213D01*
X148197700Y-99231561D01*
X148197700Y-99487839D01*
X148147704Y-99739187D01*
X148096788Y-99862109D01*
X148049631Y-99975955D01*
X147907253Y-100189039D01*
X147726039Y-100370253D01*
X147512955Y-100512631D01*
X147512954Y-100512632D01*
X147512953Y-100512632D01*
X147276187Y-100610704D01*
X147024839Y-100660700D01*
X146768561Y-100660700D01*
X146517213Y-100610704D01*
X146280447Y-100512632D01*
X146280446Y-100512632D01*
X146280445Y-100512631D01*
X146067361Y-100370253D01*
X145886147Y-100189039D01*
X145743769Y-99975955D01*
X145696612Y-99862109D01*
X145645696Y-99739187D01*
X145595700Y-99487839D01*
X145595700Y-99231561D01*
X145645696Y-98980213D01*
X145743768Y-98743447D01*
X145886147Y-98530361D01*
X146067361Y-98349147D01*
X146280445Y-98206769D01*
X146284812Y-98204960D01*
X146517213Y-98108696D01*
X146768561Y-98058700D01*
X147024839Y-98058700D01*
X147276187Y-98108696D01*
G37*
G36*
X149149285Y-91888502D02*
G01*
X149299110Y-91918304D01*
X149581374Y-92035221D01*
X149835405Y-92204959D01*
X150051441Y-92420995D01*
X150221179Y-92675026D01*
X150338096Y-92957290D01*
X150397700Y-93256940D01*
X150397700Y-93562460D01*
X150338096Y-93862110D01*
X150221179Y-94144374D01*
X150051441Y-94398405D01*
X149835405Y-94614441D01*
X149581374Y-94784179D01*
X149299110Y-94901096D01*
X149149285Y-94930898D01*
X148999461Y-94960700D01*
X148693939Y-94960700D01*
X148544115Y-94930898D01*
X148394290Y-94901096D01*
X148112026Y-94784179D01*
X147857995Y-94614441D01*
X147641959Y-94398405D01*
X147472221Y-94144374D01*
X147355304Y-93862110D01*
X147295700Y-93562460D01*
X147295700Y-93256940D01*
X147355304Y-92957290D01*
X147472221Y-92675026D01*
X147641959Y-92420995D01*
X147857995Y-92204959D01*
X148112026Y-92035221D01*
X148394290Y-91918304D01*
X148544115Y-91888502D01*
X148693939Y-91858700D01*
X148999461Y-91858700D01*
X149149285Y-91888502D01*
G37*
G36*
X134999285Y-85838502D02*
G01*
X135149110Y-85868304D01*
X135431374Y-85985221D01*
X135685405Y-86154959D01*
X135901441Y-86370995D01*
X136071179Y-86625026D01*
X136188096Y-86907290D01*
X136247700Y-87206940D01*
X136247700Y-87512460D01*
X136188096Y-87812110D01*
X136071179Y-88094374D01*
X135901441Y-88348405D01*
X135685405Y-88564441D01*
X135431374Y-88734179D01*
X135149110Y-88851096D01*
X134999285Y-88880898D01*
X134849461Y-88910700D01*
X134543939Y-88910700D01*
X134394115Y-88880898D01*
X134244290Y-88851096D01*
X133962026Y-88734179D01*
X133707995Y-88564441D01*
X133491959Y-88348405D01*
X133322221Y-88094374D01*
X133205304Y-87812110D01*
X133145700Y-87512460D01*
X133145700Y-87206940D01*
X133205304Y-86907290D01*
X133322221Y-86625026D01*
X133491959Y-86370995D01*
X133707995Y-86154959D01*
X133962026Y-85985221D01*
X134244290Y-85868304D01*
X134394115Y-85838502D01*
X134543939Y-85808700D01*
X134849461Y-85808700D01*
X134999285Y-85838502D01*
G37*
G36*
X147276187Y-86108696D02*
G01*
X147512953Y-86206768D01*
X147512955Y-86206769D01*
X147726039Y-86349147D01*
X147907253Y-86530361D01*
X148049632Y-86743447D01*
X148147704Y-86980213D01*
X148197700Y-87231561D01*
X148197700Y-87487839D01*
X148147704Y-87739187D01*
X148117498Y-87812110D01*
X148049631Y-87975955D01*
X147907253Y-88189039D01*
X147726039Y-88370253D01*
X147512955Y-88512631D01*
X147512954Y-88512632D01*
X147512953Y-88512632D01*
X147276187Y-88610704D01*
X147024839Y-88660700D01*
X146768561Y-88660700D01*
X146517213Y-88610704D01*
X146280447Y-88512632D01*
X146280446Y-88512632D01*
X146280445Y-88512631D01*
X146067361Y-88370253D01*
X145886147Y-88189039D01*
X145743769Y-87975955D01*
X145675902Y-87812110D01*
X145645696Y-87739187D01*
X145595700Y-87487839D01*
X145595700Y-87231561D01*
X145645696Y-86980213D01*
X145743768Y-86743447D01*
X145886147Y-86530361D01*
X146067361Y-86349147D01*
X146280445Y-86206769D01*
X146280447Y-86206768D01*
X146517213Y-86108696D01*
X146768561Y-86058700D01*
X147024839Y-86058700D01*
X147276187Y-86108696D01*
G37*
G36*
X160349231Y-70208134D02*
G01*
X160781582Y-70294134D01*
X161373226Y-70539201D01*
X161773373Y-70806571D01*
X161905691Y-70894983D01*
X162358517Y-71347809D01*
X162399625Y-71409332D01*
X162714299Y-71880274D01*
X162923744Y-72385919D01*
X162959366Y-72471919D01*
X163084300Y-73100003D01*
X163084300Y-73740397D01*
X163029776Y-74014509D01*
X162959366Y-74368482D01*
X162714299Y-74960126D01*
X162474672Y-75318752D01*
X162365423Y-75482256D01*
X162358516Y-75492592D01*
X161905692Y-75945416D01*
X161373226Y-76301199D01*
X160781582Y-76546266D01*
X160585847Y-76585200D01*
X160153497Y-76671200D01*
X159513103Y-76671200D01*
X159080753Y-76585200D01*
X158885018Y-76546266D01*
X158293374Y-76301199D01*
X157760908Y-75945416D01*
X157308084Y-75492592D01*
X157301178Y-75482256D01*
X157191928Y-75318752D01*
X156952301Y-74960126D01*
X156707234Y-74368482D01*
X156636824Y-74014509D01*
X156582300Y-73740397D01*
X156582300Y-73100003D01*
X156707234Y-72471919D01*
X156742856Y-72385919D01*
X156952301Y-71880274D01*
X157266975Y-71409332D01*
X157308083Y-71347809D01*
X157760909Y-70894983D01*
X157893227Y-70806571D01*
X158293374Y-70539201D01*
X158885018Y-70294134D01*
X159317369Y-70208134D01*
X159513103Y-70169200D01*
X160153497Y-70169200D01*
X160349231Y-70208134D01*
G37*
G36*
X70807112Y-70138461D02*
G01*
X71157382Y-70208134D01*
X71749026Y-70453201D01*
X72037701Y-70646088D01*
X72281491Y-70808983D01*
X72734317Y-71261809D01*
X72791780Y-71347809D01*
X73090099Y-71794274D01*
X73335166Y-72385918D01*
X73371820Y-72570189D01*
X73460100Y-73014003D01*
X73460100Y-73654397D01*
X73427185Y-73819871D01*
X73335166Y-74282482D01*
X73090099Y-74874126D01*
X72842365Y-75244885D01*
X72735546Y-75404752D01*
X72734316Y-75406592D01*
X72281492Y-75859416D01*
X71749026Y-76215199D01*
X71157382Y-76460266D01*
X70843339Y-76522733D01*
X70529297Y-76585200D01*
X69888903Y-76585200D01*
X69574861Y-76522733D01*
X69260818Y-76460266D01*
X68669174Y-76215199D01*
X68136708Y-75859416D01*
X67683884Y-75406592D01*
X67682655Y-75404752D01*
X67575835Y-75244885D01*
X67328101Y-74874126D01*
X67083034Y-74282482D01*
X66991015Y-73819871D01*
X66958100Y-73654397D01*
X66958100Y-73014003D01*
X67046380Y-72570189D01*
X67083034Y-72385918D01*
X67328101Y-71794274D01*
X67626420Y-71347809D01*
X67683883Y-71261809D01*
X68136709Y-70808983D01*
X68380499Y-70646088D01*
X68669174Y-70453201D01*
X69260818Y-70208134D01*
X69611088Y-70138461D01*
X69888903Y-70083200D01*
X70529297Y-70083200D01*
X70807112Y-70138461D01*
G37*
G36*
X133477885Y-72047402D02*
G01*
X133627710Y-72077204D01*
X133909974Y-72194121D01*
X134164005Y-72363859D01*
X134380041Y-72579895D01*
X134549779Y-72833926D01*
X134666696Y-73116190D01*
X134684674Y-73206571D01*
X134726300Y-73415839D01*
X134726300Y-73721361D01*
X134706705Y-73819871D01*
X134666696Y-74021010D01*
X134549779Y-74303274D01*
X134380041Y-74557305D01*
X134164005Y-74773341D01*
X133909974Y-74943079D01*
X133627710Y-75059996D01*
X133548881Y-75075676D01*
X133328061Y-75119600D01*
X133022539Y-75119600D01*
X132801719Y-75075676D01*
X132722890Y-75059996D01*
X132440626Y-74943079D01*
X132186595Y-74773341D01*
X131970559Y-74557305D01*
X131800821Y-74303274D01*
X131683904Y-74021010D01*
X131643895Y-73819871D01*
X131624300Y-73721361D01*
X131624300Y-73415839D01*
X131665926Y-73206571D01*
X131683904Y-73116190D01*
X131800821Y-72833926D01*
X131970559Y-72579895D01*
X132186595Y-72363859D01*
X132440626Y-72194121D01*
X132722890Y-72077204D01*
X132872715Y-72047402D01*
X133022539Y-72017600D01*
X133328061Y-72017600D01*
X133477885Y-72047402D01*
G37*
G36*
X139853300Y-75119600D02*
G01*
X136751300Y-75119600D01*
X136751300Y-72017600D01*
X139853300Y-72017600D01*
X139853300Y-75119600D01*
G37*
G36*
X146835538Y-72036815D02*
G01*
X147005910Y-72070704D01*
X147288174Y-72187621D01*
X147542205Y-72357359D01*
X147758241Y-72573395D01*
X147927979Y-72827426D01*
X148040884Y-73100004D01*
X148044896Y-73109691D01*
X148104500Y-73409339D01*
X148104500Y-73714861D01*
X148093956Y-73767868D01*
X148044896Y-74014510D01*
X147927979Y-74296774D01*
X147758241Y-74550805D01*
X147542205Y-74766841D01*
X147288174Y-74936579D01*
X147005910Y-75053496D01*
X146908681Y-75072836D01*
X146706261Y-75113100D01*
X146400739Y-75113100D01*
X146198319Y-75072836D01*
X146101090Y-75053496D01*
X145818826Y-74936579D01*
X145564795Y-74766841D01*
X145348759Y-74550805D01*
X145179021Y-74296774D01*
X145062104Y-74014510D01*
X145013044Y-73767868D01*
X145002500Y-73714861D01*
X145002500Y-73409339D01*
X145062104Y-73109691D01*
X145066116Y-73100004D01*
X145179021Y-72827426D01*
X145348759Y-72573395D01*
X145564795Y-72357359D01*
X145818826Y-72187621D01*
X146101090Y-72070704D01*
X146271462Y-72036815D01*
X146400739Y-72011100D01*
X146706261Y-72011100D01*
X146835538Y-72036815D01*
G37*
G36*
X153231500Y-75113100D02*
G01*
X150129500Y-75113100D01*
X150129500Y-72011100D01*
X153231500Y-72011100D01*
X153231500Y-75113100D01*
G37*
G36*
X100012872Y-72132318D02*
G01*
X100162079Y-72194121D01*
X100258739Y-72234159D01*
X100370128Y-72308587D01*
X100480011Y-72382009D01*
X100668191Y-72570189D01*
X100816042Y-72791463D01*
X100917882Y-73037328D01*
X100969800Y-73298337D01*
X100969800Y-73564463D01*
X100917882Y-73825472D01*
X100816042Y-74071337D01*
X100674960Y-74282481D01*
X100668190Y-74292612D01*
X100480012Y-74480790D01*
X100258739Y-74628641D01*
X100258738Y-74628642D01*
X100258737Y-74628642D01*
X100012872Y-74730482D01*
X99751863Y-74782400D01*
X99485737Y-74782400D01*
X99224728Y-74730482D01*
X98978863Y-74628642D01*
X98978862Y-74628642D01*
X98978861Y-74628641D01*
X98757588Y-74480790D01*
X98569410Y-74292612D01*
X98562641Y-74282481D01*
X98421558Y-74071337D01*
X98319718Y-73825472D01*
X98267800Y-73564463D01*
X98267800Y-73298337D01*
X98319718Y-73037328D01*
X98421558Y-72791463D01*
X98569409Y-72570189D01*
X98757589Y-72382009D01*
X98867472Y-72308587D01*
X98978861Y-72234159D01*
X99075522Y-72194121D01*
X99224728Y-72132318D01*
X99485737Y-72080400D01*
X99751863Y-72080400D01*
X100012872Y-72132318D01*
G37*
G36*
X116209800Y-74782400D02*
G01*
X113507800Y-74782400D01*
X113507800Y-72080400D01*
X116209800Y-72080400D01*
X116209800Y-74782400D01*
G37*
G36*
X105092872Y-72132318D02*
G01*
X105242079Y-72194121D01*
X105338739Y-72234159D01*
X105450128Y-72308587D01*
X105560011Y-72382009D01*
X105748191Y-72570189D01*
X105896042Y-72791463D01*
X105997882Y-73037328D01*
X106049800Y-73298337D01*
X106049800Y-73564463D01*
X105997882Y-73825472D01*
X105896042Y-74071337D01*
X105754960Y-74282481D01*
X105748190Y-74292612D01*
X105560012Y-74480790D01*
X105338739Y-74628641D01*
X105338738Y-74628642D01*
X105338737Y-74628642D01*
X105092872Y-74730482D01*
X104831863Y-74782400D01*
X104565737Y-74782400D01*
X104304728Y-74730482D01*
X104058863Y-74628642D01*
X104058862Y-74628642D01*
X104058861Y-74628641D01*
X103837588Y-74480790D01*
X103649410Y-74292612D01*
X103642641Y-74282481D01*
X103501558Y-74071337D01*
X103399718Y-73825472D01*
X103347800Y-73564463D01*
X103347800Y-73298337D01*
X103399718Y-73037328D01*
X103501558Y-72791463D01*
X103649409Y-72570189D01*
X103837589Y-72382009D01*
X103947472Y-72308587D01*
X104058861Y-72234159D01*
X104155522Y-72194121D01*
X104304728Y-72132318D01*
X104565737Y-72080400D01*
X104831863Y-72080400D01*
X105092872Y-72132318D01*
G37*
G36*
X88786072Y-72132318D02*
G01*
X88935279Y-72194121D01*
X89031939Y-72234159D01*
X89143328Y-72308587D01*
X89253211Y-72382009D01*
X89441391Y-72570189D01*
X89589242Y-72791463D01*
X89691082Y-73037328D01*
X89743000Y-73298337D01*
X89743000Y-73564463D01*
X89691082Y-73825472D01*
X89589242Y-74071337D01*
X89448160Y-74282481D01*
X89441390Y-74292612D01*
X89253212Y-74480790D01*
X89031939Y-74628641D01*
X89031938Y-74628642D01*
X89031937Y-74628642D01*
X88786072Y-74730482D01*
X88525063Y-74782400D01*
X88258937Y-74782400D01*
X87997928Y-74730482D01*
X87752063Y-74628642D01*
X87752062Y-74628642D01*
X87752061Y-74628641D01*
X87530788Y-74480790D01*
X87342610Y-74292612D01*
X87335841Y-74282481D01*
X87194758Y-74071337D01*
X87092918Y-73825472D01*
X87041000Y-73564463D01*
X87041000Y-73298337D01*
X87092918Y-73037328D01*
X87194758Y-72791463D01*
X87342609Y-72570189D01*
X87530789Y-72382009D01*
X87640672Y-72308587D01*
X87752061Y-72234159D01*
X87848722Y-72194121D01*
X87997928Y-72132318D01*
X88258937Y-72080400D01*
X88525063Y-72080400D01*
X88786072Y-72132318D01*
G37*
G36*
X83706072Y-72132318D02*
G01*
X83855279Y-72194121D01*
X83951939Y-72234159D01*
X84063328Y-72308587D01*
X84173211Y-72382009D01*
X84361391Y-72570189D01*
X84509242Y-72791463D01*
X84611082Y-73037328D01*
X84663000Y-73298337D01*
X84663000Y-73564463D01*
X84611082Y-73825472D01*
X84509242Y-74071337D01*
X84368160Y-74282481D01*
X84361390Y-74292612D01*
X84173212Y-74480790D01*
X83951939Y-74628641D01*
X83951938Y-74628642D01*
X83951937Y-74628642D01*
X83706072Y-74730482D01*
X83445063Y-74782400D01*
X83178937Y-74782400D01*
X82917928Y-74730482D01*
X82672063Y-74628642D01*
X82672062Y-74628642D01*
X82672061Y-74628641D01*
X82450788Y-74480790D01*
X82262610Y-74292612D01*
X82255841Y-74282481D01*
X82114758Y-74071337D01*
X82012918Y-73825472D01*
X81961000Y-73564463D01*
X81961000Y-73298337D01*
X82012918Y-73037328D01*
X82114758Y-72791463D01*
X82262609Y-72570189D01*
X82450789Y-72382009D01*
X82560672Y-72308587D01*
X82672061Y-72234159D01*
X82768722Y-72194121D01*
X82917928Y-72132318D01*
X83178937Y-72080400D01*
X83445063Y-72080400D01*
X83706072Y-72132318D01*
G37*
G36*
X78626072Y-72132318D02*
G01*
X78775279Y-72194121D01*
X78871939Y-72234159D01*
X78983328Y-72308587D01*
X79093211Y-72382009D01*
X79281391Y-72570189D01*
X79429242Y-72791463D01*
X79531082Y-73037328D01*
X79583000Y-73298337D01*
X79583000Y-73564463D01*
X79531082Y-73825472D01*
X79429242Y-74071337D01*
X79288160Y-74282481D01*
X79281390Y-74292612D01*
X79093212Y-74480790D01*
X78871939Y-74628641D01*
X78871938Y-74628642D01*
X78871937Y-74628642D01*
X78626072Y-74730482D01*
X78365063Y-74782400D01*
X78098937Y-74782400D01*
X77837928Y-74730482D01*
X77592063Y-74628642D01*
X77592062Y-74628642D01*
X77592061Y-74628641D01*
X77370788Y-74480790D01*
X77182610Y-74292612D01*
X77175841Y-74282481D01*
X77034758Y-74071337D01*
X76932918Y-73825472D01*
X76881000Y-73564463D01*
X76881000Y-73298337D01*
X76932918Y-73037328D01*
X77034758Y-72791463D01*
X77182609Y-72570189D01*
X77370789Y-72382009D01*
X77480672Y-72308587D01*
X77592061Y-72234159D01*
X77688722Y-72194121D01*
X77837928Y-72132318D01*
X78098937Y-72080400D01*
X78365063Y-72080400D01*
X78626072Y-72132318D01*
G37*
G36*
X110172872Y-72132318D02*
G01*
X110322079Y-72194121D01*
X110418739Y-72234159D01*
X110530128Y-72308587D01*
X110640011Y-72382009D01*
X110828191Y-72570189D01*
X110976042Y-72791463D01*
X111077882Y-73037328D01*
X111129800Y-73298337D01*
X111129800Y-73564463D01*
X111077882Y-73825472D01*
X110976042Y-74071337D01*
X110834960Y-74282481D01*
X110828190Y-74292612D01*
X110640012Y-74480790D01*
X110418739Y-74628641D01*
X110418738Y-74628642D01*
X110418737Y-74628642D01*
X110172872Y-74730482D01*
X109911863Y-74782400D01*
X109645737Y-74782400D01*
X109384728Y-74730482D01*
X109138863Y-74628642D01*
X109138862Y-74628642D01*
X109138861Y-74628641D01*
X108917588Y-74480790D01*
X108729410Y-74292612D01*
X108722641Y-74282481D01*
X108581558Y-74071337D01*
X108479718Y-73825472D01*
X108427800Y-73564463D01*
X108427800Y-73298337D01*
X108479718Y-73037328D01*
X108581558Y-72791463D01*
X108729409Y-72570189D01*
X108917589Y-72382009D01*
X109027472Y-72308587D01*
X109138861Y-72234159D01*
X109235522Y-72194121D01*
X109384728Y-72132318D01*
X109645737Y-72080400D01*
X109911863Y-72080400D01*
X110172872Y-72132318D01*
G37*
G36*
X94823000Y-74782400D02*
G01*
X92121000Y-74782400D01*
X92121000Y-72080400D01*
X94823000Y-72080400D01*
X94823000Y-74782400D01*
G37*
G36*
X138681787Y-69015596D02*
G01*
X138902863Y-69107169D01*
X138918555Y-69113669D01*
X139131639Y-69256047D01*
X139312853Y-69437261D01*
X139448416Y-69640145D01*
X139455232Y-69650347D01*
X139553304Y-69887113D01*
X139603300Y-70138461D01*
X139603300Y-70394739D01*
X139553304Y-70646087D01*
X139455232Y-70882853D01*
X139455231Y-70882855D01*
X139312853Y-71095939D01*
X139131639Y-71277153D01*
X138918555Y-71419531D01*
X138918554Y-71419532D01*
X138918553Y-71419532D01*
X138681787Y-71517604D01*
X138430439Y-71567600D01*
X138174161Y-71567600D01*
X137922813Y-71517604D01*
X137686047Y-71419532D01*
X137686046Y-71419532D01*
X137686045Y-71419531D01*
X137472961Y-71277153D01*
X137291747Y-71095939D01*
X137149369Y-70882855D01*
X137149368Y-70882853D01*
X137051296Y-70646087D01*
X137001300Y-70394739D01*
X137001300Y-70138461D01*
X137051296Y-69887113D01*
X137149368Y-69650347D01*
X137156185Y-69640145D01*
X137291747Y-69437261D01*
X137472961Y-69256047D01*
X137686045Y-69113669D01*
X137701737Y-69107169D01*
X137922813Y-69015596D01*
X138174161Y-68965600D01*
X138430439Y-68965600D01*
X138681787Y-69015596D01*
G37*
G36*
X133601787Y-69015596D02*
G01*
X133822863Y-69107169D01*
X133838555Y-69113669D01*
X134051639Y-69256047D01*
X134232853Y-69437261D01*
X134368416Y-69640145D01*
X134375232Y-69650347D01*
X134473304Y-69887113D01*
X134523300Y-70138461D01*
X134523300Y-70394739D01*
X134473304Y-70646087D01*
X134375232Y-70882853D01*
X134375231Y-70882855D01*
X134232853Y-71095939D01*
X134051639Y-71277153D01*
X133838555Y-71419531D01*
X133838554Y-71419532D01*
X133838553Y-71419532D01*
X133601787Y-71517604D01*
X133350439Y-71567600D01*
X133094161Y-71567600D01*
X132842813Y-71517604D01*
X132606047Y-71419532D01*
X132606046Y-71419532D01*
X132606045Y-71419531D01*
X132392961Y-71277153D01*
X132211747Y-71095939D01*
X132069369Y-70882855D01*
X132069368Y-70882853D01*
X131971296Y-70646087D01*
X131921300Y-70394739D01*
X131921300Y-70138461D01*
X131971296Y-69887113D01*
X132069368Y-69650347D01*
X132076185Y-69640145D01*
X132211747Y-69437261D01*
X132392961Y-69256047D01*
X132606045Y-69113669D01*
X132621737Y-69107169D01*
X132842813Y-69015596D01*
X133094161Y-68965600D01*
X133350439Y-68965600D01*
X133601787Y-69015596D01*
G37*
G36*
X146979987Y-69009096D02*
G01*
X147216753Y-69107168D01*
X147216755Y-69107169D01*
X147429839Y-69249547D01*
X147611053Y-69430761D01*
X147750959Y-69640145D01*
X147753432Y-69643847D01*
X147851504Y-69880613D01*
X147901500Y-70131961D01*
X147901500Y-70388239D01*
X147851504Y-70639587D01*
X147754964Y-70872655D01*
X147753431Y-70876355D01*
X147611053Y-71089439D01*
X147429839Y-71270653D01*
X147216755Y-71413031D01*
X147216754Y-71413032D01*
X147216753Y-71413032D01*
X146979987Y-71511104D01*
X146728639Y-71561100D01*
X146472361Y-71561100D01*
X146221013Y-71511104D01*
X145984247Y-71413032D01*
X145984246Y-71413032D01*
X145984245Y-71413031D01*
X145771161Y-71270653D01*
X145589947Y-71089439D01*
X145447569Y-70876355D01*
X145446036Y-70872655D01*
X145349496Y-70639587D01*
X145299500Y-70388239D01*
X145299500Y-70131961D01*
X145349496Y-69880613D01*
X145447568Y-69643847D01*
X145450042Y-69640145D01*
X145589947Y-69430761D01*
X145771161Y-69249547D01*
X145984245Y-69107169D01*
X145984247Y-69107168D01*
X146221013Y-69009096D01*
X146472361Y-68959100D01*
X146728639Y-68959100D01*
X146979987Y-69009096D01*
G37*
G36*
X152059987Y-69009096D02*
G01*
X152296753Y-69107168D01*
X152296755Y-69107169D01*
X152509839Y-69249547D01*
X152691053Y-69430761D01*
X152830959Y-69640145D01*
X152833432Y-69643847D01*
X152931504Y-69880613D01*
X152981500Y-70131961D01*
X152981500Y-70388239D01*
X152931504Y-70639587D01*
X152834964Y-70872655D01*
X152833431Y-70876355D01*
X152691053Y-71089439D01*
X152509839Y-71270653D01*
X152296755Y-71413031D01*
X152296754Y-71413032D01*
X152296753Y-71413032D01*
X152059987Y-71511104D01*
X151808639Y-71561100D01*
X151552361Y-71561100D01*
X151301013Y-71511104D01*
X151064247Y-71413032D01*
X151064246Y-71413032D01*
X151064245Y-71413031D01*
X150851161Y-71270653D01*
X150669947Y-71089439D01*
X150527569Y-70876355D01*
X150526036Y-70872655D01*
X150429496Y-70639587D01*
X150379500Y-70388239D01*
X150379500Y-70131961D01*
X150429496Y-69880613D01*
X150527568Y-69643847D01*
X150530042Y-69640145D01*
X150669947Y-69430761D01*
X150851161Y-69249547D01*
X151064245Y-69107169D01*
X151064247Y-69107168D01*
X151301013Y-69009096D01*
X151552361Y-68959100D01*
X151808639Y-68959100D01*
X152059987Y-69009096D01*
G37*
G36*
X83691487Y-69005396D02*
G01*
X83928253Y-69103468D01*
X83928255Y-69103469D01*
X83943520Y-69113669D01*
X84141339Y-69245847D01*
X84322553Y-69427061D01*
X84464932Y-69640147D01*
X84563004Y-69876913D01*
X84613000Y-70128261D01*
X84613000Y-70384539D01*
X84563004Y-70635887D01*
X84464932Y-70872653D01*
X84464931Y-70872655D01*
X84322553Y-71085739D01*
X84141339Y-71266953D01*
X83928255Y-71409331D01*
X83928254Y-71409332D01*
X83928253Y-71409332D01*
X83691487Y-71507404D01*
X83440139Y-71557400D01*
X83183861Y-71557400D01*
X82932513Y-71507404D01*
X82695747Y-71409332D01*
X82695746Y-71409332D01*
X82695745Y-71409331D01*
X82482661Y-71266953D01*
X82301447Y-71085739D01*
X82159069Y-70872655D01*
X82159068Y-70872653D01*
X82060996Y-70635887D01*
X82011000Y-70384539D01*
X82011000Y-70128261D01*
X82060996Y-69876913D01*
X82159068Y-69640147D01*
X82301447Y-69427061D01*
X82482661Y-69245847D01*
X82680480Y-69113669D01*
X82695745Y-69103469D01*
X82695747Y-69103468D01*
X82932513Y-69005396D01*
X83183861Y-68955400D01*
X83440139Y-68955400D01*
X83691487Y-69005396D01*
G37*
G36*
X105078287Y-69005396D02*
G01*
X105315053Y-69103468D01*
X105315055Y-69103469D01*
X105330320Y-69113669D01*
X105528139Y-69245847D01*
X105709353Y-69427061D01*
X105851732Y-69640147D01*
X105949804Y-69876913D01*
X105999800Y-70128261D01*
X105999800Y-70384539D01*
X105949804Y-70635887D01*
X105851732Y-70872653D01*
X105851731Y-70872655D01*
X105709353Y-71085739D01*
X105528139Y-71266953D01*
X105315055Y-71409331D01*
X105315054Y-71409332D01*
X105315053Y-71409332D01*
X105078287Y-71507404D01*
X104826939Y-71557400D01*
X104570661Y-71557400D01*
X104319313Y-71507404D01*
X104082547Y-71409332D01*
X104082546Y-71409332D01*
X104082545Y-71409331D01*
X103869461Y-71266953D01*
X103688247Y-71085739D01*
X103545869Y-70872655D01*
X103545868Y-70872653D01*
X103447796Y-70635887D01*
X103397800Y-70384539D01*
X103397800Y-70128261D01*
X103447796Y-69876913D01*
X103545868Y-69640147D01*
X103688247Y-69427061D01*
X103869461Y-69245847D01*
X104067280Y-69113669D01*
X104082545Y-69103469D01*
X104082547Y-69103468D01*
X104319313Y-69005396D01*
X104570661Y-68955400D01*
X104826939Y-68955400D01*
X105078287Y-69005396D01*
G37*
G36*
X99998287Y-69005396D02*
G01*
X100235053Y-69103468D01*
X100235055Y-69103469D01*
X100250320Y-69113669D01*
X100448139Y-69245847D01*
X100629353Y-69427061D01*
X100771732Y-69640147D01*
X100869804Y-69876913D01*
X100919800Y-70128261D01*
X100919800Y-70384539D01*
X100869804Y-70635887D01*
X100771732Y-70872653D01*
X100771731Y-70872655D01*
X100629353Y-71085739D01*
X100448139Y-71266953D01*
X100235055Y-71409331D01*
X100235054Y-71409332D01*
X100235053Y-71409332D01*
X99998287Y-71507404D01*
X99746939Y-71557400D01*
X99490661Y-71557400D01*
X99239313Y-71507404D01*
X99002547Y-71409332D01*
X99002546Y-71409332D01*
X99002545Y-71409331D01*
X98789461Y-71266953D01*
X98608247Y-71085739D01*
X98465869Y-70872655D01*
X98465868Y-70872653D01*
X98367796Y-70635887D01*
X98317800Y-70384539D01*
X98317800Y-70128261D01*
X98367796Y-69876913D01*
X98465868Y-69640147D01*
X98608247Y-69427061D01*
X98789461Y-69245847D01*
X98987280Y-69113669D01*
X99002545Y-69103469D01*
X99002547Y-69103468D01*
X99239313Y-69005396D01*
X99490661Y-68955400D01*
X99746939Y-68955400D01*
X99998287Y-69005396D01*
G37*
G36*
X93851487Y-69005396D02*
G01*
X94088253Y-69103468D01*
X94088255Y-69103469D01*
X94103520Y-69113669D01*
X94301339Y-69245847D01*
X94482553Y-69427061D01*
X94624932Y-69640147D01*
X94723004Y-69876913D01*
X94773000Y-70128261D01*
X94773000Y-70384539D01*
X94723004Y-70635887D01*
X94624932Y-70872653D01*
X94624931Y-70872655D01*
X94482553Y-71085739D01*
X94301339Y-71266953D01*
X94088255Y-71409331D01*
X94088254Y-71409332D01*
X94088253Y-71409332D01*
X93851487Y-71507404D01*
X93600139Y-71557400D01*
X93343861Y-71557400D01*
X93092513Y-71507404D01*
X92855747Y-71409332D01*
X92855746Y-71409332D01*
X92855745Y-71409331D01*
X92642661Y-71266953D01*
X92461447Y-71085739D01*
X92319069Y-70872655D01*
X92319068Y-70872653D01*
X92220996Y-70635887D01*
X92171000Y-70384539D01*
X92171000Y-70128261D01*
X92220996Y-69876913D01*
X92319068Y-69640147D01*
X92461447Y-69427061D01*
X92642661Y-69245847D01*
X92840480Y-69113669D01*
X92855745Y-69103469D01*
X92855747Y-69103468D01*
X93092513Y-69005396D01*
X93343861Y-68955400D01*
X93600139Y-68955400D01*
X93851487Y-69005396D01*
G37*
G36*
X88771487Y-69005396D02*
G01*
X89008253Y-69103468D01*
X89008255Y-69103469D01*
X89023520Y-69113669D01*
X89221339Y-69245847D01*
X89402553Y-69427061D01*
X89544932Y-69640147D01*
X89643004Y-69876913D01*
X89693000Y-70128261D01*
X89693000Y-70384539D01*
X89643004Y-70635887D01*
X89544932Y-70872653D01*
X89544931Y-70872655D01*
X89402553Y-71085739D01*
X89221339Y-71266953D01*
X89008255Y-71409331D01*
X89008254Y-71409332D01*
X89008253Y-71409332D01*
X88771487Y-71507404D01*
X88520139Y-71557400D01*
X88263861Y-71557400D01*
X88012513Y-71507404D01*
X87775747Y-71409332D01*
X87775746Y-71409332D01*
X87775745Y-71409331D01*
X87562661Y-71266953D01*
X87381447Y-71085739D01*
X87239069Y-70872655D01*
X87239068Y-70872653D01*
X87140996Y-70635887D01*
X87091000Y-70384539D01*
X87091000Y-70128261D01*
X87140996Y-69876913D01*
X87239068Y-69640147D01*
X87381447Y-69427061D01*
X87562661Y-69245847D01*
X87760480Y-69113669D01*
X87775745Y-69103469D01*
X87775747Y-69103468D01*
X88012513Y-69005396D01*
X88263861Y-68955400D01*
X88520139Y-68955400D01*
X88771487Y-69005396D01*
G37*
G36*
X110158287Y-69005396D02*
G01*
X110395053Y-69103468D01*
X110395055Y-69103469D01*
X110410320Y-69113669D01*
X110608139Y-69245847D01*
X110789353Y-69427061D01*
X110931732Y-69640147D01*
X111029804Y-69876913D01*
X111079800Y-70128261D01*
X111079800Y-70384539D01*
X111029804Y-70635887D01*
X110931732Y-70872653D01*
X110931731Y-70872655D01*
X110789353Y-71085739D01*
X110608139Y-71266953D01*
X110395055Y-71409331D01*
X110395054Y-71409332D01*
X110395053Y-71409332D01*
X110158287Y-71507404D01*
X109906939Y-71557400D01*
X109650661Y-71557400D01*
X109399313Y-71507404D01*
X109162547Y-71409332D01*
X109162546Y-71409332D01*
X109162545Y-71409331D01*
X108949461Y-71266953D01*
X108768247Y-71085739D01*
X108625869Y-70872655D01*
X108625868Y-70872653D01*
X108527796Y-70635887D01*
X108477800Y-70384539D01*
X108477800Y-70128261D01*
X108527796Y-69876913D01*
X108625868Y-69640147D01*
X108768247Y-69427061D01*
X108949461Y-69245847D01*
X109147280Y-69113669D01*
X109162545Y-69103469D01*
X109162547Y-69103468D01*
X109399313Y-69005396D01*
X109650661Y-68955400D01*
X109906939Y-68955400D01*
X110158287Y-69005396D01*
G37*
G36*
X115238287Y-69005396D02*
G01*
X115475053Y-69103468D01*
X115475055Y-69103469D01*
X115490320Y-69113669D01*
X115688139Y-69245847D01*
X115869353Y-69427061D01*
X116011732Y-69640147D01*
X116109804Y-69876913D01*
X116159800Y-70128261D01*
X116159800Y-70384539D01*
X116109804Y-70635887D01*
X116011732Y-70872653D01*
X116011731Y-70872655D01*
X115869353Y-71085739D01*
X115688139Y-71266953D01*
X115475055Y-71409331D01*
X115475054Y-71409332D01*
X115475053Y-71409332D01*
X115238287Y-71507404D01*
X114986939Y-71557400D01*
X114730661Y-71557400D01*
X114479313Y-71507404D01*
X114242547Y-71409332D01*
X114242546Y-71409332D01*
X114242545Y-71409331D01*
X114029461Y-71266953D01*
X113848247Y-71085739D01*
X113705869Y-70872655D01*
X113705868Y-70872653D01*
X113607796Y-70635887D01*
X113557800Y-70384539D01*
X113557800Y-70128261D01*
X113607796Y-69876913D01*
X113705868Y-69640147D01*
X113848247Y-69427061D01*
X114029461Y-69245847D01*
X114227280Y-69113669D01*
X114242545Y-69103469D01*
X114242547Y-69103468D01*
X114479313Y-69005396D01*
X114730661Y-68955400D01*
X114986939Y-68955400D01*
X115238287Y-69005396D01*
G37*
G36*
X78611487Y-69005396D02*
G01*
X78848253Y-69103468D01*
X78848255Y-69103469D01*
X78863520Y-69113669D01*
X79061339Y-69245847D01*
X79242553Y-69427061D01*
X79384932Y-69640147D01*
X79483004Y-69876913D01*
X79533000Y-70128261D01*
X79533000Y-70384539D01*
X79483004Y-70635887D01*
X79384932Y-70872653D01*
X79384931Y-70872655D01*
X79242553Y-71085739D01*
X79061339Y-71266953D01*
X78848255Y-71409331D01*
X78848254Y-71409332D01*
X78848253Y-71409332D01*
X78611487Y-71507404D01*
X78360139Y-71557400D01*
X78103861Y-71557400D01*
X77852513Y-71507404D01*
X77615747Y-71409332D01*
X77615746Y-71409332D01*
X77615745Y-71409331D01*
X77402661Y-71266953D01*
X77221447Y-71085739D01*
X77079069Y-70872655D01*
X77079068Y-70872653D01*
X76980996Y-70635887D01*
X76931000Y-70384539D01*
X76931000Y-70128261D01*
X76980996Y-69876913D01*
X77079068Y-69640147D01*
X77221447Y-69427061D01*
X77402661Y-69245847D01*
X77600480Y-69113669D01*
X77615745Y-69103469D01*
X77615747Y-69103468D01*
X77852513Y-69005396D01*
X78103861Y-68955400D01*
X78360139Y-68955400D01*
X78611487Y-69005396D01*
G37*
M02*
