G04 #@! TF.GenerationSoftware,KiCad,Pcbnew,(5.1.5)-3*
G04 #@! TF.CreationDate,2020-09-18T03:17:49-03:00*
G04 #@! TF.ProjectId,Diferencial,44696665-7265-46e6-9369-616c2e6b6963,rev?*
G04 #@! TF.SameCoordinates,Original*
G04 #@! TF.FileFunction,Legend,Bot*
G04 #@! TF.FilePolarity,Positive*
%FSLAX46Y46*%
G04 Gerber Fmt 4.6, Leading zero omitted, Abs format (unit mm)*
G04 Created by KiCad (PCBNEW (5.1.5)-3) date 2020-09-18 03:17:49*
%MOMM*%
%LPD*%
G04 APERTURE LIST*
%ADD10C,0.150000*%
%ADD11C,0.254000*%
G04 APERTURE END LIST*
D10*
X76927460Y-123036150D02*
X76927460Y-122464721D01*
X77927460Y-122750436D02*
X76927460Y-122750436D01*
X77403651Y-122131388D02*
X77403651Y-121798055D01*
X77927460Y-121655198D02*
X77927460Y-122131388D01*
X76927460Y-122131388D01*
X76927460Y-121655198D01*
X77879841Y-121274245D02*
X77927460Y-121131388D01*
X77927460Y-120893293D01*
X77879841Y-120798055D01*
X77832222Y-120750436D01*
X77736984Y-120702817D01*
X77641746Y-120702817D01*
X77546508Y-120750436D01*
X77498889Y-120798055D01*
X77451270Y-120893293D01*
X77403651Y-121083769D01*
X77356032Y-121179007D01*
X77308413Y-121226626D01*
X77213175Y-121274245D01*
X77117937Y-121274245D01*
X77022699Y-121226626D01*
X76975080Y-121179007D01*
X76927460Y-121083769D01*
X76927460Y-120845674D01*
X76975080Y-120702817D01*
X76927460Y-120417102D02*
X76927460Y-119845674D01*
X77927460Y-120131388D02*
X76927460Y-120131388D01*
X77403651Y-119512340D02*
X77403651Y-119179007D01*
X77927460Y-119036150D02*
X77927460Y-119512340D01*
X76927460Y-119512340D01*
X76927460Y-119036150D01*
X77927460Y-118607579D02*
X76927460Y-118607579D01*
X76927460Y-118369483D01*
X76975080Y-118226626D01*
X77070318Y-118131388D01*
X77165556Y-118083769D01*
X77356032Y-118036150D01*
X77498889Y-118036150D01*
X77689365Y-118083769D01*
X77784603Y-118131388D01*
X77879841Y-118226626D01*
X77927460Y-118369483D01*
X77927460Y-118607579D01*
X76927460Y-116655198D02*
X76927460Y-116464721D01*
X76975080Y-116369483D01*
X77070318Y-116274245D01*
X77260794Y-116226626D01*
X77594127Y-116226626D01*
X77784603Y-116274245D01*
X77879841Y-116369483D01*
X77927460Y-116464721D01*
X77927460Y-116655198D01*
X77879841Y-116750436D01*
X77784603Y-116845674D01*
X77594127Y-116893293D01*
X77260794Y-116893293D01*
X77070318Y-116845674D01*
X76975080Y-116750436D01*
X76927460Y-116655198D01*
X77927460Y-115798055D02*
X76927460Y-115798055D01*
X77927460Y-115226626D01*
X76927460Y-115226626D01*
D11*
G36*
X117045403Y-123629640D02*
G01*
X78499408Y-123629640D01*
X78556874Y-114132360D01*
X117102869Y-114132360D01*
X117045403Y-123629640D01*
G37*
X117045403Y-123629640D02*
X78499408Y-123629640D01*
X78556874Y-114132360D01*
X117102869Y-114132360D01*
X117045403Y-123629640D01*
M02*
