G04 #@! TF.GenerationSoftware,KiCad,Pcbnew,(5.1.5)-3*
G04 #@! TF.CreationDate,2020-09-25T18:54:32-03:00*
G04 #@! TF.ProjectId,Gate_Driver_V2,47617465-5f44-4726-9976-65725f56322e,rev?*
G04 #@! TF.SameCoordinates,Original*
G04 #@! TF.FileFunction,Legend,Bot*
G04 #@! TF.FilePolarity,Positive*
%FSLAX46Y46*%
G04 Gerber Fmt 4.6, Leading zero omitted, Abs format (unit mm)*
G04 Created by KiCad (PCBNEW (5.1.5)-3) date 2020-09-25 18:54:32*
%MOMM*%
%LPD*%
G04 APERTURE LIST*
%ADD10C,0.500000*%
%ADD11C,0.150000*%
G04 APERTURE END LIST*
D10*
X69214982Y-73261626D02*
X69119744Y-73035436D01*
X69024506Y-72928293D01*
X68834030Y-72833055D01*
X68738792Y-72844959D01*
X68548316Y-72987817D01*
X68453078Y-73118769D01*
X68357839Y-73368769D01*
X68357839Y-73844959D01*
X68453078Y-74071150D01*
X68548316Y-74178293D01*
X68738792Y-74273531D01*
X68834030Y-74261626D01*
X69024506Y-74118769D01*
X69119744Y-73987817D01*
X69214982Y-73737817D01*
X69214982Y-73261626D01*
X69310220Y-73011626D01*
X69405458Y-72880674D01*
X69595935Y-72737817D01*
X69976887Y-72690197D01*
X70167363Y-72785436D01*
X70262601Y-72892578D01*
X70357839Y-73118769D01*
X70357839Y-73594959D01*
X70262601Y-73844959D01*
X70167363Y-73975912D01*
X69976887Y-74118769D01*
X69595935Y-74166388D01*
X69405458Y-74071150D01*
X69310220Y-73964007D01*
X69214982Y-73737817D01*
X68357839Y-75154483D02*
X68357839Y-76702102D01*
X69119744Y-75773531D01*
X69119744Y-76130674D01*
X69214982Y-76356864D01*
X69310220Y-76464007D01*
X69500697Y-76559245D01*
X69976887Y-76499721D01*
X70167363Y-76356864D01*
X70262601Y-76225912D01*
X70357839Y-75975912D01*
X70357839Y-75261626D01*
X70262601Y-75035436D01*
X70167363Y-74928293D01*
X70262601Y-77654483D02*
X70357839Y-77642578D01*
X70548316Y-77499721D01*
X70643554Y-77368769D01*
X68548316Y-78821150D02*
X68453078Y-78952102D01*
X68357839Y-79202102D01*
X68357839Y-79797340D01*
X68453078Y-80023531D01*
X68548316Y-80130674D01*
X68738792Y-80225912D01*
X68929268Y-80202102D01*
X69214982Y-80047340D01*
X70357839Y-78475912D01*
X70357839Y-80023531D01*
X68357839Y-81106864D02*
X68357839Y-82773531D01*
X70357839Y-81452102D01*
X68357839Y-84202102D02*
X68357839Y-84440197D01*
X68453078Y-84666388D01*
X68548316Y-84773531D01*
X68738792Y-84868769D01*
X69119744Y-84940197D01*
X69595935Y-84880674D01*
X69976887Y-84714007D01*
X70167363Y-84571150D01*
X70262601Y-84440197D01*
X70357839Y-84190197D01*
X70357839Y-83952102D01*
X70262601Y-83725912D01*
X70167363Y-83618769D01*
X69976887Y-83523531D01*
X69595935Y-83452102D01*
X69119744Y-83511626D01*
X68738792Y-83678293D01*
X68548316Y-83821150D01*
X68453078Y-83952102D01*
X68357839Y-84202102D01*
X70357839Y-87761626D02*
X69024506Y-87928293D01*
X69214982Y-87904483D02*
X69119744Y-88035436D01*
X69024506Y-88285436D01*
X69024506Y-88642578D01*
X69119744Y-88868769D01*
X69310220Y-88964007D01*
X70357839Y-88833055D01*
X69310220Y-88964007D02*
X69119744Y-89106864D01*
X69024506Y-89356864D01*
X69024506Y-89714007D01*
X69119744Y-89940197D01*
X69310220Y-90035436D01*
X70357839Y-89904483D01*
X70357839Y-91094959D02*
X69024506Y-91261626D01*
X69214982Y-91237817D02*
X69119744Y-91368769D01*
X69024506Y-91618769D01*
X69024506Y-91975912D01*
X69119744Y-92202102D01*
X69310220Y-92297340D01*
X70357839Y-92166388D01*
X69310220Y-92297340D02*
X69119744Y-92440197D01*
X69024506Y-92690197D01*
X69024506Y-93047340D01*
X69119744Y-93273531D01*
X69310220Y-93368769D01*
X70357839Y-93237817D01*
D11*
X70778078Y-41581723D02*
X70728078Y-124851723D01*
X117870000Y-41610000D02*
X70191658Y-41581371D01*
X117820000Y-124880000D02*
X70141658Y-124851371D01*
X70728078Y-124851723D02*
X70142334Y-123724867D01*
X70728078Y-124851723D02*
X71315175Y-123725572D01*
X70778078Y-41581723D02*
X70190981Y-42707874D01*
X70778078Y-41581723D02*
X71363822Y-42708579D01*
D10*
X95183188Y-59248837D02*
X96611760Y-59248709D01*
X95897474Y-59248773D02*
X95647295Y-57248795D01*
X95921130Y-57534485D01*
X96183052Y-57724938D01*
X96433060Y-57820154D01*
X92802236Y-59249050D02*
X94230807Y-59248922D01*
X93516522Y-59248986D02*
X93266343Y-57249008D01*
X93540178Y-57534698D01*
X93802100Y-57725151D01*
X94052108Y-57820367D01*
X90421283Y-59249263D02*
X91849855Y-59249135D01*
X91135569Y-59249199D02*
X90885390Y-57249221D01*
X91159225Y-57534911D01*
X91421147Y-57725364D01*
X91671156Y-57820580D01*
X89218894Y-59154132D02*
X89230807Y-59249369D01*
X89373681Y-59439833D01*
X89504642Y-59535059D01*
X87659277Y-58106653D02*
X87885458Y-58011394D01*
X87992593Y-57916147D01*
X88087814Y-57725662D01*
X88075901Y-57630425D01*
X87933026Y-57439962D01*
X87802066Y-57344735D01*
X87552057Y-57249520D01*
X87075867Y-57249562D01*
X86849685Y-57344820D01*
X86742550Y-57440068D01*
X86647329Y-57630553D01*
X86659242Y-57725790D01*
X86802117Y-57916253D01*
X86933078Y-58011480D01*
X87183086Y-58106695D01*
X87659277Y-58106653D01*
X87909285Y-58201869D01*
X88040246Y-58297095D01*
X88183120Y-58487558D01*
X88230773Y-58868506D01*
X88135552Y-59058991D01*
X88028418Y-59154239D01*
X87802236Y-59249497D01*
X87326045Y-59249540D01*
X87076037Y-59154324D01*
X86945076Y-59059098D01*
X86802202Y-58868634D01*
X86754549Y-58487686D01*
X86849770Y-58297201D01*
X86956904Y-58201954D01*
X87183086Y-58106695D01*
X85052057Y-57249743D02*
X84813962Y-57249764D01*
X84587780Y-57345023D01*
X84480645Y-57440270D01*
X84385424Y-57630755D01*
X84314030Y-58011714D01*
X84373596Y-58487899D01*
X84540297Y-58868837D01*
X84683171Y-59059300D01*
X84814132Y-59154526D01*
X85064141Y-59249742D01*
X85302236Y-59249721D01*
X85528418Y-59154462D01*
X85635552Y-59059215D01*
X85730773Y-58868730D01*
X85802168Y-58487771D01*
X85742601Y-58011586D01*
X85575901Y-57630649D01*
X85433026Y-57440185D01*
X85302066Y-57344959D01*
X85052057Y-57249743D01*
X82671105Y-57249956D02*
X82433009Y-57249977D01*
X82206827Y-57345236D01*
X82099693Y-57440483D01*
X82004472Y-57630968D01*
X81933078Y-58011927D01*
X81992644Y-58488112D01*
X82159345Y-58869049D01*
X82302219Y-59059513D01*
X82433180Y-59154739D01*
X82683188Y-59249955D01*
X82921284Y-59249934D01*
X83147465Y-59154675D01*
X83254600Y-59059428D01*
X83349821Y-58868943D01*
X83421215Y-58487984D01*
X83361649Y-58011799D01*
X83194948Y-57630862D01*
X83052074Y-57440398D01*
X82921113Y-57345172D01*
X82671105Y-57249956D01*
X79111760Y-59250274D02*
X78944974Y-57916956D01*
X78968800Y-58107430D02*
X78837839Y-58012204D01*
X78587831Y-57916988D01*
X78230688Y-57917020D01*
X78004506Y-58012278D01*
X77909285Y-58202763D01*
X78040331Y-59250370D01*
X77909285Y-58202763D02*
X77766411Y-58012300D01*
X77516402Y-57917084D01*
X77159260Y-57917116D01*
X76933078Y-58012374D01*
X76837857Y-58202859D01*
X76968903Y-59250466D01*
X75778426Y-59250573D02*
X75611640Y-57917254D01*
X75635467Y-58107728D02*
X75504506Y-58012502D01*
X75254498Y-57917286D01*
X74897355Y-57917318D01*
X74671173Y-58012576D01*
X74575952Y-58203061D01*
X74706998Y-59250668D01*
X74575952Y-58203061D02*
X74433078Y-58012598D01*
X74183069Y-57917382D01*
X73825926Y-57917414D01*
X73599744Y-58012672D01*
X73504523Y-58203157D01*
X73635569Y-59250764D01*
D11*
X140748077Y-60990000D02*
X28948077Y-61000000D01*
X140750000Y-82490000D02*
X140748024Y-60403579D01*
X28950000Y-82500000D02*
X28948024Y-60413579D01*
X28948077Y-61000000D02*
X30074528Y-60413479D01*
X28948077Y-61000000D02*
X30074633Y-61586320D01*
X140748077Y-60990000D02*
X139621521Y-60403680D01*
X140748077Y-60990000D02*
X139621626Y-61576521D01*
M02*
