M48
; DRILL file {KiCad (5.1.5)-3} date 25/09/2020 18:54:36
; FORMAT={-:-/ absolute / inch / decimal}
; #@! TF.CreationDate,2020-09-25T18:54:36-03:00
; #@! TF.GenerationSoftware,Kicad,Pcbnew,(5.1.5)-3
; #@! TF.FileFunction,Plated,1,2,PTH
FMAT,2
INCH
T1C0.0157
T2C0.0394
T3C0.0591
T4C0.0866
T5C0.1772
%
G90
G05
T1
X1.3551Y-4.3406
X1.5725Y-2.3369
X1.5846Y-3.3559
X1.6177Y-4.3969
X1.62Y-3.3
X1.665Y-2.8173
X1.6831Y-3.2358
X1.6941Y-3.4654
X1.73Y-2.14
X1.8197Y-4.1433
X1.89Y-2.98
X1.8906Y-3.1823
X1.9159Y-3.8437
X1.95Y-2.39
X1.9689Y-3.665
X2.022Y-2.7264
X2.0248Y-4.1402
X2.03Y-2.2
X2.0622Y-4.3429
X2.08Y-2.77
X2.08Y-3.91
X2.0976Y-3.6268
X2.1Y-2.34
X2.1496Y-2.8823
X2.1594Y-3.0827
X2.16Y-2.17
X2.1752Y-4.3386
X2.2004Y-2.6866
X2.2004Y-2.9354
X2.2346Y-4.1346
X2.28Y-2.7654
X2.3161Y-3.6453
X2.36Y-2.88
X2.4016Y-2.5268
X2.423Y-2.7369
X2.428Y-2.7795
X2.43Y-2.7
X2.43Y-2.83
X2.43Y-2.88
X2.4508Y-3.813
X2.4555Y-2.3406
X2.4679Y-3.5648
X2.47Y-3.26
X2.4752Y-3.8654
X2.48Y-2.65
X2.4898Y-3.7654
X2.5642Y-4.1051
X2.9677Y-3.3465
X2.9933Y-3.3858
X3.0142Y-3.8693
X3.0226Y-3.7148
X3.0398Y-2.6539
X3.0413Y-2.552
X3.0457Y-2.752
X3.0496Y-3.4276
X3.0496Y-3.5969
X3.0579Y-4.0878
X3.0608Y-2.8148
X3.0701Y-4.3681
X3.0728Y-2.948
X3.074Y-3.1587
X3.0811Y-2.8843
X3.1059Y-2.4449
X3.1547Y-3.9283
X3.1606Y-3.6764
X3.172Y-3.5752
X3.172Y-3.5752
X3.178Y-4.4382
X3.1862Y-2.1346
X3.2047Y-4.0098
X3.2087Y-3.885
X3.2803Y-2.1016
X3.2856Y-4.0195
X3.3319Y-4.0563
X3.3413Y-4.4417
X3.3997Y-3.7531
X3.4008Y-2.1024
X3.4016Y-2.715
X3.4083Y-4.3988
X3.4177Y-3.8575
X3.437Y-2.8035
X3.5134Y-3.7906
X3.5228Y-2.9181
X3.5256Y-3.4283
X3.5272Y-2.3772
X3.5331Y-2.5315
X3.5374Y-2.2472
X3.5571Y-4.4386
X3.6398Y-4.1732
X3.698Y-2.124
X3.7063Y-2.4657
X3.7323Y-3.0189
X3.7858Y-4.0378
X3.8705Y-3.4354
X3.8795Y-4.0799
X3.8862Y-3.0276
X3.9012Y-2.4299
X3.9118Y-3.5154
X3.9346Y-3.6287
X3.9618Y-2.5728
X3.9882Y-2.7471
X3.9969Y-2.9882
X4.0071Y-2.4429
X4.0083Y-2.3252
X4.0114Y-3.8343
X4.0165Y-3.5539
X4.0358Y-2.1665
X4.0472Y-2.4811
X4.0587Y-2.7437
X4.0677Y-3.6961
X4.0815Y-2.9677
X4.122Y-3.9634
X4.123Y-4.097
X4.128Y-3.0835
X4.174Y-3.1335
X4.4772Y-2.187
X4.7492Y-4.6374
X4.7752Y-3.1236
T2
X2.32Y-4.41
X2.9594Y-2.1331
X3.1988Y-4.5531
X1.8605Y-1.914
X1.8605Y-2.014
X3.1882Y-3.0827
X3.2882Y-3.0827
X3.0531Y-4.55
X1.58Y-1.916
X1.58Y-2.016
X2.46Y-1.972
X3.6343Y-4.5583
X3.2512Y-1.9358
X2.0034Y-1.914
X2.0034Y-2.014
X1.34Y-2.5
X1.34Y-2.6
X1.34Y-2.7
X1.34Y-2.8
X1.34Y-2.9
X1.34Y-3.0
X1.34Y-3.1
X1.34Y-3.2
X1.34Y-3.3
X1.34Y-3.4
X1.34Y-3.5
X1.34Y-3.6
X1.34Y-3.7
X1.44Y-2.5
X1.44Y-2.6
X1.44Y-2.7
X1.44Y-2.8
X1.44Y-2.9
X1.44Y-3.0
X1.44Y-3.1
X1.44Y-3.2
X1.44Y-3.3
X1.44Y-3.4
X1.44Y-3.5
X1.44Y-3.6
X1.44Y-3.7
X2.46Y-4.41
X2.9701Y-4.1673
X3.3421Y-4.5567
X1.78Y-4.2969
X1.78Y-4.3969
X3.8012Y-1.9406
X3.8012Y-2.0406
X3.9012Y-1.9406
X3.9012Y-2.0406
X1.72Y-1.916
X1.72Y-2.016
X3.3937Y-1.9335
X1.34Y-3.92
X1.34Y-4.02
X1.44Y-3.92
X1.44Y-4.02
X2.1783Y-4.4114
X2.9768Y-3.2449
X3.185Y-4.1862
X3.285Y-4.1862
X2.1606Y-1.9697
X3.5386Y-1.9327
X3.1059Y-1.937
X1.92Y-4.2969
X1.92Y-4.3969
X3.4878Y-4.5594
X2.31Y-1.97
X2.9701Y-4.3681
X2.9567Y-1.9331
T3
X4.8933Y-3.5189
X4.8933Y-3.7335
X4.8933Y-3.948
X4.8933Y-2.0028
X4.8933Y-2.2173
X4.8933Y-2.4319
X4.8933Y-4.2102
X4.8933Y-4.4248
X4.8933Y-4.6394
X4.8933Y-2.7047
X4.8933Y-2.9193
X4.8933Y-3.1339
T4
X5.3894Y-4.3358
X4.5516Y-3.1496
X5.1661Y-2.7972
X5.4102Y-2.7972
X5.4102Y-2.2732
X5.1583Y-3.7331
X4.5429Y-4.6197
X5.1661Y-2.2732
X4.5441Y-4.0118
X5.1583Y-4.3358
X4.552Y-2.5508
X5.3894Y-3.7331
T5
X5.2807Y-4.7063
X5.3339Y-1.926
X5.3181Y-3.3059
T0
M30
