G04 #@! TF.GenerationSoftware,KiCad,Pcbnew,(5.1.5)-3*
G04 #@! TF.CreationDate,2020-09-25T18:54:32-03:00*
G04 #@! TF.ProjectId,Gate_Driver_V2,47617465-5f44-4726-9976-65725f56322e,rev?*
G04 #@! TF.SameCoordinates,Original*
G04 #@! TF.FileFunction,Soldermask,Bot*
G04 #@! TF.FilePolarity,Negative*
%FSLAX46Y46*%
G04 Gerber Fmt 4.6, Leading zero omitted, Abs format (unit mm)*
G04 Created by KiCad (PCBNEW (5.1.5)-3) date 2020-09-25 18:54:32*
%MOMM*%
%LPD*%
G04 APERTURE LIST*
%ADD10C,3.200000*%
%ADD11C,2.000000*%
%ADD12C,9.000000*%
%ADD13O,1.700000X1.700000*%
%ADD14R,1.700000X1.700000*%
%ADD15C,3.800000*%
%ADD16O,4.500000X2.500000*%
%ADD17R,4.500000X2.500000*%
G04 APERTURE END LIST*
D10*
X34620000Y-118900000D03*
X108810000Y-119050000D03*
X34570000Y-49990000D03*
X117890000Y-45030000D03*
D11*
X58928000Y-112014000D03*
X58674000Y-50038000D03*
X55330000Y-112050000D03*
X54880000Y-50030000D03*
X62484000Y-112014000D03*
X62484000Y-50090000D03*
X88590000Y-115810000D03*
X86200000Y-49110000D03*
D12*
X134130000Y-119540000D03*
X135480000Y-48920000D03*
D11*
X75440000Y-105850000D03*
X75170000Y-54180000D03*
X92310000Y-115780000D03*
X89880000Y-49090000D03*
X81250000Y-115650000D03*
X78890000Y-49200000D03*
X75610000Y-82420000D03*
X75440000Y-110950000D03*
X84890000Y-115740000D03*
X82580000Y-49170000D03*
X77550000Y-115570000D03*
X75100000Y-49100000D03*
D13*
X47256222Y-51156000D03*
D14*
X47256222Y-48616000D03*
D15*
X131020000Y-110130000D03*
X137420000Y-71050000D03*
X131020000Y-94820000D03*
X137420000Y-57740000D03*
D16*
X124290000Y-106940000D03*
X124290000Y-112390000D03*
D17*
X124290000Y-117840000D03*
D16*
X124290000Y-68700000D03*
X124290000Y-74150000D03*
D17*
X124290000Y-79600000D03*
D16*
X124290000Y-89380000D03*
X124290000Y-94830000D03*
D17*
X124290000Y-100280000D03*
D16*
X124290000Y-50870000D03*
X124290000Y-56320000D03*
D17*
X124290000Y-61770000D03*
D12*
X135080000Y-83970000D03*
D13*
X99090000Y-51830000D03*
X99090000Y-49290000D03*
X96550000Y-51830000D03*
D14*
X96550000Y-49290000D03*
D13*
X43688000Y-48666000D03*
D14*
X43688000Y-51206000D03*
D13*
X40132000Y-48666000D03*
D14*
X40132000Y-51206000D03*
D13*
X50886666Y-51156000D03*
D14*
X50886666Y-48616000D03*
D15*
X115610000Y-80000000D03*
X115620000Y-64790000D03*
D13*
X45212000Y-109140000D03*
D14*
X45212000Y-111680000D03*
D13*
X48768000Y-109140000D03*
D14*
X48768000Y-111680000D03*
D13*
X80900000Y-106330000D03*
D14*
X83440000Y-106330000D03*
X83520000Y-78300000D03*
D13*
X80980000Y-78300000D03*
D15*
X115390000Y-117340000D03*
X115420000Y-101900000D03*
D14*
X36576000Y-63500000D03*
D13*
X34036000Y-63500000D03*
X36576000Y-66040000D03*
X34036000Y-66040000D03*
X36576000Y-68580000D03*
X34036000Y-68580000D03*
X36576000Y-71120000D03*
X34036000Y-71120000D03*
X36576000Y-73660000D03*
X34036000Y-73660000D03*
X36576000Y-76200000D03*
X34036000Y-76200000D03*
X36576000Y-78740000D03*
X34036000Y-78740000D03*
X36576000Y-81280000D03*
X34036000Y-81280000D03*
X36576000Y-83820000D03*
X34036000Y-83820000D03*
X36576000Y-86360000D03*
X34036000Y-86360000D03*
X36576000Y-88900000D03*
X34036000Y-88900000D03*
X36576000Y-91440000D03*
X34036000Y-91440000D03*
X36576000Y-93980000D03*
X34036000Y-93980000D03*
X36576000Y-99568000D03*
X34036000Y-99568000D03*
X36576000Y-102108000D03*
D14*
X34036000Y-102108000D03*
D15*
X136890000Y-110130000D03*
X131220000Y-71050000D03*
X136890000Y-94820000D03*
X131220000Y-57740000D03*
M02*
