<?xml version="1.0" standalone="no"?>
 <!DOCTYPE svg PUBLIC "-//W3C//DTD SVG 1.1//EN" 
 "http://www.w3.org/Graphics/SVG/1.1/DTD/svg11.dtd"> 
<svg
  xmlns:svg="http://www.w3.org/2000/svg"
  xmlns="http://www.w3.org/2000/svg"
  xmlns:xlink="http://www.w3.org/1999/xlink"
  version="1.1"
  width="3.822700cm" height="2.679700cm" viewBox="0 0 15050 10550">
<title>SVG Picture created as circuito_acs712-brd.svg date 2021/01/20 16:06:37 </title>
  <desc>Picture generated by PCBNEW </desc>
<g style="fill:#000000; fill-opacity:1;stroke:#000000; stroke-opacity:1;
stroke-linecap:round; stroke-linejoin:round;"
 transform="translate(0 0) scale(1 1)">
</g>
<g style="fill:#000000; fill-opacity:0.0; 
stroke:#000000; stroke-width:-0.000393701; stroke-opacity:1; 
stroke-linecap:round; stroke-linejoin:round;">
<g >
</g>
<g style="fill:#000000; fill-opacity:0.0; 
stroke:#000000; stroke-width:0; stroke-opacity:1; 
stroke-linecap:round; stroke-linejoin:round;">
</g>
<g style="fill:#000000; fill-opacity:1.0; 
stroke:#000000; stroke-width:0; stroke-opacity:1; 
stroke-linecap:round; stroke-linejoin:round;">
<path style="fill:#000000; fill-opacity:1.0; 
stroke:#000000; stroke-width:0; stroke-opacity:1; 
stroke-linecap:round; stroke-linejoin:round;fill-rule:evenodd;"
d="M 8237.6,4869.57
8247.16,4870.99
8256.52,4873.33
8265.62,4876.59
8274.35,4880.72
8282.64,4885.68
8290.39,4891.44
8297.55,4897.92
8304.04,4905.08
8309.79,4912.84
8314.76,4921.12
8318.89,4929.85
8322.14,4938.95
8324.49,4948.32
8325.9,4957.87
8326.38,4967.52
8326.38,5341.54
8325.9,5351.18
8324.49,5360.74
8322.14,5370.11
8318.89,5379.2
8314.76,5387.93
8309.79,5396.22
8304.04,5403.98
8297.55,5411.13
8290.39,5417.62
8282.64,5423.37
8274.35,5428.34
8265.62,5432.47
8256.52,5435.72
8247.16,5438.07
8237.6,5439.49
8227.95,5439.96
8031.1,5439.96
8021.46,5439.49
8011.9,5438.07
8002.53,5435.72
7993.44,5432.47
7984.71,5428.34
7976.42,5423.37
7968.66,5417.62
7961.51,5411.13
7955.02,5403.98
7949.27,5396.22
7944.3,5387.93
7940.17,5379.2
7936.92,5370.11
7934.57,5360.74
7933.15,5351.18
7932.68,5341.54
7932.68,4967.52
7933.15,4957.87
7934.57,4948.32
7936.92,4938.95
7940.17,4929.85
7944.3,4921.12
7949.27,4912.84
7955.02,4905.08
7961.51,4897.92
7968.66,4891.44
7976.42,4885.68
7984.71,4880.72
7993.44,4876.59
8002.53,4873.33
8011.9,4870.99
8021.46,4869.57
8031.1,4869.09
8227.95,4869.09
Z" /> 
<path style="fill:#000000; fill-opacity:1.0; 
stroke:#000000; stroke-width:0; stroke-opacity:1; 
stroke-linecap:round; stroke-linejoin:round;fill-rule:evenodd;"
d="M 8985.63,4869.57
8995.19,4870.99
9004.56,4873.33
9013.65,4876.59
9022.38,4880.72
9030.67,4885.68
9038.42,4891.44
9045.58,4897.92
9052.07,4905.08
9057.82,4912.84
9062.79,4921.12
9066.92,4929.85
9070.17,4938.95
9072.52,4948.32
9073.94,4957.87
9074.41,4967.52
9074.41,5341.54
9073.94,5351.18
9072.52,5360.74
9070.17,5370.11
9066.92,5379.2
9062.79,5387.93
9057.82,5396.22
9052.07,5403.98
9045.58,5411.13
9038.42,5417.62
9030.67,5423.37
9022.38,5428.34
9013.65,5432.47
9004.56,5435.72
8995.19,5438.07
8985.63,5439.49
8975.98,5439.96
8779.13,5439.96
8769.49,5439.49
8759.93,5438.07
8750.56,5435.72
8741.47,5432.47
8732.74,5428.34
8724.45,5423.37
8716.69,5417.62
8709.54,5411.13
8703.05,5403.98
8697.3,5396.22
8692.33,5387.93
8688.2,5379.2
8684.95,5370.11
8682.6,5360.74
8681.18,5351.18
8680.71,5341.54
8680.71,4967.52
8681.18,4957.87
8682.6,4948.32
8684.95,4938.95
8688.2,4929.85
8692.33,4921.12
8697.3,4912.84
8703.05,4905.08
8709.54,4897.92
8716.69,4891.44
8724.45,4885.68
8732.74,4880.72
8741.47,4876.59
8750.56,4873.33
8759.93,4870.99
8769.49,4869.57
8779.13,4869.09
8975.98,4869.09
Z" /> 
</g>
<g >
</g>
<g style="fill:#000000; fill-opacity:1.0; 
stroke:#000000; stroke-width:0; stroke-opacity:1; 
stroke-linecap:round; stroke-linejoin:round;">
<path style="fill:#000000; fill-opacity:1.0; 
stroke:#000000; stroke-width:0; stroke-opacity:1; 
stroke-linecap:round; stroke-linejoin:round;fill-rule:evenodd;"
d="M 8287.6,8144.57
8297.16,8145.99
8306.52,8148.33
8315.62,8151.59
8324.35,8155.72
8332.64,8160.68
8340.39,8166.44
8347.55,8172.92
8354.04,8180.08
8359.79,8187.84
8364.76,8196.12
8368.89,8204.85
8372.14,8213.95
8374.49,8223.32
8375.9,8232.87
8376.38,8242.52
8376.38,8616.54
8375.9,8626.18
8374.49,8635.74
8372.14,8645.11
8368.89,8654.2
8364.76,8662.93
8359.79,8671.22
8354.04,8678.98
8347.55,8686.13
8340.39,8692.62
8332.64,8698.37
8324.35,8703.34
8315.62,8707.47
8306.52,8710.72
8297.16,8713.07
8287.6,8714.49
8277.95,8714.96
8081.1,8714.96
8071.46,8714.49
8061.9,8713.07
8052.53,8710.72
8043.44,8707.47
8034.71,8703.34
8026.42,8698.37
8018.66,8692.62
8011.51,8686.13
8005.02,8678.98
7999.27,8671.22
7994.3,8662.93
7990.17,8654.2
7986.92,8645.11
7984.57,8635.74
7983.15,8626.18
7982.68,8616.54
7982.68,8242.52
7983.15,8232.87
7984.57,8223.32
7986.92,8213.95
7990.17,8204.85
7994.3,8196.12
7999.27,8187.84
8005.02,8180.08
8011.51,8172.92
8018.66,8166.44
8026.42,8160.68
8034.71,8155.72
8043.44,8151.59
8052.53,8148.33
8061.9,8145.99
8071.46,8144.57
8081.1,8144.09
8277.95,8144.09
Z" /> 
<path style="fill:#000000; fill-opacity:1.0; 
stroke:#000000; stroke-width:0; stroke-opacity:1; 
stroke-linecap:round; stroke-linejoin:round;fill-rule:evenodd;"
d="M 9035.63,8144.57
9045.19,8145.99
9054.56,8148.33
9063.65,8151.59
9072.38,8155.72
9080.67,8160.68
9088.42,8166.44
9095.58,8172.92
9102.07,8180.08
9107.82,8187.84
9112.79,8196.12
9116.92,8204.85
9120.17,8213.95
9122.52,8223.32
9123.94,8232.87
9124.41,8242.52
9124.41,8616.54
9123.94,8626.18
9122.52,8635.74
9120.17,8645.11
9116.92,8654.2
9112.79,8662.93
9107.82,8671.22
9102.07,8678.98
9095.58,8686.13
9088.42,8692.62
9080.67,8698.37
9072.38,8703.34
9063.65,8707.47
9054.56,8710.72
9045.19,8713.07
9035.63,8714.49
9025.98,8714.96
8829.13,8714.96
8819.49,8714.49
8809.93,8713.07
8800.56,8710.72
8791.47,8707.47
8782.74,8703.34
8774.45,8698.37
8766.69,8692.62
8759.54,8686.13
8753.05,8678.98
8747.3,8671.22
8742.33,8662.93
8738.2,8654.2
8734.95,8645.11
8732.6,8635.74
8731.18,8626.18
8730.71,8616.54
8730.71,8242.52
8731.18,8232.87
8732.6,8223.32
8734.95,8213.95
8738.2,8204.85
8742.33,8196.12
8747.3,8187.84
8753.05,8180.08
8759.54,8172.92
8766.69,8166.44
8774.45,8160.68
8782.74,8155.72
8791.47,8151.59
8800.56,8148.33
8809.93,8145.99
8819.49,8144.57
8829.13,8144.09
9025.98,8144.09
Z" /> 
</g>
<g >
</g>
<g style="fill:#000000; fill-opacity:1.0; 
stroke:#000000; stroke-width:0; stroke-opacity:1; 
stroke-linecap:round; stroke-linejoin:round;">
<path style="fill:#000000; fill-opacity:1.0; 
stroke:#000000; stroke-width:0; stroke-opacity:1; 
stroke-linecap:round; stroke-linejoin:round;fill-rule:evenodd;"
d="M 3645.08,4545.08
2463.98,4545.08
2463.98,3363.98
3645.08,3363.98
Z" /> 
<circle cx="3054.53" cy="1936.02" r="590.551" /> 
</g>
<g style="fill:#000000; fill-opacity:1.0; 
stroke:#000000; stroke-width:39.3701; stroke-opacity:1; 
stroke-linecap:round; stroke-linejoin:round;">
</g>
<g style="fill:#000000; fill-opacity:1.0; 
stroke:#000000; stroke-width:0; stroke-opacity:1; 
stroke-linecap:round; stroke-linejoin:round;">
<circle cx="4354.53" cy="3954.53" r="492.126" /> 
</g>
<g style="fill:#000000; fill-opacity:1.0; 
stroke:#000000; stroke-width:39.3701; stroke-opacity:1; 
stroke-linecap:round; stroke-linejoin:round;">
</g>
<g style="fill:#000000; fill-opacity:1.0; 
stroke:#000000; stroke-width:0; stroke-opacity:1; 
stroke-linecap:round; stroke-linejoin:round;">
<circle cx="4354.53" cy="1934.53" r="492.126" /> 
</g>
<g style="fill:#000000; fill-opacity:1.0; 
stroke:#000000; stroke-width:39.3701; stroke-opacity:1; 
stroke-linecap:round; stroke-linejoin:round;">
</g>
<g >
</g>
<g style="fill:#000000; fill-opacity:1.0; 
stroke:#000000; stroke-width:39.3701; stroke-opacity:1; 
stroke-linecap:round; stroke-linejoin:round;">
</g>
<g style="fill:#000000; fill-opacity:1.0; 
stroke:#000000; stroke-width:0; stroke-opacity:1; 
stroke-linecap:round; stroke-linejoin:round;">
<circle cx="10879.5" cy="6831.02" r="492.126" /> 
</g>
<g style="fill:#000000; fill-opacity:1.0; 
stroke:#000000; stroke-width:39.3701; stroke-opacity:1; 
stroke-linecap:round; stroke-linejoin:round;">
</g>
<g style="fill:#000000; fill-opacity:1.0; 
stroke:#000000; stroke-width:0; stroke-opacity:1; 
stroke-linecap:round; stroke-linejoin:round;">
<circle cx="10879.5" cy="4811.02" r="492.126" /> 
</g>
<g style="fill:#000000; fill-opacity:1.0; 
stroke:#000000; stroke-width:39.3701; stroke-opacity:1; 
stroke-linecap:round; stroke-linejoin:round;">
</g>
<g style="fill:#000000; fill-opacity:1.0; 
stroke:#000000; stroke-width:0; stroke-opacity:1; 
stroke-linecap:round; stroke-linejoin:round;">
<circle cx="12179.5" cy="6829.53" r="590.551" /> 
</g>
<g style="fill:#000000; fill-opacity:1.0; 
stroke:#000000; stroke-width:39.3701; stroke-opacity:1; 
stroke-linecap:round; stroke-linejoin:round;">
</g>
<g style="fill:#000000; fill-opacity:1.0; 
stroke:#000000; stroke-width:0; stroke-opacity:1; 
stroke-linecap:round; stroke-linejoin:round;">
<path style="fill:#000000; fill-opacity:1.0; 
stroke:#000000; stroke-width:0; stroke-opacity:1; 
stroke-linecap:round; stroke-linejoin:round;fill-rule:evenodd;"
d="M 11589,4220.47
12770.1,4220.47
12770.1,5401.58
11589,5401.58
Z" /> 
</g>
<g >
</g>
<g style="fill:#000000; fill-opacity:1.0; 
stroke:#000000; stroke-width:0; stroke-opacity:1; 
stroke-linecap:round; stroke-linejoin:round;">
<path style="fill:#000000; fill-opacity:1.0; 
stroke:#000000; stroke-width:0; stroke-opacity:1; 
stroke-linecap:round; stroke-linejoin:round;fill-rule:evenodd;"
d="M 7041.34,8796.73
7050.9,8798.15
7060.26,8800.5
7069.36,8803.75
7078.09,8807.88
7086.38,8812.85
7094.13,8818.6
7101.29,8825.09
7107.78,8832.24
7113.53,8840
7118.5,8848.29
7122.63,8857.02
7125.88,8866.11
7128.23,8875.48
7129.64,8885.04
7130.12,8894.69
7130.12,9101.38
7129.64,9111.03
7128.23,9120.58
7125.88,9129.95
7122.63,9139.04
7118.5,9147.78
7113.53,9156.06
7107.78,9163.82
7101.29,9170.98
7094.13,9177.46
7086.38,9183.22
7078.09,9188.18
7069.36,9192.31
7060.26,9195.57
7050.9,9197.91
7041.34,9199.33
7031.69,9199.8
6677.36,9199.8
6667.71,9199.33
6658.16,9197.91
6648.79,9195.57
6639.7,9192.31
6630.96,9188.18
6622.68,9183.22
6614.92,9177.46
6607.77,9170.98
6601.28,9163.82
6595.52,9156.06
6590.56,9147.78
6586.43,9139.04
6583.18,9129.95
6580.83,9120.58
6579.41,9111.03
6578.94,9101.38
6578.94,8894.69
6579.41,8885.04
6580.83,8875.48
6583.18,8866.11
6586.43,8857.02
6590.56,8848.29
6595.52,8840
6601.28,8832.24
6607.77,8825.09
6614.92,8818.6
6622.68,8812.85
6630.96,8807.88
6639.7,8803.75
6648.79,8800.5
6658.16,8798.15
6667.71,8796.73
6677.36,8796.26
7031.69,8796.26
Z" /> 
<path style="fill:#000000; fill-opacity:1.0; 
stroke:#000000; stroke-width:0; stroke-opacity:1; 
stroke-linecap:round; stroke-linejoin:round;fill-rule:evenodd;"
d="M 7041.34,8078.23
7050.9,8079.65
7060.26,8081.99
7069.36,8085.25
7078.09,8089.38
7086.38,8094.34
7094.13,8100.1
7101.29,8106.58
7107.78,8113.74
7113.53,8121.5
7118.5,8129.78
7122.63,8138.52
7125.88,8147.61
7128.23,8156.98
7129.64,8166.53
7130.12,8176.18
7130.12,8382.87
7129.64,8392.52
7128.23,8402.08
7125.88,8411.45
7122.63,8420.54
7118.5,8429.27
7113.53,8437.56
7107.78,8445.31
7101.29,8452.47
7094.13,8458.96
7086.38,8464.71
7078.09,8469.68
7069.36,8473.81
7060.26,8477.06
7050.9,8479.41
7041.34,8480.83
7031.69,8481.3
6677.36,8481.3
6667.71,8480.83
6658.16,8479.41
6648.79,8477.06
6639.7,8473.81
6630.96,8469.68
6622.68,8464.71
6614.92,8458.96
6607.77,8452.47
6601.28,8445.31
6595.52,8437.56
6590.56,8429.27
6586.43,8420.54
6583.18,8411.45
6580.83,8402.08
6579.41,8392.52
6578.94,8382.87
6578.94,8176.18
6579.41,8166.53
6580.83,8156.98
6583.18,8147.61
6586.43,8138.52
6590.56,8129.78
6595.52,8121.5
6601.28,8113.74
6607.77,8106.58
6614.92,8100.1
6622.68,8094.34
6630.96,8089.38
6639.7,8085.25
6648.79,8081.99
6658.16,8079.65
6667.71,8078.23
6677.36,8077.76
7031.69,8077.76
Z" /> 
</g>
<g >
</g>
<g style="fill:#000000; fill-opacity:1.0; 
stroke:#000000; stroke-width:0; stroke-opacity:1; 
stroke-linecap:round; stroke-linejoin:round;">
<path style="fill:#000000; fill-opacity:1.0; 
stroke:#000000; stroke-width:0; stroke-opacity:1; 
stroke-linecap:round; stroke-linejoin:round;fill-rule:evenodd;"
d="M 7041.34,7246.73
7050.9,7248.15
7060.26,7250.5
7069.36,7253.75
7078.09,7257.88
7086.38,7262.85
7094.13,7268.6
7101.29,7275.09
7107.78,7282.24
7113.53,7290
7118.5,7298.29
7122.63,7307.02
7125.88,7316.11
7128.23,7325.48
7129.64,7335.04
7130.12,7344.69
7130.12,7551.38
7129.64,7561.03
7128.23,7570.58
7125.88,7579.95
7122.63,7589.04
7118.5,7597.78
7113.53,7606.06
7107.78,7613.82
7101.29,7620.98
7094.13,7627.46
7086.38,7633.22
7078.09,7638.18
7069.36,7642.31
7060.26,7645.57
7050.9,7647.91
7041.34,7649.33
7031.69,7649.8
6677.36,7649.8
6667.71,7649.33
6658.16,7647.91
6648.79,7645.57
6639.7,7642.31
6630.96,7638.18
6622.68,7633.22
6614.92,7627.46
6607.77,7620.98
6601.28,7613.82
6595.52,7606.06
6590.56,7597.78
6586.43,7589.04
6583.18,7579.95
6580.83,7570.58
6579.41,7561.03
6578.94,7551.38
6578.94,7344.69
6579.41,7335.04
6580.83,7325.48
6583.18,7316.11
6586.43,7307.02
6590.56,7298.29
6595.52,7290
6601.28,7282.24
6607.77,7275.09
6614.92,7268.6
6622.68,7262.85
6630.96,7257.88
6639.7,7253.75
6648.79,7250.5
6658.16,7248.15
6667.71,7246.73
6677.36,7246.26
7031.69,7246.26
Z" /> 
<path style="fill:#000000; fill-opacity:1.0; 
stroke:#000000; stroke-width:0; stroke-opacity:1; 
stroke-linecap:round; stroke-linejoin:round;fill-rule:evenodd;"
d="M 7041.34,6528.23
7050.9,6529.65
7060.26,6531.99
7069.36,6535.25
7078.09,6539.38
7086.38,6544.34
7094.13,6550.1
7101.29,6556.58
7107.78,6563.74
7113.53,6571.5
7118.5,6579.78
7122.63,6588.52
7125.88,6597.61
7128.23,6606.98
7129.64,6616.53
7130.12,6626.18
7130.12,6832.87
7129.64,6842.52
7128.23,6852.08
7125.88,6861.45
7122.63,6870.54
7118.5,6879.27
7113.53,6887.56
7107.78,6895.31
7101.29,6902.47
7094.13,6908.96
7086.38,6914.71
7078.09,6919.68
7069.36,6923.81
7060.26,6927.06
7050.9,6929.41
7041.34,6930.83
7031.69,6931.3
6677.36,6931.3
6667.71,6930.83
6658.16,6929.41
6648.79,6927.06
6639.7,6923.81
6630.96,6919.68
6622.68,6914.71
6614.92,6908.96
6607.77,6902.47
6601.28,6895.31
6595.52,6887.56
6590.56,6879.27
6586.43,6870.54
6583.18,6861.45
6580.83,6852.08
6579.41,6842.52
6578.94,6832.87
6578.94,6626.18
6579.41,6616.53
6580.83,6606.98
6583.18,6597.61
6586.43,6588.52
6590.56,6579.78
6595.52,6571.5
6601.28,6563.74
6607.77,6556.58
6614.92,6550.1
6622.68,6544.34
6630.96,6539.38
6639.7,6535.25
6648.79,6531.99
6658.16,6529.65
6667.71,6528.23
6677.36,6527.76
7031.69,6527.76
Z" /> 
</g>
<g >
</g>
<g style="fill:#000000; fill-opacity:1.0; 
stroke:#000000; stroke-width:0; stroke-opacity:1; 
stroke-linecap:round; stroke-linejoin:round;">
<path style="fill:#000000; fill-opacity:1.0; 
stroke:#000000; stroke-width:0; stroke-opacity:1; 
stroke-linecap:round; stroke-linejoin:round;fill-rule:evenodd;"
d="M 7041.34,4953.23
7050.9,4954.65
7060.26,4956.99
7069.36,4960.25
7078.09,4964.38
7086.38,4969.34
7094.13,4975.1
7101.29,4981.58
7107.78,4988.74
7113.53,4996.5
7118.5,5004.78
7122.63,5013.52
7125.88,5022.61
7128.23,5031.98
7129.64,5041.53
7130.12,5051.18
7130.12,5257.87
7129.64,5267.52
7128.23,5277.08
7125.88,5286.45
7122.63,5295.54
7118.5,5304.27
7113.53,5312.56
7107.78,5320.31
7101.29,5327.47
7094.13,5333.96
7086.38,5339.71
7078.09,5344.68
7069.36,5348.81
7060.26,5352.06
7050.9,5354.41
7041.34,5355.83
7031.69,5356.3
6677.36,5356.3
6667.71,5355.83
6658.16,5354.41
6648.79,5352.06
6639.7,5348.81
6630.96,5344.68
6622.68,5339.71
6614.92,5333.96
6607.77,5327.47
6601.28,5320.31
6595.52,5312.56
6590.56,5304.27
6586.43,5295.54
6583.18,5286.45
6580.83,5277.08
6579.41,5267.52
6578.94,5257.87
6578.94,5051.18
6579.41,5041.53
6580.83,5031.98
6583.18,5022.61
6586.43,5013.52
6590.56,5004.78
6595.52,4996.5
6601.28,4988.74
6607.77,4981.58
6614.92,4975.1
6622.68,4969.34
6630.96,4964.38
6639.7,4960.25
6648.79,4956.99
6658.16,4954.65
6667.71,4953.23
6677.36,4952.76
7031.69,4952.76
Z" /> 
<path style="fill:#000000; fill-opacity:1.0; 
stroke:#000000; stroke-width:0; stroke-opacity:1; 
stroke-linecap:round; stroke-linejoin:round;fill-rule:evenodd;"
d="M 7041.34,5671.73
7050.9,5673.15
7060.26,5675.5
7069.36,5678.75
7078.09,5682.88
7086.38,5687.85
7094.13,5693.6
7101.29,5700.09
7107.78,5707.24
7113.53,5715
7118.5,5723.29
7122.63,5732.02
7125.88,5741.11
7128.23,5750.48
7129.64,5760.04
7130.12,5769.69
7130.12,5976.38
7129.64,5986.03
7128.23,5995.58
7125.88,6004.95
7122.63,6014.04
7118.5,6022.78
7113.53,6031.06
7107.78,6038.82
7101.29,6045.98
7094.13,6052.46
7086.38,6058.22
7078.09,6063.18
7069.36,6067.31
7060.26,6070.57
7050.9,6072.91
7041.34,6074.33
7031.69,6074.8
6677.36,6074.8
6667.71,6074.33
6658.16,6072.91
6648.79,6070.57
6639.7,6067.31
6630.96,6063.18
6622.68,6058.22
6614.92,6052.46
6607.77,6045.98
6601.28,6038.82
6595.52,6031.06
6590.56,6022.78
6586.43,6014.04
6583.18,6004.95
6580.83,5995.58
6579.41,5986.03
6578.94,5976.38
6578.94,5769.69
6579.41,5760.04
6580.83,5750.48
6583.18,5741.11
6586.43,5732.02
6590.56,5723.29
6595.52,5715
6601.28,5707.24
6607.77,5700.09
6614.92,5693.6
6622.68,5687.85
6630.96,5682.88
6639.7,5678.75
6648.79,5675.5
6658.16,5673.15
6667.71,5671.73
6677.36,5671.26
7031.69,5671.26
Z" /> 
</g>
<g >
</g>
<g style="fill:#000000; fill-opacity:1.0; 
stroke:#000000; stroke-width:0; stroke-opacity:1; 
stroke-linecap:round; stroke-linejoin:round;">
<path style="fill:#000000; fill-opacity:1.0; 
stroke:#000000; stroke-width:0; stroke-opacity:1; 
stroke-linecap:round; stroke-linejoin:round;fill-rule:evenodd;"
d="M 8660.71,1236.7
8666.44,1237.55
8672.06,1238.96
8677.52,1240.91
8682.76,1243.39
8687.73,1246.37
8692.39,1249.82
8696.68,1253.71
8700.57,1258.01
8704.02,1262.66
8707,1267.63
8709.48,1272.87
8711.43,1278.33
8712.84,1283.95
8713.69,1289.68
8713.98,1295.47
8713.98,1413.58
8713.69,1419.37
8712.84,1425.1
8711.43,1430.73
8709.48,1436.18
8707,1441.42
8704.02,1446.39
8700.57,1451.05
8696.68,1455.34
8692.39,1459.23
8687.73,1462.69
8682.76,1465.66
8677.52,1468.14
8672.06,1470.1
8666.44,1471.5
8660.71,1472.35
8654.92,1472.64
8005.32,1472.64
7999.53,1472.35
7993.79,1471.5
7988.17,1470.1
7982.72,1468.14
7977.48,1465.66
7972.51,1462.69
7967.85,1459.23
7963.56,1455.34
7959.66,1451.05
7956.21,1446.39
7953.23,1441.42
7950.76,1436.18
7948.8,1430.73
7947.39,1425.1
7946.54,1419.37
7946.26,1413.58
7946.26,1295.47
7946.54,1289.68
7947.39,1283.95
7948.8,1278.33
7950.76,1272.87
7953.23,1267.63
7956.21,1262.66
7959.66,1258.01
7963.56,1253.71
7967.85,1249.82
7972.51,1246.37
7977.48,1243.39
7982.72,1240.91
7988.17,1238.96
7993.79,1237.55
7999.53,1236.7
8005.32,1236.42
8654.92,1236.42
Z" /> 
<path style="fill:#000000; fill-opacity:1.0; 
stroke:#000000; stroke-width:0; stroke-opacity:1; 
stroke-linecap:round; stroke-linejoin:round;fill-rule:evenodd;"
d="M 8660.71,1736.7
8666.44,1737.55
8672.06,1738.96
8677.52,1740.91
8682.76,1743.39
8687.73,1746.37
8692.39,1749.82
8696.68,1753.71
8700.57,1758.01
8704.02,1762.66
8707,1767.63
8709.48,1772.87
8711.43,1778.33
8712.84,1783.95
8713.69,1789.68
8713.98,1795.47
8713.98,1913.58
8713.69,1919.37
8712.84,1925.1
8711.43,1930.73
8709.48,1936.18
8707,1941.42
8704.02,1946.39
8700.57,1951.05
8696.68,1955.34
8692.39,1959.23
8687.73,1962.69
8682.76,1965.66
8677.52,1968.14
8672.06,1970.1
8666.44,1971.5
8660.71,1972.35
8654.92,1972.64
8005.32,1972.64
7999.53,1972.35
7993.79,1971.5
7988.17,1970.1
7982.72,1968.14
7977.48,1965.66
7972.51,1962.69
7967.85,1959.23
7963.56,1955.34
7959.66,1951.05
7956.21,1946.39
7953.23,1941.42
7950.76,1936.18
7948.8,1930.73
7947.39,1925.1
7946.54,1919.37
7946.26,1913.58
7946.26,1795.47
7946.54,1789.68
7947.39,1783.95
7948.8,1778.33
7950.76,1772.87
7953.23,1767.63
7956.21,1762.66
7959.66,1758.01
7963.56,1753.71
7967.85,1749.82
7972.51,1746.37
7977.48,1743.39
7982.72,1740.91
7988.17,1738.96
7993.79,1737.55
7999.53,1736.7
8005.32,1736.42
8654.92,1736.42
Z" /> 
<path style="fill:#000000; fill-opacity:1.0; 
stroke:#000000; stroke-width:0; stroke-opacity:1; 
stroke-linecap:round; stroke-linejoin:round;fill-rule:evenodd;"
d="M 8660.71,2236.7
8666.44,2237.55
8672.06,2238.96
8677.52,2240.91
8682.76,2243.39
8687.73,2246.37
8692.39,2249.82
8696.68,2253.71
8700.57,2258.01
8704.02,2262.66
8707,2267.63
8709.48,2272.87
8711.43,2278.33
8712.84,2283.95
8713.69,2289.68
8713.98,2295.47
8713.98,2413.58
8713.69,2419.37
8712.84,2425.1
8711.43,2430.73
8709.48,2436.18
8707,2441.42
8704.02,2446.39
8700.57,2451.05
8696.68,2455.34
8692.39,2459.23
8687.73,2462.69
8682.76,2465.66
8677.52,2468.14
8672.06,2470.1
8666.44,2471.5
8660.71,2472.35
8654.92,2472.64
8005.32,2472.64
7999.53,2472.35
7993.79,2471.5
7988.17,2470.1
7982.72,2468.14
7977.48,2465.66
7972.51,2462.69
7967.85,2459.23
7963.56,2455.34
7959.66,2451.05
7956.21,2446.39
7953.23,2441.42
7950.76,2436.18
7948.8,2430.73
7947.39,2425.1
7946.54,2419.37
7946.26,2413.58
7946.26,2295.47
7946.54,2289.68
7947.39,2283.95
7948.8,2278.33
7950.76,2272.87
7953.23,2267.63
7956.21,2262.66
7959.66,2258.01
7963.56,2253.71
7967.85,2249.82
7972.51,2246.37
7977.48,2243.39
7982.72,2240.91
7988.17,2238.96
7993.79,2237.55
7999.53,2236.7
8005.32,2236.42
8654.92,2236.42
Z" /> 
<path style="fill:#000000; fill-opacity:1.0; 
stroke:#000000; stroke-width:0; stroke-opacity:1; 
stroke-linecap:round; stroke-linejoin:round;fill-rule:evenodd;"
d="M 8660.71,2736.7
8666.44,2737.55
8672.06,2738.96
8677.52,2740.91
8682.76,2743.39
8687.73,2746.37
8692.39,2749.82
8696.68,2753.71
8700.57,2758.01
8704.02,2762.66
8707,2767.63
8709.48,2772.87
8711.43,2778.33
8712.84,2783.95
8713.69,2789.68
8713.98,2795.47
8713.98,2913.58
8713.69,2919.37
8712.84,2925.1
8711.43,2930.73
8709.48,2936.18
8707,2941.42
8704.02,2946.39
8700.57,2951.05
8696.68,2955.34
8692.39,2959.23
8687.73,2962.69
8682.76,2965.66
8677.52,2968.14
8672.06,2970.1
8666.44,2971.5
8660.71,2972.35
8654.92,2972.64
8005.32,2972.64
7999.53,2972.35
7993.79,2971.5
7988.17,2970.1
7982.72,2968.14
7977.48,2965.66
7972.51,2962.69
7967.85,2959.23
7963.56,2955.34
7959.66,2951.05
7956.21,2946.39
7953.23,2941.42
7950.76,2936.18
7948.8,2930.73
7947.39,2925.1
7946.54,2919.37
7946.26,2913.58
7946.26,2795.47
7946.54,2789.68
7947.39,2783.95
7948.8,2778.33
7950.76,2772.87
7953.23,2767.63
7956.21,2762.66
7959.66,2758.01
7963.56,2753.71
7967.85,2749.82
7972.51,2746.37
7977.48,2743.39
7982.72,2740.91
7988.17,2738.96
7993.79,2737.55
7999.53,2736.7
8005.32,2736.42
8654.92,2736.42
Z" /> 
<path style="fill:#000000; fill-opacity:1.0; 
stroke:#000000; stroke-width:0; stroke-opacity:1; 
stroke-linecap:round; stroke-linejoin:round;fill-rule:evenodd;"
d="M 10609.5,2736.7
10615.3,2737.55
10620.9,2738.96
10626.3,2740.91
10631.6,2743.39
10636.5,2746.37
10641.2,2749.82
10645.5,2753.71
10649.4,2758.01
10652.8,2762.66
10655.8,2767.63
10658.3,2772.87
10660.3,2778.33
10661.7,2783.95
10662.5,2789.68
10662.8,2795.47
10662.8,2913.58
10662.5,2919.37
10661.7,2925.1
10660.3,2930.73
10658.3,2936.18
10655.8,2941.42
10652.8,2946.39
10649.4,2951.05
10645.5,2955.34
10641.2,2959.23
10636.5,2962.69
10631.6,2965.66
10626.3,2968.14
10620.9,2970.1
10615.3,2971.5
10609.5,2972.35
10603.7,2972.64
9954.13,2972.64
9948.35,2972.35
9942.61,2971.5
9936.99,2970.1
9931.53,2968.14
9926.3,2965.66
9921.32,2962.69
9916.67,2959.23
9912.38,2955.34
9908.48,2951.05
9905.03,2946.39
9902.05,2941.42
9899.57,2936.18
9897.62,2930.73
9896.21,2925.1
9895.36,2919.37
9895.08,2913.58
9895.08,2795.47
9895.36,2789.68
9896.21,2783.95
9897.62,2778.33
9899.57,2772.87
9902.05,2767.63
9905.03,2762.66
9908.48,2758.01
9912.38,2753.71
9916.67,2749.82
9921.32,2746.37
9926.3,2743.39
9931.53,2740.91
9936.99,2738.96
9942.61,2737.55
9948.35,2736.7
9954.13,2736.42
10603.7,2736.42
Z" /> 
<path style="fill:#000000; fill-opacity:1.0; 
stroke:#000000; stroke-width:0; stroke-opacity:1; 
stroke-linecap:round; stroke-linejoin:round;fill-rule:evenodd;"
d="M 10609.5,2236.7
10615.3,2237.55
10620.9,2238.96
10626.3,2240.91
10631.6,2243.39
10636.5,2246.37
10641.2,2249.82
10645.5,2253.71
10649.4,2258.01
10652.8,2262.66
10655.8,2267.63
10658.3,2272.87
10660.3,2278.33
10661.7,2283.95
10662.5,2289.68
10662.8,2295.47
10662.8,2413.58
10662.5,2419.37
10661.7,2425.1
10660.3,2430.73
10658.3,2436.18
10655.8,2441.42
10652.8,2446.39
10649.4,2451.05
10645.5,2455.34
10641.2,2459.23
10636.5,2462.69
10631.6,2465.66
10626.3,2468.14
10620.9,2470.1
10615.3,2471.5
10609.5,2472.35
10603.7,2472.64
9954.13,2472.64
9948.35,2472.35
9942.61,2471.5
9936.99,2470.1
9931.53,2468.14
9926.3,2465.66
9921.32,2462.69
9916.67,2459.23
9912.38,2455.34
9908.48,2451.05
9905.03,2446.39
9902.05,2441.42
9899.57,2436.18
9897.62,2430.73
9896.21,2425.1
9895.36,2419.37
9895.08,2413.58
9895.08,2295.47
9895.36,2289.68
9896.21,2283.95
9897.62,2278.33
9899.57,2272.87
9902.05,2267.63
9905.03,2262.66
9908.48,2258.01
9912.38,2253.71
9916.67,2249.82
9921.32,2246.37
9926.3,2243.39
9931.53,2240.91
9936.99,2238.96
9942.61,2237.55
9948.35,2236.7
9954.13,2236.42
10603.7,2236.42
Z" /> 
<path style="fill:#000000; fill-opacity:1.0; 
stroke:#000000; stroke-width:0; stroke-opacity:1; 
stroke-linecap:round; stroke-linejoin:round;fill-rule:evenodd;"
d="M 10609.5,1736.7
10615.3,1737.55
10620.9,1738.96
10626.3,1740.91
10631.6,1743.39
10636.5,1746.37
10641.2,1749.82
10645.5,1753.71
10649.4,1758.01
10652.8,1762.66
10655.8,1767.63
10658.3,1772.87
10660.3,1778.33
10661.7,1783.95
10662.5,1789.68
10662.8,1795.47
10662.8,1913.58
10662.5,1919.37
10661.7,1925.1
10660.3,1930.73
10658.3,1936.18
10655.8,1941.42
10652.8,1946.39
10649.4,1951.05
10645.5,1955.34
10641.2,1959.23
10636.5,1962.69
10631.6,1965.66
10626.3,1968.14
10620.9,1970.1
10615.3,1971.5
10609.5,1972.35
10603.7,1972.64
9954.13,1972.64
9948.35,1972.35
9942.61,1971.5
9936.99,1970.1
9931.53,1968.14
9926.3,1965.66
9921.32,1962.69
9916.67,1959.23
9912.38,1955.34
9908.48,1951.05
9905.03,1946.39
9902.05,1941.42
9899.57,1936.18
9897.62,1930.73
9896.21,1925.1
9895.36,1919.37
9895.08,1913.58
9895.08,1795.47
9895.36,1789.68
9896.21,1783.95
9897.62,1778.33
9899.57,1772.87
9902.05,1767.63
9905.03,1762.66
9908.48,1758.01
9912.38,1753.71
9916.67,1749.82
9921.32,1746.37
9926.3,1743.39
9931.53,1740.91
9936.99,1738.96
9942.61,1737.55
9948.35,1736.7
9954.13,1736.42
10603.7,1736.42
Z" /> 
<path style="fill:#000000; fill-opacity:1.0; 
stroke:#000000; stroke-width:0; stroke-opacity:1; 
stroke-linecap:round; stroke-linejoin:round;fill-rule:evenodd;"
d="M 10609.5,1236.7
10615.3,1237.55
10620.9,1238.96
10626.3,1240.91
10631.6,1243.39
10636.5,1246.37
10641.2,1249.82
10645.5,1253.71
10649.4,1258.01
10652.8,1262.66
10655.8,1267.63
10658.3,1272.87
10660.3,1278.33
10661.7,1283.95
10662.5,1289.68
10662.8,1295.47
10662.8,1413.58
10662.5,1419.37
10661.7,1425.1
10660.3,1430.73
10658.3,1436.18
10655.8,1441.42
10652.8,1446.39
10649.4,1451.05
10645.5,1455.34
10641.2,1459.23
10636.5,1462.69
10631.6,1465.66
10626.3,1468.14
10620.9,1470.1
10615.3,1471.5
10609.5,1472.35
10603.7,1472.64
9954.13,1472.64
9948.35,1472.35
9942.61,1471.5
9936.99,1470.1
9931.53,1468.14
9926.3,1465.66
9921.32,1462.69
9916.67,1459.23
9912.38,1455.34
9908.48,1451.05
9905.03,1446.39
9902.05,1441.42
9899.57,1436.18
9897.62,1430.73
9896.21,1425.1
9895.36,1419.37
9895.08,1413.58
9895.08,1295.47
9895.36,1289.68
9896.21,1283.95
9897.62,1278.33
9899.57,1272.87
9902.05,1267.63
9905.03,1262.66
9908.48,1258.01
9912.38,1253.71
9916.67,1249.82
9921.32,1246.37
9926.3,1243.39
9931.53,1240.91
9936.99,1238.96
9942.61,1237.55
9948.35,1236.7
9954.13,1236.42
10603.7,1236.42
Z" /> 
</g>
<g >
</g>
<g style="fill:#000000; fill-opacity:1.0; 
stroke:#000000; stroke-width:0; stroke-opacity:1; 
stroke-linecap:round; stroke-linejoin:round;">
<path style="fill:#000000; fill-opacity:1.0; 
stroke:#000000; stroke-width:0; stroke-opacity:1; 
stroke-linecap:round; stroke-linejoin:round;fill-rule:evenodd;"
d="M 7958.66,6887.99
7958.66,6573.03
8312.99,6573.03
8312.99,6887.99
Z" /> 
<path style="fill:#000000; fill-opacity:1.0; 
stroke:#000000; stroke-width:0; stroke-opacity:1; 
stroke-linecap:round; stroke-linejoin:round;fill-rule:evenodd;"
d="M 7958.66,7636.02
7958.66,7321.06
8312.99,7321.06
8312.99,7636.02
Z" /> 
<path style="fill:#000000; fill-opacity:1.0; 
stroke:#000000; stroke-width:0; stroke-opacity:1; 
stroke-linecap:round; stroke-linejoin:round;fill-rule:evenodd;"
d="M 8746.06,7262.01
8746.06,6947.05
9100.39,6947.05
9100.39,7262.01
Z" /> 
</g>
<g >
</g>
<g style="fill:#000000; fill-opacity:1.0; 
stroke:#000000; stroke-width:0; stroke-opacity:1; 
stroke-linecap:round; stroke-linejoin:round;">
<path style="fill:#000000; fill-opacity:1.0; 
stroke:#000000; stroke-width:0; stroke-opacity:1; 
stroke-linecap:round; stroke-linejoin:round;fill-rule:evenodd;"
d="M 3645.08,9120.08
2463.98,9120.08
2463.98,7938.98
3645.08,7938.98
Z" /> 
<circle cx="3054.53" cy="6511.02" r="590.551" /> 
</g>
<g style="fill:#000000; fill-opacity:1.0; 
stroke:#000000; stroke-width:39.3701; stroke-opacity:1; 
stroke-linecap:round; stroke-linejoin:round;">
</g>
<g style="fill:#000000; fill-opacity:1.0; 
stroke:#000000; stroke-width:0; stroke-opacity:1; 
stroke-linecap:round; stroke-linejoin:round;">
<circle cx="4354.53" cy="8529.53" r="492.126" /> 
</g>
<g style="fill:#000000; fill-opacity:1.0; 
stroke:#000000; stroke-width:39.3701; stroke-opacity:1; 
stroke-linecap:round; stroke-linejoin:round;">
</g>
<g style="fill:#000000; fill-opacity:1.0; 
stroke:#000000; stroke-width:0; stroke-opacity:1; 
stroke-linecap:round; stroke-linejoin:round;">
<circle cx="4354.53" cy="6509.53" r="492.126" /> 
</g>
<g style="fill:#000000; fill-opacity:1.0; 
stroke:#000000; stroke-width:39.3701; stroke-opacity:1; 
stroke-linecap:round; stroke-linejoin:round;">
</g>
<g >
</g>
<g style="fill:#000000; fill-opacity:1.0; 
stroke:#000000; stroke-width:39.3701; stroke-opacity:1; 
stroke-linecap:round; stroke-linejoin:round;">
</g>
<g style="fill:#000000; fill-opacity:1.0; 
stroke:#000000; stroke-width:0; stroke-opacity:1; 
stroke-linecap:round; stroke-linejoin:round;">
<path style="fill:#000000; fill-opacity:1.0; 
stroke:#000000; stroke-width:0; stroke-opacity:1; 
stroke-linecap:round; stroke-linejoin:round;fill-rule:evenodd;"
d="M 6975.59,1585.04
6975.59,2274.02
6483.46,2274.02
6483.46,1585.04
Z" /> 
<path style="fill:#000000; fill-opacity:1.0; 
stroke:#000000; stroke-width:0; stroke-opacity:1; 
stroke-linecap:round; stroke-linejoin:round;fill-rule:evenodd;"
d="M 5873.23,1585.04
5873.23,2274.02
5381.1,2274.02
5381.1,1585.04
Z" /> 
</g>
<g >
</g>
<g style="fill:#000000; fill-opacity:1.0; 
stroke:#000000; stroke-width:0; stroke-opacity:1; 
stroke-linecap:round; stroke-linejoin:round;">
<path style="fill:#000000; fill-opacity:1.0; 
stroke:#000000; stroke-width:0; stroke-opacity:1; 
stroke-linecap:round; stroke-linejoin:round;fill-rule:evenodd;"
d="M 5873.23,3035.04
5873.23,3724.02
5381.1,3724.02
5381.1,3035.04
Z" /> 
<path style="fill:#000000; fill-opacity:1.0; 
stroke:#000000; stroke-width:0; stroke-opacity:1; 
stroke-linecap:round; stroke-linejoin:round;fill-rule:evenodd;"
d="M 6975.59,3035.04
6975.59,3724.02
6483.46,3724.02
6483.46,3035.04
Z" /> 
</g>
<g >
</g>
<g >
</g>
<g style="fill:#000000; fill-opacity:1.0; 
stroke:#000000; stroke-width:0; stroke-opacity:1; 
stroke-linecap:round; stroke-linejoin:round;">
</g>
<g style="fill:#000000; fill-opacity:1.0; 
stroke:#000000; stroke-width:98.4252; stroke-opacity:1; 
stroke-linecap:round; stroke-linejoin:round;">
</g>
<g style="fill:#000000; fill-opacity:0.0; 
stroke:#000000; stroke-width:98.4252; stroke-opacity:1; 
stroke-linecap:round; stroke-linejoin:round;">
<path d="M8923 8425
L8927 8429
" />
<path d="M10879 4811
L10748 4811
" />
</g>
<g style="fill:#000000; fill-opacity:0.0; 
stroke:#000000; stroke-width:196.85; stroke-opacity:1; 
stroke-linecap:round; stroke-linejoin:round;">
<path d="M3054 8529
L4354 8529
" />
<path d="M8927 7108
L8923 7104
" />
<path d="M8927 8429
L8927 7108
" />
<path d="M8923 6423
L8923 7104
" />
<path d="M8129 5629
L8923 6423
" />
<path d="M8129 5154
L8129 5629
" />
<path d="M12357 4811
L12179 4811
" />
<path d="M10879 4811
L12179 4811
" />
<path d="M6854 5154
L8129 5154
" />
<path d="M8128 5153
L8129 5154
" />
<path d="M8927 8681
L8927 8429
" />
<path d="M8054 9554
L8927 8681
" />
<path d="M5379 9554
L8054 9554
" />
<path d="M4354 8529
L5379 9554
" />
<path d="M8923 7104
L9111 7104
" />
<path d="M10278 4210
L10879 4811
" />
<path d="M10278 2854
L10278 4210
" />
<path d="M9111 6579
L10879 4811
" />
<path d="M9111 7104
L9111 6579
" />
<path d="M9504 4527
L8877 5154
" />
<path d="M9504 2729
L9504 4527
" />
<path d="M9879 2354
L9504 2729
" />
<path d="M10278 2354
L9879 2354
" />
</g>
<g style="fill:#000000; fill-opacity:0.0; 
stroke:#000000; stroke-width:98.4252; stroke-opacity:1; 
stroke-linecap:round; stroke-linejoin:round;">
<path d="M6885 7478
L6854 7448
" />
<path d="M8135 8385
L8179 8429
" />
</g>
<g style="fill:#000000; fill-opacity:0.0; 
stroke:#000000; stroke-width:196.85; stroke-opacity:1; 
stroke-linecap:round; stroke-linejoin:round;">
<path d="M6854 7448
L6854 8279
" />
<path d="M8105 7448
L8135 7478
" />
<path d="M6854 7448
L8105 7448
" />
<path d="M8179 7522
L8135 7478
" />
<path d="M8179 8429
L8179 7522
" />
<path d="M6129 6854
L6723 7448
" />
<path d="M6129 4779
L6129 6854
" />
<path d="M8654 4204
L6704 4204
" />
<path d="M6704 4204
L6129 4779
" />
<path d="M9079 3779
L8654 4204
" />
<path d="M9079 1979
L9079 3779
" />
<path d="M6723 7448
L6854 7448
" />
<path d="M9704 1354
L9079 1979
" />
<path d="M10278 1354
L9704 1354
" />
</g>
<g style="fill:#000000; fill-opacity:0.0; 
stroke:#000000; stroke-width:98.4252; stroke-opacity:1; 
stroke-linecap:round; stroke-linejoin:round;">
<path d="M12178 6831
L12179 6829
" />
<path d="M10481 6831
L10879 6831
" />
</g>
<g style="fill:#000000; fill-opacity:0.0; 
stroke:#000000; stroke-width:196.85; stroke-opacity:1; 
stroke-linecap:round; stroke-linejoin:round;">
<path d="M10881 6829
L10879 6831
" />
<path d="M12179 6829
L10881 6829
" />
<path d="M10406 6831
L10879 6831
" />
<path d="M12579 6829
L12179 6829
" />
<path d="M13254 6154
L12579 6829
" />
<path d="M13254 3329
L13254 6154
" />
<path d="M11779 1854
L13254 3329
" />
<path d="M10278 1854
L11779 1854
" />
<path d="M4353 6511
L4354 6509
" />
<path d="M3054 6511
L4353 6511
" />
<path d="M6373 8998
L6854 8998
" />
<path d="M4354 6979
L6373 8998
" />
<path d="M4354 6509
L4354 6979
" />
<path d="M8134 6729
L8135 6730
" />
<path d="M6854 6729
L8134 6729
" />
<path d="M6854 5873
L6854 6729
" />
<path d="M7304 1354
L6729 1929
" />
<path d="M8330 1354
L7304 1354
" />
<path d="M8330 1854
L8330 1354
" />
</g>
<g style="fill:#000000; fill-opacity:0.0; 
stroke:#000000; stroke-width:393.701; stroke-opacity:1; 
stroke-linecap:round; stroke-linejoin:round;">
<path d="M4353 1936
L4354 1934
" />
<path d="M3054 1936
L4353 1936
" />
</g>
<g style="fill:#000000; fill-opacity:0.0; 
stroke:#000000; stroke-width:196.85; stroke-opacity:1; 
stroke-linecap:round; stroke-linejoin:round;">
<path d="M5622 1934
L5627 1929
" />
<path d="M4354 1934
L5622 1934
" />
</g>
<g style="fill:#000000; fill-opacity:0.0; 
stroke:#000000; stroke-width:393.701; stroke-opacity:1; 
stroke-linecap:round; stroke-linejoin:round;">
<path d="M3054 3954
L4354 3954
" />
</g>
<g style="fill:#000000; fill-opacity:0.0; 
stroke:#000000; stroke-width:196.85; stroke-opacity:1; 
stroke-linecap:round; stroke-linejoin:round;">
<path d="M5052 3954
L5627 3379
" />
<path d="M4354 3954
L5052 3954
" />
<path d="M8330 2354
L8330 2854
" />
<path d="M7805 3379
L8330 2854
" />
<path d="M6729 3379
L7805 3379
" />
</g>
<g >
</g>
</g>
<g style="fill:#FFFFFF; fill-opacity:0.0; 
stroke:#FFFFFF; stroke-width:196.85; stroke-opacity:1; 
stroke-linecap:round; stroke-linejoin:round;">
</g>
<g style="fill:#FFFFFF; fill-opacity:1.0; 
stroke:#FFFFFF; stroke-width:0; stroke-opacity:1; 
stroke-linecap:round; stroke-linejoin:round;">
<circle cx="3054.53" cy="3954.53" r="255.906" /> 
</g>
<g style="fill:#FFFFFF; fill-opacity:1.0; 
stroke:#FFFFFF; stroke-width:39.3701; stroke-opacity:1; 
stroke-linecap:round; stroke-linejoin:round;">
</g>
<g style="fill:#FFFFFF; fill-opacity:1.0; 
stroke:#FFFFFF; stroke-width:0; stroke-opacity:1; 
stroke-linecap:round; stroke-linejoin:round;">
<circle cx="3054.53" cy="1936.02" r="255.906" /> 
</g>
<g style="fill:#FFFFFF; fill-opacity:1.0; 
stroke:#FFFFFF; stroke-width:39.3701; stroke-opacity:1; 
stroke-linecap:round; stroke-linejoin:round;">
</g>
<g style="fill:#FFFFFF; fill-opacity:1.0; 
stroke:#FFFFFF; stroke-width:0; stroke-opacity:1; 
stroke-linecap:round; stroke-linejoin:round;">
<circle cx="4354.53" cy="3954.53" r="354.331" /> 
</g>
<g style="fill:#FFFFFF; fill-opacity:1.0; 
stroke:#FFFFFF; stroke-width:39.3701; stroke-opacity:1; 
stroke-linecap:round; stroke-linejoin:round;">
</g>
<g style="fill:#FFFFFF; fill-opacity:1.0; 
stroke:#FFFFFF; stroke-width:0; stroke-opacity:1; 
stroke-linecap:round; stroke-linejoin:round;">
<circle cx="4354.53" cy="1934.53" r="354.331" /> 
</g>
<g style="fill:#FFFFFF; fill-opacity:1.0; 
stroke:#FFFFFF; stroke-width:39.3701; stroke-opacity:1; 
stroke-linecap:round; stroke-linejoin:round;">
</g>
<g style="fill:#FFFFFF; fill-opacity:1.0; 
stroke:#FFFFFF; stroke-width:0; stroke-opacity:1; 
stroke-linecap:round; stroke-linejoin:round;">
<circle cx="10879.5" cy="6831.02" r="354.331" /> 
</g>
<g style="fill:#FFFFFF; fill-opacity:1.0; 
stroke:#FFFFFF; stroke-width:39.3701; stroke-opacity:1; 
stroke-linecap:round; stroke-linejoin:round;">
</g>
<g style="fill:#FFFFFF; fill-opacity:1.0; 
stroke:#FFFFFF; stroke-width:0; stroke-opacity:1; 
stroke-linecap:round; stroke-linejoin:round;">
<circle cx="10879.5" cy="4811.02" r="354.331" /> 
</g>
<g style="fill:#FFFFFF; fill-opacity:1.0; 
stroke:#FFFFFF; stroke-width:39.3701; stroke-opacity:1; 
stroke-linecap:round; stroke-linejoin:round;">
</g>
<g style="fill:#FFFFFF; fill-opacity:1.0; 
stroke:#FFFFFF; stroke-width:0; stroke-opacity:1; 
stroke-linecap:round; stroke-linejoin:round;">
<circle cx="12179.5" cy="6829.53" r="255.906" /> 
</g>
<g style="fill:#FFFFFF; fill-opacity:1.0; 
stroke:#FFFFFF; stroke-width:39.3701; stroke-opacity:1; 
stroke-linecap:round; stroke-linejoin:round;">
</g>
<g style="fill:#FFFFFF; fill-opacity:1.0; 
stroke:#FFFFFF; stroke-width:0; stroke-opacity:1; 
stroke-linecap:round; stroke-linejoin:round;">
<circle cx="12179.5" cy="4811.02" r="255.906" /> 
</g>
<g style="fill:#FFFFFF; fill-opacity:1.0; 
stroke:#FFFFFF; stroke-width:39.3701; stroke-opacity:1; 
stroke-linecap:round; stroke-linejoin:round;">
</g>
<g style="fill:#FFFFFF; fill-opacity:1.0; 
stroke:#FFFFFF; stroke-width:0; stroke-opacity:1; 
stroke-linecap:round; stroke-linejoin:round;">
<circle cx="3054.53" cy="8529.53" r="255.906" /> 
</g>
<g style="fill:#FFFFFF; fill-opacity:1.0; 
stroke:#FFFFFF; stroke-width:39.3701; stroke-opacity:1; 
stroke-linecap:round; stroke-linejoin:round;">
</g>
<g style="fill:#FFFFFF; fill-opacity:1.0; 
stroke:#FFFFFF; stroke-width:0; stroke-opacity:1; 
stroke-linecap:round; stroke-linejoin:round;">
<circle cx="3054.53" cy="6511.02" r="255.906" /> 
</g>
<g style="fill:#FFFFFF; fill-opacity:1.0; 
stroke:#FFFFFF; stroke-width:39.3701; stroke-opacity:1; 
stroke-linecap:round; stroke-linejoin:round;">
</g>
<g style="fill:#FFFFFF; fill-opacity:1.0; 
stroke:#FFFFFF; stroke-width:0; stroke-opacity:1; 
stroke-linecap:round; stroke-linejoin:round;">
<circle cx="4354.53" cy="8529.53" r="354.331" /> 
</g>
<g style="fill:#FFFFFF; fill-opacity:1.0; 
stroke:#FFFFFF; stroke-width:39.3701; stroke-opacity:1; 
stroke-linecap:round; stroke-linejoin:round;">
</g>
<g style="fill:#FFFFFF; fill-opacity:1.0; 
stroke:#FFFFFF; stroke-width:0; stroke-opacity:1; 
stroke-linecap:round; stroke-linejoin:round;">
<circle cx="4354.53" cy="6509.53" r="354.331" /> 
</g>
<g style="fill:#FFFFFF; fill-opacity:1.0; 
stroke:#FFFFFF; stroke-width:39.3701; stroke-opacity:1; 
stroke-linecap:round; stroke-linejoin:round;">
</g>
<g style="fill:#000000; fill-opacity:1.0; 
stroke:#000000; stroke-width:39.3701; stroke-opacity:1; 
stroke-linecap:round; stroke-linejoin:round;">
<g >
</g>
<g >
</g>
<g >
</g>
<g >
</g>
<g >
</g>
<g >
</g>
<g >
</g>
<g >
</g>
<g >
</g>
<g >
</g>
<g >
</g>
<g >
</g>
<g >
</g>
</g> 
</svg>
