M48
; DRILL file {KiCad (5.1.5)-3} date 8/4/2020 9:29:27 PM
; FORMAT={-:-/ absolute / inch / decimal}
; #@! TF.CreationDate,2020-08-04T21:29:27-03:00
; #@! TF.GenerationSoftware,Kicad,Pcbnew,(5.1.5)-3
; #@! TF.FileFunction,Plated,1,2,PTH
FMAT,2
INCH
T1C0.0394
T2C0.0433
T3C0.0472
T4C0.0512
T5C0.0551
%
G90
G05
T1
X5.434Y-3.706
X5.434Y-4.5
X5.634Y-3.75
X5.634Y-4.5
X5.734Y-4.5
X5.832Y-3.888
X5.934Y-4.508
X6.292Y-4.38
X6.292Y-4.664
X6.426Y-4.66
X6.43Y-4.838
X6.776Y-4.838
X6.97Y-4.846
X7.174Y-4.956
X7.242Y-4.6652
X7.504Y-4.8939
X7.638Y-4.616
X8.05Y-3.286
X8.35Y-3.128
X7.3467Y-3.0817
X7.8192Y-3.0817
T2
X6.472Y-5.156
X6.572Y-5.156
X6.672Y-5.156
X7.0765Y-5.156
X7.1765Y-5.156
X7.2765Y-5.156
T3
X5.798Y-2.946
X6.798Y-2.946
X5.798Y-2.227
X6.798Y-2.227
X5.798Y-3.226
X6.798Y-3.226
X5.798Y-2.507
X6.798Y-2.507
T4
X7.3448Y-2.5994
X7.581Y-3.1585
X7.8192Y-2.6014
T5
X7.598Y-5.52
X7.8933Y-5.52
X8.1886Y-5.52
X8.4838Y-5.52
X5.48Y-2.514
X5.48Y-2.8093
X5.63Y-5.52
X5.9253Y-5.52
T0
M30
