G04 #@! TF.GenerationSoftware,KiCad,Pcbnew,(5.1.5)-3*
G04 #@! TF.CreationDate,2020-08-04T21:29:25-03:00*
G04 #@! TF.ProjectId,TSAL,5453414c-2e6b-4696-9361-645f70636258,rev?*
G04 #@! TF.SameCoordinates,Original*
G04 #@! TF.FileFunction,Soldermask,Bot*
G04 #@! TF.FilePolarity,Negative*
%FSLAX46Y46*%
G04 Gerber Fmt 4.6, Leading zero omitted, Abs format (unit mm)*
G04 Created by KiCad (PCBNEW (5.1.5)-3) date 2020-08-04 21:29:25*
%MOMM*%
%LPD*%
G04 APERTURE LIST*
%ADD10C,0.100000*%
G04 APERTURE END LIST*
D10*
G36*
X182808431Y-145890611D02*
G01*
X183136192Y-146026374D01*
X183431170Y-146223472D01*
X183682028Y-146474330D01*
X183879126Y-146769308D01*
X184014889Y-147097069D01*
X184084100Y-147445016D01*
X184084100Y-147799784D01*
X184014889Y-148147731D01*
X183879126Y-148475492D01*
X183682028Y-148770470D01*
X183431170Y-149021328D01*
X183136192Y-149218426D01*
X182808431Y-149354189D01*
X182460484Y-149423400D01*
X182105716Y-149423400D01*
X181757769Y-149354189D01*
X181430008Y-149218426D01*
X181135030Y-149021328D01*
X180884172Y-148770470D01*
X180687074Y-148475492D01*
X180551311Y-148147731D01*
X180482100Y-147799784D01*
X180482100Y-147445016D01*
X180551311Y-147097069D01*
X180687074Y-146769308D01*
X180884172Y-146474330D01*
X181135030Y-146223472D01*
X181430008Y-146026374D01*
X181757769Y-145890611D01*
X182105716Y-145821400D01*
X182460484Y-145821400D01*
X182808431Y-145890611D01*
G37*
G36*
X167454131Y-145890611D02*
G01*
X167781892Y-146026374D01*
X168076870Y-146223472D01*
X168327728Y-146474330D01*
X168524826Y-146769308D01*
X168660589Y-147097069D01*
X168729800Y-147445016D01*
X168729800Y-147799784D01*
X168660589Y-148147731D01*
X168524826Y-148475492D01*
X168327728Y-148770470D01*
X168076870Y-149021328D01*
X167781892Y-149218426D01*
X167454131Y-149354189D01*
X167106184Y-149423400D01*
X166751416Y-149423400D01*
X166403469Y-149354189D01*
X166075708Y-149218426D01*
X165780730Y-149021328D01*
X165529872Y-148770470D01*
X165332774Y-148475492D01*
X165197011Y-148147731D01*
X165127800Y-147799784D01*
X165127800Y-147445016D01*
X165197011Y-147097069D01*
X165332774Y-146769308D01*
X165529872Y-146474330D01*
X165780730Y-146223472D01*
X166075708Y-146026374D01*
X166403469Y-145890611D01*
X166751416Y-145821400D01*
X167106184Y-145821400D01*
X167454131Y-145890611D01*
G37*
G36*
X150708031Y-138372207D02*
G01*
X150906145Y-138432305D01*
X150906148Y-138432306D01*
X150960872Y-138461557D01*
X151088729Y-138529897D01*
X151248765Y-138661235D01*
X151380103Y-138821271D01*
X151380104Y-138821273D01*
X151477694Y-139003851D01*
X151477694Y-139003852D01*
X151477695Y-139003854D01*
X151537793Y-139201968D01*
X151553000Y-139356370D01*
X151553000Y-141059630D01*
X151537793Y-141214032D01*
X151477695Y-141412146D01*
X151477694Y-141412149D01*
X151425939Y-141508975D01*
X151380103Y-141594729D01*
X151248765Y-141754765D01*
X151088729Y-141886103D01*
X151019976Y-141922852D01*
X150906149Y-141983694D01*
X150906146Y-141983695D01*
X150708032Y-142043793D01*
X150502000Y-142064085D01*
X150295969Y-142043793D01*
X150097855Y-141983695D01*
X150097852Y-141983694D01*
X149984025Y-141922852D01*
X149915272Y-141886103D01*
X149755236Y-141754765D01*
X149623898Y-141594729D01*
X149589904Y-141531130D01*
X149526305Y-141412146D01*
X149466207Y-141214033D01*
X149451000Y-141059631D01*
X149451000Y-139356370D01*
X149466207Y-139201971D01*
X149466207Y-139201969D01*
X149526305Y-139003855D01*
X149526306Y-139003852D01*
X149561521Y-138937970D01*
X149623897Y-138821271D01*
X149755235Y-138661235D01*
X149915271Y-138529897D01*
X150043127Y-138461557D01*
X150097851Y-138432306D01*
X150097854Y-138432305D01*
X150295968Y-138372207D01*
X150502000Y-138351915D01*
X150708031Y-138372207D01*
G37*
G36*
X200695231Y-138372207D02*
G01*
X200893345Y-138432305D01*
X200893348Y-138432306D01*
X200948072Y-138461557D01*
X201075929Y-138529897D01*
X201235965Y-138661235D01*
X201367303Y-138821271D01*
X201367304Y-138821273D01*
X201464894Y-139003851D01*
X201464894Y-139003852D01*
X201464895Y-139003854D01*
X201524993Y-139201968D01*
X201540200Y-139356370D01*
X201540200Y-141059630D01*
X201524993Y-141214032D01*
X201464895Y-141412146D01*
X201464894Y-141412149D01*
X201413139Y-141508975D01*
X201367303Y-141594729D01*
X201235965Y-141754765D01*
X201075929Y-141886103D01*
X201007176Y-141922852D01*
X200893349Y-141983694D01*
X200893346Y-141983695D01*
X200695232Y-142043793D01*
X200489200Y-142064085D01*
X200283169Y-142043793D01*
X200085055Y-141983695D01*
X200085052Y-141983694D01*
X199971225Y-141922852D01*
X199902472Y-141886103D01*
X199742436Y-141754765D01*
X199611098Y-141594729D01*
X199577104Y-141531130D01*
X199513505Y-141412146D01*
X199453407Y-141214033D01*
X199438200Y-141059631D01*
X199438200Y-139356370D01*
X199453407Y-139201971D01*
X199453407Y-139201969D01*
X199513505Y-139003855D01*
X199513506Y-139003852D01*
X199548721Y-138937970D01*
X199611097Y-138821271D01*
X199742435Y-138661235D01*
X199902471Y-138529897D01*
X200030327Y-138461557D01*
X200085051Y-138432306D01*
X200085054Y-138432305D01*
X200283168Y-138372207D01*
X200489200Y-138351915D01*
X200695231Y-138372207D01*
G37*
G36*
X208195231Y-138372207D02*
G01*
X208393345Y-138432305D01*
X208393348Y-138432306D01*
X208448072Y-138461557D01*
X208575929Y-138529897D01*
X208735965Y-138661235D01*
X208867303Y-138821271D01*
X208867304Y-138821273D01*
X208964894Y-139003851D01*
X208964894Y-139003852D01*
X208964895Y-139003854D01*
X209024993Y-139201968D01*
X209040200Y-139356370D01*
X209040200Y-141059630D01*
X209024993Y-141214032D01*
X208964895Y-141412146D01*
X208964894Y-141412149D01*
X208913139Y-141508975D01*
X208867303Y-141594729D01*
X208735965Y-141754765D01*
X208575929Y-141886103D01*
X208507176Y-141922852D01*
X208393349Y-141983694D01*
X208393346Y-141983695D01*
X208195232Y-142043793D01*
X207989200Y-142064085D01*
X207783169Y-142043793D01*
X207585055Y-141983695D01*
X207585052Y-141983694D01*
X207471225Y-141922852D01*
X207402472Y-141886103D01*
X207242436Y-141754765D01*
X207111098Y-141594729D01*
X207077104Y-141531130D01*
X207013505Y-141412146D01*
X206953407Y-141214033D01*
X206938200Y-141059631D01*
X206938200Y-139356370D01*
X206953407Y-139201971D01*
X206953407Y-139201969D01*
X207013505Y-139003855D01*
X207013506Y-139003852D01*
X207048721Y-138937970D01*
X207111097Y-138821271D01*
X207242435Y-138661235D01*
X207402471Y-138529897D01*
X207530327Y-138461557D01*
X207585051Y-138432306D01*
X207585054Y-138432305D01*
X207783168Y-138372207D01*
X207989200Y-138351915D01*
X208195231Y-138372207D01*
G37*
G36*
X215695231Y-138372207D02*
G01*
X215893345Y-138432305D01*
X215893348Y-138432306D01*
X215948072Y-138461557D01*
X216075929Y-138529897D01*
X216235965Y-138661235D01*
X216367303Y-138821271D01*
X216367304Y-138821273D01*
X216464894Y-139003851D01*
X216464894Y-139003852D01*
X216464895Y-139003854D01*
X216524993Y-139201968D01*
X216540200Y-139356370D01*
X216540200Y-141059630D01*
X216524993Y-141214032D01*
X216464895Y-141412146D01*
X216464894Y-141412149D01*
X216413139Y-141508975D01*
X216367303Y-141594729D01*
X216235965Y-141754765D01*
X216075929Y-141886103D01*
X216007176Y-141922852D01*
X215893349Y-141983694D01*
X215893346Y-141983695D01*
X215695232Y-142043793D01*
X215489200Y-142064085D01*
X215283169Y-142043793D01*
X215085055Y-141983695D01*
X215085052Y-141983694D01*
X214971225Y-141922852D01*
X214902472Y-141886103D01*
X214742436Y-141754765D01*
X214611098Y-141594729D01*
X214577104Y-141531130D01*
X214513505Y-141412146D01*
X214453407Y-141214033D01*
X214438200Y-141059631D01*
X214438200Y-139356370D01*
X214453407Y-139201971D01*
X214453407Y-139201969D01*
X214513505Y-139003855D01*
X214513506Y-139003852D01*
X214548721Y-138937970D01*
X214611097Y-138821271D01*
X214742435Y-138661235D01*
X214902471Y-138529897D01*
X215030327Y-138461557D01*
X215085051Y-138432306D01*
X215085054Y-138432305D01*
X215283168Y-138372207D01*
X215489200Y-138351915D01*
X215695231Y-138372207D01*
G37*
G36*
X193904052Y-138360840D02*
G01*
X193935643Y-138370423D01*
X193964757Y-138385985D01*
X193990274Y-138406926D01*
X194011215Y-138432443D01*
X194026777Y-138461557D01*
X194036360Y-138493148D01*
X194040200Y-138532140D01*
X194040200Y-141883860D01*
X194036360Y-141922852D01*
X194026777Y-141954443D01*
X194011215Y-141983557D01*
X193990274Y-142009074D01*
X193964757Y-142030015D01*
X193935643Y-142045577D01*
X193904052Y-142055160D01*
X193865060Y-142059000D01*
X192113340Y-142059000D01*
X192074348Y-142055160D01*
X192042757Y-142045577D01*
X192013643Y-142030015D01*
X191988126Y-142009074D01*
X191967185Y-141983557D01*
X191951623Y-141954443D01*
X191942040Y-141922852D01*
X191938200Y-141883860D01*
X191938200Y-138532140D01*
X191942040Y-138493148D01*
X191951623Y-138461557D01*
X191967185Y-138432443D01*
X191988126Y-138406926D01*
X192013643Y-138385985D01*
X192042757Y-138370423D01*
X192074348Y-138360840D01*
X192113340Y-138357000D01*
X193865060Y-138357000D01*
X193904052Y-138360840D01*
G37*
G36*
X143916852Y-138360840D02*
G01*
X143948443Y-138370423D01*
X143977557Y-138385985D01*
X144003074Y-138406926D01*
X144024015Y-138432443D01*
X144039577Y-138461557D01*
X144049160Y-138493148D01*
X144053000Y-138532140D01*
X144053000Y-141883860D01*
X144049160Y-141922852D01*
X144039577Y-141954443D01*
X144024015Y-141983557D01*
X144003074Y-142009074D01*
X143977557Y-142030015D01*
X143948443Y-142045577D01*
X143916852Y-142055160D01*
X143877860Y-142059000D01*
X142126140Y-142059000D01*
X142087148Y-142055160D01*
X142055557Y-142045577D01*
X142026443Y-142030015D01*
X142000926Y-142009074D01*
X141979985Y-141983557D01*
X141964423Y-141954443D01*
X141954840Y-141922852D01*
X141951000Y-141883860D01*
X141951000Y-138532140D01*
X141954840Y-138493148D01*
X141964423Y-138461557D01*
X141979985Y-138432443D01*
X142000926Y-138406926D01*
X142026443Y-138385985D01*
X142055557Y-138370423D01*
X142087148Y-138360840D01*
X142126140Y-138357000D01*
X143877860Y-138357000D01*
X143916852Y-138360840D01*
G37*
G36*
X179939820Y-129925920D02*
G01*
X180128981Y-129983301D01*
X180303312Y-130076483D01*
X180456115Y-130201885D01*
X180581517Y-130354688D01*
X180625282Y-130436567D01*
X180674698Y-130529017D01*
X180674699Y-130529020D01*
X180732080Y-130718181D01*
X180746600Y-130865607D01*
X180746600Y-131059194D01*
X180732080Y-131206620D01*
X180674699Y-131395781D01*
X180581517Y-131570112D01*
X180456115Y-131722915D01*
X180303312Y-131848317D01*
X180221433Y-131892082D01*
X180128983Y-131941498D01*
X180128980Y-131941499D01*
X179939819Y-131998880D01*
X179743100Y-132018255D01*
X179546380Y-131998880D01*
X179357219Y-131941499D01*
X179182888Y-131848317D01*
X179030085Y-131722915D01*
X178904683Y-131570112D01*
X178860918Y-131488233D01*
X178811502Y-131395783D01*
X178811501Y-131395780D01*
X178754120Y-131206619D01*
X178739600Y-131059193D01*
X178739600Y-130865606D01*
X178754120Y-130718180D01*
X178811501Y-130529019D01*
X178904683Y-130354688D01*
X179030085Y-130201885D01*
X179182888Y-130076483D01*
X179357220Y-129983301D01*
X179546381Y-129925920D01*
X179743100Y-129906545D01*
X179939820Y-129925920D01*
G37*
G36*
X164585520Y-129925920D02*
G01*
X164774681Y-129983301D01*
X164949012Y-130076483D01*
X165101815Y-130201885D01*
X165227217Y-130354688D01*
X165270982Y-130436567D01*
X165320398Y-130529017D01*
X165320399Y-130529020D01*
X165377780Y-130718181D01*
X165392300Y-130865607D01*
X165392300Y-131059194D01*
X165377780Y-131206620D01*
X165320399Y-131395781D01*
X165227217Y-131570112D01*
X165101815Y-131722915D01*
X164949012Y-131848317D01*
X164867133Y-131892082D01*
X164774683Y-131941498D01*
X164774680Y-131941499D01*
X164585519Y-131998880D01*
X164388800Y-132018255D01*
X164192080Y-131998880D01*
X164002919Y-131941499D01*
X163828588Y-131848317D01*
X163675785Y-131722915D01*
X163550383Y-131570112D01*
X163506618Y-131488233D01*
X163457202Y-131395783D01*
X163457201Y-131395780D01*
X163399820Y-131206619D01*
X163385300Y-131059193D01*
X163385300Y-130865606D01*
X163399820Y-130718180D01*
X163457201Y-130529019D01*
X163550383Y-130354688D01*
X163675785Y-130201885D01*
X163828588Y-130076483D01*
X164002920Y-129983301D01*
X164192081Y-129925920D01*
X164388800Y-129906545D01*
X164585520Y-129925920D01*
G37*
G36*
X167125520Y-129925920D02*
G01*
X167314681Y-129983301D01*
X167489012Y-130076483D01*
X167641815Y-130201885D01*
X167767217Y-130354688D01*
X167810982Y-130436567D01*
X167860398Y-130529017D01*
X167860399Y-130529020D01*
X167917780Y-130718181D01*
X167932300Y-130865607D01*
X167932300Y-131059194D01*
X167917780Y-131206620D01*
X167860399Y-131395781D01*
X167767217Y-131570112D01*
X167641815Y-131722915D01*
X167489012Y-131848317D01*
X167407133Y-131892082D01*
X167314683Y-131941498D01*
X167314680Y-131941499D01*
X167125519Y-131998880D01*
X166928800Y-132018255D01*
X166732080Y-131998880D01*
X166542919Y-131941499D01*
X166368588Y-131848317D01*
X166215785Y-131722915D01*
X166090383Y-131570112D01*
X166046618Y-131488233D01*
X165997202Y-131395783D01*
X165997201Y-131395780D01*
X165939820Y-131206619D01*
X165925300Y-131059193D01*
X165925300Y-130865606D01*
X165939820Y-130718180D01*
X165997201Y-130529019D01*
X166090383Y-130354688D01*
X166215785Y-130201885D01*
X166368588Y-130076483D01*
X166542920Y-129983301D01*
X166732081Y-129925920D01*
X166928800Y-129906545D01*
X167125520Y-129925920D01*
G37*
G36*
X182479820Y-129925920D02*
G01*
X182668981Y-129983301D01*
X182843312Y-130076483D01*
X182996115Y-130201885D01*
X183121517Y-130354688D01*
X183165282Y-130436567D01*
X183214698Y-130529017D01*
X183214699Y-130529020D01*
X183272080Y-130718181D01*
X183286600Y-130865607D01*
X183286600Y-131059194D01*
X183272080Y-131206620D01*
X183214699Y-131395781D01*
X183121517Y-131570112D01*
X182996115Y-131722915D01*
X182843312Y-131848317D01*
X182761433Y-131892082D01*
X182668983Y-131941498D01*
X182668980Y-131941499D01*
X182479819Y-131998880D01*
X182283100Y-132018255D01*
X182086380Y-131998880D01*
X181897219Y-131941499D01*
X181722888Y-131848317D01*
X181570085Y-131722915D01*
X181444683Y-131570112D01*
X181400918Y-131488233D01*
X181351502Y-131395783D01*
X181351501Y-131395780D01*
X181294120Y-131206619D01*
X181279600Y-131059193D01*
X181279600Y-130865606D01*
X181294120Y-130718180D01*
X181351501Y-130529019D01*
X181444683Y-130354688D01*
X181570085Y-130201885D01*
X181722888Y-130076483D01*
X181897220Y-129983301D01*
X182086381Y-129925920D01*
X182283100Y-129906545D01*
X182479820Y-129925920D01*
G37*
G36*
X185826600Y-132013400D02*
G01*
X183819600Y-132013400D01*
X183819600Y-129911400D01*
X185826600Y-129911400D01*
X185826600Y-132013400D01*
G37*
G36*
X170472300Y-132013400D02*
G01*
X168465300Y-132013400D01*
X168465300Y-129911400D01*
X170472300Y-129911400D01*
X170472300Y-132013400D01*
G37*
G36*
X147634103Y-80737475D02*
G01*
X147861771Y-80831778D01*
X148066666Y-80968685D01*
X148240915Y-81142934D01*
X148288804Y-81214605D01*
X148377823Y-81347831D01*
X148472125Y-81575497D01*
X148512187Y-81776900D01*
X148520200Y-81817187D01*
X148520200Y-82063613D01*
X148472125Y-82305303D01*
X148377822Y-82532971D01*
X148240915Y-82737866D01*
X148066666Y-82912115D01*
X147861771Y-83049022D01*
X147861770Y-83049023D01*
X147861769Y-83049023D01*
X147634103Y-83143325D01*
X147392414Y-83191400D01*
X147145986Y-83191400D01*
X146904297Y-83143325D01*
X146676631Y-83049023D01*
X146676630Y-83049023D01*
X146676629Y-83049022D01*
X146471734Y-82912115D01*
X146297485Y-82737866D01*
X146160578Y-82532971D01*
X146066275Y-82305303D01*
X146018200Y-82063613D01*
X146018200Y-81817187D01*
X146026214Y-81776900D01*
X146066275Y-81575497D01*
X146160577Y-81347831D01*
X146249596Y-81214605D01*
X146297485Y-81142934D01*
X146471734Y-80968685D01*
X146676629Y-80831778D01*
X146904297Y-80737475D01*
X147145986Y-80689400D01*
X147392414Y-80689400D01*
X147634103Y-80737475D01*
G37*
G36*
X173034103Y-80737475D02*
G01*
X173261771Y-80831778D01*
X173466666Y-80968685D01*
X173640915Y-81142934D01*
X173688804Y-81214605D01*
X173777823Y-81347831D01*
X173872125Y-81575497D01*
X173912187Y-81776900D01*
X173920200Y-81817187D01*
X173920200Y-82063613D01*
X173872125Y-82305303D01*
X173777822Y-82532971D01*
X173640915Y-82737866D01*
X173466666Y-82912115D01*
X173261771Y-83049022D01*
X173261770Y-83049023D01*
X173261769Y-83049023D01*
X173034103Y-83143325D01*
X172792414Y-83191400D01*
X172545986Y-83191400D01*
X172304297Y-83143325D01*
X172076631Y-83049023D01*
X172076630Y-83049023D01*
X172076629Y-83049022D01*
X171871734Y-82912115D01*
X171697485Y-82737866D01*
X171560578Y-82532971D01*
X171466275Y-82305303D01*
X171418200Y-82063613D01*
X171418200Y-81817187D01*
X171426214Y-81776900D01*
X171466275Y-81575497D01*
X171560577Y-81347831D01*
X171649596Y-81214605D01*
X171697485Y-81142934D01*
X171871734Y-80968685D01*
X172076629Y-80831778D01*
X172304297Y-80737475D01*
X172545986Y-80689400D01*
X172792414Y-80689400D01*
X173034103Y-80737475D01*
G37*
G36*
X192859985Y-78704702D02*
G01*
X193009810Y-78734504D01*
X193292074Y-78851421D01*
X193546105Y-79021159D01*
X193762141Y-79237195D01*
X193931879Y-79491226D01*
X194048796Y-79773490D01*
X194108400Y-80073140D01*
X194108400Y-80378660D01*
X194048796Y-80678310D01*
X193931879Y-80960574D01*
X193762141Y-81214605D01*
X193546105Y-81430641D01*
X193292074Y-81600379D01*
X193009810Y-81717296D01*
X192859985Y-81747098D01*
X192710161Y-81776900D01*
X192404639Y-81776900D01*
X192254815Y-81747098D01*
X192104990Y-81717296D01*
X191822726Y-81600379D01*
X191568695Y-81430641D01*
X191352659Y-81214605D01*
X191182921Y-80960574D01*
X191066004Y-80678310D01*
X191006400Y-80378660D01*
X191006400Y-80073140D01*
X191066004Y-79773490D01*
X191182921Y-79491226D01*
X191352659Y-79237195D01*
X191568695Y-79021159D01*
X191822726Y-78851421D01*
X192104990Y-78734504D01*
X192254815Y-78704702D01*
X192404639Y-78674900D01*
X192710161Y-78674900D01*
X192859985Y-78704702D01*
G37*
G36*
X198986887Y-77024896D02*
G01*
X199223653Y-77122968D01*
X199223655Y-77122969D01*
X199436739Y-77265347D01*
X199617953Y-77446561D01*
X199760332Y-77659647D01*
X199858404Y-77896413D01*
X199908400Y-78147761D01*
X199908400Y-78404039D01*
X199858404Y-78655387D01*
X199777204Y-78851421D01*
X199760331Y-78892155D01*
X199617953Y-79105239D01*
X199436739Y-79286453D01*
X199223655Y-79428831D01*
X199223654Y-79428832D01*
X199223653Y-79428832D01*
X198986887Y-79526904D01*
X198735539Y-79576900D01*
X198479261Y-79576900D01*
X198227913Y-79526904D01*
X197991147Y-79428832D01*
X197991146Y-79428832D01*
X197991145Y-79428831D01*
X197778061Y-79286453D01*
X197596847Y-79105239D01*
X197454469Y-78892155D01*
X197437596Y-78851421D01*
X197356396Y-78655387D01*
X197306400Y-78404039D01*
X197306400Y-78147761D01*
X197356396Y-77896413D01*
X197454468Y-77659647D01*
X197596847Y-77446561D01*
X197778061Y-77265347D01*
X197991145Y-77122969D01*
X197991147Y-77122968D01*
X198227913Y-77024896D01*
X198479261Y-76974900D01*
X198735539Y-76974900D01*
X198986887Y-77024896D01*
G37*
G36*
X186986887Y-77024896D02*
G01*
X187223653Y-77122968D01*
X187223655Y-77122969D01*
X187436739Y-77265347D01*
X187617953Y-77446561D01*
X187760332Y-77659647D01*
X187858404Y-77896413D01*
X187908400Y-78147761D01*
X187908400Y-78404039D01*
X187858404Y-78655387D01*
X187777204Y-78851421D01*
X187760331Y-78892155D01*
X187617953Y-79105239D01*
X187436739Y-79286453D01*
X187223655Y-79428831D01*
X187223654Y-79428832D01*
X187223653Y-79428832D01*
X186986887Y-79526904D01*
X186735539Y-79576900D01*
X186479261Y-79576900D01*
X186227913Y-79526904D01*
X185991147Y-79428832D01*
X185991146Y-79428832D01*
X185991145Y-79428831D01*
X185778061Y-79286453D01*
X185596847Y-79105239D01*
X185454469Y-78892155D01*
X185437596Y-78851421D01*
X185356396Y-78655387D01*
X185306400Y-78404039D01*
X185306400Y-78147761D01*
X185356396Y-77896413D01*
X185454468Y-77659647D01*
X185596847Y-77446561D01*
X185778061Y-77265347D01*
X185991145Y-77122969D01*
X185991147Y-77122968D01*
X186227913Y-77024896D01*
X186479261Y-76974900D01*
X186735539Y-76974900D01*
X186986887Y-77024896D01*
G37*
G36*
X147634103Y-73625475D02*
G01*
X147861771Y-73719778D01*
X148066666Y-73856685D01*
X148240915Y-74030934D01*
X148377822Y-74235829D01*
X148472125Y-74463497D01*
X148520200Y-74705187D01*
X148520200Y-74951613D01*
X148472125Y-75193303D01*
X148377822Y-75420971D01*
X148240915Y-75625866D01*
X148066666Y-75800115D01*
X147861771Y-75937022D01*
X147861770Y-75937023D01*
X147861769Y-75937023D01*
X147634103Y-76031325D01*
X147392414Y-76079400D01*
X147145986Y-76079400D01*
X146904297Y-76031325D01*
X146676631Y-75937023D01*
X146676630Y-75937023D01*
X146676629Y-75937022D01*
X146471734Y-75800115D01*
X146297485Y-75625866D01*
X146160578Y-75420971D01*
X146066275Y-75193303D01*
X146018200Y-74951613D01*
X146018200Y-74705187D01*
X146066275Y-74463497D01*
X146160578Y-74235829D01*
X146297485Y-74030934D01*
X146471734Y-73856685D01*
X146676629Y-73719778D01*
X146904297Y-73625475D01*
X147145986Y-73577400D01*
X147392414Y-73577400D01*
X147634103Y-73625475D01*
G37*
G36*
X173034103Y-73625475D02*
G01*
X173261771Y-73719778D01*
X173466666Y-73856685D01*
X173640915Y-74030934D01*
X173777822Y-74235829D01*
X173872125Y-74463497D01*
X173920200Y-74705187D01*
X173920200Y-74951613D01*
X173872125Y-75193303D01*
X173777822Y-75420971D01*
X173640915Y-75625866D01*
X173466666Y-75800115D01*
X173261771Y-75937022D01*
X173261770Y-75937023D01*
X173261769Y-75937023D01*
X173034103Y-76031325D01*
X172792414Y-76079400D01*
X172545986Y-76079400D01*
X172304297Y-76031325D01*
X172076631Y-75937023D01*
X172076630Y-75937023D01*
X172076629Y-75937022D01*
X171871734Y-75800115D01*
X171697485Y-75625866D01*
X171560578Y-75420971D01*
X171466275Y-75193303D01*
X171418200Y-74951613D01*
X171418200Y-74705187D01*
X171466275Y-74463497D01*
X171560578Y-74235829D01*
X171697485Y-74030934D01*
X171871734Y-73856685D01*
X172076629Y-73719778D01*
X172304297Y-73625475D01*
X172545986Y-73577400D01*
X172792414Y-73577400D01*
X173034103Y-73625475D01*
G37*
G36*
X140095097Y-70309669D02*
G01*
X140198032Y-70319807D01*
X140396146Y-70379905D01*
X140396149Y-70379906D01*
X140492975Y-70431661D01*
X140578729Y-70477497D01*
X140738765Y-70608835D01*
X140870103Y-70768871D01*
X140915939Y-70854625D01*
X140967694Y-70951451D01*
X140967695Y-70951454D01*
X141027793Y-71149568D01*
X141048085Y-71355600D01*
X141027793Y-71561632D01*
X140967695Y-71759746D01*
X140967694Y-71759749D01*
X140915939Y-71856575D01*
X140870103Y-71942329D01*
X140738765Y-72102365D01*
X140578729Y-72233703D01*
X140492975Y-72279539D01*
X140396149Y-72331294D01*
X140396146Y-72331295D01*
X140198032Y-72391393D01*
X140095097Y-72401531D01*
X140043631Y-72406600D01*
X138340369Y-72406600D01*
X138288903Y-72401531D01*
X138185968Y-72391393D01*
X137987854Y-72331295D01*
X137987851Y-72331294D01*
X137891025Y-72279539D01*
X137805271Y-72233703D01*
X137645235Y-72102365D01*
X137513897Y-71942329D01*
X137468061Y-71856575D01*
X137416306Y-71759749D01*
X137416305Y-71759746D01*
X137356207Y-71561632D01*
X137335915Y-71355600D01*
X137356207Y-71149568D01*
X137416305Y-70951454D01*
X137416306Y-70951451D01*
X137468061Y-70854625D01*
X137513897Y-70768871D01*
X137645235Y-70608835D01*
X137805271Y-70477497D01*
X137891025Y-70431661D01*
X137987851Y-70379906D01*
X137987854Y-70379905D01*
X138185968Y-70319807D01*
X138288903Y-70309669D01*
X138340369Y-70304600D01*
X140043631Y-70304600D01*
X140095097Y-70309669D01*
G37*
G36*
X198808443Y-64534504D02*
G01*
X199059810Y-64584504D01*
X199342074Y-64701421D01*
X199596105Y-64871159D01*
X199812141Y-65087195D01*
X199981879Y-65341226D01*
X200098796Y-65623490D01*
X200098796Y-65623491D01*
X200148455Y-65873140D01*
X200158400Y-65923140D01*
X200158400Y-66228660D01*
X200098796Y-66528310D01*
X199981879Y-66810574D01*
X199812141Y-67064605D01*
X199596105Y-67280641D01*
X199342074Y-67450379D01*
X199059810Y-67567296D01*
X199011527Y-67576900D01*
X198760161Y-67626900D01*
X198454639Y-67626900D01*
X198203273Y-67576900D01*
X198154990Y-67567296D01*
X197872726Y-67450379D01*
X197618695Y-67280641D01*
X197402659Y-67064605D01*
X197232921Y-66810574D01*
X197116004Y-66528310D01*
X197056400Y-66228660D01*
X197056400Y-65923140D01*
X197066346Y-65873140D01*
X197116004Y-65623491D01*
X197116004Y-65623490D01*
X197232921Y-65341226D01*
X197402659Y-65087195D01*
X197618695Y-64871159D01*
X197872726Y-64701421D01*
X198154990Y-64584504D01*
X198406357Y-64534504D01*
X198454639Y-64524900D01*
X198760161Y-64524900D01*
X198808443Y-64534504D01*
G37*
G36*
X186859985Y-64504702D02*
G01*
X187009810Y-64534504D01*
X187292074Y-64651421D01*
X187546105Y-64821159D01*
X187762141Y-65037195D01*
X187931879Y-65291226D01*
X188048796Y-65573490D01*
X188058742Y-65623491D01*
X188108400Y-65873139D01*
X188108400Y-66178661D01*
X188098454Y-66228661D01*
X188048796Y-66478310D01*
X187931879Y-66760574D01*
X187762141Y-67014605D01*
X187546105Y-67230641D01*
X187292074Y-67400379D01*
X187009810Y-67517296D01*
X186859985Y-67547098D01*
X186710161Y-67576900D01*
X186404639Y-67576900D01*
X186254815Y-67547098D01*
X186104990Y-67517296D01*
X185822726Y-67400379D01*
X185568695Y-67230641D01*
X185352659Y-67014605D01*
X185182921Y-66760574D01*
X185066004Y-66478310D01*
X185016346Y-66228661D01*
X185006400Y-66178661D01*
X185006400Y-65873139D01*
X185056058Y-65623491D01*
X185066004Y-65573490D01*
X185182921Y-65291226D01*
X185352659Y-65037195D01*
X185568695Y-64821159D01*
X185822726Y-64651421D01*
X186104990Y-64534504D01*
X186254815Y-64504702D01*
X186404639Y-64474900D01*
X186710161Y-64474900D01*
X186859985Y-64504702D01*
G37*
G36*
X173034103Y-62474875D02*
G01*
X173261771Y-62569178D01*
X173466666Y-62706085D01*
X173640915Y-62880334D01*
X173777822Y-63085229D01*
X173872125Y-63312897D01*
X173920200Y-63554587D01*
X173920200Y-63801013D01*
X173872125Y-64042703D01*
X173777822Y-64270371D01*
X173640915Y-64475266D01*
X173466666Y-64649515D01*
X173261771Y-64786422D01*
X173261770Y-64786423D01*
X173261769Y-64786423D01*
X173034103Y-64880725D01*
X172792414Y-64928800D01*
X172545986Y-64928800D01*
X172304297Y-64880725D01*
X172076631Y-64786423D01*
X172076630Y-64786423D01*
X172076629Y-64786422D01*
X171871734Y-64649515D01*
X171697485Y-64475266D01*
X171560578Y-64270371D01*
X171466275Y-64042703D01*
X171418200Y-63801013D01*
X171418200Y-63554587D01*
X171466275Y-63312897D01*
X171560578Y-63085229D01*
X171697485Y-62880334D01*
X171871734Y-62706085D01*
X172076629Y-62569178D01*
X172304297Y-62474875D01*
X172545986Y-62426800D01*
X172792414Y-62426800D01*
X173034103Y-62474875D01*
G37*
G36*
X147634103Y-62474875D02*
G01*
X147861771Y-62569178D01*
X148066666Y-62706085D01*
X148240915Y-62880334D01*
X148377822Y-63085229D01*
X148472125Y-63312897D01*
X148520200Y-63554587D01*
X148520200Y-63801013D01*
X148472125Y-64042703D01*
X148377822Y-64270371D01*
X148240915Y-64475266D01*
X148066666Y-64649515D01*
X147861771Y-64786422D01*
X147861770Y-64786423D01*
X147861769Y-64786423D01*
X147634103Y-64880725D01*
X147392414Y-64928800D01*
X147145986Y-64928800D01*
X146904297Y-64880725D01*
X146676631Y-64786423D01*
X146676630Y-64786423D01*
X146676629Y-64786422D01*
X146471734Y-64649515D01*
X146297485Y-64475266D01*
X146160578Y-64270371D01*
X146066275Y-64042703D01*
X146018200Y-63801013D01*
X146018200Y-63554587D01*
X146066275Y-63312897D01*
X146160578Y-63085229D01*
X146297485Y-62880334D01*
X146471734Y-62706085D01*
X146676629Y-62569178D01*
X146904297Y-62474875D01*
X147145986Y-62426800D01*
X147392414Y-62426800D01*
X147634103Y-62474875D01*
G37*
G36*
X140906852Y-62808440D02*
G01*
X140938443Y-62818023D01*
X140967557Y-62833585D01*
X140993074Y-62854526D01*
X141014015Y-62880043D01*
X141029577Y-62909157D01*
X141039160Y-62940748D01*
X141043000Y-62979740D01*
X141043000Y-64731460D01*
X141039160Y-64770452D01*
X141029577Y-64802043D01*
X141014015Y-64831157D01*
X140993074Y-64856674D01*
X140967557Y-64877615D01*
X140938443Y-64893177D01*
X140906852Y-64902760D01*
X140867860Y-64906600D01*
X137516140Y-64906600D01*
X137477148Y-64902760D01*
X137445557Y-64893177D01*
X137416443Y-64877615D01*
X137390926Y-64856674D01*
X137369985Y-64831157D01*
X137354423Y-64802043D01*
X137344840Y-64770452D01*
X137341000Y-64731460D01*
X137341000Y-62979740D01*
X137344840Y-62940748D01*
X137354423Y-62909157D01*
X137369985Y-62880043D01*
X137390926Y-62854526D01*
X137416443Y-62833585D01*
X137445557Y-62818023D01*
X137477148Y-62808440D01*
X137516140Y-62804600D01*
X140867860Y-62804600D01*
X140906852Y-62808440D01*
G37*
G36*
X173034103Y-55362875D02*
G01*
X173261771Y-55457178D01*
X173466666Y-55594085D01*
X173640915Y-55768334D01*
X173777822Y-55973229D01*
X173872125Y-56200897D01*
X173920200Y-56442587D01*
X173920200Y-56689013D01*
X173872125Y-56930703D01*
X173777822Y-57158371D01*
X173640915Y-57363266D01*
X173466666Y-57537515D01*
X173261771Y-57674422D01*
X173261770Y-57674423D01*
X173261769Y-57674423D01*
X173034103Y-57768725D01*
X172792414Y-57816800D01*
X172545986Y-57816800D01*
X172304297Y-57768725D01*
X172076631Y-57674423D01*
X172076630Y-57674423D01*
X172076629Y-57674422D01*
X171871734Y-57537515D01*
X171697485Y-57363266D01*
X171560578Y-57158371D01*
X171466275Y-56930703D01*
X171418200Y-56689013D01*
X171418200Y-56442587D01*
X171466275Y-56200897D01*
X171560578Y-55973229D01*
X171697485Y-55768334D01*
X171871734Y-55594085D01*
X172076629Y-55457178D01*
X172304297Y-55362875D01*
X172545986Y-55314800D01*
X172792414Y-55314800D01*
X173034103Y-55362875D01*
G37*
G36*
X147634103Y-55362875D02*
G01*
X147861771Y-55457178D01*
X148066666Y-55594085D01*
X148240915Y-55768334D01*
X148377822Y-55973229D01*
X148472125Y-56200897D01*
X148520200Y-56442587D01*
X148520200Y-56689013D01*
X148472125Y-56930703D01*
X148377822Y-57158371D01*
X148240915Y-57363266D01*
X148066666Y-57537515D01*
X147861771Y-57674422D01*
X147861770Y-57674423D01*
X147861769Y-57674423D01*
X147634103Y-57768725D01*
X147392414Y-57816800D01*
X147145986Y-57816800D01*
X146904297Y-57768725D01*
X146676631Y-57674423D01*
X146676630Y-57674423D01*
X146676629Y-57674422D01*
X146471734Y-57537515D01*
X146297485Y-57363266D01*
X146160578Y-57158371D01*
X146066275Y-56930703D01*
X146018200Y-56689013D01*
X146018200Y-56442587D01*
X146066275Y-56200897D01*
X146160578Y-55973229D01*
X146297485Y-55768334D01*
X146471734Y-55594085D01*
X146676629Y-55457178D01*
X146904297Y-55362875D01*
X147145986Y-55314800D01*
X147392414Y-55314800D01*
X147634103Y-55362875D01*
G37*
M02*
