G04 #@! TF.GenerationSoftware,KiCad,Pcbnew,(5.1.5)-3*
G04 #@! TF.CreationDate,2020-08-04T21:29:25-03:00*
G04 #@! TF.ProjectId,TSAL,5453414c-2e6b-4696-9361-645f70636258,rev?*
G04 #@! TF.SameCoordinates,Original*
G04 #@! TF.FileFunction,Soldermask,Top*
G04 #@! TF.FilePolarity,Negative*
%FSLAX46Y46*%
G04 Gerber Fmt 4.6, Leading zero omitted, Abs format (unit mm)*
G04 Created by KiCad (PCBNEW (5.1.5)-3) date 2020-08-04 21:29:25*
%MOMM*%
%LPD*%
G04 APERTURE LIST*
%ADD10C,0.100000*%
G04 APERTURE END LIST*
D10*
G36*
X182808431Y-145890611D02*
G01*
X183136192Y-146026374D01*
X183431170Y-146223472D01*
X183682028Y-146474330D01*
X183879126Y-146769308D01*
X184014889Y-147097069D01*
X184084100Y-147445016D01*
X184084100Y-147799784D01*
X184014889Y-148147731D01*
X183879126Y-148475492D01*
X183682028Y-148770470D01*
X183431170Y-149021328D01*
X183136192Y-149218426D01*
X182808431Y-149354189D01*
X182460484Y-149423400D01*
X182105716Y-149423400D01*
X181757769Y-149354189D01*
X181430008Y-149218426D01*
X181135030Y-149021328D01*
X180884172Y-148770470D01*
X180687074Y-148475492D01*
X180551311Y-148147731D01*
X180482100Y-147799784D01*
X180482100Y-147445016D01*
X180551311Y-147097069D01*
X180687074Y-146769308D01*
X180884172Y-146474330D01*
X181135030Y-146223472D01*
X181430008Y-146026374D01*
X181757769Y-145890611D01*
X182105716Y-145821400D01*
X182460484Y-145821400D01*
X182808431Y-145890611D01*
G37*
G36*
X167454131Y-145890611D02*
G01*
X167781892Y-146026374D01*
X168076870Y-146223472D01*
X168327728Y-146474330D01*
X168524826Y-146769308D01*
X168660589Y-147097069D01*
X168729800Y-147445016D01*
X168729800Y-147799784D01*
X168660589Y-148147731D01*
X168524826Y-148475492D01*
X168327728Y-148770470D01*
X168076870Y-149021328D01*
X167781892Y-149218426D01*
X167454131Y-149354189D01*
X167106184Y-149423400D01*
X166751416Y-149423400D01*
X166403469Y-149354189D01*
X166075708Y-149218426D01*
X165780730Y-149021328D01*
X165529872Y-148770470D01*
X165332774Y-148475492D01*
X165197011Y-148147731D01*
X165127800Y-147799784D01*
X165127800Y-147445016D01*
X165197011Y-147097069D01*
X165332774Y-146769308D01*
X165529872Y-146474330D01*
X165780730Y-146223472D01*
X166075708Y-146026374D01*
X166403469Y-145890611D01*
X166751416Y-145821400D01*
X167106184Y-145821400D01*
X167454131Y-145890611D01*
G37*
G36*
X150708031Y-138372207D02*
G01*
X150906145Y-138432305D01*
X150906148Y-138432306D01*
X150960872Y-138461557D01*
X151088729Y-138529897D01*
X151248765Y-138661235D01*
X151380103Y-138821271D01*
X151380104Y-138821273D01*
X151477694Y-139003851D01*
X151477694Y-139003852D01*
X151477695Y-139003854D01*
X151537793Y-139201968D01*
X151553000Y-139356370D01*
X151553000Y-141059630D01*
X151537793Y-141214032D01*
X151477695Y-141412146D01*
X151477694Y-141412149D01*
X151425939Y-141508975D01*
X151380103Y-141594729D01*
X151248765Y-141754765D01*
X151088729Y-141886103D01*
X151019976Y-141922852D01*
X150906149Y-141983694D01*
X150906146Y-141983695D01*
X150708032Y-142043793D01*
X150502000Y-142064085D01*
X150295969Y-142043793D01*
X150097855Y-141983695D01*
X150097852Y-141983694D01*
X149984025Y-141922852D01*
X149915272Y-141886103D01*
X149755236Y-141754765D01*
X149623898Y-141594729D01*
X149589904Y-141531130D01*
X149526305Y-141412146D01*
X149466207Y-141214033D01*
X149451000Y-141059631D01*
X149451000Y-139356370D01*
X149466207Y-139201971D01*
X149466207Y-139201969D01*
X149526305Y-139003855D01*
X149526306Y-139003852D01*
X149561521Y-138937970D01*
X149623897Y-138821271D01*
X149755235Y-138661235D01*
X149915271Y-138529897D01*
X150043127Y-138461557D01*
X150097851Y-138432306D01*
X150097854Y-138432305D01*
X150295968Y-138372207D01*
X150502000Y-138351915D01*
X150708031Y-138372207D01*
G37*
G36*
X215695231Y-138372207D02*
G01*
X215893345Y-138432305D01*
X215893348Y-138432306D01*
X215948072Y-138461557D01*
X216075929Y-138529897D01*
X216235965Y-138661235D01*
X216367303Y-138821271D01*
X216367304Y-138821273D01*
X216464894Y-139003851D01*
X216464894Y-139003852D01*
X216464895Y-139003854D01*
X216524993Y-139201968D01*
X216540200Y-139356370D01*
X216540200Y-141059630D01*
X216524993Y-141214032D01*
X216464895Y-141412146D01*
X216464894Y-141412149D01*
X216413139Y-141508975D01*
X216367303Y-141594729D01*
X216235965Y-141754765D01*
X216075929Y-141886103D01*
X216007176Y-141922852D01*
X215893349Y-141983694D01*
X215893346Y-141983695D01*
X215695232Y-142043793D01*
X215489200Y-142064085D01*
X215283169Y-142043793D01*
X215085055Y-141983695D01*
X215085052Y-141983694D01*
X214971225Y-141922852D01*
X214902472Y-141886103D01*
X214742436Y-141754765D01*
X214611098Y-141594729D01*
X214577104Y-141531130D01*
X214513505Y-141412146D01*
X214453407Y-141214033D01*
X214438200Y-141059631D01*
X214438200Y-139356370D01*
X214453407Y-139201971D01*
X214453407Y-139201969D01*
X214513505Y-139003855D01*
X214513506Y-139003852D01*
X214548721Y-138937970D01*
X214611097Y-138821271D01*
X214742435Y-138661235D01*
X214902471Y-138529897D01*
X215030327Y-138461557D01*
X215085051Y-138432306D01*
X215085054Y-138432305D01*
X215283168Y-138372207D01*
X215489200Y-138351915D01*
X215695231Y-138372207D01*
G37*
G36*
X208195231Y-138372207D02*
G01*
X208393345Y-138432305D01*
X208393348Y-138432306D01*
X208448072Y-138461557D01*
X208575929Y-138529897D01*
X208735965Y-138661235D01*
X208867303Y-138821271D01*
X208867304Y-138821273D01*
X208964894Y-139003851D01*
X208964894Y-139003852D01*
X208964895Y-139003854D01*
X209024993Y-139201968D01*
X209040200Y-139356370D01*
X209040200Y-141059630D01*
X209024993Y-141214032D01*
X208964895Y-141412146D01*
X208964894Y-141412149D01*
X208913139Y-141508975D01*
X208867303Y-141594729D01*
X208735965Y-141754765D01*
X208575929Y-141886103D01*
X208507176Y-141922852D01*
X208393349Y-141983694D01*
X208393346Y-141983695D01*
X208195232Y-142043793D01*
X207989200Y-142064085D01*
X207783169Y-142043793D01*
X207585055Y-141983695D01*
X207585052Y-141983694D01*
X207471225Y-141922852D01*
X207402472Y-141886103D01*
X207242436Y-141754765D01*
X207111098Y-141594729D01*
X207077104Y-141531130D01*
X207013505Y-141412146D01*
X206953407Y-141214033D01*
X206938200Y-141059631D01*
X206938200Y-139356370D01*
X206953407Y-139201971D01*
X206953407Y-139201969D01*
X207013505Y-139003855D01*
X207013506Y-139003852D01*
X207048721Y-138937970D01*
X207111097Y-138821271D01*
X207242435Y-138661235D01*
X207402471Y-138529897D01*
X207530327Y-138461557D01*
X207585051Y-138432306D01*
X207585054Y-138432305D01*
X207783168Y-138372207D01*
X207989200Y-138351915D01*
X208195231Y-138372207D01*
G37*
G36*
X200695231Y-138372207D02*
G01*
X200893345Y-138432305D01*
X200893348Y-138432306D01*
X200948072Y-138461557D01*
X201075929Y-138529897D01*
X201235965Y-138661235D01*
X201367303Y-138821271D01*
X201367304Y-138821273D01*
X201464894Y-139003851D01*
X201464894Y-139003852D01*
X201464895Y-139003854D01*
X201524993Y-139201968D01*
X201540200Y-139356370D01*
X201540200Y-141059630D01*
X201524993Y-141214032D01*
X201464895Y-141412146D01*
X201464894Y-141412149D01*
X201413139Y-141508975D01*
X201367303Y-141594729D01*
X201235965Y-141754765D01*
X201075929Y-141886103D01*
X201007176Y-141922852D01*
X200893349Y-141983694D01*
X200893346Y-141983695D01*
X200695232Y-142043793D01*
X200489200Y-142064085D01*
X200283169Y-142043793D01*
X200085055Y-141983695D01*
X200085052Y-141983694D01*
X199971225Y-141922852D01*
X199902472Y-141886103D01*
X199742436Y-141754765D01*
X199611098Y-141594729D01*
X199577104Y-141531130D01*
X199513505Y-141412146D01*
X199453407Y-141214033D01*
X199438200Y-141059631D01*
X199438200Y-139356370D01*
X199453407Y-139201971D01*
X199453407Y-139201969D01*
X199513505Y-139003855D01*
X199513506Y-139003852D01*
X199548721Y-138937970D01*
X199611097Y-138821271D01*
X199742435Y-138661235D01*
X199902471Y-138529897D01*
X200030327Y-138461557D01*
X200085051Y-138432306D01*
X200085054Y-138432305D01*
X200283168Y-138372207D01*
X200489200Y-138351915D01*
X200695231Y-138372207D01*
G37*
G36*
X193904052Y-138360840D02*
G01*
X193935643Y-138370423D01*
X193964757Y-138385985D01*
X193990274Y-138406926D01*
X194011215Y-138432443D01*
X194026777Y-138461557D01*
X194036360Y-138493148D01*
X194040200Y-138532140D01*
X194040200Y-141883860D01*
X194036360Y-141922852D01*
X194026777Y-141954443D01*
X194011215Y-141983557D01*
X193990274Y-142009074D01*
X193964757Y-142030015D01*
X193935643Y-142045577D01*
X193904052Y-142055160D01*
X193865060Y-142059000D01*
X192113340Y-142059000D01*
X192074348Y-142055160D01*
X192042757Y-142045577D01*
X192013643Y-142030015D01*
X191988126Y-142009074D01*
X191967185Y-141983557D01*
X191951623Y-141954443D01*
X191942040Y-141922852D01*
X191938200Y-141883860D01*
X191938200Y-138532140D01*
X191942040Y-138493148D01*
X191951623Y-138461557D01*
X191967185Y-138432443D01*
X191988126Y-138406926D01*
X192013643Y-138385985D01*
X192042757Y-138370423D01*
X192074348Y-138360840D01*
X192113340Y-138357000D01*
X193865060Y-138357000D01*
X193904052Y-138360840D01*
G37*
G36*
X143916852Y-138360840D02*
G01*
X143948443Y-138370423D01*
X143977557Y-138385985D01*
X144003074Y-138406926D01*
X144024015Y-138432443D01*
X144039577Y-138461557D01*
X144049160Y-138493148D01*
X144053000Y-138532140D01*
X144053000Y-141883860D01*
X144049160Y-141922852D01*
X144039577Y-141954443D01*
X144024015Y-141983557D01*
X144003074Y-142009074D01*
X143977557Y-142030015D01*
X143948443Y-142045577D01*
X143916852Y-142055160D01*
X143877860Y-142059000D01*
X142126140Y-142059000D01*
X142087148Y-142055160D01*
X142055557Y-142045577D01*
X142026443Y-142030015D01*
X142000926Y-142009074D01*
X141979985Y-141983557D01*
X141964423Y-141954443D01*
X141954840Y-141922852D01*
X141951000Y-141883860D01*
X141951000Y-138532140D01*
X141954840Y-138493148D01*
X141964423Y-138461557D01*
X141979985Y-138432443D01*
X142000926Y-138406926D01*
X142026443Y-138385985D01*
X142055557Y-138370423D01*
X142087148Y-138360840D01*
X142126140Y-138357000D01*
X143877860Y-138357000D01*
X143916852Y-138360840D01*
G37*
G36*
X144053000Y-136741000D02*
G01*
X141951000Y-136741000D01*
X141951000Y-135039000D01*
X144053000Y-135039000D01*
X144053000Y-136741000D01*
G37*
G36*
X153761674Y-134254465D02*
G01*
X153799367Y-134265899D01*
X153834103Y-134284466D01*
X153864548Y-134309452D01*
X153889534Y-134339897D01*
X153908101Y-134374633D01*
X153919535Y-134412326D01*
X153924000Y-134457661D01*
X153924000Y-135544339D01*
X153919535Y-135589674D01*
X153908101Y-135627367D01*
X153889534Y-135662103D01*
X153864548Y-135692548D01*
X153834103Y-135717534D01*
X153799367Y-135736101D01*
X153761674Y-135747535D01*
X153716339Y-135752000D01*
X152879661Y-135752000D01*
X152834326Y-135747535D01*
X152796633Y-135736101D01*
X152761897Y-135717534D01*
X152731452Y-135692548D01*
X152706466Y-135662103D01*
X152687899Y-135627367D01*
X152676465Y-135589674D01*
X152672000Y-135544339D01*
X152672000Y-134457661D01*
X152676465Y-134412326D01*
X152687899Y-134374633D01*
X152706466Y-134339897D01*
X152731452Y-134309452D01*
X152761897Y-134284466D01*
X152796633Y-134265899D01*
X152834326Y-134254465D01*
X152879661Y-134250000D01*
X153716339Y-134250000D01*
X153761674Y-134254465D01*
G37*
G36*
X151711674Y-134254465D02*
G01*
X151749367Y-134265899D01*
X151784103Y-134284466D01*
X151814548Y-134309452D01*
X151839534Y-134339897D01*
X151858101Y-134374633D01*
X151869535Y-134412326D01*
X151874000Y-134457661D01*
X151874000Y-135544339D01*
X151869535Y-135589674D01*
X151858101Y-135627367D01*
X151839534Y-135662103D01*
X151814548Y-135692548D01*
X151784103Y-135717534D01*
X151749367Y-135736101D01*
X151711674Y-135747535D01*
X151666339Y-135752000D01*
X150829661Y-135752000D01*
X150784326Y-135747535D01*
X150746633Y-135736101D01*
X150711897Y-135717534D01*
X150681452Y-135692548D01*
X150656466Y-135662103D01*
X150637899Y-135627367D01*
X150626465Y-135589674D01*
X150622000Y-135544339D01*
X150622000Y-134457661D01*
X150626465Y-134412326D01*
X150637899Y-134374633D01*
X150656466Y-134339897D01*
X150681452Y-134309452D01*
X150711897Y-134284466D01*
X150746633Y-134265899D01*
X150784326Y-134254465D01*
X150829661Y-134250000D01*
X151666339Y-134250000D01*
X151711674Y-134254465D01*
G37*
G36*
X144053000Y-132677000D02*
G01*
X141951000Y-132677000D01*
X141951000Y-130975000D01*
X144053000Y-130975000D01*
X144053000Y-132677000D01*
G37*
G36*
X151711674Y-130952465D02*
G01*
X151749367Y-130963899D01*
X151784103Y-130982466D01*
X151814548Y-131007452D01*
X151839534Y-131037897D01*
X151858101Y-131072633D01*
X151869535Y-131110326D01*
X151874000Y-131155661D01*
X151874000Y-132242339D01*
X151869535Y-132287674D01*
X151858101Y-132325367D01*
X151839534Y-132360103D01*
X151814548Y-132390548D01*
X151784103Y-132415534D01*
X151749367Y-132434101D01*
X151711674Y-132445535D01*
X151666339Y-132450000D01*
X150829661Y-132450000D01*
X150784326Y-132445535D01*
X150746633Y-132434101D01*
X150711897Y-132415534D01*
X150681452Y-132390548D01*
X150656466Y-132360103D01*
X150637899Y-132325367D01*
X150626465Y-132287674D01*
X150622000Y-132242339D01*
X150622000Y-131155661D01*
X150626465Y-131110326D01*
X150637899Y-131072633D01*
X150656466Y-131037897D01*
X150681452Y-131007452D01*
X150711897Y-130982466D01*
X150746633Y-130963899D01*
X150784326Y-130952465D01*
X150829661Y-130948000D01*
X151666339Y-130948000D01*
X151711674Y-130952465D01*
G37*
G36*
X153761674Y-130952465D02*
G01*
X153799367Y-130963899D01*
X153834103Y-130982466D01*
X153864548Y-131007452D01*
X153889534Y-131037897D01*
X153908101Y-131072633D01*
X153919535Y-131110326D01*
X153924000Y-131155661D01*
X153924000Y-132242339D01*
X153919535Y-132287674D01*
X153908101Y-132325367D01*
X153889534Y-132360103D01*
X153864548Y-132390548D01*
X153834103Y-132415534D01*
X153799367Y-132434101D01*
X153761674Y-132445535D01*
X153716339Y-132450000D01*
X152879661Y-132450000D01*
X152834326Y-132445535D01*
X152796633Y-132434101D01*
X152761897Y-132415534D01*
X152731452Y-132390548D01*
X152706466Y-132360103D01*
X152687899Y-132325367D01*
X152676465Y-132287674D01*
X152672000Y-132242339D01*
X152672000Y-131155661D01*
X152676465Y-131110326D01*
X152687899Y-131072633D01*
X152706466Y-131037897D01*
X152731452Y-131007452D01*
X152761897Y-130982466D01*
X152796633Y-130963899D01*
X152834326Y-130952465D01*
X152879661Y-130948000D01*
X153716339Y-130948000D01*
X153761674Y-130952465D01*
G37*
G36*
X164585520Y-129925920D02*
G01*
X164774681Y-129983301D01*
X164949012Y-130076483D01*
X165101815Y-130201885D01*
X165227217Y-130354688D01*
X165270982Y-130436567D01*
X165320398Y-130529017D01*
X165320399Y-130529020D01*
X165377780Y-130718181D01*
X165392300Y-130865607D01*
X165392300Y-131059194D01*
X165377780Y-131206620D01*
X165320399Y-131395781D01*
X165227217Y-131570112D01*
X165101815Y-131722915D01*
X164949012Y-131848317D01*
X164867133Y-131892082D01*
X164774683Y-131941498D01*
X164774680Y-131941499D01*
X164585519Y-131998880D01*
X164388800Y-132018255D01*
X164192080Y-131998880D01*
X164002919Y-131941499D01*
X163828588Y-131848317D01*
X163675785Y-131722915D01*
X163550383Y-131570112D01*
X163506618Y-131488233D01*
X163457202Y-131395783D01*
X163403932Y-131220173D01*
X163399820Y-131206619D01*
X163385300Y-131059193D01*
X163385300Y-130865606D01*
X163399820Y-130718180D01*
X163457201Y-130529019D01*
X163550383Y-130354688D01*
X163675785Y-130201885D01*
X163828588Y-130076483D01*
X164002920Y-129983301D01*
X164192081Y-129925920D01*
X164388800Y-129906545D01*
X164585520Y-129925920D01*
G37*
G36*
X182479820Y-129925920D02*
G01*
X182668981Y-129983301D01*
X182843312Y-130076483D01*
X182996115Y-130201885D01*
X183121517Y-130354688D01*
X183165282Y-130436567D01*
X183214698Y-130529017D01*
X183214699Y-130529020D01*
X183272080Y-130718181D01*
X183286600Y-130865607D01*
X183286600Y-131059194D01*
X183272080Y-131206620D01*
X183214699Y-131395781D01*
X183121517Y-131570112D01*
X182996115Y-131722915D01*
X182843312Y-131848317D01*
X182761433Y-131892082D01*
X182668983Y-131941498D01*
X182668980Y-131941499D01*
X182479819Y-131998880D01*
X182283100Y-132018255D01*
X182086380Y-131998880D01*
X181897219Y-131941499D01*
X181722888Y-131848317D01*
X181570085Y-131722915D01*
X181444683Y-131570112D01*
X181400918Y-131488233D01*
X181351502Y-131395783D01*
X181298232Y-131220173D01*
X181294120Y-131206619D01*
X181279600Y-131059193D01*
X181279600Y-130865606D01*
X181294120Y-130718180D01*
X181351501Y-130529019D01*
X181444683Y-130354688D01*
X181570085Y-130201885D01*
X181722888Y-130076483D01*
X181897220Y-129983301D01*
X182086381Y-129925920D01*
X182283100Y-129906545D01*
X182479820Y-129925920D01*
G37*
G36*
X179939820Y-129925920D02*
G01*
X180128981Y-129983301D01*
X180303312Y-130076483D01*
X180456115Y-130201885D01*
X180581517Y-130354688D01*
X180625282Y-130436567D01*
X180674698Y-130529017D01*
X180674699Y-130529020D01*
X180732080Y-130718181D01*
X180746600Y-130865607D01*
X180746600Y-131059194D01*
X180732080Y-131206620D01*
X180674699Y-131395781D01*
X180581517Y-131570112D01*
X180456115Y-131722915D01*
X180303312Y-131848317D01*
X180221433Y-131892082D01*
X180128983Y-131941498D01*
X180128980Y-131941499D01*
X179939819Y-131998880D01*
X179743100Y-132018255D01*
X179546380Y-131998880D01*
X179357219Y-131941499D01*
X179182888Y-131848317D01*
X179030085Y-131722915D01*
X178904683Y-131570112D01*
X178860918Y-131488233D01*
X178811502Y-131395783D01*
X178758232Y-131220173D01*
X178754120Y-131206619D01*
X178739600Y-131059193D01*
X178739600Y-130865606D01*
X178754120Y-130718180D01*
X178811501Y-130529019D01*
X178904683Y-130354688D01*
X179030085Y-130201885D01*
X179182888Y-130076483D01*
X179357220Y-129983301D01*
X179546381Y-129925920D01*
X179743100Y-129906545D01*
X179939820Y-129925920D01*
G37*
G36*
X167125520Y-129925920D02*
G01*
X167314681Y-129983301D01*
X167489012Y-130076483D01*
X167641815Y-130201885D01*
X167767217Y-130354688D01*
X167810982Y-130436567D01*
X167860398Y-130529017D01*
X167860399Y-130529020D01*
X167917780Y-130718181D01*
X167932300Y-130865607D01*
X167932300Y-131059194D01*
X167917780Y-131206620D01*
X167860399Y-131395781D01*
X167767217Y-131570112D01*
X167641815Y-131722915D01*
X167489012Y-131848317D01*
X167407133Y-131892082D01*
X167314683Y-131941498D01*
X167314680Y-131941499D01*
X167125519Y-131998880D01*
X166928800Y-132018255D01*
X166732080Y-131998880D01*
X166542919Y-131941499D01*
X166368588Y-131848317D01*
X166215785Y-131722915D01*
X166090383Y-131570112D01*
X166046618Y-131488233D01*
X165997202Y-131395783D01*
X165943932Y-131220173D01*
X165939820Y-131206619D01*
X165925300Y-131059193D01*
X165925300Y-130865606D01*
X165939820Y-130718180D01*
X165997201Y-130529019D01*
X166090383Y-130354688D01*
X166215785Y-130201885D01*
X166368588Y-130076483D01*
X166542920Y-129983301D01*
X166732081Y-129925920D01*
X166928800Y-129906545D01*
X167125520Y-129925920D01*
G37*
G36*
X170472300Y-132013400D02*
G01*
X168465300Y-132013400D01*
X168465300Y-129911400D01*
X170472300Y-129911400D01*
X170472300Y-132013400D01*
G37*
G36*
X185826600Y-132013400D02*
G01*
X183819600Y-132013400D01*
X183819600Y-129911400D01*
X185826600Y-129911400D01*
X185826600Y-132013400D01*
G37*
G36*
X138594000Y-130600000D02*
G01*
X136742000Y-130600000D01*
X136742000Y-129248000D01*
X138594000Y-129248000D01*
X138594000Y-130600000D01*
G37*
G36*
X161573874Y-127301865D02*
G01*
X161611567Y-127313299D01*
X161646303Y-127331866D01*
X161676748Y-127356852D01*
X161701734Y-127387297D01*
X161720301Y-127422033D01*
X161731735Y-127459726D01*
X161736200Y-127505061D01*
X161736200Y-128341739D01*
X161731735Y-128387074D01*
X161720301Y-128424767D01*
X161701734Y-128459503D01*
X161676748Y-128489948D01*
X161646303Y-128514934D01*
X161611567Y-128533501D01*
X161573874Y-128544935D01*
X161528539Y-128549400D01*
X160441861Y-128549400D01*
X160396526Y-128544935D01*
X160358833Y-128533501D01*
X160324097Y-128514934D01*
X160293652Y-128489948D01*
X160268666Y-128459503D01*
X160250099Y-128424767D01*
X160238665Y-128387074D01*
X160234200Y-128341739D01*
X160234200Y-127505061D01*
X160238665Y-127459726D01*
X160250099Y-127422033D01*
X160268666Y-127387297D01*
X160293652Y-127356852D01*
X160324097Y-127331866D01*
X160358833Y-127313299D01*
X160396526Y-127301865D01*
X160441861Y-127297400D01*
X161528539Y-127297400D01*
X161573874Y-127301865D01*
G37*
G36*
X170057474Y-127292865D02*
G01*
X170095167Y-127304299D01*
X170129903Y-127322866D01*
X170160348Y-127347852D01*
X170185334Y-127378297D01*
X170203901Y-127413033D01*
X170215335Y-127450726D01*
X170219800Y-127496061D01*
X170219800Y-128332739D01*
X170215335Y-128378074D01*
X170203901Y-128415767D01*
X170185334Y-128450503D01*
X170160348Y-128480948D01*
X170129903Y-128505934D01*
X170095167Y-128524501D01*
X170057474Y-128535935D01*
X170012139Y-128540400D01*
X168925461Y-128540400D01*
X168880126Y-128535935D01*
X168842433Y-128524501D01*
X168807697Y-128505934D01*
X168777252Y-128480948D01*
X168752266Y-128450503D01*
X168733699Y-128415767D01*
X168722265Y-128378074D01*
X168717800Y-128332739D01*
X168717800Y-127496061D01*
X168722265Y-127450726D01*
X168733699Y-127413033D01*
X168752266Y-127378297D01*
X168777252Y-127347852D01*
X168807697Y-127322866D01*
X168842433Y-127304299D01*
X168880126Y-127292865D01*
X168925461Y-127288400D01*
X170012139Y-127288400D01*
X170057474Y-127292865D01*
G37*
G36*
X185399074Y-127292865D02*
G01*
X185436767Y-127304299D01*
X185471503Y-127322866D01*
X185501948Y-127347852D01*
X185526934Y-127378297D01*
X185545501Y-127413033D01*
X185556935Y-127450726D01*
X185561400Y-127496061D01*
X185561400Y-128332739D01*
X185556935Y-128378074D01*
X185545501Y-128415767D01*
X185526934Y-128450503D01*
X185501948Y-128480948D01*
X185471503Y-128505934D01*
X185436767Y-128524501D01*
X185399074Y-128535935D01*
X185353739Y-128540400D01*
X184267061Y-128540400D01*
X184221726Y-128535935D01*
X184184033Y-128524501D01*
X184149297Y-128505934D01*
X184118852Y-128480948D01*
X184093866Y-128450503D01*
X184075299Y-128415767D01*
X184063865Y-128378074D01*
X184059400Y-128332739D01*
X184059400Y-127496061D01*
X184063865Y-127450726D01*
X184075299Y-127413033D01*
X184093866Y-127378297D01*
X184118852Y-127347852D01*
X184149297Y-127322866D01*
X184184033Y-127304299D01*
X184221726Y-127292865D01*
X184267061Y-127288400D01*
X185353739Y-127288400D01*
X185399074Y-127292865D01*
G37*
G36*
X138594000Y-127800000D02*
G01*
X136742000Y-127800000D01*
X136742000Y-126448000D01*
X138594000Y-126448000D01*
X138594000Y-127800000D01*
G37*
G36*
X161573874Y-125251865D02*
G01*
X161611567Y-125263299D01*
X161646303Y-125281866D01*
X161676748Y-125306852D01*
X161701734Y-125337297D01*
X161720301Y-125372033D01*
X161731735Y-125409726D01*
X161736200Y-125455061D01*
X161736200Y-126291739D01*
X161731735Y-126337074D01*
X161720301Y-126374767D01*
X161701734Y-126409503D01*
X161676748Y-126439948D01*
X161646303Y-126464934D01*
X161611567Y-126483501D01*
X161573874Y-126494935D01*
X161528539Y-126499400D01*
X160441861Y-126499400D01*
X160396526Y-126494935D01*
X160358833Y-126483501D01*
X160324097Y-126464934D01*
X160293652Y-126439948D01*
X160268666Y-126409503D01*
X160250099Y-126374767D01*
X160238665Y-126337074D01*
X160234200Y-126291739D01*
X160234200Y-125455061D01*
X160238665Y-125409726D01*
X160250099Y-125372033D01*
X160268666Y-125337297D01*
X160293652Y-125306852D01*
X160324097Y-125281866D01*
X160358833Y-125263299D01*
X160396526Y-125251865D01*
X160441861Y-125247400D01*
X161528539Y-125247400D01*
X161573874Y-125251865D01*
G37*
G36*
X170057474Y-125242865D02*
G01*
X170095167Y-125254299D01*
X170129903Y-125272866D01*
X170160348Y-125297852D01*
X170185334Y-125328297D01*
X170203901Y-125363033D01*
X170215335Y-125400726D01*
X170219800Y-125446061D01*
X170219800Y-126282739D01*
X170215335Y-126328074D01*
X170203901Y-126365767D01*
X170185334Y-126400503D01*
X170160348Y-126430948D01*
X170129903Y-126455934D01*
X170095167Y-126474501D01*
X170057474Y-126485935D01*
X170012139Y-126490400D01*
X168925461Y-126490400D01*
X168880126Y-126485935D01*
X168842433Y-126474501D01*
X168807697Y-126455934D01*
X168777252Y-126430948D01*
X168752266Y-126400503D01*
X168733699Y-126365767D01*
X168722265Y-126328074D01*
X168717800Y-126282739D01*
X168717800Y-125446061D01*
X168722265Y-125400726D01*
X168733699Y-125363033D01*
X168752266Y-125328297D01*
X168777252Y-125297852D01*
X168807697Y-125272866D01*
X168842433Y-125254299D01*
X168880126Y-125242865D01*
X168925461Y-125238400D01*
X170012139Y-125238400D01*
X170057474Y-125242865D01*
G37*
G36*
X185399074Y-125242865D02*
G01*
X185436767Y-125254299D01*
X185471503Y-125272866D01*
X185501948Y-125297852D01*
X185526934Y-125328297D01*
X185545501Y-125363033D01*
X185556935Y-125400726D01*
X185561400Y-125446061D01*
X185561400Y-126282739D01*
X185556935Y-126328074D01*
X185545501Y-126365767D01*
X185526934Y-126400503D01*
X185501948Y-126430948D01*
X185471503Y-126455934D01*
X185436767Y-126474501D01*
X185399074Y-126485935D01*
X185353739Y-126490400D01*
X184267061Y-126490400D01*
X184221726Y-126485935D01*
X184184033Y-126474501D01*
X184149297Y-126455934D01*
X184118852Y-126430948D01*
X184093866Y-126400503D01*
X184075299Y-126365767D01*
X184063865Y-126328074D01*
X184059400Y-126282739D01*
X184059400Y-125446061D01*
X184063865Y-125400726D01*
X184075299Y-125363033D01*
X184093866Y-125328297D01*
X184118852Y-125297852D01*
X184149297Y-125272866D01*
X184184033Y-125254299D01*
X184221726Y-125242865D01*
X184267061Y-125238400D01*
X185353739Y-125238400D01*
X185399074Y-125242865D01*
G37*
G36*
X143528000Y-125990000D02*
G01*
X142476000Y-125990000D01*
X142476000Y-125013000D01*
X143528000Y-125013000D01*
X143528000Y-125990000D01*
G37*
G36*
X158669200Y-125406400D02*
G01*
X153567200Y-125406400D01*
X153567200Y-122304400D01*
X158669200Y-122304400D01*
X158669200Y-125406400D01*
G37*
G36*
X150669200Y-125406400D02*
G01*
X145567200Y-125406400D01*
X145567200Y-122304400D01*
X150669200Y-122304400D01*
X150669200Y-125406400D01*
G37*
G36*
X143528000Y-124415000D02*
G01*
X142476000Y-124415000D01*
X142476000Y-123438000D01*
X143528000Y-123438000D01*
X143528000Y-124415000D01*
G37*
G36*
X210900674Y-118183265D02*
G01*
X210938367Y-118194699D01*
X210973103Y-118213266D01*
X211003548Y-118238252D01*
X211028534Y-118268697D01*
X211047101Y-118303433D01*
X211058535Y-118341126D01*
X211063000Y-118386461D01*
X211063000Y-119223139D01*
X211058535Y-119268474D01*
X211047101Y-119306167D01*
X211028534Y-119340903D01*
X211003548Y-119371348D01*
X210973103Y-119396334D01*
X210938367Y-119414901D01*
X210900674Y-119426335D01*
X210855339Y-119430800D01*
X209768661Y-119430800D01*
X209723326Y-119426335D01*
X209685633Y-119414901D01*
X209650897Y-119396334D01*
X209620452Y-119371348D01*
X209595466Y-119340903D01*
X209576899Y-119306167D01*
X209565465Y-119268474D01*
X209561000Y-119223139D01*
X209561000Y-118386461D01*
X209565465Y-118341126D01*
X209576899Y-118303433D01*
X209595466Y-118268697D01*
X209620452Y-118238252D01*
X209650897Y-118213266D01*
X209685633Y-118194699D01*
X209723326Y-118183265D01*
X209768661Y-118178800D01*
X210855339Y-118178800D01*
X210900674Y-118183265D01*
G37*
G36*
X205820674Y-118183265D02*
G01*
X205858367Y-118194699D01*
X205893103Y-118213266D01*
X205923548Y-118238252D01*
X205948534Y-118268697D01*
X205967101Y-118303433D01*
X205978535Y-118341126D01*
X205983000Y-118386461D01*
X205983000Y-119223139D01*
X205978535Y-119268474D01*
X205967101Y-119306167D01*
X205948534Y-119340903D01*
X205923548Y-119371348D01*
X205893103Y-119396334D01*
X205858367Y-119414901D01*
X205820674Y-119426335D01*
X205775339Y-119430800D01*
X204688661Y-119430800D01*
X204643326Y-119426335D01*
X204605633Y-119414901D01*
X204570897Y-119396334D01*
X204540452Y-119371348D01*
X204515466Y-119340903D01*
X204496899Y-119306167D01*
X204485465Y-119268474D01*
X204481000Y-119223139D01*
X204481000Y-118386461D01*
X204485465Y-118341126D01*
X204496899Y-118303433D01*
X204515466Y-118268697D01*
X204540452Y-118238252D01*
X204570897Y-118213266D01*
X204605633Y-118194699D01*
X204643326Y-118183265D01*
X204688661Y-118178800D01*
X205775339Y-118178800D01*
X205820674Y-118183265D01*
G37*
G36*
X199978674Y-118183265D02*
G01*
X200016367Y-118194699D01*
X200051103Y-118213266D01*
X200081548Y-118238252D01*
X200106534Y-118268697D01*
X200125101Y-118303433D01*
X200136535Y-118341126D01*
X200141000Y-118386461D01*
X200141000Y-119223139D01*
X200136535Y-119268474D01*
X200125101Y-119306167D01*
X200106534Y-119340903D01*
X200081548Y-119371348D01*
X200051103Y-119396334D01*
X200016367Y-119414901D01*
X199978674Y-119426335D01*
X199933339Y-119430800D01*
X198846661Y-119430800D01*
X198801326Y-119426335D01*
X198763633Y-119414901D01*
X198728897Y-119396334D01*
X198698452Y-119371348D01*
X198673466Y-119340903D01*
X198654899Y-119306167D01*
X198643465Y-119268474D01*
X198639000Y-119223139D01*
X198639000Y-118386461D01*
X198643465Y-118341126D01*
X198654899Y-118303433D01*
X198673466Y-118268697D01*
X198698452Y-118238252D01*
X198728897Y-118213266D01*
X198763633Y-118194699D01*
X198801326Y-118183265D01*
X198846661Y-118178800D01*
X199933339Y-118178800D01*
X199978674Y-118183265D01*
G37*
G36*
X177984128Y-118714264D02*
G01*
X178005209Y-118720660D01*
X178024645Y-118731048D01*
X178041676Y-118745024D01*
X178055652Y-118762055D01*
X178066040Y-118781491D01*
X178072436Y-118802572D01*
X178075200Y-118830640D01*
X178075200Y-119294360D01*
X178072436Y-119322428D01*
X178066040Y-119343509D01*
X178055652Y-119362945D01*
X178041676Y-119379976D01*
X178024645Y-119393952D01*
X178005209Y-119404340D01*
X177984128Y-119410736D01*
X177956060Y-119413500D01*
X176142340Y-119413500D01*
X176114272Y-119410736D01*
X176093191Y-119404340D01*
X176073755Y-119393952D01*
X176056724Y-119379976D01*
X176042748Y-119362945D01*
X176032360Y-119343509D01*
X176025964Y-119322428D01*
X176023200Y-119294360D01*
X176023200Y-118830640D01*
X176025964Y-118802572D01*
X176032360Y-118781491D01*
X176042748Y-118762055D01*
X176056724Y-118745024D01*
X176073755Y-118731048D01*
X176093191Y-118720660D01*
X176114272Y-118714264D01*
X176142340Y-118711500D01*
X177956060Y-118711500D01*
X177984128Y-118714264D01*
G37*
G36*
X173034128Y-118714264D02*
G01*
X173055209Y-118720660D01*
X173074645Y-118731048D01*
X173091676Y-118745024D01*
X173105652Y-118762055D01*
X173116040Y-118781491D01*
X173122436Y-118802572D01*
X173125200Y-118830640D01*
X173125200Y-119294360D01*
X173122436Y-119322428D01*
X173116040Y-119343509D01*
X173105652Y-119362945D01*
X173091676Y-119379976D01*
X173074645Y-119393952D01*
X173055209Y-119404340D01*
X173034128Y-119410736D01*
X173006060Y-119413500D01*
X171192340Y-119413500D01*
X171164272Y-119410736D01*
X171143191Y-119404340D01*
X171123755Y-119393952D01*
X171106724Y-119379976D01*
X171092748Y-119362945D01*
X171082360Y-119343509D01*
X171075964Y-119322428D01*
X171073200Y-119294360D01*
X171073200Y-118830640D01*
X171075964Y-118802572D01*
X171082360Y-118781491D01*
X171092748Y-118762055D01*
X171106724Y-118745024D01*
X171123755Y-118731048D01*
X171143191Y-118720660D01*
X171164272Y-118714264D01*
X171192340Y-118711500D01*
X173006060Y-118711500D01*
X173034128Y-118714264D01*
G37*
G36*
X177984128Y-117444264D02*
G01*
X178005209Y-117450660D01*
X178024645Y-117461048D01*
X178041676Y-117475024D01*
X178055652Y-117492055D01*
X178066040Y-117511491D01*
X178072436Y-117532572D01*
X178075200Y-117560640D01*
X178075200Y-118024360D01*
X178072436Y-118052428D01*
X178066040Y-118073509D01*
X178055652Y-118092945D01*
X178041676Y-118109976D01*
X178024645Y-118123952D01*
X178005209Y-118134340D01*
X177984128Y-118140736D01*
X177956060Y-118143500D01*
X176142340Y-118143500D01*
X176114272Y-118140736D01*
X176093191Y-118134340D01*
X176073755Y-118123952D01*
X176056724Y-118109976D01*
X176042748Y-118092945D01*
X176032360Y-118073509D01*
X176025964Y-118052428D01*
X176023200Y-118024360D01*
X176023200Y-117560640D01*
X176025964Y-117532572D01*
X176032360Y-117511491D01*
X176042748Y-117492055D01*
X176056724Y-117475024D01*
X176073755Y-117461048D01*
X176093191Y-117450660D01*
X176114272Y-117444264D01*
X176142340Y-117441500D01*
X177956060Y-117441500D01*
X177984128Y-117444264D01*
G37*
G36*
X173034128Y-117444264D02*
G01*
X173055209Y-117450660D01*
X173074645Y-117461048D01*
X173091676Y-117475024D01*
X173105652Y-117492055D01*
X173116040Y-117511491D01*
X173122436Y-117532572D01*
X173125200Y-117560640D01*
X173125200Y-118024360D01*
X173122436Y-118052428D01*
X173116040Y-118073509D01*
X173105652Y-118092945D01*
X173091676Y-118109976D01*
X173074645Y-118123952D01*
X173055209Y-118134340D01*
X173034128Y-118140736D01*
X173006060Y-118143500D01*
X171192340Y-118143500D01*
X171164272Y-118140736D01*
X171143191Y-118134340D01*
X171123755Y-118123952D01*
X171106724Y-118109976D01*
X171092748Y-118092945D01*
X171082360Y-118073509D01*
X171075964Y-118052428D01*
X171073200Y-118024360D01*
X171073200Y-117560640D01*
X171075964Y-117532572D01*
X171082360Y-117511491D01*
X171092748Y-117492055D01*
X171106724Y-117475024D01*
X171123755Y-117461048D01*
X171143191Y-117450660D01*
X171164272Y-117444264D01*
X171192340Y-117441500D01*
X173006060Y-117441500D01*
X173034128Y-117444264D01*
G37*
G36*
X205820674Y-116133265D02*
G01*
X205858367Y-116144699D01*
X205893103Y-116163266D01*
X205923548Y-116188252D01*
X205948534Y-116218697D01*
X205967101Y-116253433D01*
X205978535Y-116291126D01*
X205983000Y-116336461D01*
X205983000Y-117173139D01*
X205978535Y-117218474D01*
X205967101Y-117256167D01*
X205948534Y-117290903D01*
X205923548Y-117321348D01*
X205893103Y-117346334D01*
X205858367Y-117364901D01*
X205820674Y-117376335D01*
X205775339Y-117380800D01*
X204688661Y-117380800D01*
X204643326Y-117376335D01*
X204605633Y-117364901D01*
X204570897Y-117346334D01*
X204540452Y-117321348D01*
X204515466Y-117290903D01*
X204496899Y-117256167D01*
X204485465Y-117218474D01*
X204481000Y-117173139D01*
X204481000Y-116336461D01*
X204485465Y-116291126D01*
X204496899Y-116253433D01*
X204515466Y-116218697D01*
X204540452Y-116188252D01*
X204570897Y-116163266D01*
X204605633Y-116144699D01*
X204643326Y-116133265D01*
X204688661Y-116128800D01*
X205775339Y-116128800D01*
X205820674Y-116133265D01*
G37*
G36*
X210900674Y-116133265D02*
G01*
X210938367Y-116144699D01*
X210973103Y-116163266D01*
X211003548Y-116188252D01*
X211028534Y-116218697D01*
X211047101Y-116253433D01*
X211058535Y-116291126D01*
X211063000Y-116336461D01*
X211063000Y-117173139D01*
X211058535Y-117218474D01*
X211047101Y-117256167D01*
X211028534Y-117290903D01*
X211003548Y-117321348D01*
X210973103Y-117346334D01*
X210938367Y-117364901D01*
X210900674Y-117376335D01*
X210855339Y-117380800D01*
X209768661Y-117380800D01*
X209723326Y-117376335D01*
X209685633Y-117364901D01*
X209650897Y-117346334D01*
X209620452Y-117321348D01*
X209595466Y-117290903D01*
X209576899Y-117256167D01*
X209565465Y-117218474D01*
X209561000Y-117173139D01*
X209561000Y-116336461D01*
X209565465Y-116291126D01*
X209576899Y-116253433D01*
X209595466Y-116218697D01*
X209620452Y-116188252D01*
X209650897Y-116163266D01*
X209685633Y-116144699D01*
X209723326Y-116133265D01*
X209768661Y-116128800D01*
X210855339Y-116128800D01*
X210900674Y-116133265D01*
G37*
G36*
X199978674Y-116133265D02*
G01*
X200016367Y-116144699D01*
X200051103Y-116163266D01*
X200081548Y-116188252D01*
X200106534Y-116218697D01*
X200125101Y-116253433D01*
X200136535Y-116291126D01*
X200141000Y-116336461D01*
X200141000Y-117173139D01*
X200136535Y-117218474D01*
X200125101Y-117256167D01*
X200106534Y-117290903D01*
X200081548Y-117321348D01*
X200051103Y-117346334D01*
X200016367Y-117364901D01*
X199978674Y-117376335D01*
X199933339Y-117380800D01*
X198846661Y-117380800D01*
X198801326Y-117376335D01*
X198763633Y-117364901D01*
X198728897Y-117346334D01*
X198698452Y-117321348D01*
X198673466Y-117290903D01*
X198654899Y-117256167D01*
X198643465Y-117218474D01*
X198639000Y-117173139D01*
X198639000Y-116336461D01*
X198643465Y-116291126D01*
X198654899Y-116253433D01*
X198673466Y-116218697D01*
X198698452Y-116188252D01*
X198728897Y-116163266D01*
X198763633Y-116144699D01*
X198801326Y-116133265D01*
X198846661Y-116128800D01*
X199933339Y-116128800D01*
X199978674Y-116133265D01*
G37*
G36*
X182476374Y-115775965D02*
G01*
X182514067Y-115787399D01*
X182548803Y-115805966D01*
X182579248Y-115830952D01*
X182604234Y-115861397D01*
X182622801Y-115896133D01*
X182634235Y-115933826D01*
X182638700Y-115979161D01*
X182638700Y-117065839D01*
X182634235Y-117111174D01*
X182622801Y-117148867D01*
X182604234Y-117183603D01*
X182579248Y-117214048D01*
X182548803Y-117239034D01*
X182514067Y-117257601D01*
X182476374Y-117269035D01*
X182431039Y-117273500D01*
X181594361Y-117273500D01*
X181549026Y-117269035D01*
X181511333Y-117257601D01*
X181476597Y-117239034D01*
X181446152Y-117214048D01*
X181421166Y-117183603D01*
X181402599Y-117148867D01*
X181391165Y-117111174D01*
X181386700Y-117065839D01*
X181386700Y-115979161D01*
X181391165Y-115933826D01*
X181402599Y-115896133D01*
X181421166Y-115861397D01*
X181446152Y-115830952D01*
X181476597Y-115805966D01*
X181511333Y-115787399D01*
X181549026Y-115775965D01*
X181594361Y-115771500D01*
X182431039Y-115771500D01*
X182476374Y-115775965D01*
G37*
G36*
X180426374Y-115775965D02*
G01*
X180464067Y-115787399D01*
X180498803Y-115805966D01*
X180529248Y-115830952D01*
X180554234Y-115861397D01*
X180572801Y-115896133D01*
X180584235Y-115933826D01*
X180588700Y-115979161D01*
X180588700Y-117065839D01*
X180584235Y-117111174D01*
X180572801Y-117148867D01*
X180554234Y-117183603D01*
X180529248Y-117214048D01*
X180498803Y-117239034D01*
X180464067Y-117257601D01*
X180426374Y-117269035D01*
X180381039Y-117273500D01*
X179544361Y-117273500D01*
X179499026Y-117269035D01*
X179461333Y-117257601D01*
X179426597Y-117239034D01*
X179396152Y-117214048D01*
X179371166Y-117183603D01*
X179352599Y-117148867D01*
X179341165Y-117111174D01*
X179336700Y-117065839D01*
X179336700Y-115979161D01*
X179341165Y-115933826D01*
X179352599Y-115896133D01*
X179371166Y-115861397D01*
X179396152Y-115830952D01*
X179426597Y-115805966D01*
X179461333Y-115787399D01*
X179499026Y-115775965D01*
X179544361Y-115771500D01*
X180381039Y-115771500D01*
X180426374Y-115775965D01*
G37*
G36*
X177984128Y-116174264D02*
G01*
X178005209Y-116180660D01*
X178024645Y-116191048D01*
X178041676Y-116205024D01*
X178055652Y-116222055D01*
X178066040Y-116241491D01*
X178072436Y-116262572D01*
X178075200Y-116290640D01*
X178075200Y-116754360D01*
X178072436Y-116782428D01*
X178066040Y-116803509D01*
X178055652Y-116822945D01*
X178041676Y-116839976D01*
X178024645Y-116853952D01*
X178005209Y-116864340D01*
X177984128Y-116870736D01*
X177956060Y-116873500D01*
X176142340Y-116873500D01*
X176114272Y-116870736D01*
X176093191Y-116864340D01*
X176073755Y-116853952D01*
X176056724Y-116839976D01*
X176042748Y-116822945D01*
X176032360Y-116803509D01*
X176025964Y-116782428D01*
X176023200Y-116754360D01*
X176023200Y-116290640D01*
X176025964Y-116262572D01*
X176032360Y-116241491D01*
X176042748Y-116222055D01*
X176056724Y-116205024D01*
X176073755Y-116191048D01*
X176093191Y-116180660D01*
X176114272Y-116174264D01*
X176142340Y-116171500D01*
X177956060Y-116171500D01*
X177984128Y-116174264D01*
G37*
G36*
X173034128Y-116174264D02*
G01*
X173055209Y-116180660D01*
X173074645Y-116191048D01*
X173091676Y-116205024D01*
X173105652Y-116222055D01*
X173116040Y-116241491D01*
X173122436Y-116262572D01*
X173125200Y-116290640D01*
X173125200Y-116754360D01*
X173122436Y-116782428D01*
X173116040Y-116803509D01*
X173105652Y-116822945D01*
X173091676Y-116839976D01*
X173074645Y-116853952D01*
X173055209Y-116864340D01*
X173034128Y-116870736D01*
X173006060Y-116873500D01*
X171192340Y-116873500D01*
X171164272Y-116870736D01*
X171143191Y-116864340D01*
X171123755Y-116853952D01*
X171106724Y-116839976D01*
X171092748Y-116822945D01*
X171082360Y-116803509D01*
X171075964Y-116782428D01*
X171073200Y-116754360D01*
X171073200Y-116290640D01*
X171075964Y-116262572D01*
X171082360Y-116241491D01*
X171092748Y-116222055D01*
X171106724Y-116205024D01*
X171123755Y-116191048D01*
X171143191Y-116180660D01*
X171164272Y-116174264D01*
X171192340Y-116171500D01*
X173006060Y-116171500D01*
X173034128Y-116174264D01*
G37*
G36*
X153826874Y-115338465D02*
G01*
X153864567Y-115349899D01*
X153899303Y-115368466D01*
X153929748Y-115393452D01*
X153954734Y-115423897D01*
X153973301Y-115458633D01*
X153984735Y-115496326D01*
X153989200Y-115541661D01*
X153989200Y-116378339D01*
X153984735Y-116423674D01*
X153973301Y-116461367D01*
X153954734Y-116496103D01*
X153929748Y-116526548D01*
X153899303Y-116551534D01*
X153864567Y-116570101D01*
X153826874Y-116581535D01*
X153781539Y-116586000D01*
X152694861Y-116586000D01*
X152649526Y-116581535D01*
X152611833Y-116570101D01*
X152577097Y-116551534D01*
X152546652Y-116526548D01*
X152521666Y-116496103D01*
X152503099Y-116461367D01*
X152491665Y-116423674D01*
X152487200Y-116378339D01*
X152487200Y-115541661D01*
X152491665Y-115496326D01*
X152503099Y-115458633D01*
X152521666Y-115423897D01*
X152546652Y-115393452D01*
X152577097Y-115368466D01*
X152611833Y-115349899D01*
X152649526Y-115338465D01*
X152694861Y-115334000D01*
X153781539Y-115334000D01*
X153826874Y-115338465D01*
G37*
G36*
X148721474Y-115313065D02*
G01*
X148759167Y-115324499D01*
X148793903Y-115343066D01*
X148824348Y-115368052D01*
X148849334Y-115398497D01*
X148867901Y-115433233D01*
X148879335Y-115470926D01*
X148883800Y-115516261D01*
X148883800Y-116352939D01*
X148879335Y-116398274D01*
X148867901Y-116435967D01*
X148849334Y-116470703D01*
X148824348Y-116501148D01*
X148793903Y-116526134D01*
X148759167Y-116544701D01*
X148721474Y-116556135D01*
X148676139Y-116560600D01*
X147589461Y-116560600D01*
X147544126Y-116556135D01*
X147506433Y-116544701D01*
X147471697Y-116526134D01*
X147441252Y-116501148D01*
X147416266Y-116470703D01*
X147397699Y-116435967D01*
X147386265Y-116398274D01*
X147381800Y-116352939D01*
X147381800Y-115516261D01*
X147386265Y-115470926D01*
X147397699Y-115433233D01*
X147416266Y-115398497D01*
X147441252Y-115368052D01*
X147471697Y-115343066D01*
X147506433Y-115324499D01*
X147544126Y-115313065D01*
X147589461Y-115308600D01*
X148676139Y-115308600D01*
X148721474Y-115313065D01*
G37*
G36*
X169649374Y-114505965D02*
G01*
X169687067Y-114517399D01*
X169721803Y-114535966D01*
X169752248Y-114560952D01*
X169777234Y-114591397D01*
X169795801Y-114626133D01*
X169807235Y-114663826D01*
X169811700Y-114709161D01*
X169811700Y-115795839D01*
X169807235Y-115841174D01*
X169795801Y-115878867D01*
X169777234Y-115913603D01*
X169752248Y-115944048D01*
X169721803Y-115969034D01*
X169687067Y-115987601D01*
X169649374Y-115999035D01*
X169604039Y-116003500D01*
X168767361Y-116003500D01*
X168722026Y-115999035D01*
X168684333Y-115987601D01*
X168649597Y-115969034D01*
X168619152Y-115944048D01*
X168594166Y-115913603D01*
X168575599Y-115878867D01*
X168564165Y-115841174D01*
X168559700Y-115795839D01*
X168559700Y-114709161D01*
X168564165Y-114663826D01*
X168575599Y-114626133D01*
X168594166Y-114591397D01*
X168619152Y-114560952D01*
X168649597Y-114535966D01*
X168684333Y-114517399D01*
X168722026Y-114505965D01*
X168767361Y-114501500D01*
X169604039Y-114501500D01*
X169649374Y-114505965D01*
G37*
G36*
X163662374Y-114505965D02*
G01*
X163700067Y-114517399D01*
X163734803Y-114535966D01*
X163765248Y-114560952D01*
X163790234Y-114591397D01*
X163808801Y-114626133D01*
X163820235Y-114663826D01*
X163824700Y-114709161D01*
X163824700Y-115795839D01*
X163820235Y-115841174D01*
X163808801Y-115878867D01*
X163790234Y-115913603D01*
X163765248Y-115944048D01*
X163734803Y-115969034D01*
X163700067Y-115987601D01*
X163662374Y-115999035D01*
X163617039Y-116003500D01*
X162780361Y-116003500D01*
X162735026Y-115999035D01*
X162697333Y-115987601D01*
X162662597Y-115969034D01*
X162632152Y-115944048D01*
X162607166Y-115913603D01*
X162588599Y-115878867D01*
X162577165Y-115841174D01*
X162572700Y-115795839D01*
X162572700Y-114709161D01*
X162577165Y-114663826D01*
X162588599Y-114626133D01*
X162607166Y-114591397D01*
X162632152Y-114560952D01*
X162662597Y-114535966D01*
X162697333Y-114517399D01*
X162735026Y-114505965D01*
X162780361Y-114501500D01*
X163617039Y-114501500D01*
X163662374Y-114505965D01*
G37*
G36*
X165712374Y-114505965D02*
G01*
X165750067Y-114517399D01*
X165784803Y-114535966D01*
X165815248Y-114560952D01*
X165840234Y-114591397D01*
X165858801Y-114626133D01*
X165870235Y-114663826D01*
X165874700Y-114709161D01*
X165874700Y-115795839D01*
X165870235Y-115841174D01*
X165858801Y-115878867D01*
X165840234Y-115913603D01*
X165815248Y-115944048D01*
X165784803Y-115969034D01*
X165750067Y-115987601D01*
X165712374Y-115999035D01*
X165667039Y-116003500D01*
X164830361Y-116003500D01*
X164785026Y-115999035D01*
X164747333Y-115987601D01*
X164712597Y-115969034D01*
X164682152Y-115944048D01*
X164657166Y-115913603D01*
X164638599Y-115878867D01*
X164627165Y-115841174D01*
X164622700Y-115795839D01*
X164622700Y-114709161D01*
X164627165Y-114663826D01*
X164638599Y-114626133D01*
X164657166Y-114591397D01*
X164682152Y-114560952D01*
X164712597Y-114535966D01*
X164747333Y-114517399D01*
X164785026Y-114505965D01*
X164830361Y-114501500D01*
X165667039Y-114501500D01*
X165712374Y-114505965D01*
G37*
G36*
X167599374Y-114505965D02*
G01*
X167637067Y-114517399D01*
X167671803Y-114535966D01*
X167702248Y-114560952D01*
X167727234Y-114591397D01*
X167745801Y-114626133D01*
X167757235Y-114663826D01*
X167761700Y-114709161D01*
X167761700Y-115795839D01*
X167757235Y-115841174D01*
X167745801Y-115878867D01*
X167727234Y-115913603D01*
X167702248Y-115944048D01*
X167671803Y-115969034D01*
X167637067Y-115987601D01*
X167599374Y-115999035D01*
X167554039Y-116003500D01*
X166717361Y-116003500D01*
X166672026Y-115999035D01*
X166634333Y-115987601D01*
X166599597Y-115969034D01*
X166569152Y-115944048D01*
X166544166Y-115913603D01*
X166525599Y-115878867D01*
X166514165Y-115841174D01*
X166509700Y-115795839D01*
X166509700Y-114709161D01*
X166514165Y-114663826D01*
X166525599Y-114626133D01*
X166544166Y-114591397D01*
X166569152Y-114560952D01*
X166599597Y-114535966D01*
X166634333Y-114517399D01*
X166672026Y-114505965D01*
X166717361Y-114501500D01*
X167554039Y-114501500D01*
X167599374Y-114505965D01*
G37*
G36*
X221394200Y-115747200D02*
G01*
X215892200Y-115747200D01*
X215892200Y-112745200D01*
X221394200Y-112745200D01*
X221394200Y-115747200D01*
G37*
G36*
X177984128Y-114904264D02*
G01*
X178005209Y-114910660D01*
X178024645Y-114921048D01*
X178041676Y-114935024D01*
X178055652Y-114952055D01*
X178066040Y-114971491D01*
X178072436Y-114992572D01*
X178075200Y-115020640D01*
X178075200Y-115484360D01*
X178072436Y-115512428D01*
X178066040Y-115533509D01*
X178055652Y-115552945D01*
X178041676Y-115569976D01*
X178024645Y-115583952D01*
X178005209Y-115594340D01*
X177984128Y-115600736D01*
X177956060Y-115603500D01*
X176142340Y-115603500D01*
X176114272Y-115600736D01*
X176093191Y-115594340D01*
X176073755Y-115583952D01*
X176056724Y-115569976D01*
X176042748Y-115552945D01*
X176032360Y-115533509D01*
X176025964Y-115512428D01*
X176023200Y-115484360D01*
X176023200Y-115020640D01*
X176025964Y-114992572D01*
X176032360Y-114971491D01*
X176042748Y-114952055D01*
X176056724Y-114935024D01*
X176073755Y-114921048D01*
X176093191Y-114910660D01*
X176114272Y-114904264D01*
X176142340Y-114901500D01*
X177956060Y-114901500D01*
X177984128Y-114904264D01*
G37*
G36*
X173034128Y-114904264D02*
G01*
X173055209Y-114910660D01*
X173074645Y-114921048D01*
X173091676Y-114935024D01*
X173105652Y-114952055D01*
X173116040Y-114971491D01*
X173122436Y-114992572D01*
X173125200Y-115020640D01*
X173125200Y-115484360D01*
X173122436Y-115512428D01*
X173116040Y-115533509D01*
X173105652Y-115552945D01*
X173091676Y-115569976D01*
X173074645Y-115583952D01*
X173055209Y-115594340D01*
X173034128Y-115600736D01*
X173006060Y-115603500D01*
X171192340Y-115603500D01*
X171164272Y-115600736D01*
X171143191Y-115594340D01*
X171123755Y-115583952D01*
X171106724Y-115569976D01*
X171092748Y-115552945D01*
X171082360Y-115533509D01*
X171075964Y-115512428D01*
X171073200Y-115484360D01*
X171073200Y-115020640D01*
X171075964Y-114992572D01*
X171082360Y-114971491D01*
X171092748Y-114952055D01*
X171106724Y-114935024D01*
X171123755Y-114921048D01*
X171143191Y-114910660D01*
X171164272Y-114904264D01*
X171192340Y-114901500D01*
X173006060Y-114901500D01*
X173034128Y-114904264D01*
G37*
G36*
X153826874Y-113288465D02*
G01*
X153864567Y-113299899D01*
X153899303Y-113318466D01*
X153929748Y-113343452D01*
X153954734Y-113373897D01*
X153973301Y-113408633D01*
X153984735Y-113446326D01*
X153989200Y-113491661D01*
X153989200Y-114328339D01*
X153984735Y-114373674D01*
X153973301Y-114411367D01*
X153954734Y-114446103D01*
X153929748Y-114476548D01*
X153899303Y-114501534D01*
X153864567Y-114520101D01*
X153826874Y-114531535D01*
X153781539Y-114536000D01*
X152694861Y-114536000D01*
X152649526Y-114531535D01*
X152611833Y-114520101D01*
X152577097Y-114501534D01*
X152546652Y-114476548D01*
X152521666Y-114446103D01*
X152503099Y-114411367D01*
X152491665Y-114373674D01*
X152487200Y-114328339D01*
X152487200Y-113491661D01*
X152491665Y-113446326D01*
X152503099Y-113408633D01*
X152521666Y-113373897D01*
X152546652Y-113343452D01*
X152577097Y-113318466D01*
X152611833Y-113299899D01*
X152649526Y-113288465D01*
X152694861Y-113284000D01*
X153781539Y-113284000D01*
X153826874Y-113288465D01*
G37*
G36*
X148721474Y-113263065D02*
G01*
X148759167Y-113274499D01*
X148793903Y-113293066D01*
X148824348Y-113318052D01*
X148849334Y-113348497D01*
X148867901Y-113383233D01*
X148879335Y-113420926D01*
X148883800Y-113466261D01*
X148883800Y-114302939D01*
X148879335Y-114348274D01*
X148867901Y-114385967D01*
X148849334Y-114420703D01*
X148824348Y-114451148D01*
X148793903Y-114476134D01*
X148759167Y-114494701D01*
X148721474Y-114506135D01*
X148676139Y-114510600D01*
X147589461Y-114510600D01*
X147544126Y-114506135D01*
X147506433Y-114494701D01*
X147471697Y-114476134D01*
X147441252Y-114451148D01*
X147416266Y-114420703D01*
X147397699Y-114385967D01*
X147386265Y-114348274D01*
X147381800Y-114302939D01*
X147381800Y-113466261D01*
X147386265Y-113420926D01*
X147397699Y-113383233D01*
X147416266Y-113348497D01*
X147441252Y-113318052D01*
X147471697Y-113293066D01*
X147506433Y-113274499D01*
X147544126Y-113263065D01*
X147589461Y-113258600D01*
X148676139Y-113258600D01*
X148721474Y-113263065D01*
G37*
G36*
X179555374Y-111457965D02*
G01*
X179593067Y-111469399D01*
X179627803Y-111487966D01*
X179658248Y-111512952D01*
X179683234Y-111543397D01*
X179701801Y-111578133D01*
X179713235Y-111615826D01*
X179717700Y-111661161D01*
X179717700Y-112747839D01*
X179713235Y-112793174D01*
X179701801Y-112830867D01*
X179683234Y-112865603D01*
X179658248Y-112896048D01*
X179627803Y-112921034D01*
X179593067Y-112939601D01*
X179555374Y-112951035D01*
X179510039Y-112955500D01*
X178673361Y-112955500D01*
X178628026Y-112951035D01*
X178590333Y-112939601D01*
X178555597Y-112921034D01*
X178525152Y-112896048D01*
X178500166Y-112865603D01*
X178481599Y-112830867D01*
X178470165Y-112793174D01*
X178465700Y-112747839D01*
X178465700Y-111661161D01*
X178470165Y-111615826D01*
X178481599Y-111578133D01*
X178500166Y-111543397D01*
X178525152Y-111512952D01*
X178555597Y-111487966D01*
X178590333Y-111469399D01*
X178628026Y-111457965D01*
X178673361Y-111453500D01*
X179510039Y-111453500D01*
X179555374Y-111457965D01*
G37*
G36*
X172552374Y-111457965D02*
G01*
X172590067Y-111469399D01*
X172624803Y-111487966D01*
X172655248Y-111512952D01*
X172680234Y-111543397D01*
X172698801Y-111578133D01*
X172710235Y-111615826D01*
X172714700Y-111661161D01*
X172714700Y-112747839D01*
X172710235Y-112793174D01*
X172698801Y-112830867D01*
X172680234Y-112865603D01*
X172655248Y-112896048D01*
X172624803Y-112921034D01*
X172590067Y-112939601D01*
X172552374Y-112951035D01*
X172507039Y-112955500D01*
X171670361Y-112955500D01*
X171625026Y-112951035D01*
X171587333Y-112939601D01*
X171552597Y-112921034D01*
X171522152Y-112896048D01*
X171497166Y-112865603D01*
X171478599Y-112830867D01*
X171467165Y-112793174D01*
X171462700Y-112747839D01*
X171462700Y-111661161D01*
X171467165Y-111615826D01*
X171478599Y-111578133D01*
X171497166Y-111543397D01*
X171522152Y-111512952D01*
X171552597Y-111487966D01*
X171587333Y-111469399D01*
X171625026Y-111457965D01*
X171670361Y-111453500D01*
X172507039Y-111453500D01*
X172552374Y-111457965D01*
G37*
G36*
X174602374Y-111457965D02*
G01*
X174640067Y-111469399D01*
X174674803Y-111487966D01*
X174705248Y-111512952D01*
X174730234Y-111543397D01*
X174748801Y-111578133D01*
X174760235Y-111615826D01*
X174764700Y-111661161D01*
X174764700Y-112747839D01*
X174760235Y-112793174D01*
X174748801Y-112830867D01*
X174730234Y-112865603D01*
X174705248Y-112896048D01*
X174674803Y-112921034D01*
X174640067Y-112939601D01*
X174602374Y-112951035D01*
X174557039Y-112955500D01*
X173720361Y-112955500D01*
X173675026Y-112951035D01*
X173637333Y-112939601D01*
X173602597Y-112921034D01*
X173572152Y-112896048D01*
X173547166Y-112865603D01*
X173528599Y-112830867D01*
X173517165Y-112793174D01*
X173512700Y-112747839D01*
X173512700Y-111661161D01*
X173517165Y-111615826D01*
X173528599Y-111578133D01*
X173547166Y-111543397D01*
X173572152Y-111512952D01*
X173602597Y-111487966D01*
X173637333Y-111469399D01*
X173675026Y-111457965D01*
X173720361Y-111453500D01*
X174557039Y-111453500D01*
X174602374Y-111457965D01*
G37*
G36*
X177505374Y-111457965D02*
G01*
X177543067Y-111469399D01*
X177577803Y-111487966D01*
X177608248Y-111512952D01*
X177633234Y-111543397D01*
X177651801Y-111578133D01*
X177663235Y-111615826D01*
X177667700Y-111661161D01*
X177667700Y-112747839D01*
X177663235Y-112793174D01*
X177651801Y-112830867D01*
X177633234Y-112865603D01*
X177608248Y-112896048D01*
X177577803Y-112921034D01*
X177543067Y-112939601D01*
X177505374Y-112951035D01*
X177460039Y-112955500D01*
X176623361Y-112955500D01*
X176578026Y-112951035D01*
X176540333Y-112939601D01*
X176505597Y-112921034D01*
X176475152Y-112896048D01*
X176450166Y-112865603D01*
X176431599Y-112830867D01*
X176420165Y-112793174D01*
X176415700Y-112747839D01*
X176415700Y-111661161D01*
X176420165Y-111615826D01*
X176431599Y-111578133D01*
X176450166Y-111543397D01*
X176475152Y-111512952D01*
X176505597Y-111487966D01*
X176540333Y-111469399D01*
X176578026Y-111457965D01*
X176623361Y-111453500D01*
X177460039Y-111453500D01*
X177505374Y-111457965D01*
G37*
G36*
X190108000Y-108951000D02*
G01*
X189106000Y-108951000D01*
X189106000Y-108049000D01*
X190108000Y-108049000D01*
X190108000Y-108951000D01*
G37*
G36*
X208666928Y-106833164D02*
G01*
X208688009Y-106839560D01*
X208707445Y-106849948D01*
X208724476Y-106863924D01*
X208738452Y-106880955D01*
X208748840Y-106900391D01*
X208755236Y-106921472D01*
X208758000Y-106949540D01*
X208758000Y-108563260D01*
X208755236Y-108591328D01*
X208748840Y-108612409D01*
X208738452Y-108631845D01*
X208724476Y-108648876D01*
X208707445Y-108662852D01*
X208688009Y-108673240D01*
X208666928Y-108679636D01*
X208638860Y-108682400D01*
X208175140Y-108682400D01*
X208147072Y-108679636D01*
X208125991Y-108673240D01*
X208106555Y-108662852D01*
X208089524Y-108648876D01*
X208075548Y-108631845D01*
X208065160Y-108612409D01*
X208058764Y-108591328D01*
X208056000Y-108563260D01*
X208056000Y-106949540D01*
X208058764Y-106921472D01*
X208065160Y-106900391D01*
X208075548Y-106880955D01*
X208089524Y-106863924D01*
X208106555Y-106849948D01*
X208125991Y-106839560D01*
X208147072Y-106833164D01*
X208175140Y-106830400D01*
X208638860Y-106830400D01*
X208666928Y-106833164D01*
G37*
G36*
X212476928Y-106833164D02*
G01*
X212498009Y-106839560D01*
X212517445Y-106849948D01*
X212534476Y-106863924D01*
X212548452Y-106880955D01*
X212558840Y-106900391D01*
X212565236Y-106921472D01*
X212568000Y-106949540D01*
X212568000Y-108563260D01*
X212565236Y-108591328D01*
X212558840Y-108612409D01*
X212548452Y-108631845D01*
X212534476Y-108648876D01*
X212517445Y-108662852D01*
X212498009Y-108673240D01*
X212476928Y-108679636D01*
X212448860Y-108682400D01*
X211985140Y-108682400D01*
X211957072Y-108679636D01*
X211935991Y-108673240D01*
X211916555Y-108662852D01*
X211899524Y-108648876D01*
X211885548Y-108631845D01*
X211875160Y-108612409D01*
X211868764Y-108591328D01*
X211866000Y-108563260D01*
X211866000Y-106949540D01*
X211868764Y-106921472D01*
X211875160Y-106900391D01*
X211885548Y-106880955D01*
X211899524Y-106863924D01*
X211916555Y-106849948D01*
X211935991Y-106839560D01*
X211957072Y-106833164D01*
X211985140Y-106830400D01*
X212448860Y-106830400D01*
X212476928Y-106833164D01*
G37*
G36*
X211206928Y-106833164D02*
G01*
X211228009Y-106839560D01*
X211247445Y-106849948D01*
X211264476Y-106863924D01*
X211278452Y-106880955D01*
X211288840Y-106900391D01*
X211295236Y-106921472D01*
X211298000Y-106949540D01*
X211298000Y-108563260D01*
X211295236Y-108591328D01*
X211288840Y-108612409D01*
X211278452Y-108631845D01*
X211264476Y-108648876D01*
X211247445Y-108662852D01*
X211228009Y-108673240D01*
X211206928Y-108679636D01*
X211178860Y-108682400D01*
X210715140Y-108682400D01*
X210687072Y-108679636D01*
X210665991Y-108673240D01*
X210646555Y-108662852D01*
X210629524Y-108648876D01*
X210615548Y-108631845D01*
X210605160Y-108612409D01*
X210598764Y-108591328D01*
X210596000Y-108563260D01*
X210596000Y-106949540D01*
X210598764Y-106921472D01*
X210605160Y-106900391D01*
X210615548Y-106880955D01*
X210629524Y-106863924D01*
X210646555Y-106849948D01*
X210665991Y-106839560D01*
X210687072Y-106833164D01*
X210715140Y-106830400D01*
X211178860Y-106830400D01*
X211206928Y-106833164D01*
G37*
G36*
X209936928Y-106833164D02*
G01*
X209958009Y-106839560D01*
X209977445Y-106849948D01*
X209994476Y-106863924D01*
X210008452Y-106880955D01*
X210018840Y-106900391D01*
X210025236Y-106921472D01*
X210028000Y-106949540D01*
X210028000Y-108563260D01*
X210025236Y-108591328D01*
X210018840Y-108612409D01*
X210008452Y-108631845D01*
X209994476Y-108648876D01*
X209977445Y-108662852D01*
X209958009Y-108673240D01*
X209936928Y-108679636D01*
X209908860Y-108682400D01*
X209445140Y-108682400D01*
X209417072Y-108679636D01*
X209395991Y-108673240D01*
X209376555Y-108662852D01*
X209359524Y-108648876D01*
X209345548Y-108631845D01*
X209335160Y-108612409D01*
X209328764Y-108591328D01*
X209326000Y-108563260D01*
X209326000Y-106949540D01*
X209328764Y-106921472D01*
X209335160Y-106900391D01*
X209345548Y-106880955D01*
X209359524Y-106863924D01*
X209376555Y-106849948D01*
X209395991Y-106839560D01*
X209417072Y-106833164D01*
X209445140Y-106830400D01*
X209908860Y-106830400D01*
X209936928Y-106833164D01*
G37*
G36*
X180695674Y-106553465D02*
G01*
X180733367Y-106564899D01*
X180768103Y-106583466D01*
X180798548Y-106608452D01*
X180823534Y-106638897D01*
X180842101Y-106673633D01*
X180853535Y-106711326D01*
X180858000Y-106756661D01*
X180858000Y-107843339D01*
X180853535Y-107888674D01*
X180842101Y-107926367D01*
X180823534Y-107961103D01*
X180798548Y-107991548D01*
X180768103Y-108016534D01*
X180733367Y-108035101D01*
X180695674Y-108046535D01*
X180650339Y-108051000D01*
X179813661Y-108051000D01*
X179768326Y-108046535D01*
X179730633Y-108035101D01*
X179695897Y-108016534D01*
X179665452Y-107991548D01*
X179640466Y-107961103D01*
X179621899Y-107926367D01*
X179610465Y-107888674D01*
X179606000Y-107843339D01*
X179606000Y-106756661D01*
X179610465Y-106711326D01*
X179621899Y-106673633D01*
X179640466Y-106638897D01*
X179665452Y-106608452D01*
X179695897Y-106583466D01*
X179730633Y-106564899D01*
X179768326Y-106553465D01*
X179813661Y-106549000D01*
X180650339Y-106549000D01*
X180695674Y-106553465D01*
G37*
G36*
X182745674Y-106553465D02*
G01*
X182783367Y-106564899D01*
X182818103Y-106583466D01*
X182848548Y-106608452D01*
X182873534Y-106638897D01*
X182892101Y-106673633D01*
X182903535Y-106711326D01*
X182908000Y-106756661D01*
X182908000Y-107843339D01*
X182903535Y-107888674D01*
X182892101Y-107926367D01*
X182873534Y-107961103D01*
X182848548Y-107991548D01*
X182818103Y-108016534D01*
X182783367Y-108035101D01*
X182745674Y-108046535D01*
X182700339Y-108051000D01*
X181863661Y-108051000D01*
X181818326Y-108046535D01*
X181780633Y-108035101D01*
X181745897Y-108016534D01*
X181715452Y-107991548D01*
X181690466Y-107961103D01*
X181671899Y-107926367D01*
X181660465Y-107888674D01*
X181656000Y-107843339D01*
X181656000Y-106756661D01*
X181660465Y-106711326D01*
X181671899Y-106673633D01*
X181690466Y-106638897D01*
X181715452Y-106608452D01*
X181745897Y-106583466D01*
X181780633Y-106564899D01*
X181818326Y-106553465D01*
X181863661Y-106549000D01*
X182700339Y-106549000D01*
X182745674Y-106553465D01*
G37*
G36*
X177995674Y-106553465D02*
G01*
X178033367Y-106564899D01*
X178068103Y-106583466D01*
X178098548Y-106608452D01*
X178123534Y-106638897D01*
X178142101Y-106673633D01*
X178153535Y-106711326D01*
X178158000Y-106756661D01*
X178158000Y-107843339D01*
X178153535Y-107888674D01*
X178142101Y-107926367D01*
X178123534Y-107961103D01*
X178098548Y-107991548D01*
X178068103Y-108016534D01*
X178033367Y-108035101D01*
X177995674Y-108046535D01*
X177950339Y-108051000D01*
X177113661Y-108051000D01*
X177068326Y-108046535D01*
X177030633Y-108035101D01*
X176995897Y-108016534D01*
X176965452Y-107991548D01*
X176940466Y-107961103D01*
X176921899Y-107926367D01*
X176910465Y-107888674D01*
X176906000Y-107843339D01*
X176906000Y-106756661D01*
X176910465Y-106711326D01*
X176921899Y-106673633D01*
X176940466Y-106638897D01*
X176965452Y-106608452D01*
X176995897Y-106583466D01*
X177030633Y-106564899D01*
X177068326Y-106553465D01*
X177113661Y-106549000D01*
X177950339Y-106549000D01*
X177995674Y-106553465D01*
G37*
G36*
X175945674Y-106553465D02*
G01*
X175983367Y-106564899D01*
X176018103Y-106583466D01*
X176048548Y-106608452D01*
X176073534Y-106638897D01*
X176092101Y-106673633D01*
X176103535Y-106711326D01*
X176108000Y-106756661D01*
X176108000Y-107843339D01*
X176103535Y-107888674D01*
X176092101Y-107926367D01*
X176073534Y-107961103D01*
X176048548Y-107991548D01*
X176018103Y-108016534D01*
X175983367Y-108035101D01*
X175945674Y-108046535D01*
X175900339Y-108051000D01*
X175063661Y-108051000D01*
X175018326Y-108046535D01*
X174980633Y-108035101D01*
X174945897Y-108016534D01*
X174915452Y-107991548D01*
X174890466Y-107961103D01*
X174871899Y-107926367D01*
X174860465Y-107888674D01*
X174856000Y-107843339D01*
X174856000Y-106756661D01*
X174860465Y-106711326D01*
X174871899Y-106673633D01*
X174890466Y-106638897D01*
X174915452Y-106608452D01*
X174945897Y-106583466D01*
X174980633Y-106564899D01*
X175018326Y-106553465D01*
X175063661Y-106549000D01*
X175900339Y-106549000D01*
X175945674Y-106553465D01*
G37*
G36*
X192108000Y-108001000D02*
G01*
X191106000Y-108001000D01*
X191106000Y-107099000D01*
X192108000Y-107099000D01*
X192108000Y-108001000D01*
G37*
G36*
X187495674Y-106003465D02*
G01*
X187533367Y-106014899D01*
X187568103Y-106033466D01*
X187598548Y-106058452D01*
X187623534Y-106088897D01*
X187642101Y-106123633D01*
X187653535Y-106161326D01*
X187658000Y-106206661D01*
X187658000Y-107293339D01*
X187653535Y-107338674D01*
X187642101Y-107376367D01*
X187623534Y-107411103D01*
X187598548Y-107441548D01*
X187568103Y-107466534D01*
X187533367Y-107485101D01*
X187495674Y-107496535D01*
X187450339Y-107501000D01*
X186613661Y-107501000D01*
X186568326Y-107496535D01*
X186530633Y-107485101D01*
X186495897Y-107466534D01*
X186465452Y-107441548D01*
X186440466Y-107411103D01*
X186421899Y-107376367D01*
X186410465Y-107338674D01*
X186406000Y-107293339D01*
X186406000Y-106206661D01*
X186410465Y-106161326D01*
X186421899Y-106123633D01*
X186440466Y-106088897D01*
X186465452Y-106058452D01*
X186495897Y-106033466D01*
X186530633Y-106014899D01*
X186568326Y-106003465D01*
X186613661Y-105999000D01*
X187450339Y-105999000D01*
X187495674Y-106003465D01*
G37*
G36*
X185445674Y-106003465D02*
G01*
X185483367Y-106014899D01*
X185518103Y-106033466D01*
X185548548Y-106058452D01*
X185573534Y-106088897D01*
X185592101Y-106123633D01*
X185603535Y-106161326D01*
X185608000Y-106206661D01*
X185608000Y-107293339D01*
X185603535Y-107338674D01*
X185592101Y-107376367D01*
X185573534Y-107411103D01*
X185548548Y-107441548D01*
X185518103Y-107466534D01*
X185483367Y-107485101D01*
X185445674Y-107496535D01*
X185400339Y-107501000D01*
X184563661Y-107501000D01*
X184518326Y-107496535D01*
X184480633Y-107485101D01*
X184445897Y-107466534D01*
X184415452Y-107441548D01*
X184390466Y-107411103D01*
X184371899Y-107376367D01*
X184360465Y-107338674D01*
X184356000Y-107293339D01*
X184356000Y-106206661D01*
X184360465Y-106161326D01*
X184371899Y-106123633D01*
X184390466Y-106088897D01*
X184415452Y-106058452D01*
X184445897Y-106033466D01*
X184480633Y-106014899D01*
X184518326Y-106003465D01*
X184563661Y-105999000D01*
X185400339Y-105999000D01*
X185445674Y-106003465D01*
G37*
G36*
X190108000Y-107051000D02*
G01*
X189106000Y-107051000D01*
X189106000Y-106149000D01*
X190108000Y-106149000D01*
X190108000Y-107051000D01*
G37*
G36*
X149244200Y-106998000D02*
G01*
X148342200Y-106998000D01*
X148342200Y-105496000D01*
X149244200Y-105496000D01*
X149244200Y-106998000D01*
G37*
G36*
X158134200Y-106998000D02*
G01*
X157232200Y-106998000D01*
X157232200Y-105496000D01*
X158134200Y-105496000D01*
X158134200Y-106998000D01*
G37*
G36*
X156864200Y-106998000D02*
G01*
X155962200Y-106998000D01*
X155962200Y-105496000D01*
X156864200Y-105496000D01*
X156864200Y-106998000D01*
G37*
G36*
X155594200Y-106998000D02*
G01*
X154692200Y-106998000D01*
X154692200Y-105496000D01*
X155594200Y-105496000D01*
X155594200Y-106998000D01*
G37*
G36*
X153054200Y-106998000D02*
G01*
X152152200Y-106998000D01*
X152152200Y-105496000D01*
X153054200Y-105496000D01*
X153054200Y-106998000D01*
G37*
G36*
X151784200Y-106998000D02*
G01*
X150882200Y-106998000D01*
X150882200Y-105496000D01*
X151784200Y-105496000D01*
X151784200Y-106998000D01*
G37*
G36*
X150514200Y-106998000D02*
G01*
X149612200Y-106998000D01*
X149612200Y-105496000D01*
X150514200Y-105496000D01*
X150514200Y-106998000D01*
G37*
G36*
X154324200Y-106998000D02*
G01*
X153422200Y-106998000D01*
X153422200Y-105496000D01*
X154324200Y-105496000D01*
X154324200Y-106998000D01*
G37*
G36*
X221394200Y-105847200D02*
G01*
X215892200Y-105847200D01*
X215892200Y-102845200D01*
X221394200Y-102845200D01*
X221394200Y-105847200D01*
G37*
G36*
X165683000Y-105691000D02*
G01*
X160581000Y-105691000D01*
X160581000Y-102589000D01*
X165683000Y-102589000D01*
X165683000Y-105691000D01*
G37*
G36*
X173683000Y-105691000D02*
G01*
X168581000Y-105691000D01*
X168581000Y-102589000D01*
X173683000Y-102589000D01*
X173683000Y-105691000D01*
G37*
G36*
X175945674Y-103603465D02*
G01*
X175983367Y-103614899D01*
X176018103Y-103633466D01*
X176048548Y-103658452D01*
X176073534Y-103688897D01*
X176092101Y-103723633D01*
X176103535Y-103761326D01*
X176108000Y-103806661D01*
X176108000Y-104893339D01*
X176103535Y-104938674D01*
X176092101Y-104976367D01*
X176073534Y-105011103D01*
X176048548Y-105041548D01*
X176018103Y-105066534D01*
X175983367Y-105085101D01*
X175945674Y-105096535D01*
X175900339Y-105101000D01*
X175063661Y-105101000D01*
X175018326Y-105096535D01*
X174980633Y-105085101D01*
X174945897Y-105066534D01*
X174915452Y-105041548D01*
X174890466Y-105011103D01*
X174871899Y-104976367D01*
X174860465Y-104938674D01*
X174856000Y-104893339D01*
X174856000Y-103806661D01*
X174860465Y-103761326D01*
X174871899Y-103723633D01*
X174890466Y-103688897D01*
X174915452Y-103658452D01*
X174945897Y-103633466D01*
X174980633Y-103614899D01*
X175018326Y-103603465D01*
X175063661Y-103599000D01*
X175900339Y-103599000D01*
X175945674Y-103603465D01*
G37*
G36*
X180695674Y-103603465D02*
G01*
X180733367Y-103614899D01*
X180768103Y-103633466D01*
X180798548Y-103658452D01*
X180823534Y-103688897D01*
X180842101Y-103723633D01*
X180853535Y-103761326D01*
X180858000Y-103806661D01*
X180858000Y-104893339D01*
X180853535Y-104938674D01*
X180842101Y-104976367D01*
X180823534Y-105011103D01*
X180798548Y-105041548D01*
X180768103Y-105066534D01*
X180733367Y-105085101D01*
X180695674Y-105096535D01*
X180650339Y-105101000D01*
X179813661Y-105101000D01*
X179768326Y-105096535D01*
X179730633Y-105085101D01*
X179695897Y-105066534D01*
X179665452Y-105041548D01*
X179640466Y-105011103D01*
X179621899Y-104976367D01*
X179610465Y-104938674D01*
X179606000Y-104893339D01*
X179606000Y-103806661D01*
X179610465Y-103761326D01*
X179621899Y-103723633D01*
X179640466Y-103688897D01*
X179665452Y-103658452D01*
X179695897Y-103633466D01*
X179730633Y-103614899D01*
X179768326Y-103603465D01*
X179813661Y-103599000D01*
X180650339Y-103599000D01*
X180695674Y-103603465D01*
G37*
G36*
X182745674Y-103603465D02*
G01*
X182783367Y-103614899D01*
X182818103Y-103633466D01*
X182848548Y-103658452D01*
X182873534Y-103688897D01*
X182892101Y-103723633D01*
X182903535Y-103761326D01*
X182908000Y-103806661D01*
X182908000Y-104893339D01*
X182903535Y-104938674D01*
X182892101Y-104976367D01*
X182873534Y-105011103D01*
X182848548Y-105041548D01*
X182818103Y-105066534D01*
X182783367Y-105085101D01*
X182745674Y-105096535D01*
X182700339Y-105101000D01*
X181863661Y-105101000D01*
X181818326Y-105096535D01*
X181780633Y-105085101D01*
X181745897Y-105066534D01*
X181715452Y-105041548D01*
X181690466Y-105011103D01*
X181671899Y-104976367D01*
X181660465Y-104938674D01*
X181656000Y-104893339D01*
X181656000Y-103806661D01*
X181660465Y-103761326D01*
X181671899Y-103723633D01*
X181690466Y-103688897D01*
X181715452Y-103658452D01*
X181745897Y-103633466D01*
X181780633Y-103614899D01*
X181818326Y-103603465D01*
X181863661Y-103599000D01*
X182700339Y-103599000D01*
X182745674Y-103603465D01*
G37*
G36*
X177995674Y-103603465D02*
G01*
X178033367Y-103614899D01*
X178068103Y-103633466D01*
X178098548Y-103658452D01*
X178123534Y-103688897D01*
X178142101Y-103723633D01*
X178153535Y-103761326D01*
X178158000Y-103806661D01*
X178158000Y-104893339D01*
X178153535Y-104938674D01*
X178142101Y-104976367D01*
X178123534Y-105011103D01*
X178098548Y-105041548D01*
X178068103Y-105066534D01*
X178033367Y-105085101D01*
X177995674Y-105096535D01*
X177950339Y-105101000D01*
X177113661Y-105101000D01*
X177068326Y-105096535D01*
X177030633Y-105085101D01*
X176995897Y-105066534D01*
X176965452Y-105041548D01*
X176940466Y-105011103D01*
X176921899Y-104976367D01*
X176910465Y-104938674D01*
X176906000Y-104893339D01*
X176906000Y-103806661D01*
X176910465Y-103761326D01*
X176921899Y-103723633D01*
X176940466Y-103688897D01*
X176965452Y-103658452D01*
X176995897Y-103633466D01*
X177030633Y-103614899D01*
X177068326Y-103603465D01*
X177113661Y-103599000D01*
X177950339Y-103599000D01*
X177995674Y-103603465D01*
G37*
G36*
X194858000Y-104791000D02*
G01*
X193856000Y-104791000D01*
X193856000Y-103889000D01*
X194858000Y-103889000D01*
X194858000Y-104791000D01*
G37*
G36*
X187495674Y-103053465D02*
G01*
X187533367Y-103064899D01*
X187568103Y-103083466D01*
X187598548Y-103108452D01*
X187623534Y-103138897D01*
X187642101Y-103173633D01*
X187653535Y-103211326D01*
X187658000Y-103256661D01*
X187658000Y-104343339D01*
X187653535Y-104388674D01*
X187642101Y-104426367D01*
X187623534Y-104461103D01*
X187598548Y-104491548D01*
X187568103Y-104516534D01*
X187533367Y-104535101D01*
X187495674Y-104546535D01*
X187450339Y-104551000D01*
X186613661Y-104551000D01*
X186568326Y-104546535D01*
X186530633Y-104535101D01*
X186495897Y-104516534D01*
X186465452Y-104491548D01*
X186440466Y-104461103D01*
X186421899Y-104426367D01*
X186410465Y-104388674D01*
X186406000Y-104343339D01*
X186406000Y-103256661D01*
X186410465Y-103211326D01*
X186421899Y-103173633D01*
X186440466Y-103138897D01*
X186465452Y-103108452D01*
X186495897Y-103083466D01*
X186530633Y-103064899D01*
X186568326Y-103053465D01*
X186613661Y-103049000D01*
X187450339Y-103049000D01*
X187495674Y-103053465D01*
G37*
G36*
X192245674Y-103053465D02*
G01*
X192283367Y-103064899D01*
X192318103Y-103083466D01*
X192348548Y-103108452D01*
X192373534Y-103138897D01*
X192392101Y-103173633D01*
X192403535Y-103211326D01*
X192408000Y-103256661D01*
X192408000Y-104343339D01*
X192403535Y-104388674D01*
X192392101Y-104426367D01*
X192373534Y-104461103D01*
X192348548Y-104491548D01*
X192318103Y-104516534D01*
X192283367Y-104535101D01*
X192245674Y-104546535D01*
X192200339Y-104551000D01*
X191363661Y-104551000D01*
X191318326Y-104546535D01*
X191280633Y-104535101D01*
X191245897Y-104516534D01*
X191215452Y-104491548D01*
X191190466Y-104461103D01*
X191171899Y-104426367D01*
X191160465Y-104388674D01*
X191156000Y-104343339D01*
X191156000Y-103256661D01*
X191160465Y-103211326D01*
X191171899Y-103173633D01*
X191190466Y-103138897D01*
X191215452Y-103108452D01*
X191245897Y-103083466D01*
X191280633Y-103064899D01*
X191318326Y-103053465D01*
X191363661Y-103049000D01*
X192200339Y-103049000D01*
X192245674Y-103053465D01*
G37*
G36*
X190195674Y-103053465D02*
G01*
X190233367Y-103064899D01*
X190268103Y-103083466D01*
X190298548Y-103108452D01*
X190323534Y-103138897D01*
X190342101Y-103173633D01*
X190353535Y-103211326D01*
X190358000Y-103256661D01*
X190358000Y-104343339D01*
X190353535Y-104388674D01*
X190342101Y-104426367D01*
X190323534Y-104461103D01*
X190298548Y-104491548D01*
X190268103Y-104516534D01*
X190233367Y-104535101D01*
X190195674Y-104546535D01*
X190150339Y-104551000D01*
X189313661Y-104551000D01*
X189268326Y-104546535D01*
X189230633Y-104535101D01*
X189195897Y-104516534D01*
X189165452Y-104491548D01*
X189140466Y-104461103D01*
X189121899Y-104426367D01*
X189110465Y-104388674D01*
X189106000Y-104343339D01*
X189106000Y-103256661D01*
X189110465Y-103211326D01*
X189121899Y-103173633D01*
X189140466Y-103138897D01*
X189165452Y-103108452D01*
X189195897Y-103083466D01*
X189230633Y-103064899D01*
X189268326Y-103053465D01*
X189313661Y-103049000D01*
X190150339Y-103049000D01*
X190195674Y-103053465D01*
G37*
G36*
X185445674Y-103053465D02*
G01*
X185483367Y-103064899D01*
X185518103Y-103083466D01*
X185548548Y-103108452D01*
X185573534Y-103138897D01*
X185592101Y-103173633D01*
X185603535Y-103211326D01*
X185608000Y-103256661D01*
X185608000Y-104343339D01*
X185603535Y-104388674D01*
X185592101Y-104426367D01*
X185573534Y-104461103D01*
X185548548Y-104491548D01*
X185518103Y-104516534D01*
X185483367Y-104535101D01*
X185445674Y-104546535D01*
X185400339Y-104551000D01*
X184563661Y-104551000D01*
X184518326Y-104546535D01*
X184480633Y-104535101D01*
X184445897Y-104516534D01*
X184415452Y-104491548D01*
X184390466Y-104461103D01*
X184371899Y-104426367D01*
X184360465Y-104388674D01*
X184356000Y-104343339D01*
X184356000Y-103256661D01*
X184360465Y-103211326D01*
X184371899Y-103173633D01*
X184390466Y-103138897D01*
X184415452Y-103108452D01*
X184445897Y-103083466D01*
X184480633Y-103064899D01*
X184518326Y-103053465D01*
X184563661Y-103049000D01*
X185400339Y-103049000D01*
X185445674Y-103053465D01*
G37*
G36*
X196858000Y-103841000D02*
G01*
X195856000Y-103841000D01*
X195856000Y-102939000D01*
X196858000Y-102939000D01*
X196858000Y-103841000D01*
G37*
G36*
X209936928Y-101683164D02*
G01*
X209958009Y-101689560D01*
X209977445Y-101699948D01*
X209994476Y-101713924D01*
X210008452Y-101730955D01*
X210018840Y-101750391D01*
X210025236Y-101771472D01*
X210028000Y-101799540D01*
X210028000Y-103413260D01*
X210025236Y-103441328D01*
X210018840Y-103462409D01*
X210008452Y-103481845D01*
X209994476Y-103498876D01*
X209977445Y-103512852D01*
X209958009Y-103523240D01*
X209936928Y-103529636D01*
X209908860Y-103532400D01*
X209445140Y-103532400D01*
X209417072Y-103529636D01*
X209395991Y-103523240D01*
X209376555Y-103512852D01*
X209359524Y-103498876D01*
X209345548Y-103481845D01*
X209335160Y-103462409D01*
X209328764Y-103441328D01*
X209326000Y-103413260D01*
X209326000Y-101799540D01*
X209328764Y-101771472D01*
X209335160Y-101750391D01*
X209345548Y-101730955D01*
X209359524Y-101713924D01*
X209376555Y-101699948D01*
X209395991Y-101689560D01*
X209417072Y-101683164D01*
X209445140Y-101680400D01*
X209908860Y-101680400D01*
X209936928Y-101683164D01*
G37*
G36*
X212476928Y-101683164D02*
G01*
X212498009Y-101689560D01*
X212517445Y-101699948D01*
X212534476Y-101713924D01*
X212548452Y-101730955D01*
X212558840Y-101750391D01*
X212565236Y-101771472D01*
X212568000Y-101799540D01*
X212568000Y-103413260D01*
X212565236Y-103441328D01*
X212558840Y-103462409D01*
X212548452Y-103481845D01*
X212534476Y-103498876D01*
X212517445Y-103512852D01*
X212498009Y-103523240D01*
X212476928Y-103529636D01*
X212448860Y-103532400D01*
X211985140Y-103532400D01*
X211957072Y-103529636D01*
X211935991Y-103523240D01*
X211916555Y-103512852D01*
X211899524Y-103498876D01*
X211885548Y-103481845D01*
X211875160Y-103462409D01*
X211868764Y-103441328D01*
X211866000Y-103413260D01*
X211866000Y-101799540D01*
X211868764Y-101771472D01*
X211875160Y-101750391D01*
X211885548Y-101730955D01*
X211899524Y-101713924D01*
X211916555Y-101699948D01*
X211935991Y-101689560D01*
X211957072Y-101683164D01*
X211985140Y-101680400D01*
X212448860Y-101680400D01*
X212476928Y-101683164D01*
G37*
G36*
X211206928Y-101683164D02*
G01*
X211228009Y-101689560D01*
X211247445Y-101699948D01*
X211264476Y-101713924D01*
X211278452Y-101730955D01*
X211288840Y-101750391D01*
X211295236Y-101771472D01*
X211298000Y-101799540D01*
X211298000Y-103413260D01*
X211295236Y-103441328D01*
X211288840Y-103462409D01*
X211278452Y-103481845D01*
X211264476Y-103498876D01*
X211247445Y-103512852D01*
X211228009Y-103523240D01*
X211206928Y-103529636D01*
X211178860Y-103532400D01*
X210715140Y-103532400D01*
X210687072Y-103529636D01*
X210665991Y-103523240D01*
X210646555Y-103512852D01*
X210629524Y-103498876D01*
X210615548Y-103481845D01*
X210605160Y-103462409D01*
X210598764Y-103441328D01*
X210596000Y-103413260D01*
X210596000Y-101799540D01*
X210598764Y-101771472D01*
X210605160Y-101750391D01*
X210615548Y-101730955D01*
X210629524Y-101713924D01*
X210646555Y-101699948D01*
X210665991Y-101689560D01*
X210687072Y-101683164D01*
X210715140Y-101680400D01*
X211178860Y-101680400D01*
X211206928Y-101683164D01*
G37*
G36*
X208666928Y-101683164D02*
G01*
X208688009Y-101689560D01*
X208707445Y-101699948D01*
X208724476Y-101713924D01*
X208738452Y-101730955D01*
X208748840Y-101750391D01*
X208755236Y-101771472D01*
X208758000Y-101799540D01*
X208758000Y-103413260D01*
X208755236Y-103441328D01*
X208748840Y-103462409D01*
X208738452Y-103481845D01*
X208724476Y-103498876D01*
X208707445Y-103512852D01*
X208688009Y-103523240D01*
X208666928Y-103529636D01*
X208638860Y-103532400D01*
X208175140Y-103532400D01*
X208147072Y-103529636D01*
X208125991Y-103523240D01*
X208106555Y-103512852D01*
X208089524Y-103498876D01*
X208075548Y-103481845D01*
X208065160Y-103462409D01*
X208058764Y-103441328D01*
X208056000Y-103413260D01*
X208056000Y-101799540D01*
X208058764Y-101771472D01*
X208065160Y-101750391D01*
X208075548Y-101730955D01*
X208089524Y-101713924D01*
X208106555Y-101699948D01*
X208125991Y-101689560D01*
X208147072Y-101683164D01*
X208175140Y-101680400D01*
X208638860Y-101680400D01*
X208666928Y-101683164D01*
G37*
G36*
X194858000Y-102891000D02*
G01*
X193856000Y-102891000D01*
X193856000Y-101989000D01*
X194858000Y-101989000D01*
X194858000Y-102891000D01*
G37*
G36*
X205820674Y-101114465D02*
G01*
X205858367Y-101125899D01*
X205893103Y-101144466D01*
X205923548Y-101169452D01*
X205948534Y-101199897D01*
X205967101Y-101234633D01*
X205978535Y-101272326D01*
X205983000Y-101317661D01*
X205983000Y-102154339D01*
X205978535Y-102199674D01*
X205967101Y-102237367D01*
X205948534Y-102272103D01*
X205923548Y-102302548D01*
X205893103Y-102327534D01*
X205858367Y-102346101D01*
X205820674Y-102357535D01*
X205775339Y-102362000D01*
X204688661Y-102362000D01*
X204643326Y-102357535D01*
X204605633Y-102346101D01*
X204570897Y-102327534D01*
X204540452Y-102302548D01*
X204515466Y-102272103D01*
X204496899Y-102237367D01*
X204485465Y-102199674D01*
X204481000Y-102154339D01*
X204481000Y-101317661D01*
X204485465Y-101272326D01*
X204496899Y-101234633D01*
X204515466Y-101199897D01*
X204540452Y-101169452D01*
X204570897Y-101144466D01*
X204605633Y-101125899D01*
X204643326Y-101114465D01*
X204688661Y-101110000D01*
X205775339Y-101110000D01*
X205820674Y-101114465D01*
G37*
G36*
X180695674Y-100653465D02*
G01*
X180733367Y-100664899D01*
X180768103Y-100683466D01*
X180798548Y-100708452D01*
X180823534Y-100738897D01*
X180842101Y-100773633D01*
X180853535Y-100811326D01*
X180858000Y-100856661D01*
X180858000Y-101943339D01*
X180853535Y-101988674D01*
X180842101Y-102026367D01*
X180823534Y-102061103D01*
X180798548Y-102091548D01*
X180768103Y-102116534D01*
X180733367Y-102135101D01*
X180695674Y-102146535D01*
X180650339Y-102151000D01*
X179813661Y-102151000D01*
X179768326Y-102146535D01*
X179730633Y-102135101D01*
X179695897Y-102116534D01*
X179665452Y-102091548D01*
X179640466Y-102061103D01*
X179621899Y-102026367D01*
X179610465Y-101988674D01*
X179606000Y-101943339D01*
X179606000Y-100856661D01*
X179610465Y-100811326D01*
X179621899Y-100773633D01*
X179640466Y-100738897D01*
X179665452Y-100708452D01*
X179695897Y-100683466D01*
X179730633Y-100664899D01*
X179768326Y-100653465D01*
X179813661Y-100649000D01*
X180650339Y-100649000D01*
X180695674Y-100653465D01*
G37*
G36*
X175945674Y-100653465D02*
G01*
X175983367Y-100664899D01*
X176018103Y-100683466D01*
X176048548Y-100708452D01*
X176073534Y-100738897D01*
X176092101Y-100773633D01*
X176103535Y-100811326D01*
X176108000Y-100856661D01*
X176108000Y-101943339D01*
X176103535Y-101988674D01*
X176092101Y-102026367D01*
X176073534Y-102061103D01*
X176048548Y-102091548D01*
X176018103Y-102116534D01*
X175983367Y-102135101D01*
X175945674Y-102146535D01*
X175900339Y-102151000D01*
X175063661Y-102151000D01*
X175018326Y-102146535D01*
X174980633Y-102135101D01*
X174945897Y-102116534D01*
X174915452Y-102091548D01*
X174890466Y-102061103D01*
X174871899Y-102026367D01*
X174860465Y-101988674D01*
X174856000Y-101943339D01*
X174856000Y-100856661D01*
X174860465Y-100811326D01*
X174871899Y-100773633D01*
X174890466Y-100738897D01*
X174915452Y-100708452D01*
X174945897Y-100683466D01*
X174980633Y-100664899D01*
X175018326Y-100653465D01*
X175063661Y-100649000D01*
X175900339Y-100649000D01*
X175945674Y-100653465D01*
G37*
G36*
X177995674Y-100653465D02*
G01*
X178033367Y-100664899D01*
X178068103Y-100683466D01*
X178098548Y-100708452D01*
X178123534Y-100738897D01*
X178142101Y-100773633D01*
X178153535Y-100811326D01*
X178158000Y-100856661D01*
X178158000Y-101943339D01*
X178153535Y-101988674D01*
X178142101Y-102026367D01*
X178123534Y-102061103D01*
X178098548Y-102091548D01*
X178068103Y-102116534D01*
X178033367Y-102135101D01*
X177995674Y-102146535D01*
X177950339Y-102151000D01*
X177113661Y-102151000D01*
X177068326Y-102146535D01*
X177030633Y-102135101D01*
X176995897Y-102116534D01*
X176965452Y-102091548D01*
X176940466Y-102061103D01*
X176921899Y-102026367D01*
X176910465Y-101988674D01*
X176906000Y-101943339D01*
X176906000Y-100856661D01*
X176910465Y-100811326D01*
X176921899Y-100773633D01*
X176940466Y-100738897D01*
X176965452Y-100708452D01*
X176995897Y-100683466D01*
X177030633Y-100664899D01*
X177068326Y-100653465D01*
X177113661Y-100649000D01*
X177950339Y-100649000D01*
X177995674Y-100653465D01*
G37*
G36*
X182745674Y-100653465D02*
G01*
X182783367Y-100664899D01*
X182818103Y-100683466D01*
X182848548Y-100708452D01*
X182873534Y-100738897D01*
X182892101Y-100773633D01*
X182903535Y-100811326D01*
X182908000Y-100856661D01*
X182908000Y-101943339D01*
X182903535Y-101988674D01*
X182892101Y-102026367D01*
X182873534Y-102061103D01*
X182848548Y-102091548D01*
X182818103Y-102116534D01*
X182783367Y-102135101D01*
X182745674Y-102146535D01*
X182700339Y-102151000D01*
X181863661Y-102151000D01*
X181818326Y-102146535D01*
X181780633Y-102135101D01*
X181745897Y-102116534D01*
X181715452Y-102091548D01*
X181690466Y-102061103D01*
X181671899Y-102026367D01*
X181660465Y-101988674D01*
X181656000Y-101943339D01*
X181656000Y-100856661D01*
X181660465Y-100811326D01*
X181671899Y-100773633D01*
X181690466Y-100738897D01*
X181715452Y-100708452D01*
X181745897Y-100683466D01*
X181780633Y-100664899D01*
X181818326Y-100653465D01*
X181863661Y-100649000D01*
X182700339Y-100649000D01*
X182745674Y-100653465D01*
G37*
G36*
X185445674Y-100103465D02*
G01*
X185483367Y-100114899D01*
X185518103Y-100133466D01*
X185548548Y-100158452D01*
X185573534Y-100188897D01*
X185592101Y-100223633D01*
X185603535Y-100261326D01*
X185608000Y-100306661D01*
X185608000Y-101393339D01*
X185603535Y-101438674D01*
X185592101Y-101476367D01*
X185573534Y-101511103D01*
X185548548Y-101541548D01*
X185518103Y-101566534D01*
X185483367Y-101585101D01*
X185445674Y-101596535D01*
X185400339Y-101601000D01*
X184563661Y-101601000D01*
X184518326Y-101596535D01*
X184480633Y-101585101D01*
X184445897Y-101566534D01*
X184415452Y-101541548D01*
X184390466Y-101511103D01*
X184371899Y-101476367D01*
X184360465Y-101438674D01*
X184356000Y-101393339D01*
X184356000Y-100306661D01*
X184360465Y-100261326D01*
X184371899Y-100223633D01*
X184390466Y-100188897D01*
X184415452Y-100158452D01*
X184445897Y-100133466D01*
X184480633Y-100114899D01*
X184518326Y-100103465D01*
X184563661Y-100099000D01*
X185400339Y-100099000D01*
X185445674Y-100103465D01*
G37*
G36*
X187495674Y-100103465D02*
G01*
X187533367Y-100114899D01*
X187568103Y-100133466D01*
X187598548Y-100158452D01*
X187623534Y-100188897D01*
X187642101Y-100223633D01*
X187653535Y-100261326D01*
X187658000Y-100306661D01*
X187658000Y-101393339D01*
X187653535Y-101438674D01*
X187642101Y-101476367D01*
X187623534Y-101511103D01*
X187598548Y-101541548D01*
X187568103Y-101566534D01*
X187533367Y-101585101D01*
X187495674Y-101596535D01*
X187450339Y-101601000D01*
X186613661Y-101601000D01*
X186568326Y-101596535D01*
X186530633Y-101585101D01*
X186495897Y-101566534D01*
X186465452Y-101541548D01*
X186440466Y-101511103D01*
X186421899Y-101476367D01*
X186410465Y-101438674D01*
X186406000Y-101393339D01*
X186406000Y-100306661D01*
X186410465Y-100261326D01*
X186421899Y-100223633D01*
X186440466Y-100188897D01*
X186465452Y-100158452D01*
X186495897Y-100133466D01*
X186530633Y-100114899D01*
X186568326Y-100103465D01*
X186613661Y-100099000D01*
X187450339Y-100099000D01*
X187495674Y-100103465D01*
G37*
G36*
X192245674Y-100103465D02*
G01*
X192283367Y-100114899D01*
X192318103Y-100133466D01*
X192348548Y-100158452D01*
X192373534Y-100188897D01*
X192392101Y-100223633D01*
X192403535Y-100261326D01*
X192408000Y-100306661D01*
X192408000Y-101393339D01*
X192403535Y-101438674D01*
X192392101Y-101476367D01*
X192373534Y-101511103D01*
X192348548Y-101541548D01*
X192318103Y-101566534D01*
X192283367Y-101585101D01*
X192245674Y-101596535D01*
X192200339Y-101601000D01*
X191363661Y-101601000D01*
X191318326Y-101596535D01*
X191280633Y-101585101D01*
X191245897Y-101566534D01*
X191215452Y-101541548D01*
X191190466Y-101511103D01*
X191171899Y-101476367D01*
X191160465Y-101438674D01*
X191156000Y-101393339D01*
X191156000Y-100306661D01*
X191160465Y-100261326D01*
X191171899Y-100223633D01*
X191190466Y-100188897D01*
X191215452Y-100158452D01*
X191245897Y-100133466D01*
X191280633Y-100114899D01*
X191318326Y-100103465D01*
X191363661Y-100099000D01*
X192200339Y-100099000D01*
X192245674Y-100103465D01*
G37*
G36*
X190195674Y-100103465D02*
G01*
X190233367Y-100114899D01*
X190268103Y-100133466D01*
X190298548Y-100158452D01*
X190323534Y-100188897D01*
X190342101Y-100223633D01*
X190353535Y-100261326D01*
X190358000Y-100306661D01*
X190358000Y-101393339D01*
X190353535Y-101438674D01*
X190342101Y-101476367D01*
X190323534Y-101511103D01*
X190298548Y-101541548D01*
X190268103Y-101566534D01*
X190233367Y-101585101D01*
X190195674Y-101596535D01*
X190150339Y-101601000D01*
X189313661Y-101601000D01*
X189268326Y-101596535D01*
X189230633Y-101585101D01*
X189195897Y-101566534D01*
X189165452Y-101541548D01*
X189140466Y-101511103D01*
X189121899Y-101476367D01*
X189110465Y-101438674D01*
X189106000Y-101393339D01*
X189106000Y-100306661D01*
X189110465Y-100261326D01*
X189121899Y-100223633D01*
X189140466Y-100188897D01*
X189165452Y-100158452D01*
X189195897Y-100133466D01*
X189230633Y-100114899D01*
X189268326Y-100103465D01*
X189313661Y-100099000D01*
X190150339Y-100099000D01*
X190195674Y-100103465D01*
G37*
G36*
X150514200Y-100498000D02*
G01*
X149612200Y-100498000D01*
X149612200Y-98996000D01*
X150514200Y-98996000D01*
X150514200Y-100498000D01*
G37*
G36*
X151784200Y-100498000D02*
G01*
X150882200Y-100498000D01*
X150882200Y-98996000D01*
X151784200Y-98996000D01*
X151784200Y-100498000D01*
G37*
G36*
X153054200Y-100498000D02*
G01*
X152152200Y-100498000D01*
X152152200Y-98996000D01*
X153054200Y-98996000D01*
X153054200Y-100498000D01*
G37*
G36*
X154324200Y-100498000D02*
G01*
X153422200Y-100498000D01*
X153422200Y-98996000D01*
X154324200Y-98996000D01*
X154324200Y-100498000D01*
G37*
G36*
X155594200Y-100498000D02*
G01*
X154692200Y-100498000D01*
X154692200Y-98996000D01*
X155594200Y-98996000D01*
X155594200Y-100498000D01*
G37*
G36*
X158134200Y-100498000D02*
G01*
X157232200Y-100498000D01*
X157232200Y-98996000D01*
X158134200Y-98996000D01*
X158134200Y-100498000D01*
G37*
G36*
X156864200Y-100498000D02*
G01*
X155962200Y-100498000D01*
X155962200Y-98996000D01*
X156864200Y-98996000D01*
X156864200Y-100498000D01*
G37*
G36*
X149244200Y-100498000D02*
G01*
X148342200Y-100498000D01*
X148342200Y-98996000D01*
X149244200Y-98996000D01*
X149244200Y-100498000D01*
G37*
G36*
X143692274Y-99158665D02*
G01*
X143729967Y-99170099D01*
X143764703Y-99188666D01*
X143795148Y-99213652D01*
X143820134Y-99244097D01*
X143838701Y-99278833D01*
X143850135Y-99316526D01*
X143854600Y-99361861D01*
X143854600Y-100198539D01*
X143850135Y-100243874D01*
X143838701Y-100281567D01*
X143820134Y-100316303D01*
X143795148Y-100346748D01*
X143764703Y-100371734D01*
X143729967Y-100390301D01*
X143692274Y-100401735D01*
X143646939Y-100406200D01*
X142560261Y-100406200D01*
X142514926Y-100401735D01*
X142477233Y-100390301D01*
X142442497Y-100371734D01*
X142412052Y-100346748D01*
X142387066Y-100316303D01*
X142368499Y-100281567D01*
X142357065Y-100243874D01*
X142352600Y-100198539D01*
X142352600Y-99361861D01*
X142357065Y-99316526D01*
X142368499Y-99278833D01*
X142387066Y-99244097D01*
X142412052Y-99213652D01*
X142442497Y-99188666D01*
X142477233Y-99170099D01*
X142514926Y-99158665D01*
X142560261Y-99154200D01*
X143646939Y-99154200D01*
X143692274Y-99158665D01*
G37*
G36*
X194945674Y-98893465D02*
G01*
X194983367Y-98904899D01*
X195018103Y-98923466D01*
X195048548Y-98948452D01*
X195073534Y-98978897D01*
X195092101Y-99013633D01*
X195103535Y-99051326D01*
X195108000Y-99096661D01*
X195108000Y-100183339D01*
X195103535Y-100228674D01*
X195092101Y-100266367D01*
X195073534Y-100301103D01*
X195048548Y-100331548D01*
X195018103Y-100356534D01*
X194983367Y-100375101D01*
X194945674Y-100386535D01*
X194900339Y-100391000D01*
X194063661Y-100391000D01*
X194018326Y-100386535D01*
X193980633Y-100375101D01*
X193945897Y-100356534D01*
X193915452Y-100331548D01*
X193890466Y-100301103D01*
X193871899Y-100266367D01*
X193860465Y-100228674D01*
X193856000Y-100183339D01*
X193856000Y-99096661D01*
X193860465Y-99051326D01*
X193871899Y-99013633D01*
X193890466Y-98978897D01*
X193915452Y-98948452D01*
X193945897Y-98923466D01*
X193980633Y-98904899D01*
X194018326Y-98893465D01*
X194063661Y-98889000D01*
X194900339Y-98889000D01*
X194945674Y-98893465D01*
G37*
G36*
X196995674Y-98893465D02*
G01*
X197033367Y-98904899D01*
X197068103Y-98923466D01*
X197098548Y-98948452D01*
X197123534Y-98978897D01*
X197142101Y-99013633D01*
X197153535Y-99051326D01*
X197158000Y-99096661D01*
X197158000Y-100183339D01*
X197153535Y-100228674D01*
X197142101Y-100266367D01*
X197123534Y-100301103D01*
X197098548Y-100331548D01*
X197068103Y-100356534D01*
X197033367Y-100375101D01*
X196995674Y-100386535D01*
X196950339Y-100391000D01*
X196113661Y-100391000D01*
X196068326Y-100386535D01*
X196030633Y-100375101D01*
X195995897Y-100356534D01*
X195965452Y-100331548D01*
X195940466Y-100301103D01*
X195921899Y-100266367D01*
X195910465Y-100228674D01*
X195906000Y-100183339D01*
X195906000Y-99096661D01*
X195910465Y-99051326D01*
X195921899Y-99013633D01*
X195940466Y-98978897D01*
X195965452Y-98948452D01*
X195995897Y-98923466D01*
X196030633Y-98904899D01*
X196068326Y-98893465D01*
X196113661Y-98889000D01*
X196950339Y-98889000D01*
X196995674Y-98893465D01*
G37*
G36*
X138612274Y-99107865D02*
G01*
X138649967Y-99119299D01*
X138684703Y-99137866D01*
X138715148Y-99162852D01*
X138740134Y-99193297D01*
X138758701Y-99228033D01*
X138770135Y-99265726D01*
X138774600Y-99311061D01*
X138774600Y-100147739D01*
X138770135Y-100193074D01*
X138758701Y-100230767D01*
X138740134Y-100265503D01*
X138715148Y-100295948D01*
X138684703Y-100320934D01*
X138649967Y-100339501D01*
X138612274Y-100350935D01*
X138566939Y-100355400D01*
X137480261Y-100355400D01*
X137434926Y-100350935D01*
X137397233Y-100339501D01*
X137362497Y-100320934D01*
X137332052Y-100295948D01*
X137307066Y-100265503D01*
X137288499Y-100230767D01*
X137277065Y-100193074D01*
X137272600Y-100147739D01*
X137272600Y-99311061D01*
X137277065Y-99265726D01*
X137288499Y-99228033D01*
X137307066Y-99193297D01*
X137332052Y-99162852D01*
X137362497Y-99137866D01*
X137397233Y-99119299D01*
X137434926Y-99107865D01*
X137480261Y-99103400D01*
X138566939Y-99103400D01*
X138612274Y-99107865D01*
G37*
G36*
X205820674Y-99064465D02*
G01*
X205858367Y-99075899D01*
X205893103Y-99094466D01*
X205923548Y-99119452D01*
X205948534Y-99149897D01*
X205967101Y-99184633D01*
X205978535Y-99222326D01*
X205983000Y-99267661D01*
X205983000Y-100104339D01*
X205978535Y-100149674D01*
X205967101Y-100187367D01*
X205948534Y-100222103D01*
X205923548Y-100252548D01*
X205893103Y-100277534D01*
X205858367Y-100296101D01*
X205820674Y-100307535D01*
X205775339Y-100312000D01*
X204688661Y-100312000D01*
X204643326Y-100307535D01*
X204605633Y-100296101D01*
X204570897Y-100277534D01*
X204540452Y-100252548D01*
X204515466Y-100222103D01*
X204496899Y-100187367D01*
X204485465Y-100149674D01*
X204481000Y-100104339D01*
X204481000Y-99267661D01*
X204485465Y-99222326D01*
X204496899Y-99184633D01*
X204515466Y-99149897D01*
X204540452Y-99119452D01*
X204570897Y-99094466D01*
X204605633Y-99075899D01*
X204643326Y-99064465D01*
X204688661Y-99060000D01*
X205775339Y-99060000D01*
X205820674Y-99064465D01*
G37*
G36*
X180695674Y-97703465D02*
G01*
X180733367Y-97714899D01*
X180768103Y-97733466D01*
X180798548Y-97758452D01*
X180823534Y-97788897D01*
X180842101Y-97823633D01*
X180853535Y-97861326D01*
X180858000Y-97906661D01*
X180858000Y-98993339D01*
X180853535Y-99038674D01*
X180842101Y-99076367D01*
X180823534Y-99111103D01*
X180798548Y-99141548D01*
X180768103Y-99166534D01*
X180733367Y-99185101D01*
X180695674Y-99196535D01*
X180650339Y-99201000D01*
X179813661Y-99201000D01*
X179768326Y-99196535D01*
X179730633Y-99185101D01*
X179695897Y-99166534D01*
X179665452Y-99141548D01*
X179640466Y-99111103D01*
X179621899Y-99076367D01*
X179610465Y-99038674D01*
X179606000Y-98993339D01*
X179606000Y-97906661D01*
X179610465Y-97861326D01*
X179621899Y-97823633D01*
X179640466Y-97788897D01*
X179665452Y-97758452D01*
X179695897Y-97733466D01*
X179730633Y-97714899D01*
X179768326Y-97703465D01*
X179813661Y-97699000D01*
X180650339Y-97699000D01*
X180695674Y-97703465D01*
G37*
G36*
X182745674Y-97703465D02*
G01*
X182783367Y-97714899D01*
X182818103Y-97733466D01*
X182848548Y-97758452D01*
X182873534Y-97788897D01*
X182892101Y-97823633D01*
X182903535Y-97861326D01*
X182908000Y-97906661D01*
X182908000Y-98993339D01*
X182903535Y-99038674D01*
X182892101Y-99076367D01*
X182873534Y-99111103D01*
X182848548Y-99141548D01*
X182818103Y-99166534D01*
X182783367Y-99185101D01*
X182745674Y-99196535D01*
X182700339Y-99201000D01*
X181863661Y-99201000D01*
X181818326Y-99196535D01*
X181780633Y-99185101D01*
X181745897Y-99166534D01*
X181715452Y-99141548D01*
X181690466Y-99111103D01*
X181671899Y-99076367D01*
X181660465Y-99038674D01*
X181656000Y-98993339D01*
X181656000Y-97906661D01*
X181660465Y-97861326D01*
X181671899Y-97823633D01*
X181690466Y-97788897D01*
X181715452Y-97758452D01*
X181745897Y-97733466D01*
X181780633Y-97714899D01*
X181818326Y-97703465D01*
X181863661Y-97699000D01*
X182700339Y-97699000D01*
X182745674Y-97703465D01*
G37*
G36*
X175945674Y-97703465D02*
G01*
X175983367Y-97714899D01*
X176018103Y-97733466D01*
X176048548Y-97758452D01*
X176073534Y-97788897D01*
X176092101Y-97823633D01*
X176103535Y-97861326D01*
X176108000Y-97906661D01*
X176108000Y-98993339D01*
X176103535Y-99038674D01*
X176092101Y-99076367D01*
X176073534Y-99111103D01*
X176048548Y-99141548D01*
X176018103Y-99166534D01*
X175983367Y-99185101D01*
X175945674Y-99196535D01*
X175900339Y-99201000D01*
X175063661Y-99201000D01*
X175018326Y-99196535D01*
X174980633Y-99185101D01*
X174945897Y-99166534D01*
X174915452Y-99141548D01*
X174890466Y-99111103D01*
X174871899Y-99076367D01*
X174860465Y-99038674D01*
X174856000Y-98993339D01*
X174856000Y-97906661D01*
X174860465Y-97861326D01*
X174871899Y-97823633D01*
X174890466Y-97788897D01*
X174915452Y-97758452D01*
X174945897Y-97733466D01*
X174980633Y-97714899D01*
X175018326Y-97703465D01*
X175063661Y-97699000D01*
X175900339Y-97699000D01*
X175945674Y-97703465D01*
G37*
G36*
X177995674Y-97703465D02*
G01*
X178033367Y-97714899D01*
X178068103Y-97733466D01*
X178098548Y-97758452D01*
X178123534Y-97788897D01*
X178142101Y-97823633D01*
X178153535Y-97861326D01*
X178158000Y-97906661D01*
X178158000Y-98993339D01*
X178153535Y-99038674D01*
X178142101Y-99076367D01*
X178123534Y-99111103D01*
X178098548Y-99141548D01*
X178068103Y-99166534D01*
X178033367Y-99185101D01*
X177995674Y-99196535D01*
X177950339Y-99201000D01*
X177113661Y-99201000D01*
X177068326Y-99196535D01*
X177030633Y-99185101D01*
X176995897Y-99166534D01*
X176965452Y-99141548D01*
X176940466Y-99111103D01*
X176921899Y-99076367D01*
X176910465Y-99038674D01*
X176906000Y-98993339D01*
X176906000Y-97906661D01*
X176910465Y-97861326D01*
X176921899Y-97823633D01*
X176940466Y-97788897D01*
X176965452Y-97758452D01*
X176995897Y-97733466D01*
X177030633Y-97714899D01*
X177068326Y-97703465D01*
X177113661Y-97699000D01*
X177950339Y-97699000D01*
X177995674Y-97703465D01*
G37*
G36*
X199608000Y-98891000D02*
G01*
X198606000Y-98891000D01*
X198606000Y-97989000D01*
X199608000Y-97989000D01*
X199608000Y-98891000D01*
G37*
G36*
X191037874Y-93666965D02*
G01*
X191075567Y-93678399D01*
X191110303Y-93696966D01*
X191140748Y-93721952D01*
X191165734Y-93752397D01*
X191184301Y-93787133D01*
X191195735Y-93824826D01*
X191200200Y-93870161D01*
X191200200Y-94706839D01*
X191195735Y-94752174D01*
X191184301Y-94789867D01*
X191165734Y-94824603D01*
X191140748Y-94855048D01*
X191110303Y-94880034D01*
X191075567Y-94898601D01*
X191037874Y-94910035D01*
X190992539Y-94914500D01*
X190242999Y-94914500D01*
X190218613Y-94916902D01*
X190195164Y-94924015D01*
X190173553Y-94935566D01*
X190154611Y-94951111D01*
X190139066Y-94970053D01*
X190127515Y-94991664D01*
X190120402Y-95015113D01*
X190118000Y-95039499D01*
X190118000Y-95493339D01*
X190113535Y-95538675D01*
X190109731Y-95551214D01*
X190104950Y-95575248D01*
X190104950Y-95599752D01*
X190109730Y-95623785D01*
X190119107Y-95646424D01*
X190132721Y-95666798D01*
X190150047Y-95684126D01*
X190170422Y-95697740D01*
X190193060Y-95707117D01*
X190217094Y-95711898D01*
X190229347Y-95712500D01*
X190992539Y-95712500D01*
X191037874Y-95716965D01*
X191075567Y-95728399D01*
X191110303Y-95746966D01*
X191140748Y-95771952D01*
X191165734Y-95802397D01*
X191184301Y-95837133D01*
X191195735Y-95874826D01*
X191200200Y-95920161D01*
X191200200Y-96756839D01*
X191195735Y-96802174D01*
X191184301Y-96839867D01*
X191165734Y-96874603D01*
X191140748Y-96905048D01*
X191110303Y-96930034D01*
X191075567Y-96948601D01*
X191037874Y-96960035D01*
X190992539Y-96964500D01*
X190350641Y-96964500D01*
X190326255Y-96966902D01*
X190302806Y-96974015D01*
X190281195Y-96985566D01*
X190262253Y-97001111D01*
X190246708Y-97020053D01*
X190235157Y-97041664D01*
X190228044Y-97065113D01*
X190225642Y-97089499D01*
X190228044Y-97113885D01*
X190235157Y-97137334D01*
X190246708Y-97158945D01*
X190262253Y-97177887D01*
X190271344Y-97186126D01*
X190298548Y-97208451D01*
X190323534Y-97238897D01*
X190342101Y-97273633D01*
X190353535Y-97311326D01*
X190358000Y-97356661D01*
X190358000Y-98443339D01*
X190353535Y-98488674D01*
X190342101Y-98526367D01*
X190323534Y-98561103D01*
X190298548Y-98591548D01*
X190268103Y-98616534D01*
X190233367Y-98635101D01*
X190195674Y-98646535D01*
X190150339Y-98651000D01*
X189313661Y-98651000D01*
X189268326Y-98646535D01*
X189230633Y-98635101D01*
X189195897Y-98616534D01*
X189165452Y-98591548D01*
X189140466Y-98561103D01*
X189121899Y-98526367D01*
X189110465Y-98488674D01*
X189106000Y-98443339D01*
X189106000Y-97356661D01*
X189110465Y-97311326D01*
X189121899Y-97273633D01*
X189140466Y-97238897D01*
X189165452Y-97208452D01*
X189195897Y-97183466D01*
X189230633Y-97164899D01*
X189268326Y-97153465D01*
X189313661Y-97149000D01*
X189705559Y-97149000D01*
X189729945Y-97146598D01*
X189753394Y-97139485D01*
X189775005Y-97127934D01*
X189793947Y-97112389D01*
X189809492Y-97093447D01*
X189821043Y-97071836D01*
X189828156Y-97048387D01*
X189830558Y-97024001D01*
X189828156Y-96999615D01*
X189821043Y-96976166D01*
X189809492Y-96954555D01*
X189793947Y-96935613D01*
X189784856Y-96927374D01*
X189757652Y-96905049D01*
X189732666Y-96874603D01*
X189714099Y-96839867D01*
X189702665Y-96802174D01*
X189698200Y-96756839D01*
X189698200Y-95920161D01*
X189702665Y-95874825D01*
X189706469Y-95862286D01*
X189711250Y-95838252D01*
X189711250Y-95813748D01*
X189706470Y-95789715D01*
X189697093Y-95767076D01*
X189683479Y-95746702D01*
X189666153Y-95729374D01*
X189645778Y-95715760D01*
X189623140Y-95706383D01*
X189599106Y-95701602D01*
X189586853Y-95701000D01*
X189073661Y-95701000D01*
X189028326Y-95696535D01*
X188990633Y-95685101D01*
X188955897Y-95666534D01*
X188925452Y-95641548D01*
X188900466Y-95611103D01*
X188881899Y-95576367D01*
X188870465Y-95538674D01*
X188866000Y-95493339D01*
X188866000Y-94406661D01*
X188870465Y-94361326D01*
X188881899Y-94323633D01*
X188900466Y-94288897D01*
X188925452Y-94258452D01*
X188955897Y-94233466D01*
X188990633Y-94214899D01*
X189028326Y-94203465D01*
X189073661Y-94199000D01*
X189573201Y-94199000D01*
X189597587Y-94196598D01*
X189621036Y-94189485D01*
X189642647Y-94177934D01*
X189661589Y-94162389D01*
X189677134Y-94143447D01*
X189688685Y-94121836D01*
X189695798Y-94098387D01*
X189698200Y-94074001D01*
X189698200Y-93870161D01*
X189702665Y-93824826D01*
X189714099Y-93787133D01*
X189732666Y-93752397D01*
X189757652Y-93721952D01*
X189788097Y-93696966D01*
X189822833Y-93678399D01*
X189860526Y-93666965D01*
X189905861Y-93662500D01*
X190992539Y-93662500D01*
X191037874Y-93666965D01*
G37*
G36*
X187495674Y-97153465D02*
G01*
X187533367Y-97164899D01*
X187568103Y-97183466D01*
X187598548Y-97208452D01*
X187623534Y-97238897D01*
X187642101Y-97273633D01*
X187653535Y-97311326D01*
X187658000Y-97356661D01*
X187658000Y-98443339D01*
X187653535Y-98488674D01*
X187642101Y-98526367D01*
X187623534Y-98561103D01*
X187598548Y-98591548D01*
X187568103Y-98616534D01*
X187533367Y-98635101D01*
X187495674Y-98646535D01*
X187450339Y-98651000D01*
X186613661Y-98651000D01*
X186568326Y-98646535D01*
X186530633Y-98635101D01*
X186495897Y-98616534D01*
X186465452Y-98591548D01*
X186440466Y-98561103D01*
X186421899Y-98526367D01*
X186410465Y-98488674D01*
X186406000Y-98443339D01*
X186406000Y-97356661D01*
X186410465Y-97311326D01*
X186421899Y-97273633D01*
X186440466Y-97238897D01*
X186465452Y-97208452D01*
X186495897Y-97183466D01*
X186530633Y-97164899D01*
X186568326Y-97153465D01*
X186613661Y-97149000D01*
X187450339Y-97149000D01*
X187495674Y-97153465D01*
G37*
G36*
X185445674Y-97153465D02*
G01*
X185483367Y-97164899D01*
X185518103Y-97183466D01*
X185548548Y-97208452D01*
X185573534Y-97238897D01*
X185592101Y-97273633D01*
X185603535Y-97311326D01*
X185608000Y-97356661D01*
X185608000Y-98443339D01*
X185603535Y-98488674D01*
X185592101Y-98526367D01*
X185573534Y-98561103D01*
X185548548Y-98591548D01*
X185518103Y-98616534D01*
X185483367Y-98635101D01*
X185445674Y-98646535D01*
X185400339Y-98651000D01*
X184563661Y-98651000D01*
X184518326Y-98646535D01*
X184480633Y-98635101D01*
X184445897Y-98616534D01*
X184415452Y-98591548D01*
X184390466Y-98561103D01*
X184371899Y-98526367D01*
X184360465Y-98488674D01*
X184356000Y-98443339D01*
X184356000Y-97356661D01*
X184360465Y-97311326D01*
X184371899Y-97273633D01*
X184390466Y-97238897D01*
X184415452Y-97208452D01*
X184445897Y-97183466D01*
X184480633Y-97164899D01*
X184518326Y-97153465D01*
X184563661Y-97149000D01*
X185400339Y-97149000D01*
X185445674Y-97153465D01*
G37*
G36*
X192245674Y-97153465D02*
G01*
X192283367Y-97164899D01*
X192318103Y-97183466D01*
X192348548Y-97208452D01*
X192373534Y-97238897D01*
X192392101Y-97273633D01*
X192403535Y-97311326D01*
X192408000Y-97356661D01*
X192408000Y-98443339D01*
X192403535Y-98488674D01*
X192392101Y-98526367D01*
X192373534Y-98561103D01*
X192348548Y-98591548D01*
X192318103Y-98616534D01*
X192283367Y-98635101D01*
X192245674Y-98646535D01*
X192200339Y-98651000D01*
X191363661Y-98651000D01*
X191318326Y-98646535D01*
X191280633Y-98635101D01*
X191245897Y-98616534D01*
X191215452Y-98591548D01*
X191190466Y-98561103D01*
X191171899Y-98526367D01*
X191160465Y-98488674D01*
X191156000Y-98443339D01*
X191156000Y-97356661D01*
X191160465Y-97311326D01*
X191171899Y-97273633D01*
X191190466Y-97238897D01*
X191215452Y-97208452D01*
X191245897Y-97183466D01*
X191280633Y-97164899D01*
X191318326Y-97153465D01*
X191363661Y-97149000D01*
X192200339Y-97149000D01*
X192245674Y-97153465D01*
G37*
G36*
X143692274Y-97108665D02*
G01*
X143729967Y-97120099D01*
X143764703Y-97138666D01*
X143795148Y-97163652D01*
X143820134Y-97194097D01*
X143838701Y-97228833D01*
X143850135Y-97266526D01*
X143854600Y-97311861D01*
X143854600Y-98148539D01*
X143850135Y-98193874D01*
X143838701Y-98231567D01*
X143820134Y-98266303D01*
X143795148Y-98296748D01*
X143764703Y-98321734D01*
X143729967Y-98340301D01*
X143692274Y-98351735D01*
X143646939Y-98356200D01*
X142560261Y-98356200D01*
X142514926Y-98351735D01*
X142477233Y-98340301D01*
X142442497Y-98321734D01*
X142412052Y-98296748D01*
X142387066Y-98266303D01*
X142368499Y-98231567D01*
X142357065Y-98193874D01*
X142352600Y-98148539D01*
X142352600Y-97311861D01*
X142357065Y-97266526D01*
X142368499Y-97228833D01*
X142387066Y-97194097D01*
X142412052Y-97163652D01*
X142442497Y-97138666D01*
X142477233Y-97120099D01*
X142514926Y-97108665D01*
X142560261Y-97104200D01*
X143646939Y-97104200D01*
X143692274Y-97108665D01*
G37*
G36*
X138612274Y-97057865D02*
G01*
X138649967Y-97069299D01*
X138684703Y-97087866D01*
X138715148Y-97112852D01*
X138740134Y-97143297D01*
X138758701Y-97178033D01*
X138770135Y-97215726D01*
X138774600Y-97261061D01*
X138774600Y-98097739D01*
X138770135Y-98143074D01*
X138758701Y-98180767D01*
X138740134Y-98215503D01*
X138715148Y-98245948D01*
X138684703Y-98270934D01*
X138649967Y-98289501D01*
X138612274Y-98300935D01*
X138566939Y-98305400D01*
X137480261Y-98305400D01*
X137434926Y-98300935D01*
X137397233Y-98289501D01*
X137362497Y-98270934D01*
X137332052Y-98245948D01*
X137307066Y-98215503D01*
X137288499Y-98180767D01*
X137277065Y-98143074D01*
X137272600Y-98097739D01*
X137272600Y-97261061D01*
X137277065Y-97215726D01*
X137288499Y-97178033D01*
X137307066Y-97143297D01*
X137332052Y-97112852D01*
X137362497Y-97087866D01*
X137397233Y-97069299D01*
X137434926Y-97057865D01*
X137480261Y-97053400D01*
X138566939Y-97053400D01*
X138612274Y-97057865D01*
G37*
G36*
X201608000Y-97941000D02*
G01*
X200606000Y-97941000D01*
X200606000Y-97039000D01*
X201608000Y-97039000D01*
X201608000Y-97941000D01*
G37*
G36*
X196995674Y-95943465D02*
G01*
X197033367Y-95954899D01*
X197068103Y-95973466D01*
X197098548Y-95998452D01*
X197123534Y-96028897D01*
X197142101Y-96063633D01*
X197153535Y-96101326D01*
X197158000Y-96146661D01*
X197158000Y-97233339D01*
X197153535Y-97278674D01*
X197142101Y-97316367D01*
X197123534Y-97351103D01*
X197098548Y-97381548D01*
X197068103Y-97406534D01*
X197033367Y-97425101D01*
X196995674Y-97436535D01*
X196950339Y-97441000D01*
X196113661Y-97441000D01*
X196068326Y-97436535D01*
X196030633Y-97425101D01*
X195995897Y-97406534D01*
X195965452Y-97381548D01*
X195940466Y-97351103D01*
X195921899Y-97316367D01*
X195910465Y-97278674D01*
X195906000Y-97233339D01*
X195906000Y-96146661D01*
X195910465Y-96101326D01*
X195921899Y-96063633D01*
X195940466Y-96028897D01*
X195965452Y-95998452D01*
X195995897Y-95973466D01*
X196030633Y-95954899D01*
X196068326Y-95943465D01*
X196113661Y-95939000D01*
X196950339Y-95939000D01*
X196995674Y-95943465D01*
G37*
G36*
X194945674Y-95943465D02*
G01*
X194983367Y-95954899D01*
X195018103Y-95973466D01*
X195048548Y-95998452D01*
X195073534Y-96028897D01*
X195092101Y-96063633D01*
X195103535Y-96101326D01*
X195108000Y-96146661D01*
X195108000Y-97233339D01*
X195103535Y-97278674D01*
X195092101Y-97316367D01*
X195073534Y-97351103D01*
X195048548Y-97381548D01*
X195018103Y-97406534D01*
X194983367Y-97425101D01*
X194945674Y-97436535D01*
X194900339Y-97441000D01*
X194063661Y-97441000D01*
X194018326Y-97436535D01*
X193980633Y-97425101D01*
X193945897Y-97406534D01*
X193915452Y-97381548D01*
X193890466Y-97351103D01*
X193871899Y-97316367D01*
X193860465Y-97278674D01*
X193856000Y-97233339D01*
X193856000Y-96146661D01*
X193860465Y-96101326D01*
X193871899Y-96063633D01*
X193890466Y-96028897D01*
X193915452Y-95998452D01*
X193945897Y-95973466D01*
X193980633Y-95954899D01*
X194018326Y-95943465D01*
X194063661Y-95939000D01*
X194900339Y-95939000D01*
X194945674Y-95943465D01*
G37*
G36*
X199608000Y-96991000D02*
G01*
X198606000Y-96991000D01*
X198606000Y-96089000D01*
X199608000Y-96089000D01*
X199608000Y-96991000D01*
G37*
G36*
X180623000Y-95950000D02*
G01*
X178921000Y-95950000D01*
X178921000Y-93848000D01*
X180623000Y-93848000D01*
X180623000Y-95950000D01*
G37*
G36*
X176559000Y-95950000D02*
G01*
X174857000Y-95950000D01*
X174857000Y-93848000D01*
X176559000Y-93848000D01*
X176559000Y-95950000D01*
G37*
G36*
X187905674Y-94203465D02*
G01*
X187943367Y-94214899D01*
X187978103Y-94233466D01*
X188008548Y-94258452D01*
X188033534Y-94288897D01*
X188052101Y-94323633D01*
X188063535Y-94361326D01*
X188068000Y-94406661D01*
X188068000Y-95493339D01*
X188063535Y-95538674D01*
X188052101Y-95576367D01*
X188033534Y-95611103D01*
X188008548Y-95641548D01*
X187978103Y-95666534D01*
X187943367Y-95685101D01*
X187905674Y-95696535D01*
X187860339Y-95701000D01*
X187023661Y-95701000D01*
X186978326Y-95696535D01*
X186940633Y-95685101D01*
X186905897Y-95666534D01*
X186875452Y-95641548D01*
X186850466Y-95611103D01*
X186831899Y-95576367D01*
X186820465Y-95538674D01*
X186816000Y-95493339D01*
X186816000Y-94406661D01*
X186820465Y-94361326D01*
X186831899Y-94323633D01*
X186850466Y-94288897D01*
X186875452Y-94258452D01*
X186905897Y-94233466D01*
X186940633Y-94214899D01*
X186978326Y-94203465D01*
X187023661Y-94199000D01*
X187860339Y-94199000D01*
X187905674Y-94203465D01*
G37*
G36*
X185205674Y-94203465D02*
G01*
X185243367Y-94214899D01*
X185278103Y-94233466D01*
X185308548Y-94258452D01*
X185333534Y-94288897D01*
X185352101Y-94323633D01*
X185363535Y-94361326D01*
X185368000Y-94406661D01*
X185368000Y-95493339D01*
X185363535Y-95538674D01*
X185352101Y-95576367D01*
X185333534Y-95611103D01*
X185308548Y-95641548D01*
X185278103Y-95666534D01*
X185243367Y-95685101D01*
X185205674Y-95696535D01*
X185160339Y-95701000D01*
X184323661Y-95701000D01*
X184278326Y-95696535D01*
X184240633Y-95685101D01*
X184205897Y-95666534D01*
X184175452Y-95641548D01*
X184150466Y-95611103D01*
X184131899Y-95576367D01*
X184120465Y-95538674D01*
X184116000Y-95493339D01*
X184116000Y-94406661D01*
X184120465Y-94361326D01*
X184131899Y-94323633D01*
X184150466Y-94288897D01*
X184175452Y-94258452D01*
X184205897Y-94233466D01*
X184240633Y-94214899D01*
X184278326Y-94203465D01*
X184323661Y-94199000D01*
X185160339Y-94199000D01*
X185205674Y-94203465D01*
G37*
G36*
X183155674Y-94203465D02*
G01*
X183193367Y-94214899D01*
X183228103Y-94233466D01*
X183258548Y-94258452D01*
X183283534Y-94288897D01*
X183302101Y-94323633D01*
X183313535Y-94361326D01*
X183318000Y-94406661D01*
X183318000Y-95493339D01*
X183313535Y-95538674D01*
X183302101Y-95576367D01*
X183283534Y-95611103D01*
X183258548Y-95641548D01*
X183228103Y-95666534D01*
X183193367Y-95685101D01*
X183155674Y-95696535D01*
X183110339Y-95701000D01*
X182273661Y-95701000D01*
X182228326Y-95696535D01*
X182190633Y-95685101D01*
X182155897Y-95666534D01*
X182125452Y-95641548D01*
X182100466Y-95611103D01*
X182081899Y-95576367D01*
X182070465Y-95538674D01*
X182066000Y-95493339D01*
X182066000Y-94406661D01*
X182070465Y-94361326D01*
X182081899Y-94323633D01*
X182100466Y-94288897D01*
X182125452Y-94258452D01*
X182155897Y-94233466D01*
X182190633Y-94214899D01*
X182228326Y-94203465D01*
X182273661Y-94199000D01*
X183110339Y-94199000D01*
X183155674Y-94203465D01*
G37*
G36*
X198645674Y-92993465D02*
G01*
X198683367Y-93004899D01*
X198718103Y-93023466D01*
X198748548Y-93048452D01*
X198773534Y-93078897D01*
X198792101Y-93113633D01*
X198803535Y-93151326D01*
X198808000Y-93196661D01*
X198808000Y-94283339D01*
X198803535Y-94328674D01*
X198792101Y-94366367D01*
X198773534Y-94401103D01*
X198748548Y-94431548D01*
X198718103Y-94456534D01*
X198683367Y-94475101D01*
X198645674Y-94486535D01*
X198600339Y-94491000D01*
X197763661Y-94491000D01*
X197718326Y-94486535D01*
X197680633Y-94475101D01*
X197645897Y-94456534D01*
X197615452Y-94431548D01*
X197590466Y-94401103D01*
X197571899Y-94366367D01*
X197560465Y-94328674D01*
X197556000Y-94283339D01*
X197556000Y-93196661D01*
X197560465Y-93151326D01*
X197571899Y-93113633D01*
X197590466Y-93078897D01*
X197615452Y-93048452D01*
X197645897Y-93023466D01*
X197680633Y-93004899D01*
X197718326Y-92993465D01*
X197763661Y-92989000D01*
X198600339Y-92989000D01*
X198645674Y-92993465D01*
G37*
G36*
X195945674Y-92993465D02*
G01*
X195983367Y-93004899D01*
X196018103Y-93023466D01*
X196048548Y-93048452D01*
X196073534Y-93078897D01*
X196092101Y-93113633D01*
X196103535Y-93151326D01*
X196108000Y-93196661D01*
X196108000Y-94283339D01*
X196103535Y-94328674D01*
X196092101Y-94366367D01*
X196073534Y-94401103D01*
X196048548Y-94431548D01*
X196018103Y-94456534D01*
X195983367Y-94475101D01*
X195945674Y-94486535D01*
X195900339Y-94491000D01*
X195063661Y-94491000D01*
X195018326Y-94486535D01*
X194980633Y-94475101D01*
X194945897Y-94456534D01*
X194915452Y-94431548D01*
X194890466Y-94401103D01*
X194871899Y-94366367D01*
X194860465Y-94328674D01*
X194856000Y-94283339D01*
X194856000Y-93196661D01*
X194860465Y-93151326D01*
X194871899Y-93113633D01*
X194890466Y-93078897D01*
X194915452Y-93048452D01*
X194945897Y-93023466D01*
X194980633Y-93004899D01*
X195018326Y-92993465D01*
X195063661Y-92989000D01*
X195900339Y-92989000D01*
X195945674Y-92993465D01*
G37*
G36*
X193895674Y-92993465D02*
G01*
X193933367Y-93004899D01*
X193968103Y-93023466D01*
X193998548Y-93048452D01*
X194023534Y-93078897D01*
X194042101Y-93113633D01*
X194053535Y-93151326D01*
X194058000Y-93196661D01*
X194058000Y-94283339D01*
X194053535Y-94328674D01*
X194042101Y-94366367D01*
X194023534Y-94401103D01*
X193998548Y-94431548D01*
X193968103Y-94456534D01*
X193933367Y-94475101D01*
X193895674Y-94486535D01*
X193850339Y-94491000D01*
X193013661Y-94491000D01*
X192968326Y-94486535D01*
X192930633Y-94475101D01*
X192895897Y-94456534D01*
X192865452Y-94431548D01*
X192840466Y-94401103D01*
X192821899Y-94366367D01*
X192810465Y-94328674D01*
X192806000Y-94283339D01*
X192806000Y-93196661D01*
X192810465Y-93151326D01*
X192821899Y-93113633D01*
X192840466Y-93078897D01*
X192865452Y-93048452D01*
X192895897Y-93023466D01*
X192930633Y-93004899D01*
X192968326Y-92993465D01*
X193013661Y-92989000D01*
X193850339Y-92989000D01*
X193895674Y-92993465D01*
G37*
G36*
X200695674Y-92993465D02*
G01*
X200733367Y-93004899D01*
X200768103Y-93023466D01*
X200798548Y-93048452D01*
X200823534Y-93078897D01*
X200842101Y-93113633D01*
X200853535Y-93151326D01*
X200858000Y-93196661D01*
X200858000Y-94283339D01*
X200853535Y-94328674D01*
X200842101Y-94366367D01*
X200823534Y-94401103D01*
X200798548Y-94431548D01*
X200768103Y-94456534D01*
X200733367Y-94475101D01*
X200695674Y-94486535D01*
X200650339Y-94491000D01*
X199813661Y-94491000D01*
X199768326Y-94486535D01*
X199730633Y-94475101D01*
X199695897Y-94456534D01*
X199665452Y-94431548D01*
X199640466Y-94401103D01*
X199621899Y-94366367D01*
X199610465Y-94328674D01*
X199606000Y-94283339D01*
X199606000Y-93196661D01*
X199610465Y-93151326D01*
X199621899Y-93113633D01*
X199640466Y-93078897D01*
X199665452Y-93048452D01*
X199695897Y-93023466D01*
X199730633Y-93004899D01*
X199768326Y-92993465D01*
X199813661Y-92989000D01*
X200650339Y-92989000D01*
X200695674Y-92993465D01*
G37*
G36*
X165683000Y-93841000D02*
G01*
X160581000Y-93841000D01*
X160581000Y-90739000D01*
X165683000Y-90739000D01*
X165683000Y-93841000D01*
G37*
G36*
X173683000Y-93841000D02*
G01*
X168581000Y-93841000D01*
X168581000Y-90739000D01*
X173683000Y-90739000D01*
X173683000Y-93841000D01*
G37*
G36*
X191195674Y-91253465D02*
G01*
X191233367Y-91264899D01*
X191268103Y-91283466D01*
X191298548Y-91308452D01*
X191323534Y-91338897D01*
X191342101Y-91373633D01*
X191353535Y-91411326D01*
X191358000Y-91456661D01*
X191358000Y-92543339D01*
X191353535Y-92588674D01*
X191342101Y-92626367D01*
X191323534Y-92661103D01*
X191298548Y-92691548D01*
X191268103Y-92716534D01*
X191233367Y-92735101D01*
X191195674Y-92746535D01*
X191150339Y-92751000D01*
X190313661Y-92751000D01*
X190268326Y-92746535D01*
X190230633Y-92735101D01*
X190195897Y-92716534D01*
X190165452Y-92691548D01*
X190140466Y-92661103D01*
X190121899Y-92626367D01*
X190110465Y-92588674D01*
X190106000Y-92543339D01*
X190106000Y-91456661D01*
X190110465Y-91411326D01*
X190121899Y-91373633D01*
X190140466Y-91338897D01*
X190165452Y-91308452D01*
X190195897Y-91283466D01*
X190230633Y-91264899D01*
X190268326Y-91253465D01*
X190313661Y-91249000D01*
X191150339Y-91249000D01*
X191195674Y-91253465D01*
G37*
G36*
X189145674Y-91253465D02*
G01*
X189183367Y-91264899D01*
X189218103Y-91283466D01*
X189248548Y-91308452D01*
X189273534Y-91338897D01*
X189292101Y-91373633D01*
X189303535Y-91411326D01*
X189308000Y-91456661D01*
X189308000Y-92543339D01*
X189303535Y-92588674D01*
X189292101Y-92626367D01*
X189273534Y-92661103D01*
X189248548Y-92691548D01*
X189218103Y-92716534D01*
X189183367Y-92735101D01*
X189145674Y-92746535D01*
X189100339Y-92751000D01*
X188263661Y-92751000D01*
X188218326Y-92746535D01*
X188180633Y-92735101D01*
X188145897Y-92716534D01*
X188115452Y-92691548D01*
X188090466Y-92661103D01*
X188071899Y-92626367D01*
X188060465Y-92588674D01*
X188056000Y-92543339D01*
X188056000Y-91456661D01*
X188060465Y-91411326D01*
X188071899Y-91373633D01*
X188090466Y-91338897D01*
X188115452Y-91308452D01*
X188145897Y-91283466D01*
X188180633Y-91264899D01*
X188218326Y-91253465D01*
X188263661Y-91249000D01*
X189100339Y-91249000D01*
X189145674Y-91253465D01*
G37*
G36*
X186445674Y-91253465D02*
G01*
X186483367Y-91264899D01*
X186518103Y-91283466D01*
X186548548Y-91308452D01*
X186573534Y-91338897D01*
X186592101Y-91373633D01*
X186603535Y-91411326D01*
X186608000Y-91456661D01*
X186608000Y-92543339D01*
X186603535Y-92588674D01*
X186592101Y-92626367D01*
X186573534Y-92661103D01*
X186548548Y-92691548D01*
X186518103Y-92716534D01*
X186483367Y-92735101D01*
X186445674Y-92746535D01*
X186400339Y-92751000D01*
X185563661Y-92751000D01*
X185518326Y-92746535D01*
X185480633Y-92735101D01*
X185445897Y-92716534D01*
X185415452Y-92691548D01*
X185390466Y-92661103D01*
X185371899Y-92626367D01*
X185360465Y-92588674D01*
X185356000Y-92543339D01*
X185356000Y-91456661D01*
X185360465Y-91411326D01*
X185371899Y-91373633D01*
X185390466Y-91338897D01*
X185415452Y-91308452D01*
X185445897Y-91283466D01*
X185480633Y-91264899D01*
X185518326Y-91253465D01*
X185563661Y-91249000D01*
X186400339Y-91249000D01*
X186445674Y-91253465D01*
G37*
G36*
X184395674Y-91253465D02*
G01*
X184433367Y-91264899D01*
X184468103Y-91283466D01*
X184498548Y-91308452D01*
X184523534Y-91338897D01*
X184542101Y-91373633D01*
X184553535Y-91411326D01*
X184558000Y-91456661D01*
X184558000Y-92543339D01*
X184553535Y-92588674D01*
X184542101Y-92626367D01*
X184523534Y-92661103D01*
X184498548Y-92691548D01*
X184468103Y-92716534D01*
X184433367Y-92735101D01*
X184395674Y-92746535D01*
X184350339Y-92751000D01*
X183513661Y-92751000D01*
X183468326Y-92746535D01*
X183430633Y-92735101D01*
X183395897Y-92716534D01*
X183365452Y-92691548D01*
X183340466Y-92661103D01*
X183321899Y-92626367D01*
X183310465Y-92588674D01*
X183306000Y-92543339D01*
X183306000Y-91456661D01*
X183310465Y-91411326D01*
X183321899Y-91373633D01*
X183340466Y-91338897D01*
X183365452Y-91308452D01*
X183395897Y-91283466D01*
X183430633Y-91264899D01*
X183468326Y-91253465D01*
X183513661Y-91249000D01*
X184350339Y-91249000D01*
X184395674Y-91253465D01*
G37*
G36*
X181766928Y-91146764D02*
G01*
X181788009Y-91153160D01*
X181807445Y-91163548D01*
X181824476Y-91177524D01*
X181838452Y-91194555D01*
X181848840Y-91213991D01*
X181855236Y-91235072D01*
X181858000Y-91263140D01*
X181858000Y-91726860D01*
X181855236Y-91754928D01*
X181848840Y-91776009D01*
X181838452Y-91795445D01*
X181824476Y-91812476D01*
X181807445Y-91826452D01*
X181788009Y-91836840D01*
X181766928Y-91843236D01*
X181738860Y-91846000D01*
X179925140Y-91846000D01*
X179897072Y-91843236D01*
X179875991Y-91836840D01*
X179856555Y-91826452D01*
X179839524Y-91812476D01*
X179825548Y-91795445D01*
X179815160Y-91776009D01*
X179808764Y-91754928D01*
X179806000Y-91726860D01*
X179806000Y-91263140D01*
X179808764Y-91235072D01*
X179815160Y-91213991D01*
X179825548Y-91194555D01*
X179839524Y-91177524D01*
X179856555Y-91163548D01*
X179875991Y-91153160D01*
X179897072Y-91146764D01*
X179925140Y-91144000D01*
X181738860Y-91144000D01*
X181766928Y-91146764D01*
G37*
G36*
X176816928Y-91146764D02*
G01*
X176838009Y-91153160D01*
X176857445Y-91163548D01*
X176874476Y-91177524D01*
X176888452Y-91194555D01*
X176898840Y-91213991D01*
X176905236Y-91235072D01*
X176908000Y-91263140D01*
X176908000Y-91726860D01*
X176905236Y-91754928D01*
X176898840Y-91776009D01*
X176888452Y-91795445D01*
X176874476Y-91812476D01*
X176857445Y-91826452D01*
X176838009Y-91836840D01*
X176816928Y-91843236D01*
X176788860Y-91846000D01*
X174975140Y-91846000D01*
X174947072Y-91843236D01*
X174925991Y-91836840D01*
X174906555Y-91826452D01*
X174889524Y-91812476D01*
X174875548Y-91795445D01*
X174865160Y-91776009D01*
X174858764Y-91754928D01*
X174856000Y-91726860D01*
X174856000Y-91263140D01*
X174858764Y-91235072D01*
X174865160Y-91213991D01*
X174875548Y-91194555D01*
X174889524Y-91177524D01*
X174906555Y-91163548D01*
X174925991Y-91153160D01*
X174947072Y-91146764D01*
X174975140Y-91144000D01*
X176788860Y-91144000D01*
X176816928Y-91146764D01*
G37*
G36*
X198645674Y-90043465D02*
G01*
X198683367Y-90054899D01*
X198718103Y-90073466D01*
X198748548Y-90098452D01*
X198773534Y-90128897D01*
X198792101Y-90163633D01*
X198803535Y-90201326D01*
X198808000Y-90246661D01*
X198808000Y-91333339D01*
X198803535Y-91378674D01*
X198792101Y-91416367D01*
X198773534Y-91451103D01*
X198748548Y-91481548D01*
X198718103Y-91506534D01*
X198683367Y-91525101D01*
X198645674Y-91536535D01*
X198600339Y-91541000D01*
X197763661Y-91541000D01*
X197718326Y-91536535D01*
X197680633Y-91525101D01*
X197645897Y-91506534D01*
X197615452Y-91481548D01*
X197590466Y-91451103D01*
X197571899Y-91416367D01*
X197560465Y-91378674D01*
X197556000Y-91333339D01*
X197556000Y-90246661D01*
X197560465Y-90201326D01*
X197571899Y-90163633D01*
X197590466Y-90128897D01*
X197615452Y-90098452D01*
X197645897Y-90073466D01*
X197680633Y-90054899D01*
X197718326Y-90043465D01*
X197763661Y-90039000D01*
X198600339Y-90039000D01*
X198645674Y-90043465D01*
G37*
G36*
X200695674Y-90043465D02*
G01*
X200733367Y-90054899D01*
X200768103Y-90073466D01*
X200798548Y-90098452D01*
X200823534Y-90128897D01*
X200842101Y-90163633D01*
X200853535Y-90201326D01*
X200858000Y-90246661D01*
X200858000Y-91333339D01*
X200853535Y-91378674D01*
X200842101Y-91416367D01*
X200823534Y-91451103D01*
X200798548Y-91481548D01*
X200768103Y-91506534D01*
X200733367Y-91525101D01*
X200695674Y-91536535D01*
X200650339Y-91541000D01*
X199813661Y-91541000D01*
X199768326Y-91536535D01*
X199730633Y-91525101D01*
X199695897Y-91506534D01*
X199665452Y-91481548D01*
X199640466Y-91451103D01*
X199621899Y-91416367D01*
X199610465Y-91378674D01*
X199606000Y-91333339D01*
X199606000Y-90246661D01*
X199610465Y-90201326D01*
X199621899Y-90163633D01*
X199640466Y-90128897D01*
X199665452Y-90098452D01*
X199695897Y-90073466D01*
X199730633Y-90054899D01*
X199768326Y-90043465D01*
X199813661Y-90039000D01*
X200650339Y-90039000D01*
X200695674Y-90043465D01*
G37*
G36*
X193895674Y-90043465D02*
G01*
X193933367Y-90054899D01*
X193968103Y-90073466D01*
X193998548Y-90098452D01*
X194023534Y-90128897D01*
X194042101Y-90163633D01*
X194053535Y-90201326D01*
X194058000Y-90246661D01*
X194058000Y-91333339D01*
X194053535Y-91378674D01*
X194042101Y-91416367D01*
X194023534Y-91451103D01*
X193998548Y-91481548D01*
X193968103Y-91506534D01*
X193933367Y-91525101D01*
X193895674Y-91536535D01*
X193850339Y-91541000D01*
X193013661Y-91541000D01*
X192968326Y-91536535D01*
X192930633Y-91525101D01*
X192895897Y-91506534D01*
X192865452Y-91481548D01*
X192840466Y-91451103D01*
X192821899Y-91416367D01*
X192810465Y-91378674D01*
X192806000Y-91333339D01*
X192806000Y-90246661D01*
X192810465Y-90201326D01*
X192821899Y-90163633D01*
X192840466Y-90128897D01*
X192865452Y-90098452D01*
X192895897Y-90073466D01*
X192930633Y-90054899D01*
X192968326Y-90043465D01*
X193013661Y-90039000D01*
X193850339Y-90039000D01*
X193895674Y-90043465D01*
G37*
G36*
X195945674Y-90043465D02*
G01*
X195983367Y-90054899D01*
X196018103Y-90073466D01*
X196048548Y-90098452D01*
X196073534Y-90128897D01*
X196092101Y-90163633D01*
X196103535Y-90201326D01*
X196108000Y-90246661D01*
X196108000Y-91333339D01*
X196103535Y-91378674D01*
X196092101Y-91416367D01*
X196073534Y-91451103D01*
X196048548Y-91481548D01*
X196018103Y-91506534D01*
X195983367Y-91525101D01*
X195945674Y-91536535D01*
X195900339Y-91541000D01*
X195063661Y-91541000D01*
X195018326Y-91536535D01*
X194980633Y-91525101D01*
X194945897Y-91506534D01*
X194915452Y-91481548D01*
X194890466Y-91451103D01*
X194871899Y-91416367D01*
X194860465Y-91378674D01*
X194856000Y-91333339D01*
X194856000Y-90246661D01*
X194860465Y-90201326D01*
X194871899Y-90163633D01*
X194890466Y-90128897D01*
X194915452Y-90098452D01*
X194945897Y-90073466D01*
X194980633Y-90054899D01*
X195018326Y-90043465D01*
X195063661Y-90039000D01*
X195900339Y-90039000D01*
X195945674Y-90043465D01*
G37*
G36*
X176816928Y-89876764D02*
G01*
X176838009Y-89883160D01*
X176857445Y-89893548D01*
X176874476Y-89907524D01*
X176888452Y-89924555D01*
X176898840Y-89943991D01*
X176905236Y-89965072D01*
X176908000Y-89993140D01*
X176908000Y-90456860D01*
X176905236Y-90484928D01*
X176898840Y-90506009D01*
X176888452Y-90525445D01*
X176874476Y-90542476D01*
X176857445Y-90556452D01*
X176838009Y-90566840D01*
X176816928Y-90573236D01*
X176788860Y-90576000D01*
X174975140Y-90576000D01*
X174947072Y-90573236D01*
X174925991Y-90566840D01*
X174906555Y-90556452D01*
X174889524Y-90542476D01*
X174875548Y-90525445D01*
X174865160Y-90506009D01*
X174858764Y-90484928D01*
X174856000Y-90456860D01*
X174856000Y-89993140D01*
X174858764Y-89965072D01*
X174865160Y-89943991D01*
X174875548Y-89924555D01*
X174889524Y-89907524D01*
X174906555Y-89893548D01*
X174925991Y-89883160D01*
X174947072Y-89876764D01*
X174975140Y-89874000D01*
X176788860Y-89874000D01*
X176816928Y-89876764D01*
G37*
G36*
X181766928Y-89876764D02*
G01*
X181788009Y-89883160D01*
X181807445Y-89893548D01*
X181824476Y-89907524D01*
X181838452Y-89924555D01*
X181848840Y-89943991D01*
X181855236Y-89965072D01*
X181858000Y-89993140D01*
X181858000Y-90456860D01*
X181855236Y-90484928D01*
X181848840Y-90506009D01*
X181838452Y-90525445D01*
X181824476Y-90542476D01*
X181807445Y-90556452D01*
X181788009Y-90566840D01*
X181766928Y-90573236D01*
X181738860Y-90576000D01*
X179925140Y-90576000D01*
X179897072Y-90573236D01*
X179875991Y-90566840D01*
X179856555Y-90556452D01*
X179839524Y-90542476D01*
X179825548Y-90525445D01*
X179815160Y-90506009D01*
X179808764Y-90484928D01*
X179806000Y-90456860D01*
X179806000Y-89993140D01*
X179808764Y-89965072D01*
X179815160Y-89943991D01*
X179825548Y-89924555D01*
X179839524Y-89907524D01*
X179856555Y-89893548D01*
X179875991Y-89883160D01*
X179897072Y-89876764D01*
X179925140Y-89874000D01*
X181738860Y-89874000D01*
X181766928Y-89876764D01*
G37*
G36*
X189073000Y-89500000D02*
G01*
X187371000Y-89500000D01*
X187371000Y-87398000D01*
X189073000Y-87398000D01*
X189073000Y-89500000D01*
G37*
G36*
X185009000Y-89500000D02*
G01*
X183307000Y-89500000D01*
X183307000Y-87398000D01*
X185009000Y-87398000D01*
X185009000Y-89500000D01*
G37*
G36*
X176816928Y-88606764D02*
G01*
X176838009Y-88613160D01*
X176857445Y-88623548D01*
X176874476Y-88637524D01*
X176888452Y-88654555D01*
X176898840Y-88673991D01*
X176905236Y-88695072D01*
X176908000Y-88723140D01*
X176908000Y-89186860D01*
X176905236Y-89214928D01*
X176898840Y-89236009D01*
X176888452Y-89255445D01*
X176874476Y-89272476D01*
X176857445Y-89286452D01*
X176838009Y-89296840D01*
X176816928Y-89303236D01*
X176788860Y-89306000D01*
X174975140Y-89306000D01*
X174947072Y-89303236D01*
X174925991Y-89296840D01*
X174906555Y-89286452D01*
X174889524Y-89272476D01*
X174875548Y-89255445D01*
X174865160Y-89236009D01*
X174858764Y-89214928D01*
X174856000Y-89186860D01*
X174856000Y-88723140D01*
X174858764Y-88695072D01*
X174865160Y-88673991D01*
X174875548Y-88654555D01*
X174889524Y-88637524D01*
X174906555Y-88623548D01*
X174925991Y-88613160D01*
X174947072Y-88606764D01*
X174975140Y-88604000D01*
X176788860Y-88604000D01*
X176816928Y-88606764D01*
G37*
G36*
X181766928Y-88606764D02*
G01*
X181788009Y-88613160D01*
X181807445Y-88623548D01*
X181824476Y-88637524D01*
X181838452Y-88654555D01*
X181848840Y-88673991D01*
X181855236Y-88695072D01*
X181858000Y-88723140D01*
X181858000Y-89186860D01*
X181855236Y-89214928D01*
X181848840Y-89236009D01*
X181838452Y-89255445D01*
X181824476Y-89272476D01*
X181807445Y-89286452D01*
X181788009Y-89296840D01*
X181766928Y-89303236D01*
X181738860Y-89306000D01*
X179925140Y-89306000D01*
X179897072Y-89303236D01*
X179875991Y-89296840D01*
X179856555Y-89286452D01*
X179839524Y-89272476D01*
X179825548Y-89255445D01*
X179815160Y-89236009D01*
X179808764Y-89214928D01*
X179806000Y-89186860D01*
X179806000Y-88723140D01*
X179808764Y-88695072D01*
X179815160Y-88673991D01*
X179825548Y-88654555D01*
X179839524Y-88637524D01*
X179856555Y-88623548D01*
X179875991Y-88613160D01*
X179897072Y-88606764D01*
X179925140Y-88604000D01*
X181738860Y-88604000D01*
X181766928Y-88606764D01*
G37*
G36*
X191605674Y-87093465D02*
G01*
X191643367Y-87104899D01*
X191678103Y-87123466D01*
X191708548Y-87148452D01*
X191733534Y-87178897D01*
X191752101Y-87213633D01*
X191763535Y-87251326D01*
X191768000Y-87296661D01*
X191768000Y-88383339D01*
X191763535Y-88428674D01*
X191752101Y-88466367D01*
X191733534Y-88501103D01*
X191708548Y-88531548D01*
X191678103Y-88556534D01*
X191643367Y-88575101D01*
X191605674Y-88586535D01*
X191560339Y-88591000D01*
X190723661Y-88591000D01*
X190678326Y-88586535D01*
X190640633Y-88575101D01*
X190605897Y-88556534D01*
X190575452Y-88531548D01*
X190550466Y-88501103D01*
X190531899Y-88466367D01*
X190520465Y-88428674D01*
X190516000Y-88383339D01*
X190516000Y-87296661D01*
X190520465Y-87251326D01*
X190531899Y-87213633D01*
X190550466Y-87178897D01*
X190575452Y-87148452D01*
X190605897Y-87123466D01*
X190640633Y-87104899D01*
X190678326Y-87093465D01*
X190723661Y-87089000D01*
X191560339Y-87089000D01*
X191605674Y-87093465D01*
G37*
G36*
X193655674Y-87093465D02*
G01*
X193693367Y-87104899D01*
X193728103Y-87123466D01*
X193758548Y-87148452D01*
X193783534Y-87178897D01*
X193802101Y-87213633D01*
X193813535Y-87251326D01*
X193818000Y-87296661D01*
X193818000Y-88383339D01*
X193813535Y-88428674D01*
X193802101Y-88466367D01*
X193783534Y-88501103D01*
X193758548Y-88531548D01*
X193728103Y-88556534D01*
X193693367Y-88575101D01*
X193655674Y-88586535D01*
X193610339Y-88591000D01*
X192773661Y-88591000D01*
X192728326Y-88586535D01*
X192690633Y-88575101D01*
X192655897Y-88556534D01*
X192625452Y-88531548D01*
X192600466Y-88501103D01*
X192581899Y-88466367D01*
X192570465Y-88428674D01*
X192566000Y-88383339D01*
X192566000Y-87296661D01*
X192570465Y-87251326D01*
X192581899Y-87213633D01*
X192600466Y-87178897D01*
X192625452Y-87148452D01*
X192655897Y-87123466D01*
X192690633Y-87104899D01*
X192728326Y-87093465D01*
X192773661Y-87089000D01*
X193610339Y-87089000D01*
X193655674Y-87093465D01*
G37*
G36*
X196355674Y-87093465D02*
G01*
X196393367Y-87104899D01*
X196428103Y-87123466D01*
X196458548Y-87148452D01*
X196483534Y-87178897D01*
X196502101Y-87213633D01*
X196513535Y-87251326D01*
X196518000Y-87296661D01*
X196518000Y-88383339D01*
X196513535Y-88428674D01*
X196502101Y-88466367D01*
X196483534Y-88501103D01*
X196458548Y-88531548D01*
X196428103Y-88556534D01*
X196393367Y-88575101D01*
X196355674Y-88586535D01*
X196310339Y-88591000D01*
X195473661Y-88591000D01*
X195428326Y-88586535D01*
X195390633Y-88575101D01*
X195355897Y-88556534D01*
X195325452Y-88531548D01*
X195300466Y-88501103D01*
X195281899Y-88466367D01*
X195270465Y-88428674D01*
X195266000Y-88383339D01*
X195266000Y-87296661D01*
X195270465Y-87251326D01*
X195281899Y-87213633D01*
X195300466Y-87178897D01*
X195325452Y-87148452D01*
X195355897Y-87123466D01*
X195390633Y-87104899D01*
X195428326Y-87093465D01*
X195473661Y-87089000D01*
X196310339Y-87089000D01*
X196355674Y-87093465D01*
G37*
G36*
X198405674Y-87093465D02*
G01*
X198443367Y-87104899D01*
X198478103Y-87123466D01*
X198508548Y-87148452D01*
X198533534Y-87178897D01*
X198552101Y-87213633D01*
X198563535Y-87251326D01*
X198568000Y-87296661D01*
X198568000Y-88383339D01*
X198563535Y-88428674D01*
X198552101Y-88466367D01*
X198533534Y-88501103D01*
X198508548Y-88531548D01*
X198478103Y-88556534D01*
X198443367Y-88575101D01*
X198405674Y-88586535D01*
X198360339Y-88591000D01*
X197523661Y-88591000D01*
X197478326Y-88586535D01*
X197440633Y-88575101D01*
X197405897Y-88556534D01*
X197375452Y-88531548D01*
X197350466Y-88501103D01*
X197331899Y-88466367D01*
X197320465Y-88428674D01*
X197316000Y-88383339D01*
X197316000Y-87296661D01*
X197320465Y-87251326D01*
X197331899Y-87213633D01*
X197350466Y-87178897D01*
X197375452Y-87148452D01*
X197405897Y-87123466D01*
X197440633Y-87104899D01*
X197478326Y-87093465D01*
X197523661Y-87089000D01*
X198360339Y-87089000D01*
X198405674Y-87093465D01*
G37*
G36*
X176816928Y-87336764D02*
G01*
X176838009Y-87343160D01*
X176857445Y-87353548D01*
X176874476Y-87367524D01*
X176888452Y-87384555D01*
X176898840Y-87403991D01*
X176905236Y-87425072D01*
X176908000Y-87453140D01*
X176908000Y-87916860D01*
X176905236Y-87944928D01*
X176898840Y-87966009D01*
X176888452Y-87985445D01*
X176874476Y-88002476D01*
X176857445Y-88016452D01*
X176838009Y-88026840D01*
X176816928Y-88033236D01*
X176788860Y-88036000D01*
X174975140Y-88036000D01*
X174947072Y-88033236D01*
X174925991Y-88026840D01*
X174906555Y-88016452D01*
X174889524Y-88002476D01*
X174875548Y-87985445D01*
X174865160Y-87966009D01*
X174858764Y-87944928D01*
X174856000Y-87916860D01*
X174856000Y-87453140D01*
X174858764Y-87425072D01*
X174865160Y-87403991D01*
X174875548Y-87384555D01*
X174889524Y-87367524D01*
X174906555Y-87353548D01*
X174925991Y-87343160D01*
X174947072Y-87336764D01*
X174975140Y-87334000D01*
X176788860Y-87334000D01*
X176816928Y-87336764D01*
G37*
G36*
X181766928Y-87336764D02*
G01*
X181788009Y-87343160D01*
X181807445Y-87353548D01*
X181824476Y-87367524D01*
X181838452Y-87384555D01*
X181848840Y-87403991D01*
X181855236Y-87425072D01*
X181858000Y-87453140D01*
X181858000Y-87916860D01*
X181855236Y-87944928D01*
X181848840Y-87966009D01*
X181838452Y-87985445D01*
X181824476Y-88002476D01*
X181807445Y-88016452D01*
X181788009Y-88026840D01*
X181766928Y-88033236D01*
X181738860Y-88036000D01*
X179925140Y-88036000D01*
X179897072Y-88033236D01*
X179875991Y-88026840D01*
X179856555Y-88016452D01*
X179839524Y-88002476D01*
X179825548Y-87985445D01*
X179815160Y-87966009D01*
X179808764Y-87944928D01*
X179806000Y-87916860D01*
X179806000Y-87453140D01*
X179808764Y-87425072D01*
X179815160Y-87403991D01*
X179825548Y-87384555D01*
X179839524Y-87367524D01*
X179856555Y-87353548D01*
X179875991Y-87343160D01*
X179897072Y-87336764D01*
X179925140Y-87334000D01*
X181738860Y-87334000D01*
X181766928Y-87336764D01*
G37*
G36*
X209878791Y-84948585D02*
G01*
X209912769Y-84958893D01*
X209944090Y-84975634D01*
X209971539Y-84998161D01*
X209994066Y-85025610D01*
X210010807Y-85056931D01*
X210021115Y-85090909D01*
X210025200Y-85132390D01*
X210025200Y-85733610D01*
X210021115Y-85775091D01*
X210010807Y-85809069D01*
X209994066Y-85840390D01*
X209971539Y-85867839D01*
X209944090Y-85890366D01*
X209912769Y-85907107D01*
X209878791Y-85917415D01*
X209837310Y-85921500D01*
X209161090Y-85921500D01*
X209119609Y-85917415D01*
X209085631Y-85907107D01*
X209054310Y-85890366D01*
X209026861Y-85867839D01*
X209004334Y-85840390D01*
X208987593Y-85809069D01*
X208977285Y-85775091D01*
X208973200Y-85733610D01*
X208973200Y-85132390D01*
X208977285Y-85090909D01*
X208987593Y-85056931D01*
X209004334Y-85025610D01*
X209026861Y-84998161D01*
X209054310Y-84975634D01*
X209085631Y-84958893D01*
X209119609Y-84948585D01*
X209161090Y-84944500D01*
X209837310Y-84944500D01*
X209878791Y-84948585D01*
G37*
G36*
X209878791Y-83373585D02*
G01*
X209912769Y-83383893D01*
X209944090Y-83400634D01*
X209971539Y-83423161D01*
X209994066Y-83450610D01*
X210010807Y-83481931D01*
X210021115Y-83515909D01*
X210025200Y-83557390D01*
X210025200Y-84158610D01*
X210021115Y-84200091D01*
X210010807Y-84234069D01*
X209994066Y-84265390D01*
X209971539Y-84292839D01*
X209944090Y-84315366D01*
X209912769Y-84332107D01*
X209878791Y-84342415D01*
X209837310Y-84346500D01*
X209161090Y-84346500D01*
X209119609Y-84342415D01*
X209085631Y-84332107D01*
X209054310Y-84315366D01*
X209026861Y-84292839D01*
X209004334Y-84265390D01*
X208987593Y-84234069D01*
X208977285Y-84200091D01*
X208973200Y-84158610D01*
X208973200Y-83557390D01*
X208977285Y-83515909D01*
X208987593Y-83481931D01*
X209004334Y-83450610D01*
X209026861Y-83423161D01*
X209054310Y-83400634D01*
X209085631Y-83383893D01*
X209119609Y-83373585D01*
X209161090Y-83369500D01*
X209837310Y-83369500D01*
X209878791Y-83373585D01*
G37*
G36*
X173034103Y-80737475D02*
G01*
X173261771Y-80831778D01*
X173466666Y-80968685D01*
X173640915Y-81142934D01*
X173688804Y-81214605D01*
X173777823Y-81347831D01*
X173872125Y-81575497D01*
X173920200Y-81817186D01*
X173920200Y-82063614D01*
X173898036Y-82175038D01*
X173872125Y-82305303D01*
X173777822Y-82532971D01*
X173640915Y-82737866D01*
X173466666Y-82912115D01*
X173261771Y-83049022D01*
X173261770Y-83049023D01*
X173261769Y-83049023D01*
X173034103Y-83143325D01*
X172792414Y-83191400D01*
X172545986Y-83191400D01*
X172304297Y-83143325D01*
X172076631Y-83049023D01*
X172076630Y-83049023D01*
X172076629Y-83049022D01*
X171871734Y-82912115D01*
X171697485Y-82737866D01*
X171560578Y-82532971D01*
X171466275Y-82305303D01*
X171440364Y-82175038D01*
X171418200Y-82063614D01*
X171418200Y-81817186D01*
X171466275Y-81575497D01*
X171560577Y-81347831D01*
X171649596Y-81214605D01*
X171697485Y-81142934D01*
X171871734Y-80968685D01*
X172076629Y-80831778D01*
X172304297Y-80737475D01*
X172545986Y-80689400D01*
X172792414Y-80689400D01*
X173034103Y-80737475D01*
G37*
G36*
X147634103Y-80737475D02*
G01*
X147861771Y-80831778D01*
X148066666Y-80968685D01*
X148240915Y-81142934D01*
X148288804Y-81214605D01*
X148377823Y-81347831D01*
X148472125Y-81575497D01*
X148520200Y-81817186D01*
X148520200Y-82063614D01*
X148498036Y-82175038D01*
X148472125Y-82305303D01*
X148377822Y-82532971D01*
X148240915Y-82737866D01*
X148066666Y-82912115D01*
X147861771Y-83049022D01*
X147861770Y-83049023D01*
X147861769Y-83049023D01*
X147634103Y-83143325D01*
X147392414Y-83191400D01*
X147145986Y-83191400D01*
X146904297Y-83143325D01*
X146676631Y-83049023D01*
X146676630Y-83049023D01*
X146676629Y-83049022D01*
X146471734Y-82912115D01*
X146297485Y-82737866D01*
X146160578Y-82532971D01*
X146066275Y-82305303D01*
X146040364Y-82175038D01*
X146018200Y-82063614D01*
X146018200Y-81817186D01*
X146066275Y-81575497D01*
X146160577Y-81347831D01*
X146249596Y-81214605D01*
X146297485Y-81142934D01*
X146471734Y-80968685D01*
X146676629Y-80831778D01*
X146904297Y-80737475D01*
X147145986Y-80689400D01*
X147392414Y-80689400D01*
X147634103Y-80737475D01*
G37*
G36*
X210087874Y-81048465D02*
G01*
X210125567Y-81059899D01*
X210160303Y-81078466D01*
X210190748Y-81103452D01*
X210215734Y-81133897D01*
X210234301Y-81168633D01*
X210245735Y-81206326D01*
X210250200Y-81251661D01*
X210250200Y-82088339D01*
X210245735Y-82133674D01*
X210234301Y-82171367D01*
X210215734Y-82206103D01*
X210190748Y-82236548D01*
X210160303Y-82261534D01*
X210125567Y-82280101D01*
X210087874Y-82291535D01*
X210042539Y-82296000D01*
X208955861Y-82296000D01*
X208910526Y-82291535D01*
X208872833Y-82280101D01*
X208838097Y-82261534D01*
X208807652Y-82236548D01*
X208782666Y-82206103D01*
X208764099Y-82171367D01*
X208752665Y-82133674D01*
X208748200Y-82088339D01*
X208748200Y-81251661D01*
X208752665Y-81206326D01*
X208764099Y-81168633D01*
X208782666Y-81133897D01*
X208807652Y-81103452D01*
X208838097Y-81078466D01*
X208872833Y-81059899D01*
X208910526Y-81048465D01*
X208955861Y-81044000D01*
X210042539Y-81044000D01*
X210087874Y-81048465D01*
G37*
G36*
X207547874Y-81048465D02*
G01*
X207585567Y-81059899D01*
X207620303Y-81078466D01*
X207650748Y-81103452D01*
X207675734Y-81133897D01*
X207694301Y-81168633D01*
X207705735Y-81206326D01*
X207710200Y-81251661D01*
X207710200Y-82088339D01*
X207705735Y-82133674D01*
X207694301Y-82171367D01*
X207675734Y-82206103D01*
X207650748Y-82236548D01*
X207620303Y-82261534D01*
X207585567Y-82280101D01*
X207547874Y-82291535D01*
X207502539Y-82296000D01*
X206415861Y-82296000D01*
X206370526Y-82291535D01*
X206332833Y-82280101D01*
X206298097Y-82261534D01*
X206267652Y-82236548D01*
X206242666Y-82206103D01*
X206224099Y-82171367D01*
X206212665Y-82133674D01*
X206208200Y-82088339D01*
X206208200Y-81251661D01*
X206212665Y-81206326D01*
X206224099Y-81168633D01*
X206242666Y-81133897D01*
X206267652Y-81103452D01*
X206298097Y-81078466D01*
X206332833Y-81059899D01*
X206370526Y-81048465D01*
X206415861Y-81044000D01*
X207502539Y-81044000D01*
X207547874Y-81048465D01*
G37*
G36*
X192859985Y-78704702D02*
G01*
X193009810Y-78734504D01*
X193292074Y-78851421D01*
X193546105Y-79021159D01*
X193762141Y-79237195D01*
X193931879Y-79491226D01*
X194048796Y-79773490D01*
X194048796Y-79773491D01*
X194088646Y-79973827D01*
X194108400Y-80073140D01*
X194108400Y-80378660D01*
X194048796Y-80678310D01*
X193931879Y-80960574D01*
X193762141Y-81214605D01*
X193546105Y-81430641D01*
X193292074Y-81600379D01*
X193009810Y-81717296D01*
X192859985Y-81747098D01*
X192710161Y-81776900D01*
X192404639Y-81776900D01*
X192254815Y-81747098D01*
X192104990Y-81717296D01*
X191822726Y-81600379D01*
X191568695Y-81430641D01*
X191352659Y-81214605D01*
X191182921Y-80960574D01*
X191066004Y-80678310D01*
X191006400Y-80378660D01*
X191006400Y-80073140D01*
X191026155Y-79973827D01*
X191066004Y-79773491D01*
X191066004Y-79773490D01*
X191182921Y-79491226D01*
X191352659Y-79237195D01*
X191568695Y-79021159D01*
X191822726Y-78851421D01*
X192104990Y-78734504D01*
X192254815Y-78704702D01*
X192404639Y-78674900D01*
X192710161Y-78674900D01*
X192859985Y-78704702D01*
G37*
G36*
X210087874Y-78998465D02*
G01*
X210125567Y-79009899D01*
X210160303Y-79028466D01*
X210190748Y-79053452D01*
X210215734Y-79083897D01*
X210234301Y-79118633D01*
X210245735Y-79156326D01*
X210250200Y-79201661D01*
X210250200Y-80038339D01*
X210245735Y-80083674D01*
X210234301Y-80121367D01*
X210215734Y-80156103D01*
X210190748Y-80186548D01*
X210160303Y-80211534D01*
X210125567Y-80230101D01*
X210087874Y-80241535D01*
X210042539Y-80246000D01*
X208955861Y-80246000D01*
X208910526Y-80241535D01*
X208872833Y-80230101D01*
X208838097Y-80211534D01*
X208807652Y-80186548D01*
X208782666Y-80156103D01*
X208764099Y-80121367D01*
X208752665Y-80083674D01*
X208748200Y-80038339D01*
X208748200Y-79201661D01*
X208752665Y-79156326D01*
X208764099Y-79118633D01*
X208782666Y-79083897D01*
X208807652Y-79053452D01*
X208838097Y-79028466D01*
X208872833Y-79009899D01*
X208910526Y-78998465D01*
X208955861Y-78994000D01*
X210042539Y-78994000D01*
X210087874Y-78998465D01*
G37*
G36*
X207547874Y-78998465D02*
G01*
X207585567Y-79009899D01*
X207620303Y-79028466D01*
X207650748Y-79053452D01*
X207675734Y-79083897D01*
X207694301Y-79118633D01*
X207705735Y-79156326D01*
X207710200Y-79201661D01*
X207710200Y-80038339D01*
X207705735Y-80083674D01*
X207694301Y-80121367D01*
X207675734Y-80156103D01*
X207650748Y-80186548D01*
X207620303Y-80211534D01*
X207585567Y-80230101D01*
X207547874Y-80241535D01*
X207502539Y-80246000D01*
X206415861Y-80246000D01*
X206370526Y-80241535D01*
X206332833Y-80230101D01*
X206298097Y-80211534D01*
X206267652Y-80186548D01*
X206242666Y-80156103D01*
X206224099Y-80121367D01*
X206212665Y-80083674D01*
X206208200Y-80038339D01*
X206208200Y-79201661D01*
X206212665Y-79156326D01*
X206224099Y-79118633D01*
X206242666Y-79083897D01*
X206267652Y-79053452D01*
X206298097Y-79028466D01*
X206332833Y-79009899D01*
X206370526Y-78998465D01*
X206415861Y-78994000D01*
X207502539Y-78994000D01*
X207547874Y-78998465D01*
G37*
G36*
X186986887Y-77024896D02*
G01*
X187223653Y-77122968D01*
X187223655Y-77122969D01*
X187436739Y-77265347D01*
X187617953Y-77446561D01*
X187760332Y-77659647D01*
X187858404Y-77896413D01*
X187908400Y-78147761D01*
X187908400Y-78404039D01*
X187858404Y-78655387D01*
X187777204Y-78851421D01*
X187760331Y-78892155D01*
X187617953Y-79105239D01*
X187436739Y-79286453D01*
X187223655Y-79428831D01*
X187223654Y-79428832D01*
X187223653Y-79428832D01*
X186986887Y-79526904D01*
X186735539Y-79576900D01*
X186479261Y-79576900D01*
X186227913Y-79526904D01*
X185991147Y-79428832D01*
X185991146Y-79428832D01*
X185991145Y-79428831D01*
X185778061Y-79286453D01*
X185596847Y-79105239D01*
X185454469Y-78892155D01*
X185437596Y-78851421D01*
X185356396Y-78655387D01*
X185306400Y-78404039D01*
X185306400Y-78147761D01*
X185356396Y-77896413D01*
X185454468Y-77659647D01*
X185596847Y-77446561D01*
X185778061Y-77265347D01*
X185991145Y-77122969D01*
X185991147Y-77122968D01*
X186227913Y-77024896D01*
X186479261Y-76974900D01*
X186735539Y-76974900D01*
X186986887Y-77024896D01*
G37*
G36*
X198986887Y-77024896D02*
G01*
X199223653Y-77122968D01*
X199223655Y-77122969D01*
X199436739Y-77265347D01*
X199617953Y-77446561D01*
X199760332Y-77659647D01*
X199858404Y-77896413D01*
X199908400Y-78147761D01*
X199908400Y-78404039D01*
X199858404Y-78655387D01*
X199777204Y-78851421D01*
X199760331Y-78892155D01*
X199617953Y-79105239D01*
X199436739Y-79286453D01*
X199223655Y-79428831D01*
X199223654Y-79428832D01*
X199223653Y-79428832D01*
X198986887Y-79526904D01*
X198735539Y-79576900D01*
X198479261Y-79576900D01*
X198227913Y-79526904D01*
X197991147Y-79428832D01*
X197991146Y-79428832D01*
X197991145Y-79428831D01*
X197778061Y-79286453D01*
X197596847Y-79105239D01*
X197454469Y-78892155D01*
X197437596Y-78851421D01*
X197356396Y-78655387D01*
X197306400Y-78404039D01*
X197306400Y-78147761D01*
X197356396Y-77896413D01*
X197454468Y-77659647D01*
X197596847Y-77446561D01*
X197778061Y-77265347D01*
X197991145Y-77122969D01*
X197991147Y-77122968D01*
X198227913Y-77024896D01*
X198479261Y-76974900D01*
X198735539Y-76974900D01*
X198986887Y-77024896D01*
G37*
G36*
X173034103Y-73625475D02*
G01*
X173261771Y-73719778D01*
X173466666Y-73856685D01*
X173640915Y-74030934D01*
X173777822Y-74235829D01*
X173872125Y-74463497D01*
X173920200Y-74705187D01*
X173920200Y-74951613D01*
X173872125Y-75193303D01*
X173777822Y-75420971D01*
X173640915Y-75625866D01*
X173466666Y-75800115D01*
X173261771Y-75937022D01*
X173261770Y-75937023D01*
X173261769Y-75937023D01*
X173034103Y-76031325D01*
X172792414Y-76079400D01*
X172545986Y-76079400D01*
X172304297Y-76031325D01*
X172076631Y-75937023D01*
X172076630Y-75937023D01*
X172076629Y-75937022D01*
X171871734Y-75800115D01*
X171697485Y-75625866D01*
X171560578Y-75420971D01*
X171466275Y-75193303D01*
X171418200Y-74951613D01*
X171418200Y-74705187D01*
X171466275Y-74463497D01*
X171560578Y-74235829D01*
X171697485Y-74030934D01*
X171871734Y-73856685D01*
X172076629Y-73719778D01*
X172304297Y-73625475D01*
X172545986Y-73577400D01*
X172792414Y-73577400D01*
X173034103Y-73625475D01*
G37*
G36*
X147634103Y-73625475D02*
G01*
X147861771Y-73719778D01*
X148066666Y-73856685D01*
X148240915Y-74030934D01*
X148377822Y-74235829D01*
X148472125Y-74463497D01*
X148520200Y-74705187D01*
X148520200Y-74951613D01*
X148472125Y-75193303D01*
X148377822Y-75420971D01*
X148240915Y-75625866D01*
X148066666Y-75800115D01*
X147861771Y-75937022D01*
X147861770Y-75937023D01*
X147861769Y-75937023D01*
X147634103Y-76031325D01*
X147392414Y-76079400D01*
X147145986Y-76079400D01*
X146904297Y-76031325D01*
X146676631Y-75937023D01*
X146676630Y-75937023D01*
X146676629Y-75937022D01*
X146471734Y-75800115D01*
X146297485Y-75625866D01*
X146160578Y-75420971D01*
X146066275Y-75193303D01*
X146018200Y-74951613D01*
X146018200Y-74705187D01*
X146066275Y-74463497D01*
X146160578Y-74235829D01*
X146297485Y-74030934D01*
X146471734Y-73856685D01*
X146676629Y-73719778D01*
X146904297Y-73625475D01*
X147145986Y-73577400D01*
X147392414Y-73577400D01*
X147634103Y-73625475D01*
G37*
G36*
X140095097Y-70309669D02*
G01*
X140198032Y-70319807D01*
X140396146Y-70379905D01*
X140396149Y-70379906D01*
X140492975Y-70431661D01*
X140578729Y-70477497D01*
X140738765Y-70608835D01*
X140870103Y-70768871D01*
X140915939Y-70854625D01*
X140967694Y-70951451D01*
X140967695Y-70951454D01*
X141027793Y-71149568D01*
X141048085Y-71355600D01*
X141027793Y-71561632D01*
X140967695Y-71759746D01*
X140967694Y-71759749D01*
X140915939Y-71856575D01*
X140870103Y-71942329D01*
X140738765Y-72102365D01*
X140578729Y-72233703D01*
X140492975Y-72279539D01*
X140396149Y-72331294D01*
X140396146Y-72331295D01*
X140198032Y-72391393D01*
X140095097Y-72401531D01*
X140043631Y-72406600D01*
X138340369Y-72406600D01*
X138288903Y-72401531D01*
X138185968Y-72391393D01*
X137987854Y-72331295D01*
X137987851Y-72331294D01*
X137891025Y-72279539D01*
X137805271Y-72233703D01*
X137645235Y-72102365D01*
X137513897Y-71942329D01*
X137468061Y-71856575D01*
X137416306Y-71759749D01*
X137416305Y-71759746D01*
X137356207Y-71561632D01*
X137335915Y-71355600D01*
X137356207Y-71149568D01*
X137416305Y-70951454D01*
X137416306Y-70951451D01*
X137468061Y-70854625D01*
X137513897Y-70768871D01*
X137645235Y-70608835D01*
X137805271Y-70477497D01*
X137891025Y-70431661D01*
X137987851Y-70379906D01*
X137987854Y-70379905D01*
X138185968Y-70319807D01*
X138288903Y-70309669D01*
X138340369Y-70304600D01*
X140043631Y-70304600D01*
X140095097Y-70309669D01*
G37*
G36*
X220827868Y-70075765D02*
G01*
X220866538Y-70087496D01*
X220902177Y-70106546D01*
X220933417Y-70132183D01*
X220959054Y-70163423D01*
X220978104Y-70199062D01*
X220989835Y-70237732D01*
X220994400Y-70284088D01*
X220994400Y-70935312D01*
X220989835Y-70981668D01*
X220978104Y-71020338D01*
X220959054Y-71055977D01*
X220933417Y-71087217D01*
X220902177Y-71112854D01*
X220866538Y-71131904D01*
X220827868Y-71143635D01*
X220781512Y-71148200D01*
X219705288Y-71148200D01*
X219658932Y-71143635D01*
X219620262Y-71131904D01*
X219584623Y-71112854D01*
X219553383Y-71087217D01*
X219527746Y-71055977D01*
X219508696Y-71020338D01*
X219496965Y-70981668D01*
X219492400Y-70935312D01*
X219492400Y-70284088D01*
X219496965Y-70237732D01*
X219508696Y-70199062D01*
X219527746Y-70163423D01*
X219553383Y-70132183D01*
X219584623Y-70106546D01*
X219620262Y-70087496D01*
X219658932Y-70075765D01*
X219705288Y-70071200D01*
X220781512Y-70071200D01*
X220827868Y-70075765D01*
G37*
G36*
X173820200Y-70543800D02*
G01*
X171518200Y-70543800D01*
X171518200Y-68241800D01*
X173820200Y-68241800D01*
X173820200Y-70543800D01*
G37*
G36*
X148420200Y-70543800D02*
G01*
X146118200Y-70543800D01*
X146118200Y-68241800D01*
X148420200Y-68241800D01*
X148420200Y-70543800D01*
G37*
G36*
X158580200Y-70543800D02*
G01*
X156278200Y-70543800D01*
X156278200Y-68241800D01*
X158580200Y-68241800D01*
X158580200Y-70543800D01*
G37*
G36*
X163660200Y-70543800D02*
G01*
X161358200Y-70543800D01*
X161358200Y-68241800D01*
X163660200Y-68241800D01*
X163660200Y-70543800D01*
G37*
G36*
X220827868Y-68200765D02*
G01*
X220866538Y-68212496D01*
X220902177Y-68231546D01*
X220933417Y-68257183D01*
X220959054Y-68288423D01*
X220978104Y-68324062D01*
X220989835Y-68362732D01*
X220994400Y-68409088D01*
X220994400Y-69060312D01*
X220989835Y-69106668D01*
X220978104Y-69145338D01*
X220959054Y-69180977D01*
X220933417Y-69212217D01*
X220902177Y-69237854D01*
X220866538Y-69256904D01*
X220827868Y-69268635D01*
X220781512Y-69273200D01*
X219705288Y-69273200D01*
X219658932Y-69268635D01*
X219620262Y-69256904D01*
X219584623Y-69237854D01*
X219553383Y-69212217D01*
X219527746Y-69180977D01*
X219508696Y-69145338D01*
X219496965Y-69106668D01*
X219492400Y-69060312D01*
X219492400Y-68409088D01*
X219496965Y-68362732D01*
X219508696Y-68324062D01*
X219527746Y-68288423D01*
X219553383Y-68257183D01*
X219584623Y-68231546D01*
X219620262Y-68212496D01*
X219658932Y-68200765D01*
X219705288Y-68196200D01*
X220781512Y-68196200D01*
X220827868Y-68200765D01*
G37*
G36*
X198864231Y-64545601D02*
G01*
X199059810Y-64584504D01*
X199342074Y-64701421D01*
X199596105Y-64871159D01*
X199812141Y-65087195D01*
X199981879Y-65341226D01*
X200082988Y-65585326D01*
X200098796Y-65623491D01*
X200148455Y-65873140D01*
X200158400Y-65923140D01*
X200158400Y-66228660D01*
X200098796Y-66528310D01*
X199981879Y-66810574D01*
X199812141Y-67064605D01*
X199596105Y-67280641D01*
X199342074Y-67450379D01*
X199059810Y-67567296D01*
X199011527Y-67576900D01*
X198760161Y-67626900D01*
X198454639Y-67626900D01*
X198203273Y-67576900D01*
X198154990Y-67567296D01*
X197872726Y-67450379D01*
X197618695Y-67280641D01*
X197402659Y-67064605D01*
X197232921Y-66810574D01*
X197116004Y-66528310D01*
X197056400Y-66228660D01*
X197056400Y-65923140D01*
X197066346Y-65873140D01*
X197116004Y-65623491D01*
X197131812Y-65585326D01*
X197232921Y-65341226D01*
X197402659Y-65087195D01*
X197618695Y-64871159D01*
X197872726Y-64701421D01*
X198154990Y-64584504D01*
X198350569Y-64545601D01*
X198454639Y-64524900D01*
X198760161Y-64524900D01*
X198864231Y-64545601D01*
G37*
G36*
X186856647Y-64504038D02*
G01*
X187009810Y-64534504D01*
X187292074Y-64651421D01*
X187546105Y-64821159D01*
X187762141Y-65037195D01*
X187931879Y-65291226D01*
X188048796Y-65573490D01*
X188058742Y-65623491D01*
X188108400Y-65873139D01*
X188108400Y-66178661D01*
X188098454Y-66228661D01*
X188048796Y-66478310D01*
X187931879Y-66760574D01*
X187762141Y-67014605D01*
X187546105Y-67230641D01*
X187292074Y-67400379D01*
X187009810Y-67517296D01*
X186859985Y-67547098D01*
X186710161Y-67576900D01*
X186404639Y-67576900D01*
X186254815Y-67547098D01*
X186104990Y-67517296D01*
X185822726Y-67400379D01*
X185568695Y-67230641D01*
X185352659Y-67014605D01*
X185182921Y-66760574D01*
X185066004Y-66478310D01*
X185016346Y-66228661D01*
X185006400Y-66178661D01*
X185006400Y-65873139D01*
X185056058Y-65623491D01*
X185066004Y-65573490D01*
X185182921Y-65291226D01*
X185352659Y-65037195D01*
X185568695Y-64821159D01*
X185822726Y-64651421D01*
X186104990Y-64534504D01*
X186258153Y-64504038D01*
X186404639Y-64474900D01*
X186710161Y-64474900D01*
X186856647Y-64504038D01*
G37*
G36*
X212627874Y-65427465D02*
G01*
X212665567Y-65438899D01*
X212700303Y-65457466D01*
X212730748Y-65482452D01*
X212755734Y-65512897D01*
X212774301Y-65547633D01*
X212785735Y-65585326D01*
X212790200Y-65630661D01*
X212790200Y-66467339D01*
X212785735Y-66512674D01*
X212774301Y-66550367D01*
X212755734Y-66585103D01*
X212730748Y-66615548D01*
X212700303Y-66640534D01*
X212665567Y-66659101D01*
X212627874Y-66670535D01*
X212582539Y-66675000D01*
X211495861Y-66675000D01*
X211450526Y-66670535D01*
X211412833Y-66659101D01*
X211378097Y-66640534D01*
X211347652Y-66615548D01*
X211322666Y-66585103D01*
X211304099Y-66550367D01*
X211292665Y-66512674D01*
X211288200Y-66467339D01*
X211288200Y-65630661D01*
X211292665Y-65585326D01*
X211304099Y-65547633D01*
X211322666Y-65512897D01*
X211347652Y-65482452D01*
X211378097Y-65457466D01*
X211412833Y-65438899D01*
X211450526Y-65427465D01*
X211495861Y-65423000D01*
X212582539Y-65423000D01*
X212627874Y-65427465D01*
G37*
G36*
X205007874Y-65427465D02*
G01*
X205045567Y-65438899D01*
X205080303Y-65457466D01*
X205110748Y-65482452D01*
X205135734Y-65512897D01*
X205154301Y-65547633D01*
X205165735Y-65585326D01*
X205170200Y-65630661D01*
X205170200Y-66467339D01*
X205165735Y-66512674D01*
X205154301Y-66550367D01*
X205135734Y-66585103D01*
X205110748Y-66615548D01*
X205080303Y-66640534D01*
X205045567Y-66659101D01*
X205007874Y-66670535D01*
X204962539Y-66675000D01*
X203875861Y-66675000D01*
X203830526Y-66670535D01*
X203792833Y-66659101D01*
X203758097Y-66640534D01*
X203727652Y-66615548D01*
X203702666Y-66585103D01*
X203684099Y-66550367D01*
X203672665Y-66512674D01*
X203668200Y-66467339D01*
X203668200Y-65630661D01*
X203672665Y-65585326D01*
X203684099Y-65547633D01*
X203702666Y-65512897D01*
X203727652Y-65482452D01*
X203758097Y-65457466D01*
X203792833Y-65438899D01*
X203830526Y-65427465D01*
X203875861Y-65423000D01*
X204962539Y-65423000D01*
X205007874Y-65427465D01*
G37*
G36*
X183163874Y-65363965D02*
G01*
X183201567Y-65375399D01*
X183236303Y-65393966D01*
X183266748Y-65418952D01*
X183291734Y-65449397D01*
X183310301Y-65484133D01*
X183321735Y-65521826D01*
X183326200Y-65567161D01*
X183326200Y-66403839D01*
X183321735Y-66449174D01*
X183310301Y-66486867D01*
X183291734Y-66521603D01*
X183266748Y-66552048D01*
X183236303Y-66577034D01*
X183201567Y-66595601D01*
X183163874Y-66607035D01*
X183118539Y-66611500D01*
X182031861Y-66611500D01*
X181986526Y-66607035D01*
X181948833Y-66595601D01*
X181914097Y-66577034D01*
X181883652Y-66552048D01*
X181858666Y-66521603D01*
X181840099Y-66486867D01*
X181828665Y-66449174D01*
X181824200Y-66403839D01*
X181824200Y-65567161D01*
X181828665Y-65521826D01*
X181840099Y-65484133D01*
X181858666Y-65449397D01*
X181883652Y-65418952D01*
X181914097Y-65393966D01*
X181948833Y-65375399D01*
X181986526Y-65363965D01*
X182031861Y-65359500D01*
X183118539Y-65359500D01*
X183163874Y-65363965D01*
G37*
G36*
X147634103Y-62474875D02*
G01*
X147861771Y-62569178D01*
X148066666Y-62706085D01*
X148240915Y-62880334D01*
X148377822Y-63085229D01*
X148472125Y-63312897D01*
X148520200Y-63554587D01*
X148520200Y-63801013D01*
X148472125Y-64042703D01*
X148377822Y-64270371D01*
X148240915Y-64475266D01*
X148066666Y-64649515D01*
X147861771Y-64786422D01*
X147861770Y-64786423D01*
X147861769Y-64786423D01*
X147634103Y-64880725D01*
X147392414Y-64928800D01*
X147145986Y-64928800D01*
X146904297Y-64880725D01*
X146676631Y-64786423D01*
X146676630Y-64786423D01*
X146676629Y-64786422D01*
X146471734Y-64649515D01*
X146297485Y-64475266D01*
X146160578Y-64270371D01*
X146066275Y-64042703D01*
X146018200Y-63801013D01*
X146018200Y-63554587D01*
X146066275Y-63312897D01*
X146160578Y-63085229D01*
X146297485Y-62880334D01*
X146471734Y-62706085D01*
X146676629Y-62569178D01*
X146904297Y-62474875D01*
X147145986Y-62426800D01*
X147392414Y-62426800D01*
X147634103Y-62474875D01*
G37*
G36*
X173034103Y-62474875D02*
G01*
X173261771Y-62569178D01*
X173466666Y-62706085D01*
X173640915Y-62880334D01*
X173777822Y-63085229D01*
X173872125Y-63312897D01*
X173920200Y-63554587D01*
X173920200Y-63801013D01*
X173872125Y-64042703D01*
X173777822Y-64270371D01*
X173640915Y-64475266D01*
X173466666Y-64649515D01*
X173261771Y-64786422D01*
X173261770Y-64786423D01*
X173261769Y-64786423D01*
X173034103Y-64880725D01*
X172792414Y-64928800D01*
X172545986Y-64928800D01*
X172304297Y-64880725D01*
X172076631Y-64786423D01*
X172076630Y-64786423D01*
X172076629Y-64786422D01*
X171871734Y-64649515D01*
X171697485Y-64475266D01*
X171560578Y-64270371D01*
X171466275Y-64042703D01*
X171418200Y-63801013D01*
X171418200Y-63554587D01*
X171466275Y-63312897D01*
X171560578Y-63085229D01*
X171697485Y-62880334D01*
X171871734Y-62706085D01*
X172076629Y-62569178D01*
X172304297Y-62474875D01*
X172545986Y-62426800D01*
X172792414Y-62426800D01*
X173034103Y-62474875D01*
G37*
G36*
X140906852Y-62808440D02*
G01*
X140938443Y-62818023D01*
X140967557Y-62833585D01*
X140993074Y-62854526D01*
X141014015Y-62880043D01*
X141029577Y-62909157D01*
X141039160Y-62940748D01*
X141043000Y-62979740D01*
X141043000Y-64731460D01*
X141039160Y-64770452D01*
X141029577Y-64802043D01*
X141014015Y-64831157D01*
X140993074Y-64856674D01*
X140967557Y-64877615D01*
X140938443Y-64893177D01*
X140906852Y-64902760D01*
X140867860Y-64906600D01*
X137516140Y-64906600D01*
X137477148Y-64902760D01*
X137445557Y-64893177D01*
X137416443Y-64877615D01*
X137390926Y-64856674D01*
X137369985Y-64831157D01*
X137354423Y-64802043D01*
X137344840Y-64770452D01*
X137341000Y-64731460D01*
X137341000Y-62979740D01*
X137344840Y-62940748D01*
X137354423Y-62909157D01*
X137369985Y-62880043D01*
X137390926Y-62854526D01*
X137416443Y-62833585D01*
X137445557Y-62818023D01*
X137477148Y-62808440D01*
X137516140Y-62804600D01*
X140867860Y-62804600D01*
X140906852Y-62808440D01*
G37*
G36*
X205007874Y-63377465D02*
G01*
X205045567Y-63388899D01*
X205080303Y-63407466D01*
X205110748Y-63432452D01*
X205135734Y-63462897D01*
X205154301Y-63497633D01*
X205165735Y-63535326D01*
X205170200Y-63580661D01*
X205170200Y-64417339D01*
X205165735Y-64462674D01*
X205154301Y-64500367D01*
X205135734Y-64535103D01*
X205110748Y-64565548D01*
X205080303Y-64590534D01*
X205045567Y-64609101D01*
X205007874Y-64620535D01*
X204962539Y-64625000D01*
X203875861Y-64625000D01*
X203830526Y-64620535D01*
X203792833Y-64609101D01*
X203758097Y-64590534D01*
X203727652Y-64565548D01*
X203702666Y-64535103D01*
X203684099Y-64500367D01*
X203672665Y-64462674D01*
X203668200Y-64417339D01*
X203668200Y-63580661D01*
X203672665Y-63535326D01*
X203684099Y-63497633D01*
X203702666Y-63462897D01*
X203727652Y-63432452D01*
X203758097Y-63407466D01*
X203792833Y-63388899D01*
X203830526Y-63377465D01*
X203875861Y-63373000D01*
X204962539Y-63373000D01*
X205007874Y-63377465D01*
G37*
G36*
X212627874Y-63377465D02*
G01*
X212665567Y-63388899D01*
X212700303Y-63407466D01*
X212730748Y-63432452D01*
X212755734Y-63462897D01*
X212774301Y-63497633D01*
X212785735Y-63535326D01*
X212790200Y-63580661D01*
X212790200Y-64417339D01*
X212785735Y-64462674D01*
X212774301Y-64500367D01*
X212755734Y-64535103D01*
X212730748Y-64565548D01*
X212700303Y-64590534D01*
X212665567Y-64609101D01*
X212627874Y-64620535D01*
X212582539Y-64625000D01*
X211495861Y-64625000D01*
X211450526Y-64620535D01*
X211412833Y-64609101D01*
X211378097Y-64590534D01*
X211347652Y-64565548D01*
X211322666Y-64535103D01*
X211304099Y-64500367D01*
X211292665Y-64462674D01*
X211288200Y-64417339D01*
X211288200Y-63580661D01*
X211292665Y-63535326D01*
X211304099Y-63497633D01*
X211322666Y-63462897D01*
X211347652Y-63432452D01*
X211378097Y-63407466D01*
X211412833Y-63388899D01*
X211450526Y-63377465D01*
X211495861Y-63373000D01*
X212582539Y-63373000D01*
X212627874Y-63377465D01*
G37*
G36*
X183163874Y-63313965D02*
G01*
X183201567Y-63325399D01*
X183236303Y-63343966D01*
X183266748Y-63368952D01*
X183291734Y-63399397D01*
X183310301Y-63434133D01*
X183321735Y-63471826D01*
X183326200Y-63517161D01*
X183326200Y-64353839D01*
X183321735Y-64399174D01*
X183310301Y-64436867D01*
X183291734Y-64471603D01*
X183266748Y-64502048D01*
X183236303Y-64527034D01*
X183201567Y-64545601D01*
X183163874Y-64557035D01*
X183118539Y-64561500D01*
X182031861Y-64561500D01*
X181986526Y-64557035D01*
X181948833Y-64545601D01*
X181914097Y-64527034D01*
X181883652Y-64502048D01*
X181858666Y-64471603D01*
X181840099Y-64436867D01*
X181828665Y-64399174D01*
X181824200Y-64353839D01*
X181824200Y-63517161D01*
X181828665Y-63471826D01*
X181840099Y-63434133D01*
X181858666Y-63399397D01*
X181883652Y-63368952D01*
X181914097Y-63343966D01*
X181948833Y-63325399D01*
X181986526Y-63313965D01*
X182031861Y-63309500D01*
X183118539Y-63309500D01*
X183163874Y-63313965D01*
G37*
G36*
X182954791Y-60945585D02*
G01*
X182988769Y-60955893D01*
X183020090Y-60972634D01*
X183047539Y-60995161D01*
X183070066Y-61022610D01*
X183086807Y-61053931D01*
X183097115Y-61087909D01*
X183101200Y-61129390D01*
X183101200Y-61730610D01*
X183097115Y-61772091D01*
X183086807Y-61806069D01*
X183070066Y-61837390D01*
X183047539Y-61864839D01*
X183020090Y-61887366D01*
X182988769Y-61904107D01*
X182954791Y-61914415D01*
X182913310Y-61918500D01*
X182237090Y-61918500D01*
X182195609Y-61914415D01*
X182161631Y-61904107D01*
X182130310Y-61887366D01*
X182102861Y-61864839D01*
X182080334Y-61837390D01*
X182063593Y-61806069D01*
X182053285Y-61772091D01*
X182049200Y-61730610D01*
X182049200Y-61129390D01*
X182053285Y-61087909D01*
X182063593Y-61053931D01*
X182080334Y-61022610D01*
X182102861Y-60995161D01*
X182130310Y-60972634D01*
X182161631Y-60955893D01*
X182195609Y-60945585D01*
X182237090Y-60941500D01*
X182913310Y-60941500D01*
X182954791Y-60945585D01*
G37*
G36*
X182954791Y-59370585D02*
G01*
X182988769Y-59380893D01*
X183020090Y-59397634D01*
X183047539Y-59420161D01*
X183070066Y-59447610D01*
X183086807Y-59478931D01*
X183097115Y-59512909D01*
X183101200Y-59554390D01*
X183101200Y-60155610D01*
X183097115Y-60197091D01*
X183086807Y-60231069D01*
X183070066Y-60262390D01*
X183047539Y-60289839D01*
X183020090Y-60312366D01*
X182988769Y-60329107D01*
X182954791Y-60339415D01*
X182913310Y-60343500D01*
X182237090Y-60343500D01*
X182195609Y-60339415D01*
X182161631Y-60329107D01*
X182130310Y-60312366D01*
X182102861Y-60289839D01*
X182080334Y-60262390D01*
X182063593Y-60231069D01*
X182053285Y-60197091D01*
X182049200Y-60155610D01*
X182049200Y-59554390D01*
X182053285Y-59512909D01*
X182063593Y-59478931D01*
X182080334Y-59447610D01*
X182102861Y-59420161D01*
X182130310Y-59397634D01*
X182161631Y-59380893D01*
X182195609Y-59370585D01*
X182237090Y-59366500D01*
X182913310Y-59366500D01*
X182954791Y-59370585D01*
G37*
G36*
X173034103Y-55362875D02*
G01*
X173261771Y-55457178D01*
X173466666Y-55594085D01*
X173640915Y-55768334D01*
X173777822Y-55973229D01*
X173872125Y-56200897D01*
X173920200Y-56442587D01*
X173920200Y-56689013D01*
X173872125Y-56930703D01*
X173777822Y-57158371D01*
X173640915Y-57363266D01*
X173466666Y-57537515D01*
X173261771Y-57674422D01*
X173261770Y-57674423D01*
X173261769Y-57674423D01*
X173034103Y-57768725D01*
X172792414Y-57816800D01*
X172545986Y-57816800D01*
X172304297Y-57768725D01*
X172076631Y-57674423D01*
X172076630Y-57674423D01*
X172076629Y-57674422D01*
X171871734Y-57537515D01*
X171697485Y-57363266D01*
X171560578Y-57158371D01*
X171466275Y-56930703D01*
X171418200Y-56689013D01*
X171418200Y-56442587D01*
X171466275Y-56200897D01*
X171560578Y-55973229D01*
X171697485Y-55768334D01*
X171871734Y-55594085D01*
X172076629Y-55457178D01*
X172304297Y-55362875D01*
X172545986Y-55314800D01*
X172792414Y-55314800D01*
X173034103Y-55362875D01*
G37*
G36*
X147634103Y-55362875D02*
G01*
X147861771Y-55457178D01*
X148066666Y-55594085D01*
X148240915Y-55768334D01*
X148377822Y-55973229D01*
X148472125Y-56200897D01*
X148520200Y-56442587D01*
X148520200Y-56689013D01*
X148472125Y-56930703D01*
X148377822Y-57158371D01*
X148240915Y-57363266D01*
X148066666Y-57537515D01*
X147861771Y-57674422D01*
X147861770Y-57674423D01*
X147861769Y-57674423D01*
X147634103Y-57768725D01*
X147392414Y-57816800D01*
X147145986Y-57816800D01*
X146904297Y-57768725D01*
X146676631Y-57674423D01*
X146676630Y-57674423D01*
X146676629Y-57674422D01*
X146471734Y-57537515D01*
X146297485Y-57363266D01*
X146160578Y-57158371D01*
X146066275Y-56930703D01*
X146018200Y-56689013D01*
X146018200Y-56442587D01*
X146066275Y-56200897D01*
X146160578Y-55973229D01*
X146297485Y-55768334D01*
X146471734Y-55594085D01*
X146676629Y-55457178D01*
X146904297Y-55362875D01*
X147145986Y-55314800D01*
X147392414Y-55314800D01*
X147634103Y-55362875D01*
G37*
M02*
