M48
; DRILL file {KiCad (5.1.5)-3} date 8/13/2020 2:13:30 PM
; FORMAT={-:-/ absolute / inch / decimal}
; #@! TF.CreationDate,2020-08-13T14:13:30-03:00
; #@! TF.GenerationSoftware,Kicad,Pcbnew,(5.1.5)-3
; #@! TF.FileFunction,Plated,1,2,PTH
FMAT,2
INCH
T1C0.0157
T2C0.0197
T3C0.0394
T4C0.0472
T5C0.0512
T6C0.0709
T7C0.1260
T8C0.1378
%
G90
G05
T1
X5.9073Y-5.5334
X5.9073Y-5.5834
X6.0Y-5.45
X6.045Y-5.45
X6.42Y-4.94
X6.42Y-4.99
X6.42Y-5.035
X6.42Y-5.0834
X6.42Y-5.14
X6.4223Y-4.5834
X6.465Y-5.14
X6.4673Y-4.5834
X6.47Y-4.99
X6.47Y-5.0834
X6.6Y-4.35
X6.6975Y-4.2975
X6.7Y-4.2
X6.93Y-3.94
X7.11Y-3.9
X7.385Y-4.285
X7.44Y-4.14
X7.47Y-3.635
X7.4723Y-2.9234
X7.5Y-3.845
X7.6325Y-2.93
X7.64Y-4.4945
X7.685Y-4.54
X7.7Y-3.845
X7.85Y-3.98
X7.85Y-4.03
X7.855Y-3.765
X7.9131Y-4.54
X7.93Y-4.37
X7.94Y-3.72
X7.94Y-3.77
X8.04Y-5.06
X8.05Y-2.7
X8.0673Y-5.6434
X8.1Y-2.7
X8.1173Y-5.6434
T2
X5.1728Y-2.1934
X5.2005Y-2.1266
X5.2005Y-2.2602
X5.2673Y-2.0989
X5.2673Y-2.2879
X5.3341Y-2.1266
X5.3341Y-2.2602
X5.3618Y-2.1934
X8.7128Y-5.7334
X8.7405Y-5.6666
X8.7405Y-5.8002
X8.8073Y-5.6389
X8.8073Y-5.8279
X8.8741Y-5.6666
X8.8741Y-5.8002
X8.9018Y-5.7334
X8.7128Y-2.1934
X8.7405Y-2.1266
X8.7405Y-2.2602
X8.8073Y-2.0989
X8.8073Y-2.2879
X8.8741Y-2.1266
X8.8741Y-2.2602
X8.9018Y-2.1934
X5.1728Y-5.7334
X5.2005Y-5.6666
X5.2005Y-5.8002
X5.2673Y-5.6389
X5.2673Y-5.8279
X5.3341Y-5.6666
X5.3341Y-5.8002
X5.3618Y-5.7334
T3
X5.7905Y-3.6952
X5.7905Y-4.1677
T4
X5.8073Y-2.5034
X6.8073Y-2.5034
X5.8073Y-3.2634
X6.8073Y-3.2634
X5.8073Y-2.9634
X6.8073Y-2.9634
X5.8073Y-2.2034
X6.8073Y-2.2034
T5
X5.2673Y-2.4734
X5.2673Y-2.6753
X6.1773Y-5.7334
X6.3792Y-5.7334
X6.8673Y-5.7334
X7.0673Y-5.7334
X7.2673Y-5.7334
X7.4673Y-5.7334
X5.3082Y-4.1696
X5.3102Y-3.6952
X5.8673Y-3.9334
T6
X5.1373Y-2.4734
X5.1373Y-2.6754
X6.1773Y-5.8634
X6.3793Y-5.8634
X6.8673Y-5.8584
X7.0673Y-5.8584
X7.2673Y-5.8584
X7.4673Y-5.8584
T7
X5.2673Y-2.1934
X8.8073Y-5.7334
X8.8073Y-2.1934
X5.2673Y-5.7334
T8
X8.7773Y-4.6334
X8.7773Y-3.3334
T0
M30
