G04 #@! TF.GenerationSoftware,KiCad,Pcbnew,(5.1.5)-3*
G04 #@! TF.CreationDate,2020-08-04T21:29:25-03:00*
G04 #@! TF.ProjectId,TSAL,5453414c-2e6b-4696-9361-645f70636258,rev?*
G04 #@! TF.SameCoordinates,Original*
G04 #@! TF.FileFunction,Legend,Top*
G04 #@! TF.FilePolarity,Positive*
%FSLAX46Y46*%
G04 Gerber Fmt 4.6, Leading zero omitted, Abs format (unit mm)*
G04 Created by KiCad (PCBNEW (5.1.5)-3) date 2020-08-04 21:29:25*
%MOMM*%
%LPD*%
G04 APERTURE LIST*
%ADD10C,0.120000*%
%ADD11C,0.100000*%
%ADD12C,0.150000*%
G04 APERTURE END LIST*
D10*
X191367000Y-109130000D02*
X189907000Y-109130000D01*
X191367000Y-105970000D02*
X189207000Y-105970000D01*
X191367000Y-105970000D02*
X191367000Y-106900000D01*
X191367000Y-109130000D02*
X191367000Y-108200000D01*
X212872000Y-105181400D02*
X212872000Y-101731400D01*
X212872000Y-105181400D02*
X212872000Y-107131400D01*
X207752000Y-105181400D02*
X207752000Y-103231400D01*
X207752000Y-105181400D02*
X207752000Y-107131400D01*
X196117000Y-104970000D02*
X194657000Y-104970000D01*
X196117000Y-101810000D02*
X193957000Y-101810000D01*
X196117000Y-101810000D02*
X196117000Y-102740000D01*
X196117000Y-104970000D02*
X196117000Y-104040000D01*
X178357000Y-87030000D02*
X174907000Y-87030000D01*
X178357000Y-87030000D02*
X180307000Y-87030000D01*
X178357000Y-92150000D02*
X176407000Y-92150000D01*
X178357000Y-92150000D02*
X180307000Y-92150000D01*
X158218200Y-100612000D02*
X158218200Y-98947000D01*
X158498200Y-100612000D02*
X158218200Y-100612000D01*
X158498200Y-102997000D02*
X158498200Y-100612000D01*
X158498200Y-105382000D02*
X158218200Y-105382000D01*
X158498200Y-102997000D02*
X158498200Y-105382000D01*
X147978200Y-100612000D02*
X148258200Y-100612000D01*
X147978200Y-102997000D02*
X147978200Y-100612000D01*
X147978200Y-105382000D02*
X148258200Y-105382000D01*
X147978200Y-102997000D02*
X147978200Y-105382000D01*
X195245748Y-100350000D02*
X195768252Y-100350000D01*
X195245748Y-98930000D02*
X195768252Y-98930000D01*
X190495748Y-104510000D02*
X191018252Y-104510000D01*
X190495748Y-103090000D02*
X191018252Y-103090000D01*
X195245748Y-97400000D02*
X195768252Y-97400000D01*
X195245748Y-95980000D02*
X195768252Y-95980000D01*
X198945748Y-94450000D02*
X199468252Y-94450000D01*
X198945748Y-93030000D02*
X199468252Y-93030000D01*
X185745748Y-107460000D02*
X186268252Y-107460000D01*
X185745748Y-106040000D02*
X186268252Y-106040000D01*
X180995748Y-105060000D02*
X181518252Y-105060000D01*
X180995748Y-103640000D02*
X181518252Y-103640000D01*
X190495748Y-101560000D02*
X191018252Y-101560000D01*
X190495748Y-100140000D02*
X191018252Y-100140000D01*
X185745748Y-104510000D02*
X186268252Y-104510000D01*
X185745748Y-103090000D02*
X186268252Y-103090000D01*
X198945748Y-91500000D02*
X199468252Y-91500000D01*
X198945748Y-90080000D02*
X199468252Y-90080000D01*
X190495748Y-98610000D02*
X191018252Y-98610000D01*
X190495748Y-97190000D02*
X191018252Y-97190000D01*
X194195748Y-94450000D02*
X194718252Y-94450000D01*
X194195748Y-93030000D02*
X194718252Y-93030000D01*
X180995748Y-108010000D02*
X181518252Y-108010000D01*
X180995748Y-106590000D02*
X181518252Y-106590000D01*
X185745748Y-101560000D02*
X186268252Y-101560000D01*
X185745748Y-100140000D02*
X186268252Y-100140000D01*
X176245748Y-102110000D02*
X176768252Y-102110000D01*
X176245748Y-100690000D02*
X176768252Y-100690000D01*
X194195748Y-91500000D02*
X194718252Y-91500000D01*
X194195748Y-90080000D02*
X194718252Y-90080000D01*
X185745748Y-98610000D02*
X186268252Y-98610000D01*
X185745748Y-97190000D02*
X186268252Y-97190000D01*
X188205748Y-95660000D02*
X188728252Y-95660000D01*
X188205748Y-94240000D02*
X188728252Y-94240000D01*
X176245748Y-108010000D02*
X176768252Y-108010000D01*
X176245748Y-106590000D02*
X176768252Y-106590000D01*
X196655748Y-88550000D02*
X197178252Y-88550000D01*
X196655748Y-87130000D02*
X197178252Y-87130000D01*
X180995748Y-102110000D02*
X181518252Y-102110000D01*
X180995748Y-100690000D02*
X181518252Y-100690000D01*
X176245748Y-105060000D02*
X176768252Y-105060000D01*
X176245748Y-103640000D02*
X176768252Y-103640000D01*
X189445748Y-92710000D02*
X189968252Y-92710000D01*
X189445748Y-91290000D02*
X189968252Y-91290000D01*
X184695748Y-92710000D02*
X185218252Y-92710000D01*
X184695748Y-91290000D02*
X185218252Y-91290000D01*
X176245748Y-99160000D02*
X176768252Y-99160000D01*
X176245748Y-97740000D02*
X176768252Y-97740000D01*
X180995748Y-99160000D02*
X181518252Y-99160000D01*
X180995748Y-97740000D02*
X181518252Y-97740000D01*
X200867000Y-99070000D02*
X199407000Y-99070000D01*
X200867000Y-95910000D02*
X198707000Y-95910000D01*
X200867000Y-95910000D02*
X200867000Y-96840000D01*
X200867000Y-99070000D02*
X200867000Y-98140000D01*
X212343200Y-102996200D02*
X215343200Y-102996200D01*
X212343200Y-115596200D02*
X212343200Y-102996200D01*
X215343200Y-115596200D02*
X212343200Y-115596200D01*
X224943200Y-115596200D02*
X221943200Y-115596200D01*
X224943200Y-102996200D02*
X224943200Y-115596200D01*
X221943200Y-102996200D02*
X224943200Y-102996200D01*
X144362000Y-130810000D02*
X141642000Y-130810000D01*
X141642000Y-130810000D02*
X141642000Y-135758000D01*
X144362000Y-130810000D02*
X144362000Y-135758000D01*
X174692000Y-93539000D02*
X174692000Y-96259000D01*
X174692000Y-96259000D02*
X179640000Y-96259000D01*
X174692000Y-93539000D02*
X179640000Y-93539000D01*
X210234200Y-86130500D02*
X210234200Y-83845500D01*
X208764200Y-86130500D02*
X210234200Y-86130500D01*
X208764200Y-83845500D02*
X208764200Y-86130500D01*
X181840200Y-59157500D02*
X181840200Y-61442500D01*
X183310200Y-59157500D02*
X181840200Y-59157500D01*
X183310200Y-61442500D02*
X183310200Y-59157500D01*
X183142000Y-87089000D02*
X183142000Y-89809000D01*
X183142000Y-89809000D02*
X188090000Y-89809000D01*
X183142000Y-87089000D02*
X188090000Y-87089000D01*
X183455748Y-95660000D02*
X183978252Y-95660000D01*
X183455748Y-94240000D02*
X183978252Y-94240000D01*
X161007000Y-88905000D02*
X161007000Y-90155000D01*
X160382000Y-89530000D02*
X161632000Y-89530000D01*
X161872000Y-96485563D02*
X162936437Y-97550000D01*
X161872000Y-88094437D02*
X162936437Y-87030000D01*
X161872000Y-88094437D02*
X161872000Y-90780000D01*
X161872000Y-96485563D02*
X161872000Y-93800000D01*
X162936437Y-97550000D02*
X172392000Y-97550000D01*
X162936437Y-87030000D02*
X172392000Y-87030000D01*
X172392000Y-87030000D02*
X172392000Y-90780000D01*
X172392000Y-97550000D02*
X172392000Y-93800000D01*
X191905748Y-88550000D02*
X192428252Y-88550000D01*
X191905748Y-87130000D02*
X192428252Y-87130000D01*
X161007000Y-100755000D02*
X161007000Y-102005000D01*
X160382000Y-101380000D02*
X161632000Y-101380000D01*
X161872000Y-108335563D02*
X162936437Y-109400000D01*
X161872000Y-99944437D02*
X162936437Y-98880000D01*
X161872000Y-99944437D02*
X161872000Y-102630000D01*
X161872000Y-108335563D02*
X161872000Y-105650000D01*
X162936437Y-109400000D02*
X172392000Y-109400000D01*
X162936437Y-98880000D02*
X172392000Y-98880000D01*
X172392000Y-98880000D02*
X172392000Y-102630000D01*
X172392000Y-109400000D02*
X172392000Y-105650000D01*
X220953400Y-69930778D02*
X220953400Y-69413622D01*
X219533400Y-69930778D02*
X219533400Y-69413622D01*
X142102000Y-63555600D02*
X142102000Y-64155600D01*
X141502000Y-63855600D02*
X142102000Y-63555600D01*
X142102000Y-64155600D02*
X141502000Y-63855600D01*
X130582000Y-70605600D02*
X129082000Y-70355600D01*
X130582000Y-72105600D02*
X130582000Y-70605600D01*
X129082000Y-72355600D02*
X130582000Y-72105600D01*
X129082000Y-70355600D02*
X129082000Y-72355600D01*
X130582000Y-63105600D02*
X129082000Y-62855600D01*
X130582000Y-64605600D02*
X130582000Y-63105600D01*
X129082000Y-64855600D02*
X130582000Y-64605600D01*
X129082000Y-62855600D02*
X129082000Y-64855600D01*
X130582000Y-75215600D02*
X130582000Y-59995600D01*
X132382000Y-75215600D02*
X130582000Y-75215600D01*
X132382000Y-59995600D02*
X132382000Y-75215600D01*
X130582000Y-59995600D02*
X132382000Y-59995600D01*
X141302000Y-75215600D02*
X141302000Y-59995600D01*
X129082000Y-75215600D02*
X141302000Y-75215600D01*
X129082000Y-59995600D02*
X129082000Y-75215600D01*
X141302000Y-59995600D02*
X129082000Y-59995600D01*
X142702000Y-137298000D02*
X143302000Y-137298000D01*
X143002000Y-137898000D02*
X142702000Y-137298000D01*
X143302000Y-137298000D02*
X143002000Y-137898000D01*
X149752000Y-148818000D02*
X149502000Y-150318000D01*
X151252000Y-148818000D02*
X149752000Y-148818000D01*
X151502000Y-150318000D02*
X151252000Y-148818000D01*
X149502000Y-150318000D02*
X151502000Y-150318000D01*
X142252000Y-148818000D02*
X142002000Y-150318000D01*
X143752000Y-148818000D02*
X142252000Y-148818000D01*
X144002000Y-150318000D02*
X143752000Y-148818000D01*
X142002000Y-150318000D02*
X144002000Y-150318000D01*
X154362000Y-148818000D02*
X139142000Y-148818000D01*
X154362000Y-147018000D02*
X154362000Y-148818000D01*
X139142000Y-147018000D02*
X154362000Y-147018000D01*
X139142000Y-148818000D02*
X139142000Y-147018000D01*
X154362000Y-138098000D02*
X139142000Y-138098000D01*
X154362000Y-150318000D02*
X154362000Y-138098000D01*
X139142000Y-150318000D02*
X154362000Y-150318000D01*
X139142000Y-138098000D02*
X139142000Y-150318000D01*
X166065200Y-67922800D02*
X166065200Y-70862800D01*
D11*
G36*
X167843200Y-70662800D02*
G01*
X166573200Y-69392800D01*
X167843200Y-68122800D01*
X167843200Y-70662800D01*
G37*
X167843200Y-70662800D02*
X166573200Y-69392800D01*
X167843200Y-68122800D01*
X167843200Y-70662800D01*
D10*
X165769200Y-67922800D02*
X165769200Y-70862800D01*
X171329200Y-69392800D02*
X170309200Y-69392800D01*
X163849200Y-69392800D02*
X164869200Y-69392800D01*
X170309200Y-67922800D02*
X164869200Y-67922800D01*
X170309200Y-70862800D02*
X170309200Y-67922800D01*
X164869200Y-70862800D02*
X170309200Y-70862800D01*
X164869200Y-67922800D02*
X164869200Y-70862800D01*
X150825200Y-67922800D02*
X150825200Y-70862800D01*
D11*
G36*
X152603200Y-70662800D02*
G01*
X151333200Y-69392800D01*
X152603200Y-68122800D01*
X152603200Y-70662800D01*
G37*
X152603200Y-70662800D02*
X151333200Y-69392800D01*
X152603200Y-68122800D01*
X152603200Y-70662800D01*
D10*
X150529200Y-67922800D02*
X150529200Y-70862800D01*
X156089200Y-69392800D02*
X155069200Y-69392800D01*
X148609200Y-69392800D02*
X149629200Y-69392800D01*
X155069200Y-67922800D02*
X149629200Y-67922800D01*
X155069200Y-70862800D02*
X155069200Y-67922800D01*
X149629200Y-70862800D02*
X155069200Y-70862800D01*
X149629200Y-67922800D02*
X149629200Y-70862800D01*
X174574200Y-119717500D02*
X178024200Y-119717500D01*
X174574200Y-119717500D02*
X172624200Y-119717500D01*
X174574200Y-114597500D02*
X176524200Y-114597500D01*
X174574200Y-114597500D02*
X172624200Y-114597500D01*
X145993200Y-120470400D02*
X145993200Y-121720400D01*
X145368200Y-121095400D02*
X146618200Y-121095400D01*
X146858200Y-128050963D02*
X147922637Y-129115400D01*
X146858200Y-119659837D02*
X147922637Y-118595400D01*
X146858200Y-119659837D02*
X146858200Y-122345400D01*
X146858200Y-128050963D02*
X146858200Y-125365400D01*
X147922637Y-129115400D02*
X157378200Y-129115400D01*
X147922637Y-118595400D02*
X157378200Y-118595400D01*
X157378200Y-118595400D02*
X157378200Y-122345400D01*
X157378200Y-129115400D02*
X157378200Y-125365400D01*
X152011748Y-132409000D02*
X152534252Y-132409000D01*
X152011748Y-130989000D02*
X152534252Y-130989000D01*
X152011748Y-135711000D02*
X152534252Y-135711000D01*
X152011748Y-134291000D02*
X152534252Y-134291000D01*
X142492000Y-124551221D02*
X142492000Y-124876779D01*
X143512000Y-124551221D02*
X143512000Y-124876779D01*
X138578000Y-129126064D02*
X138578000Y-127921936D01*
X136758000Y-129126064D02*
X136758000Y-127921936D01*
X173374952Y-111494500D02*
X172852448Y-111494500D01*
X173374952Y-112914500D02*
X172852448Y-112914500D01*
X168758800Y-126628148D02*
X168758800Y-127150652D01*
X170178800Y-126628148D02*
X170178800Y-127150652D01*
X184100400Y-126628148D02*
X184100400Y-127150652D01*
X185520400Y-126628148D02*
X185520400Y-127150652D01*
X138733600Y-98965652D02*
X138733600Y-98443148D01*
X137313600Y-98965652D02*
X137313600Y-98443148D01*
X143813600Y-99016452D02*
X143813600Y-98493948D01*
X142393600Y-99016452D02*
X142393600Y-98493948D01*
X168421952Y-114542500D02*
X167899448Y-114542500D01*
X168421952Y-115962500D02*
X167899448Y-115962500D01*
X177805448Y-112914500D02*
X178327952Y-112914500D01*
X177805448Y-111494500D02*
X178327952Y-111494500D01*
X164484952Y-114542500D02*
X163962448Y-114542500D01*
X164484952Y-115962500D02*
X163962448Y-115962500D01*
X147422800Y-114648348D02*
X147422800Y-115170852D01*
X148842800Y-114648348D02*
X148842800Y-115170852D01*
X207669200Y-80906252D02*
X207669200Y-80383748D01*
X206249200Y-80906252D02*
X206249200Y-80383748D01*
X210209200Y-80906252D02*
X210209200Y-80383748D01*
X208789200Y-80906252D02*
X208789200Y-80383748D01*
X205129200Y-65285252D02*
X205129200Y-64762748D01*
X203709200Y-65285252D02*
X203709200Y-64762748D01*
X181865200Y-64699248D02*
X181865200Y-65221752D01*
X183285200Y-64699248D02*
X183285200Y-65221752D01*
X200100000Y-118041052D02*
X200100000Y-117518548D01*
X198680000Y-118041052D02*
X198680000Y-117518548D01*
X189739200Y-95052248D02*
X189739200Y-95574752D01*
X191159200Y-95052248D02*
X191159200Y-95574752D01*
X153948200Y-115196252D02*
X153948200Y-114673748D01*
X152528200Y-115196252D02*
X152528200Y-114673748D01*
X209602000Y-117518548D02*
X209602000Y-118041052D01*
X211022000Y-117518548D02*
X211022000Y-118041052D01*
X171229200Y-81940400D02*
X168589200Y-81940400D01*
X148709200Y-81940400D02*
X151349200Y-81940400D01*
X168589200Y-78820400D02*
X151349200Y-78820400D01*
X168589200Y-85060400D02*
X168589200Y-78820400D01*
X151349200Y-85060400D02*
X168589200Y-85060400D01*
X151349200Y-78820400D02*
X151349200Y-85060400D01*
X171229200Y-63677800D02*
X168589200Y-63677800D01*
X148709200Y-63677800D02*
X151349200Y-63677800D01*
X168589200Y-60557800D02*
X151349200Y-60557800D01*
X168589200Y-66797800D02*
X168589200Y-60557800D01*
X151349200Y-66797800D02*
X168589200Y-66797800D01*
X151349200Y-60557800D02*
X151349200Y-66797800D01*
X148709200Y-74828400D02*
X151349200Y-74828400D01*
X171229200Y-74828400D02*
X168589200Y-74828400D01*
X151349200Y-77948400D02*
X168589200Y-77948400D01*
X151349200Y-71708400D02*
X151349200Y-77948400D01*
X168589200Y-71708400D02*
X151349200Y-71708400D01*
X168589200Y-77948400D02*
X168589200Y-71708400D01*
X148709200Y-56565800D02*
X151349200Y-56565800D01*
X171229200Y-56565800D02*
X168589200Y-56565800D01*
X151349200Y-59685800D02*
X168589200Y-59685800D01*
X151349200Y-53445800D02*
X151349200Y-59685800D01*
X168589200Y-53445800D02*
X151349200Y-53445800D01*
X168589200Y-59685800D02*
X168589200Y-53445800D01*
X205942000Y-118041052D02*
X205942000Y-117518548D01*
X204522000Y-118041052D02*
X204522000Y-117518548D01*
X180726448Y-117232500D02*
X181248952Y-117232500D01*
X180726448Y-115812500D02*
X181248952Y-115812500D01*
X164388800Y-134652400D02*
X164388800Y-132112400D01*
X166928800Y-134652400D02*
X166928800Y-132112400D01*
X169468800Y-134652400D02*
X169468800Y-132112400D01*
X161808800Y-150542400D02*
X161808800Y-134652400D01*
X172048800Y-150542400D02*
X172048800Y-134652400D01*
X172048800Y-150542400D02*
X161808800Y-150542400D01*
X172048800Y-134652400D02*
X161808800Y-134652400D01*
X179743100Y-134652400D02*
X179743100Y-132112400D01*
X182283100Y-134652400D02*
X182283100Y-132112400D01*
X184823100Y-134652400D02*
X184823100Y-132112400D01*
X177163100Y-150542400D02*
X177163100Y-134652400D01*
X187403100Y-150542400D02*
X187403100Y-134652400D01*
X187403100Y-150542400D02*
X177163100Y-150542400D01*
X187403100Y-134652400D02*
X177163100Y-134652400D01*
X194407400Y-72175900D02*
X194407400Y-76175900D01*
X190807400Y-72175900D02*
X194407400Y-72175900D01*
X190807400Y-76175900D02*
X190807400Y-72175900D01*
X194407400Y-76175900D02*
X190807400Y-76175900D01*
X194407400Y-72175900D02*
X190807400Y-76175900D01*
X194407400Y-74175900D02*
X198607400Y-74175900D01*
X186607400Y-74175900D02*
X190807400Y-74175900D01*
X192607400Y-77575900D02*
X196207400Y-77575900D01*
X192607400Y-70775900D02*
X196207400Y-70775900D01*
X196207400Y-70775900D02*
X196207400Y-77575900D01*
X195057400Y-64449900D02*
X192607400Y-69275900D01*
X192607400Y-70775900D02*
X192607400Y-69275900D01*
X186607400Y-74175900D02*
X186607400Y-76675900D01*
X192607400Y-77575900D02*
X192607400Y-78375900D01*
X198607400Y-76675900D02*
X198607400Y-74175900D01*
X188357400Y-66075900D02*
X190857400Y-66075900D01*
X196757400Y-66075900D02*
X194307400Y-66075900D01*
X200357400Y-61825900D02*
X200357400Y-81625900D01*
X184757400Y-61825900D02*
X200357400Y-61825900D01*
X184757400Y-81625900D02*
X184757400Y-61825900D01*
X184757400Y-81625900D02*
X191357400Y-81625900D01*
X193757400Y-81625900D02*
X200357400Y-81625900D01*
X192689200Y-137298000D02*
X193289200Y-137298000D01*
X192989200Y-137898000D02*
X192689200Y-137298000D01*
X193289200Y-137298000D02*
X192989200Y-137898000D01*
X214739200Y-148818000D02*
X214489200Y-150318000D01*
X216239200Y-148818000D02*
X214739200Y-148818000D01*
X216489200Y-150318000D02*
X216239200Y-148818000D01*
X214489200Y-150318000D02*
X216489200Y-150318000D01*
X207239200Y-148818000D02*
X206989200Y-150318000D01*
X208739200Y-148818000D02*
X207239200Y-148818000D01*
X208989200Y-150318000D02*
X208739200Y-148818000D01*
X206989200Y-150318000D02*
X208989200Y-150318000D01*
X199739200Y-148818000D02*
X199489200Y-150318000D01*
X201239200Y-148818000D02*
X199739200Y-148818000D01*
X201489200Y-150318000D02*
X201239200Y-148818000D01*
X199489200Y-150318000D02*
X201489200Y-150318000D01*
X192239200Y-148818000D02*
X191989200Y-150318000D01*
X193739200Y-148818000D02*
X192239200Y-148818000D01*
X193989200Y-150318000D02*
X193739200Y-148818000D01*
X191989200Y-150318000D02*
X193989200Y-150318000D01*
X219349200Y-148818000D02*
X189129200Y-148818000D01*
X219349200Y-147018000D02*
X219349200Y-148818000D01*
X189129200Y-147018000D02*
X219349200Y-147018000D01*
X189129200Y-148818000D02*
X189129200Y-147018000D01*
X219349200Y-138098000D02*
X189129200Y-138098000D01*
X219349200Y-150318000D02*
X219349200Y-138098000D01*
X189129200Y-150318000D02*
X219349200Y-150318000D01*
X189129200Y-138098000D02*
X189129200Y-150318000D01*
X160275200Y-126637148D02*
X160275200Y-127159652D01*
X161695200Y-126637148D02*
X161695200Y-127159652D01*
X211329200Y-64762748D02*
X211329200Y-65285252D01*
X212749200Y-64762748D02*
X212749200Y-65285252D01*
X204522000Y-100449748D02*
X204522000Y-100972252D01*
X205942000Y-100449748D02*
X205942000Y-100972252D01*
D12*
X189845095Y-104502380D02*
X189845095Y-105311904D01*
X189892714Y-105407142D01*
X189940333Y-105454761D01*
X190035571Y-105502380D01*
X190226047Y-105502380D01*
X190321285Y-105454761D01*
X190368904Y-105407142D01*
X190416523Y-105311904D01*
X190416523Y-104502380D01*
X191321285Y-104502380D02*
X191130809Y-104502380D01*
X191035571Y-104550000D01*
X190987952Y-104597619D01*
X190892714Y-104740476D01*
X190845095Y-104930952D01*
X190845095Y-105311904D01*
X190892714Y-105407142D01*
X190940333Y-105454761D01*
X191035571Y-105502380D01*
X191226047Y-105502380D01*
X191321285Y-105454761D01*
X191368904Y-105407142D01*
X191416523Y-105311904D01*
X191416523Y-105073809D01*
X191368904Y-104978571D01*
X191321285Y-104930952D01*
X191226047Y-104883333D01*
X191035571Y-104883333D01*
X190940333Y-104930952D01*
X190892714Y-104978571D01*
X190845095Y-105073809D01*
X213164380Y-105943304D02*
X213973904Y-105943304D01*
X214069142Y-105895685D01*
X214116761Y-105848066D01*
X214164380Y-105752828D01*
X214164380Y-105562352D01*
X214116761Y-105467114D01*
X214069142Y-105419495D01*
X213973904Y-105371876D01*
X213164380Y-105371876D01*
X213164380Y-104419495D02*
X213164380Y-104895685D01*
X213640571Y-104943304D01*
X213592952Y-104895685D01*
X213545333Y-104800447D01*
X213545333Y-104562352D01*
X213592952Y-104467114D01*
X213640571Y-104419495D01*
X213735809Y-104371876D01*
X213973904Y-104371876D01*
X214069142Y-104419495D01*
X214116761Y-104467114D01*
X214164380Y-104562352D01*
X214164380Y-104800447D01*
X214116761Y-104895685D01*
X214069142Y-104943304D01*
X194595095Y-100342380D02*
X194595095Y-101151904D01*
X194642714Y-101247142D01*
X194690333Y-101294761D01*
X194785571Y-101342380D01*
X194976047Y-101342380D01*
X195071285Y-101294761D01*
X195118904Y-101247142D01*
X195166523Y-101151904D01*
X195166523Y-100342380D01*
X195547476Y-100342380D02*
X196166523Y-100342380D01*
X195833190Y-100723333D01*
X195976047Y-100723333D01*
X196071285Y-100770952D01*
X196118904Y-100818571D01*
X196166523Y-100913809D01*
X196166523Y-101151904D01*
X196118904Y-101247142D01*
X196071285Y-101294761D01*
X195976047Y-101342380D01*
X195690333Y-101342380D01*
X195595095Y-101294761D01*
X195547476Y-101247142D01*
X177595095Y-85642380D02*
X177595095Y-86451904D01*
X177642714Y-86547142D01*
X177690333Y-86594761D01*
X177785571Y-86642380D01*
X177976047Y-86642380D01*
X178071285Y-86594761D01*
X178118904Y-86547142D01*
X178166523Y-86451904D01*
X178166523Y-85642380D01*
X178595095Y-85737619D02*
X178642714Y-85690000D01*
X178737952Y-85642380D01*
X178976047Y-85642380D01*
X179071285Y-85690000D01*
X179118904Y-85737619D01*
X179166523Y-85832857D01*
X179166523Y-85928095D01*
X179118904Y-86070952D01*
X178547476Y-86642380D01*
X179166523Y-86642380D01*
X158790580Y-103758904D02*
X159600104Y-103758904D01*
X159695342Y-103711285D01*
X159742961Y-103663666D01*
X159790580Y-103568428D01*
X159790580Y-103377952D01*
X159742961Y-103282714D01*
X159695342Y-103235095D01*
X159600104Y-103187476D01*
X158790580Y-103187476D01*
X159790580Y-102187476D02*
X159790580Y-102758904D01*
X159790580Y-102473190D02*
X158790580Y-102473190D01*
X158933438Y-102568428D01*
X159028676Y-102663666D01*
X159076295Y-102758904D01*
X194864142Y-98442380D02*
X194530809Y-97966190D01*
X194292714Y-98442380D02*
X194292714Y-97442380D01*
X194673666Y-97442380D01*
X194768904Y-97490000D01*
X194816523Y-97537619D01*
X194864142Y-97632857D01*
X194864142Y-97775714D01*
X194816523Y-97870952D01*
X194768904Y-97918571D01*
X194673666Y-97966190D01*
X194292714Y-97966190D01*
X195721285Y-97775714D02*
X195721285Y-98442380D01*
X195483190Y-97394761D02*
X195245095Y-98109047D01*
X195864142Y-98109047D01*
X196387952Y-97870952D02*
X196292714Y-97823333D01*
X196245095Y-97775714D01*
X196197476Y-97680476D01*
X196197476Y-97632857D01*
X196245095Y-97537619D01*
X196292714Y-97490000D01*
X196387952Y-97442380D01*
X196578428Y-97442380D01*
X196673666Y-97490000D01*
X196721285Y-97537619D01*
X196768904Y-97632857D01*
X196768904Y-97680476D01*
X196721285Y-97775714D01*
X196673666Y-97823333D01*
X196578428Y-97870952D01*
X196387952Y-97870952D01*
X196292714Y-97918571D01*
X196245095Y-97966190D01*
X196197476Y-98061428D01*
X196197476Y-98251904D01*
X196245095Y-98347142D01*
X196292714Y-98394761D01*
X196387952Y-98442380D01*
X196578428Y-98442380D01*
X196673666Y-98394761D01*
X196721285Y-98347142D01*
X196768904Y-98251904D01*
X196768904Y-98061428D01*
X196721285Y-97966190D01*
X196673666Y-97918571D01*
X196578428Y-97870952D01*
X190114142Y-102602380D02*
X189780809Y-102126190D01*
X189542714Y-102602380D02*
X189542714Y-101602380D01*
X189923666Y-101602380D01*
X190018904Y-101650000D01*
X190066523Y-101697619D01*
X190114142Y-101792857D01*
X190114142Y-101935714D01*
X190066523Y-102030952D01*
X190018904Y-102078571D01*
X189923666Y-102126190D01*
X189542714Y-102126190D01*
X190971285Y-101935714D02*
X190971285Y-102602380D01*
X190733190Y-101554761D02*
X190495095Y-102269047D01*
X191114142Y-102269047D01*
X191399857Y-101602380D02*
X192066523Y-101602380D01*
X191637952Y-102602380D01*
X194864142Y-95492380D02*
X194530809Y-95016190D01*
X194292714Y-95492380D02*
X194292714Y-94492380D01*
X194673666Y-94492380D01*
X194768904Y-94540000D01*
X194816523Y-94587619D01*
X194864142Y-94682857D01*
X194864142Y-94825714D01*
X194816523Y-94920952D01*
X194768904Y-94968571D01*
X194673666Y-95016190D01*
X194292714Y-95016190D01*
X195721285Y-94825714D02*
X195721285Y-95492380D01*
X195483190Y-94444761D02*
X195245095Y-95159047D01*
X195864142Y-95159047D01*
X196673666Y-94492380D02*
X196483190Y-94492380D01*
X196387952Y-94540000D01*
X196340333Y-94587619D01*
X196245095Y-94730476D01*
X196197476Y-94920952D01*
X196197476Y-95301904D01*
X196245095Y-95397142D01*
X196292714Y-95444761D01*
X196387952Y-95492380D01*
X196578428Y-95492380D01*
X196673666Y-95444761D01*
X196721285Y-95397142D01*
X196768904Y-95301904D01*
X196768904Y-95063809D01*
X196721285Y-94968571D01*
X196673666Y-94920952D01*
X196578428Y-94873333D01*
X196387952Y-94873333D01*
X196292714Y-94920952D01*
X196245095Y-94968571D01*
X196197476Y-95063809D01*
X198564142Y-92542380D02*
X198230809Y-92066190D01*
X197992714Y-92542380D02*
X197992714Y-91542380D01*
X198373666Y-91542380D01*
X198468904Y-91590000D01*
X198516523Y-91637619D01*
X198564142Y-91732857D01*
X198564142Y-91875714D01*
X198516523Y-91970952D01*
X198468904Y-92018571D01*
X198373666Y-92066190D01*
X197992714Y-92066190D01*
X199421285Y-91875714D02*
X199421285Y-92542380D01*
X199183190Y-91494761D02*
X198945095Y-92209047D01*
X199564142Y-92209047D01*
X200421285Y-91542380D02*
X199945095Y-91542380D01*
X199897476Y-92018571D01*
X199945095Y-91970952D01*
X200040333Y-91923333D01*
X200278428Y-91923333D01*
X200373666Y-91970952D01*
X200421285Y-92018571D01*
X200468904Y-92113809D01*
X200468904Y-92351904D01*
X200421285Y-92447142D01*
X200373666Y-92494761D01*
X200278428Y-92542380D01*
X200040333Y-92542380D01*
X199945095Y-92494761D01*
X199897476Y-92447142D01*
X185364142Y-105552380D02*
X185030809Y-105076190D01*
X184792714Y-105552380D02*
X184792714Y-104552380D01*
X185173666Y-104552380D01*
X185268904Y-104600000D01*
X185316523Y-104647619D01*
X185364142Y-104742857D01*
X185364142Y-104885714D01*
X185316523Y-104980952D01*
X185268904Y-105028571D01*
X185173666Y-105076190D01*
X184792714Y-105076190D01*
X186221285Y-104885714D02*
X186221285Y-105552380D01*
X185983190Y-104504761D02*
X185745095Y-105219047D01*
X186364142Y-105219047D01*
X187173666Y-104885714D02*
X187173666Y-105552380D01*
X186935571Y-104504761D02*
X186697476Y-105219047D01*
X187316523Y-105219047D01*
X180614142Y-103152380D02*
X180280809Y-102676190D01*
X180042714Y-103152380D02*
X180042714Y-102152380D01*
X180423666Y-102152380D01*
X180518904Y-102200000D01*
X180566523Y-102247619D01*
X180614142Y-102342857D01*
X180614142Y-102485714D01*
X180566523Y-102580952D01*
X180518904Y-102628571D01*
X180423666Y-102676190D01*
X180042714Y-102676190D01*
X181471285Y-102485714D02*
X181471285Y-103152380D01*
X181233190Y-102104761D02*
X180995095Y-102819047D01*
X181614142Y-102819047D01*
X181899857Y-102152380D02*
X182518904Y-102152380D01*
X182185571Y-102533333D01*
X182328428Y-102533333D01*
X182423666Y-102580952D01*
X182471285Y-102628571D01*
X182518904Y-102723809D01*
X182518904Y-102961904D01*
X182471285Y-103057142D01*
X182423666Y-103104761D01*
X182328428Y-103152380D01*
X182042714Y-103152380D01*
X181947476Y-103104761D01*
X181899857Y-103057142D01*
X190114142Y-99652380D02*
X189780809Y-99176190D01*
X189542714Y-99652380D02*
X189542714Y-98652380D01*
X189923666Y-98652380D01*
X190018904Y-98700000D01*
X190066523Y-98747619D01*
X190114142Y-98842857D01*
X190114142Y-98985714D01*
X190066523Y-99080952D01*
X190018904Y-99128571D01*
X189923666Y-99176190D01*
X189542714Y-99176190D01*
X190971285Y-98985714D02*
X190971285Y-99652380D01*
X190733190Y-98604761D02*
X190495095Y-99319047D01*
X191114142Y-99319047D01*
X192018904Y-99652380D02*
X191447476Y-99652380D01*
X191733190Y-99652380D02*
X191733190Y-98652380D01*
X191637952Y-98795238D01*
X191542714Y-98890476D01*
X191447476Y-98938095D01*
X185364142Y-102602380D02*
X185030809Y-102126190D01*
X184792714Y-102602380D02*
X184792714Y-101602380D01*
X185173666Y-101602380D01*
X185268904Y-101650000D01*
X185316523Y-101697619D01*
X185364142Y-101792857D01*
X185364142Y-101935714D01*
X185316523Y-102030952D01*
X185268904Y-102078571D01*
X185173666Y-102126190D01*
X184792714Y-102126190D01*
X186221285Y-101935714D02*
X186221285Y-102602380D01*
X185983190Y-101554761D02*
X185745095Y-102269047D01*
X186364142Y-102269047D01*
X186935571Y-101602380D02*
X187030809Y-101602380D01*
X187126047Y-101650000D01*
X187173666Y-101697619D01*
X187221285Y-101792857D01*
X187268904Y-101983333D01*
X187268904Y-102221428D01*
X187221285Y-102411904D01*
X187173666Y-102507142D01*
X187126047Y-102554761D01*
X187030809Y-102602380D01*
X186935571Y-102602380D01*
X186840333Y-102554761D01*
X186792714Y-102507142D01*
X186745095Y-102411904D01*
X186697476Y-102221428D01*
X186697476Y-101983333D01*
X186745095Y-101792857D01*
X186792714Y-101697619D01*
X186840333Y-101650000D01*
X186935571Y-101602380D01*
X198564142Y-89592380D02*
X198230809Y-89116190D01*
X197992714Y-89592380D02*
X197992714Y-88592380D01*
X198373666Y-88592380D01*
X198468904Y-88640000D01*
X198516523Y-88687619D01*
X198564142Y-88782857D01*
X198564142Y-88925714D01*
X198516523Y-89020952D01*
X198468904Y-89068571D01*
X198373666Y-89116190D01*
X197992714Y-89116190D01*
X198897476Y-88592380D02*
X199516523Y-88592380D01*
X199183190Y-88973333D01*
X199326047Y-88973333D01*
X199421285Y-89020952D01*
X199468904Y-89068571D01*
X199516523Y-89163809D01*
X199516523Y-89401904D01*
X199468904Y-89497142D01*
X199421285Y-89544761D01*
X199326047Y-89592380D01*
X199040333Y-89592380D01*
X198945095Y-89544761D01*
X198897476Y-89497142D01*
X199992714Y-89592380D02*
X200183190Y-89592380D01*
X200278428Y-89544761D01*
X200326047Y-89497142D01*
X200421285Y-89354285D01*
X200468904Y-89163809D01*
X200468904Y-88782857D01*
X200421285Y-88687619D01*
X200373666Y-88640000D01*
X200278428Y-88592380D01*
X200087952Y-88592380D01*
X199992714Y-88640000D01*
X199945095Y-88687619D01*
X199897476Y-88782857D01*
X199897476Y-89020952D01*
X199945095Y-89116190D01*
X199992714Y-89163809D01*
X200087952Y-89211428D01*
X200278428Y-89211428D01*
X200373666Y-89163809D01*
X200421285Y-89116190D01*
X200468904Y-89020952D01*
X190114142Y-96702380D02*
X189780809Y-96226190D01*
X189542714Y-96702380D02*
X189542714Y-95702380D01*
X189923666Y-95702380D01*
X190018904Y-95750000D01*
X190066523Y-95797619D01*
X190114142Y-95892857D01*
X190114142Y-96035714D01*
X190066523Y-96130952D01*
X190018904Y-96178571D01*
X189923666Y-96226190D01*
X189542714Y-96226190D01*
X190447476Y-95702380D02*
X191066523Y-95702380D01*
X190733190Y-96083333D01*
X190876047Y-96083333D01*
X190971285Y-96130952D01*
X191018904Y-96178571D01*
X191066523Y-96273809D01*
X191066523Y-96511904D01*
X191018904Y-96607142D01*
X190971285Y-96654761D01*
X190876047Y-96702380D01*
X190590333Y-96702380D01*
X190495095Y-96654761D01*
X190447476Y-96607142D01*
X191971285Y-95702380D02*
X191495095Y-95702380D01*
X191447476Y-96178571D01*
X191495095Y-96130952D01*
X191590333Y-96083333D01*
X191828428Y-96083333D01*
X191923666Y-96130952D01*
X191971285Y-96178571D01*
X192018904Y-96273809D01*
X192018904Y-96511904D01*
X191971285Y-96607142D01*
X191923666Y-96654761D01*
X191828428Y-96702380D01*
X191590333Y-96702380D01*
X191495095Y-96654761D01*
X191447476Y-96607142D01*
X193814142Y-92542380D02*
X193480809Y-92066190D01*
X193242714Y-92542380D02*
X193242714Y-91542380D01*
X193623666Y-91542380D01*
X193718904Y-91590000D01*
X193766523Y-91637619D01*
X193814142Y-91732857D01*
X193814142Y-91875714D01*
X193766523Y-91970952D01*
X193718904Y-92018571D01*
X193623666Y-92066190D01*
X193242714Y-92066190D01*
X194147476Y-91542380D02*
X194766523Y-91542380D01*
X194433190Y-91923333D01*
X194576047Y-91923333D01*
X194671285Y-91970952D01*
X194718904Y-92018571D01*
X194766523Y-92113809D01*
X194766523Y-92351904D01*
X194718904Y-92447142D01*
X194671285Y-92494761D01*
X194576047Y-92542380D01*
X194290333Y-92542380D01*
X194195095Y-92494761D01*
X194147476Y-92447142D01*
X195623666Y-91875714D02*
X195623666Y-92542380D01*
X195385571Y-91494761D02*
X195147476Y-92209047D01*
X195766523Y-92209047D01*
X180614142Y-106102380D02*
X180280809Y-105626190D01*
X180042714Y-106102380D02*
X180042714Y-105102380D01*
X180423666Y-105102380D01*
X180518904Y-105150000D01*
X180566523Y-105197619D01*
X180614142Y-105292857D01*
X180614142Y-105435714D01*
X180566523Y-105530952D01*
X180518904Y-105578571D01*
X180423666Y-105626190D01*
X180042714Y-105626190D01*
X180947476Y-105102380D02*
X181566523Y-105102380D01*
X181233190Y-105483333D01*
X181376047Y-105483333D01*
X181471285Y-105530952D01*
X181518904Y-105578571D01*
X181566523Y-105673809D01*
X181566523Y-105911904D01*
X181518904Y-106007142D01*
X181471285Y-106054761D01*
X181376047Y-106102380D01*
X181090333Y-106102380D01*
X180995095Y-106054761D01*
X180947476Y-106007142D01*
X181899857Y-105102380D02*
X182518904Y-105102380D01*
X182185571Y-105483333D01*
X182328428Y-105483333D01*
X182423666Y-105530952D01*
X182471285Y-105578571D01*
X182518904Y-105673809D01*
X182518904Y-105911904D01*
X182471285Y-106007142D01*
X182423666Y-106054761D01*
X182328428Y-106102380D01*
X182042714Y-106102380D01*
X181947476Y-106054761D01*
X181899857Y-106007142D01*
X185364142Y-99652380D02*
X185030809Y-99176190D01*
X184792714Y-99652380D02*
X184792714Y-98652380D01*
X185173666Y-98652380D01*
X185268904Y-98700000D01*
X185316523Y-98747619D01*
X185364142Y-98842857D01*
X185364142Y-98985714D01*
X185316523Y-99080952D01*
X185268904Y-99128571D01*
X185173666Y-99176190D01*
X184792714Y-99176190D01*
X185697476Y-98652380D02*
X186316523Y-98652380D01*
X185983190Y-99033333D01*
X186126047Y-99033333D01*
X186221285Y-99080952D01*
X186268904Y-99128571D01*
X186316523Y-99223809D01*
X186316523Y-99461904D01*
X186268904Y-99557142D01*
X186221285Y-99604761D01*
X186126047Y-99652380D01*
X185840333Y-99652380D01*
X185745095Y-99604761D01*
X185697476Y-99557142D01*
X186697476Y-98747619D02*
X186745095Y-98700000D01*
X186840333Y-98652380D01*
X187078428Y-98652380D01*
X187173666Y-98700000D01*
X187221285Y-98747619D01*
X187268904Y-98842857D01*
X187268904Y-98938095D01*
X187221285Y-99080952D01*
X186649857Y-99652380D01*
X187268904Y-99652380D01*
X175864142Y-100202380D02*
X175530809Y-99726190D01*
X175292714Y-100202380D02*
X175292714Y-99202380D01*
X175673666Y-99202380D01*
X175768904Y-99250000D01*
X175816523Y-99297619D01*
X175864142Y-99392857D01*
X175864142Y-99535714D01*
X175816523Y-99630952D01*
X175768904Y-99678571D01*
X175673666Y-99726190D01*
X175292714Y-99726190D01*
X176197476Y-99202380D02*
X176816523Y-99202380D01*
X176483190Y-99583333D01*
X176626047Y-99583333D01*
X176721285Y-99630952D01*
X176768904Y-99678571D01*
X176816523Y-99773809D01*
X176816523Y-100011904D01*
X176768904Y-100107142D01*
X176721285Y-100154761D01*
X176626047Y-100202380D01*
X176340333Y-100202380D01*
X176245095Y-100154761D01*
X176197476Y-100107142D01*
X177768904Y-100202380D02*
X177197476Y-100202380D01*
X177483190Y-100202380D02*
X177483190Y-99202380D01*
X177387952Y-99345238D01*
X177292714Y-99440476D01*
X177197476Y-99488095D01*
X193814142Y-89592380D02*
X193480809Y-89116190D01*
X193242714Y-89592380D02*
X193242714Y-88592380D01*
X193623666Y-88592380D01*
X193718904Y-88640000D01*
X193766523Y-88687619D01*
X193814142Y-88782857D01*
X193814142Y-88925714D01*
X193766523Y-89020952D01*
X193718904Y-89068571D01*
X193623666Y-89116190D01*
X193242714Y-89116190D01*
X194195095Y-88687619D02*
X194242714Y-88640000D01*
X194337952Y-88592380D01*
X194576047Y-88592380D01*
X194671285Y-88640000D01*
X194718904Y-88687619D01*
X194766523Y-88782857D01*
X194766523Y-88878095D01*
X194718904Y-89020952D01*
X194147476Y-89592380D01*
X194766523Y-89592380D01*
X195337952Y-89020952D02*
X195242714Y-88973333D01*
X195195095Y-88925714D01*
X195147476Y-88830476D01*
X195147476Y-88782857D01*
X195195095Y-88687619D01*
X195242714Y-88640000D01*
X195337952Y-88592380D01*
X195528428Y-88592380D01*
X195623666Y-88640000D01*
X195671285Y-88687619D01*
X195718904Y-88782857D01*
X195718904Y-88830476D01*
X195671285Y-88925714D01*
X195623666Y-88973333D01*
X195528428Y-89020952D01*
X195337952Y-89020952D01*
X195242714Y-89068571D01*
X195195095Y-89116190D01*
X195147476Y-89211428D01*
X195147476Y-89401904D01*
X195195095Y-89497142D01*
X195242714Y-89544761D01*
X195337952Y-89592380D01*
X195528428Y-89592380D01*
X195623666Y-89544761D01*
X195671285Y-89497142D01*
X195718904Y-89401904D01*
X195718904Y-89211428D01*
X195671285Y-89116190D01*
X195623666Y-89068571D01*
X195528428Y-89020952D01*
X185364142Y-96702380D02*
X185030809Y-96226190D01*
X184792714Y-96702380D02*
X184792714Y-95702380D01*
X185173666Y-95702380D01*
X185268904Y-95750000D01*
X185316523Y-95797619D01*
X185364142Y-95892857D01*
X185364142Y-96035714D01*
X185316523Y-96130952D01*
X185268904Y-96178571D01*
X185173666Y-96226190D01*
X184792714Y-96226190D01*
X185745095Y-95797619D02*
X185792714Y-95750000D01*
X185887952Y-95702380D01*
X186126047Y-95702380D01*
X186221285Y-95750000D01*
X186268904Y-95797619D01*
X186316523Y-95892857D01*
X186316523Y-95988095D01*
X186268904Y-96130952D01*
X185697476Y-96702380D01*
X186316523Y-96702380D01*
X186649857Y-95702380D02*
X187316523Y-95702380D01*
X186887952Y-96702380D01*
X187824142Y-93752380D02*
X187490809Y-93276190D01*
X187252714Y-93752380D02*
X187252714Y-92752380D01*
X187633666Y-92752380D01*
X187728904Y-92800000D01*
X187776523Y-92847619D01*
X187824142Y-92942857D01*
X187824142Y-93085714D01*
X187776523Y-93180952D01*
X187728904Y-93228571D01*
X187633666Y-93276190D01*
X187252714Y-93276190D01*
X188205095Y-92847619D02*
X188252714Y-92800000D01*
X188347952Y-92752380D01*
X188586047Y-92752380D01*
X188681285Y-92800000D01*
X188728904Y-92847619D01*
X188776523Y-92942857D01*
X188776523Y-93038095D01*
X188728904Y-93180952D01*
X188157476Y-93752380D01*
X188776523Y-93752380D01*
X189633666Y-92752380D02*
X189443190Y-92752380D01*
X189347952Y-92800000D01*
X189300333Y-92847619D01*
X189205095Y-92990476D01*
X189157476Y-93180952D01*
X189157476Y-93561904D01*
X189205095Y-93657142D01*
X189252714Y-93704761D01*
X189347952Y-93752380D01*
X189538428Y-93752380D01*
X189633666Y-93704761D01*
X189681285Y-93657142D01*
X189728904Y-93561904D01*
X189728904Y-93323809D01*
X189681285Y-93228571D01*
X189633666Y-93180952D01*
X189538428Y-93133333D01*
X189347952Y-93133333D01*
X189252714Y-93180952D01*
X189205095Y-93228571D01*
X189157476Y-93323809D01*
X175864142Y-106102380D02*
X175530809Y-105626190D01*
X175292714Y-106102380D02*
X175292714Y-105102380D01*
X175673666Y-105102380D01*
X175768904Y-105150000D01*
X175816523Y-105197619D01*
X175864142Y-105292857D01*
X175864142Y-105435714D01*
X175816523Y-105530952D01*
X175768904Y-105578571D01*
X175673666Y-105626190D01*
X175292714Y-105626190D01*
X176245095Y-105197619D02*
X176292714Y-105150000D01*
X176387952Y-105102380D01*
X176626047Y-105102380D01*
X176721285Y-105150000D01*
X176768904Y-105197619D01*
X176816523Y-105292857D01*
X176816523Y-105388095D01*
X176768904Y-105530952D01*
X176197476Y-106102380D01*
X176816523Y-106102380D01*
X177721285Y-105102380D02*
X177245095Y-105102380D01*
X177197476Y-105578571D01*
X177245095Y-105530952D01*
X177340333Y-105483333D01*
X177578428Y-105483333D01*
X177673666Y-105530952D01*
X177721285Y-105578571D01*
X177768904Y-105673809D01*
X177768904Y-105911904D01*
X177721285Y-106007142D01*
X177673666Y-106054761D01*
X177578428Y-106102380D01*
X177340333Y-106102380D01*
X177245095Y-106054761D01*
X177197476Y-106007142D01*
X196274142Y-86642380D02*
X195940809Y-86166190D01*
X195702714Y-86642380D02*
X195702714Y-85642380D01*
X196083666Y-85642380D01*
X196178904Y-85690000D01*
X196226523Y-85737619D01*
X196274142Y-85832857D01*
X196274142Y-85975714D01*
X196226523Y-86070952D01*
X196178904Y-86118571D01*
X196083666Y-86166190D01*
X195702714Y-86166190D01*
X196655095Y-85737619D02*
X196702714Y-85690000D01*
X196797952Y-85642380D01*
X197036047Y-85642380D01*
X197131285Y-85690000D01*
X197178904Y-85737619D01*
X197226523Y-85832857D01*
X197226523Y-85928095D01*
X197178904Y-86070952D01*
X196607476Y-86642380D01*
X197226523Y-86642380D01*
X198083666Y-85975714D02*
X198083666Y-86642380D01*
X197845571Y-85594761D02*
X197607476Y-86309047D01*
X198226523Y-86309047D01*
X180614142Y-100202380D02*
X180280809Y-99726190D01*
X180042714Y-100202380D02*
X180042714Y-99202380D01*
X180423666Y-99202380D01*
X180518904Y-99250000D01*
X180566523Y-99297619D01*
X180614142Y-99392857D01*
X180614142Y-99535714D01*
X180566523Y-99630952D01*
X180518904Y-99678571D01*
X180423666Y-99726190D01*
X180042714Y-99726190D01*
X180995095Y-99297619D02*
X181042714Y-99250000D01*
X181137952Y-99202380D01*
X181376047Y-99202380D01*
X181471285Y-99250000D01*
X181518904Y-99297619D01*
X181566523Y-99392857D01*
X181566523Y-99488095D01*
X181518904Y-99630952D01*
X180947476Y-100202380D01*
X181566523Y-100202380D01*
X182185571Y-99202380D02*
X182280809Y-99202380D01*
X182376047Y-99250000D01*
X182423666Y-99297619D01*
X182471285Y-99392857D01*
X182518904Y-99583333D01*
X182518904Y-99821428D01*
X182471285Y-100011904D01*
X182423666Y-100107142D01*
X182376047Y-100154761D01*
X182280809Y-100202380D01*
X182185571Y-100202380D01*
X182090333Y-100154761D01*
X182042714Y-100107142D01*
X181995095Y-100011904D01*
X181947476Y-99821428D01*
X181947476Y-99583333D01*
X181995095Y-99392857D01*
X182042714Y-99297619D01*
X182090333Y-99250000D01*
X182185571Y-99202380D01*
X175864142Y-103152380D02*
X175530809Y-102676190D01*
X175292714Y-103152380D02*
X175292714Y-102152380D01*
X175673666Y-102152380D01*
X175768904Y-102200000D01*
X175816523Y-102247619D01*
X175864142Y-102342857D01*
X175864142Y-102485714D01*
X175816523Y-102580952D01*
X175768904Y-102628571D01*
X175673666Y-102676190D01*
X175292714Y-102676190D01*
X176816523Y-103152380D02*
X176245095Y-103152380D01*
X176530809Y-103152380D02*
X176530809Y-102152380D01*
X176435571Y-102295238D01*
X176340333Y-102390476D01*
X176245095Y-102438095D01*
X177292714Y-103152380D02*
X177483190Y-103152380D01*
X177578428Y-103104761D01*
X177626047Y-103057142D01*
X177721285Y-102914285D01*
X177768904Y-102723809D01*
X177768904Y-102342857D01*
X177721285Y-102247619D01*
X177673666Y-102200000D01*
X177578428Y-102152380D01*
X177387952Y-102152380D01*
X177292714Y-102200000D01*
X177245095Y-102247619D01*
X177197476Y-102342857D01*
X177197476Y-102580952D01*
X177245095Y-102676190D01*
X177292714Y-102723809D01*
X177387952Y-102771428D01*
X177578428Y-102771428D01*
X177673666Y-102723809D01*
X177721285Y-102676190D01*
X177768904Y-102580952D01*
X189064142Y-90802380D02*
X188730809Y-90326190D01*
X188492714Y-90802380D02*
X188492714Y-89802380D01*
X188873666Y-89802380D01*
X188968904Y-89850000D01*
X189016523Y-89897619D01*
X189064142Y-89992857D01*
X189064142Y-90135714D01*
X189016523Y-90230952D01*
X188968904Y-90278571D01*
X188873666Y-90326190D01*
X188492714Y-90326190D01*
X190016523Y-90802380D02*
X189445095Y-90802380D01*
X189730809Y-90802380D02*
X189730809Y-89802380D01*
X189635571Y-89945238D01*
X189540333Y-90040476D01*
X189445095Y-90088095D01*
X190587952Y-90230952D02*
X190492714Y-90183333D01*
X190445095Y-90135714D01*
X190397476Y-90040476D01*
X190397476Y-89992857D01*
X190445095Y-89897619D01*
X190492714Y-89850000D01*
X190587952Y-89802380D01*
X190778428Y-89802380D01*
X190873666Y-89850000D01*
X190921285Y-89897619D01*
X190968904Y-89992857D01*
X190968904Y-90040476D01*
X190921285Y-90135714D01*
X190873666Y-90183333D01*
X190778428Y-90230952D01*
X190587952Y-90230952D01*
X190492714Y-90278571D01*
X190445095Y-90326190D01*
X190397476Y-90421428D01*
X190397476Y-90611904D01*
X190445095Y-90707142D01*
X190492714Y-90754761D01*
X190587952Y-90802380D01*
X190778428Y-90802380D01*
X190873666Y-90754761D01*
X190921285Y-90707142D01*
X190968904Y-90611904D01*
X190968904Y-90421428D01*
X190921285Y-90326190D01*
X190873666Y-90278571D01*
X190778428Y-90230952D01*
X184314142Y-90802380D02*
X183980809Y-90326190D01*
X183742714Y-90802380D02*
X183742714Y-89802380D01*
X184123666Y-89802380D01*
X184218904Y-89850000D01*
X184266523Y-89897619D01*
X184314142Y-89992857D01*
X184314142Y-90135714D01*
X184266523Y-90230952D01*
X184218904Y-90278571D01*
X184123666Y-90326190D01*
X183742714Y-90326190D01*
X185266523Y-90802380D02*
X184695095Y-90802380D01*
X184980809Y-90802380D02*
X184980809Y-89802380D01*
X184885571Y-89945238D01*
X184790333Y-90040476D01*
X184695095Y-90088095D01*
X185599857Y-89802380D02*
X186266523Y-89802380D01*
X185837952Y-90802380D01*
X175864142Y-97252380D02*
X175530809Y-96776190D01*
X175292714Y-97252380D02*
X175292714Y-96252380D01*
X175673666Y-96252380D01*
X175768904Y-96300000D01*
X175816523Y-96347619D01*
X175864142Y-96442857D01*
X175864142Y-96585714D01*
X175816523Y-96680952D01*
X175768904Y-96728571D01*
X175673666Y-96776190D01*
X175292714Y-96776190D01*
X176816523Y-97252380D02*
X176245095Y-97252380D01*
X176530809Y-97252380D02*
X176530809Y-96252380D01*
X176435571Y-96395238D01*
X176340333Y-96490476D01*
X176245095Y-96538095D01*
X177149857Y-96252380D02*
X177768904Y-96252380D01*
X177435571Y-96633333D01*
X177578428Y-96633333D01*
X177673666Y-96680952D01*
X177721285Y-96728571D01*
X177768904Y-96823809D01*
X177768904Y-97061904D01*
X177721285Y-97157142D01*
X177673666Y-97204761D01*
X177578428Y-97252380D01*
X177292714Y-97252380D01*
X177197476Y-97204761D01*
X177149857Y-97157142D01*
X180614142Y-97252380D02*
X180280809Y-96776190D01*
X180042714Y-97252380D02*
X180042714Y-96252380D01*
X180423666Y-96252380D01*
X180518904Y-96300000D01*
X180566523Y-96347619D01*
X180614142Y-96442857D01*
X180614142Y-96585714D01*
X180566523Y-96680952D01*
X180518904Y-96728571D01*
X180423666Y-96776190D01*
X180042714Y-96776190D01*
X181566523Y-97252380D02*
X180995095Y-97252380D01*
X181280809Y-97252380D02*
X181280809Y-96252380D01*
X181185571Y-96395238D01*
X181090333Y-96490476D01*
X180995095Y-96538095D01*
X181947476Y-96347619D02*
X181995095Y-96300000D01*
X182090333Y-96252380D01*
X182328428Y-96252380D01*
X182423666Y-96300000D01*
X182471285Y-96347619D01*
X182518904Y-96442857D01*
X182518904Y-96538095D01*
X182471285Y-96680952D01*
X181899857Y-97252380D01*
X182518904Y-97252380D01*
X200011761Y-95537619D02*
X199916523Y-95490000D01*
X199821285Y-95394761D01*
X199678428Y-95251904D01*
X199583190Y-95204285D01*
X199487952Y-95204285D01*
X199535571Y-95442380D02*
X199440333Y-95394761D01*
X199345095Y-95299523D01*
X199297476Y-95109047D01*
X199297476Y-94775714D01*
X199345095Y-94585238D01*
X199440333Y-94490000D01*
X199535571Y-94442380D01*
X199726047Y-94442380D01*
X199821285Y-94490000D01*
X199916523Y-94585238D01*
X199964142Y-94775714D01*
X199964142Y-95109047D01*
X199916523Y-95299523D01*
X199821285Y-95394761D01*
X199726047Y-95442380D01*
X199535571Y-95442380D01*
X200916523Y-95442380D02*
X200345095Y-95442380D01*
X200630809Y-95442380D02*
X200630809Y-94442380D01*
X200535571Y-94585238D01*
X200440333Y-94680476D01*
X200345095Y-94728095D01*
X211995580Y-109462866D02*
X211995580Y-109939057D01*
X210995580Y-109939057D01*
X211995580Y-108605723D02*
X211995580Y-109177152D01*
X211995580Y-108891438D02*
X210995580Y-108891438D01*
X211138438Y-108986676D01*
X211233676Y-109081914D01*
X211281295Y-109177152D01*
X145740380Y-134596095D02*
X144740380Y-134596095D01*
X144740380Y-134358000D01*
X144788000Y-134215142D01*
X144883238Y-134119904D01*
X144978476Y-134072285D01*
X145168952Y-134024666D01*
X145311809Y-134024666D01*
X145502285Y-134072285D01*
X145597523Y-134119904D01*
X145692761Y-134215142D01*
X145740380Y-134358000D01*
X145740380Y-134596095D01*
X145168952Y-133453238D02*
X145121333Y-133548476D01*
X145073714Y-133596095D01*
X144978476Y-133643714D01*
X144930857Y-133643714D01*
X144835619Y-133596095D01*
X144788000Y-133548476D01*
X144740380Y-133453238D01*
X144740380Y-133262761D01*
X144788000Y-133167523D01*
X144835619Y-133119904D01*
X144930857Y-133072285D01*
X144978476Y-133072285D01*
X145073714Y-133119904D01*
X145121333Y-133167523D01*
X145168952Y-133262761D01*
X145168952Y-133453238D01*
X145216571Y-133548476D01*
X145264190Y-133596095D01*
X145359428Y-133643714D01*
X145549904Y-133643714D01*
X145645142Y-133596095D01*
X145692761Y-133548476D01*
X145740380Y-133453238D01*
X145740380Y-133262761D01*
X145692761Y-133167523D01*
X145645142Y-133119904D01*
X145549904Y-133072285D01*
X145359428Y-133072285D01*
X145264190Y-133119904D01*
X145216571Y-133167523D01*
X145168952Y-133262761D01*
X177001904Y-93065380D02*
X177001904Y-92065380D01*
X177240000Y-92065380D01*
X177382857Y-92113000D01*
X177478095Y-92208238D01*
X177525714Y-92303476D01*
X177573333Y-92493952D01*
X177573333Y-92636809D01*
X177525714Y-92827285D01*
X177478095Y-92922523D01*
X177382857Y-93017761D01*
X177240000Y-93065380D01*
X177001904Y-93065380D01*
X177906666Y-92065380D02*
X178573333Y-92065380D01*
X178144761Y-93065380D01*
X208521580Y-85383595D02*
X207521580Y-85383595D01*
X207521580Y-85145500D01*
X207569200Y-85002642D01*
X207664438Y-84907404D01*
X207759676Y-84859785D01*
X207950152Y-84812166D01*
X208093009Y-84812166D01*
X208283485Y-84859785D01*
X208378723Y-84907404D01*
X208473961Y-85002642D01*
X208521580Y-85145500D01*
X208521580Y-85383595D01*
X207521580Y-83907404D02*
X207521580Y-84383595D01*
X207997771Y-84431214D01*
X207950152Y-84383595D01*
X207902533Y-84288357D01*
X207902533Y-84050261D01*
X207950152Y-83955023D01*
X207997771Y-83907404D01*
X208093009Y-83859785D01*
X208331104Y-83859785D01*
X208426342Y-83907404D01*
X208473961Y-83955023D01*
X208521580Y-84050261D01*
X208521580Y-84288357D01*
X208473961Y-84383595D01*
X208426342Y-84431214D01*
X184457580Y-61380595D02*
X183457580Y-61380595D01*
X183457580Y-61142500D01*
X183505200Y-60999642D01*
X183600438Y-60904404D01*
X183695676Y-60856785D01*
X183886152Y-60809166D01*
X184029009Y-60809166D01*
X184219485Y-60856785D01*
X184314723Y-60904404D01*
X184409961Y-60999642D01*
X184457580Y-61142500D01*
X184457580Y-61380595D01*
X183790914Y-59952023D02*
X184457580Y-59952023D01*
X183409961Y-60190119D02*
X184124247Y-60428214D01*
X184124247Y-59809166D01*
X185451904Y-86615380D02*
X185451904Y-85615380D01*
X185690000Y-85615380D01*
X185832857Y-85663000D01*
X185928095Y-85758238D01*
X185975714Y-85853476D01*
X186023333Y-86043952D01*
X186023333Y-86186809D01*
X185975714Y-86377285D01*
X185928095Y-86472523D01*
X185832857Y-86567761D01*
X185690000Y-86615380D01*
X185451904Y-86615380D01*
X186404285Y-85710619D02*
X186451904Y-85663000D01*
X186547142Y-85615380D01*
X186785238Y-85615380D01*
X186880476Y-85663000D01*
X186928095Y-85710619D01*
X186975714Y-85805857D01*
X186975714Y-85901095D01*
X186928095Y-86043952D01*
X186356666Y-86615380D01*
X186975714Y-86615380D01*
X183074142Y-93657142D02*
X183026523Y-93704761D01*
X182883666Y-93752380D01*
X182788428Y-93752380D01*
X182645571Y-93704761D01*
X182550333Y-93609523D01*
X182502714Y-93514285D01*
X182455095Y-93323809D01*
X182455095Y-93180952D01*
X182502714Y-92990476D01*
X182550333Y-92895238D01*
X182645571Y-92800000D01*
X182788428Y-92752380D01*
X182883666Y-92752380D01*
X183026523Y-92800000D01*
X183074142Y-92847619D01*
X184026523Y-93752380D02*
X183455095Y-93752380D01*
X183740809Y-93752380D02*
X183740809Y-92752380D01*
X183645571Y-92895238D01*
X183550333Y-92990476D01*
X183455095Y-93038095D01*
X184978904Y-93752380D02*
X184407476Y-93752380D01*
X184693190Y-93752380D02*
X184693190Y-92752380D01*
X184597952Y-92895238D01*
X184502714Y-92990476D01*
X184407476Y-93038095D01*
X166965333Y-86447142D02*
X166917714Y-86494761D01*
X166774857Y-86542380D01*
X166679619Y-86542380D01*
X166536761Y-86494761D01*
X166441523Y-86399523D01*
X166393904Y-86304285D01*
X166346285Y-86113809D01*
X166346285Y-85970952D01*
X166393904Y-85780476D01*
X166441523Y-85685238D01*
X166536761Y-85590000D01*
X166679619Y-85542380D01*
X166774857Y-85542380D01*
X166917714Y-85590000D01*
X166965333Y-85637619D01*
X167870095Y-85542380D02*
X167393904Y-85542380D01*
X167346285Y-86018571D01*
X167393904Y-85970952D01*
X167489142Y-85923333D01*
X167727238Y-85923333D01*
X167822476Y-85970952D01*
X167870095Y-86018571D01*
X167917714Y-86113809D01*
X167917714Y-86351904D01*
X167870095Y-86447142D01*
X167822476Y-86494761D01*
X167727238Y-86542380D01*
X167489142Y-86542380D01*
X167393904Y-86494761D01*
X167346285Y-86447142D01*
X192000333Y-86547142D02*
X191952714Y-86594761D01*
X191809857Y-86642380D01*
X191714619Y-86642380D01*
X191571761Y-86594761D01*
X191476523Y-86499523D01*
X191428904Y-86404285D01*
X191381285Y-86213809D01*
X191381285Y-86070952D01*
X191428904Y-85880476D01*
X191476523Y-85785238D01*
X191571761Y-85690000D01*
X191714619Y-85642380D01*
X191809857Y-85642380D01*
X191952714Y-85690000D01*
X192000333Y-85737619D01*
X192857476Y-85975714D02*
X192857476Y-86642380D01*
X192619380Y-85594761D02*
X192381285Y-86309047D01*
X193000333Y-86309047D01*
X166965333Y-98297142D02*
X166917714Y-98344761D01*
X166774857Y-98392380D01*
X166679619Y-98392380D01*
X166536761Y-98344761D01*
X166441523Y-98249523D01*
X166393904Y-98154285D01*
X166346285Y-97963809D01*
X166346285Y-97820952D01*
X166393904Y-97630476D01*
X166441523Y-97535238D01*
X166536761Y-97440000D01*
X166679619Y-97392380D01*
X166774857Y-97392380D01*
X166917714Y-97440000D01*
X166965333Y-97487619D01*
X167298666Y-97392380D02*
X167917714Y-97392380D01*
X167584380Y-97773333D01*
X167727238Y-97773333D01*
X167822476Y-97820952D01*
X167870095Y-97868571D01*
X167917714Y-97963809D01*
X167917714Y-98201904D01*
X167870095Y-98297142D01*
X167822476Y-98344761D01*
X167727238Y-98392380D01*
X167441523Y-98392380D01*
X167346285Y-98344761D01*
X167298666Y-98297142D01*
X218950542Y-69838866D02*
X218998161Y-69886485D01*
X219045780Y-70029342D01*
X219045780Y-70124580D01*
X218998161Y-70267438D01*
X218902923Y-70362676D01*
X218807685Y-70410295D01*
X218617209Y-70457914D01*
X218474352Y-70457914D01*
X218283876Y-70410295D01*
X218188638Y-70362676D01*
X218093400Y-70267438D01*
X218045780Y-70124580D01*
X218045780Y-70029342D01*
X218093400Y-69886485D01*
X218141019Y-69838866D01*
X218141019Y-69457914D02*
X218093400Y-69410295D01*
X218045780Y-69315057D01*
X218045780Y-69076961D01*
X218093400Y-68981723D01*
X218141019Y-68934104D01*
X218236257Y-68886485D01*
X218331495Y-68886485D01*
X218474352Y-68934104D01*
X219045780Y-69505533D01*
X219045780Y-68886485D01*
X139863580Y-67938933D02*
X140577866Y-67938933D01*
X140720723Y-67986552D01*
X140815961Y-68081790D01*
X140863580Y-68224647D01*
X140863580Y-68319885D01*
X140863580Y-66938933D02*
X140863580Y-67510361D01*
X140863580Y-67224647D02*
X139863580Y-67224647D01*
X140006438Y-67319885D01*
X140101676Y-67415123D01*
X140149295Y-67510361D01*
X146418666Y-138390380D02*
X146418666Y-139104666D01*
X146371047Y-139247523D01*
X146275809Y-139342761D01*
X146132952Y-139390380D01*
X146037714Y-139390380D01*
X146847238Y-138485619D02*
X146894857Y-138438000D01*
X146990095Y-138390380D01*
X147228190Y-138390380D01*
X147323428Y-138438000D01*
X147371047Y-138485619D01*
X147418666Y-138580857D01*
X147418666Y-138676095D01*
X147371047Y-138818952D01*
X146799619Y-139390380D01*
X147418666Y-139390380D01*
X166851104Y-67375180D02*
X166851104Y-66375180D01*
X167089200Y-66375180D01*
X167232057Y-66422800D01*
X167327295Y-66518038D01*
X167374914Y-66613276D01*
X167422533Y-66803752D01*
X167422533Y-66946609D01*
X167374914Y-67137085D01*
X167327295Y-67232323D01*
X167232057Y-67327561D01*
X167089200Y-67375180D01*
X166851104Y-67375180D01*
X167755866Y-66375180D02*
X168374914Y-66375180D01*
X168041580Y-66756133D01*
X168184438Y-66756133D01*
X168279676Y-66803752D01*
X168327295Y-66851371D01*
X168374914Y-66946609D01*
X168374914Y-67184704D01*
X168327295Y-67279942D01*
X168279676Y-67327561D01*
X168184438Y-67375180D01*
X167898723Y-67375180D01*
X167803485Y-67327561D01*
X167755866Y-67279942D01*
X148309104Y-72258180D02*
X148309104Y-71258180D01*
X148547200Y-71258180D01*
X148690057Y-71305800D01*
X148785295Y-71401038D01*
X148832914Y-71496276D01*
X148880533Y-71686752D01*
X148880533Y-71829609D01*
X148832914Y-72020085D01*
X148785295Y-72115323D01*
X148690057Y-72210561D01*
X148547200Y-72258180D01*
X148309104Y-72258180D01*
X149832914Y-72258180D02*
X149261485Y-72258180D01*
X149547200Y-72258180D02*
X149547200Y-71258180D01*
X149451961Y-71401038D01*
X149356723Y-71496276D01*
X149261485Y-71543895D01*
X173875795Y-116609880D02*
X173875795Y-117419404D01*
X173923414Y-117514642D01*
X173971033Y-117562261D01*
X174066271Y-117609880D01*
X174256747Y-117609880D01*
X174351985Y-117562261D01*
X174399604Y-117514642D01*
X174447223Y-117419404D01*
X174447223Y-116609880D01*
X175351985Y-116943214D02*
X175351985Y-117609880D01*
X175113890Y-116562261D02*
X174875795Y-117276547D01*
X175494842Y-117276547D01*
X151475342Y-124182142D02*
X151427723Y-124229761D01*
X151284866Y-124277380D01*
X151189628Y-124277380D01*
X151046771Y-124229761D01*
X150951533Y-124134523D01*
X150903914Y-124039285D01*
X150856295Y-123848809D01*
X150856295Y-123705952D01*
X150903914Y-123515476D01*
X150951533Y-123420238D01*
X151046771Y-123325000D01*
X151189628Y-123277380D01*
X151284866Y-123277380D01*
X151427723Y-123325000D01*
X151475342Y-123372619D01*
X152427723Y-124277380D02*
X151856295Y-124277380D01*
X152142009Y-124277380D02*
X152142009Y-123277380D01*
X152046771Y-123420238D01*
X151951533Y-123515476D01*
X151856295Y-123563095D01*
X153046771Y-123277380D02*
X153142009Y-123277380D01*
X153237247Y-123325000D01*
X153284866Y-123372619D01*
X153332485Y-123467857D01*
X153380104Y-123658333D01*
X153380104Y-123896428D01*
X153332485Y-124086904D01*
X153284866Y-124182142D01*
X153237247Y-124229761D01*
X153142009Y-124277380D01*
X153046771Y-124277380D01*
X152951533Y-124229761D01*
X152903914Y-124182142D01*
X152856295Y-124086904D01*
X152808676Y-123896428D01*
X152808676Y-123658333D01*
X152856295Y-123467857D01*
X152903914Y-123372619D01*
X152951533Y-123325000D01*
X153046771Y-123277380D01*
X150709333Y-130405142D02*
X150661714Y-130452761D01*
X150518857Y-130500380D01*
X150423619Y-130500380D01*
X150280761Y-130452761D01*
X150185523Y-130357523D01*
X150137904Y-130262285D01*
X150090285Y-130071809D01*
X150090285Y-129928952D01*
X150137904Y-129738476D01*
X150185523Y-129643238D01*
X150280761Y-129548000D01*
X150423619Y-129500380D01*
X150518857Y-129500380D01*
X150661714Y-129548000D01*
X150709333Y-129595619D01*
X151185523Y-130500380D02*
X151376000Y-130500380D01*
X151471238Y-130452761D01*
X151518857Y-130405142D01*
X151614095Y-130262285D01*
X151661714Y-130071809D01*
X151661714Y-129690857D01*
X151614095Y-129595619D01*
X151566476Y-129548000D01*
X151471238Y-129500380D01*
X151280761Y-129500380D01*
X151185523Y-129548000D01*
X151137904Y-129595619D01*
X151090285Y-129690857D01*
X151090285Y-129928952D01*
X151137904Y-130024190D01*
X151185523Y-130071809D01*
X151280761Y-130119428D01*
X151471238Y-130119428D01*
X151566476Y-130071809D01*
X151614095Y-130024190D01*
X151661714Y-129928952D01*
X150709333Y-133707142D02*
X150661714Y-133754761D01*
X150518857Y-133802380D01*
X150423619Y-133802380D01*
X150280761Y-133754761D01*
X150185523Y-133659523D01*
X150137904Y-133564285D01*
X150090285Y-133373809D01*
X150090285Y-133230952D01*
X150137904Y-133040476D01*
X150185523Y-132945238D01*
X150280761Y-132850000D01*
X150423619Y-132802380D01*
X150518857Y-132802380D01*
X150661714Y-132850000D01*
X150709333Y-132897619D01*
X151280761Y-133230952D02*
X151185523Y-133183333D01*
X151137904Y-133135714D01*
X151090285Y-133040476D01*
X151090285Y-132992857D01*
X151137904Y-132897619D01*
X151185523Y-132850000D01*
X151280761Y-132802380D01*
X151471238Y-132802380D01*
X151566476Y-132850000D01*
X151614095Y-132897619D01*
X151661714Y-132992857D01*
X151661714Y-133040476D01*
X151614095Y-133135714D01*
X151566476Y-133183333D01*
X151471238Y-133230952D01*
X151280761Y-133230952D01*
X151185523Y-133278571D01*
X151137904Y-133326190D01*
X151090285Y-133421428D01*
X151090285Y-133611904D01*
X151137904Y-133707142D01*
X151185523Y-133754761D01*
X151280761Y-133802380D01*
X151471238Y-133802380D01*
X151566476Y-133754761D01*
X151614095Y-133707142D01*
X151661714Y-133611904D01*
X151661714Y-133421428D01*
X151614095Y-133326190D01*
X151566476Y-133278571D01*
X151471238Y-133230952D01*
X144360571Y-125547333D02*
X144360571Y-125880666D01*
X144884380Y-125880666D02*
X143884380Y-125880666D01*
X143884380Y-125404476D01*
X144360571Y-124690190D02*
X144408190Y-124547333D01*
X144455809Y-124499714D01*
X144551047Y-124452095D01*
X144693904Y-124452095D01*
X144789142Y-124499714D01*
X144836761Y-124547333D01*
X144884380Y-124642571D01*
X144884380Y-125023523D01*
X143884380Y-125023523D01*
X143884380Y-124690190D01*
X143932000Y-124594952D01*
X143979619Y-124547333D01*
X144074857Y-124499714D01*
X144170095Y-124499714D01*
X144265333Y-124547333D01*
X144312952Y-124594952D01*
X144360571Y-124690190D01*
X144360571Y-125023523D01*
X144884380Y-123499714D02*
X144884380Y-124071142D01*
X144884380Y-123785428D02*
X143884380Y-123785428D01*
X144027238Y-123880666D01*
X144122476Y-123975904D01*
X144170095Y-124071142D01*
X135776571Y-128857333D02*
X135776571Y-129190666D01*
X136300380Y-129190666D02*
X135300380Y-129190666D01*
X135300380Y-128714476D01*
X136300380Y-127809714D02*
X136300380Y-128381142D01*
X136300380Y-128095428D02*
X135300380Y-128095428D01*
X135443238Y-128190666D01*
X135538476Y-128285904D01*
X135586095Y-128381142D01*
X172470842Y-114306880D02*
X172137509Y-113830690D01*
X171899414Y-114306880D02*
X171899414Y-113306880D01*
X172280366Y-113306880D01*
X172375604Y-113354500D01*
X172423223Y-113402119D01*
X172470842Y-113497357D01*
X172470842Y-113640214D01*
X172423223Y-113735452D01*
X172375604Y-113783071D01*
X172280366Y-113830690D01*
X171899414Y-113830690D01*
X172804176Y-113306880D02*
X173423223Y-113306880D01*
X173089890Y-113687833D01*
X173232747Y-113687833D01*
X173327985Y-113735452D01*
X173375604Y-113783071D01*
X173423223Y-113878309D01*
X173423223Y-114116404D01*
X173375604Y-114211642D01*
X173327985Y-114259261D01*
X173232747Y-114306880D01*
X172947033Y-114306880D01*
X172851795Y-114259261D01*
X172804176Y-114211642D01*
X173756557Y-113306880D02*
X174423223Y-113306880D01*
X173994652Y-114306880D01*
X171571180Y-127532257D02*
X171094990Y-127865590D01*
X171571180Y-128103685D02*
X170571180Y-128103685D01*
X170571180Y-127722733D01*
X170618800Y-127627495D01*
X170666419Y-127579876D01*
X170761657Y-127532257D01*
X170904514Y-127532257D01*
X170999752Y-127579876D01*
X171047371Y-127627495D01*
X171094990Y-127722733D01*
X171094990Y-128103685D01*
X170571180Y-127198923D02*
X170571180Y-126579876D01*
X170952133Y-126913209D01*
X170952133Y-126770352D01*
X170999752Y-126675114D01*
X171047371Y-126627495D01*
X171142609Y-126579876D01*
X171380704Y-126579876D01*
X171475942Y-126627495D01*
X171523561Y-126675114D01*
X171571180Y-126770352D01*
X171571180Y-127056066D01*
X171523561Y-127151304D01*
X171475942Y-127198923D01*
X170571180Y-125722733D02*
X170571180Y-125913209D01*
X170618800Y-126008447D01*
X170666419Y-126056066D01*
X170809276Y-126151304D01*
X170999752Y-126198923D01*
X171380704Y-126198923D01*
X171475942Y-126151304D01*
X171523561Y-126103685D01*
X171571180Y-126008447D01*
X171571180Y-125817971D01*
X171523561Y-125722733D01*
X171475942Y-125675114D01*
X171380704Y-125627495D01*
X171142609Y-125627495D01*
X171047371Y-125675114D01*
X170999752Y-125722733D01*
X170952133Y-125817971D01*
X170952133Y-126008447D01*
X170999752Y-126103685D01*
X171047371Y-126151304D01*
X171142609Y-126198923D01*
X186912780Y-127532257D02*
X186436590Y-127865590D01*
X186912780Y-128103685D02*
X185912780Y-128103685D01*
X185912780Y-127722733D01*
X185960400Y-127627495D01*
X186008019Y-127579876D01*
X186103257Y-127532257D01*
X186246114Y-127532257D01*
X186341352Y-127579876D01*
X186388971Y-127627495D01*
X186436590Y-127722733D01*
X186436590Y-128103685D01*
X186912780Y-126579876D02*
X186912780Y-127151304D01*
X186912780Y-126865590D02*
X185912780Y-126865590D01*
X186055638Y-126960828D01*
X186150876Y-127056066D01*
X186198495Y-127151304D01*
X185912780Y-125675114D02*
X185912780Y-126151304D01*
X186388971Y-126198923D01*
X186341352Y-126151304D01*
X186293733Y-126056066D01*
X186293733Y-125817971D01*
X186341352Y-125722733D01*
X186388971Y-125675114D01*
X186484209Y-125627495D01*
X186722304Y-125627495D01*
X186817542Y-125675114D01*
X186865161Y-125722733D01*
X186912780Y-125817971D01*
X186912780Y-126056066D01*
X186865161Y-126151304D01*
X186817542Y-126198923D01*
X136825980Y-99347257D02*
X136349790Y-99680590D01*
X136825980Y-99918685D02*
X135825980Y-99918685D01*
X135825980Y-99537733D01*
X135873600Y-99442495D01*
X135921219Y-99394876D01*
X136016457Y-99347257D01*
X136159314Y-99347257D01*
X136254552Y-99394876D01*
X136302171Y-99442495D01*
X136349790Y-99537733D01*
X136349790Y-99918685D01*
X136159314Y-98490114D02*
X136825980Y-98490114D01*
X135778361Y-98728209D02*
X136492647Y-98966304D01*
X136492647Y-98347257D01*
X135921219Y-98013923D02*
X135873600Y-97966304D01*
X135825980Y-97871066D01*
X135825980Y-97632971D01*
X135873600Y-97537733D01*
X135921219Y-97490114D01*
X136016457Y-97442495D01*
X136111695Y-97442495D01*
X136254552Y-97490114D01*
X136825980Y-98061542D01*
X136825980Y-97442495D01*
X141905980Y-99398057D02*
X141429790Y-99731390D01*
X141905980Y-99969485D02*
X140905980Y-99969485D01*
X140905980Y-99588533D01*
X140953600Y-99493295D01*
X141001219Y-99445676D01*
X141096457Y-99398057D01*
X141239314Y-99398057D01*
X141334552Y-99445676D01*
X141382171Y-99493295D01*
X141429790Y-99588533D01*
X141429790Y-99969485D01*
X141001219Y-99017104D02*
X140953600Y-98969485D01*
X140905980Y-98874247D01*
X140905980Y-98636152D01*
X140953600Y-98540914D01*
X141001219Y-98493295D01*
X141096457Y-98445676D01*
X141191695Y-98445676D01*
X141334552Y-98493295D01*
X141905980Y-99064723D01*
X141905980Y-98445676D01*
X141905980Y-97493295D02*
X141905980Y-98064723D01*
X141905980Y-97779009D02*
X140905980Y-97779009D01*
X141048838Y-97874247D01*
X141144076Y-97969485D01*
X141191695Y-98064723D01*
X168571942Y-117343180D02*
X168238609Y-116866990D01*
X168000514Y-117343180D02*
X168000514Y-116343180D01*
X168381466Y-116343180D01*
X168476704Y-116390800D01*
X168524323Y-116438419D01*
X168571942Y-116533657D01*
X168571942Y-116676514D01*
X168524323Y-116771752D01*
X168476704Y-116819371D01*
X168381466Y-116866990D01*
X168000514Y-116866990D01*
X168905276Y-116343180D02*
X169524323Y-116343180D01*
X169190990Y-116724133D01*
X169333847Y-116724133D01*
X169429085Y-116771752D01*
X169476704Y-116819371D01*
X169524323Y-116914609D01*
X169524323Y-117152704D01*
X169476704Y-117247942D01*
X169429085Y-117295561D01*
X169333847Y-117343180D01*
X169048133Y-117343180D01*
X168952895Y-117295561D01*
X168905276Y-117247942D01*
X170143371Y-116343180D02*
X170238609Y-116343180D01*
X170333847Y-116390800D01*
X170381466Y-116438419D01*
X170429085Y-116533657D01*
X170476704Y-116724133D01*
X170476704Y-116962228D01*
X170429085Y-117152704D01*
X170381466Y-117247942D01*
X170333847Y-117295561D01*
X170238609Y-117343180D01*
X170143371Y-117343180D01*
X170048133Y-117295561D01*
X170000514Y-117247942D01*
X169952895Y-117152704D01*
X169905276Y-116962228D01*
X169905276Y-116724133D01*
X169952895Y-116533657D01*
X170000514Y-116438419D01*
X170048133Y-116390800D01*
X170143371Y-116343180D01*
X178757342Y-111006880D02*
X178424009Y-110530690D01*
X178185914Y-111006880D02*
X178185914Y-110006880D01*
X178566866Y-110006880D01*
X178662104Y-110054500D01*
X178709723Y-110102119D01*
X178757342Y-110197357D01*
X178757342Y-110340214D01*
X178709723Y-110435452D01*
X178662104Y-110483071D01*
X178566866Y-110530690D01*
X178185914Y-110530690D01*
X179709723Y-111006880D02*
X179138295Y-111006880D01*
X179424009Y-111006880D02*
X179424009Y-110006880D01*
X179328771Y-110149738D01*
X179233533Y-110244976D01*
X179138295Y-110292595D01*
X180566866Y-110006880D02*
X180376390Y-110006880D01*
X180281152Y-110054500D01*
X180233533Y-110102119D01*
X180138295Y-110244976D01*
X180090676Y-110435452D01*
X180090676Y-110816404D01*
X180138295Y-110911642D01*
X180185914Y-110959261D01*
X180281152Y-111006880D01*
X180471628Y-111006880D01*
X180566866Y-110959261D01*
X180614485Y-110911642D01*
X180662104Y-110816404D01*
X180662104Y-110578309D01*
X180614485Y-110483071D01*
X180566866Y-110435452D01*
X180471628Y-110387833D01*
X180281152Y-110387833D01*
X180185914Y-110435452D01*
X180138295Y-110483071D01*
X180090676Y-110578309D01*
X162729942Y-117393980D02*
X162396609Y-116917790D01*
X162158514Y-117393980D02*
X162158514Y-116393980D01*
X162539466Y-116393980D01*
X162634704Y-116441600D01*
X162682323Y-116489219D01*
X162729942Y-116584457D01*
X162729942Y-116727314D01*
X162682323Y-116822552D01*
X162634704Y-116870171D01*
X162539466Y-116917790D01*
X162158514Y-116917790D01*
X163110895Y-116489219D02*
X163158514Y-116441600D01*
X163253752Y-116393980D01*
X163491847Y-116393980D01*
X163587085Y-116441600D01*
X163634704Y-116489219D01*
X163682323Y-116584457D01*
X163682323Y-116679695D01*
X163634704Y-116822552D01*
X163063276Y-117393980D01*
X163682323Y-117393980D01*
X164158514Y-117393980D02*
X164348990Y-117393980D01*
X164444228Y-117346361D01*
X164491847Y-117298742D01*
X164587085Y-117155885D01*
X164634704Y-116965409D01*
X164634704Y-116584457D01*
X164587085Y-116489219D01*
X164539466Y-116441600D01*
X164444228Y-116393980D01*
X164253752Y-116393980D01*
X164158514Y-116441600D01*
X164110895Y-116489219D01*
X164063276Y-116584457D01*
X164063276Y-116822552D01*
X164110895Y-116917790D01*
X164158514Y-116965409D01*
X164253752Y-117013028D01*
X164444228Y-117013028D01*
X164539466Y-116965409D01*
X164587085Y-116917790D01*
X164634704Y-116822552D01*
X150235180Y-115552457D02*
X149758990Y-115885790D01*
X150235180Y-116123885D02*
X149235180Y-116123885D01*
X149235180Y-115742933D01*
X149282800Y-115647695D01*
X149330419Y-115600076D01*
X149425657Y-115552457D01*
X149568514Y-115552457D01*
X149663752Y-115600076D01*
X149711371Y-115647695D01*
X149758990Y-115742933D01*
X149758990Y-116123885D01*
X150235180Y-114600076D02*
X150235180Y-115171504D01*
X150235180Y-114885790D02*
X149235180Y-114885790D01*
X149378038Y-114981028D01*
X149473276Y-115076266D01*
X149520895Y-115171504D01*
X149235180Y-113981028D02*
X149235180Y-113885790D01*
X149282800Y-113790552D01*
X149330419Y-113742933D01*
X149425657Y-113695314D01*
X149616133Y-113647695D01*
X149854228Y-113647695D01*
X150044704Y-113695314D01*
X150139942Y-113742933D01*
X150187561Y-113790552D01*
X150235180Y-113885790D01*
X150235180Y-113981028D01*
X150187561Y-114076266D01*
X150139942Y-114123885D01*
X150044704Y-114171504D01*
X149854228Y-114219123D01*
X149616133Y-114219123D01*
X149425657Y-114171504D01*
X149330419Y-114123885D01*
X149282800Y-114076266D01*
X149235180Y-113981028D01*
X205761580Y-81287857D02*
X205285390Y-81621190D01*
X205761580Y-81859285D02*
X204761580Y-81859285D01*
X204761580Y-81478333D01*
X204809200Y-81383095D01*
X204856819Y-81335476D01*
X204952057Y-81287857D01*
X205094914Y-81287857D01*
X205190152Y-81335476D01*
X205237771Y-81383095D01*
X205285390Y-81478333D01*
X205285390Y-81859285D01*
X205761580Y-80335476D02*
X205761580Y-80906904D01*
X205761580Y-80621190D02*
X204761580Y-80621190D01*
X204904438Y-80716428D01*
X204999676Y-80811666D01*
X205047295Y-80906904D01*
X205761580Y-79383095D02*
X205761580Y-79954523D01*
X205761580Y-79668809D02*
X204761580Y-79668809D01*
X204904438Y-79764047D01*
X204999676Y-79859285D01*
X205047295Y-79954523D01*
X208301580Y-81192666D02*
X207825390Y-81526000D01*
X208301580Y-81764095D02*
X207301580Y-81764095D01*
X207301580Y-81383142D01*
X207349200Y-81287904D01*
X207396819Y-81240285D01*
X207492057Y-81192666D01*
X207634914Y-81192666D01*
X207730152Y-81240285D01*
X207777771Y-81287904D01*
X207825390Y-81383142D01*
X207825390Y-81764095D01*
X208301580Y-80716476D02*
X208301580Y-80526000D01*
X208253961Y-80430761D01*
X208206342Y-80383142D01*
X208063485Y-80287904D01*
X207873009Y-80240285D01*
X207492057Y-80240285D01*
X207396819Y-80287904D01*
X207349200Y-80335523D01*
X207301580Y-80430761D01*
X207301580Y-80621238D01*
X207349200Y-80716476D01*
X207396819Y-80764095D01*
X207492057Y-80811714D01*
X207730152Y-80811714D01*
X207825390Y-80764095D01*
X207873009Y-80716476D01*
X207920628Y-80621238D01*
X207920628Y-80430761D01*
X207873009Y-80335523D01*
X207825390Y-80287904D01*
X207730152Y-80240285D01*
X203347580Y-65952666D02*
X202871390Y-66286000D01*
X203347580Y-66524095D02*
X202347580Y-66524095D01*
X202347580Y-66143142D01*
X202395200Y-66047904D01*
X202442819Y-66000285D01*
X202538057Y-65952666D01*
X202680914Y-65952666D01*
X202776152Y-66000285D01*
X202823771Y-66047904D01*
X202871390Y-66143142D01*
X202871390Y-66524095D01*
X202776152Y-65381238D02*
X202728533Y-65476476D01*
X202680914Y-65524095D01*
X202585676Y-65571714D01*
X202538057Y-65571714D01*
X202442819Y-65524095D01*
X202395200Y-65476476D01*
X202347580Y-65381238D01*
X202347580Y-65190761D01*
X202395200Y-65095523D01*
X202442819Y-65047904D01*
X202538057Y-65000285D01*
X202585676Y-65000285D01*
X202680914Y-65047904D01*
X202728533Y-65095523D01*
X202776152Y-65190761D01*
X202776152Y-65381238D01*
X202823771Y-65476476D01*
X202871390Y-65524095D01*
X202966628Y-65571714D01*
X203157104Y-65571714D01*
X203252342Y-65524095D01*
X203299961Y-65476476D01*
X203347580Y-65381238D01*
X203347580Y-65190761D01*
X203299961Y-65095523D01*
X203252342Y-65047904D01*
X203157104Y-65000285D01*
X202966628Y-65000285D01*
X202871390Y-65047904D01*
X202823771Y-65095523D01*
X202776152Y-65190761D01*
X181376580Y-64238166D02*
X180900390Y-64571500D01*
X181376580Y-64809595D02*
X180376580Y-64809595D01*
X180376580Y-64428642D01*
X180424200Y-64333404D01*
X180471819Y-64285785D01*
X180567057Y-64238166D01*
X180709914Y-64238166D01*
X180805152Y-64285785D01*
X180852771Y-64333404D01*
X180900390Y-64428642D01*
X180900390Y-64809595D01*
X180709914Y-63381023D02*
X181376580Y-63381023D01*
X180328961Y-63619119D02*
X181043247Y-63857214D01*
X181043247Y-63238166D01*
X198013580Y-117000257D02*
X197537390Y-117333590D01*
X198013580Y-117571685D02*
X197013580Y-117571685D01*
X197013580Y-117190733D01*
X197061200Y-117095495D01*
X197108819Y-117047876D01*
X197204057Y-117000257D01*
X197346914Y-117000257D01*
X197442152Y-117047876D01*
X197489771Y-117095495D01*
X197537390Y-117190733D01*
X197537390Y-117571685D01*
X197013580Y-116666923D02*
X197013580Y-116047876D01*
X197394533Y-116381209D01*
X197394533Y-116238352D01*
X197442152Y-116143114D01*
X197489771Y-116095495D01*
X197585009Y-116047876D01*
X197823104Y-116047876D01*
X197918342Y-116095495D01*
X197965961Y-116143114D01*
X198013580Y-116238352D01*
X198013580Y-116524066D01*
X197965961Y-116619304D01*
X197918342Y-116666923D01*
X197442152Y-115476447D02*
X197394533Y-115571685D01*
X197346914Y-115619304D01*
X197251676Y-115666923D01*
X197204057Y-115666923D01*
X197108819Y-115619304D01*
X197061200Y-115571685D01*
X197013580Y-115476447D01*
X197013580Y-115285971D01*
X197061200Y-115190733D01*
X197108819Y-115143114D01*
X197204057Y-115095495D01*
X197251676Y-115095495D01*
X197346914Y-115143114D01*
X197394533Y-115190733D01*
X197442152Y-115285971D01*
X197442152Y-115476447D01*
X197489771Y-115571685D01*
X197537390Y-115619304D01*
X197632628Y-115666923D01*
X197823104Y-115666923D01*
X197918342Y-115619304D01*
X197965961Y-115571685D01*
X198013580Y-115476447D01*
X198013580Y-115285971D01*
X197965961Y-115190733D01*
X197918342Y-115143114D01*
X197823104Y-115095495D01*
X197632628Y-115095495D01*
X197537390Y-115143114D01*
X197489771Y-115190733D01*
X197442152Y-115285971D01*
X192551580Y-95480166D02*
X192075390Y-95813500D01*
X192551580Y-96051595D02*
X191551580Y-96051595D01*
X191551580Y-95670642D01*
X191599200Y-95575404D01*
X191646819Y-95527785D01*
X191742057Y-95480166D01*
X191884914Y-95480166D01*
X191980152Y-95527785D01*
X192027771Y-95575404D01*
X192075390Y-95670642D01*
X192075390Y-96051595D01*
X191551580Y-94575404D02*
X191551580Y-95051595D01*
X192027771Y-95099214D01*
X191980152Y-95051595D01*
X191932533Y-94956357D01*
X191932533Y-94718261D01*
X191980152Y-94623023D01*
X192027771Y-94575404D01*
X192123009Y-94527785D01*
X192361104Y-94527785D01*
X192456342Y-94575404D01*
X192503961Y-94623023D01*
X192551580Y-94718261D01*
X192551580Y-94956357D01*
X192503961Y-95051595D01*
X192456342Y-95099214D01*
X152040580Y-115101666D02*
X151564390Y-115435000D01*
X152040580Y-115673095D02*
X151040580Y-115673095D01*
X151040580Y-115292142D01*
X151088200Y-115196904D01*
X151135819Y-115149285D01*
X151231057Y-115101666D01*
X151373914Y-115101666D01*
X151469152Y-115149285D01*
X151516771Y-115196904D01*
X151564390Y-115292142D01*
X151564390Y-115673095D01*
X151040580Y-114768333D02*
X151040580Y-114149285D01*
X151421533Y-114482619D01*
X151421533Y-114339761D01*
X151469152Y-114244523D01*
X151516771Y-114196904D01*
X151612009Y-114149285D01*
X151850104Y-114149285D01*
X151945342Y-114196904D01*
X151992961Y-114244523D01*
X152040580Y-114339761D01*
X152040580Y-114625476D01*
X151992961Y-114720714D01*
X151945342Y-114768333D01*
X212542380Y-119997457D02*
X212066190Y-120330790D01*
X212542380Y-120568885D02*
X211542380Y-120568885D01*
X211542380Y-120187933D01*
X211590000Y-120092695D01*
X211637619Y-120045076D01*
X211732857Y-119997457D01*
X211875714Y-119997457D01*
X211970952Y-120045076D01*
X212018571Y-120092695D01*
X212066190Y-120187933D01*
X212066190Y-120568885D01*
X211637619Y-119616504D02*
X211590000Y-119568885D01*
X211542380Y-119473647D01*
X211542380Y-119235552D01*
X211590000Y-119140314D01*
X211637619Y-119092695D01*
X211732857Y-119045076D01*
X211828095Y-119045076D01*
X211970952Y-119092695D01*
X212542380Y-119664123D01*
X212542380Y-119045076D01*
X211542380Y-118711742D02*
X211542380Y-118092695D01*
X211923333Y-118426028D01*
X211923333Y-118283171D01*
X211970952Y-118187933D01*
X212018571Y-118140314D01*
X212113809Y-118092695D01*
X212351904Y-118092695D01*
X212447142Y-118140314D01*
X212494761Y-118187933D01*
X212542380Y-118283171D01*
X212542380Y-118568885D01*
X212494761Y-118664123D01*
X212447142Y-118711742D01*
X159802533Y-82519780D02*
X159469200Y-82043590D01*
X159231104Y-82519780D02*
X159231104Y-81519780D01*
X159612057Y-81519780D01*
X159707295Y-81567400D01*
X159754914Y-81615019D01*
X159802533Y-81710257D01*
X159802533Y-81853114D01*
X159754914Y-81948352D01*
X159707295Y-81995971D01*
X159612057Y-82043590D01*
X159231104Y-82043590D01*
X160135866Y-81519780D02*
X160802533Y-81519780D01*
X160373961Y-82519780D01*
X159802533Y-64130180D02*
X159469200Y-63653990D01*
X159231104Y-64130180D02*
X159231104Y-63130180D01*
X159612057Y-63130180D01*
X159707295Y-63177800D01*
X159754914Y-63225419D01*
X159802533Y-63320657D01*
X159802533Y-63463514D01*
X159754914Y-63558752D01*
X159707295Y-63606371D01*
X159612057Y-63653990D01*
X159231104Y-63653990D01*
X160183485Y-63225419D02*
X160231104Y-63177800D01*
X160326342Y-63130180D01*
X160564438Y-63130180D01*
X160659676Y-63177800D01*
X160707295Y-63225419D01*
X160754914Y-63320657D01*
X160754914Y-63415895D01*
X160707295Y-63558752D01*
X160135866Y-64130180D01*
X160754914Y-64130180D01*
X159802533Y-75407780D02*
X159469200Y-74931590D01*
X159231104Y-75407780D02*
X159231104Y-74407780D01*
X159612057Y-74407780D01*
X159707295Y-74455400D01*
X159754914Y-74503019D01*
X159802533Y-74598257D01*
X159802533Y-74741114D01*
X159754914Y-74836352D01*
X159707295Y-74883971D01*
X159612057Y-74931590D01*
X159231104Y-74931590D01*
X160659676Y-74407780D02*
X160469200Y-74407780D01*
X160373961Y-74455400D01*
X160326342Y-74503019D01*
X160231104Y-74645876D01*
X160183485Y-74836352D01*
X160183485Y-75217304D01*
X160231104Y-75312542D01*
X160278723Y-75360161D01*
X160373961Y-75407780D01*
X160564438Y-75407780D01*
X160659676Y-75360161D01*
X160707295Y-75312542D01*
X160754914Y-75217304D01*
X160754914Y-74979209D01*
X160707295Y-74883971D01*
X160659676Y-74836352D01*
X160564438Y-74788733D01*
X160373961Y-74788733D01*
X160278723Y-74836352D01*
X160231104Y-74883971D01*
X160183485Y-74979209D01*
X159802533Y-57018180D02*
X159469200Y-56541990D01*
X159231104Y-57018180D02*
X159231104Y-56018180D01*
X159612057Y-56018180D01*
X159707295Y-56065800D01*
X159754914Y-56113419D01*
X159802533Y-56208657D01*
X159802533Y-56351514D01*
X159754914Y-56446752D01*
X159707295Y-56494371D01*
X159612057Y-56541990D01*
X159231104Y-56541990D01*
X160754914Y-57018180D02*
X160183485Y-57018180D01*
X160469200Y-57018180D02*
X160469200Y-56018180D01*
X160373961Y-56161038D01*
X160278723Y-56256276D01*
X160183485Y-56303895D01*
X207411580Y-120556257D02*
X206935390Y-120889590D01*
X207411580Y-121127685D02*
X206411580Y-121127685D01*
X206411580Y-120746733D01*
X206459200Y-120651495D01*
X206506819Y-120603876D01*
X206602057Y-120556257D01*
X206744914Y-120556257D01*
X206840152Y-120603876D01*
X206887771Y-120651495D01*
X206935390Y-120746733D01*
X206935390Y-121127685D01*
X206506819Y-120175304D02*
X206459200Y-120127685D01*
X206411580Y-120032447D01*
X206411580Y-119794352D01*
X206459200Y-119699114D01*
X206506819Y-119651495D01*
X206602057Y-119603876D01*
X206697295Y-119603876D01*
X206840152Y-119651495D01*
X207411580Y-120222923D01*
X207411580Y-119603876D01*
X206506819Y-119222923D02*
X206459200Y-119175304D01*
X206411580Y-119080066D01*
X206411580Y-118841971D01*
X206459200Y-118746733D01*
X206506819Y-118699114D01*
X206602057Y-118651495D01*
X206697295Y-118651495D01*
X206840152Y-118699114D01*
X207411580Y-119270542D01*
X207411580Y-118651495D01*
X181868842Y-115324880D02*
X181535509Y-114848690D01*
X181297414Y-115324880D02*
X181297414Y-114324880D01*
X181678366Y-114324880D01*
X181773604Y-114372500D01*
X181821223Y-114420119D01*
X181868842Y-114515357D01*
X181868842Y-114658214D01*
X181821223Y-114753452D01*
X181773604Y-114801071D01*
X181678366Y-114848690D01*
X181297414Y-114848690D01*
X182821223Y-115324880D02*
X182249795Y-115324880D01*
X182535509Y-115324880D02*
X182535509Y-114324880D01*
X182440271Y-114467738D01*
X182345033Y-114562976D01*
X182249795Y-114610595D01*
X183678366Y-114658214D02*
X183678366Y-115324880D01*
X183440271Y-114277261D02*
X183202176Y-114991547D01*
X183821223Y-114991547D01*
X166782761Y-142635219D02*
X166687523Y-142587600D01*
X166592285Y-142492361D01*
X166449428Y-142349504D01*
X166354190Y-142301885D01*
X166258952Y-142301885D01*
X166306571Y-142539980D02*
X166211333Y-142492361D01*
X166116095Y-142397123D01*
X166068476Y-142206647D01*
X166068476Y-141873314D01*
X166116095Y-141682838D01*
X166211333Y-141587600D01*
X166306571Y-141539980D01*
X166497047Y-141539980D01*
X166592285Y-141587600D01*
X166687523Y-141682838D01*
X166735142Y-141873314D01*
X166735142Y-142206647D01*
X166687523Y-142397123D01*
X166592285Y-142492361D01*
X166497047Y-142539980D01*
X166306571Y-142539980D01*
X167068476Y-141539980D02*
X167687523Y-141539980D01*
X167354190Y-141920933D01*
X167497047Y-141920933D01*
X167592285Y-141968552D01*
X167639904Y-142016171D01*
X167687523Y-142111409D01*
X167687523Y-142349504D01*
X167639904Y-142444742D01*
X167592285Y-142492361D01*
X167497047Y-142539980D01*
X167211333Y-142539980D01*
X167116095Y-142492361D01*
X167068476Y-142444742D01*
X182187861Y-143511519D02*
X182092623Y-143463900D01*
X181997385Y-143368661D01*
X181854528Y-143225804D01*
X181759290Y-143178185D01*
X181664052Y-143178185D01*
X181711671Y-143416280D02*
X181616433Y-143368661D01*
X181521195Y-143273423D01*
X181473576Y-143082947D01*
X181473576Y-142749614D01*
X181521195Y-142559138D01*
X181616433Y-142463900D01*
X181711671Y-142416280D01*
X181902147Y-142416280D01*
X181997385Y-142463900D01*
X182092623Y-142559138D01*
X182140242Y-142749614D01*
X182140242Y-143082947D01*
X182092623Y-143273423D01*
X181997385Y-143368661D01*
X181902147Y-143416280D01*
X181711671Y-143416280D01*
X182521195Y-142511519D02*
X182568814Y-142463900D01*
X182664052Y-142416280D01*
X182902147Y-142416280D01*
X182997385Y-142463900D01*
X183045004Y-142511519D01*
X183092623Y-142606757D01*
X183092623Y-142701995D01*
X183045004Y-142844852D01*
X182473576Y-143416280D01*
X183092623Y-143416280D01*
X193187580Y-74715595D02*
X192187580Y-74715595D01*
X193187580Y-74144166D02*
X192616152Y-74572738D01*
X192187580Y-74144166D02*
X192759009Y-74715595D01*
X193187580Y-73191785D02*
X193187580Y-73763214D01*
X193187580Y-73477500D02*
X192187580Y-73477500D01*
X192330438Y-73572738D01*
X192425676Y-73667976D01*
X192473295Y-73763214D01*
X203501104Y-137460380D02*
X203501104Y-136460380D01*
X203739200Y-136460380D01*
X203882057Y-136508000D01*
X203977295Y-136603238D01*
X204024914Y-136698476D01*
X204072533Y-136888952D01*
X204072533Y-137031809D01*
X204024914Y-137222285D01*
X203977295Y-137317523D01*
X203882057Y-137412761D01*
X203739200Y-137460380D01*
X203501104Y-137460380D01*
X204929676Y-136460380D02*
X204739200Y-136460380D01*
X204643961Y-136508000D01*
X204596342Y-136555619D01*
X204501104Y-136698476D01*
X204453485Y-136888952D01*
X204453485Y-137269904D01*
X204501104Y-137365142D01*
X204548723Y-137412761D01*
X204643961Y-137460380D01*
X204834438Y-137460380D01*
X204929676Y-137412761D01*
X204977295Y-137365142D01*
X205024914Y-137269904D01*
X205024914Y-137031809D01*
X204977295Y-136936571D01*
X204929676Y-136888952D01*
X204834438Y-136841333D01*
X204643961Y-136841333D01*
X204548723Y-136888952D01*
X204501104Y-136936571D01*
X204453485Y-137031809D01*
X162967942Y-124779066D02*
X163015561Y-124826685D01*
X163063180Y-124969542D01*
X163063180Y-125064780D01*
X163015561Y-125207638D01*
X162920323Y-125302876D01*
X162825085Y-125350495D01*
X162634609Y-125398114D01*
X162491752Y-125398114D01*
X162301276Y-125350495D01*
X162206038Y-125302876D01*
X162110800Y-125207638D01*
X162063180Y-125064780D01*
X162063180Y-124969542D01*
X162110800Y-124826685D01*
X162158419Y-124779066D01*
X162063180Y-124445733D02*
X162063180Y-123779066D01*
X163063180Y-124207638D01*
X214046342Y-66524166D02*
X214093961Y-66571785D01*
X214141580Y-66714642D01*
X214141580Y-66809880D01*
X214093961Y-66952738D01*
X213998723Y-67047976D01*
X213903485Y-67095595D01*
X213713009Y-67143214D01*
X213570152Y-67143214D01*
X213379676Y-67095595D01*
X213284438Y-67047976D01*
X213189200Y-66952738D01*
X213141580Y-66809880D01*
X213141580Y-66714642D01*
X213189200Y-66571785D01*
X213236819Y-66524166D01*
X214141580Y-65571785D02*
X214141580Y-66143214D01*
X214141580Y-65857500D02*
X213141580Y-65857500D01*
X213284438Y-65952738D01*
X213379676Y-66047976D01*
X213427295Y-66143214D01*
X207163942Y-102655666D02*
X207211561Y-102703285D01*
X207259180Y-102846142D01*
X207259180Y-102941380D01*
X207211561Y-103084238D01*
X207116323Y-103179476D01*
X207021085Y-103227095D01*
X206830609Y-103274714D01*
X206687752Y-103274714D01*
X206497276Y-103227095D01*
X206402038Y-103179476D01*
X206306800Y-103084238D01*
X206259180Y-102941380D01*
X206259180Y-102846142D01*
X206306800Y-102703285D01*
X206354419Y-102655666D01*
X206259180Y-101798523D02*
X206259180Y-101989000D01*
X206306800Y-102084238D01*
X206354419Y-102131857D01*
X206497276Y-102227095D01*
X206687752Y-102274714D01*
X207068704Y-102274714D01*
X207163942Y-102227095D01*
X207211561Y-102179476D01*
X207259180Y-102084238D01*
X207259180Y-101893761D01*
X207211561Y-101798523D01*
X207163942Y-101750904D01*
X207068704Y-101703285D01*
X206830609Y-101703285D01*
X206735371Y-101750904D01*
X206687752Y-101798523D01*
X206640133Y-101893761D01*
X206640133Y-102084238D01*
X206687752Y-102179476D01*
X206735371Y-102227095D01*
X206830609Y-102274714D01*
M02*
