G04 #@! TF.GenerationSoftware,KiCad,Pcbnew,(5.1.5)-3*
G04 #@! TF.CreationDate,2020-08-04T21:29:25-03:00*
G04 #@! TF.ProjectId,TSAL,5453414c-2e6b-4696-9361-645f70636258,rev?*
G04 #@! TF.SameCoordinates,Original*
G04 #@! TF.FileFunction,Copper,L2,Bot*
G04 #@! TF.FilePolarity,Positive*
%FSLAX46Y46*%
G04 Gerber Fmt 4.6, Leading zero omitted, Abs format (unit mm)*
G04 Created by KiCad (PCBNEW (5.1.5)-3) date 2020-08-04 21:29:25*
%MOMM*%
%LPD*%
G04 APERTURE LIST*
%ADD10C,0.300000*%
%ADD11O,3.600000X2.000000*%
%ADD12C,0.100000*%
%ADD13O,2.000000X3.600000*%
%ADD14O,2.400000X2.400000*%
%ADD15C,2.400000*%
%ADD16O,1.905000X2.000000*%
%ADD17R,1.905000X2.000000*%
%ADD18C,3.000000*%
%ADD19C,2.500000*%
%ADD20C,1.600000*%
%ADD21C,0.250000*%
%ADD22C,0.500000*%
%ADD23C,0.254000*%
G04 APERTURE END LIST*
D10*
X133520571Y-68679371D02*
X132020571Y-68679371D01*
X132734857Y-68679371D02*
X132734857Y-69536514D01*
X133520571Y-69536514D02*
X132020571Y-69536514D01*
X133520571Y-70250800D02*
X132020571Y-70250800D01*
X132092000Y-71750800D02*
X132020571Y-71607942D01*
X132020571Y-71393657D01*
X132092000Y-71179371D01*
X132234857Y-71036514D01*
X132377714Y-70965085D01*
X132663428Y-70893657D01*
X132877714Y-70893657D01*
X133163428Y-70965085D01*
X133306285Y-71036514D01*
X133449142Y-71179371D01*
X133520571Y-71393657D01*
X133520571Y-71536514D01*
X133449142Y-71750800D01*
X133377714Y-71822228D01*
X132877714Y-71822228D01*
X132877714Y-71536514D01*
X133520571Y-72465085D02*
X132020571Y-72465085D01*
X132734857Y-72465085D02*
X132734857Y-73322228D01*
X133520571Y-73322228D02*
X132020571Y-73322228D01*
X132020571Y-74965085D02*
X133520571Y-75465085D01*
X132020571Y-75965085D01*
X132020571Y-76750800D02*
X132020571Y-77036514D01*
X132092000Y-77179371D01*
X132234857Y-77322228D01*
X132520571Y-77393657D01*
X133020571Y-77393657D01*
X133306285Y-77322228D01*
X133449142Y-77179371D01*
X133520571Y-77036514D01*
X133520571Y-76750800D01*
X133449142Y-76607942D01*
X133306285Y-76465085D01*
X133020571Y-76393657D01*
X132520571Y-76393657D01*
X132234857Y-76465085D01*
X132092000Y-76607942D01*
X132020571Y-76750800D01*
X133520571Y-78750800D02*
X133520571Y-78036514D01*
X132020571Y-78036514D01*
X132020571Y-79036514D02*
X132020571Y-79893657D01*
X133520571Y-79465085D02*
X132020571Y-79465085D01*
X133092000Y-80322228D02*
X133092000Y-81036514D01*
X133520571Y-80179371D02*
X132020571Y-80679371D01*
X133520571Y-81179371D01*
X132092000Y-82465085D02*
X132020571Y-82322228D01*
X132020571Y-82107942D01*
X132092000Y-81893657D01*
X132234857Y-81750800D01*
X132377714Y-81679371D01*
X132663428Y-81607942D01*
X132877714Y-81607942D01*
X133163428Y-81679371D01*
X133306285Y-81750800D01*
X133449142Y-81893657D01*
X133520571Y-82107942D01*
X133520571Y-82250800D01*
X133449142Y-82465085D01*
X133377714Y-82536514D01*
X132877714Y-82536514D01*
X132877714Y-82250800D01*
X132734857Y-83179371D02*
X132734857Y-83679371D01*
X133520571Y-83893657D02*
X133520571Y-83179371D01*
X132020571Y-83179371D01*
X132020571Y-83893657D01*
X171267828Y-89450171D02*
X170410685Y-89450171D01*
X170839257Y-90950171D02*
X170839257Y-89450171D01*
X169053542Y-90950171D02*
X169553542Y-90235885D01*
X169910685Y-90950171D02*
X169910685Y-89450171D01*
X169339257Y-89450171D01*
X169196400Y-89521600D01*
X169124971Y-89593028D01*
X169053542Y-89735885D01*
X169053542Y-89950171D01*
X169124971Y-90093028D01*
X169196400Y-90164457D01*
X169339257Y-90235885D01*
X169910685Y-90235885D01*
X168482114Y-90521600D02*
X167767828Y-90521600D01*
X168624971Y-90950171D02*
X168124971Y-89450171D01*
X167624971Y-90950171D01*
X166267828Y-90807314D02*
X166339257Y-90878742D01*
X166553542Y-90950171D01*
X166696400Y-90950171D01*
X166910685Y-90878742D01*
X167053542Y-90735885D01*
X167124971Y-90593028D01*
X167196400Y-90307314D01*
X167196400Y-90093028D01*
X167124971Y-89807314D01*
X167053542Y-89664457D01*
X166910685Y-89521600D01*
X166696400Y-89450171D01*
X166553542Y-89450171D01*
X166339257Y-89521600D01*
X166267828Y-89593028D01*
X165839257Y-89450171D02*
X164982114Y-89450171D01*
X165410685Y-90950171D02*
X165410685Y-89450171D01*
X164482114Y-90950171D02*
X164482114Y-89450171D01*
X163982114Y-89450171D02*
X163482114Y-90950171D01*
X162982114Y-89450171D01*
X162482114Y-90164457D02*
X161982114Y-90164457D01*
X161767828Y-90950171D02*
X162482114Y-90950171D01*
X162482114Y-89450171D01*
X161767828Y-89450171D01*
X160053542Y-90878742D02*
X159839257Y-90950171D01*
X159482114Y-90950171D01*
X159339257Y-90878742D01*
X159267828Y-90807314D01*
X159196400Y-90664457D01*
X159196400Y-90521600D01*
X159267828Y-90378742D01*
X159339257Y-90307314D01*
X159482114Y-90235885D01*
X159767828Y-90164457D01*
X159910685Y-90093028D01*
X159982114Y-90021600D01*
X160053542Y-89878742D01*
X160053542Y-89735885D01*
X159982114Y-89593028D01*
X159910685Y-89521600D01*
X159767828Y-89450171D01*
X159410685Y-89450171D01*
X159196400Y-89521600D01*
X158267828Y-90235885D02*
X158267828Y-90950171D01*
X158767828Y-89450171D02*
X158267828Y-90235885D01*
X157767828Y-89450171D01*
X157339257Y-90878742D02*
X157124971Y-90950171D01*
X156767828Y-90950171D01*
X156624971Y-90878742D01*
X156553542Y-90807314D01*
X156482114Y-90664457D01*
X156482114Y-90521600D01*
X156553542Y-90378742D01*
X156624971Y-90307314D01*
X156767828Y-90235885D01*
X157053542Y-90164457D01*
X157196400Y-90093028D01*
X157267828Y-90021600D01*
X157339257Y-89878742D01*
X157339257Y-89735885D01*
X157267828Y-89593028D01*
X157196400Y-89521600D01*
X157053542Y-89450171D01*
X156696400Y-89450171D01*
X156482114Y-89521600D01*
X156053542Y-89450171D02*
X155196400Y-89450171D01*
X155624971Y-90950171D02*
X155624971Y-89450171D01*
X154696400Y-90164457D02*
X154196400Y-90164457D01*
X153982114Y-90950171D02*
X154696400Y-90950171D01*
X154696400Y-89450171D01*
X153982114Y-89450171D01*
X153339257Y-90950171D02*
X153339257Y-89450171D01*
X152839257Y-90521600D01*
X152339257Y-89450171D01*
X152339257Y-90950171D01*
X167591428Y-87648171D02*
X167591428Y-86148171D01*
X167591428Y-86862457D02*
X166734285Y-86862457D01*
X166734285Y-87648171D02*
X166734285Y-86148171D01*
X166020000Y-87648171D02*
X166020000Y-86148171D01*
X164520000Y-86219600D02*
X164662857Y-86148171D01*
X164877142Y-86148171D01*
X165091428Y-86219600D01*
X165234285Y-86362457D01*
X165305714Y-86505314D01*
X165377142Y-86791028D01*
X165377142Y-87005314D01*
X165305714Y-87291028D01*
X165234285Y-87433885D01*
X165091428Y-87576742D01*
X164877142Y-87648171D01*
X164734285Y-87648171D01*
X164520000Y-87576742D01*
X164448571Y-87505314D01*
X164448571Y-87005314D01*
X164734285Y-87005314D01*
X163805714Y-87648171D02*
X163805714Y-86148171D01*
X163805714Y-86862457D02*
X162948571Y-86862457D01*
X162948571Y-87648171D02*
X162948571Y-86148171D01*
X161305714Y-86148171D02*
X160805714Y-87648171D01*
X160305714Y-86148171D01*
X159520000Y-86148171D02*
X159234285Y-86148171D01*
X159091428Y-86219600D01*
X158948571Y-86362457D01*
X158877142Y-86648171D01*
X158877142Y-87148171D01*
X158948571Y-87433885D01*
X159091428Y-87576742D01*
X159234285Y-87648171D01*
X159520000Y-87648171D01*
X159662857Y-87576742D01*
X159805714Y-87433885D01*
X159877142Y-87148171D01*
X159877142Y-86648171D01*
X159805714Y-86362457D01*
X159662857Y-86219600D01*
X159520000Y-86148171D01*
X157520000Y-87648171D02*
X158234285Y-87648171D01*
X158234285Y-86148171D01*
X157234285Y-86148171D02*
X156377142Y-86148171D01*
X156805714Y-87648171D02*
X156805714Y-86148171D01*
X155948571Y-87219600D02*
X155234285Y-87219600D01*
X156091428Y-87648171D02*
X155591428Y-86148171D01*
X155091428Y-87648171D01*
X153805714Y-86219600D02*
X153948571Y-86148171D01*
X154162857Y-86148171D01*
X154377142Y-86219600D01*
X154520000Y-86362457D01*
X154591428Y-86505314D01*
X154662857Y-86791028D01*
X154662857Y-87005314D01*
X154591428Y-87291028D01*
X154520000Y-87433885D01*
X154377142Y-87576742D01*
X154162857Y-87648171D01*
X154020000Y-87648171D01*
X153805714Y-87576742D01*
X153734285Y-87505314D01*
X153734285Y-87005314D01*
X154020000Y-87005314D01*
X153091428Y-86862457D02*
X152591428Y-86862457D01*
X152377142Y-87648171D02*
X153091428Y-87648171D01*
X153091428Y-86148171D01*
X152377142Y-86148171D01*
X167693028Y-52748571D02*
X167693028Y-51248571D01*
X167693028Y-51962857D02*
X166835885Y-51962857D01*
X166835885Y-52748571D02*
X166835885Y-51248571D01*
X166121600Y-52748571D02*
X166121600Y-51248571D01*
X164621600Y-51320000D02*
X164764457Y-51248571D01*
X164978742Y-51248571D01*
X165193028Y-51320000D01*
X165335885Y-51462857D01*
X165407314Y-51605714D01*
X165478742Y-51891428D01*
X165478742Y-52105714D01*
X165407314Y-52391428D01*
X165335885Y-52534285D01*
X165193028Y-52677142D01*
X164978742Y-52748571D01*
X164835885Y-52748571D01*
X164621600Y-52677142D01*
X164550171Y-52605714D01*
X164550171Y-52105714D01*
X164835885Y-52105714D01*
X163907314Y-52748571D02*
X163907314Y-51248571D01*
X163907314Y-51962857D02*
X163050171Y-51962857D01*
X163050171Y-52748571D02*
X163050171Y-51248571D01*
X161407314Y-51248571D02*
X160907314Y-52748571D01*
X160407314Y-51248571D01*
X159621600Y-51248571D02*
X159335885Y-51248571D01*
X159193028Y-51320000D01*
X159050171Y-51462857D01*
X158978742Y-51748571D01*
X158978742Y-52248571D01*
X159050171Y-52534285D01*
X159193028Y-52677142D01*
X159335885Y-52748571D01*
X159621600Y-52748571D01*
X159764457Y-52677142D01*
X159907314Y-52534285D01*
X159978742Y-52248571D01*
X159978742Y-51748571D01*
X159907314Y-51462857D01*
X159764457Y-51320000D01*
X159621600Y-51248571D01*
X157621600Y-52748571D02*
X158335885Y-52748571D01*
X158335885Y-51248571D01*
X157335885Y-51248571D02*
X156478742Y-51248571D01*
X156907314Y-52748571D02*
X156907314Y-51248571D01*
X156050171Y-52320000D02*
X155335885Y-52320000D01*
X156193028Y-52748571D02*
X155693028Y-51248571D01*
X155193028Y-52748571D01*
X153907314Y-51320000D02*
X154050171Y-51248571D01*
X154264457Y-51248571D01*
X154478742Y-51320000D01*
X154621600Y-51462857D01*
X154693028Y-51605714D01*
X154764457Y-51891428D01*
X154764457Y-52105714D01*
X154693028Y-52391428D01*
X154621600Y-52534285D01*
X154478742Y-52677142D01*
X154264457Y-52748571D01*
X154121600Y-52748571D01*
X153907314Y-52677142D01*
X153835885Y-52605714D01*
X153835885Y-52105714D01*
X154121600Y-52105714D01*
X153193028Y-51962857D02*
X152693028Y-51962857D01*
X152478742Y-52748571D02*
X153193028Y-52748571D01*
X153193028Y-51248571D01*
X152478742Y-51248571D01*
D11*
X139192000Y-71355600D03*
G04 #@! TA.AperFunction,ComponentPad*
D12*
G36*
X140766504Y-62856804D02*
G01*
X140790773Y-62860404D01*
X140814571Y-62866365D01*
X140837671Y-62874630D01*
X140859849Y-62885120D01*
X140880893Y-62897733D01*
X140900598Y-62912347D01*
X140918777Y-62928823D01*
X140935253Y-62947002D01*
X140949867Y-62966707D01*
X140962480Y-62987751D01*
X140972970Y-63009929D01*
X140981235Y-63033029D01*
X140987196Y-63056827D01*
X140990796Y-63081096D01*
X140992000Y-63105600D01*
X140992000Y-64605600D01*
X140990796Y-64630104D01*
X140987196Y-64654373D01*
X140981235Y-64678171D01*
X140972970Y-64701271D01*
X140962480Y-64723449D01*
X140949867Y-64744493D01*
X140935253Y-64764198D01*
X140918777Y-64782377D01*
X140900598Y-64798853D01*
X140880893Y-64813467D01*
X140859849Y-64826080D01*
X140837671Y-64836570D01*
X140814571Y-64844835D01*
X140790773Y-64850796D01*
X140766504Y-64854396D01*
X140742000Y-64855600D01*
X137642000Y-64855600D01*
X137617496Y-64854396D01*
X137593227Y-64850796D01*
X137569429Y-64844835D01*
X137546329Y-64836570D01*
X137524151Y-64826080D01*
X137503107Y-64813467D01*
X137483402Y-64798853D01*
X137465223Y-64782377D01*
X137448747Y-64764198D01*
X137434133Y-64744493D01*
X137421520Y-64723449D01*
X137411030Y-64701271D01*
X137402765Y-64678171D01*
X137396804Y-64654373D01*
X137393204Y-64630104D01*
X137392000Y-64605600D01*
X137392000Y-63105600D01*
X137393204Y-63081096D01*
X137396804Y-63056827D01*
X137402765Y-63033029D01*
X137411030Y-63009929D01*
X137421520Y-62987751D01*
X137434133Y-62966707D01*
X137448747Y-62947002D01*
X137465223Y-62928823D01*
X137483402Y-62912347D01*
X137503107Y-62897733D01*
X137524151Y-62885120D01*
X137546329Y-62874630D01*
X137569429Y-62866365D01*
X137593227Y-62860404D01*
X137617496Y-62856804D01*
X137642000Y-62855600D01*
X140742000Y-62855600D01*
X140766504Y-62856804D01*
G37*
G04 #@! TD.AperFunction*
D13*
X150502000Y-140208000D03*
G04 #@! TA.AperFunction,ComponentPad*
D12*
G36*
X143776504Y-138409204D02*
G01*
X143800773Y-138412804D01*
X143824571Y-138418765D01*
X143847671Y-138427030D01*
X143869849Y-138437520D01*
X143890893Y-138450133D01*
X143910598Y-138464747D01*
X143928777Y-138481223D01*
X143945253Y-138499402D01*
X143959867Y-138519107D01*
X143972480Y-138540151D01*
X143982970Y-138562329D01*
X143991235Y-138585429D01*
X143997196Y-138609227D01*
X144000796Y-138633496D01*
X144002000Y-138658000D01*
X144002000Y-141758000D01*
X144000796Y-141782504D01*
X143997196Y-141806773D01*
X143991235Y-141830571D01*
X143982970Y-141853671D01*
X143972480Y-141875849D01*
X143959867Y-141896893D01*
X143945253Y-141916598D01*
X143928777Y-141934777D01*
X143910598Y-141951253D01*
X143890893Y-141965867D01*
X143869849Y-141978480D01*
X143847671Y-141988970D01*
X143824571Y-141997235D01*
X143800773Y-142003196D01*
X143776504Y-142006796D01*
X143752000Y-142008000D01*
X142252000Y-142008000D01*
X142227496Y-142006796D01*
X142203227Y-142003196D01*
X142179429Y-141997235D01*
X142156329Y-141988970D01*
X142134151Y-141978480D01*
X142113107Y-141965867D01*
X142093402Y-141951253D01*
X142075223Y-141934777D01*
X142058747Y-141916598D01*
X142044133Y-141896893D01*
X142031520Y-141875849D01*
X142021030Y-141853671D01*
X142012765Y-141830571D01*
X142006804Y-141806773D01*
X142003204Y-141782504D01*
X142002000Y-141758000D01*
X142002000Y-138658000D01*
X142003204Y-138633496D01*
X142006804Y-138609227D01*
X142012765Y-138585429D01*
X142021030Y-138562329D01*
X142031520Y-138540151D01*
X142044133Y-138519107D01*
X142058747Y-138499402D01*
X142075223Y-138481223D01*
X142093402Y-138464747D01*
X142113107Y-138450133D01*
X142134151Y-138437520D01*
X142156329Y-138427030D01*
X142179429Y-138418765D01*
X142203227Y-138412804D01*
X142227496Y-138409204D01*
X142252000Y-138408000D01*
X143752000Y-138408000D01*
X143776504Y-138409204D01*
G37*
G04 #@! TD.AperFunction*
D14*
X172669200Y-81940400D03*
D15*
X147269200Y-81940400D03*
D14*
X172669200Y-63677800D03*
D15*
X147269200Y-63677800D03*
D14*
X147269200Y-74828400D03*
D15*
X172669200Y-74828400D03*
D14*
X147269200Y-56565800D03*
D15*
X172669200Y-56565800D03*
D16*
X164388800Y-130962400D03*
X166928800Y-130962400D03*
D17*
X169468800Y-130962400D03*
D16*
X179743100Y-130962400D03*
X182283100Y-130962400D03*
D17*
X184823100Y-130962400D03*
D18*
X192557400Y-80225900D03*
D19*
X186607400Y-78275900D03*
D18*
X186557400Y-66025900D03*
X198607400Y-66075900D03*
D19*
X198607400Y-78275900D03*
D13*
X215489200Y-140208000D03*
X207989200Y-140208000D03*
X200489200Y-140208000D03*
G04 #@! TA.AperFunction,ComponentPad*
D12*
G36*
X193763704Y-138409204D02*
G01*
X193787973Y-138412804D01*
X193811771Y-138418765D01*
X193834871Y-138427030D01*
X193857049Y-138437520D01*
X193878093Y-138450133D01*
X193897798Y-138464747D01*
X193915977Y-138481223D01*
X193932453Y-138499402D01*
X193947067Y-138519107D01*
X193959680Y-138540151D01*
X193970170Y-138562329D01*
X193978435Y-138585429D01*
X193984396Y-138609227D01*
X193987996Y-138633496D01*
X193989200Y-138658000D01*
X193989200Y-141758000D01*
X193987996Y-141782504D01*
X193984396Y-141806773D01*
X193978435Y-141830571D01*
X193970170Y-141853671D01*
X193959680Y-141875849D01*
X193947067Y-141896893D01*
X193932453Y-141916598D01*
X193915977Y-141934777D01*
X193897798Y-141951253D01*
X193878093Y-141965867D01*
X193857049Y-141978480D01*
X193834871Y-141988970D01*
X193811771Y-141997235D01*
X193787973Y-142003196D01*
X193763704Y-142006796D01*
X193739200Y-142008000D01*
X192239200Y-142008000D01*
X192214696Y-142006796D01*
X192190427Y-142003196D01*
X192166629Y-141997235D01*
X192143529Y-141988970D01*
X192121351Y-141978480D01*
X192100307Y-141965867D01*
X192080602Y-141951253D01*
X192062423Y-141934777D01*
X192045947Y-141916598D01*
X192031333Y-141896893D01*
X192018720Y-141875849D01*
X192008230Y-141853671D01*
X191999965Y-141830571D01*
X191994004Y-141806773D01*
X191990404Y-141782504D01*
X191989200Y-141758000D01*
X191989200Y-138658000D01*
X191990404Y-138633496D01*
X191994004Y-138609227D01*
X191999965Y-138585429D01*
X192008230Y-138562329D01*
X192018720Y-138540151D01*
X192031333Y-138519107D01*
X192045947Y-138499402D01*
X192062423Y-138481223D01*
X192080602Y-138464747D01*
X192100307Y-138450133D01*
X192121351Y-138437520D01*
X192143529Y-138427030D01*
X192166629Y-138418765D01*
X192190427Y-138412804D01*
X192214696Y-138409204D01*
X192239200Y-138408000D01*
X193739200Y-138408000D01*
X193763704Y-138409204D01*
G37*
G04 #@! TD.AperFunction*
D20*
X194005200Y-117246400D03*
X172110400Y-122885200D03*
X163322000Y-122885200D03*
X163220394Y-118363994D03*
X159816800Y-118465600D03*
X150723600Y-114503200D03*
X159816800Y-111252000D03*
X190601600Y-124303800D03*
X143103600Y-114300000D03*
X138023600Y-114300000D03*
X145643600Y-114300000D03*
X183946800Y-118496410D03*
X204470000Y-83464400D03*
X148132800Y-98755200D03*
X182219600Y-125882400D03*
X177038000Y-123088400D03*
X143103600Y-95250000D03*
X138023600Y-94132400D03*
X212090000Y-79451200D03*
D21*
X129184400Y-92659200D02*
X132080000Y-92659200D01*
X133756400Y-92659200D02*
X136652000Y-92659200D01*
X138633200Y-92659200D02*
X141528800Y-92659200D01*
X143459200Y-92659200D02*
X146354800Y-92659200D01*
X146354800Y-92659200D02*
X148183600Y-92659200D01*
X153974800Y-92659200D02*
X153466800Y-92659200D01*
X153974800Y-92659200D02*
X156870400Y-92659200D01*
X159359600Y-92659200D02*
X162255200Y-92659200D01*
X164642800Y-92659200D02*
X167538400Y-92659200D01*
X169367200Y-92659200D02*
X172262800Y-92659200D01*
X174091600Y-92659200D02*
X176987200Y-92659200D01*
X176987200Y-91998800D02*
X176987200Y-92659200D01*
X176987200Y-88544400D02*
X176987200Y-90373200D01*
X176987200Y-84836000D02*
X176987200Y-86664800D01*
X176987200Y-81280000D02*
X176987200Y-83108800D01*
X176987200Y-77774800D02*
X176987200Y-79603600D01*
X176987200Y-74117200D02*
X176987200Y-75946000D01*
X176987200Y-70764400D02*
X176987200Y-72593200D01*
X176987200Y-66497200D02*
X176987200Y-68326000D01*
X176987200Y-62839600D02*
X176987200Y-64668400D01*
X176987200Y-58877200D02*
X176987200Y-60706000D01*
X176987200Y-54864000D02*
X176987200Y-56692800D01*
X176987200Y-51308000D02*
X176987200Y-53136800D01*
D22*
X204666300Y-78275900D02*
X198607400Y-78275900D01*
X207619600Y-81229200D02*
X204666300Y-78275900D01*
X207619600Y-84988400D02*
X207619600Y-81229200D01*
X194005200Y-117246400D02*
X194005200Y-98602800D01*
X194005200Y-98602800D02*
X207619600Y-84988400D01*
X172110400Y-122885200D02*
X163322000Y-122885200D01*
X194005200Y-117246400D02*
X164337988Y-117246400D01*
X164337988Y-117246400D02*
X163220394Y-118363994D01*
X151384000Y-118465600D02*
X159816800Y-118465600D01*
X150723600Y-114503200D02*
X150723600Y-117805200D01*
X150723600Y-117805200D02*
X151384000Y-118465600D01*
X159816800Y-111252000D02*
X159816800Y-118465600D01*
X190953400Y-123952000D02*
X190601600Y-124303800D01*
X213156800Y-123952000D02*
X190953400Y-123952000D01*
X223774000Y-134569200D02*
X213156800Y-123952000D01*
X223774000Y-145592800D02*
X223774000Y-134569200D01*
X182283100Y-132462400D02*
X185812300Y-135991600D01*
X182283100Y-130962400D02*
X182283100Y-132462400D01*
X206072800Y-135991600D02*
X185812300Y-135991600D01*
X207989200Y-137908000D02*
X206072800Y-135991600D01*
X207989200Y-140208000D02*
X207989200Y-137908000D01*
X143103600Y-114300000D02*
X149961600Y-121158000D01*
X149961600Y-121158000D02*
X182118000Y-121158000D01*
X184823100Y-123863100D02*
X184823100Y-130962400D01*
X182118000Y-121158000D02*
X184823100Y-123863100D01*
X215489200Y-143412800D02*
X215489200Y-140208000D01*
X214325200Y-144576800D02*
X215489200Y-143412800D01*
X180320698Y-144576800D02*
X214325200Y-144576800D01*
X166928800Y-130962400D02*
X166928800Y-131184902D01*
X166928800Y-131184902D02*
X180320698Y-144576800D01*
X138023600Y-114300000D02*
X149910800Y-126187200D01*
X149910800Y-126187200D02*
X167944800Y-126187200D01*
X169468800Y-127711200D02*
X169468800Y-130962400D01*
X167944800Y-126187200D02*
X169468800Y-127711200D01*
X183146801Y-119296409D02*
X183946800Y-118496410D01*
X145643600Y-114300000D02*
X151536400Y-120192800D01*
X182250410Y-120192800D02*
X183146801Y-119296409D01*
X151536400Y-120192800D02*
X182250410Y-120192800D01*
X204470000Y-83464400D02*
X189179200Y-98755200D01*
X189179200Y-98755200D02*
X148132800Y-98755200D01*
X182219600Y-125882400D02*
X179425600Y-123088400D01*
X179425600Y-123088400D02*
X177038000Y-123088400D01*
X186557400Y-66025900D02*
X183757700Y-66025900D01*
X183757700Y-66025900D02*
X182727600Y-67056000D01*
X182727600Y-67056000D02*
X182727600Y-91948000D01*
X182727600Y-91948000D02*
X179425600Y-95250000D01*
X179425600Y-95250000D02*
X143103600Y-95250000D01*
X194710700Y-62179200D02*
X198607400Y-66075900D01*
X194507500Y-61976000D02*
X194710700Y-62179200D01*
X138423599Y-93732401D02*
X178555599Y-93732401D01*
X138023600Y-94132400D02*
X138423599Y-93732401D01*
X181051200Y-91236800D02*
X181051200Y-63804800D01*
X181051200Y-63804800D02*
X182880000Y-61976000D01*
X178555599Y-93732401D02*
X181051200Y-91236800D01*
X182880000Y-61976000D02*
X194507500Y-61976000D01*
X198607400Y-66075900D02*
X211982700Y-79451200D01*
X211982700Y-79451200D02*
X212090000Y-79451200D01*
D23*
G36*
X141294274Y-73025000D02*
G01*
X136315874Y-73025000D01*
X136315874Y-62611000D01*
X141294274Y-62611000D01*
X141294274Y-73025000D01*
G37*
X141294274Y-73025000D02*
X136315874Y-73025000D01*
X136315874Y-62611000D01*
X141294274Y-62611000D01*
X141294274Y-73025000D01*
G36*
X141300200Y-89215909D02*
G01*
X136321800Y-89215909D01*
X136321800Y-78344709D01*
X141300200Y-78344709D01*
X141300200Y-89215909D01*
G37*
X141300200Y-89215909D02*
X136321800Y-89215909D01*
X136321800Y-78344709D01*
X141300200Y-78344709D01*
X141300200Y-89215909D01*
M02*
