M48
; DRILL file {KiCad (5.1.5)-3} date 11/2/2020 4:30:41 PM
; FORMAT={-:-/ absolute / inch / decimal}
; #@! TF.CreationDate,2020-11-02T16:30:41-03:00
; #@! TF.GenerationSoftware,Kicad,Pcbnew,(5.1.5)-3
; #@! TF.FileFunction,Plated,1,2,PTH
FMAT,2
INCH
T1C0.0157
T2C0.0197
T3C0.0256
T4C0.0276
T5C0.0315
T6C0.0394
T7C0.0400
T8C0.0433
T9C0.0472
T10C0.0512
T11C0.0551
T12C0.0591
T13C0.0709
T14C0.0866
T15C0.1181
T16C0.1260
T17C0.1378
T18C0.1772
%
G90
G05
T1
X-14.9952Y-9.4483
X-14.8748Y-9.1245
X-14.8748Y-9.1985
X-14.6189Y-9.5322
X-14.6188Y-9.0905
X-14.6148Y-9.4565
X-14.5468Y-12.2195
X-14.5405Y-3.4439
X-14.5405Y-3.4939
X-14.5198Y-11.3765
X-14.5198Y-11.7515
X-14.4478Y-3.3605
X-14.4468Y-8.9045
X-14.4468Y-8.969
X-14.4238Y-16.1355
X-14.4132Y-13.4219
X-14.4028Y-3.3605
X-14.3998Y-11.5665
X-14.3558Y-4.5825
X-14.3203Y-13.865
X-14.2898Y-10.684
X-14.2898Y-11.2165
X-14.2648Y-12.1835
X-14.2628Y-9.0125
X-14.2628Y-9.3065
X-14.2498Y-11.2965
X-14.1968Y-12.1815
X-14.1908Y-9.2665
X-14.1786Y-15.4933
X-14.1773Y-15.712
X-14.1594Y-8.6747
X-14.1168Y-9.3025
X-14.1168Y-9.4245
X-14.1012Y-11.8065
X-14.0998Y-11.7365
X-14.0998Y-11.649
X-14.0973Y-11.4965
X-14.0973Y-11.569
X-14.0278Y-2.8505
X-14.0278Y-2.9005
X-14.0278Y-2.9455
X-14.0278Y-2.9939
X-14.0278Y-3.0505
X-14.0255Y-2.4939
X-14.0067Y-4.5365
X-13.9984Y-9.1544
X-13.9843Y-13.4465
X-13.9828Y-3.0505
X-13.9805Y-2.4939
X-13.9778Y-2.9005
X-13.9778Y-2.9939
X-13.9366Y-8.9971
X-13.9353Y-8.7925
X-13.8488Y-8.5665
X-13.8478Y-2.2605
X-13.8238Y-13.096
X-13.7908Y-8.4665
X-13.7908Y-8.5145
X-13.7908Y-8.5565
X-13.7833Y-15.615
X-13.7788Y-10.9815
X-13.7648Y-11.809
X-13.7503Y-2.208
X-13.7478Y-2.1105
X-13.6911Y-4.8938
X-13.684Y-8.7754
X-13.6831Y-8.8348
X-13.6793Y-9.0262
X-13.6678Y-15.4935
X-13.6398Y-5.2025
X-13.586Y-16.1429
X-13.5848Y-8.3805
X-13.5798Y-5.4475
X-13.5798Y-10.6165
X-13.5798Y-11.8865
X-13.5608Y-10.8655
X-13.5188Y-8.7325
X-13.5188Y-8.9765
X-13.5188Y-9.1865
X-13.5178Y-1.8505
X-13.4526Y-5.1526
X-13.4098Y-5.3425
X-13.3998Y-5.4725
X-13.3888Y-11.3055
X-13.3888Y-11.4495
X-13.361Y-5.3484
X-13.3378Y-1.8105
X-13.3198Y-5.5525
X-13.3059Y-5.2618
X-13.2873Y-11.569
X-13.2722Y-15.3127
X-13.2587Y-4.757
X-13.2273Y-12.059
X-13.2198Y-11.4965
X-13.2008Y-9.1825
X-13.1998Y-12.124
X-13.1996Y-4.6113
X-13.1852Y-15.4001
X-13.1673Y-11.209
X-13.1668Y-8.7925
X-13.1608Y-8.5445
X-13.1348Y-11.2665
X-13.1338Y-14.0765
X-13.0938Y-15.3265
X-13.0928Y-9.3025
X-13.0628Y-2.1955
X-13.0538Y-13.9965
X-13.0438Y-15.0865
X-13.0078Y-2.0505
X-12.9973Y-11.734
X-12.9778Y-1.5455
X-12.9755Y-0.8339
X-12.9708Y-8.6505
X-12.9703Y-8.7639
X-12.9698Y-8.9185
X-12.968Y-9.0777
X-12.9673Y-4.6694
X-12.9565Y-4.9194
X-12.9478Y-1.7555
X-12.9424Y-14.0217
X-12.9368Y-8.3805
X-12.9198Y-5.6025
X-12.9008Y-10.9815
X-12.8738Y-15.4565
X-12.8438Y-15.5265
X-12.8323Y-11.2665
X-12.8153Y-0.8405
X-12.8078Y-2.405
X-12.8074Y-14.0225
X-12.7908Y-10.4295
X-12.7878Y-3.4705
X-12.7843Y-4.378
X-12.7608Y-8.5365
X-12.7478Y-4.8278
X-12.7478Y-1.7555
X-12.7478Y-3.5105
X-12.7469Y-5.0542
X-12.7438Y-14.7065
X-12.7098Y-4.7425
X-12.7093Y-13.2765
X-12.7008Y-10.4295
X-12.6848Y-11.884
X-12.6838Y-14.4365
X-12.6838Y-15.7565
X-12.6738Y-15.0165
X-12.6678Y-1.5505
X-12.654Y-2.4505
X-12.6448Y-11.5865
X-12.6068Y-10.4695
X-12.5998Y-11.649
X-12.5978Y-1.5505
X-12.5978Y-1.6205
X-12.5978Y-1.8905
X-12.5978Y-1.9405
X-12.5838Y-14.6265
X-12.5533Y-9.0095
X-12.5527Y-9.1092
X-12.5478Y-3.2505
X-12.5448Y-11.329
X-12.5448Y-11.429
X-12.5448Y-12.059
X-12.5398Y-11.1565
X-12.5398Y-11.209
X-12.5398Y-11.2565
X-12.5378Y-2.4505
X-12.5378Y-2.2105
X-12.5188Y-4.7959
X-12.5138Y-14.8365
X-12.5108Y-10.4675
X-12.5028Y-0.6405
X-12.5022Y-7.9743
X-12.4873Y-12.184
X-12.4868Y-11.0565
X-12.4728Y-0.6105
X-12.4644Y-4.6477
X-12.4538Y-15.6365
X-12.4538Y-15.9165
X-12.4528Y-6.5605
X-12.4328Y-8.5445
X-12.4299Y-4.7018
X-12.4248Y-10.8714
X-12.4248Y-11.1065
X-12.4223Y-11.309
X-12.4217Y-7.1695
X-12.4168Y-10.4675
X-12.4088Y-11.4095
X-12.4075Y-9.2205
X-12.3888Y-8.5425
X-12.3856Y-6.519
X-12.3848Y-11.8415
X-12.3718Y-13.2785
X-12.3428Y-8.5425
X-12.3008Y-9.3965
X-12.2948Y-10.8755
X-12.2688Y-9.3065
X-12.2608Y-13.2085
X-12.2508Y-8.1105
X-12.2508Y-8.5445
X-12.2508Y-4.6113
X-12.2308Y-10.4655
X-12.1888Y-9.2745
X-12.1528Y-9.5105
X-12.1523Y-12.0765
X-12.1257Y-6.5321
X-12.1257Y-7.5437
X-12.1078Y-0.7305
X-12.1078Y-0.7705
X-12.1078Y-0.8105
X-12.1078Y-0.8505
X-12.1078Y-0.8905
X-12.1078Y-0.9305
X-12.1078Y-0.9705
X-12.1078Y-1.0105
X-12.1078Y-1.4705
X-12.1078Y-1.5105
X-12.1078Y-1.5505
X-12.1078Y-1.5905
X-12.1078Y-1.6305
X-12.1078Y-1.6705
X-12.1078Y-1.7105
X-12.1078Y-1.7505
X-12.1078Y-2.0305
X-12.1078Y-2.0705
X-12.1078Y-2.1105
X-12.1078Y-2.1505
X-12.1078Y-2.1905
X-12.1078Y-2.2305
X-12.1078Y-2.2705
X-12.1078Y-2.3105
X-12.1078Y-2.7705
X-12.1078Y-2.8105
X-12.1078Y-2.8505
X-12.1078Y-2.8905
X-12.1078Y-2.9305
X-12.1078Y-2.9705
X-12.1078Y-3.0105
X-12.1078Y-3.0505
X-12.0773Y-12.1765
X-12.0673Y-11.6465
X-12.0523Y-6.5315
X-12.0515Y-8.3505
X-12.0478Y-0.7305
X-12.0478Y-0.7705
X-12.0478Y-0.8105
X-12.0478Y-0.8505
X-12.0478Y-0.8905
X-12.0478Y-0.9305
X-12.0478Y-0.9705
X-12.0478Y-1.0105
X-12.0478Y-1.4705
X-12.0478Y-1.5105
X-12.0478Y-1.5505
X-12.0478Y-1.5905
X-12.0478Y-1.6305
X-12.0478Y-1.6705
X-12.0478Y-1.7105
X-12.0478Y-1.7505
X-12.0478Y-2.0305
X-12.0478Y-2.0705
X-12.0478Y-2.1105
X-12.0478Y-2.1505
X-12.0478Y-2.1905
X-12.0478Y-2.2305
X-12.0478Y-2.2705
X-12.0478Y-2.3105
X-12.0478Y-2.7705
X-12.0478Y-2.8105
X-12.0478Y-2.8505
X-12.0478Y-2.8905
X-12.0478Y-2.9305
X-12.0478Y-2.9705
X-12.0478Y-3.0105
X-12.0478Y-3.0505
X-12.0195Y-4.7323
X-11.9888Y-8.4345
X-11.9878Y-0.7305
X-11.9878Y-0.7705
X-11.9878Y-0.8105
X-11.9878Y-0.8505
X-11.9878Y-0.8905
X-11.9878Y-0.9305
X-11.9878Y-0.9705
X-11.9878Y-1.0105
X-11.9878Y-1.4705
X-11.9878Y-1.5105
X-11.9878Y-1.5505
X-11.9878Y-1.5905
X-11.9878Y-1.6305
X-11.9878Y-1.6705
X-11.9878Y-1.7105
X-11.9878Y-1.7505
X-11.9878Y-2.0305
X-11.9878Y-2.0705
X-11.9878Y-2.1105
X-11.9878Y-2.1505
X-11.9878Y-2.1905
X-11.9878Y-2.2305
X-11.9878Y-2.2705
X-11.9878Y-2.3105
X-11.9878Y-2.7705
X-11.9878Y-2.8105
X-11.9878Y-2.8505
X-11.9878Y-2.8905
X-11.9878Y-2.9305
X-11.9878Y-2.9705
X-11.9878Y-3.0105
X-11.9878Y-3.0505
X-11.9789Y-7.8359
X-11.9786Y-7.5847
X-11.9779Y-7.042
X-11.9548Y-11.329
X-11.9278Y-0.7305
X-11.9278Y-0.7705
X-11.9278Y-0.8105
X-11.9278Y-0.8505
X-11.9278Y-0.8905
X-11.9278Y-0.9305
X-11.9278Y-0.9705
X-11.9278Y-1.0105
X-11.9278Y-1.4705
X-11.9278Y-1.5105
X-11.9278Y-1.5505
X-11.9278Y-1.5905
X-11.9278Y-1.6305
X-11.9278Y-1.6705
X-11.9278Y-1.7105
X-11.9278Y-1.7505
X-11.9278Y-2.0305
X-11.9278Y-2.0705
X-11.9278Y-2.1105
X-11.9278Y-2.1505
X-11.9278Y-2.1905
X-11.9278Y-2.2305
X-11.9278Y-2.2705
X-11.9278Y-2.3105
X-11.9278Y-2.7705
X-11.9278Y-2.8105
X-11.9278Y-2.8505
X-11.9278Y-2.8905
X-11.9278Y-2.9305
X-11.9278Y-2.9705
X-11.9278Y-3.0105
X-11.9278Y-3.0505
X-11.9098Y-12.0765
X-11.8678Y-0.7305
X-11.8678Y-0.7705
X-11.8678Y-0.8105
X-11.8678Y-0.8505
X-11.8678Y-0.8905
X-11.8678Y-0.9305
X-11.8678Y-0.9705
X-11.8678Y-1.0105
X-11.8678Y-1.4705
X-11.8678Y-1.5105
X-11.8678Y-1.5505
X-11.8678Y-1.5905
X-11.8678Y-1.6305
X-11.8678Y-1.6705
X-11.8678Y-1.7105
X-11.8678Y-1.7505
X-11.8678Y-2.0305
X-11.8678Y-2.0705
X-11.8678Y-2.1105
X-11.8678Y-2.1505
X-11.8678Y-2.1905
X-11.8678Y-2.2305
X-11.8678Y-2.2705
X-11.8678Y-2.3105
X-11.8678Y-2.7705
X-11.8678Y-2.8105
X-11.8678Y-2.8505
X-11.8678Y-2.8905
X-11.8678Y-2.9305
X-11.8678Y-2.9705
X-11.8678Y-3.0105
X-11.8678Y-3.0505
X-11.8523Y-11.8415
X-11.8268Y-9.4545
X-11.8078Y-0.7305
X-11.8078Y-0.7705
X-11.8078Y-0.8105
X-11.8078Y-0.8505
X-11.8078Y-0.8905
X-11.8078Y-0.9305
X-11.8078Y-0.9705
X-11.8078Y-1.0105
X-11.8078Y-1.4705
X-11.8078Y-1.5105
X-11.8078Y-1.5505
X-11.8078Y-1.5905
X-11.8078Y-1.6305
X-11.8078Y-1.6705
X-11.8078Y-1.7105
X-11.8078Y-1.7505
X-11.8078Y-2.0305
X-11.8078Y-2.0705
X-11.8078Y-2.1105
X-11.8078Y-2.1505
X-11.8078Y-2.1905
X-11.8078Y-2.2305
X-11.8078Y-2.2705
X-11.8078Y-2.3105
X-11.8078Y-2.7705
X-11.8078Y-2.8105
X-11.8078Y-2.8505
X-11.8078Y-2.8905
X-11.8078Y-2.9305
X-11.8078Y-2.9705
X-11.8078Y-3.0105
X-11.8078Y-3.0505
X-11.7948Y-9.3685
X-11.7478Y-0.7305
X-11.7478Y-0.7705
X-11.7478Y-0.8105
X-11.7478Y-0.8505
X-11.7478Y-0.8905
X-11.7478Y-0.9305
X-11.7478Y-0.9705
X-11.7478Y-1.0105
X-11.7478Y-1.4705
X-11.7478Y-1.5105
X-11.7478Y-1.5505
X-11.7478Y-1.5905
X-11.7478Y-1.6305
X-11.7478Y-1.6705
X-11.7478Y-1.7105
X-11.7478Y-1.7505
X-11.7478Y-2.0305
X-11.7478Y-2.0705
X-11.7478Y-2.1105
X-11.7478Y-2.1505
X-11.7478Y-2.1905
X-11.7478Y-2.2305
X-11.7478Y-2.2705
X-11.7478Y-2.3105
X-11.7478Y-2.7705
X-11.7478Y-2.8105
X-11.7478Y-2.8505
X-11.7478Y-2.8905
X-11.7478Y-2.9305
X-11.7478Y-2.9705
X-11.7478Y-3.0105
X-11.7478Y-3.0505
X-11.6878Y-0.7305
X-11.6878Y-0.7705
X-11.6878Y-0.8105
X-11.6878Y-0.8505
X-11.6878Y-0.8905
X-11.6878Y-0.9305
X-11.6878Y-0.9705
X-11.6878Y-1.0105
X-11.6878Y-1.4705
X-11.6878Y-1.5105
X-11.6878Y-1.5505
X-11.6878Y-1.5905
X-11.6878Y-1.6305
X-11.6878Y-1.6705
X-11.6878Y-1.7105
X-11.6878Y-1.7505
X-11.6878Y-2.0305
X-11.6878Y-2.0705
X-11.6878Y-2.1105
X-11.6878Y-2.1505
X-11.6878Y-2.1905
X-11.6878Y-2.2305
X-11.6878Y-2.2705
X-11.6878Y-2.3105
X-11.6878Y-2.7705
X-11.6878Y-2.8105
X-11.6878Y-2.8505
X-11.6878Y-2.8905
X-11.6878Y-2.9305
X-11.6878Y-2.9705
X-11.6878Y-3.0105
X-11.6878Y-3.0505
X-11.6278Y-0.7305
X-11.6278Y-0.7705
X-11.6278Y-0.8105
X-11.6278Y-0.8505
X-11.6278Y-0.8905
X-11.6278Y-0.9305
X-11.6278Y-0.9705
X-11.6278Y-1.0105
X-11.6278Y-1.4705
X-11.6278Y-1.5105
X-11.6278Y-1.5505
X-11.6278Y-1.5905
X-11.6278Y-1.6305
X-11.6278Y-1.6705
X-11.6278Y-1.7105
X-11.6278Y-1.7505
X-11.6278Y-2.0305
X-11.6278Y-2.0705
X-11.6278Y-2.1105
X-11.6278Y-2.1505
X-11.6278Y-2.1905
X-11.6278Y-2.2305
X-11.6278Y-2.2705
X-11.6278Y-2.3105
X-11.6278Y-2.7705
X-11.6278Y-2.8105
X-11.6278Y-2.8505
X-11.6278Y-2.8905
X-11.6278Y-2.9305
X-11.6278Y-2.9705
X-11.6278Y-3.0105
X-11.6278Y-3.0505
X-11.5678Y-0.7305
X-11.5678Y-0.7705
X-11.5678Y-0.8105
X-11.5678Y-0.8505
X-11.5678Y-0.8905
X-11.5678Y-0.9305
X-11.5678Y-0.9705
X-11.5678Y-1.0105
X-11.5678Y-1.4705
X-11.5678Y-1.5105
X-11.5678Y-1.5505
X-11.5678Y-1.5905
X-11.5678Y-1.6305
X-11.5678Y-1.6705
X-11.5678Y-1.7105
X-11.5678Y-1.7505
X-11.5678Y-2.0305
X-11.5678Y-2.0705
X-11.5678Y-2.1105
X-11.5678Y-2.1505
X-11.5678Y-2.1905
X-11.5678Y-2.2305
X-11.5678Y-2.2705
X-11.5678Y-2.3105
X-11.5678Y-2.7705
X-11.5678Y-2.8105
X-11.5678Y-2.8505
X-11.5678Y-2.8905
X-11.5678Y-2.9305
X-11.5678Y-2.9705
X-11.5678Y-3.0105
X-11.5678Y-3.0505
X-11.2998Y-6.5435
X-11.2698Y-6.5035
X-11.2404Y-6.5435
X-11.2119Y-6.5035
X-11.1798Y-6.5435
X-11.1498Y-6.5035
X-11.1198Y-6.5435
X-11.0898Y-6.5035
X-11.0848Y-5.8435
X-11.0848Y-7.2835
X-11.0848Y-8.7285
X-10.8798Y-3.0935
X-10.8798Y-3.6585
X-10.8798Y-4.0085
X-10.8798Y-4.2435
X-10.8798Y-4.3385
X-10.8798Y-4.3885
X-10.8798Y-4.4385
X-10.8798Y-4.4885
X-10.8798Y-4.5385
X-10.8798Y-4.5885
X-10.8796Y-3.7083
X-10.8796Y-3.7587
X-10.8796Y-3.8083
X-10.8796Y-3.8583
X-10.8796Y-3.9087
X-10.8796Y-3.9587
X-10.8796Y-4.2883
X-10.7998Y-2.5335
X-10.7998Y-2.5835
X-10.7998Y-2.6335
X-10.7798Y-6.2535
X-10.6798Y-4.3335
X-10.6298Y-4.2885
X-10.6298Y-4.7535
X-10.6198Y-3.7585
X-10.6198Y-3.1785
X-10.5998Y-9.0285
X-10.5898Y-6.1535
X-10.5898Y-7.5935
X-10.5698Y-8.3122
X-10.5648Y-5.4335
X-10.5598Y-6.8835
X-10.5548Y-2.1935
X-10.5279Y-0.5004
X-10.4998Y-3.4285
X-10.4998Y-4.0083
X-10.4998Y-4.5885
X-10.4829Y-0.5004
X-10.4798Y-2.1585
X-10.47Y-4.5387
X-10.4698Y-3.2035
X-10.4698Y-3.3787
X-10.4698Y-3.9587
X-10.4448Y-5.1435
X-10.4448Y-8.0335
X-10.44Y-3.9087
X-10.44Y-4.4887
X-10.4398Y-3.3287
X-10.4398Y-6.5985
X-10.4298Y-3.0735
X-10.4098Y-3.2785
X-10.4098Y-3.8583
X-10.4098Y-4.4385
X-10.3918Y-15.7035
X-10.3768Y-8.3122
X-10.3748Y-6.8835
X-10.3736Y-5.4322
X-10.3698Y-3.3785
X-10.3398Y-1.2335
X-10.3398Y-1.2735
X-10.3048Y-4.5735
X-10.2548Y-4.0135
X-10.2298Y-3.8535
X-10.1998Y-4.6835
X-10.1648Y-6.0735
X-10.1498Y-7.5235
X-10.1498Y-14.9295
X-10.1398Y-8.9535
X-10.1323Y-4.011
X-10.1298Y-2.0535
X-10.1298Y-2.1035
X-10.1298Y-2.4035
X-10.1298Y-2.4535
X-10.1118Y-15.4115
X-10.0898Y-8.7085
X-10.0898Y-13.5695
X-10.0598Y-8.0335
X-10.0548Y-6.9535
X-10.0398Y-4.0085
X-10.0348Y-8.3122
X-10.0248Y-5.5185
X-10.0198Y-5.8085
X-10.0198Y-15.4995
X-10.0048Y-7.2735
X-9.9998Y-4.7985
X-9.9998Y-8.3985
X-9.9816Y-15.4113
X-9.9498Y-13.4695
X-9.9198Y-14.6995
X-9.9148Y-4.3435
X-9.9098Y-1.3935
X-9.9098Y-1.4435
X-9.8823Y-4.686
X-9.8798Y0.0065
X-9.8798Y-0.1035
X-9.8748Y-2.5585
X-9.8648Y-2.2285
X-9.8298Y-2.6035
X-9.8198Y-1.6535
X-9.8198Y-1.5835
X-9.8148Y-2.2285
X-9.7998Y-4.0135
X-9.7998Y-13.6995
X-9.7998Y-14.0395
X-9.7998Y-15.4195
X-9.7798Y-0.2035
X-9.7798Y-1.4535
X-9.7758Y-13.5535
X-9.7698Y-0.1035
X-9.7698Y-14.9195
X-9.7648Y-4.7585
X-9.7458Y-7.5126
X-9.7448Y-6.0585
X-9.7382Y-8.9535
X-9.7288Y-11.3071
X-9.7217Y-10.9638
X-9.7198Y-15.6295
X-9.7098Y-13.5535
X-9.7048Y-0.4735
X-9.6971Y-11.4471
X-9.6838Y-2.7535
X-9.6798Y-2.8535
X-9.6798Y-2.9035
X-9.6798Y-2.9534
X-9.6798Y-2.8035
X-9.6627Y-11.076
X-9.6598Y-0.4285
X-9.6598Y-14.9195
X-9.6524Y-4.4509
X-9.6298Y-0.2835
X-9.6298Y-1.3535
X-9.5865Y-5.4322
X-9.5859Y-6.8803
X-9.5708Y-8.3163
X-9.5598Y-4.6804
X-9.5498Y-2.9035
X-9.5489Y-4.0045
X-9.4998Y-14.6495
X-9.4498Y-6.5985
X-9.4498Y-5.1485
X-9.4478Y-14.0895
X-9.4398Y-4.4985
X-9.4348Y-8.0375
X-9.4325Y-15.7868
X-9.4098Y-3.0185
X-9.3948Y-0.4885
X-9.3923Y-4.2261
X-9.3923Y-4.4509
X-9.3815Y-5.4322
X-9.3809Y-6.8803
X-9.3748Y-1.2435
X-9.3658Y-8.3163
X-9.3497Y-10.95
X-9.3398Y-2.6035
X-9.3178Y-13.9915
X-9.3098Y-15.3795
X-9.2898Y-3.6585
X-9.2798Y-2.6035
X-9.2762Y-2.1921
X-9.2748Y-2.3535
X-9.2719Y-10.9353
X-9.2498Y-1.0585
X-9.2498Y-15.2795
X-9.2444Y-10.8024
X-9.2298Y-2.3535
X-9.2119Y-10.9343
X-9.1604Y-5.1835
X-9.1598Y-4.5185
X-9.1598Y-6.6315
X-9.1498Y-15.1795
X-9.1447Y-8.0676
X-9.1398Y-6.2635
X-9.1398Y-7.7035
X-9.1348Y-4.1885
X-9.0798Y-3.7185
X-9.0698Y-3.5985
X-9.0698Y-6.2935
X-9.0629Y-3.4704
X-9.06Y-2.6887
X-9.0598Y-1.1985
X-9.0498Y-14.9595
X-9.0357Y-11.2266
X-9.0327Y-10.0927
X-9.0298Y-5.1535
X-9.0298Y-6.6285
X-9.0298Y-7.7635
X-9.0206Y-2.8527
X-9.0198Y-8.0685
X-9.0198Y-14.7695
X-9.0023Y-1.146
X-8.9963Y-10.8467
X-8.9898Y-5.4635
X-8.9898Y-6.9135
X-8.9798Y-2.7935
X-8.9723Y-3.601
X-8.9619Y-10.9057
X-8.9601Y-11.3695
X-8.9298Y-0.6085
X-8.9098Y-4.2585
X-8.9098Y-4.4385
X-8.9098Y-4.4885
X-8.8998Y-15.6795
X-8.8987Y-3.5996
X-8.8967Y-2.4366
X-8.883Y-3.9267
X-8.8798Y-3.0535
X-8.8498Y-14.8195
X-8.8298Y-3.9635
X-8.8298Y-15.9295
X-8.8198Y-2.4335
X-8.7948Y-4.3235
X-8.7948Y-4.4735
X-8.7798Y-3.0535
X-8.7798Y-3.7185
X-8.7798Y-15.1495
X-8.7723Y-2.251
X-8.7646Y-15.6647
X-8.7339Y-4.0045
X-8.6398Y-15.6495
X-8.6298Y-15.0095
X-8.6048Y-4.4385
X-8.5898Y-2.2535
X-8.5898Y-2.4335
X-8.5798Y-1.7035
X-8.5748Y-7.1885
X-8.5648Y-8.6035
X-8.5598Y-4.3985
X-8.5448Y-5.7185
X-8.5398Y-2.2535
X-8.5398Y-2.3035
X-8.5398Y-2.3589
X-8.5398Y-2.4335
X-8.5248Y-0.6935
X-8.4298Y-15.8795
X-8.4298Y-16.2795
X-8.3998Y-15.0095
X-8.3998Y-15.1795
X-8.3398Y-15.2695
X-8.3079Y-0.7704
X-8.3Y-4.5537
X-8.2648Y-2.3035
X-8.2548Y-1.0735
X-8.2334Y-2.3585
X-8.2298Y-1.8035
X-8.2298Y-4.3535
X-8.2298Y-4.4035
X-8.2298Y-4.4535
X-8.2298Y-4.5035
X-8.2298Y-4.5835
X-8.2298Y-4.6235
X-8.2298Y-4.6635
X-8.2298Y-4.7035
X-8.2298Y-4.7435
X-8.2048Y-2.4335
X-8.1798Y-1.7735
X-8.1798Y-1.8335
X-8.1473Y-6.151
X-8.1448Y-4.1485
X-8.1448Y-7.5935
X-8.1298Y-3.7635
X-8.1298Y-9.0385
X-8.1248Y-5.4385
X-8.1248Y-6.8785
X-8.1248Y-8.3185
X-8.1148Y-2.8535
X-8.0998Y-4.1785
X-8.0798Y-3.9035
X-8.0539Y-2.8544
X-8.0539Y-3.5526
X-8.0398Y-2.3135
X-8.035Y-4.6033
X-8.0348Y-1.2985
X-8.0348Y-4.3835
X-8.0198Y-2.8135
X-8.0148Y-1.2535
X-8.0098Y-3.5535
X-8.0048Y-8.0335
X-8.0048Y-3.8185
X-8.0002Y-6.5889
X-7.9979Y-5.1504
X-7.9846Y-4.5533
X-7.9798Y-2.3135
X-7.9395Y-8.3172
X-7.9359Y-6.8783
X-7.9353Y-5.4385
X-7.935Y-2.2433
X-7.935Y-4.1487
X-7.9348Y-4.7385
X-7.9248Y-1.3385
X-7.9098Y-15.3195
X-7.8848Y-4.1785
X-7.8698Y-7.8335
X-7.8598Y-4.5535
X-7.8408Y-9.9055
X-7.8408Y-10.8455
X-7.8398Y-11.7855
X-7.8298Y-2.3135
X-7.8198Y-7.805
X-7.7998Y-2.5135
X-7.7998Y-2.9135
X-7.7998Y-3.4635
X-7.7998Y-3.8635
X-7.7898Y-1.8335
X-7.7898Y-4.6035
X-7.7848Y-4.2935
X-7.7598Y-8.0335
X-7.7398Y-1.8035
X-7.7348Y-4.3235
X-7.7198Y-6.0785
X-7.7198Y-8.9585
X-7.6959Y-10.0905
X-7.6959Y-11.0305
X-7.6949Y-11.9705
X-7.6908Y-9.9155
X-7.6908Y-9.9855
X-7.6908Y-10.8555
X-7.6908Y-10.9255
X-7.6898Y-1.5135
X-7.6898Y-1.7735
X-7.6898Y-7.5185
X-7.6898Y-11.7955
X-7.6898Y-11.8655
X-7.6848Y-4.3535
X-7.6848Y-4.4135
X-7.6808Y-10.2055
X-7.6808Y-11.1455
X-7.6798Y-12.0855
X-7.6608Y-9.8255
X-7.6608Y-10.7655
X-7.6598Y-6.3798
X-7.6598Y-11.7055
X-7.6498Y-8.7135
X-7.6448Y-7.2835
X-7.6443Y-5.839
X-7.6398Y-6.5889
X-7.6298Y-2.5435
X-7.6298Y-2.9035
X-7.6298Y-16.1095
X-7.6198Y-5.1885
X-7.6148Y-8.3935
X-7.6098Y-3.4935
X-7.6098Y-3.8135
X-7.5898Y-5.5135
X-7.5898Y-6.3798
X-7.5698Y-5.4385
X-7.5598Y-6.8753
X-7.5411Y-8.3172
X-7.5195Y-6.9385
X-7.5048Y-3.7585
X-7.4998Y-2.2235
X-7.4971Y-2.2862
X-7.4898Y-2.8835
X-7.4808Y-9.869
X-7.4808Y-10.809
X-7.4798Y-2.5135
X-7.4798Y-1.1035
X-7.4798Y-3.4935
X-7.4798Y-11.749
X-7.4798Y-16.1095
X-7.475Y-4.7035
X-7.4748Y-4.3835
X-7.4598Y-13.1995
X-7.4598Y-13.4195
X-7.4498Y-13.3095
X-7.4498Y-13.8595
X-7.4498Y-14.1495
X-7.4308Y-10.1855
X-7.4308Y-10.2855
X-7.4308Y-11.1255
X-7.4308Y-11.2255
X-7.4298Y-12.0655
X-7.4298Y-12.1655
X-7.4248Y-4.6035
X-7.4246Y-4.122
X-7.4098Y-8.9435
X-7.4048Y-1.1035
X-7.4048Y-1.4935
X-7.3798Y-2.2835
X-7.3748Y-4.1035
X-7.3748Y-4.7835
X-7.3723Y-2.216
X-7.3408Y-10.2355
X-7.3408Y-10.2755
X-7.3408Y-11.1755
X-7.3408Y-11.2155
X-7.3398Y-1.5435
X-7.3398Y-12.1155
X-7.3398Y-12.1555
X-7.325Y-4.5535
X-7.3248Y-4.1035
X-7.3198Y-2.2835
X-7.3098Y-14.0595
X-7.2998Y-2.5135
X-7.2998Y-2.9135
X-7.2998Y-3.4635
X-7.2998Y-3.8635
X-7.2998Y-6.0635
X-7.2998Y-7.5085
X-7.2998Y-13.3395
X-7.2998Y-14.0195
X-7.2898Y-1.2985
X-7.2873Y-1.351
X-7.2863Y-1.465
X-7.2748Y-4.1035
X-7.2748Y-4.5535
X-7.2598Y-13.4695
X-7.2598Y-14.1995
X-7.2498Y-13.9295
X-7.2408Y-10.0755
X-7.2408Y-11.0155
X-7.2398Y-11.9555
X-7.2308Y-9.9555
X-7.2308Y-10.8955
X-7.2298Y-11.8355
X-7.2248Y-1.8385
X-7.2248Y-4.2935
X-7.1798Y-1.8035
X-7.1748Y-4.3235
X-7.1373Y-5.441
X-7.1309Y-8.3172
X-7.1298Y-1.7735
X-7.1295Y-6.8753
X-7.1248Y-4.3535
X-7.1248Y-4.4135
X-7.1198Y-3.8335
X-7.1098Y-3.5335
X-7.0998Y-2.5435
X-7.0998Y-2.8659
X-7.0508Y-10.1405
X-7.0508Y-11.0805
X-7.0498Y-12.0205
X-7.0398Y-0.3935
X-7.0298Y-14.8395
X-7.0108Y-9.9705
X-7.0108Y-10.9105
X-7.0098Y-11.8505
X-6.9998Y-2.5435
X-6.9998Y-2.8735
X-6.9948Y-8.0335
X-6.9929Y-5.1504
X-6.9908Y-10.1555
X-6.9908Y-11.0955
X-6.9898Y-3.5035
X-6.9898Y-3.8335
X-6.9898Y-12.0355
X-6.9898Y-15.2995
X-6.9895Y-6.5889
X-6.9798Y-4.7035
X-6.9498Y-0.7035
X-6.9308Y-10.1405
X-6.9308Y-11.0805
X-6.9298Y-1.9735
X-6.9298Y-2.0335
X-6.9298Y-2.2235
X-6.9298Y-12.0205
X-6.9259Y-8.3172
X-6.9248Y-4.3835
X-6.9248Y-4.5535
X-6.9245Y-6.8753
X-6.9123Y-5.441
X-6.8748Y-1.3035
X-6.8746Y-4.1637
X-6.8746Y-4.6033
X-6.8598Y-2.0335
X-6.825Y-4.1337
X-6.8148Y-1.4585
X-6.8148Y-9.1885
X-6.8147Y-9.2471
X-6.8098Y-2.5135
X-6.8098Y-2.9135
X-6.8098Y-3.4635
X-6.8098Y-3.8635
X-6.7904Y-9.8815
X-6.7904Y-10.8215
X-6.7898Y-2.0335
X-6.7894Y-11.7615
X-6.7798Y-2.2235
X-6.775Y-4.1037
X-6.775Y-4.6533
X-6.7698Y-9.1585
X-6.7698Y-9.2185
X-6.7698Y-9.2785
X-6.7635Y-7.7685
X-6.7583Y-10.268
X-6.7583Y-11.208
X-6.7573Y-12.148
X-6.7558Y-10.0405
X-6.7558Y-10.9805
X-6.7548Y-11.9205
X-6.7248Y-4.582
X-6.7198Y-2.2235
X-6.7198Y-6.3285
X-6.7048Y-8.0685
X-6.7037Y-5.1848
X-6.7034Y-6.6265
X-6.6898Y-7.5185
X-6.6748Y-4.2935
X-6.6746Y-1.8387
X-6.6658Y-10.1055
X-6.6658Y-11.0455
X-6.6648Y-11.9855
X-6.625Y-1.8083
X-6.6248Y-4.3235
X-6.6098Y-3.4935
X-6.6098Y-3.8235
X-6.5998Y-2.3335
X-6.5998Y-2.5735
X-6.5998Y-2.8435
X-6.5998Y-14.3495
X-6.5898Y-0.6635
X-6.5798Y-8.0335
X-6.5798Y-1.7735
X-6.5748Y-4.4135
X-6.5746Y-4.3533
X-6.5408Y-10.1055
X-6.5408Y-10.3255
X-6.5408Y-11.0455
X-6.5408Y-11.2655
X-6.5398Y-11.9855
X-6.5398Y-12.2055
X-6.5398Y-13.8295
X-6.5398Y-13.9095
X-6.5198Y-13.1795
X-6.5198Y-13.2595
X-6.5198Y-13.6295
X-6.5198Y-14.1895
X-6.5198Y-14.2595
X-6.5112Y-13.4781
X-6.5098Y-13.5595
X-6.4798Y-2.0635
X-6.4698Y-4.1635
X-6.4498Y-2.2935
X-6.4398Y-5.2585
X-6.4398Y-5.5785
X-6.4398Y-14.5495
X-6.4348Y-4.1335
X-6.4298Y-6.6435
X-6.4298Y-6.8235
X-6.4298Y-8.0235
X-6.4198Y-2.3235
X-6.4098Y-14.3595
X-6.4026Y-8.1335
X-6.3998Y-4.1035
X-6.3998Y-5.5035
X-6.3998Y-5.6635
X-6.3998Y-5.7135
X-6.3998Y-5.7635
X-6.3998Y-5.8135
X-6.39Y-7.3383
X-6.3898Y-8.7735
X-6.3898Y-2.2935
X-6.3898Y-7.0185
X-6.3898Y-7.6635
X-6.3898Y-7.7035
X-6.3898Y-7.7435
X-6.3898Y-7.7835
X-6.3898Y-7.8235
X-6.3898Y-8.4535
X-6.3898Y-9.0935
X-6.37Y-6.3835
X-6.3698Y-6.1835
X-6.3698Y-6.2335
X-6.3698Y-6.2835
X-6.3696Y-6.3333
X-6.3598Y-2.3235
X-6.3598Y-13.3695
X-6.3498Y-5.5035
X-6.3498Y-6.6935
X-6.3298Y-2.2935
X-6.3198Y-4.6535
X-6.3198Y-5.8735
X-6.3098Y-14.0595
X-6.2998Y-2.3235
X-6.2922Y-7.9711
X-6.2898Y-4.6135
X-6.2898Y-7.1685
X-6.2898Y-13.6995
X-6.2698Y-2.2935
X-6.2598Y-4.5835
X-6.2498Y-5.0035
X-6.2498Y-5.0985
X-6.2498Y-5.4035
X-6.2398Y-2.3235
X-6.2298Y-4.5535
X-6.2198Y-5.7135
X-6.1998Y-1.4235
X-6.1958Y-14.4735
X-6.1798Y-2.0635
X-6.1748Y-8.5485
X-6.1598Y-5.8135
X-6.1558Y-9.8305
X-6.1558Y-10.7705
X-6.1548Y-11.7105
X-6.0598Y-5.0035
X-6.0598Y-5.0985
X-6.0598Y-5.4035
X-6.0498Y-13.6595
X-6.0498Y-16.3595
X-6.0098Y-16.2695
X-5.9998Y-2.0135
X-5.9198Y-2.1535
X-5.8698Y-13.6595
X-5.8498Y-2.2835
X-5.8398Y-0.8835
X-5.8298Y-13.3495
X-5.7898Y-1.0635
X-5.7898Y-14.0595
X-5.6598Y-15.5395
X-5.5798Y-0.4035
X-5.5798Y-0.4485
X-5.1457Y-2.6391
X-5.1447Y-9.6551
X-5.1407Y-6.1421
X-5.0028Y-11.3205
X-5.0028Y-12.2615
X-4.9283Y-0.6354
X-4.9273Y-7.6514
X-4.9233Y-4.1384
X-4.9162Y-1.6544
X-4.9152Y-8.6704
X-4.9112Y-5.1574
X-4.8831Y-2.6954
X-4.8821Y-9.7114
X-4.8808Y-1.5985
X-4.8798Y-8.6145
X-4.8781Y-6.1984
X-4.8758Y-5.1015
X-4.8359Y-1.1158
X-4.8349Y-8.1318
X-4.8309Y-4.6188
X-4.8177Y-1.5343
X-4.8167Y-8.5503
X-4.8127Y-5.0373
X-4.8067Y-1.7639
X-4.8057Y-8.7799
X-4.8017Y-5.2669
X-4.7708Y-0.4385
X-4.7698Y-7.4545
X-4.7658Y-3.9415
X-4.6811Y-2.4418
X-4.6801Y-9.4578
X-4.6761Y-5.9448
X-4.6178Y-10.8255
X-4.6178Y-11.0455
X-4.6178Y-11.7665
X-4.6178Y-11.9865
X-4.6108Y-1.2785
X-4.6103Y-1.4808
X-4.6098Y-8.2945
X-4.6093Y-8.4968
X-4.6058Y-4.7815
X-4.6053Y-4.9838
X-4.5849Y-2.1422
X-4.5839Y-9.1582
X-4.5799Y-5.6452
X-4.5582Y-14.8099
X-4.5508Y-0.6885
X-4.5498Y-7.7045
X-4.5458Y-4.1915
X-4.5378Y-14.4382
X-4.5319Y-1.9635
X-4.5309Y-8.9795
X-4.5269Y-5.4665
X-4.5153Y-13.2221
X-4.5063Y-14.3556
X-4.5006Y-14.4172
X-4.4928Y-11.0455
X-4.4928Y-11.9865
X-4.4788Y-1.0249
X-4.4778Y-8.0409
X-4.476Y-2.4387
X-4.475Y-9.4547
X-4.4738Y-4.5279
X-4.471Y-5.9417
X-4.4708Y-0.4985
X-4.4698Y-7.5145
X-4.4658Y-4.0015
X-4.4543Y-16.0319
X-4.4472Y-14.3489
X-4.4386Y-2.6414
X-4.4376Y-9.6574
X-4.4336Y-6.1444
X-4.4208Y-1.0685
X-4.4208Y-2.2085
X-4.4198Y-8.0845
X-4.4198Y-9.2245
X-4.4158Y-4.5715
X-4.4158Y-5.7115
X-4.4032Y-1.9253
X-4.4028Y-11.1105
X-4.4028Y-12.0515
X-4.4022Y-8.9413
X-4.4008Y-0.6385
X-4.4003Y-10.883
X-4.4003Y-11.824
X-4.3998Y-7.6545
X-4.3982Y-5.4283
X-4.3972Y-14.5134
X-4.3958Y-4.1415
X-4.3683Y-11.2695
X-4.3683Y-12.2105
X-4.3512Y-1.1808
X-4.3502Y-8.1968
X-4.3462Y-4.6838
X-4.3414Y-1.3812
X-4.3408Y-0.4685
X-4.3404Y-8.3972
X-4.3398Y-7.4845
X-4.3364Y-4.8842
X-4.3358Y-3.9715
X-4.3256Y-2.6371
X-4.3246Y-9.6531
X-4.3206Y-6.1401
X-4.309Y-14.4316
X-4.3004Y-0.9851
X-4.3004Y-1.2339
X-4.2994Y-8.0011
X-4.2994Y-8.2499
X-4.2954Y-4.4881
X-4.2954Y-4.7369
X-4.2662Y-2.4331
X-4.2652Y-9.4491
X-4.2612Y-5.9361
X-4.2279Y-14.4296
X-4.2278Y-11.0105
X-4.2278Y-11.9515
X-4.2271Y-14.9957
X-4.2208Y-1.0639
X-4.2198Y-8.0799
X-4.2158Y-4.5669
X-4.1941Y-15.8457
X-4.1872Y-14.1963
X-4.1847Y-1.9438
X-4.1837Y-8.9598
X-4.1797Y-5.4468
X-4.1779Y-14.251
X-4.1732Y-15.1032
X-4.1678Y-10.9955
X-4.1678Y-11.9365
X-4.1478Y-11.1805
X-4.1478Y-12.1215
X-4.1408Y-1.1785
X-4.1398Y-8.1945
X-4.1358Y-4.6815
X-4.1078Y-11.0105
X-4.1078Y-11.9515
X-4.1017Y-14.6295
X-4.0992Y-0.8253
X-4.0982Y-7.8413
X-4.0978Y-15.0688
X-4.0973Y-14.4321
X-4.0942Y-4.3283
X-4.0799Y-14.1127
X-4.0779Y-1.0354
X-4.0769Y-8.0514
X-4.0729Y-1.078
X-4.0729Y-4.5384
X-4.0719Y-8.094
X-4.0708Y-0.9985
X-4.0708Y-1.1285
X-4.0708Y-1.1785
X-4.0698Y-8.0145
X-4.0698Y-8.1445
X-4.0698Y-8.1945
X-4.0679Y-4.581
X-4.0665Y-13.7571
X-4.0658Y-4.5015
X-4.0658Y-4.6315
X-4.0658Y-4.6815
X-4.0618Y-15.3823
X-4.05Y-2.1115
X-4.049Y-9.1275
X-4.0453Y-0.6391
X-4.045Y-5.6145
X-4.0443Y-7.6551
X-4.0403Y-4.1421
X-4.0329Y-1.8633
X-4.0319Y-8.8793
X-4.0308Y-1.5585
X-4.0298Y-8.5745
X-4.0279Y-5.3663
X-4.026Y-13.0201
X-4.0258Y-5.0615
X-4.0256Y-2.1639
X-4.0256Y-13.4745
X-4.0246Y-9.1799
X-4.0208Y-0.9485
X-4.0206Y-5.6669
X-4.0198Y-7.9645
X-4.0158Y-4.4515
X-4.011Y-2.0639
X-4.01Y-9.0799
X-4.0082Y-14.8906
X-4.0067Y-14.2847
X-4.006Y-5.5669
X-4.0055Y-15.228
X-3.9941Y-15.3855
X-3.9655Y-13.9046
X-3.9575Y-15.7532
X-3.9366Y-2.4036
X-3.9356Y-9.4196
X-3.9316Y-5.9066
X-3.9278Y-11.1955
X-3.9278Y-12.1365
X-3.9244Y-13.6851
X-3.9244Y-13.9001
X-3.9178Y-11.0755
X-3.9178Y-12.0165
X-3.9028Y-15.1895
X-3.8828Y-14.2172
X-3.8669Y-14.526
X-3.863Y-14.3674
X-3.8571Y-14.9953
X-3.8571Y-15.1902
X-3.8178Y-10.8755
X-3.8178Y-10.9155
X-3.8178Y-11.8165
X-3.8178Y-11.8565
X-3.8128Y-13.816
X-3.8028Y-15.1895
X-3.7278Y-10.8655
X-3.7278Y-10.9655
X-3.7278Y-11.8065
X-3.7278Y-11.9065
X-3.6778Y-11.282
X-3.6778Y-12.223
X-3.6677Y-13.2375
X-3.6508Y-15.8564
X-3.6358Y-16.2095
X-3.5555Y-12.9934
X-3.5331Y-1.645
X-3.5321Y-8.661
X-3.5281Y-5.148
X-3.5141Y-14.765
X-3.5075Y-1.6843
X-3.5065Y-8.7003
X-3.5025Y-5.1873
X-3.4978Y-11.3255
X-3.4978Y-12.2665
X-3.4866Y-2.1678
X-3.4856Y-9.1838
X-3.4846Y-14.0445
X-3.4816Y-5.6708
X-3.4782Y-2.0133
X-3.4778Y-10.9455
X-3.4778Y-11.8865
X-3.4772Y-9.0293
X-3.4732Y-5.5163
X-3.4678Y-11.1655
X-3.4678Y-11.2355
X-3.4678Y-12.1065
X-3.4678Y-12.1765
X-3.4628Y-11.0605
X-3.4628Y-12.0015
X-3.461Y-0.9524
X-3.46Y-7.9684
X-3.4595Y-0.8505
X-3.4585Y-7.8665
X-3.456Y-4.4554
X-3.4551Y-1.0505
X-3.4545Y-4.3535
X-3.4541Y-8.0665
X-3.4512Y-1.7261
X-3.4512Y-1.8954
X-3.4502Y-8.7421
X-3.4502Y-8.9114
X-3.4501Y-4.5535
X-3.4462Y-5.2291
X-3.4462Y-5.3984
X-3.4429Y-2.3863
X-3.4419Y-9.4023
X-3.44Y-1.1133
X-3.439Y-8.1293
X-3.4379Y-5.8893
X-3.435Y-4.6163
X-3.4307Y-2.6666
X-3.4297Y-9.6826
X-3.428Y-1.2465
X-3.427Y-8.2625
X-3.4268Y-1.4572
X-3.4258Y-8.4732
X-3.4257Y-6.1696
X-3.423Y-4.7495
X-3.4218Y-4.9602
X-3.4197Y-1.1828
X-3.4187Y-8.1988
X-3.4147Y-4.6858
X-3.3949Y-0.7434
X-3.3939Y-7.7594
X-3.3899Y-4.2464
X-3.3461Y-2.2269
X-3.3451Y-9.2429
X-3.3413Y-14.5497
X-3.3411Y-5.7299
X-3.3402Y-1.9749
X-3.3392Y-8.9909
X-3.3352Y-5.4779
X-3.3303Y-15.1166
X-3.3288Y-1.8737
X-3.3288Y-1.8737
X-3.3278Y-8.8897
X-3.3278Y-8.8897
X-3.3238Y-5.3767
X-3.3238Y-5.3767
X-3.3229Y-2.7367
X-3.3219Y-9.7527
X-3.3179Y-6.2397
X-3.3178Y-11.2455
X-3.3178Y-12.1865
X-3.3146Y-0.4331
X-3.3136Y-7.4491
X-3.3128Y-15.5895
X-3.3096Y-3.9361
X-3.2973Y-14.218
X-3.2961Y-2.3083
X-3.2951Y-9.3243
X-3.2921Y-2.1835
X-3.2911Y-9.1995
X-3.2911Y-5.8113
X-3.2871Y-5.6865
X-3.2756Y-15.8564
X-3.2521Y-14.4605
X-3.2289Y-14.3483
X-3.2205Y-0.4001
X-3.2195Y-7.4161
X-3.2155Y-3.9031
X-3.2152Y-2.318
X-3.2142Y-9.334
X-3.213Y-15.9926
X-3.2102Y-5.821
X-3.2098Y-14.8835
X-3.1828Y-15.9195
X-3.1689Y-2.3548
X-3.1679Y-9.3708
X-3.1639Y-5.8578
X-3.1628Y-15.8695
X-3.1595Y-2.7402
X-3.1585Y-9.7562
X-3.1545Y-6.2432
X-3.1011Y-2.0516
X-3.1001Y-9.0676
X-3.1Y-0.4009
X-3.0992Y-1.0135
X-3.099Y-7.4169
X-3.0982Y-8.0295
X-3.0961Y-5.5546
X-3.095Y-3.9039
X-3.0942Y-4.5165
X-3.0925Y-2.6973
X-3.0915Y-9.7133
X-3.0875Y-6.2003
X-3.0831Y-2.156
X-3.0821Y-9.172
X-3.0811Y-14.8812
X-3.0811Y-15.2674
X-3.0781Y-5.659
X-3.0669Y-13.9607
X-3.0638Y-1.102
X-3.0628Y-8.118
X-3.0588Y-4.605
X-2.9874Y-2.0891
X-2.9864Y-9.1051
X-2.9824Y-5.5921
X-2.978Y-1.2166
X-2.977Y-8.2326
X-2.9752Y-1.7269
X-2.9742Y-8.7429
X-2.9736Y-0.6757
X-2.973Y-4.7196
X-2.9726Y-7.6917
X-2.9702Y-5.2299
X-2.9686Y-4.1787
X-2.9677Y-0.83
X-2.9667Y-7.846
X-2.9634Y-0.5457
X-2.9627Y-4.333
X-2.9624Y-7.5617
X-2.9584Y-4.0487
X-2.9437Y-2.7371
X-2.9427Y-9.7531
X-2.9387Y-6.2401
X-2.9323Y-14.3713
X-2.9Y-15.7394
X-2.861Y-2.4717
X-2.86Y-9.4877
X-2.856Y-5.9747
X-2.8484Y-14.9127
X-2.8028Y-0.4225
X-2.8018Y-7.4385
X-2.7978Y-3.9255
X-2.7945Y-0.7643
X-2.7935Y-7.7803
X-2.7895Y-4.2673
X-2.7874Y-14.9028
X-2.7685Y-1.3174
X-2.7675Y-8.3334
X-2.7635Y-4.8204
X-2.715Y-2.3363
X-2.714Y-9.3523
X-2.71Y-5.8393
X-2.6315Y-15.2516
X-2.6303Y-1.7339
X-2.6293Y-8.7499
X-2.6253Y-5.2369
X-2.6213Y-2.3784
X-2.6203Y-9.3944
X-2.6163Y-5.8814
X-2.6157Y-15.6886
X-2.6146Y-1.3261
X-2.6136Y-8.3421
X-2.6096Y-4.8291
X-2.5996Y-0.7284
X-2.5986Y-7.7444
X-2.5968Y-13.8465
X-2.5946Y-4.2314
X-2.589Y-1.8139
X-2.588Y-8.8299
X-2.584Y-5.3169
X-2.5662Y-1.9272
X-2.5652Y-8.9432
X-2.5628Y-15.6895
X-2.5612Y-5.4302
X-2.5456Y-13.4993
X-2.539Y-0.8713
X-2.538Y-7.8873
X-2.534Y-4.3743
X-2.5128Y-13.2695
X-2.5126Y-1.0456
X-2.5116Y-8.0616
X-2.5076Y-4.5486
X-2.504Y-1.2867
X-2.503Y-8.3027
X-2.499Y-4.7897
X-2.4937Y-0.7414
X-2.4927Y-7.7574
X-2.4925Y-0.6237
X-2.4915Y-7.6397
X-2.4894Y-2.1328
X-2.4887Y-4.2444
X-2.4884Y-9.1488
X-2.4875Y-4.1267
X-2.4844Y-5.6358
X-2.4843Y-1.8524
X-2.4833Y-8.8684
X-2.4793Y-5.3554
X-2.4661Y-15.6225
X-2.465Y-0.465
X-2.464Y-7.481
X-2.4628Y-14.4995
X-2.46Y-3.968
X-2.4536Y-0.7796
X-2.4526Y-7.7956
X-2.4486Y-4.2826
X-2.4421Y-1.0422
X-2.4411Y-8.0582
X-2.4371Y-4.5452
X-2.4331Y-1.9946
X-2.4321Y-9.0106
X-2.4281Y-5.4976
X-2.4212Y-15.6595
X-2.4193Y-1.2662
X-2.4183Y-8.2822
X-2.4143Y-4.7692
X-2.4016Y-14.4552
X-2.3828Y-15.6243
X-2.3788Y-2.2619
X-2.3778Y-2.3956
X-2.3778Y-9.2779
X-2.3768Y-9.4116
X-2.3738Y-5.7649
X-2.3729Y-1.382
X-2.3728Y-5.8986
X-2.3719Y-8.398
X-2.3679Y-4.885
X-2.3268Y-1.432
X-2.3258Y-8.448
X-2.3218Y-4.935
X-2.2504Y-15.4922
X-2.1937Y-14.326
X-2.1628Y-14.4495
X-2.1328Y-15.6395
X-2.1112Y-15.0254
X-2.0925Y-14.7784
X-2.0236Y-0.4855
X-2.0226Y-7.5015
X-2.0186Y-3.9885
X-2.0063Y-15.1977
X-1.9897Y-14.8804
X-1.9689Y-16.3386
X-1.9401Y-15.7083
X-1.9212Y-15.4922
X-1.9Y-13.9276
X-1.8992Y-16.3583
X-1.8969Y-14.4454
X-1.8728Y-14.8695
X-1.8228Y-14.4491
X-1.8228Y-14.0695
X-1.8122Y-15.2154
X-1.7728Y-15.0695
X-1.7628Y-13.9395
X-1.7628Y-14.8395
X-1.7516Y-2.9359
X-1.7508Y-14.4179
X-1.7506Y-9.9519
X-1.7466Y-6.4389
X-1.7328Y-15.5795
X-1.7328Y-16.2495
X-1.7256Y-1.4221
X-1.7246Y-8.4381
X-1.7206Y-4.9251
X-1.7118Y-14.4386
X-1.6628Y-15.5995
X-1.6628Y-16.2495
X-1.6228Y-15.2997
X-1.6055Y-15.4926
X-1.5876Y-15.4073
X-1.5645Y-16.1316
X-1.433Y-14.5906
X-1.4027Y-14.8323
X-1.3128Y-15.9995
X-1.2413Y-16.1312
X-1.2328Y-13.5895
X-1.1376Y-15.1695
X-1.1328Y-15.9495
X-1.061Y-15.0351
X-1.0528Y-14.2795
T2
X-15.2703Y-16.3722
X-15.2427Y-16.3054
X-15.2427Y-16.439
X-15.1758Y-16.2777
X-15.1758Y-16.4667
X-15.109Y-16.3054
X-15.109Y-16.439
X-15.0814Y-16.3722
X-11.7431Y-16.3739
X-11.7154Y-16.307
X-11.7154Y-16.4407
X-11.6486Y-16.2794
X-11.6486Y-16.4684
X-11.5817Y-16.307
X-11.5817Y-16.4407
X-11.5541Y-16.3739
X-5.2278Y-12.7076
X-5.2001Y-12.6408
X-5.2001Y-12.7744
X-5.1333Y-12.6131
X-5.1333Y-12.8021
X-5.0665Y-12.6408
X-5.0665Y-12.7744
X-5.0388Y-12.7076
X-15.2742Y-12.8437
X-15.2465Y-12.7769
X-15.2465Y-12.9105
X-15.1797Y-12.7492
X-15.1797Y-12.9382
X-15.1129Y-12.7769
X-15.1129Y-12.9105
X-15.0852Y-12.8437
X-15.2753Y-5.9645
X-15.2476Y-5.8977
X-15.2476Y-6.0313
X-15.1808Y-5.87
X-15.1808Y-6.059
X-15.114Y-5.8977
X-15.114Y-6.0313
X-15.0863Y-5.9645
X-15.275Y-3.6439
X-15.2473Y-3.5771
X-15.2473Y-3.7107
X-15.1805Y-3.5494
X-15.1805Y-3.7384
X-15.1137Y-3.5771
X-15.1137Y-3.7107
X-15.086Y-3.6439
X-15.2744Y-5.4617
X-15.2467Y-5.3949
X-15.2467Y-5.5285
X-15.1799Y-5.3672
X-15.1799Y-5.5562
X-15.1131Y-5.3949
X-15.1131Y-5.5285
X-15.0854Y-5.4617
X-11.7353Y-9.5045
X-11.7076Y-9.4377
X-11.7076Y-9.5713
X-11.6408Y-9.41
X-11.6408Y-9.599
X-11.574Y-9.4377
X-11.574Y-9.5713
X-11.5463Y-9.5045
X-11.7373Y-5.9665
X-11.7096Y-5.8997
X-11.7096Y-6.0333
X-11.6428Y-5.872
X-11.6428Y-6.061
X-11.576Y-5.8997
X-11.576Y-6.0333
X-11.5483Y-5.9665
X-11.735Y-0.1039
X-11.7073Y-0.0371
X-11.7073Y-0.1707
X-11.6405Y-0.0094
X-11.6405Y-0.1984
X-11.5737Y-0.0371
X-11.5737Y-0.1707
X-11.546Y-0.1039
X-11.2449Y-12.7068
X-11.2172Y-12.64
X-11.2172Y-12.7736
X-11.1504Y-12.6123
X-11.1504Y-12.8013
X-11.0835Y-12.64
X-11.0835Y-12.7736
X-11.0559Y-12.7068
X-11.7253Y-12.3455
X-11.6976Y-12.2787
X-11.6976Y-12.4123
X-11.6308Y-12.251
X-11.6308Y-12.44
X-11.564Y-12.2787
X-11.564Y-12.4123
X-11.5363Y-12.3455
X-5.7343Y-0.0635
X-5.7066Y0.0033
X-5.7066Y-0.1303
X-5.6398Y0.031
X-5.6398Y-0.158
X-5.573Y0.0033
X-5.573Y-0.1303
X-5.5453Y-0.0635
X-15.2753Y-9.5065
X-15.2476Y-9.4397
X-15.2476Y-9.5733
X-15.1808Y-9.412
X-15.1808Y-9.601
X-15.114Y-9.4397
X-15.114Y-9.5733
X-15.0863Y-9.5065
X-15.275Y-0.1039
X-15.2473Y-0.0371
X-15.2473Y-0.1707
X-15.1805Y-0.0094
X-15.1805Y-0.1984
X-15.1137Y-0.0371
X-15.1137Y-0.1707
X-15.086Y-0.1039
X-11.2743Y-9.1835
X-11.2466Y-9.1167
X-11.2466Y-9.2503
X-11.1798Y-9.089
X-11.1798Y-9.278
X-11.113Y-9.1167
X-11.113Y-9.2503
X-11.0853Y-9.1835
X-11.7253Y-10.0075
X-11.6976Y-9.9407
X-11.6976Y-10.0743
X-11.6308Y-9.913
X-11.6308Y-10.102
X-11.564Y-9.9407
X-11.564Y-10.0743
X-11.5363Y-10.0075
X-5.2279Y-16.3736
X-5.2002Y-16.3068
X-5.2002Y-16.4404
X-5.1334Y-16.2791
X-5.1334Y-16.4681
X-5.0666Y-16.3068
X-5.0666Y-16.4404
X-5.0389Y-16.3736
X-15.2793Y-10.0055
X-15.2516Y-9.9387
X-15.2516Y-10.0723
X-15.1848Y-9.911
X-15.1848Y-10.1
X-15.118Y-9.9387
X-15.118Y-10.0723
X-15.0903Y-10.0055
X-11.2743Y-0.0635
X-11.2466Y0.0033
X-11.2466Y-0.1303
X-11.1798Y0.031
X-11.1798Y-0.158
X-11.113Y0.0033
X-11.113Y-0.1303
X-11.0853Y-0.0635
X-11.7341Y-4.1428
X-11.7064Y-4.076
X-11.7064Y-4.2096
X-11.6396Y-4.0483
X-11.6396Y-4.2373
X-11.5728Y-4.076
X-11.5728Y-4.2096
X-11.5451Y-4.1428
X-15.2744Y-4.1428
X-15.2467Y-4.076
X-15.2467Y-4.2096
X-15.1799Y-4.0483
X-15.1799Y-4.2373
X-15.1131Y-4.076
X-15.1131Y-4.2096
X-15.0854Y-4.1428
X-11.736Y-5.4636
X-11.7084Y-5.3968
X-11.7084Y-5.5305
X-11.6415Y-5.3692
X-11.6415Y-5.5581
X-11.5747Y-5.3968
X-11.5747Y-5.5305
X-11.5471Y-5.4636
X-11.2407Y-16.3816
X-11.213Y-16.3148
X-11.213Y-16.4484
X-11.1462Y-16.2871
X-11.1462Y-16.4761
X-11.0794Y-16.3148
X-11.0794Y-16.4484
X-11.0517Y-16.3816
X-15.2773Y-12.3435
X-15.2496Y-12.2767
X-15.2496Y-12.4103
X-15.1828Y-12.249
X-15.1828Y-12.438
X-15.116Y-12.2767
X-15.116Y-12.4103
X-15.0883Y-12.3435
X-11.735Y-3.6439
X-11.7073Y-3.5771
X-11.7073Y-3.7107
X-11.6405Y-3.5494
X-11.6405Y-3.7384
X-11.5737Y-3.5771
X-11.5737Y-3.7107
X-11.546Y-3.6439
X-11.7456Y-12.8471
X-11.718Y-12.7802
X-11.718Y-12.9139
X-11.6512Y-12.7526
X-11.6512Y-12.9416
X-11.5843Y-12.7802
X-11.5843Y-12.9139
X-11.5567Y-12.8471
X-5.7343Y-9.1835
X-5.7066Y-9.1167
X-5.7066Y-9.2503
X-5.6398Y-9.089
X-5.6398Y-9.278
X-5.573Y-9.1167
X-5.573Y-9.2503
X-5.5453Y-9.1835
T4
X-10.6247Y-10.5309
X-10.4247Y-10.5309
X-9.5983Y-10.6427
X-9.3983Y-10.6427
X-9.4491Y-11.6098
X-9.2491Y-11.6098
X-9.2959Y-10.5404
X-9.0959Y-10.5404
X-10.7948Y-11.5014
X-10.5948Y-11.5014
X-10.6266Y-10.1527
X-10.4266Y-10.1527
X-9.5991Y-10.2511
X-9.3991Y-10.2511
X-9.5983Y-10.7483
X-9.3983Y-10.7483
X-10.8003Y-11.8234
X-10.6003Y-11.8234
X-10.6266Y-10.0463
X-10.4266Y-10.0463
X-9.2959Y-10.6471
X-9.0959Y-10.6471
X-9.4491Y-11.501
X-9.2491Y-11.501
X-10.6266Y-10.3656
X-10.4266Y-10.3656
X-9.2999Y-10.2506
X-9.0999Y-10.2506
X-9.2955Y-10.749
X-9.0955Y-10.749
X-10.7979Y-11.7148
X-10.5979Y-11.7148
X-10.6266Y-10.2591
X-10.4266Y-10.2591
X-10.5014Y-11.6091
X-10.3014Y-11.6091
X-10.7971Y-11.6093
X-10.5971Y-11.6093
X-10.5026Y-11.7144
X-10.3026Y-11.7144
X-9.4491Y-11.3479
X-9.2491Y-11.3479
X-9.5951Y-10.0372
X-9.3951Y-10.0372
X-9.5955Y-10.3581
X-9.3955Y-10.3581
X-9.4491Y-11.1282
X-9.2491Y-11.1282
X-10.4991Y-11.3455
X-10.2991Y-11.3455
X-10.7885Y-11.1271
X-10.5885Y-11.1271
X-9.5983Y-10.5372
X-9.3983Y-10.5372
X-9.2948Y-10.8494
X-9.0948Y-10.8494
X-10.4999Y-11.5014
X-10.2999Y-11.5014
X-9.2979Y-10.0372
X-9.0979Y-10.0372
X-9.2951Y-10.3573
X-9.0951Y-10.3573
X-9.4491Y-11.0183
X-9.2491Y-11.0183
X-10.4991Y-11.1271
X-10.2991Y-11.1271
X-9.4491Y-11.8274
X-9.2491Y-11.8274
X-10.7885Y-11.0179
X-10.5885Y-11.0179
X-9.5963Y-10.1442
X-9.3963Y-10.1442
X-10.6247Y-10.6427
X-10.4247Y-10.6427
X-10.7885Y-11.3455
X-10.5885Y-11.3455
X-10.7885Y-11.2363
X-10.5885Y-11.2363
X-9.5983Y-10.8538
X-9.3983Y-10.8538
X-10.5038Y-11.8246
X-10.3038Y-11.8246
X-9.2987Y-10.1439
X-9.0987Y-10.1439
X-10.6247Y-10.8664
X-10.4247Y-10.8664
X-10.4991Y-11.2363
X-10.2991Y-11.2363
X-9.4491Y-11.7186
X-9.2491Y-11.7186
X-10.6247Y-10.7546
X-10.4247Y-10.7546
X-10.4991Y-11.0179
X-10.2991Y-11.0179
X-9.4487Y-11.24
X-9.2487Y-11.24
T5
X-9.5761Y-10.9559
X-8.9762Y-11.8915
X-6.6308Y-10.2255
X-6.4387Y-10.2255
X-6.6298Y-12.1055
X-6.4377Y-12.1055
X-6.6298Y-11.8655
X-6.4377Y-11.8655
X-4.7199Y-10.9255
X-4.5278Y-10.9255
X-9.2994Y-3.2635
X-9.1498Y-3.2635
X-4.7199Y-12.1065
X-4.5278Y-12.1065
X-4.7199Y-11.8665
X-4.5278Y-11.8665
X-6.6308Y-9.9855
X-6.4387Y-9.9855
X-8.9398Y-3.2635
X-8.7902Y-3.2635
X-13.8638Y-12.1207
X-13.7638Y-12.1207
X-13.6638Y-12.1207
X-6.6308Y-10.9255
X-6.4387Y-10.9255
X-2.3599Y-11.4134
X-2.3599Y-11.5134
X-2.3599Y-11.6134
X-6.6308Y-11.1655
X-6.4387Y-11.1655
X-4.7199Y-11.1655
X-4.5278Y-11.1655
X-13.4918Y-12.1227
X-13.3918Y-12.1227
X-13.2918Y-12.1227
T6
X-6.1258Y-10.4555
X-6.1258Y-11.3955
X-6.1258Y-9.7548
X-6.1258Y-10.6948
X-6.1248Y-12.3355
X-6.1248Y-11.6348
X-5.0329Y-11.3962
X-5.0329Y-12.3372
X-5.0328Y-10.6955
X-5.0328Y-11.6365
X-2.5245Y-11.6123
X-2.1402Y-11.4918
X-1.8355Y-11.9411
X-1.5211Y-11.4918
X-4.5808Y-2.5954
X-4.5808Y-2.6954
X-3.523Y-8.5594
X-5.8998Y-5.2235
X-5.8998Y-5.3235
X-5.8998Y-5.4235
X-5.8998Y-5.5235
X-9.6841Y-12.0152
X-9.5841Y-12.0152
X-9.4841Y-12.0152
X-9.3841Y-12.0152
X-9.2841Y-12.0152
X-9.1841Y-12.0152
X-9.0841Y-12.0152
X-8.9841Y-12.0152
X-8.8841Y-12.0152
X-8.7841Y-12.0152
X-3.5364Y-3.9346
X-5.1558Y-5.7215
X-5.1558Y-5.8215
X-5.0558Y-5.7215
X-5.0558Y-5.8215
X-4.0358Y-6.2115
X-4.9158Y-3.7175
X-4.9158Y-3.8175
X-14.5056Y-7.7595
X-14.5056Y-8.2319
X-8.1308Y-9.7555
X-8.0308Y-9.7555
X-7.9308Y-9.7555
X-7.8308Y-9.7555
X-7.7308Y-9.7555
X-7.6308Y-9.7555
X-7.5308Y-9.7555
X-7.4308Y-9.7555
X-7.3308Y-9.7555
X-7.2308Y-9.7555
X-7.1308Y-9.7555
X-7.0308Y-9.7555
X-6.9308Y-9.7555
X-6.8308Y-9.7555
X-6.7308Y-9.7555
X-6.6308Y-9.7555
X-6.5308Y-9.7555
X-6.4308Y-9.7555
X-6.3308Y-9.7555
X-6.2308Y-9.7555
X-6.1258Y-10.8455
X-6.1258Y-10.9455
X-6.1258Y-11.0455
X-6.1258Y-11.1455
X-6.1258Y-11.2455
X-3.302Y-2.8517
X-8.891Y-10.5961
X-8.891Y-10.6961
X-8.891Y-10.7961
X-8.891Y-10.8961
X-8.891Y-10.9961
X-8.891Y-11.0961
X-8.891Y-11.1961
X-8.791Y-10.5961
X-8.791Y-10.6961
X-8.791Y-10.7961
X-8.791Y-10.8961
X-8.791Y-10.9961
X-8.791Y-11.0961
X-8.791Y-11.1961
X-3.1587Y-2.8552
X-8.7948Y-11.3916
X-8.7948Y-11.4916
X-8.7948Y-11.5916
X-8.7948Y-11.6916
X-8.7948Y-11.7916
X-3.013Y-2.858
X-3.3126Y-1.3812
X-3.2126Y-1.3812
X-4.6393Y-7.2285
X-4.6393Y-7.3285
X-5.1608Y-0.7985
X-5.1608Y-0.8985
X-5.1608Y-0.9985
X-5.1608Y-1.0985
X-5.1608Y-1.1985
X-5.1608Y-1.2985
X-5.1608Y-1.3985
X-5.1608Y-1.4985
X-5.1608Y-1.5985
X-5.1608Y-1.6985
X-5.1608Y-1.7985
X-5.1608Y-1.8985
X-5.1608Y-1.9985
X-5.0608Y-0.7985
X-5.0608Y-0.8985
X-5.0608Y-0.9985
X-5.0608Y-1.0985
X-5.0608Y-1.1985
X-5.0608Y-1.2985
X-5.0608Y-1.3985
X-5.0608Y-1.4985
X-5.0608Y-1.5985
X-5.0608Y-1.6985
X-5.0608Y-1.7985
X-5.0608Y-1.8985
X-5.0608Y-1.9985
X-4.0398Y-9.7245
X-8.1308Y-10.6955
X-8.0308Y-10.6955
X-7.9308Y-10.6955
X-7.8308Y-10.6955
X-7.7308Y-10.6955
X-7.6308Y-10.6955
X-7.5308Y-10.6955
X-7.4308Y-10.6955
X-7.3308Y-10.6955
X-7.2308Y-10.6955
X-7.1308Y-10.6955
X-7.0308Y-10.6955
X-6.9308Y-10.6955
X-6.8308Y-10.6955
X-6.7308Y-10.6955
X-6.6308Y-10.6955
X-6.5308Y-10.6955
X-6.4308Y-10.6955
X-6.3308Y-10.6955
X-6.2308Y-10.6955
X-4.1808Y-2.7085
X-3.1061Y-7.248
X-3.519Y-5.0464
X-13.4216Y-7.0475
X-13.4216Y-7.5199
X-2.9572Y-3.7342
X-4.5758Y-6.0984
X-4.5758Y-6.1984
X-14.5106Y-6.3451
X-14.5106Y-6.8175
X-4.9278Y-10.6955
X-4.8278Y-10.6955
X-4.7278Y-10.6955
X-4.6278Y-10.6955
X-4.5278Y-10.6955
X-4.4278Y-10.6955
X-4.3278Y-10.6955
X-4.2278Y-10.6955
X-4.1278Y-10.6955
X-4.0278Y-10.6955
X-3.9278Y-10.6955
X-3.8278Y-10.6955
X-3.7278Y-10.6955
X-3.6278Y-10.6955
X-3.5278Y-10.6955
X-3.4278Y-10.6955
X-3.3278Y-10.6955
X-3.2278Y-10.6955
X-3.1278Y-10.6955
X-3.0278Y-10.6955
X-3.2446Y-3.7373
X-13.4193Y-6.3431
X-13.4193Y-6.8155
X-3.3108Y-5.9877
X-3.2108Y-5.9877
X-14.6573Y-1.6057
X-14.6573Y-2.0782
X-6.1248Y-11.7855
X-6.1248Y-11.8855
X-6.1248Y-11.9855
X-6.1248Y-12.0855
X-6.1248Y-12.1855
X-3.5307Y-2.6666
X-3.4467Y-9.8645
X-11.0373Y-9.9967
X-11.0373Y-10.0967
X-11.0373Y-10.1967
X-11.0373Y-10.2967
X-11.0373Y-10.3967
X-11.0373Y-10.4967
X-11.0373Y-10.5967
X-11.0373Y-10.6967
X-11.0373Y-10.7967
X-11.0373Y-10.8967
X-3.524Y-1.5434
X-4.7208Y-2.5954
X-4.7208Y-2.6954
X-3.5297Y-9.6826
X-5.1598Y-7.8145
X-5.1598Y-7.9145
X-5.1598Y-8.0145
X-5.1598Y-8.1145
X-5.1598Y-8.2145
X-5.1598Y-8.3145
X-5.1598Y-8.4145
X-5.1598Y-8.5145
X-5.1598Y-8.6145
X-5.1598Y-8.7145
X-5.1598Y-8.8145
X-5.1598Y-8.9145
X-5.1598Y-9.0145
X-5.0598Y-7.8145
X-5.0598Y-7.9145
X-5.0598Y-8.0145
X-5.0598Y-8.1145
X-5.0598Y-8.2145
X-5.0598Y-8.3145
X-5.0598Y-8.4145
X-5.0598Y-8.5145
X-5.0598Y-8.6145
X-5.0598Y-8.7145
X-5.0598Y-8.8145
X-5.0598Y-8.9145
X-5.0598Y-9.0145
X-4.9278Y-12.3365
X-4.8278Y-12.3365
X-4.7278Y-12.3365
X-4.6278Y-12.3365
X-4.5278Y-12.3365
X-4.4278Y-12.3365
X-4.3278Y-12.3365
X-4.2278Y-12.3365
X-4.1278Y-12.3365
X-4.0278Y-12.3365
X-3.9278Y-12.3365
X-3.8278Y-12.3365
X-3.7278Y-12.3365
X-3.6278Y-12.3365
X-3.5278Y-12.3365
X-3.4278Y-12.3365
X-3.3278Y-12.3365
X-3.2278Y-12.3365
X-3.1278Y-12.3365
X-3.0278Y-12.3365
X-4.4974Y-0.2125
X-4.4974Y-0.3125
X-4.5798Y-9.6114
X-4.5798Y-9.7114
X-15.0828Y-15.0015
X-15.0818Y-14.3055
X-14.9828Y-15.0015
X-14.9818Y-14.3055
X-14.8828Y-15.0015
X-14.8818Y-14.3055
X-14.7828Y-15.0015
X-14.7818Y-14.3055
X-14.6828Y-15.0015
X-14.6818Y-14.3055
X-14.5828Y-15.0015
X-14.5818Y-14.3055
X-14.4828Y-15.0015
X-14.4818Y-14.3055
X-14.3828Y-15.0015
X-14.3818Y-14.3055
X-14.2828Y-15.0015
X-14.2818Y-14.3055
X-14.1828Y-15.0015
X-14.1818Y-14.3055
X-14.0828Y-15.0015
X-14.0818Y-14.3055
X-13.9828Y-15.0015
X-13.9818Y-14.3055
X-13.8828Y-15.0015
X-13.8818Y-14.3055
X-13.7828Y-15.0015
X-13.7818Y-14.3055
X-13.6828Y-15.0015
X-13.6818Y-14.3055
X-13.5828Y-15.0015
X-13.5818Y-14.3055
X-13.4828Y-15.0015
X-13.4818Y-14.3055
X-13.3828Y-15.0015
X-13.3818Y-14.3055
X-13.2828Y-15.0015
X-13.2818Y-14.3055
X-13.1828Y-15.0015
X-13.1818Y-14.3055
X-8.1308Y-11.3955
X-8.0308Y-11.3955
X-7.9308Y-11.3955
X-7.8308Y-11.3955
X-7.7308Y-11.3955
X-7.6308Y-11.3955
X-7.5308Y-11.3955
X-7.4308Y-11.3955
X-7.3308Y-11.3955
X-7.2308Y-11.3955
X-7.1308Y-11.3955
X-7.0308Y-11.3955
X-6.9308Y-11.3955
X-6.8308Y-11.3955
X-6.7308Y-11.3955
X-6.6308Y-11.3955
X-6.5308Y-11.3955
X-6.4308Y-11.3955
X-6.3308Y-11.3955
X-6.2308Y-11.3955
X-4.0408Y-2.7085
X-4.7808Y-0.2145
X-4.7808Y-0.3145
X-4.3392Y-7.2842
X-4.7198Y-9.6114
X-4.7198Y-9.7114
X-3.3158Y-2.4847
X-3.2158Y-2.4847
X-4.7798Y-7.2305
X-4.7798Y-7.3305
X-3.4427Y-6.3515
X-4.4428Y-14.6595
X-4.4428Y-14.7595
X-4.4428Y-14.8595
X-4.4428Y-14.9595
X-4.4428Y-15.0595
X-4.4428Y-15.1595
X-4.4428Y-15.2595
X-4.4428Y-15.3595
X-4.4428Y-15.4595
X-4.4428Y-15.5595
X-4.4428Y-15.6595
X-4.4428Y-15.7595
X-4.4428Y-15.8595
X-4.3428Y-14.6595
X-4.3428Y-14.7595
X-4.3428Y-14.8595
X-4.3428Y-14.9595
X-4.3428Y-15.0595
X-4.3428Y-15.1595
X-4.3428Y-15.2595
X-4.3428Y-15.3595
X-4.3428Y-15.4595
X-4.3428Y-15.5595
X-4.3428Y-15.6595
X-4.3428Y-15.7595
X-4.3428Y-15.8595
X-13.4146Y-7.7555
X-13.4146Y-8.2279
X-5.8998Y-4.7235
X-5.8998Y-4.8235
X-5.8998Y-4.9235
X-5.8998Y-5.0235
X-4.4428Y-13.4895
X-4.4428Y-13.5895
X-4.4428Y-13.6895
X-4.4428Y-13.7895
X-4.4428Y-13.8895
X-4.4428Y-13.9895
X-4.4428Y-14.0895
X-4.4428Y-14.1895
X-4.3428Y-13.4895
X-4.3428Y-13.5895
X-4.3428Y-13.6895
X-4.3428Y-13.7895
X-4.3428Y-13.8895
X-4.3428Y-13.9895
X-4.3428Y-14.0895
X-4.3428Y-14.1895
X-4.0358Y-3.7736
X-2.6986Y-7.2551
X-2.6986Y-7.3551
X-2.5986Y-7.2551
X-2.5986Y-7.3551
X-8.9198Y-2.1035
X-8.8198Y-2.1035
X-8.7198Y-2.1035
X-8.6198Y-2.1035
X-8.5198Y-2.1035
X-9.0954Y-12.5934
X-9.0954Y-12.6934
X-9.0954Y-12.7934
X-9.0954Y-12.8934
X-9.0954Y-12.9934
X-9.0954Y-13.0934
X-9.0954Y-13.1934
X-9.0954Y-13.2934
X-9.0954Y-13.3934
X-9.0954Y-13.4934
X-9.0954Y-13.5934
X-9.0954Y-13.6934
X-9.0954Y-13.7934
X-9.0954Y-13.8934
X-9.0954Y-13.9934
X-9.0954Y-14.0934
X-9.0954Y-14.1934
X-9.0954Y-14.2934
X-9.0954Y-14.3934
X-9.0954Y-14.4934
X-8.3994Y-12.5944
X-8.3994Y-12.6944
X-8.3994Y-12.7944
X-8.3994Y-12.8944
X-8.3994Y-12.9944
X-8.3994Y-13.0944
X-8.3994Y-13.1944
X-8.3994Y-13.2944
X-8.3994Y-13.3944
X-8.3994Y-13.4944
X-8.3994Y-13.5944
X-8.3994Y-13.6944
X-8.3994Y-13.7944
X-8.3994Y-13.8944
X-8.3994Y-13.9944
X-8.3994Y-14.0944
X-8.3994Y-14.1944
X-8.3994Y-14.2944
X-8.3994Y-14.3944
X-8.3994Y-14.4944
X-3.012Y-9.874
X-8.894Y-10.0008
X-8.894Y-10.1008
X-8.894Y-10.2008
X-8.894Y-10.3008
X-8.894Y-10.4008
X-8.794Y-10.0008
X-8.794Y-10.1008
X-8.794Y-10.2008
X-8.794Y-10.3008
X-8.794Y-10.4008
X-2.8666Y-2.8568
X-4.9208Y-0.2145
X-4.9208Y-0.3145
X-3.5431Y-7.2476
X-3.5404Y-7.4476
X-4.3225Y-2.7099
X-3.008Y-6.361
X-3.5257Y-6.1696
X-3.1021Y-3.735
X-4.9278Y-11.3955
X-4.8278Y-11.3955
X-4.7278Y-11.3955
X-4.6278Y-11.3955
X-4.5278Y-11.3955
X-4.4278Y-11.3955
X-4.3278Y-11.3955
X-4.2278Y-11.3955
X-4.1278Y-11.3955
X-4.0278Y-11.3955
X-3.9278Y-11.3955
X-3.8278Y-11.3955
X-3.7278Y-11.3955
X-3.6278Y-11.3955
X-3.5278Y-11.3955
X-3.4278Y-11.3955
X-3.3278Y-11.3955
X-3.2278Y-11.3955
X-3.1278Y-11.3955
X-3.0278Y-11.3955
X-2.8616Y-6.3598
X-4.1858Y-3.7715
X-4.7158Y-6.0984
X-4.7158Y-6.1984
X-8.1308Y-10.4555
X-8.0308Y-10.4555
X-7.9308Y-10.4555
X-7.8308Y-10.4555
X-7.7308Y-10.4555
X-7.6308Y-10.4555
X-7.5308Y-10.4555
X-7.4308Y-10.4555
X-7.3308Y-10.4555
X-7.2308Y-10.4555
X-7.1308Y-10.4555
X-7.0308Y-10.4555
X-6.9308Y-10.4555
X-6.8308Y-10.4555
X-6.7308Y-10.4555
X-6.6308Y-10.4555
X-6.5308Y-10.4555
X-6.4308Y-10.4555
X-6.3308Y-10.4555
X-6.2308Y-10.4555
X-5.0328Y-11.7865
X-5.0328Y-11.8865
X-5.0328Y-11.9865
X-5.0328Y-12.0865
X-5.0328Y-12.1865
X-3.5441Y-0.2316
X-2.6946Y-3.7421
X-2.6946Y-3.8421
X-2.5946Y-3.7421
X-2.5946Y-3.8421
X-3.5414Y-0.4316
X-6.1258Y-9.9055
X-6.1258Y-10.0055
X-6.1258Y-10.1055
X-6.1258Y-10.2055
X-6.1258Y-10.3055
X-3.2486Y-7.2503
X-4.3402Y-0.2682
X-13.0552Y-12.1389
X-12.9552Y-12.1389
X-12.8552Y-12.1389
X-4.0408Y-0.2706
X-3.3899Y-3.7385
X-4.0398Y-7.2866
X-4.6353Y-3.7155
X-4.6353Y-3.8155
X-3.3076Y-4.8842
X-3.2076Y-4.8842
X-10.4912Y-11.9731
X-10.3912Y-11.9731
X-10.2912Y-11.9731
X-4.3352Y-3.7712
X-14.176Y-4.9948
X-13.7036Y-4.9948
X-2.9622Y-0.2312
X-3.3939Y-7.2515
X-3.301Y-9.8677
X-5.1598Y-9.2345
X-5.1598Y-9.3345
X-5.0598Y-9.2345
X-5.0598Y-9.3345
X-5.1608Y-2.2185
X-5.1608Y-2.3185
X-5.0608Y-2.2185
X-5.0608Y-2.3185
X-4.9198Y-7.2305
X-4.9198Y-7.3305
X-8.1298Y-12.3355
X-8.0298Y-12.3355
X-7.9298Y-12.3355
X-7.8298Y-12.3355
X-7.7298Y-12.3355
X-7.6298Y-12.3355
X-7.5298Y-12.3355
X-7.4298Y-12.3355
X-7.3298Y-12.3355
X-7.2298Y-12.3355
X-7.1298Y-12.3355
X-7.0298Y-12.3355
X-6.9298Y-12.3355
X-6.8298Y-12.3355
X-6.7298Y-12.3355
X-6.6298Y-12.3355
X-6.5298Y-12.3355
X-6.4298Y-12.3355
X-6.3298Y-12.3355
X-6.2298Y-12.3355
X-2.9612Y-7.2472
X-4.4428Y-12.9595
X-4.4428Y-13.0595
X-4.3428Y-12.9595
X-4.3428Y-13.0595
X-4.1798Y-9.7245
X-3.5307Y-2.4658
X-4.3175Y-6.2129
X-4.1898Y-7.2845
X-14.5076Y-7.0515
X-14.5076Y-7.5239
X-4.4924Y-3.7155
X-4.4924Y-3.8155
X-10.4912Y-12.1199
X-10.3912Y-12.1199
X-10.2912Y-12.1199
X-4.1758Y-6.2115
X-5.1558Y-4.3015
X-5.1558Y-4.4015
X-5.1558Y-4.5015
X-5.1558Y-4.6015
X-5.1558Y-4.7015
X-5.1558Y-4.8015
X-5.1558Y-4.9015
X-5.1558Y-5.0015
X-5.1558Y-5.1015
X-5.1558Y-5.2015
X-5.1558Y-5.3015
X-5.1558Y-5.4015
X-5.1558Y-5.5015
X-5.0558Y-4.3015
X-5.0558Y-4.4015
X-5.0558Y-4.5015
X-5.0558Y-4.6015
X-5.0558Y-4.7015
X-5.0558Y-4.8015
X-5.0558Y-4.9015
X-5.0558Y-5.0015
X-5.0558Y-5.1015
X-5.0558Y-5.2015
X-5.0558Y-5.3015
X-5.0558Y-5.4015
X-5.0558Y-5.5015
X-4.6403Y-0.2125
X-4.6403Y-0.3125
X-3.5297Y-9.4818
X-3.2496Y-0.2343
X-4.3215Y-9.7259
X-3.3116Y-8.3972
X-3.2116Y-8.3972
X-3.3148Y-9.5007
X-3.2148Y-9.5007
X-3.7134Y-13.9024
X-3.7134Y-14.0024
X-3.7134Y-14.1024
X-3.7134Y-14.2024
X-3.7134Y-14.3024
X-3.7134Y-14.4024
X-3.7134Y-14.5024
X-3.7134Y-14.6024
X-3.7134Y-14.7024
X-3.7134Y-14.8024
X-3.7134Y-14.9024
X-3.7134Y-15.0024
X-3.7134Y-15.1024
X-3.7134Y-15.2024
X-3.7134Y-15.3024
X-3.7134Y-15.4024
X-3.7134Y-15.5024
X-3.7134Y-15.6024
X-3.7134Y-15.7024
X-3.6134Y-13.9024
X-3.6134Y-14.0024
X-3.6134Y-14.1024
X-3.6134Y-14.2024
X-3.6134Y-14.3024
X-3.6134Y-14.4024
X-3.6134Y-14.5024
X-3.6134Y-14.6024
X-3.6134Y-14.7024
X-3.6134Y-14.8024
X-3.6134Y-14.9024
X-3.6134Y-15.0024
X-3.6134Y-15.1024
X-3.6134Y-15.2024
X-3.6134Y-15.3024
X-3.6134Y-15.4024
X-3.6134Y-15.5024
X-3.6134Y-15.6024
X-3.6134Y-15.7024
X-1.5134Y-14.1426
X-1.3134Y-13.9024
X-1.3134Y-14.0024
X-1.3134Y-14.1024
X-1.3134Y-14.2024
X-1.3134Y-14.3024
X-1.3134Y-14.4024
X-1.3134Y-14.5024
X-1.3134Y-14.6024
X-1.3134Y-14.7024
X-1.3134Y-14.8024
X-1.3134Y-14.9024
X-1.3134Y-15.0024
X-1.3134Y-15.1024
X-1.3134Y-15.2024
X-1.3134Y-15.3024
X-1.3134Y-15.4024
X-1.3134Y-15.5024
X-1.3134Y-15.6024
X-1.3134Y-15.7024
X-1.2134Y-13.9024
X-1.2134Y-14.0024
X-1.2134Y-14.1024
X-1.2134Y-14.2024
X-1.2134Y-14.3024
X-1.2134Y-14.4024
X-1.2134Y-14.5024
X-1.2134Y-14.6024
X-1.2134Y-14.7024
X-1.2134Y-14.8024
X-1.2134Y-14.9024
X-1.2134Y-15.0024
X-1.2134Y-15.1024
X-1.2134Y-15.2024
X-1.2134Y-15.3024
X-1.2134Y-15.4024
X-1.2134Y-15.5024
X-1.2134Y-15.6024
X-1.2134Y-15.7024
X-5.0328Y-10.8455
X-5.0328Y-10.9455
X-5.0328Y-11.0455
X-5.0328Y-11.1455
X-5.0328Y-11.2455
X-4.1908Y-0.2685
X-3.5257Y-5.9688
X-3.1537Y-6.3582
X-3.4628Y-16.2095
X-3.4628Y-16.3095
X-3.3628Y-16.2095
X-3.3628Y-16.3095
X-3.2628Y-16.2095
X-3.2628Y-16.3095
X-3.1628Y-16.2095
X-3.1628Y-16.3095
X-3.0628Y-16.2095
X-3.0628Y-16.3095
X-2.9628Y-16.2095
X-2.9628Y-16.3095
X-2.8628Y-16.2095
X-2.8628Y-16.3095
X-2.7628Y-16.2095
X-2.7628Y-16.3095
X-2.6628Y-16.2095
X-2.6628Y-16.3095
X-2.5628Y-16.2095
X-2.5628Y-16.3095
X-2.4628Y-16.2095
X-2.4628Y-16.3095
X-2.3628Y-16.2095
X-2.3628Y-16.3095
X-2.2628Y-16.2095
X-2.2628Y-16.3095
X-8.1298Y-11.6355
X-8.0298Y-11.6355
X-7.9298Y-11.6355
X-7.8298Y-11.6355
X-7.7298Y-11.6355
X-7.6298Y-11.6355
X-7.5298Y-11.6355
X-7.4298Y-11.6355
X-7.3298Y-11.6355
X-7.2298Y-11.6355
X-7.1298Y-11.6355
X-7.0298Y-11.6355
X-6.9298Y-11.6355
X-6.8298Y-11.6355
X-6.7298Y-11.6355
X-6.6298Y-11.6355
X-6.5298Y-11.6355
X-6.4298Y-11.6355
X-6.3298Y-11.6355
X-6.2298Y-11.6355
X-3.297Y-6.3547
X-3.5391Y-3.7346
X-4.7758Y-3.7175
X-4.7758Y-3.8175
X-12.1605Y-13.3959
X-12.1605Y-13.8683
X-3.1577Y-9.8712
X-3.3949Y-0.2355
X-4.9278Y-11.6365
X-4.8278Y-11.6365
X-4.7278Y-11.6365
X-4.6278Y-11.6365
X-4.5278Y-11.6365
X-4.4278Y-11.6365
X-4.3278Y-11.6365
X-4.2278Y-11.6365
X-4.1278Y-11.6365
X-4.0278Y-11.6365
X-3.9278Y-11.6365
X-3.8278Y-11.6365
X-3.7278Y-11.6365
X-3.6278Y-11.6365
X-3.5278Y-11.6365
X-3.4278Y-11.6365
X-3.3278Y-11.6365
X-3.2278Y-11.6365
X-3.1278Y-11.6365
X-3.0278Y-11.6365
X-3.4477Y-2.8485
X-2.6996Y-0.2391
X-2.6996Y-0.3391
X-2.5996Y-0.2391
X-2.5996Y-0.3391
X-4.4964Y-7.2285
X-4.4964Y-7.3285
X-11.0404Y-11.0557
X-11.0404Y-11.1557
X-11.0404Y-11.2557
X-11.0404Y-11.3557
X-11.0404Y-11.4557
X-11.0404Y-11.5557
X-11.0404Y-11.6557
X-11.0404Y-11.7557
X-11.0404Y-11.8557
X-11.0404Y-11.9557
X-3.1071Y-0.232
X-2.8656Y-9.8728
T7
X-6.0098Y-2.5635
X-6.0098Y-2.6635
X-6.0098Y-2.7635
X-6.0098Y-2.8635
X-6.0098Y-2.9635
X-6.0098Y-3.0635
X-6.0098Y-3.1635
X-6.0098Y-3.2635
X-6.0098Y-3.3635
X-6.0098Y-3.4635
X-6.0098Y-3.5635
X-6.0098Y-3.6635
X-6.0098Y-3.7635
X-5.9098Y-2.5635
X-5.9098Y-2.6635
X-5.9098Y-2.7635
X-5.9098Y-2.8635
X-5.9098Y-2.9635
X-5.9098Y-3.0635
X-5.9098Y-3.1635
X-5.9098Y-3.2635
X-5.9098Y-3.3635
X-5.9098Y-3.4635
X-5.9098Y-3.5635
X-5.9098Y-3.6635
X-5.9098Y-3.7635
X-6.0098Y-6.5185
X-6.0098Y-6.6185
X-6.0098Y-6.7185
X-6.0098Y-6.8185
X-6.0098Y-6.9185
X-6.0098Y-7.0185
X-6.0098Y-7.1185
X-6.0098Y-7.2185
X-6.0098Y-7.3185
X-6.0098Y-7.4185
X-6.0098Y-7.5185
X-6.0098Y-7.6185
X-6.0098Y-7.7185
X-5.9098Y-6.5185
X-5.9098Y-6.6185
X-5.9098Y-6.7185
X-5.9098Y-6.8185
X-5.9098Y-6.9185
X-5.9098Y-7.0185
X-5.9098Y-7.1185
X-5.9098Y-7.2185
X-5.9098Y-7.3185
X-5.9098Y-7.4185
X-5.9098Y-7.5185
X-5.9098Y-7.6185
X-5.9098Y-7.7185
T8
X-12.1597Y-4.856
X-12.0597Y-4.856
X-11.9597Y-4.856
X-10.217Y-15.796
X-10.117Y-15.796
X-10.017Y-15.796
X-2.3623Y-12.1714
X-2.2623Y-12.1714
X-2.1623Y-12.1714
X-1.6654Y-12.1812
X-1.5654Y-12.1812
X-1.4654Y-12.1812
T9
X-14.6405Y-0.8739
X-13.6405Y-0.8739
X-14.6405Y-0.4139
X-13.6405Y-0.4139
X-14.6405Y-0.1139
X-13.6405Y-0.1139
X-14.6405Y-1.1739
X-13.6405Y-1.1739
T10
X-15.1773Y-11.189
X-15.1773Y-11.3909
X-12.7007Y-12.8529
X-12.4988Y-12.8529
X-12.6568Y-9.4825
X-12.455Y-9.4825
X-13.9843Y-16.374
X-13.7843Y-16.374
X-13.5843Y-16.374
X-13.3843Y-16.374
X-15.1288Y-7.9067
X-15.1288Y-8.1085
X-12.6428Y-13.8703
X-12.6408Y-13.3959
X-12.0837Y-13.6341
X-15.1805Y-0.3839
X-15.1805Y-0.5858
X-12.6882Y-4.1468
X-12.4863Y-4.1468
X-11.6455Y-4.4813
X-11.6455Y-4.6831
X-14.5824Y-7.9937
X-14.0253Y-8.2319
X-14.0233Y-7.7575
X-14.8638Y-12.8475
X-14.6638Y-12.8475
X-14.4638Y-12.8475
X-14.2638Y-12.8475
X-13.9648Y-9.4825
X-13.763Y-9.4825
X-13.4984Y-7.2817
X-12.9413Y-7.5199
X-12.9393Y-7.0455
X-14.5874Y-6.5793
X-14.0303Y-6.8175
X-14.0283Y-6.3431
X-13.4961Y-6.5773
X-12.939Y-6.8155
X-12.937Y-6.3411
X-15.1396Y-2.0801
X-15.1376Y-1.6057
X-14.5805Y-1.8439
X-12.816Y-16.3735
X-12.616Y-16.3735
X-12.416Y-16.3735
X-12.216Y-16.3735
X-11.6423Y-11.4222
X-11.6423Y-11.624
X-13.0928Y-9.4825
X-12.891Y-9.4825
X-14.2705Y-3.6439
X-14.0687Y-3.6439
X-13.4914Y-7.9897
X-12.9343Y-8.2279
X-12.9323Y-7.7535
X-11.6958Y-7.9185
X-11.6958Y-8.1204
X-11.6978Y-6.8765
X-11.6978Y-7.0784
X-15.1748Y-11.7865
X-15.1748Y-11.9884
X-9.4329Y-16.3715
X-9.231Y-16.3715
X-14.0218Y-12.8475
X-13.8218Y-12.8475
X-13.6218Y-12.8475
X-13.4218Y-12.8475
X-12.174Y-12.8526
X-11.9721Y-12.8526
X-14.8099Y-5.4607
X-14.608Y-5.4607
X-11.6998Y-7.3925
X-11.6998Y-7.5944
X-15.1308Y-7.3807
X-15.1308Y-7.5825
X-13.5805Y-3.6439
X-13.3805Y-3.6439
X-13.1805Y-3.6439
X-12.9805Y-3.6439
X-15.1248Y-8.4267
X-15.1248Y-8.6285
X-15.1288Y-6.8687
X-15.1288Y-7.0705
X-14.176Y-5.4751
X-13.9378Y-4.918
X-13.7016Y-5.4771
X-15.1723Y-10.614
X-15.1723Y-10.8159
X-9.9717Y-12.7195
X-9.7698Y-12.7195
X-14.8263Y-16.375
X-14.6263Y-16.375
X-14.4263Y-16.375
X-14.2263Y-16.375
X-11.6948Y-8.4345
X-11.6948Y-8.6364
X-14.5844Y-7.2857
X-14.0273Y-7.5239
X-14.0253Y-7.0495
X-13.5288Y-9.4825
X-13.327Y-9.4825
T11
X-5.35Y-13.3126
X-5.35Y-13.5126
X-5.35Y-13.7126
X-5.35Y-13.9126
X-5.35Y-14.1126
X-5.35Y-14.3126
T12
X-1.6065Y-7.3173
X-1.6065Y-7.5318
X-1.6065Y-7.7464
X-1.6075Y-1.0032
X-1.6075Y-1.2178
X-1.6075Y-1.4324
X-1.6065Y-8.0192
X-1.6065Y-8.2338
X-1.6065Y-8.4484
X-1.6025Y-3.8043
X-1.6025Y-4.0188
X-1.6025Y-4.2334
X-1.6065Y-8.8334
X-1.6065Y-9.048
X-1.6065Y-9.2625
X-1.6075Y-2.5087
X-1.6075Y-2.7233
X-1.6075Y-2.9379
X-1.6025Y-6.0117
X-1.6025Y-6.2263
X-1.6025Y-6.4409
X-1.6387Y-11.0179
X-1.6387Y-11.2344
X-1.4733Y-11.0179
X-1.4733Y-11.2344
X-1.6075Y-0.3013
X-1.6075Y-0.5158
X-1.6075Y-0.7304
X-1.6025Y-5.3204
X-1.6025Y-5.535
X-1.6025Y-5.7495
X-1.6075Y-1.8174
X-1.6075Y-2.032
X-1.6075Y-2.2465
X-1.6065Y-9.5247
X-1.6065Y-9.7393
X-1.6065Y-9.9539
X-1.6025Y-4.5062
X-1.6025Y-4.7208
X-1.6025Y-4.9354
X-2.3558Y-11.0179
X-2.3558Y-11.2344
X-2.1904Y-11.0179
X-2.1904Y-11.2344
T13
X-8.1333Y-9.8622
X-8.1333Y-10.8022
X-8.1323Y-11.7422
X-8.1308Y-10.3455
X-8.1308Y-11.2855
X-8.1298Y-12.2255
X-6.0308Y-9.7455
X-6.0308Y-10.4655
X-6.0308Y-10.6855
X-6.0308Y-11.4055
X-6.0298Y-11.6255
X-6.0298Y-12.3455
X-5.7898Y-4.7235
X-5.7898Y-4.8235
X-5.7898Y-5.2235
X-5.7898Y-5.3235
X-5.7898Y-5.4235
X-5.6698Y-4.7235
X-5.6698Y-4.8235
X-5.6698Y-5.2235
X-5.6698Y-5.3235
X-5.6698Y-5.4235
X-5.1278Y-10.6855
X-5.1278Y-11.4055
X-5.1278Y-11.6265
X-5.1278Y-12.3465
X-3.0278Y-10.8055
X-3.0278Y-11.7465
X-3.0253Y-11.2888
X-3.0253Y-12.2298
X-10.7738Y-13.0374
X-10.7738Y-13.2028
X-10.7738Y-13.3681
X-10.7738Y-13.5335
X-10.5573Y-13.0374
X-10.5573Y-13.2028
X-10.5573Y-13.3681
X-10.5573Y-13.5335
X-13.0928Y-9.6125
X-12.8908Y-9.6125
X-14.2705Y-3.7739
X-14.0685Y-3.7739
X-11.8258Y-7.9185
X-11.8258Y-8.1205
X-11.8278Y-6.8765
X-11.8278Y-7.0785
X-15.3048Y-11.7865
X-15.3048Y-11.9885
X-9.4329Y-16.5015
X-9.2329Y-16.5015
X-14.0218Y-12.7225
X-13.8218Y-12.7225
X-13.6218Y-12.7225
X-13.4218Y-12.7225
X-12.1721Y-12.7226
X-11.9721Y-12.7226
X-14.8099Y-5.5907
X-14.6079Y-5.5907
X-11.8298Y-7.3925
X-11.8298Y-7.5945
X-15.0008Y-7.3805
X-15.0008Y-7.5825
X-13.5805Y-3.7689
X-13.3805Y-3.7689
X-13.1805Y-3.7689
X-12.9805Y-3.7689
X-14.9948Y-8.4265
X-14.9948Y-8.6285
X-14.9988Y-6.8685
X-14.9988Y-7.0705
X-12.2303Y-15.4365
X-12.2303Y-15.6019
X-12.2303Y-15.7672
X-12.2303Y-15.9326
X-12.0138Y-15.4365
X-12.0138Y-15.6019
X-12.0138Y-15.7672
X-12.0138Y-15.9326
X-15.3023Y-10.614
X-15.3023Y-10.816
X-9.9698Y-12.5895
X-9.7698Y-12.5895
X-14.8263Y-16.5
X-14.6263Y-16.5
X-14.4263Y-16.5
X-14.2263Y-16.5
X-6.2763Y-0.7035
X-6.2763Y-0.8689
X-6.2763Y-1.0342
X-6.2763Y-1.1996
X-6.0598Y-0.7035
X-6.0598Y-0.8689
X-6.0598Y-1.0342
X-6.0598Y-1.1996
X-11.8248Y-8.4345
X-11.8248Y-8.6365
X-13.5288Y-9.6125
X-13.3268Y-9.6125
X-15.3073Y-11.189
X-15.3073Y-11.391
X-12.6988Y-12.7229
X-12.4988Y-12.7229
X-12.6568Y-9.6125
X-12.4548Y-9.6125
X-13.9843Y-16.499
X-13.7843Y-16.499
X-13.5843Y-16.499
X-13.3843Y-16.499
X-14.9988Y-7.9065
X-14.9988Y-8.1085
X-15.3105Y-0.3839
X-15.3105Y-0.5859
X-12.6883Y-4.0168
X-12.4863Y-4.0168
X-11.5155Y-4.4811
X-11.5155Y-4.6831
X-10.7758Y-15.5534
X-10.7758Y-15.7188
X-10.7758Y-15.8841
X-10.7758Y-16.0495
X-10.5593Y-15.5534
X-10.5593Y-15.7188
X-10.5593Y-15.8841
X-10.5593Y-16.0495
X-14.8638Y-12.7225
X-14.6638Y-12.7225
X-14.4638Y-12.7225
X-14.2638Y-12.7225
X-13.9648Y-9.6125
X-13.7628Y-9.6125
X-12.816Y-16.4985
X-12.616Y-16.4985
X-12.416Y-16.4985
X-12.216Y-16.4985
X-11.5123Y-11.422
X-11.5123Y-11.624
T14
X-1.0896Y-8.1117
X-1.9579Y-2.9182
X-1.0856Y-4.5987
X-1.1114Y-2.6343
X-1.3375Y-5.5346
X-1.9557Y-9.3263
X-1.3297Y-4.0747
X-1.0906Y-1.0957
X-1.9488Y-0.8493
X-1.9517Y-5.8133
X-1.3415Y-9.6503
X-1.3415Y-9.0476
X-1.3375Y-6.1373
X-1.0856Y-4.0747
X-1.9478Y-7.8653
X-1.0906Y-0.5717
X-1.9529Y-6.4212
X-1.9567Y-2.3103
X-1.9482Y-8.4641
X-1.3337Y-7.5877
X-1.3337Y-8.1117
X-1.9492Y-1.4481
X-1.3297Y-4.5987
X-1.1064Y-5.5346
X-1.3425Y-2.0316
X-1.1114Y-2.0316
X-1.1064Y-6.1373
X-1.9438Y-4.3523
X-1.3425Y-2.6343
X-1.9442Y-4.9511
X-1.0896Y-7.5877
X-1.3347Y-1.0957
X-1.9569Y-9.9342
X-1.1104Y-9.0476
X-1.3347Y-0.5717
X-1.1104Y-9.6503
T15
X-5.1378Y-13.3139
X-5.1378Y-13.7195
X-5.1378Y-13.9155
X-5.1378Y-14.1215
X-5.1378Y-14.3215
X-5.1368Y-13.5185
T16
X-15.1799Y-4.1428
X-11.6415Y-5.4636
X-11.1462Y-16.3816
X-15.1828Y-12.3435
X-1.0481Y-10.5848
X-11.6405Y-3.6439
X-11.6512Y-12.8471
X-5.6398Y-9.1835
X-15.1758Y-16.3722
X-11.6486Y-16.3739
X-5.1333Y-12.7076
X-15.1797Y-12.8437
X-1.0481Y-12.2383
X-2.7017Y-10.5848
X-15.1808Y-5.9645
X-15.1805Y-3.6439
X-15.1799Y-5.4617
X-2.7017Y-12.2383
X-11.6408Y-9.5045
X-11.6428Y-5.9665
X-11.6405Y-0.1039
X-11.1504Y-12.7068
X-11.6308Y-12.3455
X-5.6398Y-0.0635
X-15.1808Y-9.5065
X-15.1805Y-0.1039
X-11.1798Y-9.1835
X-11.6308Y-10.0075
X-5.1334Y-16.3736
X-15.1848Y-10.0055
X-11.1798Y-0.0635
X-11.6396Y-4.1428
T17
X-11.5768Y-14.6053
X-11.6705Y-2.5439
X-11.2088Y-14.4935
X-11.6705Y-1.2439
X-10.9948Y-1.4435
T18
X-1.166Y-7.2405
X-1.1817Y-8.6204
X-1.162Y-3.7275
X-1.1827Y-1.6044
X-1.1777Y-5.1074
X-1.2201Y-3.0048
X-1.167Y-0.2245
X-1.2191Y-10.0208
X-1.2151Y-6.5078
T3
G00X-8.0256Y-10.9677
M15
G01X-8.0098Y-10.9677
M16
G05
G00X-8.0256Y-11.1583
M15
G01X-8.0098Y-11.1583
M16
G05
G00X-3.133Y-11.8737
M15
G01X-3.1488Y-11.8737
M16
G05
G00X-3.133Y-12.0643
M15
G01X-3.1488Y-12.0643
M16
G05
G00X-3.133Y-10.9327
M15
G01X-3.1488Y-10.9327
M16
G05
G00X-3.133Y-11.1233
M15
G01X-3.1488Y-11.1233
M16
G05
G00X-8.0256Y-10.0277
M15
G01X-8.0098Y-10.0277
M16
G05
G00X-8.0256Y-10.2183
M15
G01X-8.0098Y-10.2183
M16
G05
G00X-8.0246Y-11.9077
M15
G01X-8.0088Y-11.9077
M16
G05
G00X-8.0246Y-12.0983
M15
G01X-8.0088Y-12.0983
M16
G05
T4
G00X-8.1457Y-10.0155
M15
G01X-8.126Y-10.0155
M16
G05
G00X-8.1457Y-10.2305
M15
G01X-8.126Y-10.2305
M16
G05
G00X-8.1447Y-11.8955
M15
G01X-8.125Y-11.8955
M16
G05
G00X-8.1447Y-12.1105
M15
G01X-8.125Y-12.1105
M16
G05
G00X-8.1457Y-10.9555
M15
G01X-8.126Y-10.9555
M16
G05
G00X-8.1457Y-11.1705
M15
G01X-8.126Y-11.1705
M16
G05
G00X-3.013Y-11.8615
M15
G01X-3.0327Y-11.8615
M16
G05
G00X-3.013Y-12.0765
M15
G01X-3.0327Y-12.0765
M16
G05
G00X-3.013Y-10.9205
M15
G01X-3.0327Y-10.9205
M16
G05
G00X-3.013Y-11.1355
M15
G01X-3.0327Y-11.1355
M16
G05
T0
M30
