G04 #@! TF.GenerationSoftware,KiCad,Pcbnew,(5.1.5)-3*
G04 #@! TF.CreationDate,2020-11-02T16:30:31-03:00*
G04 #@! TF.ProjectId,panel,70616e65-6c2e-46b6-9963-61645f706362,0.1*
G04 #@! TF.SameCoordinates,Original*
G04 #@! TF.FileFunction,Other,Comment*
%FSLAX46Y46*%
G04 Gerber Fmt 4.6, Leading zero omitted, Abs format (unit mm)*
G04 Created by KiCad (PCBNEW (5.1.5)-3) date 2020-11-02 16:30:31*
%MOMM*%
%LPD*%
G04 APERTURE LIST*
%ADD10C,2.000000*%
%ADD11C,0.150000*%
%ADD12C,0.200000*%
G04 APERTURE END LIST*
D10*
X-399288571Y28541428D02*
X-394288571Y28541428D01*
X-392145714Y20684285D02*
X-399288571Y20684285D01*
X-399288571Y35684285D01*
X-392145714Y35684285D01*
X-379288571Y21398571D02*
X-380717142Y20684285D01*
X-383574285Y20684285D01*
X-385002857Y21398571D01*
X-385717142Y22112857D01*
X-386431428Y23541428D01*
X-386431428Y27827142D01*
X-385717142Y29255714D01*
X-385002857Y29970000D01*
X-383574285Y30684285D01*
X-380717142Y30684285D01*
X-379288571Y29970000D01*
X-370717142Y20684285D02*
X-372145714Y21398571D01*
X-372860000Y22112857D01*
X-373574285Y23541428D01*
X-373574285Y27827142D01*
X-372860000Y29255714D01*
X-372145714Y29970000D01*
X-370717142Y30684285D01*
X-368574285Y30684285D01*
X-367145714Y29970000D01*
X-366431428Y29255714D01*
X-365717142Y27827142D01*
X-365717142Y23541428D01*
X-366431428Y22112857D01*
X-367145714Y21398571D01*
X-368574285Y20684285D01*
X-370717142Y20684285D01*
X-351431428Y20684285D02*
X-360002857Y20684285D01*
X-355717142Y20684285D02*
X-355717142Y35684285D01*
X-357145714Y33541428D01*
X-358574285Y32112857D01*
X-360002857Y31398571D01*
X-345002857Y22112857D02*
X-344288571Y21398571D01*
X-345002857Y20684285D01*
X-345717142Y21398571D01*
X-345002857Y22112857D01*
X-345002857Y20684285D01*
X-337860000Y35684285D02*
X-337860000Y23541428D01*
X-337145714Y22112857D01*
X-336431428Y21398571D01*
X-335002857Y20684285D01*
X-332145714Y20684285D01*
X-330717142Y21398571D01*
X-330002857Y22112857D01*
X-329288571Y23541428D01*
X-329288571Y35684285D01*
X-322860000Y21398571D02*
X-321431428Y20684285D01*
X-318574285Y20684285D01*
X-317145714Y21398571D01*
X-316431428Y22827142D01*
X-316431428Y23541428D01*
X-317145714Y24970000D01*
X-318574285Y25684285D01*
X-320717142Y25684285D01*
X-322145714Y26398571D01*
X-322860000Y27827142D01*
X-322860000Y28541428D01*
X-322145714Y29970000D01*
X-320717142Y30684285D01*
X-318574285Y30684285D01*
X-317145714Y29970000D01*
X-304288571Y21398571D02*
X-305717142Y20684285D01*
X-308574285Y20684285D01*
X-310002857Y21398571D01*
X-310717142Y22827142D01*
X-310717142Y28541428D01*
X-310002857Y29970000D01*
X-308574285Y30684285D01*
X-305717142Y30684285D01*
X-304288571Y29970000D01*
X-303574285Y28541428D01*
X-303574285Y27112857D01*
X-310717142Y25684285D01*
X-297145714Y20684285D02*
X-297145714Y30684285D01*
X-297145714Y27827142D02*
X-296431428Y29255714D01*
X-295717142Y29970000D01*
X-294288571Y30684285D01*
X-292860000Y30684285D01*
X-276431428Y20684285D02*
X-276431428Y30684285D01*
X-276431428Y35684285D02*
X-277145714Y34970000D01*
X-276431428Y34255714D01*
X-275717142Y34970000D01*
X-276431428Y35684285D01*
X-276431428Y34255714D01*
X-270002857Y21398571D02*
X-268574285Y20684285D01*
X-265717142Y20684285D01*
X-264288571Y21398571D01*
X-263574285Y22827142D01*
X-263574285Y23541428D01*
X-264288571Y24970000D01*
X-265717142Y25684285D01*
X-267860000Y25684285D01*
X-269288571Y26398571D01*
X-270002857Y27827142D01*
X-270002857Y28541428D01*
X-269288571Y29970000D01*
X-267860000Y30684285D01*
X-265717142Y30684285D01*
X-264288571Y29970000D01*
X-247860000Y30684285D02*
X-242145714Y30684285D01*
X-245717142Y20684285D02*
X-245717142Y33541428D01*
X-245002857Y34970000D01*
X-243574285Y35684285D01*
X-242145714Y35684285D01*
X-235002857Y20684285D02*
X-236431428Y21398571D01*
X-237145714Y22112857D01*
X-237860000Y23541428D01*
X-237860000Y27827142D01*
X-237145714Y29255714D01*
X-236431428Y29970000D01*
X-235002857Y30684285D01*
X-232860000Y30684285D01*
X-231431428Y29970000D01*
X-230717142Y29255714D01*
X-230002857Y27827142D01*
X-230002857Y23541428D01*
X-230717142Y22112857D01*
X-231431428Y21398571D01*
X-232860000Y20684285D01*
X-235002857Y20684285D01*
X-223574285Y20684285D02*
X-223574285Y30684285D01*
X-223574285Y27827142D02*
X-222860000Y29255714D01*
X-222145714Y29970000D01*
X-220717142Y30684285D01*
X-219288571Y30684285D01*
X-202860000Y20684285D02*
X-202860000Y30684285D01*
X-202860000Y27827142D02*
X-202145714Y29255714D01*
X-201431428Y29970000D01*
X-200002857Y30684285D01*
X-198574285Y30684285D01*
X-191431428Y20684285D02*
X-192859999Y21398571D01*
X-193574285Y22112857D01*
X-194288571Y23541428D01*
X-194288571Y27827142D01*
X-193574285Y29255714D01*
X-192859999Y29970000D01*
X-191431428Y30684285D01*
X-189288571Y30684285D01*
X-187859999Y29970000D01*
X-187145714Y29255714D01*
X-186431428Y27827142D01*
X-186431428Y23541428D01*
X-187145714Y22112857D01*
X-187859999Y21398571D01*
X-189288571Y20684285D01*
X-191431428Y20684285D01*
X-173574285Y30684285D02*
X-173574285Y20684285D01*
X-180002857Y30684285D02*
X-180002857Y22827142D01*
X-179288571Y21398571D01*
X-177860000Y20684285D01*
X-175717142Y20684285D01*
X-174288571Y21398571D01*
X-173574285Y22112857D01*
X-166431428Y30684285D02*
X-166431428Y20684285D01*
X-166431428Y29255714D02*
X-165717142Y29970000D01*
X-164288571Y30684285D01*
X-162145714Y30684285D01*
X-160717142Y29970000D01*
X-160002857Y28541428D01*
X-160002857Y20684285D01*
X-155002857Y30684285D02*
X-149288571Y30684285D01*
X-152860000Y35684285D02*
X-152860000Y22827142D01*
X-152145714Y21398571D01*
X-150717142Y20684285D01*
X-149288571Y20684285D01*
X-144288571Y20684285D02*
X-144288571Y30684285D01*
X-144288571Y35684285D02*
X-145002857Y34970000D01*
X-144288571Y34255714D01*
X-143574285Y34970000D01*
X-144288571Y35684285D01*
X-144288571Y34255714D01*
X-137145714Y30684285D02*
X-137145714Y20684285D01*
X-137145714Y29255714D02*
X-136431428Y29970000D01*
X-135002857Y30684285D01*
X-132860000Y30684285D01*
X-131431428Y29970000D01*
X-130717142Y28541428D01*
X-130717142Y20684285D01*
X-117145714Y30684285D02*
X-117145714Y18541428D01*
X-117860000Y17112857D01*
X-118574285Y16398571D01*
X-120002857Y15684285D01*
X-122145714Y15684285D01*
X-123574285Y16398571D01*
X-117145714Y21398571D02*
X-118574285Y20684285D01*
X-121431428Y20684285D01*
X-122860000Y21398571D01*
X-123574285Y22112857D01*
X-124288571Y23541428D01*
X-124288571Y27827142D01*
X-123574285Y29255714D01*
X-122860000Y29970000D01*
X-121431428Y30684285D01*
X-118574285Y30684285D01*
X-117145714Y29970000D01*
X-96431428Y20684285D02*
X-97860000Y21398571D01*
X-98574285Y22112857D01*
X-99288571Y23541428D01*
X-99288571Y27827142D01*
X-98574285Y29255714D01*
X-97860000Y29970000D01*
X-96431428Y30684285D01*
X-94288571Y30684285D01*
X-92860000Y29970000D01*
X-92145714Y29255714D01*
X-91431428Y27827142D01*
X-91431428Y23541428D01*
X-92145714Y22112857D01*
X-92860000Y21398571D01*
X-94288571Y20684285D01*
X-96431428Y20684285D01*
X-78574285Y30684285D02*
X-78574285Y20684285D01*
X-85002857Y30684285D02*
X-85002857Y22827142D01*
X-84288571Y21398571D01*
X-82859999Y20684285D01*
X-80717142Y20684285D01*
X-79288571Y21398571D01*
X-78574285Y22112857D01*
X-73574285Y30684285D02*
X-67859999Y30684285D01*
X-71431428Y35684285D02*
X-71431428Y22827142D01*
X-70717142Y21398571D01*
X-69288571Y20684285D01*
X-67859999Y20684285D01*
X-52145714Y34255714D02*
X-51431428Y34970000D01*
X-50002857Y35684285D01*
X-46431428Y35684285D01*
X-45002857Y34970000D01*
X-44288571Y34255714D01*
X-43574285Y32827142D01*
X-43574285Y31398571D01*
X-44288571Y29255714D01*
X-52859999Y20684285D01*
X-43574285Y20684285D01*
X-37145714Y22112857D02*
X-36431428Y21398571D01*
X-37145714Y20684285D01*
X-37859999Y21398571D01*
X-37145714Y22112857D01*
X-37145714Y20684285D01*
X-22859999Y35684285D02*
X-30002857Y35684285D01*
X-30717142Y28541428D01*
X-30002857Y29255714D01*
X-28574285Y29970000D01*
X-25002857Y29970000D01*
X-23574285Y29255714D01*
X-22859999Y28541428D01*
X-22145714Y27112857D01*
X-22145714Y23541428D01*
X-22859999Y22112857D01*
X-23574285Y21398571D01*
X-25002857Y20684285D01*
X-28574285Y20684285D01*
X-30002857Y21398571D01*
X-30717142Y22112857D01*
X-9288571Y30684285D02*
X-9288571Y20684285D01*
X-12860000Y36398571D02*
X-16431428Y25684285D01*
X-7145714Y25684285D01*
X-1431428Y20684285D02*
X-1431428Y30684285D01*
X-1431428Y29255714D02*
X-717142Y29970000D01*
X711428Y30684285D01*
X2854285Y30684285D01*
X4282857Y29970000D01*
X4997142Y28541428D01*
X4997142Y20684285D01*
X4997142Y28541428D02*
X5711428Y29970000D01*
X7140000Y30684285D01*
X9282857Y30684285D01*
X10711428Y29970000D01*
X11425714Y28541428D01*
X11425714Y20684285D01*
X18568571Y20684285D02*
X18568571Y30684285D01*
X18568571Y29255714D02*
X19282857Y29970000D01*
X20711428Y30684285D01*
X22854285Y30684285D01*
X24282857Y29970000D01*
X24997142Y28541428D01*
X24997142Y20684285D01*
X24997142Y28541428D02*
X25711428Y29970000D01*
X27140000Y30684285D01*
X29282857Y30684285D01*
X30711428Y29970000D01*
X31425714Y28541428D01*
X31425714Y20684285D01*
D11*
X-44005200Y-180018400D02*
G75*
G03X-44005200Y-180018400I-3200000J0D01*
G01*
X-127325200Y-184978400D02*
G75*
G03X-127325200Y-184978400I-3200000J0D01*
G01*
X-53085200Y-254038400D02*
G75*
G03X-53085200Y-254038400I-3200000J0D01*
G01*
X-127275200Y-253888400D02*
G75*
G03X-127275200Y-253888400I-3200000J0D01*
G01*
X-31975200Y-206038400D02*
G75*
G03X-31975200Y-206038400I-1900000J0D01*
G01*
X-26305200Y-245118400D02*
G75*
G03X-26305200Y-245118400I-1900000J0D01*
G01*
X-47575200Y-199778400D02*
G75*
G03X-47575200Y-199778400I-1900000J0D01*
G01*
X-31975200Y-192728400D02*
G75*
G03X-31975200Y-192728400I-1900000J0D01*
G01*
X-26305200Y-229808400D02*
G75*
G03X-26305200Y-229808400I-1900000J0D01*
G01*
X-47775200Y-236888400D02*
G75*
G03X-47775200Y-236888400I-1900000J0D01*
G01*
X-47805200Y-252328400D02*
G75*
G03X-47805200Y-252328400I-1900000J0D01*
G01*
X-47585200Y-214988400D02*
G75*
G03X-47585200Y-214988400I-1900000J0D01*
G01*
X-25515200Y-218958400D02*
G75*
G03X-25515200Y-218958400I-4500000J0D01*
G01*
X-25775200Y-206038400D02*
G75*
G03X-25775200Y-206038400I-1900000J0D01*
G01*
X-32175200Y-245118400D02*
G75*
G03X-32175200Y-245118400I-1900000J0D01*
G01*
X-32175200Y-229808400D02*
G75*
G03X-32175200Y-229808400I-1900000J0D01*
G01*
X-25775200Y-192728400D02*
G75*
G03X-25775200Y-192728400I-1900000J0D01*
G01*
X-25115200Y-183908400D02*
G75*
G03X-25115200Y-183908400I-4500000J0D01*
G01*
X-26465200Y-254528400D02*
G75*
G03X-26465200Y-254528400I-4500000J0D01*
G01*
X-216456800Y-307265600D02*
G75*
G03X-216456800Y-307265600I-2200000J0D01*
G01*
X-216496800Y-252875600D02*
G75*
G03X-216496800Y-252875600I-2200000J0D01*
G01*
X-272266800Y-307045600D02*
G75*
G03X-272266800Y-307045600I-2200000J0D01*
G01*
X-272266800Y-252605600D02*
G75*
G03X-272266800Y-252605600I-2200000J0D01*
G01*
X-127300600Y-75682000D02*
G75*
G03X-127300600Y-75682000I-3200000J0D01*
G01*
X-53110600Y-75832000D02*
G75*
G03X-53110600Y-75832000I-3200000J0D01*
G01*
X-127350600Y-6772000D02*
G75*
G03X-127350600Y-6772000I-3200000J0D01*
G01*
X-44030600Y-1812000D02*
G75*
G03X-44030600Y-1812000I-3200000J0D01*
G01*
X-26490600Y-76322000D02*
G75*
G03X-26490600Y-76322000I-4500000J0D01*
G01*
X-25140600Y-5702000D02*
G75*
G03X-25140600Y-5702000I-4500000J0D01*
G01*
X-32200600Y-66912000D02*
G75*
G03X-32200600Y-66912000I-1900000J0D01*
G01*
X-25800600Y-27832000D02*
G75*
G03X-25800600Y-27832000I-1900000J0D01*
G01*
X-32200600Y-51602000D02*
G75*
G03X-32200600Y-51602000I-1900000J0D01*
G01*
X-25800600Y-14522000D02*
G75*
G03X-25800600Y-14522000I-1900000J0D01*
G01*
X-25540600Y-40752000D02*
G75*
G03X-25540600Y-40752000I-4500000J0D01*
G01*
X-47610600Y-36782000D02*
G75*
G03X-47610600Y-36782000I-1900000J0D01*
G01*
X-47600600Y-21572000D02*
G75*
G03X-47600600Y-21572000I-1900000J0D01*
G01*
X-47830600Y-74122000D02*
G75*
G03X-47830600Y-74122000I-1900000J0D01*
G01*
X-47800600Y-58682000D02*
G75*
G03X-47800600Y-58682000I-1900000J0D01*
G01*
X-26330600Y-66912000D02*
G75*
G03X-26330600Y-66912000I-1900000J0D01*
G01*
X-32000600Y-27832000D02*
G75*
G03X-32000600Y-27832000I-1900000J0D01*
G01*
X-26330600Y-51602000D02*
G75*
G03X-26330600Y-51602000I-1900000J0D01*
G01*
X-32000600Y-14522000D02*
G75*
G03X-32000600Y-14522000I-1900000J0D01*
G01*
X-127173600Y-164658200D02*
G75*
G03X-127173600Y-164658200I-3200000J0D01*
G01*
X-52983600Y-164808200D02*
G75*
G03X-52983600Y-164808200I-3200000J0D01*
G01*
X-127223600Y-95748200D02*
G75*
G03X-127223600Y-95748200I-3200000J0D01*
G01*
X-43903600Y-90788200D02*
G75*
G03X-43903600Y-90788200I-3200000J0D01*
G01*
X-26363600Y-165298200D02*
G75*
G03X-26363600Y-165298200I-4500000J0D01*
G01*
X-25013600Y-94678200D02*
G75*
G03X-25013600Y-94678200I-4500000J0D01*
G01*
X-32073600Y-155888200D02*
G75*
G03X-32073600Y-155888200I-1900000J0D01*
G01*
X-25673600Y-116808200D02*
G75*
G03X-25673600Y-116808200I-1900000J0D01*
G01*
X-32073600Y-140578200D02*
G75*
G03X-32073600Y-140578200I-1900000J0D01*
G01*
X-25673600Y-103498200D02*
G75*
G03X-25673600Y-103498200I-1900000J0D01*
G01*
X-25413600Y-129728200D02*
G75*
G03X-25413600Y-129728200I-4500000J0D01*
G01*
X-47483600Y-125758200D02*
G75*
G03X-47483600Y-125758200I-1900000J0D01*
G01*
X-47473600Y-110548200D02*
G75*
G03X-47473600Y-110548200I-1900000J0D01*
G01*
X-47703600Y-163098200D02*
G75*
G03X-47703600Y-163098200I-1900000J0D01*
G01*
X-47673600Y-147658200D02*
G75*
G03X-47673600Y-147658200I-1900000J0D01*
G01*
X-26203600Y-155888200D02*
G75*
G03X-26203600Y-155888200I-1900000J0D01*
G01*
X-31873600Y-116808200D02*
G75*
G03X-31873600Y-116808200I-1900000J0D01*
G01*
X-26203600Y-140578200D02*
G75*
G03X-26203600Y-140578200I-1900000J0D01*
G01*
X-31873600Y-103498200D02*
G75*
G03X-31873600Y-103498200I-1900000J0D01*
G01*
X-32294400Y-416081400D02*
G75*
G03X-32294400Y-416081400I-2200000J0D01*
G01*
X-109997400Y-322981400D02*
G75*
G03X-109997400Y-322981400I-2200000J0D01*
G01*
X-109997400Y-416081400D02*
G75*
G03X-109997400Y-416081400I-2200000J0D01*
G01*
X-32444400Y-322956400D02*
G75*
G03X-32444400Y-322956400I-2200000J0D01*
G01*
X-23872400Y-268903600D02*
G75*
G03X-23872400Y-268903600I-2750000J0D01*
G01*
X-65872400Y-268853600D02*
G75*
G03X-65872400Y-268853600I-2750000J0D01*
G01*
X-65872400Y-310853600D02*
G75*
G03X-65872400Y-310853600I-2750000J0D01*
G01*
X-23922400Y-310803600D02*
G75*
G03X-23922400Y-310803600I-2750000J0D01*
G01*
D12*
X-58679400Y-370559971D02*
X-58346066Y-370559971D01*
X-58268685Y-371083780D02*
X-58744876Y-371083780D01*
X-58619876Y-370083780D01*
X-58143685Y-370083780D01*
X-57840114Y-371083780D02*
X-57715114Y-370083780D01*
X-57477019Y-370083780D01*
X-57340114Y-370131400D01*
X-57256780Y-370226638D01*
X-57221066Y-370321876D01*
X-57197257Y-370512352D01*
X-57215114Y-370655209D01*
X-57286542Y-370845685D01*
X-57346066Y-370940923D01*
X-57453209Y-371036161D01*
X-57602019Y-371083780D01*
X-57840114Y-371083780D01*
X-56840114Y-371083780D02*
X-56715114Y-370083780D01*
X-56381780Y-370083780D02*
X-55810352Y-370083780D01*
X-56221066Y-371083780D02*
X-56096066Y-370083780D01*
X-54840114Y-371083780D02*
X-54715114Y-370083780D01*
X-54334161Y-370083780D01*
X-54244876Y-370131400D01*
X-54203209Y-370179019D01*
X-54167495Y-370274257D01*
X-54185352Y-370417114D01*
X-54244876Y-370512352D01*
X-54298447Y-370559971D01*
X-54399638Y-370607590D01*
X-54780590Y-370607590D01*
X-53852019Y-370798066D02*
X-53375828Y-370798066D01*
X-53982971Y-371083780D02*
X-53524638Y-370083780D01*
X-53316304Y-371083780D01*
X-52982971Y-371083780D02*
X-52857971Y-370083780D01*
X-52619876Y-370083780D01*
X-52482971Y-370131400D01*
X-52399638Y-370226638D01*
X-52363923Y-370321876D01*
X-52340114Y-370512352D01*
X-52357971Y-370655209D01*
X-52429400Y-370845685D01*
X-52488923Y-370940923D01*
X-52596066Y-371036161D01*
X-52744876Y-371083780D01*
X-52982971Y-371083780D01*
X-51221066Y-371083780D02*
X-51096066Y-370083780D01*
X-50649638Y-371083780D01*
X-50524638Y-370083780D01*
X-50048447Y-370083780D02*
X-50149638Y-370893304D01*
X-50113923Y-370988542D01*
X-50072257Y-371036161D01*
X-49982971Y-371083780D01*
X-49792495Y-371083780D01*
X-49691304Y-371036161D01*
X-49637733Y-370988542D01*
X-49578209Y-370893304D01*
X-49477019Y-370083780D01*
X-49125828Y-371083780D02*
X-49000828Y-370083780D01*
X-48756780Y-370798066D01*
X-48334161Y-370083780D01*
X-48459161Y-371083780D01*
X-47584161Y-370559971D02*
X-47447257Y-370607590D01*
X-47405590Y-370655209D01*
X-47369876Y-370750447D01*
X-47387733Y-370893304D01*
X-47447257Y-370988542D01*
X-47500828Y-371036161D01*
X-47602019Y-371083780D01*
X-47982971Y-371083780D01*
X-47857971Y-370083780D01*
X-47524638Y-370083780D01*
X-47435352Y-370131400D01*
X-47393685Y-370179019D01*
X-47357971Y-370274257D01*
X-47369876Y-370369495D01*
X-47429400Y-370464733D01*
X-47482971Y-370512352D01*
X-47584161Y-370559971D01*
X-47917495Y-370559971D01*
X-46917495Y-370559971D02*
X-46584161Y-370559971D01*
X-46506780Y-371083780D02*
X-46982971Y-371083780D01*
X-46857971Y-370083780D01*
X-46381780Y-370083780D01*
X-45506780Y-371083780D02*
X-45780590Y-370607590D01*
X-46078209Y-371083780D02*
X-45953209Y-370083780D01*
X-45572257Y-370083780D01*
X-45482971Y-370131400D01*
X-45441304Y-370179019D01*
X-45405590Y-370274257D01*
X-45423447Y-370417114D01*
X-45482971Y-370512352D01*
X-45536542Y-370559971D01*
X-45637733Y-370607590D01*
X-46018685Y-370607590D01*
X-45119876Y-371036161D02*
X-44982971Y-371083780D01*
X-44744876Y-371083780D01*
X-44643685Y-371036161D01*
X-44590114Y-370988542D01*
X-44530590Y-370893304D01*
X-44518685Y-370798066D01*
X-44554400Y-370702828D01*
X-44596066Y-370655209D01*
X-44685352Y-370607590D01*
X-44869876Y-370559971D01*
X-44959161Y-370512352D01*
X-45000828Y-370464733D01*
X-45036542Y-370369495D01*
X-45024638Y-370274257D01*
X-44965114Y-370179019D01*
X-44911542Y-370131400D01*
X-44810352Y-370083780D01*
X-44572257Y-370083780D01*
X-44435352Y-370131400D01*
M02*
