G04 #@! TF.GenerationSoftware,KiCad,Pcbnew,(5.1.5)-3*
G04 #@! TF.CreationDate,2020-11-02T16:30:31-03:00*
G04 #@! TF.ProjectId,panel,70616e65-6c2e-46b6-9963-61645f706362,0.1*
G04 #@! TF.SameCoordinates,Original*
G04 #@! TF.FileFunction,OtherDrawing,Comment*
%FSLAX46Y46*%
G04 Gerber Fmt 4.6, Leading zero omitted, Abs format (unit mm)*
G04 Created by KiCad (PCBNEW (5.1.5)-3) date 2020-11-02 16:30:31*
%MOMM*%
%LPD*%
G04 APERTURE LIST*
%ADD10C,2.000000*%
%ADD11C,0.100000*%
%ADD12C,0.050000*%
%ADD13C,0.075000*%
G04 APERTURE END LIST*
D10*
X-253666666Y-443973826D02*
X-247476190Y-443973826D01*
X-250809523Y-447783350D01*
X-249380952Y-447783350D01*
X-248428571Y-448259540D01*
X-247952380Y-448735731D01*
X-247476190Y-449688112D01*
X-247476190Y-452069064D01*
X-247952380Y-453021445D01*
X-248428571Y-453497636D01*
X-249380952Y-453973826D01*
X-252238095Y-453973826D01*
X-253190476Y-453497636D01*
X-253666666Y-453021445D01*
X-241761904Y-448259540D02*
X-242714285Y-447783350D01*
X-243190476Y-447307159D01*
X-243666666Y-446354778D01*
X-243666666Y-445878588D01*
X-243190476Y-444926207D01*
X-242714285Y-444450017D01*
X-241761904Y-443973826D01*
X-239857142Y-443973826D01*
X-238904761Y-444450017D01*
X-238428571Y-444926207D01*
X-237952380Y-445878588D01*
X-237952380Y-446354778D01*
X-238428571Y-447307159D01*
X-238904761Y-447783350D01*
X-239857142Y-448259540D01*
X-241761904Y-448259540D01*
X-242714285Y-448735731D01*
X-243190476Y-449211921D01*
X-243666666Y-450164302D01*
X-243666666Y-452069064D01*
X-243190476Y-453021445D01*
X-242714285Y-453497636D01*
X-241761904Y-453973826D01*
X-239857142Y-453973826D01*
X-238904761Y-453497636D01*
X-238428571Y-453021445D01*
X-237952380Y-452069064D01*
X-237952380Y-450164302D01*
X-238428571Y-449211921D01*
X-238904761Y-448735731D01*
X-239857142Y-448259540D01*
X-232238095Y-448259540D02*
X-233190476Y-447783350D01*
X-233666666Y-447307159D01*
X-234142857Y-446354778D01*
X-234142857Y-445878588D01*
X-233666666Y-444926207D01*
X-233190476Y-444450017D01*
X-232238095Y-443973826D01*
X-230333333Y-443973826D01*
X-229380952Y-444450017D01*
X-228904761Y-444926207D01*
X-228428571Y-445878588D01*
X-228428571Y-446354778D01*
X-228904761Y-447307159D01*
X-229380952Y-447783350D01*
X-230333333Y-448259540D01*
X-232238095Y-448259540D01*
X-233190476Y-448735731D01*
X-233666666Y-449211921D01*
X-234142857Y-450164302D01*
X-234142857Y-452069064D01*
X-233666666Y-453021445D01*
X-233190476Y-453497636D01*
X-232238095Y-453973826D01*
X-230333333Y-453973826D01*
X-229380952Y-453497636D01*
X-228904761Y-453021445D01*
X-228428571Y-452069064D01*
X-228428571Y-450164302D01*
X-228904761Y-449211921D01*
X-229380952Y-448735731D01*
X-230333333Y-448259540D01*
X-224142857Y-453021445D02*
X-223666666Y-453497636D01*
X-224142857Y-453973826D01*
X-224619047Y-453497636D01*
X-224142857Y-453021445D01*
X-224142857Y-453973826D01*
X-217476190Y-443973826D02*
X-216523809Y-443973826D01*
X-215571428Y-444450017D01*
X-215095238Y-444926207D01*
X-214619047Y-445878588D01*
X-214142857Y-447783350D01*
X-214142857Y-450164302D01*
X-214619047Y-452069064D01*
X-215095238Y-453021445D01*
X-215571428Y-453497636D01*
X-216523809Y-453973826D01*
X-217476190Y-453973826D01*
X-218428571Y-453497636D01*
X-218904761Y-453021445D01*
X-219380952Y-452069064D01*
X-219857142Y-450164302D01*
X-219857142Y-447783350D01*
X-219380952Y-445878588D01*
X-218904761Y-444926207D01*
X-218428571Y-444450017D01*
X-217476190Y-443973826D01*
X-207952380Y-443973826D02*
X-207000000Y-443973826D01*
X-206047619Y-444450017D01*
X-205571428Y-444926207D01*
X-205095238Y-445878588D01*
X-204619047Y-447783350D01*
X-204619047Y-450164302D01*
X-205095238Y-452069064D01*
X-205571428Y-453021445D01*
X-206047619Y-453497636D01*
X-207000000Y-453973826D01*
X-207952380Y-453973826D01*
X-208904761Y-453497636D01*
X-209380952Y-453021445D01*
X-209857142Y-452069064D01*
X-210333333Y-450164302D01*
X-210333333Y-447783350D01*
X-209857142Y-445878588D01*
X-209380952Y-444926207D01*
X-208904761Y-444450017D01*
X-207952380Y-443973826D01*
X-198428571Y-443973826D02*
X-197476190Y-443973826D01*
X-196523809Y-444450017D01*
X-196047619Y-444926207D01*
X-195571428Y-445878588D01*
X-195095238Y-447783350D01*
X-195095238Y-450164302D01*
X-195571428Y-452069064D01*
X-196047619Y-453021445D01*
X-196523809Y-453497636D01*
X-197476190Y-453973826D01*
X-198428571Y-453973826D01*
X-199380952Y-453497636D01*
X-199857142Y-453021445D01*
X-200333333Y-452069064D01*
X-200809523Y-450164302D01*
X-200809523Y-447783350D01*
X-200333333Y-445878588D01*
X-199857142Y-444926207D01*
X-199380952Y-444450017D01*
X-198428571Y-443973826D01*
X-183190476Y-453973826D02*
X-183190476Y-447307159D01*
X-183190476Y-448259540D02*
X-182714285Y-447783350D01*
X-181761904Y-447307159D01*
X-180333333Y-447307159D01*
X-179380952Y-447783350D01*
X-178904761Y-448735731D01*
X-178904761Y-453973826D01*
X-178904761Y-448735731D02*
X-178428571Y-447783350D01*
X-177476190Y-447307159D01*
X-176047619Y-447307159D01*
X-175095238Y-447783350D01*
X-174619047Y-448735731D01*
X-174619047Y-453973826D01*
X-169857142Y-453973826D02*
X-169857142Y-447307159D01*
X-169857142Y-448259540D02*
X-169380952Y-447783350D01*
X-168428571Y-447307159D01*
X-167000000Y-447307159D01*
X-166047619Y-447783350D01*
X-165571428Y-448735731D01*
X-165571428Y-453973826D01*
X-165571428Y-448735731D02*
X-165095238Y-447783350D01*
X-164142857Y-447307159D01*
X-162714285Y-447307159D01*
X-161761904Y-447783350D01*
X-161285714Y-448735731D01*
X-161285714Y-453973826D01*
D11*
X-13000000Y-437350017D02*
X-401000000Y-437350017D01*
X-13000000Y-431000000D02*
X-13000000Y-437936438D01*
X-401000000Y-431000000D02*
X-401000000Y-437936438D01*
X-401000000Y-437350017D02*
X-399873496Y-436763596D01*
X-401000000Y-437350017D02*
X-399873496Y-437936438D01*
X-13000000Y-437350017D02*
X-14126504Y-436763596D01*
X-13000000Y-437350017D02*
X-14126504Y-437936438D01*
D10*
X2037142Y-250428571D02*
X8703809Y-250428571D01*
X-1772380Y-252809523D02*
X5370476Y-255190476D01*
X5370476Y-249000000D01*
X2037142Y-240904761D02*
X8703809Y-240904761D01*
X-1772380Y-243285714D02*
X5370476Y-245666666D01*
X5370476Y-239476190D01*
X2037142Y-231380952D02*
X8703809Y-231380952D01*
X-1772380Y-233761904D02*
X5370476Y-236142857D01*
X5370476Y-229952380D01*
X7751428Y-226142857D02*
X8227619Y-225666666D01*
X8703809Y-226142857D01*
X8227619Y-226619047D01*
X7751428Y-226142857D01*
X8703809Y-226142857D01*
X-1296190Y-219476190D02*
X-1296190Y-218523809D01*
X-820000Y-217571428D01*
X-343809Y-217095238D01*
X608571Y-216619047D01*
X2513333Y-216142857D01*
X4894285Y-216142857D01*
X6799047Y-216619047D01*
X7751428Y-217095238D01*
X8227619Y-217571428D01*
X8703809Y-218523809D01*
X8703809Y-219476190D01*
X8227619Y-220428571D01*
X7751428Y-220904761D01*
X6799047Y-221380952D01*
X4894285Y-221857142D01*
X2513333Y-221857142D01*
X608571Y-221380952D01*
X-343809Y-220904761D01*
X-820000Y-220428571D01*
X-1296190Y-219476190D01*
X-1296190Y-209952380D02*
X-1296190Y-209000000D01*
X-820000Y-208047619D01*
X-343809Y-207571428D01*
X608571Y-207095238D01*
X2513333Y-206619047D01*
X4894285Y-206619047D01*
X6799047Y-207095238D01*
X7751428Y-207571428D01*
X8227619Y-208047619D01*
X8703809Y-209000000D01*
X8703809Y-209952380D01*
X8227619Y-210904761D01*
X7751428Y-211380952D01*
X6799047Y-211857142D01*
X4894285Y-212333333D01*
X2513333Y-212333333D01*
X608571Y-211857142D01*
X-343809Y-211380952D01*
X-820000Y-210904761D01*
X-1296190Y-209952380D01*
X-1296190Y-200428571D02*
X-1296190Y-199476190D01*
X-819999Y-198523809D01*
X-343809Y-198047619D01*
X608571Y-197571428D01*
X2513333Y-197095238D01*
X4894285Y-197095238D01*
X6799047Y-197571428D01*
X7751428Y-198047619D01*
X8227619Y-198523809D01*
X8703809Y-199476190D01*
X8703809Y-200428571D01*
X8227619Y-201380952D01*
X7751428Y-201857142D01*
X6799047Y-202333333D01*
X4894285Y-202809523D01*
X2513333Y-202809523D01*
X608571Y-202333333D01*
X-343809Y-201857142D01*
X-819999Y-201380952D01*
X-1296190Y-200428571D01*
X8703809Y-185190476D02*
X2037142Y-185190476D01*
X2989523Y-185190476D02*
X2513333Y-184714285D01*
X2037142Y-183761904D01*
X2037142Y-182333333D01*
X2513333Y-181380952D01*
X3465714Y-180904761D01*
X8703809Y-180904761D01*
X3465714Y-180904761D02*
X2513333Y-180428571D01*
X2037142Y-179476190D01*
X2037142Y-178047619D01*
X2513333Y-177095238D01*
X3465714Y-176619047D01*
X8703809Y-176619047D01*
X8703809Y-171857142D02*
X2037142Y-171857142D01*
X2989523Y-171857142D02*
X2513333Y-171380952D01*
X2037142Y-170428571D01*
X2037142Y-169000000D01*
X2513333Y-168047619D01*
X3465714Y-167571428D01*
X8703809Y-167571428D01*
X3465714Y-167571428D02*
X2513333Y-167095238D01*
X2037142Y-166142857D01*
X2037142Y-164714285D01*
X2513333Y-163761904D01*
X3465714Y-163285714D01*
X8703809Y-163285714D01*
D11*
X-7920000Y-431000000D02*
X-7920000Y13000000D01*
X-13000000Y-431000000D02*
X-7333579Y-431000000D01*
X-13000000Y13000000D02*
X-7333579Y13000000D01*
X-7920000Y13000000D02*
X-7333579Y11873496D01*
X-7920000Y13000000D02*
X-8506421Y11873496D01*
X-7920000Y-431000000D02*
X-7333579Y-429873496D01*
X-7920000Y-431000000D02*
X-8506421Y-429873496D01*
X-208261026Y-313586240D02*
X-208261026Y-295298240D01*
X-208261026Y-295298240D02*
G75*
G02X-206737026Y-293774240I1524000J0D01*
G01*
X-206737026Y-315110240D02*
G75*
G02X-208261026Y-313586240I0J1524000D01*
G01*
X-153143026Y-293774240D02*
G75*
G02X-151619026Y-295298240I0J-1524000D01*
G01*
X-151619026Y-295298240D02*
X-151619026Y-313586240D01*
X-151619026Y-313586240D02*
G75*
G02X-153143026Y-315110240I-1524000J0D01*
G01*
X-153143026Y-315110240D02*
X-206737026Y-315110240D01*
X-206737026Y-293774240D02*
X-153143026Y-293774240D01*
X-151644426Y-289710240D02*
G75*
G02X-153168426Y-291234240I-1524000J0D01*
G01*
X-208286426Y-289710240D02*
X-208286426Y-271422240D01*
X-151644426Y-271422240D02*
X-151644426Y-289710240D01*
X-153168426Y-291234240D02*
X-206762426Y-291234240D01*
X-153168426Y-269898240D02*
G75*
G02X-151644426Y-271422240I0J-1524000D01*
G01*
X-206762426Y-269898240D02*
X-153168426Y-269898240D01*
X-206762426Y-291234240D02*
G75*
G02X-208286426Y-289710240I0J1524000D01*
G01*
X-208286426Y-271422240D02*
G75*
G02X-206762426Y-269898240I1524000J0D01*
G01*
X-206762426Y-245996840D02*
X-153168426Y-245996840D01*
X-208286426Y-265808840D02*
X-208286426Y-247520840D01*
X-151644426Y-247520840D02*
X-151644426Y-265808840D01*
X-153168426Y-267332840D02*
X-206762426Y-267332840D01*
X-151644426Y-265808840D02*
G75*
G02X-153168426Y-267332840I-1524000J0D01*
G01*
X-206762426Y-267332840D02*
G75*
G02X-208286426Y-265808840I0J1524000D01*
G01*
X-208286426Y-247520840D02*
G75*
G02X-206762426Y-245996840I1524000J0D01*
G01*
X-153168426Y-245996840D02*
G75*
G02X-151644426Y-247520840I0J-1524000D01*
G01*
X-76650774Y-291238560D02*
X-130244774Y-291238560D01*
X-75126774Y-271426560D02*
X-75126774Y-289714560D01*
X-131768774Y-289714560D02*
X-131768774Y-271426560D01*
X-130244774Y-269902560D02*
X-76650774Y-269902560D01*
X-131768774Y-271426560D02*
G75*
G02X-130244774Y-269902560I1524000J0D01*
G01*
X-76650774Y-269902560D02*
G75*
G02X-75126774Y-271426560I0J-1524000D01*
G01*
X-75126774Y-289714560D02*
G75*
G02X-76650774Y-291238560I-1524000J0D01*
G01*
X-130244774Y-291238560D02*
G75*
G02X-131768774Y-289714560I0J1524000D01*
G01*
D12*
X-210820000Y-310057800D02*
G75*
G02X-215900000Y-315137800I-5080000J0D01*
G01*
X-287832800Y-310055640D02*
X-287832800Y-250623960D01*
X-210820000Y-309958360D02*
X-210820000Y-250444000D01*
X-282752800Y-315135640D02*
X-215900000Y-315137800D01*
X-282752800Y-245541800D02*
X-215900000Y-245516400D01*
X-215900000Y-245516400D02*
G75*
G02X-210820000Y-250596400I0J-5080000D01*
G01*
X-282752800Y-315135640D02*
G75*
G02X-287832800Y-310055640I0J5080000D01*
G01*
X-287832800Y-250621800D02*
G75*
G02X-282752800Y-245541800I5080000J0D01*
G01*
X-22606000Y-421131040D02*
X-22606000Y-317703200D01*
D11*
X-136645574Y-175439960D02*
X-22599574Y-175439960D01*
X-136645574Y-262053960D02*
X-136645574Y-175439960D01*
X-22599574Y-262053960D02*
X-136645574Y-262053960D01*
X-22599574Y-175439960D02*
X-22599574Y-262053960D01*
D12*
X-22606000Y-421131040D02*
X-122682000Y-421132000D01*
X-122682000Y-317703200D02*
X-22606000Y-317703200D01*
X-122682000Y-421132000D02*
X-122682000Y-317703200D01*
D11*
X-22599574Y-172899960D02*
X-136645574Y-172899960D01*
X-22599574Y-86285960D02*
X-22599574Y-172899960D01*
X-136645574Y-86285960D02*
X-22599574Y-86285960D01*
X-136645574Y-172899960D02*
X-136645574Y-86285960D01*
D12*
X-288200174Y-322784160D02*
X-288195174Y-416074160D01*
X-269810574Y-317704160D02*
X-283120174Y-317704160D01*
X-125237574Y-322784160D02*
X-125237574Y-416004161D01*
X-130336775Y-421150199D02*
X-269806006Y-421150199D01*
X-269810574Y-317704160D02*
X-130317574Y-317704160D01*
X-130317574Y-317704160D02*
G75*
G02X-125237574Y-322784160I0J-5080000D01*
G01*
X-283113151Y-421154522D02*
G75*
G02X-288195174Y-416074160I66557J5148602D01*
G01*
X-288200174Y-322784160D02*
G75*
G02X-283120174Y-317704160I5080000J0D01*
G01*
X-125241285Y-416007252D02*
G75*
G02X-130336775Y-421150199I-5146289J3092D01*
G01*
X-269806006Y-421150199D02*
X-283115606Y-421150199D01*
X-390723074Y-326239760D02*
X-390723074Y-416079760D01*
X-290723074Y-416079760D02*
G75*
G02X-295803074Y-421159760I-5080000J0D01*
G01*
X-385643074Y-421159760D02*
X-295803074Y-421159760D01*
X-295803074Y-321159760D02*
G75*
G02X-290723074Y-326239760I0J-5080000D01*
G01*
X-290723074Y-326239760D02*
X-290723074Y-416079760D01*
X-385643074Y-421159760D02*
G75*
G02X-390723074Y-416079760I0J5080000D01*
G01*
X-390723074Y-326239760D02*
G75*
G02X-385643074Y-321159760I5080000J0D01*
G01*
X-385643074Y-321159760D02*
X-295803074Y-321159760D01*
D11*
X-22574174Y2468800D02*
X-22574174Y-83745960D01*
X-136620174Y-83745960D02*
X-136620174Y2468800D01*
X-136622800Y2468800D02*
X-22576800Y2468800D01*
X-22574174Y-83745960D02*
X-136620174Y-83745960D01*
D12*
X-295649574Y-100154360D02*
G75*
G02X-290569574Y-105234360I0J-5080000D01*
G01*
X-290569574Y-138813160D02*
G75*
G02X-295649574Y-143893160I-5080000J0D01*
G01*
X-390645574Y-105234360D02*
G75*
G02X-385565574Y-100154360I5080000J0D01*
G01*
X-290569574Y-138813160D02*
X-290569574Y-105234360D01*
X-385565574Y-143893160D02*
G75*
G02X-390645574Y-138813160I0J5080000D01*
G01*
X-295649574Y-100154360D02*
X-385565574Y-100154360D01*
X-390645574Y-138813160D02*
X-390645574Y-105234360D01*
X-385565574Y-143893160D02*
X-295649574Y-143893160D01*
X-290578289Y-92487562D02*
X-290593780Y-2622360D01*
X-290578290Y-92490653D02*
G75*
G02X-295673780Y-97633600I-5146289J3092D01*
G01*
X-385589774Y-97618360D02*
X-295673780Y-97633600D01*
X-390669780Y-2622360D02*
X-390669780Y-92538360D01*
X-295673780Y2457640D02*
X-385589780Y2457640D01*
X-390669780Y-2622360D02*
G75*
G02X-385589780Y2457640I5080000J0D01*
G01*
X-295673780Y2457640D02*
G75*
G02X-290593780Y-2622360I0J-5080000D01*
G01*
X-385587757Y-97618722D02*
G75*
G02X-390669780Y-92538360I66557J5148602D01*
G01*
X-295725774Y-146433160D02*
X-385590974Y-146433160D01*
X-385590974Y-246559960D02*
X-295674974Y-246559960D01*
X-290594974Y-241479960D02*
G75*
G02X-295674974Y-246559960I-5080000J0D01*
G01*
X-390670974Y-151513160D02*
X-390670974Y-241479960D01*
X-290594974Y-241479960D02*
X-290645774Y-151513160D01*
X-390670974Y-151513160D02*
G75*
G02X-385590974Y-146433160I5080000J0D01*
G01*
X-385590974Y-246559960D02*
G75*
G02X-390670974Y-241479960I0J5080000D01*
G01*
X-295725774Y-146433160D02*
G75*
G02X-290645774Y-151513160I0J-5080000D01*
G01*
X-385641774Y-318619760D02*
X-295471774Y-318619760D01*
X-390721774Y-313539760D02*
X-390721774Y-254205360D01*
X-385641774Y-249125360D02*
X-295471774Y-249125360D01*
X-290391774Y-313539760D02*
X-290391774Y-254205360D01*
X-290391774Y-313539760D02*
G75*
G02X-295471774Y-318619760I-5080000J0D01*
G01*
X-390721774Y-254205360D02*
G75*
G02X-385641774Y-249125360I5080000J0D01*
G01*
X-385641774Y-318619760D02*
G75*
G02X-390721774Y-313539760I0J5080000D01*
G01*
X-295471774Y-249125360D02*
G75*
G02X-290391774Y-254205360I0J-5080000D01*
G01*
D11*
X-131768774Y-295327960D02*
G75*
G02X-130244774Y-293803960I1524000J0D01*
G01*
X-130244774Y-315139960D02*
G75*
G02X-131768774Y-313615960I0J1524000D01*
G01*
X-75126774Y-313615960D02*
G75*
G02X-76650774Y-315139960I-1524000J0D01*
G01*
X-76650774Y-293803960D02*
G75*
G02X-75126774Y-295327960I0J-1524000D01*
G01*
X-130244774Y-293803960D02*
X-76650774Y-293803960D01*
X-131768774Y-313615960D02*
X-131768774Y-295327960D01*
X-76650774Y-315139960D02*
X-130244774Y-315139960D01*
X-75126774Y-295327960D02*
X-75126774Y-313615960D01*
D12*
X-288029574Y-1602360D02*
G75*
G02X-283965574Y2461640I4064000J0D01*
G01*
X-143249574Y2461640D02*
G75*
G02X-139185574Y-1602360I0J-4064000D01*
G01*
X-283965574Y-237314360D02*
G75*
G02X-288029574Y-233250360I0J4064000D01*
G01*
X-139185574Y-233250360D02*
G75*
G02X-143249574Y-237314360I-4064000J0D01*
G01*
X-283965574Y-237314360D02*
X-143249574Y-237314360D01*
X-288029574Y-1602360D02*
X-288029574Y-233250360D01*
X-143249574Y2461640D02*
X-283965574Y2461640D01*
X-139185574Y-233250360D02*
X-139185574Y-1602360D01*
D11*
X-22601800Y-264637600D02*
X-22606000Y-315163200D01*
X-72601800Y-264637600D02*
X-22601800Y-264637600D01*
X-72618600Y-315163200D02*
X-72601800Y-264637600D01*
X-22606000Y-315163200D02*
X-72606000Y-315163200D01*
X-208369600Y-277000800D02*
X-208369600Y-285000800D01*
X-208344200Y-300876800D02*
X-208344200Y-308876800D01*
X-75059400Y-284110800D02*
X-75059400Y-276110800D01*
X-75059400Y-308012200D02*
X-75059400Y-300012200D01*
D12*
X-150304200Y-254738400D02*
G75*
G03X-150304200Y-254738400I-60000J0D01*
G01*
X-150304200Y-259862400D02*
G75*
G03X-150304200Y-259862400I-60000J0D01*
G01*
X-150278800Y-282925600D02*
G75*
G03X-150278800Y-282925600I-60000J0D01*
G01*
X-150278800Y-277801600D02*
G75*
G03X-150278800Y-277801600I-60000J0D01*
G01*
X-150278800Y-301398200D02*
G75*
G03X-150278800Y-301398200I-60000J0D01*
G01*
X-150278800Y-306522200D02*
G75*
G03X-150278800Y-306522200I-60000J0D01*
G01*
X-132981400Y-277490000D02*
G75*
G03X-132981400Y-277490000I-60000J0D01*
G01*
X-132981400Y-282614000D02*
G75*
G03X-132981400Y-282614000I-60000J0D01*
G01*
X-133006800Y-306210600D02*
G75*
G03X-133006800Y-306210600I-60000J0D01*
G01*
X-133006800Y-301086600D02*
G75*
G03X-133006800Y-301086600I-60000J0D01*
G01*
X-123812000Y-263342200D02*
G75*
G03X-123812000Y-263342200I-60000J0D01*
G01*
X-118688000Y-263342200D02*
G75*
G03X-118688000Y-263342200I-60000J0D01*
G01*
X-80588000Y-263316800D02*
G75*
G03X-80588000Y-263316800I-60000J0D01*
G01*
X-85712000Y-263316800D02*
G75*
G03X-85712000Y-263316800I-60000J0D01*
G01*
X-85756000Y-268574600D02*
G75*
G03X-85756000Y-268574600I-60000J0D01*
G01*
X-80632000Y-268574600D02*
G75*
G03X-80632000Y-268574600I-60000J0D01*
G01*
X-118732000Y-268600000D02*
G75*
G03X-118732000Y-268600000I-60000J0D01*
G01*
X-123856000Y-268600000D02*
G75*
G03X-123856000Y-268600000I-60000J0D01*
G01*
X-204120000Y-244724000D02*
G75*
G03X-204120000Y-244724000I-60000J0D01*
G01*
X-198996000Y-244724000D02*
G75*
G03X-198996000Y-244724000I-60000J0D01*
G01*
X-160896000Y-244698600D02*
G75*
G03X-160896000Y-244698600I-60000J0D01*
G01*
X-166020000Y-244698600D02*
G75*
G03X-166020000Y-244698600I-60000J0D01*
G01*
X-225456000Y-244216000D02*
G75*
G03X-225456000Y-244216000I-60000J0D01*
G01*
X-220332000Y-244216000D02*
G75*
G03X-220332000Y-244216000I-60000J0D01*
G01*
X-275526200Y-244241400D02*
G75*
G03X-275526200Y-244241400I-60000J0D01*
G01*
X-280650200Y-244241400D02*
G75*
G03X-280650200Y-244241400I-60000J0D01*
G01*
X-21246800Y-279268000D02*
G75*
G03X-21246800Y-279268000I-60000J0D01*
G01*
X-21246800Y-274144000D02*
G75*
G03X-21246800Y-274144000I-60000J0D01*
G01*
X-21246800Y-303100000D02*
G75*
G03X-21246800Y-303100000I-60000J0D01*
G01*
X-21246800Y-308224000D02*
G75*
G03X-21246800Y-308224000I-60000J0D01*
G01*
X-21246800Y-374264000D02*
G75*
G03X-21246800Y-374264000I-60000J0D01*
G01*
X-21246800Y-369140000D02*
G75*
G03X-21246800Y-369140000I-60000J0D01*
G01*
X-21246800Y-409780000D02*
G75*
G03X-21246800Y-409780000I-60000J0D01*
G01*
X-21246800Y-414904000D02*
G75*
G03X-21246800Y-414904000I-60000J0D01*
G01*
X-21246800Y-327992000D02*
G75*
G03X-21246800Y-327992000I-60000J0D01*
G01*
X-21246800Y-333116000D02*
G75*
G03X-21246800Y-333116000I-60000J0D01*
G01*
X-21246800Y-216105000D02*
G75*
G03X-21246800Y-216105000I-60000J0D01*
G01*
X-21246800Y-221229000D02*
G75*
G03X-21246800Y-221229000I-60000J0D01*
G01*
X-21246800Y-257424000D02*
G75*
G03X-21246800Y-257424000I-60000J0D01*
G01*
X-21246800Y-252300000D02*
G75*
G03X-21246800Y-252300000I-60000J0D01*
G01*
X-21246800Y-187828000D02*
G75*
G03X-21246800Y-187828000I-60000J0D01*
G01*
X-21246800Y-182704000D02*
G75*
G03X-21246800Y-182704000I-60000J0D01*
G01*
X-21246800Y-162892000D02*
G75*
G03X-21246800Y-162892000I-60000J0D01*
G01*
X-21246800Y-168016000D02*
G75*
G03X-21246800Y-168016000I-60000J0D01*
G01*
X-21246800Y-131821000D02*
G75*
G03X-21246800Y-131821000I-60000J0D01*
G01*
X-21246800Y-126697000D02*
G75*
G03X-21246800Y-126697000I-60000J0D01*
G01*
X-21246800Y-93296000D02*
G75*
G03X-21246800Y-93296000I-60000J0D01*
G01*
X-21246800Y-98420000D02*
G75*
G03X-21246800Y-98420000I-60000J0D01*
G01*
X-21246800Y-36781000D02*
G75*
G03X-21246800Y-36781000I-60000J0D01*
G01*
X-21246800Y-41905000D02*
G75*
G03X-21246800Y-41905000I-60000J0D01*
G01*
X-21246800Y-78100000D02*
G75*
G03X-21246800Y-78100000I-60000J0D01*
G01*
X-21246800Y-72976000D02*
G75*
G03X-21246800Y-72976000I-60000J0D01*
G01*
X-21246800Y-8504000D02*
G75*
G03X-21246800Y-8504000I-60000J0D01*
G01*
X-21246800Y-3380000D02*
G75*
G03X-21246800Y-3380000I-60000J0D01*
G01*
X-391909000Y-123991000D02*
G75*
G03X-391909000Y-123991000I-60000J0D01*
G01*
X-391909000Y-118867000D02*
G75*
G03X-391909000Y-118867000I-60000J0D01*
G01*
X-391909000Y-260345000D02*
G75*
G03X-391909000Y-260345000I-60000J0D01*
G01*
X-391909000Y-265469000D02*
G75*
G03X-391909000Y-265469000I-60000J0D01*
G01*
X-391909000Y-307379000D02*
G75*
G03X-391909000Y-307379000I-60000J0D01*
G01*
X-391909000Y-302255000D02*
G75*
G03X-391909000Y-302255000I-60000J0D01*
G01*
X-391909000Y-336589000D02*
G75*
G03X-391909000Y-336589000I-60000J0D01*
G01*
X-391909000Y-331465000D02*
G75*
G03X-391909000Y-331465000I-60000J0D01*
G01*
X-391909000Y-367025000D02*
G75*
G03X-391909000Y-367025000I-60000J0D01*
G01*
X-391909000Y-372149000D02*
G75*
G03X-391909000Y-372149000I-60000J0D01*
G01*
X-391909000Y-414059000D02*
G75*
G03X-391909000Y-414059000I-60000J0D01*
G01*
X-391909000Y-408935000D02*
G75*
G03X-391909000Y-408935000I-60000J0D01*
G01*
X-391909000Y-233040000D02*
G75*
G03X-391909000Y-233040000I-60000J0D01*
G01*
X-391909000Y-238164000D02*
G75*
G03X-391909000Y-238164000I-60000J0D01*
G01*
X-391909000Y-196254000D02*
G75*
G03X-391909000Y-196254000I-60000J0D01*
G01*
X-391909000Y-191130000D02*
G75*
G03X-391909000Y-191130000I-60000J0D01*
G01*
X-391909000Y-155570000D02*
G75*
G03X-391909000Y-155570000I-60000J0D01*
G01*
X-391909000Y-160694000D02*
G75*
G03X-391909000Y-160694000I-60000J0D01*
G01*
X-391909000Y-89574000D02*
G75*
G03X-391909000Y-89574000I-60000J0D01*
G01*
X-391909000Y-84450000D02*
G75*
G03X-391909000Y-84450000I-60000J0D01*
G01*
X-391909000Y-12104000D02*
G75*
G03X-391909000Y-12104000I-60000J0D01*
G01*
X-391909000Y-6980000D02*
G75*
G03X-391909000Y-6980000I-60000J0D01*
G01*
X-391909000Y-42540000D02*
G75*
G03X-391909000Y-42540000I-60000J0D01*
G01*
X-391909000Y-47664000D02*
G75*
G03X-391909000Y-47664000I-60000J0D01*
G01*
X-280199800Y-238602600D02*
G75*
G03X-280199800Y-238602600I-60000J0D01*
G01*
X-275075800Y-238602600D02*
G75*
G03X-275075800Y-238602600I-60000J0D01*
G01*
X-145789800Y-238602600D02*
G75*
G03X-145789800Y-238602600I-60000J0D01*
G01*
X-150913800Y-238602600D02*
G75*
G03X-150913800Y-238602600I-60000J0D01*
G01*
X-233165800Y-238602600D02*
G75*
G03X-233165800Y-238602600I-60000J0D01*
G01*
X-238289800Y-238602600D02*
G75*
G03X-238289800Y-238602600I-60000J0D01*
G01*
X-197649800Y-238602600D02*
G75*
G03X-197649800Y-238602600I-60000J0D01*
G01*
X-192525800Y-238602600D02*
G75*
G03X-192525800Y-238602600I-60000J0D01*
G01*
X-113398000Y-422447800D02*
G75*
G03X-113398000Y-422447800I-60000J0D01*
G01*
X-108274000Y-422447800D02*
G75*
G03X-108274000Y-422447800I-60000J0D01*
G01*
X-280911000Y-422447800D02*
G75*
G03X-280911000Y-422447800I-60000J0D01*
G01*
X-275787000Y-422447800D02*
G75*
G03X-275787000Y-422447800I-60000J0D01*
G01*
X-383501600Y-422422400D02*
G75*
G03X-383501600Y-422422400I-60000J0D01*
G01*
X-378377600Y-422422400D02*
G75*
G03X-378377600Y-422422400I-60000J0D01*
G01*
X-306031600Y-422447800D02*
G75*
G03X-306031600Y-422447800I-60000J0D01*
G01*
X-300907600Y-422447800D02*
G75*
G03X-300907600Y-422447800I-60000J0D01*
G01*
X-31642200Y-422422400D02*
G75*
G03X-31642200Y-422422400I-60000J0D01*
G01*
X-36766200Y-422422400D02*
G75*
G03X-36766200Y-422422400I-60000J0D01*
G01*
X-133496200Y-422447800D02*
G75*
G03X-133496200Y-422447800I-60000J0D01*
G01*
X-138620200Y-422447800D02*
G75*
G03X-138620200Y-422447800I-60000J0D01*
G01*
X-220872200Y-422447800D02*
G75*
G03X-220872200Y-422447800I-60000J0D01*
G01*
X-225996200Y-422447800D02*
G75*
G03X-225996200Y-422447800I-60000J0D01*
G01*
X-342817600Y-422447800D02*
G75*
G03X-342817600Y-422447800I-60000J0D01*
G01*
X-347941600Y-422447800D02*
G75*
G03X-347941600Y-422447800I-60000J0D01*
G01*
X-78676200Y-422422400D02*
G75*
G03X-78676200Y-422422400I-60000J0D01*
G01*
X-73552200Y-422422400D02*
G75*
G03X-73552200Y-422422400I-60000J0D01*
G01*
X-185356200Y-422447800D02*
G75*
G03X-185356200Y-422447800I-60000J0D01*
G01*
X-180232200Y-422447800D02*
G75*
G03X-180232200Y-422447800I-60000J0D01*
G01*
X-114966000Y3738800D02*
G75*
G03X-114966000Y3738800I-60000J0D01*
G01*
X-109842000Y3738800D02*
G75*
G03X-109842000Y3738800I-60000J0D01*
G01*
X-37496000Y3738800D02*
G75*
G03X-37496000Y3738800I-60000J0D01*
G01*
X-32372000Y3738800D02*
G75*
G03X-32372000Y3738800I-60000J0D01*
G01*
X-67932000Y3738800D02*
G75*
G03X-67932000Y3738800I-60000J0D01*
G01*
X-73056000Y3738800D02*
G75*
G03X-73056000Y3738800I-60000J0D01*
G01*
X-379082000Y3738800D02*
G75*
G03X-379082000Y3738800I-60000J0D01*
G01*
X-384206000Y3738800D02*
G75*
G03X-384206000Y3738800I-60000J0D01*
G01*
X-342296000Y3738800D02*
G75*
G03X-342296000Y3738800I-60000J0D01*
G01*
X-337172000Y3738800D02*
G75*
G03X-337172000Y3738800I-60000J0D01*
G01*
X-301612000Y3738800D02*
G75*
G03X-301612000Y3738800I-60000J0D01*
G01*
X-306736000Y3738800D02*
G75*
G03X-306736000Y3738800I-60000J0D01*
G01*
X-235616000Y3738800D02*
G75*
G03X-235616000Y3738800I-60000J0D01*
G01*
X-230492000Y3738800D02*
G75*
G03X-230492000Y3738800I-60000J0D01*
G01*
X-189852000Y3738800D02*
G75*
G03X-189852000Y3738800I-60000J0D01*
G01*
X-194976000Y3738800D02*
G75*
G03X-194976000Y3738800I-60000J0D01*
G01*
X-153066000Y3738800D02*
G75*
G03X-153066000Y3738800I-60000J0D01*
G01*
X-147942000Y3738800D02*
G75*
G03X-147942000Y3738800I-60000J0D01*
G01*
X-277228000Y3738800D02*
G75*
G03X-277228000Y3738800I-60000J0D01*
G01*
X-282352000Y3738800D02*
G75*
G03X-282352000Y3738800I-60000J0D01*
G01*
X-160932000Y-316433200D02*
G75*
G03X-160932000Y-316433200I-60000J0D01*
G01*
X-166056000Y-316433200D02*
G75*
G03X-166056000Y-316433200I-60000J0D01*
G01*
X-204486200Y-316407800D02*
G75*
G03X-204486200Y-316407800I-60000J0D01*
G01*
X-199362200Y-316407800D02*
G75*
G03X-199362200Y-316407800I-60000J0D01*
G01*
X-209490000Y-307162200D02*
G75*
G03X-209490000Y-307162200I-60000J0D01*
G01*
X-209490000Y-302038200D02*
G75*
G03X-209490000Y-302038200I-60000J0D01*
G01*
X-166081400Y-292506400D02*
G75*
G03X-166081400Y-292506400I-60000J0D01*
G01*
X-160957400Y-292506400D02*
G75*
G03X-160957400Y-292506400I-60000J0D01*
G01*
X-199387600Y-292481000D02*
G75*
G03X-199387600Y-292481000I-60000J0D01*
G01*
X-204511600Y-292481000D02*
G75*
G03X-204511600Y-292481000I-60000J0D01*
G01*
X-209490000Y-259359400D02*
G75*
G03X-209490000Y-259359400I-60000J0D01*
G01*
X-209490000Y-254235400D02*
G75*
G03X-209490000Y-254235400I-60000J0D01*
G01*
X-160982800Y-268630400D02*
G75*
G03X-160982800Y-268630400I-60000J0D01*
G01*
X-166106800Y-268630400D02*
G75*
G03X-166106800Y-268630400I-60000J0D01*
G01*
X-204537000Y-268605000D02*
G75*
G03X-204537000Y-268605000I-60000J0D01*
G01*
X-199413000Y-268605000D02*
G75*
G03X-199413000Y-268605000I-60000J0D01*
G01*
X-209490000Y-278136800D02*
G75*
G03X-209490000Y-278136800I-60000J0D01*
G01*
X-209490000Y-283260800D02*
G75*
G03X-209490000Y-283260800I-60000J0D01*
G01*
X-83880200Y-292531800D02*
G75*
G03X-83880200Y-292531800I-60000J0D01*
G01*
X-78756200Y-292531800D02*
G75*
G03X-78756200Y-292531800I-60000J0D01*
G01*
X-73803200Y-277876000D02*
G75*
G03X-73803200Y-277876000I-60000J0D01*
G01*
X-73803200Y-283000000D02*
G75*
G03X-73803200Y-283000000I-60000J0D01*
G01*
X-117186400Y-292506400D02*
G75*
G03X-117186400Y-292506400I-60000J0D01*
G01*
X-122310400Y-292506400D02*
G75*
G03X-122310400Y-292506400I-60000J0D01*
G01*
X-73803200Y-306901400D02*
G75*
G03X-73803200Y-306901400I-60000J0D01*
G01*
X-73803200Y-301777400D02*
G75*
G03X-73803200Y-301777400I-60000J0D01*
G01*
X-122310400Y-316407800D02*
G75*
G03X-122310400Y-316407800I-60000J0D01*
G01*
X-117186400Y-316407800D02*
G75*
G03X-117186400Y-316407800I-60000J0D01*
G01*
X-78756200Y-316433200D02*
G75*
G03X-78756200Y-316433200I-60000J0D01*
G01*
X-83880200Y-316433200D02*
G75*
G03X-83880200Y-316433200I-60000J0D01*
G01*
X-289042800Y-256540000D02*
G75*
G03X-289042800Y-256540000I-60000J0D01*
G01*
X-289042800Y-261664000D02*
G75*
G03X-289042800Y-261664000I-60000J0D01*
G01*
X-289042800Y-309924000D02*
G75*
G03X-289042800Y-309924000I-60000J0D01*
G01*
X-289042800Y-304800000D02*
G75*
G03X-289042800Y-304800000I-60000J0D01*
G01*
X-275955374Y-316433200D02*
G75*
G03X-275955374Y-316433200I-60000J0D01*
G01*
X-281079374Y-316433200D02*
G75*
G03X-281079374Y-316433200I-60000J0D01*
G01*
X-223504000Y-316433200D02*
G75*
G03X-223504000Y-316433200I-60000J0D01*
G01*
X-218380000Y-316433200D02*
G75*
G03X-218380000Y-316433200I-60000J0D01*
G01*
X-29962800Y-316433200D02*
G75*
G03X-29962800Y-316433200I-60000J0D01*
G01*
X-35086800Y-316433200D02*
G75*
G03X-35086800Y-316433200I-60000J0D01*
G01*
X-65414400Y-316433200D02*
G75*
G03X-65414400Y-316433200I-60000J0D01*
G01*
X-60290400Y-316433200D02*
G75*
G03X-60290400Y-316433200I-60000J0D01*
G01*
X-60290400Y-263347200D02*
G75*
G03X-60290400Y-263347200I-60000J0D01*
G01*
X-65414400Y-263347200D02*
G75*
G03X-65414400Y-263347200I-60000J0D01*
G01*
X-35086800Y-263347200D02*
G75*
G03X-35086800Y-263347200I-60000J0D01*
G01*
X-29962800Y-263347200D02*
G75*
G03X-29962800Y-263347200I-60000J0D01*
G01*
X-123915240Y-328085374D02*
G75*
G03X-123915240Y-328085374I-60000J0D01*
G01*
X-123915240Y-333209374D02*
G75*
G03X-123915240Y-333209374I-60000J0D01*
G01*
X-123915240Y-415759374D02*
G75*
G03X-123915240Y-415759374I-60000J0D01*
G01*
X-123915240Y-410635374D02*
G75*
G03X-123915240Y-410635374I-60000J0D01*
G01*
X-123915240Y-368852374D02*
G75*
G03X-123915240Y-368852374I-60000J0D01*
G01*
X-123915240Y-373976374D02*
G75*
G03X-123915240Y-373976374I-60000J0D01*
G01*
X-137836600Y-220643000D02*
G75*
G03X-137836600Y-220643000I-60000J0D01*
G01*
X-137836600Y-215519000D02*
G75*
G03X-137836600Y-215519000I-60000J0D01*
G01*
X-137836600Y-187750000D02*
G75*
G03X-137836600Y-187750000I-60000J0D01*
G01*
X-137836600Y-182626000D02*
G75*
G03X-137836600Y-182626000I-60000J0D01*
G01*
X-82007400Y-174167800D02*
G75*
G03X-82007400Y-174167800I-60000J0D01*
G01*
X-76883400Y-174167800D02*
G75*
G03X-76883400Y-174167800I-60000J0D01*
G01*
X-127930600Y-174167800D02*
G75*
G03X-127930600Y-174167800I-60000J0D01*
G01*
X-122806600Y-174167800D02*
G75*
G03X-122806600Y-174167800I-60000J0D01*
G01*
X-31341200Y-174167800D02*
G75*
G03X-31341200Y-174167800I-60000J0D01*
G01*
X-36465200Y-174167800D02*
G75*
G03X-36465200Y-174167800I-60000J0D01*
G01*
X-76883400Y-85013800D02*
G75*
G03X-76883400Y-85013800I-60000J0D01*
G01*
X-82007400Y-85013800D02*
G75*
G03X-82007400Y-85013800I-60000J0D01*
G01*
X-36465200Y-85013800D02*
G75*
G03X-36465200Y-85013800I-60000J0D01*
G01*
X-31341200Y-85013800D02*
G75*
G03X-31341200Y-85013800I-60000J0D01*
G01*
X-122806600Y-85013800D02*
G75*
G03X-122806600Y-85013800I-60000J0D01*
G01*
X-127930600Y-85013800D02*
G75*
G03X-127930600Y-85013800I-60000J0D01*
G01*
X-137836600Y-167557000D02*
G75*
G03X-137836600Y-167557000I-60000J0D01*
G01*
X-137836600Y-162433000D02*
G75*
G03X-137836600Y-162433000I-60000J0D01*
G01*
X-137836600Y-126365000D02*
G75*
G03X-137836600Y-126365000I-60000J0D01*
G01*
X-137836600Y-131489000D02*
G75*
G03X-137836600Y-131489000I-60000J0D01*
G01*
X-137836600Y-93472000D02*
G75*
G03X-137836600Y-93472000I-60000J0D01*
G01*
X-137836600Y-98596000D02*
G75*
G03X-137836600Y-98596000I-60000J0D01*
G01*
X-137836600Y-8807000D02*
G75*
G03X-137836600Y-8807000I-60000J0D01*
G01*
X-137836600Y-3683000D02*
G75*
G03X-137836600Y-3683000I-60000J0D01*
G01*
X-137836600Y-72644000D02*
G75*
G03X-137836600Y-72644000I-60000J0D01*
G01*
X-137836600Y-77768000D02*
G75*
G03X-137836600Y-77768000I-60000J0D01*
G01*
X-137836600Y-41700000D02*
G75*
G03X-137836600Y-41700000I-60000J0D01*
G01*
X-137836600Y-36576000D02*
G75*
G03X-137836600Y-36576000I-60000J0D01*
G01*
X-289396240Y-410635374D02*
G75*
G03X-289396240Y-410635374I-60000J0D01*
G01*
X-289396240Y-415759374D02*
G75*
G03X-289396240Y-415759374I-60000J0D01*
G01*
X-289396240Y-373976374D02*
G75*
G03X-289396240Y-373976374I-60000J0D01*
G01*
X-289396240Y-368852374D02*
G75*
G03X-289396240Y-368852374I-60000J0D01*
G01*
X-289396240Y-333209374D02*
G75*
G03X-289396240Y-333209374I-60000J0D01*
G01*
X-289396240Y-328085374D02*
G75*
G03X-289396240Y-328085374I-60000J0D01*
G01*
X-289264974Y-159050160D02*
G75*
G03X-289264974Y-159050160I-60000J0D01*
G01*
X-289264974Y-153926160D02*
G75*
G03X-289264974Y-153926160I-60000J0D01*
G01*
X-289271400Y-224790000D02*
G75*
G03X-289271400Y-224790000I-60000J0D01*
G01*
X-289271400Y-229914000D02*
G75*
G03X-289271400Y-229914000I-60000J0D01*
G01*
X-289264974Y-199817160D02*
G75*
G03X-289264974Y-199817160I-60000J0D01*
G01*
X-289264974Y-194693160D02*
G75*
G03X-289264974Y-194693160I-60000J0D01*
G01*
X-289246000Y-119126000D02*
G75*
G03X-289246000Y-119126000I-60000J0D01*
G01*
X-289246000Y-124250000D02*
G75*
G03X-289246000Y-124250000I-60000J0D01*
G01*
X-289239574Y-3634360D02*
G75*
G03X-289239574Y-3634360I-60000J0D01*
G01*
X-289239574Y-8758360D02*
G75*
G03X-289239574Y-8758360I-60000J0D01*
G01*
X-289239574Y-91308360D02*
G75*
G03X-289239574Y-91308360I-60000J0D01*
G01*
X-289239574Y-86184360D02*
G75*
G03X-289239574Y-86184360I-60000J0D01*
G01*
X-289239574Y-44401360D02*
G75*
G03X-289239574Y-44401360I-60000J0D01*
G01*
X-289239574Y-49525360D02*
G75*
G03X-289239574Y-49525360I-60000J0D01*
G01*
X-384406574Y-319889760D02*
G75*
G03X-384406574Y-319889760I-60000J0D01*
G01*
X-379282574Y-319889760D02*
G75*
G03X-379282574Y-319889760I-60000J0D01*
G01*
X-296732574Y-319889760D02*
G75*
G03X-296732574Y-319889760I-60000J0D01*
G01*
X-301856574Y-319889760D02*
G75*
G03X-301856574Y-319889760I-60000J0D01*
G01*
X-337499574Y-319889760D02*
G75*
G03X-337499574Y-319889760I-60000J0D01*
G01*
X-342623574Y-319889760D02*
G75*
G03X-342623574Y-319889760I-60000J0D01*
G01*
X-342623574Y-247855360D02*
G75*
G03X-342623574Y-247855360I-60000J0D01*
G01*
X-337499574Y-247855360D02*
G75*
G03X-337499574Y-247855360I-60000J0D01*
G01*
X-301856574Y-247855360D02*
G75*
G03X-301856574Y-247855360I-60000J0D01*
G01*
X-296732574Y-247855360D02*
G75*
G03X-296732574Y-247855360I-60000J0D01*
G01*
X-379282574Y-247855360D02*
G75*
G03X-379282574Y-247855360I-60000J0D01*
G01*
X-384406574Y-247855360D02*
G75*
G03X-384406574Y-247855360I-60000J0D01*
G01*
X-296732574Y-145175860D02*
G75*
G03X-296732574Y-145175860I-60000J0D01*
G01*
X-301856574Y-145175860D02*
G75*
G03X-301856574Y-145175860I-60000J0D01*
G01*
X-384406574Y-145175860D02*
G75*
G03X-384406574Y-145175860I-60000J0D01*
G01*
X-379282574Y-145175860D02*
G75*
G03X-379282574Y-145175860I-60000J0D01*
G01*
X-350887000Y-145175860D02*
G75*
G03X-350887000Y-145175860I-60000J0D01*
G01*
X-356011000Y-145175860D02*
G75*
G03X-356011000Y-145175860I-60000J0D01*
G01*
X-342623574Y-98884360D02*
G75*
G03X-342623574Y-98884360I-60000J0D01*
G01*
X-337499574Y-98884360D02*
G75*
G03X-337499574Y-98884360I-60000J0D01*
G01*
X-301856574Y-98884360D02*
G75*
G03X-301856574Y-98884360I-60000J0D01*
G01*
X-296732574Y-98884360D02*
G75*
G03X-296732574Y-98884360I-60000J0D01*
G01*
X-379282574Y-98884360D02*
G75*
G03X-379282574Y-98884360I-60000J0D01*
G01*
X-384406574Y-98884360D02*
G75*
G03X-384406574Y-98884360I-60000J0D01*
G01*
D11*
X-208369600Y-253124800D02*
X-208369600Y-261124800D01*
D13*
X-207543409Y-282703180D02*
X-208043409Y-282703180D01*
X-208043409Y-282512704D01*
X-208019600Y-282465085D01*
X-207995790Y-282441276D01*
X-207948171Y-282417466D01*
X-207876742Y-282417466D01*
X-207829123Y-282441276D01*
X-207805314Y-282465085D01*
X-207781504Y-282512704D01*
X-207781504Y-282703180D01*
X-207591028Y-281917466D02*
X-207567219Y-281941276D01*
X-207543409Y-282012704D01*
X-207543409Y-282060323D01*
X-207567219Y-282131752D01*
X-207614838Y-282179371D01*
X-207662457Y-282203180D01*
X-207757695Y-282226990D01*
X-207829123Y-282226990D01*
X-207924361Y-282203180D01*
X-207971980Y-282179371D01*
X-208019600Y-282131752D01*
X-208043409Y-282060323D01*
X-208043409Y-282012704D01*
X-208019600Y-281941276D01*
X-207995790Y-281917466D01*
X-207805314Y-281536514D02*
X-207781504Y-281465085D01*
X-207757695Y-281441276D01*
X-207710076Y-281417466D01*
X-207638647Y-281417466D01*
X-207591028Y-281441276D01*
X-207567219Y-281465085D01*
X-207543409Y-281512704D01*
X-207543409Y-281703180D01*
X-208043409Y-281703180D01*
X-208043409Y-281536514D01*
X-208019600Y-281488895D01*
X-207995790Y-281465085D01*
X-207948171Y-281441276D01*
X-207900552Y-281441276D01*
X-207852933Y-281465085D01*
X-207829123Y-281488895D01*
X-207805314Y-281536514D01*
X-207805314Y-281703180D01*
X-207567219Y-280631752D02*
X-207543409Y-280679371D01*
X-207543409Y-280774609D01*
X-207567219Y-280822228D01*
X-207614838Y-280846038D01*
X-207805314Y-280846038D01*
X-207852933Y-280822228D01*
X-207876742Y-280774609D01*
X-207876742Y-280679371D01*
X-207852933Y-280631752D01*
X-207805314Y-280607942D01*
X-207757695Y-280607942D01*
X-207710076Y-280846038D01*
X-207543409Y-280179371D02*
X-208043409Y-280179371D01*
X-207567219Y-280179371D02*
X-207543409Y-280226990D01*
X-207543409Y-280322228D01*
X-207567219Y-280369847D01*
X-207591028Y-280393657D01*
X-207638647Y-280417466D01*
X-207781504Y-280417466D01*
X-207829123Y-280393657D01*
X-207852933Y-280369847D01*
X-207876742Y-280322228D01*
X-207876742Y-280226990D01*
X-207852933Y-280179371D01*
X-207876742Y-279726990D02*
X-207471980Y-279726990D01*
X-207424361Y-279750800D01*
X-207400552Y-279774609D01*
X-207376742Y-279822228D01*
X-207376742Y-279893657D01*
X-207400552Y-279941276D01*
X-207567219Y-279726990D02*
X-207543409Y-279774609D01*
X-207543409Y-279869847D01*
X-207567219Y-279917466D01*
X-207591028Y-279941276D01*
X-207638647Y-279965085D01*
X-207781504Y-279965085D01*
X-207829123Y-279941276D01*
X-207852933Y-279917466D01*
X-207876742Y-279869847D01*
X-207876742Y-279774609D01*
X-207852933Y-279726990D01*
X-207567219Y-279298419D02*
X-207543409Y-279346038D01*
X-207543409Y-279441276D01*
X-207567219Y-279488895D01*
X-207614838Y-279512704D01*
X-207805314Y-279512704D01*
X-207852933Y-279488895D01*
X-207876742Y-279441276D01*
X-207876742Y-279346038D01*
X-207852933Y-279298419D01*
X-207805314Y-279274609D01*
X-207757695Y-279274609D01*
X-207710076Y-279512704D01*
X-207518009Y-306579180D02*
X-208018009Y-306579180D01*
X-208018009Y-306388704D01*
X-207994200Y-306341085D01*
X-207970390Y-306317276D01*
X-207922771Y-306293466D01*
X-207851342Y-306293466D01*
X-207803723Y-306317276D01*
X-207779914Y-306341085D01*
X-207756104Y-306388704D01*
X-207756104Y-306579180D01*
X-207565628Y-305793466D02*
X-207541819Y-305817276D01*
X-207518009Y-305888704D01*
X-207518009Y-305936323D01*
X-207541819Y-306007752D01*
X-207589438Y-306055371D01*
X-207637057Y-306079180D01*
X-207732295Y-306102990D01*
X-207803723Y-306102990D01*
X-207898961Y-306079180D01*
X-207946580Y-306055371D01*
X-207994200Y-306007752D01*
X-208018009Y-305936323D01*
X-208018009Y-305888704D01*
X-207994200Y-305817276D01*
X-207970390Y-305793466D01*
X-207779914Y-305412514D02*
X-207756104Y-305341085D01*
X-207732295Y-305317276D01*
X-207684676Y-305293466D01*
X-207613247Y-305293466D01*
X-207565628Y-305317276D01*
X-207541819Y-305341085D01*
X-207518009Y-305388704D01*
X-207518009Y-305579180D01*
X-208018009Y-305579180D01*
X-208018009Y-305412514D01*
X-207994200Y-305364895D01*
X-207970390Y-305341085D01*
X-207922771Y-305317276D01*
X-207875152Y-305317276D01*
X-207827533Y-305341085D01*
X-207803723Y-305364895D01*
X-207779914Y-305412514D01*
X-207779914Y-305579180D01*
X-207541819Y-304507752D02*
X-207518009Y-304555371D01*
X-207518009Y-304650609D01*
X-207541819Y-304698228D01*
X-207589438Y-304722038D01*
X-207779914Y-304722038D01*
X-207827533Y-304698228D01*
X-207851342Y-304650609D01*
X-207851342Y-304555371D01*
X-207827533Y-304507752D01*
X-207779914Y-304483942D01*
X-207732295Y-304483942D01*
X-207684676Y-304722038D01*
X-207518009Y-304055371D02*
X-208018009Y-304055371D01*
X-207541819Y-304055371D02*
X-207518009Y-304102990D01*
X-207518009Y-304198228D01*
X-207541819Y-304245847D01*
X-207565628Y-304269657D01*
X-207613247Y-304293466D01*
X-207756104Y-304293466D01*
X-207803723Y-304269657D01*
X-207827533Y-304245847D01*
X-207851342Y-304198228D01*
X-207851342Y-304102990D01*
X-207827533Y-304055371D01*
X-207851342Y-303602990D02*
X-207446580Y-303602990D01*
X-207398961Y-303626800D01*
X-207375152Y-303650609D01*
X-207351342Y-303698228D01*
X-207351342Y-303769657D01*
X-207375152Y-303817276D01*
X-207541819Y-303602990D02*
X-207518009Y-303650609D01*
X-207518009Y-303745847D01*
X-207541819Y-303793466D01*
X-207565628Y-303817276D01*
X-207613247Y-303841085D01*
X-207756104Y-303841085D01*
X-207803723Y-303817276D01*
X-207827533Y-303793466D01*
X-207851342Y-303745847D01*
X-207851342Y-303650609D01*
X-207827533Y-303602990D01*
X-207541819Y-303174419D02*
X-207518009Y-303222038D01*
X-207518009Y-303317276D01*
X-207541819Y-303364895D01*
X-207589438Y-303388704D01*
X-207779914Y-303388704D01*
X-207827533Y-303364895D01*
X-207851342Y-303317276D01*
X-207851342Y-303222038D01*
X-207827533Y-303174419D01*
X-207779914Y-303150609D01*
X-207732295Y-303150609D01*
X-207684676Y-303388704D01*
X-75433209Y-281813180D02*
X-75933209Y-281813180D01*
X-75933209Y-281622704D01*
X-75909400Y-281575085D01*
X-75885590Y-281551276D01*
X-75837971Y-281527466D01*
X-75766542Y-281527466D01*
X-75718923Y-281551276D01*
X-75695114Y-281575085D01*
X-75671304Y-281622704D01*
X-75671304Y-281813180D01*
X-75480828Y-281027466D02*
X-75457019Y-281051276D01*
X-75433209Y-281122704D01*
X-75433209Y-281170323D01*
X-75457019Y-281241752D01*
X-75504638Y-281289371D01*
X-75552257Y-281313180D01*
X-75647495Y-281336990D01*
X-75718923Y-281336990D01*
X-75814161Y-281313180D01*
X-75861780Y-281289371D01*
X-75909400Y-281241752D01*
X-75933209Y-281170323D01*
X-75933209Y-281122704D01*
X-75909400Y-281051276D01*
X-75885590Y-281027466D01*
X-75695114Y-280646514D02*
X-75671304Y-280575085D01*
X-75647495Y-280551276D01*
X-75599876Y-280527466D01*
X-75528447Y-280527466D01*
X-75480828Y-280551276D01*
X-75457019Y-280575085D01*
X-75433209Y-280622704D01*
X-75433209Y-280813180D01*
X-75933209Y-280813180D01*
X-75933209Y-280646514D01*
X-75909400Y-280598895D01*
X-75885590Y-280575085D01*
X-75837971Y-280551276D01*
X-75790352Y-280551276D01*
X-75742733Y-280575085D01*
X-75718923Y-280598895D01*
X-75695114Y-280646514D01*
X-75695114Y-280813180D01*
X-75457019Y-279741752D02*
X-75433209Y-279789371D01*
X-75433209Y-279884609D01*
X-75457019Y-279932228D01*
X-75504638Y-279956038D01*
X-75695114Y-279956038D01*
X-75742733Y-279932228D01*
X-75766542Y-279884609D01*
X-75766542Y-279789371D01*
X-75742733Y-279741752D01*
X-75695114Y-279717942D01*
X-75647495Y-279717942D01*
X-75599876Y-279956038D01*
X-75433209Y-279289371D02*
X-75933209Y-279289371D01*
X-75457019Y-279289371D02*
X-75433209Y-279336990D01*
X-75433209Y-279432228D01*
X-75457019Y-279479847D01*
X-75480828Y-279503657D01*
X-75528447Y-279527466D01*
X-75671304Y-279527466D01*
X-75718923Y-279503657D01*
X-75742733Y-279479847D01*
X-75766542Y-279432228D01*
X-75766542Y-279336990D01*
X-75742733Y-279289371D01*
X-75766542Y-278836990D02*
X-75361780Y-278836990D01*
X-75314161Y-278860800D01*
X-75290352Y-278884609D01*
X-75266542Y-278932228D01*
X-75266542Y-279003657D01*
X-75290352Y-279051276D01*
X-75457019Y-278836990D02*
X-75433209Y-278884609D01*
X-75433209Y-278979847D01*
X-75457019Y-279027466D01*
X-75480828Y-279051276D01*
X-75528447Y-279075085D01*
X-75671304Y-279075085D01*
X-75718923Y-279051276D01*
X-75742733Y-279027466D01*
X-75766542Y-278979847D01*
X-75766542Y-278884609D01*
X-75742733Y-278836990D01*
X-75457019Y-278408419D02*
X-75433209Y-278456038D01*
X-75433209Y-278551276D01*
X-75457019Y-278598895D01*
X-75504638Y-278622704D01*
X-75695114Y-278622704D01*
X-75742733Y-278598895D01*
X-75766542Y-278551276D01*
X-75766542Y-278456038D01*
X-75742733Y-278408419D01*
X-75695114Y-278384609D01*
X-75647495Y-278384609D01*
X-75599876Y-278622704D01*
X-75433209Y-305714580D02*
X-75933209Y-305714580D01*
X-75933209Y-305524104D01*
X-75909400Y-305476485D01*
X-75885590Y-305452676D01*
X-75837971Y-305428866D01*
X-75766542Y-305428866D01*
X-75718923Y-305452676D01*
X-75695114Y-305476485D01*
X-75671304Y-305524104D01*
X-75671304Y-305714580D01*
X-75480828Y-304928866D02*
X-75457019Y-304952676D01*
X-75433209Y-305024104D01*
X-75433209Y-305071723D01*
X-75457019Y-305143152D01*
X-75504638Y-305190771D01*
X-75552257Y-305214580D01*
X-75647495Y-305238390D01*
X-75718923Y-305238390D01*
X-75814161Y-305214580D01*
X-75861780Y-305190771D01*
X-75909400Y-305143152D01*
X-75933209Y-305071723D01*
X-75933209Y-305024104D01*
X-75909400Y-304952676D01*
X-75885590Y-304928866D01*
X-75695114Y-304547914D02*
X-75671304Y-304476485D01*
X-75647495Y-304452676D01*
X-75599876Y-304428866D01*
X-75528447Y-304428866D01*
X-75480828Y-304452676D01*
X-75457019Y-304476485D01*
X-75433209Y-304524104D01*
X-75433209Y-304714580D01*
X-75933209Y-304714580D01*
X-75933209Y-304547914D01*
X-75909400Y-304500295D01*
X-75885590Y-304476485D01*
X-75837971Y-304452676D01*
X-75790352Y-304452676D01*
X-75742733Y-304476485D01*
X-75718923Y-304500295D01*
X-75695114Y-304547914D01*
X-75695114Y-304714580D01*
X-75457019Y-303643152D02*
X-75433209Y-303690771D01*
X-75433209Y-303786009D01*
X-75457019Y-303833628D01*
X-75504638Y-303857438D01*
X-75695114Y-303857438D01*
X-75742733Y-303833628D01*
X-75766542Y-303786009D01*
X-75766542Y-303690771D01*
X-75742733Y-303643152D01*
X-75695114Y-303619342D01*
X-75647495Y-303619342D01*
X-75599876Y-303857438D01*
X-75433209Y-303190771D02*
X-75933209Y-303190771D01*
X-75457019Y-303190771D02*
X-75433209Y-303238390D01*
X-75433209Y-303333628D01*
X-75457019Y-303381247D01*
X-75480828Y-303405057D01*
X-75528447Y-303428866D01*
X-75671304Y-303428866D01*
X-75718923Y-303405057D01*
X-75742733Y-303381247D01*
X-75766542Y-303333628D01*
X-75766542Y-303238390D01*
X-75742733Y-303190771D01*
X-75766542Y-302738390D02*
X-75361780Y-302738390D01*
X-75314161Y-302762200D01*
X-75290352Y-302786009D01*
X-75266542Y-302833628D01*
X-75266542Y-302905057D01*
X-75290352Y-302952676D01*
X-75457019Y-302738390D02*
X-75433209Y-302786009D01*
X-75433209Y-302881247D01*
X-75457019Y-302928866D01*
X-75480828Y-302952676D01*
X-75528447Y-302976485D01*
X-75671304Y-302976485D01*
X-75718923Y-302952676D01*
X-75742733Y-302928866D01*
X-75766542Y-302881247D01*
X-75766542Y-302786009D01*
X-75742733Y-302738390D01*
X-75457019Y-302309819D02*
X-75433209Y-302357438D01*
X-75433209Y-302452676D01*
X-75457019Y-302500295D01*
X-75504638Y-302524104D01*
X-75695114Y-302524104D01*
X-75742733Y-302500295D01*
X-75766542Y-302452676D01*
X-75766542Y-302357438D01*
X-75742733Y-302309819D01*
X-75695114Y-302286009D01*
X-75647495Y-302286009D01*
X-75599876Y-302524104D01*
X-207543409Y-258827180D02*
X-208043409Y-258827180D01*
X-208043409Y-258636704D01*
X-208019600Y-258589085D01*
X-207995790Y-258565276D01*
X-207948171Y-258541466D01*
X-207876742Y-258541466D01*
X-207829123Y-258565276D01*
X-207805314Y-258589085D01*
X-207781504Y-258636704D01*
X-207781504Y-258827180D01*
X-207591028Y-258041466D02*
X-207567219Y-258065276D01*
X-207543409Y-258136704D01*
X-207543409Y-258184323D01*
X-207567219Y-258255752D01*
X-207614838Y-258303371D01*
X-207662457Y-258327180D01*
X-207757695Y-258350990D01*
X-207829123Y-258350990D01*
X-207924361Y-258327180D01*
X-207971980Y-258303371D01*
X-208019600Y-258255752D01*
X-208043409Y-258184323D01*
X-208043409Y-258136704D01*
X-208019600Y-258065276D01*
X-207995790Y-258041466D01*
X-207805314Y-257660514D02*
X-207781504Y-257589085D01*
X-207757695Y-257565276D01*
X-207710076Y-257541466D01*
X-207638647Y-257541466D01*
X-207591028Y-257565276D01*
X-207567219Y-257589085D01*
X-207543409Y-257636704D01*
X-207543409Y-257827180D01*
X-208043409Y-257827180D01*
X-208043409Y-257660514D01*
X-208019600Y-257612895D01*
X-207995790Y-257589085D01*
X-207948171Y-257565276D01*
X-207900552Y-257565276D01*
X-207852933Y-257589085D01*
X-207829123Y-257612895D01*
X-207805314Y-257660514D01*
X-207805314Y-257827180D01*
X-207567219Y-256755752D02*
X-207543409Y-256803371D01*
X-207543409Y-256898609D01*
X-207567219Y-256946228D01*
X-207614838Y-256970038D01*
X-207805314Y-256970038D01*
X-207852933Y-256946228D01*
X-207876742Y-256898609D01*
X-207876742Y-256803371D01*
X-207852933Y-256755752D01*
X-207805314Y-256731942D01*
X-207757695Y-256731942D01*
X-207710076Y-256970038D01*
X-207543409Y-256303371D02*
X-208043409Y-256303371D01*
X-207567219Y-256303371D02*
X-207543409Y-256350990D01*
X-207543409Y-256446228D01*
X-207567219Y-256493847D01*
X-207591028Y-256517657D01*
X-207638647Y-256541466D01*
X-207781504Y-256541466D01*
X-207829123Y-256517657D01*
X-207852933Y-256493847D01*
X-207876742Y-256446228D01*
X-207876742Y-256350990D01*
X-207852933Y-256303371D01*
X-207876742Y-255850990D02*
X-207471980Y-255850990D01*
X-207424361Y-255874800D01*
X-207400552Y-255898609D01*
X-207376742Y-255946228D01*
X-207376742Y-256017657D01*
X-207400552Y-256065276D01*
X-207567219Y-255850990D02*
X-207543409Y-255898609D01*
X-207543409Y-255993847D01*
X-207567219Y-256041466D01*
X-207591028Y-256065276D01*
X-207638647Y-256089085D01*
X-207781504Y-256089085D01*
X-207829123Y-256065276D01*
X-207852933Y-256041466D01*
X-207876742Y-255993847D01*
X-207876742Y-255898609D01*
X-207852933Y-255850990D01*
X-207567219Y-255422419D02*
X-207543409Y-255470038D01*
X-207543409Y-255565276D01*
X-207567219Y-255612895D01*
X-207614838Y-255636704D01*
X-207805314Y-255636704D01*
X-207852933Y-255612895D01*
X-207876742Y-255565276D01*
X-207876742Y-255470038D01*
X-207852933Y-255422419D01*
X-207805314Y-255398609D01*
X-207757695Y-255398609D01*
X-207710076Y-255636704D01*
M02*
