G04 #@! TF.GenerationSoftware,KiCad,Pcbnew,(5.1.5)-3*
G04 #@! TF.CreationDate,2020-11-02T16:30:31-03:00*
G04 #@! TF.ProjectId,panel,70616e65-6c2e-46b6-9963-61645f706362,0.1*
G04 #@! TF.SameCoordinates,Original*
G04 #@! TF.FileFunction,Other,ECO1*
%FSLAX46Y46*%
G04 Gerber Fmt 4.6, Leading zero omitted, Abs format (unit mm)*
G04 Created by KiCad (PCBNEW (5.1.5)-3) date 2020-11-02 16:30:31*
%MOMM*%
%LPD*%
G04 APERTURE LIST*
%ADD10C,2.540000*%
G04 APERTURE END LIST*
D10*
X-73859400Y-306903200D02*
X-73859400Y-316021800D01*
X-73835872Y-313661184D02*
G75*
G02X-76678800Y-316402800I-2842928J103184D01*
G01*
X-206804584Y-316375528D02*
G75*
G02X-209546200Y-313532600I103184J2842928D01*
G01*
X-206855384Y-292499528D02*
G75*
G02X-209597000Y-289656600I103184J2842928D01*
G01*
X-209544328Y-295217616D02*
G75*
G02X-206701400Y-292476000I2842928J-103184D01*
G01*
X-209571600Y-271343200D02*
G75*
G02X-206728672Y-268601584I2842928J-103184D01*
G01*
X-206828400Y-268625400D02*
G75*
G02X-209570016Y-265782472I103184J2842928D01*
G01*
X-209546200Y-247441800D02*
G75*
G02X-206703272Y-244700184I2842928J-103184D01*
G01*
X-153082000Y-244724000D02*
G75*
G02X-150340384Y-247566928I-103184J-2842928D01*
G01*
X-150366072Y-265883784D02*
G75*
G02X-153209000Y-268625400I-2842928J103184D01*
G01*
X-153107400Y-268627272D02*
G75*
G02X-150365784Y-271470200I-103184J-2842928D01*
G01*
X-150367656Y-289783312D02*
G75*
G02X-153210584Y-292524928I-2842928J103184D01*
G01*
X-153082000Y-292501400D02*
G75*
G02X-150340384Y-295344328I-103184J-2842928D01*
G01*
X-150338800Y-313659600D02*
G75*
G02X-153181728Y-316401216I-2842928J103184D01*
G01*
X-73859400Y-269336600D02*
X-73859400Y-264409000D01*
X-209495400Y-292476000D02*
X-204567800Y-292476000D01*
X-161006800Y-292501400D02*
X-150440400Y-292501400D01*
X-215690388Y-244245594D02*
G75*
G02X-209546200Y-250616800I-231212J-6371206D01*
G01*
X-287803600Y-243200000D02*
X-287803600Y-239821800D01*
X-286736800Y-245105000D02*
X-286736800Y-241726800D01*
X-288870400Y-246933800D02*
X-288870400Y-243555600D01*
X-290648400Y-249321400D02*
X-290648400Y-245943200D01*
X-280766976Y-244244027D02*
G75*
G02X-286889200Y-237895594I230388J6348433D01*
G01*
X-289784800Y-98902600D02*
X-296795200Y-98902600D01*
X-289353000Y-92781200D02*
G75*
G02X-295724206Y-98925388I-6371206J231212D01*
G01*
X-295423600Y-98928000D02*
G75*
G02X-289279412Y-105299206I-231212J-6371206D01*
G01*
X-289708600Y-145181400D02*
X-296795200Y-145181400D01*
X-295547988Y-145185594D02*
G75*
G02X-289403800Y-151556800I-231212J-6371206D01*
G01*
X-289306394Y-139037212D02*
G75*
G02X-295677600Y-145181400I-6371206J231212D01*
G01*
X-289327600Y-241625200D02*
X-289327600Y-229915800D01*
X-289073600Y-250388200D02*
G75*
G02X-282702394Y-244244012I6371206J-231212D01*
G01*
X-289331794Y-241704012D02*
G75*
G02X-295703000Y-247848200I-6371206J231212D01*
G01*
X-295243188Y-247877794D02*
G75*
G02X-289099000Y-254249000I-231212J-6371206D01*
G01*
X-145843000Y-238602600D02*
X-138121400Y-238602600D01*
X-137922379Y-233032094D02*
G75*
G02X-143252200Y-238577200I-5329821J-211106D01*
G01*
X-283731694Y-238598421D02*
G75*
G02X-289276800Y-233268600I-211106J5329821D01*
G01*
X-209571600Y-307182600D02*
X-209571600Y-315971000D01*
X-209597000Y-310306800D02*
G75*
G02X-215968206Y-316450988I-6371206J231212D01*
G01*
X-281123400Y-316428200D02*
X-288311600Y-316428200D01*
X-282977600Y-316352000D02*
G75*
G02X-289121788Y-309980794I231212J6371206D01*
G01*
X-289175200Y-313786600D02*
G75*
G02X-295546406Y-319930788I-6371206J231212D01*
G01*
X-289475806Y-322572388D02*
G75*
G02X-283104600Y-316428200I6371206J-231212D01*
G01*
X-296795200Y-319908000D02*
X-291105600Y-319908000D01*
X-289099000Y-309925800D02*
X-289099000Y-318485600D01*
X-289454600Y-321813000D02*
X-289454600Y-328086800D01*
X-295677600Y-319882600D02*
G75*
G02X-289533412Y-326253806I-231212J-6371206D01*
G01*
X-392019800Y-326105600D02*
G75*
G02X-385648594Y-319961412I6371206J-231212D01*
G01*
X-391892800Y-319882600D02*
X-384450600Y-319882600D01*
X-385796800Y-319908000D02*
G75*
G02X-391940988Y-313536794I231212J6371206D01*
G01*
X-391969000Y-254020400D02*
G75*
G02X-385597794Y-247876212I6371206J-231212D01*
G01*
X-385771400Y-247848200D02*
G75*
G02X-391915588Y-241476994I231212J6371206D01*
G01*
X-391943600Y-151302800D02*
G75*
G02X-385572394Y-145158612I6371206J-231212D01*
G01*
X-391435600Y-145181400D02*
X-384450600Y-145181400D01*
X-385746000Y-145156000D02*
G75*
G02X-391890188Y-138784794I231212J6371206D01*
G01*
X-76550216Y-292503272D02*
G75*
G02X-73808600Y-295346200I-103184J-2842928D01*
G01*
X-73835872Y-289785184D02*
G75*
G02X-76678800Y-292526800I-2842928J103184D01*
G01*
X-78812400Y-292526800D02*
X-74088000Y-292526800D01*
X-76601016Y-268601872D02*
G75*
G02X-73859400Y-271444800I-103184J-2842928D01*
G01*
X-73884800Y-268574600D02*
X-80692000Y-268574600D01*
X-73859400Y-277871000D02*
X-73859400Y-268600000D01*
X-133064928Y-271367016D02*
G75*
G02X-130222000Y-268625400I2842928J-103184D01*
G01*
X-130171200Y-268600000D02*
X-123922800Y-268600000D01*
X-133041400Y-277490000D02*
X-133041400Y-271419400D01*
X-150669000Y-268625400D02*
X-161057600Y-268625400D01*
X-132279400Y-292501400D02*
X-122373400Y-292501400D01*
X-130299784Y-292550328D02*
G75*
G02X-133041400Y-289707400I103184J2842928D01*
G01*
X-133064928Y-295268416D02*
G75*
G02X-130222000Y-292526800I2842928J-103184D01*
G01*
X-130350584Y-316426328D02*
G75*
G02X-133092200Y-313583400I103184J2842928D01*
G01*
X-130069600Y-316453600D02*
G75*
G02X-123925412Y-322824806I-231212J-6371206D01*
G01*
X-123973600Y-415767600D02*
X-123973600Y-422041400D01*
X-123973600Y-416301000D02*
G75*
G02X-130344806Y-422445188I-6371206J231212D01*
G01*
X-283307800Y-422447800D02*
G75*
G02X-289451988Y-416076594I231212J6371206D01*
G01*
X-289454600Y-415767600D02*
X-289454600Y-422270000D01*
X-289429200Y-416275600D02*
G75*
G02X-295800406Y-422419788I-6371206J231212D01*
G01*
X-391969000Y-414065800D02*
X-391969000Y-416580400D01*
X-386076200Y-422422400D02*
X-383561600Y-422422400D01*
X-385850212Y-422469006D02*
G75*
G02X-391994400Y-416097800I231212J6371206D01*
G01*
X-391918200Y-105024000D02*
G75*
G02X-385546994Y-98879812I6371206J-231212D01*
G01*
X-391588000Y-98877200D02*
X-384450600Y-98877200D01*
X-385774012Y-98822206D02*
G75*
G02X-391918200Y-92451000I231212J6371206D01*
G01*
X-384476000Y-247848200D02*
X-391765800Y-247848200D01*
X-296795200Y-247848200D02*
X-293874200Y-247848200D01*
X-284273000Y-238602600D02*
X-280259800Y-238602600D01*
X-280717000Y-244241400D02*
X-282926800Y-244241400D01*
X-150364200Y-254731600D02*
X-150364200Y-245257400D01*
X-133066800Y-315691600D02*
X-133066800Y-306217400D01*
X-123973600Y-328086800D02*
X-123973600Y-316758400D01*
X-150338800Y-316199600D02*
X-150338800Y-306522200D01*
X-209546200Y-254249000D02*
X-209546200Y-244825600D01*
X-209927200Y-244724000D02*
X-204186800Y-244724000D01*
X-220392000Y-244216000D02*
X-206269600Y-244216000D01*
X-209139800Y-268600000D02*
X-204593200Y-268600000D01*
X-133041400Y-301086600D02*
X-133041400Y-282620800D01*
X-150338800Y-282925600D02*
X-150338800Y-301391400D01*
X-150364200Y-277794800D02*
X-150364200Y-259862400D01*
X-199462400Y-268600000D02*
X-166163000Y-268600000D01*
X-166137600Y-292476000D02*
X-199437000Y-292476000D01*
X-209546200Y-278125000D02*
X-209546200Y-259354400D01*
X-209546200Y-283255800D02*
X-209546200Y-302051800D01*
X-85822800Y-268574600D02*
X-118792000Y-268574600D01*
X-83943200Y-292552200D02*
X-117242600Y-292552200D01*
X-73859400Y-301772400D02*
X-73859400Y-283001800D01*
X-78812400Y-316428200D02*
X-65452000Y-316428200D01*
X-83943200Y-316402800D02*
X-117242600Y-316402800D01*
X-150694400Y-244698600D02*
X-160956000Y-244698600D01*
X-199056000Y-244724000D02*
X-166086800Y-244724000D01*
X-289099000Y-261665800D02*
X-289099000Y-304769600D01*
X-337562200Y-319882600D02*
X-301926000Y-319882600D01*
X-342667600Y-319882600D02*
X-379345200Y-319882600D01*
X-289454600Y-368853800D02*
X-289454600Y-333217600D01*
X-289454600Y-373984600D02*
X-289454600Y-410636800D01*
X-21357600Y-316428200D02*
X-30019000Y-316428200D01*
X-60346600Y-316428200D02*
X-35149800Y-316428200D01*
X-123973600Y-368853800D02*
X-123973600Y-333217600D01*
X-123973600Y-373984600D02*
X-123973600Y-410636800D01*
X-122373400Y-316428200D02*
X-160981400Y-316428200D01*
X-199411600Y-316402800D02*
X-166112200Y-316402800D01*
X-204542400Y-316428200D02*
X-218436200Y-316428200D01*
X-276018000Y-316428200D02*
X-223567000Y-316428200D01*
X-225497400Y-244241400D02*
X-275586200Y-244241400D01*
X-301926000Y-247848200D02*
X-337562200Y-247848200D01*
X-379345200Y-247848200D02*
X-342693000Y-247848200D01*
X-350947000Y-145181400D02*
X-301926000Y-145181400D01*
X-356077800Y-145181400D02*
X-379345200Y-145181400D01*
X-337562200Y-98877200D02*
X-301926000Y-98877200D01*
X-342693000Y-98877200D02*
X-379345200Y-98877200D01*
X-391969000Y-6980000D02*
X-391969000Y-2916000D01*
X-385288800Y3738800D02*
X-384272800Y3738800D01*
X-391887865Y-2835106D02*
G75*
G02X-385593600Y3713400I6294265J249306D01*
G01*
X-337232000Y3738800D02*
X-306802800Y3738800D01*
X-342362800Y3738800D02*
X-379142000Y3738800D01*
X-391969000Y-12110800D02*
X-391969000Y-42540000D01*
X-391969000Y-84450000D02*
X-391969000Y-47670800D01*
X-391969000Y-89580800D02*
X-391969000Y-118867000D01*
X-391969000Y-155570000D02*
X-391969000Y-123997800D01*
X-391969000Y-160700800D02*
X-391969000Y-191130000D01*
X-391969000Y-233040000D02*
X-391969000Y-196260800D01*
X-391969000Y-238170800D02*
X-391969000Y-260345000D01*
X-391969000Y-302255000D02*
X-391969000Y-265475800D01*
X-391969000Y-307385800D02*
X-391969000Y-331465000D01*
X-391969000Y-367025000D02*
X-391969000Y-336595800D01*
X-391969000Y-372155800D02*
X-391969000Y-408935000D01*
X-348001600Y-422447800D02*
X-378430800Y-422447800D01*
X-342870800Y-422447800D02*
X-306091600Y-422447800D01*
X-280971000Y-422447800D02*
X-300960800Y-422447800D01*
X-275840200Y-422447800D02*
X-226056200Y-422447800D01*
X-185416200Y-422447800D02*
X-220925400Y-422447800D01*
X-180285400Y-422447800D02*
X-138680200Y-422447800D01*
X-113458000Y-422447800D02*
X-133549400Y-422447800D01*
X-108327200Y-422422400D02*
X-78736200Y-422422400D01*
X-36826200Y-422422400D02*
X-73605400Y-422422400D01*
X-31695400Y-422422400D02*
X-21306800Y-422422400D01*
X-21306800Y-422422400D02*
X-21306800Y-414904000D01*
X-21306800Y-374264000D02*
X-21306800Y-409773200D01*
X-21306800Y-369133200D02*
X-21306800Y-333116000D01*
X-21306800Y-327985200D02*
X-21306800Y-308224000D01*
X-21306800Y-279268000D02*
X-21306800Y-303093200D01*
X-21306800Y-274137200D02*
X-21306800Y-257424000D01*
X-21306800Y-221229000D02*
X-21306800Y-252293200D01*
X-21306800Y-216098200D02*
X-21306800Y-187828000D01*
X-30019000Y-263342200D02*
X-21306800Y-263342200D01*
X-35149800Y-263342200D02*
X-60346600Y-263342200D01*
X-80641200Y-263316800D02*
X-65477400Y-263316800D01*
X-85772000Y-263342200D02*
X-118741200Y-263342200D01*
X-137892800Y-263342200D02*
X-123872000Y-263342200D01*
X-137892800Y-220644800D02*
X-137892800Y-263342200D01*
X-137892800Y-215514000D02*
X-137892800Y-187751800D01*
X-192579000Y-238602600D02*
X-150973800Y-238602600D01*
X-197709800Y-238602600D02*
X-233219000Y-238602600D01*
X-275129000Y-238602600D02*
X-238349800Y-238602600D01*
X-289099000Y-250947000D02*
X-289099000Y-256535000D01*
X-289327600Y-224785000D02*
X-289327600Y-199816800D01*
X-289327600Y-159049800D02*
X-289327600Y-194686000D01*
X-289327600Y-153919000D02*
X-289302200Y-124251800D01*
X-289302200Y-91308000D02*
X-289302200Y-119121000D01*
X-289302200Y-86177200D02*
X-289302200Y-49525000D01*
X-289302200Y-8758000D02*
X-289302200Y-44394200D01*
X-289302200Y2951400D02*
X-289302200Y-3652600D01*
X-295929920Y3733805D02*
G75*
G02X-289302200Y-2636600I252320J-6370405D01*
G01*
X-289298021Y-1857106D02*
G75*
G02X-283968200Y3688000I5329821J211106D01*
G01*
X-301672000Y3738800D02*
X-282418800Y3738800D01*
X-235682800Y3738800D02*
X-277288000Y3738800D01*
X-230552000Y3738800D02*
X-195042800Y3738800D01*
X-153132800Y3738800D02*
X-189912000Y3738800D01*
X-31390600Y-85008800D02*
X-21332200Y-85008800D01*
X-36521400Y-85008800D02*
X-76958200Y-85008800D01*
X-82063600Y-85034200D02*
X-122856000Y-85034200D01*
X-127986800Y-85008800D02*
X-137816600Y-85008800D01*
X-21306800Y-36774200D02*
X-21306800Y-8504000D01*
X-21306800Y-72969200D02*
X-21306800Y-41905000D01*
X-21306800Y-93289200D02*
X-21306800Y-78100000D01*
X-21306800Y-126690200D02*
X-21306800Y-98420000D01*
X-21306800Y-162885200D02*
X-21306800Y-131821000D01*
X-21306800Y-182697200D02*
X-21306800Y-168016000D01*
X-31390600Y-174162800D02*
X-21306800Y-174162800D01*
X-76958200Y-174162800D02*
X-36521400Y-174162800D01*
X-122856000Y-174162800D02*
X-82063600Y-174162800D01*
X-137842000Y-174188200D02*
X-127986800Y-174188200D01*
X-137892800Y-167558800D02*
X-137892800Y-182621000D01*
X-137892800Y-131490800D02*
X-137892800Y-162428000D01*
X-137892800Y-98597800D02*
X-137892800Y-126360000D01*
X-137892800Y-77769800D02*
X-137892800Y-93467000D01*
X-21306800Y-3373200D02*
X-21306800Y3738800D01*
X-21306800Y3738800D02*
X-32432000Y3738800D01*
X-137892800Y3738800D02*
X-137892800Y-3678000D01*
X-137892800Y-41701800D02*
X-137892800Y-72639000D01*
X-137892800Y-8808800D02*
X-137892800Y-36571000D01*
X-143488706Y3760021D02*
G75*
G02X-137943600Y-1569800I211106J-5329821D01*
G01*
X-115032800Y3738800D02*
X-148002000Y3738800D01*
X-37562800Y3738800D02*
X-67992000Y3738800D01*
X-73122800Y3738800D02*
X-109775000Y3738800D01*
X-150364200Y-259862400D02*
X-150364200Y-260532400D01*
X-150364200Y-254738400D02*
X-150364200Y-254068400D01*
X-150338800Y-277801600D02*
X-150338800Y-277131600D01*
X-150338800Y-282925600D02*
X-150338800Y-283595600D01*
X-150338800Y-306522200D02*
X-150338800Y-307192200D01*
X-150338800Y-301398200D02*
X-150338800Y-300728200D01*
X-133041400Y-282614000D02*
X-133041400Y-283284000D01*
X-133041400Y-277490000D02*
X-133041400Y-276820000D01*
X-133066800Y-301086600D02*
X-133066800Y-300416600D01*
X-133066800Y-306210600D02*
X-133066800Y-306880600D01*
X-118748000Y-263342200D02*
X-118078000Y-263342200D01*
X-123872000Y-263342200D02*
X-124542000Y-263342200D01*
X-85772000Y-263316800D02*
X-86442000Y-263316800D01*
X-80648000Y-263316800D02*
X-79978000Y-263316800D01*
X-80692000Y-268574600D02*
X-80022000Y-268574600D01*
X-85816000Y-268574600D02*
X-86486000Y-268574600D01*
X-123916000Y-268600000D02*
X-124586000Y-268600000D01*
X-118792000Y-268600000D02*
X-118122000Y-268600000D01*
X-199056000Y-244724000D02*
X-198386000Y-244724000D01*
X-204180000Y-244724000D02*
X-204850000Y-244724000D01*
X-166080000Y-244698600D02*
X-166750000Y-244698600D01*
X-160956000Y-244698600D02*
X-160286000Y-244698600D01*
X-220392000Y-244216000D02*
X-219722000Y-244216000D01*
X-225516000Y-244216000D02*
X-226186000Y-244216000D01*
X-280710200Y-244241400D02*
X-281380200Y-244241400D01*
X-275586200Y-244241400D02*
X-274916200Y-244241400D01*
X-21306800Y-274144000D02*
X-21306800Y-273474000D01*
X-21306800Y-279268000D02*
X-21306800Y-279938000D01*
X-21306800Y-308224000D02*
X-21306800Y-308894000D01*
X-21306800Y-303100000D02*
X-21306800Y-302430000D01*
X-21306800Y-369140000D02*
X-21306800Y-368470000D01*
X-21306800Y-374264000D02*
X-21306800Y-374934000D01*
X-21306800Y-414904000D02*
X-21306800Y-415574000D01*
X-21306800Y-409780000D02*
X-21306800Y-409110000D01*
X-21306800Y-333116000D02*
X-21306800Y-333786000D01*
X-21306800Y-327992000D02*
X-21306800Y-327322000D01*
X-21306800Y-221229000D02*
X-21306800Y-221899000D01*
X-21306800Y-216105000D02*
X-21306800Y-215435000D01*
X-21306800Y-252300000D02*
X-21306800Y-251630000D01*
X-21306800Y-257424000D02*
X-21306800Y-258094000D01*
X-21306800Y-182704000D02*
X-21306800Y-182034000D01*
X-21306800Y-187828000D02*
X-21306800Y-188498000D01*
X-21306800Y-168016000D02*
X-21306800Y-168686000D01*
X-21306800Y-162892000D02*
X-21306800Y-162222000D01*
X-21306800Y-126697000D02*
X-21306800Y-126027000D01*
X-21306800Y-131821000D02*
X-21306800Y-132491000D01*
X-21306800Y-98420000D02*
X-21306800Y-99090000D01*
X-21306800Y-93296000D02*
X-21306800Y-92626000D01*
X-21306800Y-41905000D02*
X-21306800Y-42575000D01*
X-21306800Y-36781000D02*
X-21306800Y-36111000D01*
X-21306800Y-72976000D02*
X-21306800Y-72306000D01*
X-21306800Y-78100000D02*
X-21306800Y-78770000D01*
X-21306800Y-3380000D02*
X-21306800Y-2710000D01*
X-21306800Y-8504000D02*
X-21306800Y-9174000D01*
X-391969000Y-118867000D02*
X-391969000Y-118197000D01*
X-391969000Y-123991000D02*
X-391969000Y-124661000D01*
X-391969000Y-265469000D02*
X-391969000Y-266139000D01*
X-391969000Y-260345000D02*
X-391969000Y-259675000D01*
X-391969000Y-302255000D02*
X-391969000Y-301585000D01*
X-391969000Y-307379000D02*
X-391969000Y-308049000D01*
X-391969000Y-331465000D02*
X-391969000Y-330795000D01*
X-391969000Y-336589000D02*
X-391969000Y-337259000D01*
X-391969000Y-372149000D02*
X-391969000Y-372819000D01*
X-391969000Y-367025000D02*
X-391969000Y-366355000D01*
X-391969000Y-408935000D02*
X-391969000Y-408265000D01*
X-391969000Y-414059000D02*
X-391969000Y-414729000D01*
X-391969000Y-238164000D02*
X-391969000Y-238834000D01*
X-391969000Y-233040000D02*
X-391969000Y-232370000D01*
X-391969000Y-191130000D02*
X-391969000Y-190460000D01*
X-391969000Y-196254000D02*
X-391969000Y-196924000D01*
X-391969000Y-160694000D02*
X-391969000Y-161364000D01*
X-391969000Y-155570000D02*
X-391969000Y-154900000D01*
X-391969000Y-84450000D02*
X-391969000Y-83780000D01*
X-391969000Y-89574000D02*
X-391969000Y-90244000D01*
X-391969000Y-6980000D02*
X-391969000Y-6310000D01*
X-391969000Y-12104000D02*
X-391969000Y-12774000D01*
X-391969000Y-47664000D02*
X-391969000Y-48334000D01*
X-391969000Y-42540000D02*
X-391969000Y-41870000D01*
X-275135800Y-238602600D02*
X-274465800Y-238602600D01*
X-280259800Y-238602600D02*
X-280929800Y-238602600D01*
X-150973800Y-238602600D02*
X-151643800Y-238602600D01*
X-145849800Y-238602600D02*
X-145179800Y-238602600D01*
X-238349800Y-238602600D02*
X-239019800Y-238602600D01*
X-233225800Y-238602600D02*
X-232555800Y-238602600D01*
X-192585800Y-238602600D02*
X-191915800Y-238602600D01*
X-197709800Y-238602600D02*
X-198379800Y-238602600D01*
X-108334000Y-422447800D02*
X-107664000Y-422447800D01*
X-113458000Y-422447800D02*
X-114128000Y-422447800D01*
X-275847000Y-422447800D02*
X-275177000Y-422447800D01*
X-280971000Y-422447800D02*
X-281641000Y-422447800D01*
X-378437600Y-422422400D02*
X-377767600Y-422422400D01*
X-383561600Y-422422400D02*
X-384231600Y-422422400D01*
X-300967600Y-422447800D02*
X-300297600Y-422447800D01*
X-306091600Y-422447800D02*
X-306761600Y-422447800D01*
X-36826200Y-422422400D02*
X-37496200Y-422422400D01*
X-31702200Y-422422400D02*
X-31032200Y-422422400D01*
X-138680200Y-422447800D02*
X-139350200Y-422447800D01*
X-133556200Y-422447800D02*
X-132886200Y-422447800D01*
X-226056200Y-422447800D02*
X-226726200Y-422447800D01*
X-220932200Y-422447800D02*
X-220262200Y-422447800D01*
X-348001600Y-422447800D02*
X-348671600Y-422447800D01*
X-342877600Y-422447800D02*
X-342207600Y-422447800D01*
X-73612200Y-422422400D02*
X-72942200Y-422422400D01*
X-78736200Y-422422400D02*
X-79406200Y-422422400D01*
X-180292200Y-422447800D02*
X-179622200Y-422447800D01*
X-185416200Y-422447800D02*
X-186086200Y-422447800D01*
X-109902000Y3738800D02*
X-109232000Y3738800D01*
X-115026000Y3738800D02*
X-115696000Y3738800D01*
X-32432000Y3738800D02*
X-31762000Y3738800D01*
X-37556000Y3738800D02*
X-38226000Y3738800D01*
X-73116000Y3738800D02*
X-73786000Y3738800D01*
X-67992000Y3738800D02*
X-67322000Y3738800D01*
X-384266000Y3738800D02*
X-384936000Y3738800D01*
X-379142000Y3738800D02*
X-378472000Y3738800D01*
X-337232000Y3738800D02*
X-336562000Y3738800D01*
X-342356000Y3738800D02*
X-343026000Y3738800D01*
X-306796000Y3738800D02*
X-307466000Y3738800D01*
X-301672000Y3738800D02*
X-301002000Y3738800D01*
X-230552000Y3738800D02*
X-229882000Y3738800D01*
X-235676000Y3738800D02*
X-236346000Y3738800D01*
X-195036000Y3738800D02*
X-195706000Y3738800D01*
X-189912000Y3738800D02*
X-189242000Y3738800D01*
X-148002000Y3738800D02*
X-147332000Y3738800D01*
X-153126000Y3738800D02*
X-153796000Y3738800D01*
X-282412000Y3738800D02*
X-283082000Y3738800D01*
X-277288000Y3738800D02*
X-276618000Y3738800D01*
X-166116000Y-316433200D02*
X-166786000Y-316433200D01*
X-160992000Y-316433200D02*
X-160322000Y-316433200D01*
X-199422200Y-316407800D02*
X-198752200Y-316407800D01*
X-204546200Y-316407800D02*
X-205216200Y-316407800D01*
X-209550000Y-302038200D02*
X-209550000Y-301368200D01*
X-209550000Y-307162200D02*
X-209550000Y-307832200D01*
X-161017400Y-292506400D02*
X-160347400Y-292506400D01*
X-166141400Y-292506400D02*
X-166811400Y-292506400D01*
X-204571600Y-292481000D02*
X-205241600Y-292481000D01*
X-199447600Y-292481000D02*
X-198777600Y-292481000D01*
X-209550000Y-254235400D02*
X-209550000Y-253565400D01*
X-209550000Y-259359400D02*
X-209550000Y-260029400D01*
X-166166800Y-268630400D02*
X-166836800Y-268630400D01*
X-161042800Y-268630400D02*
X-160372800Y-268630400D01*
X-199473000Y-268605000D02*
X-198803000Y-268605000D01*
X-204597000Y-268605000D02*
X-205267000Y-268605000D01*
X-209550000Y-283260800D02*
X-209550000Y-283930800D01*
X-209550000Y-278136800D02*
X-209550000Y-277466800D01*
X-78816200Y-292531800D02*
X-78146200Y-292531800D01*
X-83940200Y-292531800D02*
X-84610200Y-292531800D01*
X-73863200Y-283000000D02*
X-73863200Y-283670000D01*
X-73863200Y-277876000D02*
X-73863200Y-277206000D01*
X-122370400Y-292506400D02*
X-123040400Y-292506400D01*
X-117246400Y-292506400D02*
X-116576400Y-292506400D01*
X-73863200Y-301777400D02*
X-73863200Y-301107400D01*
X-73863200Y-306901400D02*
X-73863200Y-307571400D01*
X-117246400Y-316407800D02*
X-116576400Y-316407800D01*
X-122370400Y-316407800D02*
X-123040400Y-316407800D01*
X-83940200Y-316433200D02*
X-84610200Y-316433200D01*
X-78816200Y-316433200D02*
X-78146200Y-316433200D01*
X-289102800Y-261664000D02*
X-289102800Y-262334000D01*
X-289102800Y-256540000D02*
X-289102800Y-255870000D01*
X-289102800Y-304800000D02*
X-289102800Y-304130000D01*
X-289102800Y-309924000D02*
X-289102800Y-310594000D01*
X-281139374Y-316433200D02*
X-281809374Y-316433200D01*
X-276015374Y-316433200D02*
X-275345374Y-316433200D01*
X-218440000Y-316433200D02*
X-217770000Y-316433200D01*
X-223564000Y-316433200D02*
X-224234000Y-316433200D01*
X-35146800Y-316433200D02*
X-35816800Y-316433200D01*
X-30022800Y-316433200D02*
X-29352800Y-316433200D01*
X-60350400Y-316433200D02*
X-59680400Y-316433200D01*
X-65474400Y-316433200D02*
X-66144400Y-316433200D01*
X-65474400Y-263347200D02*
X-66144400Y-263347200D01*
X-60350400Y-263347200D02*
X-59680400Y-263347200D01*
X-30022800Y-263347200D02*
X-29352800Y-263347200D01*
X-35146800Y-263347200D02*
X-35816800Y-263347200D01*
X-123975240Y-333209374D02*
X-123975240Y-333879374D01*
X-123975240Y-328085374D02*
X-123975240Y-327415374D01*
X-123975240Y-410635374D02*
X-123975240Y-409965374D01*
X-123975240Y-415759374D02*
X-123975240Y-416429374D01*
X-123975240Y-373976374D02*
X-123975240Y-374646374D01*
X-123975240Y-368852374D02*
X-123975240Y-368182374D01*
X-137896600Y-215519000D02*
X-137896600Y-214849000D01*
X-137896600Y-220643000D02*
X-137896600Y-221313000D01*
X-137896600Y-182626000D02*
X-137896600Y-181956000D01*
X-137896600Y-187750000D02*
X-137896600Y-188420000D01*
X-76943400Y-174167800D02*
X-76273400Y-174167800D01*
X-82067400Y-174167800D02*
X-82737400Y-174167800D01*
X-122866600Y-174167800D02*
X-122196600Y-174167800D01*
X-127990600Y-174167800D02*
X-128660600Y-174167800D01*
X-36525200Y-174167800D02*
X-37195200Y-174167800D01*
X-31401200Y-174167800D02*
X-30731200Y-174167800D01*
X-82067400Y-85013800D02*
X-82737400Y-85013800D01*
X-76943400Y-85013800D02*
X-76273400Y-85013800D01*
X-31401200Y-85013800D02*
X-30731200Y-85013800D01*
X-36525200Y-85013800D02*
X-37195200Y-85013800D01*
X-127990600Y-85013800D02*
X-128660600Y-85013800D01*
X-122866600Y-85013800D02*
X-122196600Y-85013800D01*
X-137896600Y-162433000D02*
X-137896600Y-161763000D01*
X-137896600Y-167557000D02*
X-137896600Y-168227000D01*
X-137896600Y-131489000D02*
X-137896600Y-132159000D01*
X-137896600Y-126365000D02*
X-137896600Y-125695000D01*
X-137896600Y-98596000D02*
X-137896600Y-99266000D01*
X-137896600Y-93472000D02*
X-137896600Y-92802000D01*
X-137896600Y-3683000D02*
X-137896600Y-3013000D01*
X-137896600Y-8807000D02*
X-137896600Y-9477000D01*
X-137896600Y-77768000D02*
X-137896600Y-78438000D01*
X-137896600Y-72644000D02*
X-137896600Y-71974000D01*
X-137896600Y-36576000D02*
X-137896600Y-35906000D01*
X-137896600Y-41700000D02*
X-137896600Y-42370000D01*
X-289456240Y-415759374D02*
X-289456240Y-416429374D01*
X-289456240Y-410635374D02*
X-289456240Y-409965374D01*
X-289456240Y-368852374D02*
X-289456240Y-368182374D01*
X-289456240Y-373976374D02*
X-289456240Y-374646374D01*
X-289456240Y-328085374D02*
X-289456240Y-327415374D01*
X-289456240Y-333209374D02*
X-289456240Y-333879374D01*
X-289324974Y-153926160D02*
X-289324974Y-153256160D01*
X-289324974Y-159050160D02*
X-289324974Y-159720160D01*
X-289331400Y-229914000D02*
X-289331400Y-230584000D01*
X-289331400Y-224790000D02*
X-289331400Y-224120000D01*
X-289324974Y-194693160D02*
X-289324974Y-194023160D01*
X-289324974Y-199817160D02*
X-289324974Y-200487160D01*
X-289306000Y-124250000D02*
X-289306000Y-124920000D01*
X-289306000Y-119126000D02*
X-289306000Y-118456000D01*
X-289299574Y-8758360D02*
X-289299574Y-9428360D01*
X-289299574Y-3634360D02*
X-289299574Y-2964360D01*
X-289299574Y-86184360D02*
X-289299574Y-85514360D01*
X-289299574Y-91308360D02*
X-289299574Y-91978360D01*
X-289299574Y-49525360D02*
X-289299574Y-50195360D01*
X-289299574Y-44401360D02*
X-289299574Y-43731360D01*
X-379342574Y-319889760D02*
X-378672574Y-319889760D01*
X-384466574Y-319889760D02*
X-385136574Y-319889760D01*
X-301916574Y-319889760D02*
X-302586574Y-319889760D01*
X-296792574Y-319889760D02*
X-296122574Y-319889760D01*
X-342683574Y-319889760D02*
X-343353574Y-319889760D01*
X-337559574Y-319889760D02*
X-336889574Y-319889760D01*
X-337559574Y-247855360D02*
X-336889574Y-247855360D01*
X-342683574Y-247855360D02*
X-343353574Y-247855360D01*
X-296792574Y-247855360D02*
X-296122574Y-247855360D01*
X-301916574Y-247855360D02*
X-302586574Y-247855360D01*
X-384466574Y-247855360D02*
X-385136574Y-247855360D01*
X-379342574Y-247855360D02*
X-378672574Y-247855360D01*
X-301916574Y-145175860D02*
X-302586574Y-145175860D01*
X-296792574Y-145175860D02*
X-296122574Y-145175860D01*
X-379342574Y-145175860D02*
X-378672574Y-145175860D01*
X-384466574Y-145175860D02*
X-385136574Y-145175860D01*
X-356071000Y-145175860D02*
X-356741000Y-145175860D01*
X-350947000Y-145175860D02*
X-350277000Y-145175860D01*
X-337559574Y-98884360D02*
X-336889574Y-98884360D01*
X-342683574Y-98884360D02*
X-343353574Y-98884360D01*
X-296792574Y-98884360D02*
X-296122574Y-98884360D01*
X-301916574Y-98884360D02*
X-302586574Y-98884360D01*
X-384466574Y-98884360D02*
X-385136574Y-98884360D01*
X-379342574Y-98884360D02*
X-378672574Y-98884360D01*
M02*
