M48
; DRILL file {KiCad (5.1.5)-3} date 11/2/2020 4:30:41 PM
; FORMAT={-:-/ absolute / inch / decimal}
; #@! TF.CreationDate,2020-11-02T16:30:41-03:00
; #@! TF.GenerationSoftware,Kicad,Pcbnew,(5.1.5)-3
; #@! TF.FileFunction,NonPlated,1,2,NPTH
FMAT,2
INCH
T1C0.0197
T2C0.0394
T3C0.0866
T4C0.1181
T5C0.1260
T6C0.1378
%
G90
G05
T1
X-4.4869Y0.0922
X-4.4569Y0.0922
X-4.4269Y0.0922
X-4.3969Y0.0922
X-4.3669Y0.0922
X-7.7439Y-9.3388
X-7.7139Y-9.3388
X-7.6839Y-9.3388
X-7.6539Y-9.3388
X-7.6239Y-9.3388
X-2.8369Y0.0922
X-2.8069Y0.0922
X-2.7769Y0.0922
X-2.7469Y0.0922
X-2.7169Y0.0922
X-8.76Y-12.403
X-8.76Y-12.513
X-8.73Y-12.403
X-8.73Y-12.513
X-8.7Y-12.403
X-8.7Y-12.513
X-8.67Y-12.403
X-8.67Y-12.513
X-8.64Y-12.403
X-8.64Y-12.513
X-0.8939Y-10.8348
X-0.8939Y-10.8648
X-0.8939Y-10.8948
X-0.8939Y-10.9248
X-0.8939Y-10.9548
X-3.191Y-3.292
X-3.191Y-3.402
X-3.161Y-3.292
X-3.161Y-3.402
X-3.131Y-3.292
X-3.131Y-3.402
X-3.101Y-3.292
X-3.101Y-3.402
X-3.071Y-3.292
X-3.071Y-3.402
X-4.8369Y-10.6298
X-4.8069Y-10.6298
X-4.7769Y-10.6298
X-4.7469Y-10.6298
X-4.7169Y-10.6298
X-9.2369Y0.0922
X-9.2069Y0.0922
X-9.1769Y0.0922
X-9.1469Y0.0922
X-9.1169Y0.0922
X-13.4497Y-9.7031
X-13.4497Y-9.8131
X-13.4197Y-9.7031
X-13.4197Y-9.8131
X-13.3897Y-9.7031
X-13.3897Y-9.8131
X-13.3597Y-9.7031
X-13.3597Y-9.8131
X-13.3297Y-9.7031
X-13.3297Y-9.8131
X-8.305Y-10.992
X-8.305Y-11.022
X-8.305Y-11.052
X-8.305Y-11.082
X-8.305Y-11.112
X-8.195Y-10.992
X-8.195Y-11.022
X-8.195Y-11.052
X-8.195Y-11.082
X-8.195Y-11.112
X-13.9768Y-5.6606
X-13.9768Y-5.7706
X-13.9468Y-5.6606
X-13.9468Y-5.7706
X-13.9168Y-5.6606
X-13.9168Y-5.7706
X-13.8868Y-5.6606
X-13.8868Y-5.7706
X-13.8568Y-5.6606
X-13.8568Y-5.7706
X-6.5Y-12.403
X-6.5Y-12.513
X-6.47Y-12.403
X-6.47Y-12.513
X-6.44Y-12.403
X-6.44Y-12.513
X-6.41Y-12.403
X-6.41Y-12.513
X-6.38Y-12.403
X-6.38Y-12.513
X-15.3769Y-13.0898
X-15.3769Y-13.1198
X-15.3769Y-13.1498
X-15.3769Y-13.1798
X-15.3769Y-13.2098
X-5.484Y-5.015
X-5.484Y-5.045
X-5.484Y-5.075
X-5.484Y-5.105
X-5.484Y-5.135
X-5.374Y-5.015
X-5.374Y-5.045
X-5.374Y-5.075
X-5.374Y-5.105
X-5.374Y-5.135
X-15.3769Y-0.3148
X-15.3769Y-0.3448
X-15.3769Y-0.3748
X-15.3769Y-0.4048
X-15.3769Y-0.4348
X-11.4509Y-12.9567
X-11.4509Y-12.9867
X-11.4509Y-13.0167
X-11.4509Y-13.0467
X-11.4509Y-13.0767
X-11.3409Y-12.9567
X-11.3409Y-12.9867
X-11.3409Y-13.0167
X-11.3409Y-13.0467
X-11.3409Y-13.0767
X-5.9749Y-10.0708
X-5.9749Y-10.1008
X-5.9749Y-10.1308
X-5.9749Y-10.1608
X-5.9749Y-10.1908
X-7.2599Y-16.5768
X-7.2299Y-16.5768
X-7.1999Y-16.5768
X-7.1699Y-16.5768
X-7.1399Y-16.5768
X-12.0369Y0.0922
X-12.0069Y0.0922
X-11.9769Y0.0922
X-11.9469Y0.0922
X-11.9169Y0.0922
X-3.0599Y-16.5758
X-3.0299Y-16.5758
X-2.9999Y-16.5758
X-2.9699Y-16.5758
X-2.9399Y-16.5758
X-1.398Y-6.802
X-1.398Y-6.912
X-1.368Y-6.802
X-1.368Y-6.912
X-1.338Y-6.802
X-1.338Y-6.912
X-1.308Y-6.802
X-1.308Y-6.912
X-1.278Y-6.802
X-1.278Y-6.912
X-0.8939Y-7.2348
X-0.8939Y-7.2648
X-0.8939Y-7.2948
X-0.8939Y-7.3248
X-0.8939Y-7.3548
X-11.0267Y-12.403
X-11.0267Y-12.513
X-10.9967Y-12.403
X-10.9967Y-12.513
X-10.9667Y-12.403
X-10.9667Y-12.513
X-10.9367Y-12.403
X-10.9367Y-12.513
X-10.9067Y-12.403
X-10.9067Y-12.513
X-0.8939Y-11.9748
X-0.8939Y-12.0048
X-0.8939Y-12.0348
X-0.8939Y-12.0648
X-0.8939Y-12.0948
X-4.999Y-6.802
X-4.999Y-6.912
X-4.969Y-6.802
X-4.969Y-6.912
X-4.939Y-6.802
X-4.939Y-6.912
X-4.909Y-6.802
X-4.909Y-6.912
X-4.879Y-6.802
X-4.879Y-6.912
X-0.8939Y-14.5748
X-0.8939Y-14.6048
X-0.8939Y-14.6348
X-0.8939Y-14.6648
X-0.8939Y-14.6948
X-13.4497Y-3.8381
X-13.4497Y-3.9481
X-13.4197Y-3.8381
X-13.4197Y-3.9481
X-13.3897Y-3.8381
X-13.3897Y-3.9481
X-13.3597Y-3.8381
X-13.3597Y-3.9481
X-13.3297Y-3.8381
X-13.3297Y-3.9481
X-8.013Y-12.402
X-8.013Y-12.512
X-7.983Y-12.402
X-7.983Y-12.512
X-7.953Y-12.402
X-7.953Y-12.512
X-7.923Y-12.402
X-7.923Y-12.512
X-7.893Y-12.402
X-7.893Y-12.512
X-15.0947Y-9.7031
X-15.0947Y-9.8131
X-15.0647Y-9.7031
X-15.0647Y-9.8131
X-15.0347Y-9.7031
X-15.0347Y-9.8131
X-15.0047Y-9.7031
X-15.0047Y-9.8131
X-14.9747Y-9.7031
X-14.9747Y-9.8131
X-2.963Y-10.98
X-2.963Y-11.01
X-2.963Y-11.04
X-2.963Y-11.07
X-2.963Y-11.1
X-2.853Y-10.98
X-2.853Y-11.01
X-2.853Y-11.04
X-2.853Y-11.07
X-2.853Y-11.1
X-15.0947Y-12.5391
X-15.0947Y-12.6491
X-15.0647Y-12.5391
X-15.0647Y-12.6491
X-15.0347Y-12.5391
X-15.0347Y-12.6491
X-15.0047Y-12.5391
X-15.0047Y-12.6491
X-14.9747Y-12.5391
X-14.9747Y-12.6491
X-11.0769Y0.0922
X-11.0469Y0.0922
X-11.0169Y0.0922
X-10.9869Y0.0922
X-10.9569Y0.0922
X-4.999Y-3.292
X-4.999Y-3.402
X-4.969Y-3.292
X-4.969Y-3.402
X-4.939Y-3.292
X-4.939Y-3.402
X-4.909Y-3.292
X-4.909Y-3.402
X-4.879Y-3.292
X-4.879Y-3.402
X-15.3769Y-11.9398
X-15.3769Y-11.9698
X-15.3769Y-11.9998
X-15.3769Y-12.0298
X-15.3769Y-12.0598
X-11.4457Y-6.1001
X-11.4457Y-6.1301
X-11.4457Y-6.1601
X-11.4457Y-6.1901
X-11.4457Y-6.2201
X-11.3357Y-6.1001
X-11.3357Y-6.1301
X-11.3357Y-6.1601
X-11.3357Y-6.1901
X-11.3357Y-6.2201
X-15.3769Y-6.1648
X-15.3769Y-6.1948
X-15.3769Y-6.2248
X-15.3769Y-6.2548
X-15.3769Y-6.2848
X-5.484Y-0.185
X-5.484Y-0.215
X-5.484Y-0.245
X-5.484Y-0.275
X-5.484Y-0.305
X-5.374Y-0.185
X-5.374Y-0.215
X-5.374Y-0.245
X-5.374Y-0.275
X-5.374Y-0.305
X-5.9739Y-10.9788
X-5.9739Y-11.0088
X-5.9739Y-11.0388
X-5.9739Y-11.0688
X-5.9739Y-11.0988
X-15.0609Y-16.5758
X-15.0309Y-16.5758
X-15.0009Y-16.5758
X-14.9709Y-16.5758
X-14.9409Y-16.5758
X-13.4369Y0.0922
X-13.4069Y0.0922
X-13.3769Y0.0922
X-13.3469Y0.0922
X-13.3169Y0.0922
X-13.6609Y-16.5768
X-13.6309Y-16.5768
X-13.6009Y-16.5768
X-13.5709Y-16.5768
X-13.5409Y-16.5768
X-5.484Y-7.23
X-5.484Y-7.26
X-5.484Y-7.29
X-5.484Y-7.32
X-5.484Y-7.35
X-5.374Y-7.23
X-5.374Y-7.26
X-5.374Y-7.29
X-5.374Y-7.32
X-5.374Y-7.35
X-0.8939Y-8.5498
X-0.8939Y-8.5798
X-0.8939Y-8.6098
X-0.8939Y-8.6398
X-0.8939Y-8.6698
X-11.437Y-12.04
X-11.437Y-12.07
X-11.437Y-12.1
X-11.437Y-12.13
X-11.437Y-12.16
X-11.327Y-12.04
X-11.327Y-12.07
X-11.327Y-12.1
X-11.327Y-12.13
X-11.327Y-12.16
X-0.8939Y-6.4548
X-0.8939Y-6.4848
X-0.8939Y-6.5148
X-0.8939Y-6.5448
X-0.8939Y-6.5748
X-4.9359Y-16.2067
X-4.9359Y-16.2367
X-4.9359Y-16.2667
X-4.9359Y-16.2967
X-4.9359Y-16.3267
X-4.8259Y-16.2067
X-4.8259Y-16.2367
X-4.8259Y-16.2667
X-4.8259Y-16.2967
X-4.8259Y-16.3267
X-0.8939Y-9.9748
X-0.8939Y-10.0048
X-0.8939Y-10.0348
X-0.8939Y-10.0648
X-0.8939Y-10.0948
X-5.9869Y0.0922
X-5.9569Y0.0922
X-5.9269Y0.0922
X-5.8969Y0.0922
X-5.8669Y0.0922
X-3.263Y-11.462
X-3.263Y-11.572
X-3.233Y-11.462
X-3.233Y-11.572
X-3.203Y-11.462
X-3.203Y-11.572
X-3.173Y-11.462
X-3.173Y-11.572
X-3.143Y-11.462
X-3.143Y-11.572
X-8.014Y-11.46
X-8.014Y-11.57
X-7.984Y-11.46
X-7.984Y-11.57
X-7.954Y-11.46
X-7.954Y-11.57
X-7.924Y-11.46
X-7.924Y-11.57
X-7.894Y-11.46
X-7.894Y-11.57
X-11.4447Y-1.7881
X-11.4447Y-1.8181
X-11.4447Y-1.8481
X-11.4447Y-1.8781
X-11.4447Y-1.9081
X-11.3347Y-1.7881
X-11.3347Y-1.8181
X-11.3347Y-1.8481
X-11.3347Y-1.8781
X-11.3347Y-1.9081
X-0.8939Y-3.7148
X-0.8939Y-3.7448
X-0.8939Y-3.7748
X-0.8939Y-3.8048
X-0.8939Y-3.8348
X-11.4447Y-3.4331
X-11.4447Y-3.4631
X-11.4447Y-3.4931
X-11.4447Y-3.5231
X-11.4447Y-3.5531
X-11.3347Y-3.4331
X-11.3347Y-3.4631
X-11.3347Y-3.4931
X-11.3347Y-3.5231
X-11.3347Y-3.5531
X-15.3769Y-9.2148
X-15.3769Y-9.2448
X-15.3769Y-9.2748
X-15.3769Y-9.3048
X-15.3769Y-9.3348
X-5.484Y-1.48
X-5.484Y-1.51
X-5.484Y-1.54
X-5.484Y-1.57
X-5.484Y-1.6
X-5.374Y-1.48
X-5.374Y-1.51
X-5.374Y-1.54
X-5.374Y-1.57
X-5.374Y-1.6
X-5.1839Y-11.8938
X-5.1839Y-11.9238
X-5.1839Y-11.9538
X-5.1839Y-11.9838
X-5.1839Y-12.0138
X-12.0109Y-16.5768
X-11.9809Y-16.5768
X-11.9509Y-16.5768
X-11.9209Y-16.5768
X-11.8909Y-16.5768
X-15.0869Y0.0922
X-15.0569Y0.0922
X-15.0269Y0.0922
X-14.9969Y0.0922
X-14.9669Y0.0922
X-11.437Y-10.14
X-11.437Y-10.17
X-11.437Y-10.2
X-11.437Y-10.23
X-11.437Y-10.26
X-11.327Y-10.14
X-11.327Y-10.17
X-11.327Y-10.2
X-11.327Y-10.23
X-11.327Y-10.26
X-0.8939Y-16.1748
X-0.8939Y-16.2048
X-0.8939Y-16.2348
X-0.8939Y-16.2648
X-0.8939Y-16.2948
X-4.9359Y-14.5617
X-4.9359Y-14.5917
X-4.9359Y-14.6217
X-4.9359Y-14.6517
X-4.9359Y-14.6817
X-4.8259Y-14.5617
X-4.8259Y-14.5917
X-4.8259Y-14.6217
X-4.8259Y-14.6517
X-4.8259Y-14.6817
X-11.0099Y-9.6708
X-10.9799Y-9.6708
X-10.9499Y-9.6708
X-10.9199Y-9.6708
X-10.8899Y-9.6708
X-1.342Y-10.313
X-1.342Y-10.423
X-1.312Y-10.313
X-1.312Y-10.423
X-1.282Y-10.313
X-1.282Y-10.423
X-1.252Y-10.313
X-1.252Y-10.423
X-1.222Y-10.313
X-1.222Y-10.423
X-7.9969Y-9.6898
X-7.9669Y-9.6898
X-7.9369Y-9.6898
X-7.9069Y-9.6898
X-7.8769Y-9.6898
X-15.0947Y-3.8381
X-15.0947Y-3.9481
X-15.0647Y-3.8381
X-15.0647Y-3.9481
X-15.0347Y-3.8381
X-15.0347Y-3.9481
X-15.0047Y-3.8381
X-15.0047Y-3.9481
X-14.9747Y-3.8381
X-14.9747Y-3.9481
X-4.776Y-12.402
X-4.776Y-12.512
X-4.746Y-12.402
X-4.746Y-12.512
X-4.716Y-12.402
X-4.716Y-12.512
X-4.686Y-12.402
X-4.686Y-12.512
X-4.656Y-12.402
X-4.656Y-12.512
X-13.4497Y-12.5391
X-13.4497Y-12.6491
X-13.4197Y-12.5391
X-13.4197Y-12.6491
X-13.3897Y-12.5391
X-13.3897Y-12.6491
X-13.3597Y-12.5391
X-13.3597Y-12.6491
X-13.3297Y-12.5391
X-13.3297Y-12.6491
X-8.015Y-10.52
X-8.015Y-10.63
X-7.985Y-10.52
X-7.985Y-10.63
X-7.955Y-10.52
X-7.955Y-10.63
X-7.925Y-10.52
X-7.925Y-10.63
X-7.895Y-10.52
X-7.895Y-10.63
X-11.8447Y-3.8381
X-11.8447Y-3.9481
X-11.8147Y-3.8381
X-11.8147Y-3.9481
X-11.7847Y-3.8381
X-11.7847Y-3.9481
X-11.7547Y-3.8381
X-11.7547Y-3.9481
X-11.7247Y-3.8381
X-11.7247Y-3.9481
X-6.501Y-11.461
X-6.501Y-11.571
X-6.471Y-11.461
X-6.471Y-11.571
X-6.441Y-11.461
X-6.441Y-11.571
X-6.411Y-11.461
X-6.411Y-11.571
X-6.381Y-11.461
X-6.381Y-11.571
X-15.3769Y-3.3648
X-15.3769Y-3.3948
X-15.3769Y-3.4248
X-15.3769Y-3.4548
X-15.3769Y-3.4848
X-11.445Y-4.73
X-11.445Y-4.76
X-11.445Y-4.79
X-11.445Y-4.82
X-11.445Y-4.85
X-11.335Y-4.73
X-11.335Y-4.76
X-11.335Y-4.79
X-11.335Y-4.82
X-11.335Y-4.85
X-15.3769Y-16.1398
X-15.3769Y-16.1698
X-15.3769Y-16.1998
X-15.3769Y-16.2298
X-15.3769Y-16.2598
X-11.4447Y-0.1831
X-11.4447Y-0.2131
X-11.4447Y-0.2431
X-11.4447Y-0.2731
X-11.4447Y-0.3031
X-11.3347Y-0.1831
X-11.3347Y-0.2131
X-11.3347Y-0.2431
X-11.3347Y-0.2731
X-11.3347Y-0.3031
X-15.3769Y-10.2898
X-15.3769Y-10.3198
X-15.3769Y-10.3498
X-15.3769Y-10.3798
X-15.3769Y-10.4098
X-11.4509Y-14.5617
X-11.4509Y-14.5917
X-11.4509Y-14.6217
X-11.4509Y-14.6517
X-11.4509Y-14.6817
X-11.3409Y-14.5617
X-11.3409Y-14.5917
X-11.3409Y-14.6217
X-11.3409Y-14.6517
X-11.3409Y-14.6817
X-5.4199Y-16.5768
X-5.3899Y-16.5768
X-5.3599Y-16.5768
X-5.3299Y-16.5768
X-5.2999Y-16.5768
X-8.8599Y-16.5768
X-8.8299Y-16.5768
X-8.7999Y-16.5768
X-8.7699Y-16.5768
X-8.7399Y-16.5768
X-2.536Y-10.313
X-2.536Y-10.423
X-2.506Y-10.313
X-2.506Y-10.423
X-2.476Y-10.313
X-2.476Y-10.423
X-2.446Y-10.313
X-2.446Y-10.423
X-2.416Y-10.313
X-2.416Y-10.423
X-6.4969Y-9.6888
X-6.4669Y-9.6888
X-6.4369Y-9.6888
X-6.4069Y-9.6888
X-6.3769Y-9.6888
X-3.191Y-6.802
X-3.191Y-6.912
X-3.161Y-6.802
X-3.161Y-6.912
X-3.131Y-6.802
X-3.131Y-6.912
X-3.101Y-6.802
X-3.101Y-6.912
X-3.071Y-6.802
X-3.071Y-6.912
X-3.3369Y-10.6288
X-3.3069Y-10.6288
X-3.2769Y-10.6288
X-3.2469Y-10.6288
X-3.2169Y-10.6288
X-1.342Y-12.403
X-1.342Y-12.513
X-1.312Y-12.403
X-1.312Y-12.513
X-1.282Y-12.403
X-1.282Y-12.513
X-1.252Y-12.403
X-1.252Y-12.513
X-1.222Y-12.403
X-1.222Y-12.513
X-3.3369Y-10.3118
X-3.3069Y-10.3118
X-3.2769Y-10.3118
X-3.2469Y-10.3118
X-3.2169Y-10.3118
X-15.0947Y-5.6606
X-15.0947Y-5.7706
X-15.0647Y-5.6606
X-15.0647Y-5.7706
X-15.0347Y-5.6606
X-15.0347Y-5.7706
X-15.0047Y-5.6606
X-15.0047Y-5.7706
X-14.9747Y-5.6606
X-14.9747Y-5.7706
X-7.6369Y0.0922
X-7.6069Y0.0922
X-7.5769Y0.0922
X-7.5469Y0.0922
X-7.5169Y0.0922
X-11.8447Y-9.7031
X-11.8447Y-9.8131
X-11.8147Y-9.7031
X-11.8147Y-9.8131
X-11.7847Y-9.7031
X-11.7847Y-9.8131
X-11.7547Y-9.7031
X-11.7547Y-9.8131
X-11.7247Y-9.7031
X-11.7247Y-9.8131
X-6.502Y-10.521
X-6.502Y-10.631
X-6.472Y-10.521
X-6.472Y-10.631
X-6.442Y-10.521
X-6.442Y-10.631
X-6.412Y-10.521
X-6.412Y-10.631
X-6.382Y-10.521
X-6.382Y-10.631
X-15.3769Y-7.5648
X-15.3769Y-7.5948
X-15.3769Y-7.6248
X-15.3769Y-7.6548
X-15.3769Y-7.6848
X-5.484Y-2.9
X-5.484Y-2.93
X-5.484Y-2.96
X-5.484Y-2.99
X-5.484Y-3.02
X-5.374Y-2.9
X-5.374Y-2.93
X-5.374Y-2.96
X-5.374Y-2.99
X-5.374Y-3.02
X-5.9039Y-9.3388
X-5.8739Y-9.3388
X-5.8439Y-9.3388
X-5.8139Y-9.3388
X-5.7839Y-9.3388
X-11.446Y-8.89
X-11.446Y-8.92
X-11.446Y-8.95
X-11.446Y-8.98
X-11.446Y-9.01
X-11.336Y-8.89
X-11.336Y-8.92
X-11.336Y-8.95
X-11.336Y-8.98
X-11.336Y-9.01
X-5.1829Y-10.9648
X-5.1829Y-10.9948
X-5.1829Y-11.0248
X-5.1829Y-11.0548
X-5.1829Y-11.0848
X-15.3769Y-4.7198
X-15.3769Y-4.7498
X-15.3769Y-4.7798
X-15.3769Y-4.8098
X-15.3769Y-4.8398
X-5.484Y-3.72
X-5.484Y-3.75
X-5.484Y-3.78
X-5.484Y-3.81
X-5.484Y-3.84
X-5.374Y-3.72
X-5.374Y-3.75
X-5.374Y-3.78
X-5.374Y-3.81
X-5.374Y-3.84
X-1.4099Y-16.5758
X-1.3799Y-16.5758
X-1.3499Y-16.5758
X-1.3199Y-16.5758
X-1.2899Y-16.5758
X-11.0219Y-16.5768
X-10.9919Y-16.5768
X-10.9619Y-16.5768
X-10.9319Y-16.5768
X-10.9019Y-16.5768
X-5.484Y-8.525
X-5.484Y-8.555
X-5.484Y-8.585
X-5.484Y-8.615
X-5.484Y-8.645
X-5.374Y-8.525
X-5.374Y-8.555
X-5.374Y-8.585
X-5.374Y-8.615
X-5.374Y-8.645
X-4.8369Y-10.3128
X-4.8069Y-10.3128
X-4.7769Y-10.3128
X-4.7469Y-10.3128
X-4.7169Y-10.3128
X-2.536Y-12.403
X-2.536Y-12.513
X-2.506Y-12.403
X-2.506Y-12.513
X-2.476Y-12.403
X-2.476Y-12.513
X-2.446Y-12.403
X-2.446Y-12.513
X-2.416Y-12.403
X-2.416Y-12.513
X-8.8369Y-9.6698
X-8.8069Y-9.6698
X-8.7769Y-9.6698
X-8.7469Y-9.6698
X-8.7169Y-9.6698
X-2.963Y-11.921
X-2.963Y-11.951
X-2.963Y-11.981
X-2.963Y-12.011
X-2.963Y-12.041
X-2.853Y-11.921
X-2.853Y-11.951
X-2.853Y-11.981
X-2.853Y-12.011
X-2.853Y-12.041
X-11.8447Y-12.5391
X-11.8447Y-12.6491
X-11.8147Y-12.5391
X-11.8147Y-12.6491
X-11.7847Y-12.5391
X-11.7847Y-12.6491
X-11.7547Y-12.5391
X-11.7547Y-12.6491
X-11.7247Y-12.5391
X-11.7247Y-12.6491
X-8.305Y-11.933
X-8.305Y-11.963
X-8.305Y-11.993
X-8.305Y-12.023
X-8.305Y-12.053
X-8.195Y-11.933
X-8.195Y-11.963
X-8.195Y-11.993
X-8.195Y-12.023
X-8.195Y-12.053
X-15.3769Y-14.4898
X-15.3769Y-14.5198
X-15.3769Y-14.5498
X-15.3769Y-14.5798
X-15.3769Y-14.6098
X-5.484Y-6.435
X-5.484Y-6.465
X-5.484Y-6.495
X-5.484Y-6.525
X-5.484Y-6.555
X-5.374Y-6.435
X-5.374Y-6.465
X-5.374Y-6.495
X-5.374Y-6.525
X-5.374Y-6.555
X-10.9939Y-9.3388
X-10.9639Y-9.3388
X-10.9339Y-9.3388
X-10.9039Y-9.3388
X-10.8739Y-9.3388
X-1.398Y-3.292
X-1.398Y-3.402
X-1.368Y-3.292
X-1.368Y-3.402
X-1.338Y-3.292
X-1.338Y-3.402
X-1.308Y-3.292
X-1.308Y-3.402
X-1.278Y-3.292
X-1.278Y-3.402
X-5.9739Y-11.9078
X-5.9739Y-11.9378
X-5.9739Y-11.9678
X-5.9739Y-11.9978
X-5.9739Y-12.0278
X-0.8939Y-0.1748
X-0.8939Y-0.2048
X-0.8939Y-0.2348
X-0.8939Y-0.2648
X-0.8939Y-0.2948
X-1.4369Y0.0922
X-1.4069Y0.0922
X-1.3769Y0.0922
X-1.3469Y0.0922
X-1.3169Y0.0922
X-4.4269Y-16.5768
X-4.3969Y-16.5768
X-4.3669Y-16.5768
X-4.3369Y-16.5768
X-4.3069Y-16.5768
X-9.3439Y-9.3388
X-9.3139Y-9.3388
X-9.2839Y-9.3388
X-9.2539Y-9.3388
X-9.2239Y-9.3388
X-4.9359Y-12.9567
X-4.9359Y-12.9867
X-4.9359Y-13.0167
X-4.9359Y-13.0467
X-4.9359Y-13.0767
X-4.8259Y-12.9567
X-4.8259Y-12.9867
X-4.8259Y-13.0167
X-4.8259Y-13.0467
X-4.8259Y-13.0767
X-0.8939Y-12.9548
X-0.8939Y-12.9848
X-0.8939Y-13.0148
X-0.8939Y-13.0448
X-0.8939Y-13.0748
X-3.263Y-12.403
X-3.263Y-12.513
X-3.233Y-12.403
X-3.233Y-12.513
X-3.203Y-12.403
X-3.203Y-12.513
X-3.173Y-12.403
X-3.173Y-12.513
X-3.143Y-12.403
X-3.143Y-12.513
X-0.8939Y-5.0298
X-0.8939Y-5.0598
X-0.8939Y-5.0898
X-0.8939Y-5.1198
X-0.8939Y-5.1498
X-11.8447Y-5.6606
X-11.8447Y-5.7706
X-11.8147Y-5.6606
X-11.8147Y-5.7706
X-11.7847Y-5.6606
X-11.7847Y-5.7706
X-11.7547Y-5.6606
X-11.7547Y-5.7706
X-11.7247Y-5.6606
X-11.7247Y-5.7706
X-4.776Y-11.461
X-4.776Y-11.571
X-4.746Y-11.461
X-4.746Y-11.571
X-4.716Y-11.461
X-4.716Y-11.571
X-4.686Y-11.461
X-4.686Y-11.571
X-4.656Y-11.461
X-4.656Y-11.571
X-8.305Y-10.051
X-8.305Y-10.081
X-8.305Y-10.111
X-8.305Y-10.141
X-8.305Y-10.171
X-8.195Y-10.051
X-8.195Y-10.081
X-8.195Y-10.111
X-8.195Y-10.141
X-8.195Y-10.171
X-0.8939Y-1.4898
X-0.8939Y-1.5198
X-0.8939Y-1.5498
X-0.8939Y-1.5798
X-0.8939Y-1.6098
X-11.4509Y-16.2067
X-11.4509Y-16.2367
X-11.4509Y-16.2667
X-11.4509Y-16.2967
X-11.4509Y-16.3267
X-11.3409Y-16.2067
X-11.3409Y-16.2367
X-11.3409Y-16.2667
X-11.3409Y-16.2967
X-11.3409Y-16.3267
X-15.3769Y-1.7148
X-15.3769Y-1.7448
X-15.3769Y-1.7748
X-15.3769Y-1.8048
X-15.3769Y-1.8348
X-11.4457Y-7.7051
X-11.4457Y-7.7351
X-11.4457Y-7.7651
X-11.4457Y-7.7951
X-11.4457Y-7.8251
X-11.3357Y-7.7051
X-11.3357Y-7.7351
X-11.3357Y-7.7651
X-11.3357Y-7.7951
X-11.3357Y-7.8251
X-0.8939Y-2.9148
X-0.8939Y-2.9448
X-0.8939Y-2.9748
X-0.8939Y-3.0048
X-0.8939Y-3.0348
T2
X-3.7134Y-12.8001
X-3.7134Y-12.9001
X-3.4134Y-14.3032
X-3.4134Y-14.4032
X-3.4134Y-14.5032
X-3.4134Y-14.6032
X-3.4134Y-14.7032
X-3.4134Y-14.8032
X-3.4134Y-14.9032
X-3.4134Y-15.0032
X-3.4134Y-15.2001
X-3.4134Y-15.3001
X-3.4134Y-15.4001
X-3.4134Y-15.5001
X-3.4134Y-15.6001
X-3.4134Y-15.7001
X-2.5401Y-12.7489
X-2.5401Y-14.2764
X-2.4401Y-12.7489
X-2.4401Y-14.2764
X-2.1373Y-14.026
X-2.0373Y-14.026
X-1.9373Y-14.026
X-1.5134Y-13.9426
X-1.5134Y-14.0426
X-1.5134Y-14.2426
X-1.5134Y-14.3426
X-1.5134Y-14.4426
X-1.5134Y-14.5426
X-1.5134Y-14.6426
X-1.5134Y-14.7426
X-1.5134Y-14.8426
X-1.5134Y-15.0001
X-1.5134Y-15.1001
X-1.5134Y-15.2001
X-1.5134Y-15.3001
X-1.5134Y-15.4001
X-1.5134Y-15.5001
X-1.5134Y-15.6001
X-1.5134Y-15.7001
X-1.2134Y-12.8001
X-1.2134Y-12.9001
T3
X-10.8058Y-12.0884
X-10.8058Y-9.9451
X-8.6101Y-9.9557
X-8.6085Y-12.0971
X-1.364Y-12.7148
X-1.358Y-16.3812
X-4.4172Y-12.7158
X-4.4172Y-16.3812
T4
X-1.556Y-10.7305
X-2.2731Y-10.7305
T5
X-1.8545Y-3.5743
X-5.1348Y-3.7696
X-2.212Y-6.4885
X-2.217Y-2.9855
X-5.1328Y-6.4826
X-1.8595Y-0.0713
X-5.1398Y-0.2666
X-5.1378Y-2.9796
X-5.1368Y-9.9956
X-2.216Y-10.0015
X-5.1388Y-7.2826
X-1.8585Y-7.0873
T6
X-12.0597Y-5.5119
X-10.117Y-16.4519
T0
M30
