G04 #@! TF.GenerationSoftware,KiCad,Pcbnew,(5.1.5)-3*
G04 #@! TF.CreationDate,2020-07-09T12:28:23-03:00*
G04 #@! TF.ProjectId,UFRGS PILL,55465247-5320-4504-994c-4c2e6b696361,0.1*
G04 #@! TF.SameCoordinates,Original*
G04 #@! TF.FileFunction,Paste,Top*
G04 #@! TF.FilePolarity,Positive*
%FSLAX46Y46*%
G04 Gerber Fmt 4.6, Leading zero omitted, Abs format (unit mm)*
G04 Created by KiCad (PCBNEW (5.1.5)-3) date 2020-07-09 12:28:23*
%MOMM*%
%LPD*%
G04 APERTURE LIST*
%ADD10C,0.100000*%
%ADD11R,1.300000X3.000000*%
%ADD12R,0.900000X0.800000*%
%ADD13R,2.500000X1.430000*%
%ADD14R,2.000000X0.400000*%
%ADD15R,1.500000X2.000000*%
%ADD16R,0.700000X1.825000*%
%ADD17R,2.000000X1.350000*%
G04 APERTURE END LIST*
D10*
G36*
X139239250Y-45160669D02*
G01*
X139245074Y-45161533D01*
X139250786Y-45162964D01*
X139256330Y-45164947D01*
X139261653Y-45167465D01*
X139266703Y-45170492D01*
X139271433Y-45173999D01*
X139275795Y-45177954D01*
X139360648Y-45262807D01*
X139364603Y-45267169D01*
X139368110Y-45271899D01*
X139371137Y-45276949D01*
X139373655Y-45282272D01*
X139375638Y-45287816D01*
X139377069Y-45293528D01*
X139377933Y-45299352D01*
X139378222Y-45305233D01*
X139377933Y-45311114D01*
X139377069Y-45316938D01*
X139375638Y-45322650D01*
X139373655Y-45328194D01*
X139371137Y-45333517D01*
X139368110Y-45338567D01*
X139364603Y-45343297D01*
X139360648Y-45347659D01*
X138611115Y-46097192D01*
X138606753Y-46101147D01*
X138602023Y-46104654D01*
X138596973Y-46107681D01*
X138591650Y-46110199D01*
X138586106Y-46112182D01*
X138580394Y-46113613D01*
X138574570Y-46114477D01*
X138568689Y-46114766D01*
X138562808Y-46114477D01*
X138556984Y-46113613D01*
X138551272Y-46112182D01*
X138545728Y-46110199D01*
X138540405Y-46107681D01*
X138535355Y-46104654D01*
X138530625Y-46101147D01*
X138526263Y-46097192D01*
X138441410Y-46012339D01*
X138437455Y-46007977D01*
X138433948Y-46003247D01*
X138430921Y-45998197D01*
X138428403Y-45992874D01*
X138426420Y-45987330D01*
X138424989Y-45981618D01*
X138424125Y-45975794D01*
X138423836Y-45969913D01*
X138424125Y-45964032D01*
X138424989Y-45958208D01*
X138426420Y-45952496D01*
X138428403Y-45946952D01*
X138430921Y-45941629D01*
X138433948Y-45936579D01*
X138437455Y-45931849D01*
X138441410Y-45927487D01*
X139190943Y-45177954D01*
X139195305Y-45173999D01*
X139200035Y-45170492D01*
X139205085Y-45167465D01*
X139210408Y-45164947D01*
X139215952Y-45162964D01*
X139221664Y-45161533D01*
X139227488Y-45160669D01*
X139233369Y-45160380D01*
X139239250Y-45160669D01*
G37*
G36*
X138927417Y-47511884D02*
G01*
X138933241Y-47512748D01*
X138938953Y-47514179D01*
X138944497Y-47516162D01*
X138949820Y-47518680D01*
X138954870Y-47521707D01*
X138959600Y-47525214D01*
X138963962Y-47529169D01*
X139713495Y-48278702D01*
X139717450Y-48283064D01*
X139720957Y-48287794D01*
X139723984Y-48292844D01*
X139726502Y-48298167D01*
X139728485Y-48303711D01*
X139729916Y-48309423D01*
X139730780Y-48315247D01*
X139731069Y-48321128D01*
X139730780Y-48327009D01*
X139729916Y-48332833D01*
X139728485Y-48338545D01*
X139726502Y-48344089D01*
X139723984Y-48349412D01*
X139720957Y-48354462D01*
X139717450Y-48359192D01*
X139713495Y-48363554D01*
X139628642Y-48448407D01*
X139624280Y-48452362D01*
X139619550Y-48455869D01*
X139614500Y-48458896D01*
X139609177Y-48461414D01*
X139603633Y-48463397D01*
X139597921Y-48464828D01*
X139592097Y-48465692D01*
X139586216Y-48465981D01*
X139580335Y-48465692D01*
X139574511Y-48464828D01*
X139568799Y-48463397D01*
X139563255Y-48461414D01*
X139557932Y-48458896D01*
X139552882Y-48455869D01*
X139548152Y-48452362D01*
X139543790Y-48448407D01*
X138794257Y-47698874D01*
X138790302Y-47694512D01*
X138786795Y-47689782D01*
X138783768Y-47684732D01*
X138781250Y-47679409D01*
X138779267Y-47673865D01*
X138777836Y-47668153D01*
X138776972Y-47662329D01*
X138776683Y-47656448D01*
X138776972Y-47650567D01*
X138777836Y-47644743D01*
X138779267Y-47639031D01*
X138781250Y-47633487D01*
X138783768Y-47628164D01*
X138786795Y-47623114D01*
X138790302Y-47618384D01*
X138794257Y-47614022D01*
X138879110Y-47529169D01*
X138883472Y-47525214D01*
X138888202Y-47521707D01*
X138893252Y-47518680D01*
X138898575Y-47516162D01*
X138904119Y-47514179D01*
X138909831Y-47512748D01*
X138915655Y-47511884D01*
X138921536Y-47511595D01*
X138927417Y-47511884D01*
G37*
G36*
X138573863Y-47865438D02*
G01*
X138579687Y-47866302D01*
X138585399Y-47867733D01*
X138590943Y-47869716D01*
X138596266Y-47872234D01*
X138601316Y-47875261D01*
X138606046Y-47878768D01*
X138610408Y-47882723D01*
X139359941Y-48632256D01*
X139363896Y-48636618D01*
X139367403Y-48641348D01*
X139370430Y-48646398D01*
X139372948Y-48651721D01*
X139374931Y-48657265D01*
X139376362Y-48662977D01*
X139377226Y-48668801D01*
X139377515Y-48674682D01*
X139377226Y-48680563D01*
X139376362Y-48686387D01*
X139374931Y-48692099D01*
X139372948Y-48697643D01*
X139370430Y-48702966D01*
X139367403Y-48708016D01*
X139363896Y-48712746D01*
X139359941Y-48717108D01*
X139275088Y-48801961D01*
X139270726Y-48805916D01*
X139265996Y-48809423D01*
X139260946Y-48812450D01*
X139255623Y-48814968D01*
X139250079Y-48816951D01*
X139244367Y-48818382D01*
X139238543Y-48819246D01*
X139232662Y-48819535D01*
X139226781Y-48819246D01*
X139220957Y-48818382D01*
X139215245Y-48816951D01*
X139209701Y-48814968D01*
X139204378Y-48812450D01*
X139199328Y-48809423D01*
X139194598Y-48805916D01*
X139190236Y-48801961D01*
X138440703Y-48052428D01*
X138436748Y-48048066D01*
X138433241Y-48043336D01*
X138430214Y-48038286D01*
X138427696Y-48032963D01*
X138425713Y-48027419D01*
X138424282Y-48021707D01*
X138423418Y-48015883D01*
X138423129Y-48010002D01*
X138423418Y-48004121D01*
X138424282Y-47998297D01*
X138425713Y-47992585D01*
X138427696Y-47987041D01*
X138430214Y-47981718D01*
X138433241Y-47976668D01*
X138436748Y-47971938D01*
X138440703Y-47967576D01*
X138525556Y-47882723D01*
X138529918Y-47878768D01*
X138534648Y-47875261D01*
X138539698Y-47872234D01*
X138545021Y-47869716D01*
X138550565Y-47867733D01*
X138556277Y-47866302D01*
X138562101Y-47865438D01*
X138567982Y-47865149D01*
X138573863Y-47865438D01*
G37*
G36*
X138220310Y-48218991D02*
G01*
X138226134Y-48219855D01*
X138231846Y-48221286D01*
X138237390Y-48223269D01*
X138242713Y-48225787D01*
X138247763Y-48228814D01*
X138252493Y-48232321D01*
X138256855Y-48236276D01*
X139006388Y-48985809D01*
X139010343Y-48990171D01*
X139013850Y-48994901D01*
X139016877Y-48999951D01*
X139019395Y-49005274D01*
X139021378Y-49010818D01*
X139022809Y-49016530D01*
X139023673Y-49022354D01*
X139023962Y-49028235D01*
X139023673Y-49034116D01*
X139022809Y-49039940D01*
X139021378Y-49045652D01*
X139019395Y-49051196D01*
X139016877Y-49056519D01*
X139013850Y-49061569D01*
X139010343Y-49066299D01*
X139006388Y-49070661D01*
X138921535Y-49155514D01*
X138917173Y-49159469D01*
X138912443Y-49162976D01*
X138907393Y-49166003D01*
X138902070Y-49168521D01*
X138896526Y-49170504D01*
X138890814Y-49171935D01*
X138884990Y-49172799D01*
X138879109Y-49173088D01*
X138873228Y-49172799D01*
X138867404Y-49171935D01*
X138861692Y-49170504D01*
X138856148Y-49168521D01*
X138850825Y-49166003D01*
X138845775Y-49162976D01*
X138841045Y-49159469D01*
X138836683Y-49155514D01*
X138087150Y-48405981D01*
X138083195Y-48401619D01*
X138079688Y-48396889D01*
X138076661Y-48391839D01*
X138074143Y-48386516D01*
X138072160Y-48380972D01*
X138070729Y-48375260D01*
X138069865Y-48369436D01*
X138069576Y-48363555D01*
X138069865Y-48357674D01*
X138070729Y-48351850D01*
X138072160Y-48346138D01*
X138074143Y-48340594D01*
X138076661Y-48335271D01*
X138079688Y-48330221D01*
X138083195Y-48325491D01*
X138087150Y-48321129D01*
X138172003Y-48236276D01*
X138176365Y-48232321D01*
X138181095Y-48228814D01*
X138186145Y-48225787D01*
X138191468Y-48223269D01*
X138197012Y-48221286D01*
X138202724Y-48219855D01*
X138208548Y-48218991D01*
X138214429Y-48218702D01*
X138220310Y-48218991D01*
G37*
G36*
X137866756Y-48572545D02*
G01*
X137872580Y-48573409D01*
X137878292Y-48574840D01*
X137883836Y-48576823D01*
X137889159Y-48579341D01*
X137894209Y-48582368D01*
X137898939Y-48585875D01*
X137903301Y-48589830D01*
X138652834Y-49339363D01*
X138656789Y-49343725D01*
X138660296Y-49348455D01*
X138663323Y-49353505D01*
X138665841Y-49358828D01*
X138667824Y-49364372D01*
X138669255Y-49370084D01*
X138670119Y-49375908D01*
X138670408Y-49381789D01*
X138670119Y-49387670D01*
X138669255Y-49393494D01*
X138667824Y-49399206D01*
X138665841Y-49404750D01*
X138663323Y-49410073D01*
X138660296Y-49415123D01*
X138656789Y-49419853D01*
X138652834Y-49424215D01*
X138567981Y-49509068D01*
X138563619Y-49513023D01*
X138558889Y-49516530D01*
X138553839Y-49519557D01*
X138548516Y-49522075D01*
X138542972Y-49524058D01*
X138537260Y-49525489D01*
X138531436Y-49526353D01*
X138525555Y-49526642D01*
X138519674Y-49526353D01*
X138513850Y-49525489D01*
X138508138Y-49524058D01*
X138502594Y-49522075D01*
X138497271Y-49519557D01*
X138492221Y-49516530D01*
X138487491Y-49513023D01*
X138483129Y-49509068D01*
X137733596Y-48759535D01*
X137729641Y-48755173D01*
X137726134Y-48750443D01*
X137723107Y-48745393D01*
X137720589Y-48740070D01*
X137718606Y-48734526D01*
X137717175Y-48728814D01*
X137716311Y-48722990D01*
X137716022Y-48717109D01*
X137716311Y-48711228D01*
X137717175Y-48705404D01*
X137718606Y-48699692D01*
X137720589Y-48694148D01*
X137723107Y-48688825D01*
X137726134Y-48683775D01*
X137729641Y-48679045D01*
X137733596Y-48674683D01*
X137818449Y-48589830D01*
X137822811Y-48585875D01*
X137827541Y-48582368D01*
X137832591Y-48579341D01*
X137837914Y-48576823D01*
X137843458Y-48574840D01*
X137849170Y-48573409D01*
X137854994Y-48572545D01*
X137860875Y-48572256D01*
X137866756Y-48572545D01*
G37*
G36*
X137513203Y-48926098D02*
G01*
X137519027Y-48926962D01*
X137524739Y-48928393D01*
X137530283Y-48930376D01*
X137535606Y-48932894D01*
X137540656Y-48935921D01*
X137545386Y-48939428D01*
X137549748Y-48943383D01*
X138299281Y-49692916D01*
X138303236Y-49697278D01*
X138306743Y-49702008D01*
X138309770Y-49707058D01*
X138312288Y-49712381D01*
X138314271Y-49717925D01*
X138315702Y-49723637D01*
X138316566Y-49729461D01*
X138316855Y-49735342D01*
X138316566Y-49741223D01*
X138315702Y-49747047D01*
X138314271Y-49752759D01*
X138312288Y-49758303D01*
X138309770Y-49763626D01*
X138306743Y-49768676D01*
X138303236Y-49773406D01*
X138299281Y-49777768D01*
X138214428Y-49862621D01*
X138210066Y-49866576D01*
X138205336Y-49870083D01*
X138200286Y-49873110D01*
X138194963Y-49875628D01*
X138189419Y-49877611D01*
X138183707Y-49879042D01*
X138177883Y-49879906D01*
X138172002Y-49880195D01*
X138166121Y-49879906D01*
X138160297Y-49879042D01*
X138154585Y-49877611D01*
X138149041Y-49875628D01*
X138143718Y-49873110D01*
X138138668Y-49870083D01*
X138133938Y-49866576D01*
X138129576Y-49862621D01*
X137380043Y-49113088D01*
X137376088Y-49108726D01*
X137372581Y-49103996D01*
X137369554Y-49098946D01*
X137367036Y-49093623D01*
X137365053Y-49088079D01*
X137363622Y-49082367D01*
X137362758Y-49076543D01*
X137362469Y-49070662D01*
X137362758Y-49064781D01*
X137363622Y-49058957D01*
X137365053Y-49053245D01*
X137367036Y-49047701D01*
X137369554Y-49042378D01*
X137372581Y-49037328D01*
X137376088Y-49032598D01*
X137380043Y-49028236D01*
X137464896Y-48943383D01*
X137469258Y-48939428D01*
X137473988Y-48935921D01*
X137479038Y-48932894D01*
X137484361Y-48930376D01*
X137489905Y-48928393D01*
X137495617Y-48926962D01*
X137501441Y-48926098D01*
X137507322Y-48925809D01*
X137513203Y-48926098D01*
G37*
G36*
X137159650Y-49279651D02*
G01*
X137165474Y-49280515D01*
X137171186Y-49281946D01*
X137176730Y-49283929D01*
X137182053Y-49286447D01*
X137187103Y-49289474D01*
X137191833Y-49292981D01*
X137196195Y-49296936D01*
X137945728Y-50046469D01*
X137949683Y-50050831D01*
X137953190Y-50055561D01*
X137956217Y-50060611D01*
X137958735Y-50065934D01*
X137960718Y-50071478D01*
X137962149Y-50077190D01*
X137963013Y-50083014D01*
X137963302Y-50088895D01*
X137963013Y-50094776D01*
X137962149Y-50100600D01*
X137960718Y-50106312D01*
X137958735Y-50111856D01*
X137956217Y-50117179D01*
X137953190Y-50122229D01*
X137949683Y-50126959D01*
X137945728Y-50131321D01*
X137860875Y-50216174D01*
X137856513Y-50220129D01*
X137851783Y-50223636D01*
X137846733Y-50226663D01*
X137841410Y-50229181D01*
X137835866Y-50231164D01*
X137830154Y-50232595D01*
X137824330Y-50233459D01*
X137818449Y-50233748D01*
X137812568Y-50233459D01*
X137806744Y-50232595D01*
X137801032Y-50231164D01*
X137795488Y-50229181D01*
X137790165Y-50226663D01*
X137785115Y-50223636D01*
X137780385Y-50220129D01*
X137776023Y-50216174D01*
X137026490Y-49466641D01*
X137022535Y-49462279D01*
X137019028Y-49457549D01*
X137016001Y-49452499D01*
X137013483Y-49447176D01*
X137011500Y-49441632D01*
X137010069Y-49435920D01*
X137009205Y-49430096D01*
X137008916Y-49424215D01*
X137009205Y-49418334D01*
X137010069Y-49412510D01*
X137011500Y-49406798D01*
X137013483Y-49401254D01*
X137016001Y-49395931D01*
X137019028Y-49390881D01*
X137022535Y-49386151D01*
X137026490Y-49381789D01*
X137111343Y-49296936D01*
X137115705Y-49292981D01*
X137120435Y-49289474D01*
X137125485Y-49286447D01*
X137130808Y-49283929D01*
X137136352Y-49281946D01*
X137142064Y-49280515D01*
X137147888Y-49279651D01*
X137153769Y-49279362D01*
X137159650Y-49279651D01*
G37*
G36*
X136806096Y-49633205D02*
G01*
X136811920Y-49634069D01*
X136817632Y-49635500D01*
X136823176Y-49637483D01*
X136828499Y-49640001D01*
X136833549Y-49643028D01*
X136838279Y-49646535D01*
X136842641Y-49650490D01*
X137592174Y-50400023D01*
X137596129Y-50404385D01*
X137599636Y-50409115D01*
X137602663Y-50414165D01*
X137605181Y-50419488D01*
X137607164Y-50425032D01*
X137608595Y-50430744D01*
X137609459Y-50436568D01*
X137609748Y-50442449D01*
X137609459Y-50448330D01*
X137608595Y-50454154D01*
X137607164Y-50459866D01*
X137605181Y-50465410D01*
X137602663Y-50470733D01*
X137599636Y-50475783D01*
X137596129Y-50480513D01*
X137592174Y-50484875D01*
X137507321Y-50569728D01*
X137502959Y-50573683D01*
X137498229Y-50577190D01*
X137493179Y-50580217D01*
X137487856Y-50582735D01*
X137482312Y-50584718D01*
X137476600Y-50586149D01*
X137470776Y-50587013D01*
X137464895Y-50587302D01*
X137459014Y-50587013D01*
X137453190Y-50586149D01*
X137447478Y-50584718D01*
X137441934Y-50582735D01*
X137436611Y-50580217D01*
X137431561Y-50577190D01*
X137426831Y-50573683D01*
X137422469Y-50569728D01*
X136672936Y-49820195D01*
X136668981Y-49815833D01*
X136665474Y-49811103D01*
X136662447Y-49806053D01*
X136659929Y-49800730D01*
X136657946Y-49795186D01*
X136656515Y-49789474D01*
X136655651Y-49783650D01*
X136655362Y-49777769D01*
X136655651Y-49771888D01*
X136656515Y-49766064D01*
X136657946Y-49760352D01*
X136659929Y-49754808D01*
X136662447Y-49749485D01*
X136665474Y-49744435D01*
X136668981Y-49739705D01*
X136672936Y-49735343D01*
X136757789Y-49650490D01*
X136762151Y-49646535D01*
X136766881Y-49643028D01*
X136771931Y-49640001D01*
X136777254Y-49637483D01*
X136782798Y-49635500D01*
X136788510Y-49634069D01*
X136794334Y-49633205D01*
X136800215Y-49632916D01*
X136806096Y-49633205D01*
G37*
G36*
X136452543Y-49986758D02*
G01*
X136458367Y-49987622D01*
X136464079Y-49989053D01*
X136469623Y-49991036D01*
X136474946Y-49993554D01*
X136479996Y-49996581D01*
X136484726Y-50000088D01*
X136489088Y-50004043D01*
X137238621Y-50753576D01*
X137242576Y-50757938D01*
X137246083Y-50762668D01*
X137249110Y-50767718D01*
X137251628Y-50773041D01*
X137253611Y-50778585D01*
X137255042Y-50784297D01*
X137255906Y-50790121D01*
X137256195Y-50796002D01*
X137255906Y-50801883D01*
X137255042Y-50807707D01*
X137253611Y-50813419D01*
X137251628Y-50818963D01*
X137249110Y-50824286D01*
X137246083Y-50829336D01*
X137242576Y-50834066D01*
X137238621Y-50838428D01*
X137153768Y-50923281D01*
X137149406Y-50927236D01*
X137144676Y-50930743D01*
X137139626Y-50933770D01*
X137134303Y-50936288D01*
X137128759Y-50938271D01*
X137123047Y-50939702D01*
X137117223Y-50940566D01*
X137111342Y-50940855D01*
X137105461Y-50940566D01*
X137099637Y-50939702D01*
X137093925Y-50938271D01*
X137088381Y-50936288D01*
X137083058Y-50933770D01*
X137078008Y-50930743D01*
X137073278Y-50927236D01*
X137068916Y-50923281D01*
X136319383Y-50173748D01*
X136315428Y-50169386D01*
X136311921Y-50164656D01*
X136308894Y-50159606D01*
X136306376Y-50154283D01*
X136304393Y-50148739D01*
X136302962Y-50143027D01*
X136302098Y-50137203D01*
X136301809Y-50131322D01*
X136302098Y-50125441D01*
X136302962Y-50119617D01*
X136304393Y-50113905D01*
X136306376Y-50108361D01*
X136308894Y-50103038D01*
X136311921Y-50097988D01*
X136315428Y-50093258D01*
X136319383Y-50088896D01*
X136404236Y-50004043D01*
X136408598Y-50000088D01*
X136413328Y-49996581D01*
X136418378Y-49993554D01*
X136423701Y-49991036D01*
X136429245Y-49989053D01*
X136434957Y-49987622D01*
X136440781Y-49986758D01*
X136446662Y-49986469D01*
X136452543Y-49986758D01*
G37*
G36*
X136098990Y-50340311D02*
G01*
X136104814Y-50341175D01*
X136110526Y-50342606D01*
X136116070Y-50344589D01*
X136121393Y-50347107D01*
X136126443Y-50350134D01*
X136131173Y-50353641D01*
X136135535Y-50357596D01*
X136885068Y-51107129D01*
X136889023Y-51111491D01*
X136892530Y-51116221D01*
X136895557Y-51121271D01*
X136898075Y-51126594D01*
X136900058Y-51132138D01*
X136901489Y-51137850D01*
X136902353Y-51143674D01*
X136902642Y-51149555D01*
X136902353Y-51155436D01*
X136901489Y-51161260D01*
X136900058Y-51166972D01*
X136898075Y-51172516D01*
X136895557Y-51177839D01*
X136892530Y-51182889D01*
X136889023Y-51187619D01*
X136885068Y-51191981D01*
X136800215Y-51276834D01*
X136795853Y-51280789D01*
X136791123Y-51284296D01*
X136786073Y-51287323D01*
X136780750Y-51289841D01*
X136775206Y-51291824D01*
X136769494Y-51293255D01*
X136763670Y-51294119D01*
X136757789Y-51294408D01*
X136751908Y-51294119D01*
X136746084Y-51293255D01*
X136740372Y-51291824D01*
X136734828Y-51289841D01*
X136729505Y-51287323D01*
X136724455Y-51284296D01*
X136719725Y-51280789D01*
X136715363Y-51276834D01*
X135965830Y-50527301D01*
X135961875Y-50522939D01*
X135958368Y-50518209D01*
X135955341Y-50513159D01*
X135952823Y-50507836D01*
X135950840Y-50502292D01*
X135949409Y-50496580D01*
X135948545Y-50490756D01*
X135948256Y-50484875D01*
X135948545Y-50478994D01*
X135949409Y-50473170D01*
X135950840Y-50467458D01*
X135952823Y-50461914D01*
X135955341Y-50456591D01*
X135958368Y-50451541D01*
X135961875Y-50446811D01*
X135965830Y-50442449D01*
X136050683Y-50357596D01*
X136055045Y-50353641D01*
X136059775Y-50350134D01*
X136064825Y-50347107D01*
X136070148Y-50344589D01*
X136075692Y-50342606D01*
X136081404Y-50341175D01*
X136087228Y-50340311D01*
X136093109Y-50340022D01*
X136098990Y-50340311D01*
G37*
G36*
X135745436Y-50693865D02*
G01*
X135751260Y-50694729D01*
X135756972Y-50696160D01*
X135762516Y-50698143D01*
X135767839Y-50700661D01*
X135772889Y-50703688D01*
X135777619Y-50707195D01*
X135781981Y-50711150D01*
X136531514Y-51460683D01*
X136535469Y-51465045D01*
X136538976Y-51469775D01*
X136542003Y-51474825D01*
X136544521Y-51480148D01*
X136546504Y-51485692D01*
X136547935Y-51491404D01*
X136548799Y-51497228D01*
X136549088Y-51503109D01*
X136548799Y-51508990D01*
X136547935Y-51514814D01*
X136546504Y-51520526D01*
X136544521Y-51526070D01*
X136542003Y-51531393D01*
X136538976Y-51536443D01*
X136535469Y-51541173D01*
X136531514Y-51545535D01*
X136446661Y-51630388D01*
X136442299Y-51634343D01*
X136437569Y-51637850D01*
X136432519Y-51640877D01*
X136427196Y-51643395D01*
X136421652Y-51645378D01*
X136415940Y-51646809D01*
X136410116Y-51647673D01*
X136404235Y-51647962D01*
X136398354Y-51647673D01*
X136392530Y-51646809D01*
X136386818Y-51645378D01*
X136381274Y-51643395D01*
X136375951Y-51640877D01*
X136370901Y-51637850D01*
X136366171Y-51634343D01*
X136361809Y-51630388D01*
X135612276Y-50880855D01*
X135608321Y-50876493D01*
X135604814Y-50871763D01*
X135601787Y-50866713D01*
X135599269Y-50861390D01*
X135597286Y-50855846D01*
X135595855Y-50850134D01*
X135594991Y-50844310D01*
X135594702Y-50838429D01*
X135594991Y-50832548D01*
X135595855Y-50826724D01*
X135597286Y-50821012D01*
X135599269Y-50815468D01*
X135601787Y-50810145D01*
X135604814Y-50805095D01*
X135608321Y-50800365D01*
X135612276Y-50796003D01*
X135697129Y-50711150D01*
X135701491Y-50707195D01*
X135706221Y-50703688D01*
X135711271Y-50700661D01*
X135716594Y-50698143D01*
X135722138Y-50696160D01*
X135727850Y-50694729D01*
X135733674Y-50693865D01*
X135739555Y-50693576D01*
X135745436Y-50693865D01*
G37*
G36*
X135391883Y-51047418D02*
G01*
X135397707Y-51048282D01*
X135403419Y-51049713D01*
X135408963Y-51051696D01*
X135414286Y-51054214D01*
X135419336Y-51057241D01*
X135424066Y-51060748D01*
X135428428Y-51064703D01*
X136177961Y-51814236D01*
X136181916Y-51818598D01*
X136185423Y-51823328D01*
X136188450Y-51828378D01*
X136190968Y-51833701D01*
X136192951Y-51839245D01*
X136194382Y-51844957D01*
X136195246Y-51850781D01*
X136195535Y-51856662D01*
X136195246Y-51862543D01*
X136194382Y-51868367D01*
X136192951Y-51874079D01*
X136190968Y-51879623D01*
X136188450Y-51884946D01*
X136185423Y-51889996D01*
X136181916Y-51894726D01*
X136177961Y-51899088D01*
X136093108Y-51983941D01*
X136088746Y-51987896D01*
X136084016Y-51991403D01*
X136078966Y-51994430D01*
X136073643Y-51996948D01*
X136068099Y-51998931D01*
X136062387Y-52000362D01*
X136056563Y-52001226D01*
X136050682Y-52001515D01*
X136044801Y-52001226D01*
X136038977Y-52000362D01*
X136033265Y-51998931D01*
X136027721Y-51996948D01*
X136022398Y-51994430D01*
X136017348Y-51991403D01*
X136012618Y-51987896D01*
X136008256Y-51983941D01*
X135258723Y-51234408D01*
X135254768Y-51230046D01*
X135251261Y-51225316D01*
X135248234Y-51220266D01*
X135245716Y-51214943D01*
X135243733Y-51209399D01*
X135242302Y-51203687D01*
X135241438Y-51197863D01*
X135241149Y-51191982D01*
X135241438Y-51186101D01*
X135242302Y-51180277D01*
X135243733Y-51174565D01*
X135245716Y-51169021D01*
X135248234Y-51163698D01*
X135251261Y-51158648D01*
X135254768Y-51153918D01*
X135258723Y-51149556D01*
X135343576Y-51064703D01*
X135347938Y-51060748D01*
X135352668Y-51057241D01*
X135357718Y-51054214D01*
X135363041Y-51051696D01*
X135368585Y-51049713D01*
X135374297Y-51048282D01*
X135380121Y-51047418D01*
X135386002Y-51047129D01*
X135391883Y-51047418D01*
G37*
G36*
X135038329Y-51400972D02*
G01*
X135044153Y-51401836D01*
X135049865Y-51403267D01*
X135055409Y-51405250D01*
X135060732Y-51407768D01*
X135065782Y-51410795D01*
X135070512Y-51414302D01*
X135074874Y-51418257D01*
X135824407Y-52167790D01*
X135828362Y-52172152D01*
X135831869Y-52176882D01*
X135834896Y-52181932D01*
X135837414Y-52187255D01*
X135839397Y-52192799D01*
X135840828Y-52198511D01*
X135841692Y-52204335D01*
X135841981Y-52210216D01*
X135841692Y-52216097D01*
X135840828Y-52221921D01*
X135839397Y-52227633D01*
X135837414Y-52233177D01*
X135834896Y-52238500D01*
X135831869Y-52243550D01*
X135828362Y-52248280D01*
X135824407Y-52252642D01*
X135739554Y-52337495D01*
X135735192Y-52341450D01*
X135730462Y-52344957D01*
X135725412Y-52347984D01*
X135720089Y-52350502D01*
X135714545Y-52352485D01*
X135708833Y-52353916D01*
X135703009Y-52354780D01*
X135697128Y-52355069D01*
X135691247Y-52354780D01*
X135685423Y-52353916D01*
X135679711Y-52352485D01*
X135674167Y-52350502D01*
X135668844Y-52347984D01*
X135663794Y-52344957D01*
X135659064Y-52341450D01*
X135654702Y-52337495D01*
X134905169Y-51587962D01*
X134901214Y-51583600D01*
X134897707Y-51578870D01*
X134894680Y-51573820D01*
X134892162Y-51568497D01*
X134890179Y-51562953D01*
X134888748Y-51557241D01*
X134887884Y-51551417D01*
X134887595Y-51545536D01*
X134887884Y-51539655D01*
X134888748Y-51533831D01*
X134890179Y-51528119D01*
X134892162Y-51522575D01*
X134894680Y-51517252D01*
X134897707Y-51512202D01*
X134901214Y-51507472D01*
X134905169Y-51503110D01*
X134990022Y-51418257D01*
X134994384Y-51414302D01*
X134999114Y-51410795D01*
X135004164Y-51407768D01*
X135009487Y-51405250D01*
X135015031Y-51403267D01*
X135020743Y-51401836D01*
X135026567Y-51400972D01*
X135032448Y-51400683D01*
X135038329Y-51400972D01*
G37*
G36*
X133705433Y-51400972D02*
G01*
X133711257Y-51401836D01*
X133716969Y-51403267D01*
X133722513Y-51405250D01*
X133727836Y-51407768D01*
X133732886Y-51410795D01*
X133737616Y-51414302D01*
X133741978Y-51418257D01*
X133826831Y-51503110D01*
X133830786Y-51507472D01*
X133834293Y-51512202D01*
X133837320Y-51517252D01*
X133839838Y-51522575D01*
X133841821Y-51528119D01*
X133843252Y-51533831D01*
X133844116Y-51539655D01*
X133844405Y-51545536D01*
X133844116Y-51551417D01*
X133843252Y-51557241D01*
X133841821Y-51562953D01*
X133839838Y-51568497D01*
X133837320Y-51573820D01*
X133834293Y-51578870D01*
X133830786Y-51583600D01*
X133826831Y-51587962D01*
X133077298Y-52337495D01*
X133072936Y-52341450D01*
X133068206Y-52344957D01*
X133063156Y-52347984D01*
X133057833Y-52350502D01*
X133052289Y-52352485D01*
X133046577Y-52353916D01*
X133040753Y-52354780D01*
X133034872Y-52355069D01*
X133028991Y-52354780D01*
X133023167Y-52353916D01*
X133017455Y-52352485D01*
X133011911Y-52350502D01*
X133006588Y-52347984D01*
X133001538Y-52344957D01*
X132996808Y-52341450D01*
X132992446Y-52337495D01*
X132907593Y-52252642D01*
X132903638Y-52248280D01*
X132900131Y-52243550D01*
X132897104Y-52238500D01*
X132894586Y-52233177D01*
X132892603Y-52227633D01*
X132891172Y-52221921D01*
X132890308Y-52216097D01*
X132890019Y-52210216D01*
X132890308Y-52204335D01*
X132891172Y-52198511D01*
X132892603Y-52192799D01*
X132894586Y-52187255D01*
X132897104Y-52181932D01*
X132900131Y-52176882D01*
X132903638Y-52172152D01*
X132907593Y-52167790D01*
X133657126Y-51418257D01*
X133661488Y-51414302D01*
X133666218Y-51410795D01*
X133671268Y-51407768D01*
X133676591Y-51405250D01*
X133682135Y-51403267D01*
X133687847Y-51401836D01*
X133693671Y-51400972D01*
X133699552Y-51400683D01*
X133705433Y-51400972D01*
G37*
G36*
X133351879Y-51047418D02*
G01*
X133357703Y-51048282D01*
X133363415Y-51049713D01*
X133368959Y-51051696D01*
X133374282Y-51054214D01*
X133379332Y-51057241D01*
X133384062Y-51060748D01*
X133388424Y-51064703D01*
X133473277Y-51149556D01*
X133477232Y-51153918D01*
X133480739Y-51158648D01*
X133483766Y-51163698D01*
X133486284Y-51169021D01*
X133488267Y-51174565D01*
X133489698Y-51180277D01*
X133490562Y-51186101D01*
X133490851Y-51191982D01*
X133490562Y-51197863D01*
X133489698Y-51203687D01*
X133488267Y-51209399D01*
X133486284Y-51214943D01*
X133483766Y-51220266D01*
X133480739Y-51225316D01*
X133477232Y-51230046D01*
X133473277Y-51234408D01*
X132723744Y-51983941D01*
X132719382Y-51987896D01*
X132714652Y-51991403D01*
X132709602Y-51994430D01*
X132704279Y-51996948D01*
X132698735Y-51998931D01*
X132693023Y-52000362D01*
X132687199Y-52001226D01*
X132681318Y-52001515D01*
X132675437Y-52001226D01*
X132669613Y-52000362D01*
X132663901Y-51998931D01*
X132658357Y-51996948D01*
X132653034Y-51994430D01*
X132647984Y-51991403D01*
X132643254Y-51987896D01*
X132638892Y-51983941D01*
X132554039Y-51899088D01*
X132550084Y-51894726D01*
X132546577Y-51889996D01*
X132543550Y-51884946D01*
X132541032Y-51879623D01*
X132539049Y-51874079D01*
X132537618Y-51868367D01*
X132536754Y-51862543D01*
X132536465Y-51856662D01*
X132536754Y-51850781D01*
X132537618Y-51844957D01*
X132539049Y-51839245D01*
X132541032Y-51833701D01*
X132543550Y-51828378D01*
X132546577Y-51823328D01*
X132550084Y-51818598D01*
X132554039Y-51814236D01*
X133303572Y-51064703D01*
X133307934Y-51060748D01*
X133312664Y-51057241D01*
X133317714Y-51054214D01*
X133323037Y-51051696D01*
X133328581Y-51049713D01*
X133334293Y-51048282D01*
X133340117Y-51047418D01*
X133345998Y-51047129D01*
X133351879Y-51047418D01*
G37*
G36*
X132998326Y-50693865D02*
G01*
X133004150Y-50694729D01*
X133009862Y-50696160D01*
X133015406Y-50698143D01*
X133020729Y-50700661D01*
X133025779Y-50703688D01*
X133030509Y-50707195D01*
X133034871Y-50711150D01*
X133119724Y-50796003D01*
X133123679Y-50800365D01*
X133127186Y-50805095D01*
X133130213Y-50810145D01*
X133132731Y-50815468D01*
X133134714Y-50821012D01*
X133136145Y-50826724D01*
X133137009Y-50832548D01*
X133137298Y-50838429D01*
X133137009Y-50844310D01*
X133136145Y-50850134D01*
X133134714Y-50855846D01*
X133132731Y-50861390D01*
X133130213Y-50866713D01*
X133127186Y-50871763D01*
X133123679Y-50876493D01*
X133119724Y-50880855D01*
X132370191Y-51630388D01*
X132365829Y-51634343D01*
X132361099Y-51637850D01*
X132356049Y-51640877D01*
X132350726Y-51643395D01*
X132345182Y-51645378D01*
X132339470Y-51646809D01*
X132333646Y-51647673D01*
X132327765Y-51647962D01*
X132321884Y-51647673D01*
X132316060Y-51646809D01*
X132310348Y-51645378D01*
X132304804Y-51643395D01*
X132299481Y-51640877D01*
X132294431Y-51637850D01*
X132289701Y-51634343D01*
X132285339Y-51630388D01*
X132200486Y-51545535D01*
X132196531Y-51541173D01*
X132193024Y-51536443D01*
X132189997Y-51531393D01*
X132187479Y-51526070D01*
X132185496Y-51520526D01*
X132184065Y-51514814D01*
X132183201Y-51508990D01*
X132182912Y-51503109D01*
X132183201Y-51497228D01*
X132184065Y-51491404D01*
X132185496Y-51485692D01*
X132187479Y-51480148D01*
X132189997Y-51474825D01*
X132193024Y-51469775D01*
X132196531Y-51465045D01*
X132200486Y-51460683D01*
X132950019Y-50711150D01*
X132954381Y-50707195D01*
X132959111Y-50703688D01*
X132964161Y-50700661D01*
X132969484Y-50698143D01*
X132975028Y-50696160D01*
X132980740Y-50694729D01*
X132986564Y-50693865D01*
X132992445Y-50693576D01*
X132998326Y-50693865D01*
G37*
G36*
X132644772Y-50340311D02*
G01*
X132650596Y-50341175D01*
X132656308Y-50342606D01*
X132661852Y-50344589D01*
X132667175Y-50347107D01*
X132672225Y-50350134D01*
X132676955Y-50353641D01*
X132681317Y-50357596D01*
X132766170Y-50442449D01*
X132770125Y-50446811D01*
X132773632Y-50451541D01*
X132776659Y-50456591D01*
X132779177Y-50461914D01*
X132781160Y-50467458D01*
X132782591Y-50473170D01*
X132783455Y-50478994D01*
X132783744Y-50484875D01*
X132783455Y-50490756D01*
X132782591Y-50496580D01*
X132781160Y-50502292D01*
X132779177Y-50507836D01*
X132776659Y-50513159D01*
X132773632Y-50518209D01*
X132770125Y-50522939D01*
X132766170Y-50527301D01*
X132016637Y-51276834D01*
X132012275Y-51280789D01*
X132007545Y-51284296D01*
X132002495Y-51287323D01*
X131997172Y-51289841D01*
X131991628Y-51291824D01*
X131985916Y-51293255D01*
X131980092Y-51294119D01*
X131974211Y-51294408D01*
X131968330Y-51294119D01*
X131962506Y-51293255D01*
X131956794Y-51291824D01*
X131951250Y-51289841D01*
X131945927Y-51287323D01*
X131940877Y-51284296D01*
X131936147Y-51280789D01*
X131931785Y-51276834D01*
X131846932Y-51191981D01*
X131842977Y-51187619D01*
X131839470Y-51182889D01*
X131836443Y-51177839D01*
X131833925Y-51172516D01*
X131831942Y-51166972D01*
X131830511Y-51161260D01*
X131829647Y-51155436D01*
X131829358Y-51149555D01*
X131829647Y-51143674D01*
X131830511Y-51137850D01*
X131831942Y-51132138D01*
X131833925Y-51126594D01*
X131836443Y-51121271D01*
X131839470Y-51116221D01*
X131842977Y-51111491D01*
X131846932Y-51107129D01*
X132596465Y-50357596D01*
X132600827Y-50353641D01*
X132605557Y-50350134D01*
X132610607Y-50347107D01*
X132615930Y-50344589D01*
X132621474Y-50342606D01*
X132627186Y-50341175D01*
X132633010Y-50340311D01*
X132638891Y-50340022D01*
X132644772Y-50340311D01*
G37*
G36*
X132291219Y-49986758D02*
G01*
X132297043Y-49987622D01*
X132302755Y-49989053D01*
X132308299Y-49991036D01*
X132313622Y-49993554D01*
X132318672Y-49996581D01*
X132323402Y-50000088D01*
X132327764Y-50004043D01*
X132412617Y-50088896D01*
X132416572Y-50093258D01*
X132420079Y-50097988D01*
X132423106Y-50103038D01*
X132425624Y-50108361D01*
X132427607Y-50113905D01*
X132429038Y-50119617D01*
X132429902Y-50125441D01*
X132430191Y-50131322D01*
X132429902Y-50137203D01*
X132429038Y-50143027D01*
X132427607Y-50148739D01*
X132425624Y-50154283D01*
X132423106Y-50159606D01*
X132420079Y-50164656D01*
X132416572Y-50169386D01*
X132412617Y-50173748D01*
X131663084Y-50923281D01*
X131658722Y-50927236D01*
X131653992Y-50930743D01*
X131648942Y-50933770D01*
X131643619Y-50936288D01*
X131638075Y-50938271D01*
X131632363Y-50939702D01*
X131626539Y-50940566D01*
X131620658Y-50940855D01*
X131614777Y-50940566D01*
X131608953Y-50939702D01*
X131603241Y-50938271D01*
X131597697Y-50936288D01*
X131592374Y-50933770D01*
X131587324Y-50930743D01*
X131582594Y-50927236D01*
X131578232Y-50923281D01*
X131493379Y-50838428D01*
X131489424Y-50834066D01*
X131485917Y-50829336D01*
X131482890Y-50824286D01*
X131480372Y-50818963D01*
X131478389Y-50813419D01*
X131476958Y-50807707D01*
X131476094Y-50801883D01*
X131475805Y-50796002D01*
X131476094Y-50790121D01*
X131476958Y-50784297D01*
X131478389Y-50778585D01*
X131480372Y-50773041D01*
X131482890Y-50767718D01*
X131485917Y-50762668D01*
X131489424Y-50757938D01*
X131493379Y-50753576D01*
X132242912Y-50004043D01*
X132247274Y-50000088D01*
X132252004Y-49996581D01*
X132257054Y-49993554D01*
X132262377Y-49991036D01*
X132267921Y-49989053D01*
X132273633Y-49987622D01*
X132279457Y-49986758D01*
X132285338Y-49986469D01*
X132291219Y-49986758D01*
G37*
G36*
X131937666Y-49633205D02*
G01*
X131943490Y-49634069D01*
X131949202Y-49635500D01*
X131954746Y-49637483D01*
X131960069Y-49640001D01*
X131965119Y-49643028D01*
X131969849Y-49646535D01*
X131974211Y-49650490D01*
X132059064Y-49735343D01*
X132063019Y-49739705D01*
X132066526Y-49744435D01*
X132069553Y-49749485D01*
X132072071Y-49754808D01*
X132074054Y-49760352D01*
X132075485Y-49766064D01*
X132076349Y-49771888D01*
X132076638Y-49777769D01*
X132076349Y-49783650D01*
X132075485Y-49789474D01*
X132074054Y-49795186D01*
X132072071Y-49800730D01*
X132069553Y-49806053D01*
X132066526Y-49811103D01*
X132063019Y-49815833D01*
X132059064Y-49820195D01*
X131309531Y-50569728D01*
X131305169Y-50573683D01*
X131300439Y-50577190D01*
X131295389Y-50580217D01*
X131290066Y-50582735D01*
X131284522Y-50584718D01*
X131278810Y-50586149D01*
X131272986Y-50587013D01*
X131267105Y-50587302D01*
X131261224Y-50587013D01*
X131255400Y-50586149D01*
X131249688Y-50584718D01*
X131244144Y-50582735D01*
X131238821Y-50580217D01*
X131233771Y-50577190D01*
X131229041Y-50573683D01*
X131224679Y-50569728D01*
X131139826Y-50484875D01*
X131135871Y-50480513D01*
X131132364Y-50475783D01*
X131129337Y-50470733D01*
X131126819Y-50465410D01*
X131124836Y-50459866D01*
X131123405Y-50454154D01*
X131122541Y-50448330D01*
X131122252Y-50442449D01*
X131122541Y-50436568D01*
X131123405Y-50430744D01*
X131124836Y-50425032D01*
X131126819Y-50419488D01*
X131129337Y-50414165D01*
X131132364Y-50409115D01*
X131135871Y-50404385D01*
X131139826Y-50400023D01*
X131889359Y-49650490D01*
X131893721Y-49646535D01*
X131898451Y-49643028D01*
X131903501Y-49640001D01*
X131908824Y-49637483D01*
X131914368Y-49635500D01*
X131920080Y-49634069D01*
X131925904Y-49633205D01*
X131931785Y-49632916D01*
X131937666Y-49633205D01*
G37*
G36*
X131584112Y-49279651D02*
G01*
X131589936Y-49280515D01*
X131595648Y-49281946D01*
X131601192Y-49283929D01*
X131606515Y-49286447D01*
X131611565Y-49289474D01*
X131616295Y-49292981D01*
X131620657Y-49296936D01*
X131705510Y-49381789D01*
X131709465Y-49386151D01*
X131712972Y-49390881D01*
X131715999Y-49395931D01*
X131718517Y-49401254D01*
X131720500Y-49406798D01*
X131721931Y-49412510D01*
X131722795Y-49418334D01*
X131723084Y-49424215D01*
X131722795Y-49430096D01*
X131721931Y-49435920D01*
X131720500Y-49441632D01*
X131718517Y-49447176D01*
X131715999Y-49452499D01*
X131712972Y-49457549D01*
X131709465Y-49462279D01*
X131705510Y-49466641D01*
X130955977Y-50216174D01*
X130951615Y-50220129D01*
X130946885Y-50223636D01*
X130941835Y-50226663D01*
X130936512Y-50229181D01*
X130930968Y-50231164D01*
X130925256Y-50232595D01*
X130919432Y-50233459D01*
X130913551Y-50233748D01*
X130907670Y-50233459D01*
X130901846Y-50232595D01*
X130896134Y-50231164D01*
X130890590Y-50229181D01*
X130885267Y-50226663D01*
X130880217Y-50223636D01*
X130875487Y-50220129D01*
X130871125Y-50216174D01*
X130786272Y-50131321D01*
X130782317Y-50126959D01*
X130778810Y-50122229D01*
X130775783Y-50117179D01*
X130773265Y-50111856D01*
X130771282Y-50106312D01*
X130769851Y-50100600D01*
X130768987Y-50094776D01*
X130768698Y-50088895D01*
X130768987Y-50083014D01*
X130769851Y-50077190D01*
X130771282Y-50071478D01*
X130773265Y-50065934D01*
X130775783Y-50060611D01*
X130778810Y-50055561D01*
X130782317Y-50050831D01*
X130786272Y-50046469D01*
X131535805Y-49296936D01*
X131540167Y-49292981D01*
X131544897Y-49289474D01*
X131549947Y-49286447D01*
X131555270Y-49283929D01*
X131560814Y-49281946D01*
X131566526Y-49280515D01*
X131572350Y-49279651D01*
X131578231Y-49279362D01*
X131584112Y-49279651D01*
G37*
G36*
X131230559Y-48926098D02*
G01*
X131236383Y-48926962D01*
X131242095Y-48928393D01*
X131247639Y-48930376D01*
X131252962Y-48932894D01*
X131258012Y-48935921D01*
X131262742Y-48939428D01*
X131267104Y-48943383D01*
X131351957Y-49028236D01*
X131355912Y-49032598D01*
X131359419Y-49037328D01*
X131362446Y-49042378D01*
X131364964Y-49047701D01*
X131366947Y-49053245D01*
X131368378Y-49058957D01*
X131369242Y-49064781D01*
X131369531Y-49070662D01*
X131369242Y-49076543D01*
X131368378Y-49082367D01*
X131366947Y-49088079D01*
X131364964Y-49093623D01*
X131362446Y-49098946D01*
X131359419Y-49103996D01*
X131355912Y-49108726D01*
X131351957Y-49113088D01*
X130602424Y-49862621D01*
X130598062Y-49866576D01*
X130593332Y-49870083D01*
X130588282Y-49873110D01*
X130582959Y-49875628D01*
X130577415Y-49877611D01*
X130571703Y-49879042D01*
X130565879Y-49879906D01*
X130559998Y-49880195D01*
X130554117Y-49879906D01*
X130548293Y-49879042D01*
X130542581Y-49877611D01*
X130537037Y-49875628D01*
X130531714Y-49873110D01*
X130526664Y-49870083D01*
X130521934Y-49866576D01*
X130517572Y-49862621D01*
X130432719Y-49777768D01*
X130428764Y-49773406D01*
X130425257Y-49768676D01*
X130422230Y-49763626D01*
X130419712Y-49758303D01*
X130417729Y-49752759D01*
X130416298Y-49747047D01*
X130415434Y-49741223D01*
X130415145Y-49735342D01*
X130415434Y-49729461D01*
X130416298Y-49723637D01*
X130417729Y-49717925D01*
X130419712Y-49712381D01*
X130422230Y-49707058D01*
X130425257Y-49702008D01*
X130428764Y-49697278D01*
X130432719Y-49692916D01*
X131182252Y-48943383D01*
X131186614Y-48939428D01*
X131191344Y-48935921D01*
X131196394Y-48932894D01*
X131201717Y-48930376D01*
X131207261Y-48928393D01*
X131212973Y-48926962D01*
X131218797Y-48926098D01*
X131224678Y-48925809D01*
X131230559Y-48926098D01*
G37*
G36*
X130877006Y-48572545D02*
G01*
X130882830Y-48573409D01*
X130888542Y-48574840D01*
X130894086Y-48576823D01*
X130899409Y-48579341D01*
X130904459Y-48582368D01*
X130909189Y-48585875D01*
X130913551Y-48589830D01*
X130998404Y-48674683D01*
X131002359Y-48679045D01*
X131005866Y-48683775D01*
X131008893Y-48688825D01*
X131011411Y-48694148D01*
X131013394Y-48699692D01*
X131014825Y-48705404D01*
X131015689Y-48711228D01*
X131015978Y-48717109D01*
X131015689Y-48722990D01*
X131014825Y-48728814D01*
X131013394Y-48734526D01*
X131011411Y-48740070D01*
X131008893Y-48745393D01*
X131005866Y-48750443D01*
X131002359Y-48755173D01*
X130998404Y-48759535D01*
X130248871Y-49509068D01*
X130244509Y-49513023D01*
X130239779Y-49516530D01*
X130234729Y-49519557D01*
X130229406Y-49522075D01*
X130223862Y-49524058D01*
X130218150Y-49525489D01*
X130212326Y-49526353D01*
X130206445Y-49526642D01*
X130200564Y-49526353D01*
X130194740Y-49525489D01*
X130189028Y-49524058D01*
X130183484Y-49522075D01*
X130178161Y-49519557D01*
X130173111Y-49516530D01*
X130168381Y-49513023D01*
X130164019Y-49509068D01*
X130079166Y-49424215D01*
X130075211Y-49419853D01*
X130071704Y-49415123D01*
X130068677Y-49410073D01*
X130066159Y-49404750D01*
X130064176Y-49399206D01*
X130062745Y-49393494D01*
X130061881Y-49387670D01*
X130061592Y-49381789D01*
X130061881Y-49375908D01*
X130062745Y-49370084D01*
X130064176Y-49364372D01*
X130066159Y-49358828D01*
X130068677Y-49353505D01*
X130071704Y-49348455D01*
X130075211Y-49343725D01*
X130079166Y-49339363D01*
X130828699Y-48589830D01*
X130833061Y-48585875D01*
X130837791Y-48582368D01*
X130842841Y-48579341D01*
X130848164Y-48576823D01*
X130853708Y-48574840D01*
X130859420Y-48573409D01*
X130865244Y-48572545D01*
X130871125Y-48572256D01*
X130877006Y-48572545D01*
G37*
G36*
X130523452Y-48218991D02*
G01*
X130529276Y-48219855D01*
X130534988Y-48221286D01*
X130540532Y-48223269D01*
X130545855Y-48225787D01*
X130550905Y-48228814D01*
X130555635Y-48232321D01*
X130559997Y-48236276D01*
X130644850Y-48321129D01*
X130648805Y-48325491D01*
X130652312Y-48330221D01*
X130655339Y-48335271D01*
X130657857Y-48340594D01*
X130659840Y-48346138D01*
X130661271Y-48351850D01*
X130662135Y-48357674D01*
X130662424Y-48363555D01*
X130662135Y-48369436D01*
X130661271Y-48375260D01*
X130659840Y-48380972D01*
X130657857Y-48386516D01*
X130655339Y-48391839D01*
X130652312Y-48396889D01*
X130648805Y-48401619D01*
X130644850Y-48405981D01*
X129895317Y-49155514D01*
X129890955Y-49159469D01*
X129886225Y-49162976D01*
X129881175Y-49166003D01*
X129875852Y-49168521D01*
X129870308Y-49170504D01*
X129864596Y-49171935D01*
X129858772Y-49172799D01*
X129852891Y-49173088D01*
X129847010Y-49172799D01*
X129841186Y-49171935D01*
X129835474Y-49170504D01*
X129829930Y-49168521D01*
X129824607Y-49166003D01*
X129819557Y-49162976D01*
X129814827Y-49159469D01*
X129810465Y-49155514D01*
X129725612Y-49070661D01*
X129721657Y-49066299D01*
X129718150Y-49061569D01*
X129715123Y-49056519D01*
X129712605Y-49051196D01*
X129710622Y-49045652D01*
X129709191Y-49039940D01*
X129708327Y-49034116D01*
X129708038Y-49028235D01*
X129708327Y-49022354D01*
X129709191Y-49016530D01*
X129710622Y-49010818D01*
X129712605Y-49005274D01*
X129715123Y-48999951D01*
X129718150Y-48994901D01*
X129721657Y-48990171D01*
X129725612Y-48985809D01*
X130475145Y-48236276D01*
X130479507Y-48232321D01*
X130484237Y-48228814D01*
X130489287Y-48225787D01*
X130494610Y-48223269D01*
X130500154Y-48221286D01*
X130505866Y-48219855D01*
X130511690Y-48218991D01*
X130517571Y-48218702D01*
X130523452Y-48218991D01*
G37*
G36*
X130169899Y-47865438D02*
G01*
X130175723Y-47866302D01*
X130181435Y-47867733D01*
X130186979Y-47869716D01*
X130192302Y-47872234D01*
X130197352Y-47875261D01*
X130202082Y-47878768D01*
X130206444Y-47882723D01*
X130291297Y-47967576D01*
X130295252Y-47971938D01*
X130298759Y-47976668D01*
X130301786Y-47981718D01*
X130304304Y-47987041D01*
X130306287Y-47992585D01*
X130307718Y-47998297D01*
X130308582Y-48004121D01*
X130308871Y-48010002D01*
X130308582Y-48015883D01*
X130307718Y-48021707D01*
X130306287Y-48027419D01*
X130304304Y-48032963D01*
X130301786Y-48038286D01*
X130298759Y-48043336D01*
X130295252Y-48048066D01*
X130291297Y-48052428D01*
X129541764Y-48801961D01*
X129537402Y-48805916D01*
X129532672Y-48809423D01*
X129527622Y-48812450D01*
X129522299Y-48814968D01*
X129516755Y-48816951D01*
X129511043Y-48818382D01*
X129505219Y-48819246D01*
X129499338Y-48819535D01*
X129493457Y-48819246D01*
X129487633Y-48818382D01*
X129481921Y-48816951D01*
X129476377Y-48814968D01*
X129471054Y-48812450D01*
X129466004Y-48809423D01*
X129461274Y-48805916D01*
X129456912Y-48801961D01*
X129372059Y-48717108D01*
X129368104Y-48712746D01*
X129364597Y-48708016D01*
X129361570Y-48702966D01*
X129359052Y-48697643D01*
X129357069Y-48692099D01*
X129355638Y-48686387D01*
X129354774Y-48680563D01*
X129354485Y-48674682D01*
X129354774Y-48668801D01*
X129355638Y-48662977D01*
X129357069Y-48657265D01*
X129359052Y-48651721D01*
X129361570Y-48646398D01*
X129364597Y-48641348D01*
X129368104Y-48636618D01*
X129372059Y-48632256D01*
X130121592Y-47882723D01*
X130125954Y-47878768D01*
X130130684Y-47875261D01*
X130135734Y-47872234D01*
X130141057Y-47869716D01*
X130146601Y-47867733D01*
X130152313Y-47866302D01*
X130158137Y-47865438D01*
X130164018Y-47865149D01*
X130169899Y-47865438D01*
G37*
G36*
X129816345Y-47511884D02*
G01*
X129822169Y-47512748D01*
X129827881Y-47514179D01*
X129833425Y-47516162D01*
X129838748Y-47518680D01*
X129843798Y-47521707D01*
X129848528Y-47525214D01*
X129852890Y-47529169D01*
X129937743Y-47614022D01*
X129941698Y-47618384D01*
X129945205Y-47623114D01*
X129948232Y-47628164D01*
X129950750Y-47633487D01*
X129952733Y-47639031D01*
X129954164Y-47644743D01*
X129955028Y-47650567D01*
X129955317Y-47656448D01*
X129955028Y-47662329D01*
X129954164Y-47668153D01*
X129952733Y-47673865D01*
X129950750Y-47679409D01*
X129948232Y-47684732D01*
X129945205Y-47689782D01*
X129941698Y-47694512D01*
X129937743Y-47698874D01*
X129188210Y-48448407D01*
X129183848Y-48452362D01*
X129179118Y-48455869D01*
X129174068Y-48458896D01*
X129168745Y-48461414D01*
X129163201Y-48463397D01*
X129157489Y-48464828D01*
X129151665Y-48465692D01*
X129145784Y-48465981D01*
X129139903Y-48465692D01*
X129134079Y-48464828D01*
X129128367Y-48463397D01*
X129122823Y-48461414D01*
X129117500Y-48458896D01*
X129112450Y-48455869D01*
X129107720Y-48452362D01*
X129103358Y-48448407D01*
X129018505Y-48363554D01*
X129014550Y-48359192D01*
X129011043Y-48354462D01*
X129008016Y-48349412D01*
X129005498Y-48344089D01*
X129003515Y-48338545D01*
X129002084Y-48332833D01*
X129001220Y-48327009D01*
X129000931Y-48321128D01*
X129001220Y-48315247D01*
X129002084Y-48309423D01*
X129003515Y-48303711D01*
X129005498Y-48298167D01*
X129008016Y-48292844D01*
X129011043Y-48287794D01*
X129014550Y-48283064D01*
X129018505Y-48278702D01*
X129768038Y-47529169D01*
X129772400Y-47525214D01*
X129777130Y-47521707D01*
X129782180Y-47518680D01*
X129787503Y-47516162D01*
X129793047Y-47514179D01*
X129798759Y-47512748D01*
X129804583Y-47511884D01*
X129810464Y-47511595D01*
X129816345Y-47511884D01*
G37*
G36*
X129151665Y-45514308D02*
G01*
X129157489Y-45515172D01*
X129163201Y-45516603D01*
X129168745Y-45518586D01*
X129174068Y-45521104D01*
X129179118Y-45524131D01*
X129183848Y-45527638D01*
X129188210Y-45531593D01*
X129937743Y-46281126D01*
X129941698Y-46285488D01*
X129945205Y-46290218D01*
X129948232Y-46295268D01*
X129950750Y-46300591D01*
X129952733Y-46306135D01*
X129954164Y-46311847D01*
X129955028Y-46317671D01*
X129955317Y-46323552D01*
X129955028Y-46329433D01*
X129954164Y-46335257D01*
X129952733Y-46340969D01*
X129950750Y-46346513D01*
X129948232Y-46351836D01*
X129945205Y-46356886D01*
X129941698Y-46361616D01*
X129937743Y-46365978D01*
X129852890Y-46450831D01*
X129848528Y-46454786D01*
X129843798Y-46458293D01*
X129838748Y-46461320D01*
X129833425Y-46463838D01*
X129827881Y-46465821D01*
X129822169Y-46467252D01*
X129816345Y-46468116D01*
X129810464Y-46468405D01*
X129804583Y-46468116D01*
X129798759Y-46467252D01*
X129793047Y-46465821D01*
X129787503Y-46463838D01*
X129782180Y-46461320D01*
X129777130Y-46458293D01*
X129772400Y-46454786D01*
X129768038Y-46450831D01*
X129018505Y-45701298D01*
X129014550Y-45696936D01*
X129011043Y-45692206D01*
X129008016Y-45687156D01*
X129005498Y-45681833D01*
X129003515Y-45676289D01*
X129002084Y-45670577D01*
X129001220Y-45664753D01*
X129000931Y-45658872D01*
X129001220Y-45652991D01*
X129002084Y-45647167D01*
X129003515Y-45641455D01*
X129005498Y-45635911D01*
X129008016Y-45630588D01*
X129011043Y-45625538D01*
X129014550Y-45620808D01*
X129018505Y-45616446D01*
X129103358Y-45531593D01*
X129107720Y-45527638D01*
X129112450Y-45524131D01*
X129117500Y-45521104D01*
X129122823Y-45518586D01*
X129128367Y-45516603D01*
X129134079Y-45515172D01*
X129139903Y-45514308D01*
X129145784Y-45514019D01*
X129151665Y-45514308D01*
G37*
G36*
X129505219Y-45160754D02*
G01*
X129511043Y-45161618D01*
X129516755Y-45163049D01*
X129522299Y-45165032D01*
X129527622Y-45167550D01*
X129532672Y-45170577D01*
X129537402Y-45174084D01*
X129541764Y-45178039D01*
X130291297Y-45927572D01*
X130295252Y-45931934D01*
X130298759Y-45936664D01*
X130301786Y-45941714D01*
X130304304Y-45947037D01*
X130306287Y-45952581D01*
X130307718Y-45958293D01*
X130308582Y-45964117D01*
X130308871Y-45969998D01*
X130308582Y-45975879D01*
X130307718Y-45981703D01*
X130306287Y-45987415D01*
X130304304Y-45992959D01*
X130301786Y-45998282D01*
X130298759Y-46003332D01*
X130295252Y-46008062D01*
X130291297Y-46012424D01*
X130206444Y-46097277D01*
X130202082Y-46101232D01*
X130197352Y-46104739D01*
X130192302Y-46107766D01*
X130186979Y-46110284D01*
X130181435Y-46112267D01*
X130175723Y-46113698D01*
X130169899Y-46114562D01*
X130164018Y-46114851D01*
X130158137Y-46114562D01*
X130152313Y-46113698D01*
X130146601Y-46112267D01*
X130141057Y-46110284D01*
X130135734Y-46107766D01*
X130130684Y-46104739D01*
X130125954Y-46101232D01*
X130121592Y-46097277D01*
X129372059Y-45347744D01*
X129368104Y-45343382D01*
X129364597Y-45338652D01*
X129361570Y-45333602D01*
X129359052Y-45328279D01*
X129357069Y-45322735D01*
X129355638Y-45317023D01*
X129354774Y-45311199D01*
X129354485Y-45305318D01*
X129354774Y-45299437D01*
X129355638Y-45293613D01*
X129357069Y-45287901D01*
X129359052Y-45282357D01*
X129361570Y-45277034D01*
X129364597Y-45271984D01*
X129368104Y-45267254D01*
X129372059Y-45262892D01*
X129456912Y-45178039D01*
X129461274Y-45174084D01*
X129466004Y-45170577D01*
X129471054Y-45167550D01*
X129476377Y-45165032D01*
X129481921Y-45163049D01*
X129487633Y-45161618D01*
X129493457Y-45160754D01*
X129499338Y-45160465D01*
X129505219Y-45160754D01*
G37*
G36*
X129858772Y-44807201D02*
G01*
X129864596Y-44808065D01*
X129870308Y-44809496D01*
X129875852Y-44811479D01*
X129881175Y-44813997D01*
X129886225Y-44817024D01*
X129890955Y-44820531D01*
X129895317Y-44824486D01*
X130644850Y-45574019D01*
X130648805Y-45578381D01*
X130652312Y-45583111D01*
X130655339Y-45588161D01*
X130657857Y-45593484D01*
X130659840Y-45599028D01*
X130661271Y-45604740D01*
X130662135Y-45610564D01*
X130662424Y-45616445D01*
X130662135Y-45622326D01*
X130661271Y-45628150D01*
X130659840Y-45633862D01*
X130657857Y-45639406D01*
X130655339Y-45644729D01*
X130652312Y-45649779D01*
X130648805Y-45654509D01*
X130644850Y-45658871D01*
X130559997Y-45743724D01*
X130555635Y-45747679D01*
X130550905Y-45751186D01*
X130545855Y-45754213D01*
X130540532Y-45756731D01*
X130534988Y-45758714D01*
X130529276Y-45760145D01*
X130523452Y-45761009D01*
X130517571Y-45761298D01*
X130511690Y-45761009D01*
X130505866Y-45760145D01*
X130500154Y-45758714D01*
X130494610Y-45756731D01*
X130489287Y-45754213D01*
X130484237Y-45751186D01*
X130479507Y-45747679D01*
X130475145Y-45743724D01*
X129725612Y-44994191D01*
X129721657Y-44989829D01*
X129718150Y-44985099D01*
X129715123Y-44980049D01*
X129712605Y-44974726D01*
X129710622Y-44969182D01*
X129709191Y-44963470D01*
X129708327Y-44957646D01*
X129708038Y-44951765D01*
X129708327Y-44945884D01*
X129709191Y-44940060D01*
X129710622Y-44934348D01*
X129712605Y-44928804D01*
X129715123Y-44923481D01*
X129718150Y-44918431D01*
X129721657Y-44913701D01*
X129725612Y-44909339D01*
X129810465Y-44824486D01*
X129814827Y-44820531D01*
X129819557Y-44817024D01*
X129824607Y-44813997D01*
X129829930Y-44811479D01*
X129835474Y-44809496D01*
X129841186Y-44808065D01*
X129847010Y-44807201D01*
X129852891Y-44806912D01*
X129858772Y-44807201D01*
G37*
G36*
X130212326Y-44453647D02*
G01*
X130218150Y-44454511D01*
X130223862Y-44455942D01*
X130229406Y-44457925D01*
X130234729Y-44460443D01*
X130239779Y-44463470D01*
X130244509Y-44466977D01*
X130248871Y-44470932D01*
X130998404Y-45220465D01*
X131002359Y-45224827D01*
X131005866Y-45229557D01*
X131008893Y-45234607D01*
X131011411Y-45239930D01*
X131013394Y-45245474D01*
X131014825Y-45251186D01*
X131015689Y-45257010D01*
X131015978Y-45262891D01*
X131015689Y-45268772D01*
X131014825Y-45274596D01*
X131013394Y-45280308D01*
X131011411Y-45285852D01*
X131008893Y-45291175D01*
X131005866Y-45296225D01*
X131002359Y-45300955D01*
X130998404Y-45305317D01*
X130913551Y-45390170D01*
X130909189Y-45394125D01*
X130904459Y-45397632D01*
X130899409Y-45400659D01*
X130894086Y-45403177D01*
X130888542Y-45405160D01*
X130882830Y-45406591D01*
X130877006Y-45407455D01*
X130871125Y-45407744D01*
X130865244Y-45407455D01*
X130859420Y-45406591D01*
X130853708Y-45405160D01*
X130848164Y-45403177D01*
X130842841Y-45400659D01*
X130837791Y-45397632D01*
X130833061Y-45394125D01*
X130828699Y-45390170D01*
X130079166Y-44640637D01*
X130075211Y-44636275D01*
X130071704Y-44631545D01*
X130068677Y-44626495D01*
X130066159Y-44621172D01*
X130064176Y-44615628D01*
X130062745Y-44609916D01*
X130061881Y-44604092D01*
X130061592Y-44598211D01*
X130061881Y-44592330D01*
X130062745Y-44586506D01*
X130064176Y-44580794D01*
X130066159Y-44575250D01*
X130068677Y-44569927D01*
X130071704Y-44564877D01*
X130075211Y-44560147D01*
X130079166Y-44555785D01*
X130164019Y-44470932D01*
X130168381Y-44466977D01*
X130173111Y-44463470D01*
X130178161Y-44460443D01*
X130183484Y-44457925D01*
X130189028Y-44455942D01*
X130194740Y-44454511D01*
X130200564Y-44453647D01*
X130206445Y-44453358D01*
X130212326Y-44453647D01*
G37*
G36*
X130565879Y-44100094D02*
G01*
X130571703Y-44100958D01*
X130577415Y-44102389D01*
X130582959Y-44104372D01*
X130588282Y-44106890D01*
X130593332Y-44109917D01*
X130598062Y-44113424D01*
X130602424Y-44117379D01*
X131351957Y-44866912D01*
X131355912Y-44871274D01*
X131359419Y-44876004D01*
X131362446Y-44881054D01*
X131364964Y-44886377D01*
X131366947Y-44891921D01*
X131368378Y-44897633D01*
X131369242Y-44903457D01*
X131369531Y-44909338D01*
X131369242Y-44915219D01*
X131368378Y-44921043D01*
X131366947Y-44926755D01*
X131364964Y-44932299D01*
X131362446Y-44937622D01*
X131359419Y-44942672D01*
X131355912Y-44947402D01*
X131351957Y-44951764D01*
X131267104Y-45036617D01*
X131262742Y-45040572D01*
X131258012Y-45044079D01*
X131252962Y-45047106D01*
X131247639Y-45049624D01*
X131242095Y-45051607D01*
X131236383Y-45053038D01*
X131230559Y-45053902D01*
X131224678Y-45054191D01*
X131218797Y-45053902D01*
X131212973Y-45053038D01*
X131207261Y-45051607D01*
X131201717Y-45049624D01*
X131196394Y-45047106D01*
X131191344Y-45044079D01*
X131186614Y-45040572D01*
X131182252Y-45036617D01*
X130432719Y-44287084D01*
X130428764Y-44282722D01*
X130425257Y-44277992D01*
X130422230Y-44272942D01*
X130419712Y-44267619D01*
X130417729Y-44262075D01*
X130416298Y-44256363D01*
X130415434Y-44250539D01*
X130415145Y-44244658D01*
X130415434Y-44238777D01*
X130416298Y-44232953D01*
X130417729Y-44227241D01*
X130419712Y-44221697D01*
X130422230Y-44216374D01*
X130425257Y-44211324D01*
X130428764Y-44206594D01*
X130432719Y-44202232D01*
X130517572Y-44117379D01*
X130521934Y-44113424D01*
X130526664Y-44109917D01*
X130531714Y-44106890D01*
X130537037Y-44104372D01*
X130542581Y-44102389D01*
X130548293Y-44100958D01*
X130554117Y-44100094D01*
X130559998Y-44099805D01*
X130565879Y-44100094D01*
G37*
G36*
X130919432Y-43746541D02*
G01*
X130925256Y-43747405D01*
X130930968Y-43748836D01*
X130936512Y-43750819D01*
X130941835Y-43753337D01*
X130946885Y-43756364D01*
X130951615Y-43759871D01*
X130955977Y-43763826D01*
X131705510Y-44513359D01*
X131709465Y-44517721D01*
X131712972Y-44522451D01*
X131715999Y-44527501D01*
X131718517Y-44532824D01*
X131720500Y-44538368D01*
X131721931Y-44544080D01*
X131722795Y-44549904D01*
X131723084Y-44555785D01*
X131722795Y-44561666D01*
X131721931Y-44567490D01*
X131720500Y-44573202D01*
X131718517Y-44578746D01*
X131715999Y-44584069D01*
X131712972Y-44589119D01*
X131709465Y-44593849D01*
X131705510Y-44598211D01*
X131620657Y-44683064D01*
X131616295Y-44687019D01*
X131611565Y-44690526D01*
X131606515Y-44693553D01*
X131601192Y-44696071D01*
X131595648Y-44698054D01*
X131589936Y-44699485D01*
X131584112Y-44700349D01*
X131578231Y-44700638D01*
X131572350Y-44700349D01*
X131566526Y-44699485D01*
X131560814Y-44698054D01*
X131555270Y-44696071D01*
X131549947Y-44693553D01*
X131544897Y-44690526D01*
X131540167Y-44687019D01*
X131535805Y-44683064D01*
X130786272Y-43933531D01*
X130782317Y-43929169D01*
X130778810Y-43924439D01*
X130775783Y-43919389D01*
X130773265Y-43914066D01*
X130771282Y-43908522D01*
X130769851Y-43902810D01*
X130768987Y-43896986D01*
X130768698Y-43891105D01*
X130768987Y-43885224D01*
X130769851Y-43879400D01*
X130771282Y-43873688D01*
X130773265Y-43868144D01*
X130775783Y-43862821D01*
X130778810Y-43857771D01*
X130782317Y-43853041D01*
X130786272Y-43848679D01*
X130871125Y-43763826D01*
X130875487Y-43759871D01*
X130880217Y-43756364D01*
X130885267Y-43753337D01*
X130890590Y-43750819D01*
X130896134Y-43748836D01*
X130901846Y-43747405D01*
X130907670Y-43746541D01*
X130913551Y-43746252D01*
X130919432Y-43746541D01*
G37*
G36*
X131272986Y-43392987D02*
G01*
X131278810Y-43393851D01*
X131284522Y-43395282D01*
X131290066Y-43397265D01*
X131295389Y-43399783D01*
X131300439Y-43402810D01*
X131305169Y-43406317D01*
X131309531Y-43410272D01*
X132059064Y-44159805D01*
X132063019Y-44164167D01*
X132066526Y-44168897D01*
X132069553Y-44173947D01*
X132072071Y-44179270D01*
X132074054Y-44184814D01*
X132075485Y-44190526D01*
X132076349Y-44196350D01*
X132076638Y-44202231D01*
X132076349Y-44208112D01*
X132075485Y-44213936D01*
X132074054Y-44219648D01*
X132072071Y-44225192D01*
X132069553Y-44230515D01*
X132066526Y-44235565D01*
X132063019Y-44240295D01*
X132059064Y-44244657D01*
X131974211Y-44329510D01*
X131969849Y-44333465D01*
X131965119Y-44336972D01*
X131960069Y-44339999D01*
X131954746Y-44342517D01*
X131949202Y-44344500D01*
X131943490Y-44345931D01*
X131937666Y-44346795D01*
X131931785Y-44347084D01*
X131925904Y-44346795D01*
X131920080Y-44345931D01*
X131914368Y-44344500D01*
X131908824Y-44342517D01*
X131903501Y-44339999D01*
X131898451Y-44336972D01*
X131893721Y-44333465D01*
X131889359Y-44329510D01*
X131139826Y-43579977D01*
X131135871Y-43575615D01*
X131132364Y-43570885D01*
X131129337Y-43565835D01*
X131126819Y-43560512D01*
X131124836Y-43554968D01*
X131123405Y-43549256D01*
X131122541Y-43543432D01*
X131122252Y-43537551D01*
X131122541Y-43531670D01*
X131123405Y-43525846D01*
X131124836Y-43520134D01*
X131126819Y-43514590D01*
X131129337Y-43509267D01*
X131132364Y-43504217D01*
X131135871Y-43499487D01*
X131139826Y-43495125D01*
X131224679Y-43410272D01*
X131229041Y-43406317D01*
X131233771Y-43402810D01*
X131238821Y-43399783D01*
X131244144Y-43397265D01*
X131249688Y-43395282D01*
X131255400Y-43393851D01*
X131261224Y-43392987D01*
X131267105Y-43392698D01*
X131272986Y-43392987D01*
G37*
G36*
X131626539Y-43039434D02*
G01*
X131632363Y-43040298D01*
X131638075Y-43041729D01*
X131643619Y-43043712D01*
X131648942Y-43046230D01*
X131653992Y-43049257D01*
X131658722Y-43052764D01*
X131663084Y-43056719D01*
X132412617Y-43806252D01*
X132416572Y-43810614D01*
X132420079Y-43815344D01*
X132423106Y-43820394D01*
X132425624Y-43825717D01*
X132427607Y-43831261D01*
X132429038Y-43836973D01*
X132429902Y-43842797D01*
X132430191Y-43848678D01*
X132429902Y-43854559D01*
X132429038Y-43860383D01*
X132427607Y-43866095D01*
X132425624Y-43871639D01*
X132423106Y-43876962D01*
X132420079Y-43882012D01*
X132416572Y-43886742D01*
X132412617Y-43891104D01*
X132327764Y-43975957D01*
X132323402Y-43979912D01*
X132318672Y-43983419D01*
X132313622Y-43986446D01*
X132308299Y-43988964D01*
X132302755Y-43990947D01*
X132297043Y-43992378D01*
X132291219Y-43993242D01*
X132285338Y-43993531D01*
X132279457Y-43993242D01*
X132273633Y-43992378D01*
X132267921Y-43990947D01*
X132262377Y-43988964D01*
X132257054Y-43986446D01*
X132252004Y-43983419D01*
X132247274Y-43979912D01*
X132242912Y-43975957D01*
X131493379Y-43226424D01*
X131489424Y-43222062D01*
X131485917Y-43217332D01*
X131482890Y-43212282D01*
X131480372Y-43206959D01*
X131478389Y-43201415D01*
X131476958Y-43195703D01*
X131476094Y-43189879D01*
X131475805Y-43183998D01*
X131476094Y-43178117D01*
X131476958Y-43172293D01*
X131478389Y-43166581D01*
X131480372Y-43161037D01*
X131482890Y-43155714D01*
X131485917Y-43150664D01*
X131489424Y-43145934D01*
X131493379Y-43141572D01*
X131578232Y-43056719D01*
X131582594Y-43052764D01*
X131587324Y-43049257D01*
X131592374Y-43046230D01*
X131597697Y-43043712D01*
X131603241Y-43041729D01*
X131608953Y-43040298D01*
X131614777Y-43039434D01*
X131620658Y-43039145D01*
X131626539Y-43039434D01*
G37*
G36*
X131980092Y-42685881D02*
G01*
X131985916Y-42686745D01*
X131991628Y-42688176D01*
X131997172Y-42690159D01*
X132002495Y-42692677D01*
X132007545Y-42695704D01*
X132012275Y-42699211D01*
X132016637Y-42703166D01*
X132766170Y-43452699D01*
X132770125Y-43457061D01*
X132773632Y-43461791D01*
X132776659Y-43466841D01*
X132779177Y-43472164D01*
X132781160Y-43477708D01*
X132782591Y-43483420D01*
X132783455Y-43489244D01*
X132783744Y-43495125D01*
X132783455Y-43501006D01*
X132782591Y-43506830D01*
X132781160Y-43512542D01*
X132779177Y-43518086D01*
X132776659Y-43523409D01*
X132773632Y-43528459D01*
X132770125Y-43533189D01*
X132766170Y-43537551D01*
X132681317Y-43622404D01*
X132676955Y-43626359D01*
X132672225Y-43629866D01*
X132667175Y-43632893D01*
X132661852Y-43635411D01*
X132656308Y-43637394D01*
X132650596Y-43638825D01*
X132644772Y-43639689D01*
X132638891Y-43639978D01*
X132633010Y-43639689D01*
X132627186Y-43638825D01*
X132621474Y-43637394D01*
X132615930Y-43635411D01*
X132610607Y-43632893D01*
X132605557Y-43629866D01*
X132600827Y-43626359D01*
X132596465Y-43622404D01*
X131846932Y-42872871D01*
X131842977Y-42868509D01*
X131839470Y-42863779D01*
X131836443Y-42858729D01*
X131833925Y-42853406D01*
X131831942Y-42847862D01*
X131830511Y-42842150D01*
X131829647Y-42836326D01*
X131829358Y-42830445D01*
X131829647Y-42824564D01*
X131830511Y-42818740D01*
X131831942Y-42813028D01*
X131833925Y-42807484D01*
X131836443Y-42802161D01*
X131839470Y-42797111D01*
X131842977Y-42792381D01*
X131846932Y-42788019D01*
X131931785Y-42703166D01*
X131936147Y-42699211D01*
X131940877Y-42695704D01*
X131945927Y-42692677D01*
X131951250Y-42690159D01*
X131956794Y-42688176D01*
X131962506Y-42686745D01*
X131968330Y-42685881D01*
X131974211Y-42685592D01*
X131980092Y-42685881D01*
G37*
G36*
X132333646Y-42332327D02*
G01*
X132339470Y-42333191D01*
X132345182Y-42334622D01*
X132350726Y-42336605D01*
X132356049Y-42339123D01*
X132361099Y-42342150D01*
X132365829Y-42345657D01*
X132370191Y-42349612D01*
X133119724Y-43099145D01*
X133123679Y-43103507D01*
X133127186Y-43108237D01*
X133130213Y-43113287D01*
X133132731Y-43118610D01*
X133134714Y-43124154D01*
X133136145Y-43129866D01*
X133137009Y-43135690D01*
X133137298Y-43141571D01*
X133137009Y-43147452D01*
X133136145Y-43153276D01*
X133134714Y-43158988D01*
X133132731Y-43164532D01*
X133130213Y-43169855D01*
X133127186Y-43174905D01*
X133123679Y-43179635D01*
X133119724Y-43183997D01*
X133034871Y-43268850D01*
X133030509Y-43272805D01*
X133025779Y-43276312D01*
X133020729Y-43279339D01*
X133015406Y-43281857D01*
X133009862Y-43283840D01*
X133004150Y-43285271D01*
X132998326Y-43286135D01*
X132992445Y-43286424D01*
X132986564Y-43286135D01*
X132980740Y-43285271D01*
X132975028Y-43283840D01*
X132969484Y-43281857D01*
X132964161Y-43279339D01*
X132959111Y-43276312D01*
X132954381Y-43272805D01*
X132950019Y-43268850D01*
X132200486Y-42519317D01*
X132196531Y-42514955D01*
X132193024Y-42510225D01*
X132189997Y-42505175D01*
X132187479Y-42499852D01*
X132185496Y-42494308D01*
X132184065Y-42488596D01*
X132183201Y-42482772D01*
X132182912Y-42476891D01*
X132183201Y-42471010D01*
X132184065Y-42465186D01*
X132185496Y-42459474D01*
X132187479Y-42453930D01*
X132189997Y-42448607D01*
X132193024Y-42443557D01*
X132196531Y-42438827D01*
X132200486Y-42434465D01*
X132285339Y-42349612D01*
X132289701Y-42345657D01*
X132294431Y-42342150D01*
X132299481Y-42339123D01*
X132304804Y-42336605D01*
X132310348Y-42334622D01*
X132316060Y-42333191D01*
X132321884Y-42332327D01*
X132327765Y-42332038D01*
X132333646Y-42332327D01*
G37*
G36*
X132687199Y-41978774D02*
G01*
X132693023Y-41979638D01*
X132698735Y-41981069D01*
X132704279Y-41983052D01*
X132709602Y-41985570D01*
X132714652Y-41988597D01*
X132719382Y-41992104D01*
X132723744Y-41996059D01*
X133473277Y-42745592D01*
X133477232Y-42749954D01*
X133480739Y-42754684D01*
X133483766Y-42759734D01*
X133486284Y-42765057D01*
X133488267Y-42770601D01*
X133489698Y-42776313D01*
X133490562Y-42782137D01*
X133490851Y-42788018D01*
X133490562Y-42793899D01*
X133489698Y-42799723D01*
X133488267Y-42805435D01*
X133486284Y-42810979D01*
X133483766Y-42816302D01*
X133480739Y-42821352D01*
X133477232Y-42826082D01*
X133473277Y-42830444D01*
X133388424Y-42915297D01*
X133384062Y-42919252D01*
X133379332Y-42922759D01*
X133374282Y-42925786D01*
X133368959Y-42928304D01*
X133363415Y-42930287D01*
X133357703Y-42931718D01*
X133351879Y-42932582D01*
X133345998Y-42932871D01*
X133340117Y-42932582D01*
X133334293Y-42931718D01*
X133328581Y-42930287D01*
X133323037Y-42928304D01*
X133317714Y-42925786D01*
X133312664Y-42922759D01*
X133307934Y-42919252D01*
X133303572Y-42915297D01*
X132554039Y-42165764D01*
X132550084Y-42161402D01*
X132546577Y-42156672D01*
X132543550Y-42151622D01*
X132541032Y-42146299D01*
X132539049Y-42140755D01*
X132537618Y-42135043D01*
X132536754Y-42129219D01*
X132536465Y-42123338D01*
X132536754Y-42117457D01*
X132537618Y-42111633D01*
X132539049Y-42105921D01*
X132541032Y-42100377D01*
X132543550Y-42095054D01*
X132546577Y-42090004D01*
X132550084Y-42085274D01*
X132554039Y-42080912D01*
X132638892Y-41996059D01*
X132643254Y-41992104D01*
X132647984Y-41988597D01*
X132653034Y-41985570D01*
X132658357Y-41983052D01*
X132663901Y-41981069D01*
X132669613Y-41979638D01*
X132675437Y-41978774D01*
X132681318Y-41978485D01*
X132687199Y-41978774D01*
G37*
G36*
X133040753Y-41625220D02*
G01*
X133046577Y-41626084D01*
X133052289Y-41627515D01*
X133057833Y-41629498D01*
X133063156Y-41632016D01*
X133068206Y-41635043D01*
X133072936Y-41638550D01*
X133077298Y-41642505D01*
X133826831Y-42392038D01*
X133830786Y-42396400D01*
X133834293Y-42401130D01*
X133837320Y-42406180D01*
X133839838Y-42411503D01*
X133841821Y-42417047D01*
X133843252Y-42422759D01*
X133844116Y-42428583D01*
X133844405Y-42434464D01*
X133844116Y-42440345D01*
X133843252Y-42446169D01*
X133841821Y-42451881D01*
X133839838Y-42457425D01*
X133837320Y-42462748D01*
X133834293Y-42467798D01*
X133830786Y-42472528D01*
X133826831Y-42476890D01*
X133741978Y-42561743D01*
X133737616Y-42565698D01*
X133732886Y-42569205D01*
X133727836Y-42572232D01*
X133722513Y-42574750D01*
X133716969Y-42576733D01*
X133711257Y-42578164D01*
X133705433Y-42579028D01*
X133699552Y-42579317D01*
X133693671Y-42579028D01*
X133687847Y-42578164D01*
X133682135Y-42576733D01*
X133676591Y-42574750D01*
X133671268Y-42572232D01*
X133666218Y-42569205D01*
X133661488Y-42565698D01*
X133657126Y-42561743D01*
X132907593Y-41812210D01*
X132903638Y-41807848D01*
X132900131Y-41803118D01*
X132897104Y-41798068D01*
X132894586Y-41792745D01*
X132892603Y-41787201D01*
X132891172Y-41781489D01*
X132890308Y-41775665D01*
X132890019Y-41769784D01*
X132890308Y-41763903D01*
X132891172Y-41758079D01*
X132892603Y-41752367D01*
X132894586Y-41746823D01*
X132897104Y-41741500D01*
X132900131Y-41736450D01*
X132903638Y-41731720D01*
X132907593Y-41727358D01*
X132992446Y-41642505D01*
X132996808Y-41638550D01*
X133001538Y-41635043D01*
X133006588Y-41632016D01*
X133011911Y-41629498D01*
X133017455Y-41627515D01*
X133023167Y-41626084D01*
X133028991Y-41625220D01*
X133034872Y-41624931D01*
X133040753Y-41625220D01*
G37*
G36*
X135703009Y-41625220D02*
G01*
X135708833Y-41626084D01*
X135714545Y-41627515D01*
X135720089Y-41629498D01*
X135725412Y-41632016D01*
X135730462Y-41635043D01*
X135735192Y-41638550D01*
X135739554Y-41642505D01*
X135824407Y-41727358D01*
X135828362Y-41731720D01*
X135831869Y-41736450D01*
X135834896Y-41741500D01*
X135837414Y-41746823D01*
X135839397Y-41752367D01*
X135840828Y-41758079D01*
X135841692Y-41763903D01*
X135841981Y-41769784D01*
X135841692Y-41775665D01*
X135840828Y-41781489D01*
X135839397Y-41787201D01*
X135837414Y-41792745D01*
X135834896Y-41798068D01*
X135831869Y-41803118D01*
X135828362Y-41807848D01*
X135824407Y-41812210D01*
X135074874Y-42561743D01*
X135070512Y-42565698D01*
X135065782Y-42569205D01*
X135060732Y-42572232D01*
X135055409Y-42574750D01*
X135049865Y-42576733D01*
X135044153Y-42578164D01*
X135038329Y-42579028D01*
X135032448Y-42579317D01*
X135026567Y-42579028D01*
X135020743Y-42578164D01*
X135015031Y-42576733D01*
X135009487Y-42574750D01*
X135004164Y-42572232D01*
X134999114Y-42569205D01*
X134994384Y-42565698D01*
X134990022Y-42561743D01*
X134905169Y-42476890D01*
X134901214Y-42472528D01*
X134897707Y-42467798D01*
X134894680Y-42462748D01*
X134892162Y-42457425D01*
X134890179Y-42451881D01*
X134888748Y-42446169D01*
X134887884Y-42440345D01*
X134887595Y-42434464D01*
X134887884Y-42428583D01*
X134888748Y-42422759D01*
X134890179Y-42417047D01*
X134892162Y-42411503D01*
X134894680Y-42406180D01*
X134897707Y-42401130D01*
X134901214Y-42396400D01*
X134905169Y-42392038D01*
X135654702Y-41642505D01*
X135659064Y-41638550D01*
X135663794Y-41635043D01*
X135668844Y-41632016D01*
X135674167Y-41629498D01*
X135679711Y-41627515D01*
X135685423Y-41626084D01*
X135691247Y-41625220D01*
X135697128Y-41624931D01*
X135703009Y-41625220D01*
G37*
G36*
X136056563Y-41978774D02*
G01*
X136062387Y-41979638D01*
X136068099Y-41981069D01*
X136073643Y-41983052D01*
X136078966Y-41985570D01*
X136084016Y-41988597D01*
X136088746Y-41992104D01*
X136093108Y-41996059D01*
X136177961Y-42080912D01*
X136181916Y-42085274D01*
X136185423Y-42090004D01*
X136188450Y-42095054D01*
X136190968Y-42100377D01*
X136192951Y-42105921D01*
X136194382Y-42111633D01*
X136195246Y-42117457D01*
X136195535Y-42123338D01*
X136195246Y-42129219D01*
X136194382Y-42135043D01*
X136192951Y-42140755D01*
X136190968Y-42146299D01*
X136188450Y-42151622D01*
X136185423Y-42156672D01*
X136181916Y-42161402D01*
X136177961Y-42165764D01*
X135428428Y-42915297D01*
X135424066Y-42919252D01*
X135419336Y-42922759D01*
X135414286Y-42925786D01*
X135408963Y-42928304D01*
X135403419Y-42930287D01*
X135397707Y-42931718D01*
X135391883Y-42932582D01*
X135386002Y-42932871D01*
X135380121Y-42932582D01*
X135374297Y-42931718D01*
X135368585Y-42930287D01*
X135363041Y-42928304D01*
X135357718Y-42925786D01*
X135352668Y-42922759D01*
X135347938Y-42919252D01*
X135343576Y-42915297D01*
X135258723Y-42830444D01*
X135254768Y-42826082D01*
X135251261Y-42821352D01*
X135248234Y-42816302D01*
X135245716Y-42810979D01*
X135243733Y-42805435D01*
X135242302Y-42799723D01*
X135241438Y-42793899D01*
X135241149Y-42788018D01*
X135241438Y-42782137D01*
X135242302Y-42776313D01*
X135243733Y-42770601D01*
X135245716Y-42765057D01*
X135248234Y-42759734D01*
X135251261Y-42754684D01*
X135254768Y-42749954D01*
X135258723Y-42745592D01*
X136008256Y-41996059D01*
X136012618Y-41992104D01*
X136017348Y-41988597D01*
X136022398Y-41985570D01*
X136027721Y-41983052D01*
X136033265Y-41981069D01*
X136038977Y-41979638D01*
X136044801Y-41978774D01*
X136050682Y-41978485D01*
X136056563Y-41978774D01*
G37*
G36*
X136410116Y-42332327D02*
G01*
X136415940Y-42333191D01*
X136421652Y-42334622D01*
X136427196Y-42336605D01*
X136432519Y-42339123D01*
X136437569Y-42342150D01*
X136442299Y-42345657D01*
X136446661Y-42349612D01*
X136531514Y-42434465D01*
X136535469Y-42438827D01*
X136538976Y-42443557D01*
X136542003Y-42448607D01*
X136544521Y-42453930D01*
X136546504Y-42459474D01*
X136547935Y-42465186D01*
X136548799Y-42471010D01*
X136549088Y-42476891D01*
X136548799Y-42482772D01*
X136547935Y-42488596D01*
X136546504Y-42494308D01*
X136544521Y-42499852D01*
X136542003Y-42505175D01*
X136538976Y-42510225D01*
X136535469Y-42514955D01*
X136531514Y-42519317D01*
X135781981Y-43268850D01*
X135777619Y-43272805D01*
X135772889Y-43276312D01*
X135767839Y-43279339D01*
X135762516Y-43281857D01*
X135756972Y-43283840D01*
X135751260Y-43285271D01*
X135745436Y-43286135D01*
X135739555Y-43286424D01*
X135733674Y-43286135D01*
X135727850Y-43285271D01*
X135722138Y-43283840D01*
X135716594Y-43281857D01*
X135711271Y-43279339D01*
X135706221Y-43276312D01*
X135701491Y-43272805D01*
X135697129Y-43268850D01*
X135612276Y-43183997D01*
X135608321Y-43179635D01*
X135604814Y-43174905D01*
X135601787Y-43169855D01*
X135599269Y-43164532D01*
X135597286Y-43158988D01*
X135595855Y-43153276D01*
X135594991Y-43147452D01*
X135594702Y-43141571D01*
X135594991Y-43135690D01*
X135595855Y-43129866D01*
X135597286Y-43124154D01*
X135599269Y-43118610D01*
X135601787Y-43113287D01*
X135604814Y-43108237D01*
X135608321Y-43103507D01*
X135612276Y-43099145D01*
X136361809Y-42349612D01*
X136366171Y-42345657D01*
X136370901Y-42342150D01*
X136375951Y-42339123D01*
X136381274Y-42336605D01*
X136386818Y-42334622D01*
X136392530Y-42333191D01*
X136398354Y-42332327D01*
X136404235Y-42332038D01*
X136410116Y-42332327D01*
G37*
G36*
X136763670Y-42685881D02*
G01*
X136769494Y-42686745D01*
X136775206Y-42688176D01*
X136780750Y-42690159D01*
X136786073Y-42692677D01*
X136791123Y-42695704D01*
X136795853Y-42699211D01*
X136800215Y-42703166D01*
X136885068Y-42788019D01*
X136889023Y-42792381D01*
X136892530Y-42797111D01*
X136895557Y-42802161D01*
X136898075Y-42807484D01*
X136900058Y-42813028D01*
X136901489Y-42818740D01*
X136902353Y-42824564D01*
X136902642Y-42830445D01*
X136902353Y-42836326D01*
X136901489Y-42842150D01*
X136900058Y-42847862D01*
X136898075Y-42853406D01*
X136895557Y-42858729D01*
X136892530Y-42863779D01*
X136889023Y-42868509D01*
X136885068Y-42872871D01*
X136135535Y-43622404D01*
X136131173Y-43626359D01*
X136126443Y-43629866D01*
X136121393Y-43632893D01*
X136116070Y-43635411D01*
X136110526Y-43637394D01*
X136104814Y-43638825D01*
X136098990Y-43639689D01*
X136093109Y-43639978D01*
X136087228Y-43639689D01*
X136081404Y-43638825D01*
X136075692Y-43637394D01*
X136070148Y-43635411D01*
X136064825Y-43632893D01*
X136059775Y-43629866D01*
X136055045Y-43626359D01*
X136050683Y-43622404D01*
X135965830Y-43537551D01*
X135961875Y-43533189D01*
X135958368Y-43528459D01*
X135955341Y-43523409D01*
X135952823Y-43518086D01*
X135950840Y-43512542D01*
X135949409Y-43506830D01*
X135948545Y-43501006D01*
X135948256Y-43495125D01*
X135948545Y-43489244D01*
X135949409Y-43483420D01*
X135950840Y-43477708D01*
X135952823Y-43472164D01*
X135955341Y-43466841D01*
X135958368Y-43461791D01*
X135961875Y-43457061D01*
X135965830Y-43452699D01*
X136715363Y-42703166D01*
X136719725Y-42699211D01*
X136724455Y-42695704D01*
X136729505Y-42692677D01*
X136734828Y-42690159D01*
X136740372Y-42688176D01*
X136746084Y-42686745D01*
X136751908Y-42685881D01*
X136757789Y-42685592D01*
X136763670Y-42685881D01*
G37*
G36*
X137117223Y-43039434D02*
G01*
X137123047Y-43040298D01*
X137128759Y-43041729D01*
X137134303Y-43043712D01*
X137139626Y-43046230D01*
X137144676Y-43049257D01*
X137149406Y-43052764D01*
X137153768Y-43056719D01*
X137238621Y-43141572D01*
X137242576Y-43145934D01*
X137246083Y-43150664D01*
X137249110Y-43155714D01*
X137251628Y-43161037D01*
X137253611Y-43166581D01*
X137255042Y-43172293D01*
X137255906Y-43178117D01*
X137256195Y-43183998D01*
X137255906Y-43189879D01*
X137255042Y-43195703D01*
X137253611Y-43201415D01*
X137251628Y-43206959D01*
X137249110Y-43212282D01*
X137246083Y-43217332D01*
X137242576Y-43222062D01*
X137238621Y-43226424D01*
X136489088Y-43975957D01*
X136484726Y-43979912D01*
X136479996Y-43983419D01*
X136474946Y-43986446D01*
X136469623Y-43988964D01*
X136464079Y-43990947D01*
X136458367Y-43992378D01*
X136452543Y-43993242D01*
X136446662Y-43993531D01*
X136440781Y-43993242D01*
X136434957Y-43992378D01*
X136429245Y-43990947D01*
X136423701Y-43988964D01*
X136418378Y-43986446D01*
X136413328Y-43983419D01*
X136408598Y-43979912D01*
X136404236Y-43975957D01*
X136319383Y-43891104D01*
X136315428Y-43886742D01*
X136311921Y-43882012D01*
X136308894Y-43876962D01*
X136306376Y-43871639D01*
X136304393Y-43866095D01*
X136302962Y-43860383D01*
X136302098Y-43854559D01*
X136301809Y-43848678D01*
X136302098Y-43842797D01*
X136302962Y-43836973D01*
X136304393Y-43831261D01*
X136306376Y-43825717D01*
X136308894Y-43820394D01*
X136311921Y-43815344D01*
X136315428Y-43810614D01*
X136319383Y-43806252D01*
X137068916Y-43056719D01*
X137073278Y-43052764D01*
X137078008Y-43049257D01*
X137083058Y-43046230D01*
X137088381Y-43043712D01*
X137093925Y-43041729D01*
X137099637Y-43040298D01*
X137105461Y-43039434D01*
X137111342Y-43039145D01*
X137117223Y-43039434D01*
G37*
G36*
X137470776Y-43392987D02*
G01*
X137476600Y-43393851D01*
X137482312Y-43395282D01*
X137487856Y-43397265D01*
X137493179Y-43399783D01*
X137498229Y-43402810D01*
X137502959Y-43406317D01*
X137507321Y-43410272D01*
X137592174Y-43495125D01*
X137596129Y-43499487D01*
X137599636Y-43504217D01*
X137602663Y-43509267D01*
X137605181Y-43514590D01*
X137607164Y-43520134D01*
X137608595Y-43525846D01*
X137609459Y-43531670D01*
X137609748Y-43537551D01*
X137609459Y-43543432D01*
X137608595Y-43549256D01*
X137607164Y-43554968D01*
X137605181Y-43560512D01*
X137602663Y-43565835D01*
X137599636Y-43570885D01*
X137596129Y-43575615D01*
X137592174Y-43579977D01*
X136842641Y-44329510D01*
X136838279Y-44333465D01*
X136833549Y-44336972D01*
X136828499Y-44339999D01*
X136823176Y-44342517D01*
X136817632Y-44344500D01*
X136811920Y-44345931D01*
X136806096Y-44346795D01*
X136800215Y-44347084D01*
X136794334Y-44346795D01*
X136788510Y-44345931D01*
X136782798Y-44344500D01*
X136777254Y-44342517D01*
X136771931Y-44339999D01*
X136766881Y-44336972D01*
X136762151Y-44333465D01*
X136757789Y-44329510D01*
X136672936Y-44244657D01*
X136668981Y-44240295D01*
X136665474Y-44235565D01*
X136662447Y-44230515D01*
X136659929Y-44225192D01*
X136657946Y-44219648D01*
X136656515Y-44213936D01*
X136655651Y-44208112D01*
X136655362Y-44202231D01*
X136655651Y-44196350D01*
X136656515Y-44190526D01*
X136657946Y-44184814D01*
X136659929Y-44179270D01*
X136662447Y-44173947D01*
X136665474Y-44168897D01*
X136668981Y-44164167D01*
X136672936Y-44159805D01*
X137422469Y-43410272D01*
X137426831Y-43406317D01*
X137431561Y-43402810D01*
X137436611Y-43399783D01*
X137441934Y-43397265D01*
X137447478Y-43395282D01*
X137453190Y-43393851D01*
X137459014Y-43392987D01*
X137464895Y-43392698D01*
X137470776Y-43392987D01*
G37*
G36*
X137824330Y-43746541D02*
G01*
X137830154Y-43747405D01*
X137835866Y-43748836D01*
X137841410Y-43750819D01*
X137846733Y-43753337D01*
X137851783Y-43756364D01*
X137856513Y-43759871D01*
X137860875Y-43763826D01*
X137945728Y-43848679D01*
X137949683Y-43853041D01*
X137953190Y-43857771D01*
X137956217Y-43862821D01*
X137958735Y-43868144D01*
X137960718Y-43873688D01*
X137962149Y-43879400D01*
X137963013Y-43885224D01*
X137963302Y-43891105D01*
X137963013Y-43896986D01*
X137962149Y-43902810D01*
X137960718Y-43908522D01*
X137958735Y-43914066D01*
X137956217Y-43919389D01*
X137953190Y-43924439D01*
X137949683Y-43929169D01*
X137945728Y-43933531D01*
X137196195Y-44683064D01*
X137191833Y-44687019D01*
X137187103Y-44690526D01*
X137182053Y-44693553D01*
X137176730Y-44696071D01*
X137171186Y-44698054D01*
X137165474Y-44699485D01*
X137159650Y-44700349D01*
X137153769Y-44700638D01*
X137147888Y-44700349D01*
X137142064Y-44699485D01*
X137136352Y-44698054D01*
X137130808Y-44696071D01*
X137125485Y-44693553D01*
X137120435Y-44690526D01*
X137115705Y-44687019D01*
X137111343Y-44683064D01*
X137026490Y-44598211D01*
X137022535Y-44593849D01*
X137019028Y-44589119D01*
X137016001Y-44584069D01*
X137013483Y-44578746D01*
X137011500Y-44573202D01*
X137010069Y-44567490D01*
X137009205Y-44561666D01*
X137008916Y-44555785D01*
X137009205Y-44549904D01*
X137010069Y-44544080D01*
X137011500Y-44538368D01*
X137013483Y-44532824D01*
X137016001Y-44527501D01*
X137019028Y-44522451D01*
X137022535Y-44517721D01*
X137026490Y-44513359D01*
X137776023Y-43763826D01*
X137780385Y-43759871D01*
X137785115Y-43756364D01*
X137790165Y-43753337D01*
X137795488Y-43750819D01*
X137801032Y-43748836D01*
X137806744Y-43747405D01*
X137812568Y-43746541D01*
X137818449Y-43746252D01*
X137824330Y-43746541D01*
G37*
G36*
X138177883Y-44100094D02*
G01*
X138183707Y-44100958D01*
X138189419Y-44102389D01*
X138194963Y-44104372D01*
X138200286Y-44106890D01*
X138205336Y-44109917D01*
X138210066Y-44113424D01*
X138214428Y-44117379D01*
X138299281Y-44202232D01*
X138303236Y-44206594D01*
X138306743Y-44211324D01*
X138309770Y-44216374D01*
X138312288Y-44221697D01*
X138314271Y-44227241D01*
X138315702Y-44232953D01*
X138316566Y-44238777D01*
X138316855Y-44244658D01*
X138316566Y-44250539D01*
X138315702Y-44256363D01*
X138314271Y-44262075D01*
X138312288Y-44267619D01*
X138309770Y-44272942D01*
X138306743Y-44277992D01*
X138303236Y-44282722D01*
X138299281Y-44287084D01*
X137549748Y-45036617D01*
X137545386Y-45040572D01*
X137540656Y-45044079D01*
X137535606Y-45047106D01*
X137530283Y-45049624D01*
X137524739Y-45051607D01*
X137519027Y-45053038D01*
X137513203Y-45053902D01*
X137507322Y-45054191D01*
X137501441Y-45053902D01*
X137495617Y-45053038D01*
X137489905Y-45051607D01*
X137484361Y-45049624D01*
X137479038Y-45047106D01*
X137473988Y-45044079D01*
X137469258Y-45040572D01*
X137464896Y-45036617D01*
X137380043Y-44951764D01*
X137376088Y-44947402D01*
X137372581Y-44942672D01*
X137369554Y-44937622D01*
X137367036Y-44932299D01*
X137365053Y-44926755D01*
X137363622Y-44921043D01*
X137362758Y-44915219D01*
X137362469Y-44909338D01*
X137362758Y-44903457D01*
X137363622Y-44897633D01*
X137365053Y-44891921D01*
X137367036Y-44886377D01*
X137369554Y-44881054D01*
X137372581Y-44876004D01*
X137376088Y-44871274D01*
X137380043Y-44866912D01*
X138129576Y-44117379D01*
X138133938Y-44113424D01*
X138138668Y-44109917D01*
X138143718Y-44106890D01*
X138149041Y-44104372D01*
X138154585Y-44102389D01*
X138160297Y-44100958D01*
X138166121Y-44100094D01*
X138172002Y-44099805D01*
X138177883Y-44100094D01*
G37*
G36*
X138531436Y-44453647D02*
G01*
X138537260Y-44454511D01*
X138542972Y-44455942D01*
X138548516Y-44457925D01*
X138553839Y-44460443D01*
X138558889Y-44463470D01*
X138563619Y-44466977D01*
X138567981Y-44470932D01*
X138652834Y-44555785D01*
X138656789Y-44560147D01*
X138660296Y-44564877D01*
X138663323Y-44569927D01*
X138665841Y-44575250D01*
X138667824Y-44580794D01*
X138669255Y-44586506D01*
X138670119Y-44592330D01*
X138670408Y-44598211D01*
X138670119Y-44604092D01*
X138669255Y-44609916D01*
X138667824Y-44615628D01*
X138665841Y-44621172D01*
X138663323Y-44626495D01*
X138660296Y-44631545D01*
X138656789Y-44636275D01*
X138652834Y-44640637D01*
X137903301Y-45390170D01*
X137898939Y-45394125D01*
X137894209Y-45397632D01*
X137889159Y-45400659D01*
X137883836Y-45403177D01*
X137878292Y-45405160D01*
X137872580Y-45406591D01*
X137866756Y-45407455D01*
X137860875Y-45407744D01*
X137854994Y-45407455D01*
X137849170Y-45406591D01*
X137843458Y-45405160D01*
X137837914Y-45403177D01*
X137832591Y-45400659D01*
X137827541Y-45397632D01*
X137822811Y-45394125D01*
X137818449Y-45390170D01*
X137733596Y-45305317D01*
X137729641Y-45300955D01*
X137726134Y-45296225D01*
X137723107Y-45291175D01*
X137720589Y-45285852D01*
X137718606Y-45280308D01*
X137717175Y-45274596D01*
X137716311Y-45268772D01*
X137716022Y-45262891D01*
X137716311Y-45257010D01*
X137717175Y-45251186D01*
X137718606Y-45245474D01*
X137720589Y-45239930D01*
X137723107Y-45234607D01*
X137726134Y-45229557D01*
X137729641Y-45224827D01*
X137733596Y-45220465D01*
X138483129Y-44470932D01*
X138487491Y-44466977D01*
X138492221Y-44463470D01*
X138497271Y-44460443D01*
X138502594Y-44457925D01*
X138508138Y-44455942D01*
X138513850Y-44454511D01*
X138519674Y-44453647D01*
X138525555Y-44453358D01*
X138531436Y-44453647D01*
G37*
G36*
X138884990Y-44807201D02*
G01*
X138890814Y-44808065D01*
X138896526Y-44809496D01*
X138902070Y-44811479D01*
X138907393Y-44813997D01*
X138912443Y-44817024D01*
X138917173Y-44820531D01*
X138921535Y-44824486D01*
X139006388Y-44909339D01*
X139010343Y-44913701D01*
X139013850Y-44918431D01*
X139016877Y-44923481D01*
X139019395Y-44928804D01*
X139021378Y-44934348D01*
X139022809Y-44940060D01*
X139023673Y-44945884D01*
X139023962Y-44951765D01*
X139023673Y-44957646D01*
X139022809Y-44963470D01*
X139021378Y-44969182D01*
X139019395Y-44974726D01*
X139016877Y-44980049D01*
X139013850Y-44985099D01*
X139010343Y-44989829D01*
X139006388Y-44994191D01*
X138256855Y-45743724D01*
X138252493Y-45747679D01*
X138247763Y-45751186D01*
X138242713Y-45754213D01*
X138237390Y-45756731D01*
X138231846Y-45758714D01*
X138226134Y-45760145D01*
X138220310Y-45761009D01*
X138214429Y-45761298D01*
X138208548Y-45761009D01*
X138202724Y-45760145D01*
X138197012Y-45758714D01*
X138191468Y-45756731D01*
X138186145Y-45754213D01*
X138181095Y-45751186D01*
X138176365Y-45747679D01*
X138172003Y-45743724D01*
X138087150Y-45658871D01*
X138083195Y-45654509D01*
X138079688Y-45649779D01*
X138076661Y-45644729D01*
X138074143Y-45639406D01*
X138072160Y-45633862D01*
X138070729Y-45628150D01*
X138069865Y-45622326D01*
X138069576Y-45616445D01*
X138069865Y-45610564D01*
X138070729Y-45604740D01*
X138072160Y-45599028D01*
X138074143Y-45593484D01*
X138076661Y-45588161D01*
X138079688Y-45583111D01*
X138083195Y-45578381D01*
X138087150Y-45574019D01*
X138836683Y-44824486D01*
X138841045Y-44820531D01*
X138845775Y-44817024D01*
X138850825Y-44813997D01*
X138856148Y-44811479D01*
X138861692Y-44809496D01*
X138867404Y-44808065D01*
X138873228Y-44807201D01*
X138879109Y-44806912D01*
X138884990Y-44807201D01*
G37*
G36*
X139592097Y-45514308D02*
G01*
X139597921Y-45515172D01*
X139603633Y-45516603D01*
X139609177Y-45518586D01*
X139614500Y-45521104D01*
X139619550Y-45524131D01*
X139624280Y-45527638D01*
X139628642Y-45531593D01*
X139713495Y-45616446D01*
X139717450Y-45620808D01*
X139720957Y-45625538D01*
X139723984Y-45630588D01*
X139726502Y-45635911D01*
X139728485Y-45641455D01*
X139729916Y-45647167D01*
X139730780Y-45652991D01*
X139731069Y-45658872D01*
X139730780Y-45664753D01*
X139729916Y-45670577D01*
X139728485Y-45676289D01*
X139726502Y-45681833D01*
X139723984Y-45687156D01*
X139720957Y-45692206D01*
X139717450Y-45696936D01*
X139713495Y-45701298D01*
X138963962Y-46450831D01*
X138959600Y-46454786D01*
X138954870Y-46458293D01*
X138949820Y-46461320D01*
X138944497Y-46463838D01*
X138938953Y-46465821D01*
X138933241Y-46467252D01*
X138927417Y-46468116D01*
X138921536Y-46468405D01*
X138915655Y-46468116D01*
X138909831Y-46467252D01*
X138904119Y-46465821D01*
X138898575Y-46463838D01*
X138893252Y-46461320D01*
X138888202Y-46458293D01*
X138883472Y-46454786D01*
X138879110Y-46450831D01*
X138794257Y-46365978D01*
X138790302Y-46361616D01*
X138786795Y-46356886D01*
X138783768Y-46351836D01*
X138781250Y-46346513D01*
X138779267Y-46340969D01*
X138777836Y-46335257D01*
X138776972Y-46329433D01*
X138776683Y-46323552D01*
X138776972Y-46317671D01*
X138777836Y-46311847D01*
X138779267Y-46306135D01*
X138781250Y-46300591D01*
X138783768Y-46295268D01*
X138786795Y-46290218D01*
X138790302Y-46285488D01*
X138794257Y-46281126D01*
X139543790Y-45531593D01*
X139548152Y-45527638D01*
X139552882Y-45524131D01*
X139557932Y-45521104D01*
X139563255Y-45518586D01*
X139568799Y-45516603D01*
X139574511Y-45515172D01*
X139580335Y-45514308D01*
X139586216Y-45514019D01*
X139592097Y-45514308D01*
G37*
D11*
X113574000Y-51219000D03*
X118074000Y-51219000D03*
X118074000Y-43269000D03*
X113574000Y-43269000D03*
D12*
X109109000Y-41468000D03*
X109109000Y-43368000D03*
X111109000Y-42418000D03*
D13*
X105521000Y-49157000D03*
X105521000Y-47237000D03*
D14*
X108798000Y-49497000D03*
X108798000Y-48847000D03*
X108798000Y-48197000D03*
X108798000Y-47547000D03*
X108798000Y-46897000D03*
D15*
X108791000Y-51097000D03*
X108771000Y-45347000D03*
D16*
X107471000Y-51197000D03*
X107471000Y-45247000D03*
D17*
X106721000Y-45467000D03*
X106721000Y-50947000D03*
D10*
G36*
X142834505Y-51879204D02*
G01*
X142858773Y-51882804D01*
X142882572Y-51888765D01*
X142905671Y-51897030D01*
X142927850Y-51907520D01*
X142948893Y-51920132D01*
X142968599Y-51934747D01*
X142986777Y-51951223D01*
X143003253Y-51969401D01*
X143017868Y-51989107D01*
X143030480Y-52010150D01*
X143040970Y-52032329D01*
X143049235Y-52055428D01*
X143055196Y-52079227D01*
X143058796Y-52103495D01*
X143060000Y-52127999D01*
X143060000Y-53028001D01*
X143058796Y-53052505D01*
X143055196Y-53076773D01*
X143049235Y-53100572D01*
X143040970Y-53123671D01*
X143030480Y-53145850D01*
X143017868Y-53166893D01*
X143003253Y-53186599D01*
X142986777Y-53204777D01*
X142968599Y-53221253D01*
X142948893Y-53235868D01*
X142927850Y-53248480D01*
X142905671Y-53258970D01*
X142882572Y-53267235D01*
X142858773Y-53273196D01*
X142834505Y-53276796D01*
X142810001Y-53278000D01*
X142159999Y-53278000D01*
X142135495Y-53276796D01*
X142111227Y-53273196D01*
X142087428Y-53267235D01*
X142064329Y-53258970D01*
X142042150Y-53248480D01*
X142021107Y-53235868D01*
X142001401Y-53221253D01*
X141983223Y-53204777D01*
X141966747Y-53186599D01*
X141952132Y-53166893D01*
X141939520Y-53145850D01*
X141929030Y-53123671D01*
X141920765Y-53100572D01*
X141914804Y-53076773D01*
X141911204Y-53052505D01*
X141910000Y-53028001D01*
X141910000Y-52127999D01*
X141911204Y-52103495D01*
X141914804Y-52079227D01*
X141920765Y-52055428D01*
X141929030Y-52032329D01*
X141939520Y-52010150D01*
X141952132Y-51989107D01*
X141966747Y-51969401D01*
X141983223Y-51951223D01*
X142001401Y-51934747D01*
X142021107Y-51920132D01*
X142042150Y-51907520D01*
X142064329Y-51897030D01*
X142087428Y-51888765D01*
X142111227Y-51882804D01*
X142135495Y-51879204D01*
X142159999Y-51878000D01*
X142810001Y-51878000D01*
X142834505Y-51879204D01*
G37*
G36*
X144884505Y-51879204D02*
G01*
X144908773Y-51882804D01*
X144932572Y-51888765D01*
X144955671Y-51897030D01*
X144977850Y-51907520D01*
X144998893Y-51920132D01*
X145018599Y-51934747D01*
X145036777Y-51951223D01*
X145053253Y-51969401D01*
X145067868Y-51989107D01*
X145080480Y-52010150D01*
X145090970Y-52032329D01*
X145099235Y-52055428D01*
X145105196Y-52079227D01*
X145108796Y-52103495D01*
X145110000Y-52127999D01*
X145110000Y-53028001D01*
X145108796Y-53052505D01*
X145105196Y-53076773D01*
X145099235Y-53100572D01*
X145090970Y-53123671D01*
X145080480Y-53145850D01*
X145067868Y-53166893D01*
X145053253Y-53186599D01*
X145036777Y-53204777D01*
X145018599Y-53221253D01*
X144998893Y-53235868D01*
X144977850Y-53248480D01*
X144955671Y-53258970D01*
X144932572Y-53267235D01*
X144908773Y-53273196D01*
X144884505Y-53276796D01*
X144860001Y-53278000D01*
X144209999Y-53278000D01*
X144185495Y-53276796D01*
X144161227Y-53273196D01*
X144137428Y-53267235D01*
X144114329Y-53258970D01*
X144092150Y-53248480D01*
X144071107Y-53235868D01*
X144051401Y-53221253D01*
X144033223Y-53204777D01*
X144016747Y-53186599D01*
X144002132Y-53166893D01*
X143989520Y-53145850D01*
X143979030Y-53123671D01*
X143970765Y-53100572D01*
X143964804Y-53076773D01*
X143961204Y-53052505D01*
X143960000Y-53028001D01*
X143960000Y-52127999D01*
X143961204Y-52103495D01*
X143964804Y-52079227D01*
X143970765Y-52055428D01*
X143979030Y-52032329D01*
X143989520Y-52010150D01*
X144002132Y-51989107D01*
X144016747Y-51969401D01*
X144033223Y-51951223D01*
X144051401Y-51934747D01*
X144071107Y-51920132D01*
X144092150Y-51907520D01*
X144114329Y-51897030D01*
X144137428Y-51888765D01*
X144161227Y-51882804D01*
X144185495Y-51879204D01*
X144209999Y-51878000D01*
X144860001Y-51878000D01*
X144884505Y-51879204D01*
G37*
G36*
X150726505Y-52387204D02*
G01*
X150750773Y-52390804D01*
X150774572Y-52396765D01*
X150797671Y-52405030D01*
X150819850Y-52415520D01*
X150840893Y-52428132D01*
X150860599Y-52442747D01*
X150878777Y-52459223D01*
X150895253Y-52477401D01*
X150909868Y-52497107D01*
X150922480Y-52518150D01*
X150932970Y-52540329D01*
X150941235Y-52563428D01*
X150947196Y-52587227D01*
X150950796Y-52611495D01*
X150952000Y-52635999D01*
X150952000Y-53536001D01*
X150950796Y-53560505D01*
X150947196Y-53584773D01*
X150941235Y-53608572D01*
X150932970Y-53631671D01*
X150922480Y-53653850D01*
X150909868Y-53674893D01*
X150895253Y-53694599D01*
X150878777Y-53712777D01*
X150860599Y-53729253D01*
X150840893Y-53743868D01*
X150819850Y-53756480D01*
X150797671Y-53766970D01*
X150774572Y-53775235D01*
X150750773Y-53781196D01*
X150726505Y-53784796D01*
X150702001Y-53786000D01*
X150051999Y-53786000D01*
X150027495Y-53784796D01*
X150003227Y-53781196D01*
X149979428Y-53775235D01*
X149956329Y-53766970D01*
X149934150Y-53756480D01*
X149913107Y-53743868D01*
X149893401Y-53729253D01*
X149875223Y-53712777D01*
X149858747Y-53694599D01*
X149844132Y-53674893D01*
X149831520Y-53653850D01*
X149821030Y-53631671D01*
X149812765Y-53608572D01*
X149806804Y-53584773D01*
X149803204Y-53560505D01*
X149802000Y-53536001D01*
X149802000Y-52635999D01*
X149803204Y-52611495D01*
X149806804Y-52587227D01*
X149812765Y-52563428D01*
X149821030Y-52540329D01*
X149831520Y-52518150D01*
X149844132Y-52497107D01*
X149858747Y-52477401D01*
X149875223Y-52459223D01*
X149893401Y-52442747D01*
X149913107Y-52428132D01*
X149934150Y-52415520D01*
X149956329Y-52405030D01*
X149979428Y-52396765D01*
X150003227Y-52390804D01*
X150027495Y-52387204D01*
X150051999Y-52386000D01*
X150702001Y-52386000D01*
X150726505Y-52387204D01*
G37*
G36*
X148676505Y-52387204D02*
G01*
X148700773Y-52390804D01*
X148724572Y-52396765D01*
X148747671Y-52405030D01*
X148769850Y-52415520D01*
X148790893Y-52428132D01*
X148810599Y-52442747D01*
X148828777Y-52459223D01*
X148845253Y-52477401D01*
X148859868Y-52497107D01*
X148872480Y-52518150D01*
X148882970Y-52540329D01*
X148891235Y-52563428D01*
X148897196Y-52587227D01*
X148900796Y-52611495D01*
X148902000Y-52635999D01*
X148902000Y-53536001D01*
X148900796Y-53560505D01*
X148897196Y-53584773D01*
X148891235Y-53608572D01*
X148882970Y-53631671D01*
X148872480Y-53653850D01*
X148859868Y-53674893D01*
X148845253Y-53694599D01*
X148828777Y-53712777D01*
X148810599Y-53729253D01*
X148790893Y-53743868D01*
X148769850Y-53756480D01*
X148747671Y-53766970D01*
X148724572Y-53775235D01*
X148700773Y-53781196D01*
X148676505Y-53784796D01*
X148652001Y-53786000D01*
X148001999Y-53786000D01*
X147977495Y-53784796D01*
X147953227Y-53781196D01*
X147929428Y-53775235D01*
X147906329Y-53766970D01*
X147884150Y-53756480D01*
X147863107Y-53743868D01*
X147843401Y-53729253D01*
X147825223Y-53712777D01*
X147808747Y-53694599D01*
X147794132Y-53674893D01*
X147781520Y-53653850D01*
X147771030Y-53631671D01*
X147762765Y-53608572D01*
X147756804Y-53584773D01*
X147753204Y-53560505D01*
X147752000Y-53536001D01*
X147752000Y-52635999D01*
X147753204Y-52611495D01*
X147756804Y-52587227D01*
X147762765Y-52563428D01*
X147771030Y-52540329D01*
X147781520Y-52518150D01*
X147794132Y-52497107D01*
X147808747Y-52477401D01*
X147825223Y-52459223D01*
X147843401Y-52442747D01*
X147863107Y-52428132D01*
X147884150Y-52415520D01*
X147906329Y-52405030D01*
X147929428Y-52396765D01*
X147953227Y-52390804D01*
X147977495Y-52387204D01*
X148001999Y-52386000D01*
X148652001Y-52386000D01*
X148676505Y-52387204D01*
G37*
G36*
X124934505Y-41581204D02*
G01*
X124958773Y-41584804D01*
X124982572Y-41590765D01*
X125005671Y-41599030D01*
X125027850Y-41609520D01*
X125048893Y-41622132D01*
X125068599Y-41636747D01*
X125086777Y-41653223D01*
X125103253Y-41671401D01*
X125117868Y-41691107D01*
X125130480Y-41712150D01*
X125140970Y-41734329D01*
X125149235Y-41757428D01*
X125155196Y-41781227D01*
X125158796Y-41805495D01*
X125160000Y-41829999D01*
X125160000Y-42480001D01*
X125158796Y-42504505D01*
X125155196Y-42528773D01*
X125149235Y-42552572D01*
X125140970Y-42575671D01*
X125130480Y-42597850D01*
X125117868Y-42618893D01*
X125103253Y-42638599D01*
X125086777Y-42656777D01*
X125068599Y-42673253D01*
X125048893Y-42687868D01*
X125027850Y-42700480D01*
X125005671Y-42710970D01*
X124982572Y-42719235D01*
X124958773Y-42725196D01*
X124934505Y-42728796D01*
X124910001Y-42730000D01*
X124009999Y-42730000D01*
X123985495Y-42728796D01*
X123961227Y-42725196D01*
X123937428Y-42719235D01*
X123914329Y-42710970D01*
X123892150Y-42700480D01*
X123871107Y-42687868D01*
X123851401Y-42673253D01*
X123833223Y-42656777D01*
X123816747Y-42638599D01*
X123802132Y-42618893D01*
X123789520Y-42597850D01*
X123779030Y-42575671D01*
X123770765Y-42552572D01*
X123764804Y-42528773D01*
X123761204Y-42504505D01*
X123760000Y-42480001D01*
X123760000Y-41829999D01*
X123761204Y-41805495D01*
X123764804Y-41781227D01*
X123770765Y-41757428D01*
X123779030Y-41734329D01*
X123789520Y-41712150D01*
X123802132Y-41691107D01*
X123816747Y-41671401D01*
X123833223Y-41653223D01*
X123851401Y-41636747D01*
X123871107Y-41622132D01*
X123892150Y-41609520D01*
X123914329Y-41599030D01*
X123937428Y-41590765D01*
X123961227Y-41584804D01*
X123985495Y-41581204D01*
X124009999Y-41580000D01*
X124910001Y-41580000D01*
X124934505Y-41581204D01*
G37*
G36*
X124934505Y-43631204D02*
G01*
X124958773Y-43634804D01*
X124982572Y-43640765D01*
X125005671Y-43649030D01*
X125027850Y-43659520D01*
X125048893Y-43672132D01*
X125068599Y-43686747D01*
X125086777Y-43703223D01*
X125103253Y-43721401D01*
X125117868Y-43741107D01*
X125130480Y-43762150D01*
X125140970Y-43784329D01*
X125149235Y-43807428D01*
X125155196Y-43831227D01*
X125158796Y-43855495D01*
X125160000Y-43879999D01*
X125160000Y-44530001D01*
X125158796Y-44554505D01*
X125155196Y-44578773D01*
X125149235Y-44602572D01*
X125140970Y-44625671D01*
X125130480Y-44647850D01*
X125117868Y-44668893D01*
X125103253Y-44688599D01*
X125086777Y-44706777D01*
X125068599Y-44723253D01*
X125048893Y-44737868D01*
X125027850Y-44750480D01*
X125005671Y-44760970D01*
X124982572Y-44769235D01*
X124958773Y-44775196D01*
X124934505Y-44778796D01*
X124910001Y-44780000D01*
X124009999Y-44780000D01*
X123985495Y-44778796D01*
X123961227Y-44775196D01*
X123937428Y-44769235D01*
X123914329Y-44760970D01*
X123892150Y-44750480D01*
X123871107Y-44737868D01*
X123851401Y-44723253D01*
X123833223Y-44706777D01*
X123816747Y-44688599D01*
X123802132Y-44668893D01*
X123789520Y-44647850D01*
X123779030Y-44625671D01*
X123770765Y-44602572D01*
X123764804Y-44578773D01*
X123761204Y-44554505D01*
X123760000Y-44530001D01*
X123760000Y-43879999D01*
X123761204Y-43855495D01*
X123764804Y-43831227D01*
X123770765Y-43807428D01*
X123779030Y-43784329D01*
X123789520Y-43762150D01*
X123802132Y-43741107D01*
X123816747Y-43721401D01*
X123833223Y-43703223D01*
X123851401Y-43686747D01*
X123871107Y-43672132D01*
X123892150Y-43659520D01*
X123914329Y-43649030D01*
X123937428Y-43640765D01*
X123961227Y-43634804D01*
X123985495Y-43631204D01*
X124009999Y-43630000D01*
X124910001Y-43630000D01*
X124934505Y-43631204D01*
G37*
G36*
X148676505Y-46037204D02*
G01*
X148700773Y-46040804D01*
X148724572Y-46046765D01*
X148747671Y-46055030D01*
X148769850Y-46065520D01*
X148790893Y-46078132D01*
X148810599Y-46092747D01*
X148828777Y-46109223D01*
X148845253Y-46127401D01*
X148859868Y-46147107D01*
X148872480Y-46168150D01*
X148882970Y-46190329D01*
X148891235Y-46213428D01*
X148897196Y-46237227D01*
X148900796Y-46261495D01*
X148902000Y-46285999D01*
X148902000Y-47186001D01*
X148900796Y-47210505D01*
X148897196Y-47234773D01*
X148891235Y-47258572D01*
X148882970Y-47281671D01*
X148872480Y-47303850D01*
X148859868Y-47324893D01*
X148845253Y-47344599D01*
X148828777Y-47362777D01*
X148810599Y-47379253D01*
X148790893Y-47393868D01*
X148769850Y-47406480D01*
X148747671Y-47416970D01*
X148724572Y-47425235D01*
X148700773Y-47431196D01*
X148676505Y-47434796D01*
X148652001Y-47436000D01*
X148001999Y-47436000D01*
X147977495Y-47434796D01*
X147953227Y-47431196D01*
X147929428Y-47425235D01*
X147906329Y-47416970D01*
X147884150Y-47406480D01*
X147863107Y-47393868D01*
X147843401Y-47379253D01*
X147825223Y-47362777D01*
X147808747Y-47344599D01*
X147794132Y-47324893D01*
X147781520Y-47303850D01*
X147771030Y-47281671D01*
X147762765Y-47258572D01*
X147756804Y-47234773D01*
X147753204Y-47210505D01*
X147752000Y-47186001D01*
X147752000Y-46285999D01*
X147753204Y-46261495D01*
X147756804Y-46237227D01*
X147762765Y-46213428D01*
X147771030Y-46190329D01*
X147781520Y-46168150D01*
X147794132Y-46147107D01*
X147808747Y-46127401D01*
X147825223Y-46109223D01*
X147843401Y-46092747D01*
X147863107Y-46078132D01*
X147884150Y-46065520D01*
X147906329Y-46055030D01*
X147929428Y-46046765D01*
X147953227Y-46040804D01*
X147977495Y-46037204D01*
X148001999Y-46036000D01*
X148652001Y-46036000D01*
X148676505Y-46037204D01*
G37*
G36*
X150726505Y-46037204D02*
G01*
X150750773Y-46040804D01*
X150774572Y-46046765D01*
X150797671Y-46055030D01*
X150819850Y-46065520D01*
X150840893Y-46078132D01*
X150860599Y-46092747D01*
X150878777Y-46109223D01*
X150895253Y-46127401D01*
X150909868Y-46147107D01*
X150922480Y-46168150D01*
X150932970Y-46190329D01*
X150941235Y-46213428D01*
X150947196Y-46237227D01*
X150950796Y-46261495D01*
X150952000Y-46285999D01*
X150952000Y-47186001D01*
X150950796Y-47210505D01*
X150947196Y-47234773D01*
X150941235Y-47258572D01*
X150932970Y-47281671D01*
X150922480Y-47303850D01*
X150909868Y-47324893D01*
X150895253Y-47344599D01*
X150878777Y-47362777D01*
X150860599Y-47379253D01*
X150840893Y-47393868D01*
X150819850Y-47406480D01*
X150797671Y-47416970D01*
X150774572Y-47425235D01*
X150750773Y-47431196D01*
X150726505Y-47434796D01*
X150702001Y-47436000D01*
X150051999Y-47436000D01*
X150027495Y-47434796D01*
X150003227Y-47431196D01*
X149979428Y-47425235D01*
X149956329Y-47416970D01*
X149934150Y-47406480D01*
X149913107Y-47393868D01*
X149893401Y-47379253D01*
X149875223Y-47362777D01*
X149858747Y-47344599D01*
X149844132Y-47324893D01*
X149831520Y-47303850D01*
X149821030Y-47281671D01*
X149812765Y-47258572D01*
X149806804Y-47234773D01*
X149803204Y-47210505D01*
X149802000Y-47186001D01*
X149802000Y-46285999D01*
X149803204Y-46261495D01*
X149806804Y-46237227D01*
X149812765Y-46213428D01*
X149821030Y-46190329D01*
X149831520Y-46168150D01*
X149844132Y-46147107D01*
X149858747Y-46127401D01*
X149875223Y-46109223D01*
X149893401Y-46092747D01*
X149913107Y-46078132D01*
X149934150Y-46065520D01*
X149956329Y-46055030D01*
X149979428Y-46046765D01*
X150003227Y-46040804D01*
X150027495Y-46037204D01*
X150051999Y-46036000D01*
X150702001Y-46036000D01*
X150726505Y-46037204D01*
G37*
G36*
X148676505Y-48069204D02*
G01*
X148700773Y-48072804D01*
X148724572Y-48078765D01*
X148747671Y-48087030D01*
X148769850Y-48097520D01*
X148790893Y-48110132D01*
X148810599Y-48124747D01*
X148828777Y-48141223D01*
X148845253Y-48159401D01*
X148859868Y-48179107D01*
X148872480Y-48200150D01*
X148882970Y-48222329D01*
X148891235Y-48245428D01*
X148897196Y-48269227D01*
X148900796Y-48293495D01*
X148902000Y-48317999D01*
X148902000Y-49218001D01*
X148900796Y-49242505D01*
X148897196Y-49266773D01*
X148891235Y-49290572D01*
X148882970Y-49313671D01*
X148872480Y-49335850D01*
X148859868Y-49356893D01*
X148845253Y-49376599D01*
X148828777Y-49394777D01*
X148810599Y-49411253D01*
X148790893Y-49425868D01*
X148769850Y-49438480D01*
X148747671Y-49448970D01*
X148724572Y-49457235D01*
X148700773Y-49463196D01*
X148676505Y-49466796D01*
X148652001Y-49468000D01*
X148001999Y-49468000D01*
X147977495Y-49466796D01*
X147953227Y-49463196D01*
X147929428Y-49457235D01*
X147906329Y-49448970D01*
X147884150Y-49438480D01*
X147863107Y-49425868D01*
X147843401Y-49411253D01*
X147825223Y-49394777D01*
X147808747Y-49376599D01*
X147794132Y-49356893D01*
X147781520Y-49335850D01*
X147771030Y-49313671D01*
X147762765Y-49290572D01*
X147756804Y-49266773D01*
X147753204Y-49242505D01*
X147752000Y-49218001D01*
X147752000Y-48317999D01*
X147753204Y-48293495D01*
X147756804Y-48269227D01*
X147762765Y-48245428D01*
X147771030Y-48222329D01*
X147781520Y-48200150D01*
X147794132Y-48179107D01*
X147808747Y-48159401D01*
X147825223Y-48141223D01*
X147843401Y-48124747D01*
X147863107Y-48110132D01*
X147884150Y-48097520D01*
X147906329Y-48087030D01*
X147929428Y-48078765D01*
X147953227Y-48072804D01*
X147977495Y-48069204D01*
X148001999Y-48068000D01*
X148652001Y-48068000D01*
X148676505Y-48069204D01*
G37*
G36*
X150726505Y-48069204D02*
G01*
X150750773Y-48072804D01*
X150774572Y-48078765D01*
X150797671Y-48087030D01*
X150819850Y-48097520D01*
X150840893Y-48110132D01*
X150860599Y-48124747D01*
X150878777Y-48141223D01*
X150895253Y-48159401D01*
X150909868Y-48179107D01*
X150922480Y-48200150D01*
X150932970Y-48222329D01*
X150941235Y-48245428D01*
X150947196Y-48269227D01*
X150950796Y-48293495D01*
X150952000Y-48317999D01*
X150952000Y-49218001D01*
X150950796Y-49242505D01*
X150947196Y-49266773D01*
X150941235Y-49290572D01*
X150932970Y-49313671D01*
X150922480Y-49335850D01*
X150909868Y-49356893D01*
X150895253Y-49376599D01*
X150878777Y-49394777D01*
X150860599Y-49411253D01*
X150840893Y-49425868D01*
X150819850Y-49438480D01*
X150797671Y-49448970D01*
X150774572Y-49457235D01*
X150750773Y-49463196D01*
X150726505Y-49466796D01*
X150702001Y-49468000D01*
X150051999Y-49468000D01*
X150027495Y-49466796D01*
X150003227Y-49463196D01*
X149979428Y-49457235D01*
X149956329Y-49448970D01*
X149934150Y-49438480D01*
X149913107Y-49425868D01*
X149893401Y-49411253D01*
X149875223Y-49394777D01*
X149858747Y-49376599D01*
X149844132Y-49356893D01*
X149831520Y-49335850D01*
X149821030Y-49313671D01*
X149812765Y-49290572D01*
X149806804Y-49266773D01*
X149803204Y-49242505D01*
X149802000Y-49218001D01*
X149802000Y-48317999D01*
X149803204Y-48293495D01*
X149806804Y-48269227D01*
X149812765Y-48245428D01*
X149821030Y-48222329D01*
X149831520Y-48200150D01*
X149844132Y-48179107D01*
X149858747Y-48159401D01*
X149875223Y-48141223D01*
X149893401Y-48124747D01*
X149913107Y-48110132D01*
X149934150Y-48097520D01*
X149956329Y-48087030D01*
X149979428Y-48078765D01*
X150003227Y-48072804D01*
X150027495Y-48069204D01*
X150051999Y-48068000D01*
X150702001Y-48068000D01*
X150726505Y-48069204D01*
G37*
G36*
X154790505Y-45783204D02*
G01*
X154814773Y-45786804D01*
X154838572Y-45792765D01*
X154861671Y-45801030D01*
X154883850Y-45811520D01*
X154904893Y-45824132D01*
X154924599Y-45838747D01*
X154942777Y-45855223D01*
X154959253Y-45873401D01*
X154973868Y-45893107D01*
X154986480Y-45914150D01*
X154996970Y-45936329D01*
X155005235Y-45959428D01*
X155011196Y-45983227D01*
X155014796Y-46007495D01*
X155016000Y-46031999D01*
X155016000Y-46932001D01*
X155014796Y-46956505D01*
X155011196Y-46980773D01*
X155005235Y-47004572D01*
X154996970Y-47027671D01*
X154986480Y-47049850D01*
X154973868Y-47070893D01*
X154959253Y-47090599D01*
X154942777Y-47108777D01*
X154924599Y-47125253D01*
X154904893Y-47139868D01*
X154883850Y-47152480D01*
X154861671Y-47162970D01*
X154838572Y-47171235D01*
X154814773Y-47177196D01*
X154790505Y-47180796D01*
X154766001Y-47182000D01*
X154115999Y-47182000D01*
X154091495Y-47180796D01*
X154067227Y-47177196D01*
X154043428Y-47171235D01*
X154020329Y-47162970D01*
X153998150Y-47152480D01*
X153977107Y-47139868D01*
X153957401Y-47125253D01*
X153939223Y-47108777D01*
X153922747Y-47090599D01*
X153908132Y-47070893D01*
X153895520Y-47049850D01*
X153885030Y-47027671D01*
X153876765Y-47004572D01*
X153870804Y-46980773D01*
X153867204Y-46956505D01*
X153866000Y-46932001D01*
X153866000Y-46031999D01*
X153867204Y-46007495D01*
X153870804Y-45983227D01*
X153876765Y-45959428D01*
X153885030Y-45936329D01*
X153895520Y-45914150D01*
X153908132Y-45893107D01*
X153922747Y-45873401D01*
X153939223Y-45855223D01*
X153957401Y-45838747D01*
X153977107Y-45824132D01*
X153998150Y-45811520D01*
X154020329Y-45801030D01*
X154043428Y-45792765D01*
X154067227Y-45786804D01*
X154091495Y-45783204D01*
X154115999Y-45782000D01*
X154766001Y-45782000D01*
X154790505Y-45783204D01*
G37*
G36*
X152740505Y-45783204D02*
G01*
X152764773Y-45786804D01*
X152788572Y-45792765D01*
X152811671Y-45801030D01*
X152833850Y-45811520D01*
X152854893Y-45824132D01*
X152874599Y-45838747D01*
X152892777Y-45855223D01*
X152909253Y-45873401D01*
X152923868Y-45893107D01*
X152936480Y-45914150D01*
X152946970Y-45936329D01*
X152955235Y-45959428D01*
X152961196Y-45983227D01*
X152964796Y-46007495D01*
X152966000Y-46031999D01*
X152966000Y-46932001D01*
X152964796Y-46956505D01*
X152961196Y-46980773D01*
X152955235Y-47004572D01*
X152946970Y-47027671D01*
X152936480Y-47049850D01*
X152923868Y-47070893D01*
X152909253Y-47090599D01*
X152892777Y-47108777D01*
X152874599Y-47125253D01*
X152854893Y-47139868D01*
X152833850Y-47152480D01*
X152811671Y-47162970D01*
X152788572Y-47171235D01*
X152764773Y-47177196D01*
X152740505Y-47180796D01*
X152716001Y-47182000D01*
X152065999Y-47182000D01*
X152041495Y-47180796D01*
X152017227Y-47177196D01*
X151993428Y-47171235D01*
X151970329Y-47162970D01*
X151948150Y-47152480D01*
X151927107Y-47139868D01*
X151907401Y-47125253D01*
X151889223Y-47108777D01*
X151872747Y-47090599D01*
X151858132Y-47070893D01*
X151845520Y-47049850D01*
X151835030Y-47027671D01*
X151826765Y-47004572D01*
X151820804Y-46980773D01*
X151817204Y-46956505D01*
X151816000Y-46932001D01*
X151816000Y-46031999D01*
X151817204Y-46007495D01*
X151820804Y-45983227D01*
X151826765Y-45959428D01*
X151835030Y-45936329D01*
X151845520Y-45914150D01*
X151858132Y-45893107D01*
X151872747Y-45873401D01*
X151889223Y-45855223D01*
X151907401Y-45838747D01*
X151927107Y-45824132D01*
X151948150Y-45811520D01*
X151970329Y-45801030D01*
X151993428Y-45792765D01*
X152017227Y-45786804D01*
X152041495Y-45783204D01*
X152065999Y-45782000D01*
X152716001Y-45782000D01*
X152740505Y-45783204D01*
G37*
G36*
X154790505Y-48323204D02*
G01*
X154814773Y-48326804D01*
X154838572Y-48332765D01*
X154861671Y-48341030D01*
X154883850Y-48351520D01*
X154904893Y-48364132D01*
X154924599Y-48378747D01*
X154942777Y-48395223D01*
X154959253Y-48413401D01*
X154973868Y-48433107D01*
X154986480Y-48454150D01*
X154996970Y-48476329D01*
X155005235Y-48499428D01*
X155011196Y-48523227D01*
X155014796Y-48547495D01*
X155016000Y-48571999D01*
X155016000Y-49472001D01*
X155014796Y-49496505D01*
X155011196Y-49520773D01*
X155005235Y-49544572D01*
X154996970Y-49567671D01*
X154986480Y-49589850D01*
X154973868Y-49610893D01*
X154959253Y-49630599D01*
X154942777Y-49648777D01*
X154924599Y-49665253D01*
X154904893Y-49679868D01*
X154883850Y-49692480D01*
X154861671Y-49702970D01*
X154838572Y-49711235D01*
X154814773Y-49717196D01*
X154790505Y-49720796D01*
X154766001Y-49722000D01*
X154115999Y-49722000D01*
X154091495Y-49720796D01*
X154067227Y-49717196D01*
X154043428Y-49711235D01*
X154020329Y-49702970D01*
X153998150Y-49692480D01*
X153977107Y-49679868D01*
X153957401Y-49665253D01*
X153939223Y-49648777D01*
X153922747Y-49630599D01*
X153908132Y-49610893D01*
X153895520Y-49589850D01*
X153885030Y-49567671D01*
X153876765Y-49544572D01*
X153870804Y-49520773D01*
X153867204Y-49496505D01*
X153866000Y-49472001D01*
X153866000Y-48571999D01*
X153867204Y-48547495D01*
X153870804Y-48523227D01*
X153876765Y-48499428D01*
X153885030Y-48476329D01*
X153895520Y-48454150D01*
X153908132Y-48433107D01*
X153922747Y-48413401D01*
X153939223Y-48395223D01*
X153957401Y-48378747D01*
X153977107Y-48364132D01*
X153998150Y-48351520D01*
X154020329Y-48341030D01*
X154043428Y-48332765D01*
X154067227Y-48326804D01*
X154091495Y-48323204D01*
X154115999Y-48322000D01*
X154766001Y-48322000D01*
X154790505Y-48323204D01*
G37*
G36*
X152740505Y-48323204D02*
G01*
X152764773Y-48326804D01*
X152788572Y-48332765D01*
X152811671Y-48341030D01*
X152833850Y-48351520D01*
X152854893Y-48364132D01*
X152874599Y-48378747D01*
X152892777Y-48395223D01*
X152909253Y-48413401D01*
X152923868Y-48433107D01*
X152936480Y-48454150D01*
X152946970Y-48476329D01*
X152955235Y-48499428D01*
X152961196Y-48523227D01*
X152964796Y-48547495D01*
X152966000Y-48571999D01*
X152966000Y-49472001D01*
X152964796Y-49496505D01*
X152961196Y-49520773D01*
X152955235Y-49544572D01*
X152946970Y-49567671D01*
X152936480Y-49589850D01*
X152923868Y-49610893D01*
X152909253Y-49630599D01*
X152892777Y-49648777D01*
X152874599Y-49665253D01*
X152854893Y-49679868D01*
X152833850Y-49692480D01*
X152811671Y-49702970D01*
X152788572Y-49711235D01*
X152764773Y-49717196D01*
X152740505Y-49720796D01*
X152716001Y-49722000D01*
X152065999Y-49722000D01*
X152041495Y-49720796D01*
X152017227Y-49717196D01*
X151993428Y-49711235D01*
X151970329Y-49702970D01*
X151948150Y-49692480D01*
X151927107Y-49679868D01*
X151907401Y-49665253D01*
X151889223Y-49648777D01*
X151872747Y-49630599D01*
X151858132Y-49610893D01*
X151845520Y-49589850D01*
X151835030Y-49567671D01*
X151826765Y-49544572D01*
X151820804Y-49520773D01*
X151817204Y-49496505D01*
X151816000Y-49472001D01*
X151816000Y-48571999D01*
X151817204Y-48547495D01*
X151820804Y-48523227D01*
X151826765Y-48499428D01*
X151835030Y-48476329D01*
X151845520Y-48454150D01*
X151858132Y-48433107D01*
X151872747Y-48413401D01*
X151889223Y-48395223D01*
X151907401Y-48378747D01*
X151927107Y-48364132D01*
X151948150Y-48351520D01*
X151970329Y-48341030D01*
X151993428Y-48332765D01*
X152017227Y-48326804D01*
X152041495Y-48323204D01*
X152065999Y-48322000D01*
X152716001Y-48322000D01*
X152740505Y-48323204D01*
G37*
G36*
X111980505Y-46806204D02*
G01*
X112004773Y-46809804D01*
X112028572Y-46815765D01*
X112051671Y-46824030D01*
X112073850Y-46834520D01*
X112094893Y-46847132D01*
X112114599Y-46861747D01*
X112132777Y-46878223D01*
X112149253Y-46896401D01*
X112163868Y-46916107D01*
X112176480Y-46937150D01*
X112186970Y-46959329D01*
X112195235Y-46982428D01*
X112201196Y-47006227D01*
X112204796Y-47030495D01*
X112206000Y-47054999D01*
X112206000Y-47705001D01*
X112204796Y-47729505D01*
X112201196Y-47753773D01*
X112195235Y-47777572D01*
X112186970Y-47800671D01*
X112176480Y-47822850D01*
X112163868Y-47843893D01*
X112149253Y-47863599D01*
X112132777Y-47881777D01*
X112114599Y-47898253D01*
X112094893Y-47912868D01*
X112073850Y-47925480D01*
X112051671Y-47935970D01*
X112028572Y-47944235D01*
X112004773Y-47950196D01*
X111980505Y-47953796D01*
X111956001Y-47955000D01*
X111055999Y-47955000D01*
X111031495Y-47953796D01*
X111007227Y-47950196D01*
X110983428Y-47944235D01*
X110960329Y-47935970D01*
X110938150Y-47925480D01*
X110917107Y-47912868D01*
X110897401Y-47898253D01*
X110879223Y-47881777D01*
X110862747Y-47863599D01*
X110848132Y-47843893D01*
X110835520Y-47822850D01*
X110825030Y-47800671D01*
X110816765Y-47777572D01*
X110810804Y-47753773D01*
X110807204Y-47729505D01*
X110806000Y-47705001D01*
X110806000Y-47054999D01*
X110807204Y-47030495D01*
X110810804Y-47006227D01*
X110816765Y-46982428D01*
X110825030Y-46959329D01*
X110835520Y-46937150D01*
X110848132Y-46916107D01*
X110862747Y-46896401D01*
X110879223Y-46878223D01*
X110897401Y-46861747D01*
X110917107Y-46847132D01*
X110938150Y-46834520D01*
X110960329Y-46824030D01*
X110983428Y-46815765D01*
X111007227Y-46809804D01*
X111031495Y-46806204D01*
X111055999Y-46805000D01*
X111956001Y-46805000D01*
X111980505Y-46806204D01*
G37*
G36*
X111980505Y-44756204D02*
G01*
X112004773Y-44759804D01*
X112028572Y-44765765D01*
X112051671Y-44774030D01*
X112073850Y-44784520D01*
X112094893Y-44797132D01*
X112114599Y-44811747D01*
X112132777Y-44828223D01*
X112149253Y-44846401D01*
X112163868Y-44866107D01*
X112176480Y-44887150D01*
X112186970Y-44909329D01*
X112195235Y-44932428D01*
X112201196Y-44956227D01*
X112204796Y-44980495D01*
X112206000Y-45004999D01*
X112206000Y-45655001D01*
X112204796Y-45679505D01*
X112201196Y-45703773D01*
X112195235Y-45727572D01*
X112186970Y-45750671D01*
X112176480Y-45772850D01*
X112163868Y-45793893D01*
X112149253Y-45813599D01*
X112132777Y-45831777D01*
X112114599Y-45848253D01*
X112094893Y-45862868D01*
X112073850Y-45875480D01*
X112051671Y-45885970D01*
X112028572Y-45894235D01*
X112004773Y-45900196D01*
X111980505Y-45903796D01*
X111956001Y-45905000D01*
X111055999Y-45905000D01*
X111031495Y-45903796D01*
X111007227Y-45900196D01*
X110983428Y-45894235D01*
X110960329Y-45885970D01*
X110938150Y-45875480D01*
X110917107Y-45862868D01*
X110897401Y-45848253D01*
X110879223Y-45831777D01*
X110862747Y-45813599D01*
X110848132Y-45793893D01*
X110835520Y-45772850D01*
X110825030Y-45750671D01*
X110816765Y-45727572D01*
X110810804Y-45703773D01*
X110807204Y-45679505D01*
X110806000Y-45655001D01*
X110806000Y-45004999D01*
X110807204Y-44980495D01*
X110810804Y-44956227D01*
X110816765Y-44932428D01*
X110825030Y-44909329D01*
X110835520Y-44887150D01*
X110848132Y-44866107D01*
X110862747Y-44846401D01*
X110879223Y-44828223D01*
X110897401Y-44811747D01*
X110917107Y-44797132D01*
X110938150Y-44784520D01*
X110960329Y-44774030D01*
X110983428Y-44765765D01*
X111007227Y-44759804D01*
X111031495Y-44756204D01*
X111055999Y-44755000D01*
X111956001Y-44755000D01*
X111980505Y-44756204D01*
G37*
G36*
X148930505Y-40957204D02*
G01*
X148954773Y-40960804D01*
X148978572Y-40966765D01*
X149001671Y-40975030D01*
X149023850Y-40985520D01*
X149044893Y-40998132D01*
X149064599Y-41012747D01*
X149082777Y-41029223D01*
X149099253Y-41047401D01*
X149113868Y-41067107D01*
X149126480Y-41088150D01*
X149136970Y-41110329D01*
X149145235Y-41133428D01*
X149151196Y-41157227D01*
X149154796Y-41181495D01*
X149156000Y-41205999D01*
X149156000Y-42106001D01*
X149154796Y-42130505D01*
X149151196Y-42154773D01*
X149145235Y-42178572D01*
X149136970Y-42201671D01*
X149126480Y-42223850D01*
X149113868Y-42244893D01*
X149099253Y-42264599D01*
X149082777Y-42282777D01*
X149064599Y-42299253D01*
X149044893Y-42313868D01*
X149023850Y-42326480D01*
X149001671Y-42336970D01*
X148978572Y-42345235D01*
X148954773Y-42351196D01*
X148930505Y-42354796D01*
X148906001Y-42356000D01*
X148255999Y-42356000D01*
X148231495Y-42354796D01*
X148207227Y-42351196D01*
X148183428Y-42345235D01*
X148160329Y-42336970D01*
X148138150Y-42326480D01*
X148117107Y-42313868D01*
X148097401Y-42299253D01*
X148079223Y-42282777D01*
X148062747Y-42264599D01*
X148048132Y-42244893D01*
X148035520Y-42223850D01*
X148025030Y-42201671D01*
X148016765Y-42178572D01*
X148010804Y-42154773D01*
X148007204Y-42130505D01*
X148006000Y-42106001D01*
X148006000Y-41205999D01*
X148007204Y-41181495D01*
X148010804Y-41157227D01*
X148016765Y-41133428D01*
X148025030Y-41110329D01*
X148035520Y-41088150D01*
X148048132Y-41067107D01*
X148062747Y-41047401D01*
X148079223Y-41029223D01*
X148097401Y-41012747D01*
X148117107Y-40998132D01*
X148138150Y-40985520D01*
X148160329Y-40975030D01*
X148183428Y-40966765D01*
X148207227Y-40960804D01*
X148231495Y-40957204D01*
X148255999Y-40956000D01*
X148906001Y-40956000D01*
X148930505Y-40957204D01*
G37*
G36*
X150980505Y-40957204D02*
G01*
X151004773Y-40960804D01*
X151028572Y-40966765D01*
X151051671Y-40975030D01*
X151073850Y-40985520D01*
X151094893Y-40998132D01*
X151114599Y-41012747D01*
X151132777Y-41029223D01*
X151149253Y-41047401D01*
X151163868Y-41067107D01*
X151176480Y-41088150D01*
X151186970Y-41110329D01*
X151195235Y-41133428D01*
X151201196Y-41157227D01*
X151204796Y-41181495D01*
X151206000Y-41205999D01*
X151206000Y-42106001D01*
X151204796Y-42130505D01*
X151201196Y-42154773D01*
X151195235Y-42178572D01*
X151186970Y-42201671D01*
X151176480Y-42223850D01*
X151163868Y-42244893D01*
X151149253Y-42264599D01*
X151132777Y-42282777D01*
X151114599Y-42299253D01*
X151094893Y-42313868D01*
X151073850Y-42326480D01*
X151051671Y-42336970D01*
X151028572Y-42345235D01*
X151004773Y-42351196D01*
X150980505Y-42354796D01*
X150956001Y-42356000D01*
X150305999Y-42356000D01*
X150281495Y-42354796D01*
X150257227Y-42351196D01*
X150233428Y-42345235D01*
X150210329Y-42336970D01*
X150188150Y-42326480D01*
X150167107Y-42313868D01*
X150147401Y-42299253D01*
X150129223Y-42282777D01*
X150112747Y-42264599D01*
X150098132Y-42244893D01*
X150085520Y-42223850D01*
X150075030Y-42201671D01*
X150066765Y-42178572D01*
X150060804Y-42154773D01*
X150057204Y-42130505D01*
X150056000Y-42106001D01*
X150056000Y-41205999D01*
X150057204Y-41181495D01*
X150060804Y-41157227D01*
X150066765Y-41133428D01*
X150075030Y-41110329D01*
X150085520Y-41088150D01*
X150098132Y-41067107D01*
X150112747Y-41047401D01*
X150129223Y-41029223D01*
X150147401Y-41012747D01*
X150167107Y-40998132D01*
X150188150Y-40985520D01*
X150210329Y-40975030D01*
X150233428Y-40966765D01*
X150257227Y-40960804D01*
X150281495Y-40957204D01*
X150305999Y-40956000D01*
X150956001Y-40956000D01*
X150980505Y-40957204D01*
G37*
G36*
X154790505Y-53149204D02*
G01*
X154814773Y-53152804D01*
X154838572Y-53158765D01*
X154861671Y-53167030D01*
X154883850Y-53177520D01*
X154904893Y-53190132D01*
X154924599Y-53204747D01*
X154942777Y-53221223D01*
X154959253Y-53239401D01*
X154973868Y-53259107D01*
X154986480Y-53280150D01*
X154996970Y-53302329D01*
X155005235Y-53325428D01*
X155011196Y-53349227D01*
X155014796Y-53373495D01*
X155016000Y-53397999D01*
X155016000Y-54298001D01*
X155014796Y-54322505D01*
X155011196Y-54346773D01*
X155005235Y-54370572D01*
X154996970Y-54393671D01*
X154986480Y-54415850D01*
X154973868Y-54436893D01*
X154959253Y-54456599D01*
X154942777Y-54474777D01*
X154924599Y-54491253D01*
X154904893Y-54505868D01*
X154883850Y-54518480D01*
X154861671Y-54528970D01*
X154838572Y-54537235D01*
X154814773Y-54543196D01*
X154790505Y-54546796D01*
X154766001Y-54548000D01*
X154115999Y-54548000D01*
X154091495Y-54546796D01*
X154067227Y-54543196D01*
X154043428Y-54537235D01*
X154020329Y-54528970D01*
X153998150Y-54518480D01*
X153977107Y-54505868D01*
X153957401Y-54491253D01*
X153939223Y-54474777D01*
X153922747Y-54456599D01*
X153908132Y-54436893D01*
X153895520Y-54415850D01*
X153885030Y-54393671D01*
X153876765Y-54370572D01*
X153870804Y-54346773D01*
X153867204Y-54322505D01*
X153866000Y-54298001D01*
X153866000Y-53397999D01*
X153867204Y-53373495D01*
X153870804Y-53349227D01*
X153876765Y-53325428D01*
X153885030Y-53302329D01*
X153895520Y-53280150D01*
X153908132Y-53259107D01*
X153922747Y-53239401D01*
X153939223Y-53221223D01*
X153957401Y-53204747D01*
X153977107Y-53190132D01*
X153998150Y-53177520D01*
X154020329Y-53167030D01*
X154043428Y-53158765D01*
X154067227Y-53152804D01*
X154091495Y-53149204D01*
X154115999Y-53148000D01*
X154766001Y-53148000D01*
X154790505Y-53149204D01*
G37*
G36*
X152740505Y-53149204D02*
G01*
X152764773Y-53152804D01*
X152788572Y-53158765D01*
X152811671Y-53167030D01*
X152833850Y-53177520D01*
X152854893Y-53190132D01*
X152874599Y-53204747D01*
X152892777Y-53221223D01*
X152909253Y-53239401D01*
X152923868Y-53259107D01*
X152936480Y-53280150D01*
X152946970Y-53302329D01*
X152955235Y-53325428D01*
X152961196Y-53349227D01*
X152964796Y-53373495D01*
X152966000Y-53397999D01*
X152966000Y-54298001D01*
X152964796Y-54322505D01*
X152961196Y-54346773D01*
X152955235Y-54370572D01*
X152946970Y-54393671D01*
X152936480Y-54415850D01*
X152923868Y-54436893D01*
X152909253Y-54456599D01*
X152892777Y-54474777D01*
X152874599Y-54491253D01*
X152854893Y-54505868D01*
X152833850Y-54518480D01*
X152811671Y-54528970D01*
X152788572Y-54537235D01*
X152764773Y-54543196D01*
X152740505Y-54546796D01*
X152716001Y-54548000D01*
X152065999Y-54548000D01*
X152041495Y-54546796D01*
X152017227Y-54543196D01*
X151993428Y-54537235D01*
X151970329Y-54528970D01*
X151948150Y-54518480D01*
X151927107Y-54505868D01*
X151907401Y-54491253D01*
X151889223Y-54474777D01*
X151872747Y-54456599D01*
X151858132Y-54436893D01*
X151845520Y-54415850D01*
X151835030Y-54393671D01*
X151826765Y-54370572D01*
X151820804Y-54346773D01*
X151817204Y-54322505D01*
X151816000Y-54298001D01*
X151816000Y-53397999D01*
X151817204Y-53373495D01*
X151820804Y-53349227D01*
X151826765Y-53325428D01*
X151835030Y-53302329D01*
X151845520Y-53280150D01*
X151858132Y-53259107D01*
X151872747Y-53239401D01*
X151889223Y-53221223D01*
X151907401Y-53204747D01*
X151927107Y-53190132D01*
X151948150Y-53177520D01*
X151970329Y-53167030D01*
X151993428Y-53158765D01*
X152017227Y-53152804D01*
X152041495Y-53149204D01*
X152065999Y-53148000D01*
X152716001Y-53148000D01*
X152740505Y-53149204D01*
G37*
G36*
X124934505Y-47695204D02*
G01*
X124958773Y-47698804D01*
X124982572Y-47704765D01*
X125005671Y-47713030D01*
X125027850Y-47723520D01*
X125048893Y-47736132D01*
X125068599Y-47750747D01*
X125086777Y-47767223D01*
X125103253Y-47785401D01*
X125117868Y-47805107D01*
X125130480Y-47826150D01*
X125140970Y-47848329D01*
X125149235Y-47871428D01*
X125155196Y-47895227D01*
X125158796Y-47919495D01*
X125160000Y-47943999D01*
X125160000Y-48594001D01*
X125158796Y-48618505D01*
X125155196Y-48642773D01*
X125149235Y-48666572D01*
X125140970Y-48689671D01*
X125130480Y-48711850D01*
X125117868Y-48732893D01*
X125103253Y-48752599D01*
X125086777Y-48770777D01*
X125068599Y-48787253D01*
X125048893Y-48801868D01*
X125027850Y-48814480D01*
X125005671Y-48824970D01*
X124982572Y-48833235D01*
X124958773Y-48839196D01*
X124934505Y-48842796D01*
X124910001Y-48844000D01*
X124009999Y-48844000D01*
X123985495Y-48842796D01*
X123961227Y-48839196D01*
X123937428Y-48833235D01*
X123914329Y-48824970D01*
X123892150Y-48814480D01*
X123871107Y-48801868D01*
X123851401Y-48787253D01*
X123833223Y-48770777D01*
X123816747Y-48752599D01*
X123802132Y-48732893D01*
X123789520Y-48711850D01*
X123779030Y-48689671D01*
X123770765Y-48666572D01*
X123764804Y-48642773D01*
X123761204Y-48618505D01*
X123760000Y-48594001D01*
X123760000Y-47943999D01*
X123761204Y-47919495D01*
X123764804Y-47895227D01*
X123770765Y-47871428D01*
X123779030Y-47848329D01*
X123789520Y-47826150D01*
X123802132Y-47805107D01*
X123816747Y-47785401D01*
X123833223Y-47767223D01*
X123851401Y-47750747D01*
X123871107Y-47736132D01*
X123892150Y-47723520D01*
X123914329Y-47713030D01*
X123937428Y-47704765D01*
X123961227Y-47698804D01*
X123985495Y-47695204D01*
X124009999Y-47694000D01*
X124910001Y-47694000D01*
X124934505Y-47695204D01*
G37*
G36*
X124934505Y-45645204D02*
G01*
X124958773Y-45648804D01*
X124982572Y-45654765D01*
X125005671Y-45663030D01*
X125027850Y-45673520D01*
X125048893Y-45686132D01*
X125068599Y-45700747D01*
X125086777Y-45717223D01*
X125103253Y-45735401D01*
X125117868Y-45755107D01*
X125130480Y-45776150D01*
X125140970Y-45798329D01*
X125149235Y-45821428D01*
X125155196Y-45845227D01*
X125158796Y-45869495D01*
X125160000Y-45893999D01*
X125160000Y-46544001D01*
X125158796Y-46568505D01*
X125155196Y-46592773D01*
X125149235Y-46616572D01*
X125140970Y-46639671D01*
X125130480Y-46661850D01*
X125117868Y-46682893D01*
X125103253Y-46702599D01*
X125086777Y-46720777D01*
X125068599Y-46737253D01*
X125048893Y-46751868D01*
X125027850Y-46764480D01*
X125005671Y-46774970D01*
X124982572Y-46783235D01*
X124958773Y-46789196D01*
X124934505Y-46792796D01*
X124910001Y-46794000D01*
X124009999Y-46794000D01*
X123985495Y-46792796D01*
X123961227Y-46789196D01*
X123937428Y-46783235D01*
X123914329Y-46774970D01*
X123892150Y-46764480D01*
X123871107Y-46751868D01*
X123851401Y-46737253D01*
X123833223Y-46720777D01*
X123816747Y-46702599D01*
X123802132Y-46682893D01*
X123789520Y-46661850D01*
X123779030Y-46639671D01*
X123770765Y-46616572D01*
X123764804Y-46592773D01*
X123761204Y-46568505D01*
X123760000Y-46544001D01*
X123760000Y-45893999D01*
X123761204Y-45869495D01*
X123764804Y-45845227D01*
X123770765Y-45821428D01*
X123779030Y-45798329D01*
X123789520Y-45776150D01*
X123802132Y-45755107D01*
X123816747Y-45735401D01*
X123833223Y-45717223D01*
X123851401Y-45700747D01*
X123871107Y-45686132D01*
X123892150Y-45673520D01*
X123914329Y-45663030D01*
X123937428Y-45654765D01*
X123961227Y-45648804D01*
X123985495Y-45645204D01*
X124009999Y-45644000D01*
X124910001Y-45644000D01*
X124934505Y-45645204D01*
G37*
G36*
X154790505Y-43243204D02*
G01*
X154814773Y-43246804D01*
X154838572Y-43252765D01*
X154861671Y-43261030D01*
X154883850Y-43271520D01*
X154904893Y-43284132D01*
X154924599Y-43298747D01*
X154942777Y-43315223D01*
X154959253Y-43333401D01*
X154973868Y-43353107D01*
X154986480Y-43374150D01*
X154996970Y-43396329D01*
X155005235Y-43419428D01*
X155011196Y-43443227D01*
X155014796Y-43467495D01*
X155016000Y-43491999D01*
X155016000Y-44392001D01*
X155014796Y-44416505D01*
X155011196Y-44440773D01*
X155005235Y-44464572D01*
X154996970Y-44487671D01*
X154986480Y-44509850D01*
X154973868Y-44530893D01*
X154959253Y-44550599D01*
X154942777Y-44568777D01*
X154924599Y-44585253D01*
X154904893Y-44599868D01*
X154883850Y-44612480D01*
X154861671Y-44622970D01*
X154838572Y-44631235D01*
X154814773Y-44637196D01*
X154790505Y-44640796D01*
X154766001Y-44642000D01*
X154115999Y-44642000D01*
X154091495Y-44640796D01*
X154067227Y-44637196D01*
X154043428Y-44631235D01*
X154020329Y-44622970D01*
X153998150Y-44612480D01*
X153977107Y-44599868D01*
X153957401Y-44585253D01*
X153939223Y-44568777D01*
X153922747Y-44550599D01*
X153908132Y-44530893D01*
X153895520Y-44509850D01*
X153885030Y-44487671D01*
X153876765Y-44464572D01*
X153870804Y-44440773D01*
X153867204Y-44416505D01*
X153866000Y-44392001D01*
X153866000Y-43491999D01*
X153867204Y-43467495D01*
X153870804Y-43443227D01*
X153876765Y-43419428D01*
X153885030Y-43396329D01*
X153895520Y-43374150D01*
X153908132Y-43353107D01*
X153922747Y-43333401D01*
X153939223Y-43315223D01*
X153957401Y-43298747D01*
X153977107Y-43284132D01*
X153998150Y-43271520D01*
X154020329Y-43261030D01*
X154043428Y-43252765D01*
X154067227Y-43246804D01*
X154091495Y-43243204D01*
X154115999Y-43242000D01*
X154766001Y-43242000D01*
X154790505Y-43243204D01*
G37*
G36*
X152740505Y-43243204D02*
G01*
X152764773Y-43246804D01*
X152788572Y-43252765D01*
X152811671Y-43261030D01*
X152833850Y-43271520D01*
X152854893Y-43284132D01*
X152874599Y-43298747D01*
X152892777Y-43315223D01*
X152909253Y-43333401D01*
X152923868Y-43353107D01*
X152936480Y-43374150D01*
X152946970Y-43396329D01*
X152955235Y-43419428D01*
X152961196Y-43443227D01*
X152964796Y-43467495D01*
X152966000Y-43491999D01*
X152966000Y-44392001D01*
X152964796Y-44416505D01*
X152961196Y-44440773D01*
X152955235Y-44464572D01*
X152946970Y-44487671D01*
X152936480Y-44509850D01*
X152923868Y-44530893D01*
X152909253Y-44550599D01*
X152892777Y-44568777D01*
X152874599Y-44585253D01*
X152854893Y-44599868D01*
X152833850Y-44612480D01*
X152811671Y-44622970D01*
X152788572Y-44631235D01*
X152764773Y-44637196D01*
X152740505Y-44640796D01*
X152716001Y-44642000D01*
X152065999Y-44642000D01*
X152041495Y-44640796D01*
X152017227Y-44637196D01*
X151993428Y-44631235D01*
X151970329Y-44622970D01*
X151948150Y-44612480D01*
X151927107Y-44599868D01*
X151907401Y-44585253D01*
X151889223Y-44568777D01*
X151872747Y-44550599D01*
X151858132Y-44530893D01*
X151845520Y-44509850D01*
X151835030Y-44487671D01*
X151826765Y-44464572D01*
X151820804Y-44440773D01*
X151817204Y-44416505D01*
X151816000Y-44392001D01*
X151816000Y-43491999D01*
X151817204Y-43467495D01*
X151820804Y-43443227D01*
X151826765Y-43419428D01*
X151835030Y-43396329D01*
X151845520Y-43374150D01*
X151858132Y-43353107D01*
X151872747Y-43333401D01*
X151889223Y-43315223D01*
X151907401Y-43298747D01*
X151927107Y-43284132D01*
X151948150Y-43271520D01*
X151970329Y-43261030D01*
X151993428Y-43252765D01*
X152017227Y-43246804D01*
X152041495Y-43243204D01*
X152065999Y-43242000D01*
X152716001Y-43242000D01*
X152740505Y-43243204D01*
G37*
G36*
X154790505Y-50863204D02*
G01*
X154814773Y-50866804D01*
X154838572Y-50872765D01*
X154861671Y-50881030D01*
X154883850Y-50891520D01*
X154904893Y-50904132D01*
X154924599Y-50918747D01*
X154942777Y-50935223D01*
X154959253Y-50953401D01*
X154973868Y-50973107D01*
X154986480Y-50994150D01*
X154996970Y-51016329D01*
X155005235Y-51039428D01*
X155011196Y-51063227D01*
X155014796Y-51087495D01*
X155016000Y-51111999D01*
X155016000Y-52012001D01*
X155014796Y-52036505D01*
X155011196Y-52060773D01*
X155005235Y-52084572D01*
X154996970Y-52107671D01*
X154986480Y-52129850D01*
X154973868Y-52150893D01*
X154959253Y-52170599D01*
X154942777Y-52188777D01*
X154924599Y-52205253D01*
X154904893Y-52219868D01*
X154883850Y-52232480D01*
X154861671Y-52242970D01*
X154838572Y-52251235D01*
X154814773Y-52257196D01*
X154790505Y-52260796D01*
X154766001Y-52262000D01*
X154115999Y-52262000D01*
X154091495Y-52260796D01*
X154067227Y-52257196D01*
X154043428Y-52251235D01*
X154020329Y-52242970D01*
X153998150Y-52232480D01*
X153977107Y-52219868D01*
X153957401Y-52205253D01*
X153939223Y-52188777D01*
X153922747Y-52170599D01*
X153908132Y-52150893D01*
X153895520Y-52129850D01*
X153885030Y-52107671D01*
X153876765Y-52084572D01*
X153870804Y-52060773D01*
X153867204Y-52036505D01*
X153866000Y-52012001D01*
X153866000Y-51111999D01*
X153867204Y-51087495D01*
X153870804Y-51063227D01*
X153876765Y-51039428D01*
X153885030Y-51016329D01*
X153895520Y-50994150D01*
X153908132Y-50973107D01*
X153922747Y-50953401D01*
X153939223Y-50935223D01*
X153957401Y-50918747D01*
X153977107Y-50904132D01*
X153998150Y-50891520D01*
X154020329Y-50881030D01*
X154043428Y-50872765D01*
X154067227Y-50866804D01*
X154091495Y-50863204D01*
X154115999Y-50862000D01*
X154766001Y-50862000D01*
X154790505Y-50863204D01*
G37*
G36*
X152740505Y-50863204D02*
G01*
X152764773Y-50866804D01*
X152788572Y-50872765D01*
X152811671Y-50881030D01*
X152833850Y-50891520D01*
X152854893Y-50904132D01*
X152874599Y-50918747D01*
X152892777Y-50935223D01*
X152909253Y-50953401D01*
X152923868Y-50973107D01*
X152936480Y-50994150D01*
X152946970Y-51016329D01*
X152955235Y-51039428D01*
X152961196Y-51063227D01*
X152964796Y-51087495D01*
X152966000Y-51111999D01*
X152966000Y-52012001D01*
X152964796Y-52036505D01*
X152961196Y-52060773D01*
X152955235Y-52084572D01*
X152946970Y-52107671D01*
X152936480Y-52129850D01*
X152923868Y-52150893D01*
X152909253Y-52170599D01*
X152892777Y-52188777D01*
X152874599Y-52205253D01*
X152854893Y-52219868D01*
X152833850Y-52232480D01*
X152811671Y-52242970D01*
X152788572Y-52251235D01*
X152764773Y-52257196D01*
X152740505Y-52260796D01*
X152716001Y-52262000D01*
X152065999Y-52262000D01*
X152041495Y-52260796D01*
X152017227Y-52257196D01*
X151993428Y-52251235D01*
X151970329Y-52242970D01*
X151948150Y-52232480D01*
X151927107Y-52219868D01*
X151907401Y-52205253D01*
X151889223Y-52188777D01*
X151872747Y-52170599D01*
X151858132Y-52150893D01*
X151845520Y-52129850D01*
X151835030Y-52107671D01*
X151826765Y-52084572D01*
X151820804Y-52060773D01*
X151817204Y-52036505D01*
X151816000Y-52012001D01*
X151816000Y-51111999D01*
X151817204Y-51087495D01*
X151820804Y-51063227D01*
X151826765Y-51039428D01*
X151835030Y-51016329D01*
X151845520Y-50994150D01*
X151858132Y-50973107D01*
X151872747Y-50953401D01*
X151889223Y-50935223D01*
X151907401Y-50918747D01*
X151927107Y-50904132D01*
X151948150Y-50891520D01*
X151970329Y-50881030D01*
X151993428Y-50872765D01*
X152017227Y-50866804D01*
X152041495Y-50863204D01*
X152065999Y-50862000D01*
X152716001Y-50862000D01*
X152740505Y-50863204D01*
G37*
G36*
X146778505Y-48947204D02*
G01*
X146802773Y-48950804D01*
X146826572Y-48956765D01*
X146849671Y-48965030D01*
X146871850Y-48975520D01*
X146892893Y-48988132D01*
X146912599Y-49002747D01*
X146930777Y-49019223D01*
X146947253Y-49037401D01*
X146961868Y-49057107D01*
X146974480Y-49078150D01*
X146984970Y-49100329D01*
X146993235Y-49123428D01*
X146999196Y-49147227D01*
X147002796Y-49171495D01*
X147004000Y-49195999D01*
X147004000Y-49846001D01*
X147002796Y-49870505D01*
X146999196Y-49894773D01*
X146993235Y-49918572D01*
X146984970Y-49941671D01*
X146974480Y-49963850D01*
X146961868Y-49984893D01*
X146947253Y-50004599D01*
X146930777Y-50022777D01*
X146912599Y-50039253D01*
X146892893Y-50053868D01*
X146871850Y-50066480D01*
X146849671Y-50076970D01*
X146826572Y-50085235D01*
X146802773Y-50091196D01*
X146778505Y-50094796D01*
X146754001Y-50096000D01*
X145853999Y-50096000D01*
X145829495Y-50094796D01*
X145805227Y-50091196D01*
X145781428Y-50085235D01*
X145758329Y-50076970D01*
X145736150Y-50066480D01*
X145715107Y-50053868D01*
X145695401Y-50039253D01*
X145677223Y-50022777D01*
X145660747Y-50004599D01*
X145646132Y-49984893D01*
X145633520Y-49963850D01*
X145623030Y-49941671D01*
X145614765Y-49918572D01*
X145608804Y-49894773D01*
X145605204Y-49870505D01*
X145604000Y-49846001D01*
X145604000Y-49195999D01*
X145605204Y-49171495D01*
X145608804Y-49147227D01*
X145614765Y-49123428D01*
X145623030Y-49100329D01*
X145633520Y-49078150D01*
X145646132Y-49057107D01*
X145660747Y-49037401D01*
X145677223Y-49019223D01*
X145695401Y-49002747D01*
X145715107Y-48988132D01*
X145736150Y-48975520D01*
X145758329Y-48965030D01*
X145781428Y-48956765D01*
X145805227Y-48950804D01*
X145829495Y-48947204D01*
X145853999Y-48946000D01*
X146754001Y-48946000D01*
X146778505Y-48947204D01*
G37*
G36*
X146778505Y-50997204D02*
G01*
X146802773Y-51000804D01*
X146826572Y-51006765D01*
X146849671Y-51015030D01*
X146871850Y-51025520D01*
X146892893Y-51038132D01*
X146912599Y-51052747D01*
X146930777Y-51069223D01*
X146947253Y-51087401D01*
X146961868Y-51107107D01*
X146974480Y-51128150D01*
X146984970Y-51150329D01*
X146993235Y-51173428D01*
X146999196Y-51197227D01*
X147002796Y-51221495D01*
X147004000Y-51245999D01*
X147004000Y-51896001D01*
X147002796Y-51920505D01*
X146999196Y-51944773D01*
X146993235Y-51968572D01*
X146984970Y-51991671D01*
X146974480Y-52013850D01*
X146961868Y-52034893D01*
X146947253Y-52054599D01*
X146930777Y-52072777D01*
X146912599Y-52089253D01*
X146892893Y-52103868D01*
X146871850Y-52116480D01*
X146849671Y-52126970D01*
X146826572Y-52135235D01*
X146802773Y-52141196D01*
X146778505Y-52144796D01*
X146754001Y-52146000D01*
X145853999Y-52146000D01*
X145829495Y-52144796D01*
X145805227Y-52141196D01*
X145781428Y-52135235D01*
X145758329Y-52126970D01*
X145736150Y-52116480D01*
X145715107Y-52103868D01*
X145695401Y-52089253D01*
X145677223Y-52072777D01*
X145660747Y-52054599D01*
X145646132Y-52034893D01*
X145633520Y-52013850D01*
X145623030Y-51991671D01*
X145614765Y-51968572D01*
X145608804Y-51944773D01*
X145605204Y-51920505D01*
X145604000Y-51896001D01*
X145604000Y-51245999D01*
X145605204Y-51221495D01*
X145608804Y-51197227D01*
X145614765Y-51173428D01*
X145623030Y-51150329D01*
X145633520Y-51128150D01*
X145646132Y-51107107D01*
X145660747Y-51087401D01*
X145677223Y-51069223D01*
X145695401Y-51052747D01*
X145715107Y-51038132D01*
X145736150Y-51025520D01*
X145758329Y-51015030D01*
X145781428Y-51006765D01*
X145805227Y-51000804D01*
X145829495Y-50997204D01*
X145853999Y-50996000D01*
X146754001Y-50996000D01*
X146778505Y-50997204D01*
G37*
G36*
X146778505Y-45155204D02*
G01*
X146802773Y-45158804D01*
X146826572Y-45164765D01*
X146849671Y-45173030D01*
X146871850Y-45183520D01*
X146892893Y-45196132D01*
X146912599Y-45210747D01*
X146930777Y-45227223D01*
X146947253Y-45245401D01*
X146961868Y-45265107D01*
X146974480Y-45286150D01*
X146984970Y-45308329D01*
X146993235Y-45331428D01*
X146999196Y-45355227D01*
X147002796Y-45379495D01*
X147004000Y-45403999D01*
X147004000Y-46054001D01*
X147002796Y-46078505D01*
X146999196Y-46102773D01*
X146993235Y-46126572D01*
X146984970Y-46149671D01*
X146974480Y-46171850D01*
X146961868Y-46192893D01*
X146947253Y-46212599D01*
X146930777Y-46230777D01*
X146912599Y-46247253D01*
X146892893Y-46261868D01*
X146871850Y-46274480D01*
X146849671Y-46284970D01*
X146826572Y-46293235D01*
X146802773Y-46299196D01*
X146778505Y-46302796D01*
X146754001Y-46304000D01*
X145853999Y-46304000D01*
X145829495Y-46302796D01*
X145805227Y-46299196D01*
X145781428Y-46293235D01*
X145758329Y-46284970D01*
X145736150Y-46274480D01*
X145715107Y-46261868D01*
X145695401Y-46247253D01*
X145677223Y-46230777D01*
X145660747Y-46212599D01*
X145646132Y-46192893D01*
X145633520Y-46171850D01*
X145623030Y-46149671D01*
X145614765Y-46126572D01*
X145608804Y-46102773D01*
X145605204Y-46078505D01*
X145604000Y-46054001D01*
X145604000Y-45403999D01*
X145605204Y-45379495D01*
X145608804Y-45355227D01*
X145614765Y-45331428D01*
X145623030Y-45308329D01*
X145633520Y-45286150D01*
X145646132Y-45265107D01*
X145660747Y-45245401D01*
X145677223Y-45227223D01*
X145695401Y-45210747D01*
X145715107Y-45196132D01*
X145736150Y-45183520D01*
X145758329Y-45173030D01*
X145781428Y-45164765D01*
X145805227Y-45158804D01*
X145829495Y-45155204D01*
X145853999Y-45154000D01*
X146754001Y-45154000D01*
X146778505Y-45155204D01*
G37*
G36*
X146778505Y-43105204D02*
G01*
X146802773Y-43108804D01*
X146826572Y-43114765D01*
X146849671Y-43123030D01*
X146871850Y-43133520D01*
X146892893Y-43146132D01*
X146912599Y-43160747D01*
X146930777Y-43177223D01*
X146947253Y-43195401D01*
X146961868Y-43215107D01*
X146974480Y-43236150D01*
X146984970Y-43258329D01*
X146993235Y-43281428D01*
X146999196Y-43305227D01*
X147002796Y-43329495D01*
X147004000Y-43353999D01*
X147004000Y-44004001D01*
X147002796Y-44028505D01*
X146999196Y-44052773D01*
X146993235Y-44076572D01*
X146984970Y-44099671D01*
X146974480Y-44121850D01*
X146961868Y-44142893D01*
X146947253Y-44162599D01*
X146930777Y-44180777D01*
X146912599Y-44197253D01*
X146892893Y-44211868D01*
X146871850Y-44224480D01*
X146849671Y-44234970D01*
X146826572Y-44243235D01*
X146802773Y-44249196D01*
X146778505Y-44252796D01*
X146754001Y-44254000D01*
X145853999Y-44254000D01*
X145829495Y-44252796D01*
X145805227Y-44249196D01*
X145781428Y-44243235D01*
X145758329Y-44234970D01*
X145736150Y-44224480D01*
X145715107Y-44211868D01*
X145695401Y-44197253D01*
X145677223Y-44180777D01*
X145660747Y-44162599D01*
X145646132Y-44142893D01*
X145633520Y-44121850D01*
X145623030Y-44099671D01*
X145614765Y-44076572D01*
X145608804Y-44052773D01*
X145605204Y-44028505D01*
X145604000Y-44004001D01*
X145604000Y-43353999D01*
X145605204Y-43329495D01*
X145608804Y-43305227D01*
X145614765Y-43281428D01*
X145623030Y-43258329D01*
X145633520Y-43236150D01*
X145646132Y-43215107D01*
X145660747Y-43195401D01*
X145677223Y-43177223D01*
X145695401Y-43160747D01*
X145715107Y-43146132D01*
X145736150Y-43133520D01*
X145758329Y-43123030D01*
X145781428Y-43114765D01*
X145805227Y-43108804D01*
X145829495Y-43105204D01*
X145853999Y-43104000D01*
X146754001Y-43104000D01*
X146778505Y-43105204D01*
G37*
G36*
X147170505Y-40957204D02*
G01*
X147194773Y-40960804D01*
X147218572Y-40966765D01*
X147241671Y-40975030D01*
X147263850Y-40985520D01*
X147284893Y-40998132D01*
X147304599Y-41012747D01*
X147322777Y-41029223D01*
X147339253Y-41047401D01*
X147353868Y-41067107D01*
X147366480Y-41088150D01*
X147376970Y-41110329D01*
X147385235Y-41133428D01*
X147391196Y-41157227D01*
X147394796Y-41181495D01*
X147396000Y-41205999D01*
X147396000Y-42106001D01*
X147394796Y-42130505D01*
X147391196Y-42154773D01*
X147385235Y-42178572D01*
X147376970Y-42201671D01*
X147366480Y-42223850D01*
X147353868Y-42244893D01*
X147339253Y-42264599D01*
X147322777Y-42282777D01*
X147304599Y-42299253D01*
X147284893Y-42313868D01*
X147263850Y-42326480D01*
X147241671Y-42336970D01*
X147218572Y-42345235D01*
X147194773Y-42351196D01*
X147170505Y-42354796D01*
X147146001Y-42356000D01*
X146495999Y-42356000D01*
X146471495Y-42354796D01*
X146447227Y-42351196D01*
X146423428Y-42345235D01*
X146400329Y-42336970D01*
X146378150Y-42326480D01*
X146357107Y-42313868D01*
X146337401Y-42299253D01*
X146319223Y-42282777D01*
X146302747Y-42264599D01*
X146288132Y-42244893D01*
X146275520Y-42223850D01*
X146265030Y-42201671D01*
X146256765Y-42178572D01*
X146250804Y-42154773D01*
X146247204Y-42130505D01*
X146246000Y-42106001D01*
X146246000Y-41205999D01*
X146247204Y-41181495D01*
X146250804Y-41157227D01*
X146256765Y-41133428D01*
X146265030Y-41110329D01*
X146275520Y-41088150D01*
X146288132Y-41067107D01*
X146302747Y-41047401D01*
X146319223Y-41029223D01*
X146337401Y-41012747D01*
X146357107Y-40998132D01*
X146378150Y-40985520D01*
X146400329Y-40975030D01*
X146423428Y-40966765D01*
X146447227Y-40960804D01*
X146471495Y-40957204D01*
X146495999Y-40956000D01*
X147146001Y-40956000D01*
X147170505Y-40957204D01*
G37*
G36*
X145120505Y-40957204D02*
G01*
X145144773Y-40960804D01*
X145168572Y-40966765D01*
X145191671Y-40975030D01*
X145213850Y-40985520D01*
X145234893Y-40998132D01*
X145254599Y-41012747D01*
X145272777Y-41029223D01*
X145289253Y-41047401D01*
X145303868Y-41067107D01*
X145316480Y-41088150D01*
X145326970Y-41110329D01*
X145335235Y-41133428D01*
X145341196Y-41157227D01*
X145344796Y-41181495D01*
X145346000Y-41205999D01*
X145346000Y-42106001D01*
X145344796Y-42130505D01*
X145341196Y-42154773D01*
X145335235Y-42178572D01*
X145326970Y-42201671D01*
X145316480Y-42223850D01*
X145303868Y-42244893D01*
X145289253Y-42264599D01*
X145272777Y-42282777D01*
X145254599Y-42299253D01*
X145234893Y-42313868D01*
X145213850Y-42326480D01*
X145191671Y-42336970D01*
X145168572Y-42345235D01*
X145144773Y-42351196D01*
X145120505Y-42354796D01*
X145096001Y-42356000D01*
X144445999Y-42356000D01*
X144421495Y-42354796D01*
X144397227Y-42351196D01*
X144373428Y-42345235D01*
X144350329Y-42336970D01*
X144328150Y-42326480D01*
X144307107Y-42313868D01*
X144287401Y-42299253D01*
X144269223Y-42282777D01*
X144252747Y-42264599D01*
X144238132Y-42244893D01*
X144225520Y-42223850D01*
X144215030Y-42201671D01*
X144206765Y-42178572D01*
X144200804Y-42154773D01*
X144197204Y-42130505D01*
X144196000Y-42106001D01*
X144196000Y-41205999D01*
X144197204Y-41181495D01*
X144200804Y-41157227D01*
X144206765Y-41133428D01*
X144215030Y-41110329D01*
X144225520Y-41088150D01*
X144238132Y-41067107D01*
X144252747Y-41047401D01*
X144269223Y-41029223D01*
X144287401Y-41012747D01*
X144307107Y-40998132D01*
X144328150Y-40985520D01*
X144350329Y-40975030D01*
X144373428Y-40966765D01*
X144397227Y-40960804D01*
X144421495Y-40957204D01*
X144445999Y-40956000D01*
X145096001Y-40956000D01*
X145120505Y-40957204D01*
G37*
G36*
X111726505Y-51233204D02*
G01*
X111750773Y-51236804D01*
X111774572Y-51242765D01*
X111797671Y-51251030D01*
X111819850Y-51261520D01*
X111840893Y-51274132D01*
X111860599Y-51288747D01*
X111878777Y-51305223D01*
X111895253Y-51323401D01*
X111909868Y-51343107D01*
X111922480Y-51364150D01*
X111932970Y-51386329D01*
X111941235Y-51409428D01*
X111947196Y-51433227D01*
X111950796Y-51457495D01*
X111952000Y-51481999D01*
X111952000Y-52132001D01*
X111950796Y-52156505D01*
X111947196Y-52180773D01*
X111941235Y-52204572D01*
X111932970Y-52227671D01*
X111922480Y-52249850D01*
X111909868Y-52270893D01*
X111895253Y-52290599D01*
X111878777Y-52308777D01*
X111860599Y-52325253D01*
X111840893Y-52339868D01*
X111819850Y-52352480D01*
X111797671Y-52362970D01*
X111774572Y-52371235D01*
X111750773Y-52377196D01*
X111726505Y-52380796D01*
X111702001Y-52382000D01*
X110801999Y-52382000D01*
X110777495Y-52380796D01*
X110753227Y-52377196D01*
X110729428Y-52371235D01*
X110706329Y-52362970D01*
X110684150Y-52352480D01*
X110663107Y-52339868D01*
X110643401Y-52325253D01*
X110625223Y-52308777D01*
X110608747Y-52290599D01*
X110594132Y-52270893D01*
X110581520Y-52249850D01*
X110571030Y-52227671D01*
X110562765Y-52204572D01*
X110556804Y-52180773D01*
X110553204Y-52156505D01*
X110552000Y-52132001D01*
X110552000Y-51481999D01*
X110553204Y-51457495D01*
X110556804Y-51433227D01*
X110562765Y-51409428D01*
X110571030Y-51386329D01*
X110581520Y-51364150D01*
X110594132Y-51343107D01*
X110608747Y-51323401D01*
X110625223Y-51305223D01*
X110643401Y-51288747D01*
X110663107Y-51274132D01*
X110684150Y-51261520D01*
X110706329Y-51251030D01*
X110729428Y-51242765D01*
X110753227Y-51236804D01*
X110777495Y-51233204D01*
X110801999Y-51232000D01*
X111702001Y-51232000D01*
X111726505Y-51233204D01*
G37*
G36*
X111726505Y-53283204D02*
G01*
X111750773Y-53286804D01*
X111774572Y-53292765D01*
X111797671Y-53301030D01*
X111819850Y-53311520D01*
X111840893Y-53324132D01*
X111860599Y-53338747D01*
X111878777Y-53355223D01*
X111895253Y-53373401D01*
X111909868Y-53393107D01*
X111922480Y-53414150D01*
X111932970Y-53436329D01*
X111941235Y-53459428D01*
X111947196Y-53483227D01*
X111950796Y-53507495D01*
X111952000Y-53531999D01*
X111952000Y-54182001D01*
X111950796Y-54206505D01*
X111947196Y-54230773D01*
X111941235Y-54254572D01*
X111932970Y-54277671D01*
X111922480Y-54299850D01*
X111909868Y-54320893D01*
X111895253Y-54340599D01*
X111878777Y-54358777D01*
X111860599Y-54375253D01*
X111840893Y-54389868D01*
X111819850Y-54402480D01*
X111797671Y-54412970D01*
X111774572Y-54421235D01*
X111750773Y-54427196D01*
X111726505Y-54430796D01*
X111702001Y-54432000D01*
X110801999Y-54432000D01*
X110777495Y-54430796D01*
X110753227Y-54427196D01*
X110729428Y-54421235D01*
X110706329Y-54412970D01*
X110684150Y-54402480D01*
X110663107Y-54389868D01*
X110643401Y-54375253D01*
X110625223Y-54358777D01*
X110608747Y-54340599D01*
X110594132Y-54320893D01*
X110581520Y-54299850D01*
X110571030Y-54277671D01*
X110562765Y-54254572D01*
X110556804Y-54230773D01*
X110553204Y-54206505D01*
X110552000Y-54182001D01*
X110552000Y-53531999D01*
X110553204Y-53507495D01*
X110556804Y-53483227D01*
X110562765Y-53459428D01*
X110571030Y-53436329D01*
X110581520Y-53414150D01*
X110594132Y-53393107D01*
X110608747Y-53373401D01*
X110625223Y-53355223D01*
X110643401Y-53338747D01*
X110663107Y-53324132D01*
X110684150Y-53311520D01*
X110706329Y-53301030D01*
X110729428Y-53292765D01*
X110753227Y-53286804D01*
X110777495Y-53283204D01*
X110801999Y-53282000D01*
X111702001Y-53282000D01*
X111726505Y-53283204D01*
G37*
G36*
X127220505Y-41581204D02*
G01*
X127244773Y-41584804D01*
X127268572Y-41590765D01*
X127291671Y-41599030D01*
X127313850Y-41609520D01*
X127334893Y-41622132D01*
X127354599Y-41636747D01*
X127372777Y-41653223D01*
X127389253Y-41671401D01*
X127403868Y-41691107D01*
X127416480Y-41712150D01*
X127426970Y-41734329D01*
X127435235Y-41757428D01*
X127441196Y-41781227D01*
X127444796Y-41805495D01*
X127446000Y-41829999D01*
X127446000Y-42480001D01*
X127444796Y-42504505D01*
X127441196Y-42528773D01*
X127435235Y-42552572D01*
X127426970Y-42575671D01*
X127416480Y-42597850D01*
X127403868Y-42618893D01*
X127389253Y-42638599D01*
X127372777Y-42656777D01*
X127354599Y-42673253D01*
X127334893Y-42687868D01*
X127313850Y-42700480D01*
X127291671Y-42710970D01*
X127268572Y-42719235D01*
X127244773Y-42725196D01*
X127220505Y-42728796D01*
X127196001Y-42730000D01*
X126295999Y-42730000D01*
X126271495Y-42728796D01*
X126247227Y-42725196D01*
X126223428Y-42719235D01*
X126200329Y-42710970D01*
X126178150Y-42700480D01*
X126157107Y-42687868D01*
X126137401Y-42673253D01*
X126119223Y-42656777D01*
X126102747Y-42638599D01*
X126088132Y-42618893D01*
X126075520Y-42597850D01*
X126065030Y-42575671D01*
X126056765Y-42552572D01*
X126050804Y-42528773D01*
X126047204Y-42504505D01*
X126046000Y-42480001D01*
X126046000Y-41829999D01*
X126047204Y-41805495D01*
X126050804Y-41781227D01*
X126056765Y-41757428D01*
X126065030Y-41734329D01*
X126075520Y-41712150D01*
X126088132Y-41691107D01*
X126102747Y-41671401D01*
X126119223Y-41653223D01*
X126137401Y-41636747D01*
X126157107Y-41622132D01*
X126178150Y-41609520D01*
X126200329Y-41599030D01*
X126223428Y-41590765D01*
X126247227Y-41584804D01*
X126271495Y-41581204D01*
X126295999Y-41580000D01*
X127196001Y-41580000D01*
X127220505Y-41581204D01*
G37*
G36*
X127220505Y-43631204D02*
G01*
X127244773Y-43634804D01*
X127268572Y-43640765D01*
X127291671Y-43649030D01*
X127313850Y-43659520D01*
X127334893Y-43672132D01*
X127354599Y-43686747D01*
X127372777Y-43703223D01*
X127389253Y-43721401D01*
X127403868Y-43741107D01*
X127416480Y-43762150D01*
X127426970Y-43784329D01*
X127435235Y-43807428D01*
X127441196Y-43831227D01*
X127444796Y-43855495D01*
X127446000Y-43879999D01*
X127446000Y-44530001D01*
X127444796Y-44554505D01*
X127441196Y-44578773D01*
X127435235Y-44602572D01*
X127426970Y-44625671D01*
X127416480Y-44647850D01*
X127403868Y-44668893D01*
X127389253Y-44688599D01*
X127372777Y-44706777D01*
X127354599Y-44723253D01*
X127334893Y-44737868D01*
X127313850Y-44750480D01*
X127291671Y-44760970D01*
X127268572Y-44769235D01*
X127244773Y-44775196D01*
X127220505Y-44778796D01*
X127196001Y-44780000D01*
X126295999Y-44780000D01*
X126271495Y-44778796D01*
X126247227Y-44775196D01*
X126223428Y-44769235D01*
X126200329Y-44760970D01*
X126178150Y-44750480D01*
X126157107Y-44737868D01*
X126137401Y-44723253D01*
X126119223Y-44706777D01*
X126102747Y-44688599D01*
X126088132Y-44668893D01*
X126075520Y-44647850D01*
X126065030Y-44625671D01*
X126056765Y-44602572D01*
X126050804Y-44578773D01*
X126047204Y-44554505D01*
X126046000Y-44530001D01*
X126046000Y-43879999D01*
X126047204Y-43855495D01*
X126050804Y-43831227D01*
X126056765Y-43807428D01*
X126065030Y-43784329D01*
X126075520Y-43762150D01*
X126088132Y-43741107D01*
X126102747Y-43721401D01*
X126119223Y-43703223D01*
X126137401Y-43686747D01*
X126157107Y-43672132D01*
X126178150Y-43659520D01*
X126200329Y-43649030D01*
X126223428Y-43640765D01*
X126247227Y-43634804D01*
X126271495Y-43631204D01*
X126295999Y-43630000D01*
X127196001Y-43630000D01*
X127220505Y-43631204D01*
G37*
G36*
X127220505Y-45645204D02*
G01*
X127244773Y-45648804D01*
X127268572Y-45654765D01*
X127291671Y-45663030D01*
X127313850Y-45673520D01*
X127334893Y-45686132D01*
X127354599Y-45700747D01*
X127372777Y-45717223D01*
X127389253Y-45735401D01*
X127403868Y-45755107D01*
X127416480Y-45776150D01*
X127426970Y-45798329D01*
X127435235Y-45821428D01*
X127441196Y-45845227D01*
X127444796Y-45869495D01*
X127446000Y-45893999D01*
X127446000Y-46544001D01*
X127444796Y-46568505D01*
X127441196Y-46592773D01*
X127435235Y-46616572D01*
X127426970Y-46639671D01*
X127416480Y-46661850D01*
X127403868Y-46682893D01*
X127389253Y-46702599D01*
X127372777Y-46720777D01*
X127354599Y-46737253D01*
X127334893Y-46751868D01*
X127313850Y-46764480D01*
X127291671Y-46774970D01*
X127268572Y-46783235D01*
X127244773Y-46789196D01*
X127220505Y-46792796D01*
X127196001Y-46794000D01*
X126295999Y-46794000D01*
X126271495Y-46792796D01*
X126247227Y-46789196D01*
X126223428Y-46783235D01*
X126200329Y-46774970D01*
X126178150Y-46764480D01*
X126157107Y-46751868D01*
X126137401Y-46737253D01*
X126119223Y-46720777D01*
X126102747Y-46702599D01*
X126088132Y-46682893D01*
X126075520Y-46661850D01*
X126065030Y-46639671D01*
X126056765Y-46616572D01*
X126050804Y-46592773D01*
X126047204Y-46568505D01*
X126046000Y-46544001D01*
X126046000Y-45893999D01*
X126047204Y-45869495D01*
X126050804Y-45845227D01*
X126056765Y-45821428D01*
X126065030Y-45798329D01*
X126075520Y-45776150D01*
X126088132Y-45755107D01*
X126102747Y-45735401D01*
X126119223Y-45717223D01*
X126137401Y-45700747D01*
X126157107Y-45686132D01*
X126178150Y-45673520D01*
X126200329Y-45663030D01*
X126223428Y-45654765D01*
X126247227Y-45648804D01*
X126271495Y-45645204D01*
X126295999Y-45644000D01*
X127196001Y-45644000D01*
X127220505Y-45645204D01*
G37*
G36*
X127220505Y-47695204D02*
G01*
X127244773Y-47698804D01*
X127268572Y-47704765D01*
X127291671Y-47713030D01*
X127313850Y-47723520D01*
X127334893Y-47736132D01*
X127354599Y-47750747D01*
X127372777Y-47767223D01*
X127389253Y-47785401D01*
X127403868Y-47805107D01*
X127416480Y-47826150D01*
X127426970Y-47848329D01*
X127435235Y-47871428D01*
X127441196Y-47895227D01*
X127444796Y-47919495D01*
X127446000Y-47943999D01*
X127446000Y-48594001D01*
X127444796Y-48618505D01*
X127441196Y-48642773D01*
X127435235Y-48666572D01*
X127426970Y-48689671D01*
X127416480Y-48711850D01*
X127403868Y-48732893D01*
X127389253Y-48752599D01*
X127372777Y-48770777D01*
X127354599Y-48787253D01*
X127334893Y-48801868D01*
X127313850Y-48814480D01*
X127291671Y-48824970D01*
X127268572Y-48833235D01*
X127244773Y-48839196D01*
X127220505Y-48842796D01*
X127196001Y-48844000D01*
X126295999Y-48844000D01*
X126271495Y-48842796D01*
X126247227Y-48839196D01*
X126223428Y-48833235D01*
X126200329Y-48824970D01*
X126178150Y-48814480D01*
X126157107Y-48801868D01*
X126137401Y-48787253D01*
X126119223Y-48770777D01*
X126102747Y-48752599D01*
X126088132Y-48732893D01*
X126075520Y-48711850D01*
X126065030Y-48689671D01*
X126056765Y-48666572D01*
X126050804Y-48642773D01*
X126047204Y-48618505D01*
X126046000Y-48594001D01*
X126046000Y-47943999D01*
X126047204Y-47919495D01*
X126050804Y-47895227D01*
X126056765Y-47871428D01*
X126065030Y-47848329D01*
X126075520Y-47826150D01*
X126088132Y-47805107D01*
X126102747Y-47785401D01*
X126119223Y-47767223D01*
X126137401Y-47750747D01*
X126157107Y-47736132D01*
X126178150Y-47723520D01*
X126200329Y-47713030D01*
X126223428Y-47704765D01*
X126247227Y-47698804D01*
X126271495Y-47695204D01*
X126295999Y-47694000D01*
X127196001Y-47694000D01*
X127220505Y-47695204D01*
G37*
G36*
X133690505Y-53149204D02*
G01*
X133714773Y-53152804D01*
X133738572Y-53158765D01*
X133761671Y-53167030D01*
X133783850Y-53177520D01*
X133804893Y-53190132D01*
X133824599Y-53204747D01*
X133842777Y-53221223D01*
X133859253Y-53239401D01*
X133873868Y-53259107D01*
X133886480Y-53280150D01*
X133896970Y-53302329D01*
X133905235Y-53325428D01*
X133911196Y-53349227D01*
X133914796Y-53373495D01*
X133916000Y-53397999D01*
X133916000Y-54298001D01*
X133914796Y-54322505D01*
X133911196Y-54346773D01*
X133905235Y-54370572D01*
X133896970Y-54393671D01*
X133886480Y-54415850D01*
X133873868Y-54436893D01*
X133859253Y-54456599D01*
X133842777Y-54474777D01*
X133824599Y-54491253D01*
X133804893Y-54505868D01*
X133783850Y-54518480D01*
X133761671Y-54528970D01*
X133738572Y-54537235D01*
X133714773Y-54543196D01*
X133690505Y-54546796D01*
X133666001Y-54548000D01*
X133015999Y-54548000D01*
X132991495Y-54546796D01*
X132967227Y-54543196D01*
X132943428Y-54537235D01*
X132920329Y-54528970D01*
X132898150Y-54518480D01*
X132877107Y-54505868D01*
X132857401Y-54491253D01*
X132839223Y-54474777D01*
X132822747Y-54456599D01*
X132808132Y-54436893D01*
X132795520Y-54415850D01*
X132785030Y-54393671D01*
X132776765Y-54370572D01*
X132770804Y-54346773D01*
X132767204Y-54322505D01*
X132766000Y-54298001D01*
X132766000Y-53397999D01*
X132767204Y-53373495D01*
X132770804Y-53349227D01*
X132776765Y-53325428D01*
X132785030Y-53302329D01*
X132795520Y-53280150D01*
X132808132Y-53259107D01*
X132822747Y-53239401D01*
X132839223Y-53221223D01*
X132857401Y-53204747D01*
X132877107Y-53190132D01*
X132898150Y-53177520D01*
X132920329Y-53167030D01*
X132943428Y-53158765D01*
X132967227Y-53152804D01*
X132991495Y-53149204D01*
X133015999Y-53148000D01*
X133666001Y-53148000D01*
X133690505Y-53149204D01*
G37*
G36*
X135740505Y-53149204D02*
G01*
X135764773Y-53152804D01*
X135788572Y-53158765D01*
X135811671Y-53167030D01*
X135833850Y-53177520D01*
X135854893Y-53190132D01*
X135874599Y-53204747D01*
X135892777Y-53221223D01*
X135909253Y-53239401D01*
X135923868Y-53259107D01*
X135936480Y-53280150D01*
X135946970Y-53302329D01*
X135955235Y-53325428D01*
X135961196Y-53349227D01*
X135964796Y-53373495D01*
X135966000Y-53397999D01*
X135966000Y-54298001D01*
X135964796Y-54322505D01*
X135961196Y-54346773D01*
X135955235Y-54370572D01*
X135946970Y-54393671D01*
X135936480Y-54415850D01*
X135923868Y-54436893D01*
X135909253Y-54456599D01*
X135892777Y-54474777D01*
X135874599Y-54491253D01*
X135854893Y-54505868D01*
X135833850Y-54518480D01*
X135811671Y-54528970D01*
X135788572Y-54537235D01*
X135764773Y-54543196D01*
X135740505Y-54546796D01*
X135716001Y-54548000D01*
X135065999Y-54548000D01*
X135041495Y-54546796D01*
X135017227Y-54543196D01*
X134993428Y-54537235D01*
X134970329Y-54528970D01*
X134948150Y-54518480D01*
X134927107Y-54505868D01*
X134907401Y-54491253D01*
X134889223Y-54474777D01*
X134872747Y-54456599D01*
X134858132Y-54436893D01*
X134845520Y-54415850D01*
X134835030Y-54393671D01*
X134826765Y-54370572D01*
X134820804Y-54346773D01*
X134817204Y-54322505D01*
X134816000Y-54298001D01*
X134816000Y-53397999D01*
X134817204Y-53373495D01*
X134820804Y-53349227D01*
X134826765Y-53325428D01*
X134835030Y-53302329D01*
X134845520Y-53280150D01*
X134858132Y-53259107D01*
X134872747Y-53239401D01*
X134889223Y-53221223D01*
X134907401Y-53204747D01*
X134927107Y-53190132D01*
X134948150Y-53177520D01*
X134970329Y-53167030D01*
X134993428Y-53158765D01*
X135017227Y-53152804D01*
X135041495Y-53149204D01*
X135065999Y-53148000D01*
X135716001Y-53148000D01*
X135740505Y-53149204D01*
G37*
G36*
X152740505Y-40957204D02*
G01*
X152764773Y-40960804D01*
X152788572Y-40966765D01*
X152811671Y-40975030D01*
X152833850Y-40985520D01*
X152854893Y-40998132D01*
X152874599Y-41012747D01*
X152892777Y-41029223D01*
X152909253Y-41047401D01*
X152923868Y-41067107D01*
X152936480Y-41088150D01*
X152946970Y-41110329D01*
X152955235Y-41133428D01*
X152961196Y-41157227D01*
X152964796Y-41181495D01*
X152966000Y-41205999D01*
X152966000Y-42106001D01*
X152964796Y-42130505D01*
X152961196Y-42154773D01*
X152955235Y-42178572D01*
X152946970Y-42201671D01*
X152936480Y-42223850D01*
X152923868Y-42244893D01*
X152909253Y-42264599D01*
X152892777Y-42282777D01*
X152874599Y-42299253D01*
X152854893Y-42313868D01*
X152833850Y-42326480D01*
X152811671Y-42336970D01*
X152788572Y-42345235D01*
X152764773Y-42351196D01*
X152740505Y-42354796D01*
X152716001Y-42356000D01*
X152065999Y-42356000D01*
X152041495Y-42354796D01*
X152017227Y-42351196D01*
X151993428Y-42345235D01*
X151970329Y-42336970D01*
X151948150Y-42326480D01*
X151927107Y-42313868D01*
X151907401Y-42299253D01*
X151889223Y-42282777D01*
X151872747Y-42264599D01*
X151858132Y-42244893D01*
X151845520Y-42223850D01*
X151835030Y-42201671D01*
X151826765Y-42178572D01*
X151820804Y-42154773D01*
X151817204Y-42130505D01*
X151816000Y-42106001D01*
X151816000Y-41205999D01*
X151817204Y-41181495D01*
X151820804Y-41157227D01*
X151826765Y-41133428D01*
X151835030Y-41110329D01*
X151845520Y-41088150D01*
X151858132Y-41067107D01*
X151872747Y-41047401D01*
X151889223Y-41029223D01*
X151907401Y-41012747D01*
X151927107Y-40998132D01*
X151948150Y-40985520D01*
X151970329Y-40975030D01*
X151993428Y-40966765D01*
X152017227Y-40960804D01*
X152041495Y-40957204D01*
X152065999Y-40956000D01*
X152716001Y-40956000D01*
X152740505Y-40957204D01*
G37*
G36*
X154790505Y-40957204D02*
G01*
X154814773Y-40960804D01*
X154838572Y-40966765D01*
X154861671Y-40975030D01*
X154883850Y-40985520D01*
X154904893Y-40998132D01*
X154924599Y-41012747D01*
X154942777Y-41029223D01*
X154959253Y-41047401D01*
X154973868Y-41067107D01*
X154986480Y-41088150D01*
X154996970Y-41110329D01*
X155005235Y-41133428D01*
X155011196Y-41157227D01*
X155014796Y-41181495D01*
X155016000Y-41205999D01*
X155016000Y-42106001D01*
X155014796Y-42130505D01*
X155011196Y-42154773D01*
X155005235Y-42178572D01*
X154996970Y-42201671D01*
X154986480Y-42223850D01*
X154973868Y-42244893D01*
X154959253Y-42264599D01*
X154942777Y-42282777D01*
X154924599Y-42299253D01*
X154904893Y-42313868D01*
X154883850Y-42326480D01*
X154861671Y-42336970D01*
X154838572Y-42345235D01*
X154814773Y-42351196D01*
X154790505Y-42354796D01*
X154766001Y-42356000D01*
X154115999Y-42356000D01*
X154091495Y-42354796D01*
X154067227Y-42351196D01*
X154043428Y-42345235D01*
X154020329Y-42336970D01*
X153998150Y-42326480D01*
X153977107Y-42313868D01*
X153957401Y-42299253D01*
X153939223Y-42282777D01*
X153922747Y-42264599D01*
X153908132Y-42244893D01*
X153895520Y-42223850D01*
X153885030Y-42201671D01*
X153876765Y-42178572D01*
X153870804Y-42154773D01*
X153867204Y-42130505D01*
X153866000Y-42106001D01*
X153866000Y-41205999D01*
X153867204Y-41181495D01*
X153870804Y-41157227D01*
X153876765Y-41133428D01*
X153885030Y-41110329D01*
X153895520Y-41088150D01*
X153908132Y-41067107D01*
X153922747Y-41047401D01*
X153939223Y-41029223D01*
X153957401Y-41012747D01*
X153977107Y-40998132D01*
X153998150Y-40985520D01*
X154020329Y-40975030D01*
X154043428Y-40966765D01*
X154067227Y-40960804D01*
X154091495Y-40957204D01*
X154115999Y-40956000D01*
X154766001Y-40956000D01*
X154790505Y-40957204D01*
G37*
G36*
X141698505Y-49473204D02*
G01*
X141722773Y-49476804D01*
X141746572Y-49482765D01*
X141769671Y-49491030D01*
X141791850Y-49501520D01*
X141812893Y-49514132D01*
X141832599Y-49528747D01*
X141850777Y-49545223D01*
X141867253Y-49563401D01*
X141881868Y-49583107D01*
X141894480Y-49604150D01*
X141904970Y-49626329D01*
X141913235Y-49649428D01*
X141919196Y-49673227D01*
X141922796Y-49697495D01*
X141924000Y-49721999D01*
X141924000Y-50372001D01*
X141922796Y-50396505D01*
X141919196Y-50420773D01*
X141913235Y-50444572D01*
X141904970Y-50467671D01*
X141894480Y-50489850D01*
X141881868Y-50510893D01*
X141867253Y-50530599D01*
X141850777Y-50548777D01*
X141832599Y-50565253D01*
X141812893Y-50579868D01*
X141791850Y-50592480D01*
X141769671Y-50602970D01*
X141746572Y-50611235D01*
X141722773Y-50617196D01*
X141698505Y-50620796D01*
X141674001Y-50622000D01*
X140773999Y-50622000D01*
X140749495Y-50620796D01*
X140725227Y-50617196D01*
X140701428Y-50611235D01*
X140678329Y-50602970D01*
X140656150Y-50592480D01*
X140635107Y-50579868D01*
X140615401Y-50565253D01*
X140597223Y-50548777D01*
X140580747Y-50530599D01*
X140566132Y-50510893D01*
X140553520Y-50489850D01*
X140543030Y-50467671D01*
X140534765Y-50444572D01*
X140528804Y-50420773D01*
X140525204Y-50396505D01*
X140524000Y-50372001D01*
X140524000Y-49721999D01*
X140525204Y-49697495D01*
X140528804Y-49673227D01*
X140534765Y-49649428D01*
X140543030Y-49626329D01*
X140553520Y-49604150D01*
X140566132Y-49583107D01*
X140580747Y-49563401D01*
X140597223Y-49545223D01*
X140615401Y-49528747D01*
X140635107Y-49514132D01*
X140656150Y-49501520D01*
X140678329Y-49491030D01*
X140701428Y-49482765D01*
X140725227Y-49476804D01*
X140749495Y-49473204D01*
X140773999Y-49472000D01*
X141674001Y-49472000D01*
X141698505Y-49473204D01*
G37*
G36*
X141698505Y-47423204D02*
G01*
X141722773Y-47426804D01*
X141746572Y-47432765D01*
X141769671Y-47441030D01*
X141791850Y-47451520D01*
X141812893Y-47464132D01*
X141832599Y-47478747D01*
X141850777Y-47495223D01*
X141867253Y-47513401D01*
X141881868Y-47533107D01*
X141894480Y-47554150D01*
X141904970Y-47576329D01*
X141913235Y-47599428D01*
X141919196Y-47623227D01*
X141922796Y-47647495D01*
X141924000Y-47671999D01*
X141924000Y-48322001D01*
X141922796Y-48346505D01*
X141919196Y-48370773D01*
X141913235Y-48394572D01*
X141904970Y-48417671D01*
X141894480Y-48439850D01*
X141881868Y-48460893D01*
X141867253Y-48480599D01*
X141850777Y-48498777D01*
X141832599Y-48515253D01*
X141812893Y-48529868D01*
X141791850Y-48542480D01*
X141769671Y-48552970D01*
X141746572Y-48561235D01*
X141722773Y-48567196D01*
X141698505Y-48570796D01*
X141674001Y-48572000D01*
X140773999Y-48572000D01*
X140749495Y-48570796D01*
X140725227Y-48567196D01*
X140701428Y-48561235D01*
X140678329Y-48552970D01*
X140656150Y-48542480D01*
X140635107Y-48529868D01*
X140615401Y-48515253D01*
X140597223Y-48498777D01*
X140580747Y-48480599D01*
X140566132Y-48460893D01*
X140553520Y-48439850D01*
X140543030Y-48417671D01*
X140534765Y-48394572D01*
X140528804Y-48370773D01*
X140525204Y-48346505D01*
X140524000Y-48322001D01*
X140524000Y-47671999D01*
X140525204Y-47647495D01*
X140528804Y-47623227D01*
X140534765Y-47599428D01*
X140543030Y-47576329D01*
X140553520Y-47554150D01*
X140566132Y-47533107D01*
X140580747Y-47513401D01*
X140597223Y-47495223D01*
X140615401Y-47478747D01*
X140635107Y-47464132D01*
X140656150Y-47451520D01*
X140678329Y-47441030D01*
X140701428Y-47432765D01*
X140725227Y-47426804D01*
X140749495Y-47423204D01*
X140773999Y-47422000D01*
X141674001Y-47422000D01*
X141698505Y-47423204D01*
G37*
M02*
