G04 #@! TF.GenerationSoftware,KiCad,Pcbnew,(5.1.5)-3*
G04 #@! TF.CreationDate,2020-07-09T12:28:23-03:00*
G04 #@! TF.ProjectId,UFRGS PILL,55465247-5320-4504-994c-4c2e6b696361,0.1*
G04 #@! TF.SameCoordinates,Original*
G04 #@! TF.FileFunction,Copper,L2,Bot*
G04 #@! TF.FilePolarity,Positive*
%FSLAX46Y46*%
G04 Gerber Fmt 4.6, Leading zero omitted, Abs format (unit mm)*
G04 Created by KiCad (PCBNEW (5.1.5)-3) date 2020-07-09 12:28:23*
%MOMM*%
%LPD*%
G04 APERTURE LIST*
%ADD10C,0.150000*%
%ADD11R,2.000000X1.500000*%
%ADD12R,2.000000X3.800000*%
%ADD13C,0.100000*%
%ADD14O,1.700000X1.350000*%
%ADD15O,1.500000X1.100000*%
%ADD16O,1.700000X1.700000*%
%ADD17R,1.700000X1.700000*%
%ADD18R,0.900000X0.800000*%
%ADD19C,1.500000*%
%ADD20C,2.000000*%
%ADD21C,1.600000*%
%ADD22C,0.250000*%
%ADD23C,0.300000*%
%ADD24C,0.500000*%
G04 APERTURE END LIST*
D10*
X125654095Y-55048095D02*
X125730285Y-55048095D01*
X125806476Y-55010000D01*
X125844571Y-54971904D01*
X125882666Y-54895714D01*
X125920761Y-54743333D01*
X125920761Y-54552857D01*
X125882666Y-54400476D01*
X125844571Y-54324285D01*
X125806476Y-54286190D01*
X125730285Y-54248095D01*
X125654095Y-54248095D01*
X125577904Y-54286190D01*
X125539809Y-54324285D01*
X125501714Y-54400476D01*
X125463619Y-54552857D01*
X125463619Y-54743333D01*
X125501714Y-54895714D01*
X125539809Y-54971904D01*
X125577904Y-55010000D01*
X125654095Y-55048095D01*
X126187428Y-55048095D02*
X126682666Y-55048095D01*
X126416000Y-54743333D01*
X126530285Y-54743333D01*
X126606476Y-54705238D01*
X126644571Y-54667142D01*
X126682666Y-54590952D01*
X126682666Y-54400476D01*
X126644571Y-54324285D01*
X126606476Y-54286190D01*
X126530285Y-54248095D01*
X126301714Y-54248095D01*
X126225523Y-54286190D01*
X126187428Y-54324285D01*
X127596952Y-55086190D02*
X126911238Y-54057619D01*
X127825523Y-54971904D02*
X127863619Y-55010000D01*
X127939809Y-55048095D01*
X128130285Y-55048095D01*
X128206476Y-55010000D01*
X128244571Y-54971904D01*
X128282666Y-54895714D01*
X128282666Y-54819523D01*
X128244571Y-54705238D01*
X127787428Y-54248095D01*
X128282666Y-54248095D01*
X128777904Y-55048095D02*
X128854095Y-55048095D01*
X128930285Y-55010000D01*
X128968380Y-54971904D01*
X129006476Y-54895714D01*
X129044571Y-54743333D01*
X129044571Y-54552857D01*
X129006476Y-54400476D01*
X128968380Y-54324285D01*
X128930285Y-54286190D01*
X128854095Y-54248095D01*
X128777904Y-54248095D01*
X128701714Y-54286190D01*
X128663619Y-54324285D01*
X128625523Y-54400476D01*
X128587428Y-54552857D01*
X128587428Y-54743333D01*
X128625523Y-54895714D01*
X128663619Y-54971904D01*
X128701714Y-55010000D01*
X128777904Y-55048095D01*
X129349333Y-54971904D02*
X129387428Y-55010000D01*
X129463619Y-55048095D01*
X129654095Y-55048095D01*
X129730285Y-55010000D01*
X129768380Y-54971904D01*
X129806476Y-54895714D01*
X129806476Y-54819523D01*
X129768380Y-54705238D01*
X129311238Y-54248095D01*
X129806476Y-54248095D01*
X130301714Y-55048095D02*
X130377904Y-55048095D01*
X130454095Y-55010000D01*
X130492190Y-54971904D01*
X130530285Y-54895714D01*
X130568380Y-54743333D01*
X130568380Y-54552857D01*
X130530285Y-54400476D01*
X130492190Y-54324285D01*
X130454095Y-54286190D01*
X130377904Y-54248095D01*
X130301714Y-54248095D01*
X130225523Y-54286190D01*
X130187428Y-54324285D01*
X130149333Y-54400476D01*
X130111238Y-54552857D01*
X130111238Y-54743333D01*
X130149333Y-54895714D01*
X130187428Y-54971904D01*
X130225523Y-55010000D01*
X130301714Y-55048095D01*
X143704666Y-43242666D02*
X143738000Y-43276000D01*
X143804666Y-43309333D01*
X143971333Y-43309333D01*
X144038000Y-43276000D01*
X144071333Y-43242666D01*
X144104666Y-43176000D01*
X144104666Y-43109333D01*
X144071333Y-43009333D01*
X143671333Y-42609333D01*
X144104666Y-42609333D01*
X144704666Y-43076000D02*
X144704666Y-42609333D01*
X144538000Y-43342666D02*
X144371333Y-42842666D01*
X144804666Y-42842666D01*
X145071333Y-42609333D02*
X145071333Y-43309333D01*
X145304666Y-42809333D01*
X145538000Y-43309333D01*
X145538000Y-42609333D01*
X145871333Y-42609333D02*
X145871333Y-43309333D01*
X145871333Y-42976000D02*
X146271333Y-42976000D01*
X146271333Y-42609333D02*
X146271333Y-43309333D01*
X146538000Y-43076000D02*
X146904666Y-43076000D01*
X146538000Y-42609333D01*
X146904666Y-42609333D01*
X150344000Y-48892666D02*
X149910666Y-48892666D01*
X150144000Y-49159333D01*
X150044000Y-49159333D01*
X149977333Y-49192666D01*
X149944000Y-49226000D01*
X149910666Y-49292666D01*
X149910666Y-49459333D01*
X149944000Y-49526000D01*
X149977333Y-49559333D01*
X150044000Y-49592666D01*
X150244000Y-49592666D01*
X150310666Y-49559333D01*
X150344000Y-49526000D01*
X149644000Y-48959333D02*
X149610666Y-48926000D01*
X149544000Y-48892666D01*
X149377333Y-48892666D01*
X149310666Y-48926000D01*
X149277333Y-48959333D01*
X149244000Y-49026000D01*
X149244000Y-49092666D01*
X149277333Y-49192666D01*
X149677333Y-49592666D01*
X149244000Y-49592666D01*
X148944000Y-49592666D02*
X148944000Y-48892666D01*
X148877333Y-49326000D02*
X148677333Y-49592666D01*
X148677333Y-49126000D02*
X148944000Y-49392666D01*
X148377333Y-49592666D02*
X148377333Y-48892666D01*
X148377333Y-49226000D02*
X147977333Y-49226000D01*
X147977333Y-49592666D02*
X147977333Y-48892666D01*
X147710666Y-49126000D02*
X147344000Y-49126000D01*
X147710666Y-49592666D01*
X147344000Y-49592666D01*
D11*
X119228000Y-45071000D03*
X119228000Y-49671000D03*
X119228000Y-47371000D03*
D12*
X112928000Y-47371000D03*
G04 #@! TA.AperFunction,SMDPad,CuDef*
D13*
G36*
X115536505Y-50344204D02*
G01*
X115560773Y-50347804D01*
X115584572Y-50353765D01*
X115607671Y-50362030D01*
X115629850Y-50372520D01*
X115650893Y-50385132D01*
X115670599Y-50399747D01*
X115688777Y-50416223D01*
X115705253Y-50434401D01*
X115719868Y-50454107D01*
X115732480Y-50475150D01*
X115742970Y-50497329D01*
X115751235Y-50520428D01*
X115757196Y-50544227D01*
X115760796Y-50568495D01*
X115762000Y-50592999D01*
X115762000Y-51243001D01*
X115760796Y-51267505D01*
X115757196Y-51291773D01*
X115751235Y-51315572D01*
X115742970Y-51338671D01*
X115732480Y-51360850D01*
X115719868Y-51381893D01*
X115705253Y-51401599D01*
X115688777Y-51419777D01*
X115670599Y-51436253D01*
X115650893Y-51450868D01*
X115629850Y-51463480D01*
X115607671Y-51473970D01*
X115584572Y-51482235D01*
X115560773Y-51488196D01*
X115536505Y-51491796D01*
X115512001Y-51493000D01*
X114611999Y-51493000D01*
X114587495Y-51491796D01*
X114563227Y-51488196D01*
X114539428Y-51482235D01*
X114516329Y-51473970D01*
X114494150Y-51463480D01*
X114473107Y-51450868D01*
X114453401Y-51436253D01*
X114435223Y-51419777D01*
X114418747Y-51401599D01*
X114404132Y-51381893D01*
X114391520Y-51360850D01*
X114381030Y-51338671D01*
X114372765Y-51315572D01*
X114366804Y-51291773D01*
X114363204Y-51267505D01*
X114362000Y-51243001D01*
X114362000Y-50592999D01*
X114363204Y-50568495D01*
X114366804Y-50544227D01*
X114372765Y-50520428D01*
X114381030Y-50497329D01*
X114391520Y-50475150D01*
X114404132Y-50454107D01*
X114418747Y-50434401D01*
X114435223Y-50416223D01*
X114453401Y-50399747D01*
X114473107Y-50385132D01*
X114494150Y-50372520D01*
X114516329Y-50362030D01*
X114539428Y-50353765D01*
X114563227Y-50347804D01*
X114587495Y-50344204D01*
X114611999Y-50343000D01*
X115512001Y-50343000D01*
X115536505Y-50344204D01*
G37*
G04 #@! TD.AperFunction*
G04 #@! TA.AperFunction,SMDPad,CuDef*
G36*
X115536505Y-52394204D02*
G01*
X115560773Y-52397804D01*
X115584572Y-52403765D01*
X115607671Y-52412030D01*
X115629850Y-52422520D01*
X115650893Y-52435132D01*
X115670599Y-52449747D01*
X115688777Y-52466223D01*
X115705253Y-52484401D01*
X115719868Y-52504107D01*
X115732480Y-52525150D01*
X115742970Y-52547329D01*
X115751235Y-52570428D01*
X115757196Y-52594227D01*
X115760796Y-52618495D01*
X115762000Y-52642999D01*
X115762000Y-53293001D01*
X115760796Y-53317505D01*
X115757196Y-53341773D01*
X115751235Y-53365572D01*
X115742970Y-53388671D01*
X115732480Y-53410850D01*
X115719868Y-53431893D01*
X115705253Y-53451599D01*
X115688777Y-53469777D01*
X115670599Y-53486253D01*
X115650893Y-53500868D01*
X115629850Y-53513480D01*
X115607671Y-53523970D01*
X115584572Y-53532235D01*
X115560773Y-53538196D01*
X115536505Y-53541796D01*
X115512001Y-53543000D01*
X114611999Y-53543000D01*
X114587495Y-53541796D01*
X114563227Y-53538196D01*
X114539428Y-53532235D01*
X114516329Y-53523970D01*
X114494150Y-53513480D01*
X114473107Y-53500868D01*
X114453401Y-53486253D01*
X114435223Y-53469777D01*
X114418747Y-53451599D01*
X114404132Y-53431893D01*
X114391520Y-53410850D01*
X114381030Y-53388671D01*
X114372765Y-53365572D01*
X114366804Y-53341773D01*
X114363204Y-53317505D01*
X114362000Y-53293001D01*
X114362000Y-52642999D01*
X114363204Y-52618495D01*
X114366804Y-52594227D01*
X114372765Y-52570428D01*
X114381030Y-52547329D01*
X114391520Y-52525150D01*
X114404132Y-52504107D01*
X114418747Y-52484401D01*
X114435223Y-52466223D01*
X114453401Y-52449747D01*
X114473107Y-52435132D01*
X114494150Y-52422520D01*
X114516329Y-52412030D01*
X114539428Y-52403765D01*
X114563227Y-52397804D01*
X114587495Y-52394204D01*
X114611999Y-52393000D01*
X115512001Y-52393000D01*
X115536505Y-52394204D01*
G37*
G04 #@! TD.AperFunction*
D14*
X105791000Y-50927000D03*
X105791000Y-45467000D03*
D15*
X108791000Y-50617000D03*
X108791000Y-45777000D03*
D16*
X156845000Y-52832000D03*
X156845000Y-50292000D03*
X156845000Y-47752000D03*
X156845000Y-45212000D03*
D17*
X156845000Y-42672000D03*
D18*
X113141000Y-51943000D03*
X111141000Y-50993000D03*
X111141000Y-52893000D03*
D19*
X148898000Y-44704000D03*
X144018000Y-44704000D03*
X148898000Y-50800000D03*
X144018000Y-50800000D03*
D16*
X154178000Y-38862000D03*
X151638000Y-38862000D03*
X149098000Y-38862000D03*
X146558000Y-38862000D03*
X144018000Y-38862000D03*
X141478000Y-38862000D03*
X138938000Y-38862000D03*
X136398000Y-38862000D03*
X133858000Y-38862000D03*
X131318000Y-38862000D03*
X128778000Y-38862000D03*
X126238000Y-38862000D03*
X123698000Y-38862000D03*
X121158000Y-38862000D03*
X118618000Y-38862000D03*
X116078000Y-38862000D03*
X113538000Y-38862000D03*
X110998000Y-38862000D03*
X108458000Y-38862000D03*
D17*
X105918000Y-38862000D03*
D16*
X154178000Y-56642000D03*
X151638000Y-56642000D03*
X149098000Y-56642000D03*
X146558000Y-56642000D03*
X144018000Y-56642000D03*
X141478000Y-56642000D03*
X138938000Y-56642000D03*
X136398000Y-56642000D03*
X133858000Y-56642000D03*
X131318000Y-56642000D03*
X128778000Y-56642000D03*
X126238000Y-56642000D03*
X123698000Y-56642000D03*
X121158000Y-56642000D03*
X118618000Y-56642000D03*
X116078000Y-56642000D03*
X113538000Y-56642000D03*
X110998000Y-56642000D03*
X108458000Y-56642000D03*
D17*
X105918000Y-56642000D03*
G04 #@! TA.AperFunction,SMDPad,CuDef*
D13*
G36*
X124426505Y-42597204D02*
G01*
X124450773Y-42600804D01*
X124474572Y-42606765D01*
X124497671Y-42615030D01*
X124519850Y-42625520D01*
X124540893Y-42638132D01*
X124560599Y-42652747D01*
X124578777Y-42669223D01*
X124595253Y-42687401D01*
X124609868Y-42707107D01*
X124622480Y-42728150D01*
X124632970Y-42750329D01*
X124641235Y-42773428D01*
X124647196Y-42797227D01*
X124650796Y-42821495D01*
X124652000Y-42845999D01*
X124652000Y-43496001D01*
X124650796Y-43520505D01*
X124647196Y-43544773D01*
X124641235Y-43568572D01*
X124632970Y-43591671D01*
X124622480Y-43613850D01*
X124609868Y-43634893D01*
X124595253Y-43654599D01*
X124578777Y-43672777D01*
X124560599Y-43689253D01*
X124540893Y-43703868D01*
X124519850Y-43716480D01*
X124497671Y-43726970D01*
X124474572Y-43735235D01*
X124450773Y-43741196D01*
X124426505Y-43744796D01*
X124402001Y-43746000D01*
X123501999Y-43746000D01*
X123477495Y-43744796D01*
X123453227Y-43741196D01*
X123429428Y-43735235D01*
X123406329Y-43726970D01*
X123384150Y-43716480D01*
X123363107Y-43703868D01*
X123343401Y-43689253D01*
X123325223Y-43672777D01*
X123308747Y-43654599D01*
X123294132Y-43634893D01*
X123281520Y-43613850D01*
X123271030Y-43591671D01*
X123262765Y-43568572D01*
X123256804Y-43544773D01*
X123253204Y-43520505D01*
X123252000Y-43496001D01*
X123252000Y-42845999D01*
X123253204Y-42821495D01*
X123256804Y-42797227D01*
X123262765Y-42773428D01*
X123271030Y-42750329D01*
X123281520Y-42728150D01*
X123294132Y-42707107D01*
X123308747Y-42687401D01*
X123325223Y-42669223D01*
X123343401Y-42652747D01*
X123363107Y-42638132D01*
X123384150Y-42625520D01*
X123406329Y-42615030D01*
X123429428Y-42606765D01*
X123453227Y-42600804D01*
X123477495Y-42597204D01*
X123501999Y-42596000D01*
X124402001Y-42596000D01*
X124426505Y-42597204D01*
G37*
G04 #@! TD.AperFunction*
G04 #@! TA.AperFunction,SMDPad,CuDef*
G36*
X124426505Y-44647204D02*
G01*
X124450773Y-44650804D01*
X124474572Y-44656765D01*
X124497671Y-44665030D01*
X124519850Y-44675520D01*
X124540893Y-44688132D01*
X124560599Y-44702747D01*
X124578777Y-44719223D01*
X124595253Y-44737401D01*
X124609868Y-44757107D01*
X124622480Y-44778150D01*
X124632970Y-44800329D01*
X124641235Y-44823428D01*
X124647196Y-44847227D01*
X124650796Y-44871495D01*
X124652000Y-44895999D01*
X124652000Y-45546001D01*
X124650796Y-45570505D01*
X124647196Y-45594773D01*
X124641235Y-45618572D01*
X124632970Y-45641671D01*
X124622480Y-45663850D01*
X124609868Y-45684893D01*
X124595253Y-45704599D01*
X124578777Y-45722777D01*
X124560599Y-45739253D01*
X124540893Y-45753868D01*
X124519850Y-45766480D01*
X124497671Y-45776970D01*
X124474572Y-45785235D01*
X124450773Y-45791196D01*
X124426505Y-45794796D01*
X124402001Y-45796000D01*
X123501999Y-45796000D01*
X123477495Y-45794796D01*
X123453227Y-45791196D01*
X123429428Y-45785235D01*
X123406329Y-45776970D01*
X123384150Y-45766480D01*
X123363107Y-45753868D01*
X123343401Y-45739253D01*
X123325223Y-45722777D01*
X123308747Y-45704599D01*
X123294132Y-45684893D01*
X123281520Y-45663850D01*
X123271030Y-45641671D01*
X123262765Y-45618572D01*
X123256804Y-45594773D01*
X123253204Y-45570505D01*
X123252000Y-45546001D01*
X123252000Y-44895999D01*
X123253204Y-44871495D01*
X123256804Y-44847227D01*
X123262765Y-44823428D01*
X123271030Y-44800329D01*
X123281520Y-44778150D01*
X123294132Y-44757107D01*
X123308747Y-44737401D01*
X123325223Y-44719223D01*
X123343401Y-44702747D01*
X123363107Y-44688132D01*
X123384150Y-44675520D01*
X123406329Y-44665030D01*
X123429428Y-44656765D01*
X123453227Y-44650804D01*
X123477495Y-44647204D01*
X123501999Y-44646000D01*
X124402001Y-44646000D01*
X124426505Y-44647204D01*
G37*
G04 #@! TD.AperFunction*
G04 #@! TA.AperFunction,SMDPad,CuDef*
G36*
X122394505Y-42597204D02*
G01*
X122418773Y-42600804D01*
X122442572Y-42606765D01*
X122465671Y-42615030D01*
X122487850Y-42625520D01*
X122508893Y-42638132D01*
X122528599Y-42652747D01*
X122546777Y-42669223D01*
X122563253Y-42687401D01*
X122577868Y-42707107D01*
X122590480Y-42728150D01*
X122600970Y-42750329D01*
X122609235Y-42773428D01*
X122615196Y-42797227D01*
X122618796Y-42821495D01*
X122620000Y-42845999D01*
X122620000Y-43496001D01*
X122618796Y-43520505D01*
X122615196Y-43544773D01*
X122609235Y-43568572D01*
X122600970Y-43591671D01*
X122590480Y-43613850D01*
X122577868Y-43634893D01*
X122563253Y-43654599D01*
X122546777Y-43672777D01*
X122528599Y-43689253D01*
X122508893Y-43703868D01*
X122487850Y-43716480D01*
X122465671Y-43726970D01*
X122442572Y-43735235D01*
X122418773Y-43741196D01*
X122394505Y-43744796D01*
X122370001Y-43746000D01*
X121469999Y-43746000D01*
X121445495Y-43744796D01*
X121421227Y-43741196D01*
X121397428Y-43735235D01*
X121374329Y-43726970D01*
X121352150Y-43716480D01*
X121331107Y-43703868D01*
X121311401Y-43689253D01*
X121293223Y-43672777D01*
X121276747Y-43654599D01*
X121262132Y-43634893D01*
X121249520Y-43613850D01*
X121239030Y-43591671D01*
X121230765Y-43568572D01*
X121224804Y-43544773D01*
X121221204Y-43520505D01*
X121220000Y-43496001D01*
X121220000Y-42845999D01*
X121221204Y-42821495D01*
X121224804Y-42797227D01*
X121230765Y-42773428D01*
X121239030Y-42750329D01*
X121249520Y-42728150D01*
X121262132Y-42707107D01*
X121276747Y-42687401D01*
X121293223Y-42669223D01*
X121311401Y-42652747D01*
X121331107Y-42638132D01*
X121352150Y-42625520D01*
X121374329Y-42615030D01*
X121397428Y-42606765D01*
X121421227Y-42600804D01*
X121445495Y-42597204D01*
X121469999Y-42596000D01*
X122370001Y-42596000D01*
X122394505Y-42597204D01*
G37*
G04 #@! TD.AperFunction*
G04 #@! TA.AperFunction,SMDPad,CuDef*
G36*
X122394505Y-44647204D02*
G01*
X122418773Y-44650804D01*
X122442572Y-44656765D01*
X122465671Y-44665030D01*
X122487850Y-44675520D01*
X122508893Y-44688132D01*
X122528599Y-44702747D01*
X122546777Y-44719223D01*
X122563253Y-44737401D01*
X122577868Y-44757107D01*
X122590480Y-44778150D01*
X122600970Y-44800329D01*
X122609235Y-44823428D01*
X122615196Y-44847227D01*
X122618796Y-44871495D01*
X122620000Y-44895999D01*
X122620000Y-45546001D01*
X122618796Y-45570505D01*
X122615196Y-45594773D01*
X122609235Y-45618572D01*
X122600970Y-45641671D01*
X122590480Y-45663850D01*
X122577868Y-45684893D01*
X122563253Y-45704599D01*
X122546777Y-45722777D01*
X122528599Y-45739253D01*
X122508893Y-45753868D01*
X122487850Y-45766480D01*
X122465671Y-45776970D01*
X122442572Y-45785235D01*
X122418773Y-45791196D01*
X122394505Y-45794796D01*
X122370001Y-45796000D01*
X121469999Y-45796000D01*
X121445495Y-45794796D01*
X121421227Y-45791196D01*
X121397428Y-45785235D01*
X121374329Y-45776970D01*
X121352150Y-45766480D01*
X121331107Y-45753868D01*
X121311401Y-45739253D01*
X121293223Y-45722777D01*
X121276747Y-45704599D01*
X121262132Y-45684893D01*
X121249520Y-45663850D01*
X121239030Y-45641671D01*
X121230765Y-45618572D01*
X121224804Y-45594773D01*
X121221204Y-45570505D01*
X121220000Y-45546001D01*
X121220000Y-44895999D01*
X121221204Y-44871495D01*
X121224804Y-44847227D01*
X121230765Y-44823428D01*
X121239030Y-44800329D01*
X121249520Y-44778150D01*
X121262132Y-44757107D01*
X121276747Y-44737401D01*
X121293223Y-44719223D01*
X121311401Y-44702747D01*
X121331107Y-44688132D01*
X121352150Y-44675520D01*
X121374329Y-44665030D01*
X121397428Y-44656765D01*
X121421227Y-44650804D01*
X121445495Y-44647204D01*
X121469999Y-44646000D01*
X122370001Y-44646000D01*
X122394505Y-44647204D01*
G37*
G04 #@! TD.AperFunction*
G04 #@! TA.AperFunction,SMDPad,CuDef*
G36*
X121516505Y-51371204D02*
G01*
X121540773Y-51374804D01*
X121564572Y-51380765D01*
X121587671Y-51389030D01*
X121609850Y-51399520D01*
X121630893Y-51412132D01*
X121650599Y-51426747D01*
X121668777Y-51443223D01*
X121685253Y-51461401D01*
X121699868Y-51481107D01*
X121712480Y-51502150D01*
X121722970Y-51524329D01*
X121731235Y-51547428D01*
X121737196Y-51571227D01*
X121740796Y-51595495D01*
X121742000Y-51619999D01*
X121742000Y-52520001D01*
X121740796Y-52544505D01*
X121737196Y-52568773D01*
X121731235Y-52592572D01*
X121722970Y-52615671D01*
X121712480Y-52637850D01*
X121699868Y-52658893D01*
X121685253Y-52678599D01*
X121668777Y-52696777D01*
X121650599Y-52713253D01*
X121630893Y-52727868D01*
X121609850Y-52740480D01*
X121587671Y-52750970D01*
X121564572Y-52759235D01*
X121540773Y-52765196D01*
X121516505Y-52768796D01*
X121492001Y-52770000D01*
X120841999Y-52770000D01*
X120817495Y-52768796D01*
X120793227Y-52765196D01*
X120769428Y-52759235D01*
X120746329Y-52750970D01*
X120724150Y-52740480D01*
X120703107Y-52727868D01*
X120683401Y-52713253D01*
X120665223Y-52696777D01*
X120648747Y-52678599D01*
X120634132Y-52658893D01*
X120621520Y-52637850D01*
X120611030Y-52615671D01*
X120602765Y-52592572D01*
X120596804Y-52568773D01*
X120593204Y-52544505D01*
X120592000Y-52520001D01*
X120592000Y-51619999D01*
X120593204Y-51595495D01*
X120596804Y-51571227D01*
X120602765Y-51547428D01*
X120611030Y-51524329D01*
X120621520Y-51502150D01*
X120634132Y-51481107D01*
X120648747Y-51461401D01*
X120665223Y-51443223D01*
X120683401Y-51426747D01*
X120703107Y-51412132D01*
X120724150Y-51399520D01*
X120746329Y-51389030D01*
X120769428Y-51380765D01*
X120793227Y-51374804D01*
X120817495Y-51371204D01*
X120841999Y-51370000D01*
X121492001Y-51370000D01*
X121516505Y-51371204D01*
G37*
G04 #@! TD.AperFunction*
G04 #@! TA.AperFunction,SMDPad,CuDef*
G36*
X119466505Y-51371204D02*
G01*
X119490773Y-51374804D01*
X119514572Y-51380765D01*
X119537671Y-51389030D01*
X119559850Y-51399520D01*
X119580893Y-51412132D01*
X119600599Y-51426747D01*
X119618777Y-51443223D01*
X119635253Y-51461401D01*
X119649868Y-51481107D01*
X119662480Y-51502150D01*
X119672970Y-51524329D01*
X119681235Y-51547428D01*
X119687196Y-51571227D01*
X119690796Y-51595495D01*
X119692000Y-51619999D01*
X119692000Y-52520001D01*
X119690796Y-52544505D01*
X119687196Y-52568773D01*
X119681235Y-52592572D01*
X119672970Y-52615671D01*
X119662480Y-52637850D01*
X119649868Y-52658893D01*
X119635253Y-52678599D01*
X119618777Y-52696777D01*
X119600599Y-52713253D01*
X119580893Y-52727868D01*
X119559850Y-52740480D01*
X119537671Y-52750970D01*
X119514572Y-52759235D01*
X119490773Y-52765196D01*
X119466505Y-52768796D01*
X119442001Y-52770000D01*
X118791999Y-52770000D01*
X118767495Y-52768796D01*
X118743227Y-52765196D01*
X118719428Y-52759235D01*
X118696329Y-52750970D01*
X118674150Y-52740480D01*
X118653107Y-52727868D01*
X118633401Y-52713253D01*
X118615223Y-52696777D01*
X118598747Y-52678599D01*
X118584132Y-52658893D01*
X118571520Y-52637850D01*
X118561030Y-52615671D01*
X118552765Y-52592572D01*
X118546804Y-52568773D01*
X118543204Y-52544505D01*
X118542000Y-52520001D01*
X118542000Y-51619999D01*
X118543204Y-51595495D01*
X118546804Y-51571227D01*
X118552765Y-51547428D01*
X118561030Y-51524329D01*
X118571520Y-51502150D01*
X118584132Y-51481107D01*
X118598747Y-51461401D01*
X118615223Y-51443223D01*
X118633401Y-51426747D01*
X118653107Y-51412132D01*
X118674150Y-51399520D01*
X118696329Y-51389030D01*
X118719428Y-51380765D01*
X118743227Y-51374804D01*
X118767495Y-51371204D01*
X118791999Y-51370000D01*
X119442001Y-51370000D01*
X119466505Y-51371204D01*
G37*
G04 #@! TD.AperFunction*
G04 #@! TA.AperFunction,SMDPad,CuDef*
G36*
X121516505Y-53403204D02*
G01*
X121540773Y-53406804D01*
X121564572Y-53412765D01*
X121587671Y-53421030D01*
X121609850Y-53431520D01*
X121630893Y-53444132D01*
X121650599Y-53458747D01*
X121668777Y-53475223D01*
X121685253Y-53493401D01*
X121699868Y-53513107D01*
X121712480Y-53534150D01*
X121722970Y-53556329D01*
X121731235Y-53579428D01*
X121737196Y-53603227D01*
X121740796Y-53627495D01*
X121742000Y-53651999D01*
X121742000Y-54552001D01*
X121740796Y-54576505D01*
X121737196Y-54600773D01*
X121731235Y-54624572D01*
X121722970Y-54647671D01*
X121712480Y-54669850D01*
X121699868Y-54690893D01*
X121685253Y-54710599D01*
X121668777Y-54728777D01*
X121650599Y-54745253D01*
X121630893Y-54759868D01*
X121609850Y-54772480D01*
X121587671Y-54782970D01*
X121564572Y-54791235D01*
X121540773Y-54797196D01*
X121516505Y-54800796D01*
X121492001Y-54802000D01*
X120841999Y-54802000D01*
X120817495Y-54800796D01*
X120793227Y-54797196D01*
X120769428Y-54791235D01*
X120746329Y-54782970D01*
X120724150Y-54772480D01*
X120703107Y-54759868D01*
X120683401Y-54745253D01*
X120665223Y-54728777D01*
X120648747Y-54710599D01*
X120634132Y-54690893D01*
X120621520Y-54669850D01*
X120611030Y-54647671D01*
X120602765Y-54624572D01*
X120596804Y-54600773D01*
X120593204Y-54576505D01*
X120592000Y-54552001D01*
X120592000Y-53651999D01*
X120593204Y-53627495D01*
X120596804Y-53603227D01*
X120602765Y-53579428D01*
X120611030Y-53556329D01*
X120621520Y-53534150D01*
X120634132Y-53513107D01*
X120648747Y-53493401D01*
X120665223Y-53475223D01*
X120683401Y-53458747D01*
X120703107Y-53444132D01*
X120724150Y-53431520D01*
X120746329Y-53421030D01*
X120769428Y-53412765D01*
X120793227Y-53406804D01*
X120817495Y-53403204D01*
X120841999Y-53402000D01*
X121492001Y-53402000D01*
X121516505Y-53403204D01*
G37*
G04 #@! TD.AperFunction*
G04 #@! TA.AperFunction,SMDPad,CuDef*
G36*
X119466505Y-53403204D02*
G01*
X119490773Y-53406804D01*
X119514572Y-53412765D01*
X119537671Y-53421030D01*
X119559850Y-53431520D01*
X119580893Y-53444132D01*
X119600599Y-53458747D01*
X119618777Y-53475223D01*
X119635253Y-53493401D01*
X119649868Y-53513107D01*
X119662480Y-53534150D01*
X119672970Y-53556329D01*
X119681235Y-53579428D01*
X119687196Y-53603227D01*
X119690796Y-53627495D01*
X119692000Y-53651999D01*
X119692000Y-54552001D01*
X119690796Y-54576505D01*
X119687196Y-54600773D01*
X119681235Y-54624572D01*
X119672970Y-54647671D01*
X119662480Y-54669850D01*
X119649868Y-54690893D01*
X119635253Y-54710599D01*
X119618777Y-54728777D01*
X119600599Y-54745253D01*
X119580893Y-54759868D01*
X119559850Y-54772480D01*
X119537671Y-54782970D01*
X119514572Y-54791235D01*
X119490773Y-54797196D01*
X119466505Y-54800796D01*
X119442001Y-54802000D01*
X118791999Y-54802000D01*
X118767495Y-54800796D01*
X118743227Y-54797196D01*
X118719428Y-54791235D01*
X118696329Y-54782970D01*
X118674150Y-54772480D01*
X118653107Y-54759868D01*
X118633401Y-54745253D01*
X118615223Y-54728777D01*
X118598747Y-54710599D01*
X118584132Y-54690893D01*
X118571520Y-54669850D01*
X118561030Y-54647671D01*
X118552765Y-54624572D01*
X118546804Y-54600773D01*
X118543204Y-54576505D01*
X118542000Y-54552001D01*
X118542000Y-53651999D01*
X118543204Y-53627495D01*
X118546804Y-53603227D01*
X118552765Y-53579428D01*
X118561030Y-53556329D01*
X118571520Y-53534150D01*
X118584132Y-53513107D01*
X118598747Y-53493401D01*
X118615223Y-53475223D01*
X118633401Y-53458747D01*
X118653107Y-53444132D01*
X118674150Y-53431520D01*
X118696329Y-53421030D01*
X118719428Y-53412765D01*
X118743227Y-53406804D01*
X118767495Y-53403204D01*
X118791999Y-53402000D01*
X119442001Y-53402000D01*
X119466505Y-53403204D01*
G37*
G04 #@! TD.AperFunction*
D20*
X159512000Y-38862000D03*
X105918000Y-53848000D03*
D21*
X120015000Y-42925994D03*
D20*
X105854518Y-41571321D03*
X159512000Y-56642000D03*
D21*
X146304000Y-47752011D03*
X156845000Y-56642000D03*
X156846245Y-38844562D03*
X133350000Y-47752000D03*
X122300994Y-48260000D03*
X143129000Y-47879000D03*
X119380000Y-41047641D03*
X139965173Y-42062031D03*
X156083000Y-40767000D03*
X146431000Y-53340000D03*
X116967000Y-47371000D03*
X134366000Y-44323000D03*
X140716000Y-51816000D03*
X128524000Y-43942000D03*
X136461500Y-47752000D03*
X134874000Y-49022000D03*
X125984000Y-52070000D03*
X125984000Y-50038000D03*
X140929492Y-46187501D03*
D22*
X118858306Y-44971694D02*
X118745000Y-45085000D01*
D23*
X121421000Y-43171000D02*
X121412000Y-43180000D01*
X121666000Y-43171000D02*
X121421000Y-43171000D01*
D22*
X121167000Y-54102000D02*
X121167000Y-51825000D01*
X121167000Y-51825000D02*
X121158000Y-51816000D01*
X124714000Y-48514000D02*
X121158000Y-52070000D01*
X146304000Y-51054000D02*
X142240000Y-55118000D01*
X142240000Y-55118000D02*
X135890000Y-55118000D01*
X146304000Y-50800000D02*
X146304000Y-51054000D01*
X135890000Y-55118000D02*
X129540000Y-48514000D01*
X129540000Y-48514000D02*
X124714000Y-48514000D01*
X118872000Y-44704000D02*
X118872000Y-42164000D01*
X119126000Y-44958000D02*
X118872000Y-44704000D01*
X121675000Y-43171000D02*
X121539000Y-43307000D01*
X123444000Y-43171000D02*
X121675000Y-43171000D01*
X120142000Y-44958000D02*
X119126000Y-44958000D01*
X121539000Y-43307000D02*
X121539000Y-43561000D01*
X121539000Y-43561000D02*
X120142000Y-44958000D01*
X118872000Y-42164000D02*
X118872000Y-42787364D01*
X118872000Y-42925994D02*
X120142000Y-42925994D01*
X146304000Y-50800000D02*
X146304000Y-47752011D01*
X110998000Y-55372000D02*
X108966000Y-53340000D01*
X108966000Y-53340000D02*
X108966000Y-50546000D01*
X120597000Y-55372000D02*
X110998000Y-55372000D01*
X121167000Y-54102000D02*
X121167000Y-54802000D01*
X121167000Y-54802000D02*
X120597000Y-55372000D01*
X156845000Y-56642000D02*
X159512000Y-56642000D01*
X108839000Y-45085000D02*
X109982000Y-43942000D01*
X117856000Y-41148000D02*
X118872000Y-42164000D01*
X115824000Y-41148000D02*
X117856000Y-41148000D01*
X114300000Y-43942000D02*
X115316000Y-42926000D01*
X115316000Y-41656000D02*
X115824000Y-41148000D01*
X109982000Y-43942000D02*
X114300000Y-43942000D01*
X108839000Y-45847000D02*
X108839000Y-45085000D01*
X115316000Y-42926000D02*
X115316000Y-41656000D01*
X156863683Y-38862000D02*
X156846245Y-38844562D01*
X159512000Y-38862000D02*
X156863683Y-38862000D01*
D24*
X112395000Y-48815000D02*
X112395000Y-47498000D01*
X112395000Y-47498000D02*
X112395000Y-47371000D01*
X112928000Y-47371000D02*
X112928000Y-46888000D01*
D22*
X122136001Y-45682001D02*
X121666000Y-45212000D01*
X123952000Y-45221000D02*
X124451000Y-45221000D01*
X124451000Y-45221000D02*
X124460000Y-45212000D01*
X133604000Y-47752000D02*
X133350000Y-47752000D01*
X133350000Y-47752000D02*
X132218630Y-47752000D01*
X132218630Y-47752000D02*
X126492000Y-47752000D01*
X126492000Y-47752000D02*
X123952000Y-45212000D01*
X123952000Y-45212000D02*
X123952000Y-44958000D01*
X133604000Y-48006000D02*
X133350000Y-47752000D01*
D24*
X119228000Y-47371000D02*
X119253000Y-47371000D01*
X112928000Y-48362000D02*
X112903000Y-48387000D01*
X105918000Y-56538500D02*
X105918000Y-56642000D01*
X112928000Y-47371000D02*
X112928000Y-48362000D01*
X107442000Y-55014500D02*
X105918000Y-56538500D01*
X112903000Y-48387000D02*
X108331000Y-48387000D01*
X108331000Y-48387000D02*
X107442000Y-49276000D01*
X107442000Y-49276000D02*
X107442000Y-55014500D01*
D23*
X121411994Y-47371000D02*
X122300994Y-48260000D01*
X119228000Y-47371000D02*
X121411994Y-47371000D01*
D24*
X122428000Y-45212000D02*
X123376990Y-45212000D01*
X119228000Y-47371000D02*
X120269000Y-47371000D01*
X120269000Y-47371000D02*
X122428000Y-45212000D01*
D22*
X144192981Y-46925197D02*
X144192981Y-47672981D01*
X156718000Y-42672000D02*
X148446178Y-42672000D01*
X148446178Y-42672000D02*
X144192981Y-46925197D01*
X144192981Y-47672981D02*
X144192981Y-47819389D01*
X144133370Y-47879000D02*
X144192981Y-47819389D01*
X143129000Y-47879000D02*
X144133370Y-47879000D01*
X137001501Y-46626999D02*
X134475001Y-46626999D01*
X137586501Y-47211999D02*
X137001501Y-46626999D01*
X138233990Y-53651990D02*
X137586501Y-53004501D01*
X134149999Y-46952001D02*
X133350000Y-47752000D01*
X134475001Y-46626999D02*
X134149999Y-46952001D01*
X144192981Y-47672981D02*
X144192981Y-48339019D01*
X141291600Y-53651990D02*
X138233990Y-53651990D01*
X137586501Y-53004501D02*
X137586501Y-47211999D01*
X142367000Y-50165000D02*
X142367000Y-52576590D01*
X144192981Y-48339019D02*
X142367000Y-50165000D01*
X142367000Y-52576590D02*
X141291600Y-53651990D01*
X139165174Y-41262032D02*
X139965173Y-42062031D01*
X129938999Y-45067001D02*
X133743968Y-41262032D01*
X119380000Y-41047641D02*
X123416831Y-41047641D01*
X127436191Y-45067001D02*
X129938999Y-45067001D01*
X123416831Y-41047641D02*
X127436191Y-45067001D01*
X133743968Y-41262032D02*
X139165174Y-41262032D01*
X156845000Y-52832000D02*
X158369000Y-51308000D01*
X158369000Y-51308000D02*
X158369000Y-41921630D01*
X158369000Y-41921630D02*
X157214370Y-40767000D01*
X157214370Y-40767000D02*
X156083000Y-40767000D01*
D24*
X107315000Y-40386000D02*
X106291010Y-39362010D01*
X107315000Y-46355000D02*
X107315000Y-40386000D01*
X107950000Y-46990000D02*
X107315000Y-46355000D01*
X115062000Y-45212000D02*
X114554000Y-44704000D01*
X106291010Y-39362010D02*
X105918000Y-39362010D01*
X115062000Y-50918000D02*
X115062000Y-45212000D01*
X114554000Y-44704000D02*
X111887000Y-44704000D01*
X111887000Y-44704000D02*
X109601000Y-46990000D01*
X109601000Y-46990000D02*
X107950000Y-46990000D01*
D22*
X141478000Y-56642000D02*
X142327999Y-55792001D01*
X142327999Y-55792001D02*
X143637000Y-54483000D01*
X143637000Y-54483000D02*
X144780000Y-53340000D01*
X144780000Y-53340000D02*
X146304000Y-53340000D01*
X119117000Y-52070000D02*
X119117000Y-49539000D01*
X119117000Y-49539000D02*
X119126000Y-49530000D01*
X119126000Y-49530000D02*
X119126000Y-49784000D01*
X119126000Y-49784000D02*
X119126000Y-50038000D01*
X119117000Y-54102000D02*
X119117000Y-52079000D01*
X119117000Y-52079000D02*
X119126000Y-52070000D01*
D24*
X111141000Y-50993000D02*
X111141000Y-52975000D01*
X111141000Y-52975000D02*
X112649000Y-54483000D01*
X112649000Y-54483000D02*
X118745000Y-54483000D01*
X118745000Y-54483000D02*
X119126000Y-54102000D01*
X116966000Y-48386000D02*
X118364000Y-49784000D01*
X118364000Y-49784000D02*
X119126000Y-49784000D01*
X116966000Y-47372000D02*
X116967000Y-47371000D01*
X116966000Y-48386000D02*
X116966000Y-47372000D01*
D22*
X143510000Y-40386000D02*
X139573000Y-44323000D01*
X139573000Y-44323000D02*
X135497370Y-44323000D01*
X147574000Y-40386000D02*
X149098000Y-38862000D01*
X135497370Y-44323000D02*
X134366000Y-44323000D01*
X147574000Y-40386000D02*
X143510000Y-40386000D01*
X140970000Y-51816000D02*
X140716000Y-51816000D01*
X141224000Y-52324000D02*
X140716000Y-51816000D01*
X140716000Y-48006000D02*
X140716000Y-50684630D01*
X151384000Y-41656000D02*
X144018000Y-41656000D01*
X142095001Y-46626999D02*
X140716000Y-48006000D01*
X142095001Y-43578999D02*
X142095001Y-46626999D01*
X154178000Y-38862000D02*
X151384000Y-41656000D01*
X140716000Y-50684630D02*
X140716000Y-51816000D01*
X144018000Y-41656000D02*
X142095001Y-43578999D01*
X118618000Y-39116000D02*
X118618000Y-38862000D01*
X118872000Y-39116000D02*
X118618000Y-38862000D01*
X118872000Y-39151998D02*
X118872000Y-39116000D01*
X119380000Y-38862000D02*
X118618000Y-38862000D01*
X120650000Y-40132000D02*
X119380000Y-38862000D01*
X124333000Y-40132000D02*
X120650000Y-40132000D01*
X128143000Y-43942000D02*
X124333000Y-40132000D01*
X128524000Y-43942000D02*
X128143000Y-43942000D01*
X145577598Y-46176990D02*
X144653000Y-47101588D01*
X156718000Y-45212000D02*
X155753010Y-46176990D01*
X142875000Y-50351998D02*
X142875000Y-52705000D01*
X142875000Y-52705000D02*
X141478000Y-54102000D01*
X136461500Y-48883370D02*
X136461500Y-47752000D01*
X155753010Y-46176990D02*
X145577598Y-46176990D01*
X137160000Y-54102000D02*
X136461500Y-53403500D01*
X141478000Y-54102000D02*
X137160000Y-54102000D01*
X144653000Y-48573998D02*
X142875000Y-50351998D01*
X144653000Y-47101588D02*
X144653000Y-48573998D01*
X136461500Y-53403500D02*
X136461500Y-48883370D01*
X156718000Y-50224081D02*
X156718000Y-50292000D01*
X145103011Y-47287987D02*
X145763997Y-46627001D01*
X153120920Y-46627001D02*
X156718000Y-50224081D01*
X134874000Y-52832000D02*
X136652000Y-54610000D01*
X136652000Y-54610000D02*
X141732000Y-54610000D01*
X145763997Y-46627001D02*
X153120920Y-46627001D01*
X134874000Y-49022000D02*
X134874000Y-52832000D01*
X141732000Y-54610000D02*
X145103011Y-51238989D01*
X145103011Y-51238989D02*
X145103011Y-47287987D01*
X131826000Y-52070000D02*
X127115370Y-52070000D01*
X136398000Y-56642000D02*
X131826000Y-52070000D01*
X127115370Y-52070000D02*
X125984000Y-52070000D01*
X130556000Y-53340000D02*
X133858000Y-56642000D01*
X124460000Y-52197000D02*
X125603000Y-53340000D01*
X125984000Y-50038000D02*
X125222000Y-50038000D01*
X125222000Y-50038000D02*
X124460000Y-50800000D01*
X124460000Y-50800000D02*
X124460000Y-52197000D01*
X125603000Y-53340000D02*
X130556000Y-53340000D01*
X149352000Y-41148000D02*
X143510000Y-41148000D01*
X140929492Y-46268508D02*
X140929492Y-46187501D01*
X140929492Y-43728508D02*
X140929492Y-45056131D01*
X140716000Y-46482000D02*
X140929492Y-46268508D01*
X140929492Y-45056131D02*
X140929492Y-46187501D01*
X151638000Y-38862000D02*
X149352000Y-41148000D01*
X143510000Y-41148000D02*
X140929492Y-43728508D01*
D24*
X113919000Y-52705000D02*
X114300000Y-53086000D01*
X113141000Y-51943000D02*
X113903000Y-52705000D01*
X114300000Y-53086000D02*
X115062000Y-53086000D01*
X113903000Y-52705000D02*
X113919000Y-52705000D01*
M02*
