M48
; DRILL file {KiCad (5.1.5)-3} date 25/09/2020 18:44:17
; FORMAT={-:-/ absolute / inch / decimal}
; #@! TF.CreationDate,2020-09-25T18:44:17-03:00
; #@! TF.GenerationSoftware,Kicad,Pcbnew,(5.1.5)-3
; #@! TF.FileFunction,NonPlated,1,2,NPTH
FMAT,2
INCH
T1C0.0394
T2C0.0866
%
G90
G05
T1
X1.6594Y-2.1906
X1.6594Y-2.2906
X1.9594Y-3.6937
X1.9594Y-3.7937
X1.9594Y-3.8937
X1.9594Y-3.9937
X1.9594Y-4.0937
X1.9594Y-4.1937
X1.9594Y-4.2937
X1.9594Y-4.3937
X1.9594Y-4.5906
X1.9594Y-4.6906
X1.9594Y-4.7906
X1.9594Y-4.8906
X1.9594Y-4.9906
X1.9594Y-5.0906
X2.8327Y-2.1394
X2.8327Y-3.6669
X2.9327Y-2.1394
X2.9327Y-3.6669
X3.2355Y-3.4164
X3.3355Y-3.4164
X3.4355Y-3.4164
X3.8594Y-3.3331
X3.8594Y-3.4331
X3.8594Y-3.6331
X3.8594Y-3.7331
X3.8594Y-3.8331
X3.8594Y-3.9331
X3.8594Y-4.0331
X3.8594Y-4.1331
X3.8594Y-4.2331
X3.8594Y-4.3906
X3.8594Y-4.4906
X3.8594Y-4.5906
X3.8594Y-4.6906
X3.8594Y-4.7906
X3.8594Y-4.8906
X3.8594Y-4.9906
X3.8594Y-5.0906
X4.1594Y-2.1906
X4.1594Y-2.2906
T2
X0.9556Y-5.7717
X0.9556Y-2.1063
X4.0148Y-5.7717
X4.0089Y-2.1053
T0
M30
