M48
; DRILL file {KiCad (5.1.5)-3} date 25/09/2020 18:44:17
; FORMAT={-:-/ absolute / inch / decimal}
; #@! TF.CreationDate,2020-09-25T18:44:17-03:00
; #@! TF.GenerationSoftware,Kicad,Pcbnew,(5.1.5)-3
; #@! TF.FileFunction,Plated,1,2,PTH
FMAT,2
INCH
T1C0.0157
T2C0.0394
%
G90
G05
T1
X0.8146Y-4.2004
X0.835Y-3.8287
X0.8575Y-2.6126
X0.8665Y-3.7461
X0.8722Y-3.8077
X0.9185Y-5.4224
X0.9256Y-3.7394
X0.9756Y-3.9039
X1.0638Y-3.822
X1.1449Y-3.8201
X1.1457Y-4.3862
X1.1787Y-5.2362
X1.1856Y-3.5868
X1.1949Y-3.6415
X1.1996Y-4.4937
X1.2711Y-4.02
X1.275Y-4.4593
X1.2755Y-3.8226
X1.2929Y-3.5031
X1.3063Y-3.1476
X1.311Y-4.7728
X1.3469Y-2.4106
X1.3472Y-2.865
X1.3646Y-4.2811
X1.3661Y-3.6752
X1.3673Y-4.6185
X1.3787Y-4.776
X1.4073Y-3.2951
X1.4154Y-5.1437
X1.4484Y-3.0756
X1.4484Y-3.2906
X1.47Y-4.58
X1.49Y-3.6077
X1.5059Y-3.9165
X1.5098Y-3.7579
X1.5157Y-4.3858
X1.5157Y-4.5807
X1.56Y-3.2065
X1.57Y-4.58
X1.7051Y-2.628
X1.722Y-5.2469
X1.737Y-5.6
X1.8173Y-2.3839
X1.8587Y-4.1555
X1.8882Y-3.435
X2.0315Y-3.9402
X2.0425Y-4.5071
X2.06Y-4.98
X2.0755Y-3.6085
X2.0972Y-5.2469
X2.1207Y-3.851
X2.1439Y-3.7388
X2.1598Y-5.3831
X2.163Y-4.274
X2.19Y-5.31
X2.21Y-5.26
X2.2917Y-4.2717
X2.2917Y-4.6579
X2.3059Y-3.3512
X2.4406Y-3.7618
X2.4728Y-5.1299
X2.5244Y-4.3031
X2.5854Y-4.2933
X2.7413Y-4.6421
X2.7571Y-5.0791
X2.776Y-3.237
X2.81Y-5.08
X2.8272Y-2.8898
X2.86Y-2.66
X2.9067Y-5.013
X2.91Y-3.89
X2.9516Y-5.05
X2.9713Y-3.8457
X2.99Y-5.0148
X3.1224Y-4.8827
X3.1791Y-3.7165
X3.21Y-3.84
X3.24Y-5.03
X3.2616Y-4.4159
X3.2803Y-4.1689
X3.3665Y-4.5882
X3.3831Y-4.2709
X3.4039Y-5.7291
X3.4327Y-5.0988
X3.4516Y-4.8827
X3.4728Y-3.3181
X3.4736Y-5.7488
X3.4759Y-3.8359
X3.5Y-4.26
X3.55Y-3.8396
X3.55Y-3.46
X3.5606Y-4.6059
X3.6Y-4.46
X3.61Y-3.33
X3.61Y-4.23
X3.6221Y-3.8084
X3.64Y-4.97
X3.64Y-5.64
X3.661Y-3.8291
X3.71Y-4.99
X3.71Y-5.64
X3.75Y-4.6902
X3.7673Y-4.8831
X3.7852Y-4.7978
X3.8083Y-5.522
X3.9398Y-3.9811
X3.9701Y-4.2228
X4.06Y-5.39
X4.1315Y-5.5217
X4.14Y-2.98
X4.2352Y-4.56
X4.24Y-5.34
X4.3118Y-4.4256
X4.32Y-3.67
T2
X0.93Y-4.05
X0.93Y-4.15
X0.93Y-4.25
X0.93Y-4.35
X0.93Y-4.45
X0.93Y-4.55
X0.93Y-4.65
X0.93Y-4.75
X0.93Y-4.85
X0.93Y-4.95
X0.93Y-5.05
X0.93Y-5.15
X0.93Y-5.25
X1.03Y-4.05
X1.03Y-4.15
X1.03Y-4.25
X1.03Y-4.35
X1.03Y-4.45
X1.03Y-4.55
X1.03Y-4.65
X1.03Y-4.75
X1.03Y-4.85
X1.03Y-4.95
X1.03Y-5.05
X1.03Y-5.15
X1.03Y-5.25
X0.93Y-2.88
X0.93Y-2.98
X0.93Y-3.08
X0.93Y-3.18
X0.93Y-3.28
X0.93Y-3.38
X0.93Y-3.48
X0.93Y-3.58
X1.03Y-2.88
X1.03Y-2.98
X1.03Y-3.08
X1.03Y-3.18
X1.03Y-3.28
X1.03Y-3.38
X1.03Y-3.48
X1.03Y-3.58
X1.91Y-5.6
X1.91Y-5.7
X2.01Y-5.6
X2.01Y-5.7
X2.11Y-5.6
X2.11Y-5.7
X2.21Y-5.6
X2.21Y-5.7
X2.31Y-5.6
X2.31Y-5.7
X2.41Y-5.6
X2.41Y-5.7
X2.51Y-5.6
X2.51Y-5.7
X2.61Y-5.6
X2.61Y-5.7
X2.71Y-5.6
X2.71Y-5.7
X2.81Y-5.6
X2.81Y-5.7
X2.91Y-5.6
X2.91Y-5.7
X3.01Y-5.6
X3.01Y-5.7
X3.11Y-5.6
X3.11Y-5.7
X0.93Y-2.35
X0.93Y-2.45
X1.03Y-2.35
X1.03Y-2.45
X1.6594Y-3.2929
X1.6594Y-3.3929
X1.6594Y-3.4929
X1.6594Y-3.5929
X1.6594Y-3.6929
X1.6594Y-3.7929
X1.6594Y-3.8929
X1.6594Y-3.9929
X1.6594Y-4.0929
X1.6594Y-4.1929
X1.6594Y-4.2929
X1.6594Y-4.3929
X1.6594Y-4.4929
X1.6594Y-4.5929
X1.6594Y-4.6929
X1.6594Y-4.7929
X1.6594Y-4.8929
X1.6594Y-4.9929
X1.6594Y-5.0929
X1.7594Y-3.2929
X1.7594Y-3.3929
X1.7594Y-3.4929
X1.7594Y-3.5929
X1.7594Y-3.6929
X1.7594Y-3.7929
X1.7594Y-3.8929
X1.7594Y-3.9929
X1.7594Y-4.0929
X1.7594Y-4.1929
X1.7594Y-4.2929
X1.7594Y-4.3929
X1.7594Y-4.4929
X1.7594Y-4.5929
X1.7594Y-4.6929
X1.7594Y-4.7929
X1.7594Y-4.8929
X1.7594Y-4.9929
X1.7594Y-5.0929
X3.8594Y-3.5331
X4.0594Y-3.2929
X4.0594Y-3.3929
X4.0594Y-3.4929
X4.0594Y-3.5929
X4.0594Y-3.6929
X4.0594Y-3.7929
X4.0594Y-3.8929
X4.0594Y-3.9929
X4.0594Y-4.0929
X4.0594Y-4.1929
X4.0594Y-4.2929
X4.0594Y-4.3929
X4.0594Y-4.4929
X4.0594Y-4.5929
X4.0594Y-4.6929
X4.0594Y-4.7929
X4.0594Y-4.8929
X4.0594Y-4.9929
X4.0594Y-5.0929
X4.1594Y-3.2929
X4.1594Y-3.3929
X4.1594Y-3.4929
X4.1594Y-3.5929
X4.1594Y-3.6929
X4.1594Y-3.7929
X4.1594Y-3.8929
X4.1594Y-3.9929
X4.1594Y-4.0929
X4.1594Y-4.1929
X4.1594Y-4.2929
X4.1594Y-4.3929
X4.1594Y-4.4929
X4.1594Y-4.5929
X4.1594Y-4.6929
X4.1594Y-4.7929
X4.1594Y-4.8929
X4.1594Y-4.9929
X4.1594Y-5.0929
T0
M30
