M48
; DRILL file {KiCad (5.1.5)-3} date 8/28/2020 10:02:16 PM
; FORMAT={-:-/ absolute / inch / decimal}
; #@! TF.CreationDate,2020-08-28T22:02:16-03:00
; #@! TF.GenerationSoftware,Kicad,Pcbnew,(5.1.5)-3
; #@! TF.FileFunction,Plated,1,2,PTH
FMAT,2
INCH
T1C0.0157
T2C0.0197
T3C0.0315
T4C0.0394
T5C0.0400
T6C0.0709
T7C0.1260
T8C0.1378
%
G90
G05
T1
X6.425Y-6.71
X6.4564Y-6.6651
X6.485Y-6.71
X6.515Y-6.665
X6.545Y-6.71
X6.61Y-7.09
X6.665Y-5.35
X6.675Y-2.88
X6.745Y-5.76
X6.75Y-3.34
X6.75Y-3.7416
X6.76Y-6.07
X6.93Y-7.09
X6.975Y-2.395
X6.99Y-5.83
X6.995Y-3.39
X7.1Y-4.915
X7.155Y-7.305
X7.25Y-7.09
X7.305Y-3.48
X7.31Y-5.865
X7.385Y-5.355
X7.3863Y-5.5404
X7.3863Y-5.9387
X7.3863Y-6.3489
X7.3863Y-6.5539
X7.3872Y-3.909
X7.3872Y-4.114
X7.3913Y-2.91
X7.3913Y-3.103
X7.3913Y-3.445
X7.57Y-7.0772
X7.635Y-4.46
X7.635Y-6.775
X7.6359Y-4.3351
X7.666Y-4.045
X7.67Y-3.035
X7.67Y-3.42
X7.67Y-5.475
X7.67Y-5.72
X7.67Y-6.485
X7.67Y-6.9
X7.68Y-7.05
X7.7324Y-7.1876
X7.87Y-5.61
X7.88Y-7.09
X7.8985Y-5.66
X7.92Y-7.09
X7.935Y-6.7163
X7.94Y-4.45
X7.96Y-7.09
X8.0Y-7.09
X8.0Y-4.34
X8.04Y-7.09
X8.11Y-2.89
X8.11Y-5.335
X8.18Y-3.33
X8.185Y-5.79
X8.185Y-6.79
X8.1909Y-3.7341
X8.195Y-6.18
X8.3652Y-7.0898
X8.42Y-2.395
X8.42Y-5.835
X8.43Y-3.475
X8.515Y-4.905
X8.535Y-7.19
X8.685Y-7.09
X8.75Y-3.425
X8.765Y-5.9603
X8.79Y-4.49
X8.82Y-2.92
X8.82Y-3.105
X8.8232Y-3.8939
X8.8232Y-4.0989
X8.825Y-5.355
X8.8252Y-5.5439
X8.8282Y-5.92
X8.8282Y-6.3504
X8.8282Y-6.5554
X8.88Y-7.05
X9.01Y-7.13
X9.06Y-7.05
X9.072Y-4.32
X9.075Y-4.45
X9.077Y-6.7765
X9.105Y-3.04
X9.105Y-4.03
X9.1146Y-5.4796
X9.1146Y-5.84
X9.1146Y-6.4904
X9.16Y-2.18
X9.16Y-2.2394
X9.16Y-2.3
X9.16Y-2.36
X9.2Y-2.33
X9.2Y-2.21
X9.2Y-2.2679
X9.2Y-2.39
X9.32Y-7.1098
X9.3237Y-5.82
X9.3237Y-5.89
X9.3702Y-7.1102
X9.375Y-6.76
X9.41Y-4.41
X9.42Y-7.11
X9.44Y-4.34
X9.45Y-2.7
X9.47Y-7.11
X9.52Y-7.11
X9.55Y-2.89
X9.5525Y-5.3325
X9.625Y-5.76
X9.63Y-3.315
X9.64Y-6.18
X9.645Y-3.735
X9.83Y-7.16
X9.86Y-2.395
X9.8645Y-5.8355
X9.89Y-7.08
X9.89Y-7.32
X9.895Y-3.46
X9.94Y-7.08
X9.985Y-4.935
X9.99Y-7.08
X9.99Y-7.26
X10.04Y-7.08
X10.125Y-7.04
X10.185Y-3.455
X10.19Y-5.89
X10.2Y-7.08
X10.2Y-7.13
X10.24Y-4.49
X10.2625Y-6.3425
X10.2625Y-6.5675
X10.265Y-5.355
X10.265Y-5.5445
X10.265Y-5.91
X10.27Y-2.915
X10.2713Y-3.1063
X10.2713Y-3.8933
X10.2713Y-4.0983
X10.3Y-7.23
X10.3Y-7.42
X10.445Y-7.04
X10.515Y-5.86
X10.5187Y-6.7761
X10.52Y-4.3194
X10.55Y-4.45
X10.5531Y-5.4819
X10.5531Y-6.4869
X10.555Y-4.03
X10.56Y-3.035
X10.605Y-7.23
X10.605Y-7.42
X10.7Y-7.23
X10.7Y-7.42
X10.905Y-3.48
X10.92Y-6.105
X10.945Y-3.715
X10.95Y-2.85
X10.96Y-5.25
X10.965Y-5.545
X11.0Y-5.25
X11.0Y-6.0048
X11.0Y-6.5
X11.0175Y-3.5975
X11.02Y-3.28
X11.0231Y-3.92
X11.04Y-5.25
X11.05Y-7.16
X11.0502Y-6.7048
X11.08Y-5.25
X11.09Y-7.19
X11.1Y-5.69
X11.1Y-6.055
X11.1002Y-5.4448
X11.1002Y-6.6052
X11.115Y-2.6
X11.115Y-2.98
X11.12Y-5.25
X11.12Y-7.22
X11.1215Y-6.755
X11.13Y-3.175
X11.1498Y-5.1798
X11.15Y-5.62
X11.15Y-6.1548
X11.15Y-6.205
X11.15Y-6.555
X11.15Y-7.25
X11.1502Y-5.4952
X11.1648Y-3.0098
X11.165Y-2.6
X11.185Y-4.32
X11.2Y-5.25
X11.205Y-4.04
X11.2148Y-3.0398
X11.215Y-2.6
X11.215Y-4.57
X11.23Y-4.685
X11.25Y-5.25
X11.2526Y-3.8274
X11.2526Y-4.0876
X11.265Y-2.6
X11.265Y-3.07
X11.265Y-4.57
X11.265Y-4.875
X11.29Y-5.795
X11.29Y-6.355
X11.29Y-6.905
X11.3Y-5.25
X11.305Y-4.92
X11.315Y-2.6
X11.32Y-6.555
X11.32Y-5.445
X11.32Y-6.005
X11.35Y-5.25
X11.35Y-5.795
X11.35Y-6.355
X11.3502Y-6.9052
X11.36Y-3.565
X11.365Y-2.6
X11.37Y-2.8
X11.38Y-4.685
X11.38Y-5.745
X11.38Y-6.305
X11.38Y-6.855
X11.41Y-5.695
X11.41Y-6.255
X11.41Y-6.805
X11.415Y-2.85
X11.4152Y-2.6002
X11.445Y-4.57
X11.46Y-2.6
X11.4774Y-4.0876
X11.515Y-4.345
X11.525Y-5.38
X11.525Y-5.595
X11.5398Y-6.6052
X11.54Y-7.01
X11.5548Y-5.5448
X11.555Y-5.335
X11.5698Y-6.6548
X11.57Y-7.045
X11.5815Y-6.0552
X11.5998Y-6.7048
X11.6Y-6.105
X11.6Y-6.155
X11.6Y-6.205
X11.6Y-7.08
X11.69Y-3.225
X11.69Y-3.68
X11.6925Y-3.3475
X11.695Y-2.6
X11.695Y-3.44
X11.6952Y-2.98
X11.699Y-3.931
X11.699Y-4.746
X11.74Y-4.65
X11.7448Y-2.6002
X11.7448Y-3.01
X11.7768Y-4.5968
X11.7948Y-2.6002
X11.7948Y-3.0398
X11.8Y-5.4
X11.84Y-5.68
X11.84Y-6.18
X11.84Y-6.67
X11.8452Y-2.6002
X11.8452Y-3.07
X11.85Y-3.25
X11.87Y-6.36
X11.87Y-6.49
X11.88Y-6.87
X11.885Y-5.475
X11.89Y-5.87
X11.8952Y-2.6002
X11.94Y-5.35
X11.9448Y-2.6002
X11.945Y-2.86
X11.945Y-5.975
X11.985Y-4.4
X11.985Y-4.7
X11.9952Y-2.6002
X12.045Y-2.6
X12.045Y-4.19
X12.1025Y-4.5075
X12.1039Y-4.5811
X12.105Y-4.41
X12.15Y-5.47
X12.1509Y-5.4259
X12.17Y-6.37
X12.2Y-6.49
X12.21Y-5.87
X12.21Y-6.0
X12.21Y-6.87
X12.2331Y-4.4169
X12.24Y-5.68
X12.24Y-6.18
X12.24Y-6.67
X12.275Y-2.98
X12.3248Y-3.01
X12.325Y-3.11
X12.3748Y-3.04
X12.425Y-3.07
X12.5Y-3.01
X12.525Y-2.86
X12.61Y-2.6
X12.63Y-3.05
X12.65Y-4.6
X12.65Y-4.7
X12.685Y-4.07
X12.7501Y-3.8
X12.79Y-5.68
X12.79Y-6.18
X12.79Y-6.67
X12.8Y-3.8
X12.8Y-3.93
X12.8Y-5.85
X12.82Y-5.99
X12.83Y-6.48
X12.8376Y-6.38
X12.8491Y-5.4259
X12.85Y-3.8
X12.85Y-5.365
X12.8508Y-4.4592
X12.86Y-6.88
X12.89Y-5.46
X12.9Y-3.8
X12.91Y-4.5
X12.95Y-3.796
X13.0148Y-4.4198
X13.07Y-2.68
X13.1Y-3.65
X13.1Y-4.14
X13.1Y-4.2
X13.12Y-2.68
X13.13Y-6.88
X13.145Y-3.605
X13.16Y-5.85
X13.16Y-6.38
X13.16Y-6.48
X13.17Y-2.68
X13.19Y-5.68
X13.19Y-6.0
X13.19Y-6.18
X13.19Y-6.67
X13.25Y-3.35
X13.2669Y-4.5831
X13.27Y-4.66
X13.27Y-4.89
X13.27Y-4.94
X13.27Y-5.275
X13.3Y-3.35
X13.3446Y-4.94
X13.345Y-5.2465
X13.35Y-4.205
X13.35Y-4.25
X13.37Y-6.88
X13.38Y-7.06
X13.38Y-7.12
X13.38Y-7.18
X13.38Y-7.24
X13.39Y-5.44
X13.39Y-5.5
X13.39Y-5.65
X13.4Y-4.94
X13.4Y-5.215
X13.41Y-7.03
X13.41Y-7.09
X13.41Y-7.15
X13.41Y-7.21
X13.4173Y-5.9827
X13.42Y-6.1
X13.42Y-6.16
X13.42Y-7.63
X13.45Y-4.89
X13.45Y-4.94
X13.4525Y-4.7075
X13.4602Y-5.5448
X13.475Y-3.615
X13.475Y-3.665
X13.48Y-6.7
X13.48Y-5.98
X13.48Y-6.55
X13.48Y-6.76
X13.4875Y-6.1075
X13.51Y-2.925
X13.5114Y-4.2036
X13.545Y-3.0
X13.55Y-7.56
X13.6Y-3.35
X13.64Y-7.0
X13.64Y-7.3
X13.65Y-3.35
X13.67Y-6.55
X13.67Y-6.62
X13.67Y-6.69
X13.69Y-7.48
X13.73Y-6.55
X13.8648Y-6.8052
X13.865Y-6.255
X13.87Y-5.3
X13.87Y-5.69
X13.8952Y-6.8548
X13.9Y-5.25
X13.9Y-5.74
X13.9Y-6.3
X13.93Y-5.3
X13.93Y-5.79
X13.93Y-6.35
X13.93Y-6.9
X14.0Y-4.9
X14.05Y-3.66
X14.12Y-3.66
X14.16Y-6.14
X14.19Y-5.79
X14.21Y-6.075
X14.2385Y-6.1935
X14.245Y-6.665
X14.25Y-3.7
X14.26Y-3.57
X14.28Y-7.28
X14.31Y-3.57
X14.35Y-3.85
X14.3525Y-6.1925
X14.365Y-5.555
X14.4Y-6.605
X14.405Y-5.445
X14.405Y-6.19
X14.43Y-3.14
X14.45Y-5.465
X14.46Y-4.105
X14.47Y-3.14
X14.505Y-4.42
X14.5575Y-4.4775
X14.6Y-6.075
X14.6Y-6.0
X14.63Y-5.225
X14.64Y-7.69
X14.645Y-4.23
X14.82Y-7.64
X14.9331Y-5.1719
X15.0Y-6.53
X15.01Y-4.955
X15.04Y-6.89
X15.095Y-4.55
X15.2031Y-2.9519
X15.2031Y-2.9969
X15.215Y-4.085
X15.23Y-3.775
X15.255Y-7.9
X15.275Y-3.82
X15.3Y-7.9
X15.31Y-6.44
X15.42Y-3.85
X15.5Y-3.7
X15.6Y-3.6
X15.6Y-3.71
X15.71Y-3.6
T2
X6.4255Y-2.3
X6.4532Y-2.2332
X6.4532Y-2.3668
X6.52Y-2.2055
X6.52Y-2.3945
X6.5868Y-2.2332
X6.5868Y-2.3668
X6.6145Y-2.3
X15.5455Y-2.3
X15.5732Y-2.2332
X15.5732Y-2.3668
X15.64Y-2.2055
X15.64Y-2.3945
X15.7068Y-2.2332
X15.7068Y-2.3668
X15.7345Y-2.3
X15.5455Y-7.84
X15.5732Y-7.7732
X15.5732Y-7.9068
X15.64Y-7.7455
X15.64Y-7.9345
X15.7068Y-7.7732
X15.7068Y-7.9068
X15.7345Y-7.84
X6.4255Y-7.84
X6.4532Y-7.7732
X6.4532Y-7.9068
X6.52Y-7.7455
X6.52Y-7.9345
X6.5868Y-7.7732
X6.5868Y-7.9068
X6.6145Y-7.84
T3
X12.44Y-4.1804
X12.44Y-4.33
X12.44Y-4.54
X12.44Y-4.6896
T4
X10.18Y-7.58
X10.28Y-7.58
X10.38Y-7.58
X10.48Y-7.58
X13.6Y-4.56
X13.6Y-4.66
X13.6Y-4.76
X13.6Y-4.86
X13.6Y-4.96
X10.68Y-7.58
X10.78Y-7.58
X10.88Y-7.58
X10.98Y-7.58
T5
X11.94Y-7.47
X11.94Y-7.57
X12.04Y-7.47
X12.04Y-7.57
X12.14Y-7.47
X12.14Y-7.57
X12.24Y-7.47
X12.24Y-7.57
X12.34Y-7.47
X12.34Y-7.57
X12.44Y-7.47
X12.44Y-7.57
X12.54Y-7.47
X12.54Y-7.57
X12.64Y-7.47
X12.64Y-7.57
X12.74Y-7.47
X12.74Y-7.57
X12.84Y-7.47
X12.84Y-7.57
X12.94Y-7.47
X12.94Y-7.57
X13.04Y-7.47
X13.04Y-7.57
X13.14Y-7.47
X13.14Y-7.57
X7.985Y-7.47
X7.985Y-7.57
X8.085Y-7.47
X8.085Y-7.57
X8.185Y-7.47
X8.185Y-7.57
X8.285Y-7.47
X8.285Y-7.57
X8.385Y-7.47
X8.385Y-7.57
X8.485Y-7.47
X8.485Y-7.57
X8.585Y-7.47
X8.585Y-7.57
X8.685Y-7.47
X8.685Y-7.57
X8.785Y-7.47
X8.785Y-7.57
X8.885Y-7.47
X8.885Y-7.57
X8.985Y-7.47
X8.985Y-7.57
X9.085Y-7.47
X9.085Y-7.57
X9.185Y-7.47
X9.185Y-7.57
T6
X10.28Y-7.69
X10.28Y-7.81
X10.38Y-7.69
X10.38Y-7.81
X10.48Y-7.69
X10.48Y-7.81
X10.88Y-7.69
X10.88Y-7.81
X10.98Y-7.69
X10.98Y-7.81
X14.5039Y-7.2035
X14.5039Y-7.42
X14.6693Y-7.2035
X14.6693Y-7.42
X14.8346Y-7.2035
X14.8346Y-7.42
X15.0Y-7.2035
X15.0Y-7.42
T7
X6.52Y-2.3
X15.64Y-2.3
X15.64Y-7.84
X6.52Y-7.84
T8
X14.26Y-2.485
T0
M30
