M48
; DRILL file {KiCad (5.1.5)-3} date 8/14/2020 4:58:31 AM
; FORMAT={-:-/ absolute / inch / decimal}
; #@! TF.CreationDate,2020-08-14T04:58:31-03:00
; #@! TF.GenerationSoftware,Kicad,Pcbnew,(5.1.5)-3
; #@! TF.FileFunction,Plated,1,2,PTH
FMAT,2
INCH
T1C0.0157
T2C0.0197
T3C0.0394
T4C0.0400
T5C0.0709
T6C0.1260
T7C0.1378
%
G90
G05
T1
X6.425Y-6.71
X6.4564Y-6.6651
X6.485Y-6.71
X6.515Y-6.665
X6.545Y-6.71
X6.61Y-7.09
X6.665Y-5.35
X6.675Y-2.88
X6.745Y-5.76
X6.75Y-3.34
X6.75Y-3.7416
X6.76Y-6.07
X6.93Y-7.09
X6.975Y-2.395
X6.99Y-5.83
X6.995Y-3.39
X7.1Y-4.915
X7.155Y-7.305
X7.25Y-7.09
X7.305Y-3.42
X7.31Y-5.865
X7.385Y-5.355
X7.3863Y-5.5404
X7.3863Y-5.9387
X7.3863Y-6.3489
X7.3863Y-6.5539
X7.3872Y-3.909
X7.3872Y-4.114
X7.3913Y-2.91
X7.3913Y-3.103
X7.3913Y-3.4187
X7.57Y-7.0772
X7.635Y-4.46
X7.635Y-6.775
X7.6359Y-4.3351
X7.67Y-3.035
X7.67Y-3.42
X7.67Y-4.045
X7.67Y-5.475
X7.67Y-5.72
X7.67Y-6.485
X7.67Y-6.9
X7.7324Y-7.1876
X7.86Y-7.05
X7.87Y-5.61
X7.895Y-7.0235
X7.8985Y-5.66
X7.93Y-7.05
X7.965Y-7.0235
X8.0Y-2.555
X8.0Y-2.6
X8.0Y-7.05
X8.0Y-4.34
X8.05Y-7.05
X8.11Y-2.89
X8.11Y-5.335
X8.18Y-3.33
X8.185Y-5.79
X8.185Y-6.79
X8.1909Y-3.7341
X8.195Y-6.18
X8.365Y-7.09
X8.42Y-2.395
X8.425Y-3.395
X8.43Y-5.835
X8.515Y-4.905
X8.535Y-7.19
X8.685Y-7.09
X8.75Y-3.425
X8.75Y-5.865
X8.82Y-2.92
X8.82Y-3.105
X8.8232Y-3.8939
X8.8232Y-4.0989
X8.825Y-5.355
X8.8252Y-5.5439
X8.8282Y-5.9318
X8.8282Y-6.3504
X8.8282Y-6.5554
X9.005Y-7.09
X9.072Y-4.32
X9.0739Y-5.765
X9.075Y-4.45
X9.077Y-6.7765
X9.105Y-3.04
X9.105Y-4.03
X9.1146Y-5.4796
X9.1146Y-5.8604
X9.1146Y-6.4904
X9.135Y-7.155
X9.16Y-2.18
X9.16Y-2.2394
X9.16Y-2.3
X9.16Y-2.36
X9.2Y-2.33
X9.2Y-2.21
X9.2Y-2.2679
X9.2Y-2.39
X9.295Y-7.05
X9.33Y-5.82
X9.33Y-5.89
X9.33Y-7.0235
X9.365Y-7.05
X9.4Y-7.0235
X9.435Y-7.05
X9.44Y-4.34
X9.45Y-2.65
X9.45Y-2.7
X9.485Y-7.09
X9.55Y-2.89
X9.5525Y-5.3325
X9.625Y-5.76
X9.63Y-3.315
X9.64Y-6.18
X9.645Y-3.735
X9.805Y-7.09
X9.86Y-2.395
X9.8645Y-5.8355
X9.87Y-3.39
X9.985Y-4.935
X10.125Y-7.09
X10.18Y-5.865
X10.1837Y-3.4187
X10.2625Y-6.3425
X10.2625Y-6.5675
X10.265Y-5.355
X10.265Y-5.5445
X10.265Y-5.865
X10.27Y-2.915
X10.2713Y-3.1063
X10.2713Y-3.8933
X10.2713Y-4.0983
X10.445Y-7.09
X10.515Y-5.86
X10.5187Y-6.7761
X10.52Y-4.3194
X10.55Y-4.45
X10.5531Y-5.4819
X10.5531Y-6.4869
X10.555Y-4.03
X10.56Y-3.035
X11.115Y-2.6
X11.115Y-2.98
X11.1648Y-3.0098
X11.165Y-2.6
X11.2148Y-3.0398
X11.215Y-2.6
X11.265Y-2.6
X11.265Y-3.07
X11.315Y-2.6
X11.365Y-2.86
X11.365Y-2.6
X11.4152Y-2.6002
X11.46Y-2.6
X11.695Y-2.6
X11.6952Y-2.98
X11.7448Y-2.6002
X11.7448Y-3.01
X11.7948Y-2.6002
X11.7948Y-3.0398
X11.84Y-5.68
X11.84Y-6.18
X11.84Y-6.67
X11.8452Y-2.6002
X11.8452Y-3.07
X11.87Y-6.36
X11.87Y-6.49
X11.88Y-6.87
X11.885Y-5.475
X11.89Y-5.87
X11.8952Y-2.6002
X11.9448Y-2.6002
X11.945Y-2.86
X11.945Y-5.975
X11.9952Y-2.6002
X12.045Y-2.6
X12.15Y-5.47
X12.17Y-6.37
X12.2Y-6.49
X12.21Y-5.87
X12.21Y-6.0
X12.21Y-6.87
X12.24Y-5.68
X12.24Y-6.18
X12.24Y-6.67
X12.275Y-2.98
X12.3248Y-3.01
X12.3748Y-3.04
X12.425Y-3.07
X12.525Y-2.86
X12.61Y-2.6
X12.79Y-5.68
X12.79Y-6.18
X12.79Y-6.67
X12.8Y-5.85
X12.82Y-5.99
X12.83Y-6.48
X12.8376Y-6.38
X12.86Y-6.88
X12.89Y-5.46
X13.13Y-6.88
X13.16Y-5.85
X13.16Y-6.38
X13.16Y-6.48
X13.19Y-5.68
X13.19Y-6.0
X13.19Y-6.18
X13.19Y-6.67
X13.235Y-3.78
X13.37Y-6.88
X13.38Y-7.06
X13.38Y-7.12
X13.38Y-7.18
X13.38Y-7.24
X13.39Y-5.44
X13.39Y-5.5
X13.39Y-5.65
X13.41Y-7.03
X13.41Y-7.09
X13.41Y-7.15
X13.41Y-7.21
X13.4173Y-5.9827
X13.42Y-6.1
X13.42Y-6.16
X13.48Y-6.7
X13.48Y-5.98
X13.48Y-6.55
X13.48Y-6.76
X13.67Y-6.55
X13.67Y-6.62
X13.67Y-6.69
X13.73Y-6.55
X13.8648Y-6.8052
X13.865Y-6.255
X13.87Y-5.69
X13.8952Y-6.8548
X13.9Y-5.74
X13.9Y-6.3
X13.93Y-5.79
X13.93Y-6.35
X13.93Y-6.9
X14.41Y-5.64
X14.58Y-6.76
X14.595Y-5.765
X14.96Y-6.49
X15.045Y-6.085
X15.13Y-7.41
T2
X15.5455Y-7.84
X15.5732Y-7.7732
X15.5732Y-7.9068
X15.64Y-7.7455
X15.64Y-7.9345
X15.7068Y-7.7732
X15.7068Y-7.9068
X15.7345Y-7.84
X15.5455Y-2.3
X15.5732Y-2.2332
X15.5732Y-2.3668
X15.64Y-2.2055
X15.64Y-2.3945
X15.7068Y-2.2332
X15.7068Y-2.3668
X15.7345Y-2.3
X6.4255Y-7.84
X6.4532Y-7.7732
X6.4532Y-7.9068
X6.52Y-7.7455
X6.52Y-7.9345
X6.5868Y-7.7732
X6.5868Y-7.9068
X6.6145Y-7.84
X6.4255Y-2.3
X6.4532Y-2.2332
X6.4532Y-2.3668
X6.52Y-2.2055
X6.52Y-2.3945
X6.5868Y-2.2332
X6.5868Y-2.3668
X6.6145Y-2.3
T3
X14.93Y-7.57
X15.03Y-7.57
X15.13Y-7.57
X15.23Y-7.57
X14.43Y-7.57
X14.53Y-7.57
X14.63Y-7.57
X14.73Y-7.57
T4
X11.94Y-7.47
X11.94Y-7.57
X12.04Y-7.47
X12.04Y-7.57
X12.14Y-7.47
X12.14Y-7.57
X12.24Y-7.47
X12.24Y-7.57
X12.34Y-7.47
X12.34Y-7.57
X12.44Y-7.47
X12.44Y-7.57
X12.54Y-7.47
X12.54Y-7.57
X12.64Y-7.47
X12.64Y-7.57
X12.74Y-7.47
X12.74Y-7.57
X12.84Y-7.47
X12.84Y-7.57
X12.94Y-7.47
X12.94Y-7.57
X13.04Y-7.47
X13.04Y-7.57
X13.14Y-7.47
X13.14Y-7.57
X7.985Y-7.47
X7.985Y-7.57
X8.085Y-7.47
X8.085Y-7.57
X8.185Y-7.47
X8.185Y-7.57
X8.285Y-7.47
X8.285Y-7.57
X8.385Y-7.47
X8.385Y-7.57
X8.485Y-7.47
X8.485Y-7.57
X8.585Y-7.47
X8.585Y-7.57
X8.685Y-7.47
X8.685Y-7.57
X8.785Y-7.47
X8.785Y-7.57
X8.885Y-7.47
X8.885Y-7.57
X8.985Y-7.47
X8.985Y-7.57
X9.085Y-7.47
X9.085Y-7.57
X9.185Y-7.47
X9.185Y-7.57
T5
X14.53Y-7.68
X14.53Y-7.8
X14.63Y-7.68
X14.63Y-7.8
X14.73Y-7.68
X14.73Y-7.8
X15.13Y-7.68
X15.13Y-7.8
X15.23Y-7.68
X15.23Y-7.8
T6
X15.64Y-7.84
X15.64Y-2.3
X6.52Y-7.84
X6.52Y-2.3
T7
X14.26Y-2.485
T0
M30
