<?xml version="1.0" standalone="no"?>
 <!DOCTYPE svg PUBLIC "-//W3C//DTD SVG 1.1//EN" 
 "http://www.w3.org/Graphics/SVG/1.1/DTD/svg11.dtd"> 
<svg xmlns="http://www.w3.org/2000/svg" version="1.1" 
    width="5.36448cm" height="5.1435cm" viewBox="0 0 21120 20250 ">
<title>SVG Picture created as Pre charge &amp; discharge-brd.svg date 2020/08/04 10:12:13 </title>
  <desc>Picture generated by PCBNEW </desc>
<g style="fill:#000000; fill-opacity:1;stroke:#000000; stroke-opacity:1;
stroke-linecap:round; stroke-linejoin:round; "
 transform="translate(0 0) scale(1 1)">
</g>
<g style="fill:#000000; fill-opacity:0.0; 
stroke:#000000; stroke-width:-0.000393701; stroke-opacity:1; 
stroke-linecap:round; stroke-linejoin:round;">
</g>
<g style="fill:#000000; fill-opacity:1.0; 
stroke:#000000; stroke-width:0; stroke-opacity:1; 
stroke-linecap:round; stroke-linejoin:round;">
<path style="fill:#000000; fill-opacity:1.0; 
stroke:#000000; stroke-width:0; stroke-opacity:1; 
stroke-linecap:round; stroke-linejoin:round;fill-rule:evenodd;"
d="M 18817,17300.9
18876,17312.6
18987.1,17358.7
19087.1,17425.5
19172.2,17510.5
19239,17610.6
19285,17721.7
19308.5,17839.7
19308.5,17959.9
19285,18077.9
19239,18189
19172.2,18289.1
19087.1,18374.1
18987.1,18440.9
18876,18487
18817,18498.7
18758,18510.4
18637.7,18510.4
18578.7,18498.7
18519.7,18487
18408.6,18440.9
18308.6,18374.1
18223.6,18289.1
18156.7,18189
18110.7,18077.9
18087.2,17959.9
18087.2,17839.7
18110.7,17721.7
18156.7,17610.6
18223.6,17510.5
18308.6,17425.5
18408.6,17358.7
18519.7,17312.6
18578.7,17300.9
18637.7,17289.2
18758,17289.2
Z" /> 
<path style="fill:#000000; fill-opacity:1.0; 
stroke:#000000; stroke-width:0; stroke-opacity:1; 
stroke-linecap:round; stroke-linejoin:round;fill-rule:evenodd;"
d="M 17308.5,18510.4
16087.2,18510.4
16087.2,17289.2
17308.5,17289.2
Z" /> 
<path style="fill:#000000; fill-opacity:1.0; 
stroke:#000000; stroke-width:0; stroke-opacity:1; 
stroke-linecap:round; stroke-linejoin:round;fill-rule:evenodd;"
d="M 2958.49,18435.4
1737.23,18435.4
1737.23,17214.2
2958.49,17214.2
Z" /> 
<path style="fill:#000000; fill-opacity:1.0; 
stroke:#000000; stroke-width:0; stroke-opacity:1; 
stroke-linecap:round; stroke-linejoin:round;fill-rule:evenodd;"
d="M 4466.99,17225.9
4525.98,17237.6
4637.1,17283.7
4737.12,17350.5
4822.17,17435.5
4889,17535.6
4935.03,17646.7
4958.49,17764.7
4958.49,17884.9
4935.03,18002.9
4889,18114
4822.17,18214.1
4737.12,18299.1
4637.1,18365.9
4525.98,18412
4466.99,18423.7
4408,18435.4
4287.72,18435.4
4228.73,18423.7
4169.75,18412
4058.62,18365.9
3958.61,18299.1
3873.56,18214.1
3806.73,18114
3760.7,18002.9
3737.23,17884.9
3737.23,17764.7
3760.7,17646.7
3806.73,17535.6
3873.56,17435.5
3958.61,17350.5
4058.62,17283.7
4169.75,17237.6
4228.73,17225.9
4287.72,17214.2
4408,17214.2
Z" /> 
<path style="fill:#000000; fill-opacity:1.0; 
stroke:#000000; stroke-width:0; stroke-opacity:1; 
stroke-linecap:round; stroke-linejoin:round;fill-rule:evenodd;"
d="M 7400.31,16241.7
7474.78,16264.3
7543.42,16301
7603.58,16350.4
7652.95,16410.5
7670.18,16442.8
7689.63,16479.2
7689.63,16479.2
7712.22,16553.7
7717.94,16611.7
7717.94,16687.9
7712.22,16746
7689.63,16820.4
7652.95,16889.1
7603.58,16949.2
7543.42,16998.6
7511.18,17015.8
7474.79,17035.3
7474.78,17035.3
7400.31,17057.9
7322.86,17065.5
7245.41,17057.9
7170.94,17035.3
7102.31,16998.6
7042.15,16949.2
6992.78,16889.1
6975.55,16856.8
6956.09,16820.4
6956.09,16820.4
6933.5,16746
6927.78,16687.9
6927.78,16611.7
6933.5,16553.7
6956.09,16479.2
6992.78,16410.5
7042.15,16350.4
7102.31,16301
7170.94,16264.3
7245.41,16241.7
7322.86,16234.1
Z" /> 
<path style="fill:#000000; fill-opacity:1.0; 
stroke:#000000; stroke-width:0; stroke-opacity:1; 
stroke-linecap:round; stroke-linejoin:round;fill-rule:evenodd;"
d="M 8400.31,16241.7
8474.78,16264.3
8543.42,16301
8603.58,16350.4
8652.95,16410.5
8670.18,16442.8
8689.63,16479.2
8689.63,16479.2
8712.22,16553.7
8717.94,16611.7
8717.94,16687.9
8712.22,16746
8689.63,16820.4
8652.95,16889.1
8603.58,16949.2
8543.42,16998.6
8511.18,17015.8
8474.79,17035.3
8474.78,17035.3
8400.31,17057.9
8322.86,17065.5
8245.41,17057.9
8170.94,17035.3
8102.31,16998.6
8042.15,16949.2
7992.78,16889.1
7975.55,16856.8
7956.09,16820.4
7956.09,16820.4
7933.5,16746
7927.78,16687.9
7927.78,16611.7
7933.5,16553.7
7956.09,16479.2
7992.78,16410.5
8042.15,16350.4
8102.31,16301
8170.94,16264.3
8245.41,16241.7
8322.86,16234.1
Z" /> 
<path style="fill:#000000; fill-opacity:1.0; 
stroke:#000000; stroke-width:0; stroke-opacity:1; 
stroke-linecap:round; stroke-linejoin:round;fill-rule:evenodd;"
d="M 12850.3,16241.7
12924.8,16264.3
12993.4,16301
13053.6,16350.4
13102.9,16410.5
13120.2,16442.8
13139.6,16479.2
13139.6,16479.2
13162.2,16553.7
13167.9,16611.7
13167.9,16687.9
13162.2,16746
13139.6,16820.4
13102.9,16889.1
13053.6,16949.2
12993.4,16998.6
12961.2,17015.8
12924.8,17035.3
12924.8,17035.3
12850.3,17057.9
12772.9,17065.5
12695.4,17057.9
12620.9,17035.3
12552.3,16998.6
12492.1,16949.2
12442.8,16889.1
12425.5,16856.8
12406.1,16820.4
12406.1,16820.4
12383.5,16746
12377.8,16687.9
12377.8,16611.7
12383.5,16553.7
12406.1,16479.2
12442.8,16410.5
12492.1,16350.4
12552.3,16301
12620.9,16264.3
12695.4,16241.7
12772.9,16234.1
Z" /> 
<path style="fill:#000000; fill-opacity:1.0; 
stroke:#000000; stroke-width:0; stroke-opacity:1; 
stroke-linecap:round; stroke-linejoin:round;fill-rule:evenodd;"
d="M 11850.3,16241.7
11924.8,16264.3
11993.4,16301
12053.6,16350.4
12102.9,16410.5
12120.2,16442.8
12139.6,16479.2
12139.6,16479.2
12162.2,16553.7
12167.9,16611.7
12167.9,16687.9
12162.2,16746
12139.6,16820.4
12102.9,16889.1
12053.6,16949.2
11993.4,16998.6
11961.2,17015.8
11924.8,17035.3
11924.8,17035.3
11850.3,17057.9
11772.9,17065.5
11695.4,17057.9
11620.9,17035.3
11552.3,16998.6
11492.1,16949.2
11442.8,16889.1
11425.5,16856.8
11406.1,16820.4
11406.1,16820.4
11383.5,16746
11377.8,16687.9
11377.8,16611.7
11383.5,16553.7
11406.1,16479.2
11442.8,16410.5
11492.1,16350.4
11552.3,16301
11620.9,16264.3
11695.4,16241.7
11772.9,16234.1
Z" /> 
<path style="fill:#000000; fill-opacity:1.0; 
stroke:#000000; stroke-width:0; stroke-opacity:1; 
stroke-linecap:round; stroke-linejoin:round;fill-rule:evenodd;"
d="M 9717.94,17063.6
8927.78,17063.6
8927.78,16236
9717.94,16236
Z" /> 
<path style="fill:#000000; fill-opacity:1.0; 
stroke:#000000; stroke-width:0; stroke-opacity:1; 
stroke-linecap:round; stroke-linejoin:round;fill-rule:evenodd;"
d="M 14167.9,17063.6
13377.8,17063.6
13377.8,16236
14167.9,16236
Z" /> 
<path style="fill:#000000; fill-opacity:1.0; 
stroke:#000000; stroke-width:0; stroke-opacity:1; 
stroke-linecap:round; stroke-linejoin:round;fill-rule:evenodd;"
d="M 2276.01,15628
1369.71,15628
1369.71,14721.7
2276.01,14721.7
Z" /> 
<path style="fill:#000000; fill-opacity:1.0; 
stroke:#000000; stroke-width:0; stroke-opacity:1; 
stroke-linecap:round; stroke-linejoin:round;fill-rule:evenodd;"
d="M 5911.27,14730.4
5955.04,14739.1
6037.51,14773.2
6111.73,14822.8
6174.85,14885.9
6224.44,14960.2
6258.6,15042.6
6276.01,15130.2
6276.01,15219.4
6258.6,15307
6234.44,15365.3
6224.76,15388.7
6224.44,15389.4
6174.85,15463.7
6111.73,15526.8
6037.51,15576.4
5955.04,15610.5
5911.27,15619.2
5867.49,15628
5778.23,15628
5734.46,15619.2
5690.68,15610.5
5608.22,15576.4
5534,15526.8
5470.88,15463.7
5421.29,15389.4
5420.96,15388.7
5411.28,15365.3
5387.13,15307
5369.71,15219.4
5369.71,15130.2
5387.13,15042.6
5421.29,14960.2
5470.88,14885.9
5534,14822.8
5608.22,14773.2
5690.68,14739.1
5734.46,14730.4
5778.23,14721.7
5867.49,14721.7
Z" /> 
<path style="fill:#000000; fill-opacity:1.0; 
stroke:#000000; stroke-width:0; stroke-opacity:1; 
stroke-linecap:round; stroke-linejoin:round;fill-rule:evenodd;"
d="M 15336.3,14655.4
15380,14664.1
15462.5,14698.2
15536.7,14747.8
15599.8,14810.9
15649.4,14885.2
15649.4,14885.2
15649.8,14885.9
15683.6,14967.6
15701,15055.2
15701,15144.4
15683.6,15232
15649.4,15314.4
15599.8,15388.7
15536.7,15451.8
15462.5,15501.4
15380,15535.5
15336.3,15544.2
15292.5,15553
15203.2,15553
15159.5,15544.2
15115.7,15535.5
15033.2,15501.4
14959,15451.8
14895.9,15388.7
14846.3,15314.4
14812.1,15232
14794.7,15144.4
14794.7,15055.2
14812.1,14967.6
14846,14885.9
14846.3,14885.2
14846.3,14885.2
14895.9,14810.9
14959,14747.8
15033.2,14698.2
15115.7,14664.1
15159.5,14655.4
15203.2,14646.7
15292.5,14646.7
Z" /> 
<path style="fill:#000000; fill-opacity:1.0; 
stroke:#000000; stroke-width:0; stroke-opacity:1; 
stroke-linecap:round; stroke-linejoin:round;fill-rule:evenodd;"
d="M 19701,15553
18794.7,15553
18794.7,14646.7
19701,14646.7
Z" /> 
<path style="fill:#000000; fill-opacity:1.0; 
stroke:#000000; stroke-width:0; stroke-opacity:1; 
stroke-linecap:round; stroke-linejoin:round;fill-rule:evenodd;"
d="M 2383.19,12972.1
2444.16,12997.4
2499.04,13034
2545.7,13080.7
2582.37,13135.6
2607.63,13196.6
2620.5,13261.3
2620.5,13327.3
2607.63,13392
2582.37,13453
2545.7,13507.9
2499.04,13554.5
2444.16,13591.2
2383.19,13616.5
2318.46,13629.3
2252.46,13629.3
2187.73,13616.5
2126.76,13591.2
2071.89,13554.5
2025.22,13507.9
1988.55,13453
1963.3,13392
1950.42,13327.3
1950.42,13261.3
1963.3,13196.6
1988.55,13135.6
2025.22,13080.7
2071.89,13034
2126.76,12997.4
2187.73,12972.1
2252.46,12959.3
2318.46,12959.3
Z" /> 
<path style="fill:#000000; fill-opacity:1.0; 
stroke:#000000; stroke-width:0; stroke-opacity:1; 
stroke-linecap:round; stroke-linejoin:round;fill-rule:evenodd;"
d="M 8522.31,12800.1
8561.4,12807.9
8616.64,12830.8
8666.36,12864
8708.64,12906.3
8741.86,12956
8764.74,13011.3
8776.41,13069.9
8776.41,13129.7
8764.74,13188.3
8741.86,13243.6
8708.64,13293.3
8666.36,13335.6
8616.64,13368.8
8561.4,13391.7
8522.31,13399.5
8502.76,13403.3
8442.97,13403.3
8423.42,13399.5
8384.32,13391.7
8329.08,13368.8
8279.36,13335.6
8237.09,13293.3
8203.87,13243.6
8180.98,13188.3
8169.32,13129.7
8169.32,13069.9
8180.98,13011.3
8203.87,12956
8237.09,12906.3
8279.36,12864
8329.08,12830.8
8384.32,12807.9
8423.42,12800.1
8442.97,12796.3
8502.76,12796.3
Z" /> 
<path style="fill:#000000; fill-opacity:1.0; 
stroke:#000000; stroke-width:0; stroke-opacity:1; 
stroke-linecap:round; stroke-linejoin:round;fill-rule:evenodd;"
d="M 7522.31,12800.1
7561.4,12807.9
7616.64,12830.8
7666.36,12864
7708.64,12906.3
7741.86,12956
7764.74,13011.3
7776.41,13069.9
7776.41,13129.7
7764.74,13188.3
7741.86,13243.6
7708.64,13293.3
7666.36,13335.6
7616.64,13368.8
7561.4,13391.7
7522.31,13399.5
7502.76,13403.3
7442.97,13403.3
7423.42,13399.5
7384.32,13391.7
7329.08,13368.8
7279.36,13335.6
7237.09,13293.3
7203.87,13243.6
7180.98,13188.3
7169.32,13129.7
7169.32,13069.9
7180.98,13011.3
7203.87,12956
7237.09,12906.3
7279.36,12864
7329.08,12830.8
7384.32,12807.9
7423.42,12800.1
7442.97,12796.3
7502.76,12796.3
Z" /> 
<path style="fill:#000000; fill-opacity:1.0; 
stroke:#000000; stroke-width:0; stroke-opacity:1; 
stroke-linecap:round; stroke-linejoin:round;fill-rule:evenodd;"
d="M 6522.31,12800.1
6561.4,12807.9
6616.64,12830.8
6666.36,12864
6708.64,12906.3
6741.86,12956
6764.74,13011.3
6776.41,13069.9
6776.41,13129.7
6764.74,13188.3
6741.86,13243.6
6708.64,13293.3
6666.36,13335.6
6616.64,13368.8
6561.4,13391.7
6522.31,13399.5
6502.76,13403.3
6442.97,13403.3
6423.42,13399.5
6384.32,13391.7
6329.08,13368.8
6279.36,13335.6
6237.09,13293.3
6203.87,13243.6
6180.98,13188.3
6169.32,13129.7
6169.32,13069.9
6180.98,13011.3
6203.87,12956
6237.09,12906.3
6279.36,12864
6329.08,12830.8
6384.32,12807.9
6423.42,12800.1
6442.97,12796.3
6502.76,12796.3
Z" /> 
<path style="fill:#000000; fill-opacity:1.0; 
stroke:#000000; stroke-width:0; stroke-opacity:1; 
stroke-linecap:round; stroke-linejoin:round;fill-rule:evenodd;"
d="M 12147.3,12775.1
12186.4,12782.9
12241.6,12805.8
12291.4,12839
12333.6,12881.3
12366.9,12931
12389.7,12986.3
12389.7,12986.3
12399.2,13034
12401.4,13044.9
12401.4,13104.7
12389.7,13163.3
12366.9,13218.6
12333.6,13268.3
12291.4,13310.6
12241.6,13343.8
12186.4,13366.7
12147.3,13374.5
12127.8,13378.3
12068,13378.3
12048.4,13374.5
12009.3,13366.7
11954.1,13343.8
11904.4,13310.6
11862.1,13268.3
11828.9,13218.6
11806,13163.3
11794.3,13104.7
11794.3,13044.9
11796.5,13034
11806,12986.3
11806,12986.3
11828.9,12931
11862.1,12881.3
11904.4,12839
11954.1,12805.8
12009.3,12782.9
12048.4,12775.1
12068,12771.3
12127.8,12771.3
Z" /> 
<path style="fill:#000000; fill-opacity:1.0; 
stroke:#000000; stroke-width:0; stroke-opacity:1; 
stroke-linecap:round; stroke-linejoin:round;fill-rule:evenodd;"
d="M 13147.3,12775.1
13186.4,12782.9
13241.6,12805.8
13291.4,12839
13333.6,12881.3
13366.9,12931
13389.7,12986.3
13389.7,12986.3
13399.2,13034
13401.4,13044.9
13401.4,13104.7
13389.7,13163.3
13366.9,13218.6
13333.6,13268.3
13291.4,13310.6
13241.6,13343.8
13186.4,13366.7
13147.3,13374.5
13127.8,13378.3
13068,13378.3
13048.4,13374.5
13009.3,13366.7
12954.1,13343.8
12904.4,13310.6
12862.1,13268.3
12828.9,13218.6
12806,13163.3
12794.3,13104.7
12794.3,13044.9
12796.5,13034
12806,12986.3
12806,12986.3
12828.9,12931
12862.1,12881.3
12904.4,12839
12954.1,12805.8
13009.3,12782.9
13048.4,12775.1
13068,12771.3
13127.8,12771.3
Z" /> 
<path style="fill:#000000; fill-opacity:1.0; 
stroke:#000000; stroke-width:0; stroke-opacity:1; 
stroke-linecap:round; stroke-linejoin:round;fill-rule:evenodd;"
d="M 14147.3,12775.1
14186.4,12782.9
14241.6,12805.8
14291.4,12839
14333.6,12881.3
14366.9,12931
14389.7,12986.3
14389.7,12986.3
14399.2,13034
14401.4,13044.9
14401.4,13104.7
14389.7,13163.3
14366.9,13218.6
14333.6,13268.3
14291.4,13310.6
14241.6,13343.8
14186.4,13366.7
14147.3,13374.5
14127.8,13378.3
14068,13378.3
14048.4,13374.5
14009.3,13366.7
13954.1,13343.8
13904.4,13310.6
13862.1,13268.3
13828.9,13218.6
13806,13163.3
13794.3,13104.7
13794.3,13044.9
13796.5,13034
13806,12986.3
13806,12986.3
13828.9,12931
13862.1,12881.3
13904.4,12839
13954.1,12805.8
14009.3,12782.9
14048.4,12775.1
14068,12771.3
14127.8,12771.3
Z" /> 
<path style="fill:#000000; fill-opacity:1.0; 
stroke:#000000; stroke-width:0; stroke-opacity:1; 
stroke-linecap:round; stroke-linejoin:round;fill-rule:evenodd;"
d="M 4820.2,11043
4881.17,11068.2
4936.04,11104.9
4982.71,11151.6
5019.38,11206.5
5044.63,11267.4
5057.51,11332.2
5057.51,11398.2
5044.63,11462.9
5019.38,11523.9
4982.71,11578.7
4936.04,11625.4
4881.17,11662.1
4820.2,11687.3
4755.47,11700.2
4689.47,11700.2
4624.74,11687.3
4563.77,11662.1
4508.89,11625.4
4462.23,11578.7
4425.56,11523.9
4400.3,11462.9
4387.43,11398.2
4387.43,11332.2
4400.3,11267.4
4425.56,11206.5
4462.23,11151.6
4508.89,11104.9
4563.77,11068.2
4624.74,11043
4689.47,11030.1
4755.47,11030.1
Z" /> 
<path style="fill:#000000; fill-opacity:1.0; 
stroke:#000000; stroke-width:0; stroke-opacity:1; 
stroke-linecap:round; stroke-linejoin:round;fill-rule:evenodd;"
d="M 9198.15,10846.1
9259.12,10871.4
9314,10908.1
9360.66,10954.7
9397.33,11009.6
9422.59,11070.6
9435.46,11135.3
9435.46,11201.3
9422.59,11266
9397.33,11327
9360.66,11381.9
9314,11428.5
9259.12,11465.2
9198.15,11490.5
9133.42,11503.3
9067.42,11503.3
9002.69,11490.5
8941.72,11465.2
8886.85,11428.5
8840.18,11381.9
8803.51,11327
8778.26,11266
8765.38,11201.3
8765.38,11135.3
8778.26,11070.6
8803.51,11009.6
8840.18,10954.7
8886.85,10908.1
8941.72,10871.4
9002.69,10846.1
9067.42,10833.3
9133.42,10833.3
Z" /> 
<path style="fill:#000000; fill-opacity:1.0; 
stroke:#000000; stroke-width:0; stroke-opacity:1; 
stroke-linecap:round; stroke-linejoin:round;fill-rule:evenodd;"
d="M 12435.5,11503.3
11765.4,11503.3
11765.4,10833.3
12435.5,10833.3
Z" /> 
<path style="fill:#000000; fill-opacity:1.0; 
stroke:#000000; stroke-width:0; stroke-opacity:1; 
stroke-linecap:round; stroke-linejoin:round;fill-rule:evenodd;"
d="M 4820.2,10058.7
4881.17,10084
4936.04,10120.7
4982.71,10167.3
5019.38,10222.2
5044.63,10283.2
5057.51,10347.9
5057.51,10413.9
5044.63,10478.6
5019.38,10539.6
4982.71,10594.5
4936.04,10641.1
4881.17,10677.8
4820.2,10703.1
4755.47,10715.9
4689.47,10715.9
4624.74,10703.1
4563.77,10677.8
4508.89,10641.1
4462.23,10594.5
4425.56,10539.6
4400.3,10478.6
4387.43,10413.9
4387.43,10347.9
4400.3,10283.2
4425.56,10222.2
4462.23,10167.3
4508.89,10120.7
4563.77,10084
4624.74,10058.7
4689.47,10045.9
4755.47,10045.9
Z" /> 
<path style="fill:#000000; fill-opacity:1.0; 
stroke:#000000; stroke-width:0; stroke-opacity:1; 
stroke-linecap:round; stroke-linejoin:round;fill-rule:evenodd;"
d="M 2383.19,9972.13
2444.16,9997.38
2499.04,10034
2545.7,10080.7
2582.37,10135.6
2607.63,10196.6
2620.5,10261.3
2620.5,10327.3
2607.63,10392
2582.37,10453
2545.7,10507.9
2499.04,10554.5
2444.16,10591.2
2383.19,10616.5
2318.46,10629.3
2252.46,10629.3
2187.73,10616.5
2126.76,10591.2
2071.89,10554.5
2025.22,10507.9
1988.55,10453
1963.3,10392
1950.42,10327.3
1950.42,10261.3
1963.3,10196.6
1988.55,10135.6
2025.22,10080.7
2071.89,10034
2126.76,9997.38
2187.73,9972.13
2252.46,9959.25
2318.46,9959.25
Z" /> 
<path style="fill:#000000; fill-opacity:1.0; 
stroke:#000000; stroke-width:0; stroke-opacity:1; 
stroke-linecap:round; stroke-linejoin:round;fill-rule:evenodd;"
d="M 12198.1,9846.14
12259.1,9871.4
12314,9908.06
12360.7,9954.73
12397.3,10009.6
12422.6,10070.6
12435.5,10135.3
12435.5,10201.3
12422.6,10266
12397.3,10327
12360.7,10381.9
12314,10428.5
12259.1,10465.2
12198.1,10490.5
12133.4,10503.3
12067.4,10503.3
12002.7,10490.5
11941.7,10465.2
11886.8,10428.5
11840.2,10381.9
11803.5,10327
11778.3,10266
11765.4,10201.3
11765.4,10135.3
11778.3,10070.6
11803.5,10009.6
11840.2,9954.73
11886.8,9908.06
11941.7,9871.4
12002.7,9846.14
12067.4,9833.27
12133.4,9833.27
Z" /> 
<path style="fill:#000000; fill-opacity:1.0; 
stroke:#000000; stroke-width:0; stroke-opacity:1; 
stroke-linecap:round; stroke-linejoin:round;fill-rule:evenodd;"
d="M 9198.15,9846.14
9259.12,9871.4
9314,9908.06
9360.66,9954.73
9397.33,10009.6
9422.59,10070.6
9435.46,10135.3
9435.46,10201.3
9422.59,10266
9397.33,10327
9360.66,10381.9
9314,10428.5
9259.12,10465.2
9198.15,10490.5
9133.42,10503.3
9067.42,10503.3
9002.69,10490.5
8941.72,10465.2
8886.85,10428.5
8840.18,10381.9
8803.51,10327
8778.26,10266
8765.38,10201.3
8765.38,10135.3
8778.26,10070.6
8803.51,10009.6
8840.18,9954.73
8886.85,9908.06
8941.72,9871.4
9002.69,9846.14
9067.42,9833.27
9133.42,9833.27
Z" /> 
<path style="fill:#000000; fill-opacity:1.0; 
stroke:#000000; stroke-width:0; stroke-opacity:1; 
stroke-linecap:round; stroke-linejoin:round;fill-rule:evenodd;"
d="M 12198.1,8846.14
12259.1,8871.4
12314,8908.06
12360.7,8954.73
12397.3,9009.61
12422.6,9070.58
12435.5,9135.31
12435.5,9201.31
12422.6,9266.03
12397.3,9327.01
12360.7,9381.88
12314,9428.55
12259.1,9465.22
12198.1,9490.47
12133.4,9503.35
12067.4,9503.35
12002.7,9490.47
11941.7,9465.22
11886.8,9428.55
11840.2,9381.88
11803.5,9327.01
11778.3,9266.03
11765.4,9201.31
11765.4,9135.31
11778.3,9070.58
11803.5,9009.61
11840.2,8954.73
11886.8,8908.06
11941.7,8871.4
12002.7,8846.14
12067.4,8833.27
12133.4,8833.27
Z" /> 
<path style="fill:#000000; fill-opacity:1.0; 
stroke:#000000; stroke-width:0; stroke-opacity:1; 
stroke-linecap:round; stroke-linejoin:round;fill-rule:evenodd;"
d="M 9198.15,8846.14
9259.12,8871.4
9314,8908.06
9360.66,8954.73
9397.33,9009.61
9422.59,9070.58
9435.46,9135.31
9435.46,9201.31
9422.59,9266.03
9397.33,9327.01
9360.66,9381.88
9314,9428.55
9259.12,9465.22
9198.15,9490.47
9133.42,9503.35
9067.42,9503.35
9002.69,9490.47
8941.72,9465.22
8886.85,9428.55
8840.18,9381.88
8803.51,9327.01
8778.26,9266.03
8765.38,9201.31
8765.38,9135.31
8778.26,9070.58
8803.51,9009.61
8840.18,8954.73
8886.85,8908.06
8941.72,8871.4
9002.69,8846.14
9067.42,8833.27
9133.42,8833.27
Z" /> 
<path style="fill:#000000; fill-opacity:1.0; 
stroke:#000000; stroke-width:0; stroke-opacity:1; 
stroke-linecap:round; stroke-linejoin:round;fill-rule:evenodd;"
d="M 4796.57,8133.54
4857.55,8158.8
4912.42,8195.47
4959.09,8242.13
4995.76,8297.01
5021.01,8357.98
5033.89,8422.71
5033.89,8488.71
5021.01,8553.44
4995.76,8614.41
4959.09,8669.28
4912.42,8715.95
4857.55,8752.62
4796.57,8777.87
4731.85,8790.75
4665.85,8790.75
4601.12,8777.87
4540.15,8752.62
4485.27,8715.95
4438.6,8669.28
4401.94,8614.41
4376.68,8553.44
4363.81,8488.71
4363.81,8422.71
4376.68,8357.98
4401.94,8297.01
4438.6,8242.13
4485.27,8195.47
4540.15,8158.8
4601.12,8133.54
4665.85,8120.67
4731.85,8120.67
Z" /> 
<path style="fill:#000000; fill-opacity:1.0; 
stroke:#000000; stroke-width:0; stroke-opacity:1; 
stroke-linecap:round; stroke-linejoin:round;fill-rule:evenodd;"
d="M 6887.13,8125.67
6948.1,8150.93
7002.97,8187.59
7049.64,8234.26
7086.31,8289.13
7111.56,8350.11
7124.44,8414.84
7124.44,8480.83
7111.56,8545.56
7086.31,8606.54
7049.64,8661.41
7002.97,8708.08
6948.1,8744.74
6887.13,8770
6822.4,8782.87
6756.4,8782.87
6691.67,8770
6630.7,8744.74
6575.82,8708.08
6529.16,8661.41
6492.49,8606.54
6467.23,8545.56
6454.36,8480.83
6454.36,8414.84
6467.23,8350.11
6492.49,8289.13
6529.16,8234.26
6575.82,8187.59
6630.7,8150.93
6691.67,8125.67
6756.4,8112.8
6822.4,8112.8
Z" /> 
<path style="fill:#000000; fill-opacity:1.0; 
stroke:#000000; stroke-width:0; stroke-opacity:1; 
stroke-linecap:round; stroke-linejoin:round;fill-rule:evenodd;"
d="M 2434.37,8125.67
2495.34,8150.93
2550.22,8187.59
2596.88,8234.26
2633.55,8289.13
2658.81,8350.11
2671.68,8414.84
2671.68,8480.83
2658.81,8545.56
2633.55,8606.54
2596.88,8661.41
2550.22,8708.08
2495.34,8744.74
2434.37,8770
2369.64,8782.87
2303.64,8782.87
2238.91,8770
2177.94,8744.74
2123.07,8708.08
2076.4,8661.41
2039.73,8606.54
2014.48,8545.56
2001.6,8480.83
2001.6,8414.84
2014.48,8350.11
2039.73,8289.13
2076.4,8234.26
2123.07,8187.59
2177.94,8150.93
2238.91,8125.67
2303.64,8112.8
2369.64,8112.8
Z" /> 
<path style="fill:#000000; fill-opacity:1.0; 
stroke:#000000; stroke-width:0; stroke-opacity:1; 
stroke-linecap:round; stroke-linejoin:round;fill-rule:evenodd;"
d="M 12198.1,7846.14
12259.1,7871.4
12314,7908.06
12360.7,7954.73
12397.3,8009.61
12422.6,8070.58
12435.5,8135.31
12435.5,8201.31
12422.6,8266.03
12397.3,8327.01
12360.7,8381.88
12314,8428.55
12259.1,8465.22
12198.1,8490.47
12133.4,8503.35
12067.4,8503.35
12002.7,8490.47
11941.7,8465.22
11886.8,8428.55
11840.2,8381.88
11803.5,8327.01
11778.3,8266.03
11765.4,8201.31
11765.4,8135.31
11778.3,8070.58
11803.5,8009.61
11840.2,7954.73
11886.8,7908.06
11941.7,7871.4
12002.7,7846.14
12067.4,7833.27
12133.4,7833.27
Z" /> 
<path style="fill:#000000; fill-opacity:1.0; 
stroke:#000000; stroke-width:0; stroke-opacity:1; 
stroke-linecap:round; stroke-linejoin:round;fill-rule:evenodd;"
d="M 9198.15,7846.14
9259.12,7871.4
9314,7908.06
9360.66,7954.73
9397.33,8009.61
9422.59,8070.58
9435.46,8135.31
9435.46,8201.31
9422.59,8266.03
9397.33,8327.01
9360.66,8381.88
9314,8428.55
9259.12,8465.22
9198.15,8490.47
9133.42,8503.35
9067.42,8503.35
9002.69,8490.47
8941.72,8465.22
8886.85,8428.55
8840.18,8381.88
8803.51,8327.01
8778.26,8266.03
8765.38,8201.31
8765.38,8135.31
8778.26,8070.58
8803.51,8009.61
8840.18,7954.73
8886.85,7908.06
8941.72,7871.4
9002.69,7846.14
9067.42,7833.27
9133.42,7833.27
Z" /> 
<path style="fill:#000000; fill-opacity:1.0; 
stroke:#000000; stroke-width:0; stroke-opacity:1; 
stroke-linecap:round; stroke-linejoin:round;fill-rule:evenodd;"
d="M 12543.2,5184.49
12586.9,5193.2
12669.4,5227.36
12743.6,5276.95
12806.7,5340.07
12856.3,5414.29
12883.9,5480.83
12890.5,5496.76
12900.2,5545.56
12907.9,5584.31
12907.9,5673.57
12890.5,5761.12
12856.3,5843.58
12806.7,5917.8
12743.6,5980.92
12669.4,6030.51
12586.9,6064.67
12543.2,6073.38
12499.4,6082.09
12410.1,6082.09
12366.3,6073.38
12322.6,6064.67
12240.1,6030.51
12165.9,5980.92
12102.8,5917.8
12053.2,5843.58
12019,5761.12
12001.6,5673.57
12001.6,5584.31
12009.3,5545.56
12019,5496.76
12025.6,5480.83
12053.2,5414.29
12102.8,5340.07
12165.9,5276.95
12240.1,5227.36
12322.6,5193.2
12366.3,5184.49
12410.1,5175.79
12499.4,5175.79
Z" /> 
<path style="fill:#000000; fill-opacity:1.0; 
stroke:#000000; stroke-width:0; stroke-opacity:1; 
stroke-linecap:round; stroke-linejoin:round;fill-rule:evenodd;"
d="M 8907.9,6082.09
8001.6,6082.09
8001.6,5175.79
8907.9,5175.79
Z" /> 
<path style="fill:#000000; fill-opacity:1.0; 
stroke:#000000; stroke-width:0; stroke-opacity:1; 
stroke-linecap:round; stroke-linejoin:round;fill-rule:evenodd;"
d="M 4796.57,5133.54
4857.55,5158.8
4912.42,5195.47
4959.09,5242.13
4995.76,5297.01
5021.01,5357.98
5033.89,5422.71
5033.89,5488.71
5021.01,5553.44
4995.76,5614.41
4959.09,5669.28
4912.42,5715.95
4857.55,5752.62
4796.57,5777.87
4731.85,5790.75
4665.85,5790.75
4601.12,5777.87
4540.15,5752.62
4485.27,5715.95
4438.6,5669.28
4401.94,5614.41
4376.68,5553.44
4363.81,5488.71
4363.81,5422.71
4376.68,5357.98
4401.94,5297.01
4438.6,5242.13
4485.27,5195.47
4540.15,5158.8
4601.12,5133.54
4665.85,5120.67
4731.85,5120.67
Z" /> 
<path style="fill:#000000; fill-opacity:1.0; 
stroke:#000000; stroke-width:0; stroke-opacity:1; 
stroke-linecap:round; stroke-linejoin:round;fill-rule:evenodd;"
d="M 2434.37,5125.67
2495.34,5150.93
2550.22,5187.59
2596.88,5234.26
2633.55,5289.13
2658.81,5350.11
2671.68,5414.84
2671.68,5480.83
2658.81,5545.56
2633.55,5606.54
2596.88,5661.41
2550.22,5708.08
2495.34,5744.74
2434.37,5770
2369.64,5782.87
2303.64,5782.87
2238.91,5770
2177.94,5744.74
2123.07,5708.08
2076.4,5661.41
2039.73,5606.54
2014.48,5545.56
2001.6,5480.83
2001.6,5414.84
2014.48,5350.11
2039.73,5289.13
2076.4,5234.26
2123.07,5187.59
2177.94,5150.93
2238.91,5125.67
2303.64,5112.8
2369.64,5112.8
Z" /> 
<path style="fill:#000000; fill-opacity:1.0; 
stroke:#000000; stroke-width:0; stroke-opacity:1; 
stroke-linecap:round; stroke-linejoin:round;fill-rule:evenodd;"
d="M 6887.13,5125.67
6948.1,5150.93
7002.97,5187.59
7049.64,5234.26
7086.31,5289.13
7111.56,5350.11
7124.44,5414.84
7124.44,5480.83
7111.56,5545.56
7086.31,5606.54
7049.64,5661.41
7002.97,5708.08
6948.1,5744.74
6887.13,5770
6822.4,5782.87
6756.4,5782.87
6691.67,5770
6630.7,5744.74
6575.82,5708.08
6529.16,5661.41
6492.49,5606.54
6467.23,5545.56
6454.36,5480.83
6454.36,5414.84
6467.23,5350.11
6492.49,5289.13
6529.16,5234.26
6575.82,5187.59
6630.7,5150.93
6691.67,5125.67
6756.4,5112.8
6822.4,5112.8
Z" /> 
<path style="fill:#000000; fill-opacity:1.0; 
stroke:#000000; stroke-width:0; stroke-opacity:1; 
stroke-linecap:round; stroke-linejoin:round;fill-rule:evenodd;"
d="M 4490.6,1758.31
4589.56,1777.99
4700.69,1824.02
4800.7,1890.85
4885.75,1975.9
4952.58,2075.92
4998.61,2187.04
4998.61,2187.04
5018.16,2285.33
5022.08,2305.02
5022.08,2425.3
4998.61,2543.27
4952.58,2654.4
4885.75,2754.41
4800.7,2839.46
4700.69,2906.29
4589.56,2952.32
4570.55,2956.1
4471.59,2975.79
4351.3,2975.79
4252.34,2956.1
4233.33,2952.32
4122.2,2906.29
4022.19,2839.46
3937.14,2754.41
3870.31,2654.4
3824.28,2543.27
3800.82,2425.3
3800.82,2305.02
3804.73,2285.33
3824.28,2187.04
3824.28,2187.04
3870.31,2075.92
3937.14,1975.9
4022.19,1890.85
4122.2,1824.02
4233.33,1777.99
4332.29,1758.31
4351.3,1754.53
4471.59,1754.53
Z" /> 
<path style="fill:#000000; fill-opacity:1.0; 
stroke:#000000; stroke-width:0; stroke-opacity:1; 
stroke-linecap:round; stroke-linejoin:round;fill-rule:evenodd;"
d="M 3022.08,2975.79
1800.82,2975.79
1800.82,1754.53
3022.08,1754.53
Z" /> 
<path style="fill:#000000; fill-opacity:1.0; 
stroke:#000000; stroke-width:0; stroke-opacity:1; 
stroke-linecap:round; stroke-linejoin:round;fill-rule:evenodd;"
d="M 17392.2,2956.1
16170.9,2956.1
16170.9,1734.84
17392.2,1734.84
Z" /> 
<path style="fill:#000000; fill-opacity:1.0; 
stroke:#000000; stroke-width:0; stroke-opacity:1; 
stroke-linecap:round; stroke-linejoin:round;fill-rule:evenodd;"
d="M 18900.7,1746.58
18959.6,1758.31
19070.8,1804.34
19170.8,1871.16
19255.8,1956.22
19322.7,2056.23
19368.7,2167.36
19372.6,2187.04
19392.2,2285.33
19392.2,2405.61
19388.2,2425.3
19368.7,2523.59
19322.7,2634.71
19255.8,2734.73
19170.8,2819.78
19070.8,2886.61
18959.6,2932.64
18900.7,2944.37
18841.7,2956.1
18721.4,2956.1
18662.4,2944.37
18603.4,2932.64
18492.3,2886.61
18392.3,2819.78
18307.2,2734.73
18240.4,2634.71
18194.4,2523.59
18174.8,2425.3
18170.9,2405.61
18170.9,2285.33
18190.4,2187.04
18194.4,2167.36
18240.4,2056.23
18307.2,1956.22
18392.3,1871.16
18492.3,1804.34
18603.4,1758.31
18662.4,1746.58
18721.4,1734.84
18841.7,1734.84
Z" /> 
<path style="fill:#000000; fill-opacity:1.0; 
stroke:#000000; stroke-width:0; stroke-opacity:1; 
stroke-linecap:round; stroke-linejoin:round;fill-rule:evenodd;"
d="M 10124.4,2908.86
8903.18,2908.86
8903.18,1687.6
10124.4,1687.6
Z" /> 
<path style="fill:#000000; fill-opacity:1.0; 
stroke:#000000; stroke-width:0; stroke-opacity:1; 
stroke-linecap:round; stroke-linejoin:round;fill-rule:evenodd;"
d="M 11632.9,1699.33
11691.9,1711.06
11803,1757.09
11903.1,1823.92
11988.1,1908.97
12054.9,2008.99
12101,2120.11
12124.4,2238.09
12124.4,2358.37
12101,2476.34
12054.9,2587.47
11988.1,2687.48
11903.1,2772.54
11803,2839.36
11691.9,2885.39
11632.9,2897.13
11573.9,2908.86
11453.7,2908.86
11394.7,2897.13
11335.7,2885.39
11224.6,2839.36
11124.6,2772.54
11039.5,2687.48
10972.7,2587.47
10926.6,2476.34
10903.2,2358.37
10903.2,2238.09
10926.6,2120.11
10972.7,2008.99
11039.5,1908.97
11124.6,1823.92
11224.6,1757.09
11335.7,1711.06
11394.7,1699.33
11453.7,1687.6
11573.9,1687.6
Z" /> 
<g >
</g>
<g style="fill:#000000; fill-opacity:1.0; 
stroke:#000000; stroke-width:629.921; stroke-opacity:1; 
stroke-linecap:round; stroke-linejoin:round;">
</g>
<g style="fill:#000000; fill-opacity:0.0; 
stroke:#000000; stroke-width:629.921; stroke-opacity:1; 
stroke-linecap:round; stroke-linejoin:round;">
<path d="M9100 11168
L9100 11168
" />
<path d="M12100 8168
L12100 8168
" />
<path d="M9100 10168
L9100 10168
" />
<path d="M12100 9168
L12100 9168
" />
<path d="M9100 9168
L9100 9168
" />
<path d="M12100 10168
L12100 10168
" />
<path d="M9100 8168
L9100 8168
" />
</g>
<g style="fill:#000000; fill-opacity:0.0; 
stroke:#000000; stroke-width:0; stroke-opacity:1; 
stroke-linecap:round; stroke-linejoin:round;">
</g>
<g style="fill:#000000; fill-opacity:1.0; 
stroke:#000000; stroke-width:0; stroke-opacity:1; 
stroke-linecap:round; stroke-linejoin:round;">
<path style="fill:#000000; fill-opacity:1.0; 
stroke:#000000; stroke-width:0; stroke-opacity:1; 
stroke-linecap:round; stroke-linejoin:round;fill-rule:evenodd;"
d="M 12415.4,10853.3
12415.4,11483.3
11785.5,11483.3
11785.5,10853.3
Z" /> 
</g>
<g >
</g>
<g style="fill:#000000; fill-opacity:1.0; 
stroke:#000000; stroke-width:0; stroke-opacity:1; 
stroke-linecap:round; stroke-linejoin:round;">
<circle cx="4411.45" cy="2365.16" r="590.551" /> 
</g>
<g style="fill:#000000; fill-opacity:1.0; 
stroke:#000000; stroke-width:39.3701; stroke-opacity:1; 
stroke-linecap:round; stroke-linejoin:round;">
</g>
<g style="fill:#000000; fill-opacity:1.0; 
stroke:#000000; stroke-width:0; stroke-opacity:1; 
stroke-linecap:round; stroke-linejoin:round;">
<path style="fill:#000000; fill-opacity:1.0; 
stroke:#000000; stroke-width:0; stroke-opacity:1; 
stroke-linecap:round; stroke-linejoin:round;fill-rule:evenodd;"
d="M 1820.89,2955.71
1820.89,1774.61
3002,1774.61
3002,2955.71
Z" /> 
</g>
<g >
</g>
<g style="fill:#000000; fill-opacity:1.0; 
stroke:#000000; stroke-width:0; stroke-opacity:1; 
stroke-linecap:round; stroke-linejoin:round;">
<circle cx="4347.86" cy="17824.8" r="590.551" /> 
</g>
<g style="fill:#000000; fill-opacity:1.0; 
stroke:#000000; stroke-width:39.3701; stroke-opacity:1; 
stroke-linecap:round; stroke-linejoin:round;">
</g>
<g style="fill:#000000; fill-opacity:1.0; 
stroke:#000000; stroke-width:0; stroke-opacity:1; 
stroke-linecap:round; stroke-linejoin:round;">
<path style="fill:#000000; fill-opacity:1.0; 
stroke:#000000; stroke-width:0; stroke-opacity:1; 
stroke-linecap:round; stroke-linejoin:round;fill-rule:evenodd;"
d="M 1757.31,18415.4
1757.31,17234.3
2938.41,17234.3
2938.41,18415.4
Z" /> 
</g>
<g >
</g>
<g style="fill:#000000; fill-opacity:1.0; 
stroke:#000000; stroke-width:0; stroke-opacity:1; 
stroke-linecap:round; stroke-linejoin:round;">
</g>
<g style="fill:#000000; fill-opacity:1.0; 
stroke:#000000; stroke-width:629.921; stroke-opacity:1; 
stroke-linecap:round; stroke-linejoin:round;">
</g>
<g style="fill:#000000; fill-opacity:0.0; 
stroke:#000000; stroke-width:629.921; stroke-opacity:1; 
stroke-linecap:round; stroke-linejoin:round;">
<path d="M2285 13294
L2285 13294
" />
</g>
<g style="fill:#000000; fill-opacity:1.0; 
stroke:#000000; stroke-width:0; stroke-opacity:1; 
stroke-linecap:round; stroke-linejoin:round;">
<circle cx="2285.46" cy="10294.3" r="314.961" /> 
</g>
<g style="fill:#000000; fill-opacity:1.0; 
stroke:#000000; stroke-width:39.3701; stroke-opacity:1; 
stroke-linecap:round; stroke-linejoin:round;">
</g>
<g >
</g>
<g style="fill:#000000; fill-opacity:1.0; 
stroke:#000000; stroke-width:39.3701; stroke-opacity:1; 
stroke-linecap:round; stroke-linejoin:round;">
</g>
<g style="fill:#000000; fill-opacity:1.0; 
stroke:#000000; stroke-width:629.921; stroke-opacity:1; 
stroke-linecap:round; stroke-linejoin:round;">
</g>
<g style="fill:#000000; fill-opacity:0.0; 
stroke:#000000; stroke-width:629.921; stroke-opacity:1; 
stroke-linecap:round; stroke-linejoin:round;">
<path d="M6789 8447
L6789 8447
" />
</g>
<g style="fill:#000000; fill-opacity:1.0; 
stroke:#000000; stroke-width:0; stroke-opacity:1; 
stroke-linecap:round; stroke-linejoin:round;">
<circle cx="6789.4" cy="5447.83" r="314.961" /> 
</g>
<g style="fill:#000000; fill-opacity:1.0; 
stroke:#000000; stroke-width:39.3701; stroke-opacity:1; 
stroke-linecap:round; stroke-linejoin:round;">
</g>
<g >
</g>
<g style="fill:#000000; fill-opacity:1.0; 
stroke:#000000; stroke-width:39.3701; stroke-opacity:1; 
stroke-linecap:round; stroke-linejoin:round;">
</g>
<g style="fill:#000000; fill-opacity:1.0; 
stroke:#000000; stroke-width:629.921; stroke-opacity:1; 
stroke-linecap:round; stroke-linejoin:round;">
</g>
<g style="fill:#000000; fill-opacity:0.0; 
stroke:#000000; stroke-width:629.921; stroke-opacity:1; 
stroke-linecap:round; stroke-linejoin:round;">
<path d="M4698 5455
L4698 5455
" />
</g>
<g style="fill:#000000; fill-opacity:1.0; 
stroke:#000000; stroke-width:0; stroke-opacity:1; 
stroke-linecap:round; stroke-linejoin:round;">
<circle cx="4698.85" cy="8455.71" r="314.961" /> 
</g>
<g style="fill:#000000; fill-opacity:1.0; 
stroke:#000000; stroke-width:39.3701; stroke-opacity:1; 
stroke-linecap:round; stroke-linejoin:round;">
</g>
<g >
</g>
<g style="fill:#000000; fill-opacity:1.0; 
stroke:#000000; stroke-width:39.3701; stroke-opacity:1; 
stroke-linecap:round; stroke-linejoin:round;">
</g>
<g style="fill:#000000; fill-opacity:1.0; 
stroke:#000000; stroke-width:629.921; stroke-opacity:1; 
stroke-linecap:round; stroke-linejoin:round;">
</g>
<g style="fill:#000000; fill-opacity:0.0; 
stroke:#000000; stroke-width:629.921; stroke-opacity:1; 
stroke-linecap:round; stroke-linejoin:round;">
<path d="M2336 8447
L2336 8447
" />
</g>
<g style="fill:#000000; fill-opacity:1.0; 
stroke:#000000; stroke-width:0; stroke-opacity:1; 
stroke-linecap:round; stroke-linejoin:round;">
<circle cx="2336.64" cy="5447.83" r="314.961" /> 
</g>
<g style="fill:#000000; fill-opacity:1.0; 
stroke:#000000; stroke-width:39.3701; stroke-opacity:1; 
stroke-linecap:round; stroke-linejoin:round;">
</g>
<g >
</g>
<g style="fill:#000000; fill-opacity:1.0; 
stroke:#000000; stroke-width:39.3701; stroke-opacity:1; 
stroke-linecap:round; stroke-linejoin:round;">
</g>
<g style="fill:#000000; fill-opacity:1.0; 
stroke:#000000; stroke-width:0; stroke-opacity:1; 
stroke-linecap:round; stroke-linejoin:round;">
<circle cx="11513.8" cy="2298.23" r="590.551" /> 
</g>
<g style="fill:#000000; fill-opacity:1.0; 
stroke:#000000; stroke-width:39.3701; stroke-opacity:1; 
stroke-linecap:round; stroke-linejoin:round;">
</g>
<g style="fill:#000000; fill-opacity:1.0; 
stroke:#000000; stroke-width:0; stroke-opacity:1; 
stroke-linecap:round; stroke-linejoin:round;">
<path style="fill:#000000; fill-opacity:1.0; 
stroke:#000000; stroke-width:0; stroke-opacity:1; 
stroke-linecap:round; stroke-linejoin:round;fill-rule:evenodd;"
d="M 8923.26,2888.78
8923.26,1707.68
10104.4,1707.68
10104.4,2888.78
Z" /> 
</g>
<g >
</g>
<g style="fill:#000000; fill-opacity:1.0; 
stroke:#000000; stroke-width:0; stroke-opacity:1; 
stroke-linecap:round; stroke-linejoin:round;">
</g>
<g style="fill:#000000; fill-opacity:1.0; 
stroke:#000000; stroke-width:866.142; stroke-opacity:1; 
stroke-linecap:round; stroke-linejoin:round;">
</g>
<g style="fill:#000000; fill-opacity:0.0; 
stroke:#000000; stroke-width:866.142; stroke-opacity:1; 
stroke-linecap:round; stroke-linejoin:round;">
<path d="M5822 15174
L5822 15174
" />
</g>
<g style="fill:#000000; fill-opacity:0.0; 
stroke:#000000; stroke-width:0; stroke-opacity:1; 
stroke-linecap:round; stroke-linejoin:round;">
</g>
<g style="fill:#000000; fill-opacity:1.0; 
stroke:#000000; stroke-width:0; stroke-opacity:1; 
stroke-linecap:round; stroke-linejoin:round;">
<path style="fill:#000000; fill-opacity:1.0; 
stroke:#000000; stroke-width:0; stroke-opacity:1; 
stroke-linecap:round; stroke-linejoin:round;fill-rule:evenodd;"
d="M 1389.79,15607.9
1389.79,14741.7
2255.93,14741.7
2255.93,15607.9
Z" /> 
</g>
<g >
</g>
<g style="fill:#000000; fill-opacity:1.0; 
stroke:#000000; stroke-width:0; stroke-opacity:1; 
stroke-linecap:round; stroke-linejoin:round;">
</g>
<g style="fill:#000000; fill-opacity:1.0; 
stroke:#000000; stroke-width:866.142; stroke-opacity:1; 
stroke-linecap:round; stroke-linejoin:round;">
</g>
<g style="fill:#000000; fill-opacity:0.0; 
stroke:#000000; stroke-width:866.142; stroke-opacity:1; 
stroke-linecap:round; stroke-linejoin:round;">
<path d="M15247 15099
L15247 15099
" />
</g>
<g style="fill:#000000; fill-opacity:0.0; 
stroke:#000000; stroke-width:0; stroke-opacity:1; 
stroke-linecap:round; stroke-linejoin:round;">
</g>
<g style="fill:#000000; fill-opacity:1.0; 
stroke:#000000; stroke-width:0; stroke-opacity:1; 
stroke-linecap:round; stroke-linejoin:round;">
<path style="fill:#000000; fill-opacity:1.0; 
stroke:#000000; stroke-width:0; stroke-opacity:1; 
stroke-linecap:round; stroke-linejoin:round;fill-rule:evenodd;"
d="M 19680.9,14666.7
19680.9,15532.9
18814.8,15532.9
18814.8,14666.7
Z" /> 
</g>
<g >
</g>
<g style="fill:#000000; fill-opacity:1.0; 
stroke:#000000; stroke-width:0; stroke-opacity:1; 
stroke-linecap:round; stroke-linejoin:round;">
</g>
<g style="fill:#000000; fill-opacity:1.0; 
stroke:#000000; stroke-width:866.142; stroke-opacity:1; 
stroke-linecap:round; stroke-linejoin:round;">
</g>
<g style="fill:#000000; fill-opacity:0.0; 
stroke:#000000; stroke-width:866.142; stroke-opacity:1; 
stroke-linecap:round; stroke-linejoin:round;">
<path d="M12454 5628
L12454 5628
" />
</g>
<g style="fill:#000000; fill-opacity:0.0; 
stroke:#000000; stroke-width:0; stroke-opacity:1; 
stroke-linecap:round; stroke-linejoin:round;">
</g>
<g style="fill:#000000; fill-opacity:1.0; 
stroke:#000000; stroke-width:0; stroke-opacity:1; 
stroke-linecap:round; stroke-linejoin:round;">
<path style="fill:#000000; fill-opacity:1.0; 
stroke:#000000; stroke-width:0; stroke-opacity:1; 
stroke-linecap:round; stroke-linejoin:round;fill-rule:evenodd;"
d="M 8021.68,6062.01
8021.68,5195.87
8887.82,5195.87
8887.82,6062.01
Z" /> 
</g>
<g >
</g>
<g style="fill:#000000; fill-opacity:1.0; 
stroke:#000000; stroke-width:0; stroke-opacity:1; 
stroke-linecap:round; stroke-linejoin:round;">
<circle cx="4722.47" cy="10380.9" r="314.961" /> 
</g>
<g style="fill:#000000; fill-opacity:1.0; 
stroke:#000000; stroke-width:39.3701; stroke-opacity:1; 
stroke-linecap:round; stroke-linejoin:round;">
</g>
<g style="fill:#000000; fill-opacity:1.0; 
stroke:#000000; stroke-width:0; stroke-opacity:1; 
stroke-linecap:round; stroke-linejoin:round;">
<circle cx="4722.47" cy="11365.2" r="314.961" /> 
</g>
<g style="fill:#000000; fill-opacity:1.0; 
stroke:#000000; stroke-width:39.3701; stroke-opacity:1; 
stroke-linecap:round; stroke-linejoin:round;">
</g>
<g >
</g>
<g style="fill:#000000; fill-opacity:1.0; 
stroke:#000000; stroke-width:39.3701; stroke-opacity:1; 
stroke-linecap:round; stroke-linejoin:round;">
</g>
<g style="fill:#000000; fill-opacity:1.0; 
stroke:#000000; stroke-width:0; stroke-opacity:1; 
stroke-linecap:round; stroke-linejoin:round;">
<circle cx="18781.5" cy="2345.47" r="590.551" /> 
</g>
<g style="fill:#000000; fill-opacity:1.0; 
stroke:#000000; stroke-width:39.3701; stroke-opacity:1; 
stroke-linecap:round; stroke-linejoin:round;">
</g>
<g style="fill:#000000; fill-opacity:1.0; 
stroke:#000000; stroke-width:0; stroke-opacity:1; 
stroke-linecap:round; stroke-linejoin:round;">
<path style="fill:#000000; fill-opacity:1.0; 
stroke:#000000; stroke-width:0; stroke-opacity:1; 
stroke-linecap:round; stroke-linejoin:round;fill-rule:evenodd;"
d="M 16191,2936.02
16191,1754.92
17372.1,1754.92
17372.1,2936.02
Z" /> 
</g>
<g >
</g>
<g style="fill:#000000; fill-opacity:1.0; 
stroke:#000000; stroke-width:0; stroke-opacity:1; 
stroke-linecap:round; stroke-linejoin:round;">
<circle cx="18697.9" cy="17899.8" r="590.551" /> 
</g>
<g style="fill:#000000; fill-opacity:1.0; 
stroke:#000000; stroke-width:39.3701; stroke-opacity:1; 
stroke-linecap:round; stroke-linejoin:round;">
</g>
<g style="fill:#000000; fill-opacity:1.0; 
stroke:#000000; stroke-width:0; stroke-opacity:1; 
stroke-linecap:round; stroke-linejoin:round;">
<path style="fill:#000000; fill-opacity:1.0; 
stroke:#000000; stroke-width:0; stroke-opacity:1; 
stroke-linecap:round; stroke-linejoin:round;fill-rule:evenodd;"
d="M 16107.3,18490.4
16107.3,17309.3
17288.4,17309.3
17288.4,18490.4
Z" /> 
</g>
<g >
</g>
<g style="fill:#000000; fill-opacity:1.0; 
stroke:#000000; stroke-width:0; stroke-opacity:1; 
stroke-linecap:round; stroke-linejoin:round;">
<circle cx="12097.9" cy="13074.8" r="283.465" /> 
</g>
<g style="fill:#000000; fill-opacity:1.0; 
stroke:#000000; stroke-width:39.3701; stroke-opacity:1; 
stroke-linecap:round; stroke-linejoin:round;">
</g>
<g style="fill:#000000; fill-opacity:1.0; 
stroke:#000000; stroke-width:0; stroke-opacity:1; 
stroke-linecap:round; stroke-linejoin:round;">
<circle cx="13097.9" cy="13074.8" r="283.465" /> 
</g>
<g style="fill:#000000; fill-opacity:1.0; 
stroke:#000000; stroke-width:39.3701; stroke-opacity:1; 
stroke-linecap:round; stroke-linejoin:round;">
</g>
<g style="fill:#000000; fill-opacity:1.0; 
stroke:#000000; stroke-width:0; stroke-opacity:1; 
stroke-linecap:round; stroke-linejoin:round;">
<circle cx="14097.9" cy="13074.8" r="283.465" /> 
</g>
<g style="fill:#000000; fill-opacity:1.0; 
stroke:#000000; stroke-width:39.3701; stroke-opacity:1; 
stroke-linecap:round; stroke-linejoin:round;">
</g>
<g >
</g>
<g style="fill:#000000; fill-opacity:1.0; 
stroke:#000000; stroke-width:39.3701; stroke-opacity:1; 
stroke-linecap:round; stroke-linejoin:round;">
</g>
<g style="fill:#000000; fill-opacity:1.0; 
stroke:#000000; stroke-width:0; stroke-opacity:1; 
stroke-linecap:round; stroke-linejoin:round;">
<circle cx="8472.86" cy="13099.8" r="283.465" /> 
</g>
<g style="fill:#000000; fill-opacity:1.0; 
stroke:#000000; stroke-width:39.3701; stroke-opacity:1; 
stroke-linecap:round; stroke-linejoin:round;">
</g>
<g style="fill:#000000; fill-opacity:1.0; 
stroke:#000000; stroke-width:0; stroke-opacity:1; 
stroke-linecap:round; stroke-linejoin:round;">
<circle cx="7472.86" cy="13099.8" r="283.465" /> 
</g>
<g style="fill:#000000; fill-opacity:1.0; 
stroke:#000000; stroke-width:39.3701; stroke-opacity:1; 
stroke-linecap:round; stroke-linejoin:round;">
</g>
<g style="fill:#000000; fill-opacity:1.0; 
stroke:#000000; stroke-width:0; stroke-opacity:1; 
stroke-linecap:round; stroke-linejoin:round;">
<circle cx="6472.86" cy="13099.8" r="283.465" /> 
</g>
<g style="fill:#000000; fill-opacity:1.0; 
stroke:#000000; stroke-width:39.3701; stroke-opacity:1; 
stroke-linecap:round; stroke-linejoin:round;">
</g>
<g >
</g>
<g style="fill:#000000; fill-opacity:1.0; 
stroke:#000000; stroke-width:39.3701; stroke-opacity:1; 
stroke-linecap:round; stroke-linejoin:round;">
</g>
<g style="fill:#000000; fill-opacity:1.0; 
stroke:#000000; stroke-width:750; stroke-opacity:1; 
stroke-linecap:round; stroke-linejoin:round;">
</g>
<g style="fill:#000000; fill-opacity:0.0; 
stroke:#000000; stroke-width:750; stroke-opacity:1; 
stroke-linecap:round; stroke-linejoin:round;">
<path d="M11772 16668
L11772 16631
" />
<path d="M12772 16668
L12772 16631
" />
</g>
<g style="fill:#000000; fill-opacity:0.0; 
stroke:#000000; stroke-width:0; stroke-opacity:1; 
stroke-linecap:round; stroke-linejoin:round;">
</g>
<g style="fill:#000000; fill-opacity:1.0; 
stroke:#000000; stroke-width:0; stroke-opacity:1; 
stroke-linecap:round; stroke-linejoin:round;">
<path style="fill:#000000; fill-opacity:1.0; 
stroke:#000000; stroke-width:0; stroke-opacity:1; 
stroke-linecap:round; stroke-linejoin:round;fill-rule:evenodd;"
d="M 14147.9,16256.1
14147.9,17043.5
13397.9,17043.5
13397.9,16256.1
Z" /> 
</g>
<g >
</g>
<g style="fill:#000000; fill-opacity:1.0; 
stroke:#000000; stroke-width:0; stroke-opacity:1; 
stroke-linecap:round; stroke-linejoin:round;">
<path style="fill:#000000; fill-opacity:1.0; 
stroke:#000000; stroke-width:0; stroke-opacity:1; 
stroke-linecap:round; stroke-linejoin:round;fill-rule:evenodd;"
d="M 9697.86,16256.1
9697.86,17043.5
8947.86,17043.5
8947.86,16256.1
Z" /> 
</g>
<g style="fill:#000000; fill-opacity:1.0; 
stroke:#000000; stroke-width:750; stroke-opacity:1; 
stroke-linecap:round; stroke-linejoin:round;">
</g>
<g style="fill:#000000; fill-opacity:0.0; 
stroke:#000000; stroke-width:750; stroke-opacity:1; 
stroke-linecap:round; stroke-linejoin:round;">
<path d="M8322 16668
L8322 16631
" />
<path d="M7322 16668
L7322 16631
" />
</g>
<g >
</g>
<g style="fill:#000000; fill-opacity:0.0; 
stroke:#000000; stroke-width:750; stroke-opacity:1; 
stroke-linecap:round; stroke-linejoin:round;">
</g>
<g style="fill:#000000; fill-opacity:1.0; 
stroke:#000000; stroke-width:0; stroke-opacity:1; 
stroke-linecap:round; stroke-linejoin:round;">
<circle cx="13572.9" cy="5624.8" r="157.48" /> 
</g>
<g style="fill:#000000; fill-opacity:1.0; 
stroke:#000000; stroke-width:39.3701; stroke-opacity:1; 
stroke-linecap:round; stroke-linejoin:round;">
</g>
<g style="fill:#000000; fill-opacity:1.0; 
stroke:#000000; stroke-width:0; stroke-opacity:1; 
stroke-linecap:round; stroke-linejoin:round;">
<circle cx="13572.9" cy="2299.8" r="157.48" /> 
</g>
<g style="fill:#000000; fill-opacity:1.0; 
stroke:#000000; stroke-width:39.3701; stroke-opacity:1; 
stroke-linecap:round; stroke-linejoin:round;">
</g>
<g >
</g>
<g style="fill:#000000; fill-opacity:1.0; 
stroke:#000000; stroke-width:39.3701; stroke-opacity:1; 
stroke-linecap:round; stroke-linejoin:round;">
</g>
<g style="fill:#000000; fill-opacity:1.0; 
stroke:#000000; stroke-width:314.961; stroke-opacity:1; 
stroke-linecap:round; stroke-linejoin:round;">
</g>
<g style="fill:#000000; fill-opacity:0.0; 
stroke:#000000; stroke-width:314.961; stroke-opacity:1; 
stroke-linecap:round; stroke-linejoin:round;">
<path d="M15792 17899
L15222 17330
" />
<path d="M16697 17899
L15792 17899
" />
<path d="M15222 15737
L15222 17330
" />
<path d="M15247 15712
L15222 15737
" />
<path d="M15247 15099
L15247 15712
" />
<path d="M13314 17899
L15792 17899
" />
<path d="M12772 17358
L13314 17899
" />
<path d="M12772 16649
L12772 17358
" />
<path d="M1513 5447
L2336 5447
" />
<path d="M1159 5802
L1513 5447
" />
<path d="M1159 9613
L1159 5802
" />
<path d="M2285 10294
L1840 10294
" />
<path d="M1840 10294
L1159 9613
" />
<path d="M2336 2439
L2411 2365
" />
<path d="M9513 1392
L9513 2298
" />
<path d="M9513 1392
L9746 1160
" />
<path d="M16781 1439
L16781 2345
" />
<path d="M16501 1160
L16781 1439
" />
<path d="M9746 1160
L16501 1160
" />
<path d="M2347 17824
L2172 17824
" />
<path d="M1822 17474
L1822 15174
" />
<path d="M2172 17824
L1822 17474
" />
<path d="M1159 13763
L1159 9613
" />
<path d="M1822 14426
L1159 13763
" />
<path d="M1822 15174
L1822 14426
" />
<path d="M9100 11168
L6979 11168
" />
<path d="M3720 14426
L1822 14426
" />
<path d="M6979 11168
L3720 14426
" />
<path d="M9513 3203
L9513 2298
" />
<path d="M9482 3235
L9513 3203
" />
<path d="M9472 5349
L9482 3235
" />
<path d="M8454 5628
L9202 5628
" />
<path d="M9202 5628
L9472 5349
" />
<path d="M2336 5447
L2336 2439
" />
<path d="M2411 2365
L2411 1459
" />
<path d="M2734 1136
L9257 1136
" />
<path d="M2411 1459
L2734 1136
" />
<path d="M9257 1136
L9513 1392
" />
<path d="M18124 15099
L19247 15099
" />
<path d="M16781 2345
L16781 13756
" />
<path d="M16781 13756
L18124 15099
" />
<path d="M19247 17574
L19247 15099
" />
<path d="M18697 17899
L18922 17899
" />
<path d="M18922 17899
L19247 17574
" />
<path d="M4722 10380
L5423 10380
" />
<path d="M6789 9014
L6789 8447
" />
<path d="M5423 10380
L6789 9014
" />
<path d="M13067 5628
L13071 5624
" />
<path d="M12454 5628
L13067 5628
" />
<path d="M13071 5624
L13572 5624
" />
<path d="M13572 5624
L13572 5624
" />
<path d="M11515 2299
L11513 2298
" />
<path d="M13572 2299
L11515 2299
" />
<path d="M2793 13294
L4722 11365
" />
<path d="M2285 13294
L2793 13294
" />
<path d="M4722 11365
L5816 11365
" />
<path d="M8013 9168
L9100 9168
" />
<path d="M5816 11365
L8013 9168
" />
<path d="M9100 9168
L12100 9168
" />
<path d="M8322 17358
L8322 16649
" />
<path d="M7856 17824
L8322 17358
" />
<path d="M5822 15174
L5822 15787
" />
<path d="M5822 15787
L5822 17824
" />
<path d="M4347 17824
L5822 17824
" />
<path d="M5822 17824
L7856 17824
" />
<path d="M4690 8447
L4698 8455
" />
<path d="M2336 8447
L4690 8447
" />
<path d="M8785 7853
L8776 7853
" />
<path d="M9100 8168
L8785 7853
" />
<path d="M8776 7853
L8722 7799
" />
<path d="M5354 7799
L4698 8455
" />
<path d="M8722 7799
L5354 7799
" />
<path d="M6781 5455
L6789 5447
" />
<path d="M4698 5455
L6781 5455
" />
<path d="M6789 5941
L6789 5447
" />
<path d="M7322 6474
L6789 5941
" />
<path d="M10322 6474
L7322 6474
" />
<path d="M10747 6049
L10322 6474
" />
<path d="M11297 4449
L10747 4999
" />
<path d="M12545 10168
L14547 8199
" />
<path d="M12100 10168
L12545 10168
" />
<path d="M10747 4999
L10747 6049
" />
<path d="M14547 5299
L13697 4449
" />
<path d="M14547 8199
L14547 5299
" />
<path d="M13697 4449
L11297 4449
" />
<path d="M13097 13074
L14097 13074
" />
<path d="M7472 13099
L8472 13099
" />
<path d="M8472 13099
L8972 13099
" />
<path d="M9322 13449
L9322 16649
" />
<path d="M8972 13099
L9322 13449
" />
<path d="M12100 13072
L12097 13074
" />
<path d="M12100 11168
L12100 13072
" />
<path d="M6472 12698
L6721 12449
" />
<path d="M6472 13099
L6472 12698
" />
<path d="M6721 12449
L9522 12449
" />
<path d="M9522 12449
L9922 12049
" />
<path d="M9922 12049
L9922 10449
" />
<path d="M9641 10168
L9100 10168
" />
<path d="M9922 10449
L9641 10168
" />
<path d="M14097 16324
L13772 16649
" />
<path d="M14097 13074
L14097 16324
" />
</g>
<g >
</g>
<g style="fill:#000000; fill-opacity:0.0; 
stroke:#000000; stroke-width:314.961; stroke-opacity:1; 
stroke-linecap:round; stroke-linejoin:round;">
</g>
<g style="fill:#000000; fill-opacity:1.0; 
stroke:#000000; stroke-width:100; stroke-opacity:1; 
stroke-linecap:round; stroke-linejoin:round;">
<path style="fill:#000000; fill-opacity:1.0; 
stroke:#000000; stroke-width:100; stroke-opacity:1; 
stroke-linecap:round; stroke-linejoin:round;fill-rule:evenodd;"
d="M 20053.2,19810
887.823,19810
887.823,14068
1321.14,14501.3
1293.66,14509.6
1250.23,14532.9
1212.16,14564.1
1180.92,14602.2
1157.7,14645.6
1143.41,14692.7
1138.58,14741.7
1138.58,15607.9
1143.41,15656.9
1157.7,15704
1180.92,15747.4
1212.16,15785.5
1250.23,15816.7
1293.66,15840
1340.78,15854.3
1389.79,15859.1
1415.38,15859.1
1415.38,17454.8
1413.41,17474.8
1415.38,17494.8
1415.38,17494.8
1421.28,17554.7
1444.58,17631.5
1482.42,17702.3
1506.1,17731.1
1506.1,18415.4
1510.93,18464.4
1525.22,18511.5
1548.44,18554.9
1579.68,18593
1617.75,18624.2
1661.18,18647.4
1708.3,18661.7
1757.31,18666.6
2938.41,18666.6
2987.42,18661.7
3034.55,18647.4
3077.98,18624.2
3116.05,18593
3147.29,18554.9
3170.5,18511.5
3184.8,18464.4
3189.62,18415.4
3189.62,17234.3
3184.8,17185.2
3170.5,17138.1
3147.29,17094.7
3116.05,17056.6
3077.98,17025.4
3034.55,17002.2
2987.42,16987.9
2938.41,16983
2230.34,16983
2230.34,15859.1
2255.93,15859.1
2304.94,15854.3
2352.07,15840
2395.5,15816.7
2433.57,15785.5
2464.81,15747.4
2488.02,15704
2502.32,15656.9
2507.14,15607.9
2507.14,14834.3
3700.88,14834.3
3720.89,14836.2
3740.91,14834.3
3740.91,14834.3
3800.77,14828.4
3877.58,14805.1
3948.37,14767.2
4010.42,14716.3
4023.18,14700.7
6067.61,12656.3
6063.41,12698.9
6065.38,12718.9
6065.38,12752.9
6058.49,12759.7
6000.11,12847.1
5959.9,12944.2
5939.4,13047.3
5939.4,13152.3
5959.9,13255.4
6000.11,13352.5
6058.49,13439.9
6132.8,13514.2
6220.17,13572.6
6317.26,13612.8
6420.32,13633.3
6525.4,13633.3
6628.47,13612.8
6725.55,13572.6
6812.93,13514.2
6887.23,13439.9
6945.61,13352.5
6972.86,13286.7
7000.11,13352.5
7058.49,13439.9
7132.8,13514.2
7220.17,13572.6
7317.26,13612.8
7420.32,13633.3
7525.4,13633.3
7628.47,13612.8
7725.55,13572.6
7812.93,13514.2
7819.81,13507.3
8125.91,13507.3
8132.8,13514.2
8220.17,13572.6
8317.26,13612.8
8420.32,13633.3
8525.4,13633.3
8628.47,13612.8
8725.55,13572.6
8811.75,13515
8915.38,13618.6
8915.38,16008.1
8898.85,16009.7
8851.73,16024
8808.3,16047.2
8770.23,16078.5
8738.99,16116.5
8721.33,16149.6
8671.77,16108.9
8563.2,16050.9
8445.38,16015.1
8322.86,16003.1
8200.34,16015.1
8082.53,16050.9
7973.95,16108.9
7878.78,16187
7820.83,16257.6
7759.65,16184.7
7664.17,16108.1
7555.58,16051.5
7469.71,16023.6
7372.86,16070.8
7372.86,16599.8
7380.74,16599.8
7380.74,16699.8
7372.86,16699.8
7372.86,17228.8
7469.71,17276
7555.58,17248.1
7664.17,17191.5
7759.65,17114.9
7820.83,17042
7878.78,17112.6
7915.38,17142.6
7915.38,17189.7
7687.74,17417.3
6230.34,17417.3
6230.34,16797
6711.69,16797
6748.5,16913.8
6807.38,17021.1
6886.08,17114.9
6981.55,17191.5
7090.15,17248.1
7176.02,17276
7272.86,17228.8
7272.86,16699.8
6761.61,16699.8
6711.69,16797
6230.34,16797
6230.34,16502.6
6711.69,16502.6
6761.61,16599.8
7272.86,16599.8
7272.86,16070.8
7176.02,16023.6
7090.15,16051.5
6981.55,16108.1
6886.08,16184.7
6807.38,16278.5
6748.5,16385.8
6711.69,16502.6
6230.34,16502.6
6230.34,15724.1
6258.29,15705.4
6353.44,15610.2
6428.19,15498.4
6479.68,15374
6505.93,15242.1
6505.93,15107.5
6479.68,14975.6
6428.19,14851.2
6353.44,14739.4
6258.29,14644.2
6146.42,14569.5
6022.11,14518
5890.14,14491.7
5755.59,14491.7
5623.62,14518
5499.31,14569.5
5387.43,14644.2
5292.29,14739.4
5217.53,14851.2
5166.04,14975.6
5139.79,15107.5
5139.79,15242.1
5166.04,15374
5217.53,15498.4
5292.29,15610.2
5387.43,15705.4
5415.38,15724.1
5415.38,15767.2
5415.38,15767.2
5415.38,17417.3
5086.52,17417.3
5000.76,17289
4883.68,17171.9
4746.01,17079.9
4593.04,17016.6
4430.65,16984.3
4265.08,16984.3
4102.68,17016.6
3949.71,17079.9
3812.04,17171.9
3694.96,17289
3602.98,17426.7
3539.61,17579.6
3507.31,17742
3507.31,17907.6
3539.61,18070
3602.98,18223
3694.96,18360.6
3812.04,18477.7
3949.71,18569.7
4102.68,18633.1
4265.08,18665.4
4430.65,18665.4
4593.04,18633.1
4746.01,18569.7
4883.68,18477.7
5000.76,18360.6
5086.52,18232.3
5802.85,18232.3
5822.86,18234.3
5842.88,18232.3
7836.51,18232.3
7856.52,18234.3
7876.54,18232.3
7876.54,18232.3
7936.4,18226.4
8013.21,18203.1
8084,18165.2
8146.05,18114.3
8158.81,18098.8
8596.84,17660.7
8612.39,17648
8630.58,17625.8
8663.31,17585.9
8683.53,17548.1
8701.15,17515.2
8724.45,17438.3
8730.34,17378.5
8730.34,17378.5
8732.31,17358.5
8730.34,17338.5
8730.34,17166.9
8738.99,17183.1
8770.23,17221.1
8808.3,17252.4
8851.73,17275.6
8898.85,17289.9
8947.86,17294.7
9697.86,17294.7
9746.87,17289.9
9794,17275.6
9837.43,17252.4
9875.49,17221.1
9906.74,17183.1
9929.95,17139.6
9944.25,17092.5
9949.07,17043.5
9949.07,16797
11161.7,16797
11198.5,16913.8
11257.4,17021.1
11336.1,17114.9
11431.6,17191.5
11540.1,17248.1
11626,17276
11722.9,17228.8
11722.9,16699.8
11211.6,16699.8
11161.7,16797
9949.07,16797
9949.07,16502.6
11161.7,16502.6
11211.6,16599.8
11722.9,16599.8
11722.9,16070.8
11626,16023.6
11540.1,16051.5
11431.6,16108.1
11336.1,16184.7
11257.4,16278.5
11198.5,16385.8
11161.7,16502.6
9949.07,16502.6
9949.07,16256.1
9944.25,16207.1
9929.95,16160
9906.74,16116.5
9875.49,16078.5
9837.43,16047.2
9794,16024
9746.87,16009.7
9730.34,16008.1
9730.34,13469.8
9732.31,13449.8
9730.34,13429.8
9724.45,13369.9
9701.15,13293.1
9667.63,13230.4
9663.31,13222.3
9625.15,13175.8
9612.39,13160.3
9596.84,13147.5
9306.61,12857.3
9502.85,12857.3
9522.86,12859.3
9542.87,12857.3
9542.88,12857.3
9602.74,12851.4
9679.55,12828.1
9750.34,12790.2
9812.39,12739.3
9825.15,12723.8
10196.8,12352.1
10212.4,12339.3
10250.3,12293.1
10263.3,12277.3
10301.1,12206.5
10301.1,12206.5
10324.4,12129.7
10330.3,12069.8
10330.3,12069.8
10332.3,12049.8
10330.3,12029.8
10330.3,10469.8
10332.3,10449.8
10328.3,10408.7
10324.4,10369.9
10301.1,10293.1
10264.2,10224
10263.3,10222.3
10225.1,10175.8
10212.4,10160.3
10196.8,10147.5
9943.65,9894.33
9930.89,9878.78
9868.85,9827.86
9798.06,9790.02
9721.25,9766.72
9661.38,9760.83
9661.38,9760.83
9641.37,9758.86
9621.36,9760.83
9491.92,9760.83
9460.56,9729.47
9369.02,9668.31
9460.56,9607.14
9491.92,9575.79
11708.9,9575.79
11740.3,9607.14
11831.8,9668.31
11740.3,9729.47
11661.6,9808.17
11599.8,9900.7
11557.2,10003.5
11535.5,10112.7
11535.5,10224
11557.2,10333.1
11599.8,10435.9
11661.6,10528.4
11739.8,10606.6
11736.5,10607
11689.3,10621.3
11645.9,10644.5
11607.8,10675.7
11576.6,10713.8
11553.4,10757.2
11539.1,10804.3
11534.3,10853.3
11534.3,11483.3
11539.1,11532.3
11553.4,11579.4
11576.6,11622.8
11607.8,11660.9
11645.9,11692.1
11689.3,11715.4
11692.9,11716.5
11692.9,12725.3
11683.5,12734.7
11625.1,12822.1
11584.9,12919.2
11564.4,13022.3
11564.4,13127.3
11584.9,13230.4
11625.1,13327.5
11683.5,13414.9
11757.8,13489.2
11845.2,13547.6
11942.3,13587.8
12045.3,13608.3
12150.4,13608.3
12253.5,13587.8
12350.6,13547.6
12437.9,13489.2
12512.2,13414.9
12570.6,13327.5
12597.9,13261.7
12625.1,13327.5
12683.5,13414.9
12757.8,13489.2
12845.2,13547.6
12942.3,13587.8
13045.3,13608.3
13150.4,13608.3
13253.5,13587.8
13350.6,13547.6
13437.9,13489.2
13444.8,13482.3
13690.4,13482.3
13690.4,16004.9
13397.9,16004.9
13348.9,16009.7
13301.7,16024
13258.3,16047.2
13220.2,16078.5
13189,16116.5
13171.3,16149.6
13121.8,16108.9
13013.2,16050.9
12895.4,16015.1
12772.9,16003.1
12650.3,16015.1
12532.5,16050.9
12424,16108.9
12328.8,16187
12270.8,16257.6
12209.6,16184.7
12114.2,16108.1
12005.6,16051.5
11919.7,16023.6
11822.9,16070.8
11822.9,16599.8
11830.7,16599.8
11830.7,16699.8
11822.9,16699.8
11822.9,17228.8
11919.7,17276
12005.6,17248.1
12114.2,17191.5
12209.6,17114.9
12270.8,17042
12328.8,17112.6
12365.4,17142.6
12365.4,17338.5
12363.4,17358.5
12371.3,17438.3
12394.6,17515.2
12432.4,17585.9
12465.1,17625.8
12483.3,17648
12498.9,17660.7
13011.9,18173.8
13024.7,18189.3
13040.2,18202.1
13086.7,18240.2
13124.6,18260.5
13157.5,18278.1
13234.3,18301.4
13294.2,18307.3
13294.2,18307.3
13314.2,18309.3
13334.2,18307.3
15772.3,18307.3
15792.4,18309.3
15812.4,18307.3
15856.1,18307.3
15856.1,18490.4
15860.9,18539.4
15875.2,18586.5
15898.4,18629.9
15929.7,18668
15967.7,18699.2
16011.2,18722.4
16058.3,18736.7
16107.3,18741.6
17288.4,18741.6
17337.4,18736.7
17384.5,18722.4
17428,18699.2
17466,18668
17497.3,18629.9
17520.5,18586.5
17534.8,18539.4
17539.6,18490.4
17539.6,17309.3
17534.8,17260.2
17520.5,17213.1
17497.3,17169.7
17466,17131.6
17428,17100.4
17384.5,17077.2
17337.4,17062.9
17288.4,17058
16107.3,17058
16058.3,17062.9
16011.2,17077.2
15967.7,17100.4
15929.7,17131.6
15898.4,17169.7
15875.2,17213.1
15860.9,17260.2
15856.1,17309.3
15856.1,17387.3
15630.3,17161.5
15630.3,15855.1
15649.4,15792.1
15655.3,15732.3
15655.3,15732.3
15657.3,15712.3
15655.3,15692.2
15655.3,15649.1
15683.3,15630.4
15778.4,15535.2
15853.2,15423.4
15904.7,15299
15930.9,15167.1
15930.9,15032.5
15904.7,14900.6
15853.2,14776.2
15778.4,14664.4
15683.3,14569.2
15571.4,14494.5
15447.1,14443
15315.1,14416.7
15180.6,14416.7
15048.6,14443
14924.3,14494.5
14812.4,14569.2
14717.3,14664.4
14642.5,14776.2
14591,14900.6
14564.8,15032.5
14564.8,15167.1
14591,15299
14642.5,15423.4
14717.3,15535.2
14812.4,15630.4
14826.6,15639.8
14821.3,15657.4
14815.4,15717.2
14815.4,15717.2
14813.4,15737.3
14815.4,15757.3
14815.4,17310.3
14813.4,17330.3
14821.3,17410.2
14844.6,17487
14847.4,17492.3
13483,17492.3
13180.3,17189.7
13180.3,17166.9
13189,17183.1
13220.2,17221.1
13258.3,17252.4
13301.7,17275.6
13348.9,17289.9
13397.9,17294.7
14147.9,17294.7
14196.9,17289.9
14244,17275.6
14287.4,17252.4
14325.5,17221.1
14356.7,17183.1
14379.9,17139.6
14394.2,17092.5
14399.1,17043.5
14399.1,16600.1
14400.1,16598.8
14438.3,16552.3
14476.1,16481.5
14476.1,16481.5
14499.4,16404.7
14505.3,16344.8
14505.3,16344.8
14507.3,16324.8
14505.3,16304.8
14505.3,13421.8
14512.2,13414.9
14570.6,13327.5
14610.8,13230.4
14631.3,13127.3
14631.3,13022.3
14610.8,12919.2
14570.6,12822.1
14512.2,12734.7
14437.9,12660.4
14350.6,12602.1
14253.5,12561.8
14150.4,12541.3
14045.3,12541.3
13942.3,12561.8
13845.2,12602.1
13757.8,12660.4
13750.9,12667.3
13444.8,12667.3
13437.9,12660.4
13350.6,12602.1
13253.5,12561.8
13150.4,12541.3
13045.3,12541.3
12942.3,12561.8
12845.2,12602.1
12757.8,12660.4
12683.5,12734.7
12625.1,12822.1
12597.9,12887.9
12570.6,12822.1
12512.2,12734.7
12507.9,12730.4
12507.9,11716.5
12511.5,11715.4
12554.9,11692.1
12593,11660.9
12624.3,11622.8
12647.5,11579.4
12661.8,11532.3
12666.6,11483.3
12666.6,10853.3
12661.8,10804.3
12647.5,10757.2
12624.3,10713.8
12593,10675.7
12554.9,10644.5
12511.5,10621.3
12464.4,10607
12461.1,10606.6
12491.9,10575.8
12524.1,10575.8
12542.4,10577.7
12564.1,10575.8
12565.9,10575.8
12584.1,10574
12622.3,10570.6
12624,10570.1
12625.7,10569.9
12662.5,10558.7
12699.3,10547.9
12700.9,10547.1
12702.5,10546.6
12736.4,10528.5
12770.4,10510.7
12771.8,10509.6
12773.3,10508.8
12803,10484.4
12817.3,10472.9
12818.5,10471.7
12835.4,10457.8
12847,10443.6
14820.5,8503.18
14837.4,8489.33
14861.8,8459.64
14886.4,8430.15
14887.2,8428.62
14888.3,8427.28
14906.4,8393.41
14924.8,8359.68
14925.3,8358.02
14926.1,8356.49
14937.3,8319.71
14948.8,8283.07
14948.9,8281.35
14949.4,8279.68
14953.2,8241.43
14957.3,8203.26
14955.3,8181.51
14955.3,5319.81
14957.3,5299.8
14955.3,5279.79
14955.3,5279.79
14949.4,5219.92
14926.1,5143.11
14903,5099.73
14888.3,5072.32
14850.1,5025.82
14837.4,5010.28
14821.8,4997.52
14000.1,4175.83
13987.4,4160.28
13925.3,4109.36
13854.6,4071.52
13777.7,4048.22
13717.9,4042.32
13717.9,4042.32
13697.9,4040.35
13677.9,4042.32
11317.9,4042.32
11297.9,4040.35
11277.9,4042.32
11277.8,4042.32
11218,4048.22
11141.2,4071.52
11108.2,4089.13
11070.4,4109.36
11023.9,4147.52
11008.3,4160.28
10995.6,4175.82
10473.9,4697.52
10458.3,4710.28
10407.4,4772.32
10369.6,4843.11
10346.3,4919.92
10340.4,4979.79
10340.4,4979.79
10338.4,4999.8
10340.4,5019.81
10340.4,5881.02
10154.1,6067.32
9138.51,6067.32
9139.03,6062.01
9139.03,6036.42
9186.14,6036.42
9209.53,6038.33
9246.05,6034.13
9282.66,6030.52
9285.91,6029.54
9289.27,6029.15
9324.27,6017.9
9359.47,6007.22
9362.46,6005.62
9365.69,6004.59
9397.83,5986.72
9430.26,5969.38
9432.88,5967.23
9435.84,5965.59
9463.87,5941.8
9492.31,5918.46
9507.21,5900.31
9748.81,5650.61
9761.09,5640.62
9776.64,5621.84
9779.62,5618.76
9789.42,5606.41
9812.29,5578.8
9814.34,5575.01
9817.01,5571.64
9833.4,5539.73
9850.44,5508.18
9851.71,5504.07
9853.68,5500.24
9863.52,5465.75
9874.09,5431.48
9874.53,5427.19
9875.71,5423.05
9878.63,5387.31
9880.25,5371.64
9880.27,5367.36
9882.26,5343.05
9880.45,5327.33
9889.21,3365.82
9892.09,3360.43
9915.39,3283.62
9921.29,3223.76
9921.29,3223.75
9923.26,3203.74
9921.29,3183.73
9921.29,3139.99
10104.4,3139.99
10153.4,3135.16
10200.5,3120.87
10243.9,3097.65
10282,3066.41
10313.2,3028.34
10336.4,2984.91
10350.7,2937.79
10355.6,2888.78
10355.6,2885.49
10997.3,2885.49
11058.7,3009.73
11206.2,3084.85
11365.6,3129.74
11530.7,3142.68
11695.1,3123.16
11852.5,3071.95
11968.9,3009.73
12030.4,2885.49
11513.8,2368.94
10997.3,2885.49
10355.6,2885.49
10355.6,2315.09
10669.4,2315.09
10688.9,2479.51
10740.1,2636.96
10802.3,2753.36
10926.5,2814.78
11443.1,2298.23
11584.5,2298.23
12101.1,2814.78
12225.3,2753.36
12300.4,2605.81
12345.3,2446.44
12358.3,2281.37
12338.7,2116.95
12287.5,1959.49
12225.3,1843.1
12101.1,1781.67
11584.5,2298.23
11443.1,2298.23
10926.5,1781.67
10802.3,1843.1
10727.2,1990.65
10682.3,2150.02
10669.4,2315.09
10355.6,2315.09
10355.6,1707.68
10350.7,1658.67
10336.4,1611.54
10313.2,1568.11
10313.1,1567.91
11093.9,1567.91
11058.7,1586.73
10997.3,1710.96
11513.8,2227.52
12030.4,1710.96
11968.9,1586.73
11932,1567.91
16024.8,1567.91
16013.3,1577.29
15982.1,1615.36
15958.9,1658.79
15944.6,1705.91
15939.8,1754.92
15939.8,2936.02
15944.6,2985.03
15958.9,3032.16
15982.1,3075.59
16013.3,3113.66
16051.4,3144.9
16094.8,3168.11
16142,3182.41
16191,3187.23
16374,3187.23
16374,13736.5
16372.1,13756.5
16379.9,13836.4
16403.2,13913.2
16441.1,13984
16479.2,14030.5
16492,14046
16507.5,14058.8
17822.5,15373.8
17835.3,15389.3
17850.9,15402.1
17897.4,15440.2
17935.2,15460.5
17968.1,15478.1
18045,15501.4
18104.8,15507.3
18104.8,15507.3
18124.8,15509.3
18144.8,15507.3
18563.6,15507.3
18563.6,15532.9
18568.4,15581.9
18582.7,15629
18605.9,15672.4
18637.2,15710.5
18675.2,15741.7
18718.7,15765
18765.8,15779.3
18814.8,15784.1
18840.4,15784.1
18840.4,17071.1
18780.6,17059.3
18615.1,17059.3
18452.7,17091.6
18299.7,17154.9
18162,17246.9
18045,17364
17953,17501.7
17889.6,17654.6
17857.3,17817
17857.3,17982.6
17889.6,18145
17953,18298
18045,18435.6
18162,18552.7
18299.7,18644.7
18452.7,18708.1
18615.1,18740.4
18780.6,18740.4
18943,18708.1
19096,18644.7
19233.7,18552.7
19350.8,18435.6
19442.7,18298
19506.1,18145
19538.4,17982.6
19538.4,17863.1
19569.8,17824.8
19588.3,17802.3
19610.9,17760
19626.1,17731.5
19649.4,17654.7
19655.3,17594.8
19655.3,17594.8
19657.3,17574.8
19655.3,17554.8
19655.3,15784.1
19680.9,15784.1
19729.9,15779.3
19777.1,15765
19820.5,15741.7
19858.6,15710.5
19889.8,15672.4
19913,15629
19927.3,15581.9
19932.1,15532.9
19932.1,14666.7
19927.3,14617.7
19913,14570.6
19889.8,14527.2
19858.6,14489.1
19820.5,14457.9
19777.1,14434.6
19729.9,14420.3
19680.9,14415.5
18814.8,14415.5
18765.8,14420.3
18718.7,14434.6
18675.2,14457.9
18637.2,14489.1
18605.9,14527.2
18582.7,14570.6
18568.4,14617.7
18563.6,14666.7
18563.6,14692.3
18293.6,14692.3
17189,13587.7
17189,3187.23
17372.1,3187.23
17421.1,3182.41
17468.2,3168.11
17511.6,3144.9
17549.7,3113.66
17580.9,3075.59
17604.2,3032.16
17618.5,2985.03
17623.3,2936.02
17623.3,2932.74
18265,2932.74
18326.4,3056.97
18473.9,3132.09
18633.3,3176.99
18798.4,3189.92
18962.8,3170.41
19120.3,3119.19
19236.7,3056.97
19298.1,2932.74
18781.5,2416.18
18265,2932.74
17623.3,2932.74
17623.3,2362.33
17937.1,2362.33
17956.6,2526.75
18007.8,2684.21
18070,2800.61
18194.3,2862.03
18710.8,2345.47
18852.2,2345.47
19368.8,2862.03
19493,2800.61
19568.1,2653.05
19613,2493.68
19626,2328.61
19606.5,2164.19
19555.2,2006.74
19493,1890.34
19368.8,1828.92
18852.2,2345.47
18710.8,2345.47
18194.3,1828.92
18070,1890.34
17994.9,2037.89
17950,2197.26
17937.1,2362.33
17623.3,2362.33
17623.3,1758.21
18265,1758.21
18781.5,2274.76
19298.1,1758.21
19236.7,1633.97
19089.1,1558.85
18929.7,1513.96
18764.7,1501.02
18600.2,1520.54
18442.8,1571.75
18326.4,1633.97
18265,1758.21
17623.3,1758.21
17623.3,1754.92
17618.5,1705.91
17604.2,1658.79
17580.9,1615.36
17549.7,1577.29
17511.6,1546.05
17468.2,1522.83
17421.1,1508.54
17372.1,1503.71
17189,1503.71
17189,1459.97
17191,1439.96
17189,1419.95
17183.1,1360.08
17159.8,1283.27
17136.8,1240.31
17122,1212.48
17083.8,1165.98
17071,1150.43
17055.5,1137.68
16804.3,886.456
16791.5,870.907
16729.5,819.987
16658.7,782.149
16581.9,758.849
16522,752.953
16522,752.953
16502,750.982
16482,752.953
9766.1,752.953
9746.09,750.982
9726.08,752.953
9726.08,752.953
9666.21,758.849
9589.4,782.149
9556.45,799.762
9518.61,819.987
9516.39,821.811
9485.38,796.365
9414.59,758.527
9337.78,735.227
9277.92,729.331
9277.91,729.331
9257.9,727.36
9237.89,729.331
2754.29,729.331
2734.28,727.36
2714.27,729.331
2714.26,729.331
2654.4,735.227
2577.59,758.527
2576.99,758.849
2506.8,796.365
2460.3,834.526
2444.75,847.285
2432,862.831
2137.47,1157.36
2121.92,1170.12
2109.16,1185.67
2109.16,1185.67
2071,1232.17
2033.16,1302.96
2009.86,1379.77
2001.99,1459.65
2003.97,1479.66
2003.97,1523.4
1820.89,1523.4
1771.89,1528.22
1724.76,1542.52
1681.33,1565.73
1643.26,1596.97
1612.02,1635.04
1588.81,1678.47
1574.51,1725.6
1569.68,1774.61
1569.68,2955.71
1574.51,3004.72
1588.81,3051.84
1612.02,3095.27
1643.26,3133.34
1681.33,3164.58
1724.76,3187.8
1771.89,3202.09
1820.89,3206.92
1929.16,3206.92
1929.16,5040.35
1533.82,5040.35
1513.81,5038.38
1493.8,5040.35
1493.79,5040.35
1433.93,5046.25
1357.12,5069.55
1324.17,5087.16
1286.33,5107.39
1239.83,5145.55
1224.28,5158.31
1211.52,5173.86
887.823,5497.56
887.823,644.685
20053.2,644.685
Z" /> 
<path style="fill:#000000; fill-opacity:1.0; 
stroke:#000000; stroke-width:100; stroke-opacity:1; 
stroke-linecap:round; stroke-linejoin:round;fill-rule:evenodd;"
d="M 4072.71,1591.44
3956.31,1653.66
3894.89,1777.89
4411.45,2294.45
4928,1777.89
4866.58,1653.66
4719.03,1578.54
4597.45,1544.29
8733.93,1544.29
8714.38,1568.11
8691.17,1611.54
8676.87,1658.67
8672.05,1707.68
8672.05,2888.78
8676.87,2937.79
8691.17,2984.91
8714.38,3028.34
8745.62,3066.41
8783.69,3097.65
8827.12,3120.87
8874.25,3135.16
8923.26,3139.99
9085.27,3139.99
9081.09,3153.56
9080.99,3154.48
9080.73,3155.36
9076.89,3194.34
9074.92,3213.4
9074.92,3214.32
9072.86,3235.24
9074.74,3254.34
9066.85,5019.94
9065.46,5018.23
9027.39,4986.99
8983.96,4963.78
8936.83,4949.48
8887.82,4944.66
8021.68,4944.66
7972.67,4949.48
7925.55,4963.78
7882.12,4986.99
7844.05,5018.23
7812.81,5056.3
7789.59,5099.73
7775.3,5146.86
7770.47,5195.87
7770.47,6062.01
7771,6067.32
7491.65,6067.32
7229.86,5805.54
7290.06,5715.44
7332.65,5612.63
7354.36,5503.48
7354.36,5392.19
7332.65,5283.04
7290.06,5180.23
7228.23,5087.69
7149.54,5009
7057.01,4947.17
6954.19,4904.59
6845.04,4882.87
6733.75,4882.87
6624.61,4904.59
6521.79,4947.17
6429.26,5009
6390.03,5048.23
5090.34,5048.23
5058.99,5016.88
4966.46,4955.05
4863.64,4912.46
4754.49,4890.75
4643.2,4890.75
4534.05,4912.46
4431.24,4955.05
4338.71,5016.88
4260.01,5095.57
4198.19,5188.1
4155.6,5290.92
4133.89,5400.06
4133.89,5511.35
4155.6,5620.5
4198.19,5723.32
4260.01,5815.85
4338.71,5894.54
4431.24,5956.37
4534.05,5998.96
4643.2,6020.67
4754.49,6020.67
4863.64,5998.96
4966.46,5956.37
5058.99,5894.54
5090.34,5863.19
6381.92,5863.19
6381.92,5921.33
6379.95,5941.34
6381.92,5961.35
6381.92,5961.35
6387.81,6021.22
6411.11,6098.03
6448.95,6168.82
6499.87,6230.86
6515.42,6243.62
7020.58,6748.78
7033.34,6764.33
7048.88,6777.09
7095.38,6815.25
7133.22,6835.47
7166.17,6853.09
7242.98,6876.39
7302.85,6882.28
7302.85,6882.28
7322.86,6884.25
7342.87,6882.28
10302.9,6882.28
10322.9,6884.25
10342.9,6882.28
10342.9,6882.28
10402.7,6876.39
10479.6,6853.09
10550.3,6815.25
10612.4,6764.33
10625.1,6748.78
11021.8,6352.09
11037.4,6339.33
11062.8,6308.39
11088.3,6277.28
11126.1,6206.49
11133.1,6183.66
11149.4,6129.68
11155.3,6069.82
11155.3,6069.82
11157.3,6049.8
11155.3,6029.79
11155.3,5784.89
11789.7,5784.89
11815.2,5868.74
11874.2,5988.91
11955.6,6095.25
12056.2,6183.66
12172.1,6250.76
12298.8,6293.97
12404.8,6247.68
12404.8,5678.94
12504.8,5678.94
12504.8,6247.68
12610.7,6293.97
12737.5,6250.76
12853.3,6183.66
12953.9,6095.25
13035.3,5988.91
13094.3,5868.74
13119.8,5784.89
13073.3,5678.94
12504.8,5678.94
12404.8,5678.94
11836.2,5678.94
11789.7,5784.89
11155.3,5784.89
11155.3,5472.98
11789.7,5472.98
11836.2,5578.94
12404.8,5578.94
12404.8,5010.2
12504.8,5010.2
12504.8,5578.94
13073.3,5578.94
13119.8,5472.98
13094.3,5389.14
13035.3,5268.96
12953.9,5162.63
12853.3,5074.21
12737.5,5007.11
12610.7,4963.91
12504.8,5010.2
12404.8,5010.2
12298.8,4963.91
12172.1,5007.11
12056.2,5074.21
11955.6,5162.63
11874.2,5268.96
11815.2,5389.14
11789.7,5472.98
11155.3,5472.98
11155.3,5168.59
11466.6,4857.28
13529.1,4857.28
14140.4,5468.59
14140.4,8029
12431,9709.74
12369,9668.31
12460.6,9607.14
12539.3,9528.45
12601.1,9435.92
12643.7,9333.1
12665.4,9223.95
12665.4,9112.66
12643.7,9003.51
12601.1,8900.7
12539.3,8808.17
12460.6,8729.47
12368,8667.65
12363.9,8665.92
12437.1,8622
12519.1,8547.6
12585.1,8458.63
12632.4,8358.5
12648.4,8305.72
12600.4,8218.31
12150.4,8218.31
12150.4,8226.18
12050.4,8226.18
12050.4,8218.31
11600.5,8218.31
11552.4,8305.72
11568.4,8358.5
11615.8,8458.63
11681.7,8547.6
11763.8,8622
11837,8665.92
11832.8,8667.65
11740.3,8729.47
11708.9,8760.83
9491.92,8760.83
9460.56,8729.47
9369.02,8668.31
9460.56,8607.14
9539.26,8528.45
9601.08,8435.92
9643.67,8333.1
9665.38,8223.95
9665.38,8112.66
9649.12,8030.89
11552.4,8030.89
11600.5,8118.31
12050.4,8118.31
12050.4,7668.06
12150.4,7668.06
12150.4,8118.31
12600.4,8118.31
12648.4,8030.89
12632.4,7978.12
12585.1,7877.98
12519.1,7789.01
12437.1,7714.61
12342.1,7657.65
12237.8,7620.31
12150.4,7668.06
12050.4,7668.06
11963,7620.31
11858.7,7657.65
11763.8,7714.61
11681.7,7789.01
11615.8,7877.98
11568.4,7978.12
11552.4,8030.89
9649.12,8030.89
9643.67,8003.51
9601.08,7900.7
9539.26,7808.17
9460.56,7729.47
9368.03,7667.65
9265.21,7625.06
9156.07,7603.35
9111.72,7603.35
9087.75,7579.37
9074.99,7563.82
9017.84,7516.92
9012.39,7510.28
8950.34,7459.36
8879.55,7421.52
8802.74,7398.22
8742.88,7392.32
8742.87,7392.32
8722.86,7390.35
8702.85,7392.32
5374.77,7392.32
5354.75,7390.35
5334.74,7392.32
5334.74,7392.32
5274.87,7398.22
5198.06,7421.52
5165.11,7439.13
5127.27,7459.36
5080.77,7497.52
5065.23,7510.28
5052.47,7525.82
4687.54,7890.75
4643.2,7890.75
4534.05,7912.46
4431.24,7955.05
4338.71,8016.88
4315.23,8040.35
2728.14,8040.35
2696.78,8009
2604.25,7947.17
2501.44,7904.59
2392.29,7882.87
2281,7882.87
2171.85,7904.59
2069.03,7947.17
1976.5,8009
1897.81,8087.69
1835.98,8180.23
1793.39,8283.04
1771.68,8392.19
1771.68,8503.48
1793.39,8612.63
1835.98,8715.44
1897.81,8807.98
1976.5,8886.67
2069.03,8948.5
2171.85,8991.08
2281,9012.8
2392.29,9012.8
2501.44,8991.08
2604.25,8948.5
2696.78,8886.67
2728.14,8855.31
4299.48,8855.31
4338.71,8894.54
4431.24,8956.37
4534.05,8998.96
4643.2,9020.67
4754.49,9020.67
4863.64,8998.96
4966.46,8956.37
5058.99,8894.54
5137.68,8815.85
5199.51,8723.32
5242.1,8620.5
5249.11,8585.25
6241.4,8585.25
6278.74,8689.52
6335.7,8784.5
6410.1,8866.54
6499.08,8932.49
6599.21,8979.82
6651.98,8995.83
6739.4,8947.8
6739.4,8497.83
6839.4,8497.83
6839.4,8947.8
6926.81,8995.83
6979.59,8979.82
7079.72,8932.49
7168.69,8866.54
7243.09,8784.5
7300.06,8689.52
7337.39,8585.25
7289.64,8497.83
6839.4,8497.83
6739.4,8497.83
6289.15,8497.83
6241.4,8585.25
5249.11,8585.25
5263.81,8511.35
5263.81,8467.01
5523.54,8207.28
6278.33,8207.28
6241.4,8310.42
6289.15,8397.83
6739.4,8397.83
6739.4,8389.96
6839.4,8389.96
6839.4,8397.83
7289.64,8397.83
7337.39,8310.42
7300.46,8207.28
8535.46,8207.28
8535.46,8223.95
8557.17,8333.1
8599.76,8435.92
8661.59,8528.45
8740.28,8607.14
8831.82,8668.31
8740.28,8729.47
8708.93,8760.83
8033.82,8760.83
8013.81,8758.86
7993.79,8760.83
7993.79,8760.83
7933.93,8766.72
7857.12,8790.02
7824.17,8807.64
7786.33,8827.86
7750.47,8857.29
7724.28,8878.78
7711.52,8894.33
5648.17,10957.7
5113.96,10957.7
5082.61,10926.3
5003.62,10873.5
5014.4,10867.8
5042.59,10771.7
4722.47,10451.6
4402.35,10771.7
4430.53,10867.8
4441.89,10873.2
4362.33,10926.3
4283.64,11005
4221.81,11097.5
4179.22,11200.4
4157.51,11309.5
4157.51,11353.9
2650.75,12860.6
2645.6,12855.5
2553.07,12793.6
2450.25,12751
2341.1,12729.3
2229.82,12729.3
2120.67,12751
2017.85,12793.6
1925.32,12855.5
1846.63,12934.1
1784.8,13026.7
1742.21,13129.5
1720.5,13238.6
1720.5,13349.9
1742.21,13459.1
1784.8,13561.9
1846.63,13654.4
1925.32,13733.1
2017.85,13795
2120.67,13837.5
2229.82,13859.3
2341.1,13859.3
2450.25,13837.5
2553.07,13795
2645.6,13733.1
2676.96,13701.8
2773.32,13701.8
2793.34,13703.7
2813.35,13701.8
2813.35,13701.8
2873.21,13695.9
2950.03,13672.6
3020.81,13634.7
3082.86,13583.8
3095.62,13568.3
4733.77,11930.1
4778.11,11930.1
4887.26,11908.4
4990.08,11865.8
5082.61,11804
5113.96,11772.6
5796.95,11772.6
5798.6,11772.8
3552.11,14019.3
1991.65,14019.3
1566.96,13594.6
1566.96,10597.3
1612.56,10634.7
1649.41,10654.4
1683.35,10672.6
1760.16,10695.9
1820.02,10701.8
1820.03,10701.8
1840.04,10703.7
1860.05,10701.8
1893.97,10701.8
1925.32,10733.1
2017.85,10795
2120.67,10837.5
2229.82,10859.3
2341.1,10859.3
2450.25,10837.5
2553.07,10795
2645.6,10733.1
2724.29,10654.4
2786.12,10561.9
2828.71,10459.1
2838.74,10408.7
4155.45,10408.7
4171.77,10518.8
4209.24,10623.5
4235.59,10672.8
4331.64,10701
4651.76,10380.9
4793.18,10380.9
5113.3,10701
5209.35,10672.8
5256.95,10572.2
5284,10464.3
5289.48,10353.1
5273.17,10243.1
5235.7,10138.3
5209.35,10089
5113.3,10060.8
4793.18,10380.9
4651.76,10380.9
4331.64,10060.8
4235.59,10089
4187.99,10189.6
4160.93,10297.5
4155.45,10408.7
2838.74,10408.7
2850.42,10349.9
2850.42,10238.6
2828.71,10129.5
2786.12,10026.7
2761.66,9990.08
4402.35,9990.08
4722.47,10310.2
5042.59,9990.08
5014.4,9894.03
4913.81,9846.43
4805.86,9819.37
4694.71,9813.89
4584.62,9830.2
4479.83,9867.68
4430.53,9894.03
4402.35,9990.08
2761.66,9990.08
2724.29,9934.15
2645.6,9855.46
2553.07,9793.63
2450.25,9751.04
2341.1,9729.33
2229.82,9729.33
2120.67,9751.04
2017.85,9793.63
1956.58,9834.57
1566.96,9444.94
1566.96,5970.95
1682.59,5855.31
1945.15,5855.31
1976.5,5886.67
2069.03,5948.5
2171.85,5991.08
2281,6012.8
2392.29,6012.8
2501.44,5991.08
2604.25,5948.5
2696.78,5886.67
2775.48,5807.98
2837.3,5715.44
2879.89,5612.63
2901.6,5503.48
2901.6,5392.19
2879.89,5283.04
2837.3,5180.23
2775.48,5087.69
2744.12,5056.34
2744.12,3206.92
3002,3206.92
3051.01,3202.09
3098.13,3187.8
3141.56,3164.58
3179.63,3133.34
3210.87,3095.27
3234.08,3051.84
3248.38,3004.72
3253.21,2955.71
3253.21,2952.42
3894.89,2952.42
3956.31,3076.66
4103.86,3151.78
4263.24,3196.67
4428.31,3209.61
4592.73,3190.09
4750.18,3138.88
4866.58,3076.66
4928,2952.42
4411.45,2435.87
3894.89,2952.42
3253.21,2952.42
3253.21,2382.02
3567,2382.02
3586.51,2546.44
3637.73,2703.89
3699.94,2820.29
3824.18,2881.71
4340.73,2365.16
4482.16,2365.16
4998.71,2881.71
5122.95,2820.29
5198.07,2672.74
5242.96,2513.37
5255.89,2348.3
5236.38,2183.88
5185.16,2026.42
5122.95,1910.02
4998.71,1848.6
4482.16,2365.16
4340.73,2365.16
3824.18,1848.6
3699.94,1910.02
3624.82,2057.58
3579.93,2216.95
3567,2382.02
3253.21,2382.02
3253.21,1774.61
3248.38,1725.6
3234.08,1678.47
3210.87,1635.04
3179.63,1596.97
3141.56,1565.73
3101.45,1544.29
4217.66,1544.29
Z" /> 
</g>
</g>
<g style="fill:#FFFFFF; fill-opacity:1.0; 
stroke:#FFFFFF; stroke-width:100; stroke-opacity:1; 
stroke-linecap:round; stroke-linejoin:round;">
</g>
<g style="fill:#FFFFFF; fill-opacity:1.0; 
stroke:#FFFFFF; stroke-width:0; stroke-opacity:1; 
stroke-linecap:round; stroke-linejoin:round;">
<circle cx="13572.9" cy="5624.8" r="78.7402" /> 
</g>
<g style="fill:#FFFFFF; fill-opacity:1.0; 
stroke:#FFFFFF; stroke-width:39.3701; stroke-opacity:1; 
stroke-linecap:round; stroke-linejoin:round;">
</g>
<g style="fill:#FFFFFF; fill-opacity:1.0; 
stroke:#FFFFFF; stroke-width:0; stroke-opacity:1; 
stroke-linecap:round; stroke-linejoin:round;">
<circle cx="13572.9" cy="2299.8" r="78.7402" /> 
</g>
<g style="fill:#FFFFFF; fill-opacity:1.0; 
stroke:#FFFFFF; stroke-width:39.3701; stroke-opacity:1; 
stroke-linecap:round; stroke-linejoin:round;">
</g>
<g style="fill:#FFFFFF; fill-opacity:1.0; 
stroke:#FFFFFF; stroke-width:0; stroke-opacity:1; 
stroke-linecap:round; stroke-linejoin:round;">
<circle cx="9100.42" cy="11168.3" r="157.48" /> 
</g>
<g style="fill:#FFFFFF; fill-opacity:1.0; 
stroke:#FFFFFF; stroke-width:39.3701; stroke-opacity:1; 
stroke-linecap:round; stroke-linejoin:round;">
</g>
<g style="fill:#FFFFFF; fill-opacity:1.0; 
stroke:#FFFFFF; stroke-width:0; stroke-opacity:1; 
stroke-linecap:round; stroke-linejoin:round;">
<circle cx="12100.4" cy="8168.31" r="157.48" /> 
</g>
<g style="fill:#FFFFFF; fill-opacity:1.0; 
stroke:#FFFFFF; stroke-width:39.3701; stroke-opacity:1; 
stroke-linecap:round; stroke-linejoin:round;">
</g>
<g style="fill:#FFFFFF; fill-opacity:1.0; 
stroke:#FFFFFF; stroke-width:0; stroke-opacity:1; 
stroke-linecap:round; stroke-linejoin:round;">
<circle cx="9100.42" cy="10168.3" r="157.48" /> 
</g>
<g style="fill:#FFFFFF; fill-opacity:1.0; 
stroke:#FFFFFF; stroke-width:39.3701; stroke-opacity:1; 
stroke-linecap:round; stroke-linejoin:round;">
</g>
<g style="fill:#FFFFFF; fill-opacity:1.0; 
stroke:#FFFFFF; stroke-width:0; stroke-opacity:1; 
stroke-linecap:round; stroke-linejoin:round;">
<circle cx="12100.4" cy="9168.31" r="157.48" /> 
</g>
<g style="fill:#FFFFFF; fill-opacity:1.0; 
stroke:#FFFFFF; stroke-width:39.3701; stroke-opacity:1; 
stroke-linecap:round; stroke-linejoin:round;">
</g>
<g style="fill:#FFFFFF; fill-opacity:1.0; 
stroke:#FFFFFF; stroke-width:0; stroke-opacity:1; 
stroke-linecap:round; stroke-linejoin:round;">
<circle cx="9100.42" cy="9168.31" r="157.48" /> 
</g>
<g style="fill:#FFFFFF; fill-opacity:1.0; 
stroke:#FFFFFF; stroke-width:39.3701; stroke-opacity:1; 
stroke-linecap:round; stroke-linejoin:round;">
</g>
<g style="fill:#FFFFFF; fill-opacity:1.0; 
stroke:#FFFFFF; stroke-width:0; stroke-opacity:1; 
stroke-linecap:round; stroke-linejoin:round;">
<circle cx="12100.4" cy="10168.3" r="157.48" /> 
</g>
<g style="fill:#FFFFFF; fill-opacity:1.0; 
stroke:#FFFFFF; stroke-width:39.3701; stroke-opacity:1; 
stroke-linecap:round; stroke-linejoin:round;">
</g>
<g style="fill:#FFFFFF; fill-opacity:1.0; 
stroke:#FFFFFF; stroke-width:0; stroke-opacity:1; 
stroke-linecap:round; stroke-linejoin:round;">
<circle cx="9100.42" cy="8168.31" r="157.48" /> 
</g>
<g style="fill:#FFFFFF; fill-opacity:1.0; 
stroke:#FFFFFF; stroke-width:39.3701; stroke-opacity:1; 
stroke-linecap:round; stroke-linejoin:round;">
</g>
<g style="fill:#FFFFFF; fill-opacity:1.0; 
stroke:#FFFFFF; stroke-width:0; stroke-opacity:1; 
stroke-linecap:round; stroke-linejoin:round;">
<circle cx="12100.4" cy="11168.3" r="157.48" /> 
</g>
<g style="fill:#FFFFFF; fill-opacity:1.0; 
stroke:#FFFFFF; stroke-width:39.3701; stroke-opacity:1; 
stroke-linecap:round; stroke-linejoin:round;">
</g>
<g style="fill:#FFFFFF; fill-opacity:1.0; 
stroke:#FFFFFF; stroke-width:0; stroke-opacity:1; 
stroke-linecap:round; stroke-linejoin:round;">
<circle cx="4411.45" cy="2365.16" r="299.213" /> 
</g>
<g style="fill:#FFFFFF; fill-opacity:1.0; 
stroke:#FFFFFF; stroke-width:39.3701; stroke-opacity:1; 
stroke-linecap:round; stroke-linejoin:round;">
</g>
<g style="fill:#FFFFFF; fill-opacity:1.0; 
stroke:#FFFFFF; stroke-width:0; stroke-opacity:1; 
stroke-linecap:round; stroke-linejoin:round;">
<circle cx="2411.45" cy="2365.16" r="299.213" /> 
</g>
<g style="fill:#FFFFFF; fill-opacity:1.0; 
stroke:#FFFFFF; stroke-width:39.3701; stroke-opacity:1; 
stroke-linecap:round; stroke-linejoin:round;">
</g>
<g style="fill:#FFFFFF; fill-opacity:1.0; 
stroke:#FFFFFF; stroke-width:0; stroke-opacity:1; 
stroke-linecap:round; stroke-linejoin:round;">
<circle cx="4347.86" cy="17824.8" r="299.213" /> 
</g>
<g style="fill:#FFFFFF; fill-opacity:1.0; 
stroke:#FFFFFF; stroke-width:39.3701; stroke-opacity:1; 
stroke-linecap:round; stroke-linejoin:round;">
</g>
<g style="fill:#FFFFFF; fill-opacity:1.0; 
stroke:#FFFFFF; stroke-width:0; stroke-opacity:1; 
stroke-linecap:round; stroke-linejoin:round;">
<circle cx="2347.86" cy="17824.8" r="299.213" /> 
</g>
<g style="fill:#FFFFFF; fill-opacity:1.0; 
stroke:#FFFFFF; stroke-width:39.3701; stroke-opacity:1; 
stroke-linecap:round; stroke-linejoin:round;">
</g>
<g style="fill:#FFFFFF; fill-opacity:1.0; 
stroke:#FFFFFF; stroke-width:0; stroke-opacity:1; 
stroke-linecap:round; stroke-linejoin:round;">
<circle cx="2285.46" cy="13294.3" r="157.48" /> 
</g>
<g style="fill:#FFFFFF; fill-opacity:1.0; 
stroke:#FFFFFF; stroke-width:39.3701; stroke-opacity:1; 
stroke-linecap:round; stroke-linejoin:round;">
</g>
<g style="fill:#FFFFFF; fill-opacity:1.0; 
stroke:#FFFFFF; stroke-width:0; stroke-opacity:1; 
stroke-linecap:round; stroke-linejoin:round;">
<circle cx="2285.46" cy="10294.3" r="157.48" /> 
</g>
<g style="fill:#FFFFFF; fill-opacity:1.0; 
stroke:#FFFFFF; stroke-width:39.3701; stroke-opacity:1; 
stroke-linecap:round; stroke-linejoin:round;">
</g>
<g style="fill:#FFFFFF; fill-opacity:1.0; 
stroke:#FFFFFF; stroke-width:0; stroke-opacity:1; 
stroke-linecap:round; stroke-linejoin:round;">
<circle cx="6789.4" cy="8447.83" r="157.48" /> 
</g>
<g style="fill:#FFFFFF; fill-opacity:1.0; 
stroke:#FFFFFF; stroke-width:39.3701; stroke-opacity:1; 
stroke-linecap:round; stroke-linejoin:round;">
</g>
<g style="fill:#FFFFFF; fill-opacity:1.0; 
stroke:#FFFFFF; stroke-width:0; stroke-opacity:1; 
stroke-linecap:round; stroke-linejoin:round;">
<circle cx="6789.4" cy="5447.83" r="157.48" /> 
</g>
<g style="fill:#FFFFFF; fill-opacity:1.0; 
stroke:#FFFFFF; stroke-width:39.3701; stroke-opacity:1; 
stroke-linecap:round; stroke-linejoin:round;">
</g>
<g style="fill:#FFFFFF; fill-opacity:1.0; 
stroke:#FFFFFF; stroke-width:0; stroke-opacity:1; 
stroke-linecap:round; stroke-linejoin:round;">
<circle cx="4698.85" cy="5455.71" r="157.48" /> 
</g>
<g style="fill:#FFFFFF; fill-opacity:1.0; 
stroke:#FFFFFF; stroke-width:39.3701; stroke-opacity:1; 
stroke-linecap:round; stroke-linejoin:round;">
</g>
<g style="fill:#FFFFFF; fill-opacity:1.0; 
stroke:#FFFFFF; stroke-width:0; stroke-opacity:1; 
stroke-linecap:round; stroke-linejoin:round;">
<circle cx="4698.85" cy="8455.71" r="157.48" /> 
</g>
<g style="fill:#FFFFFF; fill-opacity:1.0; 
stroke:#FFFFFF; stroke-width:39.3701; stroke-opacity:1; 
stroke-linecap:round; stroke-linejoin:round;">
</g>
<g style="fill:#FFFFFF; fill-opacity:1.0; 
stroke:#FFFFFF; stroke-width:0; stroke-opacity:1; 
stroke-linecap:round; stroke-linejoin:round;">
<circle cx="2336.64" cy="8447.83" r="157.48" /> 
</g>
<g style="fill:#FFFFFF; fill-opacity:1.0; 
stroke:#FFFFFF; stroke-width:39.3701; stroke-opacity:1; 
stroke-linecap:round; stroke-linejoin:round;">
</g>
<g style="fill:#FFFFFF; fill-opacity:1.0; 
stroke:#FFFFFF; stroke-width:0; stroke-opacity:1; 
stroke-linecap:round; stroke-linejoin:round;">
<circle cx="2336.64" cy="5447.83" r="157.48" /> 
</g>
<g style="fill:#FFFFFF; fill-opacity:1.0; 
stroke:#FFFFFF; stroke-width:39.3701; stroke-opacity:1; 
stroke-linecap:round; stroke-linejoin:round;">
</g>
<g style="fill:#FFFFFF; fill-opacity:1.0; 
stroke:#FFFFFF; stroke-width:0; stroke-opacity:1; 
stroke-linecap:round; stroke-linejoin:round;">
<circle cx="11513.8" cy="2298.23" r="299.213" /> 
</g>
<g style="fill:#FFFFFF; fill-opacity:1.0; 
stroke:#FFFFFF; stroke-width:39.3701; stroke-opacity:1; 
stroke-linecap:round; stroke-linejoin:round;">
</g>
<g style="fill:#FFFFFF; fill-opacity:1.0; 
stroke:#FFFFFF; stroke-width:0; stroke-opacity:1; 
stroke-linecap:round; stroke-linejoin:round;">
<circle cx="9513.81" cy="2298.23" r="299.213" /> 
</g>
<g style="fill:#FFFFFF; fill-opacity:1.0; 
stroke:#FFFFFF; stroke-width:39.3701; stroke-opacity:1; 
stroke-linecap:round; stroke-linejoin:round;">
</g>
<g style="fill:#FFFFFF; fill-opacity:1.0; 
stroke:#FFFFFF; stroke-width:0; stroke-opacity:1; 
stroke-linecap:round; stroke-linejoin:round;">
<circle cx="5822.86" cy="15174.8" r="216.535" /> 
</g>
<g style="fill:#FFFFFF; fill-opacity:1.0; 
stroke:#FFFFFF; stroke-width:39.3701; stroke-opacity:1; 
stroke-linecap:round; stroke-linejoin:round;">
</g>
<g style="fill:#FFFFFF; fill-opacity:1.0; 
stroke:#FFFFFF; stroke-width:0; stroke-opacity:1; 
stroke-linecap:round; stroke-linejoin:round;">
<circle cx="1822.86" cy="15174.8" r="216.535" /> 
</g>
<g style="fill:#FFFFFF; fill-opacity:1.0; 
stroke:#FFFFFF; stroke-width:39.3701; stroke-opacity:1; 
stroke-linecap:round; stroke-linejoin:round;">
</g>
<g style="fill:#FFFFFF; fill-opacity:1.0; 
stroke:#FFFFFF; stroke-width:0; stroke-opacity:1; 
stroke-linecap:round; stroke-linejoin:round;">
<circle cx="15247.9" cy="15099.8" r="216.535" /> 
</g>
<g style="fill:#FFFFFF; fill-opacity:1.0; 
stroke:#FFFFFF; stroke-width:39.3701; stroke-opacity:1; 
stroke-linecap:round; stroke-linejoin:round;">
</g>
<g style="fill:#FFFFFF; fill-opacity:1.0; 
stroke:#FFFFFF; stroke-width:0; stroke-opacity:1; 
stroke-linecap:round; stroke-linejoin:round;">
<circle cx="19247.9" cy="15099.8" r="216.535" /> 
</g>
<g style="fill:#FFFFFF; fill-opacity:1.0; 
stroke:#FFFFFF; stroke-width:39.3701; stroke-opacity:1; 
stroke-linecap:round; stroke-linejoin:round;">
</g>
<g style="fill:#FFFFFF; fill-opacity:1.0; 
stroke:#FFFFFF; stroke-width:0; stroke-opacity:1; 
stroke-linecap:round; stroke-linejoin:round;">
<circle cx="12454.8" cy="5628.94" r="216.535" /> 
</g>
<g style="fill:#FFFFFF; fill-opacity:1.0; 
stroke:#FFFFFF; stroke-width:39.3701; stroke-opacity:1; 
stroke-linecap:round; stroke-linejoin:round;">
</g>
<g style="fill:#FFFFFF; fill-opacity:1.0; 
stroke:#FFFFFF; stroke-width:0; stroke-opacity:1; 
stroke-linecap:round; stroke-linejoin:round;">
<circle cx="8454.75" cy="5628.94" r="216.535" /> 
</g>
<g style="fill:#FFFFFF; fill-opacity:1.0; 
stroke:#FFFFFF; stroke-width:39.3701; stroke-opacity:1; 
stroke-linecap:round; stroke-linejoin:round;">
</g>
<g style="fill:#FFFFFF; fill-opacity:1.0; 
stroke:#FFFFFF; stroke-width:0; stroke-opacity:1; 
stroke-linecap:round; stroke-linejoin:round;">
<circle cx="4722.47" cy="10380.9" r="157.48" /> 
</g>
<g style="fill:#FFFFFF; fill-opacity:1.0; 
stroke:#FFFFFF; stroke-width:39.3701; stroke-opacity:1; 
stroke-linecap:round; stroke-linejoin:round;">
</g>
<g style="fill:#FFFFFF; fill-opacity:1.0; 
stroke:#FFFFFF; stroke-width:0; stroke-opacity:1; 
stroke-linecap:round; stroke-linejoin:round;">
<circle cx="4722.47" cy="11365.2" r="157.48" /> 
</g>
<g style="fill:#FFFFFF; fill-opacity:1.0; 
stroke:#FFFFFF; stroke-width:39.3701; stroke-opacity:1; 
stroke-linecap:round; stroke-linejoin:round;">
</g>
<g style="fill:#FFFFFF; fill-opacity:1.0; 
stroke:#FFFFFF; stroke-width:0; stroke-opacity:1; 
stroke-linecap:round; stroke-linejoin:round;">
<circle cx="18781.5" cy="2345.47" r="299.213" /> 
</g>
<g style="fill:#FFFFFF; fill-opacity:1.0; 
stroke:#FFFFFF; stroke-width:39.3701; stroke-opacity:1; 
stroke-linecap:round; stroke-linejoin:round;">
</g>
<g style="fill:#FFFFFF; fill-opacity:1.0; 
stroke:#FFFFFF; stroke-width:0; stroke-opacity:1; 
stroke-linecap:round; stroke-linejoin:round;">
<circle cx="16781.5" cy="2345.47" r="299.213" /> 
</g>
<g style="fill:#FFFFFF; fill-opacity:1.0; 
stroke:#FFFFFF; stroke-width:39.3701; stroke-opacity:1; 
stroke-linecap:round; stroke-linejoin:round;">
</g>
<g style="fill:#FFFFFF; fill-opacity:1.0; 
stroke:#FFFFFF; stroke-width:0; stroke-opacity:1; 
stroke-linecap:round; stroke-linejoin:round;">
<circle cx="18697.9" cy="17899.8" r="299.213" /> 
</g>
<g style="fill:#FFFFFF; fill-opacity:1.0; 
stroke:#FFFFFF; stroke-width:39.3701; stroke-opacity:1; 
stroke-linecap:round; stroke-linejoin:round;">
</g>
<g style="fill:#FFFFFF; fill-opacity:1.0; 
stroke:#FFFFFF; stroke-width:0; stroke-opacity:1; 
stroke-linecap:round; stroke-linejoin:round;">
<circle cx="16697.9" cy="17899.8" r="299.213" /> 
</g>
<g style="fill:#FFFFFF; fill-opacity:1.0; 
stroke:#FFFFFF; stroke-width:39.3701; stroke-opacity:1; 
stroke-linecap:round; stroke-linejoin:round;">
</g>
<g style="fill:#FFFFFF; fill-opacity:1.0; 
stroke:#FFFFFF; stroke-width:0; stroke-opacity:1; 
stroke-linecap:round; stroke-linejoin:round;">
<circle cx="12097.9" cy="13074.8" r="157.48" /> 
</g>
<g style="fill:#FFFFFF; fill-opacity:1.0; 
stroke:#FFFFFF; stroke-width:39.3701; stroke-opacity:1; 
stroke-linecap:round; stroke-linejoin:round;">
</g>
<g style="fill:#FFFFFF; fill-opacity:1.0; 
stroke:#FFFFFF; stroke-width:0; stroke-opacity:1; 
stroke-linecap:round; stroke-linejoin:round;">
<circle cx="13097.9" cy="13074.8" r="157.48" /> 
</g>
<g style="fill:#FFFFFF; fill-opacity:1.0; 
stroke:#FFFFFF; stroke-width:39.3701; stroke-opacity:1; 
stroke-linecap:round; stroke-linejoin:round;">
</g>
<g style="fill:#FFFFFF; fill-opacity:1.0; 
stroke:#FFFFFF; stroke-width:0; stroke-opacity:1; 
stroke-linecap:round; stroke-linejoin:round;">
<circle cx="14097.9" cy="13074.8" r="157.48" /> 
</g>
<g style="fill:#FFFFFF; fill-opacity:1.0; 
stroke:#FFFFFF; stroke-width:39.3701; stroke-opacity:1; 
stroke-linecap:round; stroke-linejoin:round;">
</g>
<g style="fill:#FFFFFF; fill-opacity:1.0; 
stroke:#FFFFFF; stroke-width:0; stroke-opacity:1; 
stroke-linecap:round; stroke-linejoin:round;">
<circle cx="8472.86" cy="13099.8" r="157.48" /> 
</g>
<g style="fill:#FFFFFF; fill-opacity:1.0; 
stroke:#FFFFFF; stroke-width:39.3701; stroke-opacity:1; 
stroke-linecap:round; stroke-linejoin:round;">
</g>
<g style="fill:#FFFFFF; fill-opacity:1.0; 
stroke:#FFFFFF; stroke-width:0; stroke-opacity:1; 
stroke-linecap:round; stroke-linejoin:round;">
<circle cx="7472.86" cy="13099.8" r="157.48" /> 
</g>
<g style="fill:#FFFFFF; fill-opacity:1.0; 
stroke:#FFFFFF; stroke-width:39.3701; stroke-opacity:1; 
stroke-linecap:round; stroke-linejoin:round;">
</g>
<g style="fill:#FFFFFF; fill-opacity:1.0; 
stroke:#FFFFFF; stroke-width:0; stroke-opacity:1; 
stroke-linecap:round; stroke-linejoin:round;">
<circle cx="6472.86" cy="13099.8" r="157.48" /> 
</g>
<g style="fill:#FFFFFF; fill-opacity:1.0; 
stroke:#FFFFFF; stroke-width:39.3701; stroke-opacity:1; 
stroke-linecap:round; stroke-linejoin:round;">
</g>
<g style="fill:#FFFFFF; fill-opacity:1.0; 
stroke:#FFFFFF; stroke-width:0; stroke-opacity:1; 
stroke-linecap:round; stroke-linejoin:round;">
<circle cx="11772.9" cy="16649.8" r="216.535" /> 
</g>
<g style="fill:#FFFFFF; fill-opacity:1.0; 
stroke:#FFFFFF; stroke-width:39.3701; stroke-opacity:1; 
stroke-linecap:round; stroke-linejoin:round;">
</g>
<g style="fill:#FFFFFF; fill-opacity:1.0; 
stroke:#FFFFFF; stroke-width:0; stroke-opacity:1; 
stroke-linecap:round; stroke-linejoin:round;">
<circle cx="12772.9" cy="16649.8" r="216.535" /> 
</g>
<g style="fill:#FFFFFF; fill-opacity:1.0; 
stroke:#FFFFFF; stroke-width:39.3701; stroke-opacity:1; 
stroke-linecap:round; stroke-linejoin:round;">
</g>
<g style="fill:#FFFFFF; fill-opacity:1.0; 
stroke:#FFFFFF; stroke-width:0; stroke-opacity:1; 
stroke-linecap:round; stroke-linejoin:round;">
<circle cx="13772.9" cy="16649.8" r="216.535" /> 
</g>
<g style="fill:#FFFFFF; fill-opacity:1.0; 
stroke:#FFFFFF; stroke-width:39.3701; stroke-opacity:1; 
stroke-linecap:round; stroke-linejoin:round;">
</g>
<g style="fill:#FFFFFF; fill-opacity:1.0; 
stroke:#FFFFFF; stroke-width:0; stroke-opacity:1; 
stroke-linecap:round; stroke-linejoin:round;">
<circle cx="9322.86" cy="16649.8" r="216.535" /> 
</g>
<g style="fill:#FFFFFF; fill-opacity:1.0; 
stroke:#FFFFFF; stroke-width:39.3701; stroke-opacity:1; 
stroke-linecap:round; stroke-linejoin:round;">
</g>
<g style="fill:#FFFFFF; fill-opacity:1.0; 
stroke:#FFFFFF; stroke-width:0; stroke-opacity:1; 
stroke-linecap:round; stroke-linejoin:round;">
<circle cx="8322.86" cy="16649.8" r="216.535" /> 
</g>
<g style="fill:#FFFFFF; fill-opacity:1.0; 
stroke:#FFFFFF; stroke-width:39.3701; stroke-opacity:1; 
stroke-linecap:round; stroke-linejoin:round;">
</g>
<g style="fill:#FFFFFF; fill-opacity:1.0; 
stroke:#FFFFFF; stroke-width:0; stroke-opacity:1; 
stroke-linecap:round; stroke-linejoin:round;">
<circle cx="7322.86" cy="16649.8" r="216.535" /> 
</g>
<g style="fill:#FFFFFF; fill-opacity:1.0; 
stroke:#FFFFFF; stroke-width:39.3701; stroke-opacity:1; 
stroke-linecap:round; stroke-linejoin:round;">
</g>
<g style="fill:#000000; fill-opacity:1.0; 
stroke:#000000; stroke-width:39.3701; stroke-opacity:1; 
stroke-linecap:round; stroke-linejoin:round;">
</g>
<g style="fill:#000000; fill-opacity:1.0; 
stroke:#000000; stroke-width:19.685; stroke-opacity:1; 
stroke-linecap:round; stroke-linejoin:round;">
</g>
<g style="fill:#000000; fill-opacity:0.0; 
stroke:#000000; stroke-width:19.685; stroke-opacity:1; 
stroke-linecap:round; stroke-linejoin:round;">
<path d="M627 384
L627 20069
" />
<path d="M20313 384
L627 384
" />
<path d="M20313 20069
L20313 384
" />
<path d="M627 20069
L20313 20069
" />
<g >
</g>
<g >
</g>
<g >
</g>
<g >
</g>
<g >
</g>
<g >
</g>
<g >
</g>
<g >
</g>
<g >
</g>
<g >
</g>
<g >
</g>
<g >
</g>
<g >
</g>
<g >
</g>
<g >
</g>
<g >
</g>
<g >
</g>
<g >
</g>
<g >
</g>
</g> 
</svg>
