M48
; DRILL file {KiCad (5.1.5)-3} date 11/6/2020 3:20:11 AM
; FORMAT={-:-/ absolute / inch / decimal}
; #@! TF.CreationDate,2020-11-06T03:20:11-03:00
; #@! TF.GenerationSoftware,Kicad,Pcbnew,(5.1.5)-3
; #@! TF.FileFunction,Plated,1,2,PTH
FMAT,2
INCH
T1C0.0157
T2C0.0197
T3C0.0256
T4C0.0276
T5C0.0315
T6C0.0394
T7C0.0400
T8C0.0433
T9C0.0472
T10C0.0512
T11C0.0551
T12C0.0591
T13C0.0709
T14C0.1181
T15C0.1260
T16C0.1378
%
G90
G05
T1
X-15.2129Y-4.5377
X-15.1815Y-4.4929
X-15.1529Y-4.5377
X-15.1229Y-4.4927
X-15.0929Y-4.5377
X-15.0604Y-9.6008
X-15.0279Y-4.9177
X-14.9729Y-3.1777
X-14.9629Y-0.7077
X-14.94Y-9.277
X-14.94Y-9.351
X-14.8929Y-3.5877
X-14.8879Y-1.1677
X-14.8879Y-1.5693
X-14.8779Y-3.8977
X-14.7489Y-13.1647
X-14.7079Y-4.9177
X-14.6841Y-9.6847
X-14.684Y-9.243
X-14.68Y-9.609
X-14.6629Y-0.2227
X-14.6479Y-3.6577
X-14.6429Y-1.2177
X-14.571Y-16.538
X-14.544Y-15.695
X-14.544Y-16.07
X-14.5379Y-2.7427
X-14.512Y-9.057
X-14.512Y-9.1215
X-14.5069Y-12.3907
X-14.4829Y-5.1327
X-14.4689Y-12.8727
X-14.4469Y-11.0307
X-14.424Y-15.885
X-14.3879Y-4.9177
X-14.3769Y-12.9607
X-14.3387Y-12.8726
X-14.3329Y-1.3077
X-14.328Y-9.165
X-14.328Y-9.459
X-14.3279Y-3.6927
X-14.314Y-15.0025
X-14.314Y-15.535
X-14.3069Y-10.9307
X-14.289Y-16.502
X-14.2769Y-12.1607
X-14.274Y-15.615
X-14.256Y-9.419
X-14.2529Y-3.1827
X-14.2517Y-3.3681
X-14.2517Y-3.7665
X-14.2517Y-4.1766
X-14.2517Y-4.3816
X-14.2507Y-1.7368
X-14.2507Y-1.9418
X-14.2466Y-0.7377
X-14.2466Y-0.9308
X-14.2466Y-1.2727
X-14.2246Y-8.8272
X-14.221Y-16.5
X-14.182Y-9.455
X-14.182Y-9.577
X-14.1569Y-11.1607
X-14.1569Y-11.5007
X-14.1569Y-12.8807
X-14.1329Y-11.0147
X-14.1269Y-12.3807
X-14.1254Y-16.125
X-14.124Y-16.055
X-14.124Y-15.9675
X-14.1215Y-15.815
X-14.1215Y-15.8875
X-14.0769Y-13.0907
X-14.0679Y-4.905
X-14.0669Y-11.0147
X-14.0636Y-9.3069
X-14.0169Y-12.3807
X-14.0029Y-2.2877
X-14.0029Y-4.6027
X-14.002Y-2.1629
X-14.0018Y-9.1496
X-14.0005Y-8.945
X-13.9719Y-1.8727
X-13.9679Y-0.8627
X-13.9679Y-1.2477
X-13.9679Y-3.3027
X-13.9679Y-3.5477
X-13.9679Y-4.3127
X-13.9679Y-4.7277
X-13.9579Y-4.8777
X-13.914Y-8.719
X-13.9056Y-5.0154
X-13.8569Y-12.1107
X-13.856Y-8.619
X-13.856Y-8.667
X-13.856Y-8.709
X-13.8049Y-11.5507
X-13.803Y-15.3
X-13.7896Y-13.2481
X-13.789Y-16.1275
X-13.7679Y-3.4377
X-13.7579Y-4.9177
X-13.7492Y-8.9279
X-13.7483Y-8.9873
X-13.7445Y-9.1787
X-13.7394Y-3.4877
X-13.7179Y-4.9177
X-13.7029Y-4.5441
X-13.6979Y-2.2777
X-13.6779Y-4.9177
X-13.6749Y-11.4527
X-13.6669Y-12.8407
X-13.65Y-8.533
X-13.6379Y-4.9177
X-13.6379Y-2.1677
X-13.6069Y-12.7407
X-13.604Y-14.935
X-13.604Y-16.205
X-13.5979Y-4.9177
X-13.585Y-15.184
X-13.584Y-8.885
X-13.584Y-9.129
X-13.584Y-9.339
X-13.5279Y-0.7177
X-13.5279Y-3.1627
X-13.5069Y-12.6407
X-13.4579Y-1.1577
X-13.4529Y-3.6177
X-13.4529Y-4.6177
X-13.447Y-1.5618
X-13.4429Y-4.0077
X-13.413Y-15.624
X-13.413Y-15.768
X-13.4069Y-12.4207
X-13.3769Y-12.2307
X-13.3115Y-15.8875
X-13.2727Y-4.9176
X-13.266Y-9.335
X-13.2569Y-13.1407
X-13.2515Y-16.3775
X-13.244Y-15.815
X-13.232Y-8.945
X-13.226Y-8.697
X-13.224Y-16.4425
X-13.2179Y-0.2227
X-13.2179Y-3.6627
X-13.2079Y-1.3027
X-13.2069Y-12.2807
X-13.1915Y-15.5275
X-13.1869Y-13.3907
X-13.159Y-15.585
X-13.158Y-9.455
X-13.1369Y-12.6107
X-13.1229Y-2.7327
X-13.1217Y-13.1259
X-13.1029Y-5.0177
X-13.036Y-8.803
X-13.0355Y-8.9164
X-13.035Y-9.071
X-13.0332Y-9.2302
X-13.0215Y-16.0525
X-13.002Y-8.533
X-12.9969Y-13.1107
X-12.9869Y-12.4707
X-12.9529Y-4.9177
X-12.925Y-15.3
X-12.8879Y-1.2527
X-12.8729Y-3.7881
X-12.8565Y-15.585
X-12.8479Y-2.3177
X-12.826Y-8.689
X-12.8179Y-0.7477
X-12.8179Y-0.9327
X-12.815Y-14.748
X-12.8147Y-1.7216
X-12.8147Y-1.9266
X-12.8129Y-3.1827
X-12.8127Y-3.3716
X-12.8097Y-3.7477
X-12.8097Y-4.1781
X-12.8097Y-4.3831
X-12.7869Y-13.3407
X-12.7869Y-13.7407
X-12.7579Y-4.8777
X-12.7569Y-12.4707
X-12.7569Y-12.6407
X-12.725Y-14.748
X-12.709Y-16.2025
X-12.6969Y-12.7307
X-12.669Y-15.905
X-12.631Y-14.788
X-12.6279Y-4.9577
X-12.624Y-15.9675
X-12.6185Y-9.162
X-12.6179Y-9.2617
X-12.5779Y-4.8777
X-12.569Y-15.6475
X-12.569Y-15.7475
X-12.569Y-16.3775
X-12.5674Y-8.1268
X-12.5659Y-2.1477
X-12.564Y-15.475
X-12.564Y-15.5275
X-12.564Y-15.575
X-12.5629Y-2.2777
X-12.5609Y-4.6042
X-12.535Y-14.786
X-12.5329Y-0.8677
X-12.5329Y-1.8577
X-12.5233Y-3.3074
X-12.5233Y-3.6677
X-12.5233Y-4.3181
X-12.518Y-6.713
X-12.5115Y-16.5025
X-12.511Y-15.375
X-12.498Y-8.697
X-12.4869Y-7.322
X-12.4779Y-0.0077
X-12.4779Y-0.0671
X-12.4779Y-0.1277
X-12.4779Y-0.1877
X-12.4727Y-9.373
X-12.454Y-8.695
X-12.4508Y-6.6715
X-12.449Y-15.1899
X-12.449Y-15.425
X-12.4465Y-15.6275
X-12.441Y-14.786
X-12.4379Y-0.1577
X-12.4379Y-0.0377
X-12.4379Y-0.0957
X-12.4379Y-0.2177
X-12.433Y-15.728
X-12.409Y-16.16
X-12.408Y-8.695
X-12.366Y-9.549
X-12.334Y-9.459
X-12.319Y-15.194
X-12.3179Y-4.9376
X-12.316Y-8.263
X-12.316Y-8.697
X-12.3142Y-3.6477
X-12.3142Y-3.7177
X-12.2677Y-4.9379
X-12.2669Y-12.7807
X-12.2629Y-4.5877
X-12.255Y-14.784
X-12.254Y-9.427
X-12.2279Y-2.2377
X-12.218Y-9.663
X-12.2179Y-4.9377
X-12.1979Y-2.1677
X-12.1909Y-6.6846
X-12.1909Y-7.6962
X-12.1879Y-0.5277
X-12.1765Y-16.395
X-12.1679Y-4.9377
X-12.1179Y-4.9377
X-12.1175Y-6.684
X-12.1167Y-8.503
X-12.1015Y-16.495
X-12.0915Y-15.965
X-12.0879Y-0.7177
X-12.0854Y-3.1602
X-12.054Y-8.587
X-12.0441Y-7.9884
X-12.0438Y-7.7372
X-12.0431Y-7.1945
X-12.0129Y-3.5877
X-12.0079Y-1.1427
X-11.9979Y-4.0077
X-11.9929Y-1.5627
X-11.9869Y-13.5707
X-11.979Y-15.6475
X-11.934Y-16.395
X-11.892Y-9.607
X-11.8765Y-16.16
X-11.86Y-9.521
X-11.8369Y-13.5707
X-11.8169Y-10.6607
X-11.8169Y-10.8807
X-11.8079Y-4.9877
X-11.8069Y-10.7707
X-11.8069Y-11.3207
X-11.8069Y-11.6107
X-11.7779Y-0.2227
X-11.7734Y-3.6632
X-11.7479Y-4.9077
X-11.7479Y-5.1477
X-11.7429Y-1.2877
X-11.6979Y-4.9077
X-11.6669Y-11.5207
X-11.6569Y-10.8007
X-11.6569Y-11.4807
X-11.6529Y-2.7627
X-11.6479Y-4.9077
X-11.6479Y-5.0877
X-11.6169Y-10.9307
X-11.6169Y-11.6607
X-11.6069Y-11.3907
X-11.5979Y-4.9077
X-11.5129Y-4.8677
X-11.4529Y-1.2827
X-11.4479Y-3.7177
X-11.4379Y-4.9077
X-11.4379Y-4.9577
X-11.3979Y-2.3177
X-11.3869Y-12.3007
X-11.3754Y-4.1702
X-11.3754Y-4.3952
X-11.3729Y-3.1827
X-11.3729Y-3.3722
X-11.3729Y-3.7377
X-11.3679Y-0.7427
X-11.3667Y-0.934
X-11.3667Y-1.721
X-11.3667Y-1.926
X-11.3469Y-12.7607
X-11.3379Y-5.0577
X-11.3379Y-5.2477
X-11.1929Y-4.8677
X-11.1229Y-3.6877
X-11.1192Y-4.6038
X-11.1179Y-2.1471
X-11.0879Y-2.2777
X-11.0848Y-3.3097
X-11.0848Y-4.3147
X-11.0829Y-1.8577
X-11.0779Y-0.8627
X-11.0329Y-5.0577
X-11.0329Y-5.2477
X-10.9569Y-11.8107
X-10.9379Y-5.0577
X-10.9379Y-5.2477
X-10.8969Y-11.2907
X-10.8969Y-11.3707
X-10.8769Y-10.6407
X-10.8769Y-10.7207
X-10.8769Y-11.0907
X-10.8769Y-11.6507
X-10.8769Y-11.7207
X-10.8683Y-10.9394
X-10.8669Y-11.0207
X-10.7969Y-12.0107
X-10.7669Y-11.8207
X-10.7329Y-1.3077
X-10.731Y-6.955
X-10.7179Y-3.9327
X-10.7169Y-10.8307
X-10.701Y-6.985
X-10.6929Y-1.5427
X-10.6879Y-0.6777
X-10.6779Y-3.0777
X-10.6729Y-3.3727
X-10.6669Y-11.5207
X-10.6469Y-11.1607
X-10.6379Y-3.0777
X-10.6379Y-3.8326
X-10.6379Y-4.3277
X-10.6204Y-1.4252
X-10.6179Y-1.1077
X-10.6148Y-1.7477
X-10.611Y-6.05
X-10.611Y-6.11
X-10.611Y-6.17
X-10.611Y-6.23
X-10.611Y-6.29
X-10.611Y-6.35
X-10.611Y-6.41
X-10.611Y-6.47
X-10.611Y-6.53
X-10.611Y-6.59
X-10.5979Y-3.0777
X-10.5879Y-4.9877
X-10.5877Y-4.5326
X-10.571Y-6.05
X-10.571Y-6.11
X-10.571Y-6.17
X-10.571Y-6.23
X-10.571Y-6.29
X-10.571Y-6.35
X-10.571Y-6.41
X-10.571Y-6.47
X-10.571Y-6.53
X-10.571Y-6.59
X-10.5579Y-3.0777
X-10.5529Y-11.9347
X-10.5479Y-5.0177
X-10.5379Y-3.5177
X-10.5379Y-3.8827
X-10.5377Y-3.2726
X-10.5377Y-4.4329
X-10.531Y-6.05
X-10.531Y-6.11
X-10.531Y-6.17
X-10.531Y-6.23
X-10.531Y-6.29
X-10.531Y-6.35
X-10.531Y-6.41
X-10.531Y-6.47
X-10.531Y-6.53
X-10.531Y-6.59
X-10.5229Y-0.4277
X-10.5229Y-0.8077
X-10.5179Y-3.0777
X-10.5179Y-5.0477
X-10.5165Y-4.5827
X-10.5079Y-1.0027
X-10.5076Y-7.4577
X-10.5029Y-13.8697
X-10.501Y-7.2975
X-10.491Y-6.05
X-10.491Y-6.11
X-10.491Y-6.17
X-10.491Y-6.23
X-10.491Y-6.29
X-10.491Y-6.35
X-10.491Y-6.41
X-10.491Y-6.47
X-10.491Y-6.53
X-10.491Y-6.59
X-10.4881Y-3.0076
X-10.4879Y-3.4477
X-10.4879Y-3.9826
X-10.4879Y-4.0327
X-10.4879Y-4.3827
X-10.4879Y-5.0777
X-10.4877Y-3.3229
X-10.4731Y-0.8376
X-10.4729Y-0.4277
X-10.4629Y-13.7397
X-10.4529Y-2.1477
X-10.451Y-6.05
X-10.451Y-6.11
X-10.451Y-6.17
X-10.451Y-6.23
X-10.451Y-6.29
X-10.451Y-6.35
X-10.451Y-6.41
X-10.451Y-6.47
X-10.451Y-6.53
X-10.451Y-6.59
X-10.4379Y-3.0777
X-10.4329Y-1.8677
X-10.4231Y-0.8676
X-10.4229Y-0.4277
X-10.4229Y-2.3977
X-10.411Y-6.05
X-10.411Y-6.11
X-10.411Y-6.17
X-10.411Y-6.23
X-10.411Y-6.29
X-10.411Y-6.35
X-10.411Y-6.41
X-10.411Y-6.47
X-10.411Y-6.53
X-10.411Y-6.59
X-10.4079Y-2.5127
X-10.4069Y-11.1207
X-10.3879Y-3.0777
X-10.3854Y-1.6552
X-10.3854Y-1.9153
X-10.3729Y-0.4277
X-10.3729Y-0.8977
X-10.3729Y-2.3977
X-10.3729Y-2.7027
X-10.371Y-6.05
X-10.371Y-6.11
X-10.371Y-6.17
X-10.371Y-6.23
X-10.371Y-6.29
X-10.371Y-6.35
X-10.371Y-6.41
X-10.371Y-6.47
X-10.371Y-6.53
X-10.371Y-6.59
X-10.3479Y-3.6227
X-10.3479Y-4.1827
X-10.3479Y-4.7327
X-10.3379Y-3.0777
X-10.3329Y-2.7477
X-10.331Y-6.05
X-10.331Y-6.11
X-10.331Y-6.17
X-10.331Y-6.23
X-10.331Y-6.29
X-10.331Y-6.35
X-10.331Y-6.41
X-10.331Y-6.47
X-10.331Y-6.53
X-10.331Y-6.59
X-10.3229Y-0.4277
X-10.3179Y-4.3827
X-10.3179Y-3.2727
X-10.3179Y-3.8327
X-10.2879Y-3.0777
X-10.2879Y-3.6227
X-10.2879Y-4.1827
X-10.2877Y-4.7329
X-10.2779Y-1.3927
X-10.2729Y-0.4277
X-10.2679Y-0.6277
X-10.2579Y-2.5127
X-10.2579Y-3.5727
X-10.2579Y-4.1327
X-10.2579Y-4.6827
X-10.2279Y-3.5227
X-10.2279Y-4.0827
X-10.2279Y-4.6327
X-10.2269Y-11.1207
X-10.2229Y-0.6777
X-10.2227Y-0.4279
X-10.1929Y-2.3977
X-10.1869Y-10.8107
X-10.1779Y-0.4277
X-10.1605Y-1.9153
X-10.1469Y-11.5207
X-10.1229Y-2.1727
X-10.1129Y-3.2077
X-10.1129Y-3.4227
X-10.0981Y-4.4329
X-10.0979Y-4.8377
X-10.0831Y-3.3726
X-10.0829Y-3.1627
X-10.0681Y-4.4826
X-10.0679Y-4.8727
X-10.0565Y-3.8829
X-10.0381Y-4.5326
X-10.0379Y-3.9327
X-10.0379Y-3.9827
X-10.0379Y-4.0327
X-10.0379Y-4.9077
X-10.0169Y-13.0007
X-9.9479Y-1.0527
X-9.9479Y-1.5077
X-9.9454Y-1.1752
X-9.9429Y-0.4277
X-9.9429Y-1.2677
X-9.9427Y-0.8077
X-9.9389Y-1.7587
X-9.9389Y-2.5737
X-9.8979Y-2.4777
X-9.8931Y-0.4279
X-9.8931Y-0.8377
X-9.871Y-6.05
X-9.871Y-6.11
X-9.871Y-6.17
X-9.871Y-6.23
X-9.871Y-6.29
X-9.871Y-6.35
X-9.871Y-6.41
X-9.871Y-6.47
X-9.871Y-6.53
X-9.871Y-6.59
X-9.8611Y-2.4246
X-9.8431Y-0.4279
X-9.8431Y-0.8676
X-9.8379Y-3.2277
X-9.831Y-6.05
X-9.831Y-6.11
X-9.831Y-6.17
X-9.831Y-6.23
X-9.831Y-6.29
X-9.831Y-6.35
X-9.831Y-6.41
X-9.831Y-6.47
X-9.831Y-6.53
X-9.831Y-6.59
X-9.7979Y-3.5077
X-9.7979Y-4.0077
X-9.7979Y-4.4977
X-9.796Y-7.46
X-9.7927Y-0.4279
X-9.7927Y-0.8977
X-9.791Y-6.05
X-9.791Y-6.11
X-9.791Y-6.17
X-9.791Y-6.23
X-9.791Y-6.29
X-9.791Y-6.35
X-9.791Y-6.41
X-9.791Y-6.47
X-9.791Y-6.53
X-9.791Y-6.59
X-9.791Y-7.08
X-9.791Y-7.15
X-9.7879Y-1.0777
X-9.7679Y-4.1877
X-9.7679Y-4.3177
X-9.7579Y-4.6977
X-9.7529Y-3.3027
X-9.751Y-6.05
X-9.751Y-6.11
X-9.751Y-6.17
X-9.751Y-6.23
X-9.751Y-6.29
X-9.751Y-6.35
X-9.751Y-6.41
X-9.751Y-6.47
X-9.751Y-6.53
X-9.751Y-6.59
X-9.7479Y-3.6977
X-9.7427Y-0.4279
X-9.721Y-7.08
X-9.711Y-6.05
X-9.711Y-6.11
X-9.711Y-6.17
X-9.711Y-6.23
X-9.711Y-6.29
X-9.711Y-6.35
X-9.711Y-6.41
X-9.711Y-6.47
X-9.711Y-6.53
X-9.711Y-6.59
X-9.6979Y-3.1777
X-9.6931Y-0.4279
X-9.6929Y-0.6877
X-9.6929Y-3.8027
X-9.671Y-6.05
X-9.671Y-6.11
X-9.671Y-6.17
X-9.671Y-6.23
X-9.671Y-6.29
X-9.671Y-6.35
X-9.671Y-6.41
X-9.671Y-6.47
X-9.671Y-6.53
X-9.671Y-6.59
X-9.6529Y-2.2277
X-9.6529Y-2.5277
X-9.6427Y-0.4279
X-9.631Y-6.05
X-9.631Y-6.11
X-9.631Y-6.17
X-9.631Y-6.23
X-9.631Y-6.29
X-9.631Y-6.35
X-9.631Y-6.41
X-9.631Y-6.47
X-9.631Y-6.53
X-9.631Y-6.59
X-9.5929Y-0.4277
X-9.5929Y-2.0177
X-9.591Y-6.05
X-9.591Y-6.11
X-9.591Y-6.17
X-9.591Y-6.23
X-9.591Y-6.29
X-9.591Y-6.35
X-9.591Y-6.41
X-9.591Y-6.47
X-9.591Y-6.53
X-9.591Y-6.59
X-9.586Y-7.43
X-9.586Y-7.23
X-9.5354Y-2.3352
X-9.534Y-2.4088
X-9.5329Y-2.2377
X-9.531Y-7.82
X-9.491Y-8.0
X-9.4879Y-3.2977
X-9.487Y-3.2536
X-9.4679Y-4.1977
X-9.451Y-7.08
X-9.4379Y-4.3177
X-9.4279Y-3.6977
X-9.4279Y-3.8277
X-9.4279Y-4.6977
X-9.4048Y-2.2447
X-9.401Y-7.08
X-9.3979Y-3.5077
X-9.3979Y-4.0077
X-9.3979Y-4.4977
X-9.3629Y-0.8077
X-9.3131Y-0.8377
X-9.3129Y-0.9377
X-9.311Y-6.05
X-9.311Y-6.11
X-9.311Y-6.17
X-9.311Y-6.23
X-9.311Y-6.29
X-9.311Y-6.35
X-9.311Y-6.41
X-9.311Y-6.47
X-9.311Y-6.53
X-9.311Y-6.59
X-9.291Y-7.49
X-9.271Y-6.05
X-9.271Y-6.11
X-9.271Y-6.17
X-9.271Y-6.23
X-9.271Y-6.29
X-9.271Y-6.35
X-9.271Y-6.41
X-9.271Y-6.47
X-9.271Y-6.53
X-9.271Y-6.59
X-9.2631Y-0.8677
X-9.231Y-6.05
X-9.231Y-6.11
X-9.231Y-6.17
X-9.231Y-6.23
X-9.231Y-6.29
X-9.231Y-6.35
X-9.231Y-6.41
X-9.231Y-6.47
X-9.231Y-6.53
X-9.231Y-6.59
X-9.231Y-8.23
X-9.2129Y-0.8977
X-9.191Y-6.05
X-9.191Y-6.11
X-9.191Y-6.17
X-9.191Y-6.23
X-9.191Y-6.29
X-9.191Y-6.35
X-9.191Y-6.41
X-9.191Y-6.47
X-9.191Y-6.53
X-9.191Y-6.59
X-9.151Y-6.05
X-9.151Y-6.11
X-9.151Y-6.17
X-9.151Y-6.23
X-9.151Y-6.29
X-9.151Y-6.35
X-9.151Y-6.41
X-9.151Y-6.47
X-9.151Y-6.53
X-9.151Y-6.59
X-9.146Y-7.545
X-9.1379Y-0.8377
X-9.1335Y-8.2325
X-9.131Y-7.02
X-9.1129Y-0.6877
X-9.111Y-6.05
X-9.111Y-6.11
X-9.111Y-6.17
X-9.111Y-6.23
X-9.111Y-6.29
X-9.111Y-6.35
X-9.111Y-6.41
X-9.111Y-6.47
X-9.111Y-6.53
X-9.111Y-6.59
X-9.081Y-8.33
X-9.071Y-6.05
X-9.071Y-6.11
X-9.071Y-6.17
X-9.071Y-6.23
X-9.071Y-6.29
X-9.071Y-6.35
X-9.071Y-6.41
X-9.071Y-6.47
X-9.071Y-6.53
X-9.071Y-6.59
X-9.031Y-6.05
X-9.031Y-6.11
X-9.031Y-6.17
X-9.031Y-6.23
X-9.031Y-6.29
X-9.031Y-6.35
X-9.031Y-6.41
X-9.031Y-6.47
X-9.031Y-6.53
X-9.031Y-6.59
X-9.0279Y-0.4277
X-9.008Y-16.082
X-9.0079Y-0.8777
X-8.988Y-15.192
X-8.9879Y-2.4277
X-8.9879Y-2.5277
X-8.978Y-15.282
X-8.9705Y-15.8645
X-8.9529Y-1.8977
X-8.938Y-15.282
X-8.9365Y-7.29
X-8.908Y-14.942
X-8.891Y-7.02
X-8.891Y-7.1362
X-8.888Y-15.192
X-8.8879Y-1.6277
X-8.8645Y-12.365
X-8.858Y-15.632
X-8.8479Y-3.5077
X-8.8479Y-4.0077
X-8.8479Y-4.4977
X-8.8476Y-8.4627
X-8.8476Y-8.5077
X-8.843Y-15.572
X-8.843Y-15.692
X-8.8379Y-1.6277
X-8.8379Y-1.7577
X-8.8379Y-3.6777
X-8.8179Y-3.8177
X-8.808Y-15.957
X-8.808Y-16.082
X-8.8079Y-4.3077
X-8.8004Y-4.2077
X-8.793Y-14.927
X-8.7888Y-3.2536
X-8.7879Y-1.6277
X-8.7879Y-3.1927
X-8.7871Y-2.287
X-8.778Y-15.382
X-8.7779Y-4.7077
X-8.752Y-10.802
X-8.7479Y-3.2877
X-8.743Y-15.867
X-8.7379Y-1.6277
X-8.7279Y-2.3277
X-8.688Y-14.932
X-8.6879Y-1.6238
X-8.684Y-11.2505
X-8.682Y-10.913
X-8.673Y-15.612
X-8.658Y-15.392
X-8.6231Y-2.2476
X-8.618Y-14.932
X-8.608Y-14.752
X-8.584Y-15.8324
X-8.5715Y-15.142
X-8.571Y-6.05
X-8.571Y-6.11
X-8.571Y-6.17
X-8.571Y-6.23
X-8.571Y-6.29
X-8.571Y-6.35
X-8.571Y-6.41
X-8.571Y-6.47
X-8.571Y-6.53
X-8.571Y-6.59
X-8.5679Y-0.5077
X-8.5386Y-12.9544
X-8.5379Y-1.4777
X-8.5379Y-1.9677
X-8.5379Y-2.0277
X-8.533Y-16.467
X-8.531Y-6.05
X-8.531Y-6.11
X-8.531Y-6.17
X-8.531Y-6.23
X-8.531Y-6.29
X-8.531Y-6.35
X-8.531Y-6.41
X-8.531Y-6.47
X-8.531Y-6.53
X-8.531Y-6.59
X-8.528Y-14.962
X-8.5179Y-0.5077
X-8.514Y-12.5255
X-8.5079Y-4.7077
X-8.4929Y-1.4327
X-8.491Y-6.05
X-8.491Y-6.11
X-8.491Y-6.17
X-8.491Y-6.23
X-8.491Y-6.29
X-8.491Y-6.35
X-8.491Y-6.41
X-8.491Y-6.47
X-8.491Y-6.53
X-8.491Y-6.59
X-8.491Y-8.51
X-8.4779Y-3.6777
X-8.4779Y-4.2077
X-8.4779Y-4.3077
X-8.4679Y-0.5077
X-8.451Y-6.05
X-8.451Y-6.11
X-8.451Y-6.17
X-8.451Y-6.23
X-8.451Y-6.29
X-8.451Y-6.35
X-8.451Y-6.41
X-8.451Y-6.47
X-8.451Y-6.53
X-8.451Y-6.59
X-8.4479Y-3.5077
X-8.4479Y-3.8277
X-8.4479Y-4.0077
X-8.4479Y-4.4977
X-8.441Y-8.46
X-8.441Y-8.51
X-8.411Y-6.05
X-8.411Y-6.11
X-8.411Y-6.17
X-8.411Y-6.23
X-8.411Y-6.29
X-8.411Y-6.35
X-8.411Y-6.41
X-8.411Y-6.47
X-8.411Y-6.53
X-8.411Y-6.59
X-8.396Y-8.51
X-8.3879Y-1.1777
X-8.371Y-2.4108
X-8.371Y-6.05
X-8.371Y-6.11
X-8.371Y-6.17
X-8.371Y-6.23
X-8.371Y-6.29
X-8.371Y-6.35
X-8.371Y-6.41
X-8.371Y-6.47
X-8.371Y-6.53
X-8.371Y-6.59
X-8.3679Y-2.4877
X-8.3679Y-2.7177
X-8.3679Y-2.7677
X-8.3679Y-3.1027
X-8.3476Y-8.46
X-8.3476Y-8.51
X-8.3379Y-1.1777
X-8.331Y-6.05
X-8.331Y-6.11
X-8.331Y-6.17
X-8.331Y-6.23
X-8.331Y-6.29
X-8.331Y-6.35
X-8.331Y-6.41
X-8.331Y-6.47
X-8.331Y-6.53
X-8.331Y-6.59
X-8.2933Y-2.7677
X-8.2929Y-3.0742
X-8.291Y-6.05
X-8.291Y-6.11
X-8.291Y-6.17
X-8.291Y-6.23
X-8.291Y-6.29
X-8.291Y-6.35
X-8.291Y-6.41
X-8.291Y-6.47
X-8.291Y-6.53
X-8.291Y-6.59
X-8.291Y-8.465
X-8.291Y-8.51
X-8.2879Y-2.0327
X-8.2879Y-2.0777
X-8.2679Y-4.7077
X-8.2579Y-4.8877
X-8.2579Y-4.9477
X-8.2579Y-5.0077
X-8.2579Y-5.0677
X-8.2479Y-3.2677
X-8.2479Y-3.3277
X-8.2479Y-3.4777
X-8.2379Y-2.7677
X-8.2379Y-3.0427
X-8.2279Y-4.8577
X-8.2279Y-4.9177
X-8.2279Y-4.9777
X-8.2279Y-5.0377
X-8.2206Y-3.8105
X-8.2179Y-3.9277
X-8.2179Y-3.9877
X-8.2179Y-5.4577
X-8.1879Y-2.7177
X-8.1879Y-2.7677
X-8.1854Y-2.5352
X-8.1777Y-3.3726
X-8.1629Y-1.4427
X-8.1629Y-1.4927
X-8.1579Y-4.5277
X-8.1579Y-3.8077
X-8.1579Y-4.3777
X-8.1579Y-4.5877
X-8.1504Y-3.9352
X-8.1279Y-0.7527
X-8.1265Y-2.0313
X-8.0955Y-12.8615
X-8.0929Y-0.8277
X-8.091Y-7.03
X-8.0879Y-5.3877
X-8.065Y-16.082
X-8.045Y-15.192
X-8.0379Y-1.1777
X-8.035Y-15.282
X-8.0275Y-15.8645
X-7.9979Y-4.8277
X-7.9979Y-5.1277
X-7.995Y-15.282
X-7.9879Y-1.1777
X-7.981Y-8.885
X-7.981Y-8.93
X-7.9679Y-4.3777
X-7.9679Y-4.4477
X-7.9679Y-4.5177
X-7.965Y-14.942
X-7.964Y-11.595
X-7.9479Y-5.3077
X-7.945Y-15.192
X-7.9388Y-11.4836
X-7.938Y-11.3486
X-7.915Y-15.632
X-7.9079Y-4.3777
X-7.9Y-15.572
X-7.9Y-15.692
X-7.8976Y-9.0227
X-7.884Y-11.675
X-7.871Y-7.27
X-7.865Y-15.957
X-7.865Y-16.082
X-7.85Y-14.927
X-7.8476Y-9.0227
X-7.835Y-15.382
X-7.831Y-7.23
X-7.8Y-15.867
X-7.7731Y-4.6329
X-7.7729Y-4.0827
X-7.7679Y-3.1277
X-7.7679Y-3.5177
X-7.745Y-14.932
X-7.7427Y-4.6826
X-7.7379Y-3.0777
X-7.7379Y-3.5677
X-7.7379Y-4.1277
X-7.73Y-15.612
X-7.715Y-15.392
X-7.7079Y-3.1277
X-7.7079Y-3.6177
X-7.7079Y-4.1777
X-7.7079Y-4.7277
X-7.675Y-14.932
X-7.665Y-14.752
X-7.641Y-15.8324
X-7.6379Y-2.7277
X-7.6285Y-15.142
X-7.59Y-16.467
X-7.5879Y-1.4877
X-7.585Y-14.962
X-7.524Y-11.225
X-7.5179Y-1.4877
X-7.4779Y-3.9677
X-7.4479Y-3.6177
X-7.4279Y-3.9027
X-7.3994Y-4.0213
X-7.3929Y-4.4927
X-7.3879Y-1.5277
X-7.3779Y-1.3977
X-7.3579Y-5.1077
X-7.334Y-11.125
X-7.3279Y-1.3977
X-7.2879Y-1.6777
X-7.2854Y-4.0202
X-7.2729Y-3.3827
X-7.254Y-11.285
X-7.2379Y-4.4327
X-7.2329Y-3.2727
X-7.2329Y-4.0177
X-7.2079Y-0.9677
X-7.1879Y-3.2927
X-7.1779Y-1.9327
X-7.1679Y-0.9677
X-7.1329Y-2.2477
X-7.124Y-11.055
X-7.123Y-16.082
X-7.103Y-15.192
X-7.093Y-15.282
X-7.0855Y-15.8645
X-7.0804Y-2.3052
X-7.053Y-15.282
X-7.0379Y-3.9027
X-7.0379Y-3.8277
X-7.023Y-14.942
X-7.0079Y-3.0527
X-7.003Y-15.192
X-6.9979Y-5.5177
X-6.9929Y-2.0577
X-6.973Y-15.632
X-6.958Y-15.572
X-6.958Y-15.692
X-6.9495Y-7.2644
X-6.944Y-11.215
X-6.923Y-15.957
X-6.923Y-16.082
X-6.908Y-14.927
X-6.893Y-15.382
X-6.874Y-11.585
X-6.858Y-15.867
X-6.8179Y-5.4677
X-6.803Y-14.932
X-6.791Y-8.4869
X-6.788Y-15.612
X-6.773Y-15.392
X-6.745Y-8.836
X-6.733Y-14.932
X-6.723Y-14.752
X-6.7162Y-6.731
X-6.7162Y-7.6798
X-6.7048Y-2.9997
X-6.699Y-15.8324
X-6.6865Y-15.142
X-6.6798Y-6.9446
X-6.6581Y-7.4475
X-6.648Y-16.467
X-6.6478Y-11.8134
X-6.643Y-14.962
X-6.6379Y-4.3577
X-6.634Y-11.635
X-6.6279Y-2.7827
X-6.6257Y-6.9101
X-6.5979Y-4.7177
X-6.5952Y-6.4997
X-6.585Y-7.19
X-6.5706Y-7.7389
X-6.5604Y-11.7264
X-6.5429Y-2.3777
X-6.5316Y-6.999
X-6.504Y-11.415
X-6.4997Y-7.228
X-6.4672Y-12.7197
X-6.467Y-12.209
X-6.4348Y-0.7797
X-6.4348Y-0.8247
X-6.434Y-11.385
X-6.4337Y-8.1713
X-6.4229Y-1.9127
X-6.4081Y-7.4367
X-6.4079Y-1.6027
X-6.3829Y-5.7277
X-6.3629Y-1.6477
X-6.3455Y-12.3245
X-6.3379Y-5.7277
X-6.3279Y-4.2677
X-6.324Y-10.995
X-6.2733Y-7.227
X-6.2485Y-12.7185
X-6.2179Y-1.6777
X-6.204Y-11.225
X-6.18Y-16.082
X-6.1749Y-7.9328
X-6.16Y-15.192
X-6.15Y-15.282
X-6.1425Y-15.8645
X-6.1379Y-1.5277
X-6.125Y-8.12
X-6.11Y-15.282
X-6.08Y-14.942
X-6.0657Y-7.7861
X-6.06Y-15.192
X-6.044Y-10.995
X-6.0379Y-1.4277
X-6.0379Y-1.5377
X-6.03Y-15.632
X-6.015Y-15.572
X-6.015Y-15.692
X-5.985Y-7.89
X-5.98Y-15.957
X-5.98Y-16.082
X-5.9791Y-7.8412
X-5.965Y-14.927
X-5.95Y-15.382
X-5.9279Y-1.4277
X-5.915Y-15.867
X-5.88Y-8.06
X-5.86Y-14.932
X-5.855Y-7.88
X-5.845Y-15.612
X-5.83Y-15.392
X-5.825Y-12.965
X-5.8176Y-12.1272
X-5.79Y-14.932
X-5.78Y-14.752
X-5.775Y-7.8
X-5.756Y-15.8324
X-5.7435Y-15.142
X-5.725Y-7.4
X-5.705Y-16.467
X-5.7Y-14.962
T2
X-5.6828Y-13.717
X-5.6551Y-13.6502
X-5.6551Y-13.7838
X-5.5883Y-13.6225
X-5.5883Y-13.8115
X-5.5215Y-13.6502
X-5.5215Y-13.7838
X-5.4938Y-13.717
X-9.2079Y-10.1924
X-9.1803Y-10.1255
X-9.1803Y-10.2592
X-9.1134Y-10.0979
X-9.1134Y-10.2868
X-9.0466Y-10.1255
X-9.0466Y-10.2592
X-9.019Y-10.1924
X-11.8005Y-9.657
X-11.7728Y-9.5902
X-11.7728Y-9.7238
X-11.706Y-9.5625
X-11.706Y-9.7515
X-11.6392Y-9.5902
X-11.6392Y-9.7238
X-11.6115Y-9.657
X-7.2792Y-9.6601
X-7.2515Y-9.5933
X-7.2515Y-9.7269
X-7.1847Y-9.5656
X-7.1847Y-9.7546
X-7.1179Y-9.5933
X-7.1179Y-9.7269
X-7.0902Y-9.6601
X-7.7921Y-9.6627
X-7.7644Y-9.5959
X-7.7644Y-9.7295
X-7.6976Y-9.5682
X-7.6976Y-9.7572
X-7.6308Y-9.5959
X-7.6308Y-9.7295
X-7.6031Y-9.6627
X-9.7174Y-10.1689
X-9.6897Y-10.102
X-9.6897Y-10.2357
X-9.6229Y-10.0744
X-9.6229Y-10.2633
X-9.5561Y-10.102
X-9.5561Y-10.2357
X-9.5284Y-10.1689
X-11.7495Y-16.664
X-11.7218Y-16.5972
X-11.7218Y-16.7308
X-11.655Y-16.5695
X-11.655Y-16.7585
X-11.5882Y-16.5972
X-11.5882Y-16.7308
X-11.5605Y-16.664
X-5.9603Y-9.6601
X-5.9326Y-9.5933
X-5.9326Y-9.7269
X-5.8658Y-9.5656
X-5.8658Y-9.7546
X-5.799Y-9.5933
X-5.799Y-9.7269
X-5.7713Y-9.6601
X-7.7921Y-6.1227
X-7.7644Y-6.0559
X-7.7644Y-6.1895
X-7.6976Y-6.0282
X-7.6976Y-6.2172
X-7.6308Y-6.0559
X-7.6308Y-6.1895
X-7.6031Y-6.1227
X-11.8025Y-6.119
X-11.7748Y-6.0522
X-11.7748Y-6.1858
X-11.708Y-6.0245
X-11.708Y-6.2135
X-11.6412Y-6.0522
X-11.6412Y-6.1858
X-11.6135Y-6.119
X-7.2792Y-6.1198
X-7.2515Y-6.053
X-7.2515Y-6.1866
X-7.1847Y-6.0253
X-7.1847Y-6.2143
X-7.1179Y-6.053
X-7.1179Y-6.1866
X-7.0902Y-6.1198
X-11.3321Y-6.1227
X-11.3044Y-6.0559
X-11.3044Y-6.1895
X-11.2376Y-6.0282
X-11.2376Y-6.2172
X-11.1708Y-6.0559
X-11.1708Y-6.1895
X-11.1431Y-6.1227
X-15.3745Y-10.1681
X-15.3468Y-10.1013
X-15.3468Y-10.2349
X-15.28Y-10.0736
X-15.28Y-10.2626
X-15.2132Y-10.1013
X-15.2132Y-10.2349
X-15.1855Y-10.1681
X-15.3405Y-9.659
X-15.3128Y-9.5922
X-15.3128Y-9.7258
X-15.246Y-9.5645
X-15.246Y-9.7535
X-15.1792Y-9.5922
X-15.1792Y-9.7258
X-15.1515Y-9.659
X-11.3321Y-9.6627
X-11.3044Y-9.5959
X-11.3044Y-9.7295
X-11.2376Y-9.5682
X-11.2376Y-9.7572
X-11.1708Y-9.5959
X-11.1708Y-9.7295
X-11.1431Y-9.6627
X-15.3035Y-14.324
X-15.2758Y-14.2572
X-15.2758Y-14.3908
X-15.209Y-14.2295
X-15.209Y-14.4185
X-15.1422Y-14.2572
X-15.1422Y-14.3908
X-15.1145Y-14.324
X-15.3015Y-16.662
X-15.2738Y-16.5952
X-15.2738Y-16.7288
X-15.207Y-16.5675
X-15.207Y-16.7565
X-15.1402Y-16.5952
X-15.1402Y-16.7288
X-15.1125Y-16.662
X-6.0924Y-5.6677
X-6.0647Y-5.6009
X-6.0647Y-5.7346
X-5.9979Y-5.5733
X-5.9979Y-5.7622
X-5.9311Y-5.6009
X-5.9311Y-5.7346
X-5.9034Y-5.6677
X-15.2124Y-0.1277
X-15.1847Y-0.0609
X-15.1847Y-0.1946
X-15.1179Y-0.0333
X-15.1179Y-0.2222
X-15.0511Y-0.0609
X-15.0511Y-0.1946
X-15.0234Y-0.1277
X-15.2124Y-5.6677
X-15.1847Y-5.6009
X-15.1847Y-5.7346
X-15.1179Y-5.5733
X-15.1179Y-5.7622
X-15.0511Y-5.6009
X-15.0511Y-5.7346
X-15.0234Y-5.6677
X-9.7174Y-13.8348
X-9.6897Y-13.768
X-9.6897Y-13.9017
X-9.6229Y-13.7404
X-9.6229Y-13.9293
X-9.5561Y-13.768
X-9.5561Y-13.9017
X-9.5284Y-13.8348
X-5.6811Y-10.1898
X-5.6535Y-10.1229
X-5.6535Y-10.2566
X-5.5866Y-10.0953
X-5.5866Y-10.2842
X-5.5198Y-10.1229
X-5.5198Y-10.2566
X-5.4922Y-10.1898
X-11.7495Y-14.326
X-11.7218Y-14.2592
X-11.7218Y-14.3928
X-11.655Y-14.2315
X-11.655Y-14.4205
X-11.5882Y-14.2592
X-11.5882Y-14.3928
X-11.5605Y-14.326
X-15.3405Y-6.117
X-15.3128Y-6.0502
X-15.3128Y-6.1838
X-15.246Y-6.0225
X-15.246Y-6.2115
X-15.1792Y-6.0502
X-15.1792Y-6.1838
X-15.1515Y-6.117
X-15.4195Y-13.8429
X-15.3918Y-13.7761
X-15.3918Y-13.9097
X-15.325Y-13.7484
X-15.325Y-13.9374
X-15.2582Y-13.7761
X-15.2582Y-13.9097
X-15.2305Y-13.8429
X-9.2113Y-13.7209
X-9.1836Y-13.654
X-9.1836Y-13.7877
X-9.1168Y-13.6264
X-9.1168Y-13.8154
X-9.05Y-13.654
X-9.05Y-13.7877
X-9.0223Y-13.7209
X-5.9583Y-6.1217
X-5.9307Y-6.0549
X-5.9307Y-6.1885
X-5.8639Y-6.0272
X-5.8639Y-6.2162
X-5.797Y-6.0549
X-5.797Y-6.1885
X-5.7694Y-6.1217
X-6.0924Y-0.1277
X-6.0647Y-0.0609
X-6.0647Y-0.1946
X-5.9979Y-0.0333
X-5.9979Y-0.2222
X-5.9311Y-0.0609
X-5.9311Y-0.1946
X-5.9034Y-0.1277
T5
X-6.803Y-15.992
X-6.803Y-16.1841
X-7.745Y-15.992
X-7.745Y-16.1841
X-13.888Y-16.4392
X-13.788Y-16.4392
X-13.688Y-16.4392
X-8.688Y-15.992
X-8.688Y-16.1841
X-7.043Y-15.992
X-7.043Y-16.1841
X-13.516Y-16.4412
X-13.416Y-16.4412
X-13.316Y-16.4412
X-6.1Y-15.992
X-6.1Y-16.1841
X-9.1979Y-2.3677
X-9.1979Y-2.5174
X-5.86Y-15.992
X-5.86Y-16.1841
X-9.1979Y-2.0081
X-9.1979Y-2.1577
X-8.928Y-15.992
X-8.928Y-16.1841
X-7.985Y-15.992
X-7.985Y-16.1841
X-10.7961Y-15.5389
X-10.7961Y-15.6389
X-10.7961Y-15.7389
T6
X-10.9607Y-15.7378
X-10.5763Y-15.6173
X-10.2717Y-16.0666
X-9.9572Y-15.6173
X-9.158Y-16.497
X-8.4573Y-16.497
X-8.215Y-16.497
X-7.5143Y-16.497
X-7.273Y-16.497
X-6.5723Y-16.497
X-6.33Y-16.497
X-5.6293Y-16.497
X-6.33Y-14.492
X-6.33Y-14.592
X-6.33Y-14.692
X-6.33Y-14.792
X-6.33Y-14.892
X-6.33Y-14.992
X-6.33Y-15.092
X-6.33Y-15.192
X-6.33Y-15.292
X-6.33Y-15.392
X-6.33Y-15.492
X-6.33Y-15.592
X-6.33Y-15.692
X-6.33Y-15.792
X-6.33Y-15.892
X-6.33Y-15.992
X-6.33Y-16.092
X-6.33Y-16.192
X-6.33Y-16.292
X-6.33Y-16.392
X-6.3327Y-8.1837
X-6.3327Y-8.6562
X-9.008Y-16.497
X-8.908Y-16.497
X-8.808Y-16.497
X-8.708Y-16.497
X-8.608Y-16.497
X-7.273Y-14.492
X-7.273Y-14.592
X-7.273Y-14.692
X-7.273Y-14.792
X-7.273Y-14.892
X-7.273Y-14.992
X-7.273Y-15.092
X-7.273Y-15.192
X-7.273Y-15.292
X-7.273Y-15.392
X-7.273Y-15.492
X-7.273Y-15.592
X-7.273Y-15.692
X-7.273Y-15.792
X-7.273Y-15.892
X-7.273Y-15.992
X-7.273Y-16.092
X-7.273Y-16.192
X-7.273Y-16.292
X-7.273Y-16.392
X-5.63Y-14.492
X-5.63Y-14.592
X-5.63Y-14.692
X-5.63Y-14.792
X-5.63Y-14.892
X-5.63Y-14.992
X-5.63Y-15.092
X-5.63Y-15.192
X-5.63Y-15.292
X-5.63Y-15.392
X-5.63Y-15.492
X-5.63Y-15.592
X-5.63Y-15.692
X-5.63Y-15.792
X-5.63Y-15.892
X-5.63Y-15.992
X-5.63Y-16.092
X-5.63Y-16.192
X-5.63Y-16.292
X-5.63Y-16.392
X-7.655Y-11.723
X-7.655Y-11.823
X-7.655Y-11.923
X-7.655Y-12.023
X-7.655Y-12.123
X-7.655Y-12.223
X-7.655Y-12.323
X-7.655Y-12.423
X-7.655Y-12.523
X-7.655Y-12.623
X-7.655Y-12.723
X-7.655Y-12.823
X-7.655Y-12.923
X-7.655Y-13.023
X-7.655Y-13.123
X-7.655Y-13.223
X-7.655Y-13.323
X-7.655Y-13.423
X-7.655Y-13.523
X-7.655Y-13.623
X-6.959Y-11.724
X-6.959Y-11.824
X-6.959Y-11.924
X-6.959Y-12.024
X-6.959Y-12.124
X-6.959Y-12.224
X-6.959Y-12.324
X-6.959Y-12.424
X-6.959Y-12.524
X-6.959Y-12.624
X-6.959Y-12.724
X-6.959Y-12.824
X-6.959Y-12.924
X-6.959Y-13.024
X-6.959Y-13.124
X-6.959Y-13.224
X-6.959Y-13.324
X-6.959Y-13.424
X-6.959Y-13.524
X-6.959Y-13.624
X-13.4798Y-7.908
X-13.4798Y-8.3804
X-14.5728Y-7.204
X-14.5728Y-7.6764
X-8.07Y-16.497
X-7.97Y-16.497
X-7.87Y-16.497
X-7.77Y-16.497
X-7.67Y-16.497
X-13.4525Y-10.0546
X-13.4525Y-10.1546
X-13.4525Y-10.2546
X-13.4525Y-10.3546
X-13.4525Y-10.4546
X-13.4525Y-10.5546
X-13.4525Y-10.6546
X-13.4525Y-10.7546
X-13.4525Y-10.8546
X-13.4525Y-10.9546
X-13.4525Y-11.0546
X-13.4525Y-11.1546
X-13.4525Y-11.2546
X-13.4525Y-11.3546
X-13.4525Y-11.4546
X-13.4525Y-11.5546
X-13.4525Y-11.6546
X-13.4525Y-11.7546
X-13.4525Y-11.8546
X-13.4525Y-11.9546
X-12.7565Y-10.0556
X-12.7565Y-10.1556
X-12.7565Y-10.2556
X-12.7565Y-10.3556
X-12.7565Y-10.4556
X-12.7565Y-10.5556
X-12.7565Y-10.6556
X-12.7565Y-10.7556
X-12.7565Y-10.8556
X-12.7565Y-10.9556
X-12.7565Y-11.0556
X-12.7565Y-11.1556
X-12.7565Y-11.2556
X-12.7565Y-11.3556
X-12.7565Y-11.4556
X-12.7565Y-11.5556
X-12.7565Y-11.6556
X-12.7565Y-11.7556
X-12.7565Y-11.8556
X-12.7565Y-11.9556
X-14.5758Y-6.4976
X-14.5758Y-6.97
X-9.158Y-14.492
X-9.158Y-14.592
X-9.158Y-14.692
X-9.158Y-14.792
X-9.158Y-14.892
X-9.158Y-14.992
X-9.158Y-15.092
X-9.158Y-15.192
X-9.158Y-15.292
X-9.158Y-15.392
X-9.158Y-15.492
X-9.158Y-15.592
X-9.158Y-15.692
X-9.158Y-15.792
X-9.158Y-15.892
X-9.158Y-15.992
X-9.158Y-16.092
X-9.158Y-16.192
X-9.158Y-16.292
X-9.158Y-16.392
X-9.7358Y-9.1395
X-9.2633Y-9.1395
X-14.5708Y-7.912
X-14.5708Y-8.3844
X-8.458Y-14.492
X-8.458Y-14.592
X-8.458Y-14.692
X-8.458Y-14.792
X-8.458Y-14.892
X-8.458Y-14.992
X-8.458Y-15.092
X-8.458Y-15.192
X-8.458Y-15.292
X-8.458Y-15.392
X-8.458Y-15.492
X-8.458Y-15.592
X-8.458Y-15.692
X-8.458Y-15.792
X-8.458Y-15.892
X-8.458Y-15.992
X-8.458Y-16.092
X-8.458Y-16.192
X-8.458Y-16.292
X-8.458Y-16.392
X-11.4579Y-5.4077
X-11.3579Y-5.4077
X-11.2579Y-5.4077
X-11.1579Y-5.4077
X-7.13Y-16.497
X-7.03Y-16.497
X-6.93Y-16.497
X-6.83Y-16.497
X-6.73Y-16.497
X-13.0794Y-16.4574
X-12.9794Y-16.4574
X-12.8794Y-16.4574
X-6.573Y-14.492
X-6.573Y-14.592
X-6.573Y-14.692
X-6.573Y-14.792
X-6.573Y-14.892
X-6.573Y-14.992
X-6.573Y-15.092
X-6.573Y-15.192
X-6.573Y-15.292
X-6.573Y-15.392
X-6.573Y-15.492
X-6.573Y-15.592
X-6.573Y-15.692
X-6.573Y-15.792
X-6.573Y-15.892
X-6.573Y-15.992
X-6.573Y-16.092
X-6.573Y-16.192
X-6.573Y-16.292
X-6.573Y-16.392
X-8.0379Y-2.3877
X-8.0379Y-2.4877
X-8.0379Y-2.5877
X-8.0379Y-2.6877
X-8.0379Y-2.7877
X-8.215Y-14.492
X-8.215Y-14.592
X-8.215Y-14.692
X-8.215Y-14.792
X-8.215Y-14.892
X-8.215Y-14.992
X-8.215Y-15.092
X-8.215Y-15.192
X-8.215Y-15.292
X-8.215Y-15.392
X-8.215Y-15.492
X-8.215Y-15.592
X-8.215Y-15.692
X-8.215Y-15.792
X-8.215Y-15.892
X-8.215Y-15.992
X-8.215Y-16.092
X-8.215Y-16.192
X-8.215Y-16.292
X-8.215Y-16.392
X-13.4845Y-6.4956
X-13.4845Y-6.968
X-8.5646Y-10.7017
X-8.0922Y-10.7017
X-13.4868Y-7.2
X-13.4868Y-7.6724
X-7.515Y-14.492
X-7.515Y-14.592
X-7.515Y-14.692
X-7.515Y-14.792
X-7.515Y-14.892
X-7.515Y-14.992
X-7.515Y-15.092
X-7.515Y-15.192
X-7.515Y-15.292
X-7.515Y-15.392
X-7.515Y-15.492
X-7.515Y-15.592
X-7.515Y-15.692
X-7.515Y-15.792
X-7.515Y-15.892
X-7.515Y-15.992
X-7.515Y-16.092
X-7.515Y-16.192
X-7.515Y-16.292
X-7.515Y-16.392
X-6.18Y-16.497
X-6.08Y-16.497
X-5.98Y-16.497
X-5.88Y-16.497
X-5.78Y-16.497
X-10.9579Y-5.4077
X-10.8579Y-5.4077
X-10.7579Y-5.4077
X-10.6579Y-5.4077
T7
X-9.6979Y-5.2977
X-9.6979Y-5.3977
X-9.5979Y-5.2977
X-9.5979Y-5.3977
X-9.4979Y-5.2977
X-9.4979Y-5.3977
X-9.3979Y-5.2977
X-9.3979Y-5.3977
X-9.2979Y-5.2977
X-9.2979Y-5.3977
X-9.1979Y-5.2977
X-9.1979Y-5.3977
X-9.0979Y-5.2977
X-9.0979Y-5.3977
X-8.9979Y-5.2977
X-8.9979Y-5.3977
X-8.8979Y-5.2977
X-8.8979Y-5.3977
X-8.7979Y-5.2977
X-8.7979Y-5.3977
X-8.6979Y-5.2977
X-8.6979Y-5.3977
X-8.5979Y-5.2977
X-8.5979Y-5.3977
X-8.4979Y-5.2977
X-8.4979Y-5.3977
X-13.6529Y-5.2977
X-13.6529Y-5.3977
X-13.5529Y-5.2977
X-13.5529Y-5.3977
X-13.4529Y-5.2977
X-13.4529Y-5.3977
X-13.3529Y-5.2977
X-13.3529Y-5.3977
X-13.2529Y-5.2977
X-13.2529Y-5.3977
X-13.1529Y-5.2977
X-13.1529Y-5.3977
X-13.0529Y-5.2977
X-13.0529Y-5.3977
X-12.9529Y-5.2977
X-12.9529Y-5.3977
X-12.8529Y-5.2977
X-12.8529Y-5.3977
X-12.7529Y-5.2977
X-12.7529Y-5.3977
X-12.6529Y-5.2977
X-12.6529Y-5.3977
X-12.5529Y-5.2977
X-12.5529Y-5.3977
X-12.4529Y-5.2977
X-12.4529Y-5.3977
T8
X-10.7985Y-16.2969
X-10.6985Y-16.2969
X-10.5985Y-16.2969
X-10.1016Y-16.3067
X-10.0016Y-16.3067
X-9.9016Y-16.3067
X-14.5741Y-13.2572
X-14.4741Y-13.2572
X-14.3741Y-13.2572
X-6.4715Y-6.4399
X-6.4715Y-6.5399
X-6.4715Y-6.6399
T9
X-10.4676Y-8.1227
X-10.4676Y-9.1227
X-10.9276Y-8.1227
X-10.9276Y-9.1227
X-10.1676Y-8.1227
X-10.1676Y-9.1227
X-11.2276Y-8.1227
X-11.2276Y-9.1227
T10
X-15.196Y-7.5331
X-15.196Y-7.735
X-13.158Y-9.635
X-12.9561Y-9.635
X-5.5855Y-12.7675
X-5.5855Y-12.9675
X-5.5855Y-13.1675
X-5.5855Y-13.3675
X-7.6976Y-8.5508
X-7.6976Y-8.7527
X-9.113Y-12.805
X-9.113Y-13.005
X-9.113Y-13.205
X-9.113Y-13.405
X-13.79Y-13.8328
X-13.5881Y-13.8328
X-11.6665Y-15.7406
X-11.6665Y-15.9425
X-15.194Y-7.0211
X-15.194Y-7.223
X-13.5613Y-6.7298
X-13.0042Y-6.968
X-13.0022Y-6.4936
X-7.1807Y-6.9665
X-7.1807Y-7.1684
X-11.76Y-8.587
X-11.76Y-8.7889
X-7.6976Y-7.4627
X-7.6976Y-7.6627
X-7.6976Y-7.8627
X-7.6976Y-8.0627
X-8.5646Y-11.182
X-8.3265Y-10.6249
X-8.0902Y-11.1839
X-13.5636Y-7.4342
X-13.0065Y-7.6724
X-13.0045Y-7.198
X-12.722Y-9.635
X-12.5201Y-9.635
X-11.765Y-7.545
X-11.765Y-7.7469
X-5.5865Y-11.9255
X-5.5865Y-12.1255
X-5.5865Y-12.3255
X-5.5865Y-12.5255
X-10.9576Y-9.6627
X-10.7557Y-9.6627
X-15.199Y-16.105
X-15.199Y-16.3069
X-6.4095Y-8.418
X-5.8524Y-8.6562
X-5.8504Y-8.1818
X-15.19Y-8.5791
X-15.19Y-8.781
X-9.1076Y-11.04
X-9.1076Y-11.2419
X-15.194Y-8.0591
X-15.194Y-8.261
X-15.1965Y-14.9325
X-15.1965Y-15.1344
X-13.594Y-9.635
X-13.3921Y-9.635
X-13.5566Y-8.1422
X-12.9995Y-8.3804
X-12.9975Y-7.906
X-14.6496Y-7.4382
X-14.0925Y-7.6764
X-14.0905Y-7.202
X-11.761Y-8.071
X-11.761Y-8.2729
X-11.763Y-7.029
X-11.763Y-7.2309
X-6.8462Y-6.1257
X-6.6444Y-6.1257
X-5.8668Y-9.0882
X-5.8668Y-9.29
X-9.1079Y-10.5133
X-9.1079Y-10.7152
X-5.587Y-10.7572
X-5.587Y-10.9572
X-5.587Y-11.1572
X-5.587Y-11.3572
X-14.6526Y-6.7318
X-14.0955Y-6.97
X-14.0935Y-6.4956
X-14.03Y-9.635
X-13.8281Y-9.635
X-15.2015Y-15.5075
X-15.2015Y-15.7094
X-9.113Y-11.963
X-9.113Y-12.163
X-9.113Y-12.363
X-9.113Y-12.563
X-9.7358Y-9.6198
X-9.4976Y-9.0627
X-9.2614Y-9.6218
X-14.3288Y-10.1807
X-14.1269Y-10.1807
X-14.6476Y-8.1462
X-14.0905Y-8.3844
X-14.0885Y-7.91
T11
X-9.837Y-10.7738
X-9.837Y-10.9738
X-9.837Y-11.1738
X-9.837Y-11.3738
X-9.837Y-11.5738
X-9.837Y-11.7738
T12
X-10.792Y-15.1434
X-10.792Y-15.3599
X-10.6266Y-15.1434
X-10.6266Y-15.3599
X-10.0749Y-15.1434
X-10.0749Y-15.3599
X-9.9095Y-15.1434
X-9.9095Y-15.3599
T13
X-11.3579Y-5.5177
X-11.3579Y-5.6377
X-11.2579Y-5.5177
X-11.2579Y-5.6377
X-11.1579Y-5.5177
X-11.1579Y-5.6377
X-10.7579Y-5.5177
X-10.7579Y-5.6377
X-10.6579Y-5.5177
X-10.6579Y-5.6377
X-9.168Y-16.592
X-9.018Y-14.492
X-8.638Y-14.4895
X-8.448Y-16.592
X-8.225Y-16.592
X-8.075Y-14.492
X-7.695Y-14.4895
X-7.505Y-16.592
X-7.283Y-16.592
X-7.133Y-14.492
X-6.753Y-14.4895
X-6.563Y-16.592
X-6.34Y-16.592
X-6.19Y-14.492
X-5.81Y-14.4895
X-5.62Y-16.592
X-15.064Y-8.059
X-15.064Y-8.261
X-15.3265Y-14.9325
X-15.3265Y-15.1345
X-13.594Y-9.765
X-13.392Y-9.765
X-15.1329Y-13.0147
X-15.1329Y-13.18
X-15.1329Y-13.3454
X-15.1329Y-13.5107
X-14.9164Y-13.0147
X-14.9164Y-13.18
X-14.9164Y-13.3454
X-14.9164Y-13.5107
X-15.1309Y-10.4987
X-15.1309Y-10.664
X-15.1309Y-10.8294
X-15.1309Y-10.9947
X-14.9144Y-10.4987
X-14.9144Y-10.664
X-14.9144Y-10.8294
X-14.9144Y-10.9947
X-11.891Y-8.071
X-11.891Y-8.273
X-11.893Y-7.029
X-11.893Y-7.231
X-6.8464Y-5.9957
X-6.6444Y-5.9957
X-5.7368Y-9.088
X-5.7368Y-9.29
X-7.134Y-5.0312
X-7.134Y-5.2477
X-6.9686Y-5.0312
X-6.9686Y-5.2477
X-6.8033Y-5.0312
X-6.8033Y-5.2477
X-6.6379Y-5.0312
X-6.6379Y-5.2477
X-9.2379Y-10.5133
X-9.2379Y-10.7133
X-5.462Y-10.7572
X-5.462Y-10.9572
X-5.462Y-11.1572
X-5.462Y-11.3572
X-14.03Y-9.765
X-13.828Y-9.765
X-15.3315Y-15.5075
X-15.3315Y-15.7095
X-9.238Y-11.963
X-9.238Y-12.163
X-9.238Y-12.363
X-9.238Y-12.563
X-14.3269Y-10.0507
X-14.1269Y-10.0507
X-15.066Y-7.533
X-15.066Y-7.735
X-13.158Y-9.765
X-12.956Y-9.765
X-5.4605Y-12.7675
X-5.4605Y-12.9675
X-5.4605Y-13.1675
X-5.4605Y-13.3675
X-6.524Y-10.555
X-6.524Y-10.7715
X-6.3586Y-10.555
X-6.3586Y-10.7715
X-6.1933Y-10.555
X-6.1933Y-10.7715
X-6.0279Y-10.555
X-6.0279Y-10.7715
X-7.5676Y-8.5507
X-7.5676Y-8.7527
X-9.238Y-12.805
X-9.238Y-13.005
X-9.238Y-13.205
X-9.238Y-13.405
X-13.79Y-13.9628
X-13.59Y-13.9628
X-11.5365Y-15.7405
X-11.5365Y-15.9425
X-15.064Y-7.021
X-15.064Y-7.223
X-7.3107Y-6.9665
X-7.3107Y-7.1685
X-11.89Y-8.587
X-11.89Y-8.789
X-7.5726Y-7.4627
X-7.5726Y-7.6627
X-7.5726Y-7.8627
X-7.5726Y-8.0627
X-12.722Y-9.765
X-12.52Y-9.765
X-11.895Y-7.545
X-11.895Y-7.747
X-5.4615Y-11.9255
X-5.4615Y-12.1255
X-5.4615Y-12.3255
X-5.4615Y-12.5255
X-10.9576Y-9.7927
X-10.7556Y-9.7927
X-15.329Y-16.105
X-15.329Y-16.307
X-15.06Y-8.579
X-15.06Y-8.781
X-9.2376Y-11.04
X-9.2376Y-11.24
T14
X-9.6149Y-10.7751
X-9.6149Y-11.1807
X-9.6149Y-11.3767
X-9.6149Y-11.5827
X-9.6149Y-11.7827
X-9.6139Y-10.9797
T15
X-15.1179Y-5.6677
X-9.6229Y-13.8348
X-5.5866Y-10.1898
X-11.655Y-14.326
X-15.246Y-6.117
X-15.325Y-13.8429
X-9.1168Y-13.7209
X-5.8639Y-6.1217
X-11.1379Y-14.7103
X-5.9979Y-0.1277
X-5.5883Y-13.717
X-9.1134Y-10.1924
X-11.706Y-9.657
X-7.1847Y-9.6601
X-7.6976Y-9.6627
X-9.6229Y-10.1689
X-11.655Y-16.664
X-5.8658Y-9.6601
X-7.6976Y-6.1227
X-11.708Y-6.119
X-7.1847Y-6.1198
X-9.4843Y-16.3638
X-9.4843Y-14.7103
X-11.2376Y-6.1227
X-15.28Y-10.1681
X-15.246Y-9.659
X-11.1379Y-16.3638
X-11.2376Y-9.6627
X-15.209Y-14.324
X-15.207Y-16.662
X-5.9979Y-5.6677
X-15.1179Y-0.1277
T16
X-15.3379Y-11.7497
X-10.0976Y-6.1527
X-8.7976Y-6.1527
X-7.3552Y-10.118
X-7.3779Y-0.3127
T3
G00X-6.0928Y-14.5972
M15
G01X-6.0928Y-14.613
M16
G05
G00X-5.9022Y-14.5972
M15
G01X-5.9022Y-14.613
M16
G05
G00X-7.9778Y-14.5972
M15
G01X-7.9778Y-14.613
M16
G05
G00X-7.7872Y-14.5972
M15
G01X-7.7872Y-14.613
M16
G05
G00X-8.9208Y-14.5972
M15
G01X-8.9208Y-14.613
M16
G05
G00X-8.7302Y-14.5972
M15
G01X-8.7302Y-14.613
M16
G05
G00X-7.0358Y-14.5972
M15
G01X-7.0358Y-14.613
M16
G05
G00X-6.8452Y-14.5972
M15
G01X-6.8452Y-14.613
M16
G05
T4
G00X-6.105Y-14.4772
M15
G01X-6.105Y-14.4968
M16
G05
G00X-5.89Y-14.4772
M15
G01X-5.89Y-14.4968
M16
G05
G00X-7.99Y-14.4772
M15
G01X-7.99Y-14.4968
M16
G05
G00X-7.775Y-14.4772
M15
G01X-7.775Y-14.4968
M16
G05
G00X-8.933Y-14.4772
M15
G01X-8.933Y-14.4968
M16
G05
G00X-8.718Y-14.4772
M15
G01X-8.718Y-14.4968
M16
G05
G00X-7.048Y-14.4772
M15
G01X-7.048Y-14.4968
M16
G05
G00X-6.833Y-14.4772
M15
G01X-6.833Y-14.4968
M16
G05
T0
M30
