M48
; DRILL file {KiCad (5.1.5)-3} date 11/6/2020 3:20:11 AM
; FORMAT={-:-/ absolute / inch / decimal}
; #@! TF.CreationDate,2020-11-06T03:20:11-03:00
; #@! TF.GenerationSoftware,Kicad,Pcbnew,(5.1.5)-3
; #@! TF.FileFunction,NonPlated,1,2,NPTH
FMAT,2
INCH
T1C0.0197
T2C0.1181
T3C0.1378
%
G90
G05
T1
X-11.1039Y-14.0297
X-11.0739Y-14.0297
X-11.0439Y-14.0297
X-11.0139Y-14.0297
X-10.9839Y-14.0297
X-6.509Y-15.96
X-6.509Y-15.99
X-6.509Y-16.02
X-6.509Y-16.05
X-6.509Y-16.08
X-6.399Y-15.96
X-6.399Y-15.99
X-6.399Y-16.02
X-6.399Y-16.05
X-6.399Y-16.08
X-8.6099Y-9.8597
X-8.6099Y-9.9697
X-8.5799Y-9.8597
X-8.5799Y-9.9697
X-8.5499Y-9.8597
X-8.5499Y-9.9697
X-8.5199Y-9.8597
X-8.5199Y-9.9697
X-8.4899Y-9.8597
X-8.4899Y-9.9697
X-15.0029Y-14.0307
X-15.0029Y-14.1407
X-14.9729Y-14.0307
X-14.9729Y-14.1407
X-14.9429Y-14.0307
X-14.9429Y-14.1407
X-14.9129Y-14.0307
X-14.9129Y-14.1407
X-14.8829Y-14.0307
X-14.8829Y-14.1407
X-9.4269Y-10.2787
X-9.4269Y-10.3087
X-9.4269Y-10.3387
X-9.4269Y-10.3687
X-9.4269Y-10.3987
X-9.3169Y-10.2787
X-9.3169Y-10.3087
X-9.3169Y-10.3387
X-9.3169Y-10.3687
X-9.3169Y-10.3987
X-11.5289Y-7.8447
X-11.5289Y-7.8747
X-11.5289Y-7.9047
X-11.5289Y-7.9347
X-11.5289Y-7.9647
X-11.4189Y-7.8447
X-11.4189Y-7.8747
X-11.4189Y-7.9047
X-11.4189Y-7.9347
X-11.4189Y-7.9647
X-5.6629Y-6.2847
X-5.6629Y-6.3147
X-5.6629Y-6.3447
X-5.6629Y-6.3747
X-5.6629Y-6.4047
X-6.5809Y-5.8197
X-6.5809Y-5.9297
X-6.5509Y-5.8197
X-6.5509Y-5.9297
X-6.5209Y-5.8197
X-6.5209Y-5.9297
X-6.4909Y-5.8197
X-6.4909Y-5.9297
X-6.4609Y-5.8197
X-6.4609Y-5.9297
X-12.0029Y-5.8197
X-12.0029Y-5.9297
X-11.9729Y-5.8197
X-11.9729Y-5.9297
X-11.9429Y-5.8197
X-11.9429Y-5.9297
X-11.9129Y-5.8197
X-11.9129Y-5.9297
X-11.8829Y-5.8197
X-11.8829Y-5.9297
X-13.4999Y0.0313
X-13.4699Y0.0313
X-13.4399Y0.0313
X-13.4099Y0.0313
X-13.3799Y0.0313
X-7.9529Y-5.8197
X-7.9529Y-5.9297
X-7.9229Y-5.8197
X-7.9229Y-5.9297
X-7.8929Y-5.8197
X-7.8929Y-5.9297
X-7.8629Y-5.8197
X-7.8629Y-5.9297
X-7.8329Y-5.8197
X-7.8329Y-5.9297
X-13.5029Y-9.8597
X-13.5029Y-9.9697
X-13.4729Y-9.8597
X-13.4729Y-9.9697
X-13.4429Y-9.8597
X-13.4429Y-9.9697
X-13.4129Y-9.8597
X-13.4129Y-9.9697
X-13.3829Y-9.8597
X-13.3829Y-9.9697
X-5.3849Y-11.8407
X-5.3849Y-11.8707
X-5.3849Y-11.9007
X-5.3849Y-11.9307
X-5.3849Y-11.9607
X-10.155Y-14.03
X-10.125Y-14.03
X-10.095Y-14.03
X-10.065Y-14.03
X-10.035Y-14.03
X-15.5294Y-11.8697
X-15.5294Y-11.8997
X-15.5294Y-11.9297
X-15.5294Y-11.9597
X-15.5294Y-11.9897
X-6.8879Y-13.9007
X-6.8579Y-13.9007
X-6.8279Y-13.9007
X-6.7979Y-13.9007
X-6.7679Y-13.9007
X-9.4279Y-13.4047
X-9.4279Y-13.4347
X-9.4279Y-13.4647
X-9.4279Y-13.4947
X-9.4279Y-13.5247
X-9.3179Y-13.4047
X-9.3179Y-13.4347
X-9.3179Y-13.4647
X-9.3179Y-13.4947
X-9.3179Y-13.5247
X-7.4859Y-9.4097
X-7.4859Y-9.4397
X-7.4859Y-9.4697
X-7.4859Y-9.4997
X-7.4859Y-9.5297
X-7.3759Y-9.4097
X-7.3759Y-9.4397
X-7.3759Y-9.4697
X-7.3759Y-9.4997
X-7.3759Y-9.5297
X-5.6629Y-9.4097
X-5.6629Y-9.4397
X-5.6629Y-9.4697
X-5.6629Y-9.4997
X-5.6629Y-9.5297
X-15.2782Y-5.3947
X-15.2782Y-5.4247
X-15.2782Y-5.4547
X-15.2782Y-5.4847
X-15.2782Y-5.5147
X-11.5279Y-6.2847
X-11.5279Y-6.3147
X-11.5279Y-6.3447
X-11.5279Y-6.3747
X-11.5279Y-6.4047
X-11.4179Y-6.2847
X-11.4179Y-6.3147
X-11.4179Y-6.3447
X-11.4179Y-6.3747
X-11.4179Y-6.4047
X-15.2782Y-2.0019
X-15.2782Y-2.0319
X-15.2782Y-2.0619
X-15.2782Y-2.0919
X-15.2782Y-2.1219
X-15.4609Y-6.2817
X-15.4609Y-6.3117
X-15.4609Y-6.3417
X-15.4609Y-6.3717
X-15.4609Y-6.4017
X-7.9519Y0.0313
X-7.9219Y0.0313
X-7.8919Y0.0313
X-7.8619Y0.0313
X-7.8319Y0.0313
X-11.0769Y0.0313
X-11.0469Y0.0313
X-11.0169Y0.0313
X-10.9869Y0.0313
X-10.9569Y0.0313
X-12.037Y-16.868
X-12.007Y-16.868
X-11.977Y-16.868
X-11.947Y-16.868
X-11.917Y-16.868
X-5.8309Y-13.9007
X-5.8009Y-13.9007
X-5.7709Y-13.9007
X-5.7409Y-13.9007
X-5.7109Y-13.9007
X-6.508Y-14.935
X-6.508Y-14.965
X-6.508Y-14.995
X-6.508Y-15.025
X-6.508Y-15.055
X-6.398Y-14.935
X-6.398Y-14.965
X-6.398Y-14.995
X-6.398Y-15.025
X-6.398Y-15.055
X-8.6089Y-13.9017
X-8.6089Y-14.0117
X-8.5789Y-13.9017
X-8.5789Y-14.0117
X-8.5489Y-13.9017
X-8.5489Y-14.0117
X-8.5189Y-13.9017
X-8.5189Y-14.0117
X-8.4889Y-13.9017
X-8.4889Y-14.0117
X-10.865Y-16.513
X-10.865Y-16.623
X-10.835Y-16.513
X-10.835Y-16.623
X-10.805Y-16.513
X-10.805Y-16.623
X-10.775Y-16.513
X-10.775Y-16.623
X-10.745Y-16.513
X-10.745Y-16.623
X-10.865Y-14.444
X-10.865Y-14.554
X-10.835Y-14.444
X-10.835Y-14.554
X-10.805Y-14.444
X-10.805Y-14.554
X-10.775Y-14.444
X-10.775Y-14.554
X-10.745Y-14.444
X-10.745Y-14.554
X-15.2782Y-3.6019
X-15.2782Y-3.6319
X-15.2782Y-3.6619
X-15.2782Y-3.6919
X-15.2782Y-3.7219
X-5.8479Y-3.6167
X-5.8479Y-3.6467
X-5.8479Y-3.6767
X-5.8479Y-3.7067
X-5.8479Y-3.7367
X-9.336Y-14.935
X-9.336Y-14.965
X-9.336Y-14.995
X-9.336Y-15.025
X-9.336Y-15.055
X-9.226Y-14.935
X-9.226Y-14.965
X-9.226Y-14.995
X-9.226Y-15.025
X-9.226Y-15.055
X-14.9779Y-9.8597
X-14.9779Y-9.9697
X-14.9479Y-9.8597
X-14.9479Y-9.9697
X-14.9179Y-9.8597
X-14.9179Y-9.9697
X-14.8879Y-9.8597
X-14.8879Y-9.9697
X-14.8579Y-9.8597
X-14.8579Y-9.9697
X-15.5289Y-10.2947
X-15.5289Y-10.3247
X-15.5289Y-10.3547
X-15.5289Y-10.3847
X-15.5289Y-10.4147
X-15.4599Y-9.4067
X-15.4599Y-9.4367
X-15.4599Y-9.4667
X-15.4599Y-9.4967
X-15.4599Y-9.5267
X-8.393Y-14.935
X-8.393Y-14.965
X-8.393Y-14.995
X-8.393Y-15.025
X-8.393Y-15.055
X-8.283Y-14.935
X-8.283Y-14.965
X-8.283Y-14.995
X-8.283Y-15.025
X-8.283Y-15.055
X-12.0279Y-14.0307
X-12.0279Y-14.1407
X-11.9979Y-14.0307
X-11.9979Y-14.1407
X-11.9679Y-14.0307
X-11.9679Y-14.1407
X-11.9379Y-14.0307
X-11.9379Y-14.1407
X-11.9079Y-14.0307
X-11.9079Y-14.1407
X-5.8469Y-0.3657
X-5.8469Y-0.3957
X-5.8469Y-0.4257
X-5.8469Y-0.4557
X-5.8469Y-0.4857
X-5.565Y-15.96
X-5.565Y-15.99
X-5.565Y-16.02
X-5.565Y-16.05
X-5.565Y-16.08
X-5.6629Y-7.8437
X-5.6629Y-7.8737
X-5.6629Y-7.9037
X-5.6629Y-7.9337
X-5.6629Y-7.9637
X-11.406Y-15.96
X-11.406Y-15.99
X-11.406Y-16.02
X-11.406Y-16.05
X-11.406Y-16.08
X-11.296Y-15.96
X-11.296Y-15.99
X-11.296Y-16.02
X-11.296Y-16.05
X-11.296Y-16.08
X-14.9759Y0.0313
X-14.9459Y0.0313
X-14.9159Y0.0313
X-14.8859Y0.0313
X-14.8559Y0.0313
X-9.337Y-15.96
X-9.337Y-15.99
X-9.337Y-16.02
X-9.337Y-16.05
X-9.337Y-16.08
X-9.227Y-15.96
X-9.227Y-15.99
X-9.227Y-16.02
X-9.227Y-16.05
X-9.227Y-16.08
X-5.3849Y-10.3357
X-5.3849Y-10.3657
X-5.3849Y-10.3957
X-5.3849Y-10.4257
X-5.3849Y-10.4557
X-15.5289Y-13.5197
X-15.5289Y-13.5497
X-15.5289Y-13.5797
X-15.5289Y-13.6097
X-15.5289Y-13.6397
X-12.0029Y-9.8597
X-12.0029Y-9.9697
X-11.9729Y-9.8597
X-11.9729Y-9.9697
X-11.9429Y-9.8597
X-11.9429Y-9.9697
X-11.9129Y-9.8597
X-11.9129Y-9.9697
X-11.8829Y-9.8597
X-11.8829Y-9.9697
X-15.4609Y-7.8557
X-15.4609Y-7.8857
X-15.4609Y-7.9157
X-15.4609Y-7.9457
X-15.4609Y-7.9757
X-13.5279Y-14.0307
X-13.5279Y-14.1407
X-13.4979Y-14.0307
X-13.4979Y-14.1407
X-13.4679Y-14.0307
X-13.4679Y-14.1407
X-13.4379Y-14.0307
X-13.4379Y-14.1407
X-13.4079Y-14.0307
X-13.4079Y-14.1407
X-15.4695Y-14.6568
X-15.4695Y-14.6868
X-15.4695Y-14.7168
X-15.4695Y-14.7468
X-15.4695Y-14.7768
X-7.4869Y-7.8447
X-7.4869Y-7.8747
X-7.4869Y-7.9047
X-7.4869Y-7.9347
X-7.4869Y-7.9647
X-7.3769Y-7.8447
X-7.3769Y-7.8747
X-7.3769Y-7.9047
X-7.3769Y-7.9347
X-7.3769Y-7.9647
X-15.47Y-16.227
X-15.47Y-16.257
X-15.47Y-16.287
X-15.47Y-16.317
X-15.47Y-16.347
X-11.5279Y-9.4097
X-11.5279Y-9.4397
X-11.5279Y-9.4697
X-11.5279Y-9.4997
X-11.5279Y-9.5297
X-11.4179Y-9.4097
X-11.4179Y-9.4397
X-11.4179Y-9.4697
X-11.4179Y-9.4997
X-11.4179Y-9.5297
X-7.451Y-14.935
X-7.451Y-14.965
X-7.451Y-14.995
X-7.451Y-15.025
X-7.451Y-15.055
X-7.341Y-14.935
X-7.341Y-14.965
X-7.341Y-14.995
X-7.341Y-15.025
X-7.341Y-15.055
X-9.4279Y-5.8197
X-9.4279Y-5.9297
X-9.3979Y-5.8197
X-9.3979Y-5.9297
X-9.3679Y-5.8197
X-9.3679Y-5.9297
X-9.3379Y-5.8197
X-9.3379Y-5.9297
X-9.3079Y-5.8197
X-9.3079Y-5.9297
X-12.0009Y0.0313
X-11.9709Y0.0313
X-11.9409Y0.0313
X-11.9109Y0.0313
X-11.8809Y0.0313
X-7.4859Y-6.2847
X-7.4859Y-6.3147
X-7.4859Y-6.3447
X-7.4859Y-6.3747
X-7.4859Y-6.4047
X-7.3759Y-6.2847
X-7.3759Y-6.3147
X-7.3759Y-6.3447
X-7.3759Y-6.3747
X-7.3759Y-6.4047
X-13.5029Y-5.8197
X-13.5029Y-5.9297
X-13.4729Y-5.8197
X-13.4729Y-5.9297
X-13.4429Y-5.8197
X-13.4429Y-5.9297
X-13.4129Y-5.8197
X-13.4129Y-5.9297
X-13.3829Y-5.8197
X-13.3829Y-5.9297
X-13.537Y-16.868
X-13.507Y-16.868
X-13.477Y-16.868
X-13.447Y-16.868
X-13.417Y-16.868
X-6.581Y-9.859
X-6.581Y-9.969
X-6.551Y-9.859
X-6.551Y-9.969
X-6.521Y-9.859
X-6.521Y-9.969
X-6.491Y-9.859
X-6.491Y-9.969
X-6.461Y-9.859
X-6.461Y-9.969
X-11.0779Y-9.8597
X-11.0779Y-9.9697
X-11.0479Y-9.8597
X-11.0479Y-9.9697
X-11.0179Y-9.8597
X-11.0179Y-9.9697
X-10.9879Y-9.8597
X-10.9879Y-9.9697
X-10.9579Y-9.8597
X-10.9579Y-9.9697
X-8.394Y-15.96
X-8.394Y-15.99
X-8.394Y-16.02
X-8.394Y-16.05
X-8.394Y-16.08
X-8.284Y-15.96
X-8.284Y-15.99
X-8.284Y-16.02
X-8.284Y-16.05
X-8.284Y-16.08
X-5.565Y-14.935
X-5.565Y-14.965
X-5.565Y-14.995
X-5.565Y-15.025
X-5.565Y-15.055
X-6.5799Y0.0313
X-6.5499Y0.0313
X-6.5199Y0.0313
X-6.4899Y0.0313
X-6.4599Y0.0313
X-5.8469Y-2.0157
X-5.8469Y-2.0457
X-5.8469Y-2.0757
X-5.8469Y-2.1057
X-5.8469Y-2.1357
X-15.2782Y-0.3519
X-15.2782Y-0.3819
X-15.2782Y-0.4119
X-15.2782Y-0.4419
X-15.2782Y-0.4719
X-9.4269Y0.0313
X-9.3969Y0.0313
X-9.3669Y0.0313
X-9.3369Y0.0313
X-9.3069Y0.0313
X-7.452Y-15.96
X-7.452Y-15.99
X-7.452Y-16.02
X-7.452Y-16.05
X-7.452Y-16.08
X-7.342Y-15.96
X-7.342Y-15.99
X-7.342Y-16.02
X-7.342Y-16.05
X-7.342Y-16.08
X-9.84Y-14.444
X-9.84Y-14.554
X-9.81Y-14.444
X-9.81Y-14.554
X-9.78Y-14.444
X-9.78Y-14.554
X-9.75Y-14.444
X-9.75Y-14.554
X-9.72Y-14.444
X-9.72Y-14.554
X-9.958Y-9.859
X-9.958Y-9.969
X-9.928Y-9.859
X-9.928Y-9.969
X-9.898Y-9.859
X-9.898Y-9.969
X-9.868Y-9.859
X-9.868Y-9.969
X-9.838Y-9.859
X-9.838Y-9.969
X-14.9779Y-5.8197
X-14.9779Y-5.9297
X-14.9479Y-5.8197
X-14.9479Y-5.9297
X-14.9179Y-5.8197
X-14.9179Y-5.9297
X-14.8879Y-5.8197
X-14.8879Y-5.9297
X-14.8579Y-5.8197
X-14.8579Y-5.9297
X-9.84Y-16.513
X-9.84Y-16.623
X-9.81Y-16.513
X-9.81Y-16.623
X-9.78Y-16.513
X-9.78Y-16.623
X-9.75Y-16.513
X-9.75Y-16.623
X-9.72Y-16.513
X-9.72Y-16.623
X-5.3849Y-13.4057
X-5.3849Y-13.4357
X-5.3849Y-13.4657
X-5.3849Y-13.4957
X-5.3849Y-13.5257
X-9.4279Y-11.8407
X-9.4279Y-11.8707
X-9.4279Y-11.9007
X-9.4279Y-11.9307
X-9.4279Y-11.9607
X-9.3179Y-11.8407
X-9.3179Y-11.8707
X-9.3179Y-11.9007
X-9.3179Y-11.9307
X-9.3179Y-11.9607
X-5.8479Y-5.4087
X-5.8479Y-5.4387
X-5.8479Y-5.4687
X-5.8479Y-5.4987
X-5.8479Y-5.5287
X-11.406Y-14.935
X-11.406Y-14.965
X-11.406Y-14.995
X-11.406Y-15.025
X-11.406Y-15.055
X-11.296Y-14.935
X-11.296Y-14.965
X-11.296Y-14.995
X-11.296Y-15.025
X-11.296Y-15.055
X-15.015Y-16.868
X-14.985Y-16.868
X-14.955Y-16.868
X-14.925Y-16.868
X-14.895Y-16.868
X-11.0779Y-5.8197
X-11.0779Y-5.9297
X-11.0479Y-5.8197
X-11.0479Y-5.9297
X-11.0179Y-5.8197
X-11.0179Y-5.9297
X-10.9879Y-5.8197
X-10.9879Y-5.9297
X-10.9579Y-5.8197
X-10.9579Y-5.9297
T2
X-10.7093Y-14.856
X-9.9922Y-14.856
T3
X-14.4741Y-13.9131
X-5.8156Y-6.5399
T0
M30
