G04 #@! TF.GenerationSoftware,KiCad,Pcbnew,(5.1.5)-3*
G04 #@! TF.CreationDate,2020-11-06T03:20:09-03:00*
G04 #@! TF.ProjectId,baseline_small,62617365-6c69-46e6-955f-736d616c6c2e,0.1*
G04 #@! TF.SameCoordinates,Original*
G04 #@! TF.FileFunction,Other,Comment*
%FSLAX46Y46*%
G04 Gerber Fmt 4.6, Leading zero omitted, Abs format (unit mm)*
G04 Created by KiCad (PCBNEW (5.1.5)-3) date 2020-11-06 03:20:09*
%MOMM*%
%LPD*%
G04 APERTURE LIST*
%ADD10C,0.500000*%
%ADD11C,0.120000*%
%ADD12C,2.000000*%
%ADD13C,0.150000*%
G04 APERTURE END LIST*
D10*
X-410600068Y-233686859D02*
X-407266735Y-233686859D01*
X-412504830Y-234877335D02*
X-408933401Y-236067812D01*
X-408933401Y-232972574D01*
X-410600068Y-228924954D02*
X-407266735Y-228924954D01*
X-412504830Y-230115431D02*
X-408933401Y-231305907D01*
X-408933401Y-228210669D01*
X-411790544Y-226544002D02*
X-412028640Y-226305907D01*
X-412266735Y-225829716D01*
X-412266735Y-224639240D01*
X-412028640Y-224163050D01*
X-411790544Y-223924954D01*
X-411314354Y-223686859D01*
X-410838163Y-223686859D01*
X-410123878Y-223924954D01*
X-407266735Y-226782097D01*
X-407266735Y-223686859D01*
X-407742925Y-221544002D02*
X-407504830Y-221305907D01*
X-407266735Y-221544002D01*
X-407504830Y-221782097D01*
X-407742925Y-221544002D01*
X-407266735Y-221544002D01*
X-410600068Y-217020193D02*
X-407266735Y-217020193D01*
X-412504830Y-218210669D02*
X-408933401Y-219401145D01*
X-408933401Y-216305907D01*
X-412266735Y-212258288D02*
X-412266735Y-213210669D01*
X-412028640Y-213686859D01*
X-411790544Y-213924954D01*
X-411076259Y-214401145D01*
X-410123878Y-214639240D01*
X-408219116Y-214639240D01*
X-407742925Y-214401145D01*
X-407504830Y-214163050D01*
X-407266735Y-213686859D01*
X-407266735Y-212734478D01*
X-407504830Y-212258288D01*
X-407742925Y-212020193D01*
X-408219116Y-211782097D01*
X-409409592Y-211782097D01*
X-409885782Y-212020193D01*
X-410123878Y-212258288D01*
X-410361973Y-212734478D01*
X-410361973Y-213686859D01*
X-410123878Y-214163050D01*
X-409885782Y-214401145D01*
X-409409592Y-214639240D01*
X-410123878Y-208924954D02*
X-410361973Y-209401145D01*
X-410600068Y-209639240D01*
X-411076259Y-209877335D01*
X-411314354Y-209877335D01*
X-411790544Y-209639240D01*
X-412028640Y-209401145D01*
X-412266735Y-208924954D01*
X-412266735Y-207972574D01*
X-412028640Y-207496383D01*
X-411790544Y-207258288D01*
X-411314354Y-207020193D01*
X-411076259Y-207020193D01*
X-410600068Y-207258288D01*
X-410361973Y-207496383D01*
X-410123878Y-207972574D01*
X-410123878Y-208924954D01*
X-409885782Y-209401145D01*
X-409647687Y-209639240D01*
X-409171497Y-209877335D01*
X-408219116Y-209877335D01*
X-407742925Y-209639240D01*
X-407504830Y-209401145D01*
X-407266735Y-208924954D01*
X-407266735Y-207972574D01*
X-407504830Y-207496383D01*
X-407742925Y-207258288D01*
X-408219116Y-207020193D01*
X-409171497Y-207020193D01*
X-409647687Y-207258288D01*
X-409885782Y-207496383D01*
X-410123878Y-207972574D01*
X-407266735Y-201067812D02*
X-410600068Y-201067812D01*
X-410123878Y-201067812D02*
X-410361973Y-200829716D01*
X-410600068Y-200353526D01*
X-410600068Y-199639240D01*
X-410361973Y-199163050D01*
X-409885782Y-198924954D01*
X-407266735Y-198924954D01*
X-409885782Y-198924954D02*
X-410361973Y-198686859D01*
X-410600068Y-198210669D01*
X-410600068Y-197496383D01*
X-410361973Y-197020193D01*
X-409885782Y-196782097D01*
X-407266735Y-196782097D01*
X-407266735Y-194401145D02*
X-410600068Y-194401145D01*
X-410123878Y-194401145D02*
X-410361973Y-194163050D01*
X-410600068Y-193686859D01*
X-410600068Y-192972574D01*
X-410361973Y-192496383D01*
X-409885782Y-192258288D01*
X-407266735Y-192258288D01*
X-409885782Y-192258288D02*
X-410361973Y-192020193D01*
X-410600068Y-191544002D01*
X-410600068Y-190829716D01*
X-410361973Y-190353526D01*
X-409885782Y-190115431D01*
X-407266735Y-190115431D01*
D11*
X-403908640Y-434206574D02*
X-403908640Y8261426D01*
X-400098640Y-434206574D02*
X-404495061Y-434206574D01*
X-400098640Y8261426D02*
X-404495061Y8261426D01*
X-403908640Y8261426D02*
X-403322219Y7134922D01*
X-403908640Y8261426D02*
X-404495061Y7134922D01*
X-403908640Y-434206574D02*
X-403322219Y-433080070D01*
X-403908640Y-434206574D02*
X-404495061Y-433080070D01*
D10*
X-288752758Y19953330D02*
X-288514662Y20191426D01*
X-288038472Y20429521D01*
X-286847996Y20429521D01*
X-286371805Y20191426D01*
X-286133710Y19953330D01*
X-285895615Y19477140D01*
X-285895615Y19000949D01*
X-286133710Y18286664D01*
X-288990853Y15429521D01*
X-285895615Y15429521D01*
X-281609900Y20429521D02*
X-282562281Y20429521D01*
X-283038472Y20191426D01*
X-283276567Y19953330D01*
X-283752758Y19239045D01*
X-283990853Y18286664D01*
X-283990853Y16381902D01*
X-283752758Y15905711D01*
X-283514662Y15667616D01*
X-283038472Y15429521D01*
X-282086091Y15429521D01*
X-281609900Y15667616D01*
X-281371805Y15905711D01*
X-281133710Y16381902D01*
X-281133710Y17572378D01*
X-281371805Y18048568D01*
X-281609900Y18286664D01*
X-282086091Y18524759D01*
X-283038472Y18524759D01*
X-283514662Y18286664D01*
X-283752758Y18048568D01*
X-283990853Y17572378D01*
X-278276567Y18286664D02*
X-278752758Y18524759D01*
X-278990853Y18762854D01*
X-279228948Y19239045D01*
X-279228948Y19477140D01*
X-278990853Y19953330D01*
X-278752758Y20191426D01*
X-278276567Y20429521D01*
X-277324186Y20429521D01*
X-276847996Y20191426D01*
X-276609900Y19953330D01*
X-276371805Y19477140D01*
X-276371805Y19239045D01*
X-276609900Y18762854D01*
X-276847996Y18524759D01*
X-277324186Y18286664D01*
X-278276567Y18286664D01*
X-278752758Y18048568D01*
X-278990853Y17810473D01*
X-279228948Y17334283D01*
X-279228948Y16381902D01*
X-278990853Y15905711D01*
X-278752758Y15667616D01*
X-278276567Y15429521D01*
X-277324186Y15429521D01*
X-276847996Y15667616D01*
X-276609900Y15905711D01*
X-276371805Y16381902D01*
X-276371805Y17334283D01*
X-276609900Y17810473D01*
X-276847996Y18048568D01*
X-277324186Y18286664D01*
X-274228948Y15905711D02*
X-273990853Y15667616D01*
X-274228948Y15429521D01*
X-274467043Y15667616D01*
X-274228948Y15905711D01*
X-274228948Y15429521D01*
X-271133710Y18286664D02*
X-271609900Y18524759D01*
X-271847996Y18762854D01*
X-272086091Y19239045D01*
X-272086091Y19477140D01*
X-271847996Y19953330D01*
X-271609900Y20191426D01*
X-271133710Y20429521D01*
X-270181329Y20429521D01*
X-269705139Y20191426D01*
X-269467043Y19953330D01*
X-269228948Y19477140D01*
X-269228948Y19239045D01*
X-269467043Y18762854D01*
X-269705139Y18524759D01*
X-270181329Y18286664D01*
X-271133710Y18286664D01*
X-271609900Y18048568D01*
X-271847996Y17810473D01*
X-272086091Y17334283D01*
X-272086091Y16381902D01*
X-271847996Y15905711D01*
X-271609900Y15667616D01*
X-271133710Y15429521D01*
X-270181329Y15429521D01*
X-269705139Y15667616D01*
X-269467043Y15905711D01*
X-269228948Y16381902D01*
X-269228948Y17334283D01*
X-269467043Y17810473D01*
X-269705139Y18048568D01*
X-270181329Y18286664D01*
X-266371805Y18286664D02*
X-266847996Y18524759D01*
X-267086091Y18762854D01*
X-267324186Y19239045D01*
X-267324186Y19477140D01*
X-267086091Y19953330D01*
X-266847996Y20191426D01*
X-266371805Y20429521D01*
X-265419424Y20429521D01*
X-264943234Y20191426D01*
X-264705139Y19953330D01*
X-264467043Y19477140D01*
X-264467043Y19239045D01*
X-264705139Y18762854D01*
X-264943234Y18524759D01*
X-265419424Y18286664D01*
X-266371805Y18286664D01*
X-266847996Y18048568D01*
X-267086091Y17810473D01*
X-267324186Y17334283D01*
X-267324186Y16381902D01*
X-267086091Y15905711D01*
X-266847996Y15667616D01*
X-266371805Y15429521D01*
X-265419424Y15429521D01*
X-264943234Y15667616D01*
X-264705139Y15905711D01*
X-264467043Y16381902D01*
X-264467043Y17334283D01*
X-264705139Y17810473D01*
X-264943234Y18048568D01*
X-265419424Y18286664D01*
X-262562281Y19953330D02*
X-262324186Y20191426D01*
X-261847996Y20429521D01*
X-260657520Y20429521D01*
X-260181329Y20191426D01*
X-259943234Y19953330D01*
X-259705139Y19477140D01*
X-259705139Y19000949D01*
X-259943234Y18286664D01*
X-262800377Y15429521D01*
X-259705139Y15429521D01*
X-253752758Y15429521D02*
X-253752758Y18762854D01*
X-253752758Y18286664D02*
X-253514662Y18524759D01*
X-253038472Y18762854D01*
X-252324186Y18762854D01*
X-251847996Y18524759D01*
X-251609900Y18048568D01*
X-251609900Y15429521D01*
X-251609900Y18048568D02*
X-251371805Y18524759D01*
X-250895615Y18762854D01*
X-250181329Y18762854D01*
X-249705139Y18524759D01*
X-249467043Y18048568D01*
X-249467043Y15429521D01*
X-247086091Y15429521D02*
X-247086091Y18762854D01*
X-247086091Y18286664D02*
X-246847996Y18524759D01*
X-246371805Y18762854D01*
X-245657520Y18762854D01*
X-245181329Y18524759D01*
X-244943234Y18048568D01*
X-244943234Y15429521D01*
X-244943234Y18048568D02*
X-244705139Y18524759D01*
X-244228948Y18762854D01*
X-243514662Y18762854D01*
X-243038472Y18524759D01*
X-242800377Y18048568D01*
X-242800377Y15429521D01*
D11*
X-400098640Y12071426D02*
X-131216400Y12071426D01*
X-400098640Y8261426D02*
X-400098640Y12657847D01*
X-131216400Y8261426D02*
X-131216400Y12657847D01*
X-131216400Y12071426D02*
X-132342904Y11485005D01*
X-131216400Y12071426D02*
X-132342904Y12657847D01*
X-400098640Y12071426D02*
X-398972136Y11485005D01*
X-400098640Y12071426D02*
X-398972136Y12657847D01*
D12*
X-397480357Y35718642D02*
X-393480357Y35718642D01*
X-391766071Y29432928D02*
X-397480357Y29432928D01*
X-397480357Y41432928D01*
X-391766071Y41432928D01*
X-381480357Y30004357D02*
X-382623214Y29432928D01*
X-384908928Y29432928D01*
X-386051785Y30004357D01*
X-386623214Y30575785D01*
X-387194642Y31718642D01*
X-387194642Y35147214D01*
X-386623214Y36290071D01*
X-386051785Y36861500D01*
X-384908928Y37432928D01*
X-382623214Y37432928D01*
X-381480357Y36861500D01*
X-374623214Y29432928D02*
X-375766071Y30004357D01*
X-376337500Y30575785D01*
X-376908928Y31718642D01*
X-376908928Y35147214D01*
X-376337500Y36290071D01*
X-375766071Y36861500D01*
X-374623214Y37432928D01*
X-372908928Y37432928D01*
X-371766071Y36861500D01*
X-371194642Y36290071D01*
X-370623214Y35147214D01*
X-370623214Y31718642D01*
X-371194642Y30575785D01*
X-371766071Y30004357D01*
X-372908928Y29432928D01*
X-374623214Y29432928D01*
X-359194642Y29432928D02*
X-366051785Y29432928D01*
X-362623214Y29432928D02*
X-362623214Y41432928D01*
X-363766071Y39718642D01*
X-364908928Y38575785D01*
X-366051785Y38004357D01*
X-354051785Y30575785D02*
X-353480357Y30004357D01*
X-354051785Y29432928D01*
X-354623214Y30004357D01*
X-354051785Y30575785D01*
X-354051785Y29432928D01*
X-348337500Y41432928D02*
X-348337500Y31718642D01*
X-347766071Y30575785D01*
X-347194642Y30004357D01*
X-346051785Y29432928D01*
X-343766071Y29432928D01*
X-342623214Y30004357D01*
X-342051785Y30575785D01*
X-341480357Y31718642D01*
X-341480357Y41432928D01*
X-336337500Y30004357D02*
X-335194642Y29432928D01*
X-332908928Y29432928D01*
X-331766071Y30004357D01*
X-331194642Y31147214D01*
X-331194642Y31718642D01*
X-331766071Y32861500D01*
X-332908928Y33432928D01*
X-334623214Y33432928D01*
X-335766071Y34004357D01*
X-336337500Y35147214D01*
X-336337500Y35718642D01*
X-335766071Y36861500D01*
X-334623214Y37432928D01*
X-332908928Y37432928D01*
X-331766071Y36861500D01*
X-321480357Y30004357D02*
X-322623214Y29432928D01*
X-324908928Y29432928D01*
X-326051785Y30004357D01*
X-326623214Y31147214D01*
X-326623214Y35718642D01*
X-326051785Y36861500D01*
X-324908928Y37432928D01*
X-322623214Y37432928D01*
X-321480357Y36861500D01*
X-320908928Y35718642D01*
X-320908928Y34575785D01*
X-326623214Y33432928D01*
X-315766071Y29432928D02*
X-315766071Y37432928D01*
X-315766071Y35147214D02*
X-315194642Y36290071D01*
X-314623214Y36861500D01*
X-313480357Y37432928D01*
X-312337500Y37432928D01*
X-299194642Y29432928D02*
X-299194642Y37432928D01*
X-299194642Y41432928D02*
X-299766071Y40861500D01*
X-299194642Y40290071D01*
X-298623214Y40861500D01*
X-299194642Y41432928D01*
X-299194642Y40290071D01*
X-294051785Y30004357D02*
X-292908928Y29432928D01*
X-290623214Y29432928D01*
X-289480357Y30004357D01*
X-288908928Y31147214D01*
X-288908928Y31718642D01*
X-289480357Y32861500D01*
X-290623214Y33432928D01*
X-292337500Y33432928D01*
X-293480357Y34004357D01*
X-294051785Y35147214D01*
X-294051785Y35718642D01*
X-293480357Y36861500D01*
X-292337500Y37432928D01*
X-290623214Y37432928D01*
X-289480357Y36861500D01*
X-276337500Y37432928D02*
X-271766071Y37432928D01*
X-274623214Y29432928D02*
X-274623214Y39718642D01*
X-274051785Y40861500D01*
X-272908928Y41432928D01*
X-271766071Y41432928D01*
X-266051785Y29432928D02*
X-267194642Y30004357D01*
X-267766071Y30575785D01*
X-268337500Y31718642D01*
X-268337500Y35147214D01*
X-267766071Y36290071D01*
X-267194642Y36861500D01*
X-266051785Y37432928D01*
X-264337500Y37432928D01*
X-263194642Y36861500D01*
X-262623214Y36290071D01*
X-262051785Y35147214D01*
X-262051785Y31718642D01*
X-262623214Y30575785D01*
X-263194642Y30004357D01*
X-264337500Y29432928D01*
X-266051785Y29432928D01*
X-256908928Y29432928D02*
X-256908928Y37432928D01*
X-256908928Y35147214D02*
X-256337500Y36290071D01*
X-255766071Y36861500D01*
X-254623214Y37432928D01*
X-253480357Y37432928D01*
X-240337500Y29432928D02*
X-240337500Y37432928D01*
X-240337500Y35147214D02*
X-239766071Y36290071D01*
X-239194642Y36861500D01*
X-238051785Y37432928D01*
X-236908928Y37432928D01*
X-231194642Y29432928D02*
X-232337500Y30004357D01*
X-232908928Y30575785D01*
X-233480357Y31718642D01*
X-233480357Y35147214D01*
X-232908928Y36290071D01*
X-232337500Y36861500D01*
X-231194642Y37432928D01*
X-229480357Y37432928D01*
X-228337500Y36861500D01*
X-227766071Y36290071D01*
X-227194642Y35147214D01*
X-227194642Y31718642D01*
X-227766071Y30575785D01*
X-228337500Y30004357D01*
X-229480357Y29432928D01*
X-231194642Y29432928D01*
X-216908928Y37432928D02*
X-216908928Y29432928D01*
X-222051785Y37432928D02*
X-222051785Y31147214D01*
X-221480357Y30004357D01*
X-220337500Y29432928D01*
X-218623214Y29432928D01*
X-217480357Y30004357D01*
X-216908928Y30575785D01*
X-211194642Y37432928D02*
X-211194642Y29432928D01*
X-211194642Y36290071D02*
X-210623214Y36861500D01*
X-209480357Y37432928D01*
X-207766071Y37432928D01*
X-206623214Y36861500D01*
X-206051785Y35718642D01*
X-206051785Y29432928D01*
X-202051785Y37432928D02*
X-197480357Y37432928D01*
X-200337500Y41432928D02*
X-200337500Y31147214D01*
X-199766071Y30004357D01*
X-198623214Y29432928D01*
X-197480357Y29432928D01*
X-193480357Y29432928D02*
X-193480357Y37432928D01*
X-193480357Y41432928D02*
X-194051785Y40861500D01*
X-193480357Y40290071D01*
X-192908928Y40861500D01*
X-193480357Y41432928D01*
X-193480357Y40290071D01*
X-187766071Y37432928D02*
X-187766071Y29432928D01*
X-187766071Y36290071D02*
X-187194642Y36861500D01*
X-186051785Y37432928D01*
X-184337500Y37432928D01*
X-183194642Y36861500D01*
X-182623214Y35718642D01*
X-182623214Y29432928D01*
X-171766071Y37432928D02*
X-171766071Y27718642D01*
X-172337500Y26575785D01*
X-172908928Y26004357D01*
X-174051785Y25432928D01*
X-175766071Y25432928D01*
X-176908928Y26004357D01*
X-171766071Y30004357D02*
X-172908928Y29432928D01*
X-175194642Y29432928D01*
X-176337500Y30004357D01*
X-176908928Y30575785D01*
X-177480357Y31718642D01*
X-177480357Y35147214D01*
X-176908928Y36290071D01*
X-176337500Y36861500D01*
X-175194642Y37432928D01*
X-172908928Y37432928D01*
X-171766071Y36861500D01*
X-155194642Y29432928D02*
X-156337500Y30004357D01*
X-156908928Y30575785D01*
X-157480357Y31718642D01*
X-157480357Y35147214D01*
X-156908928Y36290071D01*
X-156337500Y36861500D01*
X-155194642Y37432928D01*
X-153480357Y37432928D01*
X-152337500Y36861500D01*
X-151766071Y36290071D01*
X-151194642Y35147214D01*
X-151194642Y31718642D01*
X-151766071Y30575785D01*
X-152337500Y30004357D01*
X-153480357Y29432928D01*
X-155194642Y29432928D01*
X-140908928Y37432928D02*
X-140908928Y29432928D01*
X-146051785Y37432928D02*
X-146051785Y31147214D01*
X-145480357Y30004357D01*
X-144337500Y29432928D01*
X-142623214Y29432928D01*
X-141480357Y30004357D01*
X-140908928Y30575785D01*
X-136908928Y37432928D02*
X-132337500Y37432928D01*
X-135194642Y41432928D02*
X-135194642Y31147214D01*
X-134623214Y30004357D01*
X-133480357Y29432928D01*
X-132337500Y29432928D01*
X-119766071Y40290071D02*
X-119194642Y40861500D01*
X-118051785Y41432928D01*
X-115194642Y41432928D01*
X-114051785Y40861500D01*
X-113480357Y40290071D01*
X-112908928Y39147214D01*
X-112908928Y38004357D01*
X-113480357Y36290071D01*
X-120337500Y29432928D01*
X-112908928Y29432928D01*
X-107766071Y30575785D02*
X-107194642Y30004357D01*
X-107766071Y29432928D01*
X-108337500Y30004357D01*
X-107766071Y30575785D01*
X-107766071Y29432928D01*
X-96337500Y41432928D02*
X-102051785Y41432928D01*
X-102623214Y35718642D01*
X-102051785Y36290071D01*
X-100908928Y36861500D01*
X-98051785Y36861500D01*
X-96908928Y36290071D01*
X-96337500Y35718642D01*
X-95766071Y34575785D01*
X-95766071Y31718642D01*
X-96337500Y30575785D01*
X-96908928Y30004357D01*
X-98051785Y29432928D01*
X-100908928Y29432928D01*
X-102051785Y30004357D01*
X-102623214Y30575785D01*
X-85480357Y37432928D02*
X-85480357Y29432928D01*
X-88337500Y42004357D02*
X-91194642Y33432928D01*
X-83766071Y33432928D01*
X-79194642Y29432928D02*
X-79194642Y37432928D01*
X-79194642Y36290071D02*
X-78623214Y36861500D01*
X-77480357Y37432928D01*
X-75766071Y37432928D01*
X-74623214Y36861500D01*
X-74051785Y35718642D01*
X-74051785Y29432928D01*
X-74051785Y35718642D02*
X-73480357Y36861500D01*
X-72337500Y37432928D01*
X-70623214Y37432928D01*
X-69480357Y36861500D01*
X-68908928Y35718642D01*
X-68908928Y29432928D01*
X-63194642Y29432928D02*
X-63194642Y37432928D01*
X-63194642Y36290071D02*
X-62623214Y36861500D01*
X-61480357Y37432928D01*
X-59766071Y37432928D01*
X-58623214Y36861500D01*
X-58051785Y35718642D01*
X-58051785Y29432928D01*
X-58051785Y35718642D02*
X-57480357Y36861500D01*
X-56337500Y37432928D01*
X-54623214Y37432928D01*
X-53480357Y36861500D01*
X-52908928Y35718642D01*
X-52908928Y29432928D01*
D13*
X-238151600Y-373691200D02*
G75*
G03X-238151600Y-373691200I-2750000J0D01*
G01*
X-280151600Y-373641200D02*
G75*
G03X-280151600Y-373641200I-2750000J0D01*
G01*
X-280151600Y-415641200D02*
G75*
G03X-280151600Y-415641200I-2750000J0D01*
G01*
X-238201600Y-415591200D02*
G75*
G03X-238201600Y-415591200I-2750000J0D01*
G01*
M02*
