G04 #@! TF.GenerationSoftware,KiCad,Pcbnew,(5.1.5)-3*
G04 #@! TF.CreationDate,2020-11-06T03:20:09-03:00*
G04 #@! TF.ProjectId,baseline_small,62617365-6c69-46e6-955f-736d616c6c2e,0.1*
G04 #@! TF.SameCoordinates,Original*
G04 #@! TF.FileFunction,OtherDrawing,Comment*
%FSLAX46Y46*%
G04 Gerber Fmt 4.6, Leading zero omitted, Abs format (unit mm)*
G04 Created by KiCad (PCBNEW (5.1.5)-3) date 2020-11-06 03:20:09*
%MOMM*%
%LPD*%
G04 APERTURE LIST*
%ADD10C,0.100000*%
%ADD11C,0.050000*%
%ADD12C,0.075000*%
G04 APERTURE END LIST*
D10*
X-142777666Y-422926814D02*
X-161065666Y-422926814D01*
X-141253666Y-367808814D02*
X-141253666Y-421402814D01*
X-141253666Y-421402814D02*
G75*
G02X-142777666Y-422926814I-1524000J0D01*
G01*
X-161065666Y-422926814D02*
G75*
G02X-162589666Y-421402814I0J1524000D01*
G01*
X-162589666Y-421402814D02*
X-162589666Y-367808814D01*
X-165193800Y-369565800D02*
X-165193800Y-419565800D01*
X-161065666Y-366284814D02*
X-142777666Y-366284814D01*
X-142777666Y-366284814D02*
G75*
G02X-141253666Y-367808814I0J-1524000D01*
G01*
X-162589666Y-367808814D02*
G75*
G02X-161065666Y-366284814I1524000J0D01*
G01*
X-165205866Y-367808814D02*
X-165205866Y-421402814D01*
X-185017866Y-422926814D02*
G75*
G02X-186541866Y-421402814I0J1524000D01*
G01*
X-165205866Y-421402814D02*
G75*
G02X-166729866Y-422926814I-1524000J0D01*
G01*
X-186541866Y-421402814D02*
X-186541866Y-367808814D01*
X-166729866Y-366284814D02*
G75*
G02X-165205866Y-367808814I0J-1524000D01*
G01*
X-166729866Y-422926814D02*
X-185017866Y-422926814D01*
X-186541866Y-367808814D02*
G75*
G02X-185017866Y-366284814I1524000J0D01*
G01*
X-185017866Y-366284814D02*
X-166729866Y-366284814D01*
X-189146000Y-369565800D02*
X-189146000Y-419565800D01*
X-189132666Y-367808814D02*
X-189132666Y-421402814D01*
X-208944666Y-422926814D02*
G75*
G02X-210468666Y-421402814I0J1524000D01*
G01*
X-189132666Y-421402814D02*
G75*
G02X-190656666Y-422926814I-1524000J0D01*
G01*
X-210468666Y-421402814D02*
X-210468666Y-367808814D01*
X-190656666Y-366284814D02*
G75*
G02X-189132666Y-367808814I0J-1524000D01*
G01*
X-190656666Y-422926814D02*
X-208944666Y-422926814D01*
X-210468666Y-367808814D02*
G75*
G02X-208944666Y-366284814I1524000J0D01*
G01*
X-208944666Y-366284814D02*
X-190656666Y-366284814D01*
X-213072800Y-369565800D02*
X-213072800Y-419565800D01*
D11*
X-387987388Y-359047974D02*
X-294663240Y-359047974D01*
X-249955825Y-253118201D02*
X-389448825Y-253118201D01*
X-387627242Y-150504065D02*
X-297762040Y-150488574D01*
D10*
X-213084866Y-367808814D02*
X-213084866Y-421402814D01*
X-232896866Y-422926814D02*
G75*
G02X-234420866Y-421402814I0J1524000D01*
G01*
X-213084866Y-421402814D02*
G75*
G02X-214608866Y-422926814I-1524000J0D01*
G01*
X-214608866Y-366284814D02*
G75*
G02X-213084866Y-367808814I0J-1524000D01*
G01*
X-214608866Y-422926814D02*
X-232896866Y-422926814D01*
X-234420866Y-367808814D02*
G75*
G02X-232896866Y-366284814I1524000J0D01*
G01*
X-234420866Y-421402814D02*
X-234420866Y-367808814D01*
X-232896866Y-366284814D02*
X-214608866Y-366284814D01*
D11*
X-239344200Y-351409000D02*
X-239342040Y-258194240D01*
X-389481440Y-356495274D02*
X-244424200Y-356489000D01*
X-394561440Y-351415274D02*
X-394548026Y-258264239D01*
X-389481440Y-356495274D02*
G75*
G02X-394561440Y-351415274I0J5080000D01*
G01*
X-244424063Y-253113878D02*
G75*
G02X-239342040Y-258194240I-66557J-5148602D01*
G01*
X-239344200Y-351409000D02*
G75*
G02X-244424200Y-356489000I-5080000J0D01*
G01*
X-394544315Y-258261148D02*
G75*
G02X-389448825Y-253118201I5146289J-3092D01*
G01*
X-249979594Y-253118201D02*
X-244424063Y-253113878D01*
X-231696640Y-353229060D02*
X-141736266Y-353231374D01*
X-141734106Y-253132088D02*
G75*
G02X-136654106Y-258212088I0J-5080000D01*
G01*
X-136656266Y-348151374D02*
X-136654106Y-258212088D01*
X-236778600Y-258212088D02*
G75*
G02X-231698600Y-253132088I5080000J0D01*
G01*
X-231698600Y-253132088D02*
X-141729640Y-253132088D01*
X-136656266Y-348151374D02*
G75*
G02X-141736266Y-353231374I-5080000J0D01*
G01*
X-231696640Y-353229060D02*
G75*
G02X-236776640Y-348149060I0J5080000D01*
G01*
X-236776640Y-348149060D02*
X-236778600Y-258212088D01*
X-143711626Y-245445840D02*
G75*
G02X-148791626Y-250525840I-5080000J0D01*
G01*
X-182370426Y-250525840D02*
G75*
G02X-187450426Y-245445840I0J5080000D01*
G01*
X-148791626Y-150449840D02*
G75*
G02X-143711626Y-155529840I0J-5080000D01*
G01*
X-182370426Y-250525840D02*
X-148791626Y-250525840D01*
X-187450426Y-155529840D02*
G75*
G02X-182370426Y-150449840I5080000J0D01*
G01*
X-143711626Y-245445840D02*
X-143711626Y-155529840D01*
X-182370426Y-150449840D02*
X-148791626Y-150449840D01*
X-187450426Y-155529840D02*
X-187450426Y-245445840D01*
X-195184452Y-150451823D02*
X-285049654Y-150467314D01*
X-195181361Y-150451824D02*
G75*
G02X-190038414Y-155547314I-3092J-5146289D01*
G01*
X-190053654Y-245463308D02*
X-190038414Y-155547314D01*
X-285049654Y-250543314D02*
X-195133654Y-250543314D01*
X-290129654Y-155547314D02*
X-290129654Y-245463314D01*
X-285049654Y-250543314D02*
G75*
G02X-290129654Y-245463314I0J5080000D01*
G01*
X-290129654Y-155547314D02*
G75*
G02X-285049654Y-150467314I5080000J0D01*
G01*
X-190053292Y-245461291D02*
G75*
G02X-195133654Y-250543314I-5148602J66557D01*
G01*
X-392800454Y-155599308D02*
X-392800454Y-245464508D01*
X-292673654Y-245464508D02*
X-292673654Y-155548508D01*
X-297753654Y-150468508D02*
G75*
G02X-292673654Y-155548508I0J-5080000D01*
G01*
X-387720454Y-250544508D02*
X-297753654Y-250544508D01*
X-387720454Y-250544508D02*
G75*
G02X-392800454Y-245464508I0J5080000D01*
G01*
X-292673654Y-245464508D02*
G75*
G02X-297753654Y-250544508I-5080000J0D01*
G01*
X-392800454Y-155599308D02*
G75*
G02X-387720454Y-150519308I5080000J0D01*
G01*
X-387987388Y-428579894D02*
X-294663240Y-428579894D01*
X-393067388Y-423499894D02*
X-393067388Y-364127974D01*
X-289583240Y-423499894D02*
X-289583240Y-364127974D01*
X-289583240Y-423499894D02*
G75*
G02X-294663240Y-428579894I-5080000J0D01*
G01*
X-393067388Y-364127974D02*
G75*
G02X-387987388Y-359047974I5080000J0D01*
G01*
X-387987388Y-428579894D02*
G75*
G02X-393067388Y-423499894I0J5080000D01*
G01*
X-294663240Y-359047974D02*
G75*
G02X-289583240Y-364127974I0J-5080000D01*
G01*
X-384122040Y-147948574D02*
G75*
G02X-388186040Y-143884574I0J4064000D01*
G01*
X-388186040Y-3168574D02*
G75*
G02X-384122040Y895426I4064000J0D01*
G01*
X-148410040Y-143884574D02*
G75*
G02X-152474040Y-147948574I-4064000J0D01*
G01*
X-152474040Y895426D02*
G75*
G02X-148410040Y-3168574I0J-4064000D01*
G01*
X-148410040Y-143884574D02*
X-148410040Y-3168574D01*
X-384122040Y-147948574D02*
X-152474040Y-147948574D01*
X-388186040Y-3168574D02*
X-388186040Y-143884574D01*
X-152474040Y895426D02*
X-384122040Y895426D01*
D10*
X-287025000Y-369565800D02*
X-237025000Y-369565800D01*
X-287025000Y-419565800D02*
X-287025000Y-369565800D01*
X-237025000Y-419565800D02*
X-287025000Y-419565800D01*
X-237025000Y-369565800D02*
X-237025000Y-419565800D01*
D11*
X-139894000Y-404324000D02*
G75*
G03X-139894000Y-404324000I-60000J0D01*
G01*
X-139894000Y-409448000D02*
G75*
G03X-139894000Y-409448000I-60000J0D01*
G01*
X-139894000Y-383413000D02*
G75*
G03X-139894000Y-383413000I-60000J0D01*
G01*
X-139894000Y-378289000D02*
G75*
G03X-139894000Y-378289000I-60000J0D01*
G01*
D10*
X-148337000Y-366249800D02*
X-156337000Y-366249800D01*
D11*
X-163871600Y-409448000D02*
G75*
G03X-163871600Y-409448000I-60000J0D01*
G01*
X-163871600Y-404324000D02*
G75*
G03X-163871600Y-404324000I-60000J0D01*
G01*
X-163846200Y-378289000D02*
G75*
G03X-163846200Y-378289000I-60000J0D01*
G01*
X-163846200Y-383413000D02*
G75*
G03X-163846200Y-383413000I-60000J0D01*
G01*
D10*
X-172289200Y-366249800D02*
X-180289200Y-366249800D01*
D11*
X-187798400Y-383413000D02*
G75*
G03X-187798400Y-383413000I-60000J0D01*
G01*
X-187798400Y-378289000D02*
G75*
G03X-187798400Y-378289000I-60000J0D01*
G01*
X-187823800Y-404324000D02*
G75*
G03X-187823800Y-404324000I-60000J0D01*
G01*
X-187823800Y-409448000D02*
G75*
G03X-187823800Y-409448000I-60000J0D01*
G01*
D10*
X-196216000Y-366249800D02*
X-204216000Y-366249800D01*
D11*
X-211725200Y-383413000D02*
G75*
G03X-211725200Y-383413000I-60000J0D01*
G01*
X-211725200Y-378289000D02*
G75*
G03X-211725200Y-378289000I-60000J0D01*
G01*
X-211750600Y-404324000D02*
G75*
G03X-211750600Y-404324000I-60000J0D01*
G01*
X-211750600Y-409448000D02*
G75*
G03X-211750600Y-409448000I-60000J0D01*
G01*
X-276971000Y-420827200D02*
G75*
G03X-276971000Y-420827200I-60000J0D01*
G01*
X-271847000Y-420827200D02*
G75*
G03X-271847000Y-420827200I-60000J0D01*
G01*
X-245812000Y-420827200D02*
G75*
G03X-245812000Y-420827200I-60000J0D01*
G01*
X-250936000Y-420827200D02*
G75*
G03X-250936000Y-420827200I-60000J0D01*
G01*
X-271847000Y-368274600D02*
G75*
G03X-271847000Y-368274600I-60000J0D01*
G01*
X-276971000Y-368274600D02*
G75*
G03X-276971000Y-368274600I-60000J0D01*
G01*
X-250936000Y-368274600D02*
G75*
G03X-250936000Y-368274600I-60000J0D01*
G01*
X-245812000Y-368274600D02*
G75*
G03X-245812000Y-368274600I-60000J0D01*
G01*
X-235702800Y-409448000D02*
G75*
G03X-235702800Y-409448000I-60000J0D01*
G01*
X-235702800Y-404324000D02*
G75*
G03X-235702800Y-404324000I-60000J0D01*
G01*
X-235677400Y-378289000D02*
G75*
G03X-235677400Y-378289000I-60000J0D01*
G01*
X-235677400Y-383413000D02*
G75*
G03X-235677400Y-383413000I-60000J0D01*
G01*
X-288255400Y-404324000D02*
G75*
G03X-288255400Y-404324000I-60000J0D01*
G01*
X-288255400Y-409448000D02*
G75*
G03X-288255400Y-409448000I-60000J0D01*
G01*
X-288255400Y-383413000D02*
G75*
G03X-288255400Y-383413000I-60000J0D01*
G01*
X-288255400Y-378289000D02*
G75*
G03X-288255400Y-378289000I-60000J0D01*
G01*
X-301571800Y-429844200D02*
G75*
G03X-301571800Y-429844200I-60000J0D01*
G01*
X-306695800Y-429844200D02*
G75*
G03X-306695800Y-429844200I-60000J0D01*
G01*
X-344795800Y-429844200D02*
G75*
G03X-344795800Y-429844200I-60000J0D01*
G01*
X-339671800Y-429844200D02*
G75*
G03X-339671800Y-429844200I-60000J0D01*
G01*
X-377213000Y-429844200D02*
G75*
G03X-377213000Y-429844200I-60000J0D01*
G01*
X-382337000Y-429844200D02*
G75*
G03X-382337000Y-429844200I-60000J0D01*
G01*
X-394262300Y-371265526D02*
G75*
G03X-394262300Y-371265526I-60000J0D01*
G01*
X-394262300Y-376389526D02*
G75*
G03X-394262300Y-376389526I-60000J0D01*
G01*
X-394275000Y-416273800D02*
G75*
G03X-394275000Y-416273800I-60000J0D01*
G01*
X-394275000Y-411149800D02*
G75*
G03X-394275000Y-411149800I-60000J0D01*
G01*
X-135319840Y-266591974D02*
G75*
G03X-135319840Y-266591974I-60000J0D01*
G01*
X-135319840Y-261467974D02*
G75*
G03X-135319840Y-261467974I-60000J0D01*
G01*
X-135319840Y-299694974D02*
G75*
G03X-135319840Y-299694974I-60000J0D01*
G01*
X-135319840Y-304818974D02*
G75*
G03X-135319840Y-304818974I-60000J0D01*
G01*
X-135319840Y-344569974D02*
G75*
G03X-135319840Y-344569974I-60000J0D01*
G01*
X-135319840Y-339445974D02*
G75*
G03X-135319840Y-339445974I-60000J0D01*
G01*
X-168113400Y-251815600D02*
G75*
G03X-168113400Y-251815600I-60000J0D01*
G01*
X-162989400Y-251815600D02*
G75*
G03X-162989400Y-251815600I-60000J0D01*
G01*
X-214523840Y-251834574D02*
G75*
G03X-214523840Y-251834574I-60000J0D01*
G01*
X-219647840Y-251834574D02*
G75*
G03X-219647840Y-251834574I-60000J0D01*
G01*
X-175909040Y-354475974D02*
G75*
G03X-175909040Y-354475974I-60000J0D01*
G01*
X-170785040Y-354475974D02*
G75*
G03X-170785040Y-354475974I-60000J0D01*
G01*
X-143937240Y-354475974D02*
G75*
G03X-143937240Y-354475974I-60000J0D01*
G01*
X-149061240Y-354475974D02*
G75*
G03X-149061240Y-354475974I-60000J0D01*
G01*
X-258893000Y-357759000D02*
G75*
G03X-258893000Y-357759000I-60000J0D01*
G01*
X-253769000Y-357759000D02*
G75*
G03X-253769000Y-357759000I-60000J0D01*
G01*
X-277871440Y-357752574D02*
G75*
G03X-277871440Y-357752574I-60000J0D01*
G01*
X-282995440Y-357752574D02*
G75*
G03X-282995440Y-357752574I-60000J0D01*
G01*
X-395771440Y-342385574D02*
G75*
G03X-395771440Y-342385574I-60000J0D01*
G01*
X-395771440Y-347509574D02*
G75*
G03X-395771440Y-347509574I-60000J0D01*
G01*
X-395784140Y-305599574D02*
G75*
G03X-395784140Y-305599574I-60000J0D01*
G01*
X-395784140Y-300475574D02*
G75*
G03X-395784140Y-300475574I-60000J0D01*
G01*
X-395771440Y-260470574D02*
G75*
G03X-395771440Y-260470574I-60000J0D01*
G01*
X-395771440Y-265594574D02*
G75*
G03X-395771440Y-265594574I-60000J0D01*
G01*
X-339441040Y-357777974D02*
G75*
G03X-339441040Y-357777974I-60000J0D01*
G01*
X-344565040Y-357777974D02*
G75*
G03X-344565040Y-357777974I-60000J0D01*
G01*
X-382030040Y-357777974D02*
G75*
G03X-382030040Y-357777974I-60000J0D01*
G01*
X-376906040Y-357777974D02*
G75*
G03X-376906040Y-357777974I-60000J0D01*
G01*
X-301341040Y-357777974D02*
G75*
G03X-301341040Y-357777974I-60000J0D01*
G01*
X-306465040Y-357777974D02*
G75*
G03X-306465040Y-357777974I-60000J0D01*
G01*
X-238012040Y-299694974D02*
G75*
G03X-238012040Y-299694974I-60000J0D01*
G01*
X-238012040Y-304818974D02*
G75*
G03X-238012040Y-304818974I-60000J0D01*
G01*
X-238012040Y-339420574D02*
G75*
G03X-238012040Y-339420574I-60000J0D01*
G01*
X-238012040Y-344544574D02*
G75*
G03X-238012040Y-344544574I-60000J0D01*
G01*
X-237986640Y-265144174D02*
G75*
G03X-237986640Y-265144174I-60000J0D01*
G01*
X-237986640Y-260020174D02*
G75*
G03X-237986640Y-260020174I-60000J0D01*
G01*
X-142381040Y-243071574D02*
G75*
G03X-142381040Y-243071574I-60000J0D01*
G01*
X-142381040Y-237947574D02*
G75*
G03X-142381040Y-237947574I-60000J0D01*
G01*
X-142381040Y-198171174D02*
G75*
G03X-142381040Y-198171174I-60000J0D01*
G01*
X-142381040Y-203295174D02*
G75*
G03X-142381040Y-203295174I-60000J0D01*
G01*
X-142381040Y-163696574D02*
G75*
G03X-142381040Y-163696574I-60000J0D01*
G01*
X-142381040Y-158572574D02*
G75*
G03X-142381040Y-158572574I-60000J0D01*
G01*
X-147080040Y-136322174D02*
G75*
G03X-147080040Y-136322174I-60000J0D01*
G01*
X-147080040Y-141446174D02*
G75*
G03X-147080040Y-141446174I-60000J0D01*
G01*
X-147054640Y-13353974D02*
G75*
G03X-147054640Y-13353974I-60000J0D01*
G01*
X-147054640Y-8229974D02*
G75*
G03X-147054640Y-8229974I-60000J0D01*
G01*
X-147080040Y-95929374D02*
G75*
G03X-147080040Y-95929374I-60000J0D01*
G01*
X-147080040Y-90805374D02*
G75*
G03X-147080040Y-90805374I-60000J0D01*
G01*
X-147054640Y-50139974D02*
G75*
G03X-147054640Y-50139974I-60000J0D01*
G01*
X-147054640Y-55263974D02*
G75*
G03X-147054640Y-55263974I-60000J0D01*
G01*
X-163005840Y2190826D02*
G75*
G03X-163005840Y2190826I-60000J0D01*
G01*
X-168129840Y2190826D02*
G75*
G03X-168129840Y2190826I-60000J0D01*
G01*
X-202978640Y2190826D02*
G75*
G03X-202978640Y2190826I-60000J0D01*
G01*
X-197854640Y2190826D02*
G75*
G03X-197854640Y2190826I-60000J0D01*
G01*
X-235319640Y2190826D02*
G75*
G03X-235319640Y2190826I-60000J0D01*
G01*
X-240443640Y2190826D02*
G75*
G03X-240443640Y2190826I-60000J0D01*
G01*
X-282353640Y2190826D02*
G75*
G03X-282353640Y2190826I-60000J0D01*
G01*
X-277229640Y2190826D02*
G75*
G03X-277229640Y2190826I-60000J0D01*
G01*
X-300699240Y2190826D02*
G75*
G03X-300699240Y2190826I-60000J0D01*
G01*
X-305823240Y2190826D02*
G75*
G03X-305823240Y2190826I-60000J0D01*
G01*
X-343897840Y2190826D02*
G75*
G03X-343897840Y2190826I-60000J0D01*
G01*
X-338773840Y2190826D02*
G75*
G03X-338773840Y2190826I-60000J0D01*
G01*
X-376264240Y2190826D02*
G75*
G03X-376264240Y2190826I-60000J0D01*
G01*
X-381388240Y2190826D02*
G75*
G03X-381388240Y2190826I-60000J0D01*
G01*
X-248765200Y-251815600D02*
G75*
G03X-248765200Y-251815600I-60000J0D01*
G01*
X-253889200Y-251815600D02*
G75*
G03X-253889200Y-251815600I-60000J0D01*
G01*
X-305830040Y-251834574D02*
G75*
G03X-305830040Y-251834574I-60000J0D01*
G01*
X-300706040Y-251834574D02*
G75*
G03X-300706040Y-251834574I-60000J0D01*
G01*
X-219622440Y-354501374D02*
G75*
G03X-219622440Y-354501374I-60000J0D01*
G01*
X-214498440Y-354501374D02*
G75*
G03X-214498440Y-354501374I-60000J0D01*
G01*
X-277211040Y-251834574D02*
G75*
G03X-277211040Y-251834574I-60000J0D01*
G01*
X-282335040Y-251834574D02*
G75*
G03X-282335040Y-251834574I-60000J0D01*
G01*
X-343930040Y-251834574D02*
G75*
G03X-343930040Y-251834574I-60000J0D01*
G01*
X-338806040Y-251834574D02*
G75*
G03X-338806040Y-251834574I-60000J0D01*
G01*
X-376271040Y-251834574D02*
G75*
G03X-376271040Y-251834574I-60000J0D01*
G01*
X-381395040Y-251834574D02*
G75*
G03X-381395040Y-251834574I-60000J0D01*
G01*
X-394018840Y-243039374D02*
G75*
G03X-394018840Y-243039374I-60000J0D01*
G01*
X-394018840Y-237915374D02*
G75*
G03X-394018840Y-237915374I-60000J0D01*
G01*
X-394044240Y-198519974D02*
G75*
G03X-394044240Y-198519974I-60000J0D01*
G01*
X-394044240Y-203643974D02*
G75*
G03X-394044240Y-203643974I-60000J0D01*
G01*
X-188710640Y-198196574D02*
G75*
G03X-188710640Y-198196574I-60000J0D01*
G01*
X-188710640Y-203320574D02*
G75*
G03X-188710640Y-203320574I-60000J0D01*
G01*
X-188685240Y-237947574D02*
G75*
G03X-188685240Y-237947574I-60000J0D01*
G01*
X-188685240Y-243071574D02*
G75*
G03X-188685240Y-243071574I-60000J0D01*
G01*
X-291377440Y-203320574D02*
G75*
G03X-291377440Y-203320574I-60000J0D01*
G01*
X-291377440Y-198196574D02*
G75*
G03X-291377440Y-198196574I-60000J0D01*
G01*
X-188685240Y-163696574D02*
G75*
G03X-188685240Y-163696574I-60000J0D01*
G01*
X-188685240Y-158572574D02*
G75*
G03X-188685240Y-158572574I-60000J0D01*
G01*
X-291352040Y-243071574D02*
G75*
G03X-291352040Y-243071574I-60000J0D01*
G01*
X-291352040Y-237947574D02*
G75*
G03X-291352040Y-237947574I-60000J0D01*
G01*
X-291352040Y-158572574D02*
G75*
G03X-291352040Y-158572574I-60000J0D01*
G01*
X-291352040Y-163696574D02*
G75*
G03X-291352040Y-163696574I-60000J0D01*
G01*
X-168111240Y-149218574D02*
G75*
G03X-168111240Y-149218574I-60000J0D01*
G01*
X-162987240Y-149218574D02*
G75*
G03X-162987240Y-149218574I-60000J0D01*
G01*
X-240425040Y-149218574D02*
G75*
G03X-240425040Y-149218574I-60000J0D01*
G01*
X-235301040Y-149218574D02*
G75*
G03X-235301040Y-149218574I-60000J0D01*
G01*
X-197836040Y-149218574D02*
G75*
G03X-197836040Y-149218574I-60000J0D01*
G01*
X-202960040Y-149218574D02*
G75*
G03X-202960040Y-149218574I-60000J0D01*
G01*
X-282335040Y-149218574D02*
G75*
G03X-282335040Y-149218574I-60000J0D01*
G01*
X-277211040Y-149218574D02*
G75*
G03X-277211040Y-149218574I-60000J0D01*
G01*
X-338806040Y-149218574D02*
G75*
G03X-338806040Y-149218574I-60000J0D01*
G01*
X-343930040Y-149218574D02*
G75*
G03X-343930040Y-149218574I-60000J0D01*
G01*
X-300706040Y-149218574D02*
G75*
G03X-300706040Y-149218574I-60000J0D01*
G01*
X-305830040Y-149218574D02*
G75*
G03X-305830040Y-149218574I-60000J0D01*
G01*
X-394044240Y-163664374D02*
G75*
G03X-394044240Y-163664374I-60000J0D01*
G01*
X-394044240Y-158540374D02*
G75*
G03X-394044240Y-158540374I-60000J0D01*
G01*
X-381395040Y-149218574D02*
G75*
G03X-381395040Y-149218574I-60000J0D01*
G01*
X-376271040Y-149218574D02*
G75*
G03X-376271040Y-149218574I-60000J0D01*
G01*
X-389403200Y-95595000D02*
G75*
G03X-389403200Y-95595000I-60000J0D01*
G01*
X-389403200Y-90471000D02*
G75*
G03X-389403200Y-90471000I-60000J0D01*
G01*
X-389403200Y-49831000D02*
G75*
G03X-389403200Y-49831000I-60000J0D01*
G01*
X-389403200Y-54955000D02*
G75*
G03X-389403200Y-54955000I-60000J0D01*
G01*
X-389403200Y-13045000D02*
G75*
G03X-389403200Y-13045000I-60000J0D01*
G01*
X-389403200Y-7921000D02*
G75*
G03X-389403200Y-7921000I-60000J0D01*
G01*
X-389403200Y-136010574D02*
G75*
G03X-389403200Y-136010574I-60000J0D01*
G01*
X-389403200Y-141134574D02*
G75*
G03X-389403200Y-141134574I-60000J0D01*
G01*
D10*
X-220168200Y-366249800D02*
X-228168200Y-366249800D01*
D12*
X-154039380Y-367075990D02*
X-154039380Y-366575990D01*
X-153848904Y-366575990D01*
X-153801285Y-366599800D01*
X-153777476Y-366623609D01*
X-153753666Y-366671228D01*
X-153753666Y-366742657D01*
X-153777476Y-366790276D01*
X-153801285Y-366814085D01*
X-153848904Y-366837895D01*
X-154039380Y-366837895D01*
X-153253666Y-367028371D02*
X-153277476Y-367052180D01*
X-153348904Y-367075990D01*
X-153396523Y-367075990D01*
X-153467952Y-367052180D01*
X-153515571Y-367004561D01*
X-153539380Y-366956942D01*
X-153563190Y-366861704D01*
X-153563190Y-366790276D01*
X-153539380Y-366695038D01*
X-153515571Y-366647419D01*
X-153467952Y-366599800D01*
X-153396523Y-366575990D01*
X-153348904Y-366575990D01*
X-153277476Y-366599800D01*
X-153253666Y-366623609D01*
X-152872714Y-366814085D02*
X-152801285Y-366837895D01*
X-152777476Y-366861704D01*
X-152753666Y-366909323D01*
X-152753666Y-366980752D01*
X-152777476Y-367028371D01*
X-152801285Y-367052180D01*
X-152848904Y-367075990D01*
X-153039380Y-367075990D01*
X-153039380Y-366575990D01*
X-152872714Y-366575990D01*
X-152825095Y-366599800D01*
X-152801285Y-366623609D01*
X-152777476Y-366671228D01*
X-152777476Y-366718847D01*
X-152801285Y-366766466D01*
X-152825095Y-366790276D01*
X-152872714Y-366814085D01*
X-153039380Y-366814085D01*
X-151967952Y-367052180D02*
X-152015571Y-367075990D01*
X-152110809Y-367075990D01*
X-152158428Y-367052180D01*
X-152182238Y-367004561D01*
X-152182238Y-366814085D01*
X-152158428Y-366766466D01*
X-152110809Y-366742657D01*
X-152015571Y-366742657D01*
X-151967952Y-366766466D01*
X-151944142Y-366814085D01*
X-151944142Y-366861704D01*
X-152182238Y-366909323D01*
X-151515571Y-367075990D02*
X-151515571Y-366575990D01*
X-151515571Y-367052180D02*
X-151563190Y-367075990D01*
X-151658428Y-367075990D01*
X-151706047Y-367052180D01*
X-151729857Y-367028371D01*
X-151753666Y-366980752D01*
X-151753666Y-366837895D01*
X-151729857Y-366790276D01*
X-151706047Y-366766466D01*
X-151658428Y-366742657D01*
X-151563190Y-366742657D01*
X-151515571Y-366766466D01*
X-151063190Y-366742657D02*
X-151063190Y-367147419D01*
X-151087000Y-367195038D01*
X-151110809Y-367218847D01*
X-151158428Y-367242657D01*
X-151229857Y-367242657D01*
X-151277476Y-367218847D01*
X-151063190Y-367052180D02*
X-151110809Y-367075990D01*
X-151206047Y-367075990D01*
X-151253666Y-367052180D01*
X-151277476Y-367028371D01*
X-151301285Y-366980752D01*
X-151301285Y-366837895D01*
X-151277476Y-366790276D01*
X-151253666Y-366766466D01*
X-151206047Y-366742657D01*
X-151110809Y-366742657D01*
X-151063190Y-366766466D01*
X-150634619Y-367052180D02*
X-150682238Y-367075990D01*
X-150777476Y-367075990D01*
X-150825095Y-367052180D01*
X-150848904Y-367004561D01*
X-150848904Y-366814085D01*
X-150825095Y-366766466D01*
X-150777476Y-366742657D01*
X-150682238Y-366742657D01*
X-150634619Y-366766466D01*
X-150610809Y-366814085D01*
X-150610809Y-366861704D01*
X-150848904Y-366909323D01*
X-177991580Y-367075990D02*
X-177991580Y-366575990D01*
X-177801104Y-366575990D01*
X-177753485Y-366599800D01*
X-177729676Y-366623609D01*
X-177705866Y-366671228D01*
X-177705866Y-366742657D01*
X-177729676Y-366790276D01*
X-177753485Y-366814085D01*
X-177801104Y-366837895D01*
X-177991580Y-366837895D01*
X-177205866Y-367028371D02*
X-177229676Y-367052180D01*
X-177301104Y-367075990D01*
X-177348723Y-367075990D01*
X-177420152Y-367052180D01*
X-177467771Y-367004561D01*
X-177491580Y-366956942D01*
X-177515390Y-366861704D01*
X-177515390Y-366790276D01*
X-177491580Y-366695038D01*
X-177467771Y-366647419D01*
X-177420152Y-366599800D01*
X-177348723Y-366575990D01*
X-177301104Y-366575990D01*
X-177229676Y-366599800D01*
X-177205866Y-366623609D01*
X-176824914Y-366814085D02*
X-176753485Y-366837895D01*
X-176729676Y-366861704D01*
X-176705866Y-366909323D01*
X-176705866Y-366980752D01*
X-176729676Y-367028371D01*
X-176753485Y-367052180D01*
X-176801104Y-367075990D01*
X-176991580Y-367075990D01*
X-176991580Y-366575990D01*
X-176824914Y-366575990D01*
X-176777295Y-366599800D01*
X-176753485Y-366623609D01*
X-176729676Y-366671228D01*
X-176729676Y-366718847D01*
X-176753485Y-366766466D01*
X-176777295Y-366790276D01*
X-176824914Y-366814085D01*
X-176991580Y-366814085D01*
X-175920152Y-367052180D02*
X-175967771Y-367075990D01*
X-176063009Y-367075990D01*
X-176110628Y-367052180D01*
X-176134438Y-367004561D01*
X-176134438Y-366814085D01*
X-176110628Y-366766466D01*
X-176063009Y-366742657D01*
X-175967771Y-366742657D01*
X-175920152Y-366766466D01*
X-175896342Y-366814085D01*
X-175896342Y-366861704D01*
X-176134438Y-366909323D01*
X-175467771Y-367075990D02*
X-175467771Y-366575990D01*
X-175467771Y-367052180D02*
X-175515390Y-367075990D01*
X-175610628Y-367075990D01*
X-175658247Y-367052180D01*
X-175682057Y-367028371D01*
X-175705866Y-366980752D01*
X-175705866Y-366837895D01*
X-175682057Y-366790276D01*
X-175658247Y-366766466D01*
X-175610628Y-366742657D01*
X-175515390Y-366742657D01*
X-175467771Y-366766466D01*
X-175015390Y-366742657D02*
X-175015390Y-367147419D01*
X-175039200Y-367195038D01*
X-175063009Y-367218847D01*
X-175110628Y-367242657D01*
X-175182057Y-367242657D01*
X-175229676Y-367218847D01*
X-175015390Y-367052180D02*
X-175063009Y-367075990D01*
X-175158247Y-367075990D01*
X-175205866Y-367052180D01*
X-175229676Y-367028371D01*
X-175253485Y-366980752D01*
X-175253485Y-366837895D01*
X-175229676Y-366790276D01*
X-175205866Y-366766466D01*
X-175158247Y-366742657D01*
X-175063009Y-366742657D01*
X-175015390Y-366766466D01*
X-174586819Y-367052180D02*
X-174634438Y-367075990D01*
X-174729676Y-367075990D01*
X-174777295Y-367052180D01*
X-174801104Y-367004561D01*
X-174801104Y-366814085D01*
X-174777295Y-366766466D01*
X-174729676Y-366742657D01*
X-174634438Y-366742657D01*
X-174586819Y-366766466D01*
X-174563009Y-366814085D01*
X-174563009Y-366861704D01*
X-174801104Y-366909323D01*
X-201918380Y-367075990D02*
X-201918380Y-366575990D01*
X-201727904Y-366575990D01*
X-201680285Y-366599800D01*
X-201656476Y-366623609D01*
X-201632666Y-366671228D01*
X-201632666Y-366742657D01*
X-201656476Y-366790276D01*
X-201680285Y-366814085D01*
X-201727904Y-366837895D01*
X-201918380Y-366837895D01*
X-201132666Y-367028371D02*
X-201156476Y-367052180D01*
X-201227904Y-367075990D01*
X-201275523Y-367075990D01*
X-201346952Y-367052180D01*
X-201394571Y-367004561D01*
X-201418380Y-366956942D01*
X-201442190Y-366861704D01*
X-201442190Y-366790276D01*
X-201418380Y-366695038D01*
X-201394571Y-366647419D01*
X-201346952Y-366599800D01*
X-201275523Y-366575990D01*
X-201227904Y-366575990D01*
X-201156476Y-366599800D01*
X-201132666Y-366623609D01*
X-200751714Y-366814085D02*
X-200680285Y-366837895D01*
X-200656476Y-366861704D01*
X-200632666Y-366909323D01*
X-200632666Y-366980752D01*
X-200656476Y-367028371D01*
X-200680285Y-367052180D01*
X-200727904Y-367075990D01*
X-200918380Y-367075990D01*
X-200918380Y-366575990D01*
X-200751714Y-366575990D01*
X-200704095Y-366599800D01*
X-200680285Y-366623609D01*
X-200656476Y-366671228D01*
X-200656476Y-366718847D01*
X-200680285Y-366766466D01*
X-200704095Y-366790276D01*
X-200751714Y-366814085D01*
X-200918380Y-366814085D01*
X-199846952Y-367052180D02*
X-199894571Y-367075990D01*
X-199989809Y-367075990D01*
X-200037428Y-367052180D01*
X-200061238Y-367004561D01*
X-200061238Y-366814085D01*
X-200037428Y-366766466D01*
X-199989809Y-366742657D01*
X-199894571Y-366742657D01*
X-199846952Y-366766466D01*
X-199823142Y-366814085D01*
X-199823142Y-366861704D01*
X-200061238Y-366909323D01*
X-199394571Y-367075990D02*
X-199394571Y-366575990D01*
X-199394571Y-367052180D02*
X-199442190Y-367075990D01*
X-199537428Y-367075990D01*
X-199585047Y-367052180D01*
X-199608857Y-367028371D01*
X-199632666Y-366980752D01*
X-199632666Y-366837895D01*
X-199608857Y-366790276D01*
X-199585047Y-366766466D01*
X-199537428Y-366742657D01*
X-199442190Y-366742657D01*
X-199394571Y-366766466D01*
X-198942190Y-366742657D02*
X-198942190Y-367147419D01*
X-198966000Y-367195038D01*
X-198989809Y-367218847D01*
X-199037428Y-367242657D01*
X-199108857Y-367242657D01*
X-199156476Y-367218847D01*
X-198942190Y-367052180D02*
X-198989809Y-367075990D01*
X-199085047Y-367075990D01*
X-199132666Y-367052180D01*
X-199156476Y-367028371D01*
X-199180285Y-366980752D01*
X-199180285Y-366837895D01*
X-199156476Y-366790276D01*
X-199132666Y-366766466D01*
X-199085047Y-366742657D01*
X-198989809Y-366742657D01*
X-198942190Y-366766466D01*
X-198513619Y-367052180D02*
X-198561238Y-367075990D01*
X-198656476Y-367075990D01*
X-198704095Y-367052180D01*
X-198727904Y-367004561D01*
X-198727904Y-366814085D01*
X-198704095Y-366766466D01*
X-198656476Y-366742657D01*
X-198561238Y-366742657D01*
X-198513619Y-366766466D01*
X-198489809Y-366814085D01*
X-198489809Y-366861704D01*
X-198727904Y-366909323D01*
X-225870580Y-367075990D02*
X-225870580Y-366575990D01*
X-225680104Y-366575990D01*
X-225632485Y-366599800D01*
X-225608676Y-366623609D01*
X-225584866Y-366671228D01*
X-225584866Y-366742657D01*
X-225608676Y-366790276D01*
X-225632485Y-366814085D01*
X-225680104Y-366837895D01*
X-225870580Y-366837895D01*
X-225084866Y-367028371D02*
X-225108676Y-367052180D01*
X-225180104Y-367075990D01*
X-225227723Y-367075990D01*
X-225299152Y-367052180D01*
X-225346771Y-367004561D01*
X-225370580Y-366956942D01*
X-225394390Y-366861704D01*
X-225394390Y-366790276D01*
X-225370580Y-366695038D01*
X-225346771Y-366647419D01*
X-225299152Y-366599800D01*
X-225227723Y-366575990D01*
X-225180104Y-366575990D01*
X-225108676Y-366599800D01*
X-225084866Y-366623609D01*
X-224703914Y-366814085D02*
X-224632485Y-366837895D01*
X-224608676Y-366861704D01*
X-224584866Y-366909323D01*
X-224584866Y-366980752D01*
X-224608676Y-367028371D01*
X-224632485Y-367052180D01*
X-224680104Y-367075990D01*
X-224870580Y-367075990D01*
X-224870580Y-366575990D01*
X-224703914Y-366575990D01*
X-224656295Y-366599800D01*
X-224632485Y-366623609D01*
X-224608676Y-366671228D01*
X-224608676Y-366718847D01*
X-224632485Y-366766466D01*
X-224656295Y-366790276D01*
X-224703914Y-366814085D01*
X-224870580Y-366814085D01*
X-223799152Y-367052180D02*
X-223846771Y-367075990D01*
X-223942009Y-367075990D01*
X-223989628Y-367052180D01*
X-224013438Y-367004561D01*
X-224013438Y-366814085D01*
X-223989628Y-366766466D01*
X-223942009Y-366742657D01*
X-223846771Y-366742657D01*
X-223799152Y-366766466D01*
X-223775342Y-366814085D01*
X-223775342Y-366861704D01*
X-224013438Y-366909323D01*
X-223346771Y-367075990D02*
X-223346771Y-366575990D01*
X-223346771Y-367052180D02*
X-223394390Y-367075990D01*
X-223489628Y-367075990D01*
X-223537247Y-367052180D01*
X-223561057Y-367028371D01*
X-223584866Y-366980752D01*
X-223584866Y-366837895D01*
X-223561057Y-366790276D01*
X-223537247Y-366766466D01*
X-223489628Y-366742657D01*
X-223394390Y-366742657D01*
X-223346771Y-366766466D01*
X-222894390Y-366742657D02*
X-222894390Y-367147419D01*
X-222918200Y-367195038D01*
X-222942009Y-367218847D01*
X-222989628Y-367242657D01*
X-223061057Y-367242657D01*
X-223108676Y-367218847D01*
X-222894390Y-367052180D02*
X-222942009Y-367075990D01*
X-223037247Y-367075990D01*
X-223084866Y-367052180D01*
X-223108676Y-367028371D01*
X-223132485Y-366980752D01*
X-223132485Y-366837895D01*
X-223108676Y-366790276D01*
X-223084866Y-366766466D01*
X-223037247Y-366742657D01*
X-222942009Y-366742657D01*
X-222894390Y-366766466D01*
X-222465819Y-367052180D02*
X-222513438Y-367075990D01*
X-222608676Y-367075990D01*
X-222656295Y-367052180D01*
X-222680104Y-367004561D01*
X-222680104Y-366814085D01*
X-222656295Y-366766466D01*
X-222608676Y-366742657D01*
X-222513438Y-366742657D01*
X-222465819Y-366766466D01*
X-222442009Y-366814085D01*
X-222442009Y-366861704D01*
X-222680104Y-366909323D01*
M02*
