G04 #@! TF.GenerationSoftware,KiCad,Pcbnew,(5.1.5)-3*
G04 #@! TF.CreationDate,2020-09-18T03:25:38-03:00*
G04 #@! TF.ProjectId,SET-RESET,5345542d-5245-4534-9554-2e6b69636164,rev?*
G04 #@! TF.SameCoordinates,Original*
G04 #@! TF.FileFunction,Paste,Top*
G04 #@! TF.FilePolarity,Positive*
%FSLAX46Y46*%
G04 Gerber Fmt 4.6, Leading zero omitted, Abs format (unit mm)*
G04 Created by KiCad (PCBNEW (5.1.5)-3) date 2020-09-18 03:25:38*
%MOMM*%
%LPD*%
G04 APERTURE LIST*
%ADD10C,0.100000*%
%ADD11R,2.000000X1.600000*%
%ADD12R,0.900000X0.800000*%
%ADD13R,0.800000X0.900000*%
%ADD14R,1.400000X0.800000*%
G04 APERTURE END LIST*
D10*
G36*
X243904384Y-110857164D02*
G01*
X243928653Y-110860764D01*
X243952451Y-110866725D01*
X243975551Y-110874990D01*
X243997729Y-110885480D01*
X244018773Y-110898093D01*
X244038478Y-110912707D01*
X244056657Y-110929183D01*
X244073133Y-110947362D01*
X244087747Y-110967067D01*
X244100360Y-110988111D01*
X244110850Y-111010289D01*
X244119115Y-111033389D01*
X244125076Y-111057187D01*
X244128676Y-111081456D01*
X244129880Y-111105960D01*
X244129880Y-114105960D01*
X244128676Y-114130464D01*
X244125076Y-114154733D01*
X244119115Y-114178531D01*
X244110850Y-114201631D01*
X244100360Y-114223809D01*
X244087747Y-114244853D01*
X244073133Y-114264558D01*
X244056657Y-114282737D01*
X244038478Y-114299213D01*
X244018773Y-114313827D01*
X243997729Y-114326440D01*
X243975551Y-114336930D01*
X243952451Y-114345195D01*
X243928653Y-114351156D01*
X243904384Y-114354756D01*
X243879880Y-114355960D01*
X241879880Y-114355960D01*
X241855376Y-114354756D01*
X241831107Y-114351156D01*
X241807309Y-114345195D01*
X241784209Y-114336930D01*
X241762031Y-114326440D01*
X241740987Y-114313827D01*
X241721282Y-114299213D01*
X241703103Y-114282737D01*
X241686627Y-114264558D01*
X241672013Y-114244853D01*
X241659400Y-114223809D01*
X241648910Y-114201631D01*
X241640645Y-114178531D01*
X241634684Y-114154733D01*
X241631084Y-114130464D01*
X241629880Y-114105960D01*
X241629880Y-111105960D01*
X241631084Y-111081456D01*
X241634684Y-111057187D01*
X241640645Y-111033389D01*
X241648910Y-111010289D01*
X241659400Y-110988111D01*
X241672013Y-110967067D01*
X241686627Y-110947362D01*
X241703103Y-110929183D01*
X241721282Y-110912707D01*
X241740987Y-110898093D01*
X241762031Y-110885480D01*
X241784209Y-110874990D01*
X241807309Y-110866725D01*
X241831107Y-110860764D01*
X241855376Y-110857164D01*
X241879880Y-110855960D01*
X243879880Y-110855960D01*
X243904384Y-110857164D01*
G37*
G36*
X243904384Y-104357164D02*
G01*
X243928653Y-104360764D01*
X243952451Y-104366725D01*
X243975551Y-104374990D01*
X243997729Y-104385480D01*
X244018773Y-104398093D01*
X244038478Y-104412707D01*
X244056657Y-104429183D01*
X244073133Y-104447362D01*
X244087747Y-104467067D01*
X244100360Y-104488111D01*
X244110850Y-104510289D01*
X244119115Y-104533389D01*
X244125076Y-104557187D01*
X244128676Y-104581456D01*
X244129880Y-104605960D01*
X244129880Y-107605960D01*
X244128676Y-107630464D01*
X244125076Y-107654733D01*
X244119115Y-107678531D01*
X244110850Y-107701631D01*
X244100360Y-107723809D01*
X244087747Y-107744853D01*
X244073133Y-107764558D01*
X244056657Y-107782737D01*
X244038478Y-107799213D01*
X244018773Y-107813827D01*
X243997729Y-107826440D01*
X243975551Y-107836930D01*
X243952451Y-107845195D01*
X243928653Y-107851156D01*
X243904384Y-107854756D01*
X243879880Y-107855960D01*
X241879880Y-107855960D01*
X241855376Y-107854756D01*
X241831107Y-107851156D01*
X241807309Y-107845195D01*
X241784209Y-107836930D01*
X241762031Y-107826440D01*
X241740987Y-107813827D01*
X241721282Y-107799213D01*
X241703103Y-107782737D01*
X241686627Y-107764558D01*
X241672013Y-107744853D01*
X241659400Y-107723809D01*
X241648910Y-107701631D01*
X241640645Y-107678531D01*
X241634684Y-107654733D01*
X241631084Y-107630464D01*
X241629880Y-107605960D01*
X241629880Y-104605960D01*
X241631084Y-104581456D01*
X241634684Y-104557187D01*
X241640645Y-104533389D01*
X241648910Y-104510289D01*
X241659400Y-104488111D01*
X241672013Y-104467067D01*
X241686627Y-104447362D01*
X241703103Y-104429183D01*
X241721282Y-104412707D01*
X241740987Y-104398093D01*
X241762031Y-104385480D01*
X241784209Y-104374990D01*
X241807309Y-104366725D01*
X241831107Y-104360764D01*
X241855376Y-104357164D01*
X241879880Y-104355960D01*
X243879880Y-104355960D01*
X243904384Y-104357164D01*
G37*
G36*
X233937482Y-112166074D02*
G01*
X233961143Y-112169584D01*
X233984347Y-112175396D01*
X234006869Y-112183454D01*
X234028493Y-112193682D01*
X234049010Y-112205979D01*
X234068223Y-112220229D01*
X234085947Y-112236293D01*
X234102011Y-112254017D01*
X234116261Y-112273230D01*
X234128558Y-112293747D01*
X234138786Y-112315371D01*
X234146844Y-112337893D01*
X234152656Y-112361097D01*
X234156166Y-112384758D01*
X234157340Y-112408650D01*
X234157340Y-113321150D01*
X234156166Y-113345042D01*
X234152656Y-113368703D01*
X234146844Y-113391907D01*
X234138786Y-113414429D01*
X234128558Y-113436053D01*
X234116261Y-113456570D01*
X234102011Y-113475783D01*
X234085947Y-113493507D01*
X234068223Y-113509571D01*
X234049010Y-113523821D01*
X234028493Y-113536118D01*
X234006869Y-113546346D01*
X233984347Y-113554404D01*
X233961143Y-113560216D01*
X233937482Y-113563726D01*
X233913590Y-113564900D01*
X233426090Y-113564900D01*
X233402198Y-113563726D01*
X233378537Y-113560216D01*
X233355333Y-113554404D01*
X233332811Y-113546346D01*
X233311187Y-113536118D01*
X233290670Y-113523821D01*
X233271457Y-113509571D01*
X233253733Y-113493507D01*
X233237669Y-113475783D01*
X233223419Y-113456570D01*
X233211122Y-113436053D01*
X233200894Y-113414429D01*
X233192836Y-113391907D01*
X233187024Y-113368703D01*
X233183514Y-113345042D01*
X233182340Y-113321150D01*
X233182340Y-112408650D01*
X233183514Y-112384758D01*
X233187024Y-112361097D01*
X233192836Y-112337893D01*
X233200894Y-112315371D01*
X233211122Y-112293747D01*
X233223419Y-112273230D01*
X233237669Y-112254017D01*
X233253733Y-112236293D01*
X233271457Y-112220229D01*
X233290670Y-112205979D01*
X233311187Y-112193682D01*
X233332811Y-112183454D01*
X233355333Y-112175396D01*
X233378537Y-112169584D01*
X233402198Y-112166074D01*
X233426090Y-112164900D01*
X233913590Y-112164900D01*
X233937482Y-112166074D01*
G37*
G36*
X232062482Y-112166074D02*
G01*
X232086143Y-112169584D01*
X232109347Y-112175396D01*
X232131869Y-112183454D01*
X232153493Y-112193682D01*
X232174010Y-112205979D01*
X232193223Y-112220229D01*
X232210947Y-112236293D01*
X232227011Y-112254017D01*
X232241261Y-112273230D01*
X232253558Y-112293747D01*
X232263786Y-112315371D01*
X232271844Y-112337893D01*
X232277656Y-112361097D01*
X232281166Y-112384758D01*
X232282340Y-112408650D01*
X232282340Y-113321150D01*
X232281166Y-113345042D01*
X232277656Y-113368703D01*
X232271844Y-113391907D01*
X232263786Y-113414429D01*
X232253558Y-113436053D01*
X232241261Y-113456570D01*
X232227011Y-113475783D01*
X232210947Y-113493507D01*
X232193223Y-113509571D01*
X232174010Y-113523821D01*
X232153493Y-113536118D01*
X232131869Y-113546346D01*
X232109347Y-113554404D01*
X232086143Y-113560216D01*
X232062482Y-113563726D01*
X232038590Y-113564900D01*
X231551090Y-113564900D01*
X231527198Y-113563726D01*
X231503537Y-113560216D01*
X231480333Y-113554404D01*
X231457811Y-113546346D01*
X231436187Y-113536118D01*
X231415670Y-113523821D01*
X231396457Y-113509571D01*
X231378733Y-113493507D01*
X231362669Y-113475783D01*
X231348419Y-113456570D01*
X231336122Y-113436053D01*
X231325894Y-113414429D01*
X231317836Y-113391907D01*
X231312024Y-113368703D01*
X231308514Y-113345042D01*
X231307340Y-113321150D01*
X231307340Y-112408650D01*
X231308514Y-112384758D01*
X231312024Y-112361097D01*
X231317836Y-112337893D01*
X231325894Y-112315371D01*
X231336122Y-112293747D01*
X231348419Y-112273230D01*
X231362669Y-112254017D01*
X231378733Y-112236293D01*
X231396457Y-112220229D01*
X231415670Y-112205979D01*
X231436187Y-112193682D01*
X231457811Y-112183454D01*
X231480333Y-112175396D01*
X231503537Y-112169584D01*
X231527198Y-112166074D01*
X231551090Y-112164900D01*
X232038590Y-112164900D01*
X232062482Y-112166074D01*
G37*
G36*
X164894342Y-107743074D02*
G01*
X164918003Y-107746584D01*
X164941207Y-107752396D01*
X164963729Y-107760454D01*
X164985353Y-107770682D01*
X165005870Y-107782979D01*
X165025083Y-107797229D01*
X165042807Y-107813293D01*
X165058871Y-107831017D01*
X165073121Y-107850230D01*
X165085418Y-107870747D01*
X165095646Y-107892371D01*
X165103704Y-107914893D01*
X165109516Y-107938097D01*
X165113026Y-107961758D01*
X165114200Y-107985650D01*
X165114200Y-108473150D01*
X165113026Y-108497042D01*
X165109516Y-108520703D01*
X165103704Y-108543907D01*
X165095646Y-108566429D01*
X165085418Y-108588053D01*
X165073121Y-108608570D01*
X165058871Y-108627783D01*
X165042807Y-108645507D01*
X165025083Y-108661571D01*
X165005870Y-108675821D01*
X164985353Y-108688118D01*
X164963729Y-108698346D01*
X164941207Y-108706404D01*
X164918003Y-108712216D01*
X164894342Y-108715726D01*
X164870450Y-108716900D01*
X163957950Y-108716900D01*
X163934058Y-108715726D01*
X163910397Y-108712216D01*
X163887193Y-108706404D01*
X163864671Y-108698346D01*
X163843047Y-108688118D01*
X163822530Y-108675821D01*
X163803317Y-108661571D01*
X163785593Y-108645507D01*
X163769529Y-108627783D01*
X163755279Y-108608570D01*
X163742982Y-108588053D01*
X163732754Y-108566429D01*
X163724696Y-108543907D01*
X163718884Y-108520703D01*
X163715374Y-108497042D01*
X163714200Y-108473150D01*
X163714200Y-107985650D01*
X163715374Y-107961758D01*
X163718884Y-107938097D01*
X163724696Y-107914893D01*
X163732754Y-107892371D01*
X163742982Y-107870747D01*
X163755279Y-107850230D01*
X163769529Y-107831017D01*
X163785593Y-107813293D01*
X163803317Y-107797229D01*
X163822530Y-107782979D01*
X163843047Y-107770682D01*
X163864671Y-107760454D01*
X163887193Y-107752396D01*
X163910397Y-107746584D01*
X163934058Y-107743074D01*
X163957950Y-107741900D01*
X164870450Y-107741900D01*
X164894342Y-107743074D01*
G37*
G36*
X164894342Y-105868074D02*
G01*
X164918003Y-105871584D01*
X164941207Y-105877396D01*
X164963729Y-105885454D01*
X164985353Y-105895682D01*
X165005870Y-105907979D01*
X165025083Y-105922229D01*
X165042807Y-105938293D01*
X165058871Y-105956017D01*
X165073121Y-105975230D01*
X165085418Y-105995747D01*
X165095646Y-106017371D01*
X165103704Y-106039893D01*
X165109516Y-106063097D01*
X165113026Y-106086758D01*
X165114200Y-106110650D01*
X165114200Y-106598150D01*
X165113026Y-106622042D01*
X165109516Y-106645703D01*
X165103704Y-106668907D01*
X165095646Y-106691429D01*
X165085418Y-106713053D01*
X165073121Y-106733570D01*
X165058871Y-106752783D01*
X165042807Y-106770507D01*
X165025083Y-106786571D01*
X165005870Y-106800821D01*
X164985353Y-106813118D01*
X164963729Y-106823346D01*
X164941207Y-106831404D01*
X164918003Y-106837216D01*
X164894342Y-106840726D01*
X164870450Y-106841900D01*
X163957950Y-106841900D01*
X163934058Y-106840726D01*
X163910397Y-106837216D01*
X163887193Y-106831404D01*
X163864671Y-106823346D01*
X163843047Y-106813118D01*
X163822530Y-106800821D01*
X163803317Y-106786571D01*
X163785593Y-106770507D01*
X163769529Y-106752783D01*
X163755279Y-106733570D01*
X163742982Y-106713053D01*
X163732754Y-106691429D01*
X163724696Y-106668907D01*
X163718884Y-106645703D01*
X163715374Y-106622042D01*
X163714200Y-106598150D01*
X163714200Y-106110650D01*
X163715374Y-106086758D01*
X163718884Y-106063097D01*
X163724696Y-106039893D01*
X163732754Y-106017371D01*
X163742982Y-105995747D01*
X163755279Y-105975230D01*
X163769529Y-105956017D01*
X163785593Y-105938293D01*
X163803317Y-105922229D01*
X163822530Y-105907979D01*
X163843047Y-105895682D01*
X163864671Y-105885454D01*
X163887193Y-105877396D01*
X163910397Y-105871584D01*
X163934058Y-105868074D01*
X163957950Y-105866900D01*
X164870450Y-105866900D01*
X164894342Y-105868074D01*
G37*
G36*
X162684542Y-107738474D02*
G01*
X162708203Y-107741984D01*
X162731407Y-107747796D01*
X162753929Y-107755854D01*
X162775553Y-107766082D01*
X162796070Y-107778379D01*
X162815283Y-107792629D01*
X162833007Y-107808693D01*
X162849071Y-107826417D01*
X162863321Y-107845630D01*
X162875618Y-107866147D01*
X162885846Y-107887771D01*
X162893904Y-107910293D01*
X162899716Y-107933497D01*
X162903226Y-107957158D01*
X162904400Y-107981050D01*
X162904400Y-108468550D01*
X162903226Y-108492442D01*
X162899716Y-108516103D01*
X162893904Y-108539307D01*
X162885846Y-108561829D01*
X162875618Y-108583453D01*
X162863321Y-108603970D01*
X162849071Y-108623183D01*
X162833007Y-108640907D01*
X162815283Y-108656971D01*
X162796070Y-108671221D01*
X162775553Y-108683518D01*
X162753929Y-108693746D01*
X162731407Y-108701804D01*
X162708203Y-108707616D01*
X162684542Y-108711126D01*
X162660650Y-108712300D01*
X161748150Y-108712300D01*
X161724258Y-108711126D01*
X161700597Y-108707616D01*
X161677393Y-108701804D01*
X161654871Y-108693746D01*
X161633247Y-108683518D01*
X161612730Y-108671221D01*
X161593517Y-108656971D01*
X161575793Y-108640907D01*
X161559729Y-108623183D01*
X161545479Y-108603970D01*
X161533182Y-108583453D01*
X161522954Y-108561829D01*
X161514896Y-108539307D01*
X161509084Y-108516103D01*
X161505574Y-108492442D01*
X161504400Y-108468550D01*
X161504400Y-107981050D01*
X161505574Y-107957158D01*
X161509084Y-107933497D01*
X161514896Y-107910293D01*
X161522954Y-107887771D01*
X161533182Y-107866147D01*
X161545479Y-107845630D01*
X161559729Y-107826417D01*
X161575793Y-107808693D01*
X161593517Y-107792629D01*
X161612730Y-107778379D01*
X161633247Y-107766082D01*
X161654871Y-107755854D01*
X161677393Y-107747796D01*
X161700597Y-107741984D01*
X161724258Y-107738474D01*
X161748150Y-107737300D01*
X162660650Y-107737300D01*
X162684542Y-107738474D01*
G37*
G36*
X162684542Y-105863474D02*
G01*
X162708203Y-105866984D01*
X162731407Y-105872796D01*
X162753929Y-105880854D01*
X162775553Y-105891082D01*
X162796070Y-105903379D01*
X162815283Y-105917629D01*
X162833007Y-105933693D01*
X162849071Y-105951417D01*
X162863321Y-105970630D01*
X162875618Y-105991147D01*
X162885846Y-106012771D01*
X162893904Y-106035293D01*
X162899716Y-106058497D01*
X162903226Y-106082158D01*
X162904400Y-106106050D01*
X162904400Y-106593550D01*
X162903226Y-106617442D01*
X162899716Y-106641103D01*
X162893904Y-106664307D01*
X162885846Y-106686829D01*
X162875618Y-106708453D01*
X162863321Y-106728970D01*
X162849071Y-106748183D01*
X162833007Y-106765907D01*
X162815283Y-106781971D01*
X162796070Y-106796221D01*
X162775553Y-106808518D01*
X162753929Y-106818746D01*
X162731407Y-106826804D01*
X162708203Y-106832616D01*
X162684542Y-106836126D01*
X162660650Y-106837300D01*
X161748150Y-106837300D01*
X161724258Y-106836126D01*
X161700597Y-106832616D01*
X161677393Y-106826804D01*
X161654871Y-106818746D01*
X161633247Y-106808518D01*
X161612730Y-106796221D01*
X161593517Y-106781971D01*
X161575793Y-106765907D01*
X161559729Y-106748183D01*
X161545479Y-106728970D01*
X161533182Y-106708453D01*
X161522954Y-106686829D01*
X161514896Y-106664307D01*
X161509084Y-106641103D01*
X161505574Y-106617442D01*
X161504400Y-106593550D01*
X161504400Y-106106050D01*
X161505574Y-106082158D01*
X161509084Y-106058497D01*
X161514896Y-106035293D01*
X161522954Y-106012771D01*
X161533182Y-105991147D01*
X161545479Y-105970630D01*
X161559729Y-105951417D01*
X161575793Y-105933693D01*
X161593517Y-105917629D01*
X161612730Y-105903379D01*
X161633247Y-105891082D01*
X161654871Y-105880854D01*
X161677393Y-105872796D01*
X161700597Y-105866984D01*
X161724258Y-105863474D01*
X161748150Y-105862300D01*
X162660650Y-105862300D01*
X162684542Y-105863474D01*
G37*
G36*
X168171504Y-112517804D02*
G01*
X168195773Y-112521404D01*
X168219571Y-112527365D01*
X168242671Y-112535630D01*
X168264849Y-112546120D01*
X168285893Y-112558733D01*
X168305598Y-112573347D01*
X168323777Y-112589823D01*
X168340253Y-112608002D01*
X168354867Y-112627707D01*
X168367480Y-112648751D01*
X168377970Y-112670929D01*
X168386235Y-112694029D01*
X168392196Y-112717827D01*
X168395796Y-112742096D01*
X168397000Y-112766600D01*
X168397000Y-114766600D01*
X168395796Y-114791104D01*
X168392196Y-114815373D01*
X168386235Y-114839171D01*
X168377970Y-114862271D01*
X168367480Y-114884449D01*
X168354867Y-114905493D01*
X168340253Y-114925198D01*
X168323777Y-114943377D01*
X168305598Y-114959853D01*
X168285893Y-114974467D01*
X168264849Y-114987080D01*
X168242671Y-114997570D01*
X168219571Y-115005835D01*
X168195773Y-115011796D01*
X168171504Y-115015396D01*
X168147000Y-115016600D01*
X165147000Y-115016600D01*
X165122496Y-115015396D01*
X165098227Y-115011796D01*
X165074429Y-115005835D01*
X165051329Y-114997570D01*
X165029151Y-114987080D01*
X165008107Y-114974467D01*
X164988402Y-114959853D01*
X164970223Y-114943377D01*
X164953747Y-114925198D01*
X164939133Y-114905493D01*
X164926520Y-114884449D01*
X164916030Y-114862271D01*
X164907765Y-114839171D01*
X164901804Y-114815373D01*
X164898204Y-114791104D01*
X164897000Y-114766600D01*
X164897000Y-112766600D01*
X164898204Y-112742096D01*
X164901804Y-112717827D01*
X164907765Y-112694029D01*
X164916030Y-112670929D01*
X164926520Y-112648751D01*
X164939133Y-112627707D01*
X164953747Y-112608002D01*
X164970223Y-112589823D01*
X164988402Y-112573347D01*
X165008107Y-112558733D01*
X165029151Y-112546120D01*
X165051329Y-112535630D01*
X165074429Y-112527365D01*
X165098227Y-112521404D01*
X165122496Y-112517804D01*
X165147000Y-112516600D01*
X168147000Y-112516600D01*
X168171504Y-112517804D01*
G37*
G36*
X161671504Y-112517804D02*
G01*
X161695773Y-112521404D01*
X161719571Y-112527365D01*
X161742671Y-112535630D01*
X161764849Y-112546120D01*
X161785893Y-112558733D01*
X161805598Y-112573347D01*
X161823777Y-112589823D01*
X161840253Y-112608002D01*
X161854867Y-112627707D01*
X161867480Y-112648751D01*
X161877970Y-112670929D01*
X161886235Y-112694029D01*
X161892196Y-112717827D01*
X161895796Y-112742096D01*
X161897000Y-112766600D01*
X161897000Y-114766600D01*
X161895796Y-114791104D01*
X161892196Y-114815373D01*
X161886235Y-114839171D01*
X161877970Y-114862271D01*
X161867480Y-114884449D01*
X161854867Y-114905493D01*
X161840253Y-114925198D01*
X161823777Y-114943377D01*
X161805598Y-114959853D01*
X161785893Y-114974467D01*
X161764849Y-114987080D01*
X161742671Y-114997570D01*
X161719571Y-115005835D01*
X161695773Y-115011796D01*
X161671504Y-115015396D01*
X161647000Y-115016600D01*
X158647000Y-115016600D01*
X158622496Y-115015396D01*
X158598227Y-115011796D01*
X158574429Y-115005835D01*
X158551329Y-114997570D01*
X158529151Y-114987080D01*
X158508107Y-114974467D01*
X158488402Y-114959853D01*
X158470223Y-114943377D01*
X158453747Y-114925198D01*
X158439133Y-114905493D01*
X158426520Y-114884449D01*
X158416030Y-114862271D01*
X158407765Y-114839171D01*
X158401804Y-114815373D01*
X158398204Y-114791104D01*
X158397000Y-114766600D01*
X158397000Y-112766600D01*
X158398204Y-112742096D01*
X158401804Y-112717827D01*
X158407765Y-112694029D01*
X158416030Y-112670929D01*
X158426520Y-112648751D01*
X158439133Y-112627707D01*
X158453747Y-112608002D01*
X158470223Y-112589823D01*
X158488402Y-112573347D01*
X158508107Y-112558733D01*
X158529151Y-112546120D01*
X158551329Y-112535630D01*
X158574429Y-112527365D01*
X158598227Y-112521404D01*
X158622496Y-112517804D01*
X158647000Y-112516600D01*
X161647000Y-112516600D01*
X161671504Y-112517804D01*
G37*
D11*
X191731900Y-39649400D03*
X191731900Y-43713400D03*
X191858900Y-61722000D03*
X191858900Y-57658000D03*
X191884300Y-79527400D03*
X191884300Y-75463400D03*
D10*
G36*
X195267105Y-97810344D02*
G01*
X195291373Y-97813944D01*
X195315172Y-97819905D01*
X195338271Y-97828170D01*
X195360450Y-97838660D01*
X195381493Y-97851272D01*
X195401199Y-97865887D01*
X195419377Y-97882363D01*
X195435853Y-97900541D01*
X195450468Y-97920247D01*
X195463080Y-97941290D01*
X195473570Y-97963469D01*
X195481835Y-97986568D01*
X195487796Y-98010367D01*
X195491396Y-98034635D01*
X195492600Y-98059139D01*
X195492600Y-98709141D01*
X195491396Y-98733645D01*
X195487796Y-98757913D01*
X195481835Y-98781712D01*
X195473570Y-98804811D01*
X195463080Y-98826990D01*
X195450468Y-98848033D01*
X195435853Y-98867739D01*
X195419377Y-98885917D01*
X195401199Y-98902393D01*
X195381493Y-98917008D01*
X195360450Y-98929620D01*
X195338271Y-98940110D01*
X195315172Y-98948375D01*
X195291373Y-98954336D01*
X195267105Y-98957936D01*
X195242601Y-98959140D01*
X194342599Y-98959140D01*
X194318095Y-98957936D01*
X194293827Y-98954336D01*
X194270028Y-98948375D01*
X194246929Y-98940110D01*
X194224750Y-98929620D01*
X194203707Y-98917008D01*
X194184001Y-98902393D01*
X194165823Y-98885917D01*
X194149347Y-98867739D01*
X194134732Y-98848033D01*
X194122120Y-98826990D01*
X194111630Y-98804811D01*
X194103365Y-98781712D01*
X194097404Y-98757913D01*
X194093804Y-98733645D01*
X194092600Y-98709141D01*
X194092600Y-98059139D01*
X194093804Y-98034635D01*
X194097404Y-98010367D01*
X194103365Y-97986568D01*
X194111630Y-97963469D01*
X194122120Y-97941290D01*
X194134732Y-97920247D01*
X194149347Y-97900541D01*
X194165823Y-97882363D01*
X194184001Y-97865887D01*
X194203707Y-97851272D01*
X194224750Y-97838660D01*
X194246929Y-97828170D01*
X194270028Y-97819905D01*
X194293827Y-97813944D01*
X194318095Y-97810344D01*
X194342599Y-97809140D01*
X195242601Y-97809140D01*
X195267105Y-97810344D01*
G37*
G36*
X195267105Y-99860344D02*
G01*
X195291373Y-99863944D01*
X195315172Y-99869905D01*
X195338271Y-99878170D01*
X195360450Y-99888660D01*
X195381493Y-99901272D01*
X195401199Y-99915887D01*
X195419377Y-99932363D01*
X195435853Y-99950541D01*
X195450468Y-99970247D01*
X195463080Y-99991290D01*
X195473570Y-100013469D01*
X195481835Y-100036568D01*
X195487796Y-100060367D01*
X195491396Y-100084635D01*
X195492600Y-100109139D01*
X195492600Y-100759141D01*
X195491396Y-100783645D01*
X195487796Y-100807913D01*
X195481835Y-100831712D01*
X195473570Y-100854811D01*
X195463080Y-100876990D01*
X195450468Y-100898033D01*
X195435853Y-100917739D01*
X195419377Y-100935917D01*
X195401199Y-100952393D01*
X195381493Y-100967008D01*
X195360450Y-100979620D01*
X195338271Y-100990110D01*
X195315172Y-100998375D01*
X195291373Y-101004336D01*
X195267105Y-101007936D01*
X195242601Y-101009140D01*
X194342599Y-101009140D01*
X194318095Y-101007936D01*
X194293827Y-101004336D01*
X194270028Y-100998375D01*
X194246929Y-100990110D01*
X194224750Y-100979620D01*
X194203707Y-100967008D01*
X194184001Y-100952393D01*
X194165823Y-100935917D01*
X194149347Y-100917739D01*
X194134732Y-100898033D01*
X194122120Y-100876990D01*
X194111630Y-100854811D01*
X194103365Y-100831712D01*
X194097404Y-100807913D01*
X194093804Y-100783645D01*
X194092600Y-100759141D01*
X194092600Y-100109139D01*
X194093804Y-100084635D01*
X194097404Y-100060367D01*
X194103365Y-100036568D01*
X194111630Y-100013469D01*
X194122120Y-99991290D01*
X194134732Y-99970247D01*
X194149347Y-99950541D01*
X194165823Y-99932363D01*
X194184001Y-99915887D01*
X194203707Y-99901272D01*
X194224750Y-99888660D01*
X194246929Y-99878170D01*
X194270028Y-99869905D01*
X194293827Y-99863944D01*
X194318095Y-99860344D01*
X194342599Y-99859140D01*
X195242601Y-99859140D01*
X195267105Y-99860344D01*
G37*
G36*
X195302665Y-105956344D02*
G01*
X195326933Y-105959944D01*
X195350732Y-105965905D01*
X195373831Y-105974170D01*
X195396010Y-105984660D01*
X195417053Y-105997272D01*
X195436759Y-106011887D01*
X195454937Y-106028363D01*
X195471413Y-106046541D01*
X195486028Y-106066247D01*
X195498640Y-106087290D01*
X195509130Y-106109469D01*
X195517395Y-106132568D01*
X195523356Y-106156367D01*
X195526956Y-106180635D01*
X195528160Y-106205139D01*
X195528160Y-106855141D01*
X195526956Y-106879645D01*
X195523356Y-106903913D01*
X195517395Y-106927712D01*
X195509130Y-106950811D01*
X195498640Y-106972990D01*
X195486028Y-106994033D01*
X195471413Y-107013739D01*
X195454937Y-107031917D01*
X195436759Y-107048393D01*
X195417053Y-107063008D01*
X195396010Y-107075620D01*
X195373831Y-107086110D01*
X195350732Y-107094375D01*
X195326933Y-107100336D01*
X195302665Y-107103936D01*
X195278161Y-107105140D01*
X194378159Y-107105140D01*
X194353655Y-107103936D01*
X194329387Y-107100336D01*
X194305588Y-107094375D01*
X194282489Y-107086110D01*
X194260310Y-107075620D01*
X194239267Y-107063008D01*
X194219561Y-107048393D01*
X194201383Y-107031917D01*
X194184907Y-107013739D01*
X194170292Y-106994033D01*
X194157680Y-106972990D01*
X194147190Y-106950811D01*
X194138925Y-106927712D01*
X194132964Y-106903913D01*
X194129364Y-106879645D01*
X194128160Y-106855141D01*
X194128160Y-106205139D01*
X194129364Y-106180635D01*
X194132964Y-106156367D01*
X194138925Y-106132568D01*
X194147190Y-106109469D01*
X194157680Y-106087290D01*
X194170292Y-106066247D01*
X194184907Y-106046541D01*
X194201383Y-106028363D01*
X194219561Y-106011887D01*
X194239267Y-105997272D01*
X194260310Y-105984660D01*
X194282489Y-105974170D01*
X194305588Y-105965905D01*
X194329387Y-105959944D01*
X194353655Y-105956344D01*
X194378159Y-105955140D01*
X195278161Y-105955140D01*
X195302665Y-105956344D01*
G37*
G36*
X195302665Y-103906344D02*
G01*
X195326933Y-103909944D01*
X195350732Y-103915905D01*
X195373831Y-103924170D01*
X195396010Y-103934660D01*
X195417053Y-103947272D01*
X195436759Y-103961887D01*
X195454937Y-103978363D01*
X195471413Y-103996541D01*
X195486028Y-104016247D01*
X195498640Y-104037290D01*
X195509130Y-104059469D01*
X195517395Y-104082568D01*
X195523356Y-104106367D01*
X195526956Y-104130635D01*
X195528160Y-104155139D01*
X195528160Y-104805141D01*
X195526956Y-104829645D01*
X195523356Y-104853913D01*
X195517395Y-104877712D01*
X195509130Y-104900811D01*
X195498640Y-104922990D01*
X195486028Y-104944033D01*
X195471413Y-104963739D01*
X195454937Y-104981917D01*
X195436759Y-104998393D01*
X195417053Y-105013008D01*
X195396010Y-105025620D01*
X195373831Y-105036110D01*
X195350732Y-105044375D01*
X195326933Y-105050336D01*
X195302665Y-105053936D01*
X195278161Y-105055140D01*
X194378159Y-105055140D01*
X194353655Y-105053936D01*
X194329387Y-105050336D01*
X194305588Y-105044375D01*
X194282489Y-105036110D01*
X194260310Y-105025620D01*
X194239267Y-105013008D01*
X194219561Y-104998393D01*
X194201383Y-104981917D01*
X194184907Y-104963739D01*
X194170292Y-104944033D01*
X194157680Y-104922990D01*
X194147190Y-104900811D01*
X194138925Y-104877712D01*
X194132964Y-104853913D01*
X194129364Y-104829645D01*
X194128160Y-104805141D01*
X194128160Y-104155139D01*
X194129364Y-104130635D01*
X194132964Y-104106367D01*
X194138925Y-104082568D01*
X194147190Y-104059469D01*
X194157680Y-104037290D01*
X194170292Y-104016247D01*
X194184907Y-103996541D01*
X194201383Y-103978363D01*
X194219561Y-103961887D01*
X194239267Y-103947272D01*
X194260310Y-103934660D01*
X194282489Y-103924170D01*
X194305588Y-103915905D01*
X194329387Y-103909944D01*
X194353655Y-103906344D01*
X194378159Y-103905140D01*
X195278161Y-103905140D01*
X195302665Y-103906344D01*
G37*
D11*
X154185620Y-108839000D03*
X154185620Y-104775000D03*
D10*
G36*
X195246785Y-111287804D02*
G01*
X195271053Y-111291404D01*
X195294852Y-111297365D01*
X195317951Y-111305630D01*
X195340130Y-111316120D01*
X195361173Y-111328732D01*
X195380879Y-111343347D01*
X195399057Y-111359823D01*
X195415533Y-111378001D01*
X195430148Y-111397707D01*
X195442760Y-111418750D01*
X195453250Y-111440929D01*
X195461515Y-111464028D01*
X195467476Y-111487827D01*
X195471076Y-111512095D01*
X195472280Y-111536599D01*
X195472280Y-112186601D01*
X195471076Y-112211105D01*
X195467476Y-112235373D01*
X195461515Y-112259172D01*
X195453250Y-112282271D01*
X195442760Y-112304450D01*
X195430148Y-112325493D01*
X195415533Y-112345199D01*
X195399057Y-112363377D01*
X195380879Y-112379853D01*
X195361173Y-112394468D01*
X195340130Y-112407080D01*
X195317951Y-112417570D01*
X195294852Y-112425835D01*
X195271053Y-112431796D01*
X195246785Y-112435396D01*
X195222281Y-112436600D01*
X194322279Y-112436600D01*
X194297775Y-112435396D01*
X194273507Y-112431796D01*
X194249708Y-112425835D01*
X194226609Y-112417570D01*
X194204430Y-112407080D01*
X194183387Y-112394468D01*
X194163681Y-112379853D01*
X194145503Y-112363377D01*
X194129027Y-112345199D01*
X194114412Y-112325493D01*
X194101800Y-112304450D01*
X194091310Y-112282271D01*
X194083045Y-112259172D01*
X194077084Y-112235373D01*
X194073484Y-112211105D01*
X194072280Y-112186601D01*
X194072280Y-111536599D01*
X194073484Y-111512095D01*
X194077084Y-111487827D01*
X194083045Y-111464028D01*
X194091310Y-111440929D01*
X194101800Y-111418750D01*
X194114412Y-111397707D01*
X194129027Y-111378001D01*
X194145503Y-111359823D01*
X194163681Y-111343347D01*
X194183387Y-111328732D01*
X194204430Y-111316120D01*
X194226609Y-111305630D01*
X194249708Y-111297365D01*
X194273507Y-111291404D01*
X194297775Y-111287804D01*
X194322279Y-111286600D01*
X195222281Y-111286600D01*
X195246785Y-111287804D01*
G37*
G36*
X195246785Y-109237804D02*
G01*
X195271053Y-109241404D01*
X195294852Y-109247365D01*
X195317951Y-109255630D01*
X195340130Y-109266120D01*
X195361173Y-109278732D01*
X195380879Y-109293347D01*
X195399057Y-109309823D01*
X195415533Y-109328001D01*
X195430148Y-109347707D01*
X195442760Y-109368750D01*
X195453250Y-109390929D01*
X195461515Y-109414028D01*
X195467476Y-109437827D01*
X195471076Y-109462095D01*
X195472280Y-109486599D01*
X195472280Y-110136601D01*
X195471076Y-110161105D01*
X195467476Y-110185373D01*
X195461515Y-110209172D01*
X195453250Y-110232271D01*
X195442760Y-110254450D01*
X195430148Y-110275493D01*
X195415533Y-110295199D01*
X195399057Y-110313377D01*
X195380879Y-110329853D01*
X195361173Y-110344468D01*
X195340130Y-110357080D01*
X195317951Y-110367570D01*
X195294852Y-110375835D01*
X195271053Y-110381796D01*
X195246785Y-110385396D01*
X195222281Y-110386600D01*
X194322279Y-110386600D01*
X194297775Y-110385396D01*
X194273507Y-110381796D01*
X194249708Y-110375835D01*
X194226609Y-110367570D01*
X194204430Y-110357080D01*
X194183387Y-110344468D01*
X194163681Y-110329853D01*
X194145503Y-110313377D01*
X194129027Y-110295199D01*
X194114412Y-110275493D01*
X194101800Y-110254450D01*
X194091310Y-110232271D01*
X194083045Y-110209172D01*
X194077084Y-110185373D01*
X194073484Y-110161105D01*
X194072280Y-110136601D01*
X194072280Y-109486599D01*
X194073484Y-109462095D01*
X194077084Y-109437827D01*
X194083045Y-109414028D01*
X194091310Y-109390929D01*
X194101800Y-109368750D01*
X194114412Y-109347707D01*
X194129027Y-109328001D01*
X194145503Y-109309823D01*
X194163681Y-109293347D01*
X194183387Y-109278732D01*
X194204430Y-109266120D01*
X194226609Y-109255630D01*
X194249708Y-109247365D01*
X194273507Y-109241404D01*
X194297775Y-109237804D01*
X194322279Y-109236600D01*
X195222281Y-109236600D01*
X195246785Y-109237804D01*
G37*
G36*
X170928825Y-121473204D02*
G01*
X170953093Y-121476804D01*
X170976892Y-121482765D01*
X170999991Y-121491030D01*
X171022170Y-121501520D01*
X171043213Y-121514132D01*
X171062919Y-121528747D01*
X171081097Y-121545223D01*
X171097573Y-121563401D01*
X171112188Y-121583107D01*
X171124800Y-121604150D01*
X171135290Y-121626329D01*
X171143555Y-121649428D01*
X171149516Y-121673227D01*
X171153116Y-121697495D01*
X171154320Y-121721999D01*
X171154320Y-122372001D01*
X171153116Y-122396505D01*
X171149516Y-122420773D01*
X171143555Y-122444572D01*
X171135290Y-122467671D01*
X171124800Y-122489850D01*
X171112188Y-122510893D01*
X171097573Y-122530599D01*
X171081097Y-122548777D01*
X171062919Y-122565253D01*
X171043213Y-122579868D01*
X171022170Y-122592480D01*
X170999991Y-122602970D01*
X170976892Y-122611235D01*
X170953093Y-122617196D01*
X170928825Y-122620796D01*
X170904321Y-122622000D01*
X170004319Y-122622000D01*
X169979815Y-122620796D01*
X169955547Y-122617196D01*
X169931748Y-122611235D01*
X169908649Y-122602970D01*
X169886470Y-122592480D01*
X169865427Y-122579868D01*
X169845721Y-122565253D01*
X169827543Y-122548777D01*
X169811067Y-122530599D01*
X169796452Y-122510893D01*
X169783840Y-122489850D01*
X169773350Y-122467671D01*
X169765085Y-122444572D01*
X169759124Y-122420773D01*
X169755524Y-122396505D01*
X169754320Y-122372001D01*
X169754320Y-121721999D01*
X169755524Y-121697495D01*
X169759124Y-121673227D01*
X169765085Y-121649428D01*
X169773350Y-121626329D01*
X169783840Y-121604150D01*
X169796452Y-121583107D01*
X169811067Y-121563401D01*
X169827543Y-121545223D01*
X169845721Y-121528747D01*
X169865427Y-121514132D01*
X169886470Y-121501520D01*
X169908649Y-121491030D01*
X169931748Y-121482765D01*
X169955547Y-121476804D01*
X169979815Y-121473204D01*
X170004319Y-121472000D01*
X170904321Y-121472000D01*
X170928825Y-121473204D01*
G37*
G36*
X170928825Y-119423204D02*
G01*
X170953093Y-119426804D01*
X170976892Y-119432765D01*
X170999991Y-119441030D01*
X171022170Y-119451520D01*
X171043213Y-119464132D01*
X171062919Y-119478747D01*
X171081097Y-119495223D01*
X171097573Y-119513401D01*
X171112188Y-119533107D01*
X171124800Y-119554150D01*
X171135290Y-119576329D01*
X171143555Y-119599428D01*
X171149516Y-119623227D01*
X171153116Y-119647495D01*
X171154320Y-119671999D01*
X171154320Y-120322001D01*
X171153116Y-120346505D01*
X171149516Y-120370773D01*
X171143555Y-120394572D01*
X171135290Y-120417671D01*
X171124800Y-120439850D01*
X171112188Y-120460893D01*
X171097573Y-120480599D01*
X171081097Y-120498777D01*
X171062919Y-120515253D01*
X171043213Y-120529868D01*
X171022170Y-120542480D01*
X170999991Y-120552970D01*
X170976892Y-120561235D01*
X170953093Y-120567196D01*
X170928825Y-120570796D01*
X170904321Y-120572000D01*
X170004319Y-120572000D01*
X169979815Y-120570796D01*
X169955547Y-120567196D01*
X169931748Y-120561235D01*
X169908649Y-120552970D01*
X169886470Y-120542480D01*
X169865427Y-120529868D01*
X169845721Y-120515253D01*
X169827543Y-120498777D01*
X169811067Y-120480599D01*
X169796452Y-120460893D01*
X169783840Y-120439850D01*
X169773350Y-120417671D01*
X169765085Y-120394572D01*
X169759124Y-120370773D01*
X169755524Y-120346505D01*
X169754320Y-120322001D01*
X169754320Y-119671999D01*
X169755524Y-119647495D01*
X169759124Y-119623227D01*
X169765085Y-119599428D01*
X169773350Y-119576329D01*
X169783840Y-119554150D01*
X169796452Y-119533107D01*
X169811067Y-119513401D01*
X169827543Y-119495223D01*
X169845721Y-119478747D01*
X169865427Y-119464132D01*
X169886470Y-119451520D01*
X169908649Y-119441030D01*
X169931748Y-119432765D01*
X169955547Y-119426804D01*
X169979815Y-119423204D01*
X170004319Y-119422000D01*
X170904321Y-119422000D01*
X170928825Y-119423204D01*
G37*
D12*
X222942400Y-67790100D03*
X224942400Y-66840100D03*
X224942400Y-68740100D03*
X225356420Y-88298100D03*
X225356420Y-86398100D03*
X223356420Y-87348100D03*
X222599500Y-49400420D03*
X224599500Y-48450420D03*
X224599500Y-50350420D03*
X208582260Y-107805220D03*
X206582260Y-108755220D03*
X206582260Y-106855220D03*
X206582260Y-102981720D03*
X206582260Y-104881720D03*
X208582260Y-103931720D03*
X208582260Y-99994720D03*
X206582260Y-100944720D03*
X206582260Y-99044720D03*
D13*
X218300300Y-46235620D03*
X220200300Y-46235620D03*
X219250300Y-44235620D03*
X219583000Y-62817500D03*
X220533000Y-64817500D03*
X218633000Y-64817500D03*
X219880220Y-82632800D03*
X220830220Y-84632800D03*
X218930220Y-84632800D03*
D12*
X197993000Y-98529060D03*
X197993000Y-100429060D03*
X199993000Y-99479060D03*
X197970140Y-109920960D03*
X197970140Y-111820960D03*
X199970140Y-110870960D03*
X199954900Y-105572520D03*
X197954900Y-106522520D03*
X197954900Y-104622520D03*
D13*
X186867760Y-98497640D03*
X187817760Y-100497640D03*
X185917760Y-100497640D03*
X186860140Y-109043720D03*
X187810140Y-111043720D03*
X185910140Y-111043720D03*
X185912680Y-105605580D03*
X187812680Y-105605580D03*
X186862680Y-103605580D03*
X178584860Y-95999300D03*
X176684860Y-95999300D03*
X177634860Y-97999300D03*
X178574740Y-103612440D03*
X176674740Y-103612440D03*
X177624740Y-105612440D03*
X178590020Y-99728020D03*
X176690020Y-99728020D03*
X177640020Y-101728020D03*
D10*
G36*
X218780442Y-49656294D02*
G01*
X218804103Y-49659804D01*
X218827307Y-49665616D01*
X218849829Y-49673674D01*
X218871453Y-49683902D01*
X218891970Y-49696199D01*
X218911183Y-49710449D01*
X218928907Y-49726513D01*
X218944971Y-49744237D01*
X218959221Y-49763450D01*
X218971518Y-49783967D01*
X218981746Y-49805591D01*
X218989804Y-49828113D01*
X218995616Y-49851317D01*
X218999126Y-49874978D01*
X219000300Y-49898870D01*
X219000300Y-50386370D01*
X218999126Y-50410262D01*
X218995616Y-50433923D01*
X218989804Y-50457127D01*
X218981746Y-50479649D01*
X218971518Y-50501273D01*
X218959221Y-50521790D01*
X218944971Y-50541003D01*
X218928907Y-50558727D01*
X218911183Y-50574791D01*
X218891970Y-50589041D01*
X218871453Y-50601338D01*
X218849829Y-50611566D01*
X218827307Y-50619624D01*
X218804103Y-50625436D01*
X218780442Y-50628946D01*
X218756550Y-50630120D01*
X217844050Y-50630120D01*
X217820158Y-50628946D01*
X217796497Y-50625436D01*
X217773293Y-50619624D01*
X217750771Y-50611566D01*
X217729147Y-50601338D01*
X217708630Y-50589041D01*
X217689417Y-50574791D01*
X217671693Y-50558727D01*
X217655629Y-50541003D01*
X217641379Y-50521790D01*
X217629082Y-50501273D01*
X217618854Y-50479649D01*
X217610796Y-50457127D01*
X217604984Y-50433923D01*
X217601474Y-50410262D01*
X217600300Y-50386370D01*
X217600300Y-49898870D01*
X217601474Y-49874978D01*
X217604984Y-49851317D01*
X217610796Y-49828113D01*
X217618854Y-49805591D01*
X217629082Y-49783967D01*
X217641379Y-49763450D01*
X217655629Y-49744237D01*
X217671693Y-49726513D01*
X217689417Y-49710449D01*
X217708630Y-49696199D01*
X217729147Y-49683902D01*
X217750771Y-49673674D01*
X217773293Y-49665616D01*
X217796497Y-49659804D01*
X217820158Y-49656294D01*
X217844050Y-49655120D01*
X218756550Y-49655120D01*
X218780442Y-49656294D01*
G37*
G36*
X218780442Y-47781294D02*
G01*
X218804103Y-47784804D01*
X218827307Y-47790616D01*
X218849829Y-47798674D01*
X218871453Y-47808902D01*
X218891970Y-47821199D01*
X218911183Y-47835449D01*
X218928907Y-47851513D01*
X218944971Y-47869237D01*
X218959221Y-47888450D01*
X218971518Y-47908967D01*
X218981746Y-47930591D01*
X218989804Y-47953113D01*
X218995616Y-47976317D01*
X218999126Y-47999978D01*
X219000300Y-48023870D01*
X219000300Y-48511370D01*
X218999126Y-48535262D01*
X218995616Y-48558923D01*
X218989804Y-48582127D01*
X218981746Y-48604649D01*
X218971518Y-48626273D01*
X218959221Y-48646790D01*
X218944971Y-48666003D01*
X218928907Y-48683727D01*
X218911183Y-48699791D01*
X218891970Y-48714041D01*
X218871453Y-48726338D01*
X218849829Y-48736566D01*
X218827307Y-48744624D01*
X218804103Y-48750436D01*
X218780442Y-48753946D01*
X218756550Y-48755120D01*
X217844050Y-48755120D01*
X217820158Y-48753946D01*
X217796497Y-48750436D01*
X217773293Y-48744624D01*
X217750771Y-48736566D01*
X217729147Y-48726338D01*
X217708630Y-48714041D01*
X217689417Y-48699791D01*
X217671693Y-48683727D01*
X217655629Y-48666003D01*
X217641379Y-48646790D01*
X217629082Y-48626273D01*
X217618854Y-48604649D01*
X217610796Y-48582127D01*
X217604984Y-48558923D01*
X217601474Y-48535262D01*
X217600300Y-48511370D01*
X217600300Y-48023870D01*
X217601474Y-47999978D01*
X217604984Y-47976317D01*
X217610796Y-47953113D01*
X217618854Y-47930591D01*
X217629082Y-47908967D01*
X217641379Y-47888450D01*
X217655629Y-47869237D01*
X217671693Y-47851513D01*
X217689417Y-47835449D01*
X217708630Y-47821199D01*
X217729147Y-47808902D01*
X217750771Y-47798674D01*
X217773293Y-47790616D01*
X217796497Y-47784804D01*
X217820158Y-47781294D01*
X217844050Y-47780120D01*
X218756550Y-47780120D01*
X218780442Y-47781294D01*
G37*
G36*
X219123342Y-66379174D02*
G01*
X219147003Y-66382684D01*
X219170207Y-66388496D01*
X219192729Y-66396554D01*
X219214353Y-66406782D01*
X219234870Y-66419079D01*
X219254083Y-66433329D01*
X219271807Y-66449393D01*
X219287871Y-66467117D01*
X219302121Y-66486330D01*
X219314418Y-66506847D01*
X219324646Y-66528471D01*
X219332704Y-66550993D01*
X219338516Y-66574197D01*
X219342026Y-66597858D01*
X219343200Y-66621750D01*
X219343200Y-67109250D01*
X219342026Y-67133142D01*
X219338516Y-67156803D01*
X219332704Y-67180007D01*
X219324646Y-67202529D01*
X219314418Y-67224153D01*
X219302121Y-67244670D01*
X219287871Y-67263883D01*
X219271807Y-67281607D01*
X219254083Y-67297671D01*
X219234870Y-67311921D01*
X219214353Y-67324218D01*
X219192729Y-67334446D01*
X219170207Y-67342504D01*
X219147003Y-67348316D01*
X219123342Y-67351826D01*
X219099450Y-67353000D01*
X218186950Y-67353000D01*
X218163058Y-67351826D01*
X218139397Y-67348316D01*
X218116193Y-67342504D01*
X218093671Y-67334446D01*
X218072047Y-67324218D01*
X218051530Y-67311921D01*
X218032317Y-67297671D01*
X218014593Y-67281607D01*
X217998529Y-67263883D01*
X217984279Y-67244670D01*
X217971982Y-67224153D01*
X217961754Y-67202529D01*
X217953696Y-67180007D01*
X217947884Y-67156803D01*
X217944374Y-67133142D01*
X217943200Y-67109250D01*
X217943200Y-66621750D01*
X217944374Y-66597858D01*
X217947884Y-66574197D01*
X217953696Y-66550993D01*
X217961754Y-66528471D01*
X217971982Y-66506847D01*
X217984279Y-66486330D01*
X217998529Y-66467117D01*
X218014593Y-66449393D01*
X218032317Y-66433329D01*
X218051530Y-66419079D01*
X218072047Y-66406782D01*
X218093671Y-66396554D01*
X218116193Y-66388496D01*
X218139397Y-66382684D01*
X218163058Y-66379174D01*
X218186950Y-66378000D01*
X219099450Y-66378000D01*
X219123342Y-66379174D01*
G37*
G36*
X219123342Y-68254174D02*
G01*
X219147003Y-68257684D01*
X219170207Y-68263496D01*
X219192729Y-68271554D01*
X219214353Y-68281782D01*
X219234870Y-68294079D01*
X219254083Y-68308329D01*
X219271807Y-68324393D01*
X219287871Y-68342117D01*
X219302121Y-68361330D01*
X219314418Y-68381847D01*
X219324646Y-68403471D01*
X219332704Y-68425993D01*
X219338516Y-68449197D01*
X219342026Y-68472858D01*
X219343200Y-68496750D01*
X219343200Y-68984250D01*
X219342026Y-69008142D01*
X219338516Y-69031803D01*
X219332704Y-69055007D01*
X219324646Y-69077529D01*
X219314418Y-69099153D01*
X219302121Y-69119670D01*
X219287871Y-69138883D01*
X219271807Y-69156607D01*
X219254083Y-69172671D01*
X219234870Y-69186921D01*
X219214353Y-69199218D01*
X219192729Y-69209446D01*
X219170207Y-69217504D01*
X219147003Y-69223316D01*
X219123342Y-69226826D01*
X219099450Y-69228000D01*
X218186950Y-69228000D01*
X218163058Y-69226826D01*
X218139397Y-69223316D01*
X218116193Y-69217504D01*
X218093671Y-69209446D01*
X218072047Y-69199218D01*
X218051530Y-69186921D01*
X218032317Y-69172671D01*
X218014593Y-69156607D01*
X217998529Y-69138883D01*
X217984279Y-69119670D01*
X217971982Y-69099153D01*
X217961754Y-69077529D01*
X217953696Y-69055007D01*
X217947884Y-69031803D01*
X217944374Y-69008142D01*
X217943200Y-68984250D01*
X217943200Y-68496750D01*
X217944374Y-68472858D01*
X217947884Y-68449197D01*
X217953696Y-68425993D01*
X217961754Y-68403471D01*
X217971982Y-68381847D01*
X217984279Y-68361330D01*
X217998529Y-68342117D01*
X218014593Y-68324393D01*
X218032317Y-68308329D01*
X218051530Y-68294079D01*
X218072047Y-68281782D01*
X218093671Y-68271554D01*
X218116193Y-68263496D01*
X218139397Y-68257684D01*
X218163058Y-68254174D01*
X218186950Y-68253000D01*
X219099450Y-68253000D01*
X219123342Y-68254174D01*
G37*
G36*
X219410362Y-85992574D02*
G01*
X219434023Y-85996084D01*
X219457227Y-86001896D01*
X219479749Y-86009954D01*
X219501373Y-86020182D01*
X219521890Y-86032479D01*
X219541103Y-86046729D01*
X219558827Y-86062793D01*
X219574891Y-86080517D01*
X219589141Y-86099730D01*
X219601438Y-86120247D01*
X219611666Y-86141871D01*
X219619724Y-86164393D01*
X219625536Y-86187597D01*
X219629046Y-86211258D01*
X219630220Y-86235150D01*
X219630220Y-86722650D01*
X219629046Y-86746542D01*
X219625536Y-86770203D01*
X219619724Y-86793407D01*
X219611666Y-86815929D01*
X219601438Y-86837553D01*
X219589141Y-86858070D01*
X219574891Y-86877283D01*
X219558827Y-86895007D01*
X219541103Y-86911071D01*
X219521890Y-86925321D01*
X219501373Y-86937618D01*
X219479749Y-86947846D01*
X219457227Y-86955904D01*
X219434023Y-86961716D01*
X219410362Y-86965226D01*
X219386470Y-86966400D01*
X218473970Y-86966400D01*
X218450078Y-86965226D01*
X218426417Y-86961716D01*
X218403213Y-86955904D01*
X218380691Y-86947846D01*
X218359067Y-86937618D01*
X218338550Y-86925321D01*
X218319337Y-86911071D01*
X218301613Y-86895007D01*
X218285549Y-86877283D01*
X218271299Y-86858070D01*
X218259002Y-86837553D01*
X218248774Y-86815929D01*
X218240716Y-86793407D01*
X218234904Y-86770203D01*
X218231394Y-86746542D01*
X218230220Y-86722650D01*
X218230220Y-86235150D01*
X218231394Y-86211258D01*
X218234904Y-86187597D01*
X218240716Y-86164393D01*
X218248774Y-86141871D01*
X218259002Y-86120247D01*
X218271299Y-86099730D01*
X218285549Y-86080517D01*
X218301613Y-86062793D01*
X218319337Y-86046729D01*
X218338550Y-86032479D01*
X218359067Y-86020182D01*
X218380691Y-86009954D01*
X218403213Y-86001896D01*
X218426417Y-85996084D01*
X218450078Y-85992574D01*
X218473970Y-85991400D01*
X219386470Y-85991400D01*
X219410362Y-85992574D01*
G37*
G36*
X219410362Y-87867574D02*
G01*
X219434023Y-87871084D01*
X219457227Y-87876896D01*
X219479749Y-87884954D01*
X219501373Y-87895182D01*
X219521890Y-87907479D01*
X219541103Y-87921729D01*
X219558827Y-87937793D01*
X219574891Y-87955517D01*
X219589141Y-87974730D01*
X219601438Y-87995247D01*
X219611666Y-88016871D01*
X219619724Y-88039393D01*
X219625536Y-88062597D01*
X219629046Y-88086258D01*
X219630220Y-88110150D01*
X219630220Y-88597650D01*
X219629046Y-88621542D01*
X219625536Y-88645203D01*
X219619724Y-88668407D01*
X219611666Y-88690929D01*
X219601438Y-88712553D01*
X219589141Y-88733070D01*
X219574891Y-88752283D01*
X219558827Y-88770007D01*
X219541103Y-88786071D01*
X219521890Y-88800321D01*
X219501373Y-88812618D01*
X219479749Y-88822846D01*
X219457227Y-88830904D01*
X219434023Y-88836716D01*
X219410362Y-88840226D01*
X219386470Y-88841400D01*
X218473970Y-88841400D01*
X218450078Y-88840226D01*
X218426417Y-88836716D01*
X218403213Y-88830904D01*
X218380691Y-88822846D01*
X218359067Y-88812618D01*
X218338550Y-88800321D01*
X218319337Y-88786071D01*
X218301613Y-88770007D01*
X218285549Y-88752283D01*
X218271299Y-88733070D01*
X218259002Y-88712553D01*
X218248774Y-88690929D01*
X218240716Y-88668407D01*
X218234904Y-88645203D01*
X218231394Y-88621542D01*
X218230220Y-88597650D01*
X218230220Y-88110150D01*
X218231394Y-88086258D01*
X218234904Y-88062597D01*
X218240716Y-88039393D01*
X218248774Y-88016871D01*
X218259002Y-87995247D01*
X218271299Y-87974730D01*
X218285549Y-87955517D01*
X218301613Y-87937793D01*
X218319337Y-87921729D01*
X218338550Y-87907479D01*
X218359067Y-87895182D01*
X218380691Y-87884954D01*
X218403213Y-87876896D01*
X218426417Y-87871084D01*
X218450078Y-87867574D01*
X218473970Y-87866400D01*
X219386470Y-87866400D01*
X219410362Y-87867574D01*
G37*
G36*
X214620782Y-106915894D02*
G01*
X214644443Y-106919404D01*
X214667647Y-106925216D01*
X214690169Y-106933274D01*
X214711793Y-106943502D01*
X214732310Y-106955799D01*
X214751523Y-106970049D01*
X214769247Y-106986113D01*
X214785311Y-107003837D01*
X214799561Y-107023050D01*
X214811858Y-107043567D01*
X214822086Y-107065191D01*
X214830144Y-107087713D01*
X214835956Y-107110917D01*
X214839466Y-107134578D01*
X214840640Y-107158470D01*
X214840640Y-108070970D01*
X214839466Y-108094862D01*
X214835956Y-108118523D01*
X214830144Y-108141727D01*
X214822086Y-108164249D01*
X214811858Y-108185873D01*
X214799561Y-108206390D01*
X214785311Y-108225603D01*
X214769247Y-108243327D01*
X214751523Y-108259391D01*
X214732310Y-108273641D01*
X214711793Y-108285938D01*
X214690169Y-108296166D01*
X214667647Y-108304224D01*
X214644443Y-108310036D01*
X214620782Y-108313546D01*
X214596890Y-108314720D01*
X214109390Y-108314720D01*
X214085498Y-108313546D01*
X214061837Y-108310036D01*
X214038633Y-108304224D01*
X214016111Y-108296166D01*
X213994487Y-108285938D01*
X213973970Y-108273641D01*
X213954757Y-108259391D01*
X213937033Y-108243327D01*
X213920969Y-108225603D01*
X213906719Y-108206390D01*
X213894422Y-108185873D01*
X213884194Y-108164249D01*
X213876136Y-108141727D01*
X213870324Y-108118523D01*
X213866814Y-108094862D01*
X213865640Y-108070970D01*
X213865640Y-107158470D01*
X213866814Y-107134578D01*
X213870324Y-107110917D01*
X213876136Y-107087713D01*
X213884194Y-107065191D01*
X213894422Y-107043567D01*
X213906719Y-107023050D01*
X213920969Y-107003837D01*
X213937033Y-106986113D01*
X213954757Y-106970049D01*
X213973970Y-106955799D01*
X213994487Y-106943502D01*
X214016111Y-106933274D01*
X214038633Y-106925216D01*
X214061837Y-106919404D01*
X214085498Y-106915894D01*
X214109390Y-106914720D01*
X214596890Y-106914720D01*
X214620782Y-106915894D01*
G37*
G36*
X212745782Y-106915894D02*
G01*
X212769443Y-106919404D01*
X212792647Y-106925216D01*
X212815169Y-106933274D01*
X212836793Y-106943502D01*
X212857310Y-106955799D01*
X212876523Y-106970049D01*
X212894247Y-106986113D01*
X212910311Y-107003837D01*
X212924561Y-107023050D01*
X212936858Y-107043567D01*
X212947086Y-107065191D01*
X212955144Y-107087713D01*
X212960956Y-107110917D01*
X212964466Y-107134578D01*
X212965640Y-107158470D01*
X212965640Y-108070970D01*
X212964466Y-108094862D01*
X212960956Y-108118523D01*
X212955144Y-108141727D01*
X212947086Y-108164249D01*
X212936858Y-108185873D01*
X212924561Y-108206390D01*
X212910311Y-108225603D01*
X212894247Y-108243327D01*
X212876523Y-108259391D01*
X212857310Y-108273641D01*
X212836793Y-108285938D01*
X212815169Y-108296166D01*
X212792647Y-108304224D01*
X212769443Y-108310036D01*
X212745782Y-108313546D01*
X212721890Y-108314720D01*
X212234390Y-108314720D01*
X212210498Y-108313546D01*
X212186837Y-108310036D01*
X212163633Y-108304224D01*
X212141111Y-108296166D01*
X212119487Y-108285938D01*
X212098970Y-108273641D01*
X212079757Y-108259391D01*
X212062033Y-108243327D01*
X212045969Y-108225603D01*
X212031719Y-108206390D01*
X212019422Y-108185873D01*
X212009194Y-108164249D01*
X212001136Y-108141727D01*
X211995324Y-108118523D01*
X211991814Y-108094862D01*
X211990640Y-108070970D01*
X211990640Y-107158470D01*
X211991814Y-107134578D01*
X211995324Y-107110917D01*
X212001136Y-107087713D01*
X212009194Y-107065191D01*
X212019422Y-107043567D01*
X212031719Y-107023050D01*
X212045969Y-107003837D01*
X212062033Y-106986113D01*
X212079757Y-106970049D01*
X212098970Y-106955799D01*
X212119487Y-106943502D01*
X212141111Y-106933274D01*
X212163633Y-106925216D01*
X212186837Y-106919404D01*
X212210498Y-106915894D01*
X212234390Y-106914720D01*
X212721890Y-106914720D01*
X212745782Y-106915894D01*
G37*
G36*
X214595382Y-102262614D02*
G01*
X214619043Y-102266124D01*
X214642247Y-102271936D01*
X214664769Y-102279994D01*
X214686393Y-102290222D01*
X214706910Y-102302519D01*
X214726123Y-102316769D01*
X214743847Y-102332833D01*
X214759911Y-102350557D01*
X214774161Y-102369770D01*
X214786458Y-102390287D01*
X214796686Y-102411911D01*
X214804744Y-102434433D01*
X214810556Y-102457637D01*
X214814066Y-102481298D01*
X214815240Y-102505190D01*
X214815240Y-103417690D01*
X214814066Y-103441582D01*
X214810556Y-103465243D01*
X214804744Y-103488447D01*
X214796686Y-103510969D01*
X214786458Y-103532593D01*
X214774161Y-103553110D01*
X214759911Y-103572323D01*
X214743847Y-103590047D01*
X214726123Y-103606111D01*
X214706910Y-103620361D01*
X214686393Y-103632658D01*
X214664769Y-103642886D01*
X214642247Y-103650944D01*
X214619043Y-103656756D01*
X214595382Y-103660266D01*
X214571490Y-103661440D01*
X214083990Y-103661440D01*
X214060098Y-103660266D01*
X214036437Y-103656756D01*
X214013233Y-103650944D01*
X213990711Y-103642886D01*
X213969087Y-103632658D01*
X213948570Y-103620361D01*
X213929357Y-103606111D01*
X213911633Y-103590047D01*
X213895569Y-103572323D01*
X213881319Y-103553110D01*
X213869022Y-103532593D01*
X213858794Y-103510969D01*
X213850736Y-103488447D01*
X213844924Y-103465243D01*
X213841414Y-103441582D01*
X213840240Y-103417690D01*
X213840240Y-102505190D01*
X213841414Y-102481298D01*
X213844924Y-102457637D01*
X213850736Y-102434433D01*
X213858794Y-102411911D01*
X213869022Y-102390287D01*
X213881319Y-102369770D01*
X213895569Y-102350557D01*
X213911633Y-102332833D01*
X213929357Y-102316769D01*
X213948570Y-102302519D01*
X213969087Y-102290222D01*
X213990711Y-102279994D01*
X214013233Y-102271936D01*
X214036437Y-102266124D01*
X214060098Y-102262614D01*
X214083990Y-102261440D01*
X214571490Y-102261440D01*
X214595382Y-102262614D01*
G37*
G36*
X212720382Y-102262614D02*
G01*
X212744043Y-102266124D01*
X212767247Y-102271936D01*
X212789769Y-102279994D01*
X212811393Y-102290222D01*
X212831910Y-102302519D01*
X212851123Y-102316769D01*
X212868847Y-102332833D01*
X212884911Y-102350557D01*
X212899161Y-102369770D01*
X212911458Y-102390287D01*
X212921686Y-102411911D01*
X212929744Y-102434433D01*
X212935556Y-102457637D01*
X212939066Y-102481298D01*
X212940240Y-102505190D01*
X212940240Y-103417690D01*
X212939066Y-103441582D01*
X212935556Y-103465243D01*
X212929744Y-103488447D01*
X212921686Y-103510969D01*
X212911458Y-103532593D01*
X212899161Y-103553110D01*
X212884911Y-103572323D01*
X212868847Y-103590047D01*
X212851123Y-103606111D01*
X212831910Y-103620361D01*
X212811393Y-103632658D01*
X212789769Y-103642886D01*
X212767247Y-103650944D01*
X212744043Y-103656756D01*
X212720382Y-103660266D01*
X212696490Y-103661440D01*
X212208990Y-103661440D01*
X212185098Y-103660266D01*
X212161437Y-103656756D01*
X212138233Y-103650944D01*
X212115711Y-103642886D01*
X212094087Y-103632658D01*
X212073570Y-103620361D01*
X212054357Y-103606111D01*
X212036633Y-103590047D01*
X212020569Y-103572323D01*
X212006319Y-103553110D01*
X211994022Y-103532593D01*
X211983794Y-103510969D01*
X211975736Y-103488447D01*
X211969924Y-103465243D01*
X211966414Y-103441582D01*
X211965240Y-103417690D01*
X211965240Y-102505190D01*
X211966414Y-102481298D01*
X211969924Y-102457637D01*
X211975736Y-102434433D01*
X211983794Y-102411911D01*
X211994022Y-102390287D01*
X212006319Y-102369770D01*
X212020569Y-102350557D01*
X212036633Y-102332833D01*
X212054357Y-102316769D01*
X212073570Y-102302519D01*
X212094087Y-102290222D01*
X212115711Y-102279994D01*
X212138233Y-102271936D01*
X212161437Y-102266124D01*
X212185098Y-102262614D01*
X212208990Y-102261440D01*
X212696490Y-102261440D01*
X212720382Y-102262614D01*
G37*
G36*
X212722922Y-97804914D02*
G01*
X212746583Y-97808424D01*
X212769787Y-97814236D01*
X212792309Y-97822294D01*
X212813933Y-97832522D01*
X212834450Y-97844819D01*
X212853663Y-97859069D01*
X212871387Y-97875133D01*
X212887451Y-97892857D01*
X212901701Y-97912070D01*
X212913998Y-97932587D01*
X212924226Y-97954211D01*
X212932284Y-97976733D01*
X212938096Y-97999937D01*
X212941606Y-98023598D01*
X212942780Y-98047490D01*
X212942780Y-98959990D01*
X212941606Y-98983882D01*
X212938096Y-99007543D01*
X212932284Y-99030747D01*
X212924226Y-99053269D01*
X212913998Y-99074893D01*
X212901701Y-99095410D01*
X212887451Y-99114623D01*
X212871387Y-99132347D01*
X212853663Y-99148411D01*
X212834450Y-99162661D01*
X212813933Y-99174958D01*
X212792309Y-99185186D01*
X212769787Y-99193244D01*
X212746583Y-99199056D01*
X212722922Y-99202566D01*
X212699030Y-99203740D01*
X212211530Y-99203740D01*
X212187638Y-99202566D01*
X212163977Y-99199056D01*
X212140773Y-99193244D01*
X212118251Y-99185186D01*
X212096627Y-99174958D01*
X212076110Y-99162661D01*
X212056897Y-99148411D01*
X212039173Y-99132347D01*
X212023109Y-99114623D01*
X212008859Y-99095410D01*
X211996562Y-99074893D01*
X211986334Y-99053269D01*
X211978276Y-99030747D01*
X211972464Y-99007543D01*
X211968954Y-98983882D01*
X211967780Y-98959990D01*
X211967780Y-98047490D01*
X211968954Y-98023598D01*
X211972464Y-97999937D01*
X211978276Y-97976733D01*
X211986334Y-97954211D01*
X211996562Y-97932587D01*
X212008859Y-97912070D01*
X212023109Y-97892857D01*
X212039173Y-97875133D01*
X212056897Y-97859069D01*
X212076110Y-97844819D01*
X212096627Y-97832522D01*
X212118251Y-97822294D01*
X212140773Y-97814236D01*
X212163977Y-97808424D01*
X212187638Y-97804914D01*
X212211530Y-97803740D01*
X212699030Y-97803740D01*
X212722922Y-97804914D01*
G37*
G36*
X214597922Y-97804914D02*
G01*
X214621583Y-97808424D01*
X214644787Y-97814236D01*
X214667309Y-97822294D01*
X214688933Y-97832522D01*
X214709450Y-97844819D01*
X214728663Y-97859069D01*
X214746387Y-97875133D01*
X214762451Y-97892857D01*
X214776701Y-97912070D01*
X214788998Y-97932587D01*
X214799226Y-97954211D01*
X214807284Y-97976733D01*
X214813096Y-97999937D01*
X214816606Y-98023598D01*
X214817780Y-98047490D01*
X214817780Y-98959990D01*
X214816606Y-98983882D01*
X214813096Y-99007543D01*
X214807284Y-99030747D01*
X214799226Y-99053269D01*
X214788998Y-99074893D01*
X214776701Y-99095410D01*
X214762451Y-99114623D01*
X214746387Y-99132347D01*
X214728663Y-99148411D01*
X214709450Y-99162661D01*
X214688933Y-99174958D01*
X214667309Y-99185186D01*
X214644787Y-99193244D01*
X214621583Y-99199056D01*
X214597922Y-99202566D01*
X214574030Y-99203740D01*
X214086530Y-99203740D01*
X214062638Y-99202566D01*
X214038977Y-99199056D01*
X214015773Y-99193244D01*
X213993251Y-99185186D01*
X213971627Y-99174958D01*
X213951110Y-99162661D01*
X213931897Y-99148411D01*
X213914173Y-99132347D01*
X213898109Y-99114623D01*
X213883859Y-99095410D01*
X213871562Y-99074893D01*
X213861334Y-99053269D01*
X213853276Y-99030747D01*
X213847464Y-99007543D01*
X213843954Y-98983882D01*
X213842780Y-98959990D01*
X213842780Y-98047490D01*
X213843954Y-98023598D01*
X213847464Y-97999937D01*
X213853276Y-97976733D01*
X213861334Y-97954211D01*
X213871562Y-97932587D01*
X213883859Y-97912070D01*
X213898109Y-97892857D01*
X213914173Y-97875133D01*
X213931897Y-97859069D01*
X213951110Y-97844819D01*
X213971627Y-97832522D01*
X213993251Y-97822294D01*
X214015773Y-97814236D01*
X214038977Y-97808424D01*
X214062638Y-97804914D01*
X214086530Y-97803740D01*
X214574030Y-97803740D01*
X214597922Y-97804914D01*
G37*
G36*
X212745782Y-109323814D02*
G01*
X212769443Y-109327324D01*
X212792647Y-109333136D01*
X212815169Y-109341194D01*
X212836793Y-109351422D01*
X212857310Y-109363719D01*
X212876523Y-109377969D01*
X212894247Y-109394033D01*
X212910311Y-109411757D01*
X212924561Y-109430970D01*
X212936858Y-109451487D01*
X212947086Y-109473111D01*
X212955144Y-109495633D01*
X212960956Y-109518837D01*
X212964466Y-109542498D01*
X212965640Y-109566390D01*
X212965640Y-110478890D01*
X212964466Y-110502782D01*
X212960956Y-110526443D01*
X212955144Y-110549647D01*
X212947086Y-110572169D01*
X212936858Y-110593793D01*
X212924561Y-110614310D01*
X212910311Y-110633523D01*
X212894247Y-110651247D01*
X212876523Y-110667311D01*
X212857310Y-110681561D01*
X212836793Y-110693858D01*
X212815169Y-110704086D01*
X212792647Y-110712144D01*
X212769443Y-110717956D01*
X212745782Y-110721466D01*
X212721890Y-110722640D01*
X212234390Y-110722640D01*
X212210498Y-110721466D01*
X212186837Y-110717956D01*
X212163633Y-110712144D01*
X212141111Y-110704086D01*
X212119487Y-110693858D01*
X212098970Y-110681561D01*
X212079757Y-110667311D01*
X212062033Y-110651247D01*
X212045969Y-110633523D01*
X212031719Y-110614310D01*
X212019422Y-110593793D01*
X212009194Y-110572169D01*
X212001136Y-110549647D01*
X211995324Y-110526443D01*
X211991814Y-110502782D01*
X211990640Y-110478890D01*
X211990640Y-109566390D01*
X211991814Y-109542498D01*
X211995324Y-109518837D01*
X212001136Y-109495633D01*
X212009194Y-109473111D01*
X212019422Y-109451487D01*
X212031719Y-109430970D01*
X212045969Y-109411757D01*
X212062033Y-109394033D01*
X212079757Y-109377969D01*
X212098970Y-109363719D01*
X212119487Y-109351422D01*
X212141111Y-109341194D01*
X212163633Y-109333136D01*
X212186837Y-109327324D01*
X212210498Y-109323814D01*
X212234390Y-109322640D01*
X212721890Y-109322640D01*
X212745782Y-109323814D01*
G37*
G36*
X214620782Y-109323814D02*
G01*
X214644443Y-109327324D01*
X214667647Y-109333136D01*
X214690169Y-109341194D01*
X214711793Y-109351422D01*
X214732310Y-109363719D01*
X214751523Y-109377969D01*
X214769247Y-109394033D01*
X214785311Y-109411757D01*
X214799561Y-109430970D01*
X214811858Y-109451487D01*
X214822086Y-109473111D01*
X214830144Y-109495633D01*
X214835956Y-109518837D01*
X214839466Y-109542498D01*
X214840640Y-109566390D01*
X214840640Y-110478890D01*
X214839466Y-110502782D01*
X214835956Y-110526443D01*
X214830144Y-110549647D01*
X214822086Y-110572169D01*
X214811858Y-110593793D01*
X214799561Y-110614310D01*
X214785311Y-110633523D01*
X214769247Y-110651247D01*
X214751523Y-110667311D01*
X214732310Y-110681561D01*
X214711793Y-110693858D01*
X214690169Y-110704086D01*
X214667647Y-110712144D01*
X214644443Y-110717956D01*
X214620782Y-110721466D01*
X214596890Y-110722640D01*
X214109390Y-110722640D01*
X214085498Y-110721466D01*
X214061837Y-110717956D01*
X214038633Y-110712144D01*
X214016111Y-110704086D01*
X213994487Y-110693858D01*
X213973970Y-110681561D01*
X213954757Y-110667311D01*
X213937033Y-110651247D01*
X213920969Y-110633523D01*
X213906719Y-110614310D01*
X213894422Y-110593793D01*
X213884194Y-110572169D01*
X213876136Y-110549647D01*
X213870324Y-110526443D01*
X213866814Y-110502782D01*
X213865640Y-110478890D01*
X213865640Y-109566390D01*
X213866814Y-109542498D01*
X213870324Y-109518837D01*
X213876136Y-109495633D01*
X213884194Y-109473111D01*
X213894422Y-109451487D01*
X213906719Y-109430970D01*
X213920969Y-109411757D01*
X213937033Y-109394033D01*
X213954757Y-109377969D01*
X213973970Y-109363719D01*
X213994487Y-109351422D01*
X214016111Y-109341194D01*
X214038633Y-109333136D01*
X214061837Y-109327324D01*
X214085498Y-109323814D01*
X214109390Y-109322640D01*
X214596890Y-109322640D01*
X214620782Y-109323814D01*
G37*
G36*
X212717842Y-104609574D02*
G01*
X212741503Y-104613084D01*
X212764707Y-104618896D01*
X212787229Y-104626954D01*
X212808853Y-104637182D01*
X212829370Y-104649479D01*
X212848583Y-104663729D01*
X212866307Y-104679793D01*
X212882371Y-104697517D01*
X212896621Y-104716730D01*
X212908918Y-104737247D01*
X212919146Y-104758871D01*
X212927204Y-104781393D01*
X212933016Y-104804597D01*
X212936526Y-104828258D01*
X212937700Y-104852150D01*
X212937700Y-105764650D01*
X212936526Y-105788542D01*
X212933016Y-105812203D01*
X212927204Y-105835407D01*
X212919146Y-105857929D01*
X212908918Y-105879553D01*
X212896621Y-105900070D01*
X212882371Y-105919283D01*
X212866307Y-105937007D01*
X212848583Y-105953071D01*
X212829370Y-105967321D01*
X212808853Y-105979618D01*
X212787229Y-105989846D01*
X212764707Y-105997904D01*
X212741503Y-106003716D01*
X212717842Y-106007226D01*
X212693950Y-106008400D01*
X212206450Y-106008400D01*
X212182558Y-106007226D01*
X212158897Y-106003716D01*
X212135693Y-105997904D01*
X212113171Y-105989846D01*
X212091547Y-105979618D01*
X212071030Y-105967321D01*
X212051817Y-105953071D01*
X212034093Y-105937007D01*
X212018029Y-105919283D01*
X212003779Y-105900070D01*
X211991482Y-105879553D01*
X211981254Y-105857929D01*
X211973196Y-105835407D01*
X211967384Y-105812203D01*
X211963874Y-105788542D01*
X211962700Y-105764650D01*
X211962700Y-104852150D01*
X211963874Y-104828258D01*
X211967384Y-104804597D01*
X211973196Y-104781393D01*
X211981254Y-104758871D01*
X211991482Y-104737247D01*
X212003779Y-104716730D01*
X212018029Y-104697517D01*
X212034093Y-104679793D01*
X212051817Y-104663729D01*
X212071030Y-104649479D01*
X212091547Y-104637182D01*
X212113171Y-104626954D01*
X212135693Y-104618896D01*
X212158897Y-104613084D01*
X212182558Y-104609574D01*
X212206450Y-104608400D01*
X212693950Y-104608400D01*
X212717842Y-104609574D01*
G37*
G36*
X214592842Y-104609574D02*
G01*
X214616503Y-104613084D01*
X214639707Y-104618896D01*
X214662229Y-104626954D01*
X214683853Y-104637182D01*
X214704370Y-104649479D01*
X214723583Y-104663729D01*
X214741307Y-104679793D01*
X214757371Y-104697517D01*
X214771621Y-104716730D01*
X214783918Y-104737247D01*
X214794146Y-104758871D01*
X214802204Y-104781393D01*
X214808016Y-104804597D01*
X214811526Y-104828258D01*
X214812700Y-104852150D01*
X214812700Y-105764650D01*
X214811526Y-105788542D01*
X214808016Y-105812203D01*
X214802204Y-105835407D01*
X214794146Y-105857929D01*
X214783918Y-105879553D01*
X214771621Y-105900070D01*
X214757371Y-105919283D01*
X214741307Y-105937007D01*
X214723583Y-105953071D01*
X214704370Y-105967321D01*
X214683853Y-105979618D01*
X214662229Y-105989846D01*
X214639707Y-105997904D01*
X214616503Y-106003716D01*
X214592842Y-106007226D01*
X214568950Y-106008400D01*
X214081450Y-106008400D01*
X214057558Y-106007226D01*
X214033897Y-106003716D01*
X214010693Y-105997904D01*
X213988171Y-105989846D01*
X213966547Y-105979618D01*
X213946030Y-105967321D01*
X213926817Y-105953071D01*
X213909093Y-105937007D01*
X213893029Y-105919283D01*
X213878779Y-105900070D01*
X213866482Y-105879553D01*
X213856254Y-105857929D01*
X213848196Y-105835407D01*
X213842384Y-105812203D01*
X213838874Y-105788542D01*
X213837700Y-105764650D01*
X213837700Y-104852150D01*
X213838874Y-104828258D01*
X213842384Y-104804597D01*
X213848196Y-104781393D01*
X213856254Y-104758871D01*
X213866482Y-104737247D01*
X213878779Y-104716730D01*
X213893029Y-104697517D01*
X213909093Y-104679793D01*
X213926817Y-104663729D01*
X213946030Y-104649479D01*
X213966547Y-104637182D01*
X213988171Y-104626954D01*
X214010693Y-104618896D01*
X214033897Y-104613084D01*
X214057558Y-104609574D01*
X214081450Y-104608400D01*
X214568950Y-104608400D01*
X214592842Y-104609574D01*
G37*
G36*
X212722922Y-100052814D02*
G01*
X212746583Y-100056324D01*
X212769787Y-100062136D01*
X212792309Y-100070194D01*
X212813933Y-100080422D01*
X212834450Y-100092719D01*
X212853663Y-100106969D01*
X212871387Y-100123033D01*
X212887451Y-100140757D01*
X212901701Y-100159970D01*
X212913998Y-100180487D01*
X212924226Y-100202111D01*
X212932284Y-100224633D01*
X212938096Y-100247837D01*
X212941606Y-100271498D01*
X212942780Y-100295390D01*
X212942780Y-101207890D01*
X212941606Y-101231782D01*
X212938096Y-101255443D01*
X212932284Y-101278647D01*
X212924226Y-101301169D01*
X212913998Y-101322793D01*
X212901701Y-101343310D01*
X212887451Y-101362523D01*
X212871387Y-101380247D01*
X212853663Y-101396311D01*
X212834450Y-101410561D01*
X212813933Y-101422858D01*
X212792309Y-101433086D01*
X212769787Y-101441144D01*
X212746583Y-101446956D01*
X212722922Y-101450466D01*
X212699030Y-101451640D01*
X212211530Y-101451640D01*
X212187638Y-101450466D01*
X212163977Y-101446956D01*
X212140773Y-101441144D01*
X212118251Y-101433086D01*
X212096627Y-101422858D01*
X212076110Y-101410561D01*
X212056897Y-101396311D01*
X212039173Y-101380247D01*
X212023109Y-101362523D01*
X212008859Y-101343310D01*
X211996562Y-101322793D01*
X211986334Y-101301169D01*
X211978276Y-101278647D01*
X211972464Y-101255443D01*
X211968954Y-101231782D01*
X211967780Y-101207890D01*
X211967780Y-100295390D01*
X211968954Y-100271498D01*
X211972464Y-100247837D01*
X211978276Y-100224633D01*
X211986334Y-100202111D01*
X211996562Y-100180487D01*
X212008859Y-100159970D01*
X212023109Y-100140757D01*
X212039173Y-100123033D01*
X212056897Y-100106969D01*
X212076110Y-100092719D01*
X212096627Y-100080422D01*
X212118251Y-100070194D01*
X212140773Y-100062136D01*
X212163977Y-100056324D01*
X212187638Y-100052814D01*
X212211530Y-100051640D01*
X212699030Y-100051640D01*
X212722922Y-100052814D01*
G37*
G36*
X214597922Y-100052814D02*
G01*
X214621583Y-100056324D01*
X214644787Y-100062136D01*
X214667309Y-100070194D01*
X214688933Y-100080422D01*
X214709450Y-100092719D01*
X214728663Y-100106969D01*
X214746387Y-100123033D01*
X214762451Y-100140757D01*
X214776701Y-100159970D01*
X214788998Y-100180487D01*
X214799226Y-100202111D01*
X214807284Y-100224633D01*
X214813096Y-100247837D01*
X214816606Y-100271498D01*
X214817780Y-100295390D01*
X214817780Y-101207890D01*
X214816606Y-101231782D01*
X214813096Y-101255443D01*
X214807284Y-101278647D01*
X214799226Y-101301169D01*
X214788998Y-101322793D01*
X214776701Y-101343310D01*
X214762451Y-101362523D01*
X214746387Y-101380247D01*
X214728663Y-101396311D01*
X214709450Y-101410561D01*
X214688933Y-101422858D01*
X214667309Y-101433086D01*
X214644787Y-101441144D01*
X214621583Y-101446956D01*
X214597922Y-101450466D01*
X214574030Y-101451640D01*
X214086530Y-101451640D01*
X214062638Y-101450466D01*
X214038977Y-101446956D01*
X214015773Y-101441144D01*
X213993251Y-101433086D01*
X213971627Y-101422858D01*
X213951110Y-101410561D01*
X213931897Y-101396311D01*
X213914173Y-101380247D01*
X213898109Y-101362523D01*
X213883859Y-101343310D01*
X213871562Y-101322793D01*
X213861334Y-101301169D01*
X213853276Y-101278647D01*
X213847464Y-101255443D01*
X213843954Y-101231782D01*
X213842780Y-101207890D01*
X213842780Y-100295390D01*
X213843954Y-100271498D01*
X213847464Y-100247837D01*
X213853276Y-100224633D01*
X213861334Y-100202111D01*
X213871562Y-100180487D01*
X213883859Y-100159970D01*
X213898109Y-100140757D01*
X213914173Y-100123033D01*
X213931897Y-100106969D01*
X213951110Y-100092719D01*
X213971627Y-100080422D01*
X213993251Y-100070194D01*
X214015773Y-100062136D01*
X214038977Y-100056324D01*
X214062638Y-100052814D01*
X214086530Y-100051640D01*
X214574030Y-100051640D01*
X214597922Y-100052814D01*
G37*
G36*
X233934942Y-109783554D02*
G01*
X233958603Y-109787064D01*
X233981807Y-109792876D01*
X234004329Y-109800934D01*
X234025953Y-109811162D01*
X234046470Y-109823459D01*
X234065683Y-109837709D01*
X234083407Y-109853773D01*
X234099471Y-109871497D01*
X234113721Y-109890710D01*
X234126018Y-109911227D01*
X234136246Y-109932851D01*
X234144304Y-109955373D01*
X234150116Y-109978577D01*
X234153626Y-110002238D01*
X234154800Y-110026130D01*
X234154800Y-110938630D01*
X234153626Y-110962522D01*
X234150116Y-110986183D01*
X234144304Y-111009387D01*
X234136246Y-111031909D01*
X234126018Y-111053533D01*
X234113721Y-111074050D01*
X234099471Y-111093263D01*
X234083407Y-111110987D01*
X234065683Y-111127051D01*
X234046470Y-111141301D01*
X234025953Y-111153598D01*
X234004329Y-111163826D01*
X233981807Y-111171884D01*
X233958603Y-111177696D01*
X233934942Y-111181206D01*
X233911050Y-111182380D01*
X233423550Y-111182380D01*
X233399658Y-111181206D01*
X233375997Y-111177696D01*
X233352793Y-111171884D01*
X233330271Y-111163826D01*
X233308647Y-111153598D01*
X233288130Y-111141301D01*
X233268917Y-111127051D01*
X233251193Y-111110987D01*
X233235129Y-111093263D01*
X233220879Y-111074050D01*
X233208582Y-111053533D01*
X233198354Y-111031909D01*
X233190296Y-111009387D01*
X233184484Y-110986183D01*
X233180974Y-110962522D01*
X233179800Y-110938630D01*
X233179800Y-110026130D01*
X233180974Y-110002238D01*
X233184484Y-109978577D01*
X233190296Y-109955373D01*
X233198354Y-109932851D01*
X233208582Y-109911227D01*
X233220879Y-109890710D01*
X233235129Y-109871497D01*
X233251193Y-109853773D01*
X233268917Y-109837709D01*
X233288130Y-109823459D01*
X233308647Y-109811162D01*
X233330271Y-109800934D01*
X233352793Y-109792876D01*
X233375997Y-109787064D01*
X233399658Y-109783554D01*
X233423550Y-109782380D01*
X233911050Y-109782380D01*
X233934942Y-109783554D01*
G37*
G36*
X232059942Y-109783554D02*
G01*
X232083603Y-109787064D01*
X232106807Y-109792876D01*
X232129329Y-109800934D01*
X232150953Y-109811162D01*
X232171470Y-109823459D01*
X232190683Y-109837709D01*
X232208407Y-109853773D01*
X232224471Y-109871497D01*
X232238721Y-109890710D01*
X232251018Y-109911227D01*
X232261246Y-109932851D01*
X232269304Y-109955373D01*
X232275116Y-109978577D01*
X232278626Y-110002238D01*
X232279800Y-110026130D01*
X232279800Y-110938630D01*
X232278626Y-110962522D01*
X232275116Y-110986183D01*
X232269304Y-111009387D01*
X232261246Y-111031909D01*
X232251018Y-111053533D01*
X232238721Y-111074050D01*
X232224471Y-111093263D01*
X232208407Y-111110987D01*
X232190683Y-111127051D01*
X232171470Y-111141301D01*
X232150953Y-111153598D01*
X232129329Y-111163826D01*
X232106807Y-111171884D01*
X232083603Y-111177696D01*
X232059942Y-111181206D01*
X232036050Y-111182380D01*
X231548550Y-111182380D01*
X231524658Y-111181206D01*
X231500997Y-111177696D01*
X231477793Y-111171884D01*
X231455271Y-111163826D01*
X231433647Y-111153598D01*
X231413130Y-111141301D01*
X231393917Y-111127051D01*
X231376193Y-111110987D01*
X231360129Y-111093263D01*
X231345879Y-111074050D01*
X231333582Y-111053533D01*
X231323354Y-111031909D01*
X231315296Y-111009387D01*
X231309484Y-110986183D01*
X231305974Y-110962522D01*
X231304800Y-110938630D01*
X231304800Y-110026130D01*
X231305974Y-110002238D01*
X231309484Y-109978577D01*
X231315296Y-109955373D01*
X231323354Y-109932851D01*
X231333582Y-109911227D01*
X231345879Y-109890710D01*
X231360129Y-109871497D01*
X231376193Y-109853773D01*
X231393917Y-109837709D01*
X231413130Y-109823459D01*
X231433647Y-109811162D01*
X231455271Y-109800934D01*
X231477793Y-109792876D01*
X231500997Y-109787064D01*
X231524658Y-109783554D01*
X231548550Y-109782380D01*
X232036050Y-109782380D01*
X232059942Y-109783554D01*
G37*
G36*
X233934942Y-107624554D02*
G01*
X233958603Y-107628064D01*
X233981807Y-107633876D01*
X234004329Y-107641934D01*
X234025953Y-107652162D01*
X234046470Y-107664459D01*
X234065683Y-107678709D01*
X234083407Y-107694773D01*
X234099471Y-107712497D01*
X234113721Y-107731710D01*
X234126018Y-107752227D01*
X234136246Y-107773851D01*
X234144304Y-107796373D01*
X234150116Y-107819577D01*
X234153626Y-107843238D01*
X234154800Y-107867130D01*
X234154800Y-108779630D01*
X234153626Y-108803522D01*
X234150116Y-108827183D01*
X234144304Y-108850387D01*
X234136246Y-108872909D01*
X234126018Y-108894533D01*
X234113721Y-108915050D01*
X234099471Y-108934263D01*
X234083407Y-108951987D01*
X234065683Y-108968051D01*
X234046470Y-108982301D01*
X234025953Y-108994598D01*
X234004329Y-109004826D01*
X233981807Y-109012884D01*
X233958603Y-109018696D01*
X233934942Y-109022206D01*
X233911050Y-109023380D01*
X233423550Y-109023380D01*
X233399658Y-109022206D01*
X233375997Y-109018696D01*
X233352793Y-109012884D01*
X233330271Y-109004826D01*
X233308647Y-108994598D01*
X233288130Y-108982301D01*
X233268917Y-108968051D01*
X233251193Y-108951987D01*
X233235129Y-108934263D01*
X233220879Y-108915050D01*
X233208582Y-108894533D01*
X233198354Y-108872909D01*
X233190296Y-108850387D01*
X233184484Y-108827183D01*
X233180974Y-108803522D01*
X233179800Y-108779630D01*
X233179800Y-107867130D01*
X233180974Y-107843238D01*
X233184484Y-107819577D01*
X233190296Y-107796373D01*
X233198354Y-107773851D01*
X233208582Y-107752227D01*
X233220879Y-107731710D01*
X233235129Y-107712497D01*
X233251193Y-107694773D01*
X233268917Y-107678709D01*
X233288130Y-107664459D01*
X233308647Y-107652162D01*
X233330271Y-107641934D01*
X233352793Y-107633876D01*
X233375997Y-107628064D01*
X233399658Y-107624554D01*
X233423550Y-107623380D01*
X233911050Y-107623380D01*
X233934942Y-107624554D01*
G37*
G36*
X232059942Y-107624554D02*
G01*
X232083603Y-107628064D01*
X232106807Y-107633876D01*
X232129329Y-107641934D01*
X232150953Y-107652162D01*
X232171470Y-107664459D01*
X232190683Y-107678709D01*
X232208407Y-107694773D01*
X232224471Y-107712497D01*
X232238721Y-107731710D01*
X232251018Y-107752227D01*
X232261246Y-107773851D01*
X232269304Y-107796373D01*
X232275116Y-107819577D01*
X232278626Y-107843238D01*
X232279800Y-107867130D01*
X232279800Y-108779630D01*
X232278626Y-108803522D01*
X232275116Y-108827183D01*
X232269304Y-108850387D01*
X232261246Y-108872909D01*
X232251018Y-108894533D01*
X232238721Y-108915050D01*
X232224471Y-108934263D01*
X232208407Y-108951987D01*
X232190683Y-108968051D01*
X232171470Y-108982301D01*
X232150953Y-108994598D01*
X232129329Y-109004826D01*
X232106807Y-109012884D01*
X232083603Y-109018696D01*
X232059942Y-109022206D01*
X232036050Y-109023380D01*
X231548550Y-109023380D01*
X231524658Y-109022206D01*
X231500997Y-109018696D01*
X231477793Y-109012884D01*
X231455271Y-109004826D01*
X231433647Y-108994598D01*
X231413130Y-108982301D01*
X231393917Y-108968051D01*
X231376193Y-108951987D01*
X231360129Y-108934263D01*
X231345879Y-108915050D01*
X231333582Y-108894533D01*
X231323354Y-108872909D01*
X231315296Y-108850387D01*
X231309484Y-108827183D01*
X231305974Y-108803522D01*
X231304800Y-108779630D01*
X231304800Y-107867130D01*
X231305974Y-107843238D01*
X231309484Y-107819577D01*
X231315296Y-107796373D01*
X231323354Y-107773851D01*
X231333582Y-107752227D01*
X231345879Y-107731710D01*
X231360129Y-107712497D01*
X231376193Y-107694773D01*
X231393917Y-107678709D01*
X231413130Y-107664459D01*
X231433647Y-107652162D01*
X231455271Y-107641934D01*
X231477793Y-107633876D01*
X231500997Y-107628064D01*
X231524658Y-107624554D01*
X231548550Y-107623380D01*
X232036050Y-107623380D01*
X232059942Y-107624554D01*
G37*
G36*
X232062482Y-105414754D02*
G01*
X232086143Y-105418264D01*
X232109347Y-105424076D01*
X232131869Y-105432134D01*
X232153493Y-105442362D01*
X232174010Y-105454659D01*
X232193223Y-105468909D01*
X232210947Y-105484973D01*
X232227011Y-105502697D01*
X232241261Y-105521910D01*
X232253558Y-105542427D01*
X232263786Y-105564051D01*
X232271844Y-105586573D01*
X232277656Y-105609777D01*
X232281166Y-105633438D01*
X232282340Y-105657330D01*
X232282340Y-106569830D01*
X232281166Y-106593722D01*
X232277656Y-106617383D01*
X232271844Y-106640587D01*
X232263786Y-106663109D01*
X232253558Y-106684733D01*
X232241261Y-106705250D01*
X232227011Y-106724463D01*
X232210947Y-106742187D01*
X232193223Y-106758251D01*
X232174010Y-106772501D01*
X232153493Y-106784798D01*
X232131869Y-106795026D01*
X232109347Y-106803084D01*
X232086143Y-106808896D01*
X232062482Y-106812406D01*
X232038590Y-106813580D01*
X231551090Y-106813580D01*
X231527198Y-106812406D01*
X231503537Y-106808896D01*
X231480333Y-106803084D01*
X231457811Y-106795026D01*
X231436187Y-106784798D01*
X231415670Y-106772501D01*
X231396457Y-106758251D01*
X231378733Y-106742187D01*
X231362669Y-106724463D01*
X231348419Y-106705250D01*
X231336122Y-106684733D01*
X231325894Y-106663109D01*
X231317836Y-106640587D01*
X231312024Y-106617383D01*
X231308514Y-106593722D01*
X231307340Y-106569830D01*
X231307340Y-105657330D01*
X231308514Y-105633438D01*
X231312024Y-105609777D01*
X231317836Y-105586573D01*
X231325894Y-105564051D01*
X231336122Y-105542427D01*
X231348419Y-105521910D01*
X231362669Y-105502697D01*
X231378733Y-105484973D01*
X231396457Y-105468909D01*
X231415670Y-105454659D01*
X231436187Y-105442362D01*
X231457811Y-105432134D01*
X231480333Y-105424076D01*
X231503537Y-105418264D01*
X231527198Y-105414754D01*
X231551090Y-105413580D01*
X232038590Y-105413580D01*
X232062482Y-105414754D01*
G37*
G36*
X233937482Y-105414754D02*
G01*
X233961143Y-105418264D01*
X233984347Y-105424076D01*
X234006869Y-105432134D01*
X234028493Y-105442362D01*
X234049010Y-105454659D01*
X234068223Y-105468909D01*
X234085947Y-105484973D01*
X234102011Y-105502697D01*
X234116261Y-105521910D01*
X234128558Y-105542427D01*
X234138786Y-105564051D01*
X234146844Y-105586573D01*
X234152656Y-105609777D01*
X234156166Y-105633438D01*
X234157340Y-105657330D01*
X234157340Y-106569830D01*
X234156166Y-106593722D01*
X234152656Y-106617383D01*
X234146844Y-106640587D01*
X234138786Y-106663109D01*
X234128558Y-106684733D01*
X234116261Y-106705250D01*
X234102011Y-106724463D01*
X234085947Y-106742187D01*
X234068223Y-106758251D01*
X234049010Y-106772501D01*
X234028493Y-106784798D01*
X234006869Y-106795026D01*
X233984347Y-106803084D01*
X233961143Y-106808896D01*
X233937482Y-106812406D01*
X233913590Y-106813580D01*
X233426090Y-106813580D01*
X233402198Y-106812406D01*
X233378537Y-106808896D01*
X233355333Y-106803084D01*
X233332811Y-106795026D01*
X233311187Y-106784798D01*
X233290670Y-106772501D01*
X233271457Y-106758251D01*
X233253733Y-106742187D01*
X233237669Y-106724463D01*
X233223419Y-106705250D01*
X233211122Y-106684733D01*
X233200894Y-106663109D01*
X233192836Y-106640587D01*
X233187024Y-106617383D01*
X233183514Y-106593722D01*
X233182340Y-106569830D01*
X233182340Y-105657330D01*
X233183514Y-105633438D01*
X233187024Y-105609777D01*
X233192836Y-105586573D01*
X233200894Y-105564051D01*
X233211122Y-105542427D01*
X233223419Y-105521910D01*
X233237669Y-105502697D01*
X233253733Y-105484973D01*
X233271457Y-105468909D01*
X233290670Y-105454659D01*
X233311187Y-105442362D01*
X233332811Y-105432134D01*
X233355333Y-105424076D01*
X233378537Y-105418264D01*
X233402198Y-105414754D01*
X233426090Y-105413580D01*
X233913590Y-105413580D01*
X233937482Y-105414754D01*
G37*
G36*
X227429142Y-68258774D02*
G01*
X227452803Y-68262284D01*
X227476007Y-68268096D01*
X227498529Y-68276154D01*
X227520153Y-68286382D01*
X227540670Y-68298679D01*
X227559883Y-68312929D01*
X227577607Y-68328993D01*
X227593671Y-68346717D01*
X227607921Y-68365930D01*
X227620218Y-68386447D01*
X227630446Y-68408071D01*
X227638504Y-68430593D01*
X227644316Y-68453797D01*
X227647826Y-68477458D01*
X227649000Y-68501350D01*
X227649000Y-68988850D01*
X227647826Y-69012742D01*
X227644316Y-69036403D01*
X227638504Y-69059607D01*
X227630446Y-69082129D01*
X227620218Y-69103753D01*
X227607921Y-69124270D01*
X227593671Y-69143483D01*
X227577607Y-69161207D01*
X227559883Y-69177271D01*
X227540670Y-69191521D01*
X227520153Y-69203818D01*
X227498529Y-69214046D01*
X227476007Y-69222104D01*
X227452803Y-69227916D01*
X227429142Y-69231426D01*
X227405250Y-69232600D01*
X226492750Y-69232600D01*
X226468858Y-69231426D01*
X226445197Y-69227916D01*
X226421993Y-69222104D01*
X226399471Y-69214046D01*
X226377847Y-69203818D01*
X226357330Y-69191521D01*
X226338117Y-69177271D01*
X226320393Y-69161207D01*
X226304329Y-69143483D01*
X226290079Y-69124270D01*
X226277782Y-69103753D01*
X226267554Y-69082129D01*
X226259496Y-69059607D01*
X226253684Y-69036403D01*
X226250174Y-69012742D01*
X226249000Y-68988850D01*
X226249000Y-68501350D01*
X226250174Y-68477458D01*
X226253684Y-68453797D01*
X226259496Y-68430593D01*
X226267554Y-68408071D01*
X226277782Y-68386447D01*
X226290079Y-68365930D01*
X226304329Y-68346717D01*
X226320393Y-68328993D01*
X226338117Y-68312929D01*
X226357330Y-68298679D01*
X226377847Y-68286382D01*
X226399471Y-68276154D01*
X226421993Y-68268096D01*
X226445197Y-68262284D01*
X226468858Y-68258774D01*
X226492750Y-68257600D01*
X227405250Y-68257600D01*
X227429142Y-68258774D01*
G37*
G36*
X227429142Y-66383774D02*
G01*
X227452803Y-66387284D01*
X227476007Y-66393096D01*
X227498529Y-66401154D01*
X227520153Y-66411382D01*
X227540670Y-66423679D01*
X227559883Y-66437929D01*
X227577607Y-66453993D01*
X227593671Y-66471717D01*
X227607921Y-66490930D01*
X227620218Y-66511447D01*
X227630446Y-66533071D01*
X227638504Y-66555593D01*
X227644316Y-66578797D01*
X227647826Y-66602458D01*
X227649000Y-66626350D01*
X227649000Y-67113850D01*
X227647826Y-67137742D01*
X227644316Y-67161403D01*
X227638504Y-67184607D01*
X227630446Y-67207129D01*
X227620218Y-67228753D01*
X227607921Y-67249270D01*
X227593671Y-67268483D01*
X227577607Y-67286207D01*
X227559883Y-67302271D01*
X227540670Y-67316521D01*
X227520153Y-67328818D01*
X227498529Y-67339046D01*
X227476007Y-67347104D01*
X227452803Y-67352916D01*
X227429142Y-67356426D01*
X227405250Y-67357600D01*
X226492750Y-67357600D01*
X226468858Y-67356426D01*
X226445197Y-67352916D01*
X226421993Y-67347104D01*
X226399471Y-67339046D01*
X226377847Y-67328818D01*
X226357330Y-67316521D01*
X226338117Y-67302271D01*
X226320393Y-67286207D01*
X226304329Y-67268483D01*
X226290079Y-67249270D01*
X226277782Y-67228753D01*
X226267554Y-67207129D01*
X226259496Y-67184607D01*
X226253684Y-67161403D01*
X226250174Y-67137742D01*
X226249000Y-67113850D01*
X226249000Y-66626350D01*
X226250174Y-66602458D01*
X226253684Y-66578797D01*
X226259496Y-66555593D01*
X226267554Y-66533071D01*
X226277782Y-66511447D01*
X226290079Y-66490930D01*
X226304329Y-66471717D01*
X226320393Y-66453993D01*
X226338117Y-66437929D01*
X226357330Y-66423679D01*
X226377847Y-66411382D01*
X226399471Y-66401154D01*
X226421993Y-66393096D01*
X226445197Y-66387284D01*
X226468858Y-66383774D01*
X226492750Y-66382600D01*
X227405250Y-66382600D01*
X227429142Y-66383774D01*
G37*
G36*
X227779662Y-87804074D02*
G01*
X227803323Y-87807584D01*
X227826527Y-87813396D01*
X227849049Y-87821454D01*
X227870673Y-87831682D01*
X227891190Y-87843979D01*
X227910403Y-87858229D01*
X227928127Y-87874293D01*
X227944191Y-87892017D01*
X227958441Y-87911230D01*
X227970738Y-87931747D01*
X227980966Y-87953371D01*
X227989024Y-87975893D01*
X227994836Y-87999097D01*
X227998346Y-88022758D01*
X227999520Y-88046650D01*
X227999520Y-88534150D01*
X227998346Y-88558042D01*
X227994836Y-88581703D01*
X227989024Y-88604907D01*
X227980966Y-88627429D01*
X227970738Y-88649053D01*
X227958441Y-88669570D01*
X227944191Y-88688783D01*
X227928127Y-88706507D01*
X227910403Y-88722571D01*
X227891190Y-88736821D01*
X227870673Y-88749118D01*
X227849049Y-88759346D01*
X227826527Y-88767404D01*
X227803323Y-88773216D01*
X227779662Y-88776726D01*
X227755770Y-88777900D01*
X226843270Y-88777900D01*
X226819378Y-88776726D01*
X226795717Y-88773216D01*
X226772513Y-88767404D01*
X226749991Y-88759346D01*
X226728367Y-88749118D01*
X226707850Y-88736821D01*
X226688637Y-88722571D01*
X226670913Y-88706507D01*
X226654849Y-88688783D01*
X226640599Y-88669570D01*
X226628302Y-88649053D01*
X226618074Y-88627429D01*
X226610016Y-88604907D01*
X226604204Y-88581703D01*
X226600694Y-88558042D01*
X226599520Y-88534150D01*
X226599520Y-88046650D01*
X226600694Y-88022758D01*
X226604204Y-87999097D01*
X226610016Y-87975893D01*
X226618074Y-87953371D01*
X226628302Y-87931747D01*
X226640599Y-87911230D01*
X226654849Y-87892017D01*
X226670913Y-87874293D01*
X226688637Y-87858229D01*
X226707850Y-87843979D01*
X226728367Y-87831682D01*
X226749991Y-87821454D01*
X226772513Y-87813396D01*
X226795717Y-87807584D01*
X226819378Y-87804074D01*
X226843270Y-87802900D01*
X227755770Y-87802900D01*
X227779662Y-87804074D01*
G37*
G36*
X227779662Y-85929074D02*
G01*
X227803323Y-85932584D01*
X227826527Y-85938396D01*
X227849049Y-85946454D01*
X227870673Y-85956682D01*
X227891190Y-85968979D01*
X227910403Y-85983229D01*
X227928127Y-85999293D01*
X227944191Y-86017017D01*
X227958441Y-86036230D01*
X227970738Y-86056747D01*
X227980966Y-86078371D01*
X227989024Y-86100893D01*
X227994836Y-86124097D01*
X227998346Y-86147758D01*
X227999520Y-86171650D01*
X227999520Y-86659150D01*
X227998346Y-86683042D01*
X227994836Y-86706703D01*
X227989024Y-86729907D01*
X227980966Y-86752429D01*
X227970738Y-86774053D01*
X227958441Y-86794570D01*
X227944191Y-86813783D01*
X227928127Y-86831507D01*
X227910403Y-86847571D01*
X227891190Y-86861821D01*
X227870673Y-86874118D01*
X227849049Y-86884346D01*
X227826527Y-86892404D01*
X227803323Y-86898216D01*
X227779662Y-86901726D01*
X227755770Y-86902900D01*
X226843270Y-86902900D01*
X226819378Y-86901726D01*
X226795717Y-86898216D01*
X226772513Y-86892404D01*
X226749991Y-86884346D01*
X226728367Y-86874118D01*
X226707850Y-86861821D01*
X226688637Y-86847571D01*
X226670913Y-86831507D01*
X226654849Y-86813783D01*
X226640599Y-86794570D01*
X226628302Y-86774053D01*
X226618074Y-86752429D01*
X226610016Y-86729907D01*
X226604204Y-86706703D01*
X226600694Y-86683042D01*
X226599520Y-86659150D01*
X226599520Y-86171650D01*
X226600694Y-86147758D01*
X226604204Y-86124097D01*
X226610016Y-86100893D01*
X226618074Y-86078371D01*
X226628302Y-86056747D01*
X226640599Y-86036230D01*
X226654849Y-86017017D01*
X226670913Y-85999293D01*
X226688637Y-85983229D01*
X226707850Y-85968979D01*
X226728367Y-85956682D01*
X226749991Y-85946454D01*
X226772513Y-85938396D01*
X226795717Y-85932584D01*
X226819378Y-85929074D01*
X226843270Y-85927900D01*
X227755770Y-85927900D01*
X227779662Y-85929074D01*
G37*
G36*
X227060842Y-47989094D02*
G01*
X227084503Y-47992604D01*
X227107707Y-47998416D01*
X227130229Y-48006474D01*
X227151853Y-48016702D01*
X227172370Y-48028999D01*
X227191583Y-48043249D01*
X227209307Y-48059313D01*
X227225371Y-48077037D01*
X227239621Y-48096250D01*
X227251918Y-48116767D01*
X227262146Y-48138391D01*
X227270204Y-48160913D01*
X227276016Y-48184117D01*
X227279526Y-48207778D01*
X227280700Y-48231670D01*
X227280700Y-48719170D01*
X227279526Y-48743062D01*
X227276016Y-48766723D01*
X227270204Y-48789927D01*
X227262146Y-48812449D01*
X227251918Y-48834073D01*
X227239621Y-48854590D01*
X227225371Y-48873803D01*
X227209307Y-48891527D01*
X227191583Y-48907591D01*
X227172370Y-48921841D01*
X227151853Y-48934138D01*
X227130229Y-48944366D01*
X227107707Y-48952424D01*
X227084503Y-48958236D01*
X227060842Y-48961746D01*
X227036950Y-48962920D01*
X226124450Y-48962920D01*
X226100558Y-48961746D01*
X226076897Y-48958236D01*
X226053693Y-48952424D01*
X226031171Y-48944366D01*
X226009547Y-48934138D01*
X225989030Y-48921841D01*
X225969817Y-48907591D01*
X225952093Y-48891527D01*
X225936029Y-48873803D01*
X225921779Y-48854590D01*
X225909482Y-48834073D01*
X225899254Y-48812449D01*
X225891196Y-48789927D01*
X225885384Y-48766723D01*
X225881874Y-48743062D01*
X225880700Y-48719170D01*
X225880700Y-48231670D01*
X225881874Y-48207778D01*
X225885384Y-48184117D01*
X225891196Y-48160913D01*
X225899254Y-48138391D01*
X225909482Y-48116767D01*
X225921779Y-48096250D01*
X225936029Y-48077037D01*
X225952093Y-48059313D01*
X225969817Y-48043249D01*
X225989030Y-48028999D01*
X226009547Y-48016702D01*
X226031171Y-48006474D01*
X226053693Y-47998416D01*
X226076897Y-47992604D01*
X226100558Y-47989094D01*
X226124450Y-47987920D01*
X227036950Y-47987920D01*
X227060842Y-47989094D01*
G37*
G36*
X227060842Y-49864094D02*
G01*
X227084503Y-49867604D01*
X227107707Y-49873416D01*
X227130229Y-49881474D01*
X227151853Y-49891702D01*
X227172370Y-49903999D01*
X227191583Y-49918249D01*
X227209307Y-49934313D01*
X227225371Y-49952037D01*
X227239621Y-49971250D01*
X227251918Y-49991767D01*
X227262146Y-50013391D01*
X227270204Y-50035913D01*
X227276016Y-50059117D01*
X227279526Y-50082778D01*
X227280700Y-50106670D01*
X227280700Y-50594170D01*
X227279526Y-50618062D01*
X227276016Y-50641723D01*
X227270204Y-50664927D01*
X227262146Y-50687449D01*
X227251918Y-50709073D01*
X227239621Y-50729590D01*
X227225371Y-50748803D01*
X227209307Y-50766527D01*
X227191583Y-50782591D01*
X227172370Y-50796841D01*
X227151853Y-50809138D01*
X227130229Y-50819366D01*
X227107707Y-50827424D01*
X227084503Y-50833236D01*
X227060842Y-50836746D01*
X227036950Y-50837920D01*
X226124450Y-50837920D01*
X226100558Y-50836746D01*
X226076897Y-50833236D01*
X226053693Y-50827424D01*
X226031171Y-50819366D01*
X226009547Y-50809138D01*
X225989030Y-50796841D01*
X225969817Y-50782591D01*
X225952093Y-50766527D01*
X225936029Y-50748803D01*
X225921779Y-50729590D01*
X225909482Y-50709073D01*
X225899254Y-50687449D01*
X225891196Y-50664927D01*
X225885384Y-50641723D01*
X225881874Y-50618062D01*
X225880700Y-50594170D01*
X225880700Y-50106670D01*
X225881874Y-50082778D01*
X225885384Y-50059117D01*
X225891196Y-50035913D01*
X225899254Y-50013391D01*
X225909482Y-49991767D01*
X225921779Y-49971250D01*
X225936029Y-49952037D01*
X225952093Y-49934313D01*
X225969817Y-49918249D01*
X225989030Y-49903999D01*
X226009547Y-49891702D01*
X226031171Y-49881474D01*
X226053693Y-49873416D01*
X226076897Y-49867604D01*
X226100558Y-49864094D01*
X226124450Y-49862920D01*
X227036950Y-49862920D01*
X227060842Y-49864094D01*
G37*
G36*
X221015642Y-49660894D02*
G01*
X221039303Y-49664404D01*
X221062507Y-49670216D01*
X221085029Y-49678274D01*
X221106653Y-49688502D01*
X221127170Y-49700799D01*
X221146383Y-49715049D01*
X221164107Y-49731113D01*
X221180171Y-49748837D01*
X221194421Y-49768050D01*
X221206718Y-49788567D01*
X221216946Y-49810191D01*
X221225004Y-49832713D01*
X221230816Y-49855917D01*
X221234326Y-49879578D01*
X221235500Y-49903470D01*
X221235500Y-50390970D01*
X221234326Y-50414862D01*
X221230816Y-50438523D01*
X221225004Y-50461727D01*
X221216946Y-50484249D01*
X221206718Y-50505873D01*
X221194421Y-50526390D01*
X221180171Y-50545603D01*
X221164107Y-50563327D01*
X221146383Y-50579391D01*
X221127170Y-50593641D01*
X221106653Y-50605938D01*
X221085029Y-50616166D01*
X221062507Y-50624224D01*
X221039303Y-50630036D01*
X221015642Y-50633546D01*
X220991750Y-50634720D01*
X220079250Y-50634720D01*
X220055358Y-50633546D01*
X220031697Y-50630036D01*
X220008493Y-50624224D01*
X219985971Y-50616166D01*
X219964347Y-50605938D01*
X219943830Y-50593641D01*
X219924617Y-50579391D01*
X219906893Y-50563327D01*
X219890829Y-50545603D01*
X219876579Y-50526390D01*
X219864282Y-50505873D01*
X219854054Y-50484249D01*
X219845996Y-50461727D01*
X219840184Y-50438523D01*
X219836674Y-50414862D01*
X219835500Y-50390970D01*
X219835500Y-49903470D01*
X219836674Y-49879578D01*
X219840184Y-49855917D01*
X219845996Y-49832713D01*
X219854054Y-49810191D01*
X219864282Y-49788567D01*
X219876579Y-49768050D01*
X219890829Y-49748837D01*
X219906893Y-49731113D01*
X219924617Y-49715049D01*
X219943830Y-49700799D01*
X219964347Y-49688502D01*
X219985971Y-49678274D01*
X220008493Y-49670216D01*
X220031697Y-49664404D01*
X220055358Y-49660894D01*
X220079250Y-49659720D01*
X220991750Y-49659720D01*
X221015642Y-49660894D01*
G37*
G36*
X221015642Y-47785894D02*
G01*
X221039303Y-47789404D01*
X221062507Y-47795216D01*
X221085029Y-47803274D01*
X221106653Y-47813502D01*
X221127170Y-47825799D01*
X221146383Y-47840049D01*
X221164107Y-47856113D01*
X221180171Y-47873837D01*
X221194421Y-47893050D01*
X221206718Y-47913567D01*
X221216946Y-47935191D01*
X221225004Y-47957713D01*
X221230816Y-47980917D01*
X221234326Y-48004578D01*
X221235500Y-48028470D01*
X221235500Y-48515970D01*
X221234326Y-48539862D01*
X221230816Y-48563523D01*
X221225004Y-48586727D01*
X221216946Y-48609249D01*
X221206718Y-48630873D01*
X221194421Y-48651390D01*
X221180171Y-48670603D01*
X221164107Y-48688327D01*
X221146383Y-48704391D01*
X221127170Y-48718641D01*
X221106653Y-48730938D01*
X221085029Y-48741166D01*
X221062507Y-48749224D01*
X221039303Y-48755036D01*
X221015642Y-48758546D01*
X220991750Y-48759720D01*
X220079250Y-48759720D01*
X220055358Y-48758546D01*
X220031697Y-48755036D01*
X220008493Y-48749224D01*
X219985971Y-48741166D01*
X219964347Y-48730938D01*
X219943830Y-48718641D01*
X219924617Y-48704391D01*
X219906893Y-48688327D01*
X219890829Y-48670603D01*
X219876579Y-48651390D01*
X219864282Y-48630873D01*
X219854054Y-48609249D01*
X219845996Y-48586727D01*
X219840184Y-48563523D01*
X219836674Y-48539862D01*
X219835500Y-48515970D01*
X219835500Y-48028470D01*
X219836674Y-48004578D01*
X219840184Y-47980917D01*
X219845996Y-47957713D01*
X219854054Y-47935191D01*
X219864282Y-47913567D01*
X219876579Y-47893050D01*
X219890829Y-47873837D01*
X219906893Y-47856113D01*
X219924617Y-47840049D01*
X219943830Y-47825799D01*
X219964347Y-47813502D01*
X219985971Y-47803274D01*
X220008493Y-47795216D01*
X220031697Y-47789404D01*
X220055358Y-47785894D01*
X220079250Y-47784720D01*
X220991750Y-47784720D01*
X221015642Y-47785894D01*
G37*
G36*
X221282342Y-66379174D02*
G01*
X221306003Y-66382684D01*
X221329207Y-66388496D01*
X221351729Y-66396554D01*
X221373353Y-66406782D01*
X221393870Y-66419079D01*
X221413083Y-66433329D01*
X221430807Y-66449393D01*
X221446871Y-66467117D01*
X221461121Y-66486330D01*
X221473418Y-66506847D01*
X221483646Y-66528471D01*
X221491704Y-66550993D01*
X221497516Y-66574197D01*
X221501026Y-66597858D01*
X221502200Y-66621750D01*
X221502200Y-67109250D01*
X221501026Y-67133142D01*
X221497516Y-67156803D01*
X221491704Y-67180007D01*
X221483646Y-67202529D01*
X221473418Y-67224153D01*
X221461121Y-67244670D01*
X221446871Y-67263883D01*
X221430807Y-67281607D01*
X221413083Y-67297671D01*
X221393870Y-67311921D01*
X221373353Y-67324218D01*
X221351729Y-67334446D01*
X221329207Y-67342504D01*
X221306003Y-67348316D01*
X221282342Y-67351826D01*
X221258450Y-67353000D01*
X220345950Y-67353000D01*
X220322058Y-67351826D01*
X220298397Y-67348316D01*
X220275193Y-67342504D01*
X220252671Y-67334446D01*
X220231047Y-67324218D01*
X220210530Y-67311921D01*
X220191317Y-67297671D01*
X220173593Y-67281607D01*
X220157529Y-67263883D01*
X220143279Y-67244670D01*
X220130982Y-67224153D01*
X220120754Y-67202529D01*
X220112696Y-67180007D01*
X220106884Y-67156803D01*
X220103374Y-67133142D01*
X220102200Y-67109250D01*
X220102200Y-66621750D01*
X220103374Y-66597858D01*
X220106884Y-66574197D01*
X220112696Y-66550993D01*
X220120754Y-66528471D01*
X220130982Y-66506847D01*
X220143279Y-66486330D01*
X220157529Y-66467117D01*
X220173593Y-66449393D01*
X220191317Y-66433329D01*
X220210530Y-66419079D01*
X220231047Y-66406782D01*
X220252671Y-66396554D01*
X220275193Y-66388496D01*
X220298397Y-66382684D01*
X220322058Y-66379174D01*
X220345950Y-66378000D01*
X221258450Y-66378000D01*
X221282342Y-66379174D01*
G37*
G36*
X221282342Y-68254174D02*
G01*
X221306003Y-68257684D01*
X221329207Y-68263496D01*
X221351729Y-68271554D01*
X221373353Y-68281782D01*
X221393870Y-68294079D01*
X221413083Y-68308329D01*
X221430807Y-68324393D01*
X221446871Y-68342117D01*
X221461121Y-68361330D01*
X221473418Y-68381847D01*
X221483646Y-68403471D01*
X221491704Y-68425993D01*
X221497516Y-68449197D01*
X221501026Y-68472858D01*
X221502200Y-68496750D01*
X221502200Y-68984250D01*
X221501026Y-69008142D01*
X221497516Y-69031803D01*
X221491704Y-69055007D01*
X221483646Y-69077529D01*
X221473418Y-69099153D01*
X221461121Y-69119670D01*
X221446871Y-69138883D01*
X221430807Y-69156607D01*
X221413083Y-69172671D01*
X221393870Y-69186921D01*
X221373353Y-69199218D01*
X221351729Y-69209446D01*
X221329207Y-69217504D01*
X221306003Y-69223316D01*
X221282342Y-69226826D01*
X221258450Y-69228000D01*
X220345950Y-69228000D01*
X220322058Y-69226826D01*
X220298397Y-69223316D01*
X220275193Y-69217504D01*
X220252671Y-69209446D01*
X220231047Y-69199218D01*
X220210530Y-69186921D01*
X220191317Y-69172671D01*
X220173593Y-69156607D01*
X220157529Y-69138883D01*
X220143279Y-69119670D01*
X220130982Y-69099153D01*
X220120754Y-69077529D01*
X220112696Y-69055007D01*
X220106884Y-69031803D01*
X220103374Y-69008142D01*
X220102200Y-68984250D01*
X220102200Y-68496750D01*
X220103374Y-68472858D01*
X220106884Y-68449197D01*
X220112696Y-68425993D01*
X220120754Y-68403471D01*
X220130982Y-68381847D01*
X220143279Y-68361330D01*
X220157529Y-68342117D01*
X220173593Y-68324393D01*
X220191317Y-68308329D01*
X220210530Y-68294079D01*
X220231047Y-68281782D01*
X220252671Y-68271554D01*
X220275193Y-68263496D01*
X220298397Y-68257684D01*
X220322058Y-68254174D01*
X220345950Y-68253000D01*
X221258450Y-68253000D01*
X221282342Y-68254174D01*
G37*
G36*
X221620162Y-87862974D02*
G01*
X221643823Y-87866484D01*
X221667027Y-87872296D01*
X221689549Y-87880354D01*
X221711173Y-87890582D01*
X221731690Y-87902879D01*
X221750903Y-87917129D01*
X221768627Y-87933193D01*
X221784691Y-87950917D01*
X221798941Y-87970130D01*
X221811238Y-87990647D01*
X221821466Y-88012271D01*
X221829524Y-88034793D01*
X221835336Y-88057997D01*
X221838846Y-88081658D01*
X221840020Y-88105550D01*
X221840020Y-88593050D01*
X221838846Y-88616942D01*
X221835336Y-88640603D01*
X221829524Y-88663807D01*
X221821466Y-88686329D01*
X221811238Y-88707953D01*
X221798941Y-88728470D01*
X221784691Y-88747683D01*
X221768627Y-88765407D01*
X221750903Y-88781471D01*
X221731690Y-88795721D01*
X221711173Y-88808018D01*
X221689549Y-88818246D01*
X221667027Y-88826304D01*
X221643823Y-88832116D01*
X221620162Y-88835626D01*
X221596270Y-88836800D01*
X220683770Y-88836800D01*
X220659878Y-88835626D01*
X220636217Y-88832116D01*
X220613013Y-88826304D01*
X220590491Y-88818246D01*
X220568867Y-88808018D01*
X220548350Y-88795721D01*
X220529137Y-88781471D01*
X220511413Y-88765407D01*
X220495349Y-88747683D01*
X220481099Y-88728470D01*
X220468802Y-88707953D01*
X220458574Y-88686329D01*
X220450516Y-88663807D01*
X220444704Y-88640603D01*
X220441194Y-88616942D01*
X220440020Y-88593050D01*
X220440020Y-88105550D01*
X220441194Y-88081658D01*
X220444704Y-88057997D01*
X220450516Y-88034793D01*
X220458574Y-88012271D01*
X220468802Y-87990647D01*
X220481099Y-87970130D01*
X220495349Y-87950917D01*
X220511413Y-87933193D01*
X220529137Y-87917129D01*
X220548350Y-87902879D01*
X220568867Y-87890582D01*
X220590491Y-87880354D01*
X220613013Y-87872296D01*
X220636217Y-87866484D01*
X220659878Y-87862974D01*
X220683770Y-87861800D01*
X221596270Y-87861800D01*
X221620162Y-87862974D01*
G37*
G36*
X221620162Y-85987974D02*
G01*
X221643823Y-85991484D01*
X221667027Y-85997296D01*
X221689549Y-86005354D01*
X221711173Y-86015582D01*
X221731690Y-86027879D01*
X221750903Y-86042129D01*
X221768627Y-86058193D01*
X221784691Y-86075917D01*
X221798941Y-86095130D01*
X221811238Y-86115647D01*
X221821466Y-86137271D01*
X221829524Y-86159793D01*
X221835336Y-86182997D01*
X221838846Y-86206658D01*
X221840020Y-86230550D01*
X221840020Y-86718050D01*
X221838846Y-86741942D01*
X221835336Y-86765603D01*
X221829524Y-86788807D01*
X221821466Y-86811329D01*
X221811238Y-86832953D01*
X221798941Y-86853470D01*
X221784691Y-86872683D01*
X221768627Y-86890407D01*
X221750903Y-86906471D01*
X221731690Y-86920721D01*
X221711173Y-86933018D01*
X221689549Y-86943246D01*
X221667027Y-86951304D01*
X221643823Y-86957116D01*
X221620162Y-86960626D01*
X221596270Y-86961800D01*
X220683770Y-86961800D01*
X220659878Y-86960626D01*
X220636217Y-86957116D01*
X220613013Y-86951304D01*
X220590491Y-86943246D01*
X220568867Y-86933018D01*
X220548350Y-86920721D01*
X220529137Y-86906471D01*
X220511413Y-86890407D01*
X220495349Y-86872683D01*
X220481099Y-86853470D01*
X220468802Y-86832953D01*
X220458574Y-86811329D01*
X220450516Y-86788807D01*
X220444704Y-86765603D01*
X220441194Y-86741942D01*
X220440020Y-86718050D01*
X220440020Y-86230550D01*
X220441194Y-86206658D01*
X220444704Y-86182997D01*
X220450516Y-86159793D01*
X220458574Y-86137271D01*
X220468802Y-86115647D01*
X220481099Y-86095130D01*
X220495349Y-86075917D01*
X220511413Y-86058193D01*
X220529137Y-86042129D01*
X220548350Y-86027879D01*
X220568867Y-86015582D01*
X220590491Y-86005354D01*
X220613013Y-85997296D01*
X220636217Y-85991484D01*
X220659878Y-85987974D01*
X220683770Y-85986800D01*
X221596270Y-85986800D01*
X221620162Y-85987974D01*
G37*
G36*
X202649282Y-109196814D02*
G01*
X202672943Y-109200324D01*
X202696147Y-109206136D01*
X202718669Y-109214194D01*
X202740293Y-109224422D01*
X202760810Y-109236719D01*
X202780023Y-109250969D01*
X202797747Y-109267033D01*
X202813811Y-109284757D01*
X202828061Y-109303970D01*
X202840358Y-109324487D01*
X202850586Y-109346111D01*
X202858644Y-109368633D01*
X202864456Y-109391837D01*
X202867966Y-109415498D01*
X202869140Y-109439390D01*
X202869140Y-110351890D01*
X202867966Y-110375782D01*
X202864456Y-110399443D01*
X202858644Y-110422647D01*
X202850586Y-110445169D01*
X202840358Y-110466793D01*
X202828061Y-110487310D01*
X202813811Y-110506523D01*
X202797747Y-110524247D01*
X202780023Y-110540311D01*
X202760810Y-110554561D01*
X202740293Y-110566858D01*
X202718669Y-110577086D01*
X202696147Y-110585144D01*
X202672943Y-110590956D01*
X202649282Y-110594466D01*
X202625390Y-110595640D01*
X202137890Y-110595640D01*
X202113998Y-110594466D01*
X202090337Y-110590956D01*
X202067133Y-110585144D01*
X202044611Y-110577086D01*
X202022987Y-110566858D01*
X202002470Y-110554561D01*
X201983257Y-110540311D01*
X201965533Y-110524247D01*
X201949469Y-110506523D01*
X201935219Y-110487310D01*
X201922922Y-110466793D01*
X201912694Y-110445169D01*
X201904636Y-110422647D01*
X201898824Y-110399443D01*
X201895314Y-110375782D01*
X201894140Y-110351890D01*
X201894140Y-109439390D01*
X201895314Y-109415498D01*
X201898824Y-109391837D01*
X201904636Y-109368633D01*
X201912694Y-109346111D01*
X201922922Y-109324487D01*
X201935219Y-109303970D01*
X201949469Y-109284757D01*
X201965533Y-109267033D01*
X201983257Y-109250969D01*
X202002470Y-109236719D01*
X202022987Y-109224422D01*
X202044611Y-109214194D01*
X202067133Y-109206136D01*
X202090337Y-109200324D01*
X202113998Y-109196814D01*
X202137890Y-109195640D01*
X202625390Y-109195640D01*
X202649282Y-109196814D01*
G37*
G36*
X204524282Y-109196814D02*
G01*
X204547943Y-109200324D01*
X204571147Y-109206136D01*
X204593669Y-109214194D01*
X204615293Y-109224422D01*
X204635810Y-109236719D01*
X204655023Y-109250969D01*
X204672747Y-109267033D01*
X204688811Y-109284757D01*
X204703061Y-109303970D01*
X204715358Y-109324487D01*
X204725586Y-109346111D01*
X204733644Y-109368633D01*
X204739456Y-109391837D01*
X204742966Y-109415498D01*
X204744140Y-109439390D01*
X204744140Y-110351890D01*
X204742966Y-110375782D01*
X204739456Y-110399443D01*
X204733644Y-110422647D01*
X204725586Y-110445169D01*
X204715358Y-110466793D01*
X204703061Y-110487310D01*
X204688811Y-110506523D01*
X204672747Y-110524247D01*
X204655023Y-110540311D01*
X204635810Y-110554561D01*
X204615293Y-110566858D01*
X204593669Y-110577086D01*
X204571147Y-110585144D01*
X204547943Y-110590956D01*
X204524282Y-110594466D01*
X204500390Y-110595640D01*
X204012890Y-110595640D01*
X203988998Y-110594466D01*
X203965337Y-110590956D01*
X203942133Y-110585144D01*
X203919611Y-110577086D01*
X203897987Y-110566858D01*
X203877470Y-110554561D01*
X203858257Y-110540311D01*
X203840533Y-110524247D01*
X203824469Y-110506523D01*
X203810219Y-110487310D01*
X203797922Y-110466793D01*
X203787694Y-110445169D01*
X203779636Y-110422647D01*
X203773824Y-110399443D01*
X203770314Y-110375782D01*
X203769140Y-110351890D01*
X203769140Y-109439390D01*
X203770314Y-109415498D01*
X203773824Y-109391837D01*
X203779636Y-109368633D01*
X203787694Y-109346111D01*
X203797922Y-109324487D01*
X203810219Y-109303970D01*
X203824469Y-109284757D01*
X203840533Y-109267033D01*
X203858257Y-109250969D01*
X203877470Y-109236719D01*
X203897987Y-109224422D01*
X203919611Y-109214194D01*
X203942133Y-109206136D01*
X203965337Y-109200324D01*
X203988998Y-109196814D01*
X204012890Y-109195640D01*
X204500390Y-109195640D01*
X204524282Y-109196814D01*
G37*
G36*
X191051642Y-109092674D02*
G01*
X191075303Y-109096184D01*
X191098507Y-109101996D01*
X191121029Y-109110054D01*
X191142653Y-109120282D01*
X191163170Y-109132579D01*
X191182383Y-109146829D01*
X191200107Y-109162893D01*
X191216171Y-109180617D01*
X191230421Y-109199830D01*
X191242718Y-109220347D01*
X191252946Y-109241971D01*
X191261004Y-109264493D01*
X191266816Y-109287697D01*
X191270326Y-109311358D01*
X191271500Y-109335250D01*
X191271500Y-110247750D01*
X191270326Y-110271642D01*
X191266816Y-110295303D01*
X191261004Y-110318507D01*
X191252946Y-110341029D01*
X191242718Y-110362653D01*
X191230421Y-110383170D01*
X191216171Y-110402383D01*
X191200107Y-110420107D01*
X191182383Y-110436171D01*
X191163170Y-110450421D01*
X191142653Y-110462718D01*
X191121029Y-110472946D01*
X191098507Y-110481004D01*
X191075303Y-110486816D01*
X191051642Y-110490326D01*
X191027750Y-110491500D01*
X190540250Y-110491500D01*
X190516358Y-110490326D01*
X190492697Y-110486816D01*
X190469493Y-110481004D01*
X190446971Y-110472946D01*
X190425347Y-110462718D01*
X190404830Y-110450421D01*
X190385617Y-110436171D01*
X190367893Y-110420107D01*
X190351829Y-110402383D01*
X190337579Y-110383170D01*
X190325282Y-110362653D01*
X190315054Y-110341029D01*
X190306996Y-110318507D01*
X190301184Y-110295303D01*
X190297674Y-110271642D01*
X190296500Y-110247750D01*
X190296500Y-109335250D01*
X190297674Y-109311358D01*
X190301184Y-109287697D01*
X190306996Y-109264493D01*
X190315054Y-109241971D01*
X190325282Y-109220347D01*
X190337579Y-109199830D01*
X190351829Y-109180617D01*
X190367893Y-109162893D01*
X190385617Y-109146829D01*
X190404830Y-109132579D01*
X190425347Y-109120282D01*
X190446971Y-109110054D01*
X190469493Y-109101996D01*
X190492697Y-109096184D01*
X190516358Y-109092674D01*
X190540250Y-109091500D01*
X191027750Y-109091500D01*
X191051642Y-109092674D01*
G37*
G36*
X192926642Y-109092674D02*
G01*
X192950303Y-109096184D01*
X192973507Y-109101996D01*
X192996029Y-109110054D01*
X193017653Y-109120282D01*
X193038170Y-109132579D01*
X193057383Y-109146829D01*
X193075107Y-109162893D01*
X193091171Y-109180617D01*
X193105421Y-109199830D01*
X193117718Y-109220347D01*
X193127946Y-109241971D01*
X193136004Y-109264493D01*
X193141816Y-109287697D01*
X193145326Y-109311358D01*
X193146500Y-109335250D01*
X193146500Y-110247750D01*
X193145326Y-110271642D01*
X193141816Y-110295303D01*
X193136004Y-110318507D01*
X193127946Y-110341029D01*
X193117718Y-110362653D01*
X193105421Y-110383170D01*
X193091171Y-110402383D01*
X193075107Y-110420107D01*
X193057383Y-110436171D01*
X193038170Y-110450421D01*
X193017653Y-110462718D01*
X192996029Y-110472946D01*
X192973507Y-110481004D01*
X192950303Y-110486816D01*
X192926642Y-110490326D01*
X192902750Y-110491500D01*
X192415250Y-110491500D01*
X192391358Y-110490326D01*
X192367697Y-110486816D01*
X192344493Y-110481004D01*
X192321971Y-110472946D01*
X192300347Y-110462718D01*
X192279830Y-110450421D01*
X192260617Y-110436171D01*
X192242893Y-110420107D01*
X192226829Y-110402383D01*
X192212579Y-110383170D01*
X192200282Y-110362653D01*
X192190054Y-110341029D01*
X192181996Y-110318507D01*
X192176184Y-110295303D01*
X192172674Y-110271642D01*
X192171500Y-110247750D01*
X192171500Y-109335250D01*
X192172674Y-109311358D01*
X192176184Y-109287697D01*
X192181996Y-109264493D01*
X192190054Y-109241971D01*
X192200282Y-109220347D01*
X192212579Y-109199830D01*
X192226829Y-109180617D01*
X192242893Y-109162893D01*
X192260617Y-109146829D01*
X192279830Y-109132579D01*
X192300347Y-109120282D01*
X192321971Y-109110054D01*
X192344493Y-109101996D01*
X192367697Y-109096184D01*
X192391358Y-109092674D01*
X192415250Y-109091500D01*
X192902750Y-109091500D01*
X192926642Y-109092674D01*
G37*
G36*
X202649282Y-107103854D02*
G01*
X202672943Y-107107364D01*
X202696147Y-107113176D01*
X202718669Y-107121234D01*
X202740293Y-107131462D01*
X202760810Y-107143759D01*
X202780023Y-107158009D01*
X202797747Y-107174073D01*
X202813811Y-107191797D01*
X202828061Y-107211010D01*
X202840358Y-107231527D01*
X202850586Y-107253151D01*
X202858644Y-107275673D01*
X202864456Y-107298877D01*
X202867966Y-107322538D01*
X202869140Y-107346430D01*
X202869140Y-108258930D01*
X202867966Y-108282822D01*
X202864456Y-108306483D01*
X202858644Y-108329687D01*
X202850586Y-108352209D01*
X202840358Y-108373833D01*
X202828061Y-108394350D01*
X202813811Y-108413563D01*
X202797747Y-108431287D01*
X202780023Y-108447351D01*
X202760810Y-108461601D01*
X202740293Y-108473898D01*
X202718669Y-108484126D01*
X202696147Y-108492184D01*
X202672943Y-108497996D01*
X202649282Y-108501506D01*
X202625390Y-108502680D01*
X202137890Y-108502680D01*
X202113998Y-108501506D01*
X202090337Y-108497996D01*
X202067133Y-108492184D01*
X202044611Y-108484126D01*
X202022987Y-108473898D01*
X202002470Y-108461601D01*
X201983257Y-108447351D01*
X201965533Y-108431287D01*
X201949469Y-108413563D01*
X201935219Y-108394350D01*
X201922922Y-108373833D01*
X201912694Y-108352209D01*
X201904636Y-108329687D01*
X201898824Y-108306483D01*
X201895314Y-108282822D01*
X201894140Y-108258930D01*
X201894140Y-107346430D01*
X201895314Y-107322538D01*
X201898824Y-107298877D01*
X201904636Y-107275673D01*
X201912694Y-107253151D01*
X201922922Y-107231527D01*
X201935219Y-107211010D01*
X201949469Y-107191797D01*
X201965533Y-107174073D01*
X201983257Y-107158009D01*
X202002470Y-107143759D01*
X202022987Y-107131462D01*
X202044611Y-107121234D01*
X202067133Y-107113176D01*
X202090337Y-107107364D01*
X202113998Y-107103854D01*
X202137890Y-107102680D01*
X202625390Y-107102680D01*
X202649282Y-107103854D01*
G37*
G36*
X204524282Y-107103854D02*
G01*
X204547943Y-107107364D01*
X204571147Y-107113176D01*
X204593669Y-107121234D01*
X204615293Y-107131462D01*
X204635810Y-107143759D01*
X204655023Y-107158009D01*
X204672747Y-107174073D01*
X204688811Y-107191797D01*
X204703061Y-107211010D01*
X204715358Y-107231527D01*
X204725586Y-107253151D01*
X204733644Y-107275673D01*
X204739456Y-107298877D01*
X204742966Y-107322538D01*
X204744140Y-107346430D01*
X204744140Y-108258930D01*
X204742966Y-108282822D01*
X204739456Y-108306483D01*
X204733644Y-108329687D01*
X204725586Y-108352209D01*
X204715358Y-108373833D01*
X204703061Y-108394350D01*
X204688811Y-108413563D01*
X204672747Y-108431287D01*
X204655023Y-108447351D01*
X204635810Y-108461601D01*
X204615293Y-108473898D01*
X204593669Y-108484126D01*
X204571147Y-108492184D01*
X204547943Y-108497996D01*
X204524282Y-108501506D01*
X204500390Y-108502680D01*
X204012890Y-108502680D01*
X203988998Y-108501506D01*
X203965337Y-108497996D01*
X203942133Y-108492184D01*
X203919611Y-108484126D01*
X203897987Y-108473898D01*
X203877470Y-108461601D01*
X203858257Y-108447351D01*
X203840533Y-108431287D01*
X203824469Y-108413563D01*
X203810219Y-108394350D01*
X203797922Y-108373833D01*
X203787694Y-108352209D01*
X203779636Y-108329687D01*
X203773824Y-108306483D01*
X203770314Y-108282822D01*
X203769140Y-108258930D01*
X203769140Y-107346430D01*
X203770314Y-107322538D01*
X203773824Y-107298877D01*
X203779636Y-107275673D01*
X203787694Y-107253151D01*
X203797922Y-107231527D01*
X203810219Y-107211010D01*
X203824469Y-107191797D01*
X203840533Y-107174073D01*
X203858257Y-107158009D01*
X203877470Y-107143759D01*
X203897987Y-107131462D01*
X203919611Y-107121234D01*
X203942133Y-107113176D01*
X203965337Y-107107364D01*
X203988998Y-107103854D01*
X204012890Y-107102680D01*
X204500390Y-107102680D01*
X204524282Y-107103854D01*
G37*
G36*
X183721682Y-108475454D02*
G01*
X183745343Y-108478964D01*
X183768547Y-108484776D01*
X183791069Y-108492834D01*
X183812693Y-108503062D01*
X183833210Y-108515359D01*
X183852423Y-108529609D01*
X183870147Y-108545673D01*
X183886211Y-108563397D01*
X183900461Y-108582610D01*
X183912758Y-108603127D01*
X183922986Y-108624751D01*
X183931044Y-108647273D01*
X183936856Y-108670477D01*
X183940366Y-108694138D01*
X183941540Y-108718030D01*
X183941540Y-109630530D01*
X183940366Y-109654422D01*
X183936856Y-109678083D01*
X183931044Y-109701287D01*
X183922986Y-109723809D01*
X183912758Y-109745433D01*
X183900461Y-109765950D01*
X183886211Y-109785163D01*
X183870147Y-109802887D01*
X183852423Y-109818951D01*
X183833210Y-109833201D01*
X183812693Y-109845498D01*
X183791069Y-109855726D01*
X183768547Y-109863784D01*
X183745343Y-109869596D01*
X183721682Y-109873106D01*
X183697790Y-109874280D01*
X183210290Y-109874280D01*
X183186398Y-109873106D01*
X183162737Y-109869596D01*
X183139533Y-109863784D01*
X183117011Y-109855726D01*
X183095387Y-109845498D01*
X183074870Y-109833201D01*
X183055657Y-109818951D01*
X183037933Y-109802887D01*
X183021869Y-109785163D01*
X183007619Y-109765950D01*
X182995322Y-109745433D01*
X182985094Y-109723809D01*
X182977036Y-109701287D01*
X182971224Y-109678083D01*
X182967714Y-109654422D01*
X182966540Y-109630530D01*
X182966540Y-108718030D01*
X182967714Y-108694138D01*
X182971224Y-108670477D01*
X182977036Y-108647273D01*
X182985094Y-108624751D01*
X182995322Y-108603127D01*
X183007619Y-108582610D01*
X183021869Y-108563397D01*
X183037933Y-108545673D01*
X183055657Y-108529609D01*
X183074870Y-108515359D01*
X183095387Y-108503062D01*
X183117011Y-108492834D01*
X183139533Y-108484776D01*
X183162737Y-108478964D01*
X183186398Y-108475454D01*
X183210290Y-108474280D01*
X183697790Y-108474280D01*
X183721682Y-108475454D01*
G37*
G36*
X181846682Y-108475454D02*
G01*
X181870343Y-108478964D01*
X181893547Y-108484776D01*
X181916069Y-108492834D01*
X181937693Y-108503062D01*
X181958210Y-108515359D01*
X181977423Y-108529609D01*
X181995147Y-108545673D01*
X182011211Y-108563397D01*
X182025461Y-108582610D01*
X182037758Y-108603127D01*
X182047986Y-108624751D01*
X182056044Y-108647273D01*
X182061856Y-108670477D01*
X182065366Y-108694138D01*
X182066540Y-108718030D01*
X182066540Y-109630530D01*
X182065366Y-109654422D01*
X182061856Y-109678083D01*
X182056044Y-109701287D01*
X182047986Y-109723809D01*
X182037758Y-109745433D01*
X182025461Y-109765950D01*
X182011211Y-109785163D01*
X181995147Y-109802887D01*
X181977423Y-109818951D01*
X181958210Y-109833201D01*
X181937693Y-109845498D01*
X181916069Y-109855726D01*
X181893547Y-109863784D01*
X181870343Y-109869596D01*
X181846682Y-109873106D01*
X181822790Y-109874280D01*
X181335290Y-109874280D01*
X181311398Y-109873106D01*
X181287737Y-109869596D01*
X181264533Y-109863784D01*
X181242011Y-109855726D01*
X181220387Y-109845498D01*
X181199870Y-109833201D01*
X181180657Y-109818951D01*
X181162933Y-109802887D01*
X181146869Y-109785163D01*
X181132619Y-109765950D01*
X181120322Y-109745433D01*
X181110094Y-109723809D01*
X181102036Y-109701287D01*
X181096224Y-109678083D01*
X181092714Y-109654422D01*
X181091540Y-109630530D01*
X181091540Y-108718030D01*
X181092714Y-108694138D01*
X181096224Y-108670477D01*
X181102036Y-108647273D01*
X181110094Y-108624751D01*
X181120322Y-108603127D01*
X181132619Y-108582610D01*
X181146869Y-108563397D01*
X181162933Y-108545673D01*
X181180657Y-108529609D01*
X181199870Y-108515359D01*
X181220387Y-108503062D01*
X181242011Y-108492834D01*
X181264533Y-108484776D01*
X181287737Y-108478964D01*
X181311398Y-108475454D01*
X181335290Y-108474280D01*
X181822790Y-108474280D01*
X181846682Y-108475454D01*
G37*
G36*
X181846682Y-106352014D02*
G01*
X181870343Y-106355524D01*
X181893547Y-106361336D01*
X181916069Y-106369394D01*
X181937693Y-106379622D01*
X181958210Y-106391919D01*
X181977423Y-106406169D01*
X181995147Y-106422233D01*
X182011211Y-106439957D01*
X182025461Y-106459170D01*
X182037758Y-106479687D01*
X182047986Y-106501311D01*
X182056044Y-106523833D01*
X182061856Y-106547037D01*
X182065366Y-106570698D01*
X182066540Y-106594590D01*
X182066540Y-107507090D01*
X182065366Y-107530982D01*
X182061856Y-107554643D01*
X182056044Y-107577847D01*
X182047986Y-107600369D01*
X182037758Y-107621993D01*
X182025461Y-107642510D01*
X182011211Y-107661723D01*
X181995147Y-107679447D01*
X181977423Y-107695511D01*
X181958210Y-107709761D01*
X181937693Y-107722058D01*
X181916069Y-107732286D01*
X181893547Y-107740344D01*
X181870343Y-107746156D01*
X181846682Y-107749666D01*
X181822790Y-107750840D01*
X181335290Y-107750840D01*
X181311398Y-107749666D01*
X181287737Y-107746156D01*
X181264533Y-107740344D01*
X181242011Y-107732286D01*
X181220387Y-107722058D01*
X181199870Y-107709761D01*
X181180657Y-107695511D01*
X181162933Y-107679447D01*
X181146869Y-107661723D01*
X181132619Y-107642510D01*
X181120322Y-107621993D01*
X181110094Y-107600369D01*
X181102036Y-107577847D01*
X181096224Y-107554643D01*
X181092714Y-107530982D01*
X181091540Y-107507090D01*
X181091540Y-106594590D01*
X181092714Y-106570698D01*
X181096224Y-106547037D01*
X181102036Y-106523833D01*
X181110094Y-106501311D01*
X181120322Y-106479687D01*
X181132619Y-106459170D01*
X181146869Y-106439957D01*
X181162933Y-106422233D01*
X181180657Y-106406169D01*
X181199870Y-106391919D01*
X181220387Y-106379622D01*
X181242011Y-106369394D01*
X181264533Y-106361336D01*
X181287737Y-106355524D01*
X181311398Y-106352014D01*
X181335290Y-106350840D01*
X181822790Y-106350840D01*
X181846682Y-106352014D01*
G37*
G36*
X183721682Y-106352014D02*
G01*
X183745343Y-106355524D01*
X183768547Y-106361336D01*
X183791069Y-106369394D01*
X183812693Y-106379622D01*
X183833210Y-106391919D01*
X183852423Y-106406169D01*
X183870147Y-106422233D01*
X183886211Y-106439957D01*
X183900461Y-106459170D01*
X183912758Y-106479687D01*
X183922986Y-106501311D01*
X183931044Y-106523833D01*
X183936856Y-106547037D01*
X183940366Y-106570698D01*
X183941540Y-106594590D01*
X183941540Y-107507090D01*
X183940366Y-107530982D01*
X183936856Y-107554643D01*
X183931044Y-107577847D01*
X183922986Y-107600369D01*
X183912758Y-107621993D01*
X183900461Y-107642510D01*
X183886211Y-107661723D01*
X183870147Y-107679447D01*
X183852423Y-107695511D01*
X183833210Y-107709761D01*
X183812693Y-107722058D01*
X183791069Y-107732286D01*
X183768547Y-107740344D01*
X183745343Y-107746156D01*
X183721682Y-107749666D01*
X183697790Y-107750840D01*
X183210290Y-107750840D01*
X183186398Y-107749666D01*
X183162737Y-107746156D01*
X183139533Y-107740344D01*
X183117011Y-107732286D01*
X183095387Y-107722058D01*
X183074870Y-107709761D01*
X183055657Y-107695511D01*
X183037933Y-107679447D01*
X183021869Y-107661723D01*
X183007619Y-107642510D01*
X182995322Y-107621993D01*
X182985094Y-107600369D01*
X182977036Y-107577847D01*
X182971224Y-107554643D01*
X182967714Y-107530982D01*
X182966540Y-107507090D01*
X182966540Y-106594590D01*
X182967714Y-106570698D01*
X182971224Y-106547037D01*
X182977036Y-106523833D01*
X182985094Y-106501311D01*
X182995322Y-106479687D01*
X183007619Y-106459170D01*
X183021869Y-106439957D01*
X183037933Y-106422233D01*
X183055657Y-106406169D01*
X183074870Y-106391919D01*
X183095387Y-106379622D01*
X183117011Y-106369394D01*
X183139533Y-106361336D01*
X183162737Y-106355524D01*
X183186398Y-106352014D01*
X183210290Y-106350840D01*
X183697790Y-106350840D01*
X183721682Y-106352014D01*
G37*
G36*
X170937002Y-117674474D02*
G01*
X170960663Y-117677984D01*
X170983867Y-117683796D01*
X171006389Y-117691854D01*
X171028013Y-117702082D01*
X171048530Y-117714379D01*
X171067743Y-117728629D01*
X171085467Y-117744693D01*
X171101531Y-117762417D01*
X171115781Y-117781630D01*
X171128078Y-117802147D01*
X171138306Y-117823771D01*
X171146364Y-117846293D01*
X171152176Y-117869497D01*
X171155686Y-117893158D01*
X171156860Y-117917050D01*
X171156860Y-118404550D01*
X171155686Y-118428442D01*
X171152176Y-118452103D01*
X171146364Y-118475307D01*
X171138306Y-118497829D01*
X171128078Y-118519453D01*
X171115781Y-118539970D01*
X171101531Y-118559183D01*
X171085467Y-118576907D01*
X171067743Y-118592971D01*
X171048530Y-118607221D01*
X171028013Y-118619518D01*
X171006389Y-118629746D01*
X170983867Y-118637804D01*
X170960663Y-118643616D01*
X170937002Y-118647126D01*
X170913110Y-118648300D01*
X170000610Y-118648300D01*
X169976718Y-118647126D01*
X169953057Y-118643616D01*
X169929853Y-118637804D01*
X169907331Y-118629746D01*
X169885707Y-118619518D01*
X169865190Y-118607221D01*
X169845977Y-118592971D01*
X169828253Y-118576907D01*
X169812189Y-118559183D01*
X169797939Y-118539970D01*
X169785642Y-118519453D01*
X169775414Y-118497829D01*
X169767356Y-118475307D01*
X169761544Y-118452103D01*
X169758034Y-118428442D01*
X169756860Y-118404550D01*
X169756860Y-117917050D01*
X169758034Y-117893158D01*
X169761544Y-117869497D01*
X169767356Y-117846293D01*
X169775414Y-117823771D01*
X169785642Y-117802147D01*
X169797939Y-117781630D01*
X169812189Y-117762417D01*
X169828253Y-117744693D01*
X169845977Y-117728629D01*
X169865190Y-117714379D01*
X169885707Y-117702082D01*
X169907331Y-117691854D01*
X169929853Y-117683796D01*
X169953057Y-117677984D01*
X169976718Y-117674474D01*
X170000610Y-117673300D01*
X170913110Y-117673300D01*
X170937002Y-117674474D01*
G37*
G36*
X170937002Y-115799474D02*
G01*
X170960663Y-115802984D01*
X170983867Y-115808796D01*
X171006389Y-115816854D01*
X171028013Y-115827082D01*
X171048530Y-115839379D01*
X171067743Y-115853629D01*
X171085467Y-115869693D01*
X171101531Y-115887417D01*
X171115781Y-115906630D01*
X171128078Y-115927147D01*
X171138306Y-115948771D01*
X171146364Y-115971293D01*
X171152176Y-115994497D01*
X171155686Y-116018158D01*
X171156860Y-116042050D01*
X171156860Y-116529550D01*
X171155686Y-116553442D01*
X171152176Y-116577103D01*
X171146364Y-116600307D01*
X171138306Y-116622829D01*
X171128078Y-116644453D01*
X171115781Y-116664970D01*
X171101531Y-116684183D01*
X171085467Y-116701907D01*
X171067743Y-116717971D01*
X171048530Y-116732221D01*
X171028013Y-116744518D01*
X171006389Y-116754746D01*
X170983867Y-116762804D01*
X170960663Y-116768616D01*
X170937002Y-116772126D01*
X170913110Y-116773300D01*
X170000610Y-116773300D01*
X169976718Y-116772126D01*
X169953057Y-116768616D01*
X169929853Y-116762804D01*
X169907331Y-116754746D01*
X169885707Y-116744518D01*
X169865190Y-116732221D01*
X169845977Y-116717971D01*
X169828253Y-116701907D01*
X169812189Y-116684183D01*
X169797939Y-116664970D01*
X169785642Y-116644453D01*
X169775414Y-116622829D01*
X169767356Y-116600307D01*
X169761544Y-116577103D01*
X169758034Y-116553442D01*
X169756860Y-116529550D01*
X169756860Y-116042050D01*
X169758034Y-116018158D01*
X169761544Y-115994497D01*
X169767356Y-115971293D01*
X169775414Y-115948771D01*
X169785642Y-115927147D01*
X169797939Y-115906630D01*
X169812189Y-115887417D01*
X169828253Y-115869693D01*
X169845977Y-115853629D01*
X169865190Y-115839379D01*
X169885707Y-115827082D01*
X169907331Y-115816854D01*
X169929853Y-115808796D01*
X169953057Y-115802984D01*
X169976718Y-115799474D01*
X170000610Y-115798300D01*
X170913110Y-115798300D01*
X170937002Y-115799474D01*
G37*
G36*
X229613542Y-68258774D02*
G01*
X229637203Y-68262284D01*
X229660407Y-68268096D01*
X229682929Y-68276154D01*
X229704553Y-68286382D01*
X229725070Y-68298679D01*
X229744283Y-68312929D01*
X229762007Y-68328993D01*
X229778071Y-68346717D01*
X229792321Y-68365930D01*
X229804618Y-68386447D01*
X229814846Y-68408071D01*
X229822904Y-68430593D01*
X229828716Y-68453797D01*
X229832226Y-68477458D01*
X229833400Y-68501350D01*
X229833400Y-68988850D01*
X229832226Y-69012742D01*
X229828716Y-69036403D01*
X229822904Y-69059607D01*
X229814846Y-69082129D01*
X229804618Y-69103753D01*
X229792321Y-69124270D01*
X229778071Y-69143483D01*
X229762007Y-69161207D01*
X229744283Y-69177271D01*
X229725070Y-69191521D01*
X229704553Y-69203818D01*
X229682929Y-69214046D01*
X229660407Y-69222104D01*
X229637203Y-69227916D01*
X229613542Y-69231426D01*
X229589650Y-69232600D01*
X228677150Y-69232600D01*
X228653258Y-69231426D01*
X228629597Y-69227916D01*
X228606393Y-69222104D01*
X228583871Y-69214046D01*
X228562247Y-69203818D01*
X228541730Y-69191521D01*
X228522517Y-69177271D01*
X228504793Y-69161207D01*
X228488729Y-69143483D01*
X228474479Y-69124270D01*
X228462182Y-69103753D01*
X228451954Y-69082129D01*
X228443896Y-69059607D01*
X228438084Y-69036403D01*
X228434574Y-69012742D01*
X228433400Y-68988850D01*
X228433400Y-68501350D01*
X228434574Y-68477458D01*
X228438084Y-68453797D01*
X228443896Y-68430593D01*
X228451954Y-68408071D01*
X228462182Y-68386447D01*
X228474479Y-68365930D01*
X228488729Y-68346717D01*
X228504793Y-68328993D01*
X228522517Y-68312929D01*
X228541730Y-68298679D01*
X228562247Y-68286382D01*
X228583871Y-68276154D01*
X228606393Y-68268096D01*
X228629597Y-68262284D01*
X228653258Y-68258774D01*
X228677150Y-68257600D01*
X229589650Y-68257600D01*
X229613542Y-68258774D01*
G37*
G36*
X229613542Y-66383774D02*
G01*
X229637203Y-66387284D01*
X229660407Y-66393096D01*
X229682929Y-66401154D01*
X229704553Y-66411382D01*
X229725070Y-66423679D01*
X229744283Y-66437929D01*
X229762007Y-66453993D01*
X229778071Y-66471717D01*
X229792321Y-66490930D01*
X229804618Y-66511447D01*
X229814846Y-66533071D01*
X229822904Y-66555593D01*
X229828716Y-66578797D01*
X229832226Y-66602458D01*
X229833400Y-66626350D01*
X229833400Y-67113850D01*
X229832226Y-67137742D01*
X229828716Y-67161403D01*
X229822904Y-67184607D01*
X229814846Y-67207129D01*
X229804618Y-67228753D01*
X229792321Y-67249270D01*
X229778071Y-67268483D01*
X229762007Y-67286207D01*
X229744283Y-67302271D01*
X229725070Y-67316521D01*
X229704553Y-67328818D01*
X229682929Y-67339046D01*
X229660407Y-67347104D01*
X229637203Y-67352916D01*
X229613542Y-67356426D01*
X229589650Y-67357600D01*
X228677150Y-67357600D01*
X228653258Y-67356426D01*
X228629597Y-67352916D01*
X228606393Y-67347104D01*
X228583871Y-67339046D01*
X228562247Y-67328818D01*
X228541730Y-67316521D01*
X228522517Y-67302271D01*
X228504793Y-67286207D01*
X228488729Y-67268483D01*
X228474479Y-67249270D01*
X228462182Y-67228753D01*
X228451954Y-67207129D01*
X228443896Y-67184607D01*
X228438084Y-67161403D01*
X228434574Y-67137742D01*
X228433400Y-67113850D01*
X228433400Y-66626350D01*
X228434574Y-66602458D01*
X228438084Y-66578797D01*
X228443896Y-66555593D01*
X228451954Y-66533071D01*
X228462182Y-66511447D01*
X228474479Y-66490930D01*
X228488729Y-66471717D01*
X228504793Y-66453993D01*
X228522517Y-66437929D01*
X228541730Y-66423679D01*
X228562247Y-66411382D01*
X228583871Y-66401154D01*
X228606393Y-66393096D01*
X228629597Y-66387284D01*
X228653258Y-66383774D01*
X228677150Y-66382600D01*
X229589650Y-66382600D01*
X229613542Y-66383774D01*
G37*
G36*
X202651822Y-104982954D02*
G01*
X202675483Y-104986464D01*
X202698687Y-104992276D01*
X202721209Y-105000334D01*
X202742833Y-105010562D01*
X202763350Y-105022859D01*
X202782563Y-105037109D01*
X202800287Y-105053173D01*
X202816351Y-105070897D01*
X202830601Y-105090110D01*
X202842898Y-105110627D01*
X202853126Y-105132251D01*
X202861184Y-105154773D01*
X202866996Y-105177977D01*
X202870506Y-105201638D01*
X202871680Y-105225530D01*
X202871680Y-106138030D01*
X202870506Y-106161922D01*
X202866996Y-106185583D01*
X202861184Y-106208787D01*
X202853126Y-106231309D01*
X202842898Y-106252933D01*
X202830601Y-106273450D01*
X202816351Y-106292663D01*
X202800287Y-106310387D01*
X202782563Y-106326451D01*
X202763350Y-106340701D01*
X202742833Y-106352998D01*
X202721209Y-106363226D01*
X202698687Y-106371284D01*
X202675483Y-106377096D01*
X202651822Y-106380606D01*
X202627930Y-106381780D01*
X202140430Y-106381780D01*
X202116538Y-106380606D01*
X202092877Y-106377096D01*
X202069673Y-106371284D01*
X202047151Y-106363226D01*
X202025527Y-106352998D01*
X202005010Y-106340701D01*
X201985797Y-106326451D01*
X201968073Y-106310387D01*
X201952009Y-106292663D01*
X201937759Y-106273450D01*
X201925462Y-106252933D01*
X201915234Y-106231309D01*
X201907176Y-106208787D01*
X201901364Y-106185583D01*
X201897854Y-106161922D01*
X201896680Y-106138030D01*
X201896680Y-105225530D01*
X201897854Y-105201638D01*
X201901364Y-105177977D01*
X201907176Y-105154773D01*
X201915234Y-105132251D01*
X201925462Y-105110627D01*
X201937759Y-105090110D01*
X201952009Y-105070897D01*
X201968073Y-105053173D01*
X201985797Y-105037109D01*
X202005010Y-105022859D01*
X202025527Y-105010562D01*
X202047151Y-105000334D01*
X202069673Y-104992276D01*
X202092877Y-104986464D01*
X202116538Y-104982954D01*
X202140430Y-104981780D01*
X202627930Y-104981780D01*
X202651822Y-104982954D01*
G37*
G36*
X204526822Y-104982954D02*
G01*
X204550483Y-104986464D01*
X204573687Y-104992276D01*
X204596209Y-105000334D01*
X204617833Y-105010562D01*
X204638350Y-105022859D01*
X204657563Y-105037109D01*
X204675287Y-105053173D01*
X204691351Y-105070897D01*
X204705601Y-105090110D01*
X204717898Y-105110627D01*
X204728126Y-105132251D01*
X204736184Y-105154773D01*
X204741996Y-105177977D01*
X204745506Y-105201638D01*
X204746680Y-105225530D01*
X204746680Y-106138030D01*
X204745506Y-106161922D01*
X204741996Y-106185583D01*
X204736184Y-106208787D01*
X204728126Y-106231309D01*
X204717898Y-106252933D01*
X204705601Y-106273450D01*
X204691351Y-106292663D01*
X204675287Y-106310387D01*
X204657563Y-106326451D01*
X204638350Y-106340701D01*
X204617833Y-106352998D01*
X204596209Y-106363226D01*
X204573687Y-106371284D01*
X204550483Y-106377096D01*
X204526822Y-106380606D01*
X204502930Y-106381780D01*
X204015430Y-106381780D01*
X203991538Y-106380606D01*
X203967877Y-106377096D01*
X203944673Y-106371284D01*
X203922151Y-106363226D01*
X203900527Y-106352998D01*
X203880010Y-106340701D01*
X203860797Y-106326451D01*
X203843073Y-106310387D01*
X203827009Y-106292663D01*
X203812759Y-106273450D01*
X203800462Y-106252933D01*
X203790234Y-106231309D01*
X203782176Y-106208787D01*
X203776364Y-106185583D01*
X203772854Y-106161922D01*
X203771680Y-106138030D01*
X203771680Y-105225530D01*
X203772854Y-105201638D01*
X203776364Y-105177977D01*
X203782176Y-105154773D01*
X203790234Y-105132251D01*
X203800462Y-105110627D01*
X203812759Y-105090110D01*
X203827009Y-105070897D01*
X203843073Y-105053173D01*
X203860797Y-105037109D01*
X203880010Y-105022859D01*
X203900527Y-105010562D01*
X203922151Y-105000334D01*
X203944673Y-104992276D01*
X203967877Y-104986464D01*
X203991538Y-104982954D01*
X204015430Y-104981780D01*
X204502930Y-104981780D01*
X204526822Y-104982954D01*
G37*
G36*
X192913942Y-103781534D02*
G01*
X192937603Y-103785044D01*
X192960807Y-103790856D01*
X192983329Y-103798914D01*
X193004953Y-103809142D01*
X193025470Y-103821439D01*
X193044683Y-103835689D01*
X193062407Y-103851753D01*
X193078471Y-103869477D01*
X193092721Y-103888690D01*
X193105018Y-103909207D01*
X193115246Y-103930831D01*
X193123304Y-103953353D01*
X193129116Y-103976557D01*
X193132626Y-104000218D01*
X193133800Y-104024110D01*
X193133800Y-104936610D01*
X193132626Y-104960502D01*
X193129116Y-104984163D01*
X193123304Y-105007367D01*
X193115246Y-105029889D01*
X193105018Y-105051513D01*
X193092721Y-105072030D01*
X193078471Y-105091243D01*
X193062407Y-105108967D01*
X193044683Y-105125031D01*
X193025470Y-105139281D01*
X193004953Y-105151578D01*
X192983329Y-105161806D01*
X192960807Y-105169864D01*
X192937603Y-105175676D01*
X192913942Y-105179186D01*
X192890050Y-105180360D01*
X192402550Y-105180360D01*
X192378658Y-105179186D01*
X192354997Y-105175676D01*
X192331793Y-105169864D01*
X192309271Y-105161806D01*
X192287647Y-105151578D01*
X192267130Y-105139281D01*
X192247917Y-105125031D01*
X192230193Y-105108967D01*
X192214129Y-105091243D01*
X192199879Y-105072030D01*
X192187582Y-105051513D01*
X192177354Y-105029889D01*
X192169296Y-105007367D01*
X192163484Y-104984163D01*
X192159974Y-104960502D01*
X192158800Y-104936610D01*
X192158800Y-104024110D01*
X192159974Y-104000218D01*
X192163484Y-103976557D01*
X192169296Y-103953353D01*
X192177354Y-103930831D01*
X192187582Y-103909207D01*
X192199879Y-103888690D01*
X192214129Y-103869477D01*
X192230193Y-103851753D01*
X192247917Y-103835689D01*
X192267130Y-103821439D01*
X192287647Y-103809142D01*
X192309271Y-103798914D01*
X192331793Y-103790856D01*
X192354997Y-103785044D01*
X192378658Y-103781534D01*
X192402550Y-103780360D01*
X192890050Y-103780360D01*
X192913942Y-103781534D01*
G37*
G36*
X191038942Y-103781534D02*
G01*
X191062603Y-103785044D01*
X191085807Y-103790856D01*
X191108329Y-103798914D01*
X191129953Y-103809142D01*
X191150470Y-103821439D01*
X191169683Y-103835689D01*
X191187407Y-103851753D01*
X191203471Y-103869477D01*
X191217721Y-103888690D01*
X191230018Y-103909207D01*
X191240246Y-103930831D01*
X191248304Y-103953353D01*
X191254116Y-103976557D01*
X191257626Y-104000218D01*
X191258800Y-104024110D01*
X191258800Y-104936610D01*
X191257626Y-104960502D01*
X191254116Y-104984163D01*
X191248304Y-105007367D01*
X191240246Y-105029889D01*
X191230018Y-105051513D01*
X191217721Y-105072030D01*
X191203471Y-105091243D01*
X191187407Y-105108967D01*
X191169683Y-105125031D01*
X191150470Y-105139281D01*
X191129953Y-105151578D01*
X191108329Y-105161806D01*
X191085807Y-105169864D01*
X191062603Y-105175676D01*
X191038942Y-105179186D01*
X191015050Y-105180360D01*
X190527550Y-105180360D01*
X190503658Y-105179186D01*
X190479997Y-105175676D01*
X190456793Y-105169864D01*
X190434271Y-105161806D01*
X190412647Y-105151578D01*
X190392130Y-105139281D01*
X190372917Y-105125031D01*
X190355193Y-105108967D01*
X190339129Y-105091243D01*
X190324879Y-105072030D01*
X190312582Y-105051513D01*
X190302354Y-105029889D01*
X190294296Y-105007367D01*
X190288484Y-104984163D01*
X190284974Y-104960502D01*
X190283800Y-104936610D01*
X190283800Y-104024110D01*
X190284974Y-104000218D01*
X190288484Y-103976557D01*
X190294296Y-103953353D01*
X190302354Y-103930831D01*
X190312582Y-103909207D01*
X190324879Y-103888690D01*
X190339129Y-103869477D01*
X190355193Y-103851753D01*
X190372917Y-103835689D01*
X190392130Y-103821439D01*
X190412647Y-103809142D01*
X190434271Y-103798914D01*
X190456793Y-103790856D01*
X190479997Y-103785044D01*
X190503658Y-103781534D01*
X190527550Y-103780360D01*
X191015050Y-103780360D01*
X191038942Y-103781534D01*
G37*
G36*
X202649282Y-102829034D02*
G01*
X202672943Y-102832544D01*
X202696147Y-102838356D01*
X202718669Y-102846414D01*
X202740293Y-102856642D01*
X202760810Y-102868939D01*
X202780023Y-102883189D01*
X202797747Y-102899253D01*
X202813811Y-102916977D01*
X202828061Y-102936190D01*
X202840358Y-102956707D01*
X202850586Y-102978331D01*
X202858644Y-103000853D01*
X202864456Y-103024057D01*
X202867966Y-103047718D01*
X202869140Y-103071610D01*
X202869140Y-103984110D01*
X202867966Y-104008002D01*
X202864456Y-104031663D01*
X202858644Y-104054867D01*
X202850586Y-104077389D01*
X202840358Y-104099013D01*
X202828061Y-104119530D01*
X202813811Y-104138743D01*
X202797747Y-104156467D01*
X202780023Y-104172531D01*
X202760810Y-104186781D01*
X202740293Y-104199078D01*
X202718669Y-104209306D01*
X202696147Y-104217364D01*
X202672943Y-104223176D01*
X202649282Y-104226686D01*
X202625390Y-104227860D01*
X202137890Y-104227860D01*
X202113998Y-104226686D01*
X202090337Y-104223176D01*
X202067133Y-104217364D01*
X202044611Y-104209306D01*
X202022987Y-104199078D01*
X202002470Y-104186781D01*
X201983257Y-104172531D01*
X201965533Y-104156467D01*
X201949469Y-104138743D01*
X201935219Y-104119530D01*
X201922922Y-104099013D01*
X201912694Y-104077389D01*
X201904636Y-104054867D01*
X201898824Y-104031663D01*
X201895314Y-104008002D01*
X201894140Y-103984110D01*
X201894140Y-103071610D01*
X201895314Y-103047718D01*
X201898824Y-103024057D01*
X201904636Y-103000853D01*
X201912694Y-102978331D01*
X201922922Y-102956707D01*
X201935219Y-102936190D01*
X201949469Y-102916977D01*
X201965533Y-102899253D01*
X201983257Y-102883189D01*
X202002470Y-102868939D01*
X202022987Y-102856642D01*
X202044611Y-102846414D01*
X202067133Y-102838356D01*
X202090337Y-102832544D01*
X202113998Y-102829034D01*
X202137890Y-102827860D01*
X202625390Y-102827860D01*
X202649282Y-102829034D01*
G37*
G36*
X204524282Y-102829034D02*
G01*
X204547943Y-102832544D01*
X204571147Y-102838356D01*
X204593669Y-102846414D01*
X204615293Y-102856642D01*
X204635810Y-102868939D01*
X204655023Y-102883189D01*
X204672747Y-102899253D01*
X204688811Y-102916977D01*
X204703061Y-102936190D01*
X204715358Y-102956707D01*
X204725586Y-102978331D01*
X204733644Y-103000853D01*
X204739456Y-103024057D01*
X204742966Y-103047718D01*
X204744140Y-103071610D01*
X204744140Y-103984110D01*
X204742966Y-104008002D01*
X204739456Y-104031663D01*
X204733644Y-104054867D01*
X204725586Y-104077389D01*
X204715358Y-104099013D01*
X204703061Y-104119530D01*
X204688811Y-104138743D01*
X204672747Y-104156467D01*
X204655023Y-104172531D01*
X204635810Y-104186781D01*
X204615293Y-104199078D01*
X204593669Y-104209306D01*
X204571147Y-104217364D01*
X204547943Y-104223176D01*
X204524282Y-104226686D01*
X204500390Y-104227860D01*
X204012890Y-104227860D01*
X203988998Y-104226686D01*
X203965337Y-104223176D01*
X203942133Y-104217364D01*
X203919611Y-104209306D01*
X203897987Y-104199078D01*
X203877470Y-104186781D01*
X203858257Y-104172531D01*
X203840533Y-104156467D01*
X203824469Y-104138743D01*
X203810219Y-104119530D01*
X203797922Y-104099013D01*
X203787694Y-104077389D01*
X203779636Y-104054867D01*
X203773824Y-104031663D01*
X203770314Y-104008002D01*
X203769140Y-103984110D01*
X203769140Y-103071610D01*
X203770314Y-103047718D01*
X203773824Y-103024057D01*
X203779636Y-103000853D01*
X203787694Y-102978331D01*
X203797922Y-102956707D01*
X203810219Y-102936190D01*
X203824469Y-102916977D01*
X203840533Y-102899253D01*
X203858257Y-102883189D01*
X203877470Y-102868939D01*
X203897987Y-102856642D01*
X203919611Y-102846414D01*
X203942133Y-102838356D01*
X203965337Y-102832544D01*
X203988998Y-102829034D01*
X204012890Y-102827860D01*
X204500390Y-102827860D01*
X204524282Y-102829034D01*
G37*
G36*
X181798422Y-102087354D02*
G01*
X181822083Y-102090864D01*
X181845287Y-102096676D01*
X181867809Y-102104734D01*
X181889433Y-102114962D01*
X181909950Y-102127259D01*
X181929163Y-102141509D01*
X181946887Y-102157573D01*
X181962951Y-102175297D01*
X181977201Y-102194510D01*
X181989498Y-102215027D01*
X181999726Y-102236651D01*
X182007784Y-102259173D01*
X182013596Y-102282377D01*
X182017106Y-102306038D01*
X182018280Y-102329930D01*
X182018280Y-103242430D01*
X182017106Y-103266322D01*
X182013596Y-103289983D01*
X182007784Y-103313187D01*
X181999726Y-103335709D01*
X181989498Y-103357333D01*
X181977201Y-103377850D01*
X181962951Y-103397063D01*
X181946887Y-103414787D01*
X181929163Y-103430851D01*
X181909950Y-103445101D01*
X181889433Y-103457398D01*
X181867809Y-103467626D01*
X181845287Y-103475684D01*
X181822083Y-103481496D01*
X181798422Y-103485006D01*
X181774530Y-103486180D01*
X181287030Y-103486180D01*
X181263138Y-103485006D01*
X181239477Y-103481496D01*
X181216273Y-103475684D01*
X181193751Y-103467626D01*
X181172127Y-103457398D01*
X181151610Y-103445101D01*
X181132397Y-103430851D01*
X181114673Y-103414787D01*
X181098609Y-103397063D01*
X181084359Y-103377850D01*
X181072062Y-103357333D01*
X181061834Y-103335709D01*
X181053776Y-103313187D01*
X181047964Y-103289983D01*
X181044454Y-103266322D01*
X181043280Y-103242430D01*
X181043280Y-102329930D01*
X181044454Y-102306038D01*
X181047964Y-102282377D01*
X181053776Y-102259173D01*
X181061834Y-102236651D01*
X181072062Y-102215027D01*
X181084359Y-102194510D01*
X181098609Y-102175297D01*
X181114673Y-102157573D01*
X181132397Y-102141509D01*
X181151610Y-102127259D01*
X181172127Y-102114962D01*
X181193751Y-102104734D01*
X181216273Y-102096676D01*
X181239477Y-102090864D01*
X181263138Y-102087354D01*
X181287030Y-102086180D01*
X181774530Y-102086180D01*
X181798422Y-102087354D01*
G37*
G36*
X183673422Y-102087354D02*
G01*
X183697083Y-102090864D01*
X183720287Y-102096676D01*
X183742809Y-102104734D01*
X183764433Y-102114962D01*
X183784950Y-102127259D01*
X183804163Y-102141509D01*
X183821887Y-102157573D01*
X183837951Y-102175297D01*
X183852201Y-102194510D01*
X183864498Y-102215027D01*
X183874726Y-102236651D01*
X183882784Y-102259173D01*
X183888596Y-102282377D01*
X183892106Y-102306038D01*
X183893280Y-102329930D01*
X183893280Y-103242430D01*
X183892106Y-103266322D01*
X183888596Y-103289983D01*
X183882784Y-103313187D01*
X183874726Y-103335709D01*
X183864498Y-103357333D01*
X183852201Y-103377850D01*
X183837951Y-103397063D01*
X183821887Y-103414787D01*
X183804163Y-103430851D01*
X183784950Y-103445101D01*
X183764433Y-103457398D01*
X183742809Y-103467626D01*
X183720287Y-103475684D01*
X183697083Y-103481496D01*
X183673422Y-103485006D01*
X183649530Y-103486180D01*
X183162030Y-103486180D01*
X183138138Y-103485006D01*
X183114477Y-103481496D01*
X183091273Y-103475684D01*
X183068751Y-103467626D01*
X183047127Y-103457398D01*
X183026610Y-103445101D01*
X183007397Y-103430851D01*
X182989673Y-103414787D01*
X182973609Y-103397063D01*
X182959359Y-103377850D01*
X182947062Y-103357333D01*
X182936834Y-103335709D01*
X182928776Y-103313187D01*
X182922964Y-103289983D01*
X182919454Y-103266322D01*
X182918280Y-103242430D01*
X182918280Y-102329930D01*
X182919454Y-102306038D01*
X182922964Y-102282377D01*
X182928776Y-102259173D01*
X182936834Y-102236651D01*
X182947062Y-102215027D01*
X182959359Y-102194510D01*
X182973609Y-102175297D01*
X182989673Y-102157573D01*
X183007397Y-102141509D01*
X183026610Y-102127259D01*
X183047127Y-102114962D01*
X183068751Y-102104734D01*
X183091273Y-102096676D01*
X183114477Y-102090864D01*
X183138138Y-102087354D01*
X183162030Y-102086180D01*
X183649530Y-102086180D01*
X183673422Y-102087354D01*
G37*
G36*
X181798422Y-104241274D02*
G01*
X181822083Y-104244784D01*
X181845287Y-104250596D01*
X181867809Y-104258654D01*
X181889433Y-104268882D01*
X181909950Y-104281179D01*
X181929163Y-104295429D01*
X181946887Y-104311493D01*
X181962951Y-104329217D01*
X181977201Y-104348430D01*
X181989498Y-104368947D01*
X181999726Y-104390571D01*
X182007784Y-104413093D01*
X182013596Y-104436297D01*
X182017106Y-104459958D01*
X182018280Y-104483850D01*
X182018280Y-105396350D01*
X182017106Y-105420242D01*
X182013596Y-105443903D01*
X182007784Y-105467107D01*
X181999726Y-105489629D01*
X181989498Y-105511253D01*
X181977201Y-105531770D01*
X181962951Y-105550983D01*
X181946887Y-105568707D01*
X181929163Y-105584771D01*
X181909950Y-105599021D01*
X181889433Y-105611318D01*
X181867809Y-105621546D01*
X181845287Y-105629604D01*
X181822083Y-105635416D01*
X181798422Y-105638926D01*
X181774530Y-105640100D01*
X181287030Y-105640100D01*
X181263138Y-105638926D01*
X181239477Y-105635416D01*
X181216273Y-105629604D01*
X181193751Y-105621546D01*
X181172127Y-105611318D01*
X181151610Y-105599021D01*
X181132397Y-105584771D01*
X181114673Y-105568707D01*
X181098609Y-105550983D01*
X181084359Y-105531770D01*
X181072062Y-105511253D01*
X181061834Y-105489629D01*
X181053776Y-105467107D01*
X181047964Y-105443903D01*
X181044454Y-105420242D01*
X181043280Y-105396350D01*
X181043280Y-104483850D01*
X181044454Y-104459958D01*
X181047964Y-104436297D01*
X181053776Y-104413093D01*
X181061834Y-104390571D01*
X181072062Y-104368947D01*
X181084359Y-104348430D01*
X181098609Y-104329217D01*
X181114673Y-104311493D01*
X181132397Y-104295429D01*
X181151610Y-104281179D01*
X181172127Y-104268882D01*
X181193751Y-104258654D01*
X181216273Y-104250596D01*
X181239477Y-104244784D01*
X181263138Y-104241274D01*
X181287030Y-104240100D01*
X181774530Y-104240100D01*
X181798422Y-104241274D01*
G37*
G36*
X183673422Y-104241274D02*
G01*
X183697083Y-104244784D01*
X183720287Y-104250596D01*
X183742809Y-104258654D01*
X183764433Y-104268882D01*
X183784950Y-104281179D01*
X183804163Y-104295429D01*
X183821887Y-104311493D01*
X183837951Y-104329217D01*
X183852201Y-104348430D01*
X183864498Y-104368947D01*
X183874726Y-104390571D01*
X183882784Y-104413093D01*
X183888596Y-104436297D01*
X183892106Y-104459958D01*
X183893280Y-104483850D01*
X183893280Y-105396350D01*
X183892106Y-105420242D01*
X183888596Y-105443903D01*
X183882784Y-105467107D01*
X183874726Y-105489629D01*
X183864498Y-105511253D01*
X183852201Y-105531770D01*
X183837951Y-105550983D01*
X183821887Y-105568707D01*
X183804163Y-105584771D01*
X183784950Y-105599021D01*
X183764433Y-105611318D01*
X183742809Y-105621546D01*
X183720287Y-105629604D01*
X183697083Y-105635416D01*
X183673422Y-105638926D01*
X183649530Y-105640100D01*
X183162030Y-105640100D01*
X183138138Y-105638926D01*
X183114477Y-105635416D01*
X183091273Y-105629604D01*
X183068751Y-105621546D01*
X183047127Y-105611318D01*
X183026610Y-105599021D01*
X183007397Y-105584771D01*
X182989673Y-105568707D01*
X182973609Y-105550983D01*
X182959359Y-105531770D01*
X182947062Y-105511253D01*
X182936834Y-105489629D01*
X182928776Y-105467107D01*
X182922964Y-105443903D01*
X182919454Y-105420242D01*
X182918280Y-105396350D01*
X182918280Y-104483850D01*
X182919454Y-104459958D01*
X182922964Y-104436297D01*
X182928776Y-104413093D01*
X182936834Y-104390571D01*
X182947062Y-104368947D01*
X182959359Y-104348430D01*
X182973609Y-104329217D01*
X182989673Y-104311493D01*
X183007397Y-104295429D01*
X183026610Y-104281179D01*
X183047127Y-104268882D01*
X183068751Y-104258654D01*
X183091273Y-104250596D01*
X183114477Y-104244784D01*
X183138138Y-104241274D01*
X183162030Y-104240100D01*
X183649530Y-104240100D01*
X183673422Y-104241274D01*
G37*
G36*
X173365242Y-115763914D02*
G01*
X173388903Y-115767424D01*
X173412107Y-115773236D01*
X173434629Y-115781294D01*
X173456253Y-115791522D01*
X173476770Y-115803819D01*
X173495983Y-115818069D01*
X173513707Y-115834133D01*
X173529771Y-115851857D01*
X173544021Y-115871070D01*
X173556318Y-115891587D01*
X173566546Y-115913211D01*
X173574604Y-115935733D01*
X173580416Y-115958937D01*
X173583926Y-115982598D01*
X173585100Y-116006490D01*
X173585100Y-116493990D01*
X173583926Y-116517882D01*
X173580416Y-116541543D01*
X173574604Y-116564747D01*
X173566546Y-116587269D01*
X173556318Y-116608893D01*
X173544021Y-116629410D01*
X173529771Y-116648623D01*
X173513707Y-116666347D01*
X173495983Y-116682411D01*
X173476770Y-116696661D01*
X173456253Y-116708958D01*
X173434629Y-116719186D01*
X173412107Y-116727244D01*
X173388903Y-116733056D01*
X173365242Y-116736566D01*
X173341350Y-116737740D01*
X172428850Y-116737740D01*
X172404958Y-116736566D01*
X172381297Y-116733056D01*
X172358093Y-116727244D01*
X172335571Y-116719186D01*
X172313947Y-116708958D01*
X172293430Y-116696661D01*
X172274217Y-116682411D01*
X172256493Y-116666347D01*
X172240429Y-116648623D01*
X172226179Y-116629410D01*
X172213882Y-116608893D01*
X172203654Y-116587269D01*
X172195596Y-116564747D01*
X172189784Y-116541543D01*
X172186274Y-116517882D01*
X172185100Y-116493990D01*
X172185100Y-116006490D01*
X172186274Y-115982598D01*
X172189784Y-115958937D01*
X172195596Y-115935733D01*
X172203654Y-115913211D01*
X172213882Y-115891587D01*
X172226179Y-115871070D01*
X172240429Y-115851857D01*
X172256493Y-115834133D01*
X172274217Y-115818069D01*
X172293430Y-115803819D01*
X172313947Y-115791522D01*
X172335571Y-115781294D01*
X172358093Y-115773236D01*
X172381297Y-115767424D01*
X172404958Y-115763914D01*
X172428850Y-115762740D01*
X173341350Y-115762740D01*
X173365242Y-115763914D01*
G37*
G36*
X173365242Y-117638914D02*
G01*
X173388903Y-117642424D01*
X173412107Y-117648236D01*
X173434629Y-117656294D01*
X173456253Y-117666522D01*
X173476770Y-117678819D01*
X173495983Y-117693069D01*
X173513707Y-117709133D01*
X173529771Y-117726857D01*
X173544021Y-117746070D01*
X173556318Y-117766587D01*
X173566546Y-117788211D01*
X173574604Y-117810733D01*
X173580416Y-117833937D01*
X173583926Y-117857598D01*
X173585100Y-117881490D01*
X173585100Y-118368990D01*
X173583926Y-118392882D01*
X173580416Y-118416543D01*
X173574604Y-118439747D01*
X173566546Y-118462269D01*
X173556318Y-118483893D01*
X173544021Y-118504410D01*
X173529771Y-118523623D01*
X173513707Y-118541347D01*
X173495983Y-118557411D01*
X173476770Y-118571661D01*
X173456253Y-118583958D01*
X173434629Y-118594186D01*
X173412107Y-118602244D01*
X173388903Y-118608056D01*
X173365242Y-118611566D01*
X173341350Y-118612740D01*
X172428850Y-118612740D01*
X172404958Y-118611566D01*
X172381297Y-118608056D01*
X172358093Y-118602244D01*
X172335571Y-118594186D01*
X172313947Y-118583958D01*
X172293430Y-118571661D01*
X172274217Y-118557411D01*
X172256493Y-118541347D01*
X172240429Y-118523623D01*
X172226179Y-118504410D01*
X172213882Y-118483893D01*
X172203654Y-118462269D01*
X172195596Y-118439747D01*
X172189784Y-118416543D01*
X172186274Y-118392882D01*
X172185100Y-118368990D01*
X172185100Y-117881490D01*
X172186274Y-117857598D01*
X172189784Y-117833937D01*
X172195596Y-117810733D01*
X172203654Y-117788211D01*
X172213882Y-117766587D01*
X172226179Y-117746070D01*
X172240429Y-117726857D01*
X172256493Y-117709133D01*
X172274217Y-117693069D01*
X172293430Y-117678819D01*
X172313947Y-117666522D01*
X172335571Y-117656294D01*
X172358093Y-117648236D01*
X172381297Y-117642424D01*
X172404958Y-117638914D01*
X172428850Y-117637740D01*
X173341350Y-117637740D01*
X173365242Y-117638914D01*
G37*
G36*
X230078362Y-85924474D02*
G01*
X230102023Y-85927984D01*
X230125227Y-85933796D01*
X230147749Y-85941854D01*
X230169373Y-85952082D01*
X230189890Y-85964379D01*
X230209103Y-85978629D01*
X230226827Y-85994693D01*
X230242891Y-86012417D01*
X230257141Y-86031630D01*
X230269438Y-86052147D01*
X230279666Y-86073771D01*
X230287724Y-86096293D01*
X230293536Y-86119497D01*
X230297046Y-86143158D01*
X230298220Y-86167050D01*
X230298220Y-86654550D01*
X230297046Y-86678442D01*
X230293536Y-86702103D01*
X230287724Y-86725307D01*
X230279666Y-86747829D01*
X230269438Y-86769453D01*
X230257141Y-86789970D01*
X230242891Y-86809183D01*
X230226827Y-86826907D01*
X230209103Y-86842971D01*
X230189890Y-86857221D01*
X230169373Y-86869518D01*
X230147749Y-86879746D01*
X230125227Y-86887804D01*
X230102023Y-86893616D01*
X230078362Y-86897126D01*
X230054470Y-86898300D01*
X229141970Y-86898300D01*
X229118078Y-86897126D01*
X229094417Y-86893616D01*
X229071213Y-86887804D01*
X229048691Y-86879746D01*
X229027067Y-86869518D01*
X229006550Y-86857221D01*
X228987337Y-86842971D01*
X228969613Y-86826907D01*
X228953549Y-86809183D01*
X228939299Y-86789970D01*
X228927002Y-86769453D01*
X228916774Y-86747829D01*
X228908716Y-86725307D01*
X228902904Y-86702103D01*
X228899394Y-86678442D01*
X228898220Y-86654550D01*
X228898220Y-86167050D01*
X228899394Y-86143158D01*
X228902904Y-86119497D01*
X228908716Y-86096293D01*
X228916774Y-86073771D01*
X228927002Y-86052147D01*
X228939299Y-86031630D01*
X228953549Y-86012417D01*
X228969613Y-85994693D01*
X228987337Y-85978629D01*
X229006550Y-85964379D01*
X229027067Y-85952082D01*
X229048691Y-85941854D01*
X229071213Y-85933796D01*
X229094417Y-85927984D01*
X229118078Y-85924474D01*
X229141970Y-85923300D01*
X230054470Y-85923300D01*
X230078362Y-85924474D01*
G37*
G36*
X230078362Y-87799474D02*
G01*
X230102023Y-87802984D01*
X230125227Y-87808796D01*
X230147749Y-87816854D01*
X230169373Y-87827082D01*
X230189890Y-87839379D01*
X230209103Y-87853629D01*
X230226827Y-87869693D01*
X230242891Y-87887417D01*
X230257141Y-87906630D01*
X230269438Y-87927147D01*
X230279666Y-87948771D01*
X230287724Y-87971293D01*
X230293536Y-87994497D01*
X230297046Y-88018158D01*
X230298220Y-88042050D01*
X230298220Y-88529550D01*
X230297046Y-88553442D01*
X230293536Y-88577103D01*
X230287724Y-88600307D01*
X230279666Y-88622829D01*
X230269438Y-88644453D01*
X230257141Y-88664970D01*
X230242891Y-88684183D01*
X230226827Y-88701907D01*
X230209103Y-88717971D01*
X230189890Y-88732221D01*
X230169373Y-88744518D01*
X230147749Y-88754746D01*
X230125227Y-88762804D01*
X230102023Y-88768616D01*
X230078362Y-88772126D01*
X230054470Y-88773300D01*
X229141970Y-88773300D01*
X229118078Y-88772126D01*
X229094417Y-88768616D01*
X229071213Y-88762804D01*
X229048691Y-88754746D01*
X229027067Y-88744518D01*
X229006550Y-88732221D01*
X228987337Y-88717971D01*
X228969613Y-88701907D01*
X228953549Y-88684183D01*
X228939299Y-88664970D01*
X228927002Y-88644453D01*
X228916774Y-88622829D01*
X228908716Y-88600307D01*
X228902904Y-88577103D01*
X228899394Y-88553442D01*
X228898220Y-88529550D01*
X228898220Y-88042050D01*
X228899394Y-88018158D01*
X228902904Y-87994497D01*
X228908716Y-87971293D01*
X228916774Y-87948771D01*
X228927002Y-87927147D01*
X228939299Y-87906630D01*
X228953549Y-87887417D01*
X228969613Y-87869693D01*
X228987337Y-87853629D01*
X229006550Y-87839379D01*
X229027067Y-87827082D01*
X229048691Y-87816854D01*
X229071213Y-87808796D01*
X229094417Y-87802984D01*
X229118078Y-87799474D01*
X229141970Y-87798300D01*
X230054470Y-87798300D01*
X230078362Y-87799474D01*
G37*
G36*
X204476022Y-98579614D02*
G01*
X204499683Y-98583124D01*
X204522887Y-98588936D01*
X204545409Y-98596994D01*
X204567033Y-98607222D01*
X204587550Y-98619519D01*
X204606763Y-98633769D01*
X204624487Y-98649833D01*
X204640551Y-98667557D01*
X204654801Y-98686770D01*
X204667098Y-98707287D01*
X204677326Y-98728911D01*
X204685384Y-98751433D01*
X204691196Y-98774637D01*
X204694706Y-98798298D01*
X204695880Y-98822190D01*
X204695880Y-99734690D01*
X204694706Y-99758582D01*
X204691196Y-99782243D01*
X204685384Y-99805447D01*
X204677326Y-99827969D01*
X204667098Y-99849593D01*
X204654801Y-99870110D01*
X204640551Y-99889323D01*
X204624487Y-99907047D01*
X204606763Y-99923111D01*
X204587550Y-99937361D01*
X204567033Y-99949658D01*
X204545409Y-99959886D01*
X204522887Y-99967944D01*
X204499683Y-99973756D01*
X204476022Y-99977266D01*
X204452130Y-99978440D01*
X203964630Y-99978440D01*
X203940738Y-99977266D01*
X203917077Y-99973756D01*
X203893873Y-99967944D01*
X203871351Y-99959886D01*
X203849727Y-99949658D01*
X203829210Y-99937361D01*
X203809997Y-99923111D01*
X203792273Y-99907047D01*
X203776209Y-99889323D01*
X203761959Y-99870110D01*
X203749662Y-99849593D01*
X203739434Y-99827969D01*
X203731376Y-99805447D01*
X203725564Y-99782243D01*
X203722054Y-99758582D01*
X203720880Y-99734690D01*
X203720880Y-98822190D01*
X203722054Y-98798298D01*
X203725564Y-98774637D01*
X203731376Y-98751433D01*
X203739434Y-98728911D01*
X203749662Y-98707287D01*
X203761959Y-98686770D01*
X203776209Y-98667557D01*
X203792273Y-98649833D01*
X203809997Y-98633769D01*
X203829210Y-98619519D01*
X203849727Y-98607222D01*
X203871351Y-98596994D01*
X203893873Y-98588936D01*
X203917077Y-98583124D01*
X203940738Y-98579614D01*
X203964630Y-98578440D01*
X204452130Y-98578440D01*
X204476022Y-98579614D01*
G37*
G36*
X202601022Y-98579614D02*
G01*
X202624683Y-98583124D01*
X202647887Y-98588936D01*
X202670409Y-98596994D01*
X202692033Y-98607222D01*
X202712550Y-98619519D01*
X202731763Y-98633769D01*
X202749487Y-98649833D01*
X202765551Y-98667557D01*
X202779801Y-98686770D01*
X202792098Y-98707287D01*
X202802326Y-98728911D01*
X202810384Y-98751433D01*
X202816196Y-98774637D01*
X202819706Y-98798298D01*
X202820880Y-98822190D01*
X202820880Y-99734690D01*
X202819706Y-99758582D01*
X202816196Y-99782243D01*
X202810384Y-99805447D01*
X202802326Y-99827969D01*
X202792098Y-99849593D01*
X202779801Y-99870110D01*
X202765551Y-99889323D01*
X202749487Y-99907047D01*
X202731763Y-99923111D01*
X202712550Y-99937361D01*
X202692033Y-99949658D01*
X202670409Y-99959886D01*
X202647887Y-99967944D01*
X202624683Y-99973756D01*
X202601022Y-99977266D01*
X202577130Y-99978440D01*
X202089630Y-99978440D01*
X202065738Y-99977266D01*
X202042077Y-99973756D01*
X202018873Y-99967944D01*
X201996351Y-99959886D01*
X201974727Y-99949658D01*
X201954210Y-99937361D01*
X201934997Y-99923111D01*
X201917273Y-99907047D01*
X201901209Y-99889323D01*
X201886959Y-99870110D01*
X201874662Y-99849593D01*
X201864434Y-99827969D01*
X201856376Y-99805447D01*
X201850564Y-99782243D01*
X201847054Y-99758582D01*
X201845880Y-99734690D01*
X201845880Y-98822190D01*
X201847054Y-98798298D01*
X201850564Y-98774637D01*
X201856376Y-98751433D01*
X201864434Y-98728911D01*
X201874662Y-98707287D01*
X201886959Y-98686770D01*
X201901209Y-98667557D01*
X201917273Y-98649833D01*
X201934997Y-98633769D01*
X201954210Y-98619519D01*
X201974727Y-98607222D01*
X201996351Y-98596994D01*
X202018873Y-98588936D01*
X202042077Y-98583124D01*
X202065738Y-98579614D01*
X202089630Y-98578440D01*
X202577130Y-98578440D01*
X202601022Y-98579614D01*
G37*
G36*
X191049102Y-97682994D02*
G01*
X191072763Y-97686504D01*
X191095967Y-97692316D01*
X191118489Y-97700374D01*
X191140113Y-97710602D01*
X191160630Y-97722899D01*
X191179843Y-97737149D01*
X191197567Y-97753213D01*
X191213631Y-97770937D01*
X191227881Y-97790150D01*
X191240178Y-97810667D01*
X191250406Y-97832291D01*
X191258464Y-97854813D01*
X191264276Y-97878017D01*
X191267786Y-97901678D01*
X191268960Y-97925570D01*
X191268960Y-98838070D01*
X191267786Y-98861962D01*
X191264276Y-98885623D01*
X191258464Y-98908827D01*
X191250406Y-98931349D01*
X191240178Y-98952973D01*
X191227881Y-98973490D01*
X191213631Y-98992703D01*
X191197567Y-99010427D01*
X191179843Y-99026491D01*
X191160630Y-99040741D01*
X191140113Y-99053038D01*
X191118489Y-99063266D01*
X191095967Y-99071324D01*
X191072763Y-99077136D01*
X191049102Y-99080646D01*
X191025210Y-99081820D01*
X190537710Y-99081820D01*
X190513818Y-99080646D01*
X190490157Y-99077136D01*
X190466953Y-99071324D01*
X190444431Y-99063266D01*
X190422807Y-99053038D01*
X190402290Y-99040741D01*
X190383077Y-99026491D01*
X190365353Y-99010427D01*
X190349289Y-98992703D01*
X190335039Y-98973490D01*
X190322742Y-98952973D01*
X190312514Y-98931349D01*
X190304456Y-98908827D01*
X190298644Y-98885623D01*
X190295134Y-98861962D01*
X190293960Y-98838070D01*
X190293960Y-97925570D01*
X190295134Y-97901678D01*
X190298644Y-97878017D01*
X190304456Y-97854813D01*
X190312514Y-97832291D01*
X190322742Y-97810667D01*
X190335039Y-97790150D01*
X190349289Y-97770937D01*
X190365353Y-97753213D01*
X190383077Y-97737149D01*
X190402290Y-97722899D01*
X190422807Y-97710602D01*
X190444431Y-97700374D01*
X190466953Y-97692316D01*
X190490157Y-97686504D01*
X190513818Y-97682994D01*
X190537710Y-97681820D01*
X191025210Y-97681820D01*
X191049102Y-97682994D01*
G37*
G36*
X192924102Y-97682994D02*
G01*
X192947763Y-97686504D01*
X192970967Y-97692316D01*
X192993489Y-97700374D01*
X193015113Y-97710602D01*
X193035630Y-97722899D01*
X193054843Y-97737149D01*
X193072567Y-97753213D01*
X193088631Y-97770937D01*
X193102881Y-97790150D01*
X193115178Y-97810667D01*
X193125406Y-97832291D01*
X193133464Y-97854813D01*
X193139276Y-97878017D01*
X193142786Y-97901678D01*
X193143960Y-97925570D01*
X193143960Y-98838070D01*
X193142786Y-98861962D01*
X193139276Y-98885623D01*
X193133464Y-98908827D01*
X193125406Y-98931349D01*
X193115178Y-98952973D01*
X193102881Y-98973490D01*
X193088631Y-98992703D01*
X193072567Y-99010427D01*
X193054843Y-99026491D01*
X193035630Y-99040741D01*
X193015113Y-99053038D01*
X192993489Y-99063266D01*
X192970967Y-99071324D01*
X192947763Y-99077136D01*
X192924102Y-99080646D01*
X192900210Y-99081820D01*
X192412710Y-99081820D01*
X192388818Y-99080646D01*
X192365157Y-99077136D01*
X192341953Y-99071324D01*
X192319431Y-99063266D01*
X192297807Y-99053038D01*
X192277290Y-99040741D01*
X192258077Y-99026491D01*
X192240353Y-99010427D01*
X192224289Y-98992703D01*
X192210039Y-98973490D01*
X192197742Y-98952973D01*
X192187514Y-98931349D01*
X192179456Y-98908827D01*
X192173644Y-98885623D01*
X192170134Y-98861962D01*
X192168960Y-98838070D01*
X192168960Y-97925570D01*
X192170134Y-97901678D01*
X192173644Y-97878017D01*
X192179456Y-97854813D01*
X192187514Y-97832291D01*
X192197742Y-97810667D01*
X192210039Y-97790150D01*
X192224289Y-97770937D01*
X192240353Y-97753213D01*
X192258077Y-97737149D01*
X192277290Y-97722899D01*
X192297807Y-97710602D01*
X192319431Y-97700374D01*
X192341953Y-97692316D01*
X192365157Y-97686504D01*
X192388818Y-97682994D01*
X192412710Y-97681820D01*
X192900210Y-97681820D01*
X192924102Y-97682994D01*
G37*
G36*
X202598482Y-100715754D02*
G01*
X202622143Y-100719264D01*
X202645347Y-100725076D01*
X202667869Y-100733134D01*
X202689493Y-100743362D01*
X202710010Y-100755659D01*
X202729223Y-100769909D01*
X202746947Y-100785973D01*
X202763011Y-100803697D01*
X202777261Y-100822910D01*
X202789558Y-100843427D01*
X202799786Y-100865051D01*
X202807844Y-100887573D01*
X202813656Y-100910777D01*
X202817166Y-100934438D01*
X202818340Y-100958330D01*
X202818340Y-101870830D01*
X202817166Y-101894722D01*
X202813656Y-101918383D01*
X202807844Y-101941587D01*
X202799786Y-101964109D01*
X202789558Y-101985733D01*
X202777261Y-102006250D01*
X202763011Y-102025463D01*
X202746947Y-102043187D01*
X202729223Y-102059251D01*
X202710010Y-102073501D01*
X202689493Y-102085798D01*
X202667869Y-102096026D01*
X202645347Y-102104084D01*
X202622143Y-102109896D01*
X202598482Y-102113406D01*
X202574590Y-102114580D01*
X202087090Y-102114580D01*
X202063198Y-102113406D01*
X202039537Y-102109896D01*
X202016333Y-102104084D01*
X201993811Y-102096026D01*
X201972187Y-102085798D01*
X201951670Y-102073501D01*
X201932457Y-102059251D01*
X201914733Y-102043187D01*
X201898669Y-102025463D01*
X201884419Y-102006250D01*
X201872122Y-101985733D01*
X201861894Y-101964109D01*
X201853836Y-101941587D01*
X201848024Y-101918383D01*
X201844514Y-101894722D01*
X201843340Y-101870830D01*
X201843340Y-100958330D01*
X201844514Y-100934438D01*
X201848024Y-100910777D01*
X201853836Y-100887573D01*
X201861894Y-100865051D01*
X201872122Y-100843427D01*
X201884419Y-100822910D01*
X201898669Y-100803697D01*
X201914733Y-100785973D01*
X201932457Y-100769909D01*
X201951670Y-100755659D01*
X201972187Y-100743362D01*
X201993811Y-100733134D01*
X202016333Y-100725076D01*
X202039537Y-100719264D01*
X202063198Y-100715754D01*
X202087090Y-100714580D01*
X202574590Y-100714580D01*
X202598482Y-100715754D01*
G37*
G36*
X204473482Y-100715754D02*
G01*
X204497143Y-100719264D01*
X204520347Y-100725076D01*
X204542869Y-100733134D01*
X204564493Y-100743362D01*
X204585010Y-100755659D01*
X204604223Y-100769909D01*
X204621947Y-100785973D01*
X204638011Y-100803697D01*
X204652261Y-100822910D01*
X204664558Y-100843427D01*
X204674786Y-100865051D01*
X204682844Y-100887573D01*
X204688656Y-100910777D01*
X204692166Y-100934438D01*
X204693340Y-100958330D01*
X204693340Y-101870830D01*
X204692166Y-101894722D01*
X204688656Y-101918383D01*
X204682844Y-101941587D01*
X204674786Y-101964109D01*
X204664558Y-101985733D01*
X204652261Y-102006250D01*
X204638011Y-102025463D01*
X204621947Y-102043187D01*
X204604223Y-102059251D01*
X204585010Y-102073501D01*
X204564493Y-102085798D01*
X204542869Y-102096026D01*
X204520347Y-102104084D01*
X204497143Y-102109896D01*
X204473482Y-102113406D01*
X204449590Y-102114580D01*
X203962090Y-102114580D01*
X203938198Y-102113406D01*
X203914537Y-102109896D01*
X203891333Y-102104084D01*
X203868811Y-102096026D01*
X203847187Y-102085798D01*
X203826670Y-102073501D01*
X203807457Y-102059251D01*
X203789733Y-102043187D01*
X203773669Y-102025463D01*
X203759419Y-102006250D01*
X203747122Y-101985733D01*
X203736894Y-101964109D01*
X203728836Y-101941587D01*
X203723024Y-101918383D01*
X203719514Y-101894722D01*
X203718340Y-101870830D01*
X203718340Y-100958330D01*
X203719514Y-100934438D01*
X203723024Y-100910777D01*
X203728836Y-100887573D01*
X203736894Y-100865051D01*
X203747122Y-100843427D01*
X203759419Y-100822910D01*
X203773669Y-100803697D01*
X203789733Y-100785973D01*
X203807457Y-100769909D01*
X203826670Y-100755659D01*
X203847187Y-100743362D01*
X203868811Y-100733134D01*
X203891333Y-100725076D01*
X203914537Y-100719264D01*
X203938198Y-100715754D01*
X203962090Y-100714580D01*
X204449590Y-100714580D01*
X204473482Y-100715754D01*
G37*
G36*
X181798662Y-99991854D02*
G01*
X181822323Y-99995364D01*
X181845527Y-100001176D01*
X181868049Y-100009234D01*
X181889673Y-100019462D01*
X181910190Y-100031759D01*
X181929403Y-100046009D01*
X181947127Y-100062073D01*
X181963191Y-100079797D01*
X181977441Y-100099010D01*
X181989738Y-100119527D01*
X181999966Y-100141151D01*
X182008024Y-100163673D01*
X182013836Y-100186877D01*
X182017346Y-100210538D01*
X182018520Y-100234430D01*
X182018520Y-101146930D01*
X182017346Y-101170822D01*
X182013836Y-101194483D01*
X182008024Y-101217687D01*
X181999966Y-101240209D01*
X181989738Y-101261833D01*
X181977441Y-101282350D01*
X181963191Y-101301563D01*
X181947127Y-101319287D01*
X181929403Y-101335351D01*
X181910190Y-101349601D01*
X181889673Y-101361898D01*
X181868049Y-101372126D01*
X181845527Y-101380184D01*
X181822323Y-101385996D01*
X181798662Y-101389506D01*
X181774770Y-101390680D01*
X181287270Y-101390680D01*
X181263378Y-101389506D01*
X181239717Y-101385996D01*
X181216513Y-101380184D01*
X181193991Y-101372126D01*
X181172367Y-101361898D01*
X181151850Y-101349601D01*
X181132637Y-101335351D01*
X181114913Y-101319287D01*
X181098849Y-101301563D01*
X181084599Y-101282350D01*
X181072302Y-101261833D01*
X181062074Y-101240209D01*
X181054016Y-101217687D01*
X181048204Y-101194483D01*
X181044694Y-101170822D01*
X181043520Y-101146930D01*
X181043520Y-100234430D01*
X181044694Y-100210538D01*
X181048204Y-100186877D01*
X181054016Y-100163673D01*
X181062074Y-100141151D01*
X181072302Y-100119527D01*
X181084599Y-100099010D01*
X181098849Y-100079797D01*
X181114913Y-100062073D01*
X181132637Y-100046009D01*
X181151850Y-100031759D01*
X181172367Y-100019462D01*
X181193991Y-100009234D01*
X181216513Y-100001176D01*
X181239717Y-99995364D01*
X181263378Y-99991854D01*
X181287270Y-99990680D01*
X181774770Y-99990680D01*
X181798662Y-99991854D01*
G37*
G36*
X183673662Y-99991854D02*
G01*
X183697323Y-99995364D01*
X183720527Y-100001176D01*
X183743049Y-100009234D01*
X183764673Y-100019462D01*
X183785190Y-100031759D01*
X183804403Y-100046009D01*
X183822127Y-100062073D01*
X183838191Y-100079797D01*
X183852441Y-100099010D01*
X183864738Y-100119527D01*
X183874966Y-100141151D01*
X183883024Y-100163673D01*
X183888836Y-100186877D01*
X183892346Y-100210538D01*
X183893520Y-100234430D01*
X183893520Y-101146930D01*
X183892346Y-101170822D01*
X183888836Y-101194483D01*
X183883024Y-101217687D01*
X183874966Y-101240209D01*
X183864738Y-101261833D01*
X183852441Y-101282350D01*
X183838191Y-101301563D01*
X183822127Y-101319287D01*
X183804403Y-101335351D01*
X183785190Y-101349601D01*
X183764673Y-101361898D01*
X183743049Y-101372126D01*
X183720527Y-101380184D01*
X183697323Y-101385996D01*
X183673662Y-101389506D01*
X183649770Y-101390680D01*
X183162270Y-101390680D01*
X183138378Y-101389506D01*
X183114717Y-101385996D01*
X183091513Y-101380184D01*
X183068991Y-101372126D01*
X183047367Y-101361898D01*
X183026850Y-101349601D01*
X183007637Y-101335351D01*
X182989913Y-101319287D01*
X182973849Y-101301563D01*
X182959599Y-101282350D01*
X182947302Y-101261833D01*
X182937074Y-101240209D01*
X182929016Y-101217687D01*
X182923204Y-101194483D01*
X182919694Y-101170822D01*
X182918520Y-101146930D01*
X182918520Y-100234430D01*
X182919694Y-100210538D01*
X182923204Y-100186877D01*
X182929016Y-100163673D01*
X182937074Y-100141151D01*
X182947302Y-100119527D01*
X182959599Y-100099010D01*
X182973849Y-100079797D01*
X182989913Y-100062073D01*
X183007637Y-100046009D01*
X183026850Y-100031759D01*
X183047367Y-100019462D01*
X183068991Y-100009234D01*
X183091513Y-100001176D01*
X183114717Y-99995364D01*
X183138378Y-99991854D01*
X183162270Y-99990680D01*
X183649770Y-99990680D01*
X183673662Y-99991854D01*
G37*
G36*
X181803502Y-97802374D02*
G01*
X181827163Y-97805884D01*
X181850367Y-97811696D01*
X181872889Y-97819754D01*
X181894513Y-97829982D01*
X181915030Y-97842279D01*
X181934243Y-97856529D01*
X181951967Y-97872593D01*
X181968031Y-97890317D01*
X181982281Y-97909530D01*
X181994578Y-97930047D01*
X182004806Y-97951671D01*
X182012864Y-97974193D01*
X182018676Y-97997397D01*
X182022186Y-98021058D01*
X182023360Y-98044950D01*
X182023360Y-98957450D01*
X182022186Y-98981342D01*
X182018676Y-99005003D01*
X182012864Y-99028207D01*
X182004806Y-99050729D01*
X181994578Y-99072353D01*
X181982281Y-99092870D01*
X181968031Y-99112083D01*
X181951967Y-99129807D01*
X181934243Y-99145871D01*
X181915030Y-99160121D01*
X181894513Y-99172418D01*
X181872889Y-99182646D01*
X181850367Y-99190704D01*
X181827163Y-99196516D01*
X181803502Y-99200026D01*
X181779610Y-99201200D01*
X181292110Y-99201200D01*
X181268218Y-99200026D01*
X181244557Y-99196516D01*
X181221353Y-99190704D01*
X181198831Y-99182646D01*
X181177207Y-99172418D01*
X181156690Y-99160121D01*
X181137477Y-99145871D01*
X181119753Y-99129807D01*
X181103689Y-99112083D01*
X181089439Y-99092870D01*
X181077142Y-99072353D01*
X181066914Y-99050729D01*
X181058856Y-99028207D01*
X181053044Y-99005003D01*
X181049534Y-98981342D01*
X181048360Y-98957450D01*
X181048360Y-98044950D01*
X181049534Y-98021058D01*
X181053044Y-97997397D01*
X181058856Y-97974193D01*
X181066914Y-97951671D01*
X181077142Y-97930047D01*
X181089439Y-97909530D01*
X181103689Y-97890317D01*
X181119753Y-97872593D01*
X181137477Y-97856529D01*
X181156690Y-97842279D01*
X181177207Y-97829982D01*
X181198831Y-97819754D01*
X181221353Y-97811696D01*
X181244557Y-97805884D01*
X181268218Y-97802374D01*
X181292110Y-97801200D01*
X181779610Y-97801200D01*
X181803502Y-97802374D01*
G37*
G36*
X183678502Y-97802374D02*
G01*
X183702163Y-97805884D01*
X183725367Y-97811696D01*
X183747889Y-97819754D01*
X183769513Y-97829982D01*
X183790030Y-97842279D01*
X183809243Y-97856529D01*
X183826967Y-97872593D01*
X183843031Y-97890317D01*
X183857281Y-97909530D01*
X183869578Y-97930047D01*
X183879806Y-97951671D01*
X183887864Y-97974193D01*
X183893676Y-97997397D01*
X183897186Y-98021058D01*
X183898360Y-98044950D01*
X183898360Y-98957450D01*
X183897186Y-98981342D01*
X183893676Y-99005003D01*
X183887864Y-99028207D01*
X183879806Y-99050729D01*
X183869578Y-99072353D01*
X183857281Y-99092870D01*
X183843031Y-99112083D01*
X183826967Y-99129807D01*
X183809243Y-99145871D01*
X183790030Y-99160121D01*
X183769513Y-99172418D01*
X183747889Y-99182646D01*
X183725367Y-99190704D01*
X183702163Y-99196516D01*
X183678502Y-99200026D01*
X183654610Y-99201200D01*
X183167110Y-99201200D01*
X183143218Y-99200026D01*
X183119557Y-99196516D01*
X183096353Y-99190704D01*
X183073831Y-99182646D01*
X183052207Y-99172418D01*
X183031690Y-99160121D01*
X183012477Y-99145871D01*
X182994753Y-99129807D01*
X182978689Y-99112083D01*
X182964439Y-99092870D01*
X182952142Y-99072353D01*
X182941914Y-99050729D01*
X182933856Y-99028207D01*
X182928044Y-99005003D01*
X182924534Y-98981342D01*
X182923360Y-98957450D01*
X182923360Y-98044950D01*
X182924534Y-98021058D01*
X182928044Y-97997397D01*
X182933856Y-97974193D01*
X182941914Y-97951671D01*
X182952142Y-97930047D01*
X182964439Y-97909530D01*
X182978689Y-97890317D01*
X182994753Y-97872593D01*
X183012477Y-97856529D01*
X183031690Y-97842279D01*
X183052207Y-97829982D01*
X183073831Y-97819754D01*
X183096353Y-97811696D01*
X183119557Y-97805884D01*
X183143218Y-97802374D01*
X183167110Y-97801200D01*
X183654610Y-97801200D01*
X183678502Y-97802374D01*
G37*
G36*
X175770622Y-117634074D02*
G01*
X175794283Y-117637584D01*
X175817487Y-117643396D01*
X175840009Y-117651454D01*
X175861633Y-117661682D01*
X175882150Y-117673979D01*
X175901363Y-117688229D01*
X175919087Y-117704293D01*
X175935151Y-117722017D01*
X175949401Y-117741230D01*
X175961698Y-117761747D01*
X175971926Y-117783371D01*
X175979984Y-117805893D01*
X175985796Y-117829097D01*
X175989306Y-117852758D01*
X175990480Y-117876650D01*
X175990480Y-118364150D01*
X175989306Y-118388042D01*
X175985796Y-118411703D01*
X175979984Y-118434907D01*
X175971926Y-118457429D01*
X175961698Y-118479053D01*
X175949401Y-118499570D01*
X175935151Y-118518783D01*
X175919087Y-118536507D01*
X175901363Y-118552571D01*
X175882150Y-118566821D01*
X175861633Y-118579118D01*
X175840009Y-118589346D01*
X175817487Y-118597404D01*
X175794283Y-118603216D01*
X175770622Y-118606726D01*
X175746730Y-118607900D01*
X174834230Y-118607900D01*
X174810338Y-118606726D01*
X174786677Y-118603216D01*
X174763473Y-118597404D01*
X174740951Y-118589346D01*
X174719327Y-118579118D01*
X174698810Y-118566821D01*
X174679597Y-118552571D01*
X174661873Y-118536507D01*
X174645809Y-118518783D01*
X174631559Y-118499570D01*
X174619262Y-118479053D01*
X174609034Y-118457429D01*
X174600976Y-118434907D01*
X174595164Y-118411703D01*
X174591654Y-118388042D01*
X174590480Y-118364150D01*
X174590480Y-117876650D01*
X174591654Y-117852758D01*
X174595164Y-117829097D01*
X174600976Y-117805893D01*
X174609034Y-117783371D01*
X174619262Y-117761747D01*
X174631559Y-117741230D01*
X174645809Y-117722017D01*
X174661873Y-117704293D01*
X174679597Y-117688229D01*
X174698810Y-117673979D01*
X174719327Y-117661682D01*
X174740951Y-117651454D01*
X174763473Y-117643396D01*
X174786677Y-117637584D01*
X174810338Y-117634074D01*
X174834230Y-117632900D01*
X175746730Y-117632900D01*
X175770622Y-117634074D01*
G37*
G36*
X175770622Y-115759074D02*
G01*
X175794283Y-115762584D01*
X175817487Y-115768396D01*
X175840009Y-115776454D01*
X175861633Y-115786682D01*
X175882150Y-115798979D01*
X175901363Y-115813229D01*
X175919087Y-115829293D01*
X175935151Y-115847017D01*
X175949401Y-115866230D01*
X175961698Y-115886747D01*
X175971926Y-115908371D01*
X175979984Y-115930893D01*
X175985796Y-115954097D01*
X175989306Y-115977758D01*
X175990480Y-116001650D01*
X175990480Y-116489150D01*
X175989306Y-116513042D01*
X175985796Y-116536703D01*
X175979984Y-116559907D01*
X175971926Y-116582429D01*
X175961698Y-116604053D01*
X175949401Y-116624570D01*
X175935151Y-116643783D01*
X175919087Y-116661507D01*
X175901363Y-116677571D01*
X175882150Y-116691821D01*
X175861633Y-116704118D01*
X175840009Y-116714346D01*
X175817487Y-116722404D01*
X175794283Y-116728216D01*
X175770622Y-116731726D01*
X175746730Y-116732900D01*
X174834230Y-116732900D01*
X174810338Y-116731726D01*
X174786677Y-116728216D01*
X174763473Y-116722404D01*
X174740951Y-116714346D01*
X174719327Y-116704118D01*
X174698810Y-116691821D01*
X174679597Y-116677571D01*
X174661873Y-116661507D01*
X174645809Y-116643783D01*
X174631559Y-116624570D01*
X174619262Y-116604053D01*
X174609034Y-116582429D01*
X174600976Y-116559907D01*
X174595164Y-116536703D01*
X174591654Y-116513042D01*
X174590480Y-116489150D01*
X174590480Y-116001650D01*
X174591654Y-115977758D01*
X174595164Y-115954097D01*
X174600976Y-115930893D01*
X174609034Y-115908371D01*
X174619262Y-115886747D01*
X174631559Y-115866230D01*
X174645809Y-115847017D01*
X174661873Y-115829293D01*
X174679597Y-115813229D01*
X174698810Y-115798979D01*
X174719327Y-115786682D01*
X174740951Y-115776454D01*
X174763473Y-115768396D01*
X174786677Y-115762584D01*
X174810338Y-115759074D01*
X174834230Y-115757900D01*
X175746730Y-115757900D01*
X175770622Y-115759074D01*
G37*
G36*
X229448442Y-47984494D02*
G01*
X229472103Y-47988004D01*
X229495307Y-47993816D01*
X229517829Y-48001874D01*
X229539453Y-48012102D01*
X229559970Y-48024399D01*
X229579183Y-48038649D01*
X229596907Y-48054713D01*
X229612971Y-48072437D01*
X229627221Y-48091650D01*
X229639518Y-48112167D01*
X229649746Y-48133791D01*
X229657804Y-48156313D01*
X229663616Y-48179517D01*
X229667126Y-48203178D01*
X229668300Y-48227070D01*
X229668300Y-48714570D01*
X229667126Y-48738462D01*
X229663616Y-48762123D01*
X229657804Y-48785327D01*
X229649746Y-48807849D01*
X229639518Y-48829473D01*
X229627221Y-48849990D01*
X229612971Y-48869203D01*
X229596907Y-48886927D01*
X229579183Y-48902991D01*
X229559970Y-48917241D01*
X229539453Y-48929538D01*
X229517829Y-48939766D01*
X229495307Y-48947824D01*
X229472103Y-48953636D01*
X229448442Y-48957146D01*
X229424550Y-48958320D01*
X228512050Y-48958320D01*
X228488158Y-48957146D01*
X228464497Y-48953636D01*
X228441293Y-48947824D01*
X228418771Y-48939766D01*
X228397147Y-48929538D01*
X228376630Y-48917241D01*
X228357417Y-48902991D01*
X228339693Y-48886927D01*
X228323629Y-48869203D01*
X228309379Y-48849990D01*
X228297082Y-48829473D01*
X228286854Y-48807849D01*
X228278796Y-48785327D01*
X228272984Y-48762123D01*
X228269474Y-48738462D01*
X228268300Y-48714570D01*
X228268300Y-48227070D01*
X228269474Y-48203178D01*
X228272984Y-48179517D01*
X228278796Y-48156313D01*
X228286854Y-48133791D01*
X228297082Y-48112167D01*
X228309379Y-48091650D01*
X228323629Y-48072437D01*
X228339693Y-48054713D01*
X228357417Y-48038649D01*
X228376630Y-48024399D01*
X228397147Y-48012102D01*
X228418771Y-48001874D01*
X228441293Y-47993816D01*
X228464497Y-47988004D01*
X228488158Y-47984494D01*
X228512050Y-47983320D01*
X229424550Y-47983320D01*
X229448442Y-47984494D01*
G37*
G36*
X229448442Y-49859494D02*
G01*
X229472103Y-49863004D01*
X229495307Y-49868816D01*
X229517829Y-49876874D01*
X229539453Y-49887102D01*
X229559970Y-49899399D01*
X229579183Y-49913649D01*
X229596907Y-49929713D01*
X229612971Y-49947437D01*
X229627221Y-49966650D01*
X229639518Y-49987167D01*
X229649746Y-50008791D01*
X229657804Y-50031313D01*
X229663616Y-50054517D01*
X229667126Y-50078178D01*
X229668300Y-50102070D01*
X229668300Y-50589570D01*
X229667126Y-50613462D01*
X229663616Y-50637123D01*
X229657804Y-50660327D01*
X229649746Y-50682849D01*
X229639518Y-50704473D01*
X229627221Y-50724990D01*
X229612971Y-50744203D01*
X229596907Y-50761927D01*
X229579183Y-50777991D01*
X229559970Y-50792241D01*
X229539453Y-50804538D01*
X229517829Y-50814766D01*
X229495307Y-50822824D01*
X229472103Y-50828636D01*
X229448442Y-50832146D01*
X229424550Y-50833320D01*
X228512050Y-50833320D01*
X228488158Y-50832146D01*
X228464497Y-50828636D01*
X228441293Y-50822824D01*
X228418771Y-50814766D01*
X228397147Y-50804538D01*
X228376630Y-50792241D01*
X228357417Y-50777991D01*
X228339693Y-50761927D01*
X228323629Y-50744203D01*
X228309379Y-50724990D01*
X228297082Y-50704473D01*
X228286854Y-50682849D01*
X228278796Y-50660327D01*
X228272984Y-50637123D01*
X228269474Y-50613462D01*
X228268300Y-50589570D01*
X228268300Y-50102070D01*
X228269474Y-50078178D01*
X228272984Y-50054517D01*
X228278796Y-50031313D01*
X228286854Y-50008791D01*
X228297082Y-49987167D01*
X228309379Y-49966650D01*
X228323629Y-49947437D01*
X228339693Y-49929713D01*
X228357417Y-49913649D01*
X228376630Y-49899399D01*
X228397147Y-49887102D01*
X228418771Y-49876874D01*
X228441293Y-49868816D01*
X228464497Y-49863004D01*
X228488158Y-49859494D01*
X228512050Y-49858320D01*
X229424550Y-49858320D01*
X229448442Y-49859494D01*
G37*
G36*
X175764985Y-119428504D02*
G01*
X175789253Y-119432104D01*
X175813052Y-119438065D01*
X175836151Y-119446330D01*
X175858330Y-119456820D01*
X175879373Y-119469432D01*
X175899079Y-119484047D01*
X175917257Y-119500523D01*
X175933733Y-119518701D01*
X175948348Y-119538407D01*
X175960960Y-119559450D01*
X175971450Y-119581629D01*
X175979715Y-119604728D01*
X175985676Y-119628527D01*
X175989276Y-119652795D01*
X175990480Y-119677299D01*
X175990480Y-120327301D01*
X175989276Y-120351805D01*
X175985676Y-120376073D01*
X175979715Y-120399872D01*
X175971450Y-120422971D01*
X175960960Y-120445150D01*
X175948348Y-120466193D01*
X175933733Y-120485899D01*
X175917257Y-120504077D01*
X175899079Y-120520553D01*
X175879373Y-120535168D01*
X175858330Y-120547780D01*
X175836151Y-120558270D01*
X175813052Y-120566535D01*
X175789253Y-120572496D01*
X175764985Y-120576096D01*
X175740481Y-120577300D01*
X174840479Y-120577300D01*
X174815975Y-120576096D01*
X174791707Y-120572496D01*
X174767908Y-120566535D01*
X174744809Y-120558270D01*
X174722630Y-120547780D01*
X174701587Y-120535168D01*
X174681881Y-120520553D01*
X174663703Y-120504077D01*
X174647227Y-120485899D01*
X174632612Y-120466193D01*
X174620000Y-120445150D01*
X174609510Y-120422971D01*
X174601245Y-120399872D01*
X174595284Y-120376073D01*
X174591684Y-120351805D01*
X174590480Y-120327301D01*
X174590480Y-119677299D01*
X174591684Y-119652795D01*
X174595284Y-119628527D01*
X174601245Y-119604728D01*
X174609510Y-119581629D01*
X174620000Y-119559450D01*
X174632612Y-119538407D01*
X174647227Y-119518701D01*
X174663703Y-119500523D01*
X174681881Y-119484047D01*
X174701587Y-119469432D01*
X174722630Y-119456820D01*
X174744809Y-119446330D01*
X174767908Y-119438065D01*
X174791707Y-119432104D01*
X174815975Y-119428504D01*
X174840479Y-119427300D01*
X175740481Y-119427300D01*
X175764985Y-119428504D01*
G37*
G36*
X175764985Y-121478504D02*
G01*
X175789253Y-121482104D01*
X175813052Y-121488065D01*
X175836151Y-121496330D01*
X175858330Y-121506820D01*
X175879373Y-121519432D01*
X175899079Y-121534047D01*
X175917257Y-121550523D01*
X175933733Y-121568701D01*
X175948348Y-121588407D01*
X175960960Y-121609450D01*
X175971450Y-121631629D01*
X175979715Y-121654728D01*
X175985676Y-121678527D01*
X175989276Y-121702795D01*
X175990480Y-121727299D01*
X175990480Y-122377301D01*
X175989276Y-122401805D01*
X175985676Y-122426073D01*
X175979715Y-122449872D01*
X175971450Y-122472971D01*
X175960960Y-122495150D01*
X175948348Y-122516193D01*
X175933733Y-122535899D01*
X175917257Y-122554077D01*
X175899079Y-122570553D01*
X175879373Y-122585168D01*
X175858330Y-122597780D01*
X175836151Y-122608270D01*
X175813052Y-122616535D01*
X175789253Y-122622496D01*
X175764985Y-122626096D01*
X175740481Y-122627300D01*
X174840479Y-122627300D01*
X174815975Y-122626096D01*
X174791707Y-122622496D01*
X174767908Y-122616535D01*
X174744809Y-122608270D01*
X174722630Y-122597780D01*
X174701587Y-122585168D01*
X174681881Y-122570553D01*
X174663703Y-122554077D01*
X174647227Y-122535899D01*
X174632612Y-122516193D01*
X174620000Y-122495150D01*
X174609510Y-122472971D01*
X174601245Y-122449872D01*
X174595284Y-122426073D01*
X174591684Y-122401805D01*
X174590480Y-122377301D01*
X174590480Y-121727299D01*
X174591684Y-121702795D01*
X174595284Y-121678527D01*
X174601245Y-121654728D01*
X174609510Y-121631629D01*
X174620000Y-121609450D01*
X174632612Y-121588407D01*
X174647227Y-121568701D01*
X174663703Y-121550523D01*
X174681881Y-121534047D01*
X174701587Y-121519432D01*
X174722630Y-121506820D01*
X174744809Y-121496330D01*
X174767908Y-121488065D01*
X174791707Y-121482104D01*
X174815975Y-121478504D01*
X174840479Y-121477300D01*
X175740481Y-121477300D01*
X175764985Y-121478504D01*
G37*
G36*
X173372305Y-119423204D02*
G01*
X173396573Y-119426804D01*
X173420372Y-119432765D01*
X173443471Y-119441030D01*
X173465650Y-119451520D01*
X173486693Y-119464132D01*
X173506399Y-119478747D01*
X173524577Y-119495223D01*
X173541053Y-119513401D01*
X173555668Y-119533107D01*
X173568280Y-119554150D01*
X173578770Y-119576329D01*
X173587035Y-119599428D01*
X173592996Y-119623227D01*
X173596596Y-119647495D01*
X173597800Y-119671999D01*
X173597800Y-120322001D01*
X173596596Y-120346505D01*
X173592996Y-120370773D01*
X173587035Y-120394572D01*
X173578770Y-120417671D01*
X173568280Y-120439850D01*
X173555668Y-120460893D01*
X173541053Y-120480599D01*
X173524577Y-120498777D01*
X173506399Y-120515253D01*
X173486693Y-120529868D01*
X173465650Y-120542480D01*
X173443471Y-120552970D01*
X173420372Y-120561235D01*
X173396573Y-120567196D01*
X173372305Y-120570796D01*
X173347801Y-120572000D01*
X172447799Y-120572000D01*
X172423295Y-120570796D01*
X172399027Y-120567196D01*
X172375228Y-120561235D01*
X172352129Y-120552970D01*
X172329950Y-120542480D01*
X172308907Y-120529868D01*
X172289201Y-120515253D01*
X172271023Y-120498777D01*
X172254547Y-120480599D01*
X172239932Y-120460893D01*
X172227320Y-120439850D01*
X172216830Y-120417671D01*
X172208565Y-120394572D01*
X172202604Y-120370773D01*
X172199004Y-120346505D01*
X172197800Y-120322001D01*
X172197800Y-119671999D01*
X172199004Y-119647495D01*
X172202604Y-119623227D01*
X172208565Y-119599428D01*
X172216830Y-119576329D01*
X172227320Y-119554150D01*
X172239932Y-119533107D01*
X172254547Y-119513401D01*
X172271023Y-119495223D01*
X172289201Y-119478747D01*
X172308907Y-119464132D01*
X172329950Y-119451520D01*
X172352129Y-119441030D01*
X172375228Y-119432765D01*
X172399027Y-119426804D01*
X172423295Y-119423204D01*
X172447799Y-119422000D01*
X173347801Y-119422000D01*
X173372305Y-119423204D01*
G37*
G36*
X173372305Y-121473204D02*
G01*
X173396573Y-121476804D01*
X173420372Y-121482765D01*
X173443471Y-121491030D01*
X173465650Y-121501520D01*
X173486693Y-121514132D01*
X173506399Y-121528747D01*
X173524577Y-121545223D01*
X173541053Y-121563401D01*
X173555668Y-121583107D01*
X173568280Y-121604150D01*
X173578770Y-121626329D01*
X173587035Y-121649428D01*
X173592996Y-121673227D01*
X173596596Y-121697495D01*
X173597800Y-121721999D01*
X173597800Y-122372001D01*
X173596596Y-122396505D01*
X173592996Y-122420773D01*
X173587035Y-122444572D01*
X173578770Y-122467671D01*
X173568280Y-122489850D01*
X173555668Y-122510893D01*
X173541053Y-122530599D01*
X173524577Y-122548777D01*
X173506399Y-122565253D01*
X173486693Y-122579868D01*
X173465650Y-122592480D01*
X173443471Y-122602970D01*
X173420372Y-122611235D01*
X173396573Y-122617196D01*
X173372305Y-122620796D01*
X173347801Y-122622000D01*
X172447799Y-122622000D01*
X172423295Y-122620796D01*
X172399027Y-122617196D01*
X172375228Y-122611235D01*
X172352129Y-122602970D01*
X172329950Y-122592480D01*
X172308907Y-122579868D01*
X172289201Y-122565253D01*
X172271023Y-122548777D01*
X172254547Y-122530599D01*
X172239932Y-122510893D01*
X172227320Y-122489850D01*
X172216830Y-122467671D01*
X172208565Y-122444572D01*
X172202604Y-122420773D01*
X172199004Y-122396505D01*
X172197800Y-122372001D01*
X172197800Y-121721999D01*
X172199004Y-121697495D01*
X172202604Y-121673227D01*
X172208565Y-121649428D01*
X172216830Y-121626329D01*
X172227320Y-121604150D01*
X172239932Y-121583107D01*
X172254547Y-121563401D01*
X172271023Y-121545223D01*
X172289201Y-121528747D01*
X172308907Y-121514132D01*
X172329950Y-121501520D01*
X172352129Y-121491030D01*
X172375228Y-121482765D01*
X172399027Y-121476804D01*
X172423295Y-121473204D01*
X172447799Y-121472000D01*
X173347801Y-121472000D01*
X173372305Y-121473204D01*
G37*
D14*
X229233800Y-111180880D03*
D10*
G36*
X229933800Y-109510880D02*
G01*
X229933800Y-110310880D01*
X228533800Y-110310880D01*
X228533800Y-109510880D01*
X229933800Y-109510880D01*
G37*
D14*
X229233800Y-108640880D03*
D10*
G36*
X229933800Y-106970880D02*
G01*
X229933800Y-107770880D01*
X228533800Y-107770880D01*
X228533800Y-106970880D01*
X229933800Y-106970880D01*
G37*
D14*
X229233800Y-106100880D03*
D10*
G36*
X229933800Y-104430880D02*
G01*
X229933800Y-105230880D01*
X228533800Y-105230880D01*
X228533800Y-104430880D01*
X229933800Y-104430880D01*
G37*
G36*
X229933800Y-103160880D02*
G01*
X229933800Y-103960880D01*
X228533800Y-103960880D01*
X228533800Y-103160880D01*
X229933800Y-103160880D01*
G37*
G36*
X229933800Y-101890880D02*
G01*
X229933800Y-102690880D01*
X228533800Y-102690880D01*
X228533800Y-101890880D01*
X229933800Y-101890880D01*
G37*
G36*
X223433800Y-101890880D02*
G01*
X223433800Y-102690880D01*
X222033800Y-102690880D01*
X222033800Y-101890880D01*
X223433800Y-101890880D01*
G37*
G36*
X223433800Y-103160880D02*
G01*
X223433800Y-103960880D01*
X222033800Y-103960880D01*
X222033800Y-103160880D01*
X223433800Y-103160880D01*
G37*
G36*
X223433800Y-104430880D02*
G01*
X223433800Y-105230880D01*
X222033800Y-105230880D01*
X222033800Y-104430880D01*
X223433800Y-104430880D01*
G37*
G36*
X223433800Y-105700880D02*
G01*
X223433800Y-106500880D01*
X222033800Y-106500880D01*
X222033800Y-105700880D01*
X223433800Y-105700880D01*
G37*
G36*
X223433800Y-106970880D02*
G01*
X223433800Y-107770880D01*
X222033800Y-107770880D01*
X222033800Y-106970880D01*
X223433800Y-106970880D01*
G37*
G36*
X223433800Y-108240880D02*
G01*
X223433800Y-109040880D01*
X222033800Y-109040880D01*
X222033800Y-108240880D01*
X223433800Y-108240880D01*
G37*
G36*
X223433800Y-109510880D02*
G01*
X223433800Y-110310880D01*
X222033800Y-110310880D01*
X222033800Y-109510880D01*
X223433800Y-109510880D01*
G37*
D14*
X222733800Y-111180880D03*
D10*
G36*
X156782800Y-105064400D02*
G01*
X158532800Y-105064400D01*
X158532800Y-106314400D01*
X156782800Y-106314400D01*
X156782800Y-105064400D01*
G37*
G36*
X156782800Y-107864400D02*
G01*
X158532800Y-107864400D01*
X158532800Y-109114400D01*
X156782800Y-109114400D01*
X156782800Y-107864400D01*
G37*
G36*
X160822400Y-108579400D02*
G01*
X159522400Y-108579400D01*
X159522400Y-107879400D01*
X160822400Y-107879400D01*
X160822400Y-108579400D01*
G37*
G36*
X160822400Y-106674400D02*
G01*
X159522400Y-106674400D01*
X159522400Y-105974400D01*
X160822400Y-105974400D01*
X160822400Y-106674400D01*
G37*
D12*
X227412800Y-121478000D03*
X227412800Y-123378000D03*
X229412800Y-122428000D03*
X233172000Y-122428000D03*
X231172000Y-123378000D03*
X231172000Y-121478000D03*
X235236000Y-121478000D03*
X235236000Y-123378000D03*
X237236000Y-122428000D03*
D10*
G36*
X233296542Y-117217274D02*
G01*
X233320203Y-117220784D01*
X233343407Y-117226596D01*
X233365929Y-117234654D01*
X233387553Y-117244882D01*
X233408070Y-117257179D01*
X233427283Y-117271429D01*
X233445007Y-117287493D01*
X233461071Y-117305217D01*
X233475321Y-117324430D01*
X233487618Y-117344947D01*
X233497846Y-117366571D01*
X233505904Y-117389093D01*
X233511716Y-117412297D01*
X233515226Y-117435958D01*
X233516400Y-117459850D01*
X233516400Y-117947350D01*
X233515226Y-117971242D01*
X233511716Y-117994903D01*
X233505904Y-118018107D01*
X233497846Y-118040629D01*
X233487618Y-118062253D01*
X233475321Y-118082770D01*
X233461071Y-118101983D01*
X233445007Y-118119707D01*
X233427283Y-118135771D01*
X233408070Y-118150021D01*
X233387553Y-118162318D01*
X233365929Y-118172546D01*
X233343407Y-118180604D01*
X233320203Y-118186416D01*
X233296542Y-118189926D01*
X233272650Y-118191100D01*
X232360150Y-118191100D01*
X232336258Y-118189926D01*
X232312597Y-118186416D01*
X232289393Y-118180604D01*
X232266871Y-118172546D01*
X232245247Y-118162318D01*
X232224730Y-118150021D01*
X232205517Y-118135771D01*
X232187793Y-118119707D01*
X232171729Y-118101983D01*
X232157479Y-118082770D01*
X232145182Y-118062253D01*
X232134954Y-118040629D01*
X232126896Y-118018107D01*
X232121084Y-117994903D01*
X232117574Y-117971242D01*
X232116400Y-117947350D01*
X232116400Y-117459850D01*
X232117574Y-117435958D01*
X232121084Y-117412297D01*
X232126896Y-117389093D01*
X232134954Y-117366571D01*
X232145182Y-117344947D01*
X232157479Y-117324430D01*
X232171729Y-117305217D01*
X232187793Y-117287493D01*
X232205517Y-117271429D01*
X232224730Y-117257179D01*
X232245247Y-117244882D01*
X232266871Y-117234654D01*
X232289393Y-117226596D01*
X232312597Y-117220784D01*
X232336258Y-117217274D01*
X232360150Y-117216100D01*
X233272650Y-117216100D01*
X233296542Y-117217274D01*
G37*
G36*
X233296542Y-119092274D02*
G01*
X233320203Y-119095784D01*
X233343407Y-119101596D01*
X233365929Y-119109654D01*
X233387553Y-119119882D01*
X233408070Y-119132179D01*
X233427283Y-119146429D01*
X233445007Y-119162493D01*
X233461071Y-119180217D01*
X233475321Y-119199430D01*
X233487618Y-119219947D01*
X233497846Y-119241571D01*
X233505904Y-119264093D01*
X233511716Y-119287297D01*
X233515226Y-119310958D01*
X233516400Y-119334850D01*
X233516400Y-119822350D01*
X233515226Y-119846242D01*
X233511716Y-119869903D01*
X233505904Y-119893107D01*
X233497846Y-119915629D01*
X233487618Y-119937253D01*
X233475321Y-119957770D01*
X233461071Y-119976983D01*
X233445007Y-119994707D01*
X233427283Y-120010771D01*
X233408070Y-120025021D01*
X233387553Y-120037318D01*
X233365929Y-120047546D01*
X233343407Y-120055604D01*
X233320203Y-120061416D01*
X233296542Y-120064926D01*
X233272650Y-120066100D01*
X232360150Y-120066100D01*
X232336258Y-120064926D01*
X232312597Y-120061416D01*
X232289393Y-120055604D01*
X232266871Y-120047546D01*
X232245247Y-120037318D01*
X232224730Y-120025021D01*
X232205517Y-120010771D01*
X232187793Y-119994707D01*
X232171729Y-119976983D01*
X232157479Y-119957770D01*
X232145182Y-119937253D01*
X232134954Y-119915629D01*
X232126896Y-119893107D01*
X232121084Y-119869903D01*
X232117574Y-119846242D01*
X232116400Y-119822350D01*
X232116400Y-119334850D01*
X232117574Y-119310958D01*
X232121084Y-119287297D01*
X232126896Y-119264093D01*
X232134954Y-119241571D01*
X232145182Y-119219947D01*
X232157479Y-119199430D01*
X232171729Y-119180217D01*
X232187793Y-119162493D01*
X232205517Y-119146429D01*
X232224730Y-119132179D01*
X232245247Y-119119882D01*
X232266871Y-119109654D01*
X232289393Y-119101596D01*
X232312597Y-119095784D01*
X232336258Y-119092274D01*
X232360150Y-119091100D01*
X233272650Y-119091100D01*
X233296542Y-119092274D01*
G37*
G36*
X235328542Y-119092274D02*
G01*
X235352203Y-119095784D01*
X235375407Y-119101596D01*
X235397929Y-119109654D01*
X235419553Y-119119882D01*
X235440070Y-119132179D01*
X235459283Y-119146429D01*
X235477007Y-119162493D01*
X235493071Y-119180217D01*
X235507321Y-119199430D01*
X235519618Y-119219947D01*
X235529846Y-119241571D01*
X235537904Y-119264093D01*
X235543716Y-119287297D01*
X235547226Y-119310958D01*
X235548400Y-119334850D01*
X235548400Y-119822350D01*
X235547226Y-119846242D01*
X235543716Y-119869903D01*
X235537904Y-119893107D01*
X235529846Y-119915629D01*
X235519618Y-119937253D01*
X235507321Y-119957770D01*
X235493071Y-119976983D01*
X235477007Y-119994707D01*
X235459283Y-120010771D01*
X235440070Y-120025021D01*
X235419553Y-120037318D01*
X235397929Y-120047546D01*
X235375407Y-120055604D01*
X235352203Y-120061416D01*
X235328542Y-120064926D01*
X235304650Y-120066100D01*
X234392150Y-120066100D01*
X234368258Y-120064926D01*
X234344597Y-120061416D01*
X234321393Y-120055604D01*
X234298871Y-120047546D01*
X234277247Y-120037318D01*
X234256730Y-120025021D01*
X234237517Y-120010771D01*
X234219793Y-119994707D01*
X234203729Y-119976983D01*
X234189479Y-119957770D01*
X234177182Y-119937253D01*
X234166954Y-119915629D01*
X234158896Y-119893107D01*
X234153084Y-119869903D01*
X234149574Y-119846242D01*
X234148400Y-119822350D01*
X234148400Y-119334850D01*
X234149574Y-119310958D01*
X234153084Y-119287297D01*
X234158896Y-119264093D01*
X234166954Y-119241571D01*
X234177182Y-119219947D01*
X234189479Y-119199430D01*
X234203729Y-119180217D01*
X234219793Y-119162493D01*
X234237517Y-119146429D01*
X234256730Y-119132179D01*
X234277247Y-119119882D01*
X234298871Y-119109654D01*
X234321393Y-119101596D01*
X234344597Y-119095784D01*
X234368258Y-119092274D01*
X234392150Y-119091100D01*
X235304650Y-119091100D01*
X235328542Y-119092274D01*
G37*
G36*
X235328542Y-117217274D02*
G01*
X235352203Y-117220784D01*
X235375407Y-117226596D01*
X235397929Y-117234654D01*
X235419553Y-117244882D01*
X235440070Y-117257179D01*
X235459283Y-117271429D01*
X235477007Y-117287493D01*
X235493071Y-117305217D01*
X235507321Y-117324430D01*
X235519618Y-117344947D01*
X235529846Y-117366571D01*
X235537904Y-117389093D01*
X235543716Y-117412297D01*
X235547226Y-117435958D01*
X235548400Y-117459850D01*
X235548400Y-117947350D01*
X235547226Y-117971242D01*
X235543716Y-117994903D01*
X235537904Y-118018107D01*
X235529846Y-118040629D01*
X235519618Y-118062253D01*
X235507321Y-118082770D01*
X235493071Y-118101983D01*
X235477007Y-118119707D01*
X235459283Y-118135771D01*
X235440070Y-118150021D01*
X235419553Y-118162318D01*
X235397929Y-118172546D01*
X235375407Y-118180604D01*
X235352203Y-118186416D01*
X235328542Y-118189926D01*
X235304650Y-118191100D01*
X234392150Y-118191100D01*
X234368258Y-118189926D01*
X234344597Y-118186416D01*
X234321393Y-118180604D01*
X234298871Y-118172546D01*
X234277247Y-118162318D01*
X234256730Y-118150021D01*
X234237517Y-118135771D01*
X234219793Y-118119707D01*
X234203729Y-118101983D01*
X234189479Y-118082770D01*
X234177182Y-118062253D01*
X234166954Y-118040629D01*
X234158896Y-118018107D01*
X234153084Y-117994903D01*
X234149574Y-117971242D01*
X234148400Y-117947350D01*
X234148400Y-117459850D01*
X234149574Y-117435958D01*
X234153084Y-117412297D01*
X234158896Y-117389093D01*
X234166954Y-117366571D01*
X234177182Y-117344947D01*
X234189479Y-117324430D01*
X234203729Y-117305217D01*
X234219793Y-117287493D01*
X234237517Y-117271429D01*
X234256730Y-117257179D01*
X234277247Y-117244882D01*
X234298871Y-117234654D01*
X234321393Y-117226596D01*
X234344597Y-117220784D01*
X234368258Y-117217274D01*
X234392150Y-117216100D01*
X235304650Y-117216100D01*
X235328542Y-117217274D01*
G37*
G36*
X237716142Y-117217274D02*
G01*
X237739803Y-117220784D01*
X237763007Y-117226596D01*
X237785529Y-117234654D01*
X237807153Y-117244882D01*
X237827670Y-117257179D01*
X237846883Y-117271429D01*
X237864607Y-117287493D01*
X237880671Y-117305217D01*
X237894921Y-117324430D01*
X237907218Y-117344947D01*
X237917446Y-117366571D01*
X237925504Y-117389093D01*
X237931316Y-117412297D01*
X237934826Y-117435958D01*
X237936000Y-117459850D01*
X237936000Y-117947350D01*
X237934826Y-117971242D01*
X237931316Y-117994903D01*
X237925504Y-118018107D01*
X237917446Y-118040629D01*
X237907218Y-118062253D01*
X237894921Y-118082770D01*
X237880671Y-118101983D01*
X237864607Y-118119707D01*
X237846883Y-118135771D01*
X237827670Y-118150021D01*
X237807153Y-118162318D01*
X237785529Y-118172546D01*
X237763007Y-118180604D01*
X237739803Y-118186416D01*
X237716142Y-118189926D01*
X237692250Y-118191100D01*
X236779750Y-118191100D01*
X236755858Y-118189926D01*
X236732197Y-118186416D01*
X236708993Y-118180604D01*
X236686471Y-118172546D01*
X236664847Y-118162318D01*
X236644330Y-118150021D01*
X236625117Y-118135771D01*
X236607393Y-118119707D01*
X236591329Y-118101983D01*
X236577079Y-118082770D01*
X236564782Y-118062253D01*
X236554554Y-118040629D01*
X236546496Y-118018107D01*
X236540684Y-117994903D01*
X236537174Y-117971242D01*
X236536000Y-117947350D01*
X236536000Y-117459850D01*
X236537174Y-117435958D01*
X236540684Y-117412297D01*
X236546496Y-117389093D01*
X236554554Y-117366571D01*
X236564782Y-117344947D01*
X236577079Y-117324430D01*
X236591329Y-117305217D01*
X236607393Y-117287493D01*
X236625117Y-117271429D01*
X236644330Y-117257179D01*
X236664847Y-117244882D01*
X236686471Y-117234654D01*
X236708993Y-117226596D01*
X236732197Y-117220784D01*
X236755858Y-117217274D01*
X236779750Y-117216100D01*
X237692250Y-117216100D01*
X237716142Y-117217274D01*
G37*
G36*
X237716142Y-119092274D02*
G01*
X237739803Y-119095784D01*
X237763007Y-119101596D01*
X237785529Y-119109654D01*
X237807153Y-119119882D01*
X237827670Y-119132179D01*
X237846883Y-119146429D01*
X237864607Y-119162493D01*
X237880671Y-119180217D01*
X237894921Y-119199430D01*
X237907218Y-119219947D01*
X237917446Y-119241571D01*
X237925504Y-119264093D01*
X237931316Y-119287297D01*
X237934826Y-119310958D01*
X237936000Y-119334850D01*
X237936000Y-119822350D01*
X237934826Y-119846242D01*
X237931316Y-119869903D01*
X237925504Y-119893107D01*
X237917446Y-119915629D01*
X237907218Y-119937253D01*
X237894921Y-119957770D01*
X237880671Y-119976983D01*
X237864607Y-119994707D01*
X237846883Y-120010771D01*
X237827670Y-120025021D01*
X237807153Y-120037318D01*
X237785529Y-120047546D01*
X237763007Y-120055604D01*
X237739803Y-120061416D01*
X237716142Y-120064926D01*
X237692250Y-120066100D01*
X236779750Y-120066100D01*
X236755858Y-120064926D01*
X236732197Y-120061416D01*
X236708993Y-120055604D01*
X236686471Y-120047546D01*
X236664847Y-120037318D01*
X236644330Y-120025021D01*
X236625117Y-120010771D01*
X236607393Y-119994707D01*
X236591329Y-119976983D01*
X236577079Y-119957770D01*
X236564782Y-119937253D01*
X236554554Y-119915629D01*
X236546496Y-119893107D01*
X236540684Y-119869903D01*
X236537174Y-119846242D01*
X236536000Y-119822350D01*
X236536000Y-119334850D01*
X236537174Y-119310958D01*
X236540684Y-119287297D01*
X236546496Y-119264093D01*
X236554554Y-119241571D01*
X236564782Y-119219947D01*
X236577079Y-119199430D01*
X236591329Y-119180217D01*
X236607393Y-119162493D01*
X236625117Y-119146429D01*
X236644330Y-119132179D01*
X236664847Y-119119882D01*
X236686471Y-119109654D01*
X236708993Y-119101596D01*
X236732197Y-119095784D01*
X236755858Y-119092274D01*
X236779750Y-119091100D01*
X237692250Y-119091100D01*
X237716142Y-119092274D01*
G37*
M02*
