M48
; DRILL file {KiCad (5.1.5)-3} date 9/18/2020 3:25:41 AM
; FORMAT={-:-/ absolute / inch / decimal}
; #@! TF.CreationDate,2020-09-18T03:25:41-03:00
; #@! TF.GenerationSoftware,Kicad,Pcbnew,(5.1.5)-3
; #@! TF.FileFunction,Plated,1,2,PTH
FMAT,2
INCH
T1C0.0157
T2C0.0197
T3C0.0394
T4C0.0512
T5C0.0709
T6C0.1260
%
G90
G05
T1
X6.2596Y-4.6658
X6.38Y-4.342
X6.38Y-4.416
X6.6359Y-4.7497
X6.636Y-4.308
X6.64Y-4.674
X6.808Y-4.122
X6.808Y-4.1865
X6.992Y-4.23
X6.992Y-4.524
X7.064Y-4.484
X7.0954Y-3.8922
X7.138Y-4.52
X7.138Y-4.642
X7.2564Y-4.3719
X7.3182Y-4.2146
X7.3195Y-4.01
X7.406Y-3.784
X7.464Y-3.684
X7.464Y-3.732
X7.464Y-3.774
X7.5708Y-3.9929
X7.5717Y-4.0523
X7.5755Y-4.2437
X7.67Y-3.598
X7.736Y-3.95
X7.736Y-4.194
X7.736Y-4.404
X8.054Y-4.4
X8.088Y-4.01
X8.094Y-3.762
X8.162Y-4.52
X8.284Y-3.868
X8.2845Y-3.9814
X8.285Y-4.136
X8.2868Y-4.2952
X8.318Y-3.598
X8.494Y-3.754
X8.7015Y-4.227
X8.7021Y-4.3267
X8.7526Y-3.1918
X8.802Y-1.778
X8.822Y-3.762
X8.8331Y-2.387
X8.8473Y-4.438
X8.866Y-3.76
X8.8692Y-1.7365
X8.912Y-3.76
X8.954Y-4.614
X8.986Y-4.524
X9.004Y-3.328
X9.004Y-3.762
X9.066Y-4.492
X9.102Y-4.728
X9.1291Y-1.7496
X9.1291Y-2.7612
X9.2025Y-1.749
X9.2033Y-3.568
X9.266Y-3.652
X9.2759Y-3.0534
X9.2762Y-2.8022
X9.2769Y-2.2595
X9.428Y-4.672
X9.46Y-4.586
T2
X5.9795Y-4.724
X6.0072Y-4.6572
X6.0072Y-4.7908
X6.074Y-4.6295
X6.074Y-4.8185
X6.1408Y-4.6572
X6.1408Y-4.7908
X6.1685Y-4.724
X9.5195Y-4.722
X9.5472Y-4.6552
X9.5472Y-4.7888
X9.614Y-4.6275
X9.614Y-4.8165
X9.6808Y-4.6552
X9.6808Y-4.7888
X9.7085Y-4.722
X9.5175Y-1.184
X9.5452Y-1.1172
X9.5452Y-1.2508
X9.612Y-1.0895
X9.612Y-1.2785
X9.6788Y-1.1172
X9.6788Y-1.2508
X9.7065Y-1.184
X5.9795Y-1.182
X6.0072Y-1.1152
X6.0072Y-1.2488
X6.074Y-1.0875
X6.074Y-1.2765
X6.1408Y-1.1152
X6.1408Y-1.2488
X6.1685Y-1.182
T3
X7.8402Y-2.973
X7.8402Y-3.4454
X6.7492Y-2.977
X6.7492Y-3.4494
X6.7472Y-2.269
X6.7472Y-2.7414
X6.7442Y-1.5626
X6.7442Y-2.035
X7.8332Y-2.265
X7.8332Y-2.7374
X7.8355Y-1.5606
X7.8355Y-2.033
T4
X6.126Y-3.1241
X6.126Y-3.326
X7.7634Y-3.2072
X8.3205Y-3.4454
X8.3225Y-2.971
X7.726Y-4.7
X7.9279Y-4.7
X9.557Y-2.094
X9.557Y-2.2959
X8.162Y-4.7
X8.3639Y-4.7
X6.6724Y-3.2112
X7.2295Y-3.4494
X7.2315Y-2.975
X6.6704Y-2.5032
X7.2275Y-2.7414
X7.2295Y-2.267
X6.6674Y-1.7968
X7.2245Y-2.035
X7.2265Y-1.5606
X8.598Y-4.7
X8.7999Y-4.7
X7.7564Y-2.4992
X8.3135Y-2.7374
X8.3155Y-2.263
X6.13Y-3.6441
X6.13Y-3.846
X7.7587Y-1.7948
X8.3158Y-2.033
X8.3178Y-1.5586
X6.124Y-2.5981
X6.124Y-2.8
X6.126Y-2.0861
X6.126Y-2.288
X7.29Y-4.7
X7.4919Y-4.7
X9.555Y-2.61
X9.555Y-2.8119
X9.559Y-3.136
X9.559Y-3.3379
X9.56Y-3.652
X9.56Y-3.8539
T5
X8.162Y-4.83
X8.364Y-4.83
X8.598Y-4.83
X8.8Y-4.83
X6.26Y-3.644
X6.26Y-3.846
X6.254Y-2.598
X6.254Y-2.8
X6.256Y-2.086
X6.256Y-2.288
X7.29Y-4.83
X7.492Y-4.83
X9.425Y-2.61
X9.425Y-2.812
X9.429Y-3.136
X9.429Y-3.338
X9.43Y-3.652
X9.43Y-3.854
X6.256Y-3.124
X6.256Y-3.326
X7.726Y-4.83
X7.928Y-4.83
X9.427Y-2.094
X9.427Y-2.296
T6
X6.074Y-4.724
X9.614Y-4.722
X9.612Y-1.184
X6.074Y-1.182
T0
M30
