G04 #@! TF.GenerationSoftware,KiCad,Pcbnew,(5.1.5)-3*
G04 #@! TF.CreationDate,2020-09-18T03:25:38-03:00*
G04 #@! TF.ProjectId,SET-RESET,5345542d-5245-4534-9554-2e6b69636164,rev?*
G04 #@! TF.SameCoordinates,Original*
G04 #@! TF.FileFunction,Copper,L2,Bot*
G04 #@! TF.FilePolarity,Positive*
%FSLAX46Y46*%
G04 Gerber Fmt 4.6, Leading zero omitted, Abs format (unit mm)*
G04 Created by KiCad (PCBNEW (5.1.5)-3) date 2020-09-18 03:25:38*
%MOMM*%
%LPD*%
G04 APERTURE LIST*
%ADD10C,3.000000*%
%ADD11C,2.500000*%
%ADD12C,0.800000*%
%ADD13C,6.400000*%
%ADD14R,3.000000X3.000000*%
%ADD15C,1.000000*%
%ADD16C,0.250000*%
G04 APERTURE END LIST*
D10*
X197013700Y-63480200D03*
D11*
X198963700Y-57530200D03*
D10*
X211213700Y-57480200D03*
X211163700Y-69530200D03*
D11*
X198963700Y-69530200D03*
D12*
X155976656Y-118292544D03*
X154279600Y-117589600D03*
X152582544Y-118292544D03*
X151879600Y-119989600D03*
X152582544Y-121686656D03*
X154279600Y-122389600D03*
X155976656Y-121686656D03*
X156679600Y-119989600D03*
D13*
X154279600Y-119989600D03*
X244144800Y-30073600D03*
D12*
X246544800Y-30073600D03*
X245841856Y-31770656D03*
X244144800Y-32473600D03*
X242447744Y-31770656D03*
X241744800Y-30073600D03*
X242447744Y-28376544D03*
X244144800Y-27673600D03*
X245841856Y-28376544D03*
D13*
X244195600Y-119938800D03*
D12*
X246595600Y-119938800D03*
X245892656Y-121635856D03*
X244195600Y-122338800D03*
X242498544Y-121635856D03*
X241795600Y-119938800D03*
X242498544Y-118241744D03*
X244195600Y-117538800D03*
X245892656Y-118241744D03*
X155976656Y-28325744D03*
X154279600Y-27622800D03*
X152582544Y-28325744D03*
X151879600Y-30022800D03*
X152582544Y-31719856D03*
X154279600Y-32422800D03*
X155976656Y-31719856D03*
X156679600Y-30022800D03*
D13*
X154279600Y-30022800D03*
D14*
X242697000Y-66294000D03*
D10*
X242697000Y-71421000D03*
D11*
X239395000Y-66294000D03*
X239395000Y-71424800D03*
X239496600Y-84785200D03*
X239496600Y-79654400D03*
D10*
X242798600Y-84781400D03*
D14*
X242798600Y-79654400D03*
D11*
X239445800Y-58318400D03*
X239445800Y-53187600D03*
D10*
X242747800Y-58314600D03*
D14*
X242747800Y-53187600D03*
X155600400Y-58115200D03*
D10*
X155600400Y-52988200D03*
D11*
X158902400Y-58115200D03*
X158902400Y-52984400D03*
X158851600Y-65989200D03*
X158851600Y-71120000D03*
D10*
X155549600Y-65993000D03*
D14*
X155549600Y-71120000D03*
X155600400Y-84480400D03*
D10*
X155600400Y-79353400D03*
D11*
X158902400Y-84480400D03*
X158902400Y-79349600D03*
D14*
X155702000Y-97688400D03*
D10*
X155702000Y-92561400D03*
D11*
X159004000Y-97688400D03*
X159004000Y-92557600D03*
X199021700Y-51638200D03*
D10*
X211221700Y-51638200D03*
X211271700Y-39588200D03*
D11*
X199021700Y-39638200D03*
D10*
X197071700Y-45588200D03*
D11*
X199141500Y-87513400D03*
D10*
X211341500Y-87513400D03*
X211391500Y-75463400D03*
D11*
X199141500Y-75513400D03*
D10*
X197191500Y-81463400D03*
X169352300Y-45639000D03*
D11*
X171302300Y-39689000D03*
D10*
X183552300Y-39639000D03*
X183502300Y-51689000D03*
D11*
X171302300Y-51689000D03*
X171379300Y-69631800D03*
D10*
X183579300Y-69631800D03*
X183629300Y-57581800D03*
D11*
X171379300Y-57631800D03*
D10*
X169429300Y-63581800D03*
X169480100Y-81565000D03*
D11*
X171430100Y-75615000D03*
D10*
X183680100Y-75565000D03*
X183630100Y-87615000D03*
D11*
X171430100Y-87615000D03*
X239522000Y-97891600D03*
X239522000Y-92760800D03*
D10*
X242824000Y-97887800D03*
D14*
X242824000Y-92760800D03*
X185166000Y-119380000D03*
D10*
X190293000Y-119380000D03*
D11*
X185166000Y-122682000D03*
X190296800Y-122682000D03*
X201371200Y-122682000D03*
X196240400Y-122682000D03*
D10*
X201367400Y-119380000D03*
D14*
X196240400Y-119380000D03*
X207314800Y-119380000D03*
D10*
X212441800Y-119380000D03*
D11*
X207314800Y-122682000D03*
X212445600Y-122682000D03*
X223520000Y-122682000D03*
X218389200Y-122682000D03*
D10*
X223516200Y-119380000D03*
D14*
X218389200Y-119380000D03*
D12*
X235615480Y-71175880D03*
X235633260Y-57391300D03*
X235607860Y-77556360D03*
X158993840Y-118511320D03*
X162052000Y-112166400D03*
X162052000Y-110286800D03*
X223570800Y-45161200D03*
X211277200Y-91389200D03*
X235356400Y-92760800D03*
X194818000Y-91389200D03*
X210426300Y-101127560D03*
X210439000Y-105054400D03*
X210484720Y-109098080D03*
X168551860Y-120642380D03*
X210413600Y-98247200D03*
X168656000Y-118719600D03*
X196494400Y-106527600D03*
X196494400Y-111861600D03*
X196494400Y-100330000D03*
X228701600Y-84531200D03*
X228701600Y-95554796D03*
X224721420Y-112725200D03*
X181305200Y-117906800D03*
X181305200Y-114808000D03*
X188112400Y-96113600D03*
X168554400Y-109423200D03*
X204571600Y-111760000D03*
X189585600Y-95859600D03*
X205435200Y-101854000D03*
X189585600Y-94792800D03*
X189585600Y-93573600D03*
X205587600Y-95554800D03*
X225276830Y-44106250D03*
X226364800Y-95504000D03*
X221033340Y-109898180D03*
X224360740Y-60629800D03*
X225196400Y-95503998D03*
X221018100Y-107365800D03*
X222316040Y-81071720D03*
X224078800Y-95554790D03*
X215747600Y-95351600D03*
X192417700Y-107789980D03*
X184312560Y-111046260D03*
X192321180Y-102928420D03*
X185882280Y-107050840D03*
X177596800Y-114909600D03*
X177596800Y-107442000D03*
X239471200Y-118668800D03*
X172923200Y-104698800D03*
X172923200Y-106337440D03*
X231190800Y-120091200D03*
X180223160Y-98861880D03*
X179425600Y-113893600D03*
X227431600Y-117195600D03*
X231879140Y-44439840D03*
X231879140Y-70134480D03*
X233743500Y-44424600D03*
X233763820Y-90627200D03*
X192298320Y-101419660D03*
X185915300Y-101854000D03*
X207314800Y-114808000D03*
X230276400Y-114096800D03*
X240284000Y-116484400D03*
X228244400Y-114909600D03*
D15*
X197771701Y-50388201D02*
X199021700Y-51638200D01*
X196872499Y-49488999D02*
X197771701Y-50388201D01*
X173502301Y-49488999D02*
X196872499Y-49488999D01*
X171302300Y-51689000D02*
X173502301Y-49488999D01*
X197713701Y-68280201D02*
X198963700Y-69530200D01*
X196865299Y-67431799D02*
X197713701Y-68280201D01*
X173579301Y-67431799D02*
X196865299Y-67431799D01*
X171379300Y-69631800D02*
X173579301Y-67431799D01*
X197891501Y-86263401D02*
X199141500Y-87513400D01*
X197043099Y-85414999D02*
X197891501Y-86263401D01*
X173630101Y-85414999D02*
X197043099Y-85414999D01*
X171430100Y-87615000D02*
X173630101Y-85414999D01*
X235615480Y-71175880D02*
X235615480Y-57409080D01*
X235615480Y-57409080D02*
X235633260Y-57391300D01*
X235615480Y-77548740D02*
X235607860Y-77556360D01*
X235615480Y-77490320D02*
X235615480Y-77548740D01*
X235615480Y-77490320D02*
X235615480Y-71175880D01*
X158993840Y-118511320D02*
X164160200Y-123677680D01*
X235633260Y-56825615D02*
X235633260Y-57391300D01*
X223570800Y-43789600D02*
X225196400Y-42164000D01*
X235633260Y-43710860D02*
X235633260Y-56825615D01*
X223570800Y-45161200D02*
X223570800Y-43789600D01*
X225196400Y-42164000D02*
X234086400Y-42164000D01*
X234086400Y-42164000D02*
X235633260Y-43710860D01*
X201091501Y-71658001D02*
X198963700Y-69530200D01*
X201345800Y-71912300D02*
X201091501Y-71658001D01*
X199021700Y-51638200D02*
X201345800Y-53962300D01*
X201345800Y-53962300D02*
X201345800Y-71912300D01*
X201345800Y-85309100D02*
X201345800Y-71912300D01*
X199141500Y-87513400D02*
X201345800Y-85309100D01*
X235356400Y-92195115D02*
X235356400Y-92760800D01*
X235610400Y-91941115D02*
X235356400Y-92195115D01*
X235615480Y-77490320D02*
X235610400Y-77495400D01*
X235610400Y-77495400D02*
X235610400Y-91941115D01*
X194868800Y-91389200D02*
X194818000Y-91389200D01*
X194868800Y-91389200D02*
X211277200Y-91389200D01*
X164185600Y-92862400D02*
X165658800Y-91389200D01*
X165658800Y-91389200D02*
X194868800Y-91389200D01*
X164185600Y-110598485D02*
X164185600Y-92862400D01*
X162052000Y-112166400D02*
X162617685Y-112166400D01*
X162617685Y-112166400D02*
X164185600Y-110598485D01*
X163692600Y-87615000D02*
X171430100Y-87615000D01*
X162052000Y-110286800D02*
X162052000Y-89255600D01*
X162052000Y-89255600D02*
X163692600Y-87615000D01*
X242747800Y-53187600D02*
X245300500Y-55740300D01*
X245300500Y-55740300D02*
X245300500Y-61190500D01*
X242697000Y-63794000D02*
X242697000Y-66294000D01*
X245300500Y-61190500D02*
X242697000Y-63794000D01*
X245300500Y-61190500D02*
X245300500Y-74422000D01*
X242798600Y-76923900D02*
X242798600Y-79654400D01*
X245300500Y-74422000D02*
X242798600Y-76923900D01*
X210484720Y-105100120D02*
X210439000Y-105054400D01*
X210484720Y-109098080D02*
X210484720Y-105100120D01*
X210439000Y-101140260D02*
X210426300Y-101127560D01*
X210439000Y-105054400D02*
X210439000Y-101140260D01*
X210426300Y-101127560D02*
X210426300Y-98259900D01*
X210426300Y-98259900D02*
X210413600Y-98247200D01*
X196494400Y-106527600D02*
X196494400Y-100330000D01*
X196494400Y-106527600D02*
X196494400Y-111861600D01*
X228701600Y-84531200D02*
X228701600Y-95554796D01*
X244195600Y-114350800D02*
X244195600Y-119938800D01*
X224721420Y-112725200D02*
X242570000Y-112725200D01*
X242570000Y-112725200D02*
X244195600Y-114350800D01*
X218389200Y-119380000D02*
X223516200Y-119380000D01*
X196494400Y-112427285D02*
X197300315Y-113233200D01*
X196494400Y-111861600D02*
X196494400Y-112427285D01*
X197300315Y-113233200D02*
X209296000Y-113233200D01*
X210484720Y-112044480D02*
X210484720Y-109098080D01*
X209296000Y-113233200D02*
X210484720Y-112044480D01*
X168656000Y-118719600D02*
X180492400Y-118719600D01*
X180492400Y-118719600D02*
X181305200Y-117906800D01*
X181305200Y-114242315D02*
X182314315Y-113233200D01*
X182314315Y-113233200D02*
X197300315Y-113233200D01*
X181305200Y-114808000D02*
X181305200Y-114242315D01*
X168554400Y-97612200D02*
X168554400Y-109423200D01*
X188112400Y-96113600D02*
X170053000Y-96113600D01*
X170053000Y-96113600D02*
X168554400Y-97612200D01*
X197771701Y-38388201D02*
X199021700Y-39638200D01*
X171302300Y-39689000D02*
X173856500Y-37134800D01*
X196518300Y-37134800D02*
X197771701Y-38388201D01*
X173856500Y-37134800D02*
X196518300Y-37134800D01*
D16*
X189585600Y-95859600D02*
X203403200Y-95859600D01*
X204571600Y-97028000D02*
X204571600Y-111760000D01*
X203403200Y-95859600D02*
X204571600Y-97028000D01*
D15*
X197713701Y-56280201D02*
X198963700Y-57530200D01*
X196526100Y-55092600D02*
X197713701Y-56280201D01*
X171379300Y-57631800D02*
X173918500Y-55092600D01*
X173918500Y-55092600D02*
X196526100Y-55092600D01*
D16*
X205435200Y-101288315D02*
X205435200Y-101854000D01*
X205435200Y-96824800D02*
X205435200Y-101288315D01*
X189585600Y-94792800D02*
X203403200Y-94792800D01*
X203403200Y-94792800D02*
X205435200Y-96824800D01*
D15*
X196678500Y-73050400D02*
X197891501Y-74263401D01*
X197891501Y-74263401D02*
X199141500Y-75513400D01*
X171430100Y-75615000D02*
X173994700Y-73050400D01*
X173994700Y-73050400D02*
X196678500Y-73050400D01*
D16*
X203606400Y-93573600D02*
X205587600Y-95554800D01*
X189585600Y-93573600D02*
X203606400Y-93573600D01*
X161345880Y-58115200D02*
X158902400Y-58115200D01*
X183552300Y-39639000D02*
X179822080Y-39639000D01*
X179822080Y-39639000D02*
X161345880Y-58115200D01*
X181507980Y-57581800D02*
X183629300Y-57581800D01*
X179806651Y-57581800D02*
X181507980Y-57581800D01*
X158851600Y-71120000D02*
X166268451Y-71120000D01*
X166268451Y-71120000D02*
X179806651Y-57581800D01*
X180314600Y-75565000D02*
X183680100Y-75565000D01*
X158902400Y-84480400D02*
X171399200Y-84480400D01*
X171399200Y-84480400D02*
X180314600Y-75565000D01*
X226364800Y-45194220D02*
X226364800Y-94938315D01*
X226364800Y-94938315D02*
X226364800Y-95504000D01*
X225276830Y-44106250D02*
X226364800Y-45194220D01*
X219623400Y-39588200D02*
X211271700Y-39588200D01*
X222013780Y-108917740D02*
X222013780Y-105920540D01*
X221033340Y-109898180D02*
X222013780Y-108917740D01*
X221091760Y-41056560D02*
X219623400Y-39588200D01*
X222013780Y-105920540D02*
X221091760Y-104998520D01*
X221091760Y-104998520D02*
X221091760Y-41056560D01*
X225196400Y-61465460D02*
X225196400Y-95503998D01*
X224360740Y-60629800D02*
X225196400Y-61465460D01*
X216230200Y-57480200D02*
X211213700Y-57480200D01*
X217827860Y-59077860D02*
X216230200Y-57480200D01*
X217827860Y-106525060D02*
X217827860Y-59077860D01*
X221018100Y-107365800D02*
X218668600Y-107365800D01*
X218668600Y-107365800D02*
X217827860Y-106525060D01*
X222316040Y-81071720D02*
X224078800Y-82834480D01*
X224078800Y-82834480D02*
X224078800Y-95554790D01*
X215747600Y-95351600D02*
X215747600Y-76606400D01*
X214604600Y-75463400D02*
X211391500Y-75463400D01*
X215747600Y-76606400D02*
X214604600Y-75463400D01*
X184878245Y-111046260D02*
X184312560Y-111046260D01*
X189161420Y-111046260D02*
X184878245Y-111046260D01*
X192417700Y-107789980D02*
X189161420Y-111046260D01*
X186707780Y-102928420D02*
X192321180Y-102928420D01*
X185882280Y-107050840D02*
X185882280Y-103753920D01*
X185882280Y-103753920D02*
X186707780Y-102928420D01*
X177596800Y-114909600D02*
X177596800Y-107442000D01*
X177596800Y-115475285D02*
X177793115Y-115671600D01*
X177596800Y-114909600D02*
X177596800Y-115475285D01*
X177793115Y-115671600D02*
X238455200Y-115671600D01*
X238455200Y-115671600D02*
X239471200Y-116687600D01*
X239471200Y-116687600D02*
X239471200Y-118668800D01*
X172923200Y-106337440D02*
X172923200Y-104698800D01*
X190767801Y-116470599D02*
X190293000Y-116945400D01*
X190293000Y-116945400D02*
X190293000Y-119380000D01*
X190767801Y-116470599D02*
X173976199Y-116470599D01*
X172923200Y-115417600D02*
X172923200Y-106337440D01*
X173976199Y-116470599D02*
X172923200Y-115417600D01*
X231190800Y-117144800D02*
X231190800Y-120091200D01*
X190767801Y-116470599D02*
X230516599Y-116470599D01*
X230516599Y-116470599D02*
X231190800Y-117144800D01*
X180223160Y-98861880D02*
X180223160Y-105316020D01*
X180223160Y-105316020D02*
X180223160Y-113096040D01*
X180223160Y-113096040D02*
X179425600Y-113893600D01*
X196240400Y-117630000D02*
X196240400Y-119380000D01*
X196674800Y-117195600D02*
X196240400Y-117630000D01*
X227431600Y-117195600D02*
X196674800Y-117195600D01*
X231879140Y-44439840D02*
X231879140Y-70134480D01*
X233743500Y-44424600D02*
X233743500Y-90606880D01*
X233743500Y-90606880D02*
X233763820Y-90627200D01*
X186349640Y-101419660D02*
X192298320Y-101419660D01*
X185915300Y-101854000D02*
X186349640Y-101419660D01*
X208026000Y-114096800D02*
X229710715Y-114096800D01*
X207314800Y-114808000D02*
X208026000Y-114096800D01*
X229710715Y-114096800D02*
X230276400Y-114096800D01*
X228810085Y-114909600D02*
X228244400Y-114909600D01*
X240284000Y-116484400D02*
X238709200Y-114909600D01*
X238709200Y-114909600D02*
X228810085Y-114909600D01*
M02*
