G04 #@! TF.GenerationSoftware,KiCad,Pcbnew,(5.1.5)-3*
G04 #@! TF.CreationDate,2020-09-18T03:50:12-03:00*
G04 #@! TF.ProjectId,UFRGS PILL,55465247-5320-4504-994c-4c2e6b696361,0.1*
G04 #@! TF.SameCoordinates,Original*
G04 #@! TF.FileFunction,Legend,Bot*
G04 #@! TF.FilePolarity,Positive*
%FSLAX46Y46*%
G04 Gerber Fmt 4.6, Leading zero omitted, Abs format (unit mm)*
G04 Created by KiCad (PCBNEW (5.1.5)-3) date 2020-09-18 03:50:12*
%MOMM*%
%LPD*%
G04 APERTURE LIST*
%ADD10C,0.150000*%
%ADD11C,0.120000*%
G04 APERTURE END LIST*
D10*
X147344000Y-49659333D02*
X147777333Y-49659333D01*
X147544000Y-49392666D01*
X147644000Y-49392666D01*
X147710666Y-49359333D01*
X147744000Y-49326000D01*
X147777333Y-49259333D01*
X147777333Y-49092666D01*
X147744000Y-49026000D01*
X147710666Y-48992666D01*
X147644000Y-48959333D01*
X147444000Y-48959333D01*
X147377333Y-48992666D01*
X147344000Y-49026000D01*
X148044000Y-49592666D02*
X148077333Y-49626000D01*
X148144000Y-49659333D01*
X148310666Y-49659333D01*
X148377333Y-49626000D01*
X148410666Y-49592666D01*
X148444000Y-49526000D01*
X148444000Y-49459333D01*
X148410666Y-49359333D01*
X148010666Y-48959333D01*
X148444000Y-48959333D01*
X148744000Y-48959333D02*
X148744000Y-49659333D01*
X148810666Y-49226000D02*
X149010666Y-48959333D01*
X149010666Y-49426000D02*
X148744000Y-49159333D01*
X149310666Y-48959333D02*
X149310666Y-49659333D01*
X149310666Y-49326000D02*
X149710666Y-49326000D01*
X149710666Y-48959333D02*
X149710666Y-49659333D01*
X149977333Y-49426000D02*
X150344000Y-49426000D01*
X149977333Y-48959333D01*
X150344000Y-48959333D01*
X150554333Y-42863333D02*
X150521000Y-42830000D01*
X150454333Y-42796666D01*
X150287666Y-42796666D01*
X150221000Y-42830000D01*
X150187666Y-42863333D01*
X150154333Y-42930000D01*
X150154333Y-42996666D01*
X150187666Y-43096666D01*
X150587666Y-43496666D01*
X150154333Y-43496666D01*
X149554333Y-43030000D02*
X149554333Y-43496666D01*
X149721000Y-42763333D02*
X149887666Y-43263333D01*
X149454333Y-43263333D01*
X149187666Y-43496666D02*
X149187666Y-42796666D01*
X148954333Y-43296666D01*
X148721000Y-42796666D01*
X148721000Y-43496666D01*
X148387666Y-43496666D02*
X148387666Y-42796666D01*
X148387666Y-43130000D02*
X147987666Y-43130000D01*
X147987666Y-43496666D02*
X147987666Y-42796666D01*
X147721000Y-43030000D02*
X147354333Y-43030000D01*
X147721000Y-43496666D01*
X147354333Y-43496666D01*
D11*
X121210000Y-48521252D02*
X121210000Y-47998748D01*
X122630000Y-48521252D02*
X122630000Y-47998748D01*
X120178000Y-43961000D02*
X114168000Y-43961000D01*
X117928000Y-50781000D02*
X114168000Y-50781000D01*
X114168000Y-43961000D02*
X114168000Y-45221000D01*
X114168000Y-50781000D02*
X114168000Y-49521000D01*
X114352000Y-52204252D02*
X114352000Y-51681748D01*
X115772000Y-52204252D02*
X115772000Y-51681748D01*
X112901000Y-50363000D02*
X111441000Y-50363000D01*
X112901000Y-53523000D02*
X110741000Y-53523000D01*
X112901000Y-53523000D02*
X112901000Y-52593000D01*
X112901000Y-50363000D02*
X112901000Y-51293000D01*
X149658000Y-42179000D02*
G75*
G02X149658000Y-47229000I0J-2525000D01*
G01*
X143258000Y-42179000D02*
G75*
G03X143258000Y-47229000I0J-2525000D01*
G01*
X143258000Y-42179000D02*
X149658000Y-42179000D01*
X143258000Y-47229000D02*
X149658000Y-47229000D01*
X149658000Y-48275000D02*
G75*
G02X149658000Y-53325000I0J-2525000D01*
G01*
X143258000Y-48275000D02*
G75*
G03X143258000Y-53325000I0J-2525000D01*
G01*
X143258000Y-48275000D02*
X149658000Y-48275000D01*
X143258000Y-53325000D02*
X149658000Y-53325000D01*
X104588000Y-37532000D02*
X104588000Y-38862000D01*
X105918000Y-37532000D02*
X104588000Y-37532000D01*
X107188000Y-37532000D02*
X107188000Y-40192000D01*
X107188000Y-40192000D02*
X155508000Y-40192000D01*
X107188000Y-37532000D02*
X155508000Y-37532000D01*
X155508000Y-37532000D02*
X155508000Y-40192000D01*
X104588000Y-55312000D02*
X104588000Y-56642000D01*
X105918000Y-55312000D02*
X104588000Y-55312000D01*
X107188000Y-55312000D02*
X107188000Y-57972000D01*
X107188000Y-57972000D02*
X155508000Y-57972000D01*
X107188000Y-55312000D02*
X155508000Y-55312000D01*
X155508000Y-55312000D02*
X155508000Y-57972000D01*
X123242000Y-44457252D02*
X123242000Y-43934748D01*
X124662000Y-44457252D02*
X124662000Y-43934748D01*
X121210000Y-44457252D02*
X121210000Y-43934748D01*
X122630000Y-44457252D02*
X122630000Y-43934748D01*
X119880748Y-51360000D02*
X120403252Y-51360000D01*
X119880748Y-52780000D02*
X120403252Y-52780000D01*
X119880748Y-53392000D02*
X120403252Y-53392000D01*
X119880748Y-54812000D02*
X120403252Y-54812000D01*
D10*
X117164380Y-51776333D02*
X116688190Y-51443000D01*
X117164380Y-51204904D02*
X116164380Y-51204904D01*
X116164380Y-51585857D01*
X116212000Y-51681095D01*
X116259619Y-51728714D01*
X116354857Y-51776333D01*
X116497714Y-51776333D01*
X116592952Y-51728714D01*
X116640571Y-51681095D01*
X116688190Y-51585857D01*
X116688190Y-51204904D01*
X117164380Y-52728714D02*
X117164380Y-52157285D01*
X117164380Y-52443000D02*
X116164380Y-52443000D01*
X116307238Y-52347761D01*
X116402476Y-52252523D01*
X116450095Y-52157285D01*
X150899809Y-45180190D02*
X150423619Y-45180190D01*
X151423619Y-45513523D02*
X150899809Y-45180190D01*
X151423619Y-44846857D01*
X150423619Y-43989714D02*
X150423619Y-44561142D01*
X150423619Y-44275428D02*
X151423619Y-44275428D01*
X151280761Y-44370666D01*
X151185523Y-44465904D01*
X151137904Y-44561142D01*
X150899809Y-51276190D02*
X150423619Y-51276190D01*
X151423619Y-51609523D02*
X150899809Y-51276190D01*
X151423619Y-50942857D01*
X151328380Y-50657142D02*
X151376000Y-50609523D01*
X151423619Y-50514285D01*
X151423619Y-50276190D01*
X151376000Y-50180952D01*
X151328380Y-50133333D01*
X151233142Y-50085714D01*
X151137904Y-50085714D01*
X150995047Y-50133333D01*
X150423619Y-50704761D01*
X150423619Y-50085714D01*
X106251333Y-58634380D02*
X106251333Y-59348666D01*
X106298952Y-59491523D01*
X106394190Y-59586761D01*
X106537047Y-59634380D01*
X106632285Y-59634380D01*
X105822761Y-58729619D02*
X105775142Y-58682000D01*
X105679904Y-58634380D01*
X105441809Y-58634380D01*
X105346571Y-58682000D01*
X105298952Y-58729619D01*
X105251333Y-58824857D01*
X105251333Y-58920095D01*
X105298952Y-59062952D01*
X105870380Y-59634380D01*
X105251333Y-59634380D01*
M02*
