G04 #@! TF.GenerationSoftware,KiCad,Pcbnew,(5.1.5)-3*
G04 #@! TF.CreationDate,2020-09-18T03:50:12-03:00*
G04 #@! TF.ProjectId,UFRGS PILL,55465247-5320-4504-994c-4c2e6b696361,0.1*
G04 #@! TF.SameCoordinates,Original*
G04 #@! TF.FileFunction,Legend,Top*
G04 #@! TF.FilePolarity,Positive*
%FSLAX46Y46*%
G04 Gerber Fmt 4.6, Leading zero omitted, Abs format (unit mm)*
G04 Created by KiCad (PCBNEW (5.1.5)-3) date 2020-09-18 03:50:12*
%MOMM*%
%LPD*%
G04 APERTURE LIST*
%ADD10C,0.120000*%
%ADD11C,0.150000*%
G04 APERTURE END LIST*
D10*
X121738000Y-50304000D02*
X118038000Y-50304000D01*
X121738000Y-44184000D02*
X121738000Y-50304000D01*
X118038000Y-44184000D02*
X121738000Y-44184000D01*
X118038000Y-50304000D02*
X118038000Y-44184000D01*
X112958000Y-44184000D02*
X116658000Y-44184000D01*
X112958000Y-50304000D02*
X112958000Y-44184000D01*
X116658000Y-50304000D02*
X112958000Y-50304000D01*
X116658000Y-44184000D02*
X116658000Y-50304000D01*
X139153113Y-46671802D02*
X140065281Y-45759634D01*
X139471311Y-46990000D02*
X139153113Y-46671802D01*
X139153113Y-47308198D02*
X139471311Y-46990000D01*
X134366000Y-52095311D02*
X134047802Y-51777113D01*
X134684198Y-51777113D02*
X134366000Y-52095311D01*
X134366000Y-41884689D02*
X134684198Y-42202887D01*
X134047802Y-42202887D02*
X134366000Y-41884689D01*
X129260689Y-46990000D02*
X129578887Y-47308198D01*
X129578887Y-46671802D02*
X129260689Y-46990000D01*
X110869000Y-43998000D02*
X110869000Y-43068000D01*
X110869000Y-40838000D02*
X110869000Y-41768000D01*
X110869000Y-40838000D02*
X108709000Y-40838000D01*
X110869000Y-43998000D02*
X109409000Y-43998000D01*
X109771000Y-46897000D02*
X110221000Y-46497000D01*
X110221000Y-46497000D02*
X110221000Y-47297000D01*
X110221000Y-47297000D02*
X109771000Y-46897000D01*
X104171000Y-52047000D02*
X106971000Y-52047000D01*
X106971000Y-52047000D02*
X106971000Y-52347000D01*
X106971000Y-52347000D02*
X108521000Y-52347000D01*
X104171000Y-44347000D02*
X106971000Y-44347000D01*
X106971000Y-44047000D02*
X106971000Y-44347000D01*
X106971000Y-44047000D02*
X108521000Y-44047000D01*
X155575000Y-41402000D02*
X156845000Y-41402000D01*
X155575000Y-42672000D02*
X155575000Y-41402000D01*
X157887929Y-53212000D02*
X158285000Y-53212000D01*
X157887929Y-52452000D02*
X158285000Y-52452000D01*
X166945000Y-53212000D02*
X160945000Y-53212000D01*
X166945000Y-52452000D02*
X166945000Y-53212000D01*
X160945000Y-52452000D02*
X166945000Y-52452000D01*
X158285000Y-51562000D02*
X160945000Y-51562000D01*
X157887929Y-50672000D02*
X158285000Y-50672000D01*
X157887929Y-49912000D02*
X158285000Y-49912000D01*
X166945000Y-50672000D02*
X160945000Y-50672000D01*
X166945000Y-49912000D02*
X166945000Y-50672000D01*
X160945000Y-49912000D02*
X166945000Y-49912000D01*
X158285000Y-49022000D02*
X160945000Y-49022000D01*
X157887929Y-48132000D02*
X158285000Y-48132000D01*
X157887929Y-47372000D02*
X158285000Y-47372000D01*
X166945000Y-48132000D02*
X160945000Y-48132000D01*
X166945000Y-47372000D02*
X166945000Y-48132000D01*
X160945000Y-47372000D02*
X166945000Y-47372000D01*
X158285000Y-46482000D02*
X160945000Y-46482000D01*
X157887929Y-45592000D02*
X158285000Y-45592000D01*
X157887929Y-44832000D02*
X158285000Y-44832000D01*
X166945000Y-45592000D02*
X160945000Y-45592000D01*
X166945000Y-44832000D02*
X166945000Y-45592000D01*
X160945000Y-44832000D02*
X166945000Y-44832000D01*
X158285000Y-43942000D02*
X160945000Y-43942000D01*
X157955000Y-43052000D02*
X158285000Y-43052000D01*
X157955000Y-42292000D02*
X158285000Y-42292000D01*
X160945000Y-42952000D02*
X166945000Y-42952000D01*
X160945000Y-42832000D02*
X166945000Y-42832000D01*
X160945000Y-42712000D02*
X166945000Y-42712000D01*
X160945000Y-42592000D02*
X166945000Y-42592000D01*
X160945000Y-42472000D02*
X166945000Y-42472000D01*
X160945000Y-42352000D02*
X166945000Y-42352000D01*
X166945000Y-43052000D02*
X160945000Y-43052000D01*
X166945000Y-42292000D02*
X166945000Y-43052000D01*
X160945000Y-42292000D02*
X166945000Y-42292000D01*
X160945000Y-41342000D02*
X158285000Y-41342000D01*
X160945000Y-54162000D02*
X160945000Y-41342000D01*
X158285000Y-54162000D02*
X160945000Y-54162000D01*
X158285000Y-41342000D02*
X158285000Y-54162000D01*
X143771252Y-51868000D02*
X143248748Y-51868000D01*
X143771252Y-53288000D02*
X143248748Y-53288000D01*
X149090748Y-53796000D02*
X149613252Y-53796000D01*
X149090748Y-52376000D02*
X149613252Y-52376000D01*
X125170000Y-43441252D02*
X125170000Y-42918748D01*
X123750000Y-43441252D02*
X123750000Y-42918748D01*
X149613252Y-46026000D02*
X149090748Y-46026000D01*
X149613252Y-47446000D02*
X149090748Y-47446000D01*
X149613252Y-48058000D02*
X149090748Y-48058000D01*
X149613252Y-49478000D02*
X149090748Y-49478000D01*
X151556000Y-47442000D02*
X154416000Y-47442000D01*
X151556000Y-45522000D02*
X151556000Y-47442000D01*
X154416000Y-45522000D02*
X151556000Y-45522000D01*
X151556000Y-49982000D02*
X154416000Y-49982000D01*
X151556000Y-48062000D02*
X151556000Y-49982000D01*
X154416000Y-48062000D02*
X151556000Y-48062000D01*
X110796000Y-46093748D02*
X110796000Y-46616252D01*
X112216000Y-46093748D02*
X112216000Y-46616252D01*
X149867252Y-40946000D02*
X149344748Y-40946000D01*
X149867252Y-42366000D02*
X149344748Y-42366000D01*
X153154748Y-54558000D02*
X153677252Y-54558000D01*
X153154748Y-53138000D02*
X153677252Y-53138000D01*
X123750000Y-46982748D02*
X123750000Y-47505252D01*
X125170000Y-46982748D02*
X125170000Y-47505252D01*
X151556000Y-44902000D02*
X154416000Y-44902000D01*
X151556000Y-42982000D02*
X151556000Y-44902000D01*
X154416000Y-42982000D02*
X151556000Y-42982000D01*
X151556000Y-52522000D02*
X154416000Y-52522000D01*
X151556000Y-50602000D02*
X151556000Y-52522000D01*
X154416000Y-50602000D02*
X151556000Y-50602000D01*
X147014000Y-50807252D02*
X147014000Y-50284748D01*
X145594000Y-50807252D02*
X145594000Y-50284748D01*
X145594000Y-44442748D02*
X145594000Y-44965252D01*
X147014000Y-44442748D02*
X147014000Y-44965252D01*
X145534748Y-42366000D02*
X146057252Y-42366000D01*
X145534748Y-40946000D02*
X146057252Y-40946000D01*
X111962000Y-53093252D02*
X111962000Y-52570748D01*
X110542000Y-53093252D02*
X110542000Y-52570748D01*
X127456000Y-43441252D02*
X127456000Y-42918748D01*
X126036000Y-43441252D02*
X126036000Y-42918748D01*
X127456000Y-47505252D02*
X127456000Y-46982748D01*
X126036000Y-47505252D02*
X126036000Y-46982748D01*
X134627252Y-53138000D02*
X134104748Y-53138000D01*
X134627252Y-54558000D02*
X134104748Y-54558000D01*
X153677252Y-40946000D02*
X153154748Y-40946000D01*
X153677252Y-42366000D02*
X153154748Y-42366000D01*
X140514000Y-48760748D02*
X140514000Y-49283252D01*
X141934000Y-48760748D02*
X141934000Y-49283252D01*
D11*
X133604095Y-45172379D02*
X133604095Y-45981903D01*
X133651714Y-46077141D01*
X133699333Y-46124760D01*
X133794571Y-46172379D01*
X133985047Y-46172379D01*
X134080285Y-46124760D01*
X134127904Y-46077141D01*
X134175523Y-45981903D01*
X134175523Y-45172379D01*
X134604095Y-45267618D02*
X134651714Y-45219999D01*
X134746952Y-45172379D01*
X134985047Y-45172379D01*
X135080285Y-45219999D01*
X135127904Y-45267618D01*
X135175523Y-45362856D01*
X135175523Y-45458094D01*
X135127904Y-45600951D01*
X134556476Y-46172379D01*
X135175523Y-46172379D01*
X131482666Y-47273333D02*
X131582666Y-47306666D01*
X131749333Y-47306666D01*
X131816000Y-47273333D01*
X131849333Y-47240000D01*
X131882666Y-47173333D01*
X131882666Y-47106666D01*
X131849333Y-47040000D01*
X131816000Y-47006666D01*
X131749333Y-46973333D01*
X131616000Y-46940000D01*
X131549333Y-46906666D01*
X131516000Y-46873333D01*
X131482666Y-46806666D01*
X131482666Y-46740000D01*
X131516000Y-46673333D01*
X131549333Y-46640000D01*
X131616000Y-46606666D01*
X131782666Y-46606666D01*
X131882666Y-46640000D01*
X132082666Y-46606666D02*
X132482666Y-46606666D01*
X132282666Y-47306666D02*
X132282666Y-46606666D01*
X132716000Y-47306666D02*
X132716000Y-46606666D01*
X132949333Y-47106666D01*
X133182666Y-46606666D01*
X133182666Y-47306666D01*
X133449333Y-46606666D02*
X133882666Y-46606666D01*
X133649333Y-46873333D01*
X133749333Y-46873333D01*
X133816000Y-46906666D01*
X133849333Y-46940000D01*
X133882666Y-47006666D01*
X133882666Y-47173333D01*
X133849333Y-47240000D01*
X133816000Y-47273333D01*
X133749333Y-47306666D01*
X133549333Y-47306666D01*
X133482666Y-47273333D01*
X133449333Y-47240000D01*
X134149333Y-46673333D02*
X134182666Y-46640000D01*
X134249333Y-46606666D01*
X134416000Y-46606666D01*
X134482666Y-46640000D01*
X134516000Y-46673333D01*
X134549333Y-46740000D01*
X134549333Y-46806666D01*
X134516000Y-46906666D01*
X134116000Y-47306666D01*
X134549333Y-47306666D01*
X135216000Y-46640000D02*
X135149333Y-46606666D01*
X135049333Y-46606666D01*
X134949333Y-46640000D01*
X134882666Y-46706666D01*
X134849333Y-46773333D01*
X134816000Y-46906666D01*
X134816000Y-47006666D01*
X134849333Y-47140000D01*
X134882666Y-47206666D01*
X134949333Y-47273333D01*
X135049333Y-47306666D01*
X135116000Y-47306666D01*
X135216000Y-47273333D01*
X135249333Y-47240000D01*
X135249333Y-47006666D01*
X135116000Y-47006666D01*
X135849333Y-46840000D02*
X135849333Y-47306666D01*
X135682666Y-46573333D02*
X135516000Y-47073333D01*
X135949333Y-47073333D01*
X136149333Y-46606666D02*
X136582666Y-46606666D01*
X136349333Y-46873333D01*
X136449333Y-46873333D01*
X136516000Y-46906666D01*
X136549333Y-46940000D01*
X136582666Y-47006666D01*
X136582666Y-47173333D01*
X136549333Y-47240000D01*
X136516000Y-47273333D01*
X136449333Y-47306666D01*
X136249333Y-47306666D01*
X136182666Y-47273333D01*
X136149333Y-47240000D01*
X137249333Y-47306666D02*
X136849333Y-47306666D01*
X137049333Y-47306666D02*
X137049333Y-46606666D01*
X136982666Y-46706666D01*
X136916000Y-46773333D01*
X136849333Y-46806666D01*
X108148380Y-43156095D02*
X107148380Y-43156095D01*
X107148380Y-42918000D01*
X107196000Y-42775142D01*
X107291238Y-42679904D01*
X107386476Y-42632285D01*
X107576952Y-42584666D01*
X107719809Y-42584666D01*
X107910285Y-42632285D01*
X108005523Y-42679904D01*
X108100761Y-42775142D01*
X108148380Y-42918000D01*
X108148380Y-43156095D01*
X107243619Y-42203714D02*
X107196000Y-42156095D01*
X107148380Y-42060857D01*
X107148380Y-41822761D01*
X107196000Y-41727523D01*
X107243619Y-41679904D01*
X107338857Y-41632285D01*
X107434095Y-41632285D01*
X107576952Y-41679904D01*
X108148380Y-42251333D01*
X108148380Y-41632285D01*
M02*
