M48
; DRILL file {KiCad (5.1.5)-3} date 9/18/2020 3:50:16 AM
; FORMAT={-:-/ absolute / inch / decimal}
; #@! TF.CreationDate,2020-09-18T03:50:16-03:00
; #@! TF.GenerationSoftware,Kicad,Pcbnew,(5.1.5)-3
; #@! TF.FileFunction,Plated,1,2,PTH
FMAT,2
INCH
T1C0.0157
T2C0.0256
T3C0.0276
T4C0.0315
T5C0.0394
T6C0.0709
%
G90
G05
T1
X4.46Y-1.68
X4.605Y-1.865
X4.61Y-1.69
X4.61Y-1.76
X4.62Y-1.98
X4.64Y-1.6
X4.82Y-1.6435
X4.87Y-1.96
X4.87Y-2.06
X4.96Y-2.01
X4.96Y-2.05
X5.06Y-1.85
X5.07Y-1.73
X5.25Y-1.915
X5.29Y-1.745
X5.31Y-1.93
X5.37Y-1.915
X5.5104Y-1.656
X5.5425Y-2.0425
X5.545Y-1.815
X5.635Y-1.88
X5.76Y-1.88
X5.76Y-2.1
X6.145Y-1.605
T4
X5.67Y-1.76
X5.8621Y-1.76
X5.67Y-2.0
X5.8621Y-2.0
T5
X6.175Y-2.23
X6.175Y-1.5293
X4.17Y-1.53
X4.27Y-1.53
X4.37Y-1.53
X4.47Y-1.53
X4.57Y-1.53
X4.67Y-1.53
X4.77Y-1.53
X4.87Y-1.53
X4.97Y-1.53
X5.07Y-1.53
X5.17Y-1.53
X5.27Y-1.53
X5.37Y-1.53
X5.47Y-1.53
X5.57Y-1.53
X5.67Y-1.53
X5.77Y-1.53
X5.87Y-1.53
X5.97Y-1.53
X6.07Y-1.53
X4.17Y-2.23
X4.27Y-2.23
X4.37Y-2.23
X4.47Y-2.23
X4.57Y-2.23
X4.67Y-2.23
X4.77Y-2.23
X4.87Y-2.23
X4.97Y-2.23
X5.07Y-2.23
X5.17Y-2.23
X5.27Y-2.23
X5.37Y-2.23
X5.47Y-2.23
X5.57Y-2.23
X5.67Y-2.23
X5.77Y-2.23
X5.87Y-2.23
X5.97Y-2.23
X6.07Y-2.23
X6.175Y-1.68
X6.175Y-1.78
X6.175Y-1.88
X6.175Y-1.98
X6.175Y-2.08
T6
X4.1675Y-1.6367
X4.17Y-2.12
X6.27Y-1.52
X6.27Y-2.24
T2
G00X4.2752Y-1.8022
M15
G01X4.291Y-1.8022
M16
G05
G00X4.2752Y-1.9928
M15
G01X4.291Y-1.9928
M16
G05
T3
G00X4.1552Y-1.79
M15
G01X4.1748Y-1.79
M16
G05
G00X4.1552Y-2.005
M15
G01X4.1748Y-2.005
M16
G05
T0
M30
