G04 #@! TF.GenerationSoftware,KiCad,Pcbnew,(5.1.5)-3*
G04 #@! TF.CreationDate,2020-07-09T12:28:23-03:00*
G04 #@! TF.ProjectId,UFRGS PILL,55465247-5320-4504-994c-4c2e6b696361,0.1*
G04 #@! TF.SameCoordinates,Original*
G04 #@! TF.FileFunction,Legend,Top*
G04 #@! TF.FilePolarity,Positive*
%FSLAX46Y46*%
G04 Gerber Fmt 4.6, Leading zero omitted, Abs format (unit mm)*
G04 Created by KiCad (PCBNEW (5.1.5)-3) date 2020-07-09 12:28:23*
%MOMM*%
%LPD*%
G04 APERTURE LIST*
%ADD10C,0.150000*%
%ADD11C,0.120000*%
G04 APERTURE END LIST*
D10*
X128841952Y-33488380D02*
X128365761Y-33488380D01*
X128318142Y-33964571D01*
X128365761Y-33916952D01*
X128461000Y-33869333D01*
X128699095Y-33869333D01*
X128794333Y-33916952D01*
X128841952Y-33964571D01*
X128889571Y-34059809D01*
X128889571Y-34297904D01*
X128841952Y-34393142D01*
X128794333Y-34440761D01*
X128699095Y-34488380D01*
X128461000Y-34488380D01*
X128365761Y-34440761D01*
X128318142Y-34393142D01*
X129746714Y-33488380D02*
X129556238Y-33488380D01*
X129461000Y-33536000D01*
X129413380Y-33583619D01*
X129318142Y-33726476D01*
X129270523Y-33916952D01*
X129270523Y-34297904D01*
X129318142Y-34393142D01*
X129365761Y-34440761D01*
X129461000Y-34488380D01*
X129651476Y-34488380D01*
X129746714Y-34440761D01*
X129794333Y-34393142D01*
X129841952Y-34297904D01*
X129841952Y-34059809D01*
X129794333Y-33964571D01*
X129746714Y-33916952D01*
X129651476Y-33869333D01*
X129461000Y-33869333D01*
X129365761Y-33916952D01*
X129318142Y-33964571D01*
X129270523Y-34059809D01*
X130270523Y-34393142D02*
X130318142Y-34440761D01*
X130270523Y-34488380D01*
X130222904Y-34440761D01*
X130270523Y-34393142D01*
X130270523Y-34488380D01*
X131175285Y-33488380D02*
X130984809Y-33488380D01*
X130889571Y-33536000D01*
X130841952Y-33583619D01*
X130746714Y-33726476D01*
X130699095Y-33916952D01*
X130699095Y-34297904D01*
X130746714Y-34393142D01*
X130794333Y-34440761D01*
X130889571Y-34488380D01*
X131080047Y-34488380D01*
X131175285Y-34440761D01*
X131222904Y-34393142D01*
X131270523Y-34297904D01*
X131270523Y-34059809D01*
X131222904Y-33964571D01*
X131175285Y-33916952D01*
X131080047Y-33869333D01*
X130889571Y-33869333D01*
X130794333Y-33916952D01*
X130746714Y-33964571D01*
X130699095Y-34059809D01*
X132127666Y-33821714D02*
X132127666Y-34488380D01*
X131889571Y-33440761D02*
X131651476Y-34155047D01*
X132270523Y-34155047D01*
X132603857Y-33583619D02*
X132651476Y-33536000D01*
X132746714Y-33488380D01*
X132984809Y-33488380D01*
X133080047Y-33536000D01*
X133127666Y-33583619D01*
X133175285Y-33678857D01*
X133175285Y-33774095D01*
X133127666Y-33916952D01*
X132556238Y-34488380D01*
X133175285Y-34488380D01*
X134365761Y-34488380D02*
X134365761Y-33821714D01*
X134365761Y-33916952D02*
X134413380Y-33869333D01*
X134508619Y-33821714D01*
X134651476Y-33821714D01*
X134746714Y-33869333D01*
X134794333Y-33964571D01*
X134794333Y-34488380D01*
X134794333Y-33964571D02*
X134841952Y-33869333D01*
X134937190Y-33821714D01*
X135080047Y-33821714D01*
X135175285Y-33869333D01*
X135222904Y-33964571D01*
X135222904Y-34488380D01*
X135699095Y-34488380D02*
X135699095Y-33821714D01*
X135699095Y-33916952D02*
X135746714Y-33869333D01*
X135841952Y-33821714D01*
X135984809Y-33821714D01*
X136080047Y-33869333D01*
X136127666Y-33964571D01*
X136127666Y-34488380D01*
X136127666Y-33964571D02*
X136175285Y-33869333D01*
X136270523Y-33821714D01*
X136413380Y-33821714D01*
X136508619Y-33869333D01*
X136556238Y-33964571D01*
X136556238Y-34488380D01*
D11*
X104140000Y-35306000D02*
X160782000Y-35306000D01*
X104140000Y-37084000D02*
X104140000Y-34719579D01*
X160782000Y-37084000D02*
X160782000Y-34719579D01*
X160782000Y-35306000D02*
X159655496Y-35892421D01*
X160782000Y-35306000D02*
X159655496Y-34719579D01*
X104140000Y-35306000D02*
X105266504Y-35892421D01*
X104140000Y-35306000D02*
X105266504Y-34719579D01*
D10*
X100528380Y-43609142D02*
X100576000Y-43656761D01*
X100623619Y-43752000D01*
X100623619Y-43990095D01*
X100576000Y-44085333D01*
X100528380Y-44132952D01*
X100433142Y-44180571D01*
X100337904Y-44180571D01*
X100195047Y-44132952D01*
X99623619Y-43561523D01*
X99623619Y-44180571D01*
X99623619Y-45132952D02*
X99623619Y-44561523D01*
X99623619Y-44847238D02*
X100623619Y-44847238D01*
X100480761Y-44752000D01*
X100385523Y-44656761D01*
X100337904Y-44561523D01*
X99718857Y-45561523D02*
X99671238Y-45609142D01*
X99623619Y-45561523D01*
X99671238Y-45513904D01*
X99718857Y-45561523D01*
X99623619Y-45561523D01*
X100623619Y-45942476D02*
X100623619Y-46561523D01*
X100242666Y-46228190D01*
X100242666Y-46371047D01*
X100195047Y-46466285D01*
X100147428Y-46513904D01*
X100052190Y-46561523D01*
X99814095Y-46561523D01*
X99718857Y-46513904D01*
X99671238Y-46466285D01*
X99623619Y-46371047D01*
X99623619Y-46085333D01*
X99671238Y-45990095D01*
X99718857Y-45942476D01*
X100623619Y-46894857D02*
X100623619Y-47513904D01*
X100242666Y-47180571D01*
X100242666Y-47323428D01*
X100195047Y-47418666D01*
X100147428Y-47466285D01*
X100052190Y-47513904D01*
X99814095Y-47513904D01*
X99718857Y-47466285D01*
X99671238Y-47418666D01*
X99623619Y-47323428D01*
X99623619Y-47037714D01*
X99671238Y-46942476D01*
X99718857Y-46894857D01*
X100623619Y-48371047D02*
X100623619Y-48180571D01*
X100576000Y-48085333D01*
X100528380Y-48037714D01*
X100385523Y-47942476D01*
X100195047Y-47894857D01*
X99814095Y-47894857D01*
X99718857Y-47942476D01*
X99671238Y-47990095D01*
X99623619Y-48085333D01*
X99623619Y-48275809D01*
X99671238Y-48371047D01*
X99718857Y-48418666D01*
X99814095Y-48466285D01*
X100052190Y-48466285D01*
X100147428Y-48418666D01*
X100195047Y-48371047D01*
X100242666Y-48275809D01*
X100242666Y-48085333D01*
X100195047Y-47990095D01*
X100147428Y-47942476D01*
X100052190Y-47894857D01*
X99623619Y-49656761D02*
X100290285Y-49656761D01*
X100195047Y-49656761D02*
X100242666Y-49704380D01*
X100290285Y-49799619D01*
X100290285Y-49942476D01*
X100242666Y-50037714D01*
X100147428Y-50085333D01*
X99623619Y-50085333D01*
X100147428Y-50085333D02*
X100242666Y-50132952D01*
X100290285Y-50228190D01*
X100290285Y-50371047D01*
X100242666Y-50466285D01*
X100147428Y-50513904D01*
X99623619Y-50513904D01*
X99623619Y-50990095D02*
X100290285Y-50990095D01*
X100195047Y-50990095D02*
X100242666Y-51037714D01*
X100290285Y-51132952D01*
X100290285Y-51275809D01*
X100242666Y-51371047D01*
X100147428Y-51418666D01*
X99623619Y-51418666D01*
X100147428Y-51418666D02*
X100242666Y-51466285D01*
X100290285Y-51561523D01*
X100290285Y-51704380D01*
X100242666Y-51799619D01*
X100147428Y-51847238D01*
X99623619Y-51847238D01*
D11*
X101346000Y-37084000D02*
X101346000Y-58420000D01*
X104140000Y-37084000D02*
X100759579Y-37084000D01*
X104140000Y-58420000D02*
X100759579Y-58420000D01*
X101346000Y-58420000D02*
X100759579Y-57293496D01*
X101346000Y-58420000D02*
X101932421Y-57293496D01*
X101346000Y-37084000D02*
X100759579Y-38210504D01*
X101346000Y-37084000D02*
X101932421Y-38210504D01*
X139153113Y-46671802D02*
X140065281Y-45759634D01*
X139471311Y-46990000D02*
X139153113Y-46671802D01*
X139153113Y-47308198D02*
X139471311Y-46990000D01*
X134366000Y-52095311D02*
X134047802Y-51777113D01*
X134684198Y-51777113D02*
X134366000Y-52095311D01*
X134366000Y-41884689D02*
X134684198Y-42202887D01*
X134047802Y-42202887D02*
X134366000Y-41884689D01*
X129260689Y-46990000D02*
X129578887Y-47308198D01*
X129578887Y-46671802D02*
X129260689Y-46990000D01*
X112594000Y-44014000D02*
X112594000Y-50474000D01*
X117124000Y-44014000D02*
X114524000Y-44014000D01*
X119054000Y-44014000D02*
X119054000Y-50474000D01*
X117124000Y-50474000D02*
X114524000Y-50474000D01*
X119024000Y-44014000D02*
X119054000Y-44014000D01*
X112594000Y-44014000D02*
X112624000Y-44014000D01*
X112594000Y-50474000D02*
X112624000Y-50474000D01*
X119054000Y-50474000D02*
X119024000Y-50474000D01*
X110869000Y-43998000D02*
X110869000Y-43068000D01*
X110869000Y-40838000D02*
X110869000Y-41768000D01*
X110869000Y-40838000D02*
X108709000Y-40838000D01*
X110869000Y-43998000D02*
X109409000Y-43998000D01*
X109771000Y-46897000D02*
X110221000Y-46497000D01*
X110221000Y-46497000D02*
X110221000Y-47297000D01*
X110221000Y-47297000D02*
X109771000Y-46897000D01*
X104171000Y-52047000D02*
X106971000Y-52047000D01*
X106971000Y-52047000D02*
X106971000Y-52347000D01*
X106971000Y-52347000D02*
X108521000Y-52347000D01*
X104171000Y-44347000D02*
X106971000Y-44347000D01*
X106971000Y-44047000D02*
X106971000Y-44347000D01*
X106971000Y-44047000D02*
X108521000Y-44047000D01*
X155575000Y-41402000D02*
X156845000Y-41402000D01*
X155575000Y-42672000D02*
X155575000Y-41402000D01*
X157887929Y-53212000D02*
X158285000Y-53212000D01*
X157887929Y-52452000D02*
X158285000Y-52452000D01*
X166945000Y-53212000D02*
X160945000Y-53212000D01*
X166945000Y-52452000D02*
X166945000Y-53212000D01*
X160945000Y-52452000D02*
X166945000Y-52452000D01*
X158285000Y-51562000D02*
X160945000Y-51562000D01*
X157887929Y-50672000D02*
X158285000Y-50672000D01*
X157887929Y-49912000D02*
X158285000Y-49912000D01*
X166945000Y-50672000D02*
X160945000Y-50672000D01*
X166945000Y-49912000D02*
X166945000Y-50672000D01*
X160945000Y-49912000D02*
X166945000Y-49912000D01*
X158285000Y-49022000D02*
X160945000Y-49022000D01*
X157887929Y-48132000D02*
X158285000Y-48132000D01*
X157887929Y-47372000D02*
X158285000Y-47372000D01*
X166945000Y-48132000D02*
X160945000Y-48132000D01*
X166945000Y-47372000D02*
X166945000Y-48132000D01*
X160945000Y-47372000D02*
X166945000Y-47372000D01*
X158285000Y-46482000D02*
X160945000Y-46482000D01*
X157887929Y-45592000D02*
X158285000Y-45592000D01*
X157887929Y-44832000D02*
X158285000Y-44832000D01*
X166945000Y-45592000D02*
X160945000Y-45592000D01*
X166945000Y-44832000D02*
X166945000Y-45592000D01*
X160945000Y-44832000D02*
X166945000Y-44832000D01*
X158285000Y-43942000D02*
X160945000Y-43942000D01*
X157955000Y-43052000D02*
X158285000Y-43052000D01*
X157955000Y-42292000D02*
X158285000Y-42292000D01*
X160945000Y-42952000D02*
X166945000Y-42952000D01*
X160945000Y-42832000D02*
X166945000Y-42832000D01*
X160945000Y-42712000D02*
X166945000Y-42712000D01*
X160945000Y-42592000D02*
X166945000Y-42592000D01*
X160945000Y-42472000D02*
X166945000Y-42472000D01*
X160945000Y-42352000D02*
X166945000Y-42352000D01*
X166945000Y-43052000D02*
X160945000Y-43052000D01*
X166945000Y-42292000D02*
X166945000Y-43052000D01*
X160945000Y-42292000D02*
X166945000Y-42292000D01*
X160945000Y-41342000D02*
X158285000Y-41342000D01*
X160945000Y-54162000D02*
X160945000Y-41342000D01*
X158285000Y-54162000D02*
X160945000Y-54162000D01*
X158285000Y-41342000D02*
X158285000Y-54162000D01*
X143771252Y-51868000D02*
X143248748Y-51868000D01*
X143771252Y-53288000D02*
X143248748Y-53288000D01*
X149090748Y-53796000D02*
X149613252Y-53796000D01*
X149090748Y-52376000D02*
X149613252Y-52376000D01*
X125170000Y-43441252D02*
X125170000Y-42918748D01*
X123750000Y-43441252D02*
X123750000Y-42918748D01*
X149613252Y-46026000D02*
X149090748Y-46026000D01*
X149613252Y-47446000D02*
X149090748Y-47446000D01*
X149613252Y-48058000D02*
X149090748Y-48058000D01*
X149613252Y-49478000D02*
X149090748Y-49478000D01*
X151556000Y-47442000D02*
X154416000Y-47442000D01*
X151556000Y-45522000D02*
X151556000Y-47442000D01*
X154416000Y-45522000D02*
X151556000Y-45522000D01*
X151556000Y-49982000D02*
X154416000Y-49982000D01*
X151556000Y-48062000D02*
X151556000Y-49982000D01*
X154416000Y-48062000D02*
X151556000Y-48062000D01*
X110796000Y-46093748D02*
X110796000Y-46616252D01*
X112216000Y-46093748D02*
X112216000Y-46616252D01*
X149867252Y-40946000D02*
X149344748Y-40946000D01*
X149867252Y-42366000D02*
X149344748Y-42366000D01*
X153154748Y-54558000D02*
X153677252Y-54558000D01*
X153154748Y-53138000D02*
X153677252Y-53138000D01*
X123750000Y-46982748D02*
X123750000Y-47505252D01*
X125170000Y-46982748D02*
X125170000Y-47505252D01*
X151556000Y-44902000D02*
X154416000Y-44902000D01*
X151556000Y-42982000D02*
X151556000Y-44902000D01*
X154416000Y-42982000D02*
X151556000Y-42982000D01*
X151556000Y-52522000D02*
X154416000Y-52522000D01*
X151556000Y-50602000D02*
X151556000Y-52522000D01*
X154416000Y-50602000D02*
X151556000Y-50602000D01*
X147014000Y-50807252D02*
X147014000Y-50284748D01*
X145594000Y-50807252D02*
X145594000Y-50284748D01*
X145594000Y-44442748D02*
X145594000Y-44965252D01*
X147014000Y-44442748D02*
X147014000Y-44965252D01*
X145534748Y-42366000D02*
X146057252Y-42366000D01*
X145534748Y-40946000D02*
X146057252Y-40946000D01*
X111962000Y-53093252D02*
X111962000Y-52570748D01*
X110542000Y-53093252D02*
X110542000Y-52570748D01*
X127456000Y-43441252D02*
X127456000Y-42918748D01*
X126036000Y-43441252D02*
X126036000Y-42918748D01*
X127456000Y-47505252D02*
X127456000Y-46982748D01*
X126036000Y-47505252D02*
X126036000Y-46982748D01*
X134627252Y-53138000D02*
X134104748Y-53138000D01*
X134627252Y-54558000D02*
X134104748Y-54558000D01*
X153677252Y-40946000D02*
X153154748Y-40946000D01*
X153677252Y-42366000D02*
X153154748Y-42366000D01*
X140514000Y-48760748D02*
X140514000Y-49283252D01*
X141934000Y-48760748D02*
X141934000Y-49283252D01*
D10*
X131166478Y-46064026D02*
X130594058Y-46636446D01*
X130560386Y-46737461D01*
X130560386Y-46804805D01*
X130594058Y-46905820D01*
X130728745Y-47040507D01*
X130829760Y-47074179D01*
X130897104Y-47074179D01*
X130998119Y-47040507D01*
X131570539Y-46468087D01*
X131806241Y-46838477D02*
X131873584Y-46838477D01*
X131974600Y-46872148D01*
X132142958Y-47040507D01*
X132176630Y-47141522D01*
X132176630Y-47208866D01*
X132142958Y-47309881D01*
X132075615Y-47377225D01*
X131940928Y-47444568D01*
X131132806Y-47444568D01*
X131570539Y-47882301D01*
X136351170Y-48510977D02*
X136304030Y-48416696D01*
X136186178Y-48298845D01*
X136115468Y-48275275D01*
X136068327Y-48275275D01*
X135997617Y-48298845D01*
X135950476Y-48345986D01*
X135926906Y-48416696D01*
X135926906Y-48463837D01*
X135950476Y-48534547D01*
X136021187Y-48652398D01*
X136044757Y-48723109D01*
X136044757Y-48770250D01*
X136021187Y-48840960D01*
X135974046Y-48888101D01*
X135903336Y-48911671D01*
X135856195Y-48911671D01*
X135785485Y-48888101D01*
X135667633Y-48770250D01*
X135620493Y-48675969D01*
X135455501Y-48558118D02*
X135172659Y-48275275D01*
X135809055Y-47921721D02*
X135314080Y-48416696D01*
X135502642Y-47615309D02*
X135007667Y-48110283D01*
X135196229Y-47591738D01*
X134677684Y-47780300D01*
X135172659Y-47285325D01*
X134489122Y-47591738D02*
X134182709Y-47285325D01*
X134536263Y-47261755D01*
X134465552Y-47191044D01*
X134441982Y-47120334D01*
X134441982Y-47073193D01*
X134465552Y-47002483D01*
X134583403Y-46884632D01*
X134654114Y-46861061D01*
X134701254Y-46861061D01*
X134771965Y-46884632D01*
X134913386Y-47026053D01*
X134936956Y-47096764D01*
X134936956Y-47143904D01*
X134041288Y-47049623D02*
X133994147Y-47049623D01*
X133923437Y-47026053D01*
X133805586Y-46908202D01*
X133782015Y-46837491D01*
X133782015Y-46790351D01*
X133805586Y-46719640D01*
X133852726Y-46672500D01*
X133947007Y-46625359D01*
X134512692Y-46625359D01*
X134206279Y-46318946D01*
X133263470Y-46318946D02*
X133287041Y-46389657D01*
X133357751Y-46460367D01*
X133452032Y-46507508D01*
X133546313Y-46507508D01*
X133617024Y-46483938D01*
X133734875Y-46413227D01*
X133805586Y-46342516D01*
X133876296Y-46224665D01*
X133899866Y-46153955D01*
X133899866Y-46059674D01*
X133852726Y-45965393D01*
X133805586Y-45918252D01*
X133711305Y-45871112D01*
X133664164Y-45871112D01*
X133499173Y-46036103D01*
X133593454Y-46130384D01*
X132957057Y-45729690D02*
X133287041Y-45399707D01*
X132886347Y-46036103D02*
X133357751Y-45800401D01*
X133051338Y-45493988D01*
X132579934Y-45682550D02*
X132273521Y-45376137D01*
X132627074Y-45352567D01*
X132556364Y-45281856D01*
X132532793Y-45211145D01*
X132532793Y-45164005D01*
X132556364Y-45093294D01*
X132674215Y-44975443D01*
X132744925Y-44951873D01*
X132792066Y-44951873D01*
X132862777Y-44975443D01*
X133004198Y-45116865D01*
X133027768Y-45187575D01*
X133027768Y-45234716D01*
X132297091Y-44409758D02*
X132579934Y-44692601D01*
X132438512Y-44551179D02*
X131943538Y-45046154D01*
X132061389Y-45022584D01*
X132155670Y-45022584D01*
X132226380Y-45046154D01*
X120278761Y-48577333D02*
X120326380Y-48434476D01*
X120326380Y-48196380D01*
X120278761Y-48101142D01*
X120231142Y-48053523D01*
X120135904Y-48005904D01*
X120040666Y-48005904D01*
X119945428Y-48053523D01*
X119897809Y-48101142D01*
X119850190Y-48196380D01*
X119802571Y-48386857D01*
X119754952Y-48482095D01*
X119707333Y-48529714D01*
X119612095Y-48577333D01*
X119516857Y-48577333D01*
X119421619Y-48529714D01*
X119374000Y-48482095D01*
X119326380Y-48386857D01*
X119326380Y-48148761D01*
X119374000Y-48005904D01*
X119326380Y-47672571D02*
X120326380Y-47434476D01*
X119612095Y-47244000D01*
X120326380Y-47053523D01*
X119326380Y-46815428D01*
X120326380Y-45910666D02*
X120326380Y-46482095D01*
X120326380Y-46196380D02*
X119326380Y-46196380D01*
X119469238Y-46291619D01*
X119564476Y-46386857D01*
X119612095Y-46482095D01*
X109370904Y-40370380D02*
X109370904Y-39370380D01*
X109609000Y-39370380D01*
X109751857Y-39418000D01*
X109847095Y-39513238D01*
X109894714Y-39608476D01*
X109942333Y-39798952D01*
X109942333Y-39941809D01*
X109894714Y-40132285D01*
X109847095Y-40227523D01*
X109751857Y-40322761D01*
X109609000Y-40370380D01*
X109370904Y-40370380D01*
X110323285Y-39465619D02*
X110370904Y-39418000D01*
X110466142Y-39370380D01*
X110704238Y-39370380D01*
X110799476Y-39418000D01*
X110847095Y-39465619D01*
X110894714Y-39560857D01*
X110894714Y-39656095D01*
X110847095Y-39798952D01*
X110275666Y-40370380D01*
X110894714Y-40370380D01*
M02*
