G04 #@! TF.GenerationSoftware,KiCad,Pcbnew,(5.1.5)-3*
G04 #@! TF.CreationDate,2020-09-18T03:21:52-03:00*
G04 #@! TF.ProjectId,Luz de Freio,4c757a20-6465-4204-9672-65696f2e6b69,rev?*
G04 #@! TF.SameCoordinates,Original*
G04 #@! TF.FileFunction,Soldermask,Bot*
G04 #@! TF.FilePolarity,Negative*
%FSLAX46Y46*%
G04 Gerber Fmt 4.6, Leading zero omitted, Abs format (unit mm)*
G04 Created by KiCad (PCBNEW (5.1.5)-3) date 2020-09-18 03:21:52*
%MOMM*%
%LPD*%
G04 APERTURE LIST*
%ADD10C,0.100000*%
G04 APERTURE END LIST*
D10*
G36*
X150035287Y-135100996D02*
G01*
X150272053Y-135199068D01*
X150272055Y-135199069D01*
X150485139Y-135341447D01*
X150666353Y-135522661D01*
X150718174Y-135600216D01*
X150808732Y-135735747D01*
X150906804Y-135972513D01*
X150956800Y-136223861D01*
X150956800Y-136480139D01*
X150906804Y-136731487D01*
X150808732Y-136968253D01*
X150808731Y-136968255D01*
X150666353Y-137181339D01*
X150485139Y-137362553D01*
X150272055Y-137504931D01*
X150272054Y-137504932D01*
X150272053Y-137504932D01*
X150035287Y-137603004D01*
X149783939Y-137653000D01*
X149527661Y-137653000D01*
X149276313Y-137603004D01*
X149039547Y-137504932D01*
X149039546Y-137504932D01*
X149039545Y-137504931D01*
X148826461Y-137362553D01*
X148645247Y-137181339D01*
X148502869Y-136968255D01*
X148502868Y-136968253D01*
X148404796Y-136731487D01*
X148354800Y-136480139D01*
X148354800Y-136223861D01*
X148404796Y-135972513D01*
X148502868Y-135735747D01*
X148593427Y-135600216D01*
X148645247Y-135522661D01*
X148826461Y-135341447D01*
X149039545Y-135199069D01*
X149039547Y-135199068D01*
X149276313Y-135100996D01*
X149527661Y-135051000D01*
X149783939Y-135051000D01*
X150035287Y-135100996D01*
G37*
G36*
X144904487Y-135100996D02*
G01*
X145141253Y-135199068D01*
X145141255Y-135199069D01*
X145354339Y-135341447D01*
X145535553Y-135522661D01*
X145587374Y-135600216D01*
X145677932Y-135735747D01*
X145776004Y-135972513D01*
X145826000Y-136223861D01*
X145826000Y-136480139D01*
X145776004Y-136731487D01*
X145677932Y-136968253D01*
X145677931Y-136968255D01*
X145535553Y-137181339D01*
X145354339Y-137362553D01*
X145141255Y-137504931D01*
X145141254Y-137504932D01*
X145141253Y-137504932D01*
X144904487Y-137603004D01*
X144653139Y-137653000D01*
X144396861Y-137653000D01*
X144145513Y-137603004D01*
X143908747Y-137504932D01*
X143908746Y-137504932D01*
X143908745Y-137504931D01*
X143695661Y-137362553D01*
X143514447Y-137181339D01*
X143372069Y-136968255D01*
X143372068Y-136968253D01*
X143273996Y-136731487D01*
X143224000Y-136480139D01*
X143224000Y-136223861D01*
X143273996Y-135972513D01*
X143372068Y-135735747D01*
X143462627Y-135600216D01*
X143514447Y-135522661D01*
X143695661Y-135341447D01*
X143908745Y-135199069D01*
X143908747Y-135199068D01*
X144145513Y-135100996D01*
X144396861Y-135051000D01*
X144653139Y-135051000D01*
X144904487Y-135100996D01*
G37*
G36*
X225634239Y-129936467D02*
G01*
X225948282Y-129998934D01*
X226539926Y-130244001D01*
X227072392Y-130599784D01*
X227525216Y-131052608D01*
X227880999Y-131585074D01*
X228126066Y-132176718D01*
X228142823Y-132260960D01*
X228251000Y-132804803D01*
X228251000Y-133445197D01*
X228188533Y-133759239D01*
X228126066Y-134073282D01*
X227880999Y-134664926D01*
X227525216Y-135197392D01*
X227072392Y-135650216D01*
X226539926Y-136005999D01*
X225948282Y-136251066D01*
X225634239Y-136313533D01*
X225320197Y-136376000D01*
X224679803Y-136376000D01*
X224365761Y-136313533D01*
X224051718Y-136251066D01*
X223460074Y-136005999D01*
X222927608Y-135650216D01*
X222474784Y-135197392D01*
X222119001Y-134664926D01*
X221873934Y-134073282D01*
X221811467Y-133759239D01*
X221749000Y-133445197D01*
X221749000Y-132804803D01*
X221857177Y-132260960D01*
X221873934Y-132176718D01*
X222119001Y-131585074D01*
X222474784Y-131052608D01*
X222927608Y-130599784D01*
X223460074Y-130244001D01*
X224051718Y-129998934D01*
X224365761Y-129936467D01*
X224679803Y-129874000D01*
X225320197Y-129874000D01*
X225634239Y-129936467D01*
G37*
G36*
X135696563Y-129874000D02*
G01*
X136073282Y-129948934D01*
X136664926Y-130194001D01*
X137197392Y-130549784D01*
X137650216Y-131002608D01*
X138005999Y-131535074D01*
X138251066Y-132126718D01*
X138267823Y-132210960D01*
X138376000Y-132754803D01*
X138376000Y-133395197D01*
X138340036Y-133576000D01*
X138251066Y-134023282D01*
X138005999Y-134614926D01*
X137650216Y-135147392D01*
X137197392Y-135600216D01*
X136664926Y-135955999D01*
X136073282Y-136201066D01*
X135821915Y-136251066D01*
X135445197Y-136326000D01*
X134804803Y-136326000D01*
X134428085Y-136251066D01*
X134176718Y-136201066D01*
X133585074Y-135955999D01*
X133052608Y-135600216D01*
X132599784Y-135147392D01*
X132244001Y-134614926D01*
X131998934Y-134023282D01*
X131909964Y-133576000D01*
X131874000Y-133395197D01*
X131874000Y-132754803D01*
X131982177Y-132210960D01*
X131998934Y-132126718D01*
X132244001Y-131535074D01*
X132599784Y-131002608D01*
X133052608Y-130549784D01*
X133585074Y-130194001D01*
X134176718Y-129948934D01*
X134553437Y-129874000D01*
X134804803Y-129824000D01*
X135445197Y-129824000D01*
X135696563Y-129874000D01*
G37*
G36*
X214904231Y-132619111D02*
G01*
X215231992Y-132754874D01*
X215526970Y-132951972D01*
X215777828Y-133202830D01*
X215974926Y-133497808D01*
X216110689Y-133825569D01*
X216179900Y-134173516D01*
X216179900Y-134528284D01*
X216110689Y-134876231D01*
X215974926Y-135203992D01*
X215777828Y-135498970D01*
X215526970Y-135749828D01*
X215231992Y-135946926D01*
X214904231Y-136082689D01*
X214556284Y-136151900D01*
X214201516Y-136151900D01*
X213853569Y-136082689D01*
X213525808Y-135946926D01*
X213230830Y-135749828D01*
X212979972Y-135498970D01*
X212782874Y-135203992D01*
X212647111Y-134876231D01*
X212577900Y-134528284D01*
X212577900Y-134173516D01*
X212647111Y-133825569D01*
X212782874Y-133497808D01*
X212979972Y-133202830D01*
X213230830Y-132951972D01*
X213525808Y-132754874D01*
X213853569Y-132619111D01*
X214201516Y-132549900D01*
X214556284Y-132549900D01*
X214904231Y-132619111D01*
G37*
G36*
X172875843Y-131924304D02*
G01*
X173127210Y-131974304D01*
X173409474Y-132091221D01*
X173663505Y-132260959D01*
X173879541Y-132476995D01*
X174049279Y-132731026D01*
X174166196Y-133013290D01*
X174195998Y-133163115D01*
X174215855Y-133262940D01*
X174225800Y-133312940D01*
X174225800Y-133618460D01*
X174166196Y-133918110D01*
X174049279Y-134200374D01*
X173879541Y-134454405D01*
X173663505Y-134670441D01*
X173409474Y-134840179D01*
X173127210Y-134957096D01*
X173078927Y-134966700D01*
X172827561Y-135016700D01*
X172522039Y-135016700D01*
X172270673Y-134966700D01*
X172222390Y-134957096D01*
X171940126Y-134840179D01*
X171686095Y-134670441D01*
X171470059Y-134454405D01*
X171300321Y-134200374D01*
X171183404Y-133918110D01*
X171123800Y-133618460D01*
X171123800Y-133312940D01*
X171133746Y-133262940D01*
X171153602Y-133163115D01*
X171183404Y-133013290D01*
X171300321Y-132731026D01*
X171470059Y-132476995D01*
X171686095Y-132260959D01*
X171940126Y-132091221D01*
X172222390Y-131974304D01*
X172473757Y-131924304D01*
X172522039Y-131914700D01*
X172827561Y-131914700D01*
X172875843Y-131924304D01*
G37*
G36*
X160849170Y-131878944D02*
G01*
X161077210Y-131924304D01*
X161359474Y-132041221D01*
X161613505Y-132210959D01*
X161829541Y-132426995D01*
X161999279Y-132681026D01*
X162116196Y-132963290D01*
X162126142Y-133013291D01*
X162175800Y-133262939D01*
X162175800Y-133568461D01*
X162165854Y-133618461D01*
X162116196Y-133868110D01*
X161999279Y-134150374D01*
X161829541Y-134404405D01*
X161613505Y-134620441D01*
X161359474Y-134790179D01*
X161077210Y-134907096D01*
X160927385Y-134936898D01*
X160777561Y-134966700D01*
X160472039Y-134966700D01*
X160322215Y-134936898D01*
X160172390Y-134907096D01*
X159890126Y-134790179D01*
X159636095Y-134620441D01*
X159420059Y-134404405D01*
X159250321Y-134150374D01*
X159133404Y-133868110D01*
X159083746Y-133618461D01*
X159073800Y-133568461D01*
X159073800Y-133262939D01*
X159123458Y-133013291D01*
X159133404Y-132963290D01*
X159250321Y-132681026D01*
X159420059Y-132426995D01*
X159636095Y-132210959D01*
X159890126Y-132041221D01*
X160172390Y-131924304D01*
X160400430Y-131878944D01*
X160472039Y-131864700D01*
X160777561Y-131864700D01*
X160849170Y-131878944D01*
G37*
G36*
X146076000Y-134601000D02*
G01*
X142974000Y-134601000D01*
X142974000Y-131499000D01*
X146076000Y-131499000D01*
X146076000Y-134601000D01*
G37*
G36*
X149954585Y-131528802D02*
G01*
X150104410Y-131558604D01*
X150386674Y-131675521D01*
X150640705Y-131845259D01*
X150856741Y-132061295D01*
X151026479Y-132315326D01*
X151123642Y-132549900D01*
X151143396Y-132597591D01*
X151203000Y-132897239D01*
X151203000Y-133202761D01*
X151185920Y-133288629D01*
X151143396Y-133502410D01*
X151026479Y-133784674D01*
X150856741Y-134038705D01*
X150640705Y-134254741D01*
X150386674Y-134424479D01*
X150104410Y-134541396D01*
X150018789Y-134558427D01*
X149804761Y-134601000D01*
X149499239Y-134601000D01*
X149285211Y-134558427D01*
X149199590Y-134541396D01*
X148917326Y-134424479D01*
X148663295Y-134254741D01*
X148447259Y-134038705D01*
X148277521Y-133784674D01*
X148160604Y-133502410D01*
X148118080Y-133288629D01*
X148101000Y-133202761D01*
X148101000Y-132897239D01*
X148160604Y-132597591D01*
X148180358Y-132549900D01*
X148277521Y-132315326D01*
X148447259Y-132061295D01*
X148663295Y-131845259D01*
X148917326Y-131675521D01*
X149199590Y-131558604D01*
X149349415Y-131528802D01*
X149499239Y-131499000D01*
X149804761Y-131499000D01*
X149954585Y-131528802D01*
G37*
G36*
X161004287Y-119964696D02*
G01*
X161241053Y-120062768D01*
X161241055Y-120062769D01*
X161454139Y-120205147D01*
X161635353Y-120386361D01*
X161777732Y-120599447D01*
X161875804Y-120836213D01*
X161925800Y-121087561D01*
X161925800Y-121343839D01*
X161875804Y-121595187D01*
X161777732Y-121831953D01*
X161777731Y-121831955D01*
X161635353Y-122045039D01*
X161454139Y-122226253D01*
X161241055Y-122368631D01*
X161241054Y-122368632D01*
X161241053Y-122368632D01*
X161004287Y-122466704D01*
X160752939Y-122516700D01*
X160496661Y-122516700D01*
X160245313Y-122466704D01*
X160008547Y-122368632D01*
X160008546Y-122368632D01*
X160008545Y-122368631D01*
X159795461Y-122226253D01*
X159614247Y-122045039D01*
X159471869Y-121831955D01*
X159471868Y-121831953D01*
X159373796Y-121595187D01*
X159323800Y-121343839D01*
X159323800Y-121087561D01*
X159373796Y-120836213D01*
X159471868Y-120599447D01*
X159614247Y-120386361D01*
X159795461Y-120205147D01*
X160008545Y-120062769D01*
X160008547Y-120062768D01*
X160245313Y-119964696D01*
X160496661Y-119914700D01*
X160752939Y-119914700D01*
X161004287Y-119964696D01*
G37*
G36*
X173004287Y-119964696D02*
G01*
X173241053Y-120062768D01*
X173241055Y-120062769D01*
X173454139Y-120205147D01*
X173635353Y-120386361D01*
X173777732Y-120599447D01*
X173875804Y-120836213D01*
X173925800Y-121087561D01*
X173925800Y-121343839D01*
X173875804Y-121595187D01*
X173777732Y-121831953D01*
X173777731Y-121831955D01*
X173635353Y-122045039D01*
X173454139Y-122226253D01*
X173241055Y-122368631D01*
X173241054Y-122368632D01*
X173241053Y-122368632D01*
X173004287Y-122466704D01*
X172752939Y-122516700D01*
X172496661Y-122516700D01*
X172245313Y-122466704D01*
X172008547Y-122368632D01*
X172008546Y-122368632D01*
X172008545Y-122368631D01*
X171795461Y-122226253D01*
X171614247Y-122045039D01*
X171471869Y-121831955D01*
X171471868Y-121831953D01*
X171373796Y-121595187D01*
X171323800Y-121343839D01*
X171323800Y-121087561D01*
X171373796Y-120836213D01*
X171471868Y-120599447D01*
X171614247Y-120386361D01*
X171795461Y-120205147D01*
X172008545Y-120062769D01*
X172008547Y-120062768D01*
X172245313Y-119964696D01*
X172496661Y-119914700D01*
X172752939Y-119914700D01*
X173004287Y-119964696D01*
G37*
G36*
X166977385Y-117744502D02*
G01*
X167127210Y-117774304D01*
X167409474Y-117891221D01*
X167663505Y-118060959D01*
X167879541Y-118276995D01*
X168049279Y-118531026D01*
X168166196Y-118813290D01*
X168225800Y-119112940D01*
X168225800Y-119418460D01*
X168166196Y-119718110D01*
X168049279Y-120000374D01*
X167879541Y-120254405D01*
X167663505Y-120470441D01*
X167409474Y-120640179D01*
X167127210Y-120757096D01*
X166977385Y-120786898D01*
X166827561Y-120816700D01*
X166522039Y-120816700D01*
X166372215Y-120786898D01*
X166222390Y-120757096D01*
X165940126Y-120640179D01*
X165686095Y-120470441D01*
X165470059Y-120254405D01*
X165300321Y-120000374D01*
X165183404Y-119718110D01*
X165123800Y-119418460D01*
X165123800Y-119112940D01*
X165183404Y-118813290D01*
X165300321Y-118531026D01*
X165470059Y-118276995D01*
X165686095Y-118060959D01*
X165940126Y-117891221D01*
X166222390Y-117774304D01*
X166372215Y-117744502D01*
X166522039Y-117714700D01*
X166827561Y-117714700D01*
X166977385Y-117744502D01*
G37*
G36*
X214575620Y-116654420D02*
G01*
X214764781Y-116711801D01*
X214939112Y-116804983D01*
X215091915Y-116930385D01*
X215217317Y-117083188D01*
X215261082Y-117165067D01*
X215310498Y-117257517D01*
X215310499Y-117257520D01*
X215367880Y-117446681D01*
X215382400Y-117594107D01*
X215382400Y-117787694D01*
X215367880Y-117935120D01*
X215310499Y-118124281D01*
X215217317Y-118298612D01*
X215091915Y-118451415D01*
X214939112Y-118576817D01*
X214857233Y-118620582D01*
X214764783Y-118669998D01*
X214764780Y-118669999D01*
X214575619Y-118727380D01*
X214378900Y-118746755D01*
X214182180Y-118727380D01*
X213993019Y-118669999D01*
X213818688Y-118576817D01*
X213665885Y-118451415D01*
X213540483Y-118298612D01*
X213496718Y-118216733D01*
X213447302Y-118124283D01*
X213428093Y-118060959D01*
X213389920Y-117935119D01*
X213375400Y-117787693D01*
X213375400Y-117594106D01*
X213389920Y-117446680D01*
X213447301Y-117257519D01*
X213540483Y-117083188D01*
X213665885Y-116930385D01*
X213818688Y-116804983D01*
X213993020Y-116711801D01*
X214182181Y-116654420D01*
X214378900Y-116635045D01*
X214575620Y-116654420D01*
G37*
G36*
X212035620Y-116654420D02*
G01*
X212224781Y-116711801D01*
X212399112Y-116804983D01*
X212551915Y-116930385D01*
X212677317Y-117083188D01*
X212721082Y-117165067D01*
X212770498Y-117257517D01*
X212770499Y-117257520D01*
X212827880Y-117446681D01*
X212842400Y-117594107D01*
X212842400Y-117787694D01*
X212827880Y-117935120D01*
X212770499Y-118124281D01*
X212677317Y-118298612D01*
X212551915Y-118451415D01*
X212399112Y-118576817D01*
X212317233Y-118620582D01*
X212224783Y-118669998D01*
X212224780Y-118669999D01*
X212035619Y-118727380D01*
X211838900Y-118746755D01*
X211642180Y-118727380D01*
X211453019Y-118669999D01*
X211278688Y-118576817D01*
X211125885Y-118451415D01*
X211000483Y-118298612D01*
X210956718Y-118216733D01*
X210907302Y-118124283D01*
X210888093Y-118060959D01*
X210849920Y-117935119D01*
X210835400Y-117787693D01*
X210835400Y-117594106D01*
X210849920Y-117446680D01*
X210907301Y-117257519D01*
X211000483Y-117083188D01*
X211125885Y-116930385D01*
X211278688Y-116804983D01*
X211453020Y-116711801D01*
X211642181Y-116654420D01*
X211838900Y-116635045D01*
X212035620Y-116654420D01*
G37*
G36*
X217922400Y-118741900D02*
G01*
X215915400Y-118741900D01*
X215915400Y-116639900D01*
X217922400Y-116639900D01*
X217922400Y-118741900D01*
G37*
G36*
X226451000Y-114851000D02*
G01*
X223349000Y-114851000D01*
X223349000Y-111749000D01*
X226451000Y-111749000D01*
X226451000Y-114851000D01*
G37*
G36*
X228581487Y-112048996D02*
G01*
X228818253Y-112147068D01*
X228818255Y-112147069D01*
X229031339Y-112289447D01*
X229212553Y-112470661D01*
X229354932Y-112683747D01*
X229453004Y-112920513D01*
X229503000Y-113171861D01*
X229503000Y-113428139D01*
X229453004Y-113679487D01*
X229354932Y-113916253D01*
X229354931Y-113916255D01*
X229212553Y-114129339D01*
X229031339Y-114310553D01*
X228818255Y-114452931D01*
X228818254Y-114452932D01*
X228818253Y-114452932D01*
X228581487Y-114551004D01*
X228330139Y-114601000D01*
X228073861Y-114601000D01*
X227822513Y-114551004D01*
X227585747Y-114452932D01*
X227585746Y-114452932D01*
X227585745Y-114452931D01*
X227372661Y-114310553D01*
X227191447Y-114129339D01*
X227049069Y-113916255D01*
X227049068Y-113916253D01*
X226950996Y-113679487D01*
X226901000Y-113428139D01*
X226901000Y-113171861D01*
X226950996Y-112920513D01*
X227049068Y-112683747D01*
X227191447Y-112470661D01*
X227372661Y-112289447D01*
X227585745Y-112147069D01*
X227585747Y-112147068D01*
X227822513Y-112048996D01*
X228073861Y-111999000D01*
X228330139Y-111999000D01*
X228581487Y-112048996D01*
G37*
G36*
X225202585Y-106651802D02*
G01*
X225352410Y-106681604D01*
X225634674Y-106798521D01*
X225888705Y-106968259D01*
X226104741Y-107184295D01*
X226274479Y-107438326D01*
X226391396Y-107720590D01*
X226451000Y-108020240D01*
X226451000Y-108325760D01*
X226391396Y-108625410D01*
X226274479Y-108907674D01*
X226104741Y-109161705D01*
X225888705Y-109377741D01*
X225634674Y-109547479D01*
X225352410Y-109664396D01*
X225202585Y-109694198D01*
X225052761Y-109724000D01*
X224747239Y-109724000D01*
X224597415Y-109694198D01*
X224447590Y-109664396D01*
X224165326Y-109547479D01*
X223911295Y-109377741D01*
X223695259Y-109161705D01*
X223525521Y-108907674D01*
X223408604Y-108625410D01*
X223349000Y-108325760D01*
X223349000Y-108020240D01*
X223408604Y-107720590D01*
X223525521Y-107438326D01*
X223695259Y-107184295D01*
X223911295Y-106968259D01*
X224165326Y-106798521D01*
X224447590Y-106681604D01*
X224597415Y-106651802D01*
X224747239Y-106622000D01*
X225052761Y-106622000D01*
X225202585Y-106651802D01*
G37*
G36*
X228581487Y-106918196D02*
G01*
X228818253Y-107016268D01*
X228818255Y-107016269D01*
X229031339Y-107158647D01*
X229212553Y-107339861D01*
X229354932Y-107552947D01*
X229453004Y-107789713D01*
X229503000Y-108041061D01*
X229503000Y-108297339D01*
X229453004Y-108548687D01*
X229421224Y-108625410D01*
X229354931Y-108785455D01*
X229212553Y-108998539D01*
X229031339Y-109179753D01*
X228818255Y-109322131D01*
X228818254Y-109322132D01*
X228818253Y-109322132D01*
X228581487Y-109420204D01*
X228330139Y-109470200D01*
X228073861Y-109470200D01*
X227822513Y-109420204D01*
X227585747Y-109322132D01*
X227585746Y-109322132D01*
X227585745Y-109322131D01*
X227372661Y-109179753D01*
X227191447Y-108998539D01*
X227049069Y-108785455D01*
X226982776Y-108625410D01*
X226950996Y-108548687D01*
X226901000Y-108297339D01*
X226901000Y-108041061D01*
X226950996Y-107789713D01*
X227049068Y-107552947D01*
X227191447Y-107339861D01*
X227372661Y-107158647D01*
X227585745Y-107016269D01*
X227585747Y-107016268D01*
X227822513Y-106918196D01*
X228073861Y-106868200D01*
X228330139Y-106868200D01*
X228581487Y-106918196D01*
G37*
G36*
X225684239Y-96386467D02*
G01*
X225998282Y-96448934D01*
X226589926Y-96694001D01*
X227122392Y-97049784D01*
X227575216Y-97502608D01*
X227930999Y-98035074D01*
X228176066Y-98626718D01*
X228188116Y-98687296D01*
X228301000Y-99254803D01*
X228301000Y-99895197D01*
X228254611Y-100128409D01*
X228176066Y-100523282D01*
X227930999Y-101114926D01*
X227575216Y-101647392D01*
X227122392Y-102100216D01*
X226589926Y-102455999D01*
X225998282Y-102701066D01*
X225684239Y-102763533D01*
X225370197Y-102826000D01*
X224729803Y-102826000D01*
X224415761Y-102763533D01*
X224101718Y-102701066D01*
X223510074Y-102455999D01*
X222977608Y-102100216D01*
X222524784Y-101647392D01*
X222169001Y-101114926D01*
X221923934Y-100523282D01*
X221845389Y-100128409D01*
X221799000Y-99895197D01*
X221799000Y-99254803D01*
X221911884Y-98687296D01*
X221923934Y-98626718D01*
X222169001Y-98035074D01*
X222524784Y-97502608D01*
X222977608Y-97049784D01*
X223510074Y-96694001D01*
X224101718Y-96448934D01*
X224415761Y-96386467D01*
X224729803Y-96324000D01*
X225370197Y-96324000D01*
X225684239Y-96386467D01*
G37*
G36*
X135759239Y-96386467D02*
G01*
X136073282Y-96448934D01*
X136664926Y-96694001D01*
X137197392Y-97049784D01*
X137650216Y-97502608D01*
X138005999Y-98035074D01*
X138251066Y-98626718D01*
X138263116Y-98687296D01*
X138376000Y-99254803D01*
X138376000Y-99895197D01*
X138329611Y-100128409D01*
X138251066Y-100523282D01*
X138005999Y-101114926D01*
X137650216Y-101647392D01*
X137197392Y-102100216D01*
X136664926Y-102455999D01*
X136073282Y-102701066D01*
X135759239Y-102763533D01*
X135445197Y-102826000D01*
X134804803Y-102826000D01*
X134490761Y-102763533D01*
X134176718Y-102701066D01*
X133585074Y-102455999D01*
X133052608Y-102100216D01*
X132599784Y-101647392D01*
X132244001Y-101114926D01*
X131998934Y-100523282D01*
X131920389Y-100128409D01*
X131874000Y-99895197D01*
X131874000Y-99254803D01*
X131986884Y-98687296D01*
X131998934Y-98626718D01*
X132244001Y-98035074D01*
X132599784Y-97502608D01*
X133052608Y-97049784D01*
X133585074Y-96694001D01*
X134176718Y-96448934D01*
X134490761Y-96386467D01*
X134804803Y-96324000D01*
X135445197Y-96324000D01*
X135759239Y-96386467D01*
G37*
G36*
X198717585Y-98154802D02*
G01*
X198867410Y-98184604D01*
X199149674Y-98301521D01*
X199403705Y-98471259D01*
X199619741Y-98687295D01*
X199789479Y-98941326D01*
X199906396Y-99223590D01*
X199912605Y-99254804D01*
X199950129Y-99443448D01*
X199966000Y-99523240D01*
X199966000Y-99828760D01*
X199906396Y-100128410D01*
X199789479Y-100410674D01*
X199619741Y-100664705D01*
X199403705Y-100880741D01*
X199149674Y-101050479D01*
X198867410Y-101167396D01*
X198717585Y-101197198D01*
X198567761Y-101227000D01*
X198262239Y-101227000D01*
X198112415Y-101197198D01*
X197962590Y-101167396D01*
X197680326Y-101050479D01*
X197426295Y-100880741D01*
X197210259Y-100664705D01*
X197040521Y-100410674D01*
X196923604Y-100128410D01*
X196864000Y-99828760D01*
X196864000Y-99523240D01*
X196879872Y-99443448D01*
X196917395Y-99254804D01*
X196923604Y-99223590D01*
X197040521Y-98941326D01*
X197210259Y-98687295D01*
X197426295Y-98471259D01*
X197680326Y-98301521D01*
X197962590Y-98184604D01*
X198112415Y-98154802D01*
X198262239Y-98125000D01*
X198567761Y-98125000D01*
X198717585Y-98154802D01*
G37*
G36*
X205093000Y-101227000D02*
G01*
X201991000Y-101227000D01*
X201991000Y-98125000D01*
X205093000Y-98125000D01*
X205093000Y-101227000D01*
G37*
G36*
X198790687Y-95122996D02*
G01*
X199027453Y-95221068D01*
X199027455Y-95221069D01*
X199240539Y-95363447D01*
X199421753Y-95544661D01*
X199564132Y-95757747D01*
X199662204Y-95994513D01*
X199712200Y-96245861D01*
X199712200Y-96502139D01*
X199662204Y-96753487D01*
X199632712Y-96824686D01*
X199564131Y-96990255D01*
X199421753Y-97203339D01*
X199240539Y-97384553D01*
X199027455Y-97526931D01*
X199027454Y-97526932D01*
X199027453Y-97526932D01*
X198790687Y-97625004D01*
X198539339Y-97675000D01*
X198283061Y-97675000D01*
X198031713Y-97625004D01*
X197794947Y-97526932D01*
X197794946Y-97526932D01*
X197794945Y-97526931D01*
X197581861Y-97384553D01*
X197400647Y-97203339D01*
X197258269Y-96990255D01*
X197189688Y-96824686D01*
X197160196Y-96753487D01*
X197110200Y-96502139D01*
X197110200Y-96245861D01*
X197160196Y-95994513D01*
X197258268Y-95757747D01*
X197400647Y-95544661D01*
X197581861Y-95363447D01*
X197794945Y-95221069D01*
X197794947Y-95221068D01*
X198031713Y-95122996D01*
X198283061Y-95073000D01*
X198539339Y-95073000D01*
X198790687Y-95122996D01*
G37*
G36*
X203921487Y-95122996D02*
G01*
X204158253Y-95221068D01*
X204158255Y-95221069D01*
X204371339Y-95363447D01*
X204552553Y-95544661D01*
X204694932Y-95757747D01*
X204793004Y-95994513D01*
X204843000Y-96245861D01*
X204843000Y-96502139D01*
X204793004Y-96753487D01*
X204763512Y-96824686D01*
X204694931Y-96990255D01*
X204552553Y-97203339D01*
X204371339Y-97384553D01*
X204158255Y-97526931D01*
X204158254Y-97526932D01*
X204158253Y-97526932D01*
X203921487Y-97625004D01*
X203670139Y-97675000D01*
X203413861Y-97675000D01*
X203162513Y-97625004D01*
X202925747Y-97526932D01*
X202925746Y-97526932D01*
X202925745Y-97526931D01*
X202712661Y-97384553D01*
X202531447Y-97203339D01*
X202389069Y-96990255D01*
X202320488Y-96824686D01*
X202290996Y-96753487D01*
X202241000Y-96502139D01*
X202241000Y-96245861D01*
X202290996Y-95994513D01*
X202389068Y-95757747D01*
X202531447Y-95544661D01*
X202712661Y-95363447D01*
X202925745Y-95221069D01*
X202925747Y-95221068D01*
X203162513Y-95122996D01*
X203413861Y-95073000D01*
X203670139Y-95073000D01*
X203921487Y-95122996D01*
G37*
M02*
