G04 #@! TF.GenerationSoftware,KiCad,Pcbnew,(5.1.5)-3*
G04 #@! TF.CreationDate,2020-09-18T03:21:52-03:00*
G04 #@! TF.ProjectId,Luz de Freio,4c757a20-6465-4204-9672-65696f2e6b69,rev?*
G04 #@! TF.SameCoordinates,Original*
G04 #@! TF.FileFunction,Soldermask,Top*
G04 #@! TF.FilePolarity,Negative*
%FSLAX46Y46*%
G04 Gerber Fmt 4.6, Leading zero omitted, Abs format (unit mm)*
G04 Created by KiCad (PCBNEW (5.1.5)-3) date 2020-09-18 03:21:52*
%MOMM*%
%LPD*%
G04 APERTURE LIST*
%ADD10C,0.100000*%
G04 APERTURE END LIST*
D10*
G36*
X150035287Y-135100996D02*
G01*
X150272053Y-135199068D01*
X150272055Y-135199069D01*
X150485139Y-135341447D01*
X150666353Y-135522661D01*
X150804411Y-135729279D01*
X150808732Y-135735747D01*
X150906804Y-135972513D01*
X150956800Y-136223861D01*
X150956800Y-136480139D01*
X150906804Y-136731487D01*
X150846602Y-136876827D01*
X150808731Y-136968255D01*
X150666353Y-137181339D01*
X150485139Y-137362553D01*
X150272055Y-137504931D01*
X150272054Y-137504932D01*
X150272053Y-137504932D01*
X150035287Y-137603004D01*
X149783939Y-137653000D01*
X149527661Y-137653000D01*
X149276313Y-137603004D01*
X149039547Y-137504932D01*
X149039546Y-137504932D01*
X149039545Y-137504931D01*
X148826461Y-137362553D01*
X148645247Y-137181339D01*
X148502869Y-136968255D01*
X148464998Y-136876827D01*
X148404796Y-136731487D01*
X148354800Y-136480139D01*
X148354800Y-136223861D01*
X148404796Y-135972513D01*
X148502868Y-135735747D01*
X148507190Y-135729279D01*
X148645247Y-135522661D01*
X148826461Y-135341447D01*
X149039545Y-135199069D01*
X149039547Y-135199068D01*
X149276313Y-135100996D01*
X149527661Y-135051000D01*
X149783939Y-135051000D01*
X150035287Y-135100996D01*
G37*
G36*
X144904487Y-135100996D02*
G01*
X145141253Y-135199068D01*
X145141255Y-135199069D01*
X145354339Y-135341447D01*
X145535553Y-135522661D01*
X145673611Y-135729279D01*
X145677932Y-135735747D01*
X145776004Y-135972513D01*
X145826000Y-136223861D01*
X145826000Y-136480139D01*
X145776004Y-136731487D01*
X145715802Y-136876827D01*
X145677931Y-136968255D01*
X145535553Y-137181339D01*
X145354339Y-137362553D01*
X145141255Y-137504931D01*
X145141254Y-137504932D01*
X145141253Y-137504932D01*
X144904487Y-137603004D01*
X144653139Y-137653000D01*
X144396861Y-137653000D01*
X144145513Y-137603004D01*
X143908747Y-137504932D01*
X143908746Y-137504932D01*
X143908745Y-137504931D01*
X143695661Y-137362553D01*
X143514447Y-137181339D01*
X143372069Y-136968255D01*
X143334198Y-136876827D01*
X143273996Y-136731487D01*
X143224000Y-136480139D01*
X143224000Y-136223861D01*
X143273996Y-135972513D01*
X143372068Y-135735747D01*
X143376390Y-135729279D01*
X143514447Y-135522661D01*
X143695661Y-135341447D01*
X143908745Y-135199069D01*
X143908747Y-135199068D01*
X144145513Y-135100996D01*
X144396861Y-135051000D01*
X144653139Y-135051000D01*
X144904487Y-135100996D01*
G37*
G36*
X178762674Y-135651465D02*
G01*
X178800367Y-135662899D01*
X178835103Y-135681466D01*
X178865548Y-135706452D01*
X178890534Y-135736897D01*
X178909101Y-135771633D01*
X178920535Y-135809326D01*
X178925000Y-135854661D01*
X178925000Y-136941339D01*
X178920535Y-136986674D01*
X178909101Y-137024367D01*
X178890534Y-137059103D01*
X178865548Y-137089548D01*
X178835103Y-137114534D01*
X178800367Y-137133101D01*
X178762674Y-137144535D01*
X178717339Y-137149000D01*
X177880661Y-137149000D01*
X177835326Y-137144535D01*
X177797633Y-137133101D01*
X177762897Y-137114534D01*
X177732452Y-137089548D01*
X177707466Y-137059103D01*
X177688899Y-137024367D01*
X177677465Y-136986674D01*
X177673000Y-136941339D01*
X177673000Y-135854661D01*
X177677465Y-135809326D01*
X177688899Y-135771633D01*
X177707466Y-135736897D01*
X177732452Y-135706452D01*
X177762897Y-135681466D01*
X177797633Y-135662899D01*
X177835326Y-135651465D01*
X177880661Y-135647000D01*
X178717339Y-135647000D01*
X178762674Y-135651465D01*
G37*
G36*
X180812674Y-135651465D02*
G01*
X180850367Y-135662899D01*
X180885103Y-135681466D01*
X180915548Y-135706452D01*
X180940534Y-135736897D01*
X180959101Y-135771633D01*
X180970535Y-135809326D01*
X180975000Y-135854661D01*
X180975000Y-136941339D01*
X180970535Y-136986674D01*
X180959101Y-137024367D01*
X180940534Y-137059103D01*
X180915548Y-137089548D01*
X180885103Y-137114534D01*
X180850367Y-137133101D01*
X180812674Y-137144535D01*
X180767339Y-137149000D01*
X179930661Y-137149000D01*
X179885326Y-137144535D01*
X179847633Y-137133101D01*
X179812897Y-137114534D01*
X179782452Y-137089548D01*
X179757466Y-137059103D01*
X179738899Y-137024367D01*
X179727465Y-136986674D01*
X179723000Y-136941339D01*
X179723000Y-135854661D01*
X179727465Y-135809326D01*
X179738899Y-135771633D01*
X179757466Y-135736897D01*
X179782452Y-135706452D01*
X179812897Y-135681466D01*
X179847633Y-135662899D01*
X179885326Y-135651465D01*
X179930661Y-135647000D01*
X180767339Y-135647000D01*
X180812674Y-135651465D01*
G37*
G36*
X184056721Y-135360174D02*
G01*
X184156995Y-135401709D01*
X184156996Y-135401710D01*
X184247242Y-135462010D01*
X184323990Y-135538758D01*
X184354345Y-135584188D01*
X184384291Y-135629005D01*
X184425826Y-135729279D01*
X184447000Y-135835730D01*
X184447000Y-135944270D01*
X184425826Y-136050721D01*
X184384291Y-136150995D01*
X184384290Y-136150996D01*
X184323990Y-136241242D01*
X184247242Y-136317990D01*
X184235254Y-136326000D01*
X184156995Y-136378291D01*
X184056721Y-136419826D01*
X183950270Y-136441000D01*
X183841730Y-136441000D01*
X183735279Y-136419826D01*
X183635005Y-136378291D01*
X183556746Y-136326000D01*
X183544758Y-136317990D01*
X183468010Y-136241242D01*
X183407710Y-136150996D01*
X183407709Y-136150995D01*
X183366174Y-136050721D01*
X183345000Y-135944270D01*
X183345000Y-135835730D01*
X183366174Y-135729279D01*
X183407709Y-135629005D01*
X183437655Y-135584188D01*
X183468010Y-135538758D01*
X183544758Y-135462010D01*
X183635004Y-135401710D01*
X183635005Y-135401709D01*
X183735279Y-135360174D01*
X183841730Y-135339000D01*
X183950270Y-135339000D01*
X184056721Y-135360174D01*
G37*
G36*
X225495163Y-129908803D02*
G01*
X225948282Y-129998934D01*
X226539926Y-130244001D01*
X227072392Y-130599784D01*
X227525216Y-131052608D01*
X227880999Y-131585074D01*
X228126066Y-132176718D01*
X228142823Y-132260960D01*
X228251000Y-132804803D01*
X228251000Y-133445197D01*
X228216302Y-133619633D01*
X228126066Y-134073282D01*
X227880999Y-134664926D01*
X227666674Y-134985685D01*
X227525217Y-135197391D01*
X227072391Y-135650217D01*
X226988229Y-135706452D01*
X226539926Y-136005999D01*
X225948282Y-136251066D01*
X225634239Y-136313533D01*
X225320197Y-136376000D01*
X224679803Y-136376000D01*
X224365761Y-136313533D01*
X224051718Y-136251066D01*
X223460074Y-136005999D01*
X223011771Y-135706452D01*
X222927609Y-135650217D01*
X222474783Y-135197391D01*
X222333326Y-134985685D01*
X222119001Y-134664926D01*
X221873934Y-134073282D01*
X221783698Y-133619633D01*
X221749000Y-133445197D01*
X221749000Y-132804803D01*
X221857177Y-132260960D01*
X221873934Y-132176718D01*
X222119001Y-131585074D01*
X222474784Y-131052608D01*
X222927608Y-130599784D01*
X223460074Y-130244001D01*
X224051718Y-129998934D01*
X224504837Y-129908803D01*
X224679803Y-129874000D01*
X225320197Y-129874000D01*
X225495163Y-129908803D01*
G37*
G36*
X135635416Y-129861837D02*
G01*
X136073282Y-129948934D01*
X136664926Y-130194001D01*
X136949129Y-130383900D01*
X137191791Y-130546041D01*
X137197392Y-130549784D01*
X137650216Y-131002608D01*
X138005999Y-131535074D01*
X138251066Y-132126718D01*
X138267823Y-132210960D01*
X138376000Y-132754803D01*
X138376000Y-133395197D01*
X138321185Y-133670772D01*
X138251066Y-134023282D01*
X138005999Y-134614926D01*
X137777368Y-134957096D01*
X137650217Y-135147391D01*
X137197391Y-135600217D01*
X137127375Y-135647000D01*
X136664926Y-135955999D01*
X136073282Y-136201066D01*
X135871303Y-136241242D01*
X135445197Y-136326000D01*
X134804803Y-136326000D01*
X134378697Y-136241242D01*
X134176718Y-136201066D01*
X133585074Y-135955999D01*
X133122625Y-135647000D01*
X133052609Y-135600217D01*
X132599783Y-135147391D01*
X132472632Y-134957096D01*
X132244001Y-134614926D01*
X131998934Y-134023282D01*
X131928815Y-133670772D01*
X131874000Y-133395197D01*
X131874000Y-132754803D01*
X131982177Y-132210960D01*
X131998934Y-132126718D01*
X132244001Y-131535074D01*
X132599784Y-131002608D01*
X133052608Y-130549784D01*
X133058210Y-130546041D01*
X133300871Y-130383900D01*
X133585074Y-130194001D01*
X134176718Y-129948934D01*
X134614584Y-129861837D01*
X134804803Y-129824000D01*
X135445197Y-129824000D01*
X135635416Y-129861837D01*
G37*
G36*
X214904231Y-132619111D02*
G01*
X215231992Y-132754874D01*
X215526970Y-132951972D01*
X215777828Y-133202830D01*
X215974926Y-133497808D01*
X216110689Y-133825569D01*
X216179900Y-134173516D01*
X216179900Y-134528284D01*
X216110689Y-134876231D01*
X215974926Y-135203992D01*
X215777828Y-135498970D01*
X215526970Y-135749828D01*
X215231992Y-135946926D01*
X214904231Y-136082689D01*
X214556284Y-136151900D01*
X214201516Y-136151900D01*
X213853569Y-136082689D01*
X213525808Y-135946926D01*
X213230830Y-135749828D01*
X212979972Y-135498970D01*
X212782874Y-135203992D01*
X212647111Y-134876231D01*
X212577900Y-134528284D01*
X212577900Y-134173516D01*
X212647111Y-133825569D01*
X212782874Y-133497808D01*
X212979972Y-133202830D01*
X213230830Y-132951972D01*
X213525808Y-132754874D01*
X213853569Y-132619111D01*
X214201516Y-132549900D01*
X214556284Y-132549900D01*
X214904231Y-132619111D01*
G37*
G36*
X172875843Y-131924304D02*
G01*
X173127210Y-131974304D01*
X173409474Y-132091221D01*
X173663505Y-132260959D01*
X173879541Y-132476995D01*
X174049279Y-132731026D01*
X174166196Y-133013290D01*
X174195998Y-133163115D01*
X174225800Y-133312939D01*
X174225800Y-133618461D01*
X174215395Y-133670772D01*
X174166196Y-133918110D01*
X174049279Y-134200374D01*
X173879541Y-134454405D01*
X173663505Y-134670441D01*
X173409474Y-134840179D01*
X173127210Y-134957096D01*
X173078927Y-134966700D01*
X172827561Y-135016700D01*
X172522039Y-135016700D01*
X172270673Y-134966700D01*
X172222390Y-134957096D01*
X171940126Y-134840179D01*
X171686095Y-134670441D01*
X171470059Y-134454405D01*
X171300321Y-134200374D01*
X171183404Y-133918110D01*
X171134205Y-133670772D01*
X171123800Y-133618461D01*
X171123800Y-133312939D01*
X171153602Y-133163115D01*
X171183404Y-133013290D01*
X171300321Y-132731026D01*
X171470059Y-132476995D01*
X171686095Y-132260959D01*
X171940126Y-132091221D01*
X172222390Y-131974304D01*
X172473757Y-131924304D01*
X172522039Y-131914700D01*
X172827561Y-131914700D01*
X172875843Y-131924304D01*
G37*
G36*
X160849170Y-131878944D02*
G01*
X161077210Y-131924304D01*
X161359474Y-132041221D01*
X161613505Y-132210959D01*
X161829541Y-132426995D01*
X161999279Y-132681026D01*
X162116196Y-132963290D01*
X162126142Y-133013291D01*
X162175800Y-133262939D01*
X162175800Y-133568461D01*
X162156333Y-133666326D01*
X162116196Y-133868110D01*
X161999279Y-134150374D01*
X161829541Y-134404405D01*
X161613505Y-134620441D01*
X161359474Y-134790179D01*
X161077210Y-134907096D01*
X160927385Y-134936898D01*
X160777561Y-134966700D01*
X160472039Y-134966700D01*
X160322215Y-134936898D01*
X160172390Y-134907096D01*
X159890126Y-134790179D01*
X159636095Y-134620441D01*
X159420059Y-134404405D01*
X159250321Y-134150374D01*
X159133404Y-133868110D01*
X159093267Y-133666326D01*
X159073800Y-133568461D01*
X159073800Y-133262939D01*
X159123458Y-133013291D01*
X159133404Y-132963290D01*
X159250321Y-132681026D01*
X159420059Y-132426995D01*
X159636095Y-132210959D01*
X159890126Y-132041221D01*
X160172390Y-131924304D01*
X160400430Y-131878944D01*
X160472039Y-131864700D01*
X160777561Y-131864700D01*
X160849170Y-131878944D01*
G37*
G36*
X202010674Y-133508465D02*
G01*
X202048367Y-133519899D01*
X202083103Y-133538466D01*
X202113548Y-133563452D01*
X202138534Y-133593897D01*
X202157101Y-133628633D01*
X202168535Y-133666326D01*
X202173000Y-133711661D01*
X202173000Y-134548339D01*
X202168535Y-134593674D01*
X202157101Y-134631367D01*
X202138534Y-134666103D01*
X202113548Y-134696548D01*
X202083103Y-134721534D01*
X202048367Y-134740101D01*
X202010674Y-134751535D01*
X201965339Y-134756000D01*
X200878661Y-134756000D01*
X200833326Y-134751535D01*
X200795633Y-134740101D01*
X200760897Y-134721534D01*
X200730452Y-134696548D01*
X200705466Y-134666103D01*
X200686899Y-134631367D01*
X200675465Y-134593674D01*
X200671000Y-134548339D01*
X200671000Y-133711661D01*
X200675465Y-133666326D01*
X200686899Y-133628633D01*
X200705466Y-133593897D01*
X200730452Y-133563452D01*
X200760897Y-133538466D01*
X200795633Y-133519899D01*
X200833326Y-133508465D01*
X200878661Y-133504000D01*
X201965339Y-133504000D01*
X202010674Y-133508465D01*
G37*
G36*
X204042674Y-133499465D02*
G01*
X204080367Y-133510899D01*
X204115103Y-133529466D01*
X204145548Y-133554452D01*
X204170534Y-133584897D01*
X204189101Y-133619633D01*
X204200535Y-133657326D01*
X204205000Y-133702661D01*
X204205000Y-134539339D01*
X204200535Y-134584674D01*
X204189101Y-134622367D01*
X204170534Y-134657103D01*
X204145548Y-134687548D01*
X204115103Y-134712534D01*
X204080367Y-134731101D01*
X204042674Y-134742535D01*
X203997339Y-134747000D01*
X202910661Y-134747000D01*
X202865326Y-134742535D01*
X202827633Y-134731101D01*
X202792897Y-134712534D01*
X202762452Y-134687548D01*
X202737466Y-134657103D01*
X202718899Y-134622367D01*
X202707465Y-134584674D01*
X202703000Y-134539339D01*
X202703000Y-133702661D01*
X202707465Y-133657326D01*
X202718899Y-133619633D01*
X202737466Y-133584897D01*
X202762452Y-133554452D01*
X202792897Y-133529466D01*
X202827633Y-133510899D01*
X202865326Y-133499465D01*
X202910661Y-133495000D01*
X203997339Y-133495000D01*
X204042674Y-133499465D01*
G37*
G36*
X206074674Y-133490465D02*
G01*
X206112367Y-133501899D01*
X206147103Y-133520466D01*
X206177548Y-133545452D01*
X206202534Y-133575897D01*
X206221101Y-133610633D01*
X206232535Y-133648326D01*
X206237000Y-133693661D01*
X206237000Y-134530339D01*
X206232535Y-134575674D01*
X206221101Y-134613367D01*
X206202534Y-134648103D01*
X206177548Y-134678548D01*
X206147103Y-134703534D01*
X206112367Y-134722101D01*
X206074674Y-134733535D01*
X206029339Y-134738000D01*
X204942661Y-134738000D01*
X204897326Y-134733535D01*
X204859633Y-134722101D01*
X204824897Y-134703534D01*
X204794452Y-134678548D01*
X204769466Y-134648103D01*
X204750899Y-134613367D01*
X204739465Y-134575674D01*
X204735000Y-134530339D01*
X204735000Y-133693661D01*
X204739465Y-133648326D01*
X204750899Y-133610633D01*
X204769466Y-133575897D01*
X204794452Y-133545452D01*
X204824897Y-133520466D01*
X204859633Y-133501899D01*
X204897326Y-133490465D01*
X204942661Y-133486000D01*
X206029339Y-133486000D01*
X206074674Y-133490465D01*
G37*
G36*
X146076000Y-134601000D02*
G01*
X142974000Y-134601000D01*
X142974000Y-131499000D01*
X146076000Y-131499000D01*
X146076000Y-134601000D01*
G37*
G36*
X149934053Y-131524718D02*
G01*
X150104410Y-131558604D01*
X150386674Y-131675521D01*
X150640705Y-131845259D01*
X150856741Y-132061295D01*
X151026479Y-132315326D01*
X151143396Y-132597590D01*
X151162282Y-132692535D01*
X151203000Y-132897239D01*
X151203000Y-133202761D01*
X151185920Y-133288629D01*
X151143396Y-133502410D01*
X151026479Y-133784674D01*
X150856741Y-134038705D01*
X150640705Y-134254741D01*
X150386674Y-134424479D01*
X150104410Y-134541396D01*
X150018789Y-134558427D01*
X149804761Y-134601000D01*
X149499239Y-134601000D01*
X149285211Y-134558427D01*
X149199590Y-134541396D01*
X148917326Y-134424479D01*
X148663295Y-134254741D01*
X148447259Y-134038705D01*
X148277521Y-133784674D01*
X148160604Y-133502410D01*
X148118080Y-133288629D01*
X148101000Y-133202761D01*
X148101000Y-132897239D01*
X148141718Y-132692535D01*
X148160604Y-132597590D01*
X148277521Y-132315326D01*
X148447259Y-132061295D01*
X148663295Y-131845259D01*
X148917326Y-131675521D01*
X149199590Y-131558604D01*
X149369947Y-131524718D01*
X149499239Y-131499000D01*
X149804761Y-131499000D01*
X149934053Y-131524718D01*
G37*
G36*
X207932721Y-133328174D02*
G01*
X208032995Y-133369709D01*
X208032996Y-133369710D01*
X208123242Y-133430010D01*
X208199990Y-133506758D01*
X208221176Y-133538466D01*
X208260291Y-133597005D01*
X208301826Y-133697279D01*
X208323000Y-133803730D01*
X208323000Y-133912270D01*
X208301826Y-134018721D01*
X208260291Y-134118995D01*
X208260290Y-134118996D01*
X208199990Y-134209242D01*
X208123242Y-134285990D01*
X208103159Y-134299409D01*
X208032995Y-134346291D01*
X207932721Y-134387826D01*
X207826270Y-134409000D01*
X207717730Y-134409000D01*
X207611279Y-134387826D01*
X207511005Y-134346291D01*
X207440841Y-134299409D01*
X207420758Y-134285990D01*
X207344010Y-134209242D01*
X207283710Y-134118996D01*
X207283709Y-134118995D01*
X207242174Y-134018721D01*
X207221000Y-133912270D01*
X207221000Y-133803730D01*
X207242174Y-133697279D01*
X207283709Y-133597005D01*
X207322824Y-133538466D01*
X207344010Y-133506758D01*
X207420758Y-133430010D01*
X207511004Y-133369710D01*
X207511005Y-133369709D01*
X207611279Y-133328174D01*
X207717730Y-133307000D01*
X207826270Y-133307000D01*
X207932721Y-133328174D01*
G37*
G36*
X184211328Y-133670164D02*
G01*
X184232409Y-133676560D01*
X184251845Y-133686948D01*
X184268876Y-133700924D01*
X184282852Y-133717955D01*
X184293240Y-133737391D01*
X184299636Y-133758472D01*
X184302400Y-133786540D01*
X184302400Y-134250260D01*
X184299636Y-134278328D01*
X184293240Y-134299409D01*
X184282852Y-134318845D01*
X184268876Y-134335876D01*
X184251845Y-134349852D01*
X184232409Y-134360240D01*
X184211328Y-134366636D01*
X184183260Y-134369400D01*
X182369540Y-134369400D01*
X182341472Y-134366636D01*
X182320391Y-134360240D01*
X182300955Y-134349852D01*
X182283924Y-134335876D01*
X182269948Y-134318845D01*
X182259560Y-134299409D01*
X182253164Y-134278328D01*
X182250400Y-134250260D01*
X182250400Y-133786540D01*
X182253164Y-133758472D01*
X182259560Y-133737391D01*
X182269948Y-133717955D01*
X182283924Y-133700924D01*
X182300955Y-133686948D01*
X182320391Y-133676560D01*
X182341472Y-133670164D01*
X182369540Y-133667400D01*
X184183260Y-133667400D01*
X184211328Y-133670164D01*
G37*
G36*
X179261328Y-133670164D02*
G01*
X179282409Y-133676560D01*
X179301845Y-133686948D01*
X179318876Y-133700924D01*
X179332852Y-133717955D01*
X179343240Y-133737391D01*
X179349636Y-133758472D01*
X179352400Y-133786540D01*
X179352400Y-134250260D01*
X179349636Y-134278328D01*
X179343240Y-134299409D01*
X179332852Y-134318845D01*
X179318876Y-134335876D01*
X179301845Y-134349852D01*
X179282409Y-134360240D01*
X179261328Y-134366636D01*
X179233260Y-134369400D01*
X177419540Y-134369400D01*
X177391472Y-134366636D01*
X177370391Y-134360240D01*
X177350955Y-134349852D01*
X177333924Y-134335876D01*
X177319948Y-134318845D01*
X177309560Y-134299409D01*
X177303164Y-134278328D01*
X177300400Y-134250260D01*
X177300400Y-133786540D01*
X177303164Y-133758472D01*
X177309560Y-133737391D01*
X177319948Y-133717955D01*
X177333924Y-133700924D01*
X177350955Y-133686948D01*
X177370391Y-133676560D01*
X177391472Y-133670164D01*
X177419540Y-133667400D01*
X179233260Y-133667400D01*
X179261328Y-133670164D01*
G37*
G36*
X199001000Y-134226000D02*
G01*
X195999000Y-134226000D01*
X195999000Y-128724000D01*
X199001000Y-128724000D01*
X199001000Y-134226000D01*
G37*
G36*
X189101000Y-134226000D02*
G01*
X186099000Y-134226000D01*
X186099000Y-128724000D01*
X189101000Y-128724000D01*
X189101000Y-134226000D01*
G37*
G36*
X184211328Y-132400164D02*
G01*
X184232409Y-132406560D01*
X184251845Y-132416948D01*
X184268876Y-132430924D01*
X184282852Y-132447955D01*
X184293240Y-132467391D01*
X184299636Y-132488472D01*
X184302400Y-132516540D01*
X184302400Y-132980260D01*
X184299636Y-133008328D01*
X184293240Y-133029409D01*
X184282852Y-133048845D01*
X184268876Y-133065876D01*
X184251845Y-133079852D01*
X184232409Y-133090240D01*
X184211328Y-133096636D01*
X184183260Y-133099400D01*
X182369540Y-133099400D01*
X182341472Y-133096636D01*
X182320391Y-133090240D01*
X182300955Y-133079852D01*
X182283924Y-133065876D01*
X182269948Y-133048845D01*
X182259560Y-133029409D01*
X182253164Y-133008328D01*
X182250400Y-132980260D01*
X182250400Y-132516540D01*
X182253164Y-132488472D01*
X182259560Y-132467391D01*
X182269948Y-132447955D01*
X182283924Y-132430924D01*
X182300955Y-132416948D01*
X182320391Y-132406560D01*
X182341472Y-132400164D01*
X182369540Y-132397400D01*
X184183260Y-132397400D01*
X184211328Y-132400164D01*
G37*
G36*
X179261328Y-132400164D02*
G01*
X179282409Y-132406560D01*
X179301845Y-132416948D01*
X179318876Y-132430924D01*
X179332852Y-132447955D01*
X179343240Y-132467391D01*
X179349636Y-132488472D01*
X179352400Y-132516540D01*
X179352400Y-132980260D01*
X179349636Y-133008328D01*
X179343240Y-133029409D01*
X179332852Y-133048845D01*
X179318876Y-133065876D01*
X179301845Y-133079852D01*
X179282409Y-133090240D01*
X179261328Y-133096636D01*
X179233260Y-133099400D01*
X177419540Y-133099400D01*
X177391472Y-133096636D01*
X177370391Y-133090240D01*
X177350955Y-133079852D01*
X177333924Y-133065876D01*
X177319948Y-133048845D01*
X177309560Y-133029409D01*
X177303164Y-133008328D01*
X177300400Y-132980260D01*
X177300400Y-132516540D01*
X177303164Y-132488472D01*
X177309560Y-132467391D01*
X177319948Y-132447955D01*
X177333924Y-132430924D01*
X177350955Y-132416948D01*
X177370391Y-132406560D01*
X177391472Y-132400164D01*
X177419540Y-132397400D01*
X179233260Y-132397400D01*
X179261328Y-132400164D01*
G37*
G36*
X202010674Y-131458465D02*
G01*
X202048367Y-131469899D01*
X202083103Y-131488466D01*
X202113548Y-131513452D01*
X202138534Y-131543897D01*
X202157101Y-131578633D01*
X202168535Y-131616326D01*
X202173000Y-131661661D01*
X202173000Y-132498339D01*
X202168535Y-132543674D01*
X202157101Y-132581367D01*
X202138534Y-132616103D01*
X202113548Y-132646548D01*
X202083103Y-132671534D01*
X202048367Y-132690101D01*
X202010674Y-132701535D01*
X201965339Y-132706000D01*
X200878661Y-132706000D01*
X200833326Y-132701535D01*
X200795633Y-132690101D01*
X200760897Y-132671534D01*
X200730452Y-132646548D01*
X200705466Y-132616103D01*
X200686899Y-132581367D01*
X200675465Y-132543674D01*
X200671000Y-132498339D01*
X200671000Y-131661661D01*
X200675465Y-131616326D01*
X200686899Y-131578633D01*
X200705466Y-131543897D01*
X200730452Y-131513452D01*
X200760897Y-131488466D01*
X200795633Y-131469899D01*
X200833326Y-131458465D01*
X200878661Y-131454000D01*
X201965339Y-131454000D01*
X202010674Y-131458465D01*
G37*
G36*
X204042674Y-131449465D02*
G01*
X204080367Y-131460899D01*
X204115103Y-131479466D01*
X204145548Y-131504452D01*
X204170534Y-131534897D01*
X204189101Y-131569633D01*
X204200535Y-131607326D01*
X204205000Y-131652661D01*
X204205000Y-132489339D01*
X204200535Y-132534674D01*
X204189101Y-132572367D01*
X204170534Y-132607103D01*
X204145548Y-132637548D01*
X204115103Y-132662534D01*
X204080367Y-132681101D01*
X204042674Y-132692535D01*
X203997339Y-132697000D01*
X202910661Y-132697000D01*
X202865326Y-132692535D01*
X202827633Y-132681101D01*
X202792897Y-132662534D01*
X202762452Y-132637548D01*
X202737466Y-132607103D01*
X202718899Y-132572367D01*
X202707465Y-132534674D01*
X202703000Y-132489339D01*
X202703000Y-131652661D01*
X202707465Y-131607326D01*
X202718899Y-131569633D01*
X202737466Y-131534897D01*
X202762452Y-131504452D01*
X202792897Y-131479466D01*
X202827633Y-131460899D01*
X202865326Y-131449465D01*
X202910661Y-131445000D01*
X203997339Y-131445000D01*
X204042674Y-131449465D01*
G37*
G36*
X206074674Y-131440465D02*
G01*
X206112367Y-131451899D01*
X206147103Y-131470466D01*
X206177548Y-131495452D01*
X206202534Y-131525897D01*
X206221101Y-131560633D01*
X206232535Y-131598326D01*
X206237000Y-131643661D01*
X206237000Y-132480339D01*
X206232535Y-132525674D01*
X206221101Y-132563367D01*
X206202534Y-132598103D01*
X206177548Y-132628548D01*
X206147103Y-132653534D01*
X206112367Y-132672101D01*
X206074674Y-132683535D01*
X206029339Y-132688000D01*
X204942661Y-132688000D01*
X204897326Y-132683535D01*
X204859633Y-132672101D01*
X204824897Y-132653534D01*
X204794452Y-132628548D01*
X204769466Y-132598103D01*
X204750899Y-132563367D01*
X204739465Y-132525674D01*
X204735000Y-132480339D01*
X204735000Y-131643661D01*
X204739465Y-131598326D01*
X204750899Y-131560633D01*
X204769466Y-131525897D01*
X204794452Y-131495452D01*
X204824897Y-131470466D01*
X204859633Y-131451899D01*
X204897326Y-131440465D01*
X204942661Y-131436000D01*
X206029339Y-131436000D01*
X206074674Y-131440465D01*
G37*
G36*
X176352468Y-130784065D02*
G01*
X176391138Y-130795796D01*
X176426777Y-130814846D01*
X176458017Y-130840483D01*
X176483654Y-130871723D01*
X176502704Y-130907362D01*
X176514435Y-130946032D01*
X176519000Y-130992388D01*
X176519000Y-131643612D01*
X176514435Y-131689968D01*
X176502704Y-131728638D01*
X176483654Y-131764277D01*
X176458017Y-131795517D01*
X176426777Y-131821154D01*
X176391138Y-131840204D01*
X176352468Y-131851935D01*
X176306112Y-131856500D01*
X175229888Y-131856500D01*
X175183532Y-131851935D01*
X175144862Y-131840204D01*
X175109223Y-131821154D01*
X175077983Y-131795517D01*
X175052346Y-131764277D01*
X175033296Y-131728638D01*
X175021565Y-131689968D01*
X175017000Y-131643612D01*
X175017000Y-130992388D01*
X175021565Y-130946032D01*
X175033296Y-130907362D01*
X175052346Y-130871723D01*
X175077983Y-130840483D01*
X175109223Y-130814846D01*
X175144862Y-130795796D01*
X175183532Y-130784065D01*
X175229888Y-130779500D01*
X176306112Y-130779500D01*
X176352468Y-130784065D01*
G37*
G36*
X179261328Y-131130164D02*
G01*
X179282409Y-131136560D01*
X179301845Y-131146948D01*
X179318876Y-131160924D01*
X179332852Y-131177955D01*
X179343240Y-131197391D01*
X179349636Y-131218472D01*
X179352400Y-131246540D01*
X179352400Y-131710260D01*
X179349636Y-131738328D01*
X179343240Y-131759409D01*
X179332852Y-131778845D01*
X179318876Y-131795876D01*
X179301845Y-131809852D01*
X179282409Y-131820240D01*
X179261328Y-131826636D01*
X179233260Y-131829400D01*
X177419540Y-131829400D01*
X177391472Y-131826636D01*
X177370391Y-131820240D01*
X177350955Y-131809852D01*
X177333924Y-131795876D01*
X177319948Y-131778845D01*
X177309560Y-131759409D01*
X177303164Y-131738328D01*
X177300400Y-131710260D01*
X177300400Y-131246540D01*
X177303164Y-131218472D01*
X177309560Y-131197391D01*
X177319948Y-131177955D01*
X177333924Y-131160924D01*
X177350955Y-131146948D01*
X177370391Y-131136560D01*
X177391472Y-131130164D01*
X177419540Y-131127400D01*
X179233260Y-131127400D01*
X179261328Y-131130164D01*
G37*
G36*
X184211328Y-131130164D02*
G01*
X184232409Y-131136560D01*
X184251845Y-131146948D01*
X184268876Y-131160924D01*
X184282852Y-131177955D01*
X184293240Y-131197391D01*
X184299636Y-131218472D01*
X184302400Y-131246540D01*
X184302400Y-131710260D01*
X184299636Y-131738328D01*
X184293240Y-131759409D01*
X184282852Y-131778845D01*
X184268876Y-131795876D01*
X184251845Y-131809852D01*
X184232409Y-131820240D01*
X184211328Y-131826636D01*
X184183260Y-131829400D01*
X182369540Y-131829400D01*
X182341472Y-131826636D01*
X182320391Y-131820240D01*
X182300955Y-131809852D01*
X182283924Y-131795876D01*
X182269948Y-131778845D01*
X182259560Y-131759409D01*
X182253164Y-131738328D01*
X182250400Y-131710260D01*
X182250400Y-131246540D01*
X182253164Y-131218472D01*
X182259560Y-131197391D01*
X182269948Y-131177955D01*
X182283924Y-131160924D01*
X182300955Y-131146948D01*
X182320391Y-131136560D01*
X182341472Y-131130164D01*
X182369540Y-131127400D01*
X184183260Y-131127400D01*
X184211328Y-131130164D01*
G37*
G36*
X179261328Y-129860164D02*
G01*
X179282409Y-129866560D01*
X179301845Y-129876948D01*
X179318876Y-129890924D01*
X179332852Y-129907955D01*
X179343240Y-129927391D01*
X179349636Y-129948472D01*
X179352400Y-129976540D01*
X179352400Y-130440260D01*
X179349636Y-130468328D01*
X179343240Y-130489409D01*
X179332852Y-130508845D01*
X179318876Y-130525876D01*
X179301845Y-130539852D01*
X179282409Y-130550240D01*
X179261328Y-130556636D01*
X179233260Y-130559400D01*
X177419540Y-130559400D01*
X177391472Y-130556636D01*
X177370391Y-130550240D01*
X177350955Y-130539852D01*
X177333924Y-130525876D01*
X177319948Y-130508845D01*
X177309560Y-130489409D01*
X177303164Y-130468328D01*
X177300400Y-130440260D01*
X177300400Y-129976540D01*
X177303164Y-129948472D01*
X177309560Y-129927391D01*
X177319948Y-129907955D01*
X177333924Y-129890924D01*
X177350955Y-129876948D01*
X177370391Y-129866560D01*
X177391472Y-129860164D01*
X177419540Y-129857400D01*
X179233260Y-129857400D01*
X179261328Y-129860164D01*
G37*
G36*
X184211328Y-129860164D02*
G01*
X184232409Y-129866560D01*
X184251845Y-129876948D01*
X184268876Y-129890924D01*
X184282852Y-129907955D01*
X184293240Y-129927391D01*
X184299636Y-129948472D01*
X184302400Y-129976540D01*
X184302400Y-130440260D01*
X184299636Y-130468328D01*
X184293240Y-130489409D01*
X184282852Y-130508845D01*
X184268876Y-130525876D01*
X184251845Y-130539852D01*
X184232409Y-130550240D01*
X184211328Y-130556636D01*
X184183260Y-130559400D01*
X182369540Y-130559400D01*
X182341472Y-130556636D01*
X182320391Y-130550240D01*
X182300955Y-130539852D01*
X182283924Y-130525876D01*
X182269948Y-130508845D01*
X182259560Y-130489409D01*
X182253164Y-130468328D01*
X182250400Y-130440260D01*
X182250400Y-129976540D01*
X182253164Y-129948472D01*
X182259560Y-129927391D01*
X182269948Y-129907955D01*
X182283924Y-129890924D01*
X182300955Y-129876948D01*
X182320391Y-129866560D01*
X182341472Y-129860164D01*
X182369540Y-129857400D01*
X184183260Y-129857400D01*
X184211328Y-129860164D01*
G37*
G36*
X176352468Y-128909065D02*
G01*
X176391138Y-128920796D01*
X176426777Y-128939846D01*
X176458017Y-128965483D01*
X176483654Y-128996723D01*
X176502704Y-129032362D01*
X176514435Y-129071032D01*
X176519000Y-129117388D01*
X176519000Y-129768612D01*
X176514435Y-129814968D01*
X176502704Y-129853638D01*
X176483654Y-129889277D01*
X176458017Y-129920517D01*
X176426777Y-129946154D01*
X176391138Y-129965204D01*
X176352468Y-129976935D01*
X176306112Y-129981500D01*
X175229888Y-129981500D01*
X175183532Y-129976935D01*
X175144862Y-129965204D01*
X175109223Y-129946154D01*
X175077983Y-129920517D01*
X175052346Y-129889277D01*
X175033296Y-129853638D01*
X175021565Y-129814968D01*
X175017000Y-129768612D01*
X175017000Y-129117388D01*
X175021565Y-129071032D01*
X175033296Y-129032362D01*
X175052346Y-128996723D01*
X175077983Y-128965483D01*
X175109223Y-128939846D01*
X175144862Y-128920796D01*
X175183532Y-128909065D01*
X175229888Y-128904500D01*
X176306112Y-128904500D01*
X176352468Y-128909065D01*
G37*
G36*
X178763674Y-127300465D02*
G01*
X178801367Y-127311899D01*
X178836103Y-127330466D01*
X178866548Y-127355452D01*
X178891534Y-127385897D01*
X178910101Y-127420633D01*
X178921535Y-127458326D01*
X178926000Y-127503661D01*
X178926000Y-128590339D01*
X178921535Y-128635674D01*
X178910101Y-128673367D01*
X178891534Y-128708103D01*
X178866548Y-128738548D01*
X178836103Y-128763534D01*
X178801367Y-128782101D01*
X178763674Y-128793535D01*
X178718339Y-128798000D01*
X177881661Y-128798000D01*
X177836326Y-128793535D01*
X177798633Y-128782101D01*
X177763897Y-128763534D01*
X177733452Y-128738548D01*
X177708466Y-128708103D01*
X177689899Y-128673367D01*
X177678465Y-128635674D01*
X177674000Y-128590339D01*
X177674000Y-127503661D01*
X177678465Y-127458326D01*
X177689899Y-127420633D01*
X177708466Y-127385897D01*
X177733452Y-127355452D01*
X177763897Y-127330466D01*
X177798633Y-127311899D01*
X177836326Y-127300465D01*
X177881661Y-127296000D01*
X178718339Y-127296000D01*
X178763674Y-127300465D01*
G37*
G36*
X180813674Y-127300465D02*
G01*
X180851367Y-127311899D01*
X180886103Y-127330466D01*
X180916548Y-127355452D01*
X180941534Y-127385897D01*
X180960101Y-127420633D01*
X180971535Y-127458326D01*
X180976000Y-127503661D01*
X180976000Y-128590339D01*
X180971535Y-128635674D01*
X180960101Y-128673367D01*
X180941534Y-128708103D01*
X180916548Y-128738548D01*
X180886103Y-128763534D01*
X180851367Y-128782101D01*
X180813674Y-128793535D01*
X180768339Y-128798000D01*
X179931661Y-128798000D01*
X179886326Y-128793535D01*
X179848633Y-128782101D01*
X179813897Y-128763534D01*
X179783452Y-128738548D01*
X179758466Y-128708103D01*
X179739899Y-128673367D01*
X179728465Y-128635674D01*
X179724000Y-128590339D01*
X179724000Y-127503661D01*
X179728465Y-127458326D01*
X179739899Y-127420633D01*
X179758466Y-127385897D01*
X179783452Y-127355452D01*
X179813897Y-127330466D01*
X179848633Y-127311899D01*
X179886326Y-127300465D01*
X179931661Y-127296000D01*
X180768339Y-127296000D01*
X180813674Y-127300465D01*
G37*
G36*
X154260721Y-126895174D02*
G01*
X154360995Y-126936709D01*
X154360996Y-126936710D01*
X154451242Y-126997010D01*
X154527990Y-127073758D01*
X154527991Y-127073760D01*
X154588291Y-127164005D01*
X154629826Y-127264279D01*
X154651000Y-127370730D01*
X154651000Y-127479270D01*
X154629826Y-127585721D01*
X154588291Y-127685995D01*
X154588290Y-127685996D01*
X154527990Y-127776242D01*
X154451242Y-127852990D01*
X154414886Y-127877282D01*
X154360995Y-127913291D01*
X154260721Y-127954826D01*
X154154270Y-127976000D01*
X154045730Y-127976000D01*
X153939279Y-127954826D01*
X153839005Y-127913291D01*
X153785114Y-127877282D01*
X153748758Y-127852990D01*
X153672010Y-127776242D01*
X153611710Y-127685996D01*
X153611709Y-127685995D01*
X153570174Y-127585721D01*
X153549000Y-127479270D01*
X153549000Y-127370730D01*
X153570174Y-127264279D01*
X153611709Y-127164005D01*
X153672009Y-127073760D01*
X153672010Y-127073758D01*
X153748758Y-126997010D01*
X153839004Y-126936710D01*
X153839005Y-126936709D01*
X153939279Y-126895174D01*
X154045730Y-126874000D01*
X154154270Y-126874000D01*
X154260721Y-126895174D01*
G37*
G36*
X206074674Y-126650465D02*
G01*
X206112367Y-126661899D01*
X206147103Y-126680466D01*
X206177548Y-126705452D01*
X206202534Y-126735897D01*
X206221101Y-126770633D01*
X206232535Y-126808326D01*
X206237000Y-126853661D01*
X206237000Y-127690339D01*
X206232535Y-127735674D01*
X206221101Y-127773367D01*
X206202534Y-127808103D01*
X206177548Y-127838548D01*
X206147103Y-127863534D01*
X206112367Y-127882101D01*
X206074674Y-127893535D01*
X206029339Y-127898000D01*
X204942661Y-127898000D01*
X204897326Y-127893535D01*
X204859633Y-127882101D01*
X204824897Y-127863534D01*
X204794452Y-127838548D01*
X204769466Y-127808103D01*
X204750899Y-127773367D01*
X204739465Y-127735674D01*
X204735000Y-127690339D01*
X204735000Y-126853661D01*
X204739465Y-126808326D01*
X204750899Y-126770633D01*
X204769466Y-126735897D01*
X204794452Y-126705452D01*
X204824897Y-126680466D01*
X204859633Y-126661899D01*
X204897326Y-126650465D01*
X204942661Y-126646000D01*
X206029339Y-126646000D01*
X206074674Y-126650465D01*
G37*
G36*
X204042674Y-126641465D02*
G01*
X204080367Y-126652899D01*
X204115103Y-126671466D01*
X204145548Y-126696452D01*
X204170534Y-126726897D01*
X204189101Y-126761633D01*
X204200535Y-126799326D01*
X204205000Y-126844661D01*
X204205000Y-127681339D01*
X204200535Y-127726674D01*
X204189101Y-127764367D01*
X204170534Y-127799103D01*
X204145548Y-127829548D01*
X204115103Y-127854534D01*
X204080367Y-127873101D01*
X204042674Y-127884535D01*
X203997339Y-127889000D01*
X202910661Y-127889000D01*
X202865326Y-127884535D01*
X202827633Y-127873101D01*
X202792897Y-127854534D01*
X202762452Y-127829548D01*
X202737466Y-127799103D01*
X202718899Y-127764367D01*
X202707465Y-127726674D01*
X202703000Y-127681339D01*
X202703000Y-126844661D01*
X202707465Y-126799326D01*
X202718899Y-126761633D01*
X202737466Y-126726897D01*
X202762452Y-126696452D01*
X202792897Y-126671466D01*
X202827633Y-126652899D01*
X202865326Y-126641465D01*
X202910661Y-126637000D01*
X203997339Y-126637000D01*
X204042674Y-126641465D01*
G37*
G36*
X208106674Y-126641465D02*
G01*
X208144367Y-126652899D01*
X208179103Y-126671466D01*
X208209548Y-126696452D01*
X208234534Y-126726897D01*
X208253101Y-126761633D01*
X208264535Y-126799326D01*
X208269000Y-126844661D01*
X208269000Y-127681339D01*
X208264535Y-127726674D01*
X208253101Y-127764367D01*
X208234534Y-127799103D01*
X208209548Y-127829548D01*
X208179103Y-127854534D01*
X208144367Y-127873101D01*
X208106674Y-127884535D01*
X208061339Y-127889000D01*
X206974661Y-127889000D01*
X206929326Y-127884535D01*
X206891633Y-127873101D01*
X206856897Y-127854534D01*
X206826452Y-127829548D01*
X206801466Y-127799103D01*
X206782899Y-127764367D01*
X206771465Y-127726674D01*
X206767000Y-127681339D01*
X206767000Y-126844661D01*
X206771465Y-126799326D01*
X206782899Y-126761633D01*
X206801466Y-126726897D01*
X206826452Y-126696452D01*
X206856897Y-126671466D01*
X206891633Y-126652899D01*
X206929326Y-126641465D01*
X206974661Y-126637000D01*
X208061339Y-126637000D01*
X208106674Y-126641465D01*
G37*
G36*
X202010674Y-126641465D02*
G01*
X202048367Y-126652899D01*
X202083103Y-126671466D01*
X202113548Y-126696452D01*
X202138534Y-126726897D01*
X202157101Y-126761633D01*
X202168535Y-126799326D01*
X202173000Y-126844661D01*
X202173000Y-127681339D01*
X202168535Y-127726674D01*
X202157101Y-127764367D01*
X202138534Y-127799103D01*
X202113548Y-127829548D01*
X202083103Y-127854534D01*
X202048367Y-127873101D01*
X202010674Y-127884535D01*
X201965339Y-127889000D01*
X200878661Y-127889000D01*
X200833326Y-127884535D01*
X200795633Y-127873101D01*
X200760897Y-127854534D01*
X200730452Y-127829548D01*
X200705466Y-127799103D01*
X200686899Y-127764367D01*
X200675465Y-127726674D01*
X200671000Y-127681339D01*
X200671000Y-126844661D01*
X200675465Y-126799326D01*
X200686899Y-126761633D01*
X200705466Y-126726897D01*
X200730452Y-126696452D01*
X200760897Y-126671466D01*
X200795633Y-126652899D01*
X200833326Y-126641465D01*
X200878661Y-126637000D01*
X201965339Y-126637000D01*
X202010674Y-126641465D01*
G37*
G36*
X206074674Y-124600465D02*
G01*
X206112367Y-124611899D01*
X206147103Y-124630466D01*
X206177548Y-124655452D01*
X206202534Y-124685897D01*
X206221101Y-124720633D01*
X206232535Y-124758326D01*
X206237000Y-124803661D01*
X206237000Y-125640339D01*
X206232535Y-125685674D01*
X206221101Y-125723367D01*
X206202534Y-125758103D01*
X206177548Y-125788548D01*
X206147103Y-125813534D01*
X206112367Y-125832101D01*
X206074674Y-125843535D01*
X206029339Y-125848000D01*
X204942661Y-125848000D01*
X204897326Y-125843535D01*
X204859633Y-125832101D01*
X204824897Y-125813534D01*
X204794452Y-125788548D01*
X204769466Y-125758103D01*
X204750899Y-125723367D01*
X204739465Y-125685674D01*
X204735000Y-125640339D01*
X204735000Y-124803661D01*
X204739465Y-124758326D01*
X204750899Y-124720633D01*
X204769466Y-124685897D01*
X204794452Y-124655452D01*
X204824897Y-124630466D01*
X204859633Y-124611899D01*
X204897326Y-124600465D01*
X204942661Y-124596000D01*
X206029339Y-124596000D01*
X206074674Y-124600465D01*
G37*
G36*
X208106674Y-124591465D02*
G01*
X208144367Y-124602899D01*
X208179103Y-124621466D01*
X208209548Y-124646452D01*
X208234534Y-124676897D01*
X208253101Y-124711633D01*
X208264535Y-124749326D01*
X208269000Y-124794661D01*
X208269000Y-125631339D01*
X208264535Y-125676674D01*
X208253101Y-125714367D01*
X208234534Y-125749103D01*
X208209548Y-125779548D01*
X208179103Y-125804534D01*
X208144367Y-125823101D01*
X208106674Y-125834535D01*
X208061339Y-125839000D01*
X206974661Y-125839000D01*
X206929326Y-125834535D01*
X206891633Y-125823101D01*
X206856897Y-125804534D01*
X206826452Y-125779548D01*
X206801466Y-125749103D01*
X206782899Y-125714367D01*
X206771465Y-125676674D01*
X206767000Y-125631339D01*
X206767000Y-124794661D01*
X206771465Y-124749326D01*
X206782899Y-124711633D01*
X206801466Y-124676897D01*
X206826452Y-124646452D01*
X206856897Y-124621466D01*
X206891633Y-124602899D01*
X206929326Y-124591465D01*
X206974661Y-124587000D01*
X208061339Y-124587000D01*
X208106674Y-124591465D01*
G37*
G36*
X204042674Y-124591465D02*
G01*
X204080367Y-124602899D01*
X204115103Y-124621466D01*
X204145548Y-124646452D01*
X204170534Y-124676897D01*
X204189101Y-124711633D01*
X204200535Y-124749326D01*
X204205000Y-124794661D01*
X204205000Y-125631339D01*
X204200535Y-125676674D01*
X204189101Y-125714367D01*
X204170534Y-125749103D01*
X204145548Y-125779548D01*
X204115103Y-125804534D01*
X204080367Y-125823101D01*
X204042674Y-125834535D01*
X203997339Y-125839000D01*
X202910661Y-125839000D01*
X202865326Y-125834535D01*
X202827633Y-125823101D01*
X202792897Y-125804534D01*
X202762452Y-125779548D01*
X202737466Y-125749103D01*
X202718899Y-125714367D01*
X202707465Y-125676674D01*
X202703000Y-125631339D01*
X202703000Y-124794661D01*
X202707465Y-124749326D01*
X202718899Y-124711633D01*
X202737466Y-124676897D01*
X202762452Y-124646452D01*
X202792897Y-124621466D01*
X202827633Y-124602899D01*
X202865326Y-124591465D01*
X202910661Y-124587000D01*
X203997339Y-124587000D01*
X204042674Y-124591465D01*
G37*
G36*
X202010674Y-124591465D02*
G01*
X202048367Y-124602899D01*
X202083103Y-124621466D01*
X202113548Y-124646452D01*
X202138534Y-124676897D01*
X202157101Y-124711633D01*
X202168535Y-124749326D01*
X202173000Y-124794661D01*
X202173000Y-125631339D01*
X202168535Y-125676674D01*
X202157101Y-125714367D01*
X202138534Y-125749103D01*
X202113548Y-125779548D01*
X202083103Y-125804534D01*
X202048367Y-125823101D01*
X202010674Y-125834535D01*
X201965339Y-125839000D01*
X200878661Y-125839000D01*
X200833326Y-125834535D01*
X200795633Y-125823101D01*
X200760897Y-125804534D01*
X200730452Y-125779548D01*
X200705466Y-125749103D01*
X200686899Y-125714367D01*
X200675465Y-125676674D01*
X200671000Y-125631339D01*
X200671000Y-124794661D01*
X200675465Y-124749326D01*
X200686899Y-124711633D01*
X200705466Y-124676897D01*
X200730452Y-124646452D01*
X200760897Y-124621466D01*
X200795633Y-124602899D01*
X200833326Y-124591465D01*
X200878661Y-124587000D01*
X201965339Y-124587000D01*
X202010674Y-124591465D01*
G37*
G36*
X183215468Y-124253565D02*
G01*
X183254138Y-124265296D01*
X183289777Y-124284346D01*
X183321017Y-124309983D01*
X183346654Y-124341223D01*
X183365704Y-124376862D01*
X183377435Y-124415532D01*
X183382000Y-124461888D01*
X183382000Y-125113112D01*
X183377435Y-125159468D01*
X183365704Y-125198138D01*
X183346654Y-125233777D01*
X183321017Y-125265017D01*
X183289777Y-125290654D01*
X183254138Y-125309704D01*
X183215468Y-125321435D01*
X183169112Y-125326000D01*
X182092888Y-125326000D01*
X182046532Y-125321435D01*
X182007862Y-125309704D01*
X181972223Y-125290654D01*
X181940983Y-125265017D01*
X181915346Y-125233777D01*
X181896296Y-125198138D01*
X181884565Y-125159468D01*
X181880000Y-125113112D01*
X181880000Y-124461888D01*
X181884565Y-124415532D01*
X181896296Y-124376862D01*
X181915346Y-124341223D01*
X181940983Y-124309983D01*
X181972223Y-124284346D01*
X182007862Y-124265296D01*
X182046532Y-124253565D01*
X182092888Y-124249000D01*
X183169112Y-124249000D01*
X183215468Y-124253565D01*
G37*
G36*
X153468400Y-124229200D02*
G01*
X150366400Y-124229200D01*
X150366400Y-119127200D01*
X153468400Y-119127200D01*
X153468400Y-124229200D01*
G37*
G36*
X189584928Y-122756764D02*
G01*
X189606009Y-122763160D01*
X189625445Y-122773548D01*
X189642476Y-122787524D01*
X189656452Y-122804555D01*
X189666840Y-122823991D01*
X189673236Y-122845072D01*
X189676000Y-122873140D01*
X189676000Y-123336860D01*
X189673236Y-123364928D01*
X189666840Y-123386009D01*
X189656452Y-123405445D01*
X189642476Y-123422476D01*
X189625445Y-123436452D01*
X189606009Y-123446840D01*
X189584928Y-123453236D01*
X189556860Y-123456000D01*
X187743140Y-123456000D01*
X187715072Y-123453236D01*
X187693991Y-123446840D01*
X187674555Y-123436452D01*
X187657524Y-123422476D01*
X187643548Y-123405445D01*
X187633160Y-123386009D01*
X187626764Y-123364928D01*
X187624000Y-123336860D01*
X187624000Y-122873140D01*
X187626764Y-122845072D01*
X187633160Y-122823991D01*
X187643548Y-122804555D01*
X187657524Y-122787524D01*
X187674555Y-122773548D01*
X187693991Y-122763160D01*
X187715072Y-122756764D01*
X187743140Y-122754000D01*
X189556860Y-122754000D01*
X189584928Y-122756764D01*
G37*
G36*
X194534928Y-122756764D02*
G01*
X194556009Y-122763160D01*
X194575445Y-122773548D01*
X194592476Y-122787524D01*
X194606452Y-122804555D01*
X194616840Y-122823991D01*
X194623236Y-122845072D01*
X194626000Y-122873140D01*
X194626000Y-123336860D01*
X194623236Y-123364928D01*
X194616840Y-123386009D01*
X194606452Y-123405445D01*
X194592476Y-123422476D01*
X194575445Y-123436452D01*
X194556009Y-123446840D01*
X194534928Y-123453236D01*
X194506860Y-123456000D01*
X192693140Y-123456000D01*
X192665072Y-123453236D01*
X192643991Y-123446840D01*
X192624555Y-123436452D01*
X192607524Y-123422476D01*
X192593548Y-123405445D01*
X192583160Y-123386009D01*
X192576764Y-123364928D01*
X192574000Y-123336860D01*
X192574000Y-122873140D01*
X192576764Y-122845072D01*
X192583160Y-122823991D01*
X192593548Y-122804555D01*
X192607524Y-122787524D01*
X192624555Y-122773548D01*
X192643991Y-122763160D01*
X192665072Y-122756764D01*
X192693140Y-122754000D01*
X194506860Y-122754000D01*
X194534928Y-122756764D01*
G37*
G36*
X183215468Y-122378565D02*
G01*
X183254138Y-122390296D01*
X183289777Y-122409346D01*
X183321017Y-122434983D01*
X183346654Y-122466223D01*
X183365704Y-122501862D01*
X183377435Y-122540532D01*
X183382000Y-122586888D01*
X183382000Y-123238112D01*
X183377435Y-123284468D01*
X183365704Y-123323138D01*
X183346654Y-123358777D01*
X183321017Y-123390017D01*
X183289777Y-123415654D01*
X183254138Y-123434704D01*
X183215468Y-123446435D01*
X183169112Y-123451000D01*
X182092888Y-123451000D01*
X182046532Y-123446435D01*
X182007862Y-123434704D01*
X181972223Y-123415654D01*
X181940983Y-123390017D01*
X181915346Y-123358777D01*
X181896296Y-123323138D01*
X181884565Y-123284468D01*
X181880000Y-123238112D01*
X181880000Y-122586888D01*
X181884565Y-122540532D01*
X181896296Y-122501862D01*
X181915346Y-122466223D01*
X181940983Y-122434983D01*
X181972223Y-122409346D01*
X182007862Y-122390296D01*
X182046532Y-122378565D01*
X182092888Y-122374000D01*
X183169112Y-122374000D01*
X183215468Y-122378565D01*
G37*
G36*
X145323000Y-123279000D02*
G01*
X143221000Y-123279000D01*
X143221000Y-121577000D01*
X145323000Y-121577000D01*
X145323000Y-123279000D01*
G37*
G36*
X173004287Y-119964696D02*
G01*
X173213060Y-120051173D01*
X173241055Y-120062769D01*
X173454139Y-120205147D01*
X173635353Y-120386361D01*
X173775249Y-120595730D01*
X173777732Y-120599447D01*
X173875804Y-120836213D01*
X173925800Y-121087561D01*
X173925800Y-121343839D01*
X173875804Y-121595187D01*
X173823762Y-121720826D01*
X173777731Y-121831955D01*
X173635353Y-122045039D01*
X173454139Y-122226253D01*
X173241055Y-122368631D01*
X173241054Y-122368632D01*
X173241053Y-122368632D01*
X173004287Y-122466704D01*
X172752939Y-122516700D01*
X172496661Y-122516700D01*
X172245313Y-122466704D01*
X172008547Y-122368632D01*
X172008546Y-122368632D01*
X172008545Y-122368631D01*
X171795461Y-122226253D01*
X171614247Y-122045039D01*
X171471869Y-121831955D01*
X171425838Y-121720826D01*
X171373796Y-121595187D01*
X171323800Y-121343839D01*
X171323800Y-121087561D01*
X171373796Y-120836213D01*
X171471868Y-120599447D01*
X171474352Y-120595730D01*
X171614247Y-120386361D01*
X171795461Y-120205147D01*
X172008545Y-120062769D01*
X172036540Y-120051173D01*
X172245313Y-119964696D01*
X172496661Y-119914700D01*
X172752939Y-119914700D01*
X173004287Y-119964696D01*
G37*
G36*
X161004287Y-119964696D02*
G01*
X161213060Y-120051173D01*
X161241055Y-120062769D01*
X161454139Y-120205147D01*
X161635353Y-120386361D01*
X161775249Y-120595730D01*
X161777732Y-120599447D01*
X161875804Y-120836213D01*
X161925800Y-121087561D01*
X161925800Y-121343839D01*
X161875804Y-121595187D01*
X161823762Y-121720826D01*
X161777731Y-121831955D01*
X161635353Y-122045039D01*
X161454139Y-122226253D01*
X161241055Y-122368631D01*
X161241054Y-122368632D01*
X161241053Y-122368632D01*
X161004287Y-122466704D01*
X160752939Y-122516700D01*
X160496661Y-122516700D01*
X160245313Y-122466704D01*
X160008547Y-122368632D01*
X160008546Y-122368632D01*
X160008545Y-122368631D01*
X159795461Y-122226253D01*
X159614247Y-122045039D01*
X159471869Y-121831955D01*
X159425838Y-121720826D01*
X159373796Y-121595187D01*
X159323800Y-121343839D01*
X159323800Y-121087561D01*
X159373796Y-120836213D01*
X159471868Y-120599447D01*
X159474352Y-120595730D01*
X159614247Y-120386361D01*
X159795461Y-120205147D01*
X160008545Y-120062769D01*
X160036540Y-120051173D01*
X160245313Y-119964696D01*
X160496661Y-119914700D01*
X160752939Y-119914700D01*
X161004287Y-119964696D01*
G37*
G36*
X189584928Y-121486764D02*
G01*
X189606009Y-121493160D01*
X189625445Y-121503548D01*
X189642476Y-121517524D01*
X189656452Y-121534555D01*
X189666840Y-121553991D01*
X189673236Y-121575072D01*
X189676000Y-121603140D01*
X189676000Y-122066860D01*
X189673236Y-122094928D01*
X189666840Y-122116009D01*
X189656452Y-122135445D01*
X189642476Y-122152476D01*
X189625445Y-122166452D01*
X189606009Y-122176840D01*
X189584928Y-122183236D01*
X189556860Y-122186000D01*
X187743140Y-122186000D01*
X187715072Y-122183236D01*
X187693991Y-122176840D01*
X187674555Y-122166452D01*
X187657524Y-122152476D01*
X187643548Y-122135445D01*
X187633160Y-122116009D01*
X187626764Y-122094928D01*
X187624000Y-122066860D01*
X187624000Y-121603140D01*
X187626764Y-121575072D01*
X187633160Y-121553991D01*
X187643548Y-121534555D01*
X187657524Y-121517524D01*
X187674555Y-121503548D01*
X187693991Y-121493160D01*
X187715072Y-121486764D01*
X187743140Y-121484000D01*
X189556860Y-121484000D01*
X189584928Y-121486764D01*
G37*
G36*
X194534928Y-121486764D02*
G01*
X194556009Y-121493160D01*
X194575445Y-121503548D01*
X194592476Y-121517524D01*
X194606452Y-121534555D01*
X194616840Y-121553991D01*
X194623236Y-121575072D01*
X194626000Y-121603140D01*
X194626000Y-122066860D01*
X194623236Y-122094928D01*
X194616840Y-122116009D01*
X194606452Y-122135445D01*
X194592476Y-122152476D01*
X194575445Y-122166452D01*
X194556009Y-122176840D01*
X194534928Y-122183236D01*
X194506860Y-122186000D01*
X192693140Y-122186000D01*
X192665072Y-122183236D01*
X192643991Y-122176840D01*
X192624555Y-122166452D01*
X192607524Y-122152476D01*
X192593548Y-122135445D01*
X192583160Y-122116009D01*
X192576764Y-122094928D01*
X192574000Y-122066860D01*
X192574000Y-121603140D01*
X192576764Y-121575072D01*
X192583160Y-121553991D01*
X192593548Y-121534555D01*
X192607524Y-121517524D01*
X192624555Y-121503548D01*
X192643991Y-121493160D01*
X192665072Y-121486764D01*
X192693140Y-121484000D01*
X194506860Y-121484000D01*
X194534928Y-121486764D01*
G37*
G36*
X181165468Y-120653565D02*
G01*
X181204138Y-120665296D01*
X181239777Y-120684346D01*
X181271017Y-120709983D01*
X181296654Y-120741223D01*
X181315704Y-120776862D01*
X181327435Y-120815532D01*
X181332000Y-120861888D01*
X181332000Y-121513112D01*
X181327435Y-121559468D01*
X181315704Y-121598138D01*
X181296654Y-121633777D01*
X181271017Y-121665017D01*
X181239777Y-121690654D01*
X181204138Y-121709704D01*
X181165468Y-121721435D01*
X181119112Y-121726000D01*
X180042888Y-121726000D01*
X179996532Y-121721435D01*
X179957862Y-121709704D01*
X179922223Y-121690654D01*
X179890983Y-121665017D01*
X179865346Y-121633777D01*
X179846296Y-121598138D01*
X179834565Y-121559468D01*
X179830000Y-121513112D01*
X179830000Y-120861888D01*
X179834565Y-120815532D01*
X179846296Y-120776862D01*
X179865346Y-120741223D01*
X179890983Y-120709983D01*
X179922223Y-120684346D01*
X179957862Y-120665296D01*
X179996532Y-120653565D01*
X180042888Y-120649000D01*
X181119112Y-120649000D01*
X181165468Y-120653565D01*
G37*
G36*
X179065468Y-120653565D02*
G01*
X179104138Y-120665296D01*
X179139777Y-120684346D01*
X179171017Y-120709983D01*
X179196654Y-120741223D01*
X179215704Y-120776862D01*
X179227435Y-120815532D01*
X179232000Y-120861888D01*
X179232000Y-121513112D01*
X179227435Y-121559468D01*
X179215704Y-121598138D01*
X179196654Y-121633777D01*
X179171017Y-121665017D01*
X179139777Y-121690654D01*
X179104138Y-121709704D01*
X179065468Y-121721435D01*
X179019112Y-121726000D01*
X177942888Y-121726000D01*
X177896532Y-121721435D01*
X177857862Y-121709704D01*
X177822223Y-121690654D01*
X177790983Y-121665017D01*
X177765346Y-121633777D01*
X177746296Y-121598138D01*
X177734565Y-121559468D01*
X177730000Y-121513112D01*
X177730000Y-120861888D01*
X177734565Y-120815532D01*
X177746296Y-120776862D01*
X177765346Y-120741223D01*
X177790983Y-120709983D01*
X177822223Y-120684346D01*
X177857862Y-120665296D01*
X177896532Y-120653565D01*
X177942888Y-120649000D01*
X179019112Y-120649000D01*
X179065468Y-120653565D01*
G37*
G36*
X183226968Y-120641865D02*
G01*
X183265638Y-120653596D01*
X183301277Y-120672646D01*
X183332517Y-120698283D01*
X183358154Y-120729523D01*
X183377204Y-120765162D01*
X183388935Y-120803832D01*
X183393500Y-120850188D01*
X183393500Y-121501412D01*
X183388935Y-121547768D01*
X183377204Y-121586438D01*
X183358154Y-121622077D01*
X183332517Y-121653317D01*
X183301277Y-121678954D01*
X183265638Y-121698004D01*
X183226968Y-121709735D01*
X183180612Y-121714300D01*
X182104388Y-121714300D01*
X182058032Y-121709735D01*
X182019362Y-121698004D01*
X181983723Y-121678954D01*
X181952483Y-121653317D01*
X181926846Y-121622077D01*
X181907796Y-121586438D01*
X181896065Y-121547768D01*
X181891500Y-121501412D01*
X181891500Y-120850188D01*
X181896065Y-120803832D01*
X181907796Y-120765162D01*
X181926846Y-120729523D01*
X181952483Y-120698283D01*
X181983723Y-120672646D01*
X182019362Y-120653596D01*
X182058032Y-120641865D01*
X182104388Y-120637300D01*
X183180612Y-120637300D01*
X183226968Y-120641865D01*
G37*
G36*
X196538674Y-119753465D02*
G01*
X196576367Y-119764899D01*
X196611103Y-119783466D01*
X196641548Y-119808452D01*
X196666534Y-119838897D01*
X196685101Y-119873633D01*
X196696535Y-119911326D01*
X196701000Y-119956661D01*
X196701000Y-121043339D01*
X196696535Y-121088674D01*
X196685101Y-121126367D01*
X196666534Y-121161103D01*
X196641548Y-121191548D01*
X196611103Y-121216534D01*
X196576367Y-121235101D01*
X196538674Y-121246535D01*
X196493339Y-121251000D01*
X195656661Y-121251000D01*
X195611326Y-121246535D01*
X195573633Y-121235101D01*
X195538897Y-121216534D01*
X195508452Y-121191548D01*
X195483466Y-121161103D01*
X195464899Y-121126367D01*
X195453465Y-121088674D01*
X195449000Y-121043339D01*
X195449000Y-119956661D01*
X195453465Y-119911326D01*
X195464899Y-119873633D01*
X195483466Y-119838897D01*
X195508452Y-119808452D01*
X195538897Y-119783466D01*
X195573633Y-119764899D01*
X195611326Y-119753465D01*
X195656661Y-119749000D01*
X196493339Y-119749000D01*
X196538674Y-119753465D01*
G37*
G36*
X198588674Y-119753465D02*
G01*
X198626367Y-119764899D01*
X198661103Y-119783466D01*
X198691548Y-119808452D01*
X198716534Y-119838897D01*
X198735101Y-119873633D01*
X198746535Y-119911326D01*
X198751000Y-119956661D01*
X198751000Y-121043339D01*
X198746535Y-121088674D01*
X198735101Y-121126367D01*
X198716534Y-121161103D01*
X198691548Y-121191548D01*
X198661103Y-121216534D01*
X198626367Y-121235101D01*
X198588674Y-121246535D01*
X198543339Y-121251000D01*
X197706661Y-121251000D01*
X197661326Y-121246535D01*
X197623633Y-121235101D01*
X197588897Y-121216534D01*
X197558452Y-121191548D01*
X197533466Y-121161103D01*
X197514899Y-121126367D01*
X197503465Y-121088674D01*
X197499000Y-121043339D01*
X197499000Y-119956661D01*
X197503465Y-119911326D01*
X197514899Y-119873633D01*
X197533466Y-119838897D01*
X197558452Y-119808452D01*
X197588897Y-119783466D01*
X197623633Y-119764899D01*
X197661326Y-119753465D01*
X197706661Y-119749000D01*
X198543339Y-119749000D01*
X198588674Y-119753465D01*
G37*
G36*
X207678721Y-120120174D02*
G01*
X207778995Y-120161709D01*
X207778996Y-120161710D01*
X207869242Y-120222010D01*
X207945990Y-120298758D01*
X207945991Y-120298760D01*
X208006291Y-120389005D01*
X208047826Y-120489279D01*
X208069000Y-120595730D01*
X208069000Y-120704270D01*
X208047826Y-120810721D01*
X208006291Y-120910995D01*
X208001443Y-120918250D01*
X207945990Y-121001242D01*
X207869242Y-121077990D01*
X207861769Y-121082983D01*
X207778995Y-121138291D01*
X207678721Y-121179826D01*
X207572270Y-121201000D01*
X207463730Y-121201000D01*
X207357279Y-121179826D01*
X207257005Y-121138291D01*
X207174231Y-121082983D01*
X207166758Y-121077990D01*
X207090010Y-121001242D01*
X207034557Y-120918250D01*
X207029709Y-120910995D01*
X206988174Y-120810721D01*
X206967000Y-120704270D01*
X206967000Y-120595730D01*
X206988174Y-120489279D01*
X207029709Y-120389005D01*
X207090009Y-120298760D01*
X207090010Y-120298758D01*
X207166758Y-120222010D01*
X207257004Y-120161710D01*
X207257005Y-120161709D01*
X207357279Y-120120174D01*
X207463730Y-120099000D01*
X207572270Y-120099000D01*
X207678721Y-120120174D01*
G37*
G36*
X206074674Y-119792465D02*
G01*
X206112367Y-119803899D01*
X206147103Y-119822466D01*
X206177548Y-119847452D01*
X206202534Y-119877897D01*
X206221101Y-119912633D01*
X206232535Y-119950326D01*
X206237000Y-119995661D01*
X206237000Y-120832339D01*
X206232535Y-120877674D01*
X206221101Y-120915367D01*
X206202534Y-120950103D01*
X206177548Y-120980548D01*
X206147103Y-121005534D01*
X206112367Y-121024101D01*
X206074674Y-121035535D01*
X206029339Y-121040000D01*
X204942661Y-121040000D01*
X204897326Y-121035535D01*
X204859633Y-121024101D01*
X204824897Y-121005534D01*
X204794452Y-120980548D01*
X204769466Y-120950103D01*
X204750899Y-120915367D01*
X204739465Y-120877674D01*
X204735000Y-120832339D01*
X204735000Y-119995661D01*
X204739465Y-119950326D01*
X204750899Y-119912633D01*
X204769466Y-119877897D01*
X204794452Y-119847452D01*
X204824897Y-119822466D01*
X204859633Y-119803899D01*
X204897326Y-119792465D01*
X204942661Y-119788000D01*
X206029339Y-119788000D01*
X206074674Y-119792465D01*
G37*
G36*
X204042674Y-119792465D02*
G01*
X204080367Y-119803899D01*
X204115103Y-119822466D01*
X204145548Y-119847452D01*
X204170534Y-119877897D01*
X204189101Y-119912633D01*
X204200535Y-119950326D01*
X204205000Y-119995661D01*
X204205000Y-120832339D01*
X204200535Y-120877674D01*
X204189101Y-120915367D01*
X204170534Y-120950103D01*
X204145548Y-120980548D01*
X204115103Y-121005534D01*
X204080367Y-121024101D01*
X204042674Y-121035535D01*
X203997339Y-121040000D01*
X202910661Y-121040000D01*
X202865326Y-121035535D01*
X202827633Y-121024101D01*
X202792897Y-121005534D01*
X202762452Y-120980548D01*
X202737466Y-120950103D01*
X202718899Y-120915367D01*
X202707465Y-120877674D01*
X202703000Y-120832339D01*
X202703000Y-119995661D01*
X202707465Y-119950326D01*
X202718899Y-119912633D01*
X202737466Y-119877897D01*
X202762452Y-119847452D01*
X202792897Y-119822466D01*
X202827633Y-119803899D01*
X202865326Y-119792465D01*
X202910661Y-119788000D01*
X203997339Y-119788000D01*
X204042674Y-119792465D01*
G37*
G36*
X202010674Y-119783465D02*
G01*
X202048367Y-119794899D01*
X202083103Y-119813466D01*
X202113548Y-119838452D01*
X202138534Y-119868897D01*
X202157101Y-119903633D01*
X202168535Y-119941326D01*
X202173000Y-119986661D01*
X202173000Y-120823339D01*
X202168535Y-120868674D01*
X202157101Y-120906367D01*
X202138534Y-120941103D01*
X202113548Y-120971548D01*
X202083103Y-120996534D01*
X202048367Y-121015101D01*
X202010674Y-121026535D01*
X201965339Y-121031000D01*
X200878661Y-121031000D01*
X200833326Y-121026535D01*
X200795633Y-121015101D01*
X200760897Y-120996534D01*
X200730452Y-120971548D01*
X200705466Y-120941103D01*
X200686899Y-120906367D01*
X200675465Y-120868674D01*
X200671000Y-120823339D01*
X200671000Y-119986661D01*
X200675465Y-119941326D01*
X200686899Y-119903633D01*
X200705466Y-119868897D01*
X200730452Y-119838452D01*
X200760897Y-119813466D01*
X200795633Y-119794899D01*
X200833326Y-119783465D01*
X200878661Y-119779000D01*
X201965339Y-119779000D01*
X202010674Y-119783465D01*
G37*
G36*
X189584928Y-120216764D02*
G01*
X189606009Y-120223160D01*
X189625445Y-120233548D01*
X189642476Y-120247524D01*
X189656452Y-120264555D01*
X189666840Y-120283991D01*
X189673236Y-120305072D01*
X189676000Y-120333140D01*
X189676000Y-120796860D01*
X189673236Y-120824928D01*
X189666840Y-120846009D01*
X189656452Y-120865445D01*
X189642476Y-120882476D01*
X189625445Y-120896452D01*
X189606009Y-120906840D01*
X189584928Y-120913236D01*
X189556860Y-120916000D01*
X187743140Y-120916000D01*
X187715072Y-120913236D01*
X187693991Y-120906840D01*
X187674555Y-120896452D01*
X187657524Y-120882476D01*
X187643548Y-120865445D01*
X187633160Y-120846009D01*
X187626764Y-120824928D01*
X187624000Y-120796860D01*
X187624000Y-120333140D01*
X187626764Y-120305072D01*
X187633160Y-120283991D01*
X187643548Y-120264555D01*
X187657524Y-120247524D01*
X187674555Y-120233548D01*
X187693991Y-120223160D01*
X187715072Y-120216764D01*
X187743140Y-120214000D01*
X189556860Y-120214000D01*
X189584928Y-120216764D01*
G37*
G36*
X194534928Y-120216764D02*
G01*
X194556009Y-120223160D01*
X194575445Y-120233548D01*
X194592476Y-120247524D01*
X194606452Y-120264555D01*
X194616840Y-120283991D01*
X194623236Y-120305072D01*
X194626000Y-120333140D01*
X194626000Y-120796860D01*
X194623236Y-120824928D01*
X194616840Y-120846009D01*
X194606452Y-120865445D01*
X194592476Y-120882476D01*
X194575445Y-120896452D01*
X194556009Y-120906840D01*
X194534928Y-120913236D01*
X194506860Y-120916000D01*
X192693140Y-120916000D01*
X192665072Y-120913236D01*
X192643991Y-120906840D01*
X192624555Y-120896452D01*
X192607524Y-120882476D01*
X192593548Y-120865445D01*
X192583160Y-120846009D01*
X192576764Y-120824928D01*
X192574000Y-120796860D01*
X192574000Y-120333140D01*
X192576764Y-120305072D01*
X192583160Y-120283991D01*
X192593548Y-120264555D01*
X192607524Y-120247524D01*
X192624555Y-120233548D01*
X192643991Y-120223160D01*
X192665072Y-120216764D01*
X192693140Y-120214000D01*
X194506860Y-120214000D01*
X194534928Y-120216764D01*
G37*
G36*
X166925744Y-117734230D02*
G01*
X167127210Y-117774304D01*
X167409474Y-117891221D01*
X167663505Y-118060959D01*
X167879541Y-118276995D01*
X168049279Y-118531026D01*
X168166196Y-118813290D01*
X168175495Y-118860038D01*
X168225800Y-119112939D01*
X168225800Y-119418461D01*
X168198655Y-119554928D01*
X168166196Y-119718110D01*
X168049279Y-120000374D01*
X167879541Y-120254405D01*
X167663505Y-120470441D01*
X167409474Y-120640179D01*
X167127210Y-120757096D01*
X167027839Y-120776862D01*
X166827561Y-120816700D01*
X166522039Y-120816700D01*
X166321761Y-120776862D01*
X166222390Y-120757096D01*
X165940126Y-120640179D01*
X165686095Y-120470441D01*
X165470059Y-120254405D01*
X165300321Y-120000374D01*
X165183404Y-119718110D01*
X165150945Y-119554928D01*
X165123800Y-119418461D01*
X165123800Y-119112939D01*
X165174105Y-118860038D01*
X165183404Y-118813290D01*
X165300321Y-118531026D01*
X165470059Y-118276995D01*
X165686095Y-118060959D01*
X165940126Y-117891221D01*
X166222390Y-117774304D01*
X166423856Y-117734230D01*
X166522039Y-117714700D01*
X166827561Y-117714700D01*
X166925744Y-117734230D01*
G37*
G36*
X181165468Y-118778565D02*
G01*
X181204138Y-118790296D01*
X181239777Y-118809346D01*
X181271017Y-118834983D01*
X181296654Y-118866223D01*
X181315704Y-118901862D01*
X181327435Y-118940532D01*
X181332000Y-118986888D01*
X181332000Y-119638112D01*
X181327435Y-119684468D01*
X181315704Y-119723138D01*
X181296654Y-119758777D01*
X181271017Y-119790017D01*
X181239777Y-119815654D01*
X181204138Y-119834704D01*
X181165468Y-119846435D01*
X181119112Y-119851000D01*
X180042888Y-119851000D01*
X179996532Y-119846435D01*
X179957862Y-119834704D01*
X179922223Y-119815654D01*
X179890983Y-119790017D01*
X179865346Y-119758777D01*
X179846296Y-119723138D01*
X179834565Y-119684468D01*
X179830000Y-119638112D01*
X179830000Y-118986888D01*
X179834565Y-118940532D01*
X179846296Y-118901862D01*
X179865346Y-118866223D01*
X179890983Y-118834983D01*
X179922223Y-118809346D01*
X179957862Y-118790296D01*
X179996532Y-118778565D01*
X180042888Y-118774000D01*
X181119112Y-118774000D01*
X181165468Y-118778565D01*
G37*
G36*
X179065468Y-118778565D02*
G01*
X179104138Y-118790296D01*
X179139777Y-118809346D01*
X179171017Y-118834983D01*
X179196654Y-118866223D01*
X179215704Y-118901862D01*
X179227435Y-118940532D01*
X179232000Y-118986888D01*
X179232000Y-119638112D01*
X179227435Y-119684468D01*
X179215704Y-119723138D01*
X179196654Y-119758777D01*
X179171017Y-119790017D01*
X179139777Y-119815654D01*
X179104138Y-119834704D01*
X179065468Y-119846435D01*
X179019112Y-119851000D01*
X177942888Y-119851000D01*
X177896532Y-119846435D01*
X177857862Y-119834704D01*
X177822223Y-119815654D01*
X177790983Y-119790017D01*
X177765346Y-119758777D01*
X177746296Y-119723138D01*
X177734565Y-119684468D01*
X177730000Y-119638112D01*
X177730000Y-118986888D01*
X177734565Y-118940532D01*
X177746296Y-118901862D01*
X177765346Y-118866223D01*
X177790983Y-118834983D01*
X177822223Y-118809346D01*
X177857862Y-118790296D01*
X177896532Y-118778565D01*
X177942888Y-118774000D01*
X179019112Y-118774000D01*
X179065468Y-118778565D01*
G37*
G36*
X183226968Y-118766865D02*
G01*
X183265638Y-118778596D01*
X183301277Y-118797646D01*
X183332517Y-118823283D01*
X183358154Y-118854523D01*
X183377204Y-118890162D01*
X183388935Y-118928832D01*
X183393500Y-118975188D01*
X183393500Y-119626412D01*
X183388935Y-119672768D01*
X183377204Y-119711438D01*
X183358154Y-119747077D01*
X183332517Y-119778317D01*
X183301277Y-119803954D01*
X183265638Y-119823004D01*
X183226968Y-119834735D01*
X183180612Y-119839300D01*
X182104388Y-119839300D01*
X182058032Y-119834735D01*
X182019362Y-119823004D01*
X181983723Y-119803954D01*
X181952483Y-119778317D01*
X181926846Y-119747077D01*
X181907796Y-119711438D01*
X181896065Y-119672768D01*
X181891500Y-119626412D01*
X181891500Y-118975188D01*
X181896065Y-118928832D01*
X181907796Y-118890162D01*
X181926846Y-118854523D01*
X181952483Y-118823283D01*
X181983723Y-118797646D01*
X182019362Y-118778596D01*
X182058032Y-118766865D01*
X182104388Y-118762300D01*
X183180612Y-118762300D01*
X183226968Y-118766865D01*
G37*
G36*
X189584928Y-118946764D02*
G01*
X189606009Y-118953160D01*
X189625445Y-118963548D01*
X189642476Y-118977524D01*
X189656452Y-118994555D01*
X189666840Y-119013991D01*
X189673236Y-119035072D01*
X189676000Y-119063140D01*
X189676000Y-119526860D01*
X189673236Y-119554928D01*
X189666840Y-119576009D01*
X189656452Y-119595445D01*
X189642476Y-119612476D01*
X189625445Y-119626452D01*
X189606009Y-119636840D01*
X189584928Y-119643236D01*
X189556860Y-119646000D01*
X187743140Y-119646000D01*
X187715072Y-119643236D01*
X187693991Y-119636840D01*
X187674555Y-119626452D01*
X187657524Y-119612476D01*
X187643548Y-119595445D01*
X187633160Y-119576009D01*
X187626764Y-119554928D01*
X187624000Y-119526860D01*
X187624000Y-119063140D01*
X187626764Y-119035072D01*
X187633160Y-119013991D01*
X187643548Y-118994555D01*
X187657524Y-118977524D01*
X187674555Y-118963548D01*
X187693991Y-118953160D01*
X187715072Y-118946764D01*
X187743140Y-118944000D01*
X189556860Y-118944000D01*
X189584928Y-118946764D01*
G37*
G36*
X194534928Y-118946764D02*
G01*
X194556009Y-118953160D01*
X194575445Y-118963548D01*
X194592476Y-118977524D01*
X194606452Y-118994555D01*
X194616840Y-119013991D01*
X194623236Y-119035072D01*
X194626000Y-119063140D01*
X194626000Y-119526860D01*
X194623236Y-119554928D01*
X194616840Y-119576009D01*
X194606452Y-119595445D01*
X194592476Y-119612476D01*
X194575445Y-119626452D01*
X194556009Y-119636840D01*
X194534928Y-119643236D01*
X194506860Y-119646000D01*
X192693140Y-119646000D01*
X192665072Y-119643236D01*
X192643991Y-119636840D01*
X192624555Y-119626452D01*
X192607524Y-119612476D01*
X192593548Y-119595445D01*
X192583160Y-119576009D01*
X192576764Y-119554928D01*
X192574000Y-119526860D01*
X192574000Y-119063140D01*
X192576764Y-119035072D01*
X192583160Y-119013991D01*
X192593548Y-118994555D01*
X192607524Y-118977524D01*
X192624555Y-118963548D01*
X192643991Y-118953160D01*
X192665072Y-118946764D01*
X192693140Y-118944000D01*
X194506860Y-118944000D01*
X194534928Y-118946764D01*
G37*
G36*
X145323000Y-119215000D02*
G01*
X143221000Y-119215000D01*
X143221000Y-117513000D01*
X145323000Y-117513000D01*
X145323000Y-119215000D01*
G37*
G36*
X199724674Y-117751465D02*
G01*
X199762367Y-117762899D01*
X199797103Y-117781466D01*
X199827548Y-117806452D01*
X199852534Y-117836897D01*
X199871101Y-117871633D01*
X199882535Y-117909326D01*
X199887000Y-117954661D01*
X199887000Y-118791339D01*
X199882535Y-118836674D01*
X199871101Y-118874367D01*
X199852534Y-118909103D01*
X199827548Y-118939548D01*
X199797103Y-118964534D01*
X199762367Y-118983101D01*
X199724674Y-118994535D01*
X199679339Y-118999000D01*
X198592661Y-118999000D01*
X198547326Y-118994535D01*
X198509633Y-118983101D01*
X198474897Y-118964534D01*
X198444452Y-118939548D01*
X198419466Y-118909103D01*
X198400899Y-118874367D01*
X198389465Y-118836674D01*
X198385000Y-118791339D01*
X198385000Y-117954661D01*
X198389465Y-117909326D01*
X198400899Y-117871633D01*
X198419466Y-117836897D01*
X198444452Y-117806452D01*
X198474897Y-117781466D01*
X198509633Y-117762899D01*
X198547326Y-117751465D01*
X198592661Y-117747000D01*
X199679339Y-117747000D01*
X199724674Y-117751465D01*
G37*
G36*
X206074674Y-117742465D02*
G01*
X206112367Y-117753899D01*
X206147103Y-117772466D01*
X206177548Y-117797452D01*
X206202534Y-117827897D01*
X206221101Y-117862633D01*
X206232535Y-117900326D01*
X206237000Y-117945661D01*
X206237000Y-118782339D01*
X206232535Y-118827674D01*
X206221101Y-118865367D01*
X206202534Y-118900103D01*
X206177548Y-118930548D01*
X206147103Y-118955534D01*
X206112367Y-118974101D01*
X206074674Y-118985535D01*
X206029339Y-118990000D01*
X204942661Y-118990000D01*
X204897326Y-118985535D01*
X204859633Y-118974101D01*
X204824897Y-118955534D01*
X204794452Y-118930548D01*
X204769466Y-118900103D01*
X204750899Y-118865367D01*
X204739465Y-118827674D01*
X204735000Y-118782339D01*
X204735000Y-117945661D01*
X204739465Y-117900326D01*
X204750899Y-117862633D01*
X204769466Y-117827897D01*
X204794452Y-117797452D01*
X204824897Y-117772466D01*
X204859633Y-117753899D01*
X204897326Y-117742465D01*
X204942661Y-117738000D01*
X206029339Y-117738000D01*
X206074674Y-117742465D01*
G37*
G36*
X204042674Y-117742465D02*
G01*
X204080367Y-117753899D01*
X204115103Y-117772466D01*
X204145548Y-117797452D01*
X204170534Y-117827897D01*
X204189101Y-117862633D01*
X204200535Y-117900326D01*
X204205000Y-117945661D01*
X204205000Y-118782339D01*
X204200535Y-118827674D01*
X204189101Y-118865367D01*
X204170534Y-118900103D01*
X204145548Y-118930548D01*
X204115103Y-118955534D01*
X204080367Y-118974101D01*
X204042674Y-118985535D01*
X203997339Y-118990000D01*
X202910661Y-118990000D01*
X202865326Y-118985535D01*
X202827633Y-118974101D01*
X202792897Y-118955534D01*
X202762452Y-118930548D01*
X202737466Y-118900103D01*
X202718899Y-118865367D01*
X202707465Y-118827674D01*
X202703000Y-118782339D01*
X202703000Y-117945661D01*
X202707465Y-117900326D01*
X202718899Y-117862633D01*
X202737466Y-117827897D01*
X202762452Y-117797452D01*
X202792897Y-117772466D01*
X202827633Y-117753899D01*
X202865326Y-117742465D01*
X202910661Y-117738000D01*
X203997339Y-117738000D01*
X204042674Y-117742465D01*
G37*
G36*
X202010674Y-117733465D02*
G01*
X202048367Y-117744899D01*
X202083103Y-117763466D01*
X202113548Y-117788452D01*
X202138534Y-117818897D01*
X202157101Y-117853633D01*
X202168535Y-117891326D01*
X202173000Y-117936661D01*
X202173000Y-118773339D01*
X202168535Y-118818674D01*
X202157101Y-118856367D01*
X202138534Y-118891103D01*
X202113548Y-118921548D01*
X202083103Y-118946534D01*
X202048367Y-118965101D01*
X202010674Y-118976535D01*
X201965339Y-118981000D01*
X200878661Y-118981000D01*
X200833326Y-118976535D01*
X200795633Y-118965101D01*
X200760897Y-118946534D01*
X200730452Y-118921548D01*
X200705466Y-118891103D01*
X200686899Y-118856367D01*
X200675465Y-118818674D01*
X200671000Y-118773339D01*
X200671000Y-117936661D01*
X200675465Y-117891326D01*
X200686899Y-117853633D01*
X200705466Y-117818897D01*
X200730452Y-117788452D01*
X200760897Y-117763466D01*
X200795633Y-117744899D01*
X200833326Y-117733465D01*
X200878661Y-117729000D01*
X201965339Y-117729000D01*
X202010674Y-117733465D01*
G37*
G36*
X212035620Y-116654420D02*
G01*
X212224781Y-116711801D01*
X212399112Y-116804983D01*
X212551915Y-116930385D01*
X212677317Y-117083188D01*
X212721082Y-117165067D01*
X212770498Y-117257517D01*
X212770499Y-117257520D01*
X212827880Y-117446681D01*
X212842400Y-117594107D01*
X212842400Y-117787694D01*
X212827880Y-117935120D01*
X212770499Y-118124281D01*
X212677317Y-118298612D01*
X212551915Y-118451415D01*
X212399112Y-118576817D01*
X212317233Y-118620582D01*
X212224783Y-118669998D01*
X212224780Y-118669999D01*
X212035619Y-118727380D01*
X211838900Y-118746755D01*
X211642180Y-118727380D01*
X211453019Y-118669999D01*
X211278688Y-118576817D01*
X211125885Y-118451415D01*
X211000483Y-118298612D01*
X210956718Y-118216733D01*
X210907302Y-118124283D01*
X210900239Y-118101000D01*
X210849920Y-117935119D01*
X210835400Y-117787693D01*
X210835400Y-117594106D01*
X210849920Y-117446680D01*
X210907301Y-117257519D01*
X211000483Y-117083188D01*
X211125885Y-116930385D01*
X211278688Y-116804983D01*
X211453020Y-116711801D01*
X211642181Y-116654420D01*
X211838900Y-116635045D01*
X212035620Y-116654420D01*
G37*
G36*
X214575620Y-116654420D02*
G01*
X214764781Y-116711801D01*
X214939112Y-116804983D01*
X215091915Y-116930385D01*
X215217317Y-117083188D01*
X215261082Y-117165067D01*
X215310498Y-117257517D01*
X215310499Y-117257520D01*
X215367880Y-117446681D01*
X215382400Y-117594107D01*
X215382400Y-117787694D01*
X215367880Y-117935120D01*
X215310499Y-118124281D01*
X215217317Y-118298612D01*
X215091915Y-118451415D01*
X214939112Y-118576817D01*
X214857233Y-118620582D01*
X214764783Y-118669998D01*
X214764780Y-118669999D01*
X214575619Y-118727380D01*
X214378900Y-118746755D01*
X214182180Y-118727380D01*
X213993019Y-118669999D01*
X213818688Y-118576817D01*
X213665885Y-118451415D01*
X213540483Y-118298612D01*
X213496718Y-118216733D01*
X213447302Y-118124283D01*
X213440239Y-118101000D01*
X213389920Y-117935119D01*
X213375400Y-117787693D01*
X213375400Y-117594106D01*
X213389920Y-117446680D01*
X213447301Y-117257519D01*
X213540483Y-117083188D01*
X213665885Y-116930385D01*
X213818688Y-116804983D01*
X213993020Y-116711801D01*
X214182181Y-116654420D01*
X214378900Y-116635045D01*
X214575620Y-116654420D01*
G37*
G36*
X217922400Y-118741900D02*
G01*
X215915400Y-118741900D01*
X215915400Y-116639900D01*
X217922400Y-116639900D01*
X217922400Y-118741900D01*
G37*
G36*
X187159468Y-116603565D02*
G01*
X187198138Y-116615296D01*
X187233777Y-116634346D01*
X187265017Y-116659983D01*
X187290654Y-116691223D01*
X187309704Y-116726862D01*
X187321435Y-116765532D01*
X187326000Y-116811888D01*
X187326000Y-117888112D01*
X187321435Y-117934468D01*
X187309704Y-117973138D01*
X187290654Y-118008777D01*
X187265017Y-118040017D01*
X187233777Y-118065654D01*
X187198138Y-118084704D01*
X187159468Y-118096435D01*
X187113112Y-118101000D01*
X186461888Y-118101000D01*
X186415532Y-118096435D01*
X186376862Y-118084704D01*
X186341223Y-118065654D01*
X186309983Y-118040017D01*
X186284346Y-118008777D01*
X186265296Y-117973138D01*
X186253565Y-117934468D01*
X186249000Y-117888112D01*
X186249000Y-116811888D01*
X186253565Y-116765532D01*
X186265296Y-116726862D01*
X186284346Y-116691223D01*
X186309983Y-116659983D01*
X186341223Y-116634346D01*
X186376862Y-116615296D01*
X186415532Y-116603565D01*
X186461888Y-116599000D01*
X187113112Y-116599000D01*
X187159468Y-116603565D01*
G37*
G36*
X189034468Y-116603565D02*
G01*
X189073138Y-116615296D01*
X189108777Y-116634346D01*
X189140017Y-116659983D01*
X189165654Y-116691223D01*
X189184704Y-116726862D01*
X189196435Y-116765532D01*
X189201000Y-116811888D01*
X189201000Y-117888112D01*
X189196435Y-117934468D01*
X189184704Y-117973138D01*
X189165654Y-118008777D01*
X189140017Y-118040017D01*
X189108777Y-118065654D01*
X189073138Y-118084704D01*
X189034468Y-118096435D01*
X188988112Y-118101000D01*
X188336888Y-118101000D01*
X188290532Y-118096435D01*
X188251862Y-118084704D01*
X188216223Y-118065654D01*
X188184983Y-118040017D01*
X188159346Y-118008777D01*
X188140296Y-117973138D01*
X188128565Y-117934468D01*
X188124000Y-117888112D01*
X188124000Y-116811888D01*
X188128565Y-116765532D01*
X188140296Y-116726862D01*
X188159346Y-116691223D01*
X188184983Y-116659983D01*
X188216223Y-116634346D01*
X188251862Y-116615296D01*
X188290532Y-116603565D01*
X188336888Y-116599000D01*
X188988112Y-116599000D01*
X189034468Y-116603565D01*
G37*
G36*
X199724674Y-115701465D02*
G01*
X199762367Y-115712899D01*
X199797103Y-115731466D01*
X199827548Y-115756452D01*
X199852534Y-115786897D01*
X199871101Y-115821633D01*
X199882535Y-115859326D01*
X199887000Y-115904661D01*
X199887000Y-116741339D01*
X199882535Y-116786674D01*
X199871101Y-116824367D01*
X199852534Y-116859103D01*
X199827548Y-116889548D01*
X199797103Y-116914534D01*
X199762367Y-116933101D01*
X199724674Y-116944535D01*
X199679339Y-116949000D01*
X198592661Y-116949000D01*
X198547326Y-116944535D01*
X198509633Y-116933101D01*
X198474897Y-116914534D01*
X198444452Y-116889548D01*
X198419466Y-116859103D01*
X198400899Y-116824367D01*
X198389465Y-116786674D01*
X198385000Y-116741339D01*
X198385000Y-115904661D01*
X198389465Y-115859326D01*
X198400899Y-115821633D01*
X198419466Y-115786897D01*
X198444452Y-115756452D01*
X198474897Y-115731466D01*
X198509633Y-115712899D01*
X198547326Y-115701465D01*
X198592661Y-115697000D01*
X199679339Y-115697000D01*
X199724674Y-115701465D01*
G37*
G36*
X145274200Y-116680800D02*
G01*
X143422200Y-116680800D01*
X143422200Y-115328800D01*
X145274200Y-115328800D01*
X145274200Y-116680800D01*
G37*
G36*
X161633000Y-116621000D02*
G01*
X159931000Y-116621000D01*
X159931000Y-114519000D01*
X161633000Y-114519000D01*
X161633000Y-116621000D01*
G37*
G36*
X165697000Y-116621000D02*
G01*
X163995000Y-116621000D01*
X163995000Y-114519000D01*
X165697000Y-114519000D01*
X165697000Y-116621000D01*
G37*
G36*
X153468400Y-116229200D02*
G01*
X150366400Y-116229200D01*
X150366400Y-111127200D01*
X153468400Y-111127200D01*
X153468400Y-116229200D01*
G37*
G36*
X173501000Y-116151000D02*
G01*
X170399000Y-116151000D01*
X170399000Y-111049000D01*
X173501000Y-111049000D01*
X173501000Y-116151000D01*
G37*
G36*
X192584468Y-114528565D02*
G01*
X192623138Y-114540296D01*
X192658777Y-114559346D01*
X192690017Y-114584983D01*
X192715654Y-114616223D01*
X192734704Y-114651862D01*
X192746435Y-114690532D01*
X192751000Y-114736888D01*
X192751000Y-115813112D01*
X192746435Y-115859468D01*
X192734704Y-115898138D01*
X192715654Y-115933777D01*
X192690017Y-115965017D01*
X192658777Y-115990654D01*
X192623138Y-116009704D01*
X192584468Y-116021435D01*
X192538112Y-116026000D01*
X191886888Y-116026000D01*
X191840532Y-116021435D01*
X191801862Y-116009704D01*
X191766223Y-115990654D01*
X191734983Y-115965017D01*
X191709346Y-115933777D01*
X191690296Y-115898138D01*
X191678565Y-115859468D01*
X191674000Y-115813112D01*
X191674000Y-114736888D01*
X191678565Y-114690532D01*
X191690296Y-114651862D01*
X191709346Y-114616223D01*
X191734983Y-114584983D01*
X191766223Y-114559346D01*
X191801862Y-114540296D01*
X191840532Y-114528565D01*
X191886888Y-114524000D01*
X192538112Y-114524000D01*
X192584468Y-114528565D01*
G37*
G36*
X194459468Y-114528565D02*
G01*
X194498138Y-114540296D01*
X194533777Y-114559346D01*
X194565017Y-114584983D01*
X194590654Y-114616223D01*
X194609704Y-114651862D01*
X194621435Y-114690532D01*
X194626000Y-114736888D01*
X194626000Y-115813112D01*
X194621435Y-115859468D01*
X194609704Y-115898138D01*
X194590654Y-115933777D01*
X194565017Y-115965017D01*
X194533777Y-115990654D01*
X194498138Y-116009704D01*
X194459468Y-116021435D01*
X194413112Y-116026000D01*
X193761888Y-116026000D01*
X193715532Y-116021435D01*
X193676862Y-116009704D01*
X193641223Y-115990654D01*
X193609983Y-115965017D01*
X193584346Y-115933777D01*
X193565296Y-115898138D01*
X193553565Y-115859468D01*
X193549000Y-115813112D01*
X193549000Y-114736888D01*
X193553565Y-114690532D01*
X193565296Y-114651862D01*
X193584346Y-114616223D01*
X193609983Y-114584983D01*
X193641223Y-114559346D01*
X193676862Y-114540296D01*
X193715532Y-114528565D01*
X193761888Y-114524000D01*
X194413112Y-114524000D01*
X194459468Y-114528565D01*
G37*
G36*
X189034468Y-114528565D02*
G01*
X189073138Y-114540296D01*
X189108777Y-114559346D01*
X189140017Y-114584983D01*
X189165654Y-114616223D01*
X189184704Y-114651862D01*
X189196435Y-114690532D01*
X189201000Y-114736888D01*
X189201000Y-115813112D01*
X189196435Y-115859468D01*
X189184704Y-115898138D01*
X189165654Y-115933777D01*
X189140017Y-115965017D01*
X189108777Y-115990654D01*
X189073138Y-116009704D01*
X189034468Y-116021435D01*
X188988112Y-116026000D01*
X188336888Y-116026000D01*
X188290532Y-116021435D01*
X188251862Y-116009704D01*
X188216223Y-115990654D01*
X188184983Y-115965017D01*
X188159346Y-115933777D01*
X188140296Y-115898138D01*
X188128565Y-115859468D01*
X188124000Y-115813112D01*
X188124000Y-114736888D01*
X188128565Y-114690532D01*
X188140296Y-114651862D01*
X188159346Y-114616223D01*
X188184983Y-114584983D01*
X188216223Y-114559346D01*
X188251862Y-114540296D01*
X188290532Y-114528565D01*
X188336888Y-114524000D01*
X188988112Y-114524000D01*
X189034468Y-114528565D01*
G37*
G36*
X190909468Y-114528565D02*
G01*
X190948138Y-114540296D01*
X190983777Y-114559346D01*
X191015017Y-114584983D01*
X191040654Y-114616223D01*
X191059704Y-114651862D01*
X191071435Y-114690532D01*
X191076000Y-114736888D01*
X191076000Y-115813112D01*
X191071435Y-115859468D01*
X191059704Y-115898138D01*
X191040654Y-115933777D01*
X191015017Y-115965017D01*
X190983777Y-115990654D01*
X190948138Y-116009704D01*
X190909468Y-116021435D01*
X190863112Y-116026000D01*
X190211888Y-116026000D01*
X190165532Y-116021435D01*
X190126862Y-116009704D01*
X190091223Y-115990654D01*
X190059983Y-115965017D01*
X190034346Y-115933777D01*
X190015296Y-115898138D01*
X190003565Y-115859468D01*
X189999000Y-115813112D01*
X189999000Y-114736888D01*
X190003565Y-114690532D01*
X190015296Y-114651862D01*
X190034346Y-114616223D01*
X190059983Y-114584983D01*
X190091223Y-114559346D01*
X190126862Y-114540296D01*
X190165532Y-114528565D01*
X190211888Y-114524000D01*
X190863112Y-114524000D01*
X190909468Y-114528565D01*
G37*
G36*
X226451000Y-114851000D02*
G01*
X223349000Y-114851000D01*
X223349000Y-111749000D01*
X226451000Y-111749000D01*
X226451000Y-114851000D01*
G37*
G36*
X228581487Y-112048996D02*
G01*
X228813376Y-112145048D01*
X228818255Y-112147069D01*
X229031339Y-112289447D01*
X229212553Y-112470661D01*
X229354932Y-112683747D01*
X229453004Y-112920513D01*
X229503000Y-113171861D01*
X229503000Y-113428139D01*
X229453004Y-113679487D01*
X229369617Y-113880800D01*
X229354931Y-113916255D01*
X229212553Y-114129339D01*
X229031339Y-114310553D01*
X228818255Y-114452931D01*
X228818254Y-114452932D01*
X228818253Y-114452932D01*
X228581487Y-114551004D01*
X228330139Y-114601000D01*
X228073861Y-114601000D01*
X227822513Y-114551004D01*
X227585747Y-114452932D01*
X227585746Y-114452932D01*
X227585745Y-114452931D01*
X227372661Y-114310553D01*
X227191447Y-114129339D01*
X227049069Y-113916255D01*
X227034383Y-113880800D01*
X226950996Y-113679487D01*
X226901000Y-113428139D01*
X226901000Y-113171861D01*
X226950996Y-112920513D01*
X227049068Y-112683747D01*
X227191447Y-112470661D01*
X227372661Y-112289447D01*
X227585745Y-112147069D01*
X227590624Y-112145048D01*
X227822513Y-112048996D01*
X228073861Y-111999000D01*
X228330139Y-111999000D01*
X228581487Y-112048996D01*
G37*
G36*
X145274200Y-113880800D02*
G01*
X143422200Y-113880800D01*
X143422200Y-112528800D01*
X145274200Y-112528800D01*
X145274200Y-113880800D01*
G37*
G36*
X216234674Y-111655465D02*
G01*
X216272367Y-111666899D01*
X216307103Y-111685466D01*
X216337548Y-111710452D01*
X216362534Y-111740897D01*
X216381101Y-111775633D01*
X216392535Y-111813326D01*
X216397000Y-111858661D01*
X216397000Y-112695339D01*
X216392535Y-112740674D01*
X216381101Y-112778367D01*
X216362534Y-112813103D01*
X216337548Y-112843548D01*
X216307103Y-112868534D01*
X216272367Y-112887101D01*
X216234674Y-112898535D01*
X216189339Y-112903000D01*
X215102661Y-112903000D01*
X215057326Y-112898535D01*
X215019633Y-112887101D01*
X214984897Y-112868534D01*
X214954452Y-112843548D01*
X214929466Y-112813103D01*
X214910899Y-112778367D01*
X214899465Y-112740674D01*
X214895000Y-112695339D01*
X214895000Y-111858661D01*
X214899465Y-111813326D01*
X214910899Y-111775633D01*
X214929466Y-111740897D01*
X214954452Y-111710452D01*
X214984897Y-111685466D01*
X215019633Y-111666899D01*
X215057326Y-111655465D01*
X215102661Y-111651000D01*
X216189339Y-111651000D01*
X216234674Y-111655465D01*
G37*
G36*
X163021674Y-110956965D02*
G01*
X163059367Y-110968399D01*
X163094103Y-110986966D01*
X163124548Y-111011952D01*
X163149534Y-111042397D01*
X163168101Y-111077133D01*
X163179535Y-111114826D01*
X163184000Y-111160161D01*
X163184000Y-111996839D01*
X163179535Y-112042174D01*
X163168101Y-112079867D01*
X163149534Y-112114603D01*
X163124548Y-112145048D01*
X163094103Y-112170034D01*
X163059367Y-112188601D01*
X163021674Y-112200035D01*
X162976339Y-112204500D01*
X161889661Y-112204500D01*
X161844326Y-112200035D01*
X161806633Y-112188601D01*
X161771897Y-112170034D01*
X161741452Y-112145048D01*
X161716466Y-112114603D01*
X161697899Y-112079867D01*
X161686465Y-112042174D01*
X161682000Y-111996839D01*
X161682000Y-111160161D01*
X161686465Y-111114826D01*
X161697899Y-111077133D01*
X161716466Y-111042397D01*
X161741452Y-111011952D01*
X161771897Y-110986966D01*
X161806633Y-110968399D01*
X161844326Y-110956965D01*
X161889661Y-110952500D01*
X162976339Y-110952500D01*
X163021674Y-110956965D01*
G37*
G36*
X161038400Y-111954500D02*
G01*
X160036400Y-111954500D01*
X160036400Y-111052500D01*
X161038400Y-111052500D01*
X161038400Y-111954500D01*
G37*
G36*
X145023800Y-111818100D02*
G01*
X143621800Y-111818100D01*
X143621800Y-111016100D01*
X145023800Y-111016100D01*
X145023800Y-111818100D01*
G37*
G36*
X205485721Y-110245174D02*
G01*
X205585995Y-110286709D01*
X205585996Y-110286710D01*
X205676242Y-110347010D01*
X205752990Y-110423758D01*
X205752991Y-110423760D01*
X205813291Y-110514005D01*
X205854826Y-110614279D01*
X205876000Y-110720730D01*
X205876000Y-110829270D01*
X205854826Y-110935721D01*
X205813291Y-111035995D01*
X205788256Y-111073462D01*
X205752990Y-111126242D01*
X205676242Y-111202990D01*
X205643791Y-111224673D01*
X205585995Y-111263291D01*
X205485721Y-111304826D01*
X205379270Y-111326000D01*
X205270730Y-111326000D01*
X205164279Y-111304826D01*
X205064005Y-111263291D01*
X205006209Y-111224673D01*
X204973758Y-111202990D01*
X204897010Y-111126242D01*
X204861744Y-111073462D01*
X204836709Y-111035995D01*
X204795174Y-110935721D01*
X204774000Y-110829270D01*
X204774000Y-110720730D01*
X204795174Y-110614279D01*
X204836709Y-110514005D01*
X204897009Y-110423760D01*
X204897010Y-110423758D01*
X204973758Y-110347010D01*
X205064004Y-110286710D01*
X205064005Y-110286709D01*
X205164279Y-110245174D01*
X205270730Y-110224000D01*
X205379270Y-110224000D01*
X205485721Y-110245174D01*
G37*
G36*
X159038400Y-111004500D02*
G01*
X158036400Y-111004500D01*
X158036400Y-110102500D01*
X159038400Y-110102500D01*
X159038400Y-111004500D01*
G37*
G36*
X216234674Y-109605465D02*
G01*
X216272367Y-109616899D01*
X216307103Y-109635466D01*
X216337548Y-109660452D01*
X216362534Y-109690897D01*
X216381101Y-109725633D01*
X216392535Y-109763326D01*
X216397000Y-109808661D01*
X216397000Y-110645339D01*
X216392535Y-110690674D01*
X216381101Y-110728367D01*
X216362534Y-110763103D01*
X216337548Y-110793548D01*
X216307103Y-110818534D01*
X216272367Y-110837101D01*
X216234674Y-110848535D01*
X216189339Y-110853000D01*
X215102661Y-110853000D01*
X215057326Y-110848535D01*
X215019633Y-110837101D01*
X214984897Y-110818534D01*
X214954452Y-110793548D01*
X214929466Y-110763103D01*
X214910899Y-110728367D01*
X214899465Y-110690674D01*
X214895000Y-110645339D01*
X214895000Y-109808661D01*
X214899465Y-109763326D01*
X214910899Y-109725633D01*
X214929466Y-109690897D01*
X214954452Y-109660452D01*
X214984897Y-109635466D01*
X215019633Y-109616899D01*
X215057326Y-109605465D01*
X215102661Y-109601000D01*
X216189339Y-109601000D01*
X216234674Y-109605465D01*
G37*
G36*
X211017000Y-110467000D02*
G01*
X210115000Y-110467000D01*
X210115000Y-109465000D01*
X211017000Y-109465000D01*
X211017000Y-110467000D01*
G37*
G36*
X193983000Y-110301000D02*
G01*
X192281000Y-110301000D01*
X192281000Y-108199000D01*
X193983000Y-108199000D01*
X193983000Y-110301000D01*
G37*
G36*
X189919000Y-110301000D02*
G01*
X188217000Y-110301000D01*
X188217000Y-108199000D01*
X189919000Y-108199000D01*
X189919000Y-110301000D01*
G37*
G36*
X154207874Y-109039265D02*
G01*
X154245567Y-109050699D01*
X154280303Y-109069266D01*
X154310748Y-109094252D01*
X154335734Y-109124697D01*
X154354301Y-109159433D01*
X154365735Y-109197126D01*
X154370200Y-109242461D01*
X154370200Y-110079139D01*
X154365735Y-110124474D01*
X154354301Y-110162167D01*
X154335734Y-110196903D01*
X154310748Y-110227348D01*
X154280303Y-110252334D01*
X154245567Y-110270901D01*
X154207874Y-110282335D01*
X154162539Y-110286800D01*
X153075861Y-110286800D01*
X153030526Y-110282335D01*
X152992833Y-110270901D01*
X152958097Y-110252334D01*
X152927652Y-110227348D01*
X152902666Y-110196903D01*
X152884099Y-110162167D01*
X152872665Y-110124474D01*
X152868200Y-110079139D01*
X152868200Y-109242461D01*
X152872665Y-109197126D01*
X152884099Y-109159433D01*
X152902666Y-109124697D01*
X152927652Y-109094252D01*
X152958097Y-109069266D01*
X152992833Y-109050699D01*
X153030526Y-109039265D01*
X153075861Y-109034800D01*
X154162539Y-109034800D01*
X154207874Y-109039265D01*
G37*
G36*
X150855074Y-108997465D02*
G01*
X150892767Y-109008899D01*
X150927503Y-109027466D01*
X150957948Y-109052452D01*
X150982934Y-109082897D01*
X151001501Y-109117633D01*
X151012935Y-109155326D01*
X151017400Y-109200661D01*
X151017400Y-110037339D01*
X151012935Y-110082674D01*
X151001501Y-110120367D01*
X150982934Y-110155102D01*
X150957948Y-110185548D01*
X150927503Y-110210534D01*
X150892767Y-110229101D01*
X150855074Y-110240535D01*
X150809739Y-110245000D01*
X149723061Y-110245000D01*
X149677726Y-110240535D01*
X149640033Y-110229101D01*
X149605297Y-110210534D01*
X149574852Y-110185548D01*
X149549866Y-110155102D01*
X149531299Y-110120367D01*
X149519865Y-110082674D01*
X149515400Y-110037339D01*
X149515400Y-109200661D01*
X149519865Y-109155326D01*
X149531299Y-109117633D01*
X149549866Y-109082897D01*
X149574852Y-109052452D01*
X149605297Y-109027466D01*
X149640033Y-109008899D01*
X149677726Y-108997465D01*
X149723061Y-108993000D01*
X150809739Y-108993000D01*
X150855074Y-108997465D01*
G37*
G36*
X163021674Y-108906965D02*
G01*
X163059367Y-108918399D01*
X163094103Y-108936966D01*
X163124548Y-108961952D01*
X163149534Y-108992397D01*
X163168101Y-109027133D01*
X163179535Y-109064826D01*
X163184000Y-109110161D01*
X163184000Y-109946839D01*
X163179535Y-109992174D01*
X163168101Y-110029867D01*
X163149534Y-110064603D01*
X163124548Y-110095048D01*
X163094103Y-110120034D01*
X163059367Y-110138601D01*
X163021674Y-110150035D01*
X162976339Y-110154500D01*
X161889661Y-110154500D01*
X161844326Y-110150035D01*
X161806633Y-110138601D01*
X161771897Y-110120034D01*
X161741452Y-110095048D01*
X161716466Y-110064603D01*
X161697899Y-110029867D01*
X161686465Y-109992174D01*
X161682000Y-109946839D01*
X161682000Y-109110161D01*
X161686465Y-109064826D01*
X161697899Y-109027133D01*
X161716466Y-108992397D01*
X161741452Y-108961952D01*
X161771897Y-108936966D01*
X161806633Y-108918399D01*
X161844326Y-108906965D01*
X161889661Y-108902500D01*
X162976339Y-108902500D01*
X163021674Y-108906965D01*
G37*
G36*
X161038400Y-110054500D02*
G01*
X160036400Y-110054500D01*
X160036400Y-109152500D01*
X161038400Y-109152500D01*
X161038400Y-110054500D01*
G37*
G36*
X145023800Y-109913100D02*
G01*
X143621800Y-109913100D01*
X143621800Y-109111100D01*
X145023800Y-109111100D01*
X145023800Y-109913100D01*
G37*
G36*
X225202585Y-106651802D02*
G01*
X225352410Y-106681604D01*
X225634674Y-106798521D01*
X225888705Y-106968259D01*
X226104741Y-107184295D01*
X226274479Y-107438326D01*
X226391396Y-107720590D01*
X226397300Y-107750270D01*
X226438888Y-107959346D01*
X226451000Y-108020240D01*
X226451000Y-108325760D01*
X226391396Y-108625410D01*
X226274479Y-108907674D01*
X226104741Y-109161705D01*
X225888705Y-109377741D01*
X225634674Y-109547479D01*
X225352410Y-109664396D01*
X225219180Y-109690897D01*
X225052761Y-109724000D01*
X224747239Y-109724000D01*
X224580820Y-109690897D01*
X224447590Y-109664396D01*
X224165326Y-109547479D01*
X223911295Y-109377741D01*
X223695259Y-109161705D01*
X223525521Y-108907674D01*
X223408604Y-108625410D01*
X223349000Y-108325760D01*
X223349000Y-108020240D01*
X223361113Y-107959346D01*
X223402700Y-107750270D01*
X223408604Y-107720590D01*
X223525521Y-107438326D01*
X223695259Y-107184295D01*
X223911295Y-106968259D01*
X224165326Y-106798521D01*
X224447590Y-106681604D01*
X224597415Y-106651802D01*
X224747239Y-106622000D01*
X225052761Y-106622000D01*
X225202585Y-106651802D01*
G37*
G36*
X228581487Y-106918196D02*
G01*
X228775881Y-106998717D01*
X228818255Y-107016269D01*
X229031339Y-107158647D01*
X229212553Y-107339861D01*
X229337484Y-107526833D01*
X229354932Y-107552947D01*
X229453004Y-107789713D01*
X229503000Y-108041061D01*
X229503000Y-108297339D01*
X229453004Y-108548687D01*
X229375340Y-108736183D01*
X229354931Y-108785455D01*
X229212553Y-108998539D01*
X229031339Y-109179753D01*
X228818255Y-109322131D01*
X228818254Y-109322132D01*
X228818253Y-109322132D01*
X228581487Y-109420204D01*
X228330139Y-109470200D01*
X228073861Y-109470200D01*
X227822513Y-109420204D01*
X227585747Y-109322132D01*
X227585746Y-109322132D01*
X227585745Y-109322131D01*
X227372661Y-109179753D01*
X227191447Y-108998539D01*
X227049069Y-108785455D01*
X227028660Y-108736183D01*
X226950996Y-108548687D01*
X226901000Y-108297339D01*
X226901000Y-108041061D01*
X226950996Y-107789713D01*
X227049068Y-107552947D01*
X227066517Y-107526833D01*
X227191447Y-107339861D01*
X227372661Y-107158647D01*
X227585745Y-107016269D01*
X227628119Y-106998717D01*
X227822513Y-106918196D01*
X228073861Y-106868200D01*
X228330139Y-106868200D01*
X228581487Y-106918196D01*
G37*
G36*
X204484468Y-107928565D02*
G01*
X204523138Y-107940296D01*
X204558777Y-107959346D01*
X204590017Y-107984983D01*
X204615654Y-108016223D01*
X204634704Y-108051862D01*
X204646435Y-108090532D01*
X204651000Y-108136888D01*
X204651000Y-109213112D01*
X204646435Y-109259468D01*
X204634704Y-109298138D01*
X204615654Y-109333777D01*
X204590017Y-109365017D01*
X204558777Y-109390654D01*
X204523138Y-109409704D01*
X204484468Y-109421435D01*
X204438112Y-109426000D01*
X203786888Y-109426000D01*
X203740532Y-109421435D01*
X203701862Y-109409704D01*
X203666223Y-109390654D01*
X203634983Y-109365017D01*
X203609346Y-109333777D01*
X203590296Y-109298138D01*
X203578565Y-109259468D01*
X203574000Y-109213112D01*
X203574000Y-108136888D01*
X203578565Y-108090532D01*
X203590296Y-108051862D01*
X203609346Y-108016223D01*
X203634983Y-107984983D01*
X203666223Y-107959346D01*
X203701862Y-107940296D01*
X203740532Y-107928565D01*
X203786888Y-107924000D01*
X204438112Y-107924000D01*
X204484468Y-107928565D01*
G37*
G36*
X202609468Y-107928565D02*
G01*
X202648138Y-107940296D01*
X202683777Y-107959346D01*
X202715017Y-107984983D01*
X202740654Y-108016223D01*
X202759704Y-108051862D01*
X202771435Y-108090532D01*
X202776000Y-108136888D01*
X202776000Y-109213112D01*
X202771435Y-109259468D01*
X202759704Y-109298138D01*
X202740654Y-109333777D01*
X202715017Y-109365017D01*
X202683777Y-109390654D01*
X202648138Y-109409704D01*
X202609468Y-109421435D01*
X202563112Y-109426000D01*
X201911888Y-109426000D01*
X201865532Y-109421435D01*
X201826862Y-109409704D01*
X201791223Y-109390654D01*
X201759983Y-109365017D01*
X201734346Y-109333777D01*
X201715296Y-109298138D01*
X201703565Y-109259468D01*
X201699000Y-109213112D01*
X201699000Y-108136888D01*
X201703565Y-108090532D01*
X201715296Y-108051862D01*
X201734346Y-108016223D01*
X201759983Y-107984983D01*
X201791223Y-107959346D01*
X201826862Y-107940296D01*
X201865532Y-107928565D01*
X201911888Y-107924000D01*
X202563112Y-107924000D01*
X202609468Y-107928565D01*
G37*
G36*
X214017874Y-107406665D02*
G01*
X214055567Y-107418099D01*
X214090303Y-107436666D01*
X214120748Y-107461652D01*
X214145734Y-107492097D01*
X214164301Y-107526833D01*
X214175735Y-107564526D01*
X214180200Y-107609861D01*
X214180200Y-108696539D01*
X214175735Y-108741874D01*
X214164301Y-108779567D01*
X214145734Y-108814303D01*
X214120748Y-108844748D01*
X214090303Y-108869734D01*
X214055567Y-108888301D01*
X214017874Y-108899735D01*
X213972539Y-108904200D01*
X213135861Y-108904200D01*
X213090526Y-108899735D01*
X213052833Y-108888301D01*
X213018097Y-108869734D01*
X212987652Y-108844748D01*
X212962666Y-108814303D01*
X212944099Y-108779567D01*
X212932665Y-108741874D01*
X212928200Y-108696539D01*
X212928200Y-107609861D01*
X212932665Y-107564526D01*
X212944099Y-107526833D01*
X212962666Y-107492097D01*
X212987652Y-107461652D01*
X213018097Y-107436666D01*
X213052833Y-107418099D01*
X213090526Y-107406665D01*
X213135861Y-107402200D01*
X213972539Y-107402200D01*
X214017874Y-107406665D01*
G37*
G36*
X216067874Y-107406665D02*
G01*
X216105567Y-107418099D01*
X216140303Y-107436666D01*
X216170748Y-107461652D01*
X216195734Y-107492097D01*
X216214301Y-107526833D01*
X216225735Y-107564526D01*
X216230200Y-107609861D01*
X216230200Y-108696539D01*
X216225735Y-108741874D01*
X216214301Y-108779567D01*
X216195734Y-108814303D01*
X216170748Y-108844748D01*
X216140303Y-108869734D01*
X216105567Y-108888301D01*
X216067874Y-108899735D01*
X216022539Y-108904200D01*
X215185861Y-108904200D01*
X215140526Y-108899735D01*
X215102833Y-108888301D01*
X215068097Y-108869734D01*
X215037652Y-108844748D01*
X215012666Y-108814303D01*
X214994099Y-108779567D01*
X214982665Y-108741874D01*
X214978200Y-108696539D01*
X214978200Y-107609861D01*
X214982665Y-107564526D01*
X214994099Y-107526833D01*
X215012666Y-107492097D01*
X215037652Y-107461652D01*
X215068097Y-107436666D01*
X215102833Y-107418099D01*
X215140526Y-107406665D01*
X215185861Y-107402200D01*
X216022539Y-107402200D01*
X216067874Y-107406665D01*
G37*
G36*
X211967000Y-108467000D02*
G01*
X211065000Y-108467000D01*
X211065000Y-107465000D01*
X211967000Y-107465000D01*
X211967000Y-108467000D01*
G37*
G36*
X210067000Y-108467000D02*
G01*
X209165000Y-108467000D01*
X209165000Y-107465000D01*
X210067000Y-107465000D01*
X210067000Y-108467000D01*
G37*
G36*
X158976074Y-106835165D02*
G01*
X159013767Y-106846599D01*
X159048503Y-106865166D01*
X159078948Y-106890152D01*
X159103934Y-106920597D01*
X159122501Y-106955333D01*
X159133935Y-106993026D01*
X159138400Y-107038361D01*
X159138400Y-108125039D01*
X159133935Y-108170374D01*
X159122501Y-108208067D01*
X159103934Y-108242803D01*
X159078948Y-108273248D01*
X159048503Y-108298234D01*
X159013767Y-108316801D01*
X158976074Y-108328235D01*
X158930739Y-108332700D01*
X158094061Y-108332700D01*
X158048726Y-108328235D01*
X158011033Y-108316801D01*
X157976297Y-108298234D01*
X157945852Y-108273248D01*
X157920866Y-108242803D01*
X157902299Y-108208067D01*
X157890865Y-108170374D01*
X157886400Y-108125039D01*
X157886400Y-107038361D01*
X157890865Y-106993026D01*
X157902299Y-106955333D01*
X157920866Y-106920597D01*
X157945852Y-106890152D01*
X157976297Y-106865166D01*
X158011033Y-106846599D01*
X158048726Y-106835165D01*
X158094061Y-106830700D01*
X158930739Y-106830700D01*
X158976074Y-106835165D01*
G37*
G36*
X161026074Y-106835165D02*
G01*
X161063767Y-106846599D01*
X161098503Y-106865166D01*
X161128948Y-106890152D01*
X161153934Y-106920597D01*
X161172501Y-106955333D01*
X161183935Y-106993026D01*
X161188400Y-107038361D01*
X161188400Y-108125039D01*
X161183935Y-108170374D01*
X161172501Y-108208067D01*
X161153934Y-108242803D01*
X161128948Y-108273248D01*
X161098503Y-108298234D01*
X161063767Y-108316801D01*
X161026074Y-108328235D01*
X160980739Y-108332700D01*
X160144061Y-108332700D01*
X160098726Y-108328235D01*
X160061033Y-108316801D01*
X160026297Y-108298234D01*
X159995852Y-108273248D01*
X159970866Y-108242803D01*
X159952299Y-108208067D01*
X159940865Y-108170374D01*
X159936400Y-108125039D01*
X159936400Y-107038361D01*
X159940865Y-106993026D01*
X159952299Y-106955333D01*
X159970866Y-106920597D01*
X159995852Y-106890152D01*
X160026297Y-106865166D01*
X160061033Y-106846599D01*
X160098726Y-106835165D01*
X160144061Y-106830700D01*
X160980739Y-106830700D01*
X161026074Y-106835165D01*
G37*
G36*
X198534721Y-107166174D02*
G01*
X198634995Y-107207709D01*
X198675521Y-107234788D01*
X198725242Y-107268010D01*
X198801990Y-107344758D01*
X198815952Y-107365654D01*
X198862291Y-107435005D01*
X198903826Y-107535279D01*
X198925000Y-107641730D01*
X198925000Y-107750270D01*
X198903826Y-107856721D01*
X198862291Y-107956995D01*
X198849642Y-107975925D01*
X198801990Y-108047242D01*
X198725242Y-108123990D01*
X198684818Y-108151000D01*
X198634995Y-108184291D01*
X198534721Y-108225826D01*
X198428270Y-108247000D01*
X198319730Y-108247000D01*
X198213279Y-108225826D01*
X198113005Y-108184291D01*
X198063182Y-108151000D01*
X198022758Y-108123990D01*
X197946010Y-108047242D01*
X197898358Y-107975925D01*
X197885709Y-107956995D01*
X197844174Y-107856721D01*
X197823000Y-107750270D01*
X197823000Y-107641730D01*
X197844174Y-107535279D01*
X197885709Y-107435005D01*
X197932048Y-107365654D01*
X197946010Y-107344758D01*
X198022758Y-107268010D01*
X198072479Y-107234788D01*
X198113005Y-107207709D01*
X198213279Y-107166174D01*
X198319730Y-107145000D01*
X198428270Y-107145000D01*
X198534721Y-107166174D01*
G37*
G36*
X154207874Y-106989265D02*
G01*
X154245567Y-107000699D01*
X154280303Y-107019266D01*
X154310748Y-107044252D01*
X154335734Y-107074697D01*
X154354301Y-107109433D01*
X154365735Y-107147126D01*
X154370200Y-107192461D01*
X154370200Y-108029139D01*
X154365735Y-108074474D01*
X154354301Y-108112167D01*
X154335734Y-108146903D01*
X154310748Y-108177348D01*
X154280303Y-108202334D01*
X154245567Y-108220901D01*
X154207874Y-108232335D01*
X154162539Y-108236800D01*
X153075861Y-108236800D01*
X153030526Y-108232335D01*
X152992833Y-108220901D01*
X152958097Y-108202334D01*
X152927652Y-108177348D01*
X152902666Y-108146903D01*
X152884099Y-108112167D01*
X152872665Y-108074474D01*
X152868200Y-108029139D01*
X152868200Y-107192461D01*
X152872665Y-107147126D01*
X152884099Y-107109433D01*
X152902666Y-107074697D01*
X152927652Y-107044252D01*
X152958097Y-107019266D01*
X152992833Y-107000699D01*
X153030526Y-106989265D01*
X153075861Y-106984800D01*
X154162539Y-106984800D01*
X154207874Y-106989265D01*
G37*
G36*
X150855074Y-106947465D02*
G01*
X150892767Y-106958899D01*
X150927503Y-106977466D01*
X150957948Y-107002452D01*
X150982934Y-107032897D01*
X151001501Y-107067633D01*
X151012935Y-107105326D01*
X151017400Y-107150661D01*
X151017400Y-107987339D01*
X151012935Y-108032674D01*
X151001501Y-108070367D01*
X150982934Y-108105103D01*
X150957948Y-108135548D01*
X150927503Y-108160534D01*
X150892767Y-108179101D01*
X150855074Y-108190535D01*
X150809739Y-108195000D01*
X149723061Y-108195000D01*
X149677726Y-108190535D01*
X149640033Y-108179101D01*
X149605297Y-108160534D01*
X149574852Y-108135548D01*
X149549866Y-108105103D01*
X149531299Y-108070367D01*
X149519865Y-108032674D01*
X149515400Y-107987339D01*
X149515400Y-107150661D01*
X149519865Y-107105326D01*
X149531299Y-107067633D01*
X149549866Y-107032897D01*
X149574852Y-107002452D01*
X149605297Y-106977466D01*
X149640033Y-106958899D01*
X149677726Y-106947465D01*
X149723061Y-106943000D01*
X150809739Y-106943000D01*
X150855074Y-106947465D01*
G37*
G36*
X173501000Y-108151000D02*
G01*
X170399000Y-108151000D01*
X170399000Y-103049000D01*
X173501000Y-103049000D01*
X173501000Y-108151000D01*
G37*
G36*
X204459468Y-105903565D02*
G01*
X204498138Y-105915296D01*
X204533777Y-105934346D01*
X204565017Y-105959983D01*
X204590654Y-105991223D01*
X204609704Y-106026862D01*
X204621435Y-106065532D01*
X204626000Y-106111888D01*
X204626000Y-107188112D01*
X204621435Y-107234468D01*
X204609704Y-107273138D01*
X204590654Y-107308777D01*
X204565017Y-107340017D01*
X204533777Y-107365654D01*
X204498138Y-107384704D01*
X204459468Y-107396435D01*
X204413112Y-107401000D01*
X203761888Y-107401000D01*
X203715532Y-107396435D01*
X203676862Y-107384704D01*
X203641223Y-107365654D01*
X203609983Y-107340017D01*
X203584346Y-107308777D01*
X203565296Y-107273138D01*
X203553565Y-107234468D01*
X203549000Y-107188112D01*
X203549000Y-106111888D01*
X203553565Y-106065532D01*
X203565296Y-106026862D01*
X203584346Y-105991223D01*
X203609983Y-105959983D01*
X203641223Y-105934346D01*
X203676862Y-105915296D01*
X203715532Y-105903565D01*
X203761888Y-105899000D01*
X204413112Y-105899000D01*
X204459468Y-105903565D01*
G37*
G36*
X202584468Y-105903565D02*
G01*
X202623138Y-105915296D01*
X202658777Y-105934346D01*
X202690017Y-105959983D01*
X202715654Y-105991223D01*
X202734704Y-106026862D01*
X202746435Y-106065532D01*
X202751000Y-106111888D01*
X202751000Y-107188112D01*
X202746435Y-107234468D01*
X202734704Y-107273138D01*
X202715654Y-107308777D01*
X202690017Y-107340017D01*
X202658777Y-107365654D01*
X202623138Y-107384704D01*
X202584468Y-107396435D01*
X202538112Y-107401000D01*
X201886888Y-107401000D01*
X201840532Y-107396435D01*
X201801862Y-107384704D01*
X201766223Y-107365654D01*
X201734983Y-107340017D01*
X201709346Y-107308777D01*
X201690296Y-107273138D01*
X201678565Y-107234468D01*
X201674000Y-107188112D01*
X201674000Y-106111888D01*
X201678565Y-106065532D01*
X201690296Y-106026862D01*
X201709346Y-105991223D01*
X201734983Y-105959983D01*
X201766223Y-105934346D01*
X201801862Y-105915296D01*
X201840532Y-105903565D01*
X201886888Y-105899000D01*
X202538112Y-105899000D01*
X202584468Y-105903565D01*
G37*
G36*
X194010721Y-104920174D02*
G01*
X194110995Y-104961709D01*
X194110996Y-104961710D01*
X194201242Y-105022010D01*
X194277990Y-105098758D01*
X194277991Y-105098760D01*
X194338291Y-105189005D01*
X194379826Y-105289279D01*
X194401000Y-105395730D01*
X194401000Y-105504270D01*
X194379826Y-105610721D01*
X194338291Y-105710995D01*
X194338290Y-105710996D01*
X194277990Y-105801242D01*
X194201242Y-105877990D01*
X194169798Y-105899000D01*
X194110995Y-105938291D01*
X194010721Y-105979826D01*
X193904270Y-106001000D01*
X193795730Y-106001000D01*
X193689279Y-105979826D01*
X193589005Y-105938291D01*
X193530202Y-105899000D01*
X193498758Y-105877990D01*
X193422010Y-105801242D01*
X193361710Y-105710996D01*
X193361709Y-105710995D01*
X193320174Y-105610721D01*
X193299000Y-105504270D01*
X193299000Y-105395730D01*
X193320174Y-105289279D01*
X193361709Y-105189005D01*
X193422009Y-105098760D01*
X193422010Y-105098758D01*
X193498758Y-105022010D01*
X193589004Y-104961710D01*
X193589005Y-104961709D01*
X193689279Y-104920174D01*
X193795730Y-104899000D01*
X193904270Y-104899000D01*
X194010721Y-104920174D01*
G37*
G36*
X183701000Y-103201000D02*
G01*
X178599000Y-103201000D01*
X178599000Y-100099000D01*
X183701000Y-100099000D01*
X183701000Y-103201000D01*
G37*
G36*
X191701000Y-103201000D02*
G01*
X186599000Y-103201000D01*
X186599000Y-100099000D01*
X191701000Y-100099000D01*
X191701000Y-103201000D01*
G37*
G36*
X225684239Y-96386467D02*
G01*
X225998282Y-96448934D01*
X226589926Y-96694001D01*
X227122392Y-97049784D01*
X227575216Y-97502608D01*
X227930999Y-98035074D01*
X228176066Y-98626718D01*
X228188116Y-98687296D01*
X228301000Y-99254803D01*
X228301000Y-99895197D01*
X228260461Y-100099000D01*
X228176066Y-100523282D01*
X227930999Y-101114926D01*
X227575216Y-101647392D01*
X227122392Y-102100216D01*
X226589926Y-102455999D01*
X225998282Y-102701066D01*
X225684239Y-102763533D01*
X225370197Y-102826000D01*
X224729803Y-102826000D01*
X224415761Y-102763533D01*
X224101718Y-102701066D01*
X223510074Y-102455999D01*
X222977608Y-102100216D01*
X222524784Y-101647392D01*
X222169001Y-101114926D01*
X221923934Y-100523282D01*
X221839539Y-100099000D01*
X221799000Y-99895197D01*
X221799000Y-99254803D01*
X221911884Y-98687296D01*
X221923934Y-98626718D01*
X222169001Y-98035074D01*
X222524784Y-97502608D01*
X222977608Y-97049784D01*
X223510074Y-96694001D01*
X224101718Y-96448934D01*
X224415761Y-96386467D01*
X224729803Y-96324000D01*
X225370197Y-96324000D01*
X225684239Y-96386467D01*
G37*
G36*
X135759239Y-96386467D02*
G01*
X136073282Y-96448934D01*
X136664926Y-96694001D01*
X137197392Y-97049784D01*
X137650216Y-97502608D01*
X138005999Y-98035074D01*
X138251066Y-98626718D01*
X138263116Y-98687296D01*
X138376000Y-99254803D01*
X138376000Y-99895197D01*
X138335461Y-100099000D01*
X138251066Y-100523282D01*
X138005999Y-101114926D01*
X137650216Y-101647392D01*
X137197392Y-102100216D01*
X136664926Y-102455999D01*
X136073282Y-102701066D01*
X135759239Y-102763533D01*
X135445197Y-102826000D01*
X134804803Y-102826000D01*
X134490761Y-102763533D01*
X134176718Y-102701066D01*
X133585074Y-102455999D01*
X133052608Y-102100216D01*
X132599784Y-101647392D01*
X132244001Y-101114926D01*
X131998934Y-100523282D01*
X131914539Y-100099000D01*
X131874000Y-99895197D01*
X131874000Y-99254803D01*
X131986884Y-98687296D01*
X131998934Y-98626718D01*
X132244001Y-98035074D01*
X132599784Y-97502608D01*
X133052608Y-97049784D01*
X133585074Y-96694001D01*
X134176718Y-96448934D01*
X134490761Y-96386467D01*
X134804803Y-96324000D01*
X135445197Y-96324000D01*
X135759239Y-96386467D01*
G37*
G36*
X205093000Y-101227000D02*
G01*
X201991000Y-101227000D01*
X201991000Y-98125000D01*
X205093000Y-98125000D01*
X205093000Y-101227000D01*
G37*
G36*
X198717585Y-98154802D02*
G01*
X198867410Y-98184604D01*
X199149674Y-98301521D01*
X199403705Y-98471259D01*
X199619741Y-98687295D01*
X199789479Y-98941326D01*
X199906396Y-99223590D01*
X199912605Y-99254804D01*
X199950129Y-99443448D01*
X199966000Y-99523240D01*
X199966000Y-99828760D01*
X199906396Y-100128410D01*
X199789479Y-100410674D01*
X199619741Y-100664705D01*
X199403705Y-100880741D01*
X199149674Y-101050479D01*
X198867410Y-101167396D01*
X198717585Y-101197198D01*
X198567761Y-101227000D01*
X198262239Y-101227000D01*
X198112415Y-101197198D01*
X197962590Y-101167396D01*
X197680326Y-101050479D01*
X197426295Y-100880741D01*
X197210259Y-100664705D01*
X197040521Y-100410674D01*
X196923604Y-100128410D01*
X196864000Y-99828760D01*
X196864000Y-99523240D01*
X196879872Y-99443448D01*
X196917395Y-99254804D01*
X196923604Y-99223590D01*
X197040521Y-98941326D01*
X197210259Y-98687295D01*
X197426295Y-98471259D01*
X197680326Y-98301521D01*
X197962590Y-98184604D01*
X198112415Y-98154802D01*
X198262239Y-98125000D01*
X198567761Y-98125000D01*
X198717585Y-98154802D01*
G37*
G36*
X198790687Y-95122996D02*
G01*
X199027453Y-95221068D01*
X199027455Y-95221069D01*
X199240539Y-95363447D01*
X199421753Y-95544661D01*
X199564132Y-95757747D01*
X199662204Y-95994513D01*
X199712200Y-96245861D01*
X199712200Y-96502139D01*
X199662204Y-96753487D01*
X199632712Y-96824686D01*
X199564131Y-96990255D01*
X199421753Y-97203339D01*
X199240539Y-97384553D01*
X199027455Y-97526931D01*
X199027454Y-97526932D01*
X199027453Y-97526932D01*
X198790687Y-97625004D01*
X198539339Y-97675000D01*
X198283061Y-97675000D01*
X198031713Y-97625004D01*
X197794947Y-97526932D01*
X197794946Y-97526932D01*
X197794945Y-97526931D01*
X197581861Y-97384553D01*
X197400647Y-97203339D01*
X197258269Y-96990255D01*
X197189688Y-96824686D01*
X197160196Y-96753487D01*
X197110200Y-96502139D01*
X197110200Y-96245861D01*
X197160196Y-95994513D01*
X197258268Y-95757747D01*
X197400647Y-95544661D01*
X197581861Y-95363447D01*
X197794945Y-95221069D01*
X197794947Y-95221068D01*
X198031713Y-95122996D01*
X198283061Y-95073000D01*
X198539339Y-95073000D01*
X198790687Y-95122996D01*
G37*
G36*
X203921487Y-95122996D02*
G01*
X204158253Y-95221068D01*
X204158255Y-95221069D01*
X204371339Y-95363447D01*
X204552553Y-95544661D01*
X204694932Y-95757747D01*
X204793004Y-95994513D01*
X204843000Y-96245861D01*
X204843000Y-96502139D01*
X204793004Y-96753487D01*
X204763512Y-96824686D01*
X204694931Y-96990255D01*
X204552553Y-97203339D01*
X204371339Y-97384553D01*
X204158255Y-97526931D01*
X204158254Y-97526932D01*
X204158253Y-97526932D01*
X203921487Y-97625004D01*
X203670139Y-97675000D01*
X203413861Y-97675000D01*
X203162513Y-97625004D01*
X202925747Y-97526932D01*
X202925746Y-97526932D01*
X202925745Y-97526931D01*
X202712661Y-97384553D01*
X202531447Y-97203339D01*
X202389069Y-96990255D01*
X202320488Y-96824686D01*
X202290996Y-96753487D01*
X202241000Y-96502139D01*
X202241000Y-96245861D01*
X202290996Y-95994513D01*
X202389068Y-95757747D01*
X202531447Y-95544661D01*
X202712661Y-95363447D01*
X202925745Y-95221069D01*
X202925747Y-95221068D01*
X203162513Y-95122996D01*
X203413861Y-95073000D01*
X203670139Y-95073000D01*
X203921487Y-95122996D01*
G37*
M02*
