M48
; DRILL file {KiCad (5.1.5)-3} date 9/18/2020 3:21:54 AM
; FORMAT={-:-/ absolute / inch / decimal}
; #@! TF.CreationDate,2020-09-18T03:21:54-03:00
; #@! TF.GenerationSoftware,Kicad,Pcbnew,(5.1.5)-3
; #@! TF.FileFunction,Plated,1,2,PTH
FMAT,2
INCH
T1C0.0157
T2C0.0197
T3C0.0394
T4C0.0433
T5C0.0512
T6C0.0709
T7C0.1260
%
G90
G05
T1
X6.144Y-4.36
X6.4931Y-4.314
X6.8087Y-4.6713
X6.86Y-4.98
X6.92Y-5.225
X7.0472Y-4.9301
X7.09Y-5.12
X7.1Y-5.25
X7.1388Y-5.1259
X7.18Y-5.33
X7.1939Y-5.0393
X7.2411Y-4.5344
X7.3002Y-4.3888
X7.5325Y-4.4469
X7.5433Y-4.6969
X7.58Y-5.38
X7.7156Y-4.1555
X7.752Y-4.6053
X7.753Y-4.8317
X7.79Y-4.52
X7.981Y-4.5734
X8.0354Y-4.4252
X8.0699Y-4.4793
X8.249Y-4.3888
X8.4803Y-4.5098
T2
X5.2254Y-5.2392
X5.2531Y-5.1724
X5.2531Y-5.306
X5.3199Y-5.1447
X5.3199Y-5.3337
X5.3867Y-5.1724
X5.3867Y-5.306
X5.4144Y-5.2392
X8.7657Y-3.9203
X8.7934Y-3.8535
X8.7934Y-3.9871
X8.8602Y-3.8258
X8.8602Y-4.0148
X8.927Y-3.8535
X8.927Y-3.9871
X8.9547Y-3.9203
X8.7638Y-5.2411
X8.7915Y-5.1743
X8.7915Y-5.308
X8.8583Y-5.1467
X8.8583Y-5.3356
X8.9251Y-5.1743
X8.9251Y-5.308
X8.9528Y-5.2411
X5.2254Y-3.9203
X5.2531Y-3.8535
X5.2531Y-3.9871
X5.3199Y-3.8258
X5.3199Y-4.0148
X5.3867Y-3.8535
X5.3867Y-3.9871
X5.4144Y-3.9203
T3
X6.3238Y-4.7723
X6.7963Y-4.7723
T4
X8.3401Y-4.6335
X8.4401Y-4.6335
X8.5401Y-4.6335
T5
X5.69Y-5.2382
X5.8918Y-5.2382
X6.3238Y-5.2526
X6.562Y-4.6955
X6.7982Y-5.2546
X7.8116Y-3.9243
X8.0135Y-3.9243
X8.8543Y-4.2588
X8.8543Y-4.4606
T6
X5.69Y-5.3682
X5.892Y-5.3682
X7.8115Y-3.7943
X8.0135Y-3.7943
X8.9843Y-4.2586
X8.9843Y-4.4606
T7
X5.3199Y-5.2392
X8.8602Y-3.9203
X8.8583Y-5.2411
X5.3199Y-3.9203
T0
M30
