G04 #@! TF.GenerationSoftware,KiCad,Pcbnew,(5.1.5)-3*
G04 #@! TF.CreationDate,2020-09-18T03:21:52-03:00*
G04 #@! TF.ProjectId,Luz de Freio,4c757a20-6465-4204-9672-65696f2e6b69,rev?*
G04 #@! TF.SameCoordinates,Original*
G04 #@! TF.FileFunction,Copper,L2,Bot*
G04 #@! TF.FilePolarity,Positive*
%FSLAX46Y46*%
G04 Gerber Fmt 4.6, Leading zero omitted, Abs format (unit mm)*
G04 Created by KiCad (PCBNEW (5.1.5)-3) date 2020-09-18 03:21:52*
%MOMM*%
%LPD*%
G04 APERTURE LIST*
%ADD10C,2.500000*%
%ADD11C,3.000000*%
%ADD12R,3.000000X3.000000*%
%ADD13C,0.800000*%
%ADD14C,6.400000*%
%ADD15O,1.905000X2.000000*%
%ADD16R,1.905000X2.000000*%
%ADD17C,0.300000*%
%ADD18C,0.700000*%
%ADD19C,1.000000*%
G04 APERTURE END LIST*
D10*
X228202000Y-108169200D03*
X228202000Y-113300000D03*
D11*
X224900000Y-108173000D03*
D12*
X224900000Y-113300000D03*
D10*
X149655800Y-136352000D03*
X144525000Y-136352000D03*
D11*
X149652000Y-133050000D03*
D12*
X144525000Y-133050000D03*
D10*
X198411200Y-96374000D03*
X203542000Y-96374000D03*
D11*
X198415000Y-99676000D03*
D12*
X203542000Y-99676000D03*
D13*
X226747056Y-97877944D03*
X225050000Y-97175000D03*
X223352944Y-97877944D03*
X222650000Y-99575000D03*
X223352944Y-101272056D03*
X225050000Y-101975000D03*
X226747056Y-101272056D03*
X227450000Y-99575000D03*
D14*
X225050000Y-99575000D03*
D13*
X136822056Y-131377944D03*
X135125000Y-130675000D03*
X133427944Y-131377944D03*
X132725000Y-133075000D03*
X133427944Y-134772056D03*
X135125000Y-135475000D03*
X136822056Y-134772056D03*
X137525000Y-133075000D03*
D14*
X135125000Y-133075000D03*
D13*
X136822056Y-97877944D03*
X135125000Y-97175000D03*
X133427944Y-97877944D03*
X132725000Y-99575000D03*
X133427944Y-101272056D03*
X135125000Y-101975000D03*
X136822056Y-101272056D03*
X137525000Y-99575000D03*
D14*
X135125000Y-99575000D03*
D13*
X226697056Y-131427944D03*
X225000000Y-130725000D03*
X223302944Y-131427944D03*
X222600000Y-133125000D03*
X223302944Y-134822056D03*
X225000000Y-135525000D03*
X226697056Y-134822056D03*
X227400000Y-133125000D03*
D14*
X225000000Y-133125000D03*
D11*
X166674800Y-119265700D03*
D10*
X172624800Y-121215700D03*
D11*
X172674800Y-133465700D03*
X160624800Y-133415700D03*
D10*
X160624800Y-121215700D03*
D15*
X211838900Y-117690900D03*
X214378900Y-117690900D03*
D16*
X216918900Y-117690900D03*
D13*
X209525000Y-111475000D03*
X185425000Y-111475000D03*
X183925000Y-115175000D03*
X191600000Y-119300000D03*
X192532000Y-136652000D03*
X174244000Y-126492000D03*
X172940669Y-118651331D03*
X156057600Y-110744000D03*
X181325000Y-130197000D03*
X215400001Y-114549999D03*
X202716433Y-116164513D03*
X195975000Y-105550000D03*
X196900000Y-116975000D03*
X196925000Y-122725000D03*
X179000000Y-125225000D03*
X204975000Y-113775000D03*
X182725000Y-127997000D03*
X191325000Y-112950000D03*
X204100000Y-112400000D03*
X164925000Y-109575000D03*
X175768000Y-132715700D03*
X182372000Y-135382000D03*
X180340000Y-133350000D03*
X197866000Y-114808000D03*
X180086000Y-130048000D03*
D17*
X224399990Y-113507110D02*
X224546440Y-113653560D01*
X224399990Y-113400000D02*
X224399990Y-113507110D01*
X210884315Y-113400000D02*
X224399990Y-113400000D01*
X209525000Y-112040685D02*
X210884315Y-113400000D01*
X209525000Y-111475000D02*
X209525000Y-112040685D01*
X209525000Y-111475000D02*
X185425000Y-111475000D01*
X187475000Y-115175000D02*
X186425000Y-115175000D01*
X191600000Y-119300000D02*
X187475000Y-115175000D01*
X186425000Y-115175000D02*
X183925000Y-115175000D01*
X174244000Y-126492000D02*
X174244000Y-119954662D01*
X174244000Y-119954662D02*
X172940669Y-118651331D01*
D18*
X149652000Y-136348200D02*
X149655800Y-136352000D01*
X149652000Y-133050000D02*
X149652000Y-136348200D01*
D19*
X149955800Y-136652000D02*
X149655800Y-136352000D01*
X192532000Y-136652000D02*
X149955800Y-136652000D01*
D17*
X172624800Y-133415700D02*
X172674800Y-133465700D01*
X172624800Y-121215700D02*
X172624800Y-133415700D01*
X156057600Y-114604800D02*
X156057600Y-110744000D01*
X157403800Y-115951000D02*
X156057600Y-114604800D01*
X169127866Y-115951000D02*
X157403800Y-115951000D01*
X172624800Y-121215700D02*
X172624800Y-119447934D01*
X172624800Y-119447934D02*
X169127866Y-115951000D01*
X215400001Y-114549999D02*
X204330947Y-114549999D01*
X204330947Y-114549999D02*
X202716433Y-116164513D01*
X179834300Y-131687700D02*
X181325000Y-130197000D01*
X172674800Y-133465700D02*
X178056300Y-133465700D01*
X178056300Y-133465700D02*
X179834300Y-131687700D01*
X195975000Y-105550000D02*
X202100000Y-105550000D01*
X202100000Y-105550000D02*
X203650000Y-104000000D01*
X203749110Y-100176010D02*
X203895560Y-100029560D01*
X203650000Y-104000000D02*
X203650000Y-100176010D01*
X203650000Y-100176010D02*
X203749110Y-100176010D01*
D18*
X203542000Y-99676000D02*
X203542000Y-96374000D01*
D17*
X196900000Y-116975000D02*
X196900000Y-122700000D01*
X196900000Y-122700000D02*
X196925000Y-122725000D01*
X204937500Y-113812500D02*
X204975000Y-113775000D01*
X190587500Y-113812500D02*
X183537500Y-113812500D01*
X190587500Y-113812500D02*
X204937500Y-113812500D01*
X190412500Y-113812500D02*
X190587500Y-113812500D01*
X183537500Y-113812500D02*
X179825000Y-117525000D01*
X179825000Y-124400000D02*
X179000000Y-125225000D01*
X179825000Y-117525000D02*
X179825000Y-124400000D01*
X213702900Y-117690900D02*
X213702900Y-117738400D01*
X206660300Y-127997000D02*
X206825650Y-127831650D01*
X182725000Y-127997000D02*
X206660300Y-127997000D01*
X206825650Y-127831650D02*
X216918900Y-117738400D01*
D18*
X144525000Y-133050000D02*
X144525000Y-136352000D01*
D17*
X198450000Y-112975000D02*
X191350000Y-112975000D01*
X191350000Y-112975000D02*
X191325000Y-112950000D01*
X198450000Y-112975000D02*
X202825000Y-112975000D01*
X202825000Y-112975000D02*
X203375000Y-112975000D01*
X203375000Y-112975000D02*
X203525000Y-112975000D01*
X203525000Y-112975000D02*
X204100000Y-112400000D01*
X175150000Y-119800000D02*
X164925000Y-109575000D01*
X175768000Y-120418000D02*
X175150000Y-119800000D01*
X175768000Y-132715700D02*
X175768000Y-120418000D01*
X182372000Y-135382000D02*
X180340000Y-133350000D01*
X197866000Y-114808000D02*
X185928000Y-126746000D01*
X185928000Y-126746000D02*
X182626000Y-126746000D01*
X182626000Y-126746000D02*
X180086000Y-129286000D01*
X180086000Y-129286000D02*
X180086000Y-130048000D01*
M02*
