M48
; DRILL file {KiCad (5.1.5)-3} date 9/18/2020 3:15:41 AM
; FORMAT={-:-/ absolute / inch / decimal}
; #@! TF.CreationDate,2020-09-18T03:15:41-03:00
; #@! TF.GenerationSoftware,Kicad,Pcbnew,(5.1.5)-3
; #@! TF.FileFunction,Plated,1,2,PTH
FMAT,2
INCH
T1C0.0157
T2C0.0197
T3C0.0315
T4C0.0394
T5C0.0512
T6C0.0709
T7C0.1260
%
G90
G05
T1
X4.568Y-5.268
X4.595Y-4.425
X4.595Y-4.8
X4.715Y-4.615
X4.825Y-3.7325
X4.825Y-4.265
X4.85Y-5.232
X4.865Y-4.345
X4.918Y-5.23
X5.0136Y-4.855
X5.015Y-4.785
X5.015Y-4.6975
X5.0175Y-4.545
X5.0175Y-4.6175
X5.336Y-4.03
X5.35Y-4.8575
X5.535Y-3.665
X5.535Y-4.935
X5.554Y-3.914
X5.726Y-4.354
X5.726Y-4.498
X5.8275Y-4.6175
X5.8875Y-5.1075
X5.895Y-4.545
X5.915Y-5.1725
X5.9475Y-4.2575
X5.98Y-4.315
X6.1175Y-4.7825
X6.214Y-4.03
X6.2825Y-4.315
X6.324Y-3.478
X6.414Y-3.478
X6.43Y-4.9325
X6.47Y-4.635
X6.508Y-3.518
X6.515Y-4.6975
X6.57Y-4.3775
X6.57Y-4.4775
X6.57Y-5.1075
X6.575Y-4.205
X6.575Y-4.2575
X6.575Y-4.305
X6.604Y-3.516
X6.6275Y-5.2325
X6.628Y-4.105
X6.69Y-3.9199
X6.69Y-4.155
X6.6925Y-4.3575
X6.698Y-3.516
X6.706Y-4.458
X6.73Y-4.89
X6.82Y-3.924
X6.884Y-3.514
X6.9625Y-5.125
X7.0375Y-5.225
X7.0475Y-4.695
X7.16Y-4.3775
X7.205Y-5.125
X7.2625Y-4.89
T2
X7.3895Y-5.394
X7.4172Y-5.3272
X7.4172Y-5.4608
X7.484Y-5.2995
X7.484Y-5.4885
X7.5508Y-5.3272
X7.5508Y-5.4608
X7.5785Y-5.394
X7.3895Y-3.056
X7.4172Y-2.9892
X7.4172Y-3.1228
X7.484Y-2.9615
X7.484Y-3.1505
X7.5508Y-2.9892
X7.5508Y-3.1228
X7.5785Y-3.056
X3.8375Y-5.392
X3.8652Y-5.3252
X3.8652Y-5.4588
X3.932Y-5.2975
X3.932Y-5.4865
X3.9988Y-5.3252
X3.9988Y-5.4588
X4.0265Y-5.392
X3.8355Y-3.054
X3.8632Y-2.9872
X3.8632Y-3.1208
X3.93Y-2.9595
X3.93Y-3.1485
X3.9968Y-2.9872
X3.9968Y-3.1208
X4.0245Y-3.054
T3
X5.251Y-5.1692
X5.351Y-5.1692
X5.451Y-5.1692
X5.623Y-5.1712
X5.723Y-5.1712
X5.823Y-5.1712
T4
X6.0596Y-5.1874
X6.1596Y-5.1874
X6.2596Y-5.1874
T5
X7.4725Y-4.4706
X7.4725Y-4.6725
X3.94Y-4.835
X3.9425Y-3.6625
X3.9425Y-3.8644
X3.9375Y-4.2375
X3.9375Y-4.4394
X3.94Y-5.0369
T6
X3.8125Y-3.6625
X3.8125Y-3.8645
X7.6025Y-4.4705
X7.6025Y-4.6725
X3.8075Y-4.2375
X3.8075Y-4.4395
X3.81Y-4.835
X3.81Y-5.037
T7
X7.484Y-3.056
X3.932Y-5.392
X3.93Y-3.054
X7.484Y-5.394
T0
M30
