M48
; DRILL file {KiCad (5.1.5)-3} date 25/09/2020 18:51:06
; FORMAT={-:-/ absolute / inch / decimal}
; #@! TF.CreationDate,2020-09-25T18:51:06-03:00
; #@! TF.GenerationSoftware,Kicad,Pcbnew,(5.1.5)-3
; #@! TF.FileFunction,Plated,1,2,PTH
FMAT,2
INCH
T1C0.0157
T2C0.0276
T3C0.0315
T4C0.0394
%
G90
G05
T1
X2.925Y-2.8246
X2.9321Y-2.4813
X2.9567Y-2.9646
X2.9911Y-2.5935
X3.3041Y-2.4675
X3.3819Y-2.4528
X3.4094Y-2.3199
X3.4419Y-2.4518
X3.6181Y-2.7441
X3.6211Y-1.6102
X3.6575Y-2.3642
X3.6919Y-2.4232
X3.6937Y-2.887
T2
X1.8654Y-2.6446
X2.0654Y-2.6446
X3.0555Y-2.3713
X3.2555Y-2.3713
X2.15Y-3.3421
X2.35Y-3.3421
X1.8567Y-3.1268
X2.0567Y-3.1268
X2.0291Y-2.1602
X2.2291Y-2.1602
X3.0575Y-1.6617
X3.2575Y-1.6617
X2.0272Y-1.6702
X2.2272Y-1.6702
X1.8654Y-2.5354
X2.0654Y-2.5354
X3.3579Y-2.0579
X3.5579Y-2.0579
X3.2047Y-3.3449
X3.4047Y-3.3449
X1.8535Y-3.3409
X2.0535Y-3.3409
X3.0555Y-2.0547
X3.2555Y-2.0547
X2.0291Y-2.3839
X2.2291Y-2.3839
X3.0583Y-1.8756
X3.2583Y-1.8756
X3.2047Y-2.6457
X3.4047Y-2.6457
X3.0555Y-2.1602
X3.2555Y-2.1602
X2.1547Y-2.6446
X2.3547Y-2.6446
X1.8559Y-3.2323
X2.0559Y-3.2323
X3.2047Y-3.2361
X3.4047Y-3.2361
X3.3587Y-1.8748
X3.5587Y-1.8748
X2.0272Y-1.8831
X2.2272Y-1.8831
X2.1547Y-2.863
X2.3547Y-2.863
X3.3579Y-2.1646
X3.5579Y-2.1646
X3.2047Y-2.5358
X3.4047Y-2.5358
X2.1539Y-3.0189
X2.3539Y-3.0189
X3.2047Y-3.1273
X3.4047Y-3.1273
X2.0291Y-2.272
X2.2291Y-2.272
X2.0272Y-1.5638
X2.2272Y-1.5638
X3.0587Y-1.5547
X3.2587Y-1.5547
X1.8654Y-2.863
X2.0654Y-2.863
X3.0555Y-2.2657
X3.2555Y-2.2657
X3.3591Y-2.3669
X3.5591Y-2.3669
X2.1512Y-3.2319
X2.3512Y-3.2319
X3.3559Y-1.5547
X3.5559Y-1.5547
X2.0272Y-1.7766
X2.2272Y-1.7766
X3.2047Y-2.8654
X3.4047Y-2.8654
X3.2051Y-2.7575
X3.4051Y-2.7575
X2.1547Y-2.7538
X2.3547Y-2.7538
X3.3583Y-2.2665
X3.5583Y-2.2665
X2.1524Y-3.1266
X2.3524Y-3.1266
X1.8591Y-3.0189
X2.0591Y-3.0189
X3.0547Y-1.7686
X3.2547Y-1.7686
X3.3539Y-1.7681
X3.5539Y-1.7681
X1.8654Y-2.7538
X2.0654Y-2.7538
X2.1547Y-2.5354
X2.3547Y-2.5354
X3.3551Y-1.6614
X3.5551Y-1.6614
X2.0291Y-2.0484
X2.2291Y-2.0484
X3.2047Y-3.0185
X3.4047Y-3.0185
T3
X3.0778Y-2.4734
X3.6777Y-3.409
T4
X3.7598Y-1.5183
X3.7598Y-1.6183
X3.7598Y-1.7183
X3.7598Y-1.8183
X3.7598Y-1.9183
X3.8598Y-1.5183
X3.8598Y-1.6183
X3.8598Y-1.7183
X3.8598Y-1.8183
X3.8598Y-1.9183
X2.1626Y-3.6374
X2.2626Y-3.6374
X2.3626Y-3.6374
X1.6134Y-2.5732
X1.6134Y-2.6732
X1.6134Y-2.7732
X1.6134Y-2.8732
X1.6134Y-2.9732
X1.6134Y-3.0732
X1.6134Y-3.1732
X1.6134Y-3.2732
X1.6134Y-3.3732
X1.6134Y-3.4732
X2.9697Y-3.5327
X3.0697Y-3.5327
X3.1697Y-3.5327
X3.2697Y-3.5327
X3.3697Y-3.5327
X3.4697Y-3.5327
X3.5697Y-3.5327
X3.6697Y-3.5327
X3.7697Y-3.5327
X3.8697Y-3.5327
X3.8591Y-2.9091
X3.8591Y-3.0091
X3.8591Y-3.1091
X3.8591Y-3.2091
X3.8591Y-3.3091
X3.7628Y-2.1136
X3.7628Y-2.2136
X3.7628Y-2.3136
X3.7628Y-2.4136
X3.7628Y-2.5136
X3.7628Y-2.6136
X3.7628Y-2.7136
X3.8628Y-2.1136
X3.8628Y-2.2136
X3.8628Y-2.3136
X3.8628Y-2.4136
X3.8628Y-2.5136
X3.8628Y-2.6136
X3.8628Y-2.7136
X2.1626Y-3.4906
X2.2626Y-3.4906
X2.3626Y-3.4906
X1.6165Y-1.5142
X1.6165Y-1.6142
X1.6165Y-1.7142
X1.6165Y-1.8142
X1.6165Y-1.9142
X1.6165Y-2.0142
X1.6165Y-2.1142
X1.6165Y-2.2142
X1.6165Y-2.3142
X1.6165Y-2.4142
T0
M30
