M48
; DRILL file {KiCad (5.1.5)-3} date 9/18/2020 3:23:38 AM
; FORMAT={-:-/ absolute / inch / decimal}
; #@! TF.CreationDate,2020-09-18T03:23:38-03:00
; #@! TF.GenerationSoftware,Kicad,Pcbnew,(5.1.5)-3
; #@! TF.FileFunction,Plated,1,2,PTH
FMAT,2
INCH
T1C0.0157
T2C0.0197
T3C0.0394
T4C0.0433
T5C0.0512
T6C0.0551
T7C0.0709
T8C0.1181
T9C0.1260
T10C0.1378
%
G90
G05
T1
X4.218Y-5.074
X4.46Y-4.3
X4.498Y-4.782
X4.52Y-2.94
X4.59Y-4.87
X4.6282Y-4.7818
X4.66Y-2.84
X4.69Y-4.07
X4.81Y-3.07
X4.81Y-3.41
X4.81Y-4.79
X4.834Y-2.924
X4.84Y-4.29
X4.89Y-5.0
X4.9Y-2.924
X4.95Y-4.29
X5.11Y-4.02
X5.162Y-3.46
X5.1773Y-5.1573
X5.292Y-3.362
X5.3Y-4.75
X5.36Y-4.65
X5.46Y-4.55
X5.56Y-4.33
X5.59Y-4.14
X5.71Y-5.05
X5.76Y-4.19
X5.78Y-5.3
X5.83Y-4.52
X5.8452Y-5.0352
X5.97Y-5.02
X5.98Y-4.38
X6.18Y-5.25
X6.18Y-5.65
X6.21Y-4.38
X6.21Y-4.55
X6.27Y-4.64
X6.7Y-4.69
X6.98Y-5.48
X7.13Y-5.48
X7.15Y-2.57
X7.15Y-2.79
X7.16Y-2.68
X7.16Y-3.23
X7.16Y-3.52
X7.3Y-3.43
X7.31Y-2.71
X7.31Y-3.39
X7.35Y-2.84
X7.35Y-3.57
X7.36Y-3.3
X7.58Y-4.21
X7.62Y-4.67
X8.01Y-3.72
X8.07Y-3.2
X8.07Y-3.28
X8.09Y-2.55
X8.09Y-2.63
X8.09Y-3.0
X8.09Y-3.56
X8.09Y-3.63
X8.0986Y-2.8486
X8.1Y-2.93
X8.17Y-3.92
X8.2Y-3.73
X8.25Y-2.74
X8.3Y-3.43
X8.32Y-3.07
X8.414Y-3.844
X8.56Y-3.03
X8.56Y-5.73
X8.6Y-5.64
X8.74Y-3.03
X8.78Y-2.72
X8.82Y-3.43
X8.95Y-4.91
T2
X9.3819Y-5.7441
X9.4096Y-5.6773
X9.4096Y-5.8109
X9.4764Y-5.6496
X9.4764Y-5.8386
X9.5432Y-5.6773
X9.5432Y-5.8109
X9.5709Y-5.7441
X9.382Y-2.0781
X9.4097Y-2.0113
X9.4097Y-2.1449
X9.4765Y-1.9836
X9.4765Y-2.1726
X9.5433Y-2.0113
X9.5433Y-2.1449
X9.571Y-2.0781
X3.3691Y-5.7521
X3.3968Y-5.6853
X3.3968Y-5.8189
X3.4636Y-5.6576
X3.4636Y-5.8466
X3.5304Y-5.6853
X3.5304Y-5.8189
X3.5581Y-5.7521
X3.365Y-2.0773
X3.3926Y-2.0105
X3.3926Y-2.1441
X3.4594Y-1.9828
X3.4594Y-2.1718
X3.5263Y-2.0105
X3.5263Y-2.1441
X3.5539Y-2.0773
T3
X5.5144Y-1.9639
X5.5144Y-2.0639
X5.5144Y-2.1639
X5.5144Y-2.2639
X5.5144Y-2.3639
X5.5144Y-2.4639
X5.5144Y-2.5639
X5.5144Y-2.6639
X5.5144Y-2.7639
X5.5144Y-2.8639
X5.5144Y-2.9639
X5.5144Y-3.0639
X5.5144Y-3.1639
X5.5144Y-3.2639
X5.5144Y-3.3639
X5.5144Y-3.4639
X5.5144Y-3.5639
X5.5144Y-3.6639
X5.5144Y-3.7639
X5.5144Y-3.8639
X6.2104Y-1.9649
X6.2104Y-2.0649
X6.2104Y-2.1649
X6.2104Y-2.2649
X6.2104Y-2.3649
X6.2104Y-2.4649
X6.2104Y-2.5649
X6.2104Y-2.6649
X6.2104Y-2.7649
X6.2104Y-2.8649
X6.2104Y-2.9649
X6.2104Y-3.0649
X6.2104Y-3.1649
X6.2104Y-3.2649
X6.2104Y-3.3649
X6.2104Y-3.4649
X6.2104Y-3.5649
X6.2104Y-3.6649
X6.2104Y-3.7649
X6.2104Y-3.8649
T4
X4.3928Y-5.1665
X4.4928Y-5.1665
X4.5928Y-5.1665
T5
X4.6381Y-2.09
X4.84Y-2.09
X5.177Y-5.742
X5.3788Y-5.742
T6
X9.2598Y-2.6831
X9.2598Y-2.8831
X9.2598Y-3.0831
X9.2598Y-3.2831
X9.2598Y-3.4831
X9.2598Y-3.6831
T7
X4.64Y-1.96
X4.84Y-1.96
X5.177Y-5.872
X5.377Y-5.872
X3.834Y-4.9239
X3.834Y-5.0893
X3.834Y-5.2546
X3.834Y-5.42
X4.0505Y-4.9239
X4.0505Y-5.0893
X4.0505Y-5.2546
X4.0505Y-5.42
X3.836Y-2.4079
X3.836Y-2.5733
X3.836Y-2.7386
X3.836Y-2.904
X4.0525Y-2.4079
X4.0525Y-2.5733
X4.0525Y-2.7386
X4.0525Y-2.904
T8
X9.472Y-2.6844
X9.472Y-3.09
X9.472Y-3.286
X9.472Y-3.492
X9.472Y-3.692
X9.473Y-2.889
T9
X9.4764Y-5.7441
X9.4765Y-2.0781
X3.4636Y-5.7521
X3.4594Y-2.0773
T10
X3.401Y-3.864
T0
M30
