G04 #@! TF.GenerationSoftware,KiCad,Pcbnew,(5.1.5)-3*
G04 #@! TF.CreationDate,2020-09-18T03:23:34-03:00*
G04 #@! TF.ProjectId,Main ECU,4d61696e-2045-4435-952e-6b696361645f,rev?*
G04 #@! TF.SameCoordinates,Original*
G04 #@! TF.FileFunction,Copper,L2,Bot*
G04 #@! TF.FilePolarity,Positive*
%FSLAX46Y46*%
G04 Gerber Fmt 4.6, Leading zero omitted, Abs format (unit mm)*
G04 Created by KiCad (PCBNEW (5.1.5)-3) date 2020-09-18 03:23:34*
%MOMM*%
%LPD*%
G04 APERTURE LIST*
%ADD10C,0.300000*%
%ADD11C,0.100000*%
%ADD12O,3.700000X2.700000*%
%ADD13C,0.800000*%
%ADD14C,6.400000*%
%ADD15C,2.500000*%
%ADD16C,3.000000*%
%ADD17R,3.000000X3.000000*%
%ADD18O,1.905000X2.000000*%
%ADD19R,1.905000X2.000000*%
%ADD20O,3.600000X2.080000*%
%ADD21C,6.000000*%
%ADD22O,1.700000X1.700000*%
%ADD23C,1.700000*%
%ADD24R,1.700000X1.700000*%
%ADD25C,4.000000*%
%ADD26C,0.600000*%
G04 APERTURE END LIST*
D10*
X136574720Y-149149500D02*
X136574720Y-145847500D01*
X131494720Y-149149500D02*
X131494720Y-145847500D01*
X117856000Y-49784000D02*
X117856000Y-53086000D01*
X122936000Y-49784000D02*
X122936000Y-53086000D01*
D11*
G36*
X160614200Y-71244280D02*
G01*
X155026200Y-71244280D01*
X155026200Y-69212280D01*
X160614200Y-69212280D01*
X160614200Y-71244280D01*
G37*
X160614200Y-71244280D02*
X155026200Y-71244280D01*
X155026200Y-69212280D01*
X160614200Y-69212280D01*
X160614200Y-71244280D01*
G36*
X160614200Y-83944280D02*
G01*
X155026200Y-83944280D01*
X155026200Y-81912280D01*
X160614200Y-81912280D01*
X160614200Y-83944280D01*
G37*
X160614200Y-83944280D02*
X155026200Y-83944280D01*
X155026200Y-81912280D01*
X160614200Y-81912280D01*
X160614200Y-83944280D01*
G36*
X160614200Y-89024280D02*
G01*
X155026200Y-89024280D01*
X155026200Y-86992280D01*
X160614200Y-86992280D01*
X160614200Y-89024280D01*
G37*
X160614200Y-89024280D02*
X155026200Y-89024280D01*
X155026200Y-86992280D01*
X160614200Y-86992280D01*
X160614200Y-89024280D01*
G36*
X160614200Y-73784280D02*
G01*
X155026200Y-73784280D01*
X155026200Y-71752280D01*
X160614200Y-71752280D01*
X160614200Y-73784280D01*
G37*
X160614200Y-73784280D02*
X155026200Y-73784280D01*
X155026200Y-71752280D01*
X160614200Y-71752280D01*
X160614200Y-73784280D01*
G36*
X160614200Y-81404280D02*
G01*
X155026200Y-81404280D01*
X155026200Y-79372280D01*
X160614200Y-79372280D01*
X160614200Y-81404280D01*
G37*
X160614200Y-81404280D02*
X155026200Y-81404280D01*
X155026200Y-79372280D01*
X160614200Y-79372280D01*
X160614200Y-81404280D01*
G36*
X160614200Y-86484280D02*
G01*
X155026200Y-86484280D01*
X155026200Y-84452280D01*
X160614200Y-84452280D01*
X160614200Y-86484280D01*
G37*
X160614200Y-86484280D02*
X155026200Y-86484280D01*
X155026200Y-84452280D01*
X160614200Y-84452280D01*
X160614200Y-86484280D01*
G36*
X160614200Y-68704280D02*
G01*
X155026200Y-68704280D01*
X155026200Y-66672280D01*
X160614200Y-66672280D01*
X160614200Y-68704280D01*
G37*
X160614200Y-68704280D02*
X155026200Y-68704280D01*
X155026200Y-66672280D01*
X160614200Y-66672280D01*
X160614200Y-68704280D01*
G36*
X160614200Y-78864280D02*
G01*
X155026200Y-78864280D01*
X155026200Y-76832280D01*
X160614200Y-76832280D01*
X160614200Y-78864280D01*
G37*
X160614200Y-78864280D02*
X155026200Y-78864280D01*
X155026200Y-76832280D01*
X160614200Y-76832280D01*
X160614200Y-78864280D01*
G36*
X160614200Y-61084280D02*
G01*
X155026200Y-61084280D01*
X155026200Y-59052280D01*
X160614200Y-59052280D01*
X160614200Y-61084280D01*
G37*
X160614200Y-61084280D02*
X155026200Y-61084280D01*
X155026200Y-59052280D01*
X160614200Y-59052280D01*
X160614200Y-61084280D01*
G36*
X160614200Y-66164280D02*
G01*
X155026200Y-66164280D01*
X155026200Y-64132280D01*
X160614200Y-64132280D01*
X160614200Y-66164280D01*
G37*
X160614200Y-66164280D02*
X155026200Y-66164280D01*
X155026200Y-64132280D01*
X160614200Y-64132280D01*
X160614200Y-66164280D01*
G36*
X160614200Y-63624280D02*
G01*
X155026200Y-63624280D01*
X155026200Y-61592280D01*
X160614200Y-61592280D01*
X160614200Y-63624280D01*
G37*
X160614200Y-63624280D02*
X155026200Y-63624280D01*
X155026200Y-61592280D01*
X160614200Y-61592280D01*
X160614200Y-63624280D01*
G36*
X160614200Y-94104280D02*
G01*
X155026200Y-94104280D01*
X155026200Y-92072280D01*
X160614200Y-92072280D01*
X160614200Y-94104280D01*
G37*
X160614200Y-94104280D02*
X155026200Y-94104280D01*
X155026200Y-92072280D01*
X160614200Y-92072280D01*
X160614200Y-94104280D01*
G36*
X160614200Y-91564280D02*
G01*
X155026200Y-91564280D01*
X155026200Y-89532280D01*
X160614200Y-89532280D01*
X160614200Y-91564280D01*
G37*
X160614200Y-91564280D02*
X155026200Y-91564280D01*
X155026200Y-89532280D01*
X160614200Y-89532280D01*
X160614200Y-91564280D01*
G36*
X160614200Y-76324280D02*
G01*
X155026200Y-76324280D01*
X155026200Y-74292280D01*
X160614200Y-74292280D01*
X160614200Y-76324280D01*
G37*
X160614200Y-76324280D02*
X155026200Y-76324280D01*
X155026200Y-74292280D01*
X160614200Y-74292280D01*
X160614200Y-76324280D01*
G36*
X160614200Y-96644280D02*
G01*
X155026200Y-96644280D01*
X155026200Y-94612280D01*
X160614200Y-94612280D01*
X160614200Y-96644280D01*
G37*
X160614200Y-96644280D02*
X155026200Y-96644280D01*
X155026200Y-94612280D01*
X160614200Y-94612280D01*
X160614200Y-96644280D01*
G36*
X160614200Y-99184280D02*
G01*
X155026200Y-99184280D01*
X155026200Y-97152280D01*
X160614200Y-97152280D01*
X160614200Y-99184280D01*
G37*
X160614200Y-99184280D02*
X155026200Y-99184280D01*
X155026200Y-97152280D01*
X160614200Y-97152280D01*
X160614200Y-99184280D01*
G36*
X160614200Y-50924280D02*
G01*
X155026200Y-50924280D01*
X155026200Y-48892280D01*
X160614200Y-48892280D01*
X160614200Y-50924280D01*
G37*
X160614200Y-50924280D02*
X155026200Y-50924280D01*
X155026200Y-48892280D01*
X160614200Y-48892280D01*
X160614200Y-50924280D01*
G36*
X160614200Y-56004280D02*
G01*
X155026200Y-56004280D01*
X155026200Y-53972280D01*
X160614200Y-53972280D01*
X160614200Y-56004280D01*
G37*
X160614200Y-56004280D02*
X155026200Y-56004280D01*
X155026200Y-53972280D01*
X160614200Y-53972280D01*
X160614200Y-56004280D01*
G36*
X160614200Y-53464280D02*
G01*
X155026200Y-53464280D01*
X155026200Y-51432280D01*
X160614200Y-51432280D01*
X160614200Y-53464280D01*
G37*
X160614200Y-53464280D02*
X155026200Y-53464280D01*
X155026200Y-51432280D01*
X160614200Y-51432280D01*
X160614200Y-53464280D01*
G36*
X160614200Y-58544280D02*
G01*
X155026200Y-58544280D01*
X155026200Y-56512280D01*
X160614200Y-56512280D01*
X160614200Y-58544280D01*
G37*
X160614200Y-58544280D02*
X155026200Y-58544280D01*
X155026200Y-56512280D01*
X160614200Y-56512280D01*
X160614200Y-58544280D01*
G36*
X142834200Y-58544280D02*
G01*
X137246200Y-58544280D01*
X137246200Y-56512280D01*
X142834200Y-56512280D01*
X142834200Y-58544280D01*
G37*
X142834200Y-58544280D02*
X137246200Y-58544280D01*
X137246200Y-56512280D01*
X142834200Y-56512280D01*
X142834200Y-58544280D01*
G36*
X142834200Y-50924280D02*
G01*
X137246200Y-50924280D01*
X137246200Y-48892280D01*
X142834200Y-48892280D01*
X142834200Y-50924280D01*
G37*
X142834200Y-50924280D02*
X137246200Y-50924280D01*
X137246200Y-48892280D01*
X142834200Y-48892280D01*
X142834200Y-50924280D01*
G36*
X142834200Y-56004280D02*
G01*
X137246200Y-56004280D01*
X137246200Y-53972280D01*
X142834200Y-53972280D01*
X142834200Y-56004280D01*
G37*
X142834200Y-56004280D02*
X137246200Y-56004280D01*
X137246200Y-53972280D01*
X142834200Y-53972280D01*
X142834200Y-56004280D01*
G36*
X142834200Y-53464280D02*
G01*
X137246200Y-53464280D01*
X137246200Y-51432280D01*
X142834200Y-51432280D01*
X142834200Y-53464280D01*
G37*
X142834200Y-53464280D02*
X137246200Y-53464280D01*
X137246200Y-51432280D01*
X142834200Y-51432280D01*
X142834200Y-53464280D01*
G36*
X142834200Y-68704280D02*
G01*
X137246200Y-68704280D01*
X137246200Y-66672280D01*
X142834200Y-66672280D01*
X142834200Y-68704280D01*
G37*
X142834200Y-68704280D02*
X137246200Y-68704280D01*
X137246200Y-66672280D01*
X142834200Y-66672280D01*
X142834200Y-68704280D01*
G36*
X142834200Y-61084280D02*
G01*
X137246200Y-61084280D01*
X137246200Y-59052280D01*
X142834200Y-59052280D01*
X142834200Y-61084280D01*
G37*
X142834200Y-61084280D02*
X137246200Y-61084280D01*
X137246200Y-59052280D01*
X142834200Y-59052280D01*
X142834200Y-61084280D01*
G36*
X142834200Y-63624280D02*
G01*
X137246200Y-63624280D01*
X137246200Y-61592280D01*
X142834200Y-61592280D01*
X142834200Y-63624280D01*
G37*
X142834200Y-63624280D02*
X137246200Y-63624280D01*
X137246200Y-61592280D01*
X142834200Y-61592280D01*
X142834200Y-63624280D01*
G36*
X142834200Y-66164280D02*
G01*
X137246200Y-66164280D01*
X137246200Y-64132280D01*
X142834200Y-64132280D01*
X142834200Y-66164280D01*
G37*
X142834200Y-66164280D02*
X137246200Y-66164280D01*
X137246200Y-64132280D01*
X142834200Y-64132280D01*
X142834200Y-66164280D01*
G36*
X142834200Y-73784280D02*
G01*
X137246200Y-73784280D01*
X137246200Y-71752280D01*
X142834200Y-71752280D01*
X142834200Y-73784280D01*
G37*
X142834200Y-73784280D02*
X137246200Y-73784280D01*
X137246200Y-71752280D01*
X142834200Y-71752280D01*
X142834200Y-73784280D01*
G36*
X142834200Y-71244280D02*
G01*
X137246200Y-71244280D01*
X137246200Y-69212280D01*
X142834200Y-69212280D01*
X142834200Y-71244280D01*
G37*
X142834200Y-71244280D02*
X137246200Y-71244280D01*
X137246200Y-69212280D01*
X142834200Y-69212280D01*
X142834200Y-71244280D01*
G36*
X142834200Y-78864280D02*
G01*
X137246200Y-78864280D01*
X137246200Y-76832280D01*
X142834200Y-76832280D01*
X142834200Y-78864280D01*
G37*
X142834200Y-78864280D02*
X137246200Y-78864280D01*
X137246200Y-76832280D01*
X142834200Y-76832280D01*
X142834200Y-78864280D01*
G36*
X142834200Y-76324280D02*
G01*
X137246200Y-76324280D01*
X137246200Y-74292280D01*
X142834200Y-74292280D01*
X142834200Y-76324280D01*
G37*
X142834200Y-76324280D02*
X137246200Y-76324280D01*
X137246200Y-74292280D01*
X142834200Y-74292280D01*
X142834200Y-76324280D01*
G36*
X142834200Y-83944280D02*
G01*
X137246200Y-83944280D01*
X137246200Y-81912280D01*
X142834200Y-81912280D01*
X142834200Y-83944280D01*
G37*
X142834200Y-83944280D02*
X137246200Y-83944280D01*
X137246200Y-81912280D01*
X142834200Y-81912280D01*
X142834200Y-83944280D01*
G36*
X142834200Y-81404280D02*
G01*
X137246200Y-81404280D01*
X137246200Y-79372280D01*
X142834200Y-79372280D01*
X142834200Y-81404280D01*
G37*
X142834200Y-81404280D02*
X137246200Y-81404280D01*
X137246200Y-79372280D01*
X142834200Y-79372280D01*
X142834200Y-81404280D01*
G36*
X142834200Y-89024280D02*
G01*
X137246200Y-89024280D01*
X137246200Y-86992280D01*
X142834200Y-86992280D01*
X142834200Y-89024280D01*
G37*
X142834200Y-89024280D02*
X137246200Y-89024280D01*
X137246200Y-86992280D01*
X142834200Y-86992280D01*
X142834200Y-89024280D01*
G36*
X142834200Y-86484280D02*
G01*
X137246200Y-86484280D01*
X137246200Y-84452280D01*
X142834200Y-84452280D01*
X142834200Y-86484280D01*
G37*
X142834200Y-86484280D02*
X137246200Y-86484280D01*
X137246200Y-84452280D01*
X142834200Y-84452280D01*
X142834200Y-86484280D01*
G36*
X142834200Y-94104280D02*
G01*
X137246200Y-94104280D01*
X137246200Y-92072280D01*
X142834200Y-92072280D01*
X142834200Y-94104280D01*
G37*
X142834200Y-94104280D02*
X137246200Y-94104280D01*
X137246200Y-92072280D01*
X142834200Y-92072280D01*
X142834200Y-94104280D01*
G36*
X142834200Y-91564280D02*
G01*
X137246200Y-91564280D01*
X137246200Y-89532280D01*
X142834200Y-89532280D01*
X142834200Y-91564280D01*
G37*
X142834200Y-91564280D02*
X137246200Y-91564280D01*
X137246200Y-89532280D01*
X142834200Y-89532280D01*
X142834200Y-91564280D01*
G36*
X142834200Y-96644280D02*
G01*
X137246200Y-96644280D01*
X137246200Y-94612280D01*
X142834200Y-94612280D01*
X142834200Y-96644280D01*
G37*
X142834200Y-96644280D02*
X137246200Y-96644280D01*
X137246200Y-94612280D01*
X142834200Y-94612280D01*
X142834200Y-96644280D01*
G36*
X142834200Y-99184280D02*
G01*
X137246200Y-99184280D01*
X137246200Y-97152280D01*
X142834200Y-97152280D01*
X142834200Y-99184280D01*
G37*
X142834200Y-99184280D02*
X137246200Y-99184280D01*
X137246200Y-97152280D01*
X142834200Y-97152280D01*
X142834200Y-99184280D01*
D12*
X102934400Y-61161600D03*
X102934400Y-65361600D03*
X102934400Y-69561600D03*
X102934400Y-73761600D03*
X97434400Y-61161600D03*
X97434400Y-65361600D03*
X97434400Y-69561600D03*
G04 #@! TA.AperFunction,ComponentPad*
D11*
G36*
X99058903Y-72412804D02*
G01*
X99083172Y-72416404D01*
X99106970Y-72422365D01*
X99130070Y-72430630D01*
X99152249Y-72441120D01*
X99173292Y-72453733D01*
X99192998Y-72468348D01*
X99211176Y-72484824D01*
X99227652Y-72503002D01*
X99242267Y-72522708D01*
X99254880Y-72543751D01*
X99265370Y-72565930D01*
X99273635Y-72589030D01*
X99279596Y-72612828D01*
X99283196Y-72637097D01*
X99284400Y-72661601D01*
X99284400Y-74861599D01*
X99283196Y-74886103D01*
X99279596Y-74910372D01*
X99273635Y-74934170D01*
X99265370Y-74957270D01*
X99254880Y-74979449D01*
X99242267Y-75000492D01*
X99227652Y-75020198D01*
X99211176Y-75038376D01*
X99192998Y-75054852D01*
X99173292Y-75069467D01*
X99152249Y-75082080D01*
X99130070Y-75092570D01*
X99106970Y-75100835D01*
X99083172Y-75106796D01*
X99058903Y-75110396D01*
X99034399Y-75111600D01*
X95834401Y-75111600D01*
X95809897Y-75110396D01*
X95785628Y-75106796D01*
X95761830Y-75100835D01*
X95738730Y-75092570D01*
X95716551Y-75082080D01*
X95695508Y-75069467D01*
X95675802Y-75054852D01*
X95657624Y-75038376D01*
X95641148Y-75020198D01*
X95626533Y-75000492D01*
X95613920Y-74979449D01*
X95603430Y-74957270D01*
X95595165Y-74934170D01*
X95589204Y-74910372D01*
X95585604Y-74886103D01*
X95584400Y-74861599D01*
X95584400Y-72661601D01*
X95585604Y-72637097D01*
X95589204Y-72612828D01*
X95595165Y-72589030D01*
X95603430Y-72565930D01*
X95613920Y-72543751D01*
X95626533Y-72522708D01*
X95641148Y-72503002D01*
X95657624Y-72484824D01*
X95675802Y-72468348D01*
X95695508Y-72453733D01*
X95716551Y-72441120D01*
X95738730Y-72430630D01*
X95761830Y-72422365D01*
X95785628Y-72416404D01*
X95809897Y-72412804D01*
X95834401Y-72411600D01*
X99034399Y-72411600D01*
X99058903Y-72412804D01*
G37*
G04 #@! TD.AperFunction*
D12*
X102883600Y-125068000D03*
X102883600Y-129268000D03*
X102883600Y-133468000D03*
X102883600Y-137668000D03*
X97383600Y-125068000D03*
X97383600Y-129268000D03*
X97383600Y-133468000D03*
G04 #@! TA.AperFunction,ComponentPad*
D11*
G36*
X99008103Y-136319204D02*
G01*
X99032372Y-136322804D01*
X99056170Y-136328765D01*
X99079270Y-136337030D01*
X99101449Y-136347520D01*
X99122492Y-136360133D01*
X99142198Y-136374748D01*
X99160376Y-136391224D01*
X99176852Y-136409402D01*
X99191467Y-136429108D01*
X99204080Y-136450151D01*
X99214570Y-136472330D01*
X99222835Y-136495430D01*
X99228796Y-136519228D01*
X99232396Y-136543497D01*
X99233600Y-136568001D01*
X99233600Y-138767999D01*
X99232396Y-138792503D01*
X99228796Y-138816772D01*
X99222835Y-138840570D01*
X99214570Y-138863670D01*
X99204080Y-138885849D01*
X99191467Y-138906892D01*
X99176852Y-138926598D01*
X99160376Y-138944776D01*
X99142198Y-138961252D01*
X99122492Y-138975867D01*
X99101449Y-138988480D01*
X99079270Y-138998970D01*
X99056170Y-139007235D01*
X99032372Y-139013196D01*
X99008103Y-139016796D01*
X98983599Y-139018000D01*
X95783601Y-139018000D01*
X95759097Y-139016796D01*
X95734828Y-139013196D01*
X95711030Y-139007235D01*
X95687930Y-138998970D01*
X95665751Y-138988480D01*
X95644708Y-138975867D01*
X95625002Y-138961252D01*
X95606824Y-138944776D01*
X95590348Y-138926598D01*
X95575733Y-138906892D01*
X95563120Y-138885849D01*
X95552630Y-138863670D01*
X95544365Y-138840570D01*
X95538404Y-138816772D01*
X95534804Y-138792503D01*
X95533600Y-138767999D01*
X95533600Y-136568001D01*
X95534804Y-136543497D01*
X95538404Y-136519228D01*
X95544365Y-136495430D01*
X95552630Y-136472330D01*
X95563120Y-136450151D01*
X95575733Y-136429108D01*
X95590348Y-136409402D01*
X95606824Y-136391224D01*
X95625002Y-136374748D01*
X95644708Y-136360133D01*
X95665751Y-136347520D01*
X95687930Y-136337030D01*
X95711030Y-136328765D01*
X95734828Y-136322804D01*
X95759097Y-136319204D01*
X95783601Y-136318000D01*
X98983599Y-136318000D01*
X99008103Y-136319204D01*
G37*
G04 #@! TD.AperFunction*
D13*
X242399637Y-51086945D03*
X240702581Y-50384001D03*
X239005525Y-51086945D03*
X238302581Y-52784001D03*
X239005525Y-54481057D03*
X240702581Y-55184001D03*
X242399637Y-54481057D03*
X243102581Y-52784001D03*
D14*
X240702581Y-52784001D03*
D15*
X136574720Y-149149500D03*
X131494720Y-149149500D03*
D16*
X136621720Y-145847500D03*
D17*
X131494720Y-145847500D03*
D13*
X242397056Y-144202944D03*
X240700000Y-143500000D03*
X239002944Y-144202944D03*
X238300000Y-145900000D03*
X239002944Y-147597056D03*
X240700000Y-148300000D03*
X242397056Y-147597056D03*
X243100000Y-145900000D03*
D14*
X240700000Y-145900000D03*
D13*
X89672037Y-144406945D03*
X87974981Y-143704001D03*
X86277925Y-144406945D03*
X85574981Y-146104001D03*
X86277925Y-147801057D03*
X87974981Y-148504001D03*
X89672037Y-147801057D03*
X90374981Y-146104001D03*
D14*
X87974981Y-146104001D03*
D13*
X89567037Y-51066945D03*
X87869981Y-50364001D03*
X86172925Y-51066945D03*
X85469981Y-52764001D03*
X86172925Y-54461057D03*
X87869981Y-55164001D03*
X89567037Y-54461057D03*
X90269981Y-52764001D03*
D14*
X87869981Y-52764001D03*
D18*
X111576900Y-131228020D03*
X114116900Y-131228020D03*
D19*
X116656900Y-131228020D03*
D15*
X117856000Y-49784000D03*
X122936000Y-49784000D03*
D16*
X117809000Y-53086000D03*
D17*
X122936000Y-53086000D03*
D20*
X235200000Y-68150000D03*
X235200000Y-73230000D03*
X235200000Y-78310000D03*
X235200000Y-83390000D03*
X235200000Y-88470000D03*
G04 #@! TA.AperFunction,ComponentPad*
D11*
G36*
X236774505Y-92511204D02*
G01*
X236798773Y-92514804D01*
X236822572Y-92520765D01*
X236845671Y-92529030D01*
X236867850Y-92539520D01*
X236888893Y-92552132D01*
X236908599Y-92566747D01*
X236926777Y-92583223D01*
X236943253Y-92601401D01*
X236957868Y-92621107D01*
X236970480Y-92642150D01*
X236980970Y-92664329D01*
X236989235Y-92687428D01*
X236995196Y-92711227D01*
X236998796Y-92735495D01*
X237000000Y-92759999D01*
X237000000Y-94340001D01*
X236998796Y-94364505D01*
X236995196Y-94388773D01*
X236989235Y-94412572D01*
X236980970Y-94435671D01*
X236970480Y-94457850D01*
X236957868Y-94478893D01*
X236943253Y-94498599D01*
X236926777Y-94516777D01*
X236908599Y-94533253D01*
X236888893Y-94547868D01*
X236867850Y-94560480D01*
X236845671Y-94570970D01*
X236822572Y-94579235D01*
X236798773Y-94585196D01*
X236774505Y-94588796D01*
X236750001Y-94590000D01*
X233649999Y-94590000D01*
X233625495Y-94588796D01*
X233601227Y-94585196D01*
X233577428Y-94579235D01*
X233554329Y-94570970D01*
X233532150Y-94560480D01*
X233511107Y-94547868D01*
X233491401Y-94533253D01*
X233473223Y-94516777D01*
X233456747Y-94498599D01*
X233442132Y-94478893D01*
X233429520Y-94457850D01*
X233419030Y-94435671D01*
X233410765Y-94412572D01*
X233404804Y-94388773D01*
X233401204Y-94364505D01*
X233400000Y-94340001D01*
X233400000Y-92759999D01*
X233401204Y-92735495D01*
X233404804Y-92711227D01*
X233410765Y-92687428D01*
X233419030Y-92664329D01*
X233429520Y-92642150D01*
X233442132Y-92621107D01*
X233456747Y-92601401D01*
X233473223Y-92583223D01*
X233491401Y-92566747D01*
X233511107Y-92552132D01*
X233532150Y-92539520D01*
X233554329Y-92529030D01*
X233577428Y-92520765D01*
X233601227Y-92514804D01*
X233625495Y-92511204D01*
X233649999Y-92510000D01*
X236750001Y-92510000D01*
X236774505Y-92511204D01*
G37*
G04 #@! TD.AperFunction*
D21*
X86385400Y-98145600D03*
D22*
X157744000Y-90548280D03*
X157744000Y-67688280D03*
X157744000Y-95628280D03*
X157744000Y-80388280D03*
X157744000Y-72768280D03*
X157744000Y-65148280D03*
X157744000Y-88008280D03*
X157744000Y-85468280D03*
X157744000Y-60068280D03*
X157744000Y-57528280D03*
D23*
X157744000Y-98168280D03*
D22*
X157744000Y-93088280D03*
X157744000Y-82928280D03*
X157744000Y-77848280D03*
X157744000Y-75308280D03*
X157744000Y-62608280D03*
X157744000Y-54988280D03*
X157744000Y-70228280D03*
X157744000Y-52448280D03*
X157744000Y-49908280D03*
X140065600Y-90522880D03*
X140065600Y-67662880D03*
X140065600Y-95602880D03*
X140065600Y-80362880D03*
X140065600Y-72742880D03*
X140065600Y-65122880D03*
X140065600Y-87982880D03*
X140065600Y-85442880D03*
X140065600Y-60042880D03*
X140065600Y-57502880D03*
D23*
X140065600Y-98142880D03*
D22*
X140065600Y-93062880D03*
X140065600Y-82902880D03*
X140065600Y-77822880D03*
X140065600Y-75282880D03*
X140065600Y-62582880D03*
X140065600Y-54962880D03*
X140065600Y-70202880D03*
X140065600Y-52422880D03*
D24*
X140065600Y-49882880D03*
D25*
X240588800Y-68183760D03*
X240614200Y-73380600D03*
X240588800Y-78486000D03*
X240588800Y-83464400D03*
X240588800Y-88696800D03*
X240588800Y-93776800D03*
D13*
X151638000Y-127508000D03*
X148467580Y-127893580D03*
X227330000Y-124714000D03*
X193548000Y-118618000D03*
X213715600Y-97637600D03*
X107137200Y-128879600D03*
X217424000Y-145542000D03*
X218440000Y-143256000D03*
X156972000Y-133350000D03*
X145034000Y-128270000D03*
X148082000Y-114808000D03*
X151892000Y-111252000D03*
X159258000Y-117856000D03*
X192532000Y-106934000D03*
X157734000Y-115570000D03*
X157734000Y-111252000D03*
X186690000Y-72136000D03*
X186944000Y-83820000D03*
X186690000Y-90678000D03*
X146304000Y-106426000D03*
X181610000Y-70866000D03*
X181610000Y-65278000D03*
X181864000Y-89408000D03*
X181864000Y-82042000D03*
X146812000Y-134620000D03*
X156972000Y-143510000D03*
X217424000Y-76962000D03*
X221996000Y-76962000D03*
X205486000Y-64770000D03*
X209550000Y-69596000D03*
X185674000Y-68834000D03*
X223012000Y-69088000D03*
X204978000Y-81280000D03*
X210820000Y-87122000D03*
X185420000Y-87122000D03*
X224028000Y-87122000D03*
X205704569Y-72354569D03*
X211328000Y-77978000D03*
X208280000Y-94742000D03*
X205486000Y-90424000D03*
X207518000Y-99568000D03*
X170180000Y-119126000D03*
X122174000Y-121666000D03*
X114808000Y-74676000D03*
X131503620Y-130995620D03*
X141224000Y-109982000D03*
X141986000Y-105156000D03*
X113284000Y-109220000D03*
X125730000Y-108966000D03*
X129794000Y-102108000D03*
X119126000Y-103378000D03*
X122936000Y-108966000D03*
X118364000Y-72136000D03*
X122174000Y-86614000D03*
X138684000Y-115570000D03*
X136144000Y-118110000D03*
X134620000Y-120650000D03*
X122174000Y-77978000D03*
X116586000Y-123698000D03*
X205486000Y-76200000D03*
X205740000Y-74422000D03*
X205486000Y-66802000D03*
X181864000Y-68072000D03*
X203454000Y-94488000D03*
X205486000Y-92202000D03*
X204978000Y-83312000D03*
X185674000Y-86106000D03*
X177292000Y-139192000D03*
X181102000Y-139192000D03*
X124206000Y-127000000D03*
X124460000Y-74269600D03*
X134416800Y-85394800D03*
X114249200Y-121462800D03*
X117556000Y-121458000D03*
X122783600Y-74269600D03*
X131114800Y-87884000D03*
D10*
X148853160Y-127508000D02*
X148467580Y-127893580D01*
X151638000Y-127508000D02*
X148853160Y-127508000D01*
X227330000Y-124714000D02*
X199644000Y-124714000D01*
X199644000Y-124714000D02*
X193548000Y-118618000D01*
X140091000Y-52448280D02*
X140065600Y-52422880D01*
X157744000Y-52448280D02*
X140091000Y-52448280D01*
D26*
X232433600Y-68150000D02*
X235200000Y-68150000D01*
X230022400Y-70561200D02*
X232433600Y-68150000D01*
X230022400Y-90728800D02*
X230022400Y-70561200D01*
X213715600Y-97637600D02*
X223113600Y-97637600D01*
X223113600Y-97637600D02*
X230022400Y-90728800D01*
D10*
X97383600Y-133468000D02*
X97883600Y-133468000D01*
X102383600Y-125068000D02*
X102883600Y-125068000D01*
X99533600Y-133468000D02*
X101632800Y-131368800D01*
X97383600Y-133468000D02*
X99533600Y-133468000D01*
X101632800Y-131368800D02*
X104648000Y-131368800D01*
X104648000Y-131368800D02*
X107137200Y-128879600D01*
X217424000Y-145542000D02*
X217424000Y-144272000D01*
X217424000Y-144272000D02*
X218440000Y-143256000D01*
X156972000Y-133350000D02*
X150114000Y-133350000D01*
X150114000Y-133350000D02*
X145034000Y-128270000D01*
X148082000Y-114808000D02*
X151638000Y-111252000D01*
X151638000Y-111252000D02*
X151892000Y-111252000D01*
X151130000Y-117856000D02*
X148082000Y-114808000D01*
X159258000Y-117856000D02*
X151130000Y-117856000D01*
X181610000Y-117856000D02*
X159258000Y-117856000D01*
X192532000Y-106934000D02*
X181610000Y-117856000D01*
X157734000Y-115570000D02*
X157734000Y-111252000D01*
X171958000Y-105410000D02*
X186690000Y-90678000D01*
X170942000Y-106426000D02*
X171958000Y-105410000D01*
X146304000Y-106426000D02*
X170942000Y-106426000D01*
X186690000Y-83566000D02*
X186944000Y-83820000D01*
X186690000Y-72136000D02*
X186690000Y-83566000D01*
X167007720Y-85468280D02*
X166748280Y-85468280D01*
X181610000Y-70866000D02*
X167007720Y-85468280D01*
X166748280Y-85468280D02*
X157744000Y-85468280D01*
X181610000Y-65278000D02*
X163959720Y-82928280D01*
X157744000Y-82928280D02*
X163959720Y-82928280D01*
X180723720Y-90548280D02*
X181864000Y-89408000D01*
X157744000Y-90548280D02*
X180723720Y-90548280D01*
X175897720Y-88008280D02*
X157744000Y-88008280D01*
X181864000Y-82042000D02*
X175897720Y-88008280D01*
X146812000Y-134620000D02*
X155702000Y-143510000D01*
X155702000Y-143510000D02*
X156972000Y-143510000D01*
X217424000Y-76962000D02*
X221996000Y-76962000D01*
X205486000Y-64770000D02*
X209550000Y-68834000D01*
X209550000Y-68834000D02*
X209550000Y-69596000D01*
X221753999Y-70346001D02*
X223012000Y-69088000D01*
X185674000Y-68834000D02*
X187186001Y-70346001D01*
X187186001Y-70346001D02*
X221753999Y-70346001D01*
X204978000Y-81280000D02*
X210820000Y-87122000D01*
X223277999Y-87872001D02*
X224028000Y-87122000D01*
X185420000Y-87122000D02*
X186170001Y-87872001D01*
X186170001Y-87872001D02*
X223277999Y-87872001D01*
X205704569Y-72354569D02*
X211328000Y-77978000D01*
X207518000Y-94742000D02*
X207518000Y-92456000D01*
X207518000Y-92456000D02*
X205486000Y-90424000D01*
X207518000Y-99568000D02*
X207518000Y-92456000D01*
X207518000Y-94742000D02*
X208280000Y-94742000D01*
X122174000Y-121666000D02*
X124968000Y-124460000D01*
X132588000Y-124460000D02*
X124968000Y-124460000D01*
X170180000Y-119126000D02*
X137922000Y-119126000D01*
X137922000Y-119126000D02*
X132588000Y-124460000D01*
X131503620Y-130995620D02*
X124968000Y-124460000D01*
X141224000Y-109982000D02*
X141986000Y-109220000D01*
X141986000Y-109220000D02*
X141986000Y-105156000D01*
X114808000Y-107696000D02*
X114808000Y-106680000D01*
X113284000Y-109220000D02*
X114808000Y-107696000D01*
X114808000Y-74676000D02*
X114808000Y-106680000D01*
D26*
X137224730Y-145578258D02*
X137224730Y-145847500D01*
X114116900Y-132828020D02*
X121496880Y-140208000D01*
X114116900Y-131228020D02*
X114116900Y-132828020D01*
X121496880Y-140208000D02*
X133604000Y-140208000D01*
X137224730Y-143828730D02*
X137224730Y-145578258D01*
X133604000Y-140208000D02*
X137224730Y-143828730D01*
D10*
X125730000Y-106172000D02*
X125730000Y-108966000D01*
X129794000Y-102108000D02*
X125730000Y-106172000D01*
X119126000Y-103378000D02*
X119126000Y-105410000D01*
X119126000Y-105410000D02*
X122682000Y-108966000D01*
X122682000Y-108966000D02*
X122936000Y-108966000D01*
X140065600Y-82902880D02*
X132997120Y-82902880D01*
X132997120Y-82902880D02*
X128524000Y-87376000D01*
X128524000Y-87376000D02*
X120904000Y-87376000D01*
X120904000Y-87376000D02*
X118364000Y-84836000D01*
X118364000Y-84836000D02*
X118364000Y-72136000D01*
X133251120Y-80362880D02*
X140065600Y-80362880D01*
X122174000Y-86614000D02*
X127000000Y-86614000D01*
X127000000Y-86614000D02*
X133251120Y-80362880D01*
X140065600Y-72742880D02*
X143100880Y-72742880D01*
X143100880Y-72742880D02*
X143764000Y-73406000D01*
X143764000Y-73406000D02*
X143764000Y-103886000D01*
X143764000Y-103886000D02*
X143764000Y-110490000D01*
X143764000Y-110490000D02*
X138684000Y-115570000D01*
X136144000Y-118110000D02*
X134620000Y-119634000D01*
X134620000Y-119634000D02*
X134620000Y-120650000D01*
X140065600Y-77822880D02*
X122329120Y-77822880D01*
X122329120Y-77822880D02*
X122174000Y-77978000D01*
X143354880Y-70202880D02*
X140065600Y-70202880D01*
X144925999Y-71773999D02*
X143354880Y-70202880D01*
X144925999Y-71773999D02*
X144925999Y-111868001D01*
X144925999Y-111868001D02*
X139954000Y-116840000D01*
X139954000Y-116840000D02*
X123444000Y-116840000D01*
X123444000Y-116840000D02*
X116586000Y-123698000D01*
X205486000Y-76200000D02*
X205486000Y-74676000D01*
X205486000Y-74676000D02*
X205740000Y-74422000D01*
X205486000Y-66802000D02*
X204216000Y-68072000D01*
X204216000Y-68072000D02*
X181864000Y-68072000D01*
X203454000Y-94488000D02*
X205486000Y-92456000D01*
X205486000Y-92456000D02*
X205486000Y-92202000D01*
X202184000Y-86106000D02*
X204978000Y-83312000D01*
X185674000Y-86106000D02*
X202184000Y-86106000D01*
X177292000Y-139192000D02*
X181102000Y-139192000D01*
D26*
X111576900Y-129628020D02*
X114204920Y-127000000D01*
X111576900Y-131228020D02*
X111576900Y-129628020D01*
X114204920Y-127000000D02*
X124206000Y-127000000D01*
D10*
X98718000Y-135483600D02*
X100733600Y-133468000D01*
X95402400Y-135483600D02*
X98718000Y-135483600D01*
X102934400Y-69561600D02*
X100784400Y-69561600D01*
X100784400Y-69561600D02*
X98667200Y-71678800D01*
X98667200Y-71678800D02*
X95250000Y-71678800D01*
X95250000Y-71678800D02*
X93726000Y-73202800D01*
X93726000Y-73202800D02*
X93726000Y-133807200D01*
X100733600Y-133468000D02*
X102883600Y-133468000D01*
X93726000Y-133807200D02*
X95402400Y-135483600D01*
X113052010Y-62861610D02*
X124460000Y-74269600D01*
X101284410Y-62861610D02*
X113052010Y-62861610D01*
X97434400Y-61161600D02*
X99584400Y-61161600D01*
X99584400Y-61161600D02*
X101284410Y-62861610D01*
X97383600Y-125068000D02*
X97883600Y-125068000D01*
X125628400Y-116179600D02*
X134416800Y-107391200D01*
X134416800Y-107391200D02*
X134416800Y-85394800D01*
X125628400Y-116179600D02*
X122834400Y-116179600D01*
X122834400Y-116179600D02*
X117556000Y-121458000D01*
X97883600Y-125068000D02*
X101493600Y-121458000D01*
X101493600Y-121458000D02*
X114244400Y-121458000D01*
X114244400Y-121458000D02*
X114249200Y-121462800D01*
X122783600Y-74269600D02*
X112217200Y-63703200D01*
X112217200Y-63703200D02*
X111912400Y-63398400D01*
X101547600Y-63398400D02*
X111912400Y-63398400D01*
X99584400Y-65361600D02*
X101547600Y-63398400D01*
X97434400Y-65361600D02*
X99584400Y-65361600D01*
X96883600Y-129268000D02*
X97383600Y-129268000D01*
X131114800Y-106375200D02*
X131114800Y-87884000D01*
X110388400Y-127101600D02*
X131114800Y-106375200D01*
X101700000Y-127101600D02*
X110388400Y-127101600D01*
X97383600Y-129268000D02*
X99533600Y-129268000D01*
X99533600Y-129268000D02*
X101700000Y-127101600D01*
M02*
