<?xml version="1.0" standalone="no"?>
 <!DOCTYPE svg PUBLIC "-//W3C//DTD SVG 1.1//EN" 
 "http://www.w3.org/Graphics/SVG/1.1/DTD/svg11.dtd"> 
<svg
  xmlns:svg="http://www.w3.org/2000/svg"
  xmlns="http://www.w3.org/2000/svg"
  xmlns:xlink="http://www.w3.org/1999/xlink"
  version="1.1"
  width="2.049780cm" height="2.016760cm" viewBox="0 0 8070 7940">
<title>SVG Picture created as FDCAN_MCP2551-brd.svg date 2021/01/20 15:37:47 </title>
  <desc>Picture generated by PCBNEW </desc>
<g style="fill:#000000; fill-opacity:1;stroke:#000000; stroke-opacity:1;
stroke-linecap:round; stroke-linejoin:round;"
 transform="translate(0 0) scale(1 1)">
</g>
<g style="fill:#000000; fill-opacity:0.0; 
stroke:#000000; stroke-width:-0.000393701; stroke-opacity:1; 
stroke-linecap:round; stroke-linejoin:round;">
<g >
</g>
<g style="fill:#000000; fill-opacity:0.0; 
stroke:#000000; stroke-width:0; stroke-opacity:1; 
stroke-linecap:round; stroke-linejoin:round;">
</g>
<g style="fill:#000000; fill-opacity:1.0; 
stroke:#000000; stroke-width:0; stroke-opacity:1; 
stroke-linecap:round; stroke-linejoin:round;">
<path style="fill:#000000; fill-opacity:1.0; 
stroke:#000000; stroke-width:0; stroke-opacity:1; 
stroke-linecap:round; stroke-linejoin:round;fill-rule:evenodd;"
d="M 6084.67,2146.54
6090.4,2147.39
6096.02,2148.8
6101.48,2150.76
6106.72,2153.23
6111.69,2156.21
6116.34,2159.66
6120.64,2163.56
6124.53,2167.85
6127.98,2172.51
6130.96,2177.48
6133.44,2182.72
6135.39,2188.17
6136.8,2193.79
6137.65,2199.53
6137.94,2205.32
6137.94,2854.92
6137.65,2860.71
6136.8,2866.44
6135.39,2872.06
6133.44,2877.52
6130.96,2882.76
6127.98,2887.73
6124.53,2892.39
6120.64,2896.68
6116.34,2900.57
6111.69,2904.02
6106.72,2907
6101.48,2909.48
6096.02,2911.43
6090.4,2912.84
6084.67,2913.69
6078.88,2913.98
5960.77,2913.98
5954.98,2913.69
5949.25,2912.84
5943.63,2911.43
5938.17,2909.48
5932.93,2907
5927.96,2904.02
5923.31,2900.57
5919.01,2896.68
5915.12,2892.39
5911.67,2887.73
5908.69,2882.76
5906.21,2877.52
5904.26,2872.06
5902.85,2866.44
5902,2860.71
5901.72,2854.92
5901.72,2205.32
5902,2199.53
5902.85,2193.79
5904.26,2188.17
5906.21,2182.72
5908.69,2177.48
5911.67,2172.51
5915.12,2167.85
5919.01,2163.56
5923.31,2159.66
5927.96,2156.21
5932.93,2153.23
5938.17,2150.76
5943.63,2148.8
5949.25,2147.39
5954.98,2146.54
5960.77,2146.26
6078.88,2146.26
Z" /> 
<path style="fill:#000000; fill-opacity:1.0; 
stroke:#000000; stroke-width:0; stroke-opacity:1; 
stroke-linecap:round; stroke-linejoin:round;fill-rule:evenodd;"
d="M 5584.67,2146.54
5590.4,2147.39
5596.02,2148.8
5601.48,2150.76
5606.72,2153.23
5611.69,2156.21
5616.34,2159.66
5620.64,2163.56
5624.53,2167.85
5627.98,2172.51
5630.96,2177.48
5633.44,2182.72
5635.39,2188.17
5636.8,2193.79
5637.65,2199.53
5637.94,2205.32
5637.94,2854.92
5637.65,2860.71
5636.8,2866.44
5635.39,2872.06
5633.44,2877.52
5630.96,2882.76
5627.98,2887.73
5624.53,2892.39
5620.64,2896.68
5616.34,2900.57
5611.69,2904.02
5606.72,2907
5601.48,2909.48
5596.02,2911.43
5590.4,2912.84
5584.67,2913.69
5578.88,2913.98
5460.77,2913.98
5454.98,2913.69
5449.25,2912.84
5443.63,2911.43
5438.17,2909.48
5432.93,2907
5427.96,2904.02
5423.31,2900.57
5419.01,2896.68
5415.12,2892.39
5411.67,2887.73
5408.69,2882.76
5406.21,2877.52
5404.26,2872.06
5402.85,2866.44
5402,2860.71
5401.72,2854.92
5401.72,2205.32
5402,2199.53
5402.85,2193.79
5404.26,2188.17
5406.21,2182.72
5408.69,2177.48
5411.67,2172.51
5415.12,2167.85
5419.01,2163.56
5423.31,2159.66
5427.96,2156.21
5432.93,2153.23
5438.17,2150.76
5443.63,2148.8
5449.25,2147.39
5454.98,2146.54
5460.77,2146.26
5578.88,2146.26
Z" /> 
<path style="fill:#000000; fill-opacity:1.0; 
stroke:#000000; stroke-width:0; stroke-opacity:1; 
stroke-linecap:round; stroke-linejoin:round;fill-rule:evenodd;"
d="M 5084.67,2146.54
5090.4,2147.39
5096.02,2148.8
5101.48,2150.76
5106.72,2153.23
5111.69,2156.21
5116.34,2159.66
5120.64,2163.56
5124.53,2167.85
5127.98,2172.51
5130.96,2177.48
5133.44,2182.72
5135.39,2188.17
5136.8,2193.79
5137.65,2199.53
5137.94,2205.32
5137.94,2854.92
5137.65,2860.71
5136.8,2866.44
5135.39,2872.06
5133.44,2877.52
5130.96,2882.76
5127.98,2887.73
5124.53,2892.39
5120.64,2896.68
5116.34,2900.57
5111.69,2904.02
5106.72,2907
5101.48,2909.48
5096.02,2911.43
5090.4,2912.84
5084.67,2913.69
5078.88,2913.98
4960.77,2913.98
4954.98,2913.69
4949.25,2912.84
4943.63,2911.43
4938.17,2909.48
4932.93,2907
4927.96,2904.02
4923.31,2900.57
4919.01,2896.68
4915.12,2892.39
4911.67,2887.73
4908.69,2882.76
4906.21,2877.52
4904.26,2872.06
4902.85,2866.44
4902,2860.71
4901.72,2854.92
4901.72,2205.32
4902,2199.53
4902.85,2193.79
4904.26,2188.17
4906.21,2182.72
4908.69,2177.48
4911.67,2172.51
4915.12,2167.85
4919.01,2163.56
4923.31,2159.66
4927.96,2156.21
4932.93,2153.23
4938.17,2150.76
4943.63,2148.8
4949.25,2147.39
4954.98,2146.54
4960.77,2146.26
5078.88,2146.26
Z" /> 
<path style="fill:#000000; fill-opacity:1.0; 
stroke:#000000; stroke-width:0; stroke-opacity:1; 
stroke-linecap:round; stroke-linejoin:round;fill-rule:evenodd;"
d="M 4584.67,2146.54
4590.4,2147.39
4596.02,2148.8
4601.48,2150.76
4606.72,2153.23
4611.69,2156.21
4616.34,2159.66
4620.64,2163.56
4624.53,2167.85
4627.98,2172.51
4630.96,2177.48
4633.44,2182.72
4635.39,2188.17
4636.8,2193.79
4637.65,2199.53
4637.94,2205.32
4637.94,2854.92
4637.65,2860.71
4636.8,2866.44
4635.39,2872.06
4633.44,2877.52
4630.96,2882.76
4627.98,2887.73
4624.53,2892.39
4620.64,2896.68
4616.34,2900.57
4611.69,2904.02
4606.72,2907
4601.48,2909.48
4596.02,2911.43
4590.4,2912.84
4584.67,2913.69
4578.88,2913.98
4460.77,2913.98
4454.98,2913.69
4449.25,2912.84
4443.63,2911.43
4438.17,2909.48
4432.93,2907
4427.96,2904.02
4423.31,2900.57
4419.01,2896.68
4415.12,2892.39
4411.67,2887.73
4408.69,2882.76
4406.21,2877.52
4404.26,2872.06
4402.85,2866.44
4402,2860.71
4401.72,2854.92
4401.72,2205.32
4402,2199.53
4402.85,2193.79
4404.26,2188.17
4406.21,2182.72
4408.69,2177.48
4411.67,2172.51
4415.12,2167.85
4419.01,2163.56
4423.31,2159.66
4427.96,2156.21
4432.93,2153.23
4438.17,2150.76
4443.63,2148.8
4449.25,2147.39
4454.98,2146.54
4460.77,2146.26
4578.88,2146.26
Z" /> 
<path style="fill:#000000; fill-opacity:1.0; 
stroke:#000000; stroke-width:0; stroke-opacity:1; 
stroke-linecap:round; stroke-linejoin:round;fill-rule:evenodd;"
d="M 4584.67,4095.36
4590.4,4096.21
4596.02,4097.62
4601.48,4099.57
4606.72,4102.05
4611.69,4105.03
4616.34,4108.48
4620.64,4112.38
4624.53,4116.67
4627.98,4121.32
4630.96,4126.3
4633.44,4131.53
4635.39,4136.99
4636.8,4142.61
4637.65,4148.35
4637.94,4154.13
4637.94,4803.74
4637.65,4809.53
4636.8,4815.26
4635.39,4820.88
4633.44,4826.34
4630.96,4831.58
4627.98,4836.55
4624.53,4841.2
4620.64,4845.5
4616.34,4849.39
4611.69,4852.84
4606.72,4855.82
4601.48,4858.3
4596.02,4860.25
4590.4,4861.66
4584.67,4862.51
4578.88,4862.8
4460.77,4862.8
4454.98,4862.51
4449.25,4861.66
4443.63,4860.25
4438.17,4858.3
4432.93,4855.82
4427.96,4852.84
4423.31,4849.39
4419.01,4845.5
4415.12,4841.2
4411.67,4836.55
4408.69,4831.58
4406.21,4826.34
4404.26,4820.88
4402.85,4815.26
4402,4809.53
4401.72,4803.74
4401.72,4154.13
4402,4148.35
4402.85,4142.61
4404.26,4136.99
4406.21,4131.53
4408.69,4126.3
4411.67,4121.32
4415.12,4116.67
4419.01,4112.38
4423.31,4108.48
4427.96,4105.03
4432.93,4102.05
4438.17,4099.57
4443.63,4097.62
4449.25,4096.21
4454.98,4095.36
4460.77,4095.08
4578.88,4095.08
Z" /> 
<path style="fill:#000000; fill-opacity:1.0; 
stroke:#000000; stroke-width:0; stroke-opacity:1; 
stroke-linecap:round; stroke-linejoin:round;fill-rule:evenodd;"
d="M 5084.67,4095.36
5090.4,4096.21
5096.02,4097.62
5101.48,4099.57
5106.72,4102.05
5111.69,4105.03
5116.34,4108.48
5120.64,4112.38
5124.53,4116.67
5127.98,4121.32
5130.96,4126.3
5133.44,4131.53
5135.39,4136.99
5136.8,4142.61
5137.65,4148.35
5137.94,4154.13
5137.94,4803.74
5137.65,4809.53
5136.8,4815.26
5135.39,4820.88
5133.44,4826.34
5130.96,4831.58
5127.98,4836.55
5124.53,4841.2
5120.64,4845.5
5116.34,4849.39
5111.69,4852.84
5106.72,4855.82
5101.48,4858.3
5096.02,4860.25
5090.4,4861.66
5084.67,4862.51
5078.88,4862.8
4960.77,4862.8
4954.98,4862.51
4949.25,4861.66
4943.63,4860.25
4938.17,4858.3
4932.93,4855.82
4927.96,4852.84
4923.31,4849.39
4919.01,4845.5
4915.12,4841.2
4911.67,4836.55
4908.69,4831.58
4906.21,4826.34
4904.26,4820.88
4902.85,4815.26
4902,4809.53
4901.72,4803.74
4901.72,4154.13
4902,4148.35
4902.85,4142.61
4904.26,4136.99
4906.21,4131.53
4908.69,4126.3
4911.67,4121.32
4915.12,4116.67
4919.01,4112.38
4923.31,4108.48
4927.96,4105.03
4932.93,4102.05
4938.17,4099.57
4943.63,4097.62
4949.25,4096.21
4954.98,4095.36
4960.77,4095.08
5078.88,4095.08
Z" /> 
<path style="fill:#000000; fill-opacity:1.0; 
stroke:#000000; stroke-width:0; stroke-opacity:1; 
stroke-linecap:round; stroke-linejoin:round;fill-rule:evenodd;"
d="M 5584.67,4095.36
5590.4,4096.21
5596.02,4097.62
5601.48,4099.57
5606.72,4102.05
5611.69,4105.03
5616.34,4108.48
5620.64,4112.38
5624.53,4116.67
5627.98,4121.32
5630.96,4126.3
5633.44,4131.53
5635.39,4136.99
5636.8,4142.61
5637.65,4148.35
5637.94,4154.13
5637.94,4803.74
5637.65,4809.53
5636.8,4815.26
5635.39,4820.88
5633.44,4826.34
5630.96,4831.58
5627.98,4836.55
5624.53,4841.2
5620.64,4845.5
5616.34,4849.39
5611.69,4852.84
5606.72,4855.82
5601.48,4858.3
5596.02,4860.25
5590.4,4861.66
5584.67,4862.51
5578.88,4862.8
5460.77,4862.8
5454.98,4862.51
5449.25,4861.66
5443.63,4860.25
5438.17,4858.3
5432.93,4855.82
5427.96,4852.84
5423.31,4849.39
5419.01,4845.5
5415.12,4841.2
5411.67,4836.55
5408.69,4831.58
5406.21,4826.34
5404.26,4820.88
5402.85,4815.26
5402,4809.53
5401.72,4803.74
5401.72,4154.13
5402,4148.35
5402.85,4142.61
5404.26,4136.99
5406.21,4131.53
5408.69,4126.3
5411.67,4121.32
5415.12,4116.67
5419.01,4112.38
5423.31,4108.48
5427.96,4105.03
5432.93,4102.05
5438.17,4099.57
5443.63,4097.62
5449.25,4096.21
5454.98,4095.36
5460.77,4095.08
5578.88,4095.08
Z" /> 
<path style="fill:#000000; fill-opacity:1.0; 
stroke:#000000; stroke-width:0; stroke-opacity:1; 
stroke-linecap:round; stroke-linejoin:round;fill-rule:evenodd;"
d="M 6084.67,4095.36
6090.4,4096.21
6096.02,4097.62
6101.48,4099.57
6106.72,4102.05
6111.69,4105.03
6116.34,4108.48
6120.64,4112.38
6124.53,4116.67
6127.98,4121.32
6130.96,4126.3
6133.44,4131.53
6135.39,4136.99
6136.8,4142.61
6137.65,4148.35
6137.94,4154.13
6137.94,4803.74
6137.65,4809.53
6136.8,4815.26
6135.39,4820.88
6133.44,4826.34
6130.96,4831.58
6127.98,4836.55
6124.53,4841.2
6120.64,4845.5
6116.34,4849.39
6111.69,4852.84
6106.72,4855.82
6101.48,4858.3
6096.02,4860.25
6090.4,4861.66
6084.67,4862.51
6078.88,4862.8
5960.77,4862.8
5954.98,4862.51
5949.25,4861.66
5943.63,4860.25
5938.17,4858.3
5932.93,4855.82
5927.96,4852.84
5923.31,4849.39
5919.01,4845.5
5915.12,4841.2
5911.67,4836.55
5908.69,4831.58
5906.21,4826.34
5904.26,4820.88
5902.85,4815.26
5902,4809.53
5901.72,4803.74
5901.72,4154.13
5902,4148.35
5902.85,4142.61
5904.26,4136.99
5906.21,4131.53
5908.69,4126.3
5911.67,4121.32
5915.12,4116.67
5919.01,4112.38
5923.31,4108.48
5927.96,4105.03
5932.93,4102.05
5938.17,4099.57
5943.63,4097.62
5949.25,4096.21
5954.98,4095.36
5960.77,4095.08
6078.88,4095.08
Z" /> 
</g>
<g >
</g>
<g style="fill:#000000; fill-opacity:1.0; 
stroke:#000000; stroke-width:0; stroke-opacity:1; 
stroke-linecap:round; stroke-linejoin:round;">
<path style="fill:#000000; fill-opacity:1.0; 
stroke:#000000; stroke-width:0; stroke-opacity:1; 
stroke-linecap:round; stroke-linejoin:round;fill-rule:evenodd;"
d="M 6851.32,5479.41
6860.88,5480.83
6870.25,5483.18
6879.34,5486.43
6888.07,5490.56
6896.36,5495.52
6904.12,5501.28
6911.27,5507.77
6917.76,5514.92
6923.51,5522.68
6928.48,5530.96
6932.61,5539.7
6935.86,5548.79
6938.21,5558.16
6939.63,5567.71
6940.1,5577.36
6940.1,5931.69
6939.63,5941.34
6938.21,5950.9
6935.86,5960.26
6932.61,5969.36
6928.48,5978.09
6923.51,5986.38
6917.76,5994.13
6911.27,6001.29
6904.12,6007.78
6896.36,6013.53
6888.07,6018.5
6879.34,6022.63
6870.25,6025.88
6860.88,6028.23
6851.32,6029.64
6841.68,6030.12
6634.98,6030.12
6625.34,6029.64
6615.78,6028.23
6606.41,6025.88
6597.32,6022.63
6588.59,6018.5
6580.3,6013.53
6572.54,6007.78
6565.39,6001.29
6558.9,5994.13
6553.15,5986.38
6548.18,5978.09
6544.05,5969.36
6540.8,5960.26
6538.45,5950.9
6537.03,5941.34
6536.56,5931.69
6536.56,5577.36
6537.03,5567.71
6538.45,5558.16
6540.8,5548.79
6544.05,5539.7
6548.18,5530.96
6553.15,5522.68
6558.9,5514.92
6565.39,5507.77
6572.54,5501.28
6580.3,5495.52
6588.59,5490.56
6597.32,5486.43
6606.41,5483.18
6615.78,5480.83
6625.34,5479.41
6634.98,5478.94
6841.68,5478.94
Z" /> 
<path style="fill:#000000; fill-opacity:1.0; 
stroke:#000000; stroke-width:0; stroke-opacity:1; 
stroke-linecap:round; stroke-linejoin:round;fill-rule:evenodd;"
d="M 6132.82,5479.41
6142.37,5480.83
6151.74,5483.18
6160.84,5486.43
6169.57,5490.56
6177.85,5495.52
6185.61,5501.28
6192.77,5507.77
6199.26,5514.92
6205.01,5522.68
6209.98,5530.96
6214.11,5539.7
6217.36,5548.79
6219.71,5558.16
6221.12,5567.71
6221.6,5577.36
6221.6,5931.69
6221.12,5941.34
6219.71,5950.9
6217.36,5960.26
6214.11,5969.36
6209.98,5978.09
6205.01,5986.38
6199.26,5994.13
6192.77,6001.29
6185.61,6007.78
6177.85,6013.53
6169.57,6018.5
6160.84,6022.63
6151.74,6025.88
6142.37,6028.23
6132.82,6029.64
6123.17,6030.12
5916.48,6030.12
5906.83,6029.64
5897.28,6028.23
5887.91,6025.88
5878.81,6022.63
5870.08,6018.5
5861.8,6013.53
5854.04,6007.78
5846.88,6001.29
5840.4,5994.13
5834.64,5986.38
5829.68,5978.09
5825.55,5969.36
5822.29,5960.26
5819.95,5950.9
5818.53,5941.34
5818.05,5931.69
5818.05,5577.36
5818.53,5567.71
5819.95,5558.16
5822.29,5548.79
5825.55,5539.7
5829.68,5530.96
5834.64,5522.68
5840.4,5514.92
5846.88,5507.77
5854.04,5501.28
5861.8,5495.52
5870.08,5490.56
5878.81,5486.43
5887.91,5483.18
5897.28,5480.83
5906.83,5479.41
5916.48,5478.94
6123.17,5478.94
Z" /> 
</g>
<g >
</g>
<g style="fill:#000000; fill-opacity:1.0; 
stroke:#000000; stroke-width:0; stroke-opacity:1; 
stroke-linecap:round; stroke-linejoin:round;">
<path style="fill:#000000; fill-opacity:1.0; 
stroke:#000000; stroke-width:0; stroke-opacity:1; 
stroke-linecap:round; stroke-linejoin:round;fill-rule:evenodd;"
d="M 6131.05,6363.27
6140.6,6364.69
6149.97,6367.03
6159.07,6370.29
6167.8,6374.42
6176.08,6379.38
6183.84,6385.14
6191,6391.62
6197.48,6398.78
6203.24,6406.54
6208.2,6414.82
6212.33,6423.56
6215.59,6432.65
6217.93,6442.02
6219.35,6451.57
6219.83,6461.22
6219.83,6815.55
6219.35,6825.2
6217.93,6834.75
6215.59,6844.12
6212.33,6853.22
6208.2,6861.95
6203.24,6870.23
6197.48,6877.99
6191,6885.15
6183.84,6891.64
6176.08,6897.39
6167.8,6902.36
6159.07,6906.49
6149.97,6909.74
6140.6,6912.09
6131.05,6913.5
6121.4,6913.98
5914.71,6913.98
5905.06,6913.5
5895.51,6912.09
5886.14,6909.74
5877.04,6906.49
5868.31,6902.36
5860.03,6897.39
5852.27,6891.64
5845.11,6885.15
5838.62,6877.99
5832.87,6870.23
5827.9,6861.95
5823.77,6853.22
5820.52,6844.12
5818.17,6834.75
5816.76,6825.2
5816.28,6815.55
5816.28,6461.22
5816.76,6451.57
5818.17,6442.02
5820.52,6432.65
5823.77,6423.56
5827.9,6414.82
5832.87,6406.54
5838.62,6398.78
5845.11,6391.62
5852.27,6385.14
5860.03,6379.38
5868.31,6374.42
5877.04,6370.29
5886.14,6367.03
5895.51,6364.69
5905.06,6363.27
5914.71,6362.8
6121.4,6362.8
Z" /> 
<path style="fill:#000000; fill-opacity:1.0; 
stroke:#000000; stroke-width:0; stroke-opacity:1; 
stroke-linecap:round; stroke-linejoin:round;fill-rule:evenodd;"
d="M 6849.55,6363.27
6859.11,6364.69
6868.48,6367.03
6877.57,6370.29
6886.3,6374.42
6894.59,6379.38
6902.35,6385.14
6909.5,6391.62
6915.99,6398.78
6921.74,6406.54
6926.71,6414.82
6930.84,6423.56
6934.09,6432.65
6936.44,6442.02
6937.86,6451.57
6938.33,6461.22
6938.33,6815.55
6937.86,6825.2
6936.44,6834.75
6934.09,6844.12
6930.84,6853.22
6926.71,6861.95
6921.74,6870.23
6915.99,6877.99
6909.5,6885.15
6902.35,6891.64
6894.59,6897.39
6886.3,6902.36
6877.57,6906.49
6868.48,6909.74
6859.11,6912.09
6849.55,6913.5
6839.91,6913.98
6633.21,6913.98
6623.56,6913.5
6614.01,6912.09
6604.64,6909.74
6595.55,6906.49
6586.81,6902.36
6578.53,6897.39
6570.77,6891.64
6563.61,6885.15
6557.13,6877.99
6551.37,6870.23
6546.41,6861.95
6542.28,6853.22
6539.02,6844.12
6536.68,6834.75
6535.26,6825.2
6534.79,6815.55
6534.79,6461.22
6535.26,6451.57
6536.68,6442.02
6539.02,6432.65
6542.28,6423.56
6546.41,6414.82
6551.37,6406.54
6557.13,6398.78
6563.61,6391.62
6570.77,6385.14
6578.53,6379.38
6586.81,6374.42
6595.55,6370.29
6604.64,6367.03
6614.01,6364.69
6623.56,6363.27
6633.21,6362.8
6839.91,6362.8
Z" /> 
</g>
<g >
</g>
<g style="fill:#000000; fill-opacity:1.0; 
stroke:#000000; stroke-width:0; stroke-opacity:1; 
stroke-linecap:round; stroke-linejoin:round;">
<path style="fill:#000000; fill-opacity:1.0; 
stroke:#000000; stroke-width:0; stroke-opacity:1; 
stroke-linecap:round; stroke-linejoin:round;fill-rule:evenodd;"
d="M 2310.18,2014.17
2310.18,1344.88
2979.47,1344.88
2979.47,2014.17
Z" /> 
<circle cx="2644.83" cy="2679.53" r="334.646" /> 
<circle cx="2644.83" cy="3679.53" r="334.646" /> 
<circle cx="2644.83" cy="4679.53" r="334.646" /> 
<circle cx="2644.83" cy="5679.53" r="334.646" /> 
<circle cx="2644.83" cy="6679.53" r="334.646" /> 
</g>
<g >
</g>
<g >
</g>
<g style="fill:#000000; fill-opacity:1.0; 
stroke:#000000; stroke-width:0; stroke-opacity:1; 
stroke-linecap:round; stroke-linejoin:round;">
</g>
<g style="fill:#000000; fill-opacity:1.0; 
stroke:#000000; stroke-width:196.85; stroke-opacity:1; 
stroke-linecap:round; stroke-linejoin:round;">
</g>
<g style="fill:#000000; fill-opacity:0.0; 
stroke:#000000; stroke-width:196.85; stroke-opacity:1; 
stroke-linecap:round; stroke-linejoin:round;">
<path d="M5019 2146
L5019 2530
" />
<path d="M4553 1679
L5019 2146
" />
<path d="M2644 1679
L4553 1679
" />
<path d="M6738 6636
L6736 6638
" />
<path d="M6738 5754
L6738 6636
" />
<path d="M6738 4173
L6738 5754
" />
<path d="M5519 2954
L6738 4173
" />
<path d="M5519 2530
L5519 2954
" />
<path d="M2344 854
L4344 854
" />
<path d="M1919 1279
L2344 854
" />
<path d="M1919 2304
L1919 1279
" />
<path d="M2294 2679
L1919 2304
" />
<path d="M2644 2679
L2294 2679
" />
<path d="M5519 2029
L5519 2530
" />
<path d="M4344 854
L5519 2029
" />
<path d="M2194 429
L4719 429
" />
<path d="M1544 1079
L2194 429
" />
<path d="M1544 2979
L1544 1079
" />
<path d="M2244 3679
L1544 2979
" />
<path d="M2644 3679
L2244 3679
" />
<path d="M6019 1729
L6019 2530
" />
<path d="M4719 429
L6019 1729
" />
<path d="M4519 2829
L4519 2530
" />
<path d="M4519 3154
L4519 2530
" />
<path d="M2994 4679
L4519 3154
" />
<path d="M2644 4679
L2994 4679
" />
<path d="M5019 5004
L5019 4478
" />
<path d="M4344 5679
L5019 5004
" />
<path d="M2644 5679
L4344 5679
" />
<path d="M5519 5104
L5519 4478
" />
<path d="M3944 6679
L5519 5104
" />
<path d="M2644 6679
L3944 6679
" />
</g>
<g style="fill:#000000; fill-opacity:0.0; 
stroke:#000000; stroke-width:98.4252; stroke-opacity:1; 
stroke-linecap:round; stroke-linejoin:round;">
<path d="M6021 4480
L6019 4478
" />
</g>
<g style="fill:#000000; fill-opacity:0.0; 
stroke:#000000; stroke-width:196.85; stroke-opacity:1; 
stroke-linecap:round; stroke-linejoin:round;">
<path d="M6019 6636
L6018 6638
" />
<path d="M6019 5754
L6019 6636
" />
<path d="M6019 4478
L6019 5754
" />
</g>
<g >
</g>
</g>
<g style="fill:#FFFFFF; fill-opacity:0.0; 
stroke:#FFFFFF; stroke-width:196.85; stroke-opacity:1; 
stroke-linecap:round; stroke-linejoin:round;">
</g>
<g style="fill:#FFFFFF; fill-opacity:1.0; 
stroke:#FFFFFF; stroke-width:0; stroke-opacity:1; 
stroke-linecap:round; stroke-linejoin:round;">
<circle cx="2644.83" cy="1679.53" r="196.85" /> 
</g>
<g style="fill:#FFFFFF; fill-opacity:1.0; 
stroke:#FFFFFF; stroke-width:19.685; stroke-opacity:1; 
stroke-linecap:round; stroke-linejoin:round;">
</g>
<g style="fill:#FFFFFF; fill-opacity:1.0; 
stroke:#FFFFFF; stroke-width:0; stroke-opacity:1; 
stroke-linecap:round; stroke-linejoin:round;">
<circle cx="2644.83" cy="2679.53" r="196.85" /> 
</g>
<g style="fill:#FFFFFF; fill-opacity:1.0; 
stroke:#FFFFFF; stroke-width:19.685; stroke-opacity:1; 
stroke-linecap:round; stroke-linejoin:round;">
</g>
<g style="fill:#FFFFFF; fill-opacity:1.0; 
stroke:#FFFFFF; stroke-width:0; stroke-opacity:1; 
stroke-linecap:round; stroke-linejoin:round;">
<circle cx="2644.83" cy="3679.53" r="196.85" /> 
</g>
<g style="fill:#FFFFFF; fill-opacity:1.0; 
stroke:#FFFFFF; stroke-width:19.685; stroke-opacity:1; 
stroke-linecap:round; stroke-linejoin:round;">
</g>
<g style="fill:#FFFFFF; fill-opacity:1.0; 
stroke:#FFFFFF; stroke-width:0; stroke-opacity:1; 
stroke-linecap:round; stroke-linejoin:round;">
<circle cx="2644.83" cy="4679.53" r="196.85" /> 
</g>
<g style="fill:#FFFFFF; fill-opacity:1.0; 
stroke:#FFFFFF; stroke-width:19.685; stroke-opacity:1; 
stroke-linecap:round; stroke-linejoin:round;">
</g>
<g style="fill:#FFFFFF; fill-opacity:1.0; 
stroke:#FFFFFF; stroke-width:0; stroke-opacity:1; 
stroke-linecap:round; stroke-linejoin:round;">
<circle cx="2644.83" cy="5679.53" r="196.85" /> 
</g>
<g style="fill:#FFFFFF; fill-opacity:1.0; 
stroke:#FFFFFF; stroke-width:19.685; stroke-opacity:1; 
stroke-linecap:round; stroke-linejoin:round;">
</g>
<g style="fill:#FFFFFF; fill-opacity:1.0; 
stroke:#FFFFFF; stroke-width:0; stroke-opacity:1; 
stroke-linecap:round; stroke-linejoin:round;">
<circle cx="2644.83" cy="6679.53" r="196.85" /> 
</g>
<g style="fill:#FFFFFF; fill-opacity:1.0; 
stroke:#FFFFFF; stroke-width:19.685; stroke-opacity:1; 
stroke-linecap:round; stroke-linejoin:round;">
</g>
<g style="fill:#000000; fill-opacity:1.0; 
stroke:#000000; stroke-width:19.685; stroke-opacity:1; 
stroke-linecap:round; stroke-linejoin:round;">
<g >
</g>
<g >
</g>
<g >
</g>
<g >
</g>
<g >
</g>
</g> 
</svg>
